<?xml version="1.0" encoding="UTF-8" standalone="no"?>
<!DOCTYPE svg PUBLIC "-//W3C//DTD SVG 1.1//EN"
 "http://www.w3.org/Graphics/SVG/1.1/DTD/svg11.dtd">
<!-- Generated by graphviz version 2.40.1 (20161225.0304)
 -->
<!-- Title: BlockSparsityPatternBase&lt; SparsityPatternType &gt; Pages: 1 -->
<svg width="741pt" height="124pt"
 viewBox="0.00 0.00 741.00 123.50" xmlns="http://www.w3.org/2000/svg" xmlns:xlink="http://www.w3.org/1999/xlink">
<g id="graph0" class="graph" transform="scale(1 1) rotate(0) translate(4 119.5)">
<title>BlockSparsityPatternBase&lt; SparsityPatternType &gt;</title>
<polygon fill="#ffffff" stroke="transparent" points="-4,4 -4,-119.5 737,-119.5 737,4 -4,4"/>
<!-- Node0 -->
<g id="node1" class="node">
<title>Node0</title>
<polygon fill="#bfbfbf" stroke="#000000" points="103,-24.5 103,-54.5 234,-54.5 234,-24.5 103,-24.5"/>
<text text-anchor="start" x="111" y="-42.5" font-family="Helvetica,sans-Serif" font-size="10.00" fill="#000000">BlockSparsityPatternBase</text>
<text text-anchor="middle" x="168.5" y="-31.5" font-family="Helvetica,sans-Serif" font-size="10.00" fill="#000000">&lt; SparsityPatternType &gt;</text>
</g>
<!-- Node2 -->
<g id="node3" class="node">
<title>Node2</title>
<g id="a_node3"><a xlink:href="classBlockSparsityPatternBase.html" target="_top" xlink:title="BlockSparsityPatternBase\l\&lt; SparsityPattern \&gt;">
<polygon fill="#ffffff" stroke="#000000" points="403,-49.5 403,-79.5 534,-79.5 534,-49.5 403,-49.5"/>
<text text-anchor="start" x="411" y="-67.5" font-family="Helvetica,sans-Serif" font-size="10.00" fill="#000000">BlockSparsityPatternBase</text>
<text text-anchor="middle" x="468.5" y="-56.5" font-family="Helvetica,sans-Serif" font-size="10.00" fill="#000000">&lt; SparsityPattern &gt;</text>
</a>
</g>
</g>
<!-- Node0&#45;&gt;Node2 -->
<g id="edge2" class="edge">
<title>Node0&#45;&gt;Node2</title>
<path fill="none" stroke="#ffa500" stroke-dasharray="5,2" d="M244.5345,-45.8362C293.369,-49.9058 356.1549,-55.1379 402.8173,-59.0264"/>
<polygon fill="#ffa500" stroke="#ffa500" points="244.5924,-42.329 234.3363,-44.9864 244.011,-49.3048 244.5924,-42.329"/>
<text text-anchor="middle" x="316" y="-60.5" font-family="Helvetica,sans-Serif" font-size="10.00" fill="#000000"> &lt; SparsityPattern &gt;</text>
</g>
<!-- Node5 -->
<g id="node6" class="node">
<title>Node5</title>
<g id="a_node6"><a xlink:href="classBlockSparsityPatternBase.html" target="_top" xlink:title="BlockSparsityPatternBase\l\&lt; DynamicSparsityPattern \&gt;">
<polygon fill="#ffffff" stroke="#000000" points="398,-.5 398,-30.5 539,-30.5 539,-.5 398,-.5"/>
<text text-anchor="start" x="406" y="-18.5" font-family="Helvetica,sans-Serif" font-size="10.00" fill="#000000">BlockSparsityPatternBase</text>
<text text-anchor="middle" x="468.5" y="-7.5" font-family="Helvetica,sans-Serif" font-size="10.00" fill="#000000">&lt; DynamicSparsityPattern &gt;</text>
</a>
</g>
</g>
<!-- Node0&#45;&gt;Node5 -->
<g id="edge5" class="edge">
<title>Node0&#45;&gt;Node5</title>
<path fill="none" stroke="#ffa500" stroke-dasharray="5,2" d="M244.2419,-28.3205C246.8577,-28.0283 249.4496,-27.7535 252,-27.5 300.5107,-22.6791 355.3432,-19.6649 397.688,-17.8631"/>
<polygon fill="#ffa500" stroke="#ffa500" points="243.5902,-24.8731 234.0711,-29.5246 244.4133,-31.8246 243.5902,-24.8731"/>
<text text-anchor="middle" x="316" y="-30.5" font-family="Helvetica,sans-Serif" font-size="10.00" fill="#000000"> &lt; DynamicSparsityPattern &gt;</text>
</g>
<!-- Node1 -->
<g id="node2" class="node">
<title>Node1</title>
<g id="a_node2"><a xlink:href="classSubscriptor.html" target="_top" xlink:title="Subscriptor">
<polygon fill="#ffffff" stroke="#000000" points="0,-30 0,-49 66,-49 66,-30 0,-30"/>
<text text-anchor="middle" x="33" y="-37" font-family="Helvetica,sans-Serif" font-size="10.00" fill="#000000">Subscriptor</text>
</a>
</g>
</g>
<!-- Node1&#45;&gt;Node0 -->
<g id="edge1" class="edge">
<title>Node1&#45;&gt;Node0</title>
<path fill="none" stroke="#191970" d="M76.1781,-39.5C84.6801,-39.5 93.7794,-39.5 102.8292,-39.5"/>
<polygon fill="#191970" stroke="#191970" points="76.1471,-36.0001 66.147,-39.5 76.147,-43.0001 76.1471,-36.0001"/>
</g>
<!-- Node3 -->
<g id="node4" class="node">
<title>Node3</title>
<g id="a_node4"><a xlink:href="classBlockSparsityPattern.html" target="_top" xlink:title="BlockSparsityPattern">
<polygon fill="#ffffff" stroke="#000000" points="600,-96 600,-115 709,-115 709,-96 600,-96"/>
<text text-anchor="middle" x="654.5" y="-103" font-family="Helvetica,sans-Serif" font-size="10.00" fill="#000000">BlockSparsityPattern</text>
</a>
</g>
</g>
<!-- Node2&#45;&gt;Node3 -->
<g id="edge3" class="edge">
<title>Node2&#45;&gt;Node3</title>
<path fill="none" stroke="#191970" d="M544.1195,-81.1688C566.9989,-86.2121 591.3336,-91.5762 611.3155,-95.9808"/>
<polygon fill="#191970" stroke="#191970" points="544.5957,-77.6898 534.0766,-78.9551 543.0888,-84.5257 544.5957,-77.6898"/>
</g>
<!-- Node4 -->
<g id="node5" class="node">
<title>Node4</title>
<g id="a_node5"><a xlink:href="classTrilinosWrappers_1_1BlockSparsityPattern.html" target="_top" xlink:title="TrilinosWrappers::BlockSparsity\lPattern">
<polygon fill="#ffffff" stroke="#000000" points="576,-46.5 576,-76.5 733,-76.5 733,-46.5 576,-46.5"/>
<text text-anchor="start" x="584" y="-64.5" font-family="Helvetica,sans-Serif" font-size="10.00" fill="#000000">TrilinosWrappers::BlockSparsity</text>
<text text-anchor="middle" x="654.5" y="-53.5" font-family="Helvetica,sans-Serif" font-size="10.00" fill="#000000">Pattern</text>
</a>
</g>
</g>
<!-- Node2&#45;&gt;Node4 -->
<g id="edge4" class="edge">
<title>Node2&#45;&gt;Node4</title>
<path fill="none" stroke="#191970" d="M544.3343,-63.2769C554.7105,-63.1095 565.382,-62.9374 575.8078,-62.7692"/>
<polygon fill="#191970" stroke="#191970" points="544.0189,-59.7814 534.0766,-63.4423 544.1318,-66.7805 544.0189,-59.7814"/>
</g>
<!-- Node6 -->
<g id="node7" class="node">
<title>Node6</title>
<g id="a_node7"><a xlink:href="classBlockDynamicSparsityPattern.html" target="_top" xlink:title="BlockDynamicSparsityPattern">
<polygon fill="#ffffff" stroke="#000000" points="580.5,-6 580.5,-25 728.5,-25 728.5,-6 580.5,-6"/>
<text text-anchor="middle" x="654.5" y="-13" font-family="Helvetica,sans-Serif" font-size="10.00" fill="#000000">BlockDynamicSparsityPattern</text>
</a>
</g>
</g>
<!-- Node5&#45;&gt;Node6 -->
<g id="edge6" class="edge">
<title>Node5&#45;&gt;Node6</title>
<path fill="none" stroke="#191970" d="M549.2868,-15.5C559.5765,-15.5 570.0692,-15.5 580.2492,-15.5"/>
<polygon fill="#191970" stroke="#191970" points="549.0839,-12.0001 539.0838,-15.5 549.0838,-19.0001 549.0839,-12.0001"/>
</g>
</g>
</svg>
