<?xml version="1.0" encoding="UTF-8" standalone="no"?>
<!DOCTYPE svg PUBLIC "-//W3C//DTD SVG 1.1//EN"
 "http://www.w3.org/Graphics/SVG/1.1/DTD/svg11.dtd">
<!-- Generated by graphviz version 2.40.1 (20161225.0304)
 -->
<!-- Title: AlignedVector&lt; T &gt; Pages: 1 -->
<svg width="491pt" height="1209pt"
 viewBox="0.00 0.00 491.00 1208.99" xmlns="http://www.w3.org/2000/svg" xmlns:xlink="http://www.w3.org/1999/xlink">
<g id="graph0" class="graph" transform="scale(1 1) rotate(0) translate(4 1204.9867)">
<title>AlignedVector&lt; T &gt;</title>
<polygon fill="#ffffff" stroke="transparent" points="-4,4 -4,-1204.9867 487,-1204.9867 487,4 -4,4"/>
<!-- Node0 -->
<g id="node1" class="node">
<title>Node0</title>
<polygon fill="#bfbfbf" stroke="#000000" points="0,-588.4867 0,-607.4867 101,-607.4867 101,-588.4867 0,-588.4867"/>
<text text-anchor="middle" x="50.5" y="-595.4867" font-family="Helvetica,sans-Serif" font-size="10.00" fill="#000000">AlignedVector&lt; T &gt;</text>
</g>
<!-- Node1 -->
<g id="node2" class="node">
<title>Node1</title>
<g id="a_node2"><a xlink:href="classAlignedVector.html" target="_top" xlink:title="AlignedVector\&lt; Tensor\l\&lt; 1, spacedim \&gt; \&gt;">
<polygon fill="#ffffff" stroke="#000000" points="345.5,-1151.9867 345.5,-1181.9867 461.5,-1181.9867 461.5,-1151.9867 345.5,-1151.9867"/>
<text text-anchor="start" x="353.5" y="-1169.9867" font-family="Helvetica,sans-Serif" font-size="10.00" fill="#000000">AlignedVector&lt; Tensor</text>
<text text-anchor="middle" x="403.5" y="-1158.9867" font-family="Helvetica,sans-Serif" font-size="10.00" fill="#000000">&lt; 1, spacedim &gt; &gt;</text>
</a>
</g>
</g>
<!-- Node0&#45;&gt;Node1 -->
<g id="edge1" class="edge">
<title>Node0&#45;&gt;Node1</title>
<path fill="none" stroke="#ffa500" stroke-dasharray="5,2" d="M51.5165,-617.7308C56.5273,-711.3702 79.939,-1107.7348 119,-1144.9867 178.6908,-1201.9128 281.0827,-1194.0967 345.3812,-1181.6736"/>
<polygon fill="#ffa500" stroke="#ffa500" points="55.0064,-617.4442 50.9858,-607.6419 48.0161,-617.812 55.0064,-617.4442"/>
<text text-anchor="middle" x="212.5" y="-1192.9867" font-family="Helvetica,sans-Serif" font-size="10.00" fill="#000000"> &lt; Tensor&lt; 1, spacedim &gt; &gt;</text>
</g>
<!-- Node2 -->
<g id="node3" class="node">
<title>Node2</title>
<g id="a_node3"><a xlink:href="classAlignedVector.html" target="_top" xlink:title="AlignedVector\&lt; typename\l internal::FEPointEvaluation\l::EvaluatorTypeTraits\&lt; dim,\l n_components, VectorizedArray\l\&lt; Number \&gt; \&gt;::value_type \&gt;">
<polygon fill="#ffffff" stroke="#000000" points="324,-1063.4867 324,-1126.4867 483,-1126.4867 483,-1063.4867 324,-1063.4867"/>
<text text-anchor="start" x="332" y="-1114.4867" font-family="Helvetica,sans-Serif" font-size="10.00" fill="#000000">AlignedVector&lt; typename</text>
<text text-anchor="start" x="332" y="-1103.4867" font-family="Helvetica,sans-Serif" font-size="10.00" fill="#000000"> internal::FEPointEvaluation</text>
<text text-anchor="start" x="332" y="-1092.4867" font-family="Helvetica,sans-Serif" font-size="10.00" fill="#000000">::EvaluatorTypeTraits&lt; dim,</text>
<text text-anchor="start" x="332" y="-1081.4867" font-family="Helvetica,sans-Serif" font-size="10.00" fill="#000000"> n_components, VectorizedArray</text>
<text text-anchor="middle" x="403.5" y="-1070.4867" font-family="Helvetica,sans-Serif" font-size="10.00" fill="#000000">&lt; Number &gt; &gt;::value_type &gt;</text>
</a>
</g>
</g>
<!-- Node0&#45;&gt;Node2 -->
<g id="edge2" class="edge">
<title>Node0&#45;&gt;Node2</title>
<path fill="none" stroke="#ffa500" stroke-dasharray="5,2" d="M52.0298,-617.7354C58.7395,-701.9826 86.6763,-1028.4544 119,-1059.9867 133.5161,-1074.1474 244.8862,-1084.4647 323.8878,-1090.092"/>
<polygon fill="#ffa500" stroke="#ffa500" points="55.5143,-617.4002 51.2407,-607.7056 48.5359,-617.9493 55.5143,-617.4002"/>
<text text-anchor="start" x="138.5" y="-1134.9867" font-family="Helvetica,sans-Serif" font-size="10.00" fill="#000000"> &lt; typename internal</text>
<text text-anchor="start" x="138.5" y="-1123.9867" font-family="Helvetica,sans-Serif" font-size="10.00" fill="#000000">::FEPointEvaluation</text>
<text text-anchor="start" x="138.5" y="-1112.9867" font-family="Helvetica,sans-Serif" font-size="10.00" fill="#000000">::EvaluatorTypeTraits</text>
<text text-anchor="start" x="138.5" y="-1101.9867" font-family="Helvetica,sans-Serif" font-size="10.00" fill="#000000">&lt; dim, n_components, Vectorized</text>
<text text-anchor="middle" x="212.5" y="-1090.9867" font-family="Helvetica,sans-Serif" font-size="10.00" fill="#000000">Array&lt; Number &gt; &gt;::value_type &gt;</text>
</g>
<!-- Node3 -->
<g id="node4" class="node">
<title>Node3</title>
<g id="a_node4"><a xlink:href="classAlignedVector.html" target="_top" xlink:title="AlignedVector\&lt; RangeNumber\lType \&gt;">
<polygon fill="#ffffff" stroke="#000000" points="329,-1013.9867 329,-1043.9867 478,-1043.9867 478,-1013.9867 329,-1013.9867"/>
<text text-anchor="start" x="337" y="-1031.9867" font-family="Helvetica,sans-Serif" font-size="10.00" fill="#000000">AlignedVector&lt; RangeNumber</text>
<text text-anchor="middle" x="403.5" y="-1020.9867" font-family="Helvetica,sans-Serif" font-size="10.00" fill="#000000">Type &gt;</text>
</a>
</g>
</g>
<!-- Node0&#45;&gt;Node3 -->
<g id="edge3" class="edge">
<title>Node0&#45;&gt;Node3</title>
<path fill="none" stroke="#ffa500" stroke-dasharray="5,2" d="M50.9025,-617.8958C52.8177,-691.0374 63.4145,-943.3754 119,-995.9867 174.1622,-1048.1973 264.7856,-1049.8508 328.9131,-1042.6916"/>
<polygon fill="#ffa500" stroke="#ffa500" points="54.3982,-617.6686 50.6641,-607.7537 47.4001,-617.8332 54.3982,-617.6686"/>
<text text-anchor="middle" x="212.5" y="-1047.9867" font-family="Helvetica,sans-Serif" font-size="10.00" fill="#000000"> &lt; RangeNumberType &gt;</text>
</g>
<!-- Node4 -->
<g id="node5" class="node">
<title>Node4</title>
<g id="a_node5"><a xlink:href="classAlignedVector.html" target="_top" xlink:title="AlignedVector\&lt; Tensor\l\&lt; 3, dim \&gt; \&gt;">
<polygon fill="#ffffff" stroke="#000000" points="345.5,-964.9867 345.5,-994.9867 461.5,-994.9867 461.5,-964.9867 345.5,-964.9867"/>
<text text-anchor="start" x="353.5" y="-982.9867" font-family="Helvetica,sans-Serif" font-size="10.00" fill="#000000">AlignedVector&lt; Tensor</text>
<text text-anchor="middle" x="403.5" y="-971.9867" font-family="Helvetica,sans-Serif" font-size="10.00" fill="#000000">&lt; 3, dim &gt; &gt;</text>
</a>
</g>
</g>
<!-- Node0&#45;&gt;Node4 -->
<g id="edge4" class="edge">
<title>Node0&#45;&gt;Node4</title>
<path fill="none" stroke="#ffa500" stroke-dasharray="5,2" d="M51.3637,-617.7514C54.7426,-685.1886 69.4288,-904.5573 119,-949.9867 150.9929,-979.3065 271.8754,-982.5769 345.3847,-981.6994"/>
<polygon fill="#ffa500" stroke="#ffa500" points="54.8539,-617.4598 50.8862,-607.636 47.8617,-617.7899 54.8539,-617.4598"/>
<text text-anchor="middle" x="212.5" y="-983.9867" font-family="Helvetica,sans-Serif" font-size="10.00" fill="#000000"> &lt; Tensor&lt; 3, dim &gt; &gt;</text>
</g>
<!-- Node5 -->
<g id="node6" class="node">
<title>Node5</title>
<g id="a_node6"><a xlink:href="classAlignedVector.html" target="_top" xlink:title="AlignedVector\&lt; InverseNumber\lType \&gt;">
<polygon fill="#ffffff" stroke="#000000" points="327,-915.9867 327,-945.9867 480,-945.9867 480,-915.9867 327,-915.9867"/>
<text text-anchor="start" x="335" y="-933.9867" font-family="Helvetica,sans-Serif" font-size="10.00" fill="#000000">AlignedVector&lt; InverseNumber</text>
<text text-anchor="middle" x="403.5" y="-922.9867" font-family="Helvetica,sans-Serif" font-size="10.00" fill="#000000">Type &gt;</text>
</a>
</g>
</g>
<!-- Node0&#45;&gt;Node5 -->
<g id="edge5" class="edge">
<title>Node0&#45;&gt;Node5</title>
<path fill="none" stroke="#ffa500" stroke-dasharray="5,2" d="M51.8881,-617.8218C56.6761,-680.0172 74.7052,-869.3719 119,-907.9867 148.9755,-934.1183 253.193,-936.5239 326.7775,-934.6822"/>
<polygon fill="#ffa500" stroke="#ffa500" points="55.3716,-617.4685 51.1448,-607.7534 48.3906,-617.9839 55.3716,-617.4685"/>
<text text-anchor="middle" x="212.5" y="-937.9867" font-family="Helvetica,sans-Serif" font-size="10.00" fill="#000000"> &lt; InverseNumberType &gt;</text>
</g>
<!-- Node6 -->
<g id="node7" class="node">
<title>Node6</title>
<g id="a_node7"><a xlink:href="classAlignedVector.html" target="_top" xlink:title="AlignedVector\&lt; Vectorized\lArray\&lt; double \&gt; \&gt;">
<polygon fill="#ffffff" stroke="#000000" points="337,-866.9867 337,-896.9867 470,-896.9867 470,-866.9867 337,-866.9867"/>
<text text-anchor="start" x="345" y="-884.9867" font-family="Helvetica,sans-Serif" font-size="10.00" fill="#000000">AlignedVector&lt; Vectorized</text>
<text text-anchor="middle" x="403.5" y="-873.9867" font-family="Helvetica,sans-Serif" font-size="10.00" fill="#000000">Array&lt; double &gt; &gt;</text>
</a>
</g>
</g>
<!-- Node0&#45;&gt;Node6 -->
<g id="edge6" class="edge">
<title>Node0&#45;&gt;Node6</title>
<path fill="none" stroke="#ffa500" stroke-dasharray="5,2" d="M52.9771,-617.495C60.2107,-671.1867 83.0891,-819.2016 119,-849.9867 150.698,-877.1602 263.3163,-882.4497 336.9958,-882.8753"/>
<polygon fill="#ffa500" stroke="#ffa500" points="56.4429,-617.0054 51.6719,-607.5456 49.5024,-617.9159 56.4429,-617.0054"/>
<text text-anchor="start" x="168.5" y="-895.9867" font-family="Helvetica,sans-Serif" font-size="10.00" fill="#000000"> &lt; VectorizedArray&lt;</text>
<text text-anchor="middle" x="212.5" y="-884.9867" font-family="Helvetica,sans-Serif" font-size="10.00" fill="#000000"> double &gt; &gt;</text>
</g>
<!-- Node7 -->
<g id="node8" class="node">
<title>Node7</title>
<g id="a_node8"><a xlink:href="classAlignedVector.html" target="_top" xlink:title="AlignedVector\&lt; Tensor\l\&lt; 2, dim \&gt; \&gt;">
<polygon fill="#ffffff" stroke="#000000" points="345.5,-817.9867 345.5,-847.9867 461.5,-847.9867 461.5,-817.9867 345.5,-817.9867"/>
<text text-anchor="start" x="353.5" y="-835.9867" font-family="Helvetica,sans-Serif" font-size="10.00" fill="#000000">AlignedVector&lt; Tensor</text>
<text text-anchor="middle" x="403.5" y="-824.9867" font-family="Helvetica,sans-Serif" font-size="10.00" fill="#000000">&lt; 2, dim &gt; &gt;</text>
</a>
</g>
</g>
<!-- Node0&#45;&gt;Node7 -->
<g id="edge7" class="edge">
<title>Node0&#45;&gt;Node7</title>
<path fill="none" stroke="#ffa500" stroke-dasharray="5,2" d="M54.1037,-617.5774C63.2073,-664.7922 88.5842,-782.7603 119,-806.9867 152.8008,-833.9092 272.3975,-836.2272 345.3337,-834.9623"/>
<polygon fill="#ffa500" stroke="#ffa500" points="57.5279,-616.8482 52.2337,-607.671 50.6494,-618.1466 57.5279,-616.8482"/>
<text text-anchor="middle" x="212.5" y="-837.9867" font-family="Helvetica,sans-Serif" font-size="10.00" fill="#000000"> &lt; Tensor&lt; 2, dim &gt; &gt;</text>
</g>
<!-- Node8 -->
<g id="node9" class="node">
<title>Node8</title>
<g id="a_node9"><a xlink:href="classAlignedVector.html" target="_top" xlink:title="AlignedVector\&lt; double \&gt;">
<polygon fill="#ffffff" stroke="#000000" points="341.5,-779.4867 341.5,-798.4867 465.5,-798.4867 465.5,-779.4867 341.5,-779.4867"/>
<text text-anchor="middle" x="403.5" y="-786.4867" font-family="Helvetica,sans-Serif" font-size="10.00" fill="#000000">AlignedVector&lt; double &gt;</text>
</a>
</g>
</g>
<!-- Node0&#45;&gt;Node8 -->
<g id="edge8" class="edge">
<title>Node0&#45;&gt;Node8</title>
<path fill="none" stroke="#ffa500" stroke-dasharray="5,2" d="M52.0472,-618.0657C56.0396,-654.5476 70.1155,-731.2362 119,-766.9867 153.1393,-791.9536 268.3052,-793.4023 341.2217,-791.5986"/>
<polygon fill="#ffa500" stroke="#ffa500" points="55.4967,-617.3642 51.0739,-607.7366 48.5276,-618.0209 55.4967,-617.3642"/>
<text text-anchor="middle" x="212.5" y="-794.9867" font-family="Helvetica,sans-Serif" font-size="10.00" fill="#000000"> &lt; double &gt;</text>
</g>
<!-- Node9 -->
<g id="node10" class="node">
<title>Node9</title>
<g id="a_node10"><a xlink:href="classAlignedVector.html" target="_top" xlink:title="AlignedVector\&lt; NumberType \&gt;">
<polygon fill="#ffffff" stroke="#000000" points="327.5,-741.4867 327.5,-760.4867 479.5,-760.4867 479.5,-741.4867 327.5,-741.4867"/>
<text text-anchor="middle" x="403.5" y="-748.4867" font-family="Helvetica,sans-Serif" font-size="10.00" fill="#000000">AlignedVector&lt; NumberType &gt;</text>
</a>
</g>
</g>
<!-- Node0&#45;&gt;Node9 -->
<g id="edge9" class="edge">
<title>Node0&#45;&gt;Node9</title>
<path fill="none" stroke="#ffa500" stroke-dasharray="5,2" d="M54.6263,-617.3985C61.9765,-646.6904 80.3426,-701.471 119,-726.9867 152.0951,-748.831 254.9541,-752.7449 327.4444,-752.6085"/>
<polygon fill="#ffa500" stroke="#ffa500" points="58.0061,-616.4798 52.3293,-607.5342 51.1885,-618.0675 58.0061,-616.4798"/>
<text text-anchor="middle" x="212.5" y="-754.9867" font-family="Helvetica,sans-Serif" font-size="10.00" fill="#000000"> &lt; NumberType &gt;</text>
</g>
<!-- Node10 -->
<g id="node11" class="node">
<title>Node10</title>
<g id="a_node11"><a xlink:href="classAlignedVector.html" target="_top" xlink:title="AlignedVector\&lt; Vectorized\lArrayType \&gt;">
<polygon fill="#ffffff" stroke="#000000" points="337,-691.9867 337,-721.9867 470,-721.9867 470,-691.9867 337,-691.9867"/>
<text text-anchor="start" x="345" y="-709.9867" font-family="Helvetica,sans-Serif" font-size="10.00" fill="#000000">AlignedVector&lt; Vectorized</text>
<text text-anchor="middle" x="403.5" y="-698.9867" font-family="Helvetica,sans-Serif" font-size="10.00" fill="#000000">ArrayType &gt;</text>
</a>
</g>
</g>
<!-- Node0&#45;&gt;Node10 -->
<g id="edge10" class="edge">
<title>Node0&#45;&gt;Node10</title>
<path fill="none" stroke="#ffa500" stroke-dasharray="5,2" d="M61.3108,-616.2176C73.0584,-634.2121 93.5942,-660.8773 119,-673.9867 187.2699,-709.214 276.7597,-713.9405 336.9902,-712.1507"/>
<polygon fill="#ffa500" stroke="#ffa500" points="64.2618,-614.3352 55.9894,-607.7156 58.3282,-618.0491 64.2618,-614.3352"/>
<text text-anchor="middle" x="212.5" y="-714.9867" font-family="Helvetica,sans-Serif" font-size="10.00" fill="#000000"> &lt; VectorizedArrayType &gt;</text>
</g>
<!-- Node11 -->
<g id="node12" class="node">
<title>Node11</title>
<g id="a_node12"><a xlink:href="classAlignedVector.html" target="_top" xlink:title="AlignedVector\&lt; Tensor\l\&lt; 4, dim \&gt; \&gt;">
<polygon fill="#ffffff" stroke="#000000" points="345.5,-642.9867 345.5,-672.9867 461.5,-672.9867 461.5,-642.9867 345.5,-642.9867"/>
<text text-anchor="start" x="353.5" y="-660.9867" font-family="Helvetica,sans-Serif" font-size="10.00" fill="#000000">AlignedVector&lt; Tensor</text>
<text text-anchor="middle" x="403.5" y="-649.9867" font-family="Helvetica,sans-Serif" font-size="10.00" fill="#000000">&lt; 4, dim &gt; &gt;</text>
</a>
</g>
</g>
<!-- Node0&#45;&gt;Node11 -->
<g id="edge11" class="edge">
<title>Node0&#45;&gt;Node11</title>
<path fill="none" stroke="#ffa500" stroke-dasharray="5,2" d="M72.8168,-613.1151C85.7316,-621.0631 102.6271,-630.1372 119,-634.9867 194.9023,-657.4681 286.8608,-660.848 345.2798,-660.2116"/>
<polygon fill="#ffa500" stroke="#ffa500" points="74.4933,-610.033 64.1808,-607.6033 70.7273,-615.9337 74.4933,-610.033"/>
<text text-anchor="middle" x="212.5" y="-661.9867" font-family="Helvetica,sans-Serif" font-size="10.00" fill="#000000"> &lt; Tensor&lt; 4, dim &gt; &gt;</text>
</g>
<!-- Node12 -->
<g id="node13" class="node">
<title>Node12</title>
<g id="a_node13"><a xlink:href="classAlignedVector.html" target="_top" xlink:title="AlignedVector\&lt; Tensor\l\&lt; 1, spacedim *(spacedim\l+1)/2, Tensor\&lt; 1, spacedim,\l VectorizedArrayType \&gt; \&gt; \&gt;">
<polygon fill="#ffffff" stroke="#000000" points="333.5,-571.9867 333.5,-623.9867 473.5,-623.9867 473.5,-571.9867 333.5,-571.9867"/>
<text text-anchor="start" x="341.5" y="-611.9867" font-family="Helvetica,sans-Serif" font-size="10.00" fill="#000000">AlignedVector&lt; Tensor</text>
<text text-anchor="start" x="341.5" y="-600.9867" font-family="Helvetica,sans-Serif" font-size="10.00" fill="#000000">&lt; 1, spacedim *(spacedim</text>
<text text-anchor="start" x="341.5" y="-589.9867" font-family="Helvetica,sans-Serif" font-size="10.00" fill="#000000">+1)/2, Tensor&lt; 1, spacedim,</text>
<text text-anchor="middle" x="403.5" y="-578.9867" font-family="Helvetica,sans-Serif" font-size="10.00" fill="#000000"> VectorizedArrayType &gt; &gt; &gt;</text>
</a>
</g>
</g>
<!-- Node0&#45;&gt;Node12 -->
<g id="edge12" class="edge">
<title>Node0&#45;&gt;Node12</title>
<path fill="none" stroke="#ffa500" stroke-dasharray="5,2" d="M111.4314,-597.9867C173.112,-597.9867 268.3934,-597.9867 333.2259,-597.9867"/>
<polygon fill="#ffa500" stroke="#ffa500" points="111.0763,-594.4868 101.0763,-597.9867 111.0763,-601.4868 111.0763,-594.4868"/>
<text text-anchor="start" x="119" y="-622.9867" font-family="Helvetica,sans-Serif" font-size="10.00" fill="#000000"> &lt; Tensor&lt; 1, spacedim</text>
<text text-anchor="start" x="119" y="-611.9867" font-family="Helvetica,sans-Serif" font-size="10.00" fill="#000000"> *(spacedim+1)/2, Tensor</text>
<text text-anchor="middle" x="212.5" y="-600.9867" font-family="Helvetica,sans-Serif" font-size="10.00" fill="#000000">&lt; 1, spacedim, VectorizedArrayType &gt; &gt; &gt;</text>
</g>
<!-- Node13 -->
<g id="node14" class="node">
<title>Node13</title>
<g id="a_node14"><a xlink:href="classAlignedVector.html" target="_top" xlink:title="AlignedVector\&lt; Point\l\&lt; spacedim, VectorizedArray\lType \&gt; \&gt;">
<polygon fill="#ffffff" stroke="#000000" points="332,-511.4867 332,-552.4867 475,-552.4867 475,-511.4867 332,-511.4867"/>
<text text-anchor="start" x="340" y="-540.4867" font-family="Helvetica,sans-Serif" font-size="10.00" fill="#000000">AlignedVector&lt; Point</text>
<text text-anchor="start" x="340" y="-529.4867" font-family="Helvetica,sans-Serif" font-size="10.00" fill="#000000">&lt; spacedim, VectorizedArray</text>
<text text-anchor="middle" x="403.5" y="-518.4867" font-family="Helvetica,sans-Serif" font-size="10.00" fill="#000000">Type &gt; &gt;</text>
</a>
</g>
</g>
<!-- Node0&#45;&gt;Node13 -->
<g id="edge13" class="edge">
<title>Node0&#45;&gt;Node13</title>
<path fill="none" stroke="#ffa500" stroke-dasharray="5,2" d="M81.2813,-584.6281C92.9149,-580.027 106.3903,-575.2229 119,-571.9867 190.2608,-553.6979 273.8513,-543.2051 331.9067,-537.5961"/>
<polygon fill="#ffa500" stroke="#ffa500" points="79.9434,-581.3938 72.0016,-588.4065 82.5832,-587.877 79.9434,-581.3938"/>
<text text-anchor="start" x="156" y="-585.9867" font-family="Helvetica,sans-Serif" font-size="10.00" fill="#000000"> &lt; Point&lt; spacedim,</text>
<text text-anchor="middle" x="212.5" y="-574.9867" font-family="Helvetica,sans-Serif" font-size="10.00" fill="#000000"> VectorizedArrayType &gt; &gt;</text>
</g>
<!-- Node14 -->
<g id="node15" class="node">
<title>Node14</title>
<g id="a_node15"><a xlink:href="classAlignedVector.html" target="_top" xlink:title="AlignedVector\&lt; unsigned\l int \&gt;">
<polygon fill="#ffffff" stroke="#000000" points="341,-461.9867 341,-491.9867 466,-491.9867 466,-461.9867 341,-461.9867"/>
<text text-anchor="start" x="349" y="-479.9867" font-family="Helvetica,sans-Serif" font-size="10.00" fill="#000000">AlignedVector&lt; unsigned</text>
<text text-anchor="middle" x="403.5" y="-468.9867" font-family="Helvetica,sans-Serif" font-size="10.00" fill="#000000"> int &gt;</text>
</a>
</g>
</g>
<!-- Node0&#45;&gt;Node14 -->
<g id="edge14" class="edge">
<title>Node0&#45;&gt;Node14</title>
<path fill="none" stroke="#ffa500" stroke-dasharray="5,2" d="M62.3403,-579.7174C74.435,-562.6598 94.833,-537.9444 119,-524.9867 188.6391,-487.648 280.4827,-478.1 340.7223,-476.2709"/>
<polygon fill="#ffa500" stroke="#ffa500" points="59.2426,-578.0479 56.5041,-588.2827 65.0274,-581.9896 59.2426,-578.0479"/>
<text text-anchor="middle" x="212.5" y="-527.9867" font-family="Helvetica,sans-Serif" font-size="10.00" fill="#000000"> &lt; unsigned int &gt;</text>
</g>
<!-- Node15 -->
<g id="node16" class="node">
<title>Node15</title>
<g id="a_node16"><a xlink:href="classAlignedVector.html" target="_top" xlink:title="AlignedVector\&lt; inverse\l_type \&gt;">
<polygon fill="#ffffff" stroke="#000000" points="344.5,-412.9867 344.5,-442.9867 462.5,-442.9867 462.5,-412.9867 344.5,-412.9867"/>
<text text-anchor="start" x="352.5" y="-430.9867" font-family="Helvetica,sans-Serif" font-size="10.00" fill="#000000">AlignedVector&lt; inverse</text>
<text text-anchor="middle" x="403.5" y="-419.9867" font-family="Helvetica,sans-Serif" font-size="10.00" fill="#000000">_type &gt;</text>
</a>
</g>
</g>
<!-- Node0&#45;&gt;Node15 -->
<g id="edge15" class="edge">
<title>Node0&#45;&gt;Node15</title>
<path fill="none" stroke="#ffa500" stroke-dasharray="5,2" d="M54.3651,-578.3269C61.4336,-548.0706 79.51,-490.6944 119,-462.9867 185.4021,-416.3965 282.5846,-414.9466 344.4305,-420.0419"/>
<polygon fill="#ffa500" stroke="#ffa500" points="50.863,-577.9632 52.1733,-588.4767 57.7053,-579.4408 50.863,-577.9632"/>
<text text-anchor="middle" x="212.5" y="-465.9867" font-family="Helvetica,sans-Serif" font-size="10.00" fill="#000000"> &lt; inverse_type &gt;</text>
</g>
<!-- Node16 -->
<g id="node17" class="node">
<title>Node16</title>
<g id="a_node17"><a xlink:href="classAlignedVector.html" target="_top" xlink:title="AlignedVector\&lt; Number \&gt;">
<polygon fill="#ffffff" stroke="#000000" points="338.5,-374.4867 338.5,-393.4867 468.5,-393.4867 468.5,-374.4867 338.5,-374.4867"/>
<text text-anchor="middle" x="403.5" y="-381.4867" font-family="Helvetica,sans-Serif" font-size="10.00" fill="#000000">AlignedVector&lt; Number &gt;</text>
</a>
</g>
</g>
<!-- Node0&#45;&gt;Node16 -->
<g id="edge16" class="edge">
<title>Node0&#45;&gt;Node16</title>
<path fill="none" stroke="#ffa500" stroke-dasharray="5,2" d="M54.5219,-578.4717C64.2057,-533.5306 90.161,-424.9026 119,-402.9867 191.323,-348.0256 306.1397,-362.0942 365.3719,-374.4709"/>
<polygon fill="#ffa500" stroke="#ffa500" points="51.06,-577.9264 52.4187,-588.4337 57.909,-579.3724 51.06,-577.9264"/>
<text text-anchor="middle" x="212.5" y="-405.9867" font-family="Helvetica,sans-Serif" font-size="10.00" fill="#000000"> &lt; Number &gt;</text>
</g>
<!-- Node17 -->
<g id="node18" class="node">
<title>Node17</title>
<g id="a_node18"><a xlink:href="classAlignedVector.html" target="_top" xlink:title="AlignedVector\&lt; Tensor\l\&lt; 1, spacedim, VectorizedArray\lType \&gt; \&gt;">
<polygon fill="#ffffff" stroke="#000000" points="326,-314.4867 326,-355.4867 481,-355.4867 481,-314.4867 326,-314.4867"/>
<text text-anchor="start" x="334" y="-343.4867" font-family="Helvetica,sans-Serif" font-size="10.00" fill="#000000">AlignedVector&lt; Tensor</text>
<text text-anchor="start" x="334" y="-332.4867" font-family="Helvetica,sans-Serif" font-size="10.00" fill="#000000">&lt; 1, spacedim, VectorizedArray</text>
<text text-anchor="middle" x="403.5" y="-321.4867" font-family="Helvetica,sans-Serif" font-size="10.00" fill="#000000">Type &gt; &gt;</text>
</a>
</g>
</g>
<!-- Node0&#45;&gt;Node17 -->
<g id="edge17" class="edge">
<title>Node0&#45;&gt;Node17</title>
<path fill="none" stroke="#ffa500" stroke-dasharray="5,2" d="M52.6179,-578.3112C59.0352,-522.8127 80.2392,-367.1053 119,-336.9867 150.1048,-312.8171 252.8895,-317.9887 325.9596,-325.322"/>
<polygon fill="#ffa500" stroke="#ffa500" points="49.1362,-577.9534 51.5013,-588.2809 56.0927,-578.7327 49.1362,-577.9534"/>
<text text-anchor="start" x="156" y="-350.9867" font-family="Helvetica,sans-Serif" font-size="10.00" fill="#000000"> &lt; Tensor&lt; 1, spacedim,</text>
<text text-anchor="middle" x="212.5" y="-339.9867" font-family="Helvetica,sans-Serif" font-size="10.00" fill="#000000"> VectorizedArrayType &gt; &gt;</text>
</g>
<!-- Node18 -->
<g id="node19" class="node">
<title>Node18</title>
<g id="a_node19"><a xlink:href="classAlignedVector.html" target="_top" xlink:title="AlignedVector\&lt; number \&gt;">
<polygon fill="#ffffff" stroke="#000000" points="339.5,-276.4867 339.5,-295.4867 467.5,-295.4867 467.5,-276.4867 339.5,-276.4867"/>
<text text-anchor="middle" x="403.5" y="-283.4867" font-family="Helvetica,sans-Serif" font-size="10.00" fill="#000000">AlignedVector&lt; number &gt;</text>
</a>
</g>
</g>
<!-- Node0&#45;&gt;Node18 -->
<g id="edge18" class="edge">
<title>Node0&#45;&gt;Node18</title>
<path fill="none" stroke="#ffa500" stroke-dasharray="5,2" d="M52.0938,-578.3667C57.3917,-518.4803 76.5381,-339.9363 119,-303.9867 151.0589,-276.8446 265.692,-277.7833 339.296,-281.4967"/>
<polygon fill="#ffa500" stroke="#ffa500" points="48.6009,-578.1361 51.2395,-588.3971 55.5756,-578.7302 48.6009,-578.1361"/>
<text text-anchor="middle" x="212.5" y="-306.9867" font-family="Helvetica,sans-Serif" font-size="10.00" fill="#000000"> &lt; number &gt;</text>
</g>
<!-- Node19 -->
<g id="node20" class="node">
<title>Node19</title>
<g id="a_node20"><a xlink:href="classAlignedVector.html" target="_top" xlink:title="AlignedVector\&lt; Vectorized\lArray\&lt; Number \&gt; \&gt;">
<polygon fill="#ffffff" stroke="#000000" points="337,-226.9867 337,-256.9867 470,-256.9867 470,-226.9867 337,-226.9867"/>
<text text-anchor="start" x="345" y="-244.9867" font-family="Helvetica,sans-Serif" font-size="10.00" fill="#000000">AlignedVector&lt; Vectorized</text>
<text text-anchor="middle" x="403.5" y="-233.9867" font-family="Helvetica,sans-Serif" font-size="10.00" fill="#000000">Array&lt; Number &gt; &gt;</text>
</a>
</g>
</g>
<!-- Node0&#45;&gt;Node19 -->
<g id="edge19" class="edge">
<title>Node0&#45;&gt;Node19</title>
<path fill="none" stroke="#ffa500" stroke-dasharray="5,2" d="M51.3411,-578.0763C54.6191,-511.0949 68.9478,-295.7233 119,-252.9867 183.6561,-197.7806 289.8584,-211.7921 352.5924,-226.931"/>
<polygon fill="#ffa500" stroke="#ffa500" points="47.8264,-578.3172 50.8648,-588.467 54.8191,-578.6377 47.8264,-578.3172"/>
<text text-anchor="start" x="168.5" y="-266.9867" font-family="Helvetica,sans-Serif" font-size="10.00" fill="#000000"> &lt; VectorizedArray&lt;</text>
<text text-anchor="middle" x="212.5" y="-255.9867" font-family="Helvetica,sans-Serif" font-size="10.00" fill="#000000"> Number &gt; &gt;</text>
</g>
<!-- Node20 -->
<g id="node21" class="node">
<title>Node20</title>
<g id="a_node21"><a xlink:href="classAlignedVector.html" target="_top" xlink:title="AlignedVector\&lt; Tensor\l\&lt; 2, spacedim, VectorizedArray\lType \&gt; \&gt;">
<polygon fill="#ffffff" stroke="#000000" points="326,-166.4867 326,-207.4867 481,-207.4867 481,-166.4867 326,-166.4867"/>
<text text-anchor="start" x="334" y="-195.4867" font-family="Helvetica,sans-Serif" font-size="10.00" fill="#000000">AlignedVector&lt; Tensor</text>
<text text-anchor="start" x="334" y="-184.4867" font-family="Helvetica,sans-Serif" font-size="10.00" fill="#000000">&lt; 2, spacedim, VectorizedArray</text>
<text text-anchor="middle" x="403.5" y="-173.4867" font-family="Helvetica,sans-Serif" font-size="10.00" fill="#000000">Type &gt; &gt;</text>
</a>
</g>
</g>
<!-- Node0&#45;&gt;Node20 -->
<g id="edge20" class="edge">
<title>Node0&#45;&gt;Node20</title>
<path fill="none" stroke="#ffa500" stroke-dasharray="5,2" d="M52.3162,-578.1142C59.7034,-499.436 88.5529,-212.7792 119,-186.9867 149.1028,-161.4858 252.4217,-167.8112 325.8574,-176.1724"/>
<polygon fill="#ffa500" stroke="#ffa500" points="48.8232,-577.877 51.3844,-588.1576 55.7933,-578.5238 48.8232,-577.877"/>
<text text-anchor="start" x="156" y="-200.9867" font-family="Helvetica,sans-Serif" font-size="10.00" fill="#000000"> &lt; Tensor&lt; 2, spacedim,</text>
<text text-anchor="middle" x="212.5" y="-189.9867" font-family="Helvetica,sans-Serif" font-size="10.00" fill="#000000"> VectorizedArrayType &gt; &gt;</text>
</g>
<!-- Node21 -->
<g id="node22" class="node">
<title>Node21</title>
<g id="a_node22"><a xlink:href="classAlignedVector.html" target="_top" xlink:title="AlignedVector\&lt; typename\l VectorType::value_type \&gt;">
<polygon fill="#ffffff" stroke="#000000" points="337.5,-116.9867 337.5,-146.9867 469.5,-146.9867 469.5,-116.9867 337.5,-116.9867"/>
<text text-anchor="start" x="345.5" y="-134.9867" font-family="Helvetica,sans-Serif" font-size="10.00" fill="#000000">AlignedVector&lt; typename</text>
<text text-anchor="middle" x="403.5" y="-123.9867" font-family="Helvetica,sans-Serif" font-size="10.00" fill="#000000"> VectorType::value_type &gt;</text>
</a>
</g>
</g>
<!-- Node0&#45;&gt;Node21 -->
<g id="edge21" class="edge">
<title>Node0&#45;&gt;Node21</title>
<path fill="none" stroke="#ffa500" stroke-dasharray="5,2" d="M52.002,-578.1649C58.5497,-494.3061 85.7649,-171.6345 119,-141.9867 150.0722,-114.2683 263.4951,-118.7063 337.4002,-124.9782"/>
<polygon fill="#ffa500" stroke="#ffa500" points="48.4953,-578.1181 51.2168,-588.3574 55.4746,-578.6558 48.4953,-578.1181"/>
<text text-anchor="start" x="158" y="-155.9867" font-family="Helvetica,sans-Serif" font-size="10.00" fill="#000000"> &lt; typename VectorType</text>
<text text-anchor="middle" x="212.5" y="-144.9867" font-family="Helvetica,sans-Serif" font-size="10.00" fill="#000000">::value_type &gt;</text>
</g>
<!-- Node22 -->
<g id="node23" class="node">
<title>Node22</title>
<g id="a_node23"><a xlink:href="classAlignedVector.html" target="_top" xlink:title="AlignedVector\&lt; Derivative\lForm\&lt; 1, dim, spacedim \&gt; \&gt;">
<polygon fill="#ffffff" stroke="#000000" points="333,-67.9867 333,-97.9867 474,-97.9867 474,-67.9867 333,-67.9867"/>
<text text-anchor="start" x="341" y="-85.9867" font-family="Helvetica,sans-Serif" font-size="10.00" fill="#000000">AlignedVector&lt; Derivative</text>
<text text-anchor="middle" x="403.5" y="-74.9867" font-family="Helvetica,sans-Serif" font-size="10.00" fill="#000000">Form&lt; 1, dim, spacedim &gt; &gt;</text>
</a>
</g>
</g>
<!-- Node0&#45;&gt;Node22 -->
<g id="edge22" class="edge">
<title>Node0&#45;&gt;Node22</title>
<path fill="none" stroke="#ffa500" stroke-dasharray="5,2" d="M51.714,-578.097C57.363,-488.7323 82.36,-127.2532 119,-93.9867 182.7683,-36.0896 291.5369,-51.9131 354.5015,-67.9232"/>
<polygon fill="#ffa500" stroke="#ffa500" points="48.2114,-578.0311 51.0833,-588.2293 55.1979,-578.4661 48.2114,-578.0311"/>
<text text-anchor="start" x="164" y="-107.9867" font-family="Helvetica,sans-Serif" font-size="10.00" fill="#000000"> &lt; DerivativeForm&lt; 1,</text>
<text text-anchor="middle" x="212.5" y="-96.9867" font-family="Helvetica,sans-Serif" font-size="10.00" fill="#000000"> dim, spacedim &gt; &gt;</text>
</g>
<!-- Node23 -->
<g id="node24" class="node">
<title>Node23</title>
<g id="a_node24"><a xlink:href="classAlignedVector.html" target="_top" xlink:title="AlignedVector\&lt; Tensor\l\&lt; 1, dim \&gt; \&gt;">
<polygon fill="#ffffff" stroke="#000000" points="345.5,-18.9867 345.5,-48.9867 461.5,-48.9867 461.5,-18.9867 345.5,-18.9867"/>
<text text-anchor="start" x="353.5" y="-36.9867" font-family="Helvetica,sans-Serif" font-size="10.00" fill="#000000">AlignedVector&lt; Tensor</text>
<text text-anchor="middle" x="403.5" y="-25.9867" font-family="Helvetica,sans-Serif" font-size="10.00" fill="#000000">&lt; 1, dim &gt; &gt;</text>
</a>
</g>
</g>
<!-- Node0&#45;&gt;Node23 -->
<g id="edge23" class="edge">
<title>Node0&#45;&gt;Node23</title>
<path fill="none" stroke="#ffa500" stroke-dasharray="5,2" d="M51.4215,-578.0519C56.0286,-482.6655 77.986,-75.9292 119,-38.9867 184.6109,20.111 297.3029,-.8826 359.34,-18.9339"/>
<polygon fill="#ffa500" stroke="#ffa500" points="47.923,-577.9407 50.9456,-588.0952 54.9151,-578.2721 47.923,-577.9407"/>
<text text-anchor="middle" x="212.5" y="-41.9867" font-family="Helvetica,sans-Serif" font-size="10.00" fill="#000000"> &lt; Tensor&lt; 1, dim &gt; &gt;</text>
</g>
</g>
</svg>
