<?xml version="1.0" encoding="UTF-8" standalone="no"?>
<!DOCTYPE svg PUBLIC "-//W3C//DTD SVG 1.1//EN"
 "http://www.w3.org/Graphics/SVG/1.1/DTD/svg11.dtd">
<!-- Generated by graphviz version 2.40.1 (20161225.0304)
 -->
<!-- Title: SLEPcWrappers::TransformationShiftInvert Pages: 1 -->
<svg width="191pt" height="204pt"
 viewBox="0.00 0.00 191.00 204.00" xmlns="http://www.w3.org/2000/svg" xmlns:xlink="http://www.w3.org/1999/xlink">
<g id="graph0" class="graph" transform="scale(1 1) rotate(0) translate(4 200)">
<title>SLEPcWrappers::TransformationShiftInvert</title>
<polygon fill="#ffffff" stroke="transparent" points="-4,4 -4,-200 187,-200 187,4 -4,4"/>
<!-- Node0 -->
<g id="node1" class="node">
<title>Node0</title>
<polygon fill="#bfbfbf" stroke="#000000" points="11,-.5 11,-68.5 172,-68.5 172,-.5 11,-.5"/>
<text text-anchor="start" x="19" y="-56.5" font-family="Helvetica,sans-Serif" font-size="10.00" fill="#000000">SLEPcWrappers::Transformation</text>
<text text-anchor="middle" x="91.5" y="-45.5" font-family="Helvetica,sans-Serif" font-size="10.00" fill="#000000">ShiftInvert</text>
<polyline fill="none" stroke="#000000" points="11,-38.5 172,-38.5 "/>
<text text-anchor="start" x="19" y="-26.5" font-family="Helvetica,sans-Serif" font-size="10.00" fill="#000000"># additional_data</text>
<polyline fill="none" stroke="#000000" points="11,-19.5 172,-19.5 "/>
<text text-anchor="start" x="19" y="-7.5" font-family="Helvetica,sans-Serif" font-size="10.00" fill="#000000">+ TransformationShiftInvert()</text>
</g>
<!-- Node1 -->
<g id="node2" class="node">
<title>Node1</title>
<g id="a_node2"><a xlink:href="classSLEPcWrappers_1_1TransformationBase.html" target="_top" xlink:title="{SLEPcWrappers::TransformationBase\n|# st\l|+ ~TransformationBase()\l+ set_matrix_mode()\l+ set_solver()\l# TransformationBase()\l}">
<polygon fill="#ffffff" stroke="#000000" points="0,-105.5 0,-195.5 183,-195.5 183,-105.5 0,-105.5"/>
<text text-anchor="middle" x="91.5" y="-183.5" font-family="Helvetica,sans-Serif" font-size="10.00" fill="#000000">SLEPcWrappers::TransformationBase</text>
<polyline fill="none" stroke="#000000" points="0,-176.5 183,-176.5 "/>
<text text-anchor="start" x="8" y="-164.5" font-family="Helvetica,sans-Serif" font-size="10.00" fill="#000000"># st</text>
<polyline fill="none" stroke="#000000" points="0,-157.5 183,-157.5 "/>
<text text-anchor="start" x="8" y="-145.5" font-family="Helvetica,sans-Serif" font-size="10.00" fill="#000000">+ ~TransformationBase()</text>
<text text-anchor="start" x="8" y="-134.5" font-family="Helvetica,sans-Serif" font-size="10.00" fill="#000000">+ set_matrix_mode()</text>
<text text-anchor="start" x="8" y="-123.5" font-family="Helvetica,sans-Serif" font-size="10.00" fill="#000000">+ set_solver()</text>
<text text-anchor="start" x="8" y="-112.5" font-family="Helvetica,sans-Serif" font-size="10.00" fill="#000000"># TransformationBase()</text>
</a>
</g>
</g>
<!-- Node1&#45;&gt;Node0 -->
<g id="edge1" class="edge">
<title>Node1&#45;&gt;Node0</title>
<path fill="none" stroke="#191970" d="M91.5,-95.1681C91.5,-86.1024 91.5,-76.9497 91.5,-68.5982"/>
<polygon fill="none" stroke="#191970" points="88.0001,-95.3192 91.5,-105.3192 95.0001,-95.3192 88.0001,-95.3192"/>
</g>
</g>
</svg>
