<?xml version="1.0" encoding="UTF-8" standalone="no"?>
<!DOCTYPE svg PUBLIC "-//W3C//DTD SVG 1.1//EN"
 "http://www.w3.org/Graphics/SVG/1.1/DTD/svg11.dtd">
<!-- Generated by graphviz version 2.40.1 (20161225.0304)
 -->
<!-- Title: PreconditionBlock&lt; MatrixType, inverse_type &gt; Pages: 1 -->
<svg width="822pt" height="110pt"
 viewBox="0.00 0.00 822.00 110.00" xmlns="http://www.w3.org/2000/svg" xmlns:xlink="http://www.w3.org/1999/xlink">
<g id="graph0" class="graph" transform="scale(1 1) rotate(0) translate(4 106)">
<title>PreconditionBlock&lt; MatrixType, inverse_type &gt;</title>
<polygon fill="#ffffff" stroke="transparent" points="-4,4 -4,-106 818,-106 818,4 -4,4"/>
<!-- Node0 -->
<g id="node1" class="node">
<title>Node0</title>
<polygon fill="#bfbfbf" stroke="#000000" points="386,-30.5 386,-71.5 492,-71.5 492,-30.5 386,-30.5"/>
<text text-anchor="start" x="394" y="-59.5" font-family="Helvetica,sans-Serif" font-size="10.00" fill="#000000">PreconditionBlock&lt;</text>
<text text-anchor="start" x="394" y="-48.5" font-family="Helvetica,sans-Serif" font-size="10.00" fill="#000000"> MatrixType, inverse</text>
<text text-anchor="middle" x="439" y="-37.5" font-family="Helvetica,sans-Serif" font-size="10.00" fill="#000000">_type &gt;</text>
</g>
<!-- Node4 -->
<g id="node5" class="node">
<title>Node4</title>
<g id="a_node5"><a xlink:href="classPreconditionBlockJacobi.html" target="_top" xlink:title="PreconditionBlockJacobi\l\&lt; MatrixType, inverse\l_type \&gt;">
<polygon fill="#ffffff" stroke="#000000" points="529,-60.5 529,-101.5 653,-101.5 653,-60.5 529,-60.5"/>
<text text-anchor="start" x="537" y="-89.5" font-family="Helvetica,sans-Serif" font-size="10.00" fill="#000000">PreconditionBlockJacobi</text>
<text text-anchor="start" x="537" y="-78.5" font-family="Helvetica,sans-Serif" font-size="10.00" fill="#000000">&lt; MatrixType, inverse</text>
<text text-anchor="middle" x="591" y="-67.5" font-family="Helvetica,sans-Serif" font-size="10.00" fill="#000000">_type &gt;</text>
</a>
</g>
</g>
<!-- Node0&#45;&gt;Node4 -->
<g id="edge4" class="edge">
<title>Node0&#45;&gt;Node4</title>
<path fill="none" stroke="#8b1a1a" d="M502.0091,-63.436C510.845,-65.1799 519.9223,-66.9715 528.7441,-68.7126"/>
<polygon fill="#8b1a1a" stroke="#8b1a1a" points="502.6507,-59.9952 492.1622,-61.4925 501.2952,-66.8627 502.6507,-59.9952"/>
</g>
<!-- Node5 -->
<g id="node6" class="node">
<title>Node5</title>
<g id="a_node6"><a xlink:href="classPreconditionBlockSOR.html" target="_top" xlink:title="PreconditionBlockSOR\l\&lt; MatrixType, inverse\l_type \&gt;">
<polygon fill="#ffffff" stroke="#000000" points="532.5,-.5 532.5,-41.5 649.5,-41.5 649.5,-.5 532.5,-.5"/>
<text text-anchor="start" x="540.5" y="-29.5" font-family="Helvetica,sans-Serif" font-size="10.00" fill="#000000">PreconditionBlockSOR</text>
<text text-anchor="start" x="540.5" y="-18.5" font-family="Helvetica,sans-Serif" font-size="10.00" fill="#000000">&lt; MatrixType, inverse</text>
<text text-anchor="middle" x="591" y="-7.5" font-family="Helvetica,sans-Serif" font-size="10.00" fill="#000000">_type &gt;</text>
</a>
</g>
</g>
<!-- Node0&#45;&gt;Node5 -->
<g id="edge5" class="edge">
<title>Node0&#45;&gt;Node5</title>
<path fill="none" stroke="#006400" d="M502.0794,-38.5501C512.127,-36.567 522.4851,-34.5227 532.4231,-32.5612"/>
<polygon fill="#006400" stroke="#006400" points="501.2952,-35.1373 492.1622,-40.5075 502.6507,-42.0048 501.2952,-35.1373"/>
</g>
<!-- Node1 -->
<g id="node2" class="node">
<title>Node1</title>
<g id="a_node2"><a xlink:href="classSubscriptor.html" target="_top" xlink:title="Subscriptor">
<polygon fill="#ffffff" stroke="#000000" points="257,-63.5 257,-82.5 323,-82.5 323,-63.5 257,-63.5"/>
<text text-anchor="middle" x="290" y="-70.5" font-family="Helvetica,sans-Serif" font-size="10.00" fill="#000000">Subscriptor</text>
</a>
</g>
</g>
<!-- Node1&#45;&gt;Node0 -->
<g id="edge1" class="edge">
<title>Node1&#45;&gt;Node0</title>
<path fill="none" stroke="#191970" d="M332.9746,-66.6548C349.4706,-64.2191 368.495,-61.4101 385.8353,-58.8498"/>
<polygon fill="#191970" stroke="#191970" points="332.4494,-63.1943 323.0679,-68.1175 333.4719,-70.1192 332.4494,-63.1943"/>
</g>
<!-- Node2 -->
<g id="node3" class="node">
<title>Node2</title>
<g id="a_node3"><a xlink:href="classPreconditionBlockBase.html" target="_top" xlink:title="PreconditionBlockBase\l\&lt; inverse_type \&gt;">
<polygon fill="#ffffff" stroke="#000000" points="231,-14 231,-44 349,-44 349,-14 231,-14"/>
<text text-anchor="start" x="239" y="-32" font-family="Helvetica,sans-Serif" font-size="10.00" fill="#000000">PreconditionBlockBase</text>
<text text-anchor="middle" x="290" y="-21" font-family="Helvetica,sans-Serif" font-size="10.00" fill="#000000">&lt; inverse_type &gt;</text>
</a>
</g>
</g>
<!-- Node2&#45;&gt;Node0 -->
<g id="edge2" class="edge">
<title>Node2&#45;&gt;Node0</title>
<path fill="none" stroke="#006400" d="M359.2659,-39.2272C368.1393,-40.5373 377.1122,-41.8622 385.6777,-43.1269"/>
<polygon fill="#006400" stroke="#006400" points="359.7209,-35.7565 349.3169,-37.7582 358.6984,-42.6814 359.7209,-35.7565"/>
</g>
<!-- Node3 -->
<g id="node4" class="node">
<title>Node3</title>
<g id="a_node4"><a xlink:href="classPreconditionBlockBase.html" target="_top" xlink:title="PreconditionBlockBase\l\&lt; number \&gt;">
<polygon fill="#ffffff" stroke="#000000" points="0,-14 0,-44 118,-44 118,-14 0,-14"/>
<text text-anchor="start" x="8" y="-32" font-family="Helvetica,sans-Serif" font-size="10.00" fill="#000000">PreconditionBlockBase</text>
<text text-anchor="middle" x="59" y="-21" font-family="Helvetica,sans-Serif" font-size="10.00" fill="#000000">&lt; number &gt;</text>
</a>
</g>
</g>
<!-- Node3&#45;&gt;Node2 -->
<g id="edge3" class="edge">
<title>Node3&#45;&gt;Node2</title>
<path fill="none" stroke="#ffa500" stroke-dasharray="5,2" d="M128.5705,-29C161.2326,-29 199.7486,-29 230.9656,-29"/>
<polygon fill="#ffa500" stroke="#ffa500" points="128.1883,-25.5001 118.1883,-29 128.1882,-32.5001 128.1883,-25.5001"/>
<text text-anchor="middle" x="174.5" y="-32" font-family="Helvetica,sans-Serif" font-size="10.00" fill="#000000"> &lt; inverse_type &gt;</text>
</g>
<!-- Node6 -->
<g id="node7" class="node">
<title>Node6</title>
<g id="a_node7"><a xlink:href="classPreconditionBlockSSOR.html" target="_top" xlink:title="PreconditionBlockSSOR\l\&lt; MatrixType, inverse\l_type \&gt;">
<polygon fill="#ffffff" stroke="#000000" points="690,-.5 690,-41.5 814,-41.5 814,-.5 690,-.5"/>
<text text-anchor="start" x="698" y="-29.5" font-family="Helvetica,sans-Serif" font-size="10.00" fill="#000000">PreconditionBlockSSOR</text>
<text text-anchor="start" x="698" y="-18.5" font-family="Helvetica,sans-Serif" font-size="10.00" fill="#000000">&lt; MatrixType, inverse</text>
<text text-anchor="middle" x="752" y="-7.5" font-family="Helvetica,sans-Serif" font-size="10.00" fill="#000000">_type &gt;</text>
</a>
</g>
</g>
<!-- Node5&#45;&gt;Node6 -->
<g id="edge6" class="edge">
<title>Node5&#45;&gt;Node6</title>
<path fill="none" stroke="#8b1a1a" d="M659.8743,-21C669.8626,-21 680.0949,-21 689.9385,-21"/>
<polygon fill="#8b1a1a" stroke="#8b1a1a" points="659.5802,-17.5001 649.5801,-21 659.5801,-24.5001 659.5802,-17.5001"/>
</g>
</g>
</svg>
