<?xml version="1.0" encoding="UTF-8" standalone="no"?>
<!DOCTYPE svg PUBLIC "-//W3C//DTD SVG 1.1//EN"
 "http://www.w3.org/Graphics/SVG/1.1/DTD/svg11.dtd">
<!-- Generated by graphviz version 2.40.1 (20161225.0304)
 -->
<!-- Title: RepartitioningPolicyTools::Base&lt; dim, spacedim &gt; Pages: 1 -->
<svg width="367pt" height="160pt"
 viewBox="0.00 0.00 367.00 159.50" xmlns="http://www.w3.org/2000/svg" xmlns:xlink="http://www.w3.org/1999/xlink">
<g id="graph0" class="graph" transform="scale(1 1) rotate(0) translate(4 155.5)">
<title>RepartitioningPolicyTools::Base&lt; dim, spacedim &gt;</title>
<polygon fill="#ffffff" stroke="transparent" points="-4,4 -4,-155.5 363,-155.5 363,4 -4,4"/>
<!-- Node0 -->
<g id="node1" class="node">
<title>Node0</title>
<polygon fill="#bfbfbf" stroke="#000000" points="0,-66 0,-96 141,-96 141,-66 0,-66"/>
<text text-anchor="start" x="8" y="-84" font-family="Helvetica,sans-Serif" font-size="10.00" fill="#000000">RepartitioningPolicyTools</text>
<text text-anchor="middle" x="70.5" y="-73" font-family="Helvetica,sans-Serif" font-size="10.00" fill="#000000">::Base&lt; dim, spacedim &gt;</text>
</g>
<!-- Node1 -->
<g id="node2" class="node">
<title>Node1</title>
<g id="a_node2"><a xlink:href="classRepartitioningPolicyTools_1_1DefaultPolicy.html" target="_top" xlink:title="RepartitioningPolicyTools\l::DefaultPolicy\&lt; dim, spacedim \&gt;">
<polygon fill="#ffffff" stroke="#000000" points="177,-121 177,-151 359,-151 359,-121 177,-121"/>
<text text-anchor="start" x="185" y="-139" font-family="Helvetica,sans-Serif" font-size="10.00" fill="#000000">RepartitioningPolicyTools</text>
<text text-anchor="middle" x="268" y="-128" font-family="Helvetica,sans-Serif" font-size="10.00" fill="#000000">::DefaultPolicy&lt; dim, spacedim &gt;</text>
</a>
</g>
</g>
<!-- Node0&#45;&gt;Node1 -->
<g id="edge1" class="edge">
<title>Node0&#45;&gt;Node1</title>
<path fill="none" stroke="#191970" d="M133.3425,-98.7749C147.686,-102.8117 162.8658,-107.0678 177,-111 188.6805,-114.2496 201.212,-117.7094 213.1264,-120.9864"/>
<polygon fill="#191970" stroke="#191970" points="134.1435,-95.3644 123.5691,-96.0219 132.2455,-102.1022 134.1435,-95.3644"/>
</g>
<!-- Node2 -->
<g id="node3" class="node">
<title>Node2</title>
<g id="a_node3"><a xlink:href="classRepartitioningPolicyTools_1_1FirstChildPolicy.html" target="_top" xlink:title="RepartitioningPolicyTools\l::FirstChildPolicy\&lt; dim,\l spacedim \&gt;">
<polygon fill="#ffffff" stroke="#000000" points="198.5,-60.5 198.5,-101.5 337.5,-101.5 337.5,-60.5 198.5,-60.5"/>
<text text-anchor="start" x="206.5" y="-89.5" font-family="Helvetica,sans-Serif" font-size="10.00" fill="#000000">RepartitioningPolicyTools</text>
<text text-anchor="start" x="206.5" y="-78.5" font-family="Helvetica,sans-Serif" font-size="10.00" fill="#000000">::FirstChildPolicy&lt; dim,</text>
<text text-anchor="middle" x="268" y="-67.5" font-family="Helvetica,sans-Serif" font-size="10.00" fill="#000000"> spacedim &gt;</text>
</a>
</g>
</g>
<!-- Node0&#45;&gt;Node2 -->
<g id="edge2" class="edge">
<title>Node0&#45;&gt;Node2</title>
<path fill="none" stroke="#191970" d="M151.3908,-81C166.9922,-81 183.2088,-81 198.4123,-81"/>
<polygon fill="#191970" stroke="#191970" points="151.2442,-77.5001 141.2442,-81 151.2442,-84.5001 151.2442,-77.5001"/>
</g>
<!-- Node3 -->
<g id="node4" class="node">
<title>Node3</title>
<g id="a_node4"><a xlink:href="classRepartitioningPolicyTools_1_1MinimalGranularityPolicy.html" target="_top" xlink:title="RepartitioningPolicyTools\l::MinimalGranularityPolicy\l\&lt; dim, spacedim \&gt;">
<polygon fill="#ffffff" stroke="#000000" points="195,-.5 195,-41.5 341,-41.5 341,-.5 195,-.5"/>
<text text-anchor="start" x="203" y="-29.5" font-family="Helvetica,sans-Serif" font-size="10.00" fill="#000000">RepartitioningPolicyTools</text>
<text text-anchor="start" x="203" y="-18.5" font-family="Helvetica,sans-Serif" font-size="10.00" fill="#000000">::MinimalGranularityPolicy</text>
<text text-anchor="middle" x="268" y="-7.5" font-family="Helvetica,sans-Serif" font-size="10.00" fill="#000000">&lt; dim, spacedim &gt;</text>
</a>
</g>
</g>
<!-- Node0&#45;&gt;Node3 -->
<g id="edge3" class="edge">
<title>Node0&#45;&gt;Node3</title>
<path fill="none" stroke="#191970" d="M129.7429,-63.0022C152.0198,-56.2345 177.5088,-48.491 200.4833,-41.5114"/>
<polygon fill="#191970" stroke="#191970" points="128.6335,-59.6812 120.0827,-65.9369 130.6683,-66.3789 128.6335,-59.6812"/>
</g>
</g>
</svg>
