<?xml version="1.0" encoding="UTF-8" standalone="no"?>
<!DOCTYPE svg PUBLIC "-//W3C//DTD SVG 1.1//EN"
 "http://www.w3.org/Graphics/SVG/1.1/DTD/svg11.dtd">
<!-- Generated by graphviz version 2.40.1 (20161225.0304)
 -->
<!-- Title: DataOutStack&lt; dim, spacedim, void &gt; Pages: 1 -->
<svg width="176pt" height="185pt"
 viewBox="0.00 0.00 175.50 185.00" xmlns="http://www.w3.org/2000/svg" xmlns:xlink="http://www.w3.org/1999/xlink">
<g id="graph0" class="graph" transform="scale(1 1) rotate(0) translate(4 181)">
<title>DataOutStack&lt; dim, spacedim, void &gt;</title>
<polygon fill="#ffffff" stroke="transparent" points="-4,4 -4,-181 171.5,-181 171.5,4 -4,4"/>
<!-- Node0 -->
<g id="node1" class="node">
<title>Node0</title>
<polygon fill="#bfbfbf" stroke="#000000" points="6,-.5 6,-30.5 113,-30.5 113,-.5 6,-.5"/>
<text text-anchor="start" x="14" y="-18.5" font-family="Helvetica,sans-Serif" font-size="10.00" fill="#000000">DataOutStack&lt; dim,</text>
<text text-anchor="middle" x="59.5" y="-7.5" font-family="Helvetica,sans-Serif" font-size="10.00" fill="#000000"> spacedim, void &gt;</text>
</g>
<!-- Node1 -->
<g id="node2" class="node">
<title>Node1</title>
<g id="a_node2"><a xlink:href="classDataOutInterface.html" target="_top" xlink:title="DataOutInterface\&lt; dim\l+1, spacedim+1 \&gt;">
<polygon fill="#ffffff" stroke="#000000" points="1.5,-68.5 1.5,-98.5 117.5,-98.5 117.5,-68.5 1.5,-68.5"/>
<text text-anchor="start" x="9.5" y="-86.5" font-family="Helvetica,sans-Serif" font-size="10.00" fill="#000000">DataOutInterface&lt; dim</text>
<text text-anchor="middle" x="59.5" y="-75.5" font-family="Helvetica,sans-Serif" font-size="10.00" fill="#000000">+1, spacedim+1 &gt;</text>
</a>
</g>
</g>
<!-- Node1&#45;&gt;Node0 -->
<g id="edge1" class="edge">
<title>Node1&#45;&gt;Node0</title>
<path fill="none" stroke="#191970" d="M59.5,-58.1174C59.5,-48.8378 59.5,-38.6413 59.5,-30.5492"/>
<polygon fill="#191970" stroke="#191970" points="56.0001,-58.4086 59.5,-68.4086 63.0001,-58.4086 56.0001,-58.4086"/>
</g>
<!-- Node2 -->
<g id="node3" class="node">
<title>Node2</title>
<g id="a_node3"><a xlink:href="classDataOutInterface.html" target="_top" xlink:title="DataOutInterface\&lt; dim,\l spacedim \&gt;">
<polygon fill="#ffffff" stroke="#000000" points="0,-146.5 0,-176.5 119,-176.5 119,-146.5 0,-146.5"/>
<text text-anchor="start" x="8" y="-164.5" font-family="Helvetica,sans-Serif" font-size="10.00" fill="#000000">DataOutInterface&lt; dim,</text>
<text text-anchor="middle" x="59.5" y="-153.5" font-family="Helvetica,sans-Serif" font-size="10.00" fill="#000000"> spacedim &gt;</text>
</a>
</g>
</g>
<!-- Node2&#45;&gt;Node1 -->
<g id="edge2" class="edge">
<title>Node2&#45;&gt;Node1</title>
<path fill="none" stroke="#ffa500" stroke-dasharray="5,2" d="M59.5,-136.2875C59.5,-123.9187 59.5,-109.4264 59.5,-98.7592"/>
<polygon fill="#ffa500" stroke="#ffa500" points="56.0001,-136.4608 59.5,-146.4608 63.0001,-136.4608 56.0001,-136.4608"/>
<text text-anchor="middle" x="113.5" y="-120" font-family="Helvetica,sans-Serif" font-size="10.00" fill="#000000"> &lt; dim+1, spacedim+1 &gt;</text>
</g>
</g>
</svg>
