<?xml version="1.0" encoding="UTF-8" standalone="no"?>
<!DOCTYPE svg PUBLIC "-//W3C//DTD SVG 1.1//EN"
 "http://www.w3.org/Graphics/SVG/1.1/DTD/svg11.dtd">
<!-- Generated by graphviz version 2.40.1 (20161225.0304)
 -->
<!-- Title: TimeStepping::RungeKutta&lt; VectorType &gt; Pages: 1 -->
<svg width="518pt" height="186pt"
 viewBox="0.00 0.00 518.00 186.00" xmlns="http://www.w3.org/2000/svg" xmlns:xlink="http://www.w3.org/1999/xlink">
<g id="graph0" class="graph" transform="scale(1 1) rotate(0) translate(4 182)">
<title>TimeStepping::RungeKutta&lt; VectorType &gt;</title>
<polygon fill="#ffffff" stroke="transparent" points="-4,4 -4,-182 514,-182 514,4 -4,4"/>
<!-- Node0 -->
<g id="node1" class="node">
<title>Node0</title>
<polygon fill="#bfbfbf" stroke="#000000" points="179,-73.5 179,-103.5 313,-103.5 313,-73.5 179,-73.5"/>
<text text-anchor="start" x="187" y="-91.5" font-family="Helvetica,sans-Serif" font-size="10.00" fill="#000000">TimeStepping::RungeKutta</text>
<text text-anchor="middle" x="246" y="-80.5" font-family="Helvetica,sans-Serif" font-size="10.00" fill="#000000">&lt; VectorType &gt;</text>
</g>
<!-- Node2 -->
<g id="node3" class="node">
<title>Node2</title>
<g id="a_node3"><a xlink:href="classTimeStepping_1_1EmbeddedExplicitRungeKutta.html" target="_top" xlink:title="TimeStepping::EmbeddedExplicit\lRungeKutta\&lt; VectorType \&gt;">
<polygon fill="#ffffff" stroke="#000000" points="349,-147.5 349,-177.5 510,-177.5 510,-147.5 349,-147.5"/>
<text text-anchor="start" x="357" y="-165.5" font-family="Helvetica,sans-Serif" font-size="10.00" fill="#000000">TimeStepping::EmbeddedExplicit</text>
<text text-anchor="middle" x="429.5" y="-154.5" font-family="Helvetica,sans-Serif" font-size="10.00" fill="#000000">RungeKutta&lt; VectorType &gt;</text>
</a>
</g>
</g>
<!-- Node0&#45;&gt;Node2 -->
<g id="edge2" class="edge">
<title>Node0&#45;&gt;Node2</title>
<path fill="none" stroke="#191970" d="M282.9363,-108.235C302.2778,-118.1037 326.5513,-129.7713 349,-138.5 357.1554,-141.671 365.9099,-144.674 374.5347,-147.4135"/>
<polygon fill="#191970" stroke="#191970" points="284.3588,-105.0305 273.8671,-103.5555 281.149,-111.2513 284.3588,-105.0305"/>
</g>
<!-- Node3 -->
<g id="node4" class="node">
<title>Node3</title>
<g id="a_node4"><a xlink:href="classTimeStepping_1_1ExplicitRungeKutta.html" target="_top" xlink:title="TimeStepping::ExplicitRunge\lKutta\&lt; VectorType \&gt;">
<polygon fill="#ffffff" stroke="#000000" points="358,-98.5 358,-128.5 501,-128.5 501,-98.5 358,-98.5"/>
<text text-anchor="start" x="366" y="-116.5" font-family="Helvetica,sans-Serif" font-size="10.00" fill="#000000">TimeStepping::ExplicitRunge</text>
<text text-anchor="middle" x="429.5" y="-105.5" font-family="Helvetica,sans-Serif" font-size="10.00" fill="#000000">Kutta&lt; VectorType &gt;</text>
</a>
</g>
</g>
<!-- Node0&#45;&gt;Node3 -->
<g id="edge3" class="edge">
<title>Node0&#45;&gt;Node3</title>
<path fill="none" stroke="#191970" d="M323.0271,-98.9942C334.521,-100.5601 346.3314,-102.1691 357.7113,-103.7195"/>
<polygon fill="#191970" stroke="#191970" points="323.4076,-95.5137 313.0266,-97.6317 322.4626,-102.4497 323.4076,-95.5137"/>
</g>
<!-- Node4 -->
<g id="node5" class="node">
<title>Node4</title>
<g id="a_node5"><a xlink:href="classTimeStepping_1_1ImplicitRungeKutta.html" target="_top" xlink:title="TimeStepping::ImplicitRunge\lKutta\&lt; VectorType \&gt;">
<polygon fill="#ffffff" stroke="#000000" points="358,-49.5 358,-79.5 501,-79.5 501,-49.5 358,-49.5"/>
<text text-anchor="start" x="366" y="-67.5" font-family="Helvetica,sans-Serif" font-size="10.00" fill="#000000">TimeStepping::ImplicitRunge</text>
<text text-anchor="middle" x="429.5" y="-56.5" font-family="Helvetica,sans-Serif" font-size="10.00" fill="#000000">Kutta&lt; VectorType &gt;</text>
</a>
</g>
</g>
<!-- Node0&#45;&gt;Node4 -->
<g id="edge4" class="edge">
<title>Node0&#45;&gt;Node4</title>
<path fill="none" stroke="#191970" d="M323.0271,-78.4256C334.521,-76.9223 346.3314,-75.3776 357.7113,-73.8893"/>
<polygon fill="#191970" stroke="#191970" points="322.4883,-74.9662 313.0266,-79.7336 323.3961,-81.9071 322.4883,-74.9662"/>
</g>
<!-- Node5 -->
<g id="node6" class="node">
<title>Node5</title>
<g id="a_node6"><a xlink:href="classTimeStepping_1_1LowStorageRungeKutta.html" target="_top" xlink:title="TimeStepping::LowStorage\lRungeKutta\&lt; VectorType \&gt;">
<polygon fill="#ffffff" stroke="#000000" points="361,-.5 361,-30.5 498,-30.5 498,-.5 361,-.5"/>
<text text-anchor="start" x="369" y="-18.5" font-family="Helvetica,sans-Serif" font-size="10.00" fill="#000000">TimeStepping::LowStorage</text>
<text text-anchor="middle" x="429.5" y="-7.5" font-family="Helvetica,sans-Serif" font-size="10.00" fill="#000000">RungeKutta&lt; VectorType &gt;</text>
</a>
</g>
</g>
<!-- Node0&#45;&gt;Node5 -->
<g id="edge5" class="edge">
<title>Node0&#45;&gt;Node5</title>
<path fill="none" stroke="#191970" d="M283.805,-68.792C303.0194,-59.2206 326.9198,-47.9853 349,-39.5 357.3039,-36.3088 366.2211,-33.2758 374.9879,-30.5067"/>
<polygon fill="#191970" stroke="#191970" points="282.1349,-65.7142 274.7774,-73.3377 285.2831,-71.9663 282.1349,-65.7142"/>
</g>
<!-- Node1 -->
<g id="node2" class="node">
<title>Node1</title>
<g id="a_node2"><a xlink:href="classTimeStepping_1_1TimeStepping.html" target="_top" xlink:title="TimeStepping::TimeStepping\l\&lt; VectorType \&gt;">
<polygon fill="#ffffff" stroke="#000000" points="0,-73.5 0,-103.5 143,-103.5 143,-73.5 0,-73.5"/>
<text text-anchor="start" x="8" y="-91.5" font-family="Helvetica,sans-Serif" font-size="10.00" fill="#000000">TimeStepping::TimeStepping</text>
<text text-anchor="middle" x="71.5" y="-80.5" font-family="Helvetica,sans-Serif" font-size="10.00" fill="#000000">&lt; VectorType &gt;</text>
</a>
</g>
</g>
<!-- Node1&#45;&gt;Node0 -->
<g id="edge1" class="edge">
<title>Node1&#45;&gt;Node0</title>
<path fill="none" stroke="#191970" d="M153.4968,-88.5C161.9572,-88.5 170.4837,-88.5 178.7565,-88.5"/>
<polygon fill="#191970" stroke="#191970" points="153.2313,-85.0001 143.2312,-88.5 153.2312,-92.0001 153.2313,-85.0001"/>
</g>
</g>
</svg>
