<?xml version="1.0" encoding="UTF-8" standalone="no"?>
<!DOCTYPE svg PUBLIC "-//W3C//DTD SVG 1.1//EN"
 "http://www.w3.org/Graphics/SVG/1.1/DTD/svg11.dtd">
<!-- Generated by graphviz version 2.40.1 (20161225.0304)
 -->
<!-- Title: RepartitioningPolicyTools::Base&lt; dim, spacedim &gt; Pages: 1 -->
<svg width="476pt" height="226pt"
 viewBox="0.00 0.00 475.50 226.00" xmlns="http://www.w3.org/2000/svg" xmlns:xlink="http://www.w3.org/1999/xlink">
<g id="graph0" class="graph" transform="scale(1 1) rotate(0) translate(4 222)">
<title>RepartitioningPolicyTools::Base&lt; dim, spacedim &gt;</title>
<polygon fill="#ffffff" stroke="transparent" points="-4,4 -4,-222 471.5,-222 471.5,4 -4,4"/>
<!-- Node0 -->
<g id="node1" class="node">
<title>Node0</title>
<polygon fill="#bfbfbf" stroke="#000000" points="181.5,-149.5 181.5,-217.5 309.5,-217.5 309.5,-149.5 181.5,-149.5"/>
<text text-anchor="start" x="189.5" y="-205.5" font-family="Helvetica,sans-Serif" font-size="10.00" fill="#000000">RepartitioningPolicyTools</text>
<text text-anchor="middle" x="245.5" y="-194.5" font-family="Helvetica,sans-Serif" font-size="10.00" fill="#000000">::Base&lt; dim, spacedim &gt;</text>
<polyline fill="none" stroke="#000000" points="181.5,-187.5 309.5,-187.5 "/>
<text text-anchor="middle" x="245.5" y="-175.5" font-family="Helvetica,sans-Serif" font-size="10.00" fill="#000000"> </text>
<polyline fill="none" stroke="#000000" points="181.5,-168.5 309.5,-168.5 "/>
<text text-anchor="start" x="189.5" y="-156.5" font-family="Helvetica,sans-Serif" font-size="10.00" fill="#000000">+ partition()</text>
</g>
<!-- Node1 -->
<g id="node2" class="node">
<title>Node1</title>
<g id="a_node2"><a xlink:href="classRepartitioningPolicyTools_1_1DefaultPolicy.html" target="_top" xlink:title="{RepartitioningPolicyTools\l::DefaultPolicy\&lt; dim, spacedim \&gt;\n||+ partition()\l}">
<polygon fill="#ffffff" stroke="#000000" points="0,-22.5 0,-90.5 163,-90.5 163,-22.5 0,-22.5"/>
<text text-anchor="start" x="8" y="-78.5" font-family="Helvetica,sans-Serif" font-size="10.00" fill="#000000">RepartitioningPolicyTools</text>
<text text-anchor="middle" x="81.5" y="-67.5" font-family="Helvetica,sans-Serif" font-size="10.00" fill="#000000">::DefaultPolicy&lt; dim, spacedim &gt;</text>
<polyline fill="none" stroke="#000000" points="0,-60.5 163,-60.5 "/>
<text text-anchor="middle" x="81.5" y="-48.5" font-family="Helvetica,sans-Serif" font-size="10.00" fill="#000000"> </text>
<polyline fill="none" stroke="#000000" points="0,-41.5 163,-41.5 "/>
<text text-anchor="start" x="8" y="-29.5" font-family="Helvetica,sans-Serif" font-size="10.00" fill="#000000">+ partition()</text>
</a>
</g>
</g>
<!-- Node0&#45;&gt;Node1 -->
<g id="edge1" class="edge">
<title>Node0&#45;&gt;Node1</title>
<path fill="none" stroke="#191970" d="M193.3632,-143.1258C171.5413,-126.2271 146.4514,-106.7978 125.5703,-90.6276"/>
<polygon fill="none" stroke="#191970" points="191.5015,-146.1109 201.551,-149.4663 195.7875,-140.5763 191.5015,-146.1109"/>
</g>
<!-- Node2 -->
<g id="node3" class="node">
<title>Node2</title>
<g id="a_node3"><a xlink:href="classRepartitioningPolicyTools_1_1FirstChildPolicy.html" target="_top" xlink:title="{RepartitioningPolicyTools\l::FirstChildPolicy\&lt; dim,\l spacedim \&gt;\n|&#45; n_coarse_cells\l&#45; n_global_levels\l&#45; is_level_partitions\l|+ FirstChildPolicy()\l+ partition()\l}">
<polygon fill="#ffffff" stroke="#000000" points="181.5,-.5 181.5,-112.5 309.5,-112.5 309.5,-.5 181.5,-.5"/>
<text text-anchor="start" x="189.5" y="-100.5" font-family="Helvetica,sans-Serif" font-size="10.00" fill="#000000">RepartitioningPolicyTools</text>
<text text-anchor="start" x="189.5" y="-89.5" font-family="Helvetica,sans-Serif" font-size="10.00" fill="#000000">::FirstChildPolicy&lt; dim,</text>
<text text-anchor="middle" x="245.5" y="-78.5" font-family="Helvetica,sans-Serif" font-size="10.00" fill="#000000"> spacedim &gt;</text>
<polyline fill="none" stroke="#000000" points="181.5,-71.5 309.5,-71.5 "/>
<text text-anchor="start" x="189.5" y="-59.5" font-family="Helvetica,sans-Serif" font-size="10.00" fill="#000000">&#45; n_coarse_cells</text>
<text text-anchor="start" x="189.5" y="-48.5" font-family="Helvetica,sans-Serif" font-size="10.00" fill="#000000">&#45; n_global_levels</text>
<text text-anchor="start" x="189.5" y="-37.5" font-family="Helvetica,sans-Serif" font-size="10.00" fill="#000000">&#45; is_level_partitions</text>
<polyline fill="none" stroke="#000000" points="181.5,-30.5 309.5,-30.5 "/>
<text text-anchor="start" x="189.5" y="-18.5" font-family="Helvetica,sans-Serif" font-size="10.00" fill="#000000">+ FirstChildPolicy()</text>
<text text-anchor="start" x="189.5" y="-7.5" font-family="Helvetica,sans-Serif" font-size="10.00" fill="#000000">+ partition()</text>
</a>
</g>
</g>
<!-- Node0&#45;&gt;Node2 -->
<g id="edge2" class="edge">
<title>Node0&#45;&gt;Node2</title>
<path fill="none" stroke="#191970" d="M245.5,-139.3C245.5,-130.7146 245.5,-121.6091 245.5,-112.698"/>
<polygon fill="none" stroke="#191970" points="242.0001,-139.4663 245.5,-149.4663 249.0001,-139.4664 242.0001,-139.4663"/>
</g>
<!-- Node3 -->
<g id="node4" class="node">
<title>Node3</title>
<g id="a_node4"><a xlink:href="classRepartitioningPolicyTools_1_1MinimalGranularityPolicy.html" target="_top" xlink:title="{RepartitioningPolicyTools\l::MinimalGranularityPolicy\l\&lt; dim, spacedim \&gt;\n|&#45; n_min_cells\l|+ MinimalGranularityPolicy()\l+ partition()\l}">
<polygon fill="#ffffff" stroke="#000000" points="327.5,-11.5 327.5,-101.5 467.5,-101.5 467.5,-11.5 327.5,-11.5"/>
<text text-anchor="start" x="335.5" y="-89.5" font-family="Helvetica,sans-Serif" font-size="10.00" fill="#000000">RepartitioningPolicyTools</text>
<text text-anchor="start" x="335.5" y="-78.5" font-family="Helvetica,sans-Serif" font-size="10.00" fill="#000000">::MinimalGranularityPolicy</text>
<text text-anchor="middle" x="397.5" y="-67.5" font-family="Helvetica,sans-Serif" font-size="10.00" fill="#000000">&lt; dim, spacedim &gt;</text>
<polyline fill="none" stroke="#000000" points="327.5,-60.5 467.5,-60.5 "/>
<text text-anchor="start" x="335.5" y="-48.5" font-family="Helvetica,sans-Serif" font-size="10.00" fill="#000000">&#45; n_min_cells</text>
<polyline fill="none" stroke="#000000" points="327.5,-41.5 467.5,-41.5 "/>
<text text-anchor="start" x="335.5" y="-29.5" font-family="Helvetica,sans-Serif" font-size="10.00" fill="#000000">+ MinimalGranularityPolicy()</text>
<text text-anchor="start" x="335.5" y="-18.5" font-family="Helvetica,sans-Serif" font-size="10.00" fill="#000000">+ partition()</text>
</a>
</g>
</g>
<!-- Node0&#45;&gt;Node3 -->
<g id="edge3" class="edge">
<title>Node0&#45;&gt;Node3</title>
<path fill="none" stroke="#191970" d="M294.2621,-142.7579C309.9598,-129.6422 327.4441,-115.0336 343.4959,-101.6219"/>
<polygon fill="none" stroke="#191970" points="291.663,-140.3686 286.2332,-149.4663 296.1513,-145.7404 291.663,-140.3686"/>
</g>
</g>
</svg>
