<?xml version="1.0" encoding="UTF-8" standalone="no"?>
<!DOCTYPE svg PUBLIC "-//W3C//DTD SVG 1.1//EN"
 "http://www.w3.org/Graphics/SVG/1.1/DTD/svg11.dtd">
<!-- Generated by graphviz version 2.40.1 (20161225.0304)
 -->
<!-- Title: Patterns::Map Pages: 1 -->
<!--zoomable 579 -->
<svg id="main" version="1.1" xmlns="http://www.w3.org/2000/svg" xmlns:xlink="http://www.w3.org/1999/xlink" xml:space="preserve" onload="init(evt)">
<style type="text/css"><![CDATA[
.edge:hover path { stroke: red; }
.edge:hover polygon { stroke: red; fill: red; }
]]></style>
<script type="text/javascript"><![CDATA[
var edges = document.getElementsByTagName('g');
if (edges && edges.length) {
  for (var i=0;i<edges.length;i++) {
    if (edges[i].id.substr(0,4)=='edge') {
      edges[i].setAttribute('class','edge');
    }
  }
}
]]></script>
        <defs>
                <circle id="rim" cx="0" cy="0" r="7"/>
                <circle id="rim2" cx="0" cy="0" r="3.5"/>
                <g id="zoomPlus">
                        <use xlink:href="#rim" fill="#404040">
                                <set attributeName="fill" to="#808080" begin="zoomplus.mouseover" end="zoomplus.mouseout"/>
                        </use>
                        <path d="M-4,0h8M0,-4v8" fill="none" stroke="white" stroke-width="1.5" pointer-events="none"/>
                </g>
                <g id="zoomMin">
                        <use xlink:href="#rim" fill="#404040">
                                <set attributeName="fill" to="#808080" begin="zoomminus.mouseover" end="zoomminus.mouseout"/>
                        </use>
                        <path d="M-4,0h8" fill="none" stroke="white" stroke-width="1.5" pointer-events="none"/>
                </g>
                <g id="dirArrow">
                        <path fill="none" stroke="white" stroke-width="1.5" d="M0,-3.0v7 M-2.5,-0.5L0,-3.0L2.5,-0.5"/>
                </g>
               <g id="resetDef">
                       <use xlink:href="#rim2" fill="#404040">
                               <set attributeName="fill" to="#808080" begin="reset.mouseover" end="reset.mouseout"/>
                       </use>
               </g>
        </defs>

<script type="text/javascript">
var viewWidth = 528;
var viewHeight = 579;
var sectionId = 'dynsection-1';
</script>
<script xlink:href="svgpan.js"/>
<svg id="graph" class="graph">
<g id="viewport">
<title>Patterns::Map</title>
<polygon fill="#ffffff" stroke="transparent" points="-4,4 -4,-575 524,-575 524,4 -4,4"/>
<!-- Node2 -->
<g id="node1" class="node">
<title>Node2</title>
<polygon fill="#bfbfbf" stroke="#000000" points="181,-.5 181,-178.5 321,-178.5 321,-.5 181,-.5"/>
<text text-anchor="middle" x="251" y="-166.5" font-family="Helvetica,sans-Serif" font-size="10.00" fill="#000000">Patterns::Map</text>
<polyline fill="none" stroke="#000000" points="181,-159.5 321,-159.5 "/>
<text text-anchor="middle" x="251" y="-147.5" font-family="Helvetica,sans-Serif" font-size="10.00" fill="#000000"> </text>
<polyline fill="none" stroke="#000000" points="181,-140.5 321,-140.5 "/>
<text text-anchor="start" x="189" y="-128.5" font-family="Helvetica,sans-Serif" font-size="10.00" fill="#000000">+ Map()</text>
<text text-anchor="start" x="189" y="-117.5" font-family="Helvetica,sans-Serif" font-size="10.00" fill="#000000">+ Map()</text>
<text text-anchor="start" x="189" y="-106.5" font-family="Helvetica,sans-Serif" font-size="10.00" fill="#000000">+ match()</text>
<text text-anchor="start" x="189" y="-95.5" font-family="Helvetica,sans-Serif" font-size="10.00" fill="#000000">+ description()</text>
<text text-anchor="start" x="189" y="-84.5" font-family="Helvetica,sans-Serif" font-size="10.00" fill="#000000">+ clone()</text>
<text text-anchor="start" x="189" y="-73.5" font-family="Helvetica,sans-Serif" font-size="10.00" fill="#000000">+ memory_consumption()</text>
<text text-anchor="start" x="189" y="-62.5" font-family="Helvetica,sans-Serif" font-size="10.00" fill="#000000">+ get_key_pattern()</text>
<text text-anchor="start" x="189" y="-51.5" font-family="Helvetica,sans-Serif" font-size="10.00" fill="#000000">+ get_value_pattern()</text>
<text text-anchor="start" x="189" y="-40.5" font-family="Helvetica,sans-Serif" font-size="10.00" fill="#000000">+ get_separator()</text>
<text text-anchor="start" x="189" y="-29.5" font-family="Helvetica,sans-Serif" font-size="10.00" fill="#000000">+ get_key_value_separator()</text>
<text text-anchor="start" x="189" y="-18.5" font-family="Helvetica,sans-Serif" font-size="10.00" fill="#000000">+ create()</text>
<text text-anchor="start" x="189" y="-7.5" font-family="Helvetica,sans-Serif" font-size="10.00" fill="#000000">+ ExcInvalidRange()</text>
</g>
<!-- Node3 -->
<g id="node2" class="node">
<title>Node3</title>
<g id="a_node2"><a xlink:href="classPatterns_1_1PatternBase.html" target="_top" xlink:title="{Patterns::PatternBase\n||+ ~PatternBase()\l+ match()\l+ description()\l+ clone()\l+ memory_consumption()\l}">
<polygon fill="#ffffff" stroke="#000000" points="0,-364.5 0,-465.5 128,-465.5 128,-364.5 0,-364.5"/>
<text text-anchor="middle" x="64" y="-453.5" font-family="Helvetica,sans-Serif" font-size="10.00" fill="#000000">Patterns::PatternBase</text>
<polyline fill="none" stroke="#000000" points="0,-446.5 128,-446.5 "/>
<text text-anchor="middle" x="64" y="-434.5" font-family="Helvetica,sans-Serif" font-size="10.00" fill="#000000"> </text>
<polyline fill="none" stroke="#000000" points="0,-427.5 128,-427.5 "/>
<text text-anchor="start" x="8" y="-415.5" font-family="Helvetica,sans-Serif" font-size="10.00" fill="#000000">+ ~PatternBase()</text>
<text text-anchor="start" x="8" y="-404.5" font-family="Helvetica,sans-Serif" font-size="10.00" fill="#000000">+ match()</text>
<text text-anchor="start" x="8" y="-393.5" font-family="Helvetica,sans-Serif" font-size="10.00" fill="#000000">+ description()</text>
<text text-anchor="start" x="8" y="-382.5" font-family="Helvetica,sans-Serif" font-size="10.00" fill="#000000">+ clone()</text>
<text text-anchor="start" x="8" y="-371.5" font-family="Helvetica,sans-Serif" font-size="10.00" fill="#000000">+ memory_consumption()</text>
</a>
</g>
</g>
<!-- Node3&#45;&gt;Node2 -->
<g id="edge1" class="edge">
<title>Node3&#45;&gt;Node2</title>
<path fill="none" stroke="#191970" d="M61.0223,-353.8129C61.8052,-320.8916 66.7423,-280.4961 83,-248 105.2471,-203.5323 145.3583,-164.9556 180.8082,-136.9959"/>
<polygon fill="none" stroke="#191970" points="57.518,-354.1807 60.905,-364.2196 64.5176,-354.2597 57.518,-354.1807"/>
</g>
<!-- Node5 -->
<g id="node4" class="node">
<title>Node5</title>
<polygon fill="#ffffff" stroke="#bfbfbf" points="92.5,-248.5 92.5,-316.5 219.5,-316.5 219.5,-248.5 92.5,-248.5"/>
<text text-anchor="start" x="100.5" y="-304.5" font-family="Helvetica,sans-Serif" font-size="10.00" fill="#000000">std::unique_ptr&lt; Patterns</text>
<text text-anchor="middle" x="156" y="-293.5" font-family="Helvetica,sans-Serif" font-size="10.00" fill="#000000">::PatternBase &gt;</text>
<polyline fill="none" stroke="#bfbfbf" points="92.5,-286.5 219.5,-286.5 "/>
<text text-anchor="middle" x="156" y="-274.5" font-family="Helvetica,sans-Serif" font-size="10.00" fill="#000000"> </text>
<polyline fill="none" stroke="#bfbfbf" points="92.5,-267.5 219.5,-267.5 "/>
<text text-anchor="start" x="100.5" y="-255.5" font-family="Helvetica,sans-Serif" font-size="10.00" fill="#000000">+ operator&#45;&gt;()</text>
</g>
<!-- Node3&#45;&gt;Node5 -->
<g id="edge4" class="edge">
<title>Node3&#45;&gt;Node5</title>
<path fill="none" stroke="#404040" d="M99.3065,-364.151C107.8504,-351.8459 116.9154,-338.7904 125.2316,-326.8132"/>
<polygon fill="none" stroke="#404040" points="125.4711,-326.4682 125.6075,-319.2584 132.3152,-316.6113 132.1788,-323.8211 125.4711,-326.4682"/>
<text text-anchor="middle" x="129.5" y="-338" font-family="Helvetica,sans-Serif" font-size="10.00" fill="#000000"> +ptr</text>
</g>
<!-- Node4 -->
<g id="node3" class="node">
<title>Node4</title>
<polygon fill="#ffffff" stroke="#bfbfbf" points="237.5,-254 237.5,-311 272.5,-311 272.5,-254 237.5,-254"/>
<text text-anchor="middle" x="255" y="-299" font-family="Helvetica,sans-Serif" font-size="10.00" fill="#000000">char</text>
<polyline fill="none" stroke="#bfbfbf" points="237.5,-292 272.5,-292 "/>
<text text-anchor="middle" x="255" y="-280" font-family="Helvetica,sans-Serif" font-size="10.00" fill="#000000"> </text>
<polyline fill="none" stroke="#bfbfbf" points="237.5,-273 272.5,-273 "/>
<text text-anchor="middle" x="255" y="-261" font-family="Helvetica,sans-Serif" font-size="10.00" fill="#000000"> </text>
</g>
<!-- Node4&#45;&gt;Node2 -->
<g id="edge2" class="edge">
<title>Node4&#45;&gt;Node2</title>
<path fill="none" stroke="#404040" d="M253.1059,-253.9019C252.6634,-246.1494 252.249,-237.756 252,-230 251.5924,-217.3069 251.3093,-203.9657 251.1168,-190.7649"/>
<polygon fill="none" stroke="#404040" points="251.1161,-190.7028 247.0406,-184.7538 250.9645,-178.7038 255.04,-184.6528 251.1161,-190.7028"/>
<text text-anchor="middle" x="288" y="-211" font-family="Helvetica,sans-Serif" font-size="10.00" fill="#000000"> &#45;description_init</text>
</g>
<!-- Node5&#45;&gt;Node2 -->
<g id="edge3" class="edge">
<title>Node5&#45;&gt;Node2</title>
<path fill="none" stroke="#404040" d="M165.7317,-248.1101C170.7117,-232.2287 177.3416,-213.3177 185,-197 186.1529,-194.5435 187.3488,-192.073 188.5808,-189.5956"/>
<polygon fill="none" stroke="#404040" points="188.6937,-189.3766 187.8882,-182.2106 194.1931,-178.7108 194.9987,-185.8768 188.6937,-189.3766"/>
<text text-anchor="middle" x="216" y="-216.5" font-family="Helvetica,sans-Serif" font-size="10.00" fill="#000000"> &#45;key_pattern</text>
<text text-anchor="middle" x="216" y="-205.5" font-family="Helvetica,sans-Serif" font-size="10.00" fill="#000000">&#45;value_pattern</text>
</g>
<!-- Node6 -->
<g id="node5" class="node">
<title>Node6</title>
<g id="a_node5"><a xlink:title="STL class. ">
<polygon fill="#ffffff" stroke="#bfbfbf" points="146.5,-386.5 146.5,-443.5 251.5,-443.5 251.5,-386.5 146.5,-386.5"/>
<text text-anchor="middle" x="199" y="-431.5" font-family="Helvetica,sans-Serif" font-size="10.00" fill="#000000">std::unique_ptr&lt; T &gt;</text>
<polyline fill="none" stroke="#bfbfbf" points="146.5,-424.5 251.5,-424.5 "/>
<text text-anchor="middle" x="199" y="-412.5" font-family="Helvetica,sans-Serif" font-size="10.00" fill="#000000"> </text>
<polyline fill="none" stroke="#bfbfbf" points="146.5,-405.5 251.5,-405.5 "/>
<text text-anchor="start" x="154.5" y="-393.5" font-family="Helvetica,sans-Serif" font-size="10.00" fill="#000000">+ operator&#45;&gt;()</text>
</a>
</g>
</g>
<!-- Node6&#45;&gt;Node5 -->
<g id="edge5" class="edge">
<title>Node6&#45;&gt;Node5</title>
<path fill="none" stroke="#ffa500" d="M186.4993,-376.4805C180.3783,-357.6192 173.0698,-335.0987 167.1417,-316.8321"/>
<polygon fill="#ffa500" stroke="#ffa500" points="183.2537,-377.8182 189.6696,-386.2495 189.9119,-375.6574 183.2537,-377.8182"/>
<text text-anchor="middle" x="235" y="-338" font-family="Helvetica,sans-Serif" font-size="10.00" fill="#000000"> &lt; Patterns::PatternBase &gt;</text>
</g>
<!-- Node7 -->
<g id="node6" class="node">
<title>Node7</title>
<polygon fill="#ffffff" stroke="#bfbfbf" points="184.5,-513.5 184.5,-570.5 213.5,-570.5 213.5,-513.5 184.5,-513.5"/>
<text text-anchor="middle" x="199" y="-558.5" font-family="Helvetica,sans-Serif" font-size="10.00" fill="#000000">T</text>
<polyline fill="none" stroke="#bfbfbf" points="184.5,-551.5 213.5,-551.5 "/>
<text text-anchor="middle" x="199" y="-539.5" font-family="Helvetica,sans-Serif" font-size="10.00" fill="#000000"> </text>
<polyline fill="none" stroke="#bfbfbf" points="184.5,-532.5 213.5,-532.5 "/>
<text text-anchor="middle" x="199" y="-520.5" font-family="Helvetica,sans-Serif" font-size="10.00" fill="#000000"> </text>
</g>
<!-- Node7&#45;&gt;Node6 -->
<g id="edge6" class="edge">
<title>Node7&#45;&gt;Node6</title>
<path fill="none" stroke="#404040" d="M199,-513.4987C199,-496.5423 199,-474.7438 199,-455.9661"/>
<polygon fill="none" stroke="#404040" points="199.0001,-455.8456 195,-449.8456 199,-443.8456 203,-449.8455 199.0001,-455.8456"/>
<text text-anchor="middle" x="209.5" y="-487" font-family="Helvetica,sans-Serif" font-size="10.00" fill="#000000"> +ptr</text>
</g>
<!-- Node8 -->
<g id="node7" class="node">
<title>Node8</title>
<g id="a_node7"><a xlink:title="STL class. ">
<polygon fill="#ffffff" stroke="#bfbfbf" points="316,-254 316,-311 376,-311 376,-254 316,-254"/>
<text text-anchor="middle" x="346" y="-299" font-family="Helvetica,sans-Serif" font-size="10.00" fill="#000000">std::string</text>
<polyline fill="none" stroke="#bfbfbf" points="316,-292 376,-292 "/>
<text text-anchor="middle" x="346" y="-280" font-family="Helvetica,sans-Serif" font-size="10.00" fill="#000000"> </text>
<polyline fill="none" stroke="#bfbfbf" points="316,-273 376,-273 "/>
<text text-anchor="middle" x="346" y="-261" font-family="Helvetica,sans-Serif" font-size="10.00" fill="#000000"> </text>
</a>
</g>
</g>
<!-- Node8&#45;&gt;Node2 -->
<g id="edge7" class="edge">
<title>Node8&#45;&gt;Node2</title>
<path fill="none" stroke="#404040" d="M341.2179,-253.9492C337.7461,-236.9239 332.201,-215.1595 324,-197 322.8872,-194.536 321.7187,-192.0671 320.502,-189.5992"/>
<polygon fill="none" stroke="#404040" points="320.4229,-189.4472 314.1046,-185.9717 314.8826,-178.8027 321.201,-182.2782 320.4229,-189.4472"/>
<text text-anchor="middle" x="382" y="-216.5" font-family="Helvetica,sans-Serif" font-size="10.00" fill="#000000"> &#45;separator</text>
<text text-anchor="middle" x="382" y="-205.5" font-family="Helvetica,sans-Serif" font-size="10.00" fill="#000000">&#45;key_value_separator</text>
</g>
<!-- Node9 -->
<g id="node8" class="node">
<title>Node9</title>
<g id="a_node8"><a xlink:title="STL class. ">
<polygon fill="#ffffff" stroke="#bfbfbf" points="298.5,-381 298.5,-449 393.5,-449 393.5,-381 298.5,-381"/>
<text text-anchor="start" x="306.5" y="-437" font-family="Helvetica,sans-Serif" font-size="10.00" fill="#000000">std::basic_string&lt;</text>
<text text-anchor="middle" x="346" y="-426" font-family="Helvetica,sans-Serif" font-size="10.00" fill="#000000"> char &gt;</text>
<polyline fill="none" stroke="#bfbfbf" points="298.5,-419 393.5,-419 "/>
<text text-anchor="middle" x="346" y="-407" font-family="Helvetica,sans-Serif" font-size="10.00" fill="#000000"> </text>
<polyline fill="none" stroke="#bfbfbf" points="298.5,-400 393.5,-400 "/>
<text text-anchor="middle" x="346" y="-388" font-family="Helvetica,sans-Serif" font-size="10.00" fill="#000000"> </text>
</a>
</g>
</g>
<!-- Node9&#45;&gt;Node8 -->
<g id="edge8" class="edge">
<title>Node9&#45;&gt;Node8</title>
<path fill="none" stroke="#191970" d="M346,-370.6227C346,-350.9974 346,-328.4876 346,-311.1307"/>
<polygon fill="none" stroke="#191970" points="342.5001,-370.8779 346,-380.878 349.5001,-370.878 342.5001,-370.8779"/>
</g>
<!-- Node10 -->
<g id="node9" class="node">
<title>Node10</title>
<polygon fill="#ffffff" stroke="#bfbfbf" points="435,-254 435,-311 491,-311 491,-254 435,-254"/>
<text text-anchor="middle" x="463" y="-299" font-family="Helvetica,sans-Serif" font-size="10.00" fill="#000000">unsigned</text>
<polyline fill="none" stroke="#bfbfbf" points="435,-292 491,-292 "/>
<text text-anchor="middle" x="463" y="-280" font-family="Helvetica,sans-Serif" font-size="10.00" fill="#000000"> </text>
<polyline fill="none" stroke="#bfbfbf" points="435,-273 491,-273 "/>
<text text-anchor="middle" x="463" y="-261" font-family="Helvetica,sans-Serif" font-size="10.00" fill="#000000"> </text>
</g>
<!-- Node10&#45;&gt;Node2 -->
<g id="edge9" class="edge">
<title>Node10&#45;&gt;Node2</title>
<path fill="none" stroke="#404040" d="M458.1668,-253.8545C453.9677,-235.9549 446.375,-213.2928 433,-197 406.5265,-164.7513 367.6694,-139.9435 332.6502,-122.3282"/>
<polygon fill="none" stroke="#404040" points="332.2223,-122.1196 325.0762,-123.086 321.4357,-116.8613 328.5818,-115.895 332.2223,-122.1196"/>
<text text-anchor="middle" x="485" y="-222" font-family="Helvetica,sans-Serif" font-size="10.00" fill="#000000"> &#45;max_elements</text>
<text text-anchor="middle" x="485" y="-211" font-family="Helvetica,sans-Serif" font-size="10.00" fill="#000000">+max_int_value</text>
<text text-anchor="middle" x="485" y="-200" font-family="Helvetica,sans-Serif" font-size="10.00" fill="#000000">&#45;min_elements</text>
</g>
</g>
</svg>
        <g id="navigator" transform="translate(0 0)" fill="#404254">
                <rect fill="#f2f5e9" fill-opacity="0.5" stroke="#606060" stroke-width=".5" x="0" y="0" width="60" height="60"/>
                <use id="zoomplus" xlink:href="#zoomPlus" x="17" y="9" onmousedown="handleZoom(evt,'in')"/>
                <use id="zoomminus" xlink:href="#zoomMin" x="42" y="9" onmousedown="handleZoom(evt,'out')"/>
                <use id="reset" xlink:href="#resetDef" x="30" y="36" onmousedown="handleReset()"/>
                <g id="arrowUp" xlink:href="#dirArrow" transform="translate(30 24)" onmousedown="handlePan(0,-1)">
                  <use xlink:href="#rim" fill="#404040">
                        <set attributeName="fill" to="#808080" begin="arrowUp.mouseover" end="arrowUp.mouseout"/>
                  </use>
                  <path fill="none" stroke="white" stroke-width="1.5" d="M0,-3.0v7 M-2.5,-0.5L0,-3.0L2.5,-0.5"/>
                </g>
                <g id="arrowRight" xlink:href="#dirArrow" transform="rotate(90) translate(36 -43)" onmousedown="handlePan(1,0)">
                  <use xlink:href="#rim" fill="#404040">
                        <set attributeName="fill" to="#808080" begin="arrowRight.mouseover" end="arrowRight.mouseout"/>
                  </use>
                  <path fill="none" stroke="white" stroke-width="1.5" d="M0,-3.0v7 M-2.5,-0.5L0,-3.0L2.5,-0.5"/>
                </g>
                <g id="arrowDown" xlink:href="#dirArrow" transform="rotate(180) translate(-30 -48)" onmousedown="handlePan(0,1)">
                  <use xlink:href="#rim" fill="#404040">
                        <set attributeName="fill" to="#808080" begin="arrowDown.mouseover" end="arrowDown.mouseout"/>
                  </use>
                  <path fill="none" stroke="white" stroke-width="1.5" d="M0,-3.0v7 M-2.5,-0.5L0,-3.0L2.5,-0.5"/>
                </g>
                <g id="arrowLeft" xlink:href="#dirArrow" transform="rotate(270) translate(-36 17)" onmousedown="handlePan(-1,0)">
                  <use xlink:href="#rim" fill="#404040">
                        <set attributeName="fill" to="#808080" begin="arrowLeft.mouseover" end="arrowLeft.mouseout"/>
                  </use>
                  <path fill="none" stroke="white" stroke-width="1.5" d="M0,-3.0v7 M-2.5,-0.5L0,-3.0L2.5,-0.5"/>
                </g>
        </g>
        <svg viewBox="0 0 15 15" width="100%" height="30px" preserveAspectRatio="xMaxYMin meet">
         <g id="arrow_out" transform="scale(0.3 0.3)">
          <a xlink:href="classPatterns_1_1Map__coll__graph_org.svg" target="_base">
           <rect id="button" ry="5" rx="5" y="6" x="6" height="38" width="38"
                fill="#f2f5e9" fill-opacity="0.5" stroke="#606060" stroke-width="1.0"/>
           <path id="arrow"
             d="M 11.500037,31.436501 C 11.940474,20.09759 22.043105,11.32322 32.158766,21.979434 L 37.068811,17.246167 C 37.068811,17.246167 37.088388,32 37.088388,32 L 22.160133,31.978069 C 22.160133,31.978069 26.997745,27.140456 26.997745,27.140456 C 18.528582,18.264221 13.291696,25.230495 11.500037,31.436501 z"
             style="fill:#404040;"/>
          </a>
         </g>
        </svg>
</svg>
