<?xml version="1.0" encoding="UTF-8" standalone="no"?>
<!DOCTYPE svg PUBLIC "-//W3C//DTD SVG 1.1//EN"
 "http://www.w3.org/Graphics/SVG/1.1/DTD/svg11.dtd">
<!-- Generated by graphviz version 2.40.1 (20161225.0304)
 -->
<!-- Title: internal::TableBaseAccessors::Accessor&lt; N, T, C, P &gt; Pages: 1 -->
<svg width="200pt" height="215pt"
 viewBox="0.00 0.00 199.50 215.00" xmlns="http://www.w3.org/2000/svg" xmlns:xlink="http://www.w3.org/1999/xlink">
<g id="graph0" class="graph" transform="scale(1 1) rotate(0) translate(4 211)">
<title>internal::TableBaseAccessors::Accessor&lt; N, T, C, P &gt;</title>
<polygon fill="#ffffff" stroke="transparent" points="-4,4 -4,-211 195.5,-211 195.5,4 -4,4"/>
<!-- Node1 -->
<g id="node1" class="node">
<title>Node1</title>
<polygon fill="#bfbfbf" stroke="#000000" points="28,-.5 28,-101.5 175,-101.5 175,-.5 28,-.5"/>
<text text-anchor="start" x="36" y="-89.5" font-family="Helvetica,sans-Serif" font-size="10.00" fill="#000000">internal::TableBaseAccessors</text>
<text text-anchor="middle" x="101.5" y="-78.5" font-family="Helvetica,sans-Serif" font-size="10.00" fill="#000000">::Accessor&lt; N, T, C, P &gt;</text>
<polyline fill="none" stroke="#000000" points="28,-71.5 175,-71.5 "/>
<text text-anchor="middle" x="101.5" y="-59.5" font-family="Helvetica,sans-Serif" font-size="10.00" fill="#000000"> </text>
<polyline fill="none" stroke="#000000" points="28,-52.5 175,-52.5 "/>
<text text-anchor="start" x="36" y="-40.5" font-family="Helvetica,sans-Serif" font-size="10.00" fill="#000000">+ Accessor()</text>
<text text-anchor="start" x="36" y="-29.5" font-family="Helvetica,sans-Serif" font-size="10.00" fill="#000000">+ operator[]()</text>
<text text-anchor="start" x="36" y="-18.5" font-family="Helvetica,sans-Serif" font-size="10.00" fill="#000000">+ ExcIndexRange()</text>
<text text-anchor="start" x="36" y="-7.5" font-family="Helvetica,sans-Serif" font-size="10.00" fill="#000000">&#45; Accessor()</text>
</g>
<!-- Node2 -->
<g id="node2" class="node">
<title>Node2</title>
<polygon fill="#ffffff" stroke="#bfbfbf" points="0,-149.5 0,-206.5 99,-206.5 99,-149.5 0,-149.5"/>
<text text-anchor="middle" x="49.5" y="-194.5" font-family="Helvetica,sans-Serif" font-size="10.00" fill="#000000">const TableType &amp;</text>
<polyline fill="none" stroke="#bfbfbf" points="0,-187.5 99,-187.5 "/>
<text text-anchor="middle" x="49.5" y="-175.5" font-family="Helvetica,sans-Serif" font-size="10.00" fill="#000000"> </text>
<polyline fill="none" stroke="#bfbfbf" points="0,-168.5 99,-168.5 "/>
<text text-anchor="middle" x="49.5" y="-156.5" font-family="Helvetica,sans-Serif" font-size="10.00" fill="#000000"> </text>
</g>
<!-- Node2&#45;&gt;Node1 -->
<g id="edge1" class="edge">
<title>Node2&#45;&gt;Node1</title>
<path fill="none" stroke="#404040" d="M61.1698,-149.4987C65.6397,-138.582 70.9313,-125.6583 76.1855,-112.8258"/>
<polygon fill="none" stroke="#404040" points="76.2246,-112.7302 74.7964,-105.6619 80.7717,-101.625 82.1998,-108.6933 76.2246,-112.7302"/>
<text text-anchor="middle" x="86.5" y="-123" font-family="Helvetica,sans-Serif" font-size="10.00" fill="#000000"> &#45;table</text>
</g>
<!-- Node3 -->
<g id="node3" class="node">
<title>Node3</title>
<polygon fill="#ffffff" stroke="#bfbfbf" points="117.5,-149.5 117.5,-206.5 191.5,-206.5 191.5,-149.5 117.5,-149.5"/>
<text text-anchor="middle" x="154.5" y="-194.5" font-family="Helvetica,sans-Serif" font-size="10.00" fill="#000000">const iterator</text>
<polyline fill="none" stroke="#bfbfbf" points="117.5,-187.5 191.5,-187.5 "/>
<text text-anchor="middle" x="154.5" y="-175.5" font-family="Helvetica,sans-Serif" font-size="10.00" fill="#000000"> </text>
<polyline fill="none" stroke="#bfbfbf" points="117.5,-168.5 191.5,-168.5 "/>
<text text-anchor="middle" x="154.5" y="-156.5" font-family="Helvetica,sans-Serif" font-size="10.00" fill="#000000"> </text>
</g>
<!-- Node3&#45;&gt;Node1 -->
<g id="edge2" class="edge">
<title>Node3&#45;&gt;Node1</title>
<path fill="none" stroke="#404040" d="M142.6058,-149.4987C138.05,-138.582 132.6566,-125.6583 127.3013,-112.8258"/>
<polygon fill="none" stroke="#404040" points="127.2486,-112.6994 121.2463,-108.7027 122.627,-101.625 128.6292,-105.6216 127.2486,-112.6994"/>
<text text-anchor="middle" x="146" y="-123" font-family="Helvetica,sans-Serif" font-size="10.00" fill="#000000"> &#45;data</text>
</g>
</g>
</svg>
