<?xml version="1.0" encoding="UTF-8" standalone="no"?>
<!DOCTYPE svg PUBLIC "-//W3C//DTD SVG 1.1//EN"
 "http://www.w3.org/Graphics/SVG/1.1/DTD/svg11.dtd">
<!-- Generated by graphviz version 2.40.1 (20161225.0304)
 -->
<!-- Title: Functions::ConstantFunction&lt; dim, RangeNumberType &gt; Pages: 1 -->
<!--zoomable 1208 -->
<svg id="main" version="1.1" xmlns="http://www.w3.org/2000/svg" xmlns:xlink="http://www.w3.org/1999/xlink" xml:space="preserve" onload="init(evt)">
<style type="text/css"><![CDATA[
.edge:hover path { stroke: red; }
.edge:hover polygon { stroke: red; fill: red; }
]]></style>
<script type="text/javascript"><![CDATA[
var edges = document.getElementsByTagName('g');
if (edges && edges.length) {
  for (var i=0;i<edges.length;i++) {
    if (edges[i].id.substr(0,4)=='edge') {
      edges[i].setAttribute('class','edge');
    }
  }
}
]]></script>
        <defs>
                <circle id="rim" cx="0" cy="0" r="7"/>
                <circle id="rim2" cx="0" cy="0" r="3.5"/>
                <g id="zoomPlus">
                        <use xlink:href="#rim" fill="#404040">
                                <set attributeName="fill" to="#808080" begin="zoomplus.mouseover" end="zoomplus.mouseout"/>
                        </use>
                        <path d="M-4,0h8M0,-4v8" fill="none" stroke="white" stroke-width="1.5" pointer-events="none"/>
                </g>
                <g id="zoomMin">
                        <use xlink:href="#rim" fill="#404040">
                                <set attributeName="fill" to="#808080" begin="zoomminus.mouseover" end="zoomminus.mouseout"/>
                        </use>
                        <path d="M-4,0h8" fill="none" stroke="white" stroke-width="1.5" pointer-events="none"/>
                </g>
                <g id="dirArrow">
                        <path fill="none" stroke="white" stroke-width="1.5" d="M0,-3.0v7 M-2.5,-0.5L0,-3.0L2.5,-0.5"/>
                </g>
               <g id="resetDef">
                       <use xlink:href="#rim2" fill="#404040">
                               <set attributeName="fill" to="#808080" begin="reset.mouseover" end="reset.mouseout"/>
                       </use>
               </g>
        </defs>

<script type="text/javascript">
var viewWidth = 1030;
var viewHeight = 1208;
var sectionId = 'dynsection-1';
</script>
<script xlink:href="svgpan.js"/>
<svg id="graph" class="graph">
<g id="viewport">
<title>Functions::ConstantFunction&lt; dim, RangeNumberType &gt;</title>
<polygon fill="#ffffff" stroke="transparent" points="-4,4 -4,-1204 1026,-1204 1026,4 -4,4"/>
<!-- Node7 -->
<g id="node1" class="node">
<title>Node7</title>
<polygon fill="#bfbfbf" stroke="#000000" points="581,-.5 581,-222.5 724,-222.5 724,-.5 581,-.5"/>
<text text-anchor="start" x="589" y="-210.5" font-family="Helvetica,sans-Serif" font-size="10.00" fill="#000000">Functions::ConstantFunction</text>
<text text-anchor="middle" x="652.5" y="-199.5" font-family="Helvetica,sans-Serif" font-size="10.00" fill="#000000">&lt; dim, RangeNumberType &gt;</text>
<polyline fill="none" stroke="#000000" points="581,-192.5 724,-192.5 "/>
<text text-anchor="middle" x="652.5" y="-180.5" font-family="Helvetica,sans-Serif" font-size="10.00" fill="#000000"> </text>
<polyline fill="none" stroke="#000000" points="581,-173.5 724,-173.5 "/>
<text text-anchor="start" x="589" y="-161.5" font-family="Helvetica,sans-Serif" font-size="10.00" fill="#000000">+ ConstantFunction()</text>
<text text-anchor="start" x="589" y="-150.5" font-family="Helvetica,sans-Serif" font-size="10.00" fill="#000000">+ ConstantFunction()</text>
<text text-anchor="start" x="589" y="-139.5" font-family="Helvetica,sans-Serif" font-size="10.00" fill="#000000">+ ConstantFunction()</text>
<text text-anchor="start" x="589" y="-128.5" font-family="Helvetica,sans-Serif" font-size="10.00" fill="#000000">+ ConstantFunction()</text>
<text text-anchor="start" x="589" y="-117.5" font-family="Helvetica,sans-Serif" font-size="10.00" fill="#000000">+ value()</text>
<text text-anchor="start" x="589" y="-106.5" font-family="Helvetica,sans-Serif" font-size="10.00" fill="#000000">+ vector_value()</text>
<text text-anchor="start" x="589" y="-95.5" font-family="Helvetica,sans-Serif" font-size="10.00" fill="#000000">+ value_list()</text>
<text text-anchor="start" x="589" y="-84.5" font-family="Helvetica,sans-Serif" font-size="10.00" fill="#000000">+ vector_value_list()</text>
<text text-anchor="start" x="589" y="-73.5" font-family="Helvetica,sans-Serif" font-size="10.00" fill="#000000">+ gradient()</text>
<text text-anchor="start" x="589" y="-62.5" font-family="Helvetica,sans-Serif" font-size="10.00" fill="#000000">+ vector_gradient()</text>
<text text-anchor="start" x="589" y="-51.5" font-family="Helvetica,sans-Serif" font-size="10.00" fill="#000000">+ gradient_list()</text>
<text text-anchor="start" x="589" y="-40.5" font-family="Helvetica,sans-Serif" font-size="10.00" fill="#000000">+ vector_gradient_list()</text>
<text text-anchor="start" x="589" y="-29.5" font-family="Helvetica,sans-Serif" font-size="10.00" fill="#000000">+ hessian()</text>
<text text-anchor="start" x="589" y="-18.5" font-family="Helvetica,sans-Serif" font-size="10.00" fill="#000000">+ laplacian()</text>
<text text-anchor="start" x="589" y="-7.5" font-family="Helvetica,sans-Serif" font-size="10.00" fill="#000000">+ memory_consumption()</text>
</g>
<!-- Node8 -->
<g id="node2" class="node">
<title>Node8</title>
<g id="a_node2"><a xlink:href="classFunction.html" target="_top" xlink:title="{Function\&lt; dim, RangeNumber\lType \&gt;\n||+ Function()\l+ Function()\l+ ~Function()\l+ operator=()\l+ value()\l+ vector_value()\l+ value_list()\l+ vector_value_list()\l+ vector_values()\l+ gradient()\land 13 more...\l}">
<polygon fill="#ffffff" stroke="#000000" points="337.5,-260.5 337.5,-438.5 485.5,-438.5 485.5,-260.5 337.5,-260.5"/>
<text text-anchor="start" x="345.5" y="-426.5" font-family="Helvetica,sans-Serif" font-size="10.00" fill="#000000">Function&lt; dim, RangeNumber</text>
<text text-anchor="middle" x="411.5" y="-415.5" font-family="Helvetica,sans-Serif" font-size="10.00" fill="#000000">Type &gt;</text>
<polyline fill="none" stroke="#000000" points="337.5,-408.5 485.5,-408.5 "/>
<text text-anchor="middle" x="411.5" y="-396.5" font-family="Helvetica,sans-Serif" font-size="10.00" fill="#000000"> </text>
<polyline fill="none" stroke="#000000" points="337.5,-389.5 485.5,-389.5 "/>
<text text-anchor="start" x="345.5" y="-377.5" font-family="Helvetica,sans-Serif" font-size="10.00" fill="#000000">+ Function()</text>
<text text-anchor="start" x="345.5" y="-366.5" font-family="Helvetica,sans-Serif" font-size="10.00" fill="#000000">+ Function()</text>
<text text-anchor="start" x="345.5" y="-355.5" font-family="Helvetica,sans-Serif" font-size="10.00" fill="#000000">+ ~Function()</text>
<text text-anchor="start" x="345.5" y="-344.5" font-family="Helvetica,sans-Serif" font-size="10.00" fill="#000000">+ operator=()</text>
<text text-anchor="start" x="345.5" y="-333.5" font-family="Helvetica,sans-Serif" font-size="10.00" fill="#000000">+ value()</text>
<text text-anchor="start" x="345.5" y="-322.5" font-family="Helvetica,sans-Serif" font-size="10.00" fill="#000000">+ vector_value()</text>
<text text-anchor="start" x="345.5" y="-311.5" font-family="Helvetica,sans-Serif" font-size="10.00" fill="#000000">+ value_list()</text>
<text text-anchor="start" x="345.5" y="-300.5" font-family="Helvetica,sans-Serif" font-size="10.00" fill="#000000">+ vector_value_list()</text>
<text text-anchor="start" x="345.5" y="-289.5" font-family="Helvetica,sans-Serif" font-size="10.00" fill="#000000">+ vector_values()</text>
<text text-anchor="start" x="345.5" y="-278.5" font-family="Helvetica,sans-Serif" font-size="10.00" fill="#000000">+ gradient()</text>
<text text-anchor="start" x="345.5" y="-267.5" font-family="Helvetica,sans-Serif" font-size="10.00" fill="#000000">and 13 more...</text>
</a>
</g>
</g>
<!-- Node8&#45;&gt;Node7 -->
<g id="edge1" class="edge">
<title>Node8&#45;&gt;Node7</title>
<path fill="none" stroke="#191970" d="M492.9529,-269.0611C521.4834,-240.8857 553.2882,-209.4768 580.9476,-182.1617"/>
<polygon fill="none" stroke="#191970" points="490.4303,-266.6331 485.7744,-276.1501 495.349,-271.6138 490.4303,-266.6331"/>
</g>
<!-- Node9 -->
<g id="node3" class="node">
<title>Node9</title>
<g id="a_node3"><a xlink:href="classFunctionTime.html" target="_top" xlink:title="{FunctionTime\&lt; numbers\l::NumberTraits\&lt; RangeNumber\lType \&gt;::real_type \&gt;\n||+ FunctionTime()\l+ ~FunctionTime()\l+ get_time()\l+ set_time()\l+ advance_time()\l}">
<polygon fill="#ffffff" stroke="#000000" points="577.5,-558 577.5,-681 731.5,-681 731.5,-558 577.5,-558"/>
<text text-anchor="start" x="585.5" y="-669" font-family="Helvetica,sans-Serif" font-size="10.00" fill="#000000">FunctionTime&lt; numbers</text>
<text text-anchor="start" x="585.5" y="-658" font-family="Helvetica,sans-Serif" font-size="10.00" fill="#000000">::NumberTraits&lt; RangeNumber</text>
<text text-anchor="middle" x="654.5" y="-647" font-family="Helvetica,sans-Serif" font-size="10.00" fill="#000000">Type &gt;::real_type &gt;</text>
<polyline fill="none" stroke="#000000" points="577.5,-640 731.5,-640 "/>
<text text-anchor="middle" x="654.5" y="-628" font-family="Helvetica,sans-Serif" font-size="10.00" fill="#000000"> </text>
<polyline fill="none" stroke="#000000" points="577.5,-621 731.5,-621 "/>
<text text-anchor="start" x="585.5" y="-609" font-family="Helvetica,sans-Serif" font-size="10.00" fill="#000000">+ FunctionTime()</text>
<text text-anchor="start" x="585.5" y="-598" font-family="Helvetica,sans-Serif" font-size="10.00" fill="#000000">+ ~FunctionTime()</text>
<text text-anchor="start" x="585.5" y="-587" font-family="Helvetica,sans-Serif" font-size="10.00" fill="#000000">+ get_time()</text>
<text text-anchor="start" x="585.5" y="-576" font-family="Helvetica,sans-Serif" font-size="10.00" fill="#000000">+ set_time()</text>
<text text-anchor="start" x="585.5" y="-565" font-family="Helvetica,sans-Serif" font-size="10.00" fill="#000000">+ advance_time()</text>
</a>
</g>
</g>
<!-- Node9&#45;&gt;Node8 -->
<g id="edge2" class="edge">
<title>Node9&#45;&gt;Node8</title>
<path fill="none" stroke="#191970" d="M592.2347,-550.3163C559.7147,-514.183 519.6992,-469.7214 485.594,-431.8267"/>
<polygon fill="none" stroke="#191970" points="589.7643,-552.8034 599.0555,-557.895 594.9673,-548.1206 589.7643,-552.8034"/>
</g>
<!-- Node10 -->
<g id="node4" class="node">
<title>Node10</title>
<g id="a_node4"><a xlink:href="structnumbers_1_1NumberTraits.html" target="_top" xlink:title="{numbers::NumberTraits\l\&lt; RangeNumberType \&gt;\n||+ conjugate()\l+ abs_square()\l+ abs_square()\l+ abs()\l}">
<polygon fill="#ffffff" stroke="#000000" points="743,-822.5 743,-923.5 862,-923.5 862,-822.5 743,-822.5"/>
<text text-anchor="start" x="751" y="-911.5" font-family="Helvetica,sans-Serif" font-size="10.00" fill="#000000">numbers::NumberTraits</text>
<text text-anchor="middle" x="802.5" y="-900.5" font-family="Helvetica,sans-Serif" font-size="10.00" fill="#000000">&lt; RangeNumberType &gt;</text>
<polyline fill="none" stroke="#000000" points="743,-893.5 862,-893.5 "/>
<text text-anchor="middle" x="802.5" y="-881.5" font-family="Helvetica,sans-Serif" font-size="10.00" fill="#000000"> </text>
<polyline fill="none" stroke="#000000" points="743,-874.5 862,-874.5 "/>
<text text-anchor="start" x="751" y="-862.5" font-family="Helvetica,sans-Serif" font-size="10.00" fill="#000000">+ conjugate()</text>
<text text-anchor="start" x="751" y="-851.5" font-family="Helvetica,sans-Serif" font-size="10.00" fill="#000000">+ abs_square()</text>
<text text-anchor="start" x="751" y="-840.5" font-family="Helvetica,sans-Serif" font-size="10.00" fill="#000000">+ abs_square()</text>
<text text-anchor="start" x="751" y="-829.5" font-family="Helvetica,sans-Serif" font-size="10.00" fill="#000000">+ abs()</text>
</a>
</g>
</g>
<!-- Node10&#45;&gt;Node9 -->
<g id="edge3" class="edge">
<title>Node10&#45;&gt;Node9</title>
<path fill="none" stroke="#404040" d="M796.5345,-822.379C793.2654,-805.4599 788.2319,-786.8804 780.5,-771 766.4862,-742.2173 745.8816,-714.2337 725.3771,-690.311"/>
<polygon fill="none" stroke="#404040" points="725.1364,-690.0359 718.1746,-688.1558 717.2325,-681.0065 724.1943,-682.8866 725.1364,-690.0359"/>
<text text-anchor="middle" x="804" y="-785" font-family="Helvetica,sans-Serif" font-size="10.00" fill="#000000"> &#45;time</text>
</g>
<!-- Node11 -->
<g id="node5" class="node">
<title>Node11</title>
<g id="a_node5"><a xlink:href="classstatic_01constexpr_01bool.html" target="_top" xlink:title="{static constexpr bool\n||}">
<polygon fill="#ffffff" stroke="#000000" points="796,-1004.5 796,-1061.5 903,-1061.5 903,-1004.5 796,-1004.5"/>
<text text-anchor="middle" x="849.5" y="-1049.5" font-family="Helvetica,sans-Serif" font-size="10.00" fill="#000000">static constexpr bool</text>
<polyline fill="none" stroke="#000000" points="796,-1042.5 903,-1042.5 "/>
<text text-anchor="middle" x="849.5" y="-1030.5" font-family="Helvetica,sans-Serif" font-size="10.00" fill="#000000"> </text>
<polyline fill="none" stroke="#000000" points="796,-1023.5 903,-1023.5 "/>
<text text-anchor="middle" x="849.5" y="-1011.5" font-family="Helvetica,sans-Serif" font-size="10.00" fill="#000000"> </text>
</a>
</g>
</g>
<!-- Node11&#45;&gt;Node10 -->
<g id="edge4" class="edge">
<title>Node11&#45;&gt;Node10</title>
<path fill="none" stroke="#404040" d="M843.3685,-1004.0923C839.3404,-986.0963 833.6846,-962.5442 827.5,-942 826.8251,-939.7582 826.1183,-937.4827 825.3877,-935.1899"/>
<polygon fill="none" stroke="#404040" points="825.3417,-935.0508 819.6597,-930.6106 821.5729,-923.6579 827.2549,-928.0981 825.3417,-935.0508"/>
<text text-anchor="middle" x="862" y="-950.5" font-family="Helvetica,sans-Serif" font-size="10.00" fill="#000000"> +is_complex</text>
</g>
<!-- Node12 -->
<g id="node6" class="node">
<title>Node12</title>
<g id="a_node6"><a xlink:href="structnumbers_1_1NumberTraits.html" target="_top" xlink:title="{numbers::NumberTraits\l\&lt; number \&gt;\n||+ conjugate()\l+ abs_square()\l+ abs_square()\l+ abs()\l}">
<polygon fill="#ffffff" stroke="#000000" points="659,-982.5 659,-1083.5 778,-1083.5 778,-982.5 659,-982.5"/>
<text text-anchor="start" x="667" y="-1071.5" font-family="Helvetica,sans-Serif" font-size="10.00" fill="#000000">numbers::NumberTraits</text>
<text text-anchor="middle" x="718.5" y="-1060.5" font-family="Helvetica,sans-Serif" font-size="10.00" fill="#000000">&lt; number &gt;</text>
<polyline fill="none" stroke="#000000" points="659,-1053.5 778,-1053.5 "/>
<text text-anchor="middle" x="718.5" y="-1041.5" font-family="Helvetica,sans-Serif" font-size="10.00" fill="#000000"> </text>
<polyline fill="none" stroke="#000000" points="659,-1034.5 778,-1034.5 "/>
<text text-anchor="start" x="667" y="-1022.5" font-family="Helvetica,sans-Serif" font-size="10.00" fill="#000000">+ conjugate()</text>
<text text-anchor="start" x="667" y="-1011.5" font-family="Helvetica,sans-Serif" font-size="10.00" fill="#000000">+ abs_square()</text>
<text text-anchor="start" x="667" y="-1000.5" font-family="Helvetica,sans-Serif" font-size="10.00" fill="#000000">+ abs_square()</text>
<text text-anchor="start" x="667" y="-989.5" font-family="Helvetica,sans-Serif" font-size="10.00" fill="#000000">+ abs()</text>
</a>
</g>
</g>
<!-- Node12&#45;&gt;Node10 -->
<g id="edge5" class="edge">
<title>Node12&#45;&gt;Node10</title>
<path fill="none" stroke="#ffa500" d="M710.3028,-971.8645C711.008,-961.5417 713.1183,-951.2006 717.5,-942 719.2775,-938.2676 729.6638,-929.103 742.6024,-918.6295"/>
<polygon fill="#ffa500" stroke="#ffa500" points="706.7968,-972.0501 710.0338,-982.1383 713.7944,-972.2334 706.7968,-972.0501"/>
<text text-anchor="middle" x="770.5" y="-950.5" font-family="Helvetica,sans-Serif" font-size="10.00" fill="#000000"> &lt; RangeNumberType &gt;</text>
</g>
<!-- Node13 -->
<g id="node7" class="node">
<title>Node13</title>
<g id="a_node7"><a xlink:href="classbool.html" target="_top" xlink:title="{bool\n||}">
<polygon fill="#ffffff" stroke="#000000" points="701,-1137 701,-1194 736,-1194 736,-1137 701,-1137"/>
<text text-anchor="middle" x="718.5" y="-1182" font-family="Helvetica,sans-Serif" font-size="10.00" fill="#000000">bool</text>
<polyline fill="none" stroke="#000000" points="701,-1175 736,-1175 "/>
<text text-anchor="middle" x="718.5" y="-1163" font-family="Helvetica,sans-Serif" font-size="10.00" fill="#000000"> </text>
<polyline fill="none" stroke="#000000" points="701,-1156 736,-1156 "/>
<text text-anchor="middle" x="718.5" y="-1144" font-family="Helvetica,sans-Serif" font-size="10.00" fill="#000000"> </text>
</a>
</g>
</g>
<!-- Node13&#45;&gt;Node12 -->
<g id="edge6" class="edge">
<title>Node13&#45;&gt;Node12</title>
<path fill="none" stroke="#404040" d="M718.5,-1136.7495C718.5,-1124.7404 718.5,-1110.2802 718.5,-1096.0201"/>
<polygon fill="none" stroke="#404040" points="718.5001,-1095.6065 714.5,-1089.6065 718.5,-1083.6065 722.5,-1089.6065 718.5001,-1095.6065"/>
<text text-anchor="middle" x="748" y="-1105" font-family="Helvetica,sans-Serif" font-size="10.00" fill="#000000"> +is_complex</text>
</g>
<!-- Node14 -->
<g id="node8" class="node">
<title>Node14</title>
<g id="a_node8"><a xlink:href="classFunctionTime.html" target="_top" xlink:title="{FunctionTime\&lt; Number \&gt;\n||+ FunctionTime()\l+ ~FunctionTime()\l+ get_time()\l+ set_time()\l+ advance_time()\l}">
<polygon fill="#ffffff" stroke="#000000" points="596.5,-822.5 596.5,-923.5 724.5,-923.5 724.5,-822.5 596.5,-822.5"/>
<text text-anchor="middle" x="660.5" y="-911.5" font-family="Helvetica,sans-Serif" font-size="10.00" fill="#000000">FunctionTime&lt; Number &gt;</text>
<polyline fill="none" stroke="#000000" points="596.5,-904.5 724.5,-904.5 "/>
<text text-anchor="middle" x="660.5" y="-892.5" font-family="Helvetica,sans-Serif" font-size="10.00" fill="#000000"> </text>
<polyline fill="none" stroke="#000000" points="596.5,-885.5 724.5,-885.5 "/>
<text text-anchor="start" x="604.5" y="-873.5" font-family="Helvetica,sans-Serif" font-size="10.00" fill="#000000">+ FunctionTime()</text>
<text text-anchor="start" x="604.5" y="-862.5" font-family="Helvetica,sans-Serif" font-size="10.00" fill="#000000">+ ~FunctionTime()</text>
<text text-anchor="start" x="604.5" y="-851.5" font-family="Helvetica,sans-Serif" font-size="10.00" fill="#000000">+ get_time()</text>
<text text-anchor="start" x="604.5" y="-840.5" font-family="Helvetica,sans-Serif" font-size="10.00" fill="#000000">+ set_time()</text>
<text text-anchor="start" x="604.5" y="-829.5" font-family="Helvetica,sans-Serif" font-size="10.00" fill="#000000">+ advance_time()</text>
</a>
</g>
</g>
<!-- Node14&#45;&gt;Node9 -->
<g id="edge7" class="edge">
<title>Node14&#45;&gt;Node9</title>
<path fill="none" stroke="#ffa500" d="M655.8657,-812.1347C655.7269,-809.3862 655.6037,-806.6647 655.5,-804 653.9064,-763.0304 653.6564,-716.9054 653.8048,-681.0228"/>
<polygon fill="#ffa500" stroke="#ffa500" points="652.3729,-812.3629 656.4281,-822.1509 659.3619,-811.9704 652.3729,-812.3629"/>
<text text-anchor="start" x="655.5" y="-796" font-family="Helvetica,sans-Serif" font-size="10.00" fill="#000000"> &lt; numbers::NumberTraits</text>
<text text-anchor="start" x="655.5" y="-785" font-family="Helvetica,sans-Serif" font-size="10.00" fill="#000000">&lt; RangeNumberType &gt;::real</text>
<text text-anchor="middle" x="718" y="-774" font-family="Helvetica,sans-Serif" font-size="10.00" fill="#000000">_type &gt;</text>
</g>
<!-- Node15 -->
<g id="node9" class="node">
<title>Node15</title>
<polygon fill="#ffffff" stroke="#bfbfbf" points="385,-1004.5 385,-1061.5 436,-1061.5 436,-1004.5 385,-1004.5"/>
<text text-anchor="middle" x="410.5" y="-1049.5" font-family="Helvetica,sans-Serif" font-size="10.00" fill="#000000">Number</text>
<polyline fill="none" stroke="#bfbfbf" points="385,-1042.5 436,-1042.5 "/>
<text text-anchor="middle" x="410.5" y="-1030.5" font-family="Helvetica,sans-Serif" font-size="10.00" fill="#000000"> </text>
<polyline fill="none" stroke="#bfbfbf" points="385,-1023.5 436,-1023.5 "/>
<text text-anchor="middle" x="410.5" y="-1011.5" font-family="Helvetica,sans-Serif" font-size="10.00" fill="#000000"> </text>
</g>
<!-- Node15&#45;&gt;Node14 -->
<g id="edge8" class="edge">
<title>Node15&#45;&gt;Node14</title>
<path fill="none" stroke="#404040" d="M400.1738,-1004.4123C394.9735,-984.453 392.5445,-958.5256 407.5,-942 432.4194,-914.4644 532.7464,-934.3598 584.4354,-923.6844"/>
<polygon fill="none" stroke="#404040" points="584.6104,-923.6351 589.2988,-918.1561 596.1595,-920.3766 591.4712,-925.8556 584.6104,-923.6351"/>
<text text-anchor="middle" x="420" y="-950.5" font-family="Helvetica,sans-Serif" font-size="10.00" fill="#000000"> &#45;time</text>
</g>
<!-- Node16 -->
<g id="node10" class="node">
<title>Node16</title>
<g id="a_node10"><a xlink:href="classSubscriptor.html" target="_top" xlink:title="{Subscriptor\n||+ Subscriptor()\l+ Subscriptor()\l+ Subscriptor()\l+ ~Subscriptor()\l+ operator=()\l+ operator=()\l+ serialize()\l+ subscribe()\l+ unsubscribe()\l+ n_subscriptions()\l+ list_subscribers()\l+ list_subscribers()\l+ ExcInUse()\l+ ExcNoSubscriber()\l&#45; check_no_subscribers()\l* subscribe()\l* unsubscribe()\l* n_subscriptions()\l* list_subscribers()\l* list_subscribers()\l}">
<polygon fill="#ffffff" stroke="#000000" points="289.5,-486.5 289.5,-752.5 415.5,-752.5 415.5,-486.5 289.5,-486.5"/>
<text text-anchor="middle" x="352.5" y="-740.5" font-family="Helvetica,sans-Serif" font-size="10.00" fill="#000000">Subscriptor</text>
<polyline fill="none" stroke="#000000" points="289.5,-733.5 415.5,-733.5 "/>
<text text-anchor="middle" x="352.5" y="-721.5" font-family="Helvetica,sans-Serif" font-size="10.00" fill="#000000"> </text>
<polyline fill="none" stroke="#000000" points="289.5,-714.5 415.5,-714.5 "/>
<text text-anchor="start" x="297.5" y="-702.5" font-family="Helvetica,sans-Serif" font-size="10.00" fill="#000000">+ Subscriptor()</text>
<text text-anchor="start" x="297.5" y="-691.5" font-family="Helvetica,sans-Serif" font-size="10.00" fill="#000000">+ Subscriptor()</text>
<text text-anchor="start" x="297.5" y="-680.5" font-family="Helvetica,sans-Serif" font-size="10.00" fill="#000000">+ Subscriptor()</text>
<text text-anchor="start" x="297.5" y="-669.5" font-family="Helvetica,sans-Serif" font-size="10.00" fill="#000000">+ ~Subscriptor()</text>
<text text-anchor="start" x="297.5" y="-658.5" font-family="Helvetica,sans-Serif" font-size="10.00" fill="#000000">+ operator=()</text>
<text text-anchor="start" x="297.5" y="-647.5" font-family="Helvetica,sans-Serif" font-size="10.00" fill="#000000">+ operator=()</text>
<text text-anchor="start" x="297.5" y="-636.5" font-family="Helvetica,sans-Serif" font-size="10.00" fill="#000000">+ serialize()</text>
<text text-anchor="start" x="297.5" y="-625.5" font-family="Helvetica,sans-Serif" font-size="10.00" fill="#000000">+ subscribe()</text>
<text text-anchor="start" x="297.5" y="-614.5" font-family="Helvetica,sans-Serif" font-size="10.00" fill="#000000">+ unsubscribe()</text>
<text text-anchor="start" x="297.5" y="-603.5" font-family="Helvetica,sans-Serif" font-size="10.00" fill="#000000">+ n_subscriptions()</text>
<text text-anchor="start" x="297.5" y="-592.5" font-family="Helvetica,sans-Serif" font-size="10.00" fill="#000000">+ list_subscribers()</text>
<text text-anchor="start" x="297.5" y="-581.5" font-family="Helvetica,sans-Serif" font-size="10.00" fill="#000000">+ list_subscribers()</text>
<text text-anchor="start" x="297.5" y="-570.5" font-family="Helvetica,sans-Serif" font-size="10.00" fill="#000000">+ ExcInUse()</text>
<text text-anchor="start" x="297.5" y="-559.5" font-family="Helvetica,sans-Serif" font-size="10.00" fill="#000000">+ ExcNoSubscriber()</text>
<text text-anchor="start" x="297.5" y="-548.5" font-family="Helvetica,sans-Serif" font-size="10.00" fill="#000000">&#45; check_no_subscribers()</text>
<text text-anchor="start" x="297.5" y="-537.5" font-family="Helvetica,sans-Serif" font-size="10.00" fill="#000000">* subscribe()</text>
<text text-anchor="start" x="297.5" y="-526.5" font-family="Helvetica,sans-Serif" font-size="10.00" fill="#000000">* unsubscribe()</text>
<text text-anchor="start" x="297.5" y="-515.5" font-family="Helvetica,sans-Serif" font-size="10.00" fill="#000000">* n_subscriptions()</text>
<text text-anchor="start" x="297.5" y="-504.5" font-family="Helvetica,sans-Serif" font-size="10.00" fill="#000000">* list_subscribers()</text>
<text text-anchor="start" x="297.5" y="-493.5" font-family="Helvetica,sans-Serif" font-size="10.00" fill="#000000">* list_subscribers()</text>
</a>
</g>
</g>
<!-- Node16&#45;&gt;Node8 -->
<g id="edge9" class="edge">
<title>Node16&#45;&gt;Node8</title>
<path fill="none" stroke="#191970" d="M383.7296,-476.5847C386.5534,-463.6624 389.356,-450.8371 392.0333,-438.5847"/>
<polygon fill="none" stroke="#191970" points="380.2835,-475.9608 381.5679,-486.4775 387.1221,-477.4552 380.2835,-475.9608"/>
</g>
<!-- Node17 -->
<g id="node11" class="node">
<title>Node17</title>
<polygon fill="#ffffff" stroke="#bfbfbf" points="51.5,-839 51.5,-907 161.5,-907 161.5,-839 51.5,-839"/>
<text text-anchor="start" x="59.5" y="-895" font-family="Helvetica,sans-Serif" font-size="10.00" fill="#000000">std::map&lt; std::string,</text>
<text text-anchor="middle" x="106.5" y="-884" font-family="Helvetica,sans-Serif" font-size="10.00" fill="#000000"> unsigned int &gt;</text>
<polyline fill="none" stroke="#bfbfbf" points="51.5,-877 161.5,-877 "/>
<text text-anchor="middle" x="106.5" y="-865" font-family="Helvetica,sans-Serif" font-size="10.00" fill="#000000"> </text>
<polyline fill="none" stroke="#bfbfbf" points="51.5,-858 161.5,-858 "/>
<text text-anchor="middle" x="106.5" y="-846" font-family="Helvetica,sans-Serif" font-size="10.00" fill="#000000"> </text>
</g>
<!-- Node17&#45;&gt;Node16 -->
<g id="edge10" class="edge">
<title>Node17&#45;&gt;Node16</title>
<path fill="none" stroke="#404040" d="M130.7039,-838.729C145.6633,-818.3436 165.7264,-792.3744 185.5,-771 214.7707,-739.3596 249.7567,-706.9099 280.1264,-680.2005"/>
<polygon fill="none" stroke="#404040" points="280.3563,-679.9997 282.2418,-673.0395 289.3919,-672.103 287.5063,-679.0632 280.3563,-679.9997"/>
<text text-anchor="middle" x="217" y="-785" font-family="Helvetica,sans-Serif" font-size="10.00" fill="#000000"> &#45;counter_map</text>
</g>
<!-- Node18 -->
<g id="node12" class="node">
<title>Node18</title>
<g id="a_node12"><a xlink:href="classint.html" target="_top" xlink:title="{int\n||}">
<polygon fill="#ffffff" stroke="#000000" points="0,-1004.5 0,-1061.5 29,-1061.5 29,-1004.5 0,-1004.5"/>
<text text-anchor="middle" x="14.5" y="-1049.5" font-family="Helvetica,sans-Serif" font-size="10.00" fill="#000000">int</text>
<polyline fill="none" stroke="#000000" points="0,-1042.5 29,-1042.5 "/>
<text text-anchor="middle" x="14.5" y="-1030.5" font-family="Helvetica,sans-Serif" font-size="10.00" fill="#000000"> </text>
<polyline fill="none" stroke="#000000" points="0,-1023.5 29,-1023.5 "/>
<text text-anchor="middle" x="14.5" y="-1011.5" font-family="Helvetica,sans-Serif" font-size="10.00" fill="#000000"> </text>
</a>
</g>
</g>
<!-- Node18&#45;&gt;Node8 -->
<g id="edge24" class="edge">
<title>Node18&#45;&gt;Node8</title>
<path fill="none" stroke="#404040" d="M14.0128,-1004.2758C14.2466,-962.6374 18.2596,-883.7428 42.5,-822 105.2625,-662.1376 240.4177,-512.0556 328.5694,-425.5604"/>
<polygon fill="none" stroke="#404040" points="328.6218,-425.5093 330.1263,-418.4569 337.2149,-417.1331 335.7104,-424.1856 328.6218,-425.5093"/>
<text text-anchor="middle" x="97.5" y="-790.5" font-family="Helvetica,sans-Serif" font-size="10.00" fill="#000000"> +dimension</text>
<text text-anchor="middle" x="97.5" y="-779.5" font-family="Helvetica,sans-Serif" font-size="10.00" fill="#000000">+n_components</text>
</g>
<!-- Node18&#45;&gt;Node17 -->
<g id="edge11" class="edge">
<title>Node18&#45;&gt;Node17</title>
<path fill="none" stroke="#404040" d="M24.6974,-1004.2372C31.7177,-985.8744 41.8575,-961.8732 53.5,-942 58.4398,-933.5681 64.2677,-924.9912 70.2194,-916.8812"/>
<polygon fill="none" stroke="#404040" points="70.2542,-916.8351 70.6804,-909.6366 77.4891,-907.2613 77.0629,-914.4598 70.2542,-916.8351"/>
<text text-anchor="middle" x="78" y="-950.5" font-family="Helvetica,sans-Serif" font-size="10.00" fill="#000000"> +elements</text>
</g>
<!-- Node19 -->
<g id="node13" class="node">
<title>Node19</title>
<g id="a_node13"><a xlink:title="STL class. ">
<polygon fill="#ffffff" stroke="#bfbfbf" points="199.5,-1004.5 199.5,-1061.5 259.5,-1061.5 259.5,-1004.5 199.5,-1004.5"/>
<text text-anchor="middle" x="229.5" y="-1049.5" font-family="Helvetica,sans-Serif" font-size="10.00" fill="#000000">std::string</text>
<polyline fill="none" stroke="#bfbfbf" points="199.5,-1042.5 259.5,-1042.5 "/>
<text text-anchor="middle" x="229.5" y="-1030.5" font-family="Helvetica,sans-Serif" font-size="10.00" fill="#000000"> </text>
<polyline fill="none" stroke="#bfbfbf" points="199.5,-1023.5 259.5,-1023.5 "/>
<text text-anchor="middle" x="229.5" y="-1011.5" font-family="Helvetica,sans-Serif" font-size="10.00" fill="#000000"> </text>
</a>
</g>
</g>
<!-- Node19&#45;&gt;Node17 -->
<g id="edge12" class="edge">
<title>Node19&#45;&gt;Node17</title>
<path fill="none" stroke="#404040" d="M229.1467,-1004.3992C227.5225,-984.9444 222.5378,-959.6314 208.5,-942 197.1094,-927.6935 187.0033,-933.6989 171.5,-924 166.6626,-920.9737 161.7589,-917.6564 156.9265,-914.2116"/>
<polygon fill="none" stroke="#404040" points="156.8146,-914.1292 149.6113,-913.7927 147.1514,-907.0141 154.3547,-907.3506 156.8146,-914.1292"/>
<text text-anchor="middle" x="236" y="-950.5" font-family="Helvetica,sans-Serif" font-size="10.00" fill="#000000"> +keys</text>
</g>
<!-- Node20 -->
<g id="node14" class="node">
<title>Node20</title>
<g id="a_node14"><a xlink:title="STL class. ">
<polygon fill="#ffffff" stroke="#bfbfbf" points="187,-1131.5 187,-1199.5 282,-1199.5 282,-1131.5 187,-1131.5"/>
<text text-anchor="start" x="195" y="-1187.5" font-family="Helvetica,sans-Serif" font-size="10.00" fill="#000000">std::basic_string&lt;</text>
<text text-anchor="middle" x="234.5" y="-1176.5" font-family="Helvetica,sans-Serif" font-size="10.00" fill="#000000"> char &gt;</text>
<polyline fill="none" stroke="#bfbfbf" points="187,-1169.5 282,-1169.5 "/>
<text text-anchor="middle" x="234.5" y="-1157.5" font-family="Helvetica,sans-Serif" font-size="10.00" fill="#000000"> </text>
<polyline fill="none" stroke="#bfbfbf" points="187,-1150.5 282,-1150.5 "/>
<text text-anchor="middle" x="234.5" y="-1138.5" font-family="Helvetica,sans-Serif" font-size="10.00" fill="#000000"> </text>
</a>
</g>
</g>
<!-- Node20&#45;&gt;Node19 -->
<g id="edge13" class="edge">
<title>Node20&#45;&gt;Node19</title>
<path fill="none" stroke="#191970" d="M232.8254,-1121.1227C232.0848,-1101.4974 231.2354,-1078.9876 230.5804,-1061.6307"/>
<polygon fill="none" stroke="#191970" points="229.3377,-1121.5171 233.2124,-1131.378 236.3327,-1121.2531 229.3377,-1121.5171"/>
</g>
<!-- Node21 -->
<g id="node15" class="node">
<title>Node21</title>
<g id="a_node15"><a xlink:title="STL class. ">
<polygon fill="#ffffff" stroke="#bfbfbf" points="60.5,-1004.5 60.5,-1061.5 152.5,-1061.5 152.5,-1004.5 60.5,-1004.5"/>
<text text-anchor="middle" x="106.5" y="-1049.5" font-family="Helvetica,sans-Serif" font-size="10.00" fill="#000000">std::map&lt; K, T &gt;</text>
<polyline fill="none" stroke="#bfbfbf" points="60.5,-1042.5 152.5,-1042.5 "/>
<text text-anchor="middle" x="106.5" y="-1030.5" font-family="Helvetica,sans-Serif" font-size="10.00" fill="#000000"> </text>
<polyline fill="none" stroke="#bfbfbf" points="60.5,-1023.5 152.5,-1023.5 "/>
<text text-anchor="middle" x="106.5" y="-1011.5" font-family="Helvetica,sans-Serif" font-size="10.00" fill="#000000"> </text>
</a>
</g>
</g>
<!-- Node21&#45;&gt;Node17 -->
<g id="edge14" class="edge">
<title>Node21&#45;&gt;Node17</title>
<path fill="none" stroke="#ffa500" d="M106.5,-994.294C106.5,-967.712 106.5,-932.7499 106.5,-907.1937"/>
<polygon fill="#ffa500" stroke="#ffa500" points="103.0001,-994.3952 106.5,-1004.3952 110.0001,-994.3952 103.0001,-994.3952"/>
<text text-anchor="start" x="106.5" y="-956" font-family="Helvetica,sans-Serif" font-size="10.00" fill="#000000"> &lt; std::string, unsigned</text>
<text text-anchor="middle" x="157" y="-945" font-family="Helvetica,sans-Serif" font-size="10.00" fill="#000000"> int &gt;</text>
</g>
<!-- Node22 -->
<g id="node16" class="node">
<title>Node22</title>
<polygon fill="#ffffff" stroke="#bfbfbf" points="86,-1137 86,-1194 115,-1194 115,-1137 86,-1137"/>
<text text-anchor="middle" x="100.5" y="-1182" font-family="Helvetica,sans-Serif" font-size="10.00" fill="#000000">K</text>
<polyline fill="none" stroke="#bfbfbf" points="86,-1175 115,-1175 "/>
<text text-anchor="middle" x="100.5" y="-1163" font-family="Helvetica,sans-Serif" font-size="10.00" fill="#000000"> </text>
<polyline fill="none" stroke="#bfbfbf" points="86,-1156 115,-1156 "/>
<text text-anchor="middle" x="100.5" y="-1144" font-family="Helvetica,sans-Serif" font-size="10.00" fill="#000000"> </text>
</g>
<!-- Node22&#45;&gt;Node21 -->
<g id="edge15" class="edge">
<title>Node22&#45;&gt;Node21</title>
<path fill="none" stroke="#404040" d="M100.6088,-1136.724C100.7405,-1125.8407 101,-1113.3454 101.5,-1102 101.9035,-1092.8433 102.5108,-1083.0144 103.1645,-1073.7276"/>
<polygon fill="none" stroke="#404040" points="103.1826,-1073.4811 99.6372,-1067.2018 104.0698,-1061.514 107.6153,-1067.7933 103.1826,-1073.4811"/>
<text text-anchor="middle" x="117" y="-1105" font-family="Helvetica,sans-Serif" font-size="10.00" fill="#000000"> +keys</text>
</g>
<!-- Node23 -->
<g id="node17" class="node">
<title>Node23</title>
<polygon fill="#ffffff" stroke="#bfbfbf" points="140,-1137 140,-1194 169,-1194 169,-1137 140,-1137"/>
<text text-anchor="middle" x="154.5" y="-1182" font-family="Helvetica,sans-Serif" font-size="10.00" fill="#000000">T</text>
<polyline fill="none" stroke="#bfbfbf" points="140,-1175 169,-1175 "/>
<text text-anchor="middle" x="154.5" y="-1163" font-family="Helvetica,sans-Serif" font-size="10.00" fill="#000000"> </text>
<polyline fill="none" stroke="#bfbfbf" points="140,-1156 169,-1156 "/>
<text text-anchor="middle" x="154.5" y="-1144" font-family="Helvetica,sans-Serif" font-size="10.00" fill="#000000"> </text>
</g>
<!-- Node23&#45;&gt;Node21 -->
<g id="edge16" class="edge">
<title>Node23&#45;&gt;Node21</title>
<path fill="none" stroke="#404040" d="M144.806,-1136.9934C141.0302,-1126.0305 136.6257,-1113.4109 132.5,-1102 129.1335,-1092.6888 125.4279,-1082.7057 121.8954,-1073.3065"/>
<polygon fill="none" stroke="#404040" points="121.7924,-1073.0336 115.9303,-1068.8341 117.5522,-1061.8077 123.4143,-1066.0072 121.7924,-1073.0336"/>
<text text-anchor="middle" x="160" y="-1105" font-family="Helvetica,sans-Serif" font-size="10.00" fill="#000000"> +elements</text>
</g>
<!-- Node28 -->
<g id="node22" class="node">
<title>Node28</title>
<g id="a_node22"><a xlink:title="STL class. ">
<polygon fill="#ffffff" stroke="#bfbfbf" points="454,-1004.5 454,-1061.5 541,-1061.5 541,-1004.5 454,-1004.5"/>
<text text-anchor="middle" x="497.5" y="-1049.5" font-family="Helvetica,sans-Serif" font-size="10.00" fill="#000000">std::vector&lt; T &gt;</text>
<polyline fill="none" stroke="#bfbfbf" points="454,-1042.5 541,-1042.5 "/>
<text text-anchor="middle" x="497.5" y="-1030.5" font-family="Helvetica,sans-Serif" font-size="10.00" fill="#000000"> </text>
<polyline fill="none" stroke="#bfbfbf" points="454,-1023.5 541,-1023.5 "/>
<text text-anchor="middle" x="497.5" y="-1011.5" font-family="Helvetica,sans-Serif" font-size="10.00" fill="#000000"> </text>
</a>
</g>
</g>
<!-- Node23&#45;&gt;Node28 -->
<g id="edge22" class="edge">
<title>Node23&#45;&gt;Node28</title>
<path fill="none" stroke="#404040" d="M169.2528,-1139.259C171.9719,-1136.0886 175.057,-1133.2002 178.5,-1131 280.0313,-1066.1192 338.3463,-1139.1017 445.5,-1084 452.5108,-1080.3949 459.1908,-1075.521 465.2855,-1070.2101"/>
<polygon fill="none" stroke="#404040" points="465.6346,-1069.8792 467.2378,-1062.8486 474.3443,-1061.6244 472.7411,-1068.655 465.6346,-1069.8792"/>
<text text-anchor="middle" x="416" y="-1105" font-family="Helvetica,sans-Serif" font-size="10.00" fill="#000000"> +elements</text>
</g>
<!-- Node24 -->
<g id="node18" class="node">
<title>Node24</title>
<polygon fill="#ffffff" stroke="#bfbfbf" points="400.5,-844.5 400.5,-901.5 516.5,-901.5 516.5,-844.5 400.5,-844.5"/>
<text text-anchor="middle" x="458.5" y="-889.5" font-family="Helvetica,sans-Serif" font-size="10.00" fill="#000000">atomic&lt; unsigned int &gt;</text>
<polyline fill="none" stroke="#bfbfbf" points="400.5,-882.5 516.5,-882.5 "/>
<text text-anchor="middle" x="458.5" y="-870.5" font-family="Helvetica,sans-Serif" font-size="10.00" fill="#000000"> </text>
<polyline fill="none" stroke="#bfbfbf" points="400.5,-863.5 516.5,-863.5 "/>
<text text-anchor="middle" x="458.5" y="-851.5" font-family="Helvetica,sans-Serif" font-size="10.00" fill="#000000"> </text>
</g>
<!-- Node24&#45;&gt;Node16 -->
<g id="edge17" class="edge">
<title>Node24&#45;&gt;Node16</title>
<path fill="none" stroke="#404040" d="M446.5465,-844.4131C437.9871,-823.9432 425.7475,-794.6722 412.9164,-763.9863"/>
<polygon fill="none" stroke="#404040" points="412.7975,-763.7018 406.7924,-759.7094 408.1681,-752.6307 414.1731,-756.6231 412.7975,-763.7018"/>
<text text-anchor="middle" x="446" y="-785" font-family="Helvetica,sans-Serif" font-size="10.00" fill="#000000"> &#45;counter</text>
</g>
<!-- Node25 -->
<g id="node19" class="node">
<title>Node25</title>
<polygon fill="#ffffff" stroke="#bfbfbf" points="534.5,-844.5 534.5,-901.5 578.5,-901.5 578.5,-844.5 534.5,-844.5"/>
<text text-anchor="middle" x="556.5" y="-889.5" font-family="Helvetica,sans-Serif" font-size="10.00" fill="#000000">mutex</text>
<polyline fill="none" stroke="#bfbfbf" points="534.5,-882.5 578.5,-882.5 "/>
<text text-anchor="middle" x="556.5" y="-870.5" font-family="Helvetica,sans-Serif" font-size="10.00" fill="#000000"> </text>
<polyline fill="none" stroke="#bfbfbf" points="534.5,-863.5 578.5,-863.5 "/>
<text text-anchor="middle" x="556.5" y="-851.5" font-family="Helvetica,sans-Serif" font-size="10.00" fill="#000000"> </text>
</g>
<!-- Node25&#45;&gt;Node16 -->
<g id="edge18" class="edge">
<title>Node25&#45;&gt;Node16</title>
<path fill="none" stroke="#404040" d="M540.2342,-844.4173C535.6957,-836.9648 530.6037,-829.0503 525.5,-822 494.3808,-779.0113 456.3916,-733.866 423.9476,-697.1388"/>
<polygon fill="none" stroke="#404040" points="423.7922,-696.9637 416.8177,-695.1318 415.8262,-687.9891 422.8007,-689.8211 423.7922,-696.9637"/>
<text text-anchor="middle" x="524.5" y="-785" font-family="Helvetica,sans-Serif" font-size="10.00" fill="#000000"> &#45;mutex</text>
</g>
<!-- Node26 -->
<g id="node20" class="node">
<title>Node26</title>
<polygon fill="#ffffff" stroke="#bfbfbf" points="261,-839 261,-907 382,-907 382,-839 261,-839"/>
<text text-anchor="start" x="269" y="-895" font-family="Helvetica,sans-Serif" font-size="10.00" fill="#000000">std::vector&lt; std::atomic</text>
<text text-anchor="middle" x="321.5" y="-884" font-family="Helvetica,sans-Serif" font-size="10.00" fill="#000000">&lt; bool &gt; *&gt;</text>
<polyline fill="none" stroke="#bfbfbf" points="261,-877 382,-877 "/>
<text text-anchor="middle" x="321.5" y="-865" font-family="Helvetica,sans-Serif" font-size="10.00" fill="#000000"> </text>
<polyline fill="none" stroke="#bfbfbf" points="261,-858 382,-858 "/>
<text text-anchor="middle" x="321.5" y="-846" font-family="Helvetica,sans-Serif" font-size="10.00" fill="#000000"> </text>
</g>
<!-- Node26&#45;&gt;Node16 -->
<g id="edge19" class="edge">
<title>Node26&#45;&gt;Node16</title>
<path fill="none" stroke="#404040" d="M325.6808,-838.8119C328.1102,-818.9454 331.3554,-792.4084 334.7476,-764.6688"/>
<polygon fill="none" stroke="#404040" points="334.7518,-764.634 331.5097,-758.1928 336.2085,-752.7227 339.4505,-759.1639 334.7518,-764.634"/>
<text text-anchor="middle" x="371" y="-785" font-family="Helvetica,sans-Serif" font-size="10.00" fill="#000000"> &#45;validity_pointers</text>
</g>
<!-- Node27 -->
<g id="node21" class="node">
<title>Node27</title>
<polygon fill="#ffffff" stroke="#bfbfbf" points="278,-1004.5 278,-1061.5 367,-1061.5 367,-1004.5 278,-1004.5"/>
<text text-anchor="middle" x="322.5" y="-1049.5" font-family="Helvetica,sans-Serif" font-size="10.00" fill="#000000">atomic&lt; bool &gt; *</text>
<polyline fill="none" stroke="#bfbfbf" points="278,-1042.5 367,-1042.5 "/>
<text text-anchor="middle" x="322.5" y="-1030.5" font-family="Helvetica,sans-Serif" font-size="10.00" fill="#000000"> </text>
<polyline fill="none" stroke="#bfbfbf" points="278,-1023.5 367,-1023.5 "/>
<text text-anchor="middle" x="322.5" y="-1011.5" font-family="Helvetica,sans-Serif" font-size="10.00" fill="#000000"> </text>
</g>
<!-- Node27&#45;&gt;Node26 -->
<g id="edge20" class="edge">
<title>Node27&#45;&gt;Node26</title>
<path fill="none" stroke="#404040" d="M322.3212,-1004.3952C322.1736,-980.7769 321.9612,-946.7944 321.7894,-919.306"/>
<polygon fill="none" stroke="#404040" points="321.7888,-919.1934 317.7513,-913.2186 321.7137,-907.1937 325.7512,-913.1685 321.7888,-919.1934"/>
<text text-anchor="middle" x="346" y="-950.5" font-family="Helvetica,sans-Serif" font-size="10.00" fill="#000000"> +elements</text>
</g>
<!-- Node28&#45;&gt;Node26 -->
<g id="edge21" class="edge">
<title>Node28&#45;&gt;Node26</title>
<path fill="none" stroke="#ffa500" d="M478.9619,-995.042C468.5646,-976.9789 454.126,-956.2647 436.5,-942 419.7558,-928.4489 410.351,-934.423 391.5,-924 382.5521,-919.0526 373.4188,-913.1351 364.8299,-907.112"/>
<polygon fill="#ffa500" stroke="#ffa500" points="476.1233,-997.1412 484.0261,-1004.1979 482.2487,-993.7532 476.1233,-997.1412"/>
<text text-anchor="middle" x="511.5" y="-950.5" font-family="Helvetica,sans-Serif" font-size="10.00" fill="#000000"> &lt; std::atomic&lt; bool &gt; *&gt;</text>
</g>
<!-- Node30 -->
<g id="node24" class="node">
<title>Node30</title>
<polygon fill="#ffffff" stroke="#bfbfbf" points="880,-839 880,-907 1015,-907 1015,-839 880,-839"/>
<text text-anchor="start" x="888" y="-895" font-family="Helvetica,sans-Serif" font-size="10.00" fill="#000000">std::vector&lt; RangeNumber</text>
<text text-anchor="middle" x="947.5" y="-884" font-family="Helvetica,sans-Serif" font-size="10.00" fill="#000000">Type &gt;</text>
<polyline fill="none" stroke="#bfbfbf" points="880,-877 1015,-877 "/>
<text text-anchor="middle" x="947.5" y="-865" font-family="Helvetica,sans-Serif" font-size="10.00" fill="#000000"> </text>
<polyline fill="none" stroke="#bfbfbf" points="880,-858 1015,-858 "/>
<text text-anchor="middle" x="947.5" y="-846" font-family="Helvetica,sans-Serif" font-size="10.00" fill="#000000"> </text>
</g>
<!-- Node28&#45;&gt;Node30 -->
<g id="edge27" class="edge">
<title>Node28&#45;&gt;Node30</title>
<path fill="none" stroke="#ffa500" d="M535.444,-997.3267C561.4563,-973.2509 592.6322,-945.2799 600.5,-942 711.9161,-895.553 757.2518,-962.9642 871.5,-924 883.0803,-920.0506 894.57,-913.863 904.9759,-907.141"/>
<polygon fill="#ffa500" stroke="#ffa500" points="532.8648,-994.9454 527.9191,-1004.3151 537.6284,-1000.0747 532.8648,-994.9454"/>
<text text-anchor="middle" x="653.5" y="-950.5" font-family="Helvetica,sans-Serif" font-size="10.00" fill="#000000"> &lt; RangeNumberType &gt;</text>
</g>
<!-- Node29 -->
<g id="node23" class="node">
<title>Node29</title>
<polygon fill="#ffffff" stroke="#bfbfbf" points="180,-844.5 180,-901.5 243,-901.5 243,-844.5 180,-844.5"/>
<text text-anchor="middle" x="211.5" y="-889.5" font-family="Helvetica,sans-Serif" font-size="10.00" fill="#000000">type_info *</text>
<polyline fill="none" stroke="#bfbfbf" points="180,-882.5 243,-882.5 "/>
<text text-anchor="middle" x="211.5" y="-870.5" font-family="Helvetica,sans-Serif" font-size="10.00" fill="#000000"> </text>
<polyline fill="none" stroke="#bfbfbf" points="180,-863.5 243,-863.5 "/>
<text text-anchor="middle" x="211.5" y="-851.5" font-family="Helvetica,sans-Serif" font-size="10.00" fill="#000000"> </text>
</g>
<!-- Node29&#45;&gt;Node16 -->
<g id="edge23" class="edge">
<title>Node29&#45;&gt;Node16</title>
<path fill="none" stroke="#404040" d="M227.4004,-844.4131C241.291,-819.4395 262.468,-781.366 283.4709,-743.6055"/>
<polygon fill="none" stroke="#404040" points="283.5509,-743.4616 282.9718,-736.2737 289.384,-732.9746 289.9631,-740.1624 283.5509,-743.4616"/>
<text text-anchor="middle" x="291.5" y="-785" font-family="Helvetica,sans-Serif" font-size="10.00" fill="#000000"> &#45;object_info</text>
</g>
<!-- Node30&#45;&gt;Node7 -->
<g id="edge25" class="edge">
<title>Node30&#45;&gt;Node7</title>
<path fill="none" stroke="#404040" d="M934.2514,-838.8006C893.5582,-733.7569 768.9631,-412.1328 699.8762,-233.7947"/>
<polygon fill="none" stroke="#404040" points="699.844,-233.7116 693.9467,-229.5617 695.5091,-222.5219 701.4065,-226.6717 699.844,-233.7116"/>
<text text-anchor="middle" x="841.5" y="-460" font-family="Helvetica,sans-Serif" font-size="10.00" fill="#000000"> #function_value_vector</text>
</g>
<!-- Node31 -->
<g id="node25" class="node">
<title>Node31</title>
<polygon fill="#ffffff" stroke="#bfbfbf" points="921,-1004.5 921,-1061.5 1022,-1061.5 1022,-1004.5 921,-1004.5"/>
<text text-anchor="middle" x="971.5" y="-1049.5" font-family="Helvetica,sans-Serif" font-size="10.00" fill="#000000">RangeNumberType</text>
<polyline fill="none" stroke="#bfbfbf" points="921,-1042.5 1022,-1042.5 "/>
<text text-anchor="middle" x="971.5" y="-1030.5" font-family="Helvetica,sans-Serif" font-size="10.00" fill="#000000"> </text>
<polyline fill="none" stroke="#bfbfbf" points="921,-1023.5 1022,-1023.5 "/>
<text text-anchor="middle" x="971.5" y="-1011.5" font-family="Helvetica,sans-Serif" font-size="10.00" fill="#000000"> </text>
</g>
<!-- Node31&#45;&gt;Node30 -->
<g id="edge26" class="edge">
<title>Node31&#45;&gt;Node30</title>
<path fill="none" stroke="#404040" d="M967.2093,-1004.3952C963.6665,-980.7769 958.5692,-946.7944 954.4459,-919.306"/>
<polygon fill="none" stroke="#404040" points="954.4092,-919.0609 949.5634,-913.7207 952.629,-907.1937 957.4749,-912.5339 954.4092,-919.0609"/>
<text text-anchor="middle" x="985" y="-950.5" font-family="Helvetica,sans-Serif" font-size="10.00" fill="#000000"> +elements</text>
</g>
</g>
</svg>
        <g id="navigator" transform="translate(0 0)" fill="#404254">
                <rect fill="#f2f5e9" fill-opacity="0.5" stroke="#606060" stroke-width=".5" x="0" y="0" width="60" height="60"/>
                <use id="zoomplus" xlink:href="#zoomPlus" x="17" y="9" onmousedown="handleZoom(evt,'in')"/>
                <use id="zoomminus" xlink:href="#zoomMin" x="42" y="9" onmousedown="handleZoom(evt,'out')"/>
                <use id="reset" xlink:href="#resetDef" x="30" y="36" onmousedown="handleReset()"/>
                <g id="arrowUp" xlink:href="#dirArrow" transform="translate(30 24)" onmousedown="handlePan(0,-1)">
                  <use xlink:href="#rim" fill="#404040">
                        <set attributeName="fill" to="#808080" begin="arrowUp.mouseover" end="arrowUp.mouseout"/>
                  </use>
                  <path fill="none" stroke="white" stroke-width="1.5" d="M0,-3.0v7 M-2.5,-0.5L0,-3.0L2.5,-0.5"/>
                </g>
                <g id="arrowRight" xlink:href="#dirArrow" transform="rotate(90) translate(36 -43)" onmousedown="handlePan(1,0)">
                  <use xlink:href="#rim" fill="#404040">
                        <set attributeName="fill" to="#808080" begin="arrowRight.mouseover" end="arrowRight.mouseout"/>
                  </use>
                  <path fill="none" stroke="white" stroke-width="1.5" d="M0,-3.0v7 M-2.5,-0.5L0,-3.0L2.5,-0.5"/>
                </g>
                <g id="arrowDown" xlink:href="#dirArrow" transform="rotate(180) translate(-30 -48)" onmousedown="handlePan(0,1)">
                  <use xlink:href="#rim" fill="#404040">
                        <set attributeName="fill" to="#808080" begin="arrowDown.mouseover" end="arrowDown.mouseout"/>
                  </use>
                  <path fill="none" stroke="white" stroke-width="1.5" d="M0,-3.0v7 M-2.5,-0.5L0,-3.0L2.5,-0.5"/>
                </g>
                <g id="arrowLeft" xlink:href="#dirArrow" transform="rotate(270) translate(-36 17)" onmousedown="handlePan(-1,0)">
                  <use xlink:href="#rim" fill="#404040">
                        <set attributeName="fill" to="#808080" begin="arrowLeft.mouseover" end="arrowLeft.mouseout"/>
                  </use>
                  <path fill="none" stroke="white" stroke-width="1.5" d="M0,-3.0v7 M-2.5,-0.5L0,-3.0L2.5,-0.5"/>
                </g>
        </g>
        <svg viewBox="0 0 15 15" width="100%" height="30px" preserveAspectRatio="xMaxYMin meet">
         <g id="arrow_out" transform="scale(0.3 0.3)">
          <a xlink:href="classFunctions_1_1ConstantFunction__coll__graph_org.svg" target="_base">
           <rect id="button" ry="5" rx="5" y="6" x="6" height="38" width="38"
                fill="#f2f5e9" fill-opacity="0.5" stroke="#606060" stroke-width="1.0"/>
           <path id="arrow"
             d="M 11.500037,31.436501 C 11.940474,20.09759 22.043105,11.32322 32.158766,21.979434 L 37.068811,17.246167 C 37.068811,17.246167 37.088388,32 37.088388,32 L 22.160133,31.978069 C 22.160133,31.978069 26.997745,27.140456 26.997745,27.140456 C 18.528582,18.264221 13.291696,25.230495 11.500037,31.436501 z"
             style="fill:#404040;"/>
          </a>
         </g>
        </svg>
</svg>
