<?xml version="1.0" encoding="UTF-8" standalone="no"?>
<!DOCTYPE svg PUBLIC "-//W3C//DTD SVG 1.1//EN"
 "http://www.w3.org/Graphics/SVG/1.1/DTD/svg11.dtd">
<!-- Generated by graphviz version 2.40.1 (20161225.0304)
 -->
<!-- Title: BoundingBox&lt; spacedim, Number &gt; Pages: 1 -->
<svg width="159pt" height="314pt"
 viewBox="0.00 0.00 159.00 314.00" xmlns="http://www.w3.org/2000/svg" xmlns:xlink="http://www.w3.org/1999/xlink">
<g id="graph0" class="graph" transform="scale(1 1) rotate(0) translate(4 310)">
<title>BoundingBox&lt; spacedim, Number &gt;</title>
<polygon fill="#ffffff" stroke="transparent" points="-4,4 -4,-310 155,-310 155,4 -4,4"/>
<!-- Node3 -->
<g id="node1" class="node">
<title>Node3</title>
<polygon fill="#bfbfbf" stroke="#000000" points="9,-.5 9,-178.5 137,-178.5 137,-.5 9,-.5"/>
<text text-anchor="start" x="17" y="-166.5" font-family="Helvetica,sans-Serif" font-size="10.00" fill="#000000">BoundingBox&lt; spacedim,</text>
<text text-anchor="middle" x="73" y="-155.5" font-family="Helvetica,sans-Serif" font-size="10.00" fill="#000000"> Number &gt;</text>
<polyline fill="none" stroke="#000000" points="9,-148.5 137,-148.5 "/>
<text text-anchor="middle" x="73" y="-136.5" font-family="Helvetica,sans-Serif" font-size="10.00" fill="#000000"> </text>
<polyline fill="none" stroke="#000000" points="9,-129.5 137,-129.5 "/>
<text text-anchor="start" x="17" y="-117.5" font-family="Helvetica,sans-Serif" font-size="10.00" fill="#000000">+ BoundingBox()</text>
<text text-anchor="start" x="17" y="-106.5" font-family="Helvetica,sans-Serif" font-size="10.00" fill="#000000">+ BoundingBox()</text>
<text text-anchor="start" x="17" y="-95.5" font-family="Helvetica,sans-Serif" font-size="10.00" fill="#000000">+ BoundingBox()</text>
<text text-anchor="start" x="17" y="-84.5" font-family="Helvetica,sans-Serif" font-size="10.00" fill="#000000">+ get_boundary_points()</text>
<text text-anchor="start" x="17" y="-73.5" font-family="Helvetica,sans-Serif" font-size="10.00" fill="#000000">+ get_boundary_points()</text>
<text text-anchor="start" x="17" y="-62.5" font-family="Helvetica,sans-Serif" font-size="10.00" fill="#000000">+ operator==()</text>
<text text-anchor="start" x="17" y="-51.5" font-family="Helvetica,sans-Serif" font-size="10.00" fill="#000000">+ operator!=()</text>
<text text-anchor="start" x="17" y="-40.5" font-family="Helvetica,sans-Serif" font-size="10.00" fill="#000000">+ get_neighbor_type()</text>
<text text-anchor="start" x="17" y="-29.5" font-family="Helvetica,sans-Serif" font-size="10.00" fill="#000000">+ merge_with()</text>
<text text-anchor="start" x="17" y="-18.5" font-family="Helvetica,sans-Serif" font-size="10.00" fill="#000000">+ point_inside()</text>
<text text-anchor="start" x="17" y="-7.5" font-family="Helvetica,sans-Serif" font-size="10.00" fill="#000000">and 13 more...</text>
</g>
<!-- Node4 -->
<g id="node2" class="node">
<title>Node4</title>
<polygon fill="#ffffff" stroke="#bfbfbf" points="0,-226.5 0,-305.5 146,-305.5 146,-226.5 0,-226.5"/>
<text text-anchor="start" x="8" y="-293.5" font-family="Helvetica,sans-Serif" font-size="10.00" fill="#000000">pair&lt; Point&lt; spacedim,</text>
<text text-anchor="start" x="8" y="-282.5" font-family="Helvetica,sans-Serif" font-size="10.00" fill="#000000"> Number &gt;, Point&lt; spacedim,</text>
<text text-anchor="middle" x="73" y="-271.5" font-family="Helvetica,sans-Serif" font-size="10.00" fill="#000000"> Number &gt; &gt;</text>
<polyline fill="none" stroke="#bfbfbf" points="0,-264.5 146,-264.5 "/>
<text text-anchor="middle" x="73" y="-252.5" font-family="Helvetica,sans-Serif" font-size="10.00" fill="#000000"> </text>
<polyline fill="none" stroke="#bfbfbf" points="0,-245.5 146,-245.5 "/>
<text text-anchor="middle" x="73" y="-233.5" font-family="Helvetica,sans-Serif" font-size="10.00" fill="#000000"> </text>
</g>
<!-- Node4&#45;&gt;Node3 -->
<g id="edge1" class="edge">
<title>Node4&#45;&gt;Node3</title>
<path fill="none" stroke="#404040" d="M73,-226.39C73,-215.6069 73,-203.4149 73,-190.8609"/>
<polygon fill="none" stroke="#404040" points="73.0001,-190.7478 69,-184.7478 73,-178.7478 77,-184.7478 73.0001,-190.7478"/>
<text text-anchor="middle" x="112" y="-200" font-family="Helvetica,sans-Serif" font-size="10.00" fill="#000000"> &#45;boundary_points</text>
</g>
</g>
</svg>
