<?xml version="1.0" encoding="UTF-8" standalone="no"?>
<!DOCTYPE svg PUBLIC "-//W3C//DTD SVG 1.1//EN"
 "http://www.w3.org/Graphics/SVG/1.1/DTD/svg11.dtd">
<!-- Generated by graphviz version 2.40.1 (20161225.0304)
 -->
<!-- Title: FEEvaluationAccess&lt; dim, n_components_, Number, is_face, VectorizedArrayType &gt; Pages: 1 -->
<svg width="1006pt" height="132pt"
 viewBox="0.00 0.00 1006.00 132.00" xmlns="http://www.w3.org/2000/svg" xmlns:xlink="http://www.w3.org/1999/xlink">
<g id="graph0" class="graph" transform="scale(1 1) rotate(0) translate(4 128)">
<title>FEEvaluationAccess&lt; dim, n_components_, Number, is_face, VectorizedArrayType &gt;</title>
<polygon fill="#ffffff" stroke="transparent" points="-4,4 -4,-128 1002,-128 1002,4 -4,4"/>
<!-- Node0 -->
<g id="node1" class="node">
<title>Node0</title>
<polygon fill="#bfbfbf" stroke="#000000" points="354,-35.5 354,-87.5 506,-87.5 506,-35.5 354,-35.5"/>
<text text-anchor="start" x="362" y="-75.5" font-family="Helvetica,sans-Serif" font-size="10.00" fill="#000000">FEEvaluationAccess</text>
<text text-anchor="start" x="362" y="-64.5" font-family="Helvetica,sans-Serif" font-size="10.00" fill="#000000">&lt; dim, n_components</text>
<text text-anchor="start" x="362" y="-53.5" font-family="Helvetica,sans-Serif" font-size="10.00" fill="#000000">_, Number, is_face, Vectorized</text>
<text text-anchor="middle" x="430" y="-42.5" font-family="Helvetica,sans-Serif" font-size="10.00" fill="#000000">ArrayType &gt;</text>
</g>
<!-- Node3 -->
<g id="node4" class="node">
<title>Node3</title>
<g id="a_node4"><a xlink:href="classFEEvaluationAccess.html" target="_top" xlink:title="FEEvaluationAccess\l\&lt; dim, n_components\l_, Number, false, Vectorized\lArrayType \&gt;">
<polygon fill="#ffffff" stroke="#000000" points="668,-71.5 668,-123.5 810,-123.5 810,-71.5 668,-71.5"/>
<text text-anchor="start" x="676" y="-111.5" font-family="Helvetica,sans-Serif" font-size="10.00" fill="#000000">FEEvaluationAccess</text>
<text text-anchor="start" x="676" y="-100.5" font-family="Helvetica,sans-Serif" font-size="10.00" fill="#000000">&lt; dim, n_components</text>
<text text-anchor="start" x="676" y="-89.5" font-family="Helvetica,sans-Serif" font-size="10.00" fill="#000000">_, Number, false, Vectorized</text>
<text text-anchor="middle" x="739" y="-78.5" font-family="Helvetica,sans-Serif" font-size="10.00" fill="#000000">ArrayType &gt;</text>
</a>
</g>
</g>
<!-- Node0&#45;&gt;Node3 -->
<g id="edge3" class="edge">
<title>Node0&#45;&gt;Node3</title>
<path fill="none" stroke="#ffa500" stroke-dasharray="5,2" d="M516.4092,-71.5671C564.2136,-77.1365 622.8901,-83.9726 667.9956,-89.2276"/>
<polygon fill="#ffa500" stroke="#ffa500" points="516.7199,-68.0797 506.382,-70.3989 515.9098,-75.0327 516.7199,-68.0797"/>
<text text-anchor="start" x="524" y="-111.5" font-family="Helvetica,sans-Serif" font-size="10.00" fill="#000000"> &lt; dim, n_components</text>
<text text-anchor="start" x="524" y="-100.5" font-family="Helvetica,sans-Serif" font-size="10.00" fill="#000000">_, Number, false, Vectorized</text>
<text text-anchor="middle" x="587" y="-89.5" font-family="Helvetica,sans-Serif" font-size="10.00" fill="#000000">ArrayType &gt;</text>
</g>
<!-- Node5 -->
<g id="node6" class="node">
<title>Node5</title>
<g id="a_node6"><a xlink:href="classFEEvaluationAccess.html" target="_top" xlink:title="FEEvaluationAccess\l\&lt; dim, n_components\l_, Number, true, Vectorized\lArrayType \&gt;">
<polygon fill="#ffffff" stroke="#000000" points="670.5,-.5 670.5,-52.5 807.5,-52.5 807.5,-.5 670.5,-.5"/>
<text text-anchor="start" x="678.5" y="-40.5" font-family="Helvetica,sans-Serif" font-size="10.00" fill="#000000">FEEvaluationAccess</text>
<text text-anchor="start" x="678.5" y="-29.5" font-family="Helvetica,sans-Serif" font-size="10.00" fill="#000000">&lt; dim, n_components</text>
<text text-anchor="start" x="678.5" y="-18.5" font-family="Helvetica,sans-Serif" font-size="10.00" fill="#000000">_, Number, true, Vectorized</text>
<text text-anchor="middle" x="739" y="-7.5" font-family="Helvetica,sans-Serif" font-size="10.00" fill="#000000">ArrayType &gt;</text>
</a>
</g>
</g>
<!-- Node0&#45;&gt;Node5 -->
<g id="edge5" class="edge">
<title>Node0&#45;&gt;Node5</title>
<path fill="none" stroke="#ffa500" stroke-dasharray="5,2" d="M516.2835,-39.7421C518.879,-39.295 521.4554,-38.879 524,-38.5 572.6242,-31.2575 628.0243,-28.2892 670.4091,-27.1151"/>
<polygon fill="#ffa500" stroke="#ffa500" points="515.4009,-36.346 506.2058,-41.609 516.6761,-43.2289 515.4009,-36.346"/>
<text text-anchor="start" x="526.5" y="-63.5" font-family="Helvetica,sans-Serif" font-size="10.00" fill="#000000"> &lt; dim, n_components</text>
<text text-anchor="start" x="526.5" y="-52.5" font-family="Helvetica,sans-Serif" font-size="10.00" fill="#000000">_, Number, true, Vectorized</text>
<text text-anchor="middle" x="587" y="-41.5" font-family="Helvetica,sans-Serif" font-size="10.00" fill="#000000">ArrayType &gt;</text>
</g>
<!-- Node1 -->
<g id="node2" class="node">
<title>Node1</title>
<g id="a_node2"><a xlink:href="classFEEvaluationBase.html" target="_top" xlink:title="FEEvaluationBase\&lt; dim,\l n_components_, Number,\l is_face, VectorizedArrayType \&gt;">
<polygon fill="#ffffff" stroke="#000000" points="159,-41 159,-82 317,-82 317,-41 159,-41"/>
<text text-anchor="start" x="167" y="-70" font-family="Helvetica,sans-Serif" font-size="10.00" fill="#000000">FEEvaluationBase&lt; dim,</text>
<text text-anchor="start" x="167" y="-59" font-family="Helvetica,sans-Serif" font-size="10.00" fill="#000000"> n_components_, Number,</text>
<text text-anchor="middle" x="238" y="-48" font-family="Helvetica,sans-Serif" font-size="10.00" fill="#000000"> is_face, VectorizedArrayType &gt;</text>
</a>
</g>
</g>
<!-- Node1&#45;&gt;Node0 -->
<g id="edge1" class="edge">
<title>Node1&#45;&gt;Node0</title>
<path fill="none" stroke="#191970" d="M327.4689,-61.5C336.2585,-61.5 345.1213,-61.5 353.761,-61.5"/>
<polygon fill="#191970" stroke="#191970" points="327.2023,-58.0001 317.2022,-61.5 327.2022,-65.0001 327.2023,-58.0001"/>
</g>
<!-- Node2 -->
<g id="node3" class="node">
<title>Node2</title>
<g id="a_node3"><a xlink:href="classFEEvaluationBaseData.html" target="_top" xlink:title="FEEvaluationBaseData\l\&lt; dim, Number, is_face,\l VectorizedArrayType \&gt;">
<polygon fill="#ffffff" stroke="#000000" points="0,-41 0,-82 122,-82 122,-41 0,-41"/>
<text text-anchor="start" x="8" y="-70" font-family="Helvetica,sans-Serif" font-size="10.00" fill="#000000">FEEvaluationBaseData</text>
<text text-anchor="start" x="8" y="-59" font-family="Helvetica,sans-Serif" font-size="10.00" fill="#000000">&lt; dim, Number, is_face,</text>
<text text-anchor="middle" x="61" y="-48" font-family="Helvetica,sans-Serif" font-size="10.00" fill="#000000"> VectorizedArrayType &gt;</text>
</a>
</g>
</g>
<!-- Node2&#45;&gt;Node1 -->
<g id="edge2" class="edge">
<title>Node2&#45;&gt;Node1</title>
<path fill="none" stroke="#191970" d="M132.4974,-61.5C141.1981,-61.5 150.1267,-61.5 158.9295,-61.5"/>
<polygon fill="#191970" stroke="#191970" points="132.4093,-58.0001 122.4093,-61.5 132.4092,-65.0001 132.4093,-58.0001"/>
</g>
<!-- Node4 -->
<g id="node5" class="node">
<title>Node4</title>
<g id="a_node5"><a xlink:href="classFEEvaluation.html" target="_top" xlink:title="FEEvaluation\&lt; dim,\l fe_degree, n_q_points\l_1d, n_components_, Number,\l VectorizedArrayType \&gt;">
<polygon fill="#ffffff" stroke="#000000" points="847,-71.5 847,-123.5 998,-123.5 998,-71.5 847,-71.5"/>
<text text-anchor="start" x="855" y="-111.5" font-family="Helvetica,sans-Serif" font-size="10.00" fill="#000000">FEEvaluation&lt; dim,</text>
<text text-anchor="start" x="855" y="-100.5" font-family="Helvetica,sans-Serif" font-size="10.00" fill="#000000"> fe_degree, n_q_points</text>
<text text-anchor="start" x="855" y="-89.5" font-family="Helvetica,sans-Serif" font-size="10.00" fill="#000000">_1d, n_components_, Number,</text>
<text text-anchor="middle" x="922.5" y="-78.5" font-family="Helvetica,sans-Serif" font-size="10.00" fill="#000000"> VectorizedArrayType &gt;</text>
</a>
</g>
</g>
<!-- Node3&#45;&gt;Node4 -->
<g id="edge4" class="edge">
<title>Node3&#45;&gt;Node4</title>
<path fill="none" stroke="#191970" d="M820.4213,-97.5C829.1876,-97.5 838.0812,-97.5 846.7767,-97.5"/>
<polygon fill="#191970" stroke="#191970" points="820.2086,-94.0001 810.2085,-97.5 820.2085,-101.0001 820.2086,-94.0001"/>
</g>
<!-- Node6 -->
<g id="node7" class="node">
<title>Node6</title>
<g id="a_node7"><a xlink:href="classFEFaceEvaluation.html" target="_top" xlink:title="FEFaceEvaluation\&lt; dim,\l fe_degree, n_q_points\l_1d, n_components_, Number,\l VectorizedArrayType \&gt;">
<polygon fill="#ffffff" stroke="#000000" points="847,-.5 847,-52.5 998,-52.5 998,-.5 847,-.5"/>
<text text-anchor="start" x="855" y="-40.5" font-family="Helvetica,sans-Serif" font-size="10.00" fill="#000000">FEFaceEvaluation&lt; dim,</text>
<text text-anchor="start" x="855" y="-29.5" font-family="Helvetica,sans-Serif" font-size="10.00" fill="#000000"> fe_degree, n_q_points</text>
<text text-anchor="start" x="855" y="-18.5" font-family="Helvetica,sans-Serif" font-size="10.00" fill="#000000">_1d, n_components_, Number,</text>
<text text-anchor="middle" x="922.5" y="-7.5" font-family="Helvetica,sans-Serif" font-size="10.00" fill="#000000"> VectorizedArrayType &gt;</text>
</a>
</g>
</g>
<!-- Node5&#45;&gt;Node6 -->
<g id="edge6" class="edge">
<title>Node5&#45;&gt;Node6</title>
<path fill="none" stroke="#191970" d="M817.6202,-26.5C827.3331,-26.5 837.2466,-26.5 846.9128,-26.5"/>
<polygon fill="#191970" stroke="#191970" points="817.5896,-23.0001 807.5896,-26.5 817.5895,-30.0001 817.5896,-23.0001"/>
</g>
</g>
</svg>
