<?xml version="1.0" encoding="UTF-8" standalone="no"?>
<!DOCTYPE svg PUBLIC "-//W3C//DTD SVG 1.1//EN"
 "http://www.w3.org/Graphics/SVG/1.1/DTD/svg11.dtd">
<!-- Generated by graphviz version 2.40.1 (20161225.0304)
 -->
<!-- Title: internal::TriangulationImplementation::TriaObjects Pages: 1 -->
<svg width="1230pt" height="612pt"
 viewBox="0.00 0.00 1230.00 612.00" xmlns="http://www.w3.org/2000/svg" xmlns:xlink="http://www.w3.org/1999/xlink">
<g id="graph0" class="graph" transform="scale(1 1) rotate(0) translate(4 608)">
<title>internal::TriangulationImplementation::TriaObjects</title>
<polygon fill="#ffffff" stroke="transparent" points="-4,4 -4,-608 1226,-608 1226,4 -4,4"/>
<!-- Node1 -->
<g id="node1" class="node">
<title>Node1</title>
<polygon fill="#bfbfbf" stroke="#000000" points="618,-.5 618,-189.5 794,-189.5 794,-.5 618,-.5"/>
<text text-anchor="start" x="626" y="-177.5" font-family="Helvetica,sans-Serif" font-size="10.00" fill="#000000">internal::TriangulationImplementation</text>
<text text-anchor="middle" x="706" y="-166.5" font-family="Helvetica,sans-Serif" font-size="10.00" fill="#000000">::TriaObjects</text>
<polyline fill="none" stroke="#000000" points="618,-159.5 794,-159.5 "/>
<text text-anchor="middle" x="706" y="-147.5" font-family="Helvetica,sans-Serif" font-size="10.00" fill="#000000"> </text>
<polyline fill="none" stroke="#000000" points="618,-140.5 794,-140.5 "/>
<text text-anchor="start" x="626" y="-128.5" font-family="Helvetica,sans-Serif" font-size="10.00" fill="#000000">+ TriaObjects()</text>
<text text-anchor="start" x="626" y="-117.5" font-family="Helvetica,sans-Serif" font-size="10.00" fill="#000000">+ TriaObjects()</text>
<text text-anchor="start" x="626" y="-106.5" font-family="Helvetica,sans-Serif" font-size="10.00" fill="#000000">+ n_objects()</text>
<text text-anchor="start" x="626" y="-95.5" font-family="Helvetica,sans-Serif" font-size="10.00" fill="#000000">+ get_bounding_object</text>
<text text-anchor="start" x="626" y="-84.5" font-family="Helvetica,sans-Serif" font-size="10.00" fill="#000000">_indices()</text>
<text text-anchor="start" x="626" y="-73.5" font-family="Helvetica,sans-Serif" font-size="10.00" fill="#000000">+ next_free_single_object()</text>
<text text-anchor="start" x="626" y="-62.5" font-family="Helvetica,sans-Serif" font-size="10.00" fill="#000000">+ next_free_pair_object()</text>
<text text-anchor="start" x="626" y="-51.5" font-family="Helvetica,sans-Serif" font-size="10.00" fill="#000000">+ next_free_hex()</text>
<text text-anchor="start" x="626" y="-40.5" font-family="Helvetica,sans-Serif" font-size="10.00" fill="#000000">+ user_pointer()</text>
<text text-anchor="start" x="626" y="-29.5" font-family="Helvetica,sans-Serif" font-size="10.00" fill="#000000">+ user_pointer()</text>
<text text-anchor="start" x="626" y="-18.5" font-family="Helvetica,sans-Serif" font-size="10.00" fill="#000000">+ user_index()</text>
<text text-anchor="start" x="626" y="-7.5" font-family="Helvetica,sans-Serif" font-size="10.00" fill="#000000">and 10 more...</text>
</g>
<!-- Node2 -->
<g id="node2" class="node">
<title>Node2</title>
<polygon fill="#ffffff" stroke="#bfbfbf" points="25,-248.5 25,-327.5 207,-327.5 207,-248.5 25,-248.5"/>
<text text-anchor="start" x="33" y="-315.5" font-family="Helvetica,sans-Serif" font-size="10.00" fill="#000000">std::vector&lt; internal</text>
<text text-anchor="start" x="33" y="-304.5" font-family="Helvetica,sans-Serif" font-size="10.00" fill="#000000">::TriangulationImplementation</text>
<text text-anchor="middle" x="116" y="-293.5" font-family="Helvetica,sans-Serif" font-size="10.00" fill="#000000">::TriaObjects::BoundaryOrMaterialId &gt;</text>
<polyline fill="none" stroke="#bfbfbf" points="25,-286.5 207,-286.5 "/>
<text text-anchor="middle" x="116" y="-274.5" font-family="Helvetica,sans-Serif" font-size="10.00" fill="#000000"> </text>
<polyline fill="none" stroke="#bfbfbf" points="25,-267.5 207,-267.5 "/>
<text text-anchor="middle" x="116" y="-255.5" font-family="Helvetica,sans-Serif" font-size="10.00" fill="#000000"> </text>
</g>
<!-- Node2&#45;&gt;Node1 -->
<g id="edge1" class="edge">
<title>Node2&#45;&gt;Node1</title>
<path fill="none" stroke="#404040" d="M177.8324,-248.4281C202.1127,-234.1673 230.6722,-218.9172 258,-208 373.6059,-161.8164 513.6938,-130.099 606.0917,-112.2815"/>
<polygon fill="none" stroke="#404040" points="606.1732,-112.266 611.3179,-107.2131 617.9609,-110.0186 612.8162,-115.0715 606.1732,-112.266"/>
<text text-anchor="middle" x="315.5" y="-216.5" font-family="Helvetica,sans-Serif" font-size="10.00" fill="#000000"> +boundary_or_material_id</text>
</g>
<!-- Node3 -->
<g id="node3" class="node">
<title>Node3</title>
<g id="a_node3"><a xlink:href="structinternal_1_1TriangulationImplementation_1_1TriaObjects_1_1BoundaryOrMaterialId.html" target="_top" xlink:title="{internal::TriangulationImplementation\l::TriaObjects::BoundaryOrMaterialId\n||+ BoundaryOrMaterialId()\l+ serialize()\l+ memory_consumption()\l}">
<polygon fill="#ffffff" stroke="#000000" points="0,-397.5 0,-487.5 176,-487.5 176,-397.5 0,-397.5"/>
<text text-anchor="start" x="8" y="-475.5" font-family="Helvetica,sans-Serif" font-size="10.00" fill="#000000">internal::TriangulationImplementation</text>
<text text-anchor="middle" x="88" y="-464.5" font-family="Helvetica,sans-Serif" font-size="10.00" fill="#000000">::TriaObjects::BoundaryOrMaterialId</text>
<polyline fill="none" stroke="#000000" points="0,-457.5 176,-457.5 "/>
<text text-anchor="middle" x="88" y="-445.5" font-family="Helvetica,sans-Serif" font-size="10.00" fill="#000000"> </text>
<polyline fill="none" stroke="#000000" points="0,-438.5 176,-438.5 "/>
<text text-anchor="start" x="8" y="-426.5" font-family="Helvetica,sans-Serif" font-size="10.00" fill="#000000">+ BoundaryOrMaterialId()</text>
<text text-anchor="start" x="8" y="-415.5" font-family="Helvetica,sans-Serif" font-size="10.00" fill="#000000">+ serialize()</text>
<text text-anchor="start" x="8" y="-404.5" font-family="Helvetica,sans-Serif" font-size="10.00" fill="#000000">+ memory_consumption()</text>
</a>
</g>
</g>
<!-- Node3&#45;&gt;Node2 -->
<g id="edge2" class="edge">
<title>Node3&#45;&gt;Node2</title>
<path fill="none" stroke="#404040" d="M50.8009,-397.1315C41.981,-380.9214 37.1393,-362.5716 45,-346 46.4218,-343.0025 48.0828,-340.1087 49.9346,-337.3215"/>
<polygon fill="none" stroke="#404040" points="50.0387,-337.1871 50.5512,-329.9942 57.3879,-327.7008 56.8754,-334.8937 50.0387,-337.1871"/>
<text text-anchor="middle" x="69.5" y="-360" font-family="Helvetica,sans-Serif" font-size="10.00" fill="#000000"> +elements</text>
</g>
<!-- Node4 -->
<g id="node4" class="node">
<title>Node4</title>
<polygon fill="#ffffff" stroke="#bfbfbf" points="42,-546.5 42,-603.5 134,-603.5 134,-546.5 42,-546.5"/>
<text text-anchor="middle" x="88" y="-591.5" font-family="Helvetica,sans-Serif" font-size="10.00" fill="#000000">anonymous:+@3</text>
<polyline fill="none" stroke="#bfbfbf" points="42,-584.5 134,-584.5 "/>
<text text-anchor="middle" x="88" y="-572.5" font-family="Helvetica,sans-Serif" font-size="10.00" fill="#000000"> </text>
<polyline fill="none" stroke="#bfbfbf" points="42,-565.5 134,-565.5 "/>
<text text-anchor="middle" x="88" y="-553.5" font-family="Helvetica,sans-Serif" font-size="10.00" fill="#000000"> </text>
</g>
<!-- Node4&#45;&gt;Node3 -->
<g id="edge3" class="edge">
<title>Node4&#45;&gt;Node3</title>
<path fill="none" stroke="#404040" d="M88,-546.2495C88,-532.6028 88,-515.791 88,-499.7042"/>
<polygon fill="none" stroke="#404040" points="88.0001,-499.6084 84,-493.6084 88,-487.6084 92,-493.6083 88.0001,-499.6084"/>
<text text-anchor="middle" x="100.5" y="-514.5" font-family="Helvetica,sans-Serif" font-size="10.00" fill="#000000"> +@3</text>
</g>
<!-- Node5 -->
<g id="node5" class="node">
<title>Node5</title>
<g id="a_node5"><a xlink:href="classint.html" target="_top" xlink:title="{int\n||}">
<polygon fill="#ffffff" stroke="#000000" points="218.5,-546.5 218.5,-603.5 247.5,-603.5 247.5,-546.5 218.5,-546.5"/>
<text text-anchor="middle" x="233" y="-591.5" font-family="Helvetica,sans-Serif" font-size="10.00" fill="#000000">int</text>
<polyline fill="none" stroke="#000000" points="218.5,-584.5 247.5,-584.5 "/>
<text text-anchor="middle" x="233" y="-572.5" font-family="Helvetica,sans-Serif" font-size="10.00" fill="#000000"> </text>
<polyline fill="none" stroke="#000000" points="218.5,-565.5 247.5,-565.5 "/>
<text text-anchor="middle" x="233" y="-553.5" font-family="Helvetica,sans-Serif" font-size="10.00" fill="#000000"> </text>
</a>
</g>
</g>
<!-- Node5&#45;&gt;Node3 -->
<g id="edge4" class="edge">
<title>Node5&#45;&gt;Node3</title>
<path fill="none" stroke="#404040" d="M218.2987,-561.566C201.4246,-546.1466 172.6967,-519.8953 146.5029,-495.9595"/>
<polygon fill="none" stroke="#404040" points="146.2256,-495.7062 139.098,-494.6116 137.3671,-487.6113 144.4946,-488.7059 146.2256,-495.7062"/>
<text text-anchor="middle" x="207.5" y="-520" font-family="Helvetica,sans-Serif" font-size="10.00" fill="#000000"> +material_id</text>
<text text-anchor="middle" x="207.5" y="-509" font-family="Helvetica,sans-Serif" font-size="10.00" fill="#000000">+boundary_id</text>
</g>
<!-- Node14 -->
<g id="node14" class="node">
<title>Node14</title>
<polygon fill="#ffffff" stroke="#bfbfbf" points="238,-259.5 238,-316.5 330,-316.5 330,-259.5 238,-259.5"/>
<text text-anchor="middle" x="284" y="-304.5" font-family="Helvetica,sans-Serif" font-size="10.00" fill="#000000">std::vector&lt; int &gt;</text>
<polyline fill="none" stroke="#bfbfbf" points="238,-297.5 330,-297.5 "/>
<text text-anchor="middle" x="284" y="-285.5" font-family="Helvetica,sans-Serif" font-size="10.00" fill="#000000"> </text>
<polyline fill="none" stroke="#bfbfbf" points="238,-278.5 330,-278.5 "/>
<text text-anchor="middle" x="284" y="-266.5" font-family="Helvetica,sans-Serif" font-size="10.00" fill="#000000"> </text>
</g>
<!-- Node5&#45;&gt;Node14 -->
<g id="edge15" class="edge">
<title>Node5&#45;&gt;Node14</title>
<path fill="none" stroke="#404040" d="M237.9136,-546.315C243.9607,-511.1234 254.5857,-449.6472 264,-397 268.0386,-374.4151 272.6544,-349.2195 276.4334,-328.746"/>
<polygon fill="none" stroke="#404040" points="276.4836,-328.4742 273.6413,-321.8469 278.6656,-316.6742 281.5079,-323.3015 276.4836,-328.4742"/>
<text text-anchor="middle" x="288.5" y="-440" font-family="Helvetica,sans-Serif" font-size="10.00" fill="#000000"> +elements</text>
</g>
<!-- Node6 -->
<g id="node6" class="node">
<title>Node6</title>
<g id="a_node6"><a xlink:title="STL class. ">
<polygon fill="#ffffff" stroke="#bfbfbf" points="438.5,-414 438.5,-471 525.5,-471 525.5,-414 438.5,-414"/>
<text text-anchor="middle" x="482" y="-459" font-family="Helvetica,sans-Serif" font-size="10.00" fill="#000000">std::vector&lt; T &gt;</text>
<polyline fill="none" stroke="#bfbfbf" points="438.5,-452 525.5,-452 "/>
<text text-anchor="middle" x="482" y="-440" font-family="Helvetica,sans-Serif" font-size="10.00" fill="#000000"> </text>
<polyline fill="none" stroke="#bfbfbf" points="438.5,-433 525.5,-433 "/>
<text text-anchor="middle" x="482" y="-421" font-family="Helvetica,sans-Serif" font-size="10.00" fill="#000000"> </text>
</a>
</g>
</g>
<!-- Node6&#45;&gt;Node2 -->
<g id="edge5" class="edge">
<title>Node6&#45;&gt;Node2</title>
<path fill="none" stroke="#ffa500" d="M430.1818,-409.0608C420.7798,-404.2675 410.8301,-399.9642 401,-397 349.1577,-381.3674 202.5009,-409.8491 158,-379 140.8399,-367.1042 130.5388,-346.3656 124.437,-327.6881"/>
<polygon fill="#ffa500" stroke="#ffa500" points="428.5376,-412.1505 439.0066,-413.7787 431.838,-405.9773 428.5376,-412.1505"/>
<text text-anchor="start" x="158" y="-371" font-family="Helvetica,sans-Serif" font-size="10.00" fill="#000000"> &lt; internal::Triangulation</text>
<text text-anchor="start" x="158" y="-360" font-family="Helvetica,sans-Serif" font-size="10.00" fill="#000000">Implementation::TriaObjects</text>
<text text-anchor="middle" x="220" y="-349" font-family="Helvetica,sans-Serif" font-size="10.00" fill="#000000">::BoundaryOrMaterialId &gt;</text>
</g>
<!-- Node8 -->
<g id="node8" class="node">
<title>Node8</title>
<polygon fill="#ffffff" stroke="#bfbfbf" points="477.5,-248.5 477.5,-327.5 622.5,-327.5 622.5,-248.5 477.5,-248.5"/>
<text text-anchor="start" x="485.5" y="-315.5" font-family="Helvetica,sans-Serif" font-size="10.00" fill="#000000">std::vector&lt; internal</text>
<text text-anchor="start" x="485.5" y="-304.5" font-family="Helvetica,sans-Serif" font-size="10.00" fill="#000000">::TriangulationImplementation</text>
<text text-anchor="middle" x="550" y="-293.5" font-family="Helvetica,sans-Serif" font-size="10.00" fill="#000000">::TriaObjects::UserData &gt;</text>
<polyline fill="none" stroke="#bfbfbf" points="477.5,-286.5 622.5,-286.5 "/>
<text text-anchor="middle" x="550" y="-274.5" font-family="Helvetica,sans-Serif" font-size="10.00" fill="#000000"> </text>
<polyline fill="none" stroke="#bfbfbf" points="477.5,-267.5 622.5,-267.5 "/>
<text text-anchor="middle" x="550" y="-255.5" font-family="Helvetica,sans-Serif" font-size="10.00" fill="#000000"> </text>
</g>
<!-- Node6&#45;&gt;Node8 -->
<g id="edge12" class="edge">
<title>Node6&#45;&gt;Node8</title>
<path fill="none" stroke="#ffa500" d="M491.8242,-404.2636C497.0848,-386.1818 504.2851,-364.5434 513,-346 515.8449,-339.9466 519.2157,-333.7662 522.7461,-327.804"/>
<polygon fill="#ffa500" stroke="#ffa500" points="488.4521,-403.3262 489.1039,-413.9009 495.1889,-405.2278 488.4521,-403.3262"/>
<text text-anchor="start" x="513" y="-371" font-family="Helvetica,sans-Serif" font-size="10.00" fill="#000000"> &lt; internal::Triangulation</text>
<text text-anchor="start" x="513" y="-360" font-family="Helvetica,sans-Serif" font-size="10.00" fill="#000000">Implementation::TriaObjects</text>
<text text-anchor="middle" x="575" y="-349" font-family="Helvetica,sans-Serif" font-size="10.00" fill="#000000">::UserData &gt;</text>
</g>
<!-- Node6&#45;&gt;Node14 -->
<g id="edge16" class="edge">
<title>Node6&#45;&gt;Node14</title>
<path fill="none" stroke="#ffa500" d="M429.2659,-409.6258C420.083,-404.8549 410.443,-400.412 401,-397 359.3512,-381.9513 334.69,-409.9327 303,-379 286.5999,-362.9918 282.5478,-336.744 282.191,-316.5415"/>
<polygon fill="#ffa500" stroke="#ffa500" points="427.8087,-412.8164 438.2721,-414.4799 431.1298,-406.6544 427.8087,-412.8164"/>
<text text-anchor="middle" x="319" y="-360" font-family="Helvetica,sans-Serif" font-size="10.00" fill="#000000"> &lt; int &gt;</text>
</g>
<!-- Node16 -->
<g id="node16" class="node">
<title>Node16</title>
<polygon fill="#ffffff" stroke="#bfbfbf" points="887.5,-259.5 887.5,-316.5 986.5,-316.5 986.5,-259.5 887.5,-259.5"/>
<text text-anchor="middle" x="937" y="-304.5" font-family="Helvetica,sans-Serif" font-size="10.00" fill="#000000">std::vector&lt; bool &gt;</text>
<polyline fill="none" stroke="#bfbfbf" points="887.5,-297.5 986.5,-297.5 "/>
<text text-anchor="middle" x="937" y="-285.5" font-family="Helvetica,sans-Serif" font-size="10.00" fill="#000000"> </text>
<polyline fill="none" stroke="#bfbfbf" points="887.5,-278.5 986.5,-278.5 "/>
<text text-anchor="middle" x="937" y="-266.5" font-family="Helvetica,sans-Serif" font-size="10.00" fill="#000000"> </text>
</g>
<!-- Node6&#45;&gt;Node16 -->
<g id="edge20" class="edge">
<title>Node6&#45;&gt;Node16</title>
<path fill="none" stroke="#ffa500" d="M534.7549,-413.6509C549.0489,-407.0565 564.7865,-400.8593 580,-397 642.3711,-381.1779 812.3962,-409.6023 869,-379 894.1561,-365.3996 912.6306,-338.0116 923.9219,-316.818"/>
<polygon fill="#ffa500" stroke="#ffa500" points="533.11,-410.5577 525.5903,-418.0213 536.123,-416.8761 533.11,-410.5577"/>
<text text-anchor="middle" x="925" y="-360" font-family="Helvetica,sans-Serif" font-size="10.00" fill="#000000"> &lt; bool &gt;</text>
</g>
<!-- Node17 -->
<g id="node17" class="node">
<title>Node17</title>
<polygon fill="#ffffff" stroke="#bfbfbf" points="348.5,-254 348.5,-322 459.5,-322 459.5,-254 348.5,-254"/>
<text text-anchor="start" x="356.5" y="-310" font-family="Helvetica,sans-Serif" font-size="10.00" fill="#000000">std::vector&lt; unsigned</text>
<text text-anchor="middle" x="404" y="-299" font-family="Helvetica,sans-Serif" font-size="10.00" fill="#000000"> int &gt;</text>
<polyline fill="none" stroke="#bfbfbf" points="348.5,-292 459.5,-292 "/>
<text text-anchor="middle" x="404" y="-280" font-family="Helvetica,sans-Serif" font-size="10.00" fill="#000000"> </text>
<polyline fill="none" stroke="#bfbfbf" points="348.5,-273 459.5,-273 "/>
<text text-anchor="middle" x="404" y="-261" font-family="Helvetica,sans-Serif" font-size="10.00" fill="#000000"> </text>
</g>
<!-- Node6&#45;&gt;Node17 -->
<g id="edge23" class="edge">
<title>Node6&#45;&gt;Node17</title>
<path fill="none" stroke="#ffa500" d="M441.5525,-406.5391C434.0835,-398.1637 427.0567,-388.8045 422,-379 412.9938,-361.538 408.4837,-340.0522 406.2296,-322.3438"/>
<polygon fill="#ffa500" stroke="#ffa500" points="439.0987,-409.039 448.4924,-413.9388 444.2045,-404.2504 439.0987,-409.039"/>
<text text-anchor="middle" x="459" y="-360" font-family="Helvetica,sans-Serif" font-size="10.00" fill="#000000"> &lt; unsigned int &gt;</text>
</g>
<!-- Node19 -->
<g id="node19" class="node">
<title>Node19</title>
<polygon fill="#ffffff" stroke="#bfbfbf" points="641,-259.5 641,-316.5 771,-316.5 771,-259.5 641,-259.5"/>
<text text-anchor="middle" x="706" y="-304.5" font-family="Helvetica,sans-Serif" font-size="10.00" fill="#000000">std::vector&lt; std::uint8_t &gt;</text>
<polyline fill="none" stroke="#bfbfbf" points="641,-297.5 771,-297.5 "/>
<text text-anchor="middle" x="706" y="-285.5" font-family="Helvetica,sans-Serif" font-size="10.00" fill="#000000"> </text>
<polyline fill="none" stroke="#bfbfbf" points="641,-278.5 771,-278.5 "/>
<text text-anchor="middle" x="706" y="-266.5" font-family="Helvetica,sans-Serif" font-size="10.00" fill="#000000"> </text>
</g>
<!-- Node6&#45;&gt;Node19 -->
<g id="edge27" class="edge">
<title>Node6&#45;&gt;Node19</title>
<path fill="none" stroke="#ffa500" d="M534.9705,-414.4373C549.2624,-407.8353 564.9451,-401.4378 580,-397 607.7633,-388.8161 690,-400.8352 709,-379 723.5269,-362.3054 721.2678,-336.6549 716.2378,-316.837"/>
<polygon fill="#ffa500" stroke="#ffa500" points="533.3354,-411.339 525.8001,-418.7868 536.3353,-417.6637 533.3354,-411.339"/>
<text text-anchor="middle" x="754" y="-360" font-family="Helvetica,sans-Serif" font-size="10.00" fill="#000000"> &lt; std::uint8_t &gt;</text>
</g>
<!-- Node7 -->
<g id="node7" class="node">
<title>Node7</title>
<polygon fill="#ffffff" stroke="#bfbfbf" points="467.5,-546.5 467.5,-603.5 496.5,-603.5 496.5,-546.5 467.5,-546.5"/>
<text text-anchor="middle" x="482" y="-591.5" font-family="Helvetica,sans-Serif" font-size="10.00" fill="#000000">T</text>
<polyline fill="none" stroke="#bfbfbf" points="467.5,-584.5 496.5,-584.5 "/>
<text text-anchor="middle" x="482" y="-572.5" font-family="Helvetica,sans-Serif" font-size="10.00" fill="#000000"> </text>
<polyline fill="none" stroke="#bfbfbf" points="467.5,-565.5 496.5,-565.5 "/>
<text text-anchor="middle" x="482" y="-553.5" font-family="Helvetica,sans-Serif" font-size="10.00" fill="#000000"> </text>
</g>
<!-- Node7&#45;&gt;Node6 -->
<g id="edge6" class="edge">
<title>Node7&#45;&gt;Node6</title>
<path fill="none" stroke="#404040" d="M482,-546.2495C482,-527.8447 482,-503.6825 482,-483.3067"/>
<polygon fill="none" stroke="#404040" points="482.0001,-483.1944 478,-477.1945 482,-471.1944 486,-477.1944 482.0001,-483.1944"/>
<text text-anchor="middle" x="506.5" y="-514.5" font-family="Helvetica,sans-Serif" font-size="10.00" fill="#000000"> +elements</text>
</g>
<!-- Node8&#45;&gt;Node1 -->
<g id="edge7" class="edge">
<title>Node8&#45;&gt;Node1</title>
<path fill="none" stroke="#404040" d="M581.9454,-248.4778C593.6033,-234.055 607.3996,-216.9864 621.4812,-199.5649"/>
<polygon fill="none" stroke="#404040" points="621.7785,-199.1971 622.4394,-192.0163 629.3219,-189.8645 628.6611,-197.0453 621.7785,-199.1971"/>
<text text-anchor="middle" x="640" y="-216.5" font-family="Helvetica,sans-Serif" font-size="10.00" fill="#000000"> +user_data</text>
</g>
<!-- Node9 -->
<g id="node9" class="node">
<title>Node9</title>
<g id="a_node9"><a xlink:href="structinternal_1_1TriangulationImplementation_1_1TriaObjects_1_1UserData.html" target="_top" xlink:title="{internal::TriangulationImplementation\l::TriaObjects::UserData\n||+ UserData()\l+ serialize()\l}">
<polygon fill="#ffffff" stroke="#000000" points="589,-403 589,-482 765,-482 765,-403 589,-403"/>
<text text-anchor="start" x="597" y="-470" font-family="Helvetica,sans-Serif" font-size="10.00" fill="#000000">internal::TriangulationImplementation</text>
<text text-anchor="middle" x="677" y="-459" font-family="Helvetica,sans-Serif" font-size="10.00" fill="#000000">::TriaObjects::UserData</text>
<polyline fill="none" stroke="#000000" points="589,-452 765,-452 "/>
<text text-anchor="middle" x="677" y="-440" font-family="Helvetica,sans-Serif" font-size="10.00" fill="#000000"> </text>
<polyline fill="none" stroke="#000000" points="589,-433 765,-433 "/>
<text text-anchor="start" x="597" y="-421" font-family="Helvetica,sans-Serif" font-size="10.00" fill="#000000">+ UserData()</text>
<text text-anchor="start" x="597" y="-410" font-family="Helvetica,sans-Serif" font-size="10.00" fill="#000000">+ serialize()</text>
</a>
</g>
</g>
<!-- Node9&#45;&gt;Node8 -->
<g id="edge8" class="edge">
<title>Node9&#45;&gt;Node8</title>
<path fill="none" stroke="#404040" d="M666.3432,-402.5448C659.9845,-383.9591 650.4717,-362.3936 637,-346 634.1223,-342.4981 630.9783,-339.1276 627.6474,-335.8962"/>
<polygon fill="none" stroke="#404040" points="627.3944,-335.67 620.2553,-334.6533 618.448,-327.6724 625.5871,-328.6891 627.3944,-335.67"/>
<text text-anchor="middle" x="680.5" y="-360" font-family="Helvetica,sans-Serif" font-size="10.00" fill="#000000"> +elements</text>
</g>
<!-- Node10 -->
<g id="node10" class="node">
<title>Node10</title>
<polygon fill="#ffffff" stroke="#bfbfbf" points="618.5,-546.5 618.5,-603.5 653.5,-603.5 653.5,-546.5 618.5,-546.5"/>
<text text-anchor="middle" x="636" y="-591.5" font-family="Helvetica,sans-Serif" font-size="10.00" fill="#000000">void</text>
<polyline fill="none" stroke="#bfbfbf" points="618.5,-584.5 653.5,-584.5 "/>
<text text-anchor="middle" x="636" y="-572.5" font-family="Helvetica,sans-Serif" font-size="10.00" fill="#000000"> </text>
<polyline fill="none" stroke="#bfbfbf" points="618.5,-565.5 653.5,-565.5 "/>
<text text-anchor="middle" x="636" y="-553.5" font-family="Helvetica,sans-Serif" font-size="10.00" fill="#000000"> </text>
</g>
<!-- Node10&#45;&gt;Node9 -->
<g id="edge9" class="edge">
<title>Node10&#45;&gt;Node9</title>
<path fill="none" stroke="#404040" d="M644.8964,-546.2495C649.6684,-530.8279 655.6911,-511.3641 661.2273,-493.4726"/>
<polygon fill="none" stroke="#404040" points="661.2298,-493.4644 659.1823,-486.5501 664.7772,-482.0006 666.8247,-488.9149 661.2298,-493.4644"/>
<text text-anchor="middle" x="663.5" y="-514.5" font-family="Helvetica,sans-Serif" font-size="10.00" fill="#000000"> +p</text>
</g>
<!-- Node11 -->
<g id="node11" class="node">
<title>Node11</title>
<polygon fill="#ffffff" stroke="#bfbfbf" points="672,-546.5 672,-603.5 764,-603.5 764,-546.5 672,-546.5"/>
<text text-anchor="middle" x="718" y="-591.5" font-family="Helvetica,sans-Serif" font-size="10.00" fill="#000000">anonymous:+@5</text>
<polyline fill="none" stroke="#bfbfbf" points="672,-584.5 764,-584.5 "/>
<text text-anchor="middle" x="718" y="-572.5" font-family="Helvetica,sans-Serif" font-size="10.00" fill="#000000"> </text>
<polyline fill="none" stroke="#bfbfbf" points="672,-565.5 764,-565.5 "/>
<text text-anchor="middle" x="718" y="-553.5" font-family="Helvetica,sans-Serif" font-size="10.00" fill="#000000"> </text>
</g>
<!-- Node11&#45;&gt;Node9 -->
<g id="edge10" class="edge">
<title>Node11&#45;&gt;Node9</title>
<path fill="none" stroke="#404040" d="M709.1036,-546.2495C704.3316,-530.8279 698.3089,-511.3641 692.7727,-493.4726"/>
<polygon fill="none" stroke="#404040" points="692.7702,-493.4644 687.1753,-488.9149 689.2228,-482.0006 694.8177,-486.5501 692.7702,-493.4644"/>
<text text-anchor="middle" x="714.5" y="-514.5" font-family="Helvetica,sans-Serif" font-size="10.00" fill="#000000"> +@5</text>
</g>
<!-- Node12 -->
<g id="node12" class="node">
<title>Node12</title>
<polygon fill="#ffffff" stroke="#bfbfbf" points="1040,-546.5 1040,-603.5 1096,-603.5 1096,-546.5 1040,-546.5"/>
<text text-anchor="middle" x="1068" y="-591.5" font-family="Helvetica,sans-Serif" font-size="10.00" fill="#000000">unsigned</text>
<polyline fill="none" stroke="#bfbfbf" points="1040,-584.5 1096,-584.5 "/>
<text text-anchor="middle" x="1068" y="-572.5" font-family="Helvetica,sans-Serif" font-size="10.00" fill="#000000"> </text>
<polyline fill="none" stroke="#bfbfbf" points="1040,-565.5 1096,-565.5 "/>
<text text-anchor="middle" x="1068" y="-553.5" font-family="Helvetica,sans-Serif" font-size="10.00" fill="#000000"> </text>
</g>
<!-- Node12&#45;&gt;Node1 -->
<g id="edge24" class="edge">
<title>Node12&#45;&gt;Node1</title>
<path fill="none" stroke="#404040" d="M1084.0689,-546.1541C1115.6624,-485.1537 1177.4287,-341.0508 1113,-248 1077.084,-196.1284 914.5417,-146.7639 806.0516,-118.7485"/>
<polygon fill="none" stroke="#404040" points="806.042,-118.7461 799.2378,-121.1343 794.4163,-115.772 801.2205,-113.3839 806.042,-118.7461"/>
<text text-anchor="middle" x="1181.5" y="-371" font-family="Helvetica,sans-Serif" font-size="10.00" fill="#000000"> +next_free_single</text>
<text text-anchor="middle" x="1181.5" y="-360" font-family="Helvetica,sans-Serif" font-size="10.00" fill="#000000">+structdim</text>
<text text-anchor="middle" x="1181.5" y="-349" font-family="Helvetica,sans-Serif" font-size="10.00" fill="#000000">+next_free_pair</text>
</g>
<!-- Node12&#45;&gt;Node9 -->
<g id="edge11" class="edge">
<title>Node12&#45;&gt;Node9</title>
<path fill="none" stroke="#404040" d="M1039.9668,-566.8847C989.8471,-552.2158 881.7227,-519.8448 792,-488 786.9698,-486.2147 781.8322,-484.347 776.6553,-482.4299"/>
<polygon fill="none" stroke="#404040" points="776.5222,-482.38 769.4997,-484.0186 765.2862,-478.1666 772.3087,-476.528 776.5222,-482.38"/>
<text text-anchor="middle" x="911" y="-514.5" font-family="Helvetica,sans-Serif" font-size="10.00" fill="#000000"> +i</text>
</g>
<!-- Node13 -->
<g id="node13" class="node">
<title>Node13</title>
<g id="a_node13"><a xlink:href="classbool.html" target="_top" xlink:title="{bool\n||}">
<polygon fill="#ffffff" stroke="#000000" points="973.5,-414 973.5,-471 1008.5,-471 1008.5,-414 973.5,-414"/>
<text text-anchor="middle" x="991" y="-459" font-family="Helvetica,sans-Serif" font-size="10.00" fill="#000000">bool</text>
<polyline fill="none" stroke="#000000" points="973.5,-452 1008.5,-452 "/>
<text text-anchor="middle" x="991" y="-440" font-family="Helvetica,sans-Serif" font-size="10.00" fill="#000000"> </text>
<polyline fill="none" stroke="#000000" points="973.5,-433 1008.5,-433 "/>
<text text-anchor="middle" x="991" y="-421" font-family="Helvetica,sans-Serif" font-size="10.00" fill="#000000"> </text>
</a>
</g>
</g>
<!-- Node13&#45;&gt;Node1 -->
<g id="edge13" class="edge">
<title>Node13&#45;&gt;Node1</title>
<path fill="none" stroke="#404040" d="M1000.9576,-413.7771C1004.2065,-403.0088 1007.3909,-390.5765 1009,-379 1019.8192,-301.1608 1026.3507,-255.8372 964,-208 916.7502,-171.7486 856.0651,-144.4146 805.422,-125.718"/>
<polygon fill="none" stroke="#404040" points="805.3973,-125.7091 798.3939,-127.4277 794.114,-121.624 801.1173,-119.9055 805.3973,-125.7091"/>
<text text-anchor="start" x="1016" y="-291" font-family="Helvetica,sans-Serif" font-size="10.00" fill="#000000"> +reverse_order_next</text>
<text text-anchor="middle" x="1062.5" y="-280" font-family="Helvetica,sans-Serif" font-size="10.00" fill="#000000">_free_single</text>
</g>
<!-- Node13&#45;&gt;Node16 -->
<g id="edge19" class="edge">
<title>Node13&#45;&gt;Node16</title>
<path fill="none" stroke="#404040" d="M975.5114,-413.9664C970.0958,-403.2186 964.3008,-390.7509 960,-379 954.1222,-362.9406 949.1983,-344.7552 945.434,-328.8858"/>
<polygon fill="none" stroke="#404040" points="945.3327,-328.4405 940.1001,-323.4787 942.6677,-316.7402 947.9003,-321.702 945.3327,-328.4405"/>
<text text-anchor="middle" x="984.5" y="-360" font-family="Helvetica,sans-Serif" font-size="10.00" fill="#000000"> +elements</text>
</g>
<!-- Node14&#45;&gt;Node1 -->
<g id="edge14" class="edge">
<title>Node14&#45;&gt;Node1</title>
<path fill="none" stroke="#404040" d="M321.5066,-259.4873C327.547,-255.4029 333.8414,-251.4295 340,-248 426.4201,-199.8753 531.0749,-157.591 606.3011,-129.7418"/>
<polygon fill="none" stroke="#404040" points="606.385,-129.711 610.6351,-123.8855 617.6472,-125.5682 613.397,-131.3937 606.385,-129.711"/>
<text text-anchor="middle" x="437" y="-222" font-family="Helvetica,sans-Serif" font-size="10.00" fill="#000000"> +cells</text>
<text text-anchor="middle" x="437" y="-211" font-family="Helvetica,sans-Serif" font-size="10.00" fill="#000000">+children</text>
</g>
<!-- Node15 -->
<g id="node15" class="node">
<title>Node15</title>
<polygon fill="#ffffff" stroke="#bfbfbf" points="789,-259.5 789,-316.5 869,-316.5 869,-259.5 789,-259.5"/>
<text text-anchor="middle" x="829" y="-304.5" font-family="Helvetica,sans-Serif" font-size="10.00" fill="#000000">UserDataType</text>
<polyline fill="none" stroke="#bfbfbf" points="789,-297.5 869,-297.5 "/>
<text text-anchor="middle" x="829" y="-285.5" font-family="Helvetica,sans-Serif" font-size="10.00" fill="#000000"> </text>
<polyline fill="none" stroke="#bfbfbf" points="789,-278.5 869,-278.5 "/>
<text text-anchor="middle" x="829" y="-266.5" font-family="Helvetica,sans-Serif" font-size="10.00" fill="#000000"> </text>
</g>
<!-- Node15&#45;&gt;Node1 -->
<g id="edge17" class="edge">
<title>Node15&#45;&gt;Node1</title>
<path fill="none" stroke="#404040" d="M819.8537,-259.2734C814.2911,-243.5922 806.4404,-224.1404 797,-208 795.4422,-205.3365 793.825,-202.6692 792.1579,-200.0045"/>
<polygon fill="none" stroke="#404040" points="792.0358,-199.8165 785.4129,-196.9639 785.4989,-189.7532 792.1218,-192.6059 792.0358,-199.8165"/>
<text text-anchor="middle" x="845" y="-216.5" font-family="Helvetica,sans-Serif" font-size="10.00" fill="#000000"> +user_data_type</text>
</g>
<!-- Node16&#45;&gt;Node1 -->
<g id="edge18" class="edge">
<title>Node16&#45;&gt;Node1</title>
<path fill="none" stroke="#404040" d="M923.3262,-259.4965C914.5229,-243.1332 901.9436,-222.9362 887,-208 863.0813,-184.0932 833.205,-162.8673 804.6615,-145.4503"/>
<polygon fill="none" stroke="#404040" points="804.5192,-145.3653 797.3168,-145.7199 794.2193,-139.208 801.4217,-138.8533 804.5192,-145.3653"/>
<text text-anchor="middle" x="932.5" y="-222" font-family="Helvetica,sans-Serif" font-size="10.00" fill="#000000"> +user_flags</text>
<text text-anchor="middle" x="932.5" y="-211" font-family="Helvetica,sans-Serif" font-size="10.00" fill="#000000">+used</text>
</g>
<!-- Node17&#45;&gt;Node1 -->
<g id="edge21" class="edge">
<title>Node17&#45;&gt;Node1</title>
<path fill="none" stroke="#404040" d="M457.2964,-253.9397C498.802,-227.4146 557.5672,-189.8594 607.5538,-157.9143"/>
<polygon fill="none" stroke="#404040" points="607.64,-157.8592 610.5417,-151.2577 617.7515,-151.3972 614.8498,-157.9987 607.64,-157.8592"/>
<text text-anchor="middle" x="556.5" y="-216.5" font-family="Helvetica,sans-Serif" font-size="10.00" fill="#000000"> +manifold_id</text>
</g>
<!-- Node18 -->
<g id="node18" class="node">
<title>Node18</title>
<g id="a_node18"><a xlink:href="classunsigned_01int.html" target="_top" xlink:title="{unsigned int\n||}">
<polygon fill="#ffffff" stroke="#000000" points="322.5,-414 322.5,-471 391.5,-471 391.5,-414 322.5,-414"/>
<text text-anchor="middle" x="357" y="-459" font-family="Helvetica,sans-Serif" font-size="10.00" fill="#000000">unsigned int</text>
<polyline fill="none" stroke="#000000" points="322.5,-452 391.5,-452 "/>
<text text-anchor="middle" x="357" y="-440" font-family="Helvetica,sans-Serif" font-size="10.00" fill="#000000"> </text>
<polyline fill="none" stroke="#000000" points="322.5,-433 391.5,-433 "/>
<text text-anchor="middle" x="357" y="-421" font-family="Helvetica,sans-Serif" font-size="10.00" fill="#000000"> </text>
</a>
</g>
</g>
<!-- Node18&#45;&gt;Node17 -->
<g id="edge22" class="edge">
<title>Node18&#45;&gt;Node17</title>
<path fill="none" stroke="#404040" d="M345.4537,-413.5817C339.3796,-393.8404 334.8902,-367.4764 344,-346 346.126,-340.988 348.9207,-336.1976 352.1419,-331.6719"/>
<polygon fill="none" stroke="#404040" points="352.246,-331.5428 352.9005,-324.3615 359.7812,-322.2035 359.1267,-329.3849 352.246,-331.5428"/>
<text text-anchor="middle" x="368.5" y="-360" font-family="Helvetica,sans-Serif" font-size="10.00" fill="#000000"> +elements</text>
</g>
<!-- Node19&#45;&gt;Node1 -->
<g id="edge25" class="edge">
<title>Node19&#45;&gt;Node1</title>
<path fill="none" stroke="#404040" d="M706,-259.1059C706,-243.4741 706,-223.0858 706,-202.0208"/>
<polygon fill="none" stroke="#404040" points="706.0001,-201.9241 702,-195.9242 706,-189.9241 710,-195.9241 706.0001,-201.9241"/>
<text text-anchor="middle" x="749.5" y="-216.5" font-family="Helvetica,sans-Serif" font-size="10.00" fill="#000000"> +refinement_cases</text>
</g>
<!-- Node20 -->
<g id="node20" class="node">
<title>Node20</title>
<polygon fill="#ffffff" stroke="#bfbfbf" points="801,-414 801,-471 847,-471 847,-414 801,-414"/>
<text text-anchor="middle" x="824" y="-459" font-family="Helvetica,sans-Serif" font-size="10.00" fill="#000000">uint8_t</text>
<polyline fill="none" stroke="#bfbfbf" points="801,-452 847,-452 "/>
<text text-anchor="middle" x="824" y="-440" font-family="Helvetica,sans-Serif" font-size="10.00" fill="#000000"> </text>
<polyline fill="none" stroke="#bfbfbf" points="801,-433 847,-433 "/>
<text text-anchor="middle" x="824" y="-421" font-family="Helvetica,sans-Serif" font-size="10.00" fill="#000000"> </text>
</g>
<!-- Node20&#45;&gt;Node19 -->
<g id="edge26" class="edge">
<title>Node20&#45;&gt;Node19</title>
<path fill="none" stroke="#404040" d="M823.2994,-413.9002C821.4969,-393.3051 816.2911,-365.7773 802,-346 799.2375,-342.1769 784.8144,-332.9395 767.9531,-322.9338"/>
<polygon fill="none" stroke="#404040" points="767.5755,-322.7126 760.3765,-323.1305 757.2218,-316.646 764.4208,-316.2281 767.5755,-322.7126"/>
<text text-anchor="middle" x="840.5" y="-360" font-family="Helvetica,sans-Serif" font-size="10.00" fill="#000000"> +elements</text>
</g>
</g>
</svg>
