<?xml version="1.0" encoding="UTF-8" standalone="no"?>
<!DOCTYPE svg PUBLIC "-//W3C//DTD SVG 1.1//EN"
 "http://www.w3.org/Graphics/SVG/1.1/DTD/svg11.dtd">
<!-- Generated by graphviz version 2.40.1 (20161225.0304)
 -->
<!-- Title: BlockSparsityPatternBase&lt; SparsityPatternType &gt; Pages: 1 -->
<svg width="802pt" height="124pt"
 viewBox="0.00 0.00 802.00 123.50" xmlns="http://www.w3.org/2000/svg" xmlns:xlink="http://www.w3.org/1999/xlink">
<g id="graph0" class="graph" transform="scale(1 1) rotate(0) translate(4 119.5)">
<title>BlockSparsityPatternBase&lt; SparsityPatternType &gt;</title>
<polygon fill="#ffffff" stroke="transparent" points="-4,4 -4,-119.5 798,-119.5 798,4 -4,4"/>
<!-- Node0 -->
<g id="node1" class="node">
<title>Node0</title>
<polygon fill="#bfbfbf" stroke="#000000" points="108,-24.5 108,-54.5 250,-54.5 250,-24.5 108,-24.5"/>
<text text-anchor="start" x="116" y="-42.5" font-family="Helvetica,sans-Serif" font-size="10.00" fill="#000000">BlockSparsityPatternBase</text>
<text text-anchor="middle" x="179" y="-31.5" font-family="Helvetica,sans-Serif" font-size="10.00" fill="#000000">&lt; SparsityPatternType &gt;</text>
</g>
<!-- Node2 -->
<g id="node3" class="node">
<title>Node2</title>
<g id="a_node3"><a xlink:href="classBlockSparsityPatternBase.html" target="_top" xlink:title="BlockSparsityPatternBase\l\&lt; SparsityPattern \&gt;">
<polygon fill="#ffffff" stroke="#000000" points="437.5,-49.5 437.5,-79.5 579.5,-79.5 579.5,-49.5 437.5,-49.5"/>
<text text-anchor="start" x="445.5" y="-67.5" font-family="Helvetica,sans-Serif" font-size="10.00" fill="#000000">BlockSparsityPatternBase</text>
<text text-anchor="middle" x="508.5" y="-56.5" font-family="Helvetica,sans-Serif" font-size="10.00" fill="#000000">&lt; SparsityPattern &gt;</text>
</a>
</g>
</g>
<!-- Node0&#45;&gt;Node2 -->
<g id="edge2" class="edge">
<title>Node0&#45;&gt;Node2</title>
<path fill="none" stroke="#ffa500" stroke-dasharray="5,2" d="M260.3652,-45.6734C314.6083,-49.7889 385.2285,-55.1471 437.2527,-59.0943"/>
<polygon fill="#ffa500" stroke="#ffa500" points="260.3271,-42.1605 250.0909,-44.8938 259.7974,-49.1405 260.3271,-42.1605"/>
<text text-anchor="middle" x="340" y="-60.5" font-family="Helvetica,sans-Serif" font-size="10.00" fill="#000000"> &lt; SparsityPattern &gt;</text>
</g>
<!-- Node5 -->
<g id="node6" class="node">
<title>Node5</title>
<g id="a_node6"><a xlink:href="classBlockSparsityPatternBase.html" target="_top" xlink:title="BlockSparsityPatternBase\l\&lt; DynamicSparsityPattern \&gt;">
<polygon fill="#ffffff" stroke="#000000" points="430,-.5 430,-30.5 587,-30.5 587,-.5 430,-.5"/>
<text text-anchor="start" x="438" y="-18.5" font-family="Helvetica,sans-Serif" font-size="10.00" fill="#000000">BlockSparsityPatternBase</text>
<text text-anchor="middle" x="508.5" y="-7.5" font-family="Helvetica,sans-Serif" font-size="10.00" fill="#000000">&lt; DynamicSparsityPattern &gt;</text>
</a>
</g>
</g>
<!-- Node0&#45;&gt;Node5 -->
<g id="edge5" class="edge">
<title>Node0&#45;&gt;Node5</title>
<path fill="none" stroke="#ffa500" stroke-dasharray="5,2" d="M260.3613,-28.2479C262.9356,-27.9821 265.4868,-27.7317 268,-27.5 321.9094,-22.5296 382.8201,-19.5171 429.8536,-17.7536"/>
<polygon fill="#ffa500" stroke="#ffa500" points="259.9088,-24.7764 250.3483,-29.3423 260.6694,-31.735 259.9088,-24.7764"/>
<text text-anchor="middle" x="340" y="-30.5" font-family="Helvetica,sans-Serif" font-size="10.00" fill="#000000"> &lt; DynamicSparsityPattern &gt;</text>
</g>
<!-- Node1 -->
<g id="node2" class="node">
<title>Node1</title>
<g id="a_node2"><a xlink:href="classSubscriptor.html" target="_top" xlink:title="Subscriptor">
<polygon fill="#ffffff" stroke="#000000" points="0,-30 0,-49 71,-49 71,-30 0,-30"/>
<text text-anchor="middle" x="35.5" y="-37" font-family="Helvetica,sans-Serif" font-size="10.00" fill="#000000">Subscriptor</text>
</a>
</g>
</g>
<!-- Node1&#45;&gt;Node0 -->
<g id="edge1" class="edge">
<title>Node1&#45;&gt;Node0</title>
<path fill="none" stroke="#191970" d="M81.6173,-39.5C89.9891,-39.5 98.8969,-39.5 107.7936,-39.5"/>
<polygon fill="#191970" stroke="#191970" points="81.341,-36.0001 71.3409,-39.5 81.3409,-43.0001 81.341,-36.0001"/>
</g>
<!-- Node3 -->
<g id="node4" class="node">
<title>Node3</title>
<g id="a_node4"><a xlink:href="classBlockSparsityPattern.html" target="_top" xlink:title="BlockSparsityPattern">
<polygon fill="#ffffff" stroke="#000000" points="650,-96 650,-115 768,-115 768,-96 650,-96"/>
<text text-anchor="middle" x="709" y="-103" font-family="Helvetica,sans-Serif" font-size="10.00" fill="#000000">BlockSparsityPattern</text>
</a>
</g>
</g>
<!-- Node2&#45;&gt;Node3 -->
<g id="edge3" class="edge">
<title>Node2&#45;&gt;Node3</title>
<path fill="none" stroke="#191970" d="M589.8538,-81.1359C614.5489,-86.1858 640.8313,-91.5603 662.4105,-95.973"/>
<polygon fill="#191970" stroke="#191970" points="590.2518,-77.645 579.7533,-79.0705 588.8494,-84.5031 590.2518,-77.645"/>
</g>
<!-- Node4 -->
<g id="node5" class="node">
<title>Node4</title>
<g id="a_node5"><a xlink:href="classTrilinosWrappers_1_1BlockSparsityPattern.html" target="_top" xlink:title="TrilinosWrappers::BlockSparsity\lPattern">
<polygon fill="#ffffff" stroke="#000000" points="624,-46.5 624,-76.5 794,-76.5 794,-46.5 624,-46.5"/>
<text text-anchor="start" x="632" y="-64.5" font-family="Helvetica,sans-Serif" font-size="10.00" fill="#000000">TrilinosWrappers::BlockSparsity</text>
<text text-anchor="middle" x="709" y="-53.5" font-family="Helvetica,sans-Serif" font-size="10.00" fill="#000000">Pattern</text>
</a>
</g>
</g>
<!-- Node2&#45;&gt;Node4 -->
<g id="edge4" class="edge">
<title>Node2&#45;&gt;Node4</title>
<path fill="none" stroke="#191970" d="M589.9294,-63.2816C601.1278,-63.114 612.6511,-62.9416 623.9132,-62.7731"/>
<polygon fill="#191970" stroke="#191970" points="589.6998,-59.7846 579.7533,-63.4339 589.8046,-66.7838 589.6998,-59.7846"/>
</g>
<!-- Node6 -->
<g id="node7" class="node">
<title>Node6</title>
<g id="a_node7"><a xlink:href="classBlockDynamicSparsityPattern.html" target="_top" xlink:title="BlockDynamicSparsityPattern">
<polygon fill="#ffffff" stroke="#000000" points="628.5,-6 628.5,-25 789.5,-25 789.5,-6 628.5,-6"/>
<text text-anchor="middle" x="709" y="-13" font-family="Helvetica,sans-Serif" font-size="10.00" fill="#000000">BlockDynamicSparsityPattern</text>
</a>
</g>
</g>
<!-- Node5&#45;&gt;Node6 -->
<g id="edge6" class="edge">
<title>Node5&#45;&gt;Node6</title>
<path fill="none" stroke="#191970" d="M597.3746,-15.5C607.6518,-15.5 618.0906,-15.5 628.2514,-15.5"/>
<polygon fill="#191970" stroke="#191970" points="597.1675,-12.0001 587.1674,-15.5 597.1674,-19.0001 597.1675,-12.0001"/>
</g>
</g>
</svg>
