<?xml version="1.0" encoding="UTF-8" standalone="no"?>
<!DOCTYPE svg PUBLIC "-//W3C//DTD SVG 1.1//EN"
 "http://www.w3.org/Graphics/SVG/1.1/DTD/svg11.dtd">
<!-- Generated by graphviz version 2.40.1 (20161225.0304)
 -->
<!-- Title: MatrixFreeOperators::MassOperator&lt; dim, fe_degree, n_q_points_1d, n_components, VectorType, VectorizedArrayType &gt; Pages: 1 -->
<!--zoomable 1175 -->
<svg id="main" version="1.1" xmlns="http://www.w3.org/2000/svg" xmlns:xlink="http://www.w3.org/1999/xlink" xml:space="preserve" onload="init(evt)">
<style type="text/css"><![CDATA[
.edge:hover path { stroke: red; }
.edge:hover polygon { stroke: red; fill: red; }
]]></style>
<script type="text/javascript"><![CDATA[
var edges = document.getElementsByTagName('g');
if (edges && edges.length) {
  for (var i=0;i<edges.length;i++) {
    if (edges[i].id.substr(0,4)=='edge') {
      edges[i].setAttribute('class','edge');
    }
  }
}
]]></script>
        <defs>
                <circle id="rim" cx="0" cy="0" r="7"/>
                <circle id="rim2" cx="0" cy="0" r="3.5"/>
                <g id="zoomPlus">
                        <use xlink:href="#rim" fill="#404040">
                                <set attributeName="fill" to="#808080" begin="zoomplus.mouseover" end="zoomplus.mouseout"/>
                        </use>
                        <path d="M-4,0h8M0,-4v8" fill="none" stroke="white" stroke-width="1.5" pointer-events="none"/>
                </g>
                <g id="zoomMin">
                        <use xlink:href="#rim" fill="#404040">
                                <set attributeName="fill" to="#808080" begin="zoomminus.mouseover" end="zoomminus.mouseout"/>
                        </use>
                        <path d="M-4,0h8" fill="none" stroke="white" stroke-width="1.5" pointer-events="none"/>
                </g>
                <g id="dirArrow">
                        <path fill="none" stroke="white" stroke-width="1.5" d="M0,-3.0v7 M-2.5,-0.5L0,-3.0L2.5,-0.5"/>
                </g>
               <g id="resetDef">
                       <use xlink:href="#rim2" fill="#404040">
                               <set attributeName="fill" to="#808080" begin="reset.mouseover" end="reset.mouseout"/>
                       </use>
               </g>
        </defs>

<script type="text/javascript">
var viewWidth = 1114;
var viewHeight = 1175;
var sectionId = 'dynsection-1';
</script>
<script xlink:href="svgpan.js"/>
<svg id="graph" class="graph">
<g id="viewport">
<title>MatrixFreeOperators::MassOperator&lt; dim, fe_degree, n_q_points_1d, n_components, VectorType, VectorizedArrayType &gt;</title>
<polygon fill="#ffffff" stroke="transparent" points="-4,4 -4,-1171 1110,-1171 1110,4 -4,4"/>
<!-- Node3 -->
<g id="node1" class="node">
<title>Node3</title>
<polygon fill="#bfbfbf" stroke="#000000" points="484.5,-.5 484.5,-134.5 645.5,-134.5 645.5,-.5 484.5,-.5"/>
<text text-anchor="start" x="492.5" y="-122.5" font-family="Helvetica,sans-Serif" font-size="10.00" fill="#000000">MatrixFreeOperators</text>
<text text-anchor="start" x="492.5" y="-111.5" font-family="Helvetica,sans-Serif" font-size="10.00" fill="#000000">::MassOperator&lt; dim,</text>
<text text-anchor="start" x="492.5" y="-100.5" font-family="Helvetica,sans-Serif" font-size="10.00" fill="#000000"> fe_degree, n_q_points</text>
<text text-anchor="start" x="492.5" y="-89.5" font-family="Helvetica,sans-Serif" font-size="10.00" fill="#000000">_1d, n_components, VectorType,</text>
<text text-anchor="middle" x="565" y="-78.5" font-family="Helvetica,sans-Serif" font-size="10.00" fill="#000000"> VectorizedArrayType &gt;</text>
<polyline fill="none" stroke="#000000" points="484.5,-71.5 645.5,-71.5 "/>
<text text-anchor="middle" x="565" y="-59.5" font-family="Helvetica,sans-Serif" font-size="10.00" fill="#000000"> </text>
<polyline fill="none" stroke="#000000" points="484.5,-52.5 645.5,-52.5 "/>
<text text-anchor="start" x="492.5" y="-40.5" font-family="Helvetica,sans-Serif" font-size="10.00" fill="#000000">+ MassOperator()</text>
<text text-anchor="start" x="492.5" y="-29.5" font-family="Helvetica,sans-Serif" font-size="10.00" fill="#000000">+ compute_diagonal()</text>
<text text-anchor="start" x="492.5" y="-18.5" font-family="Helvetica,sans-Serif" font-size="10.00" fill="#000000">&#45; apply_add()</text>
<text text-anchor="start" x="492.5" y="-7.5" font-family="Helvetica,sans-Serif" font-size="10.00" fill="#000000">&#45; local_apply_cell()</text>
</g>
<!-- Node4 -->
<g id="node2" class="node">
<title>Node4</title>
<g id="a_node2"><a xlink:href="classMatrixFreeOperators_1_1Base.html" target="_top" xlink:title="{MatrixFreeOperators\l::Base\&lt; dim, VectorType,\l VectorizedArrayType \&gt;\n||+ Base()\l+ ~Base()\l+ clear()\l+ initialize()\l+ initialize()\l+ initialize()\l+ m()\l+ n()\l+ vmult_interface_down()\l+ vmult_interface_up()\land 12 more...\l# preprocess_constraints()\l# postprocess_constraints()\l# set_constrained_entries\l_to_one()\l# apply_add()\l# Tapply_add()\l&#45; mult_add()\l&#45; adjust_ghost_range\l_if_necessary()\l}">
<polygon fill="#ffffff" stroke="#000000" points="496.5,-172.5 496.5,-460.5 633.5,-460.5 633.5,-172.5 496.5,-172.5"/>
<text text-anchor="start" x="504.5" y="-448.5" font-family="Helvetica,sans-Serif" font-size="10.00" fill="#000000">MatrixFreeOperators</text>
<text text-anchor="start" x="504.5" y="-437.5" font-family="Helvetica,sans-Serif" font-size="10.00" fill="#000000">::Base&lt; dim, VectorType,</text>
<text text-anchor="middle" x="565" y="-426.5" font-family="Helvetica,sans-Serif" font-size="10.00" fill="#000000"> VectorizedArrayType &gt;</text>
<polyline fill="none" stroke="#000000" points="496.5,-419.5 633.5,-419.5 "/>
<text text-anchor="middle" x="565" y="-407.5" font-family="Helvetica,sans-Serif" font-size="10.00" fill="#000000"> </text>
<polyline fill="none" stroke="#000000" points="496.5,-400.5 633.5,-400.5 "/>
<text text-anchor="start" x="504.5" y="-388.5" font-family="Helvetica,sans-Serif" font-size="10.00" fill="#000000">+ Base()</text>
<text text-anchor="start" x="504.5" y="-377.5" font-family="Helvetica,sans-Serif" font-size="10.00" fill="#000000">+ ~Base()</text>
<text text-anchor="start" x="504.5" y="-366.5" font-family="Helvetica,sans-Serif" font-size="10.00" fill="#000000">+ clear()</text>
<text text-anchor="start" x="504.5" y="-355.5" font-family="Helvetica,sans-Serif" font-size="10.00" fill="#000000">+ initialize()</text>
<text text-anchor="start" x="504.5" y="-344.5" font-family="Helvetica,sans-Serif" font-size="10.00" fill="#000000">+ initialize()</text>
<text text-anchor="start" x="504.5" y="-333.5" font-family="Helvetica,sans-Serif" font-size="10.00" fill="#000000">+ initialize()</text>
<text text-anchor="start" x="504.5" y="-322.5" font-family="Helvetica,sans-Serif" font-size="10.00" fill="#000000">+ m()</text>
<text text-anchor="start" x="504.5" y="-311.5" font-family="Helvetica,sans-Serif" font-size="10.00" fill="#000000">+ n()</text>
<text text-anchor="start" x="504.5" y="-300.5" font-family="Helvetica,sans-Serif" font-size="10.00" fill="#000000">+ vmult_interface_down()</text>
<text text-anchor="start" x="504.5" y="-289.5" font-family="Helvetica,sans-Serif" font-size="10.00" fill="#000000">+ vmult_interface_up()</text>
<text text-anchor="start" x="504.5" y="-278.5" font-family="Helvetica,sans-Serif" font-size="10.00" fill="#000000">and 12 more...</text>
<text text-anchor="start" x="504.5" y="-267.5" font-family="Helvetica,sans-Serif" font-size="10.00" fill="#000000"># preprocess_constraints()</text>
<text text-anchor="start" x="504.5" y="-256.5" font-family="Helvetica,sans-Serif" font-size="10.00" fill="#000000"># postprocess_constraints()</text>
<text text-anchor="start" x="504.5" y="-245.5" font-family="Helvetica,sans-Serif" font-size="10.00" fill="#000000"># set_constrained_entries</text>
<text text-anchor="start" x="504.5" y="-234.5" font-family="Helvetica,sans-Serif" font-size="10.00" fill="#000000">_to_one()</text>
<text text-anchor="start" x="504.5" y="-223.5" font-family="Helvetica,sans-Serif" font-size="10.00" fill="#000000"># apply_add()</text>
<text text-anchor="start" x="504.5" y="-212.5" font-family="Helvetica,sans-Serif" font-size="10.00" fill="#000000"># Tapply_add()</text>
<text text-anchor="start" x="504.5" y="-201.5" font-family="Helvetica,sans-Serif" font-size="10.00" fill="#000000">&#45; mult_add()</text>
<text text-anchor="start" x="504.5" y="-190.5" font-family="Helvetica,sans-Serif" font-size="10.00" fill="#000000">&#45; adjust_ghost_range</text>
<text text-anchor="start" x="504.5" y="-179.5" font-family="Helvetica,sans-Serif" font-size="10.00" fill="#000000">_if_necessary()</text>
</a>
</g>
</g>
<!-- Node4&#45;&gt;Node3 -->
<g id="edge1" class="edge">
<title>Node4&#45;&gt;Node3</title>
<path fill="none" stroke="#191970" d="M565,-162.2983C565,-152.7039 565,-143.3595 565,-134.5115"/>
<polygon fill="none" stroke="#191970" points="561.5001,-162.3767 565,-172.3767 568.5001,-162.3768 561.5001,-162.3767"/>
</g>
<!-- Node5 -->
<g id="node3" class="node">
<title>Node5</title>
<g id="a_node3"><a xlink:href="classSubscriptor.html" target="_top" xlink:title="{Subscriptor\n||+ Subscriptor()\l+ Subscriptor()\l+ Subscriptor()\l+ ~Subscriptor()\l+ operator=()\l+ operator=()\l+ serialize()\l+ subscribe()\l+ unsubscribe()\l+ n_subscriptions()\l+ list_subscribers()\l+ list_subscribers()\l+ ExcInUse()\l+ ExcNoSubscriber()\l&#45; check_no_subscribers()\l* subscribe()\l* unsubscribe()\l* n_subscriptions()\l* list_subscribers()\l* list_subscribers()\l}">
<polygon fill="#ffffff" stroke="#000000" points="158,-519.5 158,-785.5 284,-785.5 284,-519.5 158,-519.5"/>
<text text-anchor="middle" x="221" y="-773.5" font-family="Helvetica,sans-Serif" font-size="10.00" fill="#000000">Subscriptor</text>
<polyline fill="none" stroke="#000000" points="158,-766.5 284,-766.5 "/>
<text text-anchor="middle" x="221" y="-754.5" font-family="Helvetica,sans-Serif" font-size="10.00" fill="#000000"> </text>
<polyline fill="none" stroke="#000000" points="158,-747.5 284,-747.5 "/>
<text text-anchor="start" x="166" y="-735.5" font-family="Helvetica,sans-Serif" font-size="10.00" fill="#000000">+ Subscriptor()</text>
<text text-anchor="start" x="166" y="-724.5" font-family="Helvetica,sans-Serif" font-size="10.00" fill="#000000">+ Subscriptor()</text>
<text text-anchor="start" x="166" y="-713.5" font-family="Helvetica,sans-Serif" font-size="10.00" fill="#000000">+ Subscriptor()</text>
<text text-anchor="start" x="166" y="-702.5" font-family="Helvetica,sans-Serif" font-size="10.00" fill="#000000">+ ~Subscriptor()</text>
<text text-anchor="start" x="166" y="-691.5" font-family="Helvetica,sans-Serif" font-size="10.00" fill="#000000">+ operator=()</text>
<text text-anchor="start" x="166" y="-680.5" font-family="Helvetica,sans-Serif" font-size="10.00" fill="#000000">+ operator=()</text>
<text text-anchor="start" x="166" y="-669.5" font-family="Helvetica,sans-Serif" font-size="10.00" fill="#000000">+ serialize()</text>
<text text-anchor="start" x="166" y="-658.5" font-family="Helvetica,sans-Serif" font-size="10.00" fill="#000000">+ subscribe()</text>
<text text-anchor="start" x="166" y="-647.5" font-family="Helvetica,sans-Serif" font-size="10.00" fill="#000000">+ unsubscribe()</text>
<text text-anchor="start" x="166" y="-636.5" font-family="Helvetica,sans-Serif" font-size="10.00" fill="#000000">+ n_subscriptions()</text>
<text text-anchor="start" x="166" y="-625.5" font-family="Helvetica,sans-Serif" font-size="10.00" fill="#000000">+ list_subscribers()</text>
<text text-anchor="start" x="166" y="-614.5" font-family="Helvetica,sans-Serif" font-size="10.00" fill="#000000">+ list_subscribers()</text>
<text text-anchor="start" x="166" y="-603.5" font-family="Helvetica,sans-Serif" font-size="10.00" fill="#000000">+ ExcInUse()</text>
<text text-anchor="start" x="166" y="-592.5" font-family="Helvetica,sans-Serif" font-size="10.00" fill="#000000">+ ExcNoSubscriber()</text>
<text text-anchor="start" x="166" y="-581.5" font-family="Helvetica,sans-Serif" font-size="10.00" fill="#000000">&#45; check_no_subscribers()</text>
<text text-anchor="start" x="166" y="-570.5" font-family="Helvetica,sans-Serif" font-size="10.00" fill="#000000">* subscribe()</text>
<text text-anchor="start" x="166" y="-559.5" font-family="Helvetica,sans-Serif" font-size="10.00" fill="#000000">* unsubscribe()</text>
<text text-anchor="start" x="166" y="-548.5" font-family="Helvetica,sans-Serif" font-size="10.00" fill="#000000">* n_subscriptions()</text>
<text text-anchor="start" x="166" y="-537.5" font-family="Helvetica,sans-Serif" font-size="10.00" fill="#000000">* list_subscribers()</text>
<text text-anchor="start" x="166" y="-526.5" font-family="Helvetica,sans-Serif" font-size="10.00" fill="#000000">* list_subscribers()</text>
</a>
</g>
</g>
<!-- Node5&#45;&gt;Node4 -->
<g id="edge2" class="edge">
<title>Node5&#45;&gt;Node4</title>
<path fill="none" stroke="#191970" d="M290.4198,-534.0183C294.5062,-528.8161 298.706,-523.7807 303,-519 360.3342,-455.1663 439.8691,-396.9343 496.2306,-359.4693"/>
<polygon fill="none" stroke="#191970" points="287.3723,-532.2429 284.0944,-542.3179 292.9397,-536.486 287.3723,-532.2429"/>
</g>
<!-- Node6 -->
<g id="node4" class="node">
<title>Node6</title>
<polygon fill="#ffffff" stroke="#bfbfbf" points="144,-839 144,-907 254,-907 254,-839 144,-839"/>
<text text-anchor="start" x="152" y="-895" font-family="Helvetica,sans-Serif" font-size="10.00" fill="#000000">std::map&lt; std::string,</text>
<text text-anchor="middle" x="199" y="-884" font-family="Helvetica,sans-Serif" font-size="10.00" fill="#000000"> unsigned int &gt;</text>
<polyline fill="none" stroke="#bfbfbf" points="144,-877 254,-877 "/>
<text text-anchor="middle" x="199" y="-865" font-family="Helvetica,sans-Serif" font-size="10.00" fill="#000000"> </text>
<polyline fill="none" stroke="#bfbfbf" points="144,-858 254,-858 "/>
<text text-anchor="middle" x="199" y="-846" font-family="Helvetica,sans-Serif" font-size="10.00" fill="#000000"> </text>
</g>
<!-- Node6&#45;&gt;Node5 -->
<g id="edge3" class="edge">
<title>Node6&#45;&gt;Node5</title>
<path fill="none" stroke="#404040" d="M202.4375,-838.5469C203.6104,-826.7912 205.0056,-812.8071 206.4968,-797.8619"/>
<polygon fill="none" stroke="#404040" points="206.5193,-797.6349 203.1348,-791.2674 207.7108,-785.6942 211.0953,-792.0617 206.5193,-797.6349"/>
<text text-anchor="middle" x="237.5" y="-807" font-family="Helvetica,sans-Serif" font-size="10.00" fill="#000000"> &#45;counter_map</text>
</g>
<!-- Node7 -->
<g id="node5" class="node">
<title>Node7</title>
<g id="a_node5"><a xlink:href="classint.html" target="_top" xlink:title="{int\n||}">
<polygon fill="#ffffff" stroke="#000000" points="122.5,-988 122.5,-1045 151.5,-1045 151.5,-988 122.5,-988"/>
<text text-anchor="middle" x="137" y="-1033" font-family="Helvetica,sans-Serif" font-size="10.00" fill="#000000">int</text>
<polyline fill="none" stroke="#000000" points="122.5,-1026 151.5,-1026 "/>
<text text-anchor="middle" x="137" y="-1014" font-family="Helvetica,sans-Serif" font-size="10.00" fill="#000000"> </text>
<polyline fill="none" stroke="#000000" points="122.5,-1007 151.5,-1007 "/>
<text text-anchor="middle" x="137" y="-995" font-family="Helvetica,sans-Serif" font-size="10.00" fill="#000000"> </text>
</a>
</g>
</g>
<!-- Node7&#45;&gt;Node6 -->
<g id="edge4" class="edge">
<title>Node7&#45;&gt;Node6</title>
<path fill="none" stroke="#404040" d="M139.3654,-987.7602C141.5767,-970.6679 145.8329,-948.8994 154,-931 156.1129,-926.3693 158.6617,-921.7719 161.459,-917.31"/>
<polygon fill="none" stroke="#404040" points="161.5942,-917.1114 161.6655,-909.9007 168.349,-907.1931 168.2777,-914.4039 161.5942,-917.1114"/>
<text text-anchor="middle" x="178.5" y="-945" font-family="Helvetica,sans-Serif" font-size="10.00" fill="#000000"> +elements</text>
</g>
<!-- Node8 -->
<g id="node6" class="node">
<title>Node8</title>
<g id="a_node6"><a xlink:title="STL class. ">
<polygon fill="#ffffff" stroke="#bfbfbf" points="44,-988 44,-1045 104,-1045 104,-988 44,-988"/>
<text text-anchor="middle" x="74" y="-1033" font-family="Helvetica,sans-Serif" font-size="10.00" fill="#000000">std::string</text>
<polyline fill="none" stroke="#bfbfbf" points="44,-1026 104,-1026 "/>
<text text-anchor="middle" x="74" y="-1014" font-family="Helvetica,sans-Serif" font-size="10.00" fill="#000000"> </text>
<polyline fill="none" stroke="#bfbfbf" points="44,-1007 104,-1007 "/>
<text text-anchor="middle" x="74" y="-995" font-family="Helvetica,sans-Serif" font-size="10.00" fill="#000000"> </text>
</a>
</g>
</g>
<!-- Node8&#45;&gt;Node6 -->
<g id="edge5" class="edge">
<title>Node8&#45;&gt;Node6</title>
<path fill="none" stroke="#404040" d="M81.032,-987.6153C86.4504,-969.8423 95.3647,-947.4056 109,-931 111.3907,-928.1236 121.174,-921.3229 133.4652,-913.3499"/>
<polygon fill="none" stroke="#404040" points="133.6596,-913.2255 136.557,-906.6221 143.7669,-906.7569 140.8694,-913.3603 133.6596,-913.2255"/>
<text text-anchor="middle" x="124.5" y="-945" font-family="Helvetica,sans-Serif" font-size="10.00" fill="#000000"> +keys</text>
</g>
<!-- Node9 -->
<g id="node7" class="node">
<title>Node9</title>
<g id="a_node7"><a xlink:title="STL class. ">
<polygon fill="#ffffff" stroke="#bfbfbf" points="26.5,-1098.5 26.5,-1166.5 121.5,-1166.5 121.5,-1098.5 26.5,-1098.5"/>
<text text-anchor="start" x="34.5" y="-1154.5" font-family="Helvetica,sans-Serif" font-size="10.00" fill="#000000">std::basic_string&lt;</text>
<text text-anchor="middle" x="74" y="-1143.5" font-family="Helvetica,sans-Serif" font-size="10.00" fill="#000000"> char &gt;</text>
<polyline fill="none" stroke="#bfbfbf" points="26.5,-1136.5 121.5,-1136.5 "/>
<text text-anchor="middle" x="74" y="-1124.5" font-family="Helvetica,sans-Serif" font-size="10.00" fill="#000000"> </text>
<polyline fill="none" stroke="#bfbfbf" points="26.5,-1117.5 121.5,-1117.5 "/>
<text text-anchor="middle" x="74" y="-1105.5" font-family="Helvetica,sans-Serif" font-size="10.00" fill="#000000"> </text>
</a>
</g>
</g>
<!-- Node9&#45;&gt;Node8 -->
<g id="edge6" class="edge">
<title>Node9&#45;&gt;Node8</title>
<path fill="none" stroke="#191970" d="M74,-1088.1387C74,-1073.7904 74,-1058.2617 74,-1045.3418"/>
<polygon fill="none" stroke="#191970" points="70.5001,-1088.3235 74,-1098.3236 77.5001,-1088.3236 70.5001,-1088.3235"/>
</g>
<!-- Node10 -->
<g id="node8" class="node">
<title>Node10</title>
<g id="a_node8"><a xlink:title="STL class. ">
<polygon fill="#ffffff" stroke="#bfbfbf" points="172,-988 172,-1045 264,-1045 264,-988 172,-988"/>
<text text-anchor="middle" x="218" y="-1033" font-family="Helvetica,sans-Serif" font-size="10.00" fill="#000000">std::map&lt; K, T &gt;</text>
<polyline fill="none" stroke="#bfbfbf" points="172,-1026 264,-1026 "/>
<text text-anchor="middle" x="218" y="-1014" font-family="Helvetica,sans-Serif" font-size="10.00" fill="#000000"> </text>
<polyline fill="none" stroke="#bfbfbf" points="172,-1007 264,-1007 "/>
<text text-anchor="middle" x="218" y="-995" font-family="Helvetica,sans-Serif" font-size="10.00" fill="#000000"> </text>
</a>
</g>
</g>
<!-- Node10&#45;&gt;Node6 -->
<g id="edge7" class="edge">
<title>Node10&#45;&gt;Node6</title>
<path fill="none" stroke="#ffa500" d="M212.8743,-977.7878C209.9586,-955.7661 206.3395,-928.4324 203.5287,-907.2037"/>
<polygon fill="#ffa500" stroke="#ffa500" points="209.4183,-978.3515 214.2007,-987.8055 216.3578,-977.4326 209.4183,-978.3515"/>
<text text-anchor="start" x="211" y="-950.5" font-family="Helvetica,sans-Serif" font-size="10.00" fill="#000000"> &lt; std::string, unsigned</text>
<text text-anchor="middle" x="261.5" y="-939.5" font-family="Helvetica,sans-Serif" font-size="10.00" fill="#000000"> int &gt;</text>
</g>
<!-- Node11 -->
<g id="node9" class="node">
<title>Node11</title>
<polygon fill="#ffffff" stroke="#bfbfbf" points="203.5,-1104 203.5,-1161 232.5,-1161 232.5,-1104 203.5,-1104"/>
<text text-anchor="middle" x="218" y="-1149" font-family="Helvetica,sans-Serif" font-size="10.00" fill="#000000">K</text>
<polyline fill="none" stroke="#bfbfbf" points="203.5,-1142 232.5,-1142 "/>
<text text-anchor="middle" x="218" y="-1130" font-family="Helvetica,sans-Serif" font-size="10.00" fill="#000000"> </text>
<polyline fill="none" stroke="#bfbfbf" points="203.5,-1123 232.5,-1123 "/>
<text text-anchor="middle" x="218" y="-1111" font-family="Helvetica,sans-Serif" font-size="10.00" fill="#000000"> </text>
</g>
<!-- Node11&#45;&gt;Node10 -->
<g id="edge8" class="edge">
<title>Node11&#45;&gt;Node10</title>
<path fill="none" stroke="#404040" d="M218,-1103.8258C218,-1089.8834 218,-1072.8727 218,-1057.5815"/>
<polygon fill="none" stroke="#404040" points="218.0001,-1057.2463 214,-1051.2464 218,-1045.2463 222,-1051.2463 218.0001,-1057.2463"/>
<text text-anchor="middle" x="233.5" y="-1072" font-family="Helvetica,sans-Serif" font-size="10.00" fill="#000000"> +keys</text>
</g>
<!-- Node12 -->
<g id="node10" class="node">
<title>Node12</title>
<polygon fill="#ffffff" stroke="#bfbfbf" points="431.5,-1104 431.5,-1161 460.5,-1161 460.5,-1104 431.5,-1104"/>
<text text-anchor="middle" x="446" y="-1149" font-family="Helvetica,sans-Serif" font-size="10.00" fill="#000000">T</text>
<polyline fill="none" stroke="#bfbfbf" points="431.5,-1142 460.5,-1142 "/>
<text text-anchor="middle" x="446" y="-1130" font-family="Helvetica,sans-Serif" font-size="10.00" fill="#000000"> </text>
<polyline fill="none" stroke="#bfbfbf" points="431.5,-1123 460.5,-1123 "/>
<text text-anchor="middle" x="446" y="-1111" font-family="Helvetica,sans-Serif" font-size="10.00" fill="#000000"> </text>
</g>
<!-- Node12&#45;&gt;Node10 -->
<g id="edge9" class="edge">
<title>Node12&#45;&gt;Node10</title>
<path fill="none" stroke="#404040" d="M431.3366,-1125.9077C401.7762,-1112.5134 333.0677,-1080.8509 277,-1051 276.3454,-1050.6515 275.6876,-1050.2994 275.0271,-1049.9442"/>
<polygon fill="none" stroke="#404040" points="274.6931,-1049.7603 267.5079,-1050.3704 264.1811,-1043.9725 271.3664,-1043.3624 274.6931,-1049.7603"/>
<text text-anchor="middle" x="357.5" y="-1072" font-family="Helvetica,sans-Serif" font-size="10.00" fill="#000000"> +elements</text>
</g>
<!-- Node17 -->
<g id="node15" class="node">
<title>Node17</title>
<g id="a_node15"><a xlink:title="STL class. ">
<polygon fill="#ffffff" stroke="#bfbfbf" points="578.5,-988 578.5,-1045 665.5,-1045 665.5,-988 578.5,-988"/>
<text text-anchor="middle" x="622" y="-1033" font-family="Helvetica,sans-Serif" font-size="10.00" fill="#000000">std::vector&lt; T &gt;</text>
<polyline fill="none" stroke="#bfbfbf" points="578.5,-1026 665.5,-1026 "/>
<text text-anchor="middle" x="622" y="-1014" font-family="Helvetica,sans-Serif" font-size="10.00" fill="#000000"> </text>
<polyline fill="none" stroke="#bfbfbf" points="578.5,-1007 665.5,-1007 "/>
<text text-anchor="middle" x="622" y="-995" font-family="Helvetica,sans-Serif" font-size="10.00" fill="#000000"> </text>
</a>
</g>
</g>
<!-- Node12&#45;&gt;Node17 -->
<g id="edge15" class="edge">
<title>Node12&#45;&gt;Node17</title>
<path fill="none" stroke="#404040" d="M460.7029,-1122.8094C484.1132,-1107.3799 531.0152,-1076.4672 568.2363,-1051.9352"/>
<polygon fill="none" stroke="#404040" points="568.4307,-1051.8071 571.2392,-1045.1653 578.4502,-1045.2033 575.6417,-1051.845 568.4307,-1051.8071"/>
<text text-anchor="middle" x="563.5" y="-1072" font-family="Helvetica,sans-Serif" font-size="10.00" fill="#000000"> +elements</text>
</g>
<!-- Node13 -->
<g id="node11" class="node">
<title>Node13</title>
<polygon fill="#ffffff" stroke="#bfbfbf" points="412,-844.5 412,-901.5 528,-901.5 528,-844.5 412,-844.5"/>
<text text-anchor="middle" x="470" y="-889.5" font-family="Helvetica,sans-Serif" font-size="10.00" fill="#000000">atomic&lt; unsigned int &gt;</text>
<polyline fill="none" stroke="#bfbfbf" points="412,-882.5 528,-882.5 "/>
<text text-anchor="middle" x="470" y="-870.5" font-family="Helvetica,sans-Serif" font-size="10.00" fill="#000000"> </text>
<polyline fill="none" stroke="#bfbfbf" points="412,-863.5 528,-863.5 "/>
<text text-anchor="middle" x="470" y="-851.5" font-family="Helvetica,sans-Serif" font-size="10.00" fill="#000000"> </text>
</g>
<!-- Node13&#45;&gt;Node5 -->
<g id="edge10" class="edge">
<title>Node13&#45;&gt;Node5</title>
<path fill="none" stroke="#404040" d="M441.2849,-844.3807C425.5733,-830.2478 405.0547,-814.1035 384,-804 350.7518,-788.0452 333.0288,-807.4072 303,-786 299.5168,-783.5169 296.1522,-780.8351 292.9046,-777.9883"/>
<polygon fill="none" stroke="#404040" points="292.7464,-777.8375 285.6436,-776.5923 284.0611,-769.5569 291.1639,-770.8021 292.7464,-777.8375"/>
<text text-anchor="middle" x="422.5" y="-807" font-family="Helvetica,sans-Serif" font-size="10.00" fill="#000000"> &#45;counter</text>
</g>
<!-- Node14 -->
<g id="node12" class="node">
<title>Node14</title>
<polygon fill="#ffffff" stroke="#bfbfbf" points="0,-844.5 0,-901.5 44,-901.5 44,-844.5 0,-844.5"/>
<text text-anchor="middle" x="22" y="-889.5" font-family="Helvetica,sans-Serif" font-size="10.00" fill="#000000">mutex</text>
<polyline fill="none" stroke="#bfbfbf" points="0,-882.5 44,-882.5 "/>
<text text-anchor="middle" x="22" y="-870.5" font-family="Helvetica,sans-Serif" font-size="10.00" fill="#000000"> </text>
<polyline fill="none" stroke="#bfbfbf" points="0,-863.5 44,-863.5 "/>
<text text-anchor="middle" x="22" y="-851.5" font-family="Helvetica,sans-Serif" font-size="10.00" fill="#000000"> </text>
</g>
<!-- Node14&#45;&gt;Node5 -->
<g id="edge11" class="edge">
<title>Node14&#45;&gt;Node5</title>
<path fill="none" stroke="#404040" d="M43.705,-844.341C46.772,-840.4849 49.9276,-836.6151 53,-833 83.5361,-797.0704 118.8953,-758.6448 149.2747,-726.5222"/>
<polygon fill="none" stroke="#404040" points="149.4448,-726.3428 150.6718,-719.2369 157.703,-717.6364 156.4761,-724.7424 149.4448,-726.3428"/>
<text text-anchor="middle" x="92" y="-807" font-family="Helvetica,sans-Serif" font-size="10.00" fill="#000000"> &#45;mutex</text>
</g>
<!-- Node15 -->
<g id="node13" class="node">
<title>Node15</title>
<polygon fill="#ffffff" stroke="#bfbfbf" points="272.5,-839 272.5,-907 393.5,-907 393.5,-839 272.5,-839"/>
<text text-anchor="start" x="280.5" y="-895" font-family="Helvetica,sans-Serif" font-size="10.00" fill="#000000">std::vector&lt; std::atomic</text>
<text text-anchor="middle" x="333" y="-884" font-family="Helvetica,sans-Serif" font-size="10.00" fill="#000000">&lt; bool &gt; *&gt;</text>
<polyline fill="none" stroke="#bfbfbf" points="272.5,-877 393.5,-877 "/>
<text text-anchor="middle" x="333" y="-865" font-family="Helvetica,sans-Serif" font-size="10.00" fill="#000000"> </text>
<polyline fill="none" stroke="#bfbfbf" points="272.5,-858 393.5,-858 "/>
<text text-anchor="middle" x="333" y="-846" font-family="Helvetica,sans-Serif" font-size="10.00" fill="#000000"> </text>
</g>
<!-- Node15&#45;&gt;Node5 -->
<g id="edge12" class="edge">
<title>Node15&#45;&gt;Node5</title>
<path fill="none" stroke="#404040" d="M315.5,-838.5469C308.1628,-824.1019 299.1167,-806.2922 289.5557,-787.4691"/>
<polygon fill="none" stroke="#404040" points="289.4725,-787.3052 283.189,-783.7672 284.0381,-776.6063 290.3216,-780.1443 289.4725,-787.3052"/>
<text text-anchor="middle" x="341.5" y="-807" font-family="Helvetica,sans-Serif" font-size="10.00" fill="#000000"> &#45;validity_pointers</text>
</g>
<!-- Node16 -->
<g id="node14" class="node">
<title>Node16</title>
<polygon fill="#ffffff" stroke="#bfbfbf" points="286.5,-988 286.5,-1045 375.5,-1045 375.5,-988 286.5,-988"/>
<text text-anchor="middle" x="331" y="-1033" font-family="Helvetica,sans-Serif" font-size="10.00" fill="#000000">atomic&lt; bool &gt; *</text>
<polyline fill="none" stroke="#bfbfbf" points="286.5,-1026 375.5,-1026 "/>
<text text-anchor="middle" x="331" y="-1014" font-family="Helvetica,sans-Serif" font-size="10.00" fill="#000000"> </text>
<polyline fill="none" stroke="#bfbfbf" points="286.5,-1007 375.5,-1007 "/>
<text text-anchor="middle" x="331" y="-995" font-family="Helvetica,sans-Serif" font-size="10.00" fill="#000000"> </text>
</g>
<!-- Node16&#45;&gt;Node15 -->
<g id="edge13" class="edge">
<title>Node16&#45;&gt;Node15</title>
<path fill="none" stroke="#404040" d="M331.3999,-987.8055C331.6731,-968.2064 332.041,-941.8057 332.3552,-919.2629"/>
<polygon fill="none" stroke="#404040" points="332.356,-919.2026 328.44,-913.1474 332.5233,-907.2037 336.4392,-913.2589 332.356,-919.2026"/>
<text text-anchor="middle" x="357.5" y="-945" font-family="Helvetica,sans-Serif" font-size="10.00" fill="#000000"> +elements</text>
</g>
<!-- Node17&#45;&gt;Node15 -->
<g id="edge14" class="edge">
<title>Node17&#45;&gt;Node15</title>
<path fill="none" stroke="#ffa500" d="M568.5474,-999.8985C545.3521,-991.2607 518.6115,-979.2759 497,-964 480.8139,-952.5589 483.8611,-941.4207 467,-931 441.8649,-915.4657 430.2539,-924.4155 403,-913 398.7396,-911.2155 394.4145,-909.2264 390.112,-907.1151"/>
<polygon fill="#ffa500" stroke="#ffa500" points="567.6515,-1003.296 578.2459,-1003.3954 570.0258,-996.711 567.6515,-1003.296"/>
<text text-anchor="middle" x="552" y="-945" font-family="Helvetica,sans-Serif" font-size="10.00" fill="#000000"> &lt; std::atomic&lt; bool &gt; *&gt;</text>
</g>
<!-- Node20 -->
<g id="node18" class="node">
<title>Node20</title>
<polygon fill="#ffffff" stroke="#bfbfbf" points="584.5,-618.5 584.5,-686.5 703.5,-686.5 703.5,-618.5 584.5,-618.5"/>
<text text-anchor="start" x="592.5" y="-674.5" font-family="Helvetica,sans-Serif" font-size="10.00" fill="#000000">std::vector&lt; std::vector</text>
<text text-anchor="middle" x="644" y="-663.5" font-family="Helvetica,sans-Serif" font-size="10.00" fill="#000000">&lt; unsigned int &gt; &gt;</text>
<polyline fill="none" stroke="#bfbfbf" points="584.5,-656.5 703.5,-656.5 "/>
<text text-anchor="middle" x="644" y="-644.5" font-family="Helvetica,sans-Serif" font-size="10.00" fill="#000000"> </text>
<polyline fill="none" stroke="#bfbfbf" points="584.5,-637.5 703.5,-637.5 "/>
<text text-anchor="middle" x="644" y="-625.5" font-family="Helvetica,sans-Serif" font-size="10.00" fill="#000000"> </text>
</g>
<!-- Node17&#45;&gt;Node20 -->
<g id="edge22" class="edge">
<title>Node17&#45;&gt;Node20</title>
<path fill="none" stroke="#ffa500" d="M673.7475,-987.5988C681.5186,-980.8999 688.4444,-973.0343 693,-964 739.4631,-871.8578 690.9353,-746.5206 662.1141,-686.8308"/>
<polygon fill="#ffa500" stroke="#ffa500" points="671.4332,-984.9666 665.7512,-993.9089 675.7696,-990.4617 671.4332,-984.9666"/>
<text text-anchor="start" x="712" y="-876" font-family="Helvetica,sans-Serif" font-size="10.00" fill="#000000"> &lt; std::vector&lt; unsigned</text>
<text text-anchor="middle" x="765.5" y="-865" font-family="Helvetica,sans-Serif" font-size="10.00" fill="#000000"> int &gt; &gt;</text>
</g>
<!-- Node21 -->
<g id="node19" class="node">
<title>Node21</title>
<polygon fill="#ffffff" stroke="#bfbfbf" points="548.5,-839 548.5,-907 659.5,-907 659.5,-839 548.5,-839"/>
<text text-anchor="start" x="556.5" y="-895" font-family="Helvetica,sans-Serif" font-size="10.00" fill="#000000">std::vector&lt; unsigned</text>
<text text-anchor="middle" x="604" y="-884" font-family="Helvetica,sans-Serif" font-size="10.00" fill="#000000"> int &gt;</text>
<polyline fill="none" stroke="#bfbfbf" points="548.5,-877 659.5,-877 "/>
<text text-anchor="middle" x="604" y="-865" font-family="Helvetica,sans-Serif" font-size="10.00" fill="#000000"> </text>
<polyline fill="none" stroke="#bfbfbf" points="548.5,-858 659.5,-858 "/>
<text text-anchor="middle" x="604" y="-846" font-family="Helvetica,sans-Serif" font-size="10.00" fill="#000000"> </text>
</g>
<!-- Node17&#45;&gt;Node21 -->
<g id="edge21" class="edge">
<title>Node17&#45;&gt;Node21</title>
<path fill="none" stroke="#ffa500" d="M617.1441,-977.7878C614.3818,-955.7661 610.9532,-928.4324 608.2904,-907.2037"/>
<polygon fill="#ffa500" stroke="#ffa500" points="613.6832,-978.3189 618.4007,-987.8055 620.6288,-977.4476 613.6832,-978.3189"/>
<text text-anchor="middle" x="652" y="-945" font-family="Helvetica,sans-Serif" font-size="10.00" fill="#000000"> &lt; unsigned int &gt;</text>
</g>
<!-- Node25 -->
<g id="node23" class="node">
<title>Node25</title>
<polygon fill="#ffffff" stroke="#bfbfbf" points="870,-833.5 870,-912.5 990,-912.5 990,-833.5 870,-833.5"/>
<text text-anchor="start" x="878" y="-900.5" font-family="Helvetica,sans-Serif" font-size="10.00" fill="#000000">std::vector&lt; std::vector</text>
<text text-anchor="start" x="878" y="-889.5" font-family="Helvetica,sans-Serif" font-size="10.00" fill="#000000">&lt; std::pair&lt; value_type,</text>
<text text-anchor="middle" x="930" y="-878.5" font-family="Helvetica,sans-Serif" font-size="10.00" fill="#000000"> value_type &gt; &gt; &gt;</text>
<polyline fill="none" stroke="#bfbfbf" points="870,-871.5 990,-871.5 "/>
<text text-anchor="middle" x="930" y="-859.5" font-family="Helvetica,sans-Serif" font-size="10.00" fill="#000000"> </text>
<polyline fill="none" stroke="#bfbfbf" points="870,-852.5 990,-852.5 "/>
<text text-anchor="middle" x="930" y="-840.5" font-family="Helvetica,sans-Serif" font-size="10.00" fill="#000000"> </text>
</g>
<!-- Node17&#45;&gt;Node25 -->
<g id="edge28" class="edge">
<title>Node17&#45;&gt;Node25</title>
<path fill="none" stroke="#ffa500" d="M674.8985,-991.8541C729.1091,-966.5969 813.268,-927.3865 869.9477,-900.9789"/>
<polygon fill="#ffa500" stroke="#ffa500" points="673.3881,-988.6965 665.8018,-996.0923 676.3444,-995.0416 673.3881,-988.6965"/>
<text text-anchor="start" x="803" y="-956" font-family="Helvetica,sans-Serif" font-size="10.00" fill="#000000"> &lt; std::vector&lt; std</text>
<text text-anchor="start" x="803" y="-945" font-family="Helvetica,sans-Serif" font-size="10.00" fill="#000000">::pair&lt; value_type,</text>
<text text-anchor="middle" x="844" y="-934" font-family="Helvetica,sans-Serif" font-size="10.00" fill="#000000"> value_type &gt; &gt; &gt;</text>
</g>
<!-- Node18 -->
<g id="node16" class="node">
<title>Node18</title>
<polygon fill="#ffffff" stroke="#bfbfbf" points="62.5,-844.5 62.5,-901.5 125.5,-901.5 125.5,-844.5 62.5,-844.5"/>
<text text-anchor="middle" x="94" y="-889.5" font-family="Helvetica,sans-Serif" font-size="10.00" fill="#000000">type_info *</text>
<polyline fill="none" stroke="#bfbfbf" points="62.5,-882.5 125.5,-882.5 "/>
<text text-anchor="middle" x="94" y="-870.5" font-family="Helvetica,sans-Serif" font-size="10.00" fill="#000000"> </text>
<polyline fill="none" stroke="#bfbfbf" points="62.5,-863.5 125.5,-863.5 "/>
<text text-anchor="middle" x="94" y="-851.5" font-family="Helvetica,sans-Serif" font-size="10.00" fill="#000000"> </text>
</g>
<!-- Node18&#45;&gt;Node5 -->
<g id="edge16" class="edge">
<title>Node18&#45;&gt;Node5</title>
<path fill="none" stroke="#404040" d="M110.603,-844.1735C121.406,-825.4172 136.3004,-799.5572 151.6546,-772.899"/>
<polygon fill="none" stroke="#404040" points="151.7956,-772.654 151.3241,-765.4583 157.7849,-762.2554 158.2564,-769.4511 151.7956,-772.654"/>
<text text-anchor="middle" x="159" y="-807" font-family="Helvetica,sans-Serif" font-size="10.00" fill="#000000"> &#45;object_info</text>
</g>
<!-- Node19 -->
<g id="node17" class="node">
<title>Node19</title>
<polygon fill="#ffffff" stroke="#bfbfbf" points="312.5,-613 312.5,-692 441.5,-692 441.5,-613 312.5,-613"/>
<text text-anchor="start" x="320.5" y="-680" font-family="Helvetica,sans-Serif" font-size="10.00" fill="#000000">shared_ptr&lt; const Matrix</text>
<text text-anchor="start" x="320.5" y="-669" font-family="Helvetica,sans-Serif" font-size="10.00" fill="#000000">Free&lt; dim, value_type,</text>
<text text-anchor="middle" x="377" y="-658" font-family="Helvetica,sans-Serif" font-size="10.00" fill="#000000"> VectorizedArrayType &gt; &gt;</text>
<polyline fill="none" stroke="#bfbfbf" points="312.5,-651 441.5,-651 "/>
<text text-anchor="middle" x="377" y="-639" font-family="Helvetica,sans-Serif" font-size="10.00" fill="#000000"> </text>
<polyline fill="none" stroke="#bfbfbf" points="312.5,-632 441.5,-632 "/>
<text text-anchor="middle" x="377" y="-620" font-family="Helvetica,sans-Serif" font-size="10.00" fill="#000000"> </text>
</g>
<!-- Node19&#45;&gt;Node4 -->
<g id="edge17" class="edge">
<title>Node19&#45;&gt;Node4</title>
<path fill="none" stroke="#404040" d="M386.3685,-612.6555C395.8442,-576.4123 412.4604,-522.1521 436,-479 450.6191,-452.2007 469.6968,-425.3359 488.6788,-401.3861"/>
<polygon fill="none" stroke="#404040" points="488.7002,-401.3595 489.3446,-394.1772 496.2223,-392.0096 495.5779,-399.1919 488.7002,-401.3595"/>
<text text-anchor="middle" x="450" y="-487.5" font-family="Helvetica,sans-Serif" font-size="10.00" fill="#000000"> #data</text>
</g>
<!-- Node20&#45;&gt;Node4 -->
<g id="edge18" class="edge">
<title>Node20&#45;&gt;Node4</title>
<path fill="none" stroke="#404040" d="M620.3907,-618.2544C601.53,-588.7044 576.567,-544.0986 566,-501 563.7743,-491.9221 562.0429,-482.5166 560.7222,-472.9762"/>
<polygon fill="none" stroke="#404040" points="560.6949,-472.7481 556.0073,-467.2684 559.2626,-460.8339 563.9501,-466.3136 560.6949,-472.7481"/>
<text text-anchor="middle" x="625.5" y="-487.5" font-family="Helvetica,sans-Serif" font-size="10.00" fill="#000000"> &#45;edge_constrained_indices</text>
</g>
<!-- Node21&#45;&gt;Node4 -->
<g id="edge25" class="edge">
<title>Node21&#45;&gt;Node4</title>
<path fill="none" stroke="#404040" d="M549.1691,-838.8111C522.6355,-820.9763 495.0081,-800.0162 488,-786 439.3253,-688.6506 461.1586,-567.1285 493.8117,-472.1096"/>
<polygon fill="none" stroke="#404040" points="493.8587,-471.9759 492.078,-464.9881 497.8434,-460.6568 499.6241,-467.6446 493.8587,-471.9759"/>
<text text-anchor="middle" x="532" y="-655.5" font-family="Helvetica,sans-Serif" font-size="10.00" fill="#000000"> #selected_columns</text>
<text text-anchor="middle" x="532" y="-644.5" font-family="Helvetica,sans-Serif" font-size="10.00" fill="#000000">#selected_rows</text>
</g>
<!-- Node21&#45;&gt;Node20 -->
<g id="edge19" class="edge">
<title>Node21&#45;&gt;Node20</title>
<path fill="none" stroke="#404040" d="M610.25,-838.5469C617.0748,-800.925 628.0399,-740.4798 635.6102,-698.7487"/>
<polygon fill="none" stroke="#404040" points="635.6519,-698.5185 632.7871,-691.9008 637.7939,-686.7112 640.6587,-693.3288 635.6519,-698.5185"/>
<text text-anchor="middle" x="639.5" y="-807" font-family="Helvetica,sans-Serif" font-size="10.00" fill="#000000"> +elements</text>
</g>
<!-- Node22 -->
<g id="node20" class="node">
<title>Node22</title>
<g id="a_node20"><a xlink:href="classunsigned_01int.html" target="_top" xlink:title="{unsigned int\n||}">
<polygon fill="#ffffff" stroke="#000000" points="393.5,-988 393.5,-1045 462.5,-1045 462.5,-988 393.5,-988"/>
<text text-anchor="middle" x="428" y="-1033" font-family="Helvetica,sans-Serif" font-size="10.00" fill="#000000">unsigned int</text>
<polyline fill="none" stroke="#000000" points="393.5,-1026 462.5,-1026 "/>
<text text-anchor="middle" x="428" y="-1014" font-family="Helvetica,sans-Serif" font-size="10.00" fill="#000000"> </text>
<polyline fill="none" stroke="#000000" points="393.5,-1007 462.5,-1007 "/>
<text text-anchor="middle" x="428" y="-995" font-family="Helvetica,sans-Serif" font-size="10.00" fill="#000000"> </text>
</a>
</g>
</g>
<!-- Node22&#45;&gt;Node21 -->
<g id="edge20" class="edge">
<title>Node22&#45;&gt;Node21</title>
<path fill="none" stroke="#404040" d="M414.7315,-987.9101C408.3968,-969.5766 404.7462,-946.4093 418,-931 435.4403,-910.7233 511.8232,-922.0243 537,-913 538.0322,-912.63 539.0661,-912.2435 540.1005,-911.8417"/>
<polygon fill="none" stroke="#404040" points="540.154,-911.8185 544.0548,-905.7535 551.1536,-907.0216 547.2528,-913.0866 540.154,-911.8185"/>
<text text-anchor="middle" x="442.5" y="-945" font-family="Helvetica,sans-Serif" font-size="10.00" fill="#000000"> +elements</text>
</g>
<!-- Node23 -->
<g id="node21" class="node">
<title>Node23</title>
<g id="a_node21"><a xlink:href="classbool.html" target="_top" xlink:title="{bool\n||}">
<polygon fill="#ffffff" stroke="#000000" points="721.5,-624 721.5,-681 756.5,-681 756.5,-624 721.5,-624"/>
<text text-anchor="middle" x="739" y="-669" font-family="Helvetica,sans-Serif" font-size="10.00" fill="#000000">bool</text>
<polyline fill="none" stroke="#000000" points="721.5,-662 756.5,-662 "/>
<text text-anchor="middle" x="739" y="-650" font-family="Helvetica,sans-Serif" font-size="10.00" fill="#000000"> </text>
<polyline fill="none" stroke="#000000" points="721.5,-643 756.5,-643 "/>
<text text-anchor="middle" x="739" y="-631" font-family="Helvetica,sans-Serif" font-size="10.00" fill="#000000"> </text>
</a>
</g>
</g>
<!-- Node23&#45;&gt;Node4 -->
<g id="edge23" class="edge">
<title>Node23&#45;&gt;Node4</title>
<path fill="none" stroke="#404040" d="M736.897,-623.8844C734.0676,-596.1447 727.5812,-553.3404 713,-519 695.3436,-477.417 667.6913,-436.2803 641.0448,-402.0575"/>
<polygon fill="none" stroke="#404040" points="641.0059,-402.0082 634.1472,-399.7812 633.5649,-392.5936 640.4236,-394.8206 641.0059,-402.0082"/>
<text text-anchor="middle" x="760.5" y="-487.5" font-family="Helvetica,sans-Serif" font-size="10.00" fill="#000000"> &#45;have_interface_matrices</text>
</g>
<!-- Node24 -->
<g id="node22" class="node">
<title>Node24</title>
<polygon fill="#ffffff" stroke="#bfbfbf" points="774.5,-618.5 774.5,-686.5 911.5,-686.5 911.5,-618.5 774.5,-618.5"/>
<text text-anchor="start" x="782.5" y="-674.5" font-family="Helvetica,sans-Serif" font-size="10.00" fill="#000000">shared_ptr&lt; DiagonalMatrix</text>
<text text-anchor="middle" x="843" y="-663.5" font-family="Helvetica,sans-Serif" font-size="10.00" fill="#000000">&lt; VectorType &gt; &gt;</text>
<polyline fill="none" stroke="#bfbfbf" points="774.5,-656.5 911.5,-656.5 "/>
<text text-anchor="middle" x="843" y="-644.5" font-family="Helvetica,sans-Serif" font-size="10.00" fill="#000000"> </text>
<polyline fill="none" stroke="#bfbfbf" points="774.5,-637.5 911.5,-637.5 "/>
<text text-anchor="middle" x="843" y="-625.5" font-family="Helvetica,sans-Serif" font-size="10.00" fill="#000000"> </text>
</g>
<!-- Node24&#45;&gt;Node4 -->
<g id="edge24" class="edge">
<title>Node24&#45;&gt;Node4</title>
<path fill="none" stroke="#404040" d="M846.8155,-618.3494C849.2291,-581.1444 847.8517,-521.2947 821,-479 780.1132,-414.5984 703.4872,-371.0384 644.6839,-345.3605"/>
<polygon fill="none" stroke="#404040" points="644.5908,-345.3209 637.5031,-346.6494 633.5509,-340.6178 640.6386,-339.2894 644.5908,-345.3209"/>
<text text-anchor="middle" x="889" y="-493" font-family="Helvetica,sans-Serif" font-size="10.00" fill="#000000"> #inverse_diagonal_entries</text>
<text text-anchor="middle" x="889" y="-482" font-family="Helvetica,sans-Serif" font-size="10.00" fill="#000000">#diagonal_entries</text>
</g>
<!-- Node25&#45;&gt;Node4 -->
<g id="edge26" class="edge">
<title>Node25&#45;&gt;Node4</title>
<path fill="none" stroke="#404040" d="M946.3655,-833.465C974.9314,-757.5823 1024.2266,-589.2782 951,-479 883.2525,-376.9732 737.5519,-338.8574 645.8066,-324.7194"/>
<polygon fill="none" stroke="#404040" points="645.6603,-324.6981 639.1433,-327.7849 633.7873,-322.9565 640.3043,-319.8696 645.6603,-324.6981"/>
<text text-anchor="middle" x="1047.5" y="-650" font-family="Helvetica,sans-Serif" font-size="10.00" fill="#000000"> &#45;edge_constrained_values</text>
</g>
<!-- Node26 -->
<g id="node24" class="node">
<title>Node26</title>
<polygon fill="#ffffff" stroke="#bfbfbf" points="861,-982.5 861,-1050.5 999,-1050.5 999,-982.5 861,-982.5"/>
<text text-anchor="start" x="869" y="-1038.5" font-family="Helvetica,sans-Serif" font-size="10.00" fill="#000000">vector&lt; std::pair&lt;</text>
<text text-anchor="middle" x="930" y="-1027.5" font-family="Helvetica,sans-Serif" font-size="10.00" fill="#000000"> value_type, value_type &gt; &gt;</text>
<polyline fill="none" stroke="#bfbfbf" points="861,-1020.5 999,-1020.5 "/>
<text text-anchor="middle" x="930" y="-1008.5" font-family="Helvetica,sans-Serif" font-size="10.00" fill="#000000"> </text>
<polyline fill="none" stroke="#bfbfbf" points="861,-1001.5 999,-1001.5 "/>
<text text-anchor="middle" x="930" y="-989.5" font-family="Helvetica,sans-Serif" font-size="10.00" fill="#000000"> </text>
</g>
<!-- Node26&#45;&gt;Node25 -->
<g id="edge27" class="edge">
<title>Node26&#45;&gt;Node25</title>
<path fill="none" stroke="#404040" d="M930,-982.4925C930,-965.2915 930,-944.0448 930,-924.8586"/>
<polygon fill="none" stroke="#404040" points="930.0001,-924.6112 926,-918.6112 930,-912.6112 934,-918.6112 930.0001,-924.6112"/>
<text text-anchor="middle" x="954.5" y="-945" font-family="Helvetica,sans-Serif" font-size="10.00" fill="#000000"> +elements</text>
</g>
</g>
</svg>
        <g id="navigator" transform="translate(0 0)" fill="#404254">
                <rect fill="#f2f5e9" fill-opacity="0.5" stroke="#606060" stroke-width=".5" x="0" y="0" width="60" height="60"/>
                <use id="zoomplus" xlink:href="#zoomPlus" x="17" y="9" onmousedown="handleZoom(evt,'in')"/>
                <use id="zoomminus" xlink:href="#zoomMin" x="42" y="9" onmousedown="handleZoom(evt,'out')"/>
                <use id="reset" xlink:href="#resetDef" x="30" y="36" onmousedown="handleReset()"/>
                <g id="arrowUp" xlink:href="#dirArrow" transform="translate(30 24)" onmousedown="handlePan(0,-1)">
                  <use xlink:href="#rim" fill="#404040">
                        <set attributeName="fill" to="#808080" begin="arrowUp.mouseover" end="arrowUp.mouseout"/>
                  </use>
                  <path fill="none" stroke="white" stroke-width="1.5" d="M0,-3.0v7 M-2.5,-0.5L0,-3.0L2.5,-0.5"/>
                </g>
                <g id="arrowRight" xlink:href="#dirArrow" transform="rotate(90) translate(36 -43)" onmousedown="handlePan(1,0)">
                  <use xlink:href="#rim" fill="#404040">
                        <set attributeName="fill" to="#808080" begin="arrowRight.mouseover" end="arrowRight.mouseout"/>
                  </use>
                  <path fill="none" stroke="white" stroke-width="1.5" d="M0,-3.0v7 M-2.5,-0.5L0,-3.0L2.5,-0.5"/>
                </g>
                <g id="arrowDown" xlink:href="#dirArrow" transform="rotate(180) translate(-30 -48)" onmousedown="handlePan(0,1)">
                  <use xlink:href="#rim" fill="#404040">
                        <set attributeName="fill" to="#808080" begin="arrowDown.mouseover" end="arrowDown.mouseout"/>
                  </use>
                  <path fill="none" stroke="white" stroke-width="1.5" d="M0,-3.0v7 M-2.5,-0.5L0,-3.0L2.5,-0.5"/>
                </g>
                <g id="arrowLeft" xlink:href="#dirArrow" transform="rotate(270) translate(-36 17)" onmousedown="handlePan(-1,0)">
                  <use xlink:href="#rim" fill="#404040">
                        <set attributeName="fill" to="#808080" begin="arrowLeft.mouseover" end="arrowLeft.mouseout"/>
                  </use>
                  <path fill="none" stroke="white" stroke-width="1.5" d="M0,-3.0v7 M-2.5,-0.5L0,-3.0L2.5,-0.5"/>
                </g>
        </g>
        <svg viewBox="0 0 15 15" width="100%" height="30px" preserveAspectRatio="xMaxYMin meet">
         <g id="arrow_out" transform="scale(0.3 0.3)">
          <a xlink:href="classMatrixFreeOperators_1_1MassOperator__coll__graph_org.svg" target="_base">
           <rect id="button" ry="5" rx="5" y="6" x="6" height="38" width="38"
                fill="#f2f5e9" fill-opacity="0.5" stroke="#606060" stroke-width="1.0"/>
           <path id="arrow"
             d="M 11.500037,31.436501 C 11.940474,20.09759 22.043105,11.32322 32.158766,21.979434 L 37.068811,17.246167 C 37.068811,17.246167 37.088388,32 37.088388,32 L 22.160133,31.978069 C 22.160133,31.978069 26.997745,27.140456 26.997745,27.140456 C 18.528582,18.264221 13.291696,25.230495 11.500037,31.436501 z"
             style="fill:#404040;"/>
          </a>
         </g>
        </svg>
</svg>
