<?xml version="1.0" encoding="UTF-8" standalone="no"?>
<!DOCTYPE svg PUBLIC "-//W3C//DTD SVG 1.1//EN"
 "http://www.w3.org/Graphics/SVG/1.1/DTD/svg11.dtd">
<!-- Generated by graphviz version 2.40.1 (20161225.0304)
 -->
<!-- Title: BlockVectorBase&lt; VectorType &gt; Pages: 1 -->
<!--zoomable 1229 -->
<svg id="main" version="1.1" xmlns="http://www.w3.org/2000/svg" xmlns:xlink="http://www.w3.org/1999/xlink" xml:space="preserve" onload="init(evt)">
<style type="text/css"><![CDATA[
.edge:hover path { stroke: red; }
.edge:hover polygon { stroke: red; fill: red; }
]]></style>
<script type="text/javascript"><![CDATA[
var edges = document.getElementsByTagName('g');
if (edges && edges.length) {
  for (var i=0;i<edges.length;i++) {
    if (edges[i].id.substr(0,4)=='edge') {
      edges[i].setAttribute('class','edge');
    }
  }
}
]]></script>
        <defs>
                <circle id="rim" cx="0" cy="0" r="7"/>
                <circle id="rim2" cx="0" cy="0" r="3.5"/>
                <g id="zoomPlus">
                        <use xlink:href="#rim" fill="#404040">
                                <set attributeName="fill" to="#808080" begin="zoomplus.mouseover" end="zoomplus.mouseout"/>
                        </use>
                        <path d="M-4,0h8M0,-4v8" fill="none" stroke="white" stroke-width="1.5" pointer-events="none"/>
                </g>
                <g id="zoomMin">
                        <use xlink:href="#rim" fill="#404040">
                                <set attributeName="fill" to="#808080" begin="zoomminus.mouseover" end="zoomminus.mouseout"/>
                        </use>
                        <path d="M-4,0h8" fill="none" stroke="white" stroke-width="1.5" pointer-events="none"/>
                </g>
                <g id="dirArrow">
                        <path fill="none" stroke="white" stroke-width="1.5" d="M0,-3.0v7 M-2.5,-0.5L0,-3.0L2.5,-0.5"/>
                </g>
               <g id="resetDef">
                       <use xlink:href="#rim2" fill="#404040">
                               <set attributeName="fill" to="#808080" begin="reset.mouseover" end="reset.mouseout"/>
                       </use>
               </g>
        </defs>

<script type="text/javascript">
var viewWidth = 845;
var viewHeight = 1229;
var sectionId = 'dynsection-1';
</script>
<script xlink:href="svgpan.js"/>
<svg id="graph" class="graph">
<g id="viewport">
<title>BlockVectorBase&lt; VectorType &gt;</title>
<polygon fill="#ffffff" stroke="transparent" points="-4,4 -4,-1225 841,-1225 841,4 -4,4"/>
<!-- Node11 -->
<g id="node1" class="node">
<title>Node11</title>
<polygon fill="#bfbfbf" stroke="#000000" points="389.5,-.5 389.5,-167.5 550.5,-167.5 550.5,-.5 389.5,-.5"/>
<text text-anchor="middle" x="470" y="-155.5" font-family="Helvetica,sans-Serif" font-size="10.00" fill="#000000">BlockVectorBase&lt; VectorType &gt;</text>
<polyline fill="none" stroke="#000000" points="389.5,-148.5 550.5,-148.5 "/>
<text text-anchor="middle" x="470" y="-136.5" font-family="Helvetica,sans-Serif" font-size="10.00" fill="#000000"> </text>
<polyline fill="none" stroke="#000000" points="389.5,-129.5 550.5,-129.5 "/>
<text text-anchor="start" x="397.5" y="-117.5" font-family="Helvetica,sans-Serif" font-size="10.00" fill="#000000">+ BlockVectorBase()</text>
<text text-anchor="start" x="397.5" y="-106.5" font-family="Helvetica,sans-Serif" font-size="10.00" fill="#000000">+ BlockVectorBase()</text>
<text text-anchor="start" x="397.5" y="-95.5" font-family="Helvetica,sans-Serif" font-size="10.00" fill="#000000">+ BlockVectorBase()</text>
<text text-anchor="start" x="397.5" y="-84.5" font-family="Helvetica,sans-Serif" font-size="10.00" fill="#000000">+ collect_sizes()</text>
<text text-anchor="start" x="397.5" y="-73.5" font-family="Helvetica,sans-Serif" font-size="10.00" fill="#000000">+ compress()</text>
<text text-anchor="start" x="397.5" y="-62.5" font-family="Helvetica,sans-Serif" font-size="10.00" fill="#000000">+ block()</text>
<text text-anchor="start" x="397.5" y="-51.5" font-family="Helvetica,sans-Serif" font-size="10.00" fill="#000000">+ block()</text>
<text text-anchor="start" x="397.5" y="-40.5" font-family="Helvetica,sans-Serif" font-size="10.00" fill="#000000">+ get_block_indices()</text>
<text text-anchor="start" x="397.5" y="-29.5" font-family="Helvetica,sans-Serif" font-size="10.00" fill="#000000">+ n_blocks()</text>
<text text-anchor="start" x="397.5" y="-18.5" font-family="Helvetica,sans-Serif" font-size="10.00" fill="#000000">+ size()</text>
<text text-anchor="start" x="397.5" y="-7.5" font-family="Helvetica,sans-Serif" font-size="10.00" fill="#000000">and 46 more...</text>
</g>
<!-- Node12 -->
<g id="node2" class="node">
<title>Node12</title>
<g id="a_node2"><a xlink:href="classSubscriptor.html" target="_top" xlink:title="{Subscriptor\n||+ Subscriptor()\l+ Subscriptor()\l+ Subscriptor()\l+ ~Subscriptor()\l+ operator=()\l+ operator=()\l+ serialize()\l+ subscribe()\l+ unsubscribe()\l+ n_subscriptions()\l+ list_subscribers()\l+ list_subscribers()\l+ ExcInUse()\l+ ExcNoSubscriber()\l&#45; check_no_subscribers()\l* subscribe()\l* unsubscribe()\l* n_subscriptions()\l* list_subscribers()\l* list_subscribers()\l}">
<polygon fill="#ffffff" stroke="#000000" points="269,-606.5 269,-872.5 395,-872.5 395,-606.5 269,-606.5"/>
<text text-anchor="middle" x="332" y="-860.5" font-family="Helvetica,sans-Serif" font-size="10.00" fill="#000000">Subscriptor</text>
<polyline fill="none" stroke="#000000" points="269,-853.5 395,-853.5 "/>
<text text-anchor="middle" x="332" y="-841.5" font-family="Helvetica,sans-Serif" font-size="10.00" fill="#000000"> </text>
<polyline fill="none" stroke="#000000" points="269,-834.5 395,-834.5 "/>
<text text-anchor="start" x="277" y="-822.5" font-family="Helvetica,sans-Serif" font-size="10.00" fill="#000000">+ Subscriptor()</text>
<text text-anchor="start" x="277" y="-811.5" font-family="Helvetica,sans-Serif" font-size="10.00" fill="#000000">+ Subscriptor()</text>
<text text-anchor="start" x="277" y="-800.5" font-family="Helvetica,sans-Serif" font-size="10.00" fill="#000000">+ Subscriptor()</text>
<text text-anchor="start" x="277" y="-789.5" font-family="Helvetica,sans-Serif" font-size="10.00" fill="#000000">+ ~Subscriptor()</text>
<text text-anchor="start" x="277" y="-778.5" font-family="Helvetica,sans-Serif" font-size="10.00" fill="#000000">+ operator=()</text>
<text text-anchor="start" x="277" y="-767.5" font-family="Helvetica,sans-Serif" font-size="10.00" fill="#000000">+ operator=()</text>
<text text-anchor="start" x="277" y="-756.5" font-family="Helvetica,sans-Serif" font-size="10.00" fill="#000000">+ serialize()</text>
<text text-anchor="start" x="277" y="-745.5" font-family="Helvetica,sans-Serif" font-size="10.00" fill="#000000">+ subscribe()</text>
<text text-anchor="start" x="277" y="-734.5" font-family="Helvetica,sans-Serif" font-size="10.00" fill="#000000">+ unsubscribe()</text>
<text text-anchor="start" x="277" y="-723.5" font-family="Helvetica,sans-Serif" font-size="10.00" fill="#000000">+ n_subscriptions()</text>
<text text-anchor="start" x="277" y="-712.5" font-family="Helvetica,sans-Serif" font-size="10.00" fill="#000000">+ list_subscribers()</text>
<text text-anchor="start" x="277" y="-701.5" font-family="Helvetica,sans-Serif" font-size="10.00" fill="#000000">+ list_subscribers()</text>
<text text-anchor="start" x="277" y="-690.5" font-family="Helvetica,sans-Serif" font-size="10.00" fill="#000000">+ ExcInUse()</text>
<text text-anchor="start" x="277" y="-679.5" font-family="Helvetica,sans-Serif" font-size="10.00" fill="#000000">+ ExcNoSubscriber()</text>
<text text-anchor="start" x="277" y="-668.5" font-family="Helvetica,sans-Serif" font-size="10.00" fill="#000000">&#45; check_no_subscribers()</text>
<text text-anchor="start" x="277" y="-657.5" font-family="Helvetica,sans-Serif" font-size="10.00" fill="#000000">* subscribe()</text>
<text text-anchor="start" x="277" y="-646.5" font-family="Helvetica,sans-Serif" font-size="10.00" fill="#000000">* unsubscribe()</text>
<text text-anchor="start" x="277" y="-635.5" font-family="Helvetica,sans-Serif" font-size="10.00" fill="#000000">* n_subscriptions()</text>
<text text-anchor="start" x="277" y="-624.5" font-family="Helvetica,sans-Serif" font-size="10.00" fill="#000000">* list_subscribers()</text>
<text text-anchor="start" x="277" y="-613.5" font-family="Helvetica,sans-Serif" font-size="10.00" fill="#000000">* list_subscribers()</text>
</a>
</g>
</g>
<!-- Node12&#45;&gt;Node11 -->
<g id="edge1" class="edge">
<title>Node12&#45;&gt;Node11</title>
<path fill="none" stroke="#191970" d="M334.9888,-596.0651C340.7351,-488.787 356.2399,-339.7303 397,-215 402.1759,-199.1613 409.3263,-183.0544 417.1405,-167.8034"/>
<polygon fill="none" stroke="#191970" points="331.48,-596.1479 334.4626,-606.3143 338.4708,-596.5069 331.48,-596.1479"/>
</g>
<!-- Node28 -->
<g id="node18" class="node">
<title>Node28</title>
<g id="a_node18"><a xlink:href="classBlockIndices.html" target="_top" xlink:title="{BlockIndices\n||+ BlockIndices()\l+ BlockIndices()\l+ BlockIndices()\l+ BlockIndices()\l+ BlockIndices()\l+ reinit()\l+ reinit()\l+ push_back()\l+ operator=()\l+ operator=()\l+ operator==()\l+ swap()\l+ memory_consumption()\l+ size()\l+ total_size()\l+ block_size()\l+ to_string()\l+ global_to_local()\l+ local_to_global()\l+ block_start()\l* size()\l* total_size()\l* block_size()\l* to_string()\l* global_to_local()\l* local_to_global()\l* block_start()\l}">
<polygon fill="#ffffff" stroke="#000000" points="406,-215.5 406,-558.5 534,-558.5 534,-215.5 406,-215.5"/>
<text text-anchor="middle" x="470" y="-546.5" font-family="Helvetica,sans-Serif" font-size="10.00" fill="#000000">BlockIndices</text>
<polyline fill="none" stroke="#000000" points="406,-539.5 534,-539.5 "/>
<text text-anchor="middle" x="470" y="-527.5" font-family="Helvetica,sans-Serif" font-size="10.00" fill="#000000"> </text>
<polyline fill="none" stroke="#000000" points="406,-520.5 534,-520.5 "/>
<text text-anchor="start" x="414" y="-508.5" font-family="Helvetica,sans-Serif" font-size="10.00" fill="#000000">+ BlockIndices()</text>
<text text-anchor="start" x="414" y="-497.5" font-family="Helvetica,sans-Serif" font-size="10.00" fill="#000000">+ BlockIndices()</text>
<text text-anchor="start" x="414" y="-486.5" font-family="Helvetica,sans-Serif" font-size="10.00" fill="#000000">+ BlockIndices()</text>
<text text-anchor="start" x="414" y="-475.5" font-family="Helvetica,sans-Serif" font-size="10.00" fill="#000000">+ BlockIndices()</text>
<text text-anchor="start" x="414" y="-464.5" font-family="Helvetica,sans-Serif" font-size="10.00" fill="#000000">+ BlockIndices()</text>
<text text-anchor="start" x="414" y="-453.5" font-family="Helvetica,sans-Serif" font-size="10.00" fill="#000000">+ reinit()</text>
<text text-anchor="start" x="414" y="-442.5" font-family="Helvetica,sans-Serif" font-size="10.00" fill="#000000">+ reinit()</text>
<text text-anchor="start" x="414" y="-431.5" font-family="Helvetica,sans-Serif" font-size="10.00" fill="#000000">+ push_back()</text>
<text text-anchor="start" x="414" y="-420.5" font-family="Helvetica,sans-Serif" font-size="10.00" fill="#000000">+ operator=()</text>
<text text-anchor="start" x="414" y="-409.5" font-family="Helvetica,sans-Serif" font-size="10.00" fill="#000000">+ operator=()</text>
<text text-anchor="start" x="414" y="-398.5" font-family="Helvetica,sans-Serif" font-size="10.00" fill="#000000">+ operator==()</text>
<text text-anchor="start" x="414" y="-387.5" font-family="Helvetica,sans-Serif" font-size="10.00" fill="#000000">+ swap()</text>
<text text-anchor="start" x="414" y="-376.5" font-family="Helvetica,sans-Serif" font-size="10.00" fill="#000000">+ memory_consumption()</text>
<text text-anchor="start" x="414" y="-365.5" font-family="Helvetica,sans-Serif" font-size="10.00" fill="#000000">+ size()</text>
<text text-anchor="start" x="414" y="-354.5" font-family="Helvetica,sans-Serif" font-size="10.00" fill="#000000">+ total_size()</text>
<text text-anchor="start" x="414" y="-343.5" font-family="Helvetica,sans-Serif" font-size="10.00" fill="#000000">+ block_size()</text>
<text text-anchor="start" x="414" y="-332.5" font-family="Helvetica,sans-Serif" font-size="10.00" fill="#000000">+ to_string()</text>
<text text-anchor="start" x="414" y="-321.5" font-family="Helvetica,sans-Serif" font-size="10.00" fill="#000000">+ global_to_local()</text>
<text text-anchor="start" x="414" y="-310.5" font-family="Helvetica,sans-Serif" font-size="10.00" fill="#000000">+ local_to_global()</text>
<text text-anchor="start" x="414" y="-299.5" font-family="Helvetica,sans-Serif" font-size="10.00" fill="#000000">+ block_start()</text>
<text text-anchor="start" x="414" y="-288.5" font-family="Helvetica,sans-Serif" font-size="10.00" fill="#000000">* size()</text>
<text text-anchor="start" x="414" y="-277.5" font-family="Helvetica,sans-Serif" font-size="10.00" fill="#000000">* total_size()</text>
<text text-anchor="start" x="414" y="-266.5" font-family="Helvetica,sans-Serif" font-size="10.00" fill="#000000">* block_size()</text>
<text text-anchor="start" x="414" y="-255.5" font-family="Helvetica,sans-Serif" font-size="10.00" fill="#000000">* to_string()</text>
<text text-anchor="start" x="414" y="-244.5" font-family="Helvetica,sans-Serif" font-size="10.00" fill="#000000">* global_to_local()</text>
<text text-anchor="start" x="414" y="-233.5" font-family="Helvetica,sans-Serif" font-size="10.00" fill="#000000">* local_to_global()</text>
<text text-anchor="start" x="414" y="-222.5" font-family="Helvetica,sans-Serif" font-size="10.00" fill="#000000">* block_start()</text>
</a>
</g>
</g>
<!-- Node12&#45;&gt;Node28 -->
<g id="edge20" class="edge">
<title>Node12&#45;&gt;Node28</title>
<path fill="none" stroke="#191970" d="M387.7763,-597.0278C393.7545,-581.7575 399.8703,-566.1356 405.935,-550.6444"/>
<polygon fill="none" stroke="#191970" points="384.4599,-595.8983 384.0735,-606.4861 390.9782,-598.4501 384.4599,-595.8983"/>
</g>
<!-- Node13 -->
<g id="node3" class="node">
<title>Node13</title>
<polygon fill="#ffffff" stroke="#bfbfbf" points="62,-920.5 62,-988.5 172,-988.5 172,-920.5 62,-920.5"/>
<text text-anchor="start" x="70" y="-976.5" font-family="Helvetica,sans-Serif" font-size="10.00" fill="#000000">std::map&lt; std::string,</text>
<text text-anchor="middle" x="117" y="-965.5" font-family="Helvetica,sans-Serif" font-size="10.00" fill="#000000"> unsigned int &gt;</text>
<polyline fill="none" stroke="#bfbfbf" points="62,-958.5 172,-958.5 "/>
<text text-anchor="middle" x="117" y="-946.5" font-family="Helvetica,sans-Serif" font-size="10.00" fill="#000000"> </text>
<polyline fill="none" stroke="#bfbfbf" points="62,-939.5 172,-939.5 "/>
<text text-anchor="middle" x="117" y="-927.5" font-family="Helvetica,sans-Serif" font-size="10.00" fill="#000000"> </text>
</g>
<!-- Node13&#45;&gt;Node12 -->
<g id="edge2" class="edge">
<title>Node13&#45;&gt;Node12</title>
<path fill="none" stroke="#404040" d="M151.0674,-920.4326C180.2259,-891.2741 223.1915,-848.3085 259.9371,-811.5629"/>
<polygon fill="none" stroke="#404040" points="260.1591,-811.3409 261.5733,-804.2698 268.6444,-802.8556 267.2302,-809.9267 260.1591,-811.3409"/>
<text text-anchor="middle" x="205.5" y="-894" font-family="Helvetica,sans-Serif" font-size="10.00" fill="#000000"> &#45;counter_map</text>
</g>
<!-- Node14 -->
<g id="node4" class="node">
<title>Node14</title>
<g id="a_node4"><a xlink:href="classint.html" target="_top" xlink:title="{int\n||}">
<polygon fill="#ffffff" stroke="#000000" points="30.5,-1047.5 30.5,-1104.5 59.5,-1104.5 59.5,-1047.5 30.5,-1047.5"/>
<text text-anchor="middle" x="45" y="-1092.5" font-family="Helvetica,sans-Serif" font-size="10.00" fill="#000000">int</text>
<polyline fill="none" stroke="#000000" points="30.5,-1085.5 59.5,-1085.5 "/>
<text text-anchor="middle" x="45" y="-1073.5" font-family="Helvetica,sans-Serif" font-size="10.00" fill="#000000"> </text>
<polyline fill="none" stroke="#000000" points="30.5,-1066.5 59.5,-1066.5 "/>
<text text-anchor="middle" x="45" y="-1054.5" font-family="Helvetica,sans-Serif" font-size="10.00" fill="#000000"> </text>
</a>
</g>
</g>
<!-- Node14&#45;&gt;Node13 -->
<g id="edge3" class="edge">
<title>Node14&#45;&gt;Node13</title>
<path fill="none" stroke="#404040" d="M47.789,-1047.4134C49.9938,-1034.4214 53.9396,-1019.2529 61,-1007 62.7465,-1003.969 64.7237,-1001.0075 66.8658,-998.1333"/>
<polygon fill="none" stroke="#404040" points="67.0179,-997.9504 67.7776,-990.7794 74.6891,-988.7225 73.9295,-995.8935 67.0179,-997.9504"/>
<text text-anchor="middle" x="85.5" y="-1015.5" font-family="Helvetica,sans-Serif" font-size="10.00" fill="#000000"> +elements</text>
</g>
<!-- Node15 -->
<g id="node5" class="node">
<title>Node15</title>
<g id="a_node5"><a xlink:title="STL class. ">
<polygon fill="#ffffff" stroke="#bfbfbf" points="83,-1047.5 83,-1104.5 143,-1104.5 143,-1047.5 83,-1047.5"/>
<text text-anchor="middle" x="113" y="-1092.5" font-family="Helvetica,sans-Serif" font-size="10.00" fill="#000000">std::string</text>
<polyline fill="none" stroke="#bfbfbf" points="83,-1085.5 143,-1085.5 "/>
<text text-anchor="middle" x="113" y="-1073.5" font-family="Helvetica,sans-Serif" font-size="10.00" fill="#000000"> </text>
<polyline fill="none" stroke="#bfbfbf" points="83,-1066.5 143,-1066.5 "/>
<text text-anchor="middle" x="113" y="-1054.5" font-family="Helvetica,sans-Serif" font-size="10.00" fill="#000000"> </text>
</a>
</g>
</g>
<!-- Node15&#45;&gt;Node13 -->
<g id="edge4" class="edge">
<title>Node15&#45;&gt;Node13</title>
<path fill="none" stroke="#404040" d="M113.9479,-1047.2062C114.4037,-1033.3632 114.9613,-1016.4255 115.4746,-1000.8327"/>
<polygon fill="none" stroke="#404040" points="115.4791,-1000.6942 111.6787,-994.5658 115.874,-988.7007 119.6744,-994.8291 115.4791,-1000.6942"/>
<text text-anchor="middle" x="130.5" y="-1015.5" font-family="Helvetica,sans-Serif" font-size="10.00" fill="#000000"> +keys</text>
</g>
<!-- Node16 -->
<g id="node6" class="node">
<title>Node16</title>
<g id="a_node6"><a xlink:title="STL class. ">
<polygon fill="#ffffff" stroke="#bfbfbf" points="65.5,-1152.5 65.5,-1220.5 160.5,-1220.5 160.5,-1152.5 65.5,-1152.5"/>
<text text-anchor="start" x="73.5" y="-1208.5" font-family="Helvetica,sans-Serif" font-size="10.00" fill="#000000">std::basic_string&lt;</text>
<text text-anchor="middle" x="113" y="-1197.5" font-family="Helvetica,sans-Serif" font-size="10.00" fill="#000000"> char &gt;</text>
<polyline fill="none" stroke="#bfbfbf" points="65.5,-1190.5 160.5,-1190.5 "/>
<text text-anchor="middle" x="113" y="-1178.5" font-family="Helvetica,sans-Serif" font-size="10.00" fill="#000000"> </text>
<polyline fill="none" stroke="#bfbfbf" points="65.5,-1171.5 160.5,-1171.5 "/>
<text text-anchor="middle" x="113" y="-1159.5" font-family="Helvetica,sans-Serif" font-size="10.00" fill="#000000"> </text>
</a>
</g>
</g>
<!-- Node16&#45;&gt;Node15 -->
<g id="edge5" class="edge">
<title>Node16&#45;&gt;Node15</title>
<path fill="none" stroke="#191970" d="M113,-1142.0661C113,-1129.4172 113,-1115.9812 113,-1104.5519"/>
<polygon fill="none" stroke="#191970" points="109.5001,-1142.4447 113,-1152.4447 116.5001,-1142.4447 109.5001,-1142.4447"/>
</g>
<!-- Node17 -->
<g id="node7" class="node">
<title>Node17</title>
<g id="a_node7"><a xlink:title="STL class. ">
<polygon fill="#ffffff" stroke="#bfbfbf" points="161,-1047.5 161,-1104.5 253,-1104.5 253,-1047.5 161,-1047.5"/>
<text text-anchor="middle" x="207" y="-1092.5" font-family="Helvetica,sans-Serif" font-size="10.00" fill="#000000">std::map&lt; K, T &gt;</text>
<polyline fill="none" stroke="#bfbfbf" points="161,-1085.5 253,-1085.5 "/>
<text text-anchor="middle" x="207" y="-1073.5" font-family="Helvetica,sans-Serif" font-size="10.00" fill="#000000"> </text>
<polyline fill="none" stroke="#bfbfbf" points="161,-1066.5 253,-1066.5 "/>
<text text-anchor="middle" x="207" y="-1054.5" font-family="Helvetica,sans-Serif" font-size="10.00" fill="#000000"> </text>
</a>
</g>
</g>
<!-- Node17&#45;&gt;Node13 -->
<g id="edge6" class="edge">
<title>Node17&#45;&gt;Node13</title>
<path fill="none" stroke="#ffa500" d="M179.6628,-1039.0948C167.7914,-1023.0684 153.9705,-1004.4102 142.3339,-988.7007"/>
<polygon fill="#ffa500" stroke="#ffa500" points="176.9065,-1041.2539 185.6713,-1047.2062 182.5314,-1037.0873 176.9065,-1041.2539"/>
<text text-anchor="start" x="170" y="-1021" font-family="Helvetica,sans-Serif" font-size="10.00" fill="#000000"> &lt; std::string, unsigned</text>
<text text-anchor="middle" x="220.5" y="-1010" font-family="Helvetica,sans-Serif" font-size="10.00" fill="#000000"> int &gt;</text>
</g>
<!-- Node18 -->
<g id="node8" class="node">
<title>Node18</title>
<polygon fill="#ffffff" stroke="#bfbfbf" points="192.5,-1158 192.5,-1215 221.5,-1215 221.5,-1158 192.5,-1158"/>
<text text-anchor="middle" x="207" y="-1203" font-family="Helvetica,sans-Serif" font-size="10.00" fill="#000000">K</text>
<polyline fill="none" stroke="#bfbfbf" points="192.5,-1196 221.5,-1196 "/>
<text text-anchor="middle" x="207" y="-1184" font-family="Helvetica,sans-Serif" font-size="10.00" fill="#000000"> </text>
<polyline fill="none" stroke="#bfbfbf" points="192.5,-1177 221.5,-1177 "/>
<text text-anchor="middle" x="207" y="-1165" font-family="Helvetica,sans-Serif" font-size="10.00" fill="#000000"> </text>
</g>
<!-- Node18&#45;&gt;Node17 -->
<g id="edge7" class="edge">
<title>Node18&#45;&gt;Node17</title>
<path fill="none" stroke="#404040" d="M207,-1157.7559C207,-1145.2224 207,-1130.3039 207,-1116.6631"/>
<polygon fill="none" stroke="#404040" points="207.0001,-1116.6002 203,-1110.6002 207,-1104.6002 211,-1110.6002 207.0001,-1116.6002"/>
<text text-anchor="middle" x="222.5" y="-1126" font-family="Helvetica,sans-Serif" font-size="10.00" fill="#000000"> +keys</text>
</g>
<!-- Node19 -->
<g id="node9" class="node">
<title>Node19</title>
<polygon fill="#ffffff" stroke="#bfbfbf" points="447.5,-1158 447.5,-1215 476.5,-1215 476.5,-1158 447.5,-1158"/>
<text text-anchor="middle" x="462" y="-1203" font-family="Helvetica,sans-Serif" font-size="10.00" fill="#000000">T</text>
<polyline fill="none" stroke="#bfbfbf" points="447.5,-1196 476.5,-1196 "/>
<text text-anchor="middle" x="462" y="-1184" font-family="Helvetica,sans-Serif" font-size="10.00" fill="#000000"> </text>
<polyline fill="none" stroke="#bfbfbf" points="447.5,-1177 476.5,-1177 "/>
<text text-anchor="middle" x="462" y="-1165" font-family="Helvetica,sans-Serif" font-size="10.00" fill="#000000"> </text>
</g>
<!-- Node19&#45;&gt;Node17 -->
<g id="edge8" class="edge">
<title>Node19&#45;&gt;Node17</title>
<path fill="none" stroke="#404040" d="M447.3271,-1181.0067C415.6656,-1169.0468 338.4711,-1139.3159 264.2184,-1105.407"/>
<polygon fill="none" stroke="#404040" points="264.1903,-1105.3941 257.0673,-1106.5181 253.2902,-1100.3754 260.4132,-1099.2514 264.1903,-1105.3941"/>
<text text-anchor="middle" x="351.5" y="-1126" font-family="Helvetica,sans-Serif" font-size="10.00" fill="#000000"> +elements</text>
</g>
<!-- Node24 -->
<g id="node14" class="node">
<title>Node24</title>
<g id="a_node14"><a xlink:title="STL class. ">
<polygon fill="#ffffff" stroke="#bfbfbf" points="530.5,-1047.5 530.5,-1104.5 617.5,-1104.5 617.5,-1047.5 530.5,-1047.5"/>
<text text-anchor="middle" x="574" y="-1092.5" font-family="Helvetica,sans-Serif" font-size="10.00" fill="#000000">std::vector&lt; T &gt;</text>
<polyline fill="none" stroke="#bfbfbf" points="530.5,-1085.5 617.5,-1085.5 "/>
<text text-anchor="middle" x="574" y="-1073.5" font-family="Helvetica,sans-Serif" font-size="10.00" fill="#000000"> </text>
<polyline fill="none" stroke="#bfbfbf" points="530.5,-1066.5 617.5,-1066.5 "/>
<text text-anchor="middle" x="574" y="-1054.5" font-family="Helvetica,sans-Serif" font-size="10.00" fill="#000000"> </text>
</a>
</g>
</g>
<!-- Node19&#45;&gt;Node24 -->
<g id="edge14" class="edge">
<title>Node19&#45;&gt;Node24</title>
<path fill="none" stroke="#404040" d="M476.642,-1172.0541C491.7242,-1157.1739 515.8494,-1133.3718 536.3102,-1113.1851"/>
<polygon fill="none" stroke="#404040" points="536.5694,-1112.9293 538.0313,-1105.8679 545.1117,-1104.5014 543.6499,-1111.5628 536.5694,-1112.9293"/>
<text text-anchor="middle" x="548.5" y="-1126" font-family="Helvetica,sans-Serif" font-size="10.00" fill="#000000"> +elements</text>
</g>
<!-- Node20 -->
<g id="node10" class="node">
<title>Node20</title>
<polygon fill="#ffffff" stroke="#bfbfbf" points="411,-926 411,-983 527,-983 527,-926 411,-926"/>
<text text-anchor="middle" x="469" y="-971" font-family="Helvetica,sans-Serif" font-size="10.00" fill="#000000">atomic&lt; unsigned int &gt;</text>
<polyline fill="none" stroke="#bfbfbf" points="411,-964 527,-964 "/>
<text text-anchor="middle" x="469" y="-952" font-family="Helvetica,sans-Serif" font-size="10.00" fill="#000000"> </text>
<polyline fill="none" stroke="#bfbfbf" points="411,-945 527,-945 "/>
<text text-anchor="middle" x="469" y="-933" font-family="Helvetica,sans-Serif" font-size="10.00" fill="#000000"> </text>
</g>
<!-- Node20&#45;&gt;Node12 -->
<g id="edge9" class="edge">
<title>Node20&#45;&gt;Node12</title>
<path fill="none" stroke="#404040" d="M450.8075,-925.9497C438.0368,-905.9082 420.0671,-877.7075 401.9611,-849.293"/>
<polygon fill="none" stroke="#404040" points="401.7424,-848.9497 395.1447,-846.0392 395.2937,-838.8296 401.8914,-841.7401 401.7424,-848.9497"/>
<text text-anchor="middle" x="451.5" y="-894" font-family="Helvetica,sans-Serif" font-size="10.00" fill="#000000"> &#45;counter</text>
</g>
<!-- Node21 -->
<g id="node11" class="node">
<title>Node21</title>
<polygon fill="#ffffff" stroke="#bfbfbf" points="0,-926 0,-983 44,-983 44,-926 0,-926"/>
<text text-anchor="middle" x="22" y="-971" font-family="Helvetica,sans-Serif" font-size="10.00" fill="#000000">mutex</text>
<polyline fill="none" stroke="#bfbfbf" points="0,-964 44,-964 "/>
<text text-anchor="middle" x="22" y="-952" font-family="Helvetica,sans-Serif" font-size="10.00" fill="#000000"> </text>
<polyline fill="none" stroke="#bfbfbf" points="0,-945 44,-945 "/>
<text text-anchor="middle" x="22" y="-933" font-family="Helvetica,sans-Serif" font-size="10.00" fill="#000000"> </text>
</g>
<!-- Node21&#45;&gt;Node12 -->
<g id="edge10" class="edge">
<title>Node21&#45;&gt;Node12</title>
<path fill="none" stroke="#404040" d="M44.3167,-928.1532C47.1327,-925.2903 50.06,-922.5092 53,-920 117.4439,-864.999 199.7667,-813.7008 258.2471,-779.9577"/>
<polygon fill="none" stroke="#404040" points="258.468,-779.8312 261.6848,-773.3773 268.8795,-773.8645 265.6626,-780.3184 258.468,-779.8312"/>
<text text-anchor="middle" x="105" y="-894" font-family="Helvetica,sans-Serif" font-size="10.00" fill="#000000"> &#45;mutex</text>
</g>
<!-- Node22 -->
<g id="node12" class="node">
<title>Node22</title>
<polygon fill="#ffffff" stroke="#bfbfbf" points="271.5,-920.5 271.5,-988.5 392.5,-988.5 392.5,-920.5 271.5,-920.5"/>
<text text-anchor="start" x="279.5" y="-976.5" font-family="Helvetica,sans-Serif" font-size="10.00" fill="#000000">std::vector&lt; std::atomic</text>
<text text-anchor="middle" x="332" y="-965.5" font-family="Helvetica,sans-Serif" font-size="10.00" fill="#000000">&lt; bool &gt; *&gt;</text>
<polyline fill="none" stroke="#bfbfbf" points="271.5,-958.5 392.5,-958.5 "/>
<text text-anchor="middle" x="332" y="-946.5" font-family="Helvetica,sans-Serif" font-size="10.00" fill="#000000"> </text>
<polyline fill="none" stroke="#bfbfbf" points="271.5,-939.5 392.5,-939.5 "/>
<text text-anchor="middle" x="332" y="-927.5" font-family="Helvetica,sans-Serif" font-size="10.00" fill="#000000"> </text>
</g>
<!-- Node22&#45;&gt;Node12 -->
<g id="edge11" class="edge">
<title>Node22&#45;&gt;Node12</title>
<path fill="none" stroke="#404040" d="M332,-920.4326C332,-910.0073 332,-897.8169 332,-884.7769"/>
<polygon fill="none" stroke="#404040" points="332.0001,-884.5888 328,-878.5888 332,-872.5888 336,-878.5888 332.0001,-884.5888"/>
<text text-anchor="middle" x="370.5" y="-894" font-family="Helvetica,sans-Serif" font-size="10.00" fill="#000000"> &#45;validity_pointers</text>
</g>
<!-- Node23 -->
<g id="node13" class="node">
<title>Node23</title>
<polygon fill="#ffffff" stroke="#bfbfbf" points="271.5,-1047.5 271.5,-1104.5 360.5,-1104.5 360.5,-1047.5 271.5,-1047.5"/>
<text text-anchor="middle" x="316" y="-1092.5" font-family="Helvetica,sans-Serif" font-size="10.00" fill="#000000">atomic&lt; bool &gt; *</text>
<polyline fill="none" stroke="#bfbfbf" points="271.5,-1085.5 360.5,-1085.5 "/>
<text text-anchor="middle" x="316" y="-1073.5" font-family="Helvetica,sans-Serif" font-size="10.00" fill="#000000"> </text>
<polyline fill="none" stroke="#bfbfbf" points="271.5,-1066.5 360.5,-1066.5 "/>
<text text-anchor="middle" x="316" y="-1054.5" font-family="Helvetica,sans-Serif" font-size="10.00" fill="#000000"> </text>
</g>
<!-- Node23&#45;&gt;Node22 -->
<g id="edge12" class="edge">
<title>Node23&#45;&gt;Node22</title>
<path fill="none" stroke="#404040" d="M319.7918,-1047.2062C321.6147,-1033.3632 323.8452,-1016.4255 325.8986,-1000.8327"/>
<polygon fill="none" stroke="#404040" points="325.9294,-1000.598 322.747,-994.1271 327.4962,-988.7007 330.6786,-995.1717 325.9294,-1000.598"/>
<text text-anchor="middle" x="348.5" y="-1015.5" font-family="Helvetica,sans-Serif" font-size="10.00" fill="#000000"> +elements</text>
</g>
<!-- Node24&#45;&gt;Node22 -->
<g id="edge13" class="edge">
<title>Node24&#45;&gt;Node22</title>
<path fill="none" stroke="#ffa500" d="M521.0835,-1056.4345C504.837,-1049.1325 487.4479,-1039.9149 473,-1029 462.6915,-1021.2123 464.6932,-1014.2505 454,-1007 433.7579,-993.2748 424.5679,-998.4242 402,-989 398.9994,-987.747 395.9463,-986.4257 392.8767,-985.0599"/>
<polygon fill="#ffa500" stroke="#ffa500" points="519.9193,-1059.7444 530.4863,-1060.5107 522.7035,-1053.322 519.9193,-1059.7444"/>
<text text-anchor="middle" x="528" y="-1015.5" font-family="Helvetica,sans-Serif" font-size="10.00" fill="#000000"> &lt; std::atomic&lt; bool &gt; *&gt;</text>
</g>
<!-- Node26 -->
<g id="node16" class="node">
<title>Node26</title>
<polygon fill="#ffffff" stroke="#bfbfbf" points="674.5,-926 674.5,-983 805.5,-983 805.5,-926 674.5,-926"/>
<text text-anchor="middle" x="740" y="-971" font-family="Helvetica,sans-Serif" font-size="10.00" fill="#000000">std::vector&lt; VectorType &gt;</text>
<polyline fill="none" stroke="#bfbfbf" points="674.5,-964 805.5,-964 "/>
<text text-anchor="middle" x="740" y="-952" font-family="Helvetica,sans-Serif" font-size="10.00" fill="#000000"> </text>
<polyline fill="none" stroke="#bfbfbf" points="674.5,-945 805.5,-945 "/>
<text text-anchor="middle" x="740" y="-933" font-family="Helvetica,sans-Serif" font-size="10.00" fill="#000000"> </text>
</g>
<!-- Node24&#45;&gt;Node26 -->
<g id="edge18" class="edge">
<title>Node24&#45;&gt;Node26</title>
<path fill="none" stroke="#ffa500" d="M627.1127,-1053.7901C641.3052,-1046.7877 656.2348,-1038.3944 669,-1029 686.8438,-1015.8681 704.0594,-997.9786 717.0688,-983.0215"/>
<polygon fill="#ffa500" stroke="#ffa500" points="625.4326,-1050.7139 617.9228,-1058.1873 628.454,-1057.0282 625.4326,-1050.7139"/>
<text text-anchor="middle" x="728" y="-1015.5" font-family="Helvetica,sans-Serif" font-size="10.00" fill="#000000"> &lt; VectorType &gt;</text>
</g>
<!-- Node29 -->
<g id="node19" class="node">
<title>Node29</title>
<polygon fill="#ffffff" stroke="#bfbfbf" points="545.5,-920.5 545.5,-988.5 656.5,-988.5 656.5,-920.5 545.5,-920.5"/>
<text text-anchor="start" x="553.5" y="-976.5" font-family="Helvetica,sans-Serif" font-size="10.00" fill="#000000">std::vector&lt; unsigned</text>
<text text-anchor="middle" x="601" y="-965.5" font-family="Helvetica,sans-Serif" font-size="10.00" fill="#000000"> int &gt;</text>
<polyline fill="none" stroke="#bfbfbf" points="545.5,-958.5 656.5,-958.5 "/>
<text text-anchor="middle" x="601" y="-946.5" font-family="Helvetica,sans-Serif" font-size="10.00" fill="#000000"> </text>
<polyline fill="none" stroke="#bfbfbf" points="545.5,-939.5 656.5,-939.5 "/>
<text text-anchor="middle" x="601" y="-927.5" font-family="Helvetica,sans-Serif" font-size="10.00" fill="#000000"> </text>
</g>
<!-- Node24&#45;&gt;Node29 -->
<g id="edge23" class="edge">
<title>Node24&#45;&gt;Node29</title>
<path fill="none" stroke="#ffa500" d="M584.9227,-1037.5291C585.6536,-1034.6499 586.3547,-1031.7835 587,-1029 590.0315,-1015.9232 592.8699,-1001.4399 595.1877,-988.7469"/>
<polygon fill="#ffa500" stroke="#ffa500" points="581.5208,-1036.7034 582.36,-1047.265 588.2903,-1038.4853 581.5208,-1036.7034"/>
<text text-anchor="middle" x="628" y="-1015.5" font-family="Helvetica,sans-Serif" font-size="10.00" fill="#000000"> &lt; unsigned int &gt;</text>
</g>
<!-- Node25 -->
<g id="node15" class="node">
<title>Node25</title>
<polygon fill="#ffffff" stroke="#bfbfbf" points="190.5,-926 190.5,-983 253.5,-983 253.5,-926 190.5,-926"/>
<text text-anchor="middle" x="222" y="-971" font-family="Helvetica,sans-Serif" font-size="10.00" fill="#000000">type_info *</text>
<polyline fill="none" stroke="#bfbfbf" points="190.5,-964 253.5,-964 "/>
<text text-anchor="middle" x="222" y="-952" font-family="Helvetica,sans-Serif" font-size="10.00" fill="#000000"> </text>
<polyline fill="none" stroke="#bfbfbf" points="190.5,-945 253.5,-945 "/>
<text text-anchor="middle" x="222" y="-933" font-family="Helvetica,sans-Serif" font-size="10.00" fill="#000000"> </text>
</g>
<!-- Node25&#45;&gt;Node12 -->
<g id="edge15" class="edge">
<title>Node25&#45;&gt;Node12</title>
<path fill="none" stroke="#404040" d="M236.6072,-925.9497C243.8893,-911.7164 253.277,-893.3677 263.314,-873.7499"/>
<polygon fill="none" stroke="#404040" points="263.3144,-873.7491 262.4862,-866.5857 268.7801,-863.0661 269.6082,-870.2296 263.3144,-873.7491"/>
<text text-anchor="middle" x="278" y="-894" font-family="Helvetica,sans-Serif" font-size="10.00" fill="#000000"> &#45;object_info</text>
</g>
<!-- Node26&#45;&gt;Node11 -->
<g id="edge16" class="edge">
<title>Node26&#45;&gt;Node11</title>
<path fill="none" stroke="#404040" d="M736.4042,-925.6787C722.6506,-821.6929 667.7058,-457.6453 542,-186 540.8536,-183.5226 539.6457,-181.0421 538.3852,-178.5649"/>
<polygon fill="none" stroke="#404040" points="538.245,-178.3049 531.8762,-174.9228 532.5486,-167.7431 538.9174,-171.1252 538.245,-178.3049"/>
<text text-anchor="middle" x="704" y="-580" font-family="Helvetica,sans-Serif" font-size="10.00" fill="#000000"> #components</text>
</g>
<!-- Node27 -->
<g id="node17" class="node">
<title>Node27</title>
<g id="a_node17"><a xlink:href="classVectorType.html" target="_top" xlink:title="{VectorType\n||}">
<polygon fill="#ffffff" stroke="#000000" points="767.5,-1047.5 767.5,-1104.5 834.5,-1104.5 834.5,-1047.5 767.5,-1047.5"/>
<text text-anchor="middle" x="801" y="-1092.5" font-family="Helvetica,sans-Serif" font-size="10.00" fill="#000000">VectorType</text>
<polyline fill="none" stroke="#000000" points="767.5,-1085.5 834.5,-1085.5 "/>
<text text-anchor="middle" x="801" y="-1073.5" font-family="Helvetica,sans-Serif" font-size="10.00" fill="#000000"> </text>
<polyline fill="none" stroke="#000000" points="767.5,-1066.5 834.5,-1066.5 "/>
<text text-anchor="middle" x="801" y="-1054.5" font-family="Helvetica,sans-Serif" font-size="10.00" fill="#000000"> </text>
</a>
</g>
</g>
<!-- Node27&#45;&gt;Node26 -->
<g id="edge17" class="edge">
<title>Node27&#45;&gt;Node26</title>
<path fill="none" stroke="#404040" d="M794.1433,-1047.298C790.5285,-1034.5684 785.4824,-1019.6428 779,-1007 776.6397,-1002.3965 773.8841,-997.7687 770.9488,-993.271"/>
<polygon fill="none" stroke="#404040" points="770.72,-992.9415 764.012,-990.295 763.8749,-983.0852 770.5829,-985.7316 770.72,-992.9415"/>
<text text-anchor="middle" x="812.5" y="-1015.5" font-family="Helvetica,sans-Serif" font-size="10.00" fill="#000000"> +elements</text>
</g>
<!-- Node28&#45;&gt;Node11 -->
<g id="edge19" class="edge">
<title>Node28&#45;&gt;Node11</title>
<path fill="none" stroke="#404040" d="M470,-215.1379C470,-203.0728 470,-191.1832 470,-179.7826"/>
<polygon fill="none" stroke="#404040" points="470.0001,-179.6186 466,-173.6186 470,-167.6186 474,-173.6185 470.0001,-179.6186"/>
<text text-anchor="middle" x="504" y="-189" font-family="Helvetica,sans-Serif" font-size="10.00" fill="#000000"> #block_indices</text>
</g>
<!-- Node29&#45;&gt;Node28 -->
<g id="edge21" class="edge">
<title>Node29&#45;&gt;Node28</title>
<path fill="none" stroke="#404040" d="M594.2074,-920.2859C580.9033,-853.8846 550.0788,-702.9947 520,-577 519.4805,-574.8241 518.9549,-572.6349 518.4237,-570.4347"/>
<polygon fill="none" stroke="#404040" points="518.3746,-570.233 513.0679,-565.3505 515.5338,-558.5741 520.8405,-563.4566 518.3746,-570.233"/>
<text text-anchor="middle" x="614" y="-737" font-family="Helvetica,sans-Serif" font-size="10.00" fill="#000000"> &#45;start_indices</text>
</g>
<!-- Node30 -->
<g id="node20" class="node">
<title>Node30</title>
<g id="a_node20"><a xlink:href="classunsigned_01int.html" target="_top" xlink:title="{unsigned int\n||}">
<polygon fill="#ffffff" stroke="#000000" points="378.5,-1047.5 378.5,-1104.5 447.5,-1104.5 447.5,-1047.5 378.5,-1047.5"/>
<text text-anchor="middle" x="413" y="-1092.5" font-family="Helvetica,sans-Serif" font-size="10.00" fill="#000000">unsigned int</text>
<polyline fill="none" stroke="#000000" points="378.5,-1085.5 447.5,-1085.5 "/>
<text text-anchor="middle" x="413" y="-1073.5" font-family="Helvetica,sans-Serif" font-size="10.00" fill="#000000"> </text>
<polyline fill="none" stroke="#000000" points="378.5,-1066.5 447.5,-1066.5 "/>
<text text-anchor="middle" x="413" y="-1054.5" font-family="Helvetica,sans-Serif" font-size="10.00" fill="#000000"> </text>
</a>
</g>
</g>
<!-- Node30&#45;&gt;Node29 -->
<g id="edge22" class="edge">
<title>Node30&#45;&gt;Node29</title>
<path fill="none" stroke="#404040" d="M400.4754,-1047.1603C396.6339,-1033.4861 395.5684,-1017.8161 405,-1007 422.4639,-986.9724 492.6009,-995.829 533.3206,-988.5774"/>
<polygon fill="none" stroke="#404040" points="533.5068,-988.5319 538.3844,-983.2208 545.1631,-985.6805 540.2854,-990.9916 533.5068,-988.5319"/>
<text text-anchor="middle" x="429.5" y="-1015.5" font-family="Helvetica,sans-Serif" font-size="10.00" fill="#000000"> +elements</text>
</g>
<!-- Node31 -->
<g id="node21" class="node">
<title>Node31</title>
<polygon fill="#ffffff" stroke="#bfbfbf" points="442,-711 442,-768 498,-768 498,-711 442,-711"/>
<text text-anchor="middle" x="470" y="-756" font-family="Helvetica,sans-Serif" font-size="10.00" fill="#000000">unsigned</text>
<polyline fill="none" stroke="#bfbfbf" points="442,-749 498,-749 "/>
<text text-anchor="middle" x="470" y="-737" font-family="Helvetica,sans-Serif" font-size="10.00" fill="#000000"> </text>
<polyline fill="none" stroke="#bfbfbf" points="442,-730 498,-730 "/>
<text text-anchor="middle" x="470" y="-718" font-family="Helvetica,sans-Serif" font-size="10.00" fill="#000000"> </text>
</g>
<!-- Node31&#45;&gt;Node28 -->
<g id="edge24" class="edge">
<title>Node31&#45;&gt;Node28</title>
<path fill="none" stroke="#404040" d="M470,-710.952C470,-679.3435 470,-625.5864 470,-570.8501"/>
<polygon fill="none" stroke="#404040" points="470.0001,-570.7938 466,-564.7938 470,-558.7938 474,-564.7938 470.0001,-570.7938"/>
<text text-anchor="middle" x="493" y="-580" font-family="Helvetica,sans-Serif" font-size="10.00" fill="#000000"> &#45;n_blocks</text>
</g>
</g>
</svg>
        <g id="navigator" transform="translate(0 0)" fill="#404254">
                <rect fill="#f2f5e9" fill-opacity="0.5" stroke="#606060" stroke-width=".5" x="0" y="0" width="60" height="60"/>
                <use id="zoomplus" xlink:href="#zoomPlus" x="17" y="9" onmousedown="handleZoom(evt,'in')"/>
                <use id="zoomminus" xlink:href="#zoomMin" x="42" y="9" onmousedown="handleZoom(evt,'out')"/>
                <use id="reset" xlink:href="#resetDef" x="30" y="36" onmousedown="handleReset()"/>
                <g id="arrowUp" xlink:href="#dirArrow" transform="translate(30 24)" onmousedown="handlePan(0,-1)">
                  <use xlink:href="#rim" fill="#404040">
                        <set attributeName="fill" to="#808080" begin="arrowUp.mouseover" end="arrowUp.mouseout"/>
                  </use>
                  <path fill="none" stroke="white" stroke-width="1.5" d="M0,-3.0v7 M-2.5,-0.5L0,-3.0L2.5,-0.5"/>
                </g>
                <g id="arrowRight" xlink:href="#dirArrow" transform="rotate(90) translate(36 -43)" onmousedown="handlePan(1,0)">
                  <use xlink:href="#rim" fill="#404040">
                        <set attributeName="fill" to="#808080" begin="arrowRight.mouseover" end="arrowRight.mouseout"/>
                  </use>
                  <path fill="none" stroke="white" stroke-width="1.5" d="M0,-3.0v7 M-2.5,-0.5L0,-3.0L2.5,-0.5"/>
                </g>
                <g id="arrowDown" xlink:href="#dirArrow" transform="rotate(180) translate(-30 -48)" onmousedown="handlePan(0,1)">
                  <use xlink:href="#rim" fill="#404040">
                        <set attributeName="fill" to="#808080" begin="arrowDown.mouseover" end="arrowDown.mouseout"/>
                  </use>
                  <path fill="none" stroke="white" stroke-width="1.5" d="M0,-3.0v7 M-2.5,-0.5L0,-3.0L2.5,-0.5"/>
                </g>
                <g id="arrowLeft" xlink:href="#dirArrow" transform="rotate(270) translate(-36 17)" onmousedown="handlePan(-1,0)">
                  <use xlink:href="#rim" fill="#404040">
                        <set attributeName="fill" to="#808080" begin="arrowLeft.mouseover" end="arrowLeft.mouseout"/>
                  </use>
                  <path fill="none" stroke="white" stroke-width="1.5" d="M0,-3.0v7 M-2.5,-0.5L0,-3.0L2.5,-0.5"/>
                </g>
        </g>
        <svg viewBox="0 0 15 15" width="100%" height="30px" preserveAspectRatio="xMaxYMin meet">
         <g id="arrow_out" transform="scale(0.3 0.3)">
          <a xlink:href="classBlockVectorBase__coll__graph_org.svg" target="_base">
           <rect id="button" ry="5" rx="5" y="6" x="6" height="38" width="38"
                fill="#f2f5e9" fill-opacity="0.5" stroke="#606060" stroke-width="1.0"/>
           <path id="arrow"
             d="M 11.500037,31.436501 C 11.940474,20.09759 22.043105,11.32322 32.158766,21.979434 L 37.068811,17.246167 C 37.068811,17.246167 37.088388,32 37.088388,32 L 22.160133,31.978069 C 22.160133,31.978069 26.997745,27.140456 26.997745,27.140456 C 18.528582,18.264221 13.291696,25.230495 11.500037,31.436501 z"
             style="fill:#404040;"/>
          </a>
         </g>
        </svg>
</svg>
