<?xml version="1.0" encoding="UTF-8" standalone="no"?>
<!DOCTYPE svg PUBLIC "-//W3C//DTD SVG 1.1//EN"
 "http://www.w3.org/Graphics/SVG/1.1/DTD/svg11.dtd">
<!-- Generated by graphviz version 2.40.1 (20161225.0304)
 -->
<!-- Title: FEEvaluationAccess&lt; 1, 1, Number, is_face, VectorizedArrayType &gt; Pages: 1 -->
<svg width="772pt" height="77pt"
 viewBox="0.00 0.00 772.00 77.00" xmlns="http://www.w3.org/2000/svg" xmlns:xlink="http://www.w3.org/1999/xlink">
<g id="graph0" class="graph" transform="scale(1 1) rotate(0) translate(4 73)">
<title>FEEvaluationAccess&lt; 1, 1, Number, is_face, VectorizedArrayType &gt;</title>
<polygon fill="#ffffff" stroke="transparent" points="-4,4 -4,-73 768,-73 768,4 -4,4"/>
<!-- Node0 -->
<g id="node1" class="node">
<title>Node0</title>
<polygon fill="#bfbfbf" stroke="#000000" points="641,-27.5 641,-68.5 764,-68.5 764,-27.5 641,-27.5"/>
<text text-anchor="start" x="649" y="-56.5" font-family="Helvetica,sans-Serif" font-size="10.00" fill="#000000">FEEvaluationAccess</text>
<text text-anchor="start" x="649" y="-45.5" font-family="Helvetica,sans-Serif" font-size="10.00" fill="#000000">&lt; 1, 1, Number, is_face,</text>
<text text-anchor="middle" x="702.5" y="-34.5" font-family="Helvetica,sans-Serif" font-size="10.00" fill="#000000"> VectorizedArrayType &gt;</text>
</g>
<!-- Node1 -->
<g id="node2" class="node">
<title>Node1</title>
<g id="a_node2"><a xlink:href="classFEEvaluationBase.html" target="_top" xlink:title="FEEvaluationBase\&lt; 1,\l 1, Number, is_face,\l VectorizedArrayType \&gt;">
<polygon fill="#ffffff" stroke="#000000" points="484,-27.5 484,-68.5 604,-68.5 604,-27.5 484,-27.5"/>
<text text-anchor="start" x="492" y="-56.5" font-family="Helvetica,sans-Serif" font-size="10.00" fill="#000000">FEEvaluationBase&lt; 1,</text>
<text text-anchor="start" x="492" y="-45.5" font-family="Helvetica,sans-Serif" font-size="10.00" fill="#000000"> 1, Number, is_face,</text>
<text text-anchor="middle" x="544" y="-34.5" font-family="Helvetica,sans-Serif" font-size="10.00" fill="#000000"> VectorizedArrayType &gt;</text>
</a>
</g>
</g>
<!-- Node1&#45;&gt;Node0 -->
<g id="edge1" class="edge">
<title>Node1&#45;&gt;Node0</title>
<path fill="none" stroke="#191970" d="M614.6056,-48C623.4,-48 632.338,-48 640.9796,-48"/>
<polygon fill="#191970" stroke="#191970" points="614.3742,-44.5001 604.3742,-48 614.3742,-51.5001 614.3742,-44.5001"/>
</g>
<!-- Node2 -->
<g id="node3" class="node">
<title>Node2</title>
<g id="a_node3"><a xlink:href="classFEEvaluationBaseData.html" target="_top" xlink:title="FEEvaluationBaseData\l\&lt; dim, Number, is_face,\l VectorizedArrayType \&gt;">
<polygon fill="#ffffff" stroke="#000000" points="0,-24.5 0,-65.5 122,-65.5 122,-24.5 0,-24.5"/>
<text text-anchor="start" x="8" y="-53.5" font-family="Helvetica,sans-Serif" font-size="10.00" fill="#000000">FEEvaluationBaseData</text>
<text text-anchor="start" x="8" y="-42.5" font-family="Helvetica,sans-Serif" font-size="10.00" fill="#000000">&lt; dim, Number, is_face,</text>
<text text-anchor="middle" x="61" y="-31.5" font-family="Helvetica,sans-Serif" font-size="10.00" fill="#000000"> VectorizedArrayType &gt;</text>
</a>
</g>
</g>
<!-- Node2&#45;&gt;Node1 -->
<g id="edge2" class="edge">
<title>Node2&#45;&gt;Node1</title>
<path fill="none" stroke="#191970" d="M132.249,-49.6361C141.2519,-50.1413 150.3393,-50.612 159,-51 295.3258,-57.108 329.7156,-62.9707 466,-56 471.7099,-55.708 477.6457,-55.2964 483.5796,-54.8124"/>
<polygon fill="#191970" stroke="#191970" points="132.3327,-46.1352 122.1477,-49.0537 131.9296,-53.1236 132.3327,-46.1352"/>
</g>
<!-- Node3 -->
<g id="node4" class="node">
<title>Node3</title>
<g id="a_node4"><a xlink:href="classFEEvaluationBase.html" target="_top" xlink:title="FEEvaluationBase\&lt; dim,\l n_components_, Number,\l is_face, VectorizedArrayType \&gt;">
<polygon fill="#ffffff" stroke="#000000" points="159,-.5 159,-41.5 317,-41.5 317,-.5 159,-.5"/>
<text text-anchor="start" x="167" y="-29.5" font-family="Helvetica,sans-Serif" font-size="10.00" fill="#000000">FEEvaluationBase&lt; dim,</text>
<text text-anchor="start" x="167" y="-18.5" font-family="Helvetica,sans-Serif" font-size="10.00" fill="#000000"> n_components_, Number,</text>
<text text-anchor="middle" x="238" y="-7.5" font-family="Helvetica,sans-Serif" font-size="10.00" fill="#000000"> is_face, VectorizedArrayType &gt;</text>
</a>
</g>
</g>
<!-- Node2&#45;&gt;Node3 -->
<g id="edge4" class="edge">
<title>Node2&#45;&gt;Node3</title>
<path fill="none" stroke="#191970" d="M132.4974,-35.3054C141.1981,-34.1257 150.1267,-32.915 158.9295,-31.7214"/>
<polygon fill="#191970" stroke="#191970" points="131.8483,-31.8613 122.4093,-36.6733 132.7889,-38.7979 131.8483,-31.8613"/>
</g>
<!-- Node3&#45;&gt;Node1 -->
<g id="edge3" class="edge">
<title>Node3&#45;&gt;Node1</title>
<path fill="none" stroke="#ffa500" stroke-dasharray="5,2" d="M327.321,-23.5972C369.485,-25.4609 420.4391,-28.6322 466,-34 471.7387,-34.6761 477.6939,-35.5072 483.64,-36.4242"/>
<polygon fill="#ffa500" stroke="#ffa500" points="327.2182,-20.0898 317.0787,-23.1624 326.9212,-27.0835 327.2182,-20.0898"/>
<text text-anchor="start" x="335" y="-48" font-family="Helvetica,sans-Serif" font-size="10.00" fill="#000000"> &lt; 1, 1, Number, is</text>
<text text-anchor="middle" x="400.5" y="-37" font-family="Helvetica,sans-Serif" font-size="10.00" fill="#000000">_face, VectorizedArrayType &gt;</text>
</g>
</g>
</svg>
