<?xml version="1.0" encoding="UTF-8" standalone="no"?>
<!DOCTYPE svg PUBLIC "-//W3C//DTD SVG 1.1//EN"
 "http://www.w3.org/Graphics/SVG/1.1/DTD/svg11.dtd">
<!-- Generated by graphviz version 2.40.1 (20161225.0304)
 -->
<!-- Title: FE_SimplexPoly&lt; dim, spacedim &gt; Pages: 1 -->
<svg width="304pt" height="296pt"
 viewBox="0.00 0.00 303.50 296.00" xmlns="http://www.w3.org/2000/svg" xmlns:xlink="http://www.w3.org/1999/xlink">
<g id="graph0" class="graph" transform="scale(1 1) rotate(0) translate(4 292)">
<title>FE_SimplexPoly&lt; dim, spacedim &gt;</title>
<polygon fill="#ffffff" stroke="transparent" points="-4,4 -4,-292 299.5,-292 299.5,4 -4,4"/>
<!-- Node0 -->
<g id="node1" class="node">
<title>Node0</title>
<polygon fill="#bfbfbf" stroke="#000000" points="79,-67.5 79,-97.5 196,-97.5 196,-67.5 79,-67.5"/>
<text text-anchor="start" x="87" y="-85.5" font-family="Helvetica,sans-Serif" font-size="10.00" fill="#000000">FE_SimplexPoly&lt; dim,</text>
<text text-anchor="middle" x="137.5" y="-74.5" font-family="Helvetica,sans-Serif" font-size="10.00" fill="#000000"> spacedim &gt;</text>
</g>
<!-- Node5 -->
<g id="node6" class="node">
<title>Node5</title>
<g id="a_node6"><a xlink:href="classFE__SimplexDGP.html" target="_top" xlink:title="FE_SimplexDGP\&lt; dim,\l spacedim \&gt;">
<polygon fill="#ffffff" stroke="#000000" points="0,-.5 0,-30.5 119,-30.5 119,-.5 0,-.5"/>
<text text-anchor="start" x="8" y="-18.5" font-family="Helvetica,sans-Serif" font-size="10.00" fill="#000000">FE_SimplexDGP&lt; dim,</text>
<text text-anchor="middle" x="59.5" y="-7.5" font-family="Helvetica,sans-Serif" font-size="10.00" fill="#000000"> spacedim &gt;</text>
</a>
</g>
</g>
<!-- Node0&#45;&gt;Node5 -->
<g id="edge5" class="edge">
<title>Node0&#45;&gt;Node5</title>
<path fill="none" stroke="#191970" d="M111.884,-60.4965C100.5016,-50.7193 87.3884,-39.4554 77.1294,-30.6432"/>
<polygon fill="#191970" stroke="#191970" points="109.9343,-63.4357 119.8006,-67.2967 114.4955,-58.1257 109.9343,-63.4357"/>
</g>
<!-- Node6 -->
<g id="node7" class="node">
<title>Node6</title>
<g id="a_node7"><a xlink:href="classFE__SimplexP.html" target="_top" xlink:title="FE_SimplexP\&lt; dim, spacedim \&gt;">
<polygon fill="#ffffff" stroke="#000000" points="137.5,-6 137.5,-25 295.5,-25 295.5,-6 137.5,-6"/>
<text text-anchor="middle" x="216.5" y="-13" font-family="Helvetica,sans-Serif" font-size="10.00" fill="#000000">FE_SimplexP&lt; dim, spacedim &gt;</text>
</a>
</g>
</g>
<!-- Node0&#45;&gt;Node6 -->
<g id="edge6" class="edge">
<title>Node0&#45;&gt;Node6</title>
<path fill="none" stroke="#191970" d="M163.3924,-60.5406C177.5547,-48.5296 194.3756,-34.2637 205.2337,-25.055"/>
<polygon fill="#191970" stroke="#191970" points="160.789,-58.1593 155.4263,-67.2967 165.3167,-63.4979 160.789,-58.1593"/>
</g>
<!-- Node1 -->
<g id="node2" class="node">
<title>Node1</title>
<g id="a_node2"><a xlink:href="classFE__Poly.html" target="_top" xlink:title="FE_Poly\&lt; dim, spacedim \&gt;">
<polygon fill="#ffffff" stroke="#000000" points="69.5,-134.5 69.5,-153.5 205.5,-153.5 205.5,-134.5 69.5,-134.5"/>
<text text-anchor="middle" x="137.5" y="-141.5" font-family="Helvetica,sans-Serif" font-size="10.00" fill="#000000">FE_Poly&lt; dim, spacedim &gt;</text>
</a>
</g>
</g>
<!-- Node1&#45;&gt;Node0 -->
<g id="edge1" class="edge">
<title>Node1&#45;&gt;Node0</title>
<path fill="none" stroke="#191970" d="M137.5,-124.3693C137.5,-115.681 137.5,-105.6241 137.5,-97.5446"/>
<polygon fill="#191970" stroke="#191970" points="134.0001,-124.3906 137.5,-134.3906 141.0001,-124.3907 134.0001,-124.3906"/>
</g>
<!-- Node2 -->
<g id="node3" class="node">
<title>Node2</title>
<g id="a_node3"><a xlink:href="classFiniteElement.html" target="_top" xlink:title="FiniteElement\&lt; dim,\l spacedim \&gt;">
<polygon fill="#ffffff" stroke="#000000" points="85.5,-190.5 85.5,-220.5 189.5,-220.5 189.5,-190.5 85.5,-190.5"/>
<text text-anchor="start" x="93.5" y="-208.5" font-family="Helvetica,sans-Serif" font-size="10.00" fill="#000000">FiniteElement&lt; dim,</text>
<text text-anchor="middle" x="137.5" y="-197.5" font-family="Helvetica,sans-Serif" font-size="10.00" fill="#000000"> spacedim &gt;</text>
</a>
</g>
</g>
<!-- Node2&#45;&gt;Node1 -->
<g id="edge2" class="edge">
<title>Node2&#45;&gt;Node1</title>
<path fill="none" stroke="#191970" d="M137.5,-180.2849C137.5,-170.9858 137.5,-160.9883 137.5,-153.8469"/>
<polygon fill="#191970" stroke="#191970" points="134.0001,-180.2977 137.5,-190.2977 141.0001,-180.2978 134.0001,-180.2977"/>
</g>
<!-- Node3 -->
<g id="node4" class="node">
<title>Node3</title>
<g id="a_node4"><a xlink:href="classSubscriptor.html" target="_top" xlink:title="Subscriptor">
<polygon fill="#ffffff" stroke="#000000" points="53.5,-263 53.5,-282 119.5,-282 119.5,-263 53.5,-263"/>
<text text-anchor="middle" x="86.5" y="-270" font-family="Helvetica,sans-Serif" font-size="10.00" fill="#000000">Subscriptor</text>
</a>
</g>
</g>
<!-- Node3&#45;&gt;Node2 -->
<g id="edge3" class="edge">
<title>Node3&#45;&gt;Node2</title>
<path fill="none" stroke="#191970" d="M100.0315,-254.7233C108.1472,-244.0615 118.3549,-230.6515 126.0655,-220.5218"/>
<polygon fill="#191970" stroke="#191970" points="97.079,-252.8236 93.8071,-262.9005 102.6489,-257.0634 97.079,-252.8236"/>
</g>
<!-- Node4 -->
<g id="node5" class="node">
<title>Node4</title>
<g id="a_node5"><a xlink:href="classFiniteElementData.html" target="_top" xlink:title="FiniteElementData\&lt;\l dim \&gt;">
<polygon fill="#ffffff" stroke="#000000" points="137.5,-257.5 137.5,-287.5 241.5,-287.5 241.5,-257.5 137.5,-257.5"/>
<text text-anchor="start" x="145.5" y="-275.5" font-family="Helvetica,sans-Serif" font-size="10.00" fill="#000000">FiniteElementData&lt;</text>
<text text-anchor="middle" x="189.5" y="-264.5" font-family="Helvetica,sans-Serif" font-size="10.00" fill="#000000"> dim &gt;</text>
</a>
</g>
</g>
<!-- Node4&#45;&gt;Node2 -->
<g id="edge4" class="edge">
<title>Node4&#45;&gt;Node2</title>
<path fill="none" stroke="#191970" d="M171.5335,-249.3509C164.1583,-239.8482 155.8266,-229.1132 149.2529,-220.6432"/>
<polygon fill="#191970" stroke="#191970" points="168.8042,-251.5427 177.7004,-257.2967 174.3341,-247.2508 168.8042,-251.5427"/>
</g>
</g>
</svg>
