<?xml version="1.0" encoding="UTF-8" standalone="no"?>
<!DOCTYPE svg PUBLIC "-//W3C//DTD SVG 1.1//EN"
 "http://www.w3.org/Graphics/SVG/1.1/DTD/svg11.dtd">
<!-- Generated by graphviz version 2.40.1 (20161225.0304)
 -->
<!-- Title: DesignPattern::Bridge::ConcreteImplementationB Pages: 1 -->
<svg width="148pt" height="193pt"
 viewBox="0.00 0.00 148.00 193.00" xmlns="http://www.w3.org/2000/svg" xmlns:xlink="http://www.w3.org/1999/xlink">
<g id="graph0" class="graph" transform="scale(1 1) rotate(0) translate(4 189)">
<title>DesignPattern::Bridge::ConcreteImplementationB</title>
<polygon fill="#ffffff" stroke="transparent" points="-4,4 -4,-189 144,-189 144,4 -4,4"/>
<!-- Node2 -->
<g id="node1" class="node">
<title>Node2</title>
<polygon fill="#bfbfbf" stroke="#000000" points="0,-.5 0,-68.5 140,-68.5 140,-.5 0,-.5"/>
<text text-anchor="start" x="8" y="-56.5" font-family="Helvetica,sans-Serif" font-size="10.00" fill="#000000">DesignPattern::Bridge</text>
<text text-anchor="middle" x="70" y="-45.5" font-family="Helvetica,sans-Serif" font-size="10.00" fill="#000000">::ConcreteImplementationB</text>
<polyline fill="none" stroke="#000000" points="0,-38.5 140,-38.5 "/>
<text text-anchor="middle" x="70" y="-26.5" font-family="Helvetica,sans-Serif" font-size="10.00" fill="#000000"> </text>
<polyline fill="none" stroke="#000000" points="0,-19.5 140,-19.5 "/>
<text text-anchor="start" x="8" y="-7.5" font-family="Helvetica,sans-Serif" font-size="10.00" fill="#000000">+ OperationImplementation()</text>
</g>
<!-- Node3 -->
<g id="node2" class="node">
<title>Node3</title>
<g id="a_node2"><a xlink:href="classDesignPattern_1_1Bridge_1_1Implementation.html" target="_top" xlink:title="{DesignPattern::Bridge\l::Implementation\n||+ ~Implementation()\l+ OperationImplementation()\l}">
<polygon fill="#ffffff" stroke="#000000" points="0,-105.5 0,-184.5 140,-184.5 140,-105.5 0,-105.5"/>
<text text-anchor="start" x="8" y="-172.5" font-family="Helvetica,sans-Serif" font-size="10.00" fill="#000000">DesignPattern::Bridge</text>
<text text-anchor="middle" x="70" y="-161.5" font-family="Helvetica,sans-Serif" font-size="10.00" fill="#000000">::Implementation</text>
<polyline fill="none" stroke="#000000" points="0,-154.5 140,-154.5 "/>
<text text-anchor="middle" x="70" y="-142.5" font-family="Helvetica,sans-Serif" font-size="10.00" fill="#000000"> </text>
<polyline fill="none" stroke="#000000" points="0,-135.5 140,-135.5 "/>
<text text-anchor="start" x="8" y="-123.5" font-family="Helvetica,sans-Serif" font-size="10.00" fill="#000000">+ ~Implementation()</text>
<text text-anchor="start" x="8" y="-112.5" font-family="Helvetica,sans-Serif" font-size="10.00" fill="#000000">+ OperationImplementation()</text>
</a>
</g>
</g>
<!-- Node3&#45;&gt;Node2 -->
<g id="edge1" class="edge">
<title>Node3&#45;&gt;Node2</title>
<path fill="none" stroke="#191970" d="M70,-95.3742C70,-86.3552 70,-77.1343 70,-68.6861"/>
<polygon fill="none" stroke="#191970" points="66.5001,-95.419 70,-105.4191 73.5001,-95.4191 66.5001,-95.419"/>
</g>
</g>
</svg>
