<?xml version="1.0" encoding="UTF-8" standalone="no"?>
<!DOCTYPE svg PUBLIC "-//W3C//DTD SVG 1.1//EN"
 "http://www.w3.org/Graphics/SVG/1.1/DTD/svg11.dtd">
<!-- Generated by graphviz version 2.40.1 (20161225.0304)
 -->
<!-- Title: mystl::map&lt; Key, T, Compare &gt;::value_compare Pages: 1 -->
<svg width="212pt" height="342pt"
 viewBox="0.00 0.00 211.50 342.00" xmlns="http://www.w3.org/2000/svg" xmlns:xlink="http://www.w3.org/1999/xlink">
<g id="graph0" class="graph" transform="scale(1 1) rotate(0) translate(4 338)">
<title>mystl::map&lt; Key, T, Compare &gt;::value_compare</title>
<polygon fill="#ffffff" stroke="transparent" points="-4,4 -4,-338 207.5,-338 207.5,4 -4,4"/>
<!-- Node3 -->
<g id="node1" class="node">
<title>Node3</title>
<polygon fill="#bfbfbf" stroke="#000000" points="49.5,-.5 49.5,-79.5 189.5,-79.5 189.5,-.5 49.5,-.5"/>
<text text-anchor="start" x="57.5" y="-67.5" font-family="Helvetica,sans-Serif" font-size="10.00" fill="#000000">mystl::map&lt; Key, T,</text>
<text text-anchor="middle" x="119.5" y="-56.5" font-family="Helvetica,sans-Serif" font-size="10.00" fill="#000000"> Compare &gt;::value_compare</text>
<polyline fill="none" stroke="#000000" points="49.5,-49.5 189.5,-49.5 "/>
<text text-anchor="middle" x="119.5" y="-37.5" font-family="Helvetica,sans-Serif" font-size="10.00" fill="#000000"> </text>
<polyline fill="none" stroke="#000000" points="49.5,-30.5 189.5,-30.5 "/>
<text text-anchor="start" x="57.5" y="-18.5" font-family="Helvetica,sans-Serif" font-size="10.00" fill="#000000">+ operator()()</text>
<text text-anchor="start" x="57.5" y="-7.5" font-family="Helvetica,sans-Serif" font-size="10.00" fill="#000000">&#45; value_compare()</text>
</g>
<!-- Node4 -->
<g id="node2" class="node">
<title>Node4</title>
<g id="a_node2"><a xlink:href="structmystl_1_1binary__function.html" target="_top" xlink:title="{mystl::binary_function\l\&lt; value_type, value_type,\l bool \&gt;\n||}">
<polygon fill="#ffffff" stroke="#000000" points="0,-127.5 0,-206.5 129,-206.5 129,-127.5 0,-127.5"/>
<text text-anchor="start" x="8" y="-194.5" font-family="Helvetica,sans-Serif" font-size="10.00" fill="#000000">mystl::binary_function</text>
<text text-anchor="start" x="8" y="-183.5" font-family="Helvetica,sans-Serif" font-size="10.00" fill="#000000">&lt; value_type, value_type,</text>
<text text-anchor="middle" x="64.5" y="-172.5" font-family="Helvetica,sans-Serif" font-size="10.00" fill="#000000"> bool &gt;</text>
<polyline fill="none" stroke="#000000" points="0,-165.5 129,-165.5 "/>
<text text-anchor="middle" x="64.5" y="-153.5" font-family="Helvetica,sans-Serif" font-size="10.00" fill="#000000"> </text>
<polyline fill="none" stroke="#000000" points="0,-146.5 129,-146.5 "/>
<text text-anchor="middle" x="64.5" y="-134.5" font-family="Helvetica,sans-Serif" font-size="10.00" fill="#000000"> </text>
</a>
</g>
</g>
<!-- Node4&#45;&gt;Node3 -->
<g id="edge1" class="edge">
<title>Node4&#45;&gt;Node3</title>
<path fill="none" stroke="#191970" d="M85.8414,-117.7208C91.2966,-105.1243 97.0926,-91.7407 102.3098,-79.6938"/>
<polygon fill="none" stroke="#191970" points="82.5138,-116.5975 81.7514,-127.1649 88.9373,-119.3794 82.5138,-116.5975"/>
</g>
<!-- Node5 -->
<g id="node3" class="node">
<title>Node5</title>
<g id="a_node3"><a xlink:href="structmystl_1_1binary__function.html" target="_top" xlink:title="{mystl::binary_function\l\&lt; Arg1, Arg2, Result \&gt;\n||}">
<polygon fill="#ffffff" stroke="#000000" points="6.5,-265.5 6.5,-333.5 122.5,-333.5 122.5,-265.5 6.5,-265.5"/>
<text text-anchor="start" x="14.5" y="-321.5" font-family="Helvetica,sans-Serif" font-size="10.00" fill="#000000">mystl::binary_function</text>
<text text-anchor="middle" x="64.5" y="-310.5" font-family="Helvetica,sans-Serif" font-size="10.00" fill="#000000">&lt; Arg1, Arg2, Result &gt;</text>
<polyline fill="none" stroke="#000000" points="6.5,-303.5 122.5,-303.5 "/>
<text text-anchor="middle" x="64.5" y="-291.5" font-family="Helvetica,sans-Serif" font-size="10.00" fill="#000000"> </text>
<polyline fill="none" stroke="#000000" points="6.5,-284.5 122.5,-284.5 "/>
<text text-anchor="middle" x="64.5" y="-272.5" font-family="Helvetica,sans-Serif" font-size="10.00" fill="#000000"> </text>
</a>
</g>
</g>
<!-- Node5&#45;&gt;Node4 -->
<g id="edge2" class="edge">
<title>Node5&#45;&gt;Node4</title>
<path fill="none" stroke="#ffa500" d="M64.5,-255.3477C64.5,-239.606 64.5,-221.9845 64.5,-206.645"/>
<polygon fill="#ffa500" stroke="#ffa500" points="61.0001,-255.3779 64.5,-265.378 68.0001,-255.378 61.0001,-255.3779"/>
<text text-anchor="start" x="64.5" y="-239" font-family="Helvetica,sans-Serif" font-size="10.00" fill="#000000"> &lt; value_type, value</text>
<text text-anchor="middle" x="109" y="-228" font-family="Helvetica,sans-Serif" font-size="10.00" fill="#000000">_type, bool &gt;</text>
</g>
<!-- Node6 -->
<g id="node4" class="node">
<title>Node6</title>
<polygon fill="#ffffff" stroke="#bfbfbf" points="147.5,-138.5 147.5,-195.5 203.5,-195.5 203.5,-138.5 147.5,-138.5"/>
<text text-anchor="middle" x="175.5" y="-183.5" font-family="Helvetica,sans-Serif" font-size="10.00" fill="#000000">Compare</text>
<polyline fill="none" stroke="#bfbfbf" points="147.5,-176.5 203.5,-176.5 "/>
<text text-anchor="middle" x="175.5" y="-164.5" font-family="Helvetica,sans-Serif" font-size="10.00" fill="#000000"> </text>
<polyline fill="none" stroke="#bfbfbf" points="147.5,-157.5 203.5,-157.5 "/>
<text text-anchor="middle" x="175.5" y="-145.5" font-family="Helvetica,sans-Serif" font-size="10.00" fill="#000000"> </text>
</g>
<!-- Node6&#45;&gt;Node3 -->
<g id="edge3" class="edge">
<title>Node6&#45;&gt;Node3</title>
<path fill="none" stroke="#404040" d="M162.9325,-138.4987C156.8085,-124.6104 149.2522,-107.4738 142.1686,-91.4093"/>
<polygon fill="none" stroke="#404040" points="141.9631,-90.943 135.8823,-87.0669 137.1215,-79.963 143.2023,-83.8391 141.9631,-90.943"/>
<text text-anchor="middle" x="164" y="-101" font-family="Helvetica,sans-Serif" font-size="10.00" fill="#000000"> &#45;comp</text>
</g>
</g>
</svg>
