<?xml version="1.0" encoding="UTF-8" standalone="no"?>
<!DOCTYPE svg PUBLIC "-//W3C//DTD SVG 1.1//EN"
 "http://www.w3.org/Graphics/SVG/1.1/DTD/svg11.dtd">
<!-- Generated by graphviz version 2.40.1 (20161225.0304)
 -->
<!-- Title: TrilinosWrappers::SparseMatrixIterators::AccessorBase Pages: 1 -->
<!--zoomable 442 -->
<svg id="main" version="1.1" xmlns="http://www.w3.org/2000/svg" xmlns:xlink="http://www.w3.org/1999/xlink" xml:space="preserve" onload="init(evt)">
<style type="text/css"><![CDATA[
.edge:hover path { stroke: red; }
.edge:hover polygon { stroke: red; fill: red; }
]]></style>
<script type="text/javascript"><![CDATA[
var edges = document.getElementsByTagName('g');
if (edges && edges.length) {
  for (var i=0;i<edges.length;i++) {
    if (edges[i].id.substr(0,4)=='edge') {
      edges[i].setAttribute('class','edge');
    }
  }
}
]]></script>
        <defs>
                <circle id="rim" cx="0" cy="0" r="7"/>
                <circle id="rim2" cx="0" cy="0" r="3.5"/>
                <g id="zoomPlus">
                        <use xlink:href="#rim" fill="#404040">
                                <set attributeName="fill" to="#808080" begin="zoomplus.mouseover" end="zoomplus.mouseout"/>
                        </use>
                        <path d="M-4,0h8M0,-4v8" fill="none" stroke="white" stroke-width="1.5" pointer-events="none"/>
                </g>
                <g id="zoomMin">
                        <use xlink:href="#rim" fill="#404040">
                                <set attributeName="fill" to="#808080" begin="zoomminus.mouseover" end="zoomminus.mouseout"/>
                        </use>
                        <path d="M-4,0h8" fill="none" stroke="white" stroke-width="1.5" pointer-events="none"/>
                </g>
                <g id="dirArrow">
                        <path fill="none" stroke="white" stroke-width="1.5" d="M0,-3.0v7 M-2.5,-0.5L0,-3.0L2.5,-0.5"/>
                </g>
               <g id="resetDef">
                       <use xlink:href="#rim2" fill="#404040">
                               <set attributeName="fill" to="#808080" begin="reset.mouseover" end="reset.mouseout"/>
                       </use>
               </g>
        </defs>

<script type="text/javascript">
var viewWidth = 501;
var viewHeight = 442;
var sectionId = 'dynsection-0';
</script>
<script xlink:href="svgpan.js"/>
<svg id="graph" class="graph">
<g id="viewport">
<title>TrilinosWrappers::SparseMatrixIterators::AccessorBase</title>
<polygon fill="#ffffff" stroke="transparent" points="-4,4 -4,-438 497,-438 497,4 -4,4"/>
<!-- Node0 -->
<g id="node1" class="node">
<title>Node0</title>
<polygon fill="#bfbfbf" stroke="#000000" points="173,-277.5 173,-433.5 322,-433.5 322,-277.5 173,-277.5"/>
<text text-anchor="start" x="181" y="-421.5" font-family="Helvetica,sans-Serif" font-size="10.00" fill="#000000">TrilinosWrappers::Sparse</text>
<text text-anchor="middle" x="247.5" y="-410.5" font-family="Helvetica,sans-Serif" font-size="10.00" fill="#000000">MatrixIterators::AccessorBase</text>
<polyline fill="none" stroke="#000000" points="173,-403.5 322,-403.5 "/>
<text text-anchor="start" x="181" y="-391.5" font-family="Helvetica,sans-Serif" font-size="10.00" fill="#000000"># matrix</text>
<text text-anchor="start" x="181" y="-380.5" font-family="Helvetica,sans-Serif" font-size="10.00" fill="#000000"># a_row</text>
<text text-anchor="start" x="181" y="-369.5" font-family="Helvetica,sans-Serif" font-size="10.00" fill="#000000"># a_index</text>
<text text-anchor="start" x="181" y="-358.5" font-family="Helvetica,sans-Serif" font-size="10.00" fill="#000000"># colnum_cache</text>
<text text-anchor="start" x="181" y="-347.5" font-family="Helvetica,sans-Serif" font-size="10.00" fill="#000000"># value_cache</text>
<polyline fill="none" stroke="#000000" points="173,-340.5 322,-340.5 "/>
<text text-anchor="start" x="181" y="-328.5" font-family="Helvetica,sans-Serif" font-size="10.00" fill="#000000">+ AccessorBase()</text>
<text text-anchor="start" x="181" y="-317.5" font-family="Helvetica,sans-Serif" font-size="10.00" fill="#000000">+ row()</text>
<text text-anchor="start" x="181" y="-306.5" font-family="Helvetica,sans-Serif" font-size="10.00" fill="#000000">+ index()</text>
<text text-anchor="start" x="181" y="-295.5" font-family="Helvetica,sans-Serif" font-size="10.00" fill="#000000">+ column()</text>
<text text-anchor="start" x="181" y="-284.5" font-family="Helvetica,sans-Serif" font-size="10.00" fill="#000000"># visit_present_row()</text>
</g>
<!-- Node1 -->
<g id="node2" class="node">
<title>Node1</title>
<g id="a_node2"><a xlink:href="classTrilinosWrappers_1_1SparseMatrixIterators_1_1Accessor.html" target="_top" xlink:title="{TrilinosWrappers::Sparse\lMatrixIterators::Accessor\l\&lt; Constness \&gt;\n||&#45; value()\l&#45; value()\l}">
<polygon fill="#ffffff" stroke="#000000" points="0,-.5 0,-90.5 127,-90.5 127,-.5 0,-.5"/>
<text text-anchor="start" x="8" y="-78.5" font-family="Helvetica,sans-Serif" font-size="10.00" fill="#000000">TrilinosWrappers::Sparse</text>
<text text-anchor="start" x="8" y="-67.5" font-family="Helvetica,sans-Serif" font-size="10.00" fill="#000000">MatrixIterators::Accessor</text>
<text text-anchor="middle" x="63.5" y="-56.5" font-family="Helvetica,sans-Serif" font-size="10.00" fill="#000000">&lt; Constness &gt;</text>
<polyline fill="none" stroke="#000000" points="0,-49.5 127,-49.5 "/>
<text text-anchor="middle" x="63.5" y="-37.5" font-family="Helvetica,sans-Serif" font-size="10.00" fill="#000000"> </text>
<polyline fill="none" stroke="#000000" points="0,-30.5 127,-30.5 "/>
<text text-anchor="start" x="8" y="-18.5" font-family="Helvetica,sans-Serif" font-size="10.00" fill="#000000">&#45; value()</text>
<text text-anchor="start" x="8" y="-7.5" font-family="Helvetica,sans-Serif" font-size="10.00" fill="#000000">&#45; value()</text>
</a>
</g>
</g>
<!-- Node0&#45;&gt;Node1 -->
<g id="edge1" class="edge">
<title>Node0&#45;&gt;Node1</title>
<path fill="none" stroke="#191970" d="M163.3678,-323.6033C126.8205,-305.0844 87.6043,-277.8074 66.5,-240 40.904,-194.1457 45.2962,-132.2342 52.6896,-90.691"/>
<polygon fill="none" stroke="#191970" points="162.0696,-326.8648 172.5894,-328.1239 165.1509,-320.5794 162.0696,-326.8648"/>
</g>
<!-- Node2 -->
<g id="node3" class="node">
<title>Node2</title>
<g id="a_node3"><a xlink:href="classTrilinosWrappers_1_1SparseMatrixIterators_1_1Accessor.html" target="_top" xlink:title="{TrilinosWrappers::Sparse\lMatrixIterators::Accessor\l\&lt; Constess \&gt;\n||&#45; value()\l&#45; value()\l}">
<polygon fill="#ffffff" stroke="#000000" points="76,-144 76,-234 203,-234 203,-144 76,-144"/>
<text text-anchor="start" x="84" y="-222" font-family="Helvetica,sans-Serif" font-size="10.00" fill="#000000">TrilinosWrappers::Sparse</text>
<text text-anchor="start" x="84" y="-211" font-family="Helvetica,sans-Serif" font-size="10.00" fill="#000000">MatrixIterators::Accessor</text>
<text text-anchor="middle" x="139.5" y="-200" font-family="Helvetica,sans-Serif" font-size="10.00" fill="#000000">&lt; Constess &gt;</text>
<polyline fill="none" stroke="#000000" points="76,-193 203,-193 "/>
<text text-anchor="middle" x="139.5" y="-181" font-family="Helvetica,sans-Serif" font-size="10.00" fill="#000000"> </text>
<polyline fill="none" stroke="#000000" points="76,-174 203,-174 "/>
<text text-anchor="start" x="84" y="-162" font-family="Helvetica,sans-Serif" font-size="10.00" fill="#000000">&#45; value()</text>
<text text-anchor="start" x="84" y="-151" font-family="Helvetica,sans-Serif" font-size="10.00" fill="#000000">&#45; value()</text>
</a>
</g>
</g>
<!-- Node0&#45;&gt;Node2 -->
<g id="edge2" class="edge">
<title>Node0&#45;&gt;Node2</title>
<path fill="none" stroke="#191970" d="M191.0783,-268.5166C183.4131,-256.6994 175.8131,-244.9827 168.8978,-234.3216"/>
<polygon fill="none" stroke="#191970" points="188.2841,-270.6405 196.6625,-277.1254 194.1569,-266.8311 188.2841,-270.6405"/>
</g>
<!-- Node3 -->
<g id="node4" class="node">
<title>Node3</title>
<g id="a_node4"><a xlink:href="classTrilinosWrappers_1_1SparseMatrixIterators_1_1Accessor_3_01false_01_4.html" target="_top" xlink:title="{TrilinosWrappers::Sparse\lMatrixIterators::Accessor\l\&lt; false \&gt;\n||+ Accessor()\l+ value()\l}">
<polygon fill="#ffffff" stroke="#000000" points="221,-144 221,-234 348,-234 348,-144 221,-144"/>
<text text-anchor="start" x="229" y="-222" font-family="Helvetica,sans-Serif" font-size="10.00" fill="#000000">TrilinosWrappers::Sparse</text>
<text text-anchor="start" x="229" y="-211" font-family="Helvetica,sans-Serif" font-size="10.00" fill="#000000">MatrixIterators::Accessor</text>
<text text-anchor="middle" x="284.5" y="-200" font-family="Helvetica,sans-Serif" font-size="10.00" fill="#000000">&lt; false &gt;</text>
<polyline fill="none" stroke="#000000" points="221,-193 348,-193 "/>
<text text-anchor="middle" x="284.5" y="-181" font-family="Helvetica,sans-Serif" font-size="10.00" fill="#000000"> </text>
<polyline fill="none" stroke="#000000" points="221,-174 348,-174 "/>
<text text-anchor="start" x="229" y="-162" font-family="Helvetica,sans-Serif" font-size="10.00" fill="#000000">+ Accessor()</text>
<text text-anchor="start" x="229" y="-151" font-family="Helvetica,sans-Serif" font-size="10.00" fill="#000000">+ value()</text>
</a>
</g>
</g>
<!-- Node0&#45;&gt;Node3 -->
<g id="edge4" class="edge">
<title>Node0&#45;&gt;Node3</title>
<path fill="none" stroke="#191970" d="M267.1355,-267.1403C269.6576,-255.791 272.1514,-244.5687 274.4285,-234.3216"/>
<polygon fill="none" stroke="#191970" points="263.6693,-266.6043 264.9166,-277.1254 270.5026,-268.1229 263.6693,-266.6043"/>
</g>
<!-- Node4 -->
<g id="node5" class="node">
<title>Node4</title>
<g id="a_node5"><a xlink:href="classTrilinosWrappers_1_1SparseMatrixIterators_1_1Accessor_3_01true_01_4.html" target="_top" xlink:title="{TrilinosWrappers::Sparse\lMatrixIterators::Accessor\l\&lt; true \&gt;\n||+ Accessor()\l+ Accessor()\l+ value()\l}">
<polygon fill="#ffffff" stroke="#000000" points="366,-138.5 366,-239.5 493,-239.5 493,-138.5 366,-138.5"/>
<text text-anchor="start" x="374" y="-227.5" font-family="Helvetica,sans-Serif" font-size="10.00" fill="#000000">TrilinosWrappers::Sparse</text>
<text text-anchor="start" x="374" y="-216.5" font-family="Helvetica,sans-Serif" font-size="10.00" fill="#000000">MatrixIterators::Accessor</text>
<text text-anchor="middle" x="429.5" y="-205.5" font-family="Helvetica,sans-Serif" font-size="10.00" fill="#000000">&lt; true &gt;</text>
<polyline fill="none" stroke="#000000" points="366,-198.5 493,-198.5 "/>
<text text-anchor="middle" x="429.5" y="-186.5" font-family="Helvetica,sans-Serif" font-size="10.00" fill="#000000"> </text>
<polyline fill="none" stroke="#000000" points="366,-179.5 493,-179.5 "/>
<text text-anchor="start" x="374" y="-167.5" font-family="Helvetica,sans-Serif" font-size="10.00" fill="#000000">+ Accessor()</text>
<text text-anchor="start" x="374" y="-156.5" font-family="Helvetica,sans-Serif" font-size="10.00" fill="#000000">+ Accessor()</text>
<text text-anchor="start" x="374" y="-145.5" font-family="Helvetica,sans-Serif" font-size="10.00" fill="#000000">+ value()</text>
</a>
</g>
</g>
<!-- Node0&#45;&gt;Node4 -->
<g id="edge5" class="edge">
<title>Node0&#45;&gt;Node4</title>
<path fill="none" stroke="#191970" d="M329.4654,-280.5151C344.6385,-266.6343 360.1499,-252.4439 374.29,-239.5081"/>
<polygon fill="none" stroke="#191970" points="327.0673,-277.9653 322.0515,-287.2977 331.7923,-283.1301 327.0673,-277.9653"/>
</g>
<!-- Node2&#45;&gt;Node1 -->
<g id="edge3" class="edge">
<title>Node2&#45;&gt;Node1</title>
<path fill="none" stroke="#ffa500" d="M110.9413,-135.0767C103.2252,-120.5075 94.9546,-104.8913 87.5151,-90.8443"/>
<polygon fill="#ffa500" stroke="#ffa500" points="107.8883,-136.7904 115.6616,-143.9894 114.0743,-133.5142 107.8883,-136.7904"/>
<text text-anchor="middle" x="136" y="-112" font-family="Helvetica,sans-Serif" font-size="10.00" fill="#000000"> &lt; Constness &gt;</text>
</g>
</g>
</svg>
        <g id="navigator" transform="translate(0 0)" fill="#404254">
                <rect fill="#f2f5e9" fill-opacity="0.5" stroke="#606060" stroke-width=".5" x="0" y="0" width="60" height="60"/>
                <use id="zoomplus" xlink:href="#zoomPlus" x="17" y="9" onmousedown="handleZoom(evt,'in')"/>
                <use id="zoomminus" xlink:href="#zoomMin" x="42" y="9" onmousedown="handleZoom(evt,'out')"/>
                <use id="reset" xlink:href="#resetDef" x="30" y="36" onmousedown="handleReset()"/>
                <g id="arrowUp" xlink:href="#dirArrow" transform="translate(30 24)" onmousedown="handlePan(0,-1)">
                  <use xlink:href="#rim" fill="#404040">
                        <set attributeName="fill" to="#808080" begin="arrowUp.mouseover" end="arrowUp.mouseout"/>
                  </use>
                  <path fill="none" stroke="white" stroke-width="1.5" d="M0,-3.0v7 M-2.5,-0.5L0,-3.0L2.5,-0.5"/>
                </g>
                <g id="arrowRight" xlink:href="#dirArrow" transform="rotate(90) translate(36 -43)" onmousedown="handlePan(1,0)">
                  <use xlink:href="#rim" fill="#404040">
                        <set attributeName="fill" to="#808080" begin="arrowRight.mouseover" end="arrowRight.mouseout"/>
                  </use>
                  <path fill="none" stroke="white" stroke-width="1.5" d="M0,-3.0v7 M-2.5,-0.5L0,-3.0L2.5,-0.5"/>
                </g>
                <g id="arrowDown" xlink:href="#dirArrow" transform="rotate(180) translate(-30 -48)" onmousedown="handlePan(0,1)">
                  <use xlink:href="#rim" fill="#404040">
                        <set attributeName="fill" to="#808080" begin="arrowDown.mouseover" end="arrowDown.mouseout"/>
                  </use>
                  <path fill="none" stroke="white" stroke-width="1.5" d="M0,-3.0v7 M-2.5,-0.5L0,-3.0L2.5,-0.5"/>
                </g>
                <g id="arrowLeft" xlink:href="#dirArrow" transform="rotate(270) translate(-36 17)" onmousedown="handlePan(-1,0)">
                  <use xlink:href="#rim" fill="#404040">
                        <set attributeName="fill" to="#808080" begin="arrowLeft.mouseover" end="arrowLeft.mouseout"/>
                  </use>
                  <path fill="none" stroke="white" stroke-width="1.5" d="M0,-3.0v7 M-2.5,-0.5L0,-3.0L2.5,-0.5"/>
                </g>
        </g>
        <svg viewBox="0 0 15 15" width="100%" height="30px" preserveAspectRatio="xMaxYMin meet">
         <g id="arrow_out" transform="scale(0.3 0.3)">
          <a xlink:href="classTrilinosWrappers_1_1SparseMatrixIterators_1_1AccessorBase__inherit__graph_org.svg" target="_base">
           <rect id="button" ry="5" rx="5" y="6" x="6" height="38" width="38"
                fill="#f2f5e9" fill-opacity="0.5" stroke="#606060" stroke-width="1.0"/>
           <path id="arrow"
             d="M 11.500037,31.436501 C 11.940474,20.09759 22.043105,11.32322 32.158766,21.979434 L 37.068811,17.246167 C 37.068811,17.246167 37.088388,32 37.088388,32 L 22.160133,31.978069 C 22.160133,31.978069 26.997745,27.140456 26.997745,27.140456 C 18.528582,18.264221 13.291696,25.230495 11.500037,31.436501 z"
             style="fill:#404040;"/>
          </a>
         </g>
        </svg>
</svg>
