<?xml version="1.0" encoding="UTF-8" standalone="no"?>
<!DOCTYPE svg PUBLIC "-//W3C//DTD SVG 1.1//EN"
 "http://www.w3.org/Graphics/SVG/1.1/DTD/svg11.dtd">
<!-- Generated by graphviz version 2.40.1 (20161225.0304)
 -->
<!-- Title: GridTools::internal::Rotate3d Pages: 1 -->
<svg width="106pt" height="193pt"
 viewBox="0.00 0.00 105.50 193.00" xmlns="http://www.w3.org/2000/svg" xmlns:xlink="http://www.w3.org/1999/xlink">
<g id="graph0" class="graph" transform="scale(1 1) rotate(0) translate(4 189)">
<title>GridTools::internal::Rotate3d</title>
<polygon fill="#ffffff" stroke="transparent" points="-4,4 -4,-189 101.5,-189 101.5,4 -4,4"/>
<!-- Node1 -->
<g id="node1" class="node">
<title>Node1</title>
<polygon fill="#bfbfbf" stroke="#000000" points="1.5,-.5 1.5,-79.5 97.5,-79.5 97.5,-.5 1.5,-.5"/>
<text text-anchor="start" x="9.5" y="-67.5" font-family="Helvetica,sans-Serif" font-size="10.00" fill="#000000">GridTools::internal</text>
<text text-anchor="middle" x="49.5" y="-56.5" font-family="Helvetica,sans-Serif" font-size="10.00" fill="#000000">::Rotate3d</text>
<polyline fill="none" stroke="#000000" points="1.5,-49.5 97.5,-49.5 "/>
<text text-anchor="middle" x="49.5" y="-37.5" font-family="Helvetica,sans-Serif" font-size="10.00" fill="#000000"> </text>
<polyline fill="none" stroke="#000000" points="1.5,-30.5 97.5,-30.5 "/>
<text text-anchor="start" x="9.5" y="-18.5" font-family="Helvetica,sans-Serif" font-size="10.00" fill="#000000">+ Rotate3d()</text>
<text text-anchor="start" x="9.5" y="-7.5" font-family="Helvetica,sans-Serif" font-size="10.00" fill="#000000">+ operator()()</text>
</g>
<!-- Node2 -->
<g id="node2" class="node">
<title>Node2</title>
<g id="a_node2"><a xlink:href="classdouble.html" target="_top" xlink:title="{double\n||}">
<polygon fill="#ffffff" stroke="#000000" points="0,-127.5 0,-184.5 45,-184.5 45,-127.5 0,-127.5"/>
<text text-anchor="middle" x="22.5" y="-172.5" font-family="Helvetica,sans-Serif" font-size="10.00" fill="#000000">double</text>
<polyline fill="none" stroke="#000000" points="0,-165.5 45,-165.5 "/>
<text text-anchor="middle" x="22.5" y="-153.5" font-family="Helvetica,sans-Serif" font-size="10.00" fill="#000000"> </text>
<polyline fill="none" stroke="#000000" points="0,-146.5 45,-146.5 "/>
<text text-anchor="middle" x="22.5" y="-134.5" font-family="Helvetica,sans-Serif" font-size="10.00" fill="#000000"> </text>
</a>
</g>
</g>
<!-- Node2&#45;&gt;Node1 -->
<g id="edge1" class="edge">
<title>Node2&#45;&gt;Node1</title>
<path fill="none" stroke="#404040" d="M22.0531,-127.4164C22.4139,-117.9588 23.3687,-107.442 25.5,-98 26.0129,-95.7278 26.6075,-93.4308 27.2665,-91.1287"/>
<polygon fill="none" stroke="#404040" points="27.2842,-91.0744 25.3503,-84.1275 31.019,-79.6704 32.953,-86.6173 27.2842,-91.0744"/>
<text text-anchor="middle" x="40.5" y="-101" font-family="Helvetica,sans-Serif" font-size="10.00" fill="#000000"> &#45;angle</text>
</g>
<!-- Node3 -->
<g id="node3" class="node">
<title>Node3</title>
<g id="a_node3"><a xlink:href="classint.html" target="_top" xlink:title="{int\n||}">
<polygon fill="#ffffff" stroke="#000000" points="63,-127.5 63,-184.5 92,-184.5 92,-127.5 63,-127.5"/>
<text text-anchor="middle" x="77.5" y="-172.5" font-family="Helvetica,sans-Serif" font-size="10.00" fill="#000000">int</text>
<polyline fill="none" stroke="#000000" points="63,-165.5 92,-165.5 "/>
<text text-anchor="middle" x="77.5" y="-153.5" font-family="Helvetica,sans-Serif" font-size="10.00" fill="#000000"> </text>
<polyline fill="none" stroke="#000000" points="63,-146.5 92,-146.5 "/>
<text text-anchor="middle" x="77.5" y="-134.5" font-family="Helvetica,sans-Serif" font-size="10.00" fill="#000000"> </text>
</a>
</g>
</g>
<!-- Node3&#45;&gt;Node1 -->
<g id="edge2" class="edge">
<title>Node3&#45;&gt;Node1</title>
<path fill="none" stroke="#404040" d="M70.5786,-127.3258C67.9794,-116.5576 64.9384,-103.9593 61.9881,-91.7364"/>
<polygon fill="none" stroke="#404040" points="61.9034,-91.3853 56.6072,-86.4914 59.0877,-79.7203 64.3839,-84.6142 61.9034,-91.3853"/>
<text text-anchor="middle" x="78" y="-101" font-family="Helvetica,sans-Serif" font-size="10.00" fill="#000000"> &#45;axis</text>
</g>
</g>
</svg>
