<?xml version="1.0" encoding="UTF-8" standalone="no"?>
<!DOCTYPE svg PUBLIC "-//W3C//DTD SVG 1.1//EN"
 "http://www.w3.org/Graphics/SVG/1.1/DTD/svg11.dtd">
<!-- Generated by graphviz version 2.40.1 (20161225.0304)
 -->
<!-- Title: BlockLinearOperator&lt; Range, Domain, BlockPayload &gt; Pages: 1 -->
<svg width="347pt" height="264pt"
 viewBox="0.00 0.00 346.50 264.00" xmlns="http://www.w3.org/2000/svg" xmlns:xlink="http://www.w3.org/1999/xlink">
<g id="graph0" class="graph" transform="scale(1 1) rotate(0) translate(4 260)">
<title>BlockLinearOperator&lt; Range, Domain, BlockPayload &gt;</title>
<polygon fill="#ffffff" stroke="transparent" points="-4,4 -4,-260 342.5,-260 342.5,4 -4,4"/>
<!-- Node0 -->
<g id="node1" class="node">
<title>Node0</title>
<polygon fill="#bfbfbf" stroke="#000000" points="0,-.5 0,-30.5 185,-30.5 185,-.5 0,-.5"/>
<text text-anchor="start" x="8" y="-18.5" font-family="Helvetica,sans-Serif" font-size="10.00" fill="#000000">BlockLinearOperator</text>
<text text-anchor="middle" x="92.5" y="-7.5" font-family="Helvetica,sans-Serif" font-size="10.00" fill="#000000">&lt; Range, Domain, BlockPayload &gt;</text>
</g>
<!-- Node1 -->
<g id="node2" class="node">
<title>Node1</title>
<g id="a_node2"><a xlink:href="classLinearOperator.html" target="_top" xlink:title="LinearOperator\&lt; Range,\l Domain, BlockPayload\l::BlockType \&gt;">
<polygon fill="#ffffff" stroke="#000000" points="25.5,-68.5 25.5,-109.5 159.5,-109.5 159.5,-68.5 25.5,-68.5"/>
<text text-anchor="start" x="33.5" y="-97.5" font-family="Helvetica,sans-Serif" font-size="10.00" fill="#000000">LinearOperator&lt; Range,</text>
<text text-anchor="start" x="33.5" y="-86.5" font-family="Helvetica,sans-Serif" font-size="10.00" fill="#000000"> Domain, BlockPayload</text>
<text text-anchor="middle" x="92.5" y="-75.5" font-family="Helvetica,sans-Serif" font-size="10.00" fill="#000000">::BlockType &gt;</text>
</a>
</g>
</g>
<!-- Node1&#45;&gt;Node0 -->
<g id="edge1" class="edge">
<title>Node1&#45;&gt;Node0</title>
<path fill="none" stroke="#191970" d="M92.5,-57.9048C92.5,-48.5365 92.5,-38.666 92.5,-30.8074"/>
<polygon fill="#191970" stroke="#191970" points="89.0001,-58.1344 92.5,-68.1345 96.0001,-58.1345 89.0001,-58.1344"/>
</g>
<!-- Node2 -->
<g id="node3" class="node">
<title>Node2</title>
<polygon fill="#ffffff" stroke="#bfbfbf" points="8,-174 8,-193 145,-193 145,-174 8,-174"/>
<text text-anchor="middle" x="76.5" y="-181" font-family="Helvetica,sans-Serif" font-size="10.00" fill="#000000">BlockPayload::BlockType</text>
</g>
<!-- Node2&#45;&gt;Node1 -->
<g id="edge2" class="edge">
<title>Node2&#45;&gt;Node1</title>
<path fill="none" stroke="#191970" d="M79.8829,-163.52C82.5535,-147.7464 86.268,-125.808 88.9748,-109.8207"/>
<polygon fill="#191970" stroke="#191970" points="76.3706,-163.2988 78.152,-173.7428 83.2723,-164.4674 76.3706,-163.2988"/>
</g>
<!-- Node3 -->
<g id="node4" class="node">
<title>Node3</title>
<g id="a_node4"><a xlink:href="classLinearOperator.html" target="_top" xlink:title="LinearOperator\&lt; Range,\l Domain, Payload \&gt;">
<polygon fill="#ffffff" stroke="#000000" points="163.5,-168.5 163.5,-198.5 297.5,-198.5 297.5,-168.5 163.5,-168.5"/>
<text text-anchor="start" x="171.5" y="-186.5" font-family="Helvetica,sans-Serif" font-size="10.00" fill="#000000">LinearOperator&lt; Range,</text>
<text text-anchor="middle" x="230.5" y="-175.5" font-family="Helvetica,sans-Serif" font-size="10.00" fill="#000000"> Domain, Payload &gt;</text>
</a>
</g>
</g>
<!-- Node3&#45;&gt;Node1 -->
<g id="edge3" class="edge">
<title>Node3&#45;&gt;Node1</title>
<path fill="none" stroke="#ffa500" stroke-dasharray="5,2" d="M199.9493,-162.5794C176.924,-146.8121 145.5076,-125.2987 122.5942,-109.608"/>
<polygon fill="#ffa500" stroke="#ffa500" points="198.0995,-165.5547 208.3279,-168.3169 202.0546,-159.779 198.0995,-165.5547"/>
<text text-anchor="start" x="177.5" y="-142" font-family="Helvetica,sans-Serif" font-size="10.00" fill="#000000"> &lt; Range, Domain, BlockPayload</text>
<text text-anchor="middle" x="258" y="-131" font-family="Helvetica,sans-Serif" font-size="10.00" fill="#000000">::BlockType &gt;</text>
</g>
<!-- Node4 -->
<g id="node5" class="node">
<title>Node4</title>
<g id="a_node5"><a xlink:href="classPayload.html" target="_top" xlink:title="Payload">
<polygon fill="#ffffff" stroke="#000000" points="203,-236.5 203,-255.5 258,-255.5 258,-236.5 203,-236.5"/>
<text text-anchor="middle" x="230.5" y="-243.5" font-family="Helvetica,sans-Serif" font-size="10.00" fill="#000000">Payload</text>
</a>
</g>
</g>
<!-- Node4&#45;&gt;Node3 -->
<g id="edge4" class="edge">
<title>Node4&#45;&gt;Node3</title>
<path fill="none" stroke="#191970" d="M230.5,-226.0501C230.5,-217.2205 230.5,-207.0001 230.5,-198.7892"/>
<polygon fill="#191970" stroke="#191970" points="227.0001,-226.2343 230.5,-236.2344 234.0001,-226.2344 227.0001,-226.2343"/>
</g>
</g>
</svg>
