<?xml version="1.0" encoding="UTF-8" standalone="no"?>
<!DOCTYPE svg PUBLIC "-//W3C//DTD SVG 1.1//EN"
 "http://www.w3.org/Graphics/SVG/1.1/DTD/svg11.dtd">
<!-- Generated by graphviz version 2.40.1 (20161225.0304)
 -->
<!-- Title: DataOut&lt; dim, spacedim &gt; Pages: 1 -->
<svg width="1148pt" height="75pt"
 viewBox="0.00 0.00 1148.00 75.00" xmlns="http://www.w3.org/2000/svg" xmlns:xlink="http://www.w3.org/1999/xlink">
<g id="graph0" class="graph" transform="scale(1 1) rotate(0) translate(4 71)">
<title>DataOut&lt; dim, spacedim &gt;</title>
<polygon fill="#ffffff" stroke="transparent" points="-4,4 -4,-71 1144,-71 1144,4 -4,4"/>
<!-- Node0 -->
<g id="node1" class="node">
<title>Node0</title>
<polygon fill="#bfbfbf" stroke="#000000" points="845,-35.5 845,-54.5 980,-54.5 980,-35.5 845,-35.5"/>
<text text-anchor="middle" x="912.5" y="-42.5" font-family="Helvetica,sans-Serif" font-size="10.00" fill="#000000">DataOut&lt; dim, spacedim &gt;</text>
</g>
<!-- Node5 -->
<g id="node6" class="node">
<title>Node5</title>
<g id="a_node6"><a xlink:href="classDataOut.html" target="_top" xlink:title="DataOut\&lt; dim \&gt;">
<polygon fill="#ffffff" stroke="#000000" points="1053,-35.5 1053,-54.5 1140,-54.5 1140,-35.5 1053,-35.5"/>
<text text-anchor="middle" x="1096.5" y="-42.5" font-family="Helvetica,sans-Serif" font-size="10.00" fill="#000000">DataOut&lt; dim &gt;</text>
</a>
</g>
</g>
<!-- Node0&#45;&gt;Node5 -->
<g id="edge6" class="edge">
<title>Node0&#45;&gt;Node5</title>
<path fill="none" stroke="#ffa500" stroke-dasharray="5,2" d="M990.3089,-45C1011.7272,-45 1034.197,-45 1052.9233,-45"/>
<polygon fill="#ffa500" stroke="#ffa500" points="990.231,-41.5001 980.2309,-45 990.2309,-48.5001 990.231,-41.5001"/>
<text text-anchor="middle" x="1016.5" y="-48" font-family="Helvetica,sans-Serif" font-size="10.00" fill="#000000"> &lt; dim &gt;</text>
</g>
<!-- Node1 -->
<g id="node2" class="node">
<title>Node1</title>
<g id="a_node2"><a xlink:href="classDataOut__DoFData.html" target="_top" xlink:title="DataOut_DoFData\&lt; dim,\l dim, spacedim, spacedim \&gt;">
<polygon fill="#ffffff" stroke="#000000" points="668,-30 668,-60 808,-60 808,-30 668,-30"/>
<text text-anchor="start" x="676" y="-48" font-family="Helvetica,sans-Serif" font-size="10.00" fill="#000000">DataOut_DoFData&lt; dim,</text>
<text text-anchor="middle" x="738" y="-37" font-family="Helvetica,sans-Serif" font-size="10.00" fill="#000000"> dim, spacedim, spacedim &gt;</text>
</a>
</g>
</g>
<!-- Node1&#45;&gt;Node0 -->
<g id="edge1" class="edge">
<title>Node1&#45;&gt;Node0</title>
<path fill="none" stroke="#191970" d="M818.2478,-45C827.1831,-45 836.2169,-45 844.9713,-45"/>
<polygon fill="#191970" stroke="#191970" points="818.2216,-41.5001 808.2215,-45 818.2215,-48.5001 818.2216,-41.5001"/>
</g>
<!-- Node2 -->
<g id="node3" class="node">
<title>Node2</title>
<g id="a_node3"><a xlink:href="classDataOutInterface.html" target="_top" xlink:title="DataOutInterface\&lt; patch\l_dim, patch_spacedim \&gt;">
<polygon fill="#ffffff" stroke="#000000" points="243,-30 243,-60 368,-60 368,-30 243,-30"/>
<text text-anchor="start" x="251" y="-48" font-family="Helvetica,sans-Serif" font-size="10.00" fill="#000000">DataOutInterface&lt; patch</text>
<text text-anchor="middle" x="305.5" y="-37" font-family="Helvetica,sans-Serif" font-size="10.00" fill="#000000">_dim, patch_spacedim &gt;</text>
</a>
</g>
</g>
<!-- Node2&#45;&gt;Node1 -->
<g id="edge2" class="edge">
<title>Node2&#45;&gt;Node1</title>
<path fill="none" stroke="#191970" d="M378.1083,-51.2793C447.8685,-56.3759 556.2172,-61.8387 650,-56 655.8394,-55.6365 661.8842,-55.1385 667.9448,-54.5539"/>
<polygon fill="#191970" stroke="#191970" points="378.3353,-47.7866 368.1022,-50.5314 377.8134,-54.7671 378.3353,-47.7866"/>
</g>
<!-- Node4 -->
<g id="node5" class="node">
<title>Node4</title>
<g id="a_node5"><a xlink:href="classDataOut__DoFData.html" target="_top" xlink:title="DataOut_DoFData\&lt; dim,\l patch_dim, spacedim,\l patch_spacedim \&gt;">
<polygon fill="#ffffff" stroke="#000000" points="405,-.5 405,-41.5 531,-41.5 531,-.5 405,-.5"/>
<text text-anchor="start" x="413" y="-29.5" font-family="Helvetica,sans-Serif" font-size="10.00" fill="#000000">DataOut_DoFData&lt; dim,</text>
<text text-anchor="start" x="413" y="-18.5" font-family="Helvetica,sans-Serif" font-size="10.00" fill="#000000"> patch_dim, spacedim,</text>
<text text-anchor="middle" x="468" y="-7.5" font-family="Helvetica,sans-Serif" font-size="10.00" fill="#000000"> patch_spacedim &gt;</text>
</a>
</g>
</g>
<!-- Node2&#45;&gt;Node4 -->
<g id="edge5" class="edge">
<title>Node2&#45;&gt;Node4</title>
<path fill="none" stroke="#191970" d="M378.2475,-34.2558C387.106,-32.9474 396.1007,-31.619 404.8043,-30.3335"/>
<polygon fill="#191970" stroke="#191970" points="377.708,-30.7974 368.3267,-35.721 378.7308,-37.7223 377.708,-30.7974"/>
</g>
<!-- Node3 -->
<g id="node4" class="node">
<title>Node3</title>
<g id="a_node4"><a xlink:href="classDataOutInterface.html" target="_top" xlink:title="DataOutInterface\&lt; dim,\l spacedim \&gt;">
<polygon fill="#ffffff" stroke="#000000" points="0,-30 0,-60 119,-60 119,-30 0,-30"/>
<text text-anchor="start" x="8" y="-48" font-family="Helvetica,sans-Serif" font-size="10.00" fill="#000000">DataOutInterface&lt; dim,</text>
<text text-anchor="middle" x="59.5" y="-37" font-family="Helvetica,sans-Serif" font-size="10.00" fill="#000000"> spacedim &gt;</text>
</a>
</g>
</g>
<!-- Node3&#45;&gt;Node2 -->
<g id="edge3" class="edge">
<title>Node3&#45;&gt;Node2</title>
<path fill="none" stroke="#ffa500" stroke-dasharray="5,2" d="M129.3753,-45C165.0215,-45 208.0364,-45 242.6329,-45"/>
<polygon fill="#ffa500" stroke="#ffa500" points="129.0498,-41.5001 119.0497,-45 129.0497,-48.5001 129.0498,-41.5001"/>
<text text-anchor="start" x="137" y="-59" font-family="Helvetica,sans-Serif" font-size="10.00" fill="#000000"> &lt; patch_dim, patch</text>
<text text-anchor="middle" x="181" y="-48" font-family="Helvetica,sans-Serif" font-size="10.00" fill="#000000">_spacedim &gt;</text>
</g>
<!-- Node4&#45;&gt;Node1 -->
<g id="edge4" class="edge">
<title>Node4&#45;&gt;Node1</title>
<path fill="none" stroke="#ffa500" stroke-dasharray="5,2" d="M541.3278,-25.3481C574.5425,-27.5463 614.2867,-30.4949 650,-34 655.8228,-34.5715 661.8559,-35.2157 667.9085,-35.8984"/>
<polygon fill="#ffa500" stroke="#ffa500" points="541.4477,-21.8486 531.2411,-24.6902 540.9921,-28.8337 541.4477,-21.8486"/>
<text text-anchor="start" x="549" y="-48" font-family="Helvetica,sans-Serif" font-size="10.00" fill="#000000"> &lt; dim, dim, spacedim,</text>
<text text-anchor="middle" x="599.5" y="-37" font-family="Helvetica,sans-Serif" font-size="10.00" fill="#000000"> spacedim &gt;</text>
</g>
</g>
</svg>
