<?xml version="1.0" encoding="UTF-8" standalone="no"?>
<!DOCTYPE svg PUBLIC "-//W3C//DTD SVG 1.1//EN"
 "http://www.w3.org/Graphics/SVG/1.1/DTD/svg11.dtd">
<!-- Generated by graphviz version 2.40.1 (20161225.0304)
 -->
<!-- Title: MatrixBlock&lt; MatrixType &gt; Pages: 1 -->
<!--zoomable 1262 -->
<svg id="main" version="1.1" xmlns="http://www.w3.org/2000/svg" xmlns:xlink="http://www.w3.org/1999/xlink" xml:space="preserve" onload="init(evt)">
<style type="text/css"><![CDATA[
.edge:hover path { stroke: red; }
.edge:hover polygon { stroke: red; fill: red; }
]]></style>
<script type="text/javascript"><![CDATA[
var edges = document.getElementsByTagName('g');
if (edges && edges.length) {
  for (var i=0;i<edges.length;i++) {
    if (edges[i].id.substr(0,4)=='edge') {
      edges[i].setAttribute('class','edge');
    }
  }
}
]]></script>
        <defs>
                <circle id="rim" cx="0" cy="0" r="7"/>
                <circle id="rim2" cx="0" cy="0" r="3.5"/>
                <g id="zoomPlus">
                        <use xlink:href="#rim" fill="#404040">
                                <set attributeName="fill" to="#808080" begin="zoomplus.mouseover" end="zoomplus.mouseout"/>
                        </use>
                        <path d="M-4,0h8M0,-4v8" fill="none" stroke="white" stroke-width="1.5" pointer-events="none"/>
                </g>
                <g id="zoomMin">
                        <use xlink:href="#rim" fill="#404040">
                                <set attributeName="fill" to="#808080" begin="zoomminus.mouseover" end="zoomminus.mouseout"/>
                        </use>
                        <path d="M-4,0h8" fill="none" stroke="white" stroke-width="1.5" pointer-events="none"/>
                </g>
                <g id="dirArrow">
                        <path fill="none" stroke="white" stroke-width="1.5" d="M0,-3.0v7 M-2.5,-0.5L0,-3.0L2.5,-0.5"/>
                </g>
               <g id="resetDef">
                       <use xlink:href="#rim2" fill="#404040">
                               <set attributeName="fill" to="#808080" begin="reset.mouseover" end="reset.mouseout"/>
                       </use>
               </g>
        </defs>

<script type="text/javascript">
var viewWidth = 746;
var viewHeight = 1262;
var sectionId = 'dynsection-1';
</script>
<script xlink:href="svgpan.js"/>
<svg id="graph" class="graph">
<g id="viewport">
<title>MatrixBlock&lt; MatrixType &gt;</title>
<polygon fill="#ffffff" stroke="transparent" points="-4,4 -4,-1258 741.5,-1258 741.5,4 -4,4"/>
<!-- Node3 -->
<g id="node1" class="node">
<title>Node3</title>
<polygon fill="#bfbfbf" stroke="#000000" points="183,-.5 183,-178.5 338,-178.5 338,-.5 183,-.5"/>
<text text-anchor="middle" x="260.5" y="-166.5" font-family="Helvetica,sans-Serif" font-size="10.00" fill="#000000">MatrixBlock&lt; MatrixType &gt;</text>
<polyline fill="none" stroke="#000000" points="183,-159.5 338,-159.5 "/>
<text text-anchor="middle" x="260.5" y="-147.5" font-family="Helvetica,sans-Serif" font-size="10.00" fill="#000000"> </text>
<polyline fill="none" stroke="#000000" points="183,-140.5 338,-140.5 "/>
<text text-anchor="start" x="191" y="-128.5" font-family="Helvetica,sans-Serif" font-size="10.00" fill="#000000">+ MatrixBlock()</text>
<text text-anchor="start" x="191" y="-117.5" font-family="Helvetica,sans-Serif" font-size="10.00" fill="#000000">+ MatrixBlock()</text>
<text text-anchor="start" x="191" y="-106.5" font-family="Helvetica,sans-Serif" font-size="10.00" fill="#000000">+ operator=()</text>
<text text-anchor="start" x="191" y="-95.5" font-family="Helvetica,sans-Serif" font-size="10.00" fill="#000000">+ MatrixBlock()</text>
<text text-anchor="start" x="191" y="-84.5" font-family="Helvetica,sans-Serif" font-size="10.00" fill="#000000">+ reinit()</text>
<text text-anchor="start" x="191" y="-73.5" font-family="Helvetica,sans-Serif" font-size="10.00" fill="#000000">+ operator MatrixType &amp;()</text>
<text text-anchor="start" x="191" y="-62.5" font-family="Helvetica,sans-Serif" font-size="10.00" fill="#000000">+ operator const MatrixType &amp;()</text>
<text text-anchor="start" x="191" y="-51.5" font-family="Helvetica,sans-Serif" font-size="10.00" fill="#000000">+ add()</text>
<text text-anchor="start" x="191" y="-40.5" font-family="Helvetica,sans-Serif" font-size="10.00" fill="#000000">+ add()</text>
<text text-anchor="start" x="191" y="-29.5" font-family="Helvetica,sans-Serif" font-size="10.00" fill="#000000">+ add()</text>
<text text-anchor="start" x="191" y="-18.5" font-family="Helvetica,sans-Serif" font-size="10.00" fill="#000000">and 8 more...</text>
<text text-anchor="start" x="191" y="-7.5" font-family="Helvetica,sans-Serif" font-size="10.00" fill="#000000">&#45; void ::internal::reinit()</text>
</g>
<!-- Node4 -->
<g id="node2" class="node">
<title>Node4</title>
<g id="a_node2"><a xlink:href="classSubscriptor.html" target="_top" xlink:title="{Subscriptor\n||+ Subscriptor()\l+ Subscriptor()\l+ Subscriptor()\l+ ~Subscriptor()\l+ operator=()\l+ operator=()\l+ serialize()\l+ subscribe()\l+ unsubscribe()\l+ n_subscriptions()\l+ list_subscribers()\l+ list_subscribers()\l+ ExcInUse()\l+ ExcNoSubscriber()\l&#45; check_no_subscribers()\l* subscribe()\l* unsubscribe()\l* n_subscriptions()\l* list_subscribers()\l* list_subscribers()\l}">
<polygon fill="#ffffff" stroke="#000000" points="259.5,-639.5 259.5,-905.5 385.5,-905.5 385.5,-639.5 259.5,-639.5"/>
<text text-anchor="middle" x="322.5" y="-893.5" font-family="Helvetica,sans-Serif" font-size="10.00" fill="#000000">Subscriptor</text>
<polyline fill="none" stroke="#000000" points="259.5,-886.5 385.5,-886.5 "/>
<text text-anchor="middle" x="322.5" y="-874.5" font-family="Helvetica,sans-Serif" font-size="10.00" fill="#000000"> </text>
<polyline fill="none" stroke="#000000" points="259.5,-867.5 385.5,-867.5 "/>
<text text-anchor="start" x="267.5" y="-855.5" font-family="Helvetica,sans-Serif" font-size="10.00" fill="#000000">+ Subscriptor()</text>
<text text-anchor="start" x="267.5" y="-844.5" font-family="Helvetica,sans-Serif" font-size="10.00" fill="#000000">+ Subscriptor()</text>
<text text-anchor="start" x="267.5" y="-833.5" font-family="Helvetica,sans-Serif" font-size="10.00" fill="#000000">+ Subscriptor()</text>
<text text-anchor="start" x="267.5" y="-822.5" font-family="Helvetica,sans-Serif" font-size="10.00" fill="#000000">+ ~Subscriptor()</text>
<text text-anchor="start" x="267.5" y="-811.5" font-family="Helvetica,sans-Serif" font-size="10.00" fill="#000000">+ operator=()</text>
<text text-anchor="start" x="267.5" y="-800.5" font-family="Helvetica,sans-Serif" font-size="10.00" fill="#000000">+ operator=()</text>
<text text-anchor="start" x="267.5" y="-789.5" font-family="Helvetica,sans-Serif" font-size="10.00" fill="#000000">+ serialize()</text>
<text text-anchor="start" x="267.5" y="-778.5" font-family="Helvetica,sans-Serif" font-size="10.00" fill="#000000">+ subscribe()</text>
<text text-anchor="start" x="267.5" y="-767.5" font-family="Helvetica,sans-Serif" font-size="10.00" fill="#000000">+ unsubscribe()</text>
<text text-anchor="start" x="267.5" y="-756.5" font-family="Helvetica,sans-Serif" font-size="10.00" fill="#000000">+ n_subscriptions()</text>
<text text-anchor="start" x="267.5" y="-745.5" font-family="Helvetica,sans-Serif" font-size="10.00" fill="#000000">+ list_subscribers()</text>
<text text-anchor="start" x="267.5" y="-734.5" font-family="Helvetica,sans-Serif" font-size="10.00" fill="#000000">+ list_subscribers()</text>
<text text-anchor="start" x="267.5" y="-723.5" font-family="Helvetica,sans-Serif" font-size="10.00" fill="#000000">+ ExcInUse()</text>
<text text-anchor="start" x="267.5" y="-712.5" font-family="Helvetica,sans-Serif" font-size="10.00" fill="#000000">+ ExcNoSubscriber()</text>
<text text-anchor="start" x="267.5" y="-701.5" font-family="Helvetica,sans-Serif" font-size="10.00" fill="#000000">&#45; check_no_subscribers()</text>
<text text-anchor="start" x="267.5" y="-690.5" font-family="Helvetica,sans-Serif" font-size="10.00" fill="#000000">* subscribe()</text>
<text text-anchor="start" x="267.5" y="-679.5" font-family="Helvetica,sans-Serif" font-size="10.00" fill="#000000">* unsubscribe()</text>
<text text-anchor="start" x="267.5" y="-668.5" font-family="Helvetica,sans-Serif" font-size="10.00" fill="#000000">* n_subscriptions()</text>
<text text-anchor="start" x="267.5" y="-657.5" font-family="Helvetica,sans-Serif" font-size="10.00" fill="#000000">* list_subscribers()</text>
<text text-anchor="start" x="267.5" y="-646.5" font-family="Helvetica,sans-Serif" font-size="10.00" fill="#000000">* list_subscribers()</text>
</a>
</g>
</g>
<!-- Node4&#45;&gt;Node3 -->
<g id="edge1" class="edge">
<title>Node4&#45;&gt;Node3</title>
<path fill="none" stroke="#191970" d="M323.7644,-629.1721C322.6494,-512.1321 316.1266,-342.8379 291.5,-197 290.4812,-190.9669 289.2438,-184.791 287.857,-178.5986"/>
<polygon fill="none" stroke="#191970" points="320.2653,-629.3003 323.8485,-639.2708 327.265,-629.242 320.2653,-629.3003"/>
</g>
<!-- Node20 -->
<g id="node18" class="node">
<title>Node20</title>
<g id="a_node18"><a xlink:href="classBlockIndices.html" target="_top" xlink:title="{BlockIndices\n||+ BlockIndices()\l+ BlockIndices()\l+ BlockIndices()\l+ BlockIndices()\l+ BlockIndices()\l+ reinit()\l+ reinit()\l+ push_back()\l+ operator=()\l+ operator=()\l+ operator==()\l+ swap()\l+ memory_consumption()\l+ size()\l+ total_size()\l+ block_size()\l+ to_string()\l+ global_to_local()\l+ local_to_global()\l+ block_start()\l* size()\l* total_size()\l* block_size()\l* to_string()\l* global_to_local()\l* local_to_global()\l* block_start()\l}">
<polygon fill="#ffffff" stroke="#000000" points="149.5,-237.5 149.5,-580.5 277.5,-580.5 277.5,-237.5 149.5,-237.5"/>
<text text-anchor="middle" x="213.5" y="-568.5" font-family="Helvetica,sans-Serif" font-size="10.00" fill="#000000">BlockIndices</text>
<polyline fill="none" stroke="#000000" points="149.5,-561.5 277.5,-561.5 "/>
<text text-anchor="middle" x="213.5" y="-549.5" font-family="Helvetica,sans-Serif" font-size="10.00" fill="#000000"> </text>
<polyline fill="none" stroke="#000000" points="149.5,-542.5 277.5,-542.5 "/>
<text text-anchor="start" x="157.5" y="-530.5" font-family="Helvetica,sans-Serif" font-size="10.00" fill="#000000">+ BlockIndices()</text>
<text text-anchor="start" x="157.5" y="-519.5" font-family="Helvetica,sans-Serif" font-size="10.00" fill="#000000">+ BlockIndices()</text>
<text text-anchor="start" x="157.5" y="-508.5" font-family="Helvetica,sans-Serif" font-size="10.00" fill="#000000">+ BlockIndices()</text>
<text text-anchor="start" x="157.5" y="-497.5" font-family="Helvetica,sans-Serif" font-size="10.00" fill="#000000">+ BlockIndices()</text>
<text text-anchor="start" x="157.5" y="-486.5" font-family="Helvetica,sans-Serif" font-size="10.00" fill="#000000">+ BlockIndices()</text>
<text text-anchor="start" x="157.5" y="-475.5" font-family="Helvetica,sans-Serif" font-size="10.00" fill="#000000">+ reinit()</text>
<text text-anchor="start" x="157.5" y="-464.5" font-family="Helvetica,sans-Serif" font-size="10.00" fill="#000000">+ reinit()</text>
<text text-anchor="start" x="157.5" y="-453.5" font-family="Helvetica,sans-Serif" font-size="10.00" fill="#000000">+ push_back()</text>
<text text-anchor="start" x="157.5" y="-442.5" font-family="Helvetica,sans-Serif" font-size="10.00" fill="#000000">+ operator=()</text>
<text text-anchor="start" x="157.5" y="-431.5" font-family="Helvetica,sans-Serif" font-size="10.00" fill="#000000">+ operator=()</text>
<text text-anchor="start" x="157.5" y="-420.5" font-family="Helvetica,sans-Serif" font-size="10.00" fill="#000000">+ operator==()</text>
<text text-anchor="start" x="157.5" y="-409.5" font-family="Helvetica,sans-Serif" font-size="10.00" fill="#000000">+ swap()</text>
<text text-anchor="start" x="157.5" y="-398.5" font-family="Helvetica,sans-Serif" font-size="10.00" fill="#000000">+ memory_consumption()</text>
<text text-anchor="start" x="157.5" y="-387.5" font-family="Helvetica,sans-Serif" font-size="10.00" fill="#000000">+ size()</text>
<text text-anchor="start" x="157.5" y="-376.5" font-family="Helvetica,sans-Serif" font-size="10.00" fill="#000000">+ total_size()</text>
<text text-anchor="start" x="157.5" y="-365.5" font-family="Helvetica,sans-Serif" font-size="10.00" fill="#000000">+ block_size()</text>
<text text-anchor="start" x="157.5" y="-354.5" font-family="Helvetica,sans-Serif" font-size="10.00" fill="#000000">+ to_string()</text>
<text text-anchor="start" x="157.5" y="-343.5" font-family="Helvetica,sans-Serif" font-size="10.00" fill="#000000">+ global_to_local()</text>
<text text-anchor="start" x="157.5" y="-332.5" font-family="Helvetica,sans-Serif" font-size="10.00" fill="#000000">+ local_to_global()</text>
<text text-anchor="start" x="157.5" y="-321.5" font-family="Helvetica,sans-Serif" font-size="10.00" fill="#000000">+ block_start()</text>
<text text-anchor="start" x="157.5" y="-310.5" font-family="Helvetica,sans-Serif" font-size="10.00" fill="#000000">* size()</text>
<text text-anchor="start" x="157.5" y="-299.5" font-family="Helvetica,sans-Serif" font-size="10.00" fill="#000000">* total_size()</text>
<text text-anchor="start" x="157.5" y="-288.5" font-family="Helvetica,sans-Serif" font-size="10.00" fill="#000000">* block_size()</text>
<text text-anchor="start" x="157.5" y="-277.5" font-family="Helvetica,sans-Serif" font-size="10.00" fill="#000000">* to_string()</text>
<text text-anchor="start" x="157.5" y="-266.5" font-family="Helvetica,sans-Serif" font-size="10.00" fill="#000000">* global_to_local()</text>
<text text-anchor="start" x="157.5" y="-255.5" font-family="Helvetica,sans-Serif" font-size="10.00" fill="#000000">* local_to_global()</text>
<text text-anchor="start" x="157.5" y="-244.5" font-family="Helvetica,sans-Serif" font-size="10.00" fill="#000000">* block_start()</text>
</a>
</g>
</g>
<!-- Node4&#45;&gt;Node20 -->
<g id="edge19" class="edge">
<title>Node4&#45;&gt;Node20</title>
<path fill="none" stroke="#191970" d="M279.6274,-629.5257C274.8107,-613.4626 269.8668,-596.9757 264.9561,-580.599"/>
<polygon fill="none" stroke="#191970" points="276.3837,-630.8944 282.6086,-639.4677 283.0888,-628.8837 276.3837,-630.8944"/>
</g>
<!-- Node5 -->
<g id="node3" class="node">
<title>Node5</title>
<polygon fill="#ffffff" stroke="#bfbfbf" points="493.5,-953.5 493.5,-1021.5 603.5,-1021.5 603.5,-953.5 493.5,-953.5"/>
<text text-anchor="start" x="501.5" y="-1009.5" font-family="Helvetica,sans-Serif" font-size="10.00" fill="#000000">std::map&lt; std::string,</text>
<text text-anchor="middle" x="548.5" y="-998.5" font-family="Helvetica,sans-Serif" font-size="10.00" fill="#000000"> unsigned int &gt;</text>
<polyline fill="none" stroke="#bfbfbf" points="493.5,-991.5 603.5,-991.5 "/>
<text text-anchor="middle" x="548.5" y="-979.5" font-family="Helvetica,sans-Serif" font-size="10.00" fill="#000000"> </text>
<polyline fill="none" stroke="#bfbfbf" points="493.5,-972.5 603.5,-972.5 "/>
<text text-anchor="middle" x="548.5" y="-960.5" font-family="Helvetica,sans-Serif" font-size="10.00" fill="#000000"> </text>
</g>
<!-- Node5&#45;&gt;Node4 -->
<g id="edge2" class="edge">
<title>Node5&#45;&gt;Node4</title>
<path fill="none" stroke="#404040" d="M512.6896,-953.4326C481.0999,-923.3805 434.0936,-878.6621 394.7176,-841.2026"/>
<polygon fill="none" stroke="#404040" points="394.6188,-841.1086 387.5146,-839.8711 385.9245,-832.8375 393.0287,-834.0749 394.6188,-841.1086"/>
<text text-anchor="middle" x="519" y="-927" font-family="Helvetica,sans-Serif" font-size="10.00" fill="#000000"> &#45;counter_map</text>
</g>
<!-- Node6 -->
<g id="node4" class="node">
<title>Node6</title>
<g id="a_node4"><a xlink:href="classint.html" target="_top" xlink:title="{int\n||}">
<polygon fill="#ffffff" stroke="#000000" points="574,-1080.5 574,-1137.5 603,-1137.5 603,-1080.5 574,-1080.5"/>
<text text-anchor="middle" x="588.5" y="-1125.5" font-family="Helvetica,sans-Serif" font-size="10.00" fill="#000000">int</text>
<polyline fill="none" stroke="#000000" points="574,-1118.5 603,-1118.5 "/>
<text text-anchor="middle" x="588.5" y="-1106.5" font-family="Helvetica,sans-Serif" font-size="10.00" fill="#000000"> </text>
<polyline fill="none" stroke="#000000" points="574,-1099.5 603,-1099.5 "/>
<text text-anchor="middle" x="588.5" y="-1087.5" font-family="Helvetica,sans-Serif" font-size="10.00" fill="#000000"> </text>
</a>
</g>
</g>
<!-- Node6&#45;&gt;Node5 -->
<g id="edge3" class="edge">
<title>Node6&#45;&gt;Node5</title>
<path fill="none" stroke="#404040" d="M579.5401,-1080.42C575.6015,-1067.9822 570.8832,-1053.2502 566.5,-1040 565.7624,-1037.7702 565.002,-1035.4891 564.23,-1033.1866"/>
<polygon fill="none" stroke="#404040" points="564.1678,-1033.0026 558.4563,-1028.6004 560.3231,-1021.6351 566.0346,-1026.0373 564.1678,-1033.0026"/>
<text text-anchor="middle" x="597" y="-1048.5" font-family="Helvetica,sans-Serif" font-size="10.00" fill="#000000"> +elements</text>
</g>
<!-- Node7 -->
<g id="node5" class="node">
<title>Node7</title>
<g id="a_node5"><a xlink:title="STL class. ">
<polygon fill="#ffffff" stroke="#bfbfbf" points="630.5,-1080.5 630.5,-1137.5 690.5,-1137.5 690.5,-1080.5 630.5,-1080.5"/>
<text text-anchor="middle" x="660.5" y="-1125.5" font-family="Helvetica,sans-Serif" font-size="10.00" fill="#000000">std::string</text>
<polyline fill="none" stroke="#bfbfbf" points="630.5,-1118.5 690.5,-1118.5 "/>
<text text-anchor="middle" x="660.5" y="-1106.5" font-family="Helvetica,sans-Serif" font-size="10.00" fill="#000000"> </text>
<polyline fill="none" stroke="#bfbfbf" points="630.5,-1099.5 690.5,-1099.5 "/>
<text text-anchor="middle" x="660.5" y="-1087.5" font-family="Helvetica,sans-Serif" font-size="10.00" fill="#000000"> </text>
</a>
</g>
</g>
<!-- Node7&#45;&gt;Node5 -->
<g id="edge4" class="edge">
<title>Node7&#45;&gt;Node5</title>
<path fill="none" stroke="#404040" d="M649.7738,-1080.1644C643.9351,-1066.9694 635.7846,-1051.7048 625.5,-1040 621.6954,-1035.67 617.4586,-1031.5285 612.9834,-1027.6068"/>
<polygon fill="none" stroke="#404040" points="612.8163,-1027.4702 605.6393,-1026.77 603.5252,-1019.8758 610.7022,-1020.5759 612.8163,-1027.4702"/>
<text text-anchor="middle" x="655" y="-1048.5" font-family="Helvetica,sans-Serif" font-size="10.00" fill="#000000"> +keys</text>
</g>
<!-- Node8 -->
<g id="node6" class="node">
<title>Node8</title>
<g id="a_node6"><a xlink:title="STL class. ">
<polygon fill="#ffffff" stroke="#bfbfbf" points="613,-1185.5 613,-1253.5 708,-1253.5 708,-1185.5 613,-1185.5"/>
<text text-anchor="start" x="621" y="-1241.5" font-family="Helvetica,sans-Serif" font-size="10.00" fill="#000000">std::basic_string&lt;</text>
<text text-anchor="middle" x="660.5" y="-1230.5" font-family="Helvetica,sans-Serif" font-size="10.00" fill="#000000"> char &gt;</text>
<polyline fill="none" stroke="#bfbfbf" points="613,-1223.5 708,-1223.5 "/>
<text text-anchor="middle" x="660.5" y="-1211.5" font-family="Helvetica,sans-Serif" font-size="10.00" fill="#000000"> </text>
<polyline fill="none" stroke="#bfbfbf" points="613,-1204.5 708,-1204.5 "/>
<text text-anchor="middle" x="660.5" y="-1192.5" font-family="Helvetica,sans-Serif" font-size="10.00" fill="#000000"> </text>
</a>
</g>
</g>
<!-- Node8&#45;&gt;Node7 -->
<g id="edge5" class="edge">
<title>Node8&#45;&gt;Node7</title>
<path fill="none" stroke="#191970" d="M660.5,-1175.0661C660.5,-1162.4172 660.5,-1148.9812 660.5,-1137.5519"/>
<polygon fill="none" stroke="#191970" points="657.0001,-1175.4447 660.5,-1185.4447 664.0001,-1175.4447 657.0001,-1175.4447"/>
</g>
<!-- Node9 -->
<g id="node7" class="node">
<title>Node9</title>
<g id="a_node7"><a xlink:title="STL class. ">
<polygon fill="#ffffff" stroke="#bfbfbf" points="428.5,-1080.5 428.5,-1137.5 520.5,-1137.5 520.5,-1080.5 428.5,-1080.5"/>
<text text-anchor="middle" x="474.5" y="-1125.5" font-family="Helvetica,sans-Serif" font-size="10.00" fill="#000000">std::map&lt; K, T &gt;</text>
<polyline fill="none" stroke="#bfbfbf" points="428.5,-1118.5 520.5,-1118.5 "/>
<text text-anchor="middle" x="474.5" y="-1106.5" font-family="Helvetica,sans-Serif" font-size="10.00" fill="#000000"> </text>
<polyline fill="none" stroke="#bfbfbf" points="428.5,-1099.5 520.5,-1099.5 "/>
<text text-anchor="middle" x="474.5" y="-1087.5" font-family="Helvetica,sans-Serif" font-size="10.00" fill="#000000"> </text>
</a>
</g>
</g>
<!-- Node9&#45;&gt;Node5 -->
<g id="edge6" class="edge">
<title>Node9&#45;&gt;Node5</title>
<path fill="none" stroke="#ffa500" d="M458.178,-1070.6184C456.1174,-1060.1998 456.2776,-1049.251 461.5,-1040 463.6681,-1036.1594 477.4175,-1027.3084 493.3695,-1017.9474"/>
<polygon fill="#ffa500" stroke="#ffa500" points="454.8145,-1071.5901 460.7414,-1080.3721 461.5846,-1069.8108 454.8145,-1071.5901"/>
<text text-anchor="start" x="461.5" y="-1054" font-family="Helvetica,sans-Serif" font-size="10.00" fill="#000000"> &lt; std::string, unsigned</text>
<text text-anchor="middle" x="512" y="-1043" font-family="Helvetica,sans-Serif" font-size="10.00" fill="#000000"> int &gt;</text>
</g>
<!-- Node10 -->
<g id="node8" class="node">
<title>Node10</title>
<polygon fill="#ffffff" stroke="#bfbfbf" points="460,-1191 460,-1248 489,-1248 489,-1191 460,-1191"/>
<text text-anchor="middle" x="474.5" y="-1236" font-family="Helvetica,sans-Serif" font-size="10.00" fill="#000000">K</text>
<polyline fill="none" stroke="#bfbfbf" points="460,-1229 489,-1229 "/>
<text text-anchor="middle" x="474.5" y="-1217" font-family="Helvetica,sans-Serif" font-size="10.00" fill="#000000"> </text>
<polyline fill="none" stroke="#bfbfbf" points="460,-1210 489,-1210 "/>
<text text-anchor="middle" x="474.5" y="-1198" font-family="Helvetica,sans-Serif" font-size="10.00" fill="#000000"> </text>
</g>
<!-- Node10&#45;&gt;Node9 -->
<g id="edge7" class="edge">
<title>Node10&#45;&gt;Node9</title>
<path fill="none" stroke="#404040" d="M474.5,-1190.7559C474.5,-1178.2224 474.5,-1163.3039 474.5,-1149.6631"/>
<polygon fill="none" stroke="#404040" points="474.5001,-1149.6002 470.5,-1143.6002 474.5,-1137.6002 478.5,-1143.6002 474.5001,-1149.6002"/>
<text text-anchor="middle" x="490" y="-1159" font-family="Helvetica,sans-Serif" font-size="10.00" fill="#000000"> +keys</text>
</g>
<!-- Node11 -->
<g id="node9" class="node">
<title>Node11</title>
<polygon fill="#ffffff" stroke="#bfbfbf" points="308,-1191 308,-1248 337,-1248 337,-1191 308,-1191"/>
<text text-anchor="middle" x="322.5" y="-1236" font-family="Helvetica,sans-Serif" font-size="10.00" fill="#000000">T</text>
<polyline fill="none" stroke="#bfbfbf" points="308,-1229 337,-1229 "/>
<text text-anchor="middle" x="322.5" y="-1217" font-family="Helvetica,sans-Serif" font-size="10.00" fill="#000000"> </text>
<polyline fill="none" stroke="#bfbfbf" points="308,-1210 337,-1210 "/>
<text text-anchor="middle" x="322.5" y="-1198" font-family="Helvetica,sans-Serif" font-size="10.00" fill="#000000"> </text>
</g>
<!-- Node11&#45;&gt;Node9 -->
<g id="edge8" class="edge">
<title>Node11&#45;&gt;Node9</title>
<path fill="none" stroke="#404040" d="M337.0744,-1208.9048C357.1688,-1194.2967 394.3748,-1167.2489 425.0104,-1144.9777"/>
<polygon fill="none" stroke="#404040" points="425.4075,-1144.689 427.9085,-1137.9255 435.1137,-1137.6328 432.6127,-1144.3963 425.4075,-1144.689"/>
<text text-anchor="middle" x="432" y="-1159" font-family="Helvetica,sans-Serif" font-size="10.00" fill="#000000"> +elements</text>
</g>
<!-- Node16 -->
<g id="node14" class="node">
<title>Node16</title>
<g id="a_node14"><a xlink:title="STL class. ">
<polygon fill="#ffffff" stroke="#bfbfbf" points="198,-1080.5 198,-1137.5 285,-1137.5 285,-1080.5 198,-1080.5"/>
<text text-anchor="middle" x="241.5" y="-1125.5" font-family="Helvetica,sans-Serif" font-size="10.00" fill="#000000">std::vector&lt; T &gt;</text>
<polyline fill="none" stroke="#bfbfbf" points="198,-1118.5 285,-1118.5 "/>
<text text-anchor="middle" x="241.5" y="-1106.5" font-family="Helvetica,sans-Serif" font-size="10.00" fill="#000000"> </text>
<polyline fill="none" stroke="#bfbfbf" points="198,-1099.5 285,-1099.5 "/>
<text text-anchor="middle" x="241.5" y="-1087.5" font-family="Helvetica,sans-Serif" font-size="10.00" fill="#000000"> </text>
</a>
</g>
</g>
<!-- Node11&#45;&gt;Node16 -->
<g id="edge14" class="edge">
<title>Node11&#45;&gt;Node16</title>
<path fill="none" stroke="#404040" d="M307.8315,-1199.4893C297.2369,-1185.0361 282.5946,-1165.0611 269.7616,-1147.5544"/>
<polygon fill="none" stroke="#404040" points="269.5536,-1147.2706 262.7802,-1144.7963 262.4591,-1137.5923 269.2324,-1140.0666 269.5536,-1147.2706"/>
<text text-anchor="middle" x="306" y="-1159" font-family="Helvetica,sans-Serif" font-size="10.00" fill="#000000"> +elements</text>
</g>
<!-- Node12 -->
<g id="node10" class="node">
<title>Node12</title>
<polygon fill="#ffffff" stroke="#bfbfbf" points="621.5,-959 621.5,-1016 737.5,-1016 737.5,-959 621.5,-959"/>
<text text-anchor="middle" x="679.5" y="-1004" font-family="Helvetica,sans-Serif" font-size="10.00" fill="#000000">atomic&lt; unsigned int &gt;</text>
<polyline fill="none" stroke="#bfbfbf" points="621.5,-997 737.5,-997 "/>
<text text-anchor="middle" x="679.5" y="-985" font-family="Helvetica,sans-Serif" font-size="10.00" fill="#000000"> </text>
<polyline fill="none" stroke="#bfbfbf" points="621.5,-978 737.5,-978 "/>
<text text-anchor="middle" x="679.5" y="-966" font-family="Helvetica,sans-Serif" font-size="10.00" fill="#000000"> </text>
</g>
<!-- Node12&#45;&gt;Node4 -->
<g id="edge9" class="edge">
<title>Node12&#45;&gt;Node4</title>
<path fill="none" stroke="#404040" d="M632.0932,-958.9497C571.8367,-922.6607 467.1612,-859.6209 396.3892,-816.9991"/>
<polygon fill="none" stroke="#404040" points="396.0484,-816.7939 388.8449,-817.125 385.7687,-810.603 392.9722,-810.2719 396.0484,-816.7939"/>
<text text-anchor="middle" x="603" y="-927" font-family="Helvetica,sans-Serif" font-size="10.00" fill="#000000"> &#45;counter</text>
</g>
<!-- Node13 -->
<g id="node11" class="node">
<title>Node13</title>
<polygon fill="#ffffff" stroke="#bfbfbf" points="210.5,-959 210.5,-1016 254.5,-1016 254.5,-959 210.5,-959"/>
<text text-anchor="middle" x="232.5" y="-1004" font-family="Helvetica,sans-Serif" font-size="10.00" fill="#000000">mutex</text>
<polyline fill="none" stroke="#bfbfbf" points="210.5,-997 254.5,-997 "/>
<text text-anchor="middle" x="232.5" y="-985" font-family="Helvetica,sans-Serif" font-size="10.00" fill="#000000"> </text>
<polyline fill="none" stroke="#bfbfbf" points="210.5,-978 254.5,-978 "/>
<text text-anchor="middle" x="232.5" y="-966" font-family="Helvetica,sans-Serif" font-size="10.00" fill="#000000"> </text>
</g>
<!-- Node13&#45;&gt;Node4 -->
<g id="edge10" class="edge">
<title>Node13&#45;&gt;Node4</title>
<path fill="none" stroke="#404040" d="M244.4513,-958.9497C249.3853,-947.1629 255.5007,-932.5539 262.1208,-916.7391"/>
<polygon fill="none" stroke="#404040" points="262.1426,-916.6869 260.7697,-909.6077 266.7764,-905.6176 268.1493,-912.6968 262.1426,-916.6869"/>
<text text-anchor="middle" x="273.5" y="-927" font-family="Helvetica,sans-Serif" font-size="10.00" fill="#000000"> &#45;mutex</text>
</g>
<!-- Node14 -->
<g id="node12" class="node">
<title>Node14</title>
<polygon fill="#ffffff" stroke="#bfbfbf" points="354,-953.5 354,-1021.5 475,-1021.5 475,-953.5 354,-953.5"/>
<text text-anchor="start" x="362" y="-1009.5" font-family="Helvetica,sans-Serif" font-size="10.00" fill="#000000">std::vector&lt; std::atomic</text>
<text text-anchor="middle" x="414.5" y="-998.5" font-family="Helvetica,sans-Serif" font-size="10.00" fill="#000000">&lt; bool &gt; *&gt;</text>
<polyline fill="none" stroke="#bfbfbf" points="354,-991.5 475,-991.5 "/>
<text text-anchor="middle" x="414.5" y="-979.5" font-family="Helvetica,sans-Serif" font-size="10.00" fill="#000000"> </text>
<polyline fill="none" stroke="#bfbfbf" points="354,-972.5 475,-972.5 "/>
<text text-anchor="middle" x="414.5" y="-960.5" font-family="Helvetica,sans-Serif" font-size="10.00" fill="#000000"> </text>
</g>
<!-- Node14&#45;&gt;Node4 -->
<g id="edge11" class="edge">
<title>Node14&#45;&gt;Node4</title>
<path fill="none" stroke="#404040" d="M399.9223,-953.4326C395.3702,-942.7945 390.0317,-930.3186 384.3229,-916.9775"/>
<polygon fill="none" stroke="#404040" points="384.1705,-916.6212 378.1326,-912.6786 379.4496,-905.5888 385.4875,-909.5314 384.1705,-916.6212"/>
<text text-anchor="middle" x="428" y="-927" font-family="Helvetica,sans-Serif" font-size="10.00" fill="#000000"> &#45;validity_pointers</text>
</g>
<!-- Node15 -->
<g id="node13" class="node">
<title>Node15</title>
<polygon fill="#ffffff" stroke="#bfbfbf" points="321,-1080.5 321,-1137.5 410,-1137.5 410,-1080.5 321,-1080.5"/>
<text text-anchor="middle" x="365.5" y="-1125.5" font-family="Helvetica,sans-Serif" font-size="10.00" fill="#000000">atomic&lt; bool &gt; *</text>
<polyline fill="none" stroke="#bfbfbf" points="321,-1118.5 410,-1118.5 "/>
<text text-anchor="middle" x="365.5" y="-1106.5" font-family="Helvetica,sans-Serif" font-size="10.00" fill="#000000"> </text>
<polyline fill="none" stroke="#bfbfbf" points="321,-1099.5 410,-1099.5 "/>
<text text-anchor="middle" x="365.5" y="-1087.5" font-family="Helvetica,sans-Serif" font-size="10.00" fill="#000000"> </text>
</g>
<!-- Node15&#45;&gt;Node14 -->
<g id="edge12" class="edge">
<title>Node15&#45;&gt;Node14</title>
<path fill="none" stroke="#404040" d="M377.1123,-1080.2062C382.8056,-1066.0891 389.7969,-1048.7535 396.1873,-1032.908"/>
<polygon fill="none" stroke="#404040" points="396.2188,-1032.8298 394.7533,-1025.7692 400.7071,-1021.7007 402.1726,-1028.7614 396.2188,-1032.8298"/>
<text text-anchor="middle" x="417" y="-1048.5" font-family="Helvetica,sans-Serif" font-size="10.00" fill="#000000"> +elements</text>
</g>
<!-- Node16&#45;&gt;Node14 -->
<g id="edge13" class="edge">
<title>Node16&#45;&gt;Node14</title>
<path fill="none" stroke="#ffa500" d="M251.1101,-1070.4271C255.6234,-1059.2096 262.1473,-1047.8719 271.5,-1040 297.3962,-1018.2039 313.7173,-1033.6422 345.5,-1022 348.2667,-1020.9865 351.0675,-1019.8925 353.876,-1018.7391"/>
<polygon fill="#ffa500" stroke="#ffa500" points="247.7003,-1069.5692 247.6408,-1080.1639 254.2943,-1071.9187 247.7003,-1069.5692"/>
<text text-anchor="middle" x="326.5" y="-1048.5" font-family="Helvetica,sans-Serif" font-size="10.00" fill="#000000"> &lt; std::atomic&lt; bool &gt; *&gt;</text>
</g>
<!-- Node21 -->
<g id="node19" class="node">
<title>Node21</title>
<polygon fill="#ffffff" stroke="#bfbfbf" points="56,-738.5 56,-806.5 167,-806.5 167,-738.5 56,-738.5"/>
<text text-anchor="start" x="64" y="-794.5" font-family="Helvetica,sans-Serif" font-size="10.00" fill="#000000">std::vector&lt; unsigned</text>
<text text-anchor="middle" x="111.5" y="-783.5" font-family="Helvetica,sans-Serif" font-size="10.00" fill="#000000"> int &gt;</text>
<polyline fill="none" stroke="#bfbfbf" points="56,-776.5 167,-776.5 "/>
<text text-anchor="middle" x="111.5" y="-764.5" font-family="Helvetica,sans-Serif" font-size="10.00" fill="#000000"> </text>
<polyline fill="none" stroke="#bfbfbf" points="56,-757.5 167,-757.5 "/>
<text text-anchor="middle" x="111.5" y="-745.5" font-family="Helvetica,sans-Serif" font-size="10.00" fill="#000000"> </text>
</g>
<!-- Node16&#45;&gt;Node21 -->
<g id="edge22" class="edge">
<title>Node16&#45;&gt;Node21</title>
<path fill="none" stroke="#ffa500" d="M189.0942,-1082.4718C166.0712,-1067.9224 141.2005,-1047.5942 127.5,-1022 108.0911,-985.7418 108.6493,-866.45 110.249,-806.9208"/>
<polygon fill="#ffa500" stroke="#ffa500" points="187.4371,-1085.5604 197.8003,-1087.764 191.0732,-1079.5788 187.4371,-1085.5604"/>
<text text-anchor="middle" x="164.5" y="-985" font-family="Helvetica,sans-Serif" font-size="10.00" fill="#000000"> &lt; unsigned int &gt;</text>
</g>
<!-- Node17 -->
<g id="node15" class="node">
<title>Node17</title>
<polygon fill="#ffffff" stroke="#bfbfbf" points="273,-959 273,-1016 336,-1016 336,-959 273,-959"/>
<text text-anchor="middle" x="304.5" y="-1004" font-family="Helvetica,sans-Serif" font-size="10.00" fill="#000000">type_info *</text>
<polyline fill="none" stroke="#bfbfbf" points="273,-997 336,-997 "/>
<text text-anchor="middle" x="304.5" y="-985" font-family="Helvetica,sans-Serif" font-size="10.00" fill="#000000"> </text>
<polyline fill="none" stroke="#bfbfbf" points="273,-978 336,-978 "/>
<text text-anchor="middle" x="304.5" y="-966" font-family="Helvetica,sans-Serif" font-size="10.00" fill="#000000"> </text>
</g>
<!-- Node17&#45;&gt;Node4 -->
<g id="edge15" class="edge">
<title>Node17&#45;&gt;Node4</title>
<path fill="none" stroke="#404040" d="M306.8903,-958.9497C307.8581,-947.3895 309.0532,-933.1147 310.3479,-917.6501"/>
<polygon fill="none" stroke="#404040" points="310.354,-917.5757 306.8686,-911.2629 311.3553,-905.6176 314.8407,-911.9304 310.354,-917.5757"/>
<text text-anchor="middle" x="335.5" y="-927" font-family="Helvetica,sans-Serif" font-size="10.00" fill="#000000"> &#45;object_info</text>
</g>
<!-- Node18 -->
<g id="node16" class="node">
<title>Node18</title>
<polygon fill="#ffffff" stroke="#bfbfbf" points="334,-380.5 334,-437.5 399,-437.5 399,-380.5 334,-380.5"/>
<text text-anchor="middle" x="366.5" y="-425.5" font-family="Helvetica,sans-Serif" font-size="10.00" fill="#000000">MatrixType</text>
<polyline fill="none" stroke="#bfbfbf" points="334,-418.5 399,-418.5 "/>
<text text-anchor="middle" x="366.5" y="-406.5" font-family="Helvetica,sans-Serif" font-size="10.00" fill="#000000"> </text>
<polyline fill="none" stroke="#bfbfbf" points="334,-399.5 399,-399.5 "/>
<text text-anchor="middle" x="366.5" y="-387.5" font-family="Helvetica,sans-Serif" font-size="10.00" fill="#000000"> </text>
</g>
<!-- Node18&#45;&gt;Node3 -->
<g id="edge16" class="edge">
<title>Node18&#45;&gt;Node3</title>
<path fill="none" stroke="#404040" d="M362.8045,-380.4867C356.8566,-339.0781 343.3422,-260.3308 319.5,-197 318.6063,-194.6262 317.6681,-192.2406 316.6913,-189.8493"/>
<polygon fill="none" stroke="#404040" points="316.6103,-189.6611 310.5625,-185.7336 311.8618,-178.6405 317.9096,-182.568 316.6103,-189.6611"/>
<text text-anchor="middle" x="343" y="-205.5" font-family="Helvetica,sans-Serif" font-size="10.00" fill="#000000"> +matrix</text>
</g>
<!-- Node19 -->
<g id="node17" class="node">
<title>Node19</title>
<g id="a_node17"><a xlink:href="classunsigned_01int.html" target="_top" xlink:title="{unsigned int\n||}">
<polygon fill="#ffffff" stroke="#000000" points="0,-959 0,-1016 69,-1016 69,-959 0,-959"/>
<text text-anchor="middle" x="34.5" y="-1004" font-family="Helvetica,sans-Serif" font-size="10.00" fill="#000000">unsigned int</text>
<polyline fill="none" stroke="#000000" points="0,-997 69,-997 "/>
<text text-anchor="middle" x="34.5" y="-985" font-family="Helvetica,sans-Serif" font-size="10.00" fill="#000000"> </text>
<polyline fill="none" stroke="#000000" points="0,-978 69,-978 "/>
<text text-anchor="middle" x="34.5" y="-966" font-family="Helvetica,sans-Serif" font-size="10.00" fill="#000000"> </text>
</a>
</g>
</g>
<!-- Node19&#45;&gt;Node3 -->
<g id="edge17" class="edge">
<title>Node19&#45;&gt;Node3</title>
<path fill="none" stroke="#404040" d="M32.3919,-958.7585C26.0249,-855.1822 14.5273,-493.6237 140.5,-237 149.9509,-217.7472 162.3336,-198.7666 175.5513,-181.16"/>
<polygon fill="none" stroke="#404040" points="175.647,-181.0357 176.1374,-173.8413 182.967,-171.5269 182.4766,-178.7213 175.647,-181.0357"/>
<text text-anchor="middle" x="63" y="-613" font-family="Helvetica,sans-Serif" font-size="10.00" fill="#000000"> +column</text>
<text text-anchor="middle" x="63" y="-602" font-family="Helvetica,sans-Serif" font-size="10.00" fill="#000000">+row</text>
</g>
<!-- Node19&#45;&gt;Node21 -->
<g id="edge21" class="edge">
<title>Node19&#45;&gt;Node21</title>
<path fill="none" stroke="#404040" d="M43.6988,-958.9795C47.2962,-948.0149 51.5101,-935.3978 55.5,-924 68.014,-888.2514 82.9121,-848.0513 94.1949,-818.0488"/>
<polygon fill="none" stroke="#404040" points="94.2498,-817.9029 92.6234,-810.8775 98.4828,-806.6742 100.1092,-813.6996 94.2498,-817.9029"/>
<text text-anchor="middle" x="80" y="-927" font-family="Helvetica,sans-Serif" font-size="10.00" fill="#000000"> +elements</text>
</g>
<!-- Node20&#45;&gt;Node3 -->
<g id="edge18" class="edge">
<title>Node20&#45;&gt;Node3</title>
<path fill="none" stroke="#404040" d="M211.4308,-237.4608C212.8754,-223.7052 214.853,-210.0792 217.5,-197 217.937,-194.8405 218.4155,-192.6689 218.931,-190.4902"/>
<polygon fill="none" stroke="#404040" points="218.9543,-190.4014 216.6178,-183.5793 222.0164,-178.7986 224.353,-185.6207 218.9543,-190.4014"/>
<text text-anchor="middle" x="254.5" y="-211" font-family="Helvetica,sans-Serif" font-size="10.00" fill="#000000"> &#45;column_indices</text>
<text text-anchor="middle" x="254.5" y="-200" font-family="Helvetica,sans-Serif" font-size="10.00" fill="#000000">&#45;row_indices</text>
</g>
<!-- Node21&#45;&gt;Node20 -->
<g id="edge20" class="edge">
<title>Node21&#45;&gt;Node20</title>
<path fill="none" stroke="#404040" d="M117.2461,-738.278C123.4754,-703.0563 134.315,-646.7414 147.5,-599 148.1275,-596.728 148.7677,-594.4437 149.4197,-592.1493"/>
<polygon fill="none" stroke="#404040" points="149.4258,-592.1282 147.2574,-585.2509 152.7717,-580.6041 154.9401,-587.4815 149.4258,-592.1282"/>
<text text-anchor="middle" x="178.5" y="-607.5" font-family="Helvetica,sans-Serif" font-size="10.00" fill="#000000"> &#45;start_indices</text>
</g>
<!-- Node22 -->
<g id="node20" class="node">
<title>Node22</title>
<polygon fill="#ffffff" stroke="#bfbfbf" points="185.5,-744 185.5,-801 241.5,-801 241.5,-744 185.5,-744"/>
<text text-anchor="middle" x="213.5" y="-789" font-family="Helvetica,sans-Serif" font-size="10.00" fill="#000000">unsigned</text>
<polyline fill="none" stroke="#bfbfbf" points="185.5,-782 241.5,-782 "/>
<text text-anchor="middle" x="213.5" y="-770" font-family="Helvetica,sans-Serif" font-size="10.00" fill="#000000"> </text>
<polyline fill="none" stroke="#bfbfbf" points="185.5,-763 241.5,-763 "/>
<text text-anchor="middle" x="213.5" y="-751" font-family="Helvetica,sans-Serif" font-size="10.00" fill="#000000"> </text>
</g>
<!-- Node22&#45;&gt;Node20 -->
<g id="edge23" class="edge">
<title>Node22&#45;&gt;Node20</title>
<path fill="none" stroke="#404040" d="M213.5,-743.9768C213.5,-710.4688 213.5,-651.9467 213.5,-593.0966"/>
<polygon fill="none" stroke="#404040" points="213.5001,-592.9368 209.5,-586.9368 213.5,-580.9368 217.5,-586.9368 213.5001,-592.9368"/>
<text text-anchor="middle" x="236.5" y="-607.5" font-family="Helvetica,sans-Serif" font-size="10.00" fill="#000000"> &#45;n_blocks</text>
</g>
</g>
</svg>
        <g id="navigator" transform="translate(0 0)" fill="#404254">
                <rect fill="#f2f5e9" fill-opacity="0.5" stroke="#606060" stroke-width=".5" x="0" y="0" width="60" height="60"/>
                <use id="zoomplus" xlink:href="#zoomPlus" x="17" y="9" onmousedown="handleZoom(evt,'in')"/>
                <use id="zoomminus" xlink:href="#zoomMin" x="42" y="9" onmousedown="handleZoom(evt,'out')"/>
                <use id="reset" xlink:href="#resetDef" x="30" y="36" onmousedown="handleReset()"/>
                <g id="arrowUp" xlink:href="#dirArrow" transform="translate(30 24)" onmousedown="handlePan(0,-1)">
                  <use xlink:href="#rim" fill="#404040">
                        <set attributeName="fill" to="#808080" begin="arrowUp.mouseover" end="arrowUp.mouseout"/>
                  </use>
                  <path fill="none" stroke="white" stroke-width="1.5" d="M0,-3.0v7 M-2.5,-0.5L0,-3.0L2.5,-0.5"/>
                </g>
                <g id="arrowRight" xlink:href="#dirArrow" transform="rotate(90) translate(36 -43)" onmousedown="handlePan(1,0)">
                  <use xlink:href="#rim" fill="#404040">
                        <set attributeName="fill" to="#808080" begin="arrowRight.mouseover" end="arrowRight.mouseout"/>
                  </use>
                  <path fill="none" stroke="white" stroke-width="1.5" d="M0,-3.0v7 M-2.5,-0.5L0,-3.0L2.5,-0.5"/>
                </g>
                <g id="arrowDown" xlink:href="#dirArrow" transform="rotate(180) translate(-30 -48)" onmousedown="handlePan(0,1)">
                  <use xlink:href="#rim" fill="#404040">
                        <set attributeName="fill" to="#808080" begin="arrowDown.mouseover" end="arrowDown.mouseout"/>
                  </use>
                  <path fill="none" stroke="white" stroke-width="1.5" d="M0,-3.0v7 M-2.5,-0.5L0,-3.0L2.5,-0.5"/>
                </g>
                <g id="arrowLeft" xlink:href="#dirArrow" transform="rotate(270) translate(-36 17)" onmousedown="handlePan(-1,0)">
                  <use xlink:href="#rim" fill="#404040">
                        <set attributeName="fill" to="#808080" begin="arrowLeft.mouseover" end="arrowLeft.mouseout"/>
                  </use>
                  <path fill="none" stroke="white" stroke-width="1.5" d="M0,-3.0v7 M-2.5,-0.5L0,-3.0L2.5,-0.5"/>
                </g>
        </g>
        <svg viewBox="0 0 15 15" width="100%" height="30px" preserveAspectRatio="xMaxYMin meet">
         <g id="arrow_out" transform="scale(0.3 0.3)">
          <a xlink:href="classMatrixBlock__coll__graph_org.svg" target="_base">
           <rect id="button" ry="5" rx="5" y="6" x="6" height="38" width="38"
                fill="#f2f5e9" fill-opacity="0.5" stroke="#606060" stroke-width="1.0"/>
           <path id="arrow"
             d="M 11.500037,31.436501 C 11.940474,20.09759 22.043105,11.32322 32.158766,21.979434 L 37.068811,17.246167 C 37.068811,17.246167 37.088388,32 37.088388,32 L 22.160133,31.978069 C 22.160133,31.978069 26.997745,27.140456 26.997745,27.140456 C 18.528582,18.264221 13.291696,25.230495 11.500037,31.436501 z"
             style="fill:#404040;"/>
          </a>
         </g>
        </svg>
</svg>
