<?xml version="1.0" encoding="UTF-8" standalone="no"?>
<!DOCTYPE svg PUBLIC "-//W3C//DTD SVG 1.1//EN"
 "http://www.w3.org/Graphics/SVG/1.1/DTD/svg11.dtd">
<!-- Generated by graphviz version 2.40.1 (20161225.0304)
 -->
<!-- Title: FE_DGPMonomial&lt; dim &gt; Pages: 1 -->
<svg width="307pt" height="309pt"
 viewBox="0.00 0.00 307.00 309.00" xmlns="http://www.w3.org/2000/svg" xmlns:xlink="http://www.w3.org/1999/xlink">
<g id="graph0" class="graph" transform="scale(1 1) rotate(0) translate(4 305)">
<title>FE_DGPMonomial&lt; dim &gt;</title>
<polygon fill="#ffffff" stroke="transparent" points="-4,4 -4,-305 303,-305 303,4 -4,4"/>
<!-- Node0 -->
<g id="node1" class="node">
<title>Node0</title>
<polygon fill="#bfbfbf" stroke="#000000" points="78,-.5 78,-19.5 221,-19.5 221,-.5 78,-.5"/>
<text text-anchor="middle" x="149.5" y="-7.5" font-family="Helvetica,sans-Serif" font-size="10.00" fill="#000000">FE_DGPMonomial&lt; dim &gt;</text>
</g>
<!-- Node1 -->
<g id="node2" class="node">
<title>Node1</title>
<g id="a_node2"><a xlink:href="classFE__Poly.html" target="_top" xlink:title="FE_Poly\&lt; dim \&gt;">
<polygon fill="#ffffff" stroke="#000000" points="102,-57.5 102,-76.5 197,-76.5 197,-57.5 102,-57.5"/>
<text text-anchor="middle" x="149.5" y="-64.5" font-family="Helvetica,sans-Serif" font-size="10.00" fill="#000000">FE_Poly&lt; dim &gt;</text>
</a>
</g>
</g>
<!-- Node1&#45;&gt;Node0 -->
<g id="edge1" class="edge">
<title>Node1&#45;&gt;Node0</title>
<path fill="none" stroke="#191970" d="M149.5,-47.2342C149.5,-37.8491 149.5,-27.0651 149.5,-19.5265"/>
<polygon fill="#191970" stroke="#191970" points="146.0001,-47.3307 149.5,-57.3307 153.0001,-47.3308 146.0001,-47.3307"/>
</g>
<!-- Node2 -->
<g id="node3" class="node">
<title>Node2</title>
<g id="a_node3"><a xlink:href="classFiniteElement.html" target="_top" xlink:title="FiniteElement\&lt; dim,\l dim \&gt;">
<polygon fill="#ffffff" stroke="#000000" points="166.5,-124.5 166.5,-154.5 282.5,-154.5 282.5,-124.5 166.5,-124.5"/>
<text text-anchor="start" x="174.5" y="-142.5" font-family="Helvetica,sans-Serif" font-size="10.00" fill="#000000">FiniteElement&lt; dim,</text>
<text text-anchor="middle" x="224.5" y="-131.5" font-family="Helvetica,sans-Serif" font-size="10.00" fill="#000000"> dim &gt;</text>
</a>
</g>
</g>
<!-- Node2&#45;&gt;Node1 -->
<g id="edge2" class="edge">
<title>Node2&#45;&gt;Node1</title>
<path fill="none" stroke="#191970" d="M201.5894,-117.3531C187.6194,-103.8487 170.449,-87.2507 159.7369,-76.8957"/>
<polygon fill="#191970" stroke="#191970" points="199.3375,-120.0442 208.96,-124.478 204.2026,-115.0112 199.3375,-120.0442"/>
</g>
<!-- Node3 -->
<g id="node4" class="node">
<title>Node3</title>
<g id="a_node4"><a xlink:href="classSubscriptor.html" target="_top" xlink:title="Subscriptor">
<polygon fill="#ffffff" stroke="#000000" points="228,-276 228,-295 299,-295 299,-276 228,-276"/>
<text text-anchor="middle" x="263.5" y="-283" font-family="Helvetica,sans-Serif" font-size="10.00" fill="#000000">Subscriptor</text>
</a>
</g>
</g>
<!-- Node3&#45;&gt;Node2 -->
<g id="edge3" class="edge">
<title>Node3&#45;&gt;Node2</title>
<path fill="none" stroke="#191970" d="M258.2988,-266.0288C250.4491,-236.6428 235.7356,-181.5615 228.5954,-154.8314"/>
<polygon fill="#191970" stroke="#191970" points="254.9788,-267.1626 260.9411,-275.9205 261.7417,-265.356 254.9788,-267.1626"/>
</g>
<!-- Node5 -->
<g id="node6" class="node">
<title>Node5</title>
<g id="a_node6"><a xlink:href="classFiniteElement.html" target="_top" xlink:title="FiniteElement\&lt; dim,\l spacedim \&gt;">
<polygon fill="#ffffff" stroke="#000000" points="72.5,-202.5 72.5,-232.5 188.5,-232.5 188.5,-202.5 72.5,-202.5"/>
<text text-anchor="start" x="80.5" y="-220.5" font-family="Helvetica,sans-Serif" font-size="10.00" fill="#000000">FiniteElement&lt; dim,</text>
<text text-anchor="middle" x="130.5" y="-209.5" font-family="Helvetica,sans-Serif" font-size="10.00" fill="#000000"> spacedim &gt;</text>
</a>
</g>
</g>
<!-- Node3&#45;&gt;Node5 -->
<g id="edge6" class="edge">
<title>Node3&#45;&gt;Node5</title>
<path fill="none" stroke="#191970" d="M235.8126,-271.3441C213.6299,-260.0025 182.5824,-244.1286 159.9474,-232.5558"/>
<polygon fill="#191970" stroke="#191970" points="234.2294,-274.4655 244.7264,-275.9015 237.416,-268.2328 234.2294,-274.4655"/>
</g>
<!-- Node4 -->
<g id="node5" class="node">
<title>Node4</title>
<g id="a_node5"><a xlink:href="classFiniteElementData.html" target="_top" xlink:title="FiniteElementData\&lt;\l dim \&gt;">
<polygon fill="#ffffff" stroke="#000000" points="89,-270.5 89,-300.5 204,-300.5 204,-270.5 89,-270.5"/>
<text text-anchor="start" x="97" y="-288.5" font-family="Helvetica,sans-Serif" font-size="10.00" fill="#000000">FiniteElementData&lt;</text>
<text text-anchor="middle" x="146.5" y="-277.5" font-family="Helvetica,sans-Serif" font-size="10.00" fill="#000000"> dim &gt;</text>
</a>
</g>
</g>
<!-- Node4&#45;&gt;Node2 -->
<g id="edge4" class="edge">
<title>Node4&#45;&gt;Node2</title>
<path fill="none" stroke="#191970" d="M172.7132,-263.4188C181.6547,-254.7294 191.0202,-244.1611 197.5,-233 212.1761,-207.7215 219.3469,-173.9089 222.454,-154.6407"/>
<polygon fill="#191970" stroke="#191970" points="170.3111,-260.873 165.3746,-270.2476 175.0797,-265.9976 170.3111,-260.873"/>
</g>
<!-- Node4&#45;&gt;Node5 -->
<g id="edge7" class="edge">
<title>Node4&#45;&gt;Node5</title>
<path fill="none" stroke="#191970" d="M140.5987,-260.4196C138.3964,-251.0597 135.9657,-240.7293 134.041,-232.5492"/>
<polygon fill="#191970" stroke="#191970" points="137.2517,-261.4761 142.9491,-270.4086 144.0656,-259.8728 137.2517,-261.4761"/>
</g>
<!-- Node5&#45;&gt;Node2 -->
<g id="edge5" class="edge">
<title>Node5&#45;&gt;Node2</title>
<path fill="none" stroke="#ffa500" stroke-dasharray="5,2" d="M126.7619,-191.9293C127.0252,-185.2411 128.5357,-178.4002 132.5,-173 137.3786,-166.3544 151.7686,-159.9353 167.7617,-154.5252"/>
<polygon fill="#ffa500" stroke="#ffa500" points="123.2722,-192.2453 127.2012,-202.0846 130.2657,-191.9427 123.2722,-192.2453"/>
<text text-anchor="middle" x="167.5" y="-176" font-family="Helvetica,sans-Serif" font-size="10.00" fill="#000000"> &lt; dim, dim &gt;</text>
</g>
<!-- Node6 -->
<g id="node7" class="node">
<title>Node6</title>
<g id="a_node7"><a xlink:href="classFE__Poly.html" target="_top" xlink:title="FE_Poly\&lt; dim, spacedim \&gt;">
<polygon fill="#ffffff" stroke="#000000" points="0,-130 0,-149 149,-149 149,-130 0,-130"/>
<text text-anchor="middle" x="74.5" y="-137" font-family="Helvetica,sans-Serif" font-size="10.00" fill="#000000">FE_Poly&lt; dim, spacedim &gt;</text>
</a>
</g>
</g>
<!-- Node5&#45;&gt;Node6 -->
<g id="edge9" class="edge">
<title>Node5&#45;&gt;Node6</title>
<path fill="none" stroke="#191970" d="M113.7013,-194.1018C102.879,-179.0278 89.3834,-160.2305 81.3807,-149.0839"/>
<polygon fill="#191970" stroke="#191970" points="111.0274,-196.3788 119.7026,-202.4608 116.7137,-192.2963 111.0274,-196.3788"/>
</g>
<!-- Node6&#45;&gt;Node1 -->
<g id="edge8" class="edge">
<title>Node6&#45;&gt;Node1</title>
<path fill="none" stroke="#ffa500" stroke-dasharray="5,2" d="M92.1384,-122.4495C106.915,-108.1655 127.4749,-88.2909 139.5454,-76.6228"/>
<polygon fill="#ffa500" stroke="#ffa500" points="89.3722,-120.2556 84.6148,-129.7223 94.2373,-125.2885 89.3722,-120.2556"/>
<text text-anchor="middle" x="141" y="-98" font-family="Helvetica,sans-Serif" font-size="10.00" fill="#000000"> &lt; dim &gt;</text>
</g>
</g>
</svg>
