<?xml version="1.0" encoding="UTF-8" standalone="no"?>
<!DOCTYPE svg PUBLIC "-//W3C//DTD SVG 1.1//EN"
 "http://www.w3.org/Graphics/SVG/1.1/DTD/svg11.dtd">
<!-- Generated by graphviz version 2.40.1 (20161225.0304)
 -->
<!-- Title: StandardExceptions::ExcMPI Pages: 1 -->
<svg width="121pt" height="151pt"
 viewBox="0.00 0.00 121.00 151.00" xmlns="http://www.w3.org/2000/svg" xmlns:xlink="http://www.w3.org/1999/xlink">
<g id="graph0" class="graph" transform="scale(1 1) rotate(0) translate(4 147)">
<title>StandardExceptions::ExcMPI</title>
<polygon fill="#ffffff" stroke="transparent" points="-4,4 -4,-147 117,-147 117,4 -4,4"/>
<!-- Node0 -->
<g id="node1" class="node">
<title>Node0</title>
<polygon fill="#bfbfbf" stroke="#000000" points="0,-.5 0,-30.5 113,-30.5 113,-.5 0,-.5"/>
<text text-anchor="start" x="8" y="-18.5" font-family="Helvetica,sans-Serif" font-size="10.00" fill="#000000">StandardExceptions</text>
<text text-anchor="middle" x="56.5" y="-7.5" font-family="Helvetica,sans-Serif" font-size="10.00" fill="#000000">::ExcMPI</text>
</g>
<!-- Node1 -->
<g id="node2" class="node">
<title>Node1</title>
<g id="a_node2"><a xlink:href="classExceptionBase.html" target="_top" xlink:title="ExceptionBase">
<polygon fill="#ffffff" stroke="#000000" points="12,-67.5 12,-86.5 101,-86.5 101,-67.5 12,-67.5"/>
<text text-anchor="middle" x="56.5" y="-74.5" font-family="Helvetica,sans-Serif" font-size="10.00" fill="#000000">ExceptionBase</text>
</a>
</g>
</g>
<!-- Node1&#45;&gt;Node0 -->
<g id="edge1" class="edge">
<title>Node1&#45;&gt;Node0</title>
<path fill="none" stroke="#191970" d="M56.5,-57.3693C56.5,-48.681 56.5,-38.6241 56.5,-30.5446"/>
<polygon fill="#191970" stroke="#191970" points="53.0001,-57.3906 56.5,-67.3906 60.0001,-57.3907 53.0001,-57.3906"/>
</g>
<!-- Node2 -->
<g id="node3" class="node">
<title>Node2</title>
<g id="a_node3"><a xlink:title="STL class. ">
<polygon fill="#ffffff" stroke="#bfbfbf" points="13.5,-123.5 13.5,-142.5 99.5,-142.5 99.5,-123.5 13.5,-123.5"/>
<text text-anchor="middle" x="56.5" y="-130.5" font-family="Helvetica,sans-Serif" font-size="10.00" fill="#000000">std::exception</text>
</a>
</g>
</g>
<!-- Node2&#45;&gt;Node1 -->
<g id="edge2" class="edge">
<title>Node2&#45;&gt;Node1</title>
<path fill="none" stroke="#191970" d="M56.5,-113.1575C56.5,-104.155 56.5,-93.9199 56.5,-86.6427"/>
<polygon fill="#191970" stroke="#191970" points="53.0001,-113.2455 56.5,-123.2455 60.0001,-113.2456 53.0001,-113.2455"/>
</g>
</g>
</svg>
