<?xml version="1.0" encoding="UTF-8" standalone="no"?>
<!DOCTYPE svg PUBLIC "-//W3C//DTD SVG 1.1//EN"
 "http://www.w3.org/Graphics/SVG/1.1/DTD/svg11.dtd">
<!-- Generated by graphviz version 2.40.1 (20161225.0304)
 -->
<!-- Title: Mapping&lt; dim, spacedim &gt; Pages: 1 -->
<svg width="660pt" height="453pt"
 viewBox="0.00 0.00 660.00 452.50" xmlns="http://www.w3.org/2000/svg" xmlns:xlink="http://www.w3.org/1999/xlink">
<g id="graph0" class="graph" transform="scale(1 1) rotate(0) translate(4 448.5)">
<title>Mapping&lt; dim, spacedim &gt;</title>
<polygon fill="#ffffff" stroke="transparent" points="-4,4 -4,-448.5 656,-448.5 656,4 -4,4"/>
<!-- Node0 -->
<g id="node1" class="node">
<title>Node0</title>
<polygon fill="#bfbfbf" stroke="#000000" points="103,-271.5 103,-290.5 238,-290.5 238,-271.5 103,-271.5"/>
<text text-anchor="middle" x="170.5" y="-278.5" font-family="Helvetica,sans-Serif" font-size="10.00" fill="#000000">Mapping&lt; dim, spacedim &gt;</text>
</g>
<!-- Node2 -->
<g id="node3" class="node">
<title>Node2</title>
<g id="a_node3"><a xlink:href="classMappingCartesian.html" target="_top" xlink:title="MappingCartesian\&lt; dim,\l spacedim \&gt;">
<polygon fill="#ffffff" stroke="#000000" points="323.5,-414 323.5,-444 446.5,-444 446.5,-414 323.5,-414"/>
<text text-anchor="start" x="331.5" y="-432" font-family="Helvetica,sans-Serif" font-size="10.00" fill="#000000">MappingCartesian&lt; dim,</text>
<text text-anchor="middle" x="385" y="-421" font-family="Helvetica,sans-Serif" font-size="10.00" fill="#000000"> spacedim &gt;</text>
</a>
</g>
</g>
<!-- Node0&#45;&gt;Node2 -->
<g id="edge2" class="edge">
<title>Node0&#45;&gt;Node2</title>
<path fill="none" stroke="#191970" d="M185.4133,-298.4258C209.2399,-325.1558 258.5755,-376.1057 311,-404 317.9434,-407.6945 325.5391,-410.9982 333.135,-413.8985"/>
<polygon fill="#191970" stroke="#191970" points="187.8268,-295.8694 178.6022,-290.6581 182.5636,-300.4845 187.8268,-295.8694"/>
</g>
<!-- Node3 -->
<g id="node4" class="node">
<title>Node3</title>
<g id="a_node4"><a xlink:href="classMappingFE.html" target="_top" xlink:title="MappingFE\&lt; dim, spacedim \&gt;">
<polygon fill="#ffffff" stroke="#000000" points="311,-375.5 311,-394.5 459,-394.5 459,-375.5 311,-375.5"/>
<text text-anchor="middle" x="385" y="-382.5" font-family="Helvetica,sans-Serif" font-size="10.00" fill="#000000">MappingFE&lt; dim, spacedim &gt;</text>
</a>
</g>
</g>
<!-- Node0&#45;&gt;Node3 -->
<g id="edge3" class="edge">
<title>Node0&#45;&gt;Node3</title>
<path fill="none" stroke="#191970" d="M191.5368,-296.4461C218.13,-315.314 265.8965,-347.0526 311,-366 319.8047,-369.6987 329.5103,-372.8199 338.9135,-375.3957"/>
<polygon fill="#191970" stroke="#191970" points="193.5287,-293.5676 183.3644,-290.578 189.4459,-299.2536 193.5287,-293.5676"/>
</g>
<!-- Node4 -->
<g id="node5" class="node">
<title>Node4</title>
<g id="a_node5"><a xlink:href="classMappingFEField_3_01dim_00_01spacedim_00_01VectorType_00_01void_01_4.html" target="_top" xlink:title="MappingFEField\&lt; dim,\l spacedim, VectorType,\l void \&gt;">
<polygon fill="#ffffff" stroke="#000000" points="324.5,-315.5 324.5,-356.5 445.5,-356.5 445.5,-315.5 324.5,-315.5"/>
<text text-anchor="start" x="332.5" y="-344.5" font-family="Helvetica,sans-Serif" font-size="10.00" fill="#000000">MappingFEField&lt; dim,</text>
<text text-anchor="start" x="332.5" y="-333.5" font-family="Helvetica,sans-Serif" font-size="10.00" fill="#000000"> spacedim, VectorType,</text>
<text text-anchor="middle" x="385" y="-322.5" font-family="Helvetica,sans-Serif" font-size="10.00" fill="#000000"> void &gt;</text>
</a>
</g>
</g>
<!-- Node0&#45;&gt;Node4 -->
<g id="edge4" class="edge">
<title>Node0&#45;&gt;Node4</title>
<path fill="none" stroke="#191970" d="M217.6516,-293.0902C248.9616,-301.1184 290.3626,-311.734 324.1514,-320.3978"/>
<polygon fill="#191970" stroke="#191970" points="218.419,-289.6738 207.863,-290.5803 216.6804,-296.4544 218.419,-289.6738"/>
</g>
<!-- Node5 -->
<g id="node6" class="node">
<title>Node5</title>
<g id="a_node6"><a xlink:href="classMappingManifold.html" target="_top" xlink:title="MappingManifold\&lt; dim,\l spacedim \&gt;">
<polygon fill="#ffffff" stroke="#000000" points="326,-266 326,-296 444,-296 444,-266 326,-266"/>
<text text-anchor="start" x="334" y="-284" font-family="Helvetica,sans-Serif" font-size="10.00" fill="#000000">MappingManifold&lt; dim,</text>
<text text-anchor="middle" x="385" y="-273" font-family="Helvetica,sans-Serif" font-size="10.00" fill="#000000"> spacedim &gt;</text>
</a>
</g>
</g>
<!-- Node0&#45;&gt;Node5 -->
<g id="edge5" class="edge">
<title>Node0&#45;&gt;Node5</title>
<path fill="none" stroke="#191970" d="M248.1206,-281C273.7089,-281 301.739,-281 325.733,-281"/>
<polygon fill="#191970" stroke="#191970" points="248.0748,-277.5001 238.0747,-281 248.0747,-284.5001 248.0748,-277.5001"/>
</g>
<!-- Node6 -->
<g id="node7" class="node">
<title>Node6</title>
<g id="a_node7"><a xlink:href="classMappingQ.html" target="_top" xlink:title="MappingQ\&lt; dim, spacedim \&gt;">
<polygon fill="#ffffff" stroke="#000000" points="313.5,-227.5 313.5,-246.5 456.5,-246.5 456.5,-227.5 313.5,-227.5"/>
<text text-anchor="middle" x="385" y="-234.5" font-family="Helvetica,sans-Serif" font-size="10.00" fill="#000000">MappingQ&lt; dim, spacedim &gt;</text>
</a>
</g>
</g>
<!-- Node0&#45;&gt;Node6 -->
<g id="edge6" class="edge">
<title>Node0&#45;&gt;Node6</title>
<path fill="none" stroke="#191970" d="M227.0501,-269.4C261.8193,-262.2678 305.822,-253.2416 338.5475,-246.5287"/>
<polygon fill="#191970" stroke="#191970" points="226.136,-266.0145 217.0433,-271.4527 227.5427,-272.8717 226.136,-266.0145"/>
</g>
<!-- Node9 -->
<g id="node10" class="node">
<title>Node9</title>
<g id="a_node10"><a xlink:href="classMappingQGeneric.html" target="_top" xlink:title="MappingQGeneric\&lt; dim,\l spacedim \&gt;">
<polygon fill="#ffffff" stroke="#000000" points="324,-154 324,-184 446,-184 446,-154 324,-154"/>
<text text-anchor="start" x="332" y="-172" font-family="Helvetica,sans-Serif" font-size="10.00" fill="#000000">MappingQGeneric&lt; dim,</text>
<text text-anchor="middle" x="385" y="-161" font-family="Helvetica,sans-Serif" font-size="10.00" fill="#000000"> spacedim &gt;</text>
</a>
</g>
</g>
<!-- Node0&#45;&gt;Node9 -->
<g id="edge9" class="edge">
<title>Node0&#45;&gt;Node9</title>
<path fill="none" stroke="#191970" d="M197.8429,-266.7231C238.4749,-245.5073 314.4551,-205.8346 356.0158,-184.1339"/>
<polygon fill="#191970" stroke="#191970" points="196.0325,-263.7199 188.7881,-271.4509 199.2725,-269.9249 196.0325,-263.7199"/>
</g>
<!-- Node15 -->
<g id="node16" class="node">
<title>Node15</title>
<g id="a_node16"><a xlink:href="classMapping.html" target="_top" xlink:title="Mapping\&lt; dim \&gt;">
<polygon fill="#ffffff" stroke="#000000" points="341.5,-115.5 341.5,-134.5 428.5,-134.5 428.5,-115.5 341.5,-115.5"/>
<text text-anchor="middle" x="385" y="-122.5" font-family="Helvetica,sans-Serif" font-size="10.00" fill="#000000">Mapping&lt; dim &gt;</text>
</a>
</g>
</g>
<!-- Node0&#45;&gt;Node15 -->
<g id="edge15" class="edge">
<title>Node0&#45;&gt;Node15</title>
<path fill="none" stroke="#ffa500" stroke-dasharray="5,2" d="M183.628,-263.1628C206.2581,-233.7321 255.5551,-175.1635 311,-144 320.2501,-138.8008 330.9455,-134.9957 341.2795,-132.221"/>
<polygon fill="#ffa500" stroke="#ffa500" points="180.7175,-261.2091 177.4838,-271.2984 186.3035,-265.4278 180.7175,-261.2091"/>
<text text-anchor="middle" x="274.5" y="-185" font-family="Helvetica,sans-Serif" font-size="10.00" fill="#000000"> &lt; dim &gt;</text>
</g>
<!-- Node1 -->
<g id="node2" class="node">
<title>Node1</title>
<g id="a_node2"><a xlink:href="classSubscriptor.html" target="_top" xlink:title="Subscriptor">
<polygon fill="#ffffff" stroke="#000000" points="0,-271.5 0,-290.5 66,-290.5 66,-271.5 0,-271.5"/>
<text text-anchor="middle" x="33" y="-278.5" font-family="Helvetica,sans-Serif" font-size="10.00" fill="#000000">Subscriptor</text>
</a>
</g>
</g>
<!-- Node1&#45;&gt;Node0 -->
<g id="edge1" class="edge">
<title>Node1&#45;&gt;Node0</title>
<path fill="none" stroke="#191970" d="M76.5239,-281C84.8871,-281 93.8286,-281 102.7476,-281"/>
<polygon fill="#191970" stroke="#191970" points="76.2849,-277.5001 66.2849,-281 76.2849,-284.5001 76.2849,-277.5001"/>
</g>
<!-- Node7 -->
<g id="node8" class="node">
<title>Node7</title>
<g id="a_node8"><a xlink:href="classMappingC1.html" target="_top" xlink:title="MappingC1\&lt; dim, spacedim \&gt;">
<polygon fill="#ffffff" stroke="#000000" points="500,-296.5 500,-315.5 648,-315.5 648,-296.5 500,-296.5"/>
<text text-anchor="middle" x="574" y="-303.5" font-family="Helvetica,sans-Serif" font-size="10.00" fill="#000000">MappingC1&lt; dim, spacedim &gt;</text>
</a>
</g>
</g>
<!-- Node6&#45;&gt;Node7 -->
<g id="edge7" class="edge">
<title>Node6&#45;&gt;Node7</title>
<path fill="none" stroke="#191970" d="M444.4109,-249.7982C449.4491,-251.6162 454.3794,-253.6743 459,-256 477.9103,-265.5183 477.0881,-276.4848 496,-286 504.492,-290.2726 513.976,-293.6865 523.3259,-296.3964"/>
<polygon fill="#191970" stroke="#191970" points="445.2347,-246.3849 434.6419,-246.5908 443.0511,-253.0356 445.2347,-246.3849"/>
</g>
<!-- Node8 -->
<g id="node9" class="node">
<title>Node8</title>
<g id="a_node9"><a xlink:href="classMappingQEulerian.html" target="_top" xlink:title="MappingQEulerian\&lt; dim,\l spacedim \&gt;">
<polygon fill="#ffffff" stroke="#000000" points="512,-247 512,-277 636,-277 636,-247 512,-247"/>
<text text-anchor="start" x="520" y="-265" font-family="Helvetica,sans-Serif" font-size="10.00" fill="#000000">MappingQEulerian&lt; dim,</text>
<text text-anchor="middle" x="574" y="-254" font-family="Helvetica,sans-Serif" font-size="10.00" fill="#000000"> spacedim &gt;</text>
</a>
</g>
</g>
<!-- Node6&#45;&gt;Node8 -->
<g id="edge8" class="edge">
<title>Node6&#45;&gt;Node8</title>
<path fill="none" stroke="#191970" d="M467.0499,-247.8532C482.0942,-249.8431 497.5668,-251.8898 511.9068,-253.7866"/>
<polygon fill="#191970" stroke="#191970" points="467.0949,-244.3287 456.7223,-246.4871 466.1769,-251.2683 467.0949,-244.3287"/>
</g>
<!-- Node10 -->
<g id="node11" class="node">
<title>Node10</title>
<g id="a_node11"><a xlink:href="classMappingC1_1_1MappingC1Generic.html" target="_top" xlink:title="MappingC1\&lt; dim, spacedim\l \&gt;::MappingC1Generic">
<polygon fill="#ffffff" stroke="#000000" points="504.5,-198 504.5,-228 643.5,-228 643.5,-198 504.5,-198"/>
<text text-anchor="start" x="512.5" y="-216" font-family="Helvetica,sans-Serif" font-size="10.00" fill="#000000">MappingC1&lt; dim, spacedim</text>
<text text-anchor="middle" x="574" y="-205" font-family="Helvetica,sans-Serif" font-size="10.00" fill="#000000"> &gt;::MappingC1Generic</text>
</a>
</g>
</g>
<!-- Node9&#45;&gt;Node10 -->
<g id="edge10" class="edge">
<title>Node9&#45;&gt;Node10</title>
<path fill="none" stroke="#191970" d="M456.2517,-185.5877C473.7463,-189.6605 492.3742,-193.9972 509.5289,-197.9908"/>
<polygon fill="#191970" stroke="#191970" points="456.635,-182.0834 446.1019,-183.2248 455.0478,-188.9011 456.635,-182.0834"/>
</g>
<!-- Node11 -->
<g id="node12" class="node">
<title>Node11</title>
<g id="a_node12"><a xlink:href="classMappingQ1.html" target="_top" xlink:title="MappingQ1\&lt; dim, spacedim \&gt;">
<polygon fill="#ffffff" stroke="#000000" points="500,-159.5 500,-178.5 648,-178.5 648,-159.5 500,-159.5"/>
<text text-anchor="middle" x="574" y="-166.5" font-family="Helvetica,sans-Serif" font-size="10.00" fill="#000000">MappingQ1&lt; dim, spacedim &gt;</text>
</a>
</g>
</g>
<!-- Node9&#45;&gt;Node11 -->
<g id="edge11" class="edge">
<title>Node9&#45;&gt;Node11</title>
<path fill="none" stroke="#191970" d="M456.3222,-169C470.5675,-169 485.5616,-169 499.8981,-169"/>
<polygon fill="#191970" stroke="#191970" points="456.1019,-165.5001 446.1019,-169 456.1018,-172.5001 456.1019,-165.5001"/>
</g>
<!-- Node12 -->
<g id="node13" class="node">
<title>Node12</title>
<g id="a_node13"><a xlink:href="classMappingQ1Eulerian.html" target="_top" xlink:title="MappingQ1Eulerian\&lt;\l dim, spacedim \&gt;">
<polygon fill="#ffffff" stroke="#000000" points="520.5,-110 520.5,-140 627.5,-140 627.5,-110 520.5,-110"/>
<text text-anchor="start" x="528.5" y="-128" font-family="Helvetica,sans-Serif" font-size="10.00" fill="#000000">MappingQ1Eulerian&lt;</text>
<text text-anchor="middle" x="574" y="-117" font-family="Helvetica,sans-Serif" font-size="10.00" fill="#000000"> dim, spacedim &gt;</text>
</a>
</g>
</g>
<!-- Node9&#45;&gt;Node12 -->
<g id="edge12" class="edge">
<title>Node9&#45;&gt;Node12</title>
<path fill="none" stroke="#191970" d="M456.0874,-152.4506C477.4129,-147.4859 500.4361,-142.126 520.4295,-137.4714"/>
<polygon fill="#191970" stroke="#191970" points="455.0478,-149.0989 446.1019,-154.7752 456.6351,-155.9166 455.0478,-149.0989"/>
</g>
<!-- Node13 -->
<g id="node14" class="node">
<title>Node13</title>
<g id="a_node14"><a xlink:href="classMappingQCache.html" target="_top" xlink:title="MappingQCache\&lt; dim,\l spacedim \&gt;">
<polygon fill="#ffffff" stroke="#000000" points="515.5,-61 515.5,-91 632.5,-91 632.5,-61 515.5,-61"/>
<text text-anchor="start" x="523.5" y="-79" font-family="Helvetica,sans-Serif" font-size="10.00" fill="#000000">MappingQCache&lt; dim,</text>
<text text-anchor="middle" x="574" y="-68" font-family="Helvetica,sans-Serif" font-size="10.00" fill="#000000"> spacedim &gt;</text>
</a>
</g>
</g>
<!-- Node9&#45;&gt;Node13 -->
<g id="edge13" class="edge">
<title>Node9&#45;&gt;Node13</title>
<path fill="none" stroke="#191970" d="M449.8928,-149.4899C453.0552,-147.7973 456.112,-145.9703 459,-144 480.1066,-129.6004 474.6988,-114.1102 496,-100 501.9059,-96.0879 508.4803,-92.7884 515.2367,-90.0115"/>
<polygon fill="#191970" stroke="#191970" points="448.2313,-146.4055 440.7538,-153.9114 451.2799,-152.7068 448.2313,-146.4055"/>
</g>
<!-- Node14 -->
<g id="node15" class="node">
<title>Node14</title>
<g id="a_node15"><a xlink:href="classMappingQEulerian_1_1MappingQEulerianGeneric.html" target="_top" xlink:title="MappingQEulerian\&lt; dim,\l spacedim \&gt;::MappingQEulerian\lGeneric">
<polygon fill="#ffffff" stroke="#000000" points="496,-.5 496,-41.5 652,-41.5 652,-.5 496,-.5"/>
<text text-anchor="start" x="504" y="-29.5" font-family="Helvetica,sans-Serif" font-size="10.00" fill="#000000">MappingQEulerian&lt; dim,</text>
<text text-anchor="start" x="504" y="-18.5" font-family="Helvetica,sans-Serif" font-size="10.00" fill="#000000"> spacedim &gt;::MappingQEulerian</text>
<text text-anchor="middle" x="574" y="-7.5" font-family="Helvetica,sans-Serif" font-size="10.00" fill="#000000">Generic</text>
</a>
</g>
</g>
<!-- Node9&#45;&gt;Node14 -->
<g id="edge14" class="edge">
<title>Node9&#45;&gt;Node14</title>
<path fill="none" stroke="#191970" d="M453.8036,-148.3798C455.6224,-147.0123 457.3612,-145.5544 459,-144 491.2754,-113.3869 464.3648,-82.2742 496,-51 499.5081,-47.5319 503.4602,-44.4559 507.6765,-41.7289"/>
<polygon fill="#191970" stroke="#191970" points="451.8843,-145.4528 445.3779,-153.8145 455.6786,-151.3353 451.8843,-145.4528"/>
</g>
</g>
</svg>
