<?xml version="1.0" encoding="UTF-8" standalone="no"?>
<!DOCTYPE svg PUBLIC "-//W3C//DTD SVG 1.1//EN"
 "http://www.w3.org/Graphics/SVG/1.1/DTD/svg11.dtd">
<!-- Generated by graphviz version 2.40.1 (20161225.0304)
 -->
<!-- Title: DesignPattern::Builder::ConcreteBuilder1 Pages: 1 -->
<!--zoomable 618 -->
<svg id="main" version="1.1" xmlns="http://www.w3.org/2000/svg" xmlns:xlink="http://www.w3.org/1999/xlink" xml:space="preserve" onload="init(evt)">
<style type="text/css"><![CDATA[
.edge:hover path { stroke: red; }
.edge:hover polygon { stroke: red; fill: red; }
]]></style>
<script type="text/javascript"><![CDATA[
var edges = document.getElementsByTagName('g');
if (edges && edges.length) {
  for (var i=0;i<edges.length;i++) {
    if (edges[i].id.substr(0,4)=='edge') {
      edges[i].setAttribute('class','edge');
    }
  }
}
]]></script>
        <defs>
                <circle id="rim" cx="0" cy="0" r="7"/>
                <circle id="rim2" cx="0" cy="0" r="3.5"/>
                <g id="zoomPlus">
                        <use xlink:href="#rim" fill="#404040">
                                <set attributeName="fill" to="#808080" begin="zoomplus.mouseover" end="zoomplus.mouseout"/>
                        </use>
                        <path d="M-4,0h8M0,-4v8" fill="none" stroke="white" stroke-width="1.5" pointer-events="none"/>
                </g>
                <g id="zoomMin">
                        <use xlink:href="#rim" fill="#404040">
                                <set attributeName="fill" to="#808080" begin="zoomminus.mouseover" end="zoomminus.mouseout"/>
                        </use>
                        <path d="M-4,0h8" fill="none" stroke="white" stroke-width="1.5" pointer-events="none"/>
                </g>
                <g id="dirArrow">
                        <path fill="none" stroke="white" stroke-width="1.5" d="M0,-3.0v7 M-2.5,-0.5L0,-3.0L2.5,-0.5"/>
                </g>
               <g id="resetDef">
                       <use xlink:href="#rim2" fill="#404040">
                               <set attributeName="fill" to="#808080" begin="reset.mouseover" end="reset.mouseout"/>
                       </use>
               </g>
        </defs>

<script type="text/javascript">
var viewWidth = 294;
var viewHeight = 618;
var sectionId = 'dynsection-1';
</script>
<script xlink:href="svgpan.js"/>
<svg id="graph" class="graph">
<g id="viewport">
<title>DesignPattern::Builder::ConcreteBuilder1</title>
<polygon fill="#ffffff" stroke="transparent" points="-4,4 -4,-614 289.5,-614 289.5,4 -4,4"/>
<!-- Node2 -->
<g id="node1" class="node">
<title>Node2</title>
<polygon fill="#bfbfbf" stroke="#000000" points="16,-.5 16,-134.5 131,-134.5 131,-.5 16,-.5"/>
<text text-anchor="start" x="24" y="-122.5" font-family="Helvetica,sans-Serif" font-size="10.00" fill="#000000">DesignPattern::Builder</text>
<text text-anchor="middle" x="73.5" y="-111.5" font-family="Helvetica,sans-Serif" font-size="10.00" fill="#000000">::ConcreteBuilder1</text>
<polyline fill="none" stroke="#000000" points="16,-104.5 131,-104.5 "/>
<text text-anchor="middle" x="73.5" y="-92.5" font-family="Helvetica,sans-Serif" font-size="10.00" fill="#000000"> </text>
<polyline fill="none" stroke="#000000" points="16,-85.5 131,-85.5 "/>
<text text-anchor="start" x="24" y="-73.5" font-family="Helvetica,sans-Serif" font-size="10.00" fill="#000000">+ ConcreteBuilder1()</text>
<text text-anchor="start" x="24" y="-62.5" font-family="Helvetica,sans-Serif" font-size="10.00" fill="#000000">+ ~ConcreteBuilder1()</text>
<text text-anchor="start" x="24" y="-51.5" font-family="Helvetica,sans-Serif" font-size="10.00" fill="#000000">+ Reset()</text>
<text text-anchor="start" x="24" y="-40.5" font-family="Helvetica,sans-Serif" font-size="10.00" fill="#000000">+ ProducePartA()</text>
<text text-anchor="start" x="24" y="-29.5" font-family="Helvetica,sans-Serif" font-size="10.00" fill="#000000">+ ProducePartB()</text>
<text text-anchor="start" x="24" y="-18.5" font-family="Helvetica,sans-Serif" font-size="10.00" fill="#000000">+ ProducePartC()</text>
<text text-anchor="start" x="24" y="-7.5" font-family="Helvetica,sans-Serif" font-size="10.00" fill="#000000">+ GetProduct()</text>
</g>
<!-- Node3 -->
<g id="node2" class="node">
<title>Node3</title>
<g id="a_node2"><a xlink:href="classDesignPattern_1_1Builder_1_1Builder.html" target="_top" xlink:title="{DesignPattern::Builder\l::Builder\n||+ ~Builder()\l+ ProducePartA()\l+ ProducePartB()\l+ ProducePartC()\l}">
<polygon fill="#ffffff" stroke="#000000" points="0,-182.5 0,-283.5 115,-283.5 115,-182.5 0,-182.5"/>
<text text-anchor="start" x="8" y="-271.5" font-family="Helvetica,sans-Serif" font-size="10.00" fill="#000000">DesignPattern::Builder</text>
<text text-anchor="middle" x="57.5" y="-260.5" font-family="Helvetica,sans-Serif" font-size="10.00" fill="#000000">::Builder</text>
<polyline fill="none" stroke="#000000" points="0,-253.5 115,-253.5 "/>
<text text-anchor="middle" x="57.5" y="-241.5" font-family="Helvetica,sans-Serif" font-size="10.00" fill="#000000"> </text>
<polyline fill="none" stroke="#000000" points="0,-234.5 115,-234.5 "/>
<text text-anchor="start" x="8" y="-222.5" font-family="Helvetica,sans-Serif" font-size="10.00" fill="#000000">+ ~Builder()</text>
<text text-anchor="start" x="8" y="-211.5" font-family="Helvetica,sans-Serif" font-size="10.00" fill="#000000">+ ProducePartA()</text>
<text text-anchor="start" x="8" y="-200.5" font-family="Helvetica,sans-Serif" font-size="10.00" fill="#000000">+ ProducePartB()</text>
<text text-anchor="start" x="8" y="-189.5" font-family="Helvetica,sans-Serif" font-size="10.00" fill="#000000">+ ProducePartC()</text>
</a>
</g>
</g>
<!-- Node3&#45;&gt;Node2 -->
<g id="edge1" class="edge">
<title>Node3&#45;&gt;Node2</title>
<path fill="none" stroke="#191970" d="M63.3674,-172.309C64.556,-160.0144 65.8124,-147.019 67.0207,-134.5207"/>
<polygon fill="none" stroke="#191970" points="59.8661,-172.1548 62.3875,-182.4453 66.8336,-172.8285 59.8661,-172.1548"/>
</g>
<!-- Node4 -->
<g id="node3" class="node">
<title>Node4</title>
<g id="a_node3"><a xlink:href="classDesignPattern_1_1Builder_1_1Product1.html" target="_top" xlink:title="{DesignPattern::Builder\l::Product1\n||+ ListParts()\l}">
<polygon fill="#ffffff" stroke="#000000" points="133,-199 133,-267 248,-267 248,-199 133,-199"/>
<text text-anchor="start" x="141" y="-255" font-family="Helvetica,sans-Serif" font-size="10.00" fill="#000000">DesignPattern::Builder</text>
<text text-anchor="middle" x="190.5" y="-244" font-family="Helvetica,sans-Serif" font-size="10.00" fill="#000000">::Product1</text>
<polyline fill="none" stroke="#000000" points="133,-237 248,-237 "/>
<text text-anchor="middle" x="190.5" y="-225" font-family="Helvetica,sans-Serif" font-size="10.00" fill="#000000"> </text>
<polyline fill="none" stroke="#000000" points="133,-218 248,-218 "/>
<text text-anchor="start" x="141" y="-206" font-family="Helvetica,sans-Serif" font-size="10.00" fill="#000000">+ ListParts()</text>
</a>
</g>
</g>
<!-- Node4&#45;&gt;Node2 -->
<g id="edge2" class="edge">
<title>Node4&#45;&gt;Node2</title>
<path fill="none" stroke="#404040" d="M166.2575,-198.7083C155.0859,-182.9057 141.3407,-163.4627 127.887,-144.4321"/>
<polygon fill="none" stroke="#404040" points="127.8206,-144.338 121.0907,-141.7478 120.8934,-134.5393 127.6232,-137.1296 127.8206,-144.338"/>
<text text-anchor="middle" x="159" y="-156" font-family="Helvetica,sans-Serif" font-size="10.00" fill="#000000"> &#45;product</text>
</g>
<!-- Node5 -->
<g id="node4" class="node">
<title>Node5</title>
<polygon fill="#ffffff" stroke="#bfbfbf" points="128,-331.5 128,-388.5 253,-388.5 253,-331.5 128,-331.5"/>
<text text-anchor="middle" x="190.5" y="-376.5" font-family="Helvetica,sans-Serif" font-size="10.00" fill="#000000">std::vector&lt; std::string &gt;</text>
<polyline fill="none" stroke="#bfbfbf" points="128,-369.5 253,-369.5 "/>
<text text-anchor="middle" x="190.5" y="-357.5" font-family="Helvetica,sans-Serif" font-size="10.00" fill="#000000"> </text>
<polyline fill="none" stroke="#bfbfbf" points="128,-350.5 253,-350.5 "/>
<text text-anchor="middle" x="190.5" y="-338.5" font-family="Helvetica,sans-Serif" font-size="10.00" fill="#000000"> </text>
</g>
<!-- Node5&#45;&gt;Node4 -->
<g id="edge3" class="edge">
<title>Node5&#45;&gt;Node4</title>
<path fill="none" stroke="#404040" d="M190.5,-331.4987C190.5,-316.1238 190.5,-296.7679 190.5,-279.2926"/>
<polygon fill="none" stroke="#404040" points="190.5001,-279.2765 186.5,-273.2765 190.5,-267.2765 194.5,-273.2765 190.5001,-279.2765"/>
<text text-anchor="middle" x="209" y="-305" font-family="Helvetica,sans-Serif" font-size="10.00" fill="#000000"> +parts_</text>
</g>
<!-- Node6 -->
<g id="node5" class="node">
<title>Node6</title>
<g id="a_node5"><a xlink:title="STL class. ">
<polygon fill="#ffffff" stroke="#bfbfbf" points="114.5,-436.5 114.5,-493.5 174.5,-493.5 174.5,-436.5 114.5,-436.5"/>
<text text-anchor="middle" x="144.5" y="-481.5" font-family="Helvetica,sans-Serif" font-size="10.00" fill="#000000">std::string</text>
<polyline fill="none" stroke="#bfbfbf" points="114.5,-474.5 174.5,-474.5 "/>
<text text-anchor="middle" x="144.5" y="-462.5" font-family="Helvetica,sans-Serif" font-size="10.00" fill="#000000"> </text>
<polyline fill="none" stroke="#bfbfbf" points="114.5,-455.5 174.5,-455.5 "/>
<text text-anchor="middle" x="144.5" y="-443.5" font-family="Helvetica,sans-Serif" font-size="10.00" fill="#000000"> </text>
</a>
</g>
</g>
<!-- Node6&#45;&gt;Node5 -->
<g id="edge4" class="edge">
<title>Node6&#45;&gt;Node5</title>
<path fill="none" stroke="#404040" d="M150.5828,-436.3839C153.0865,-426.8263 156.3811,-416.2572 160.5,-407 161.6621,-404.3882 162.9553,-401.7535 164.3339,-399.136"/>
<polygon fill="none" stroke="#404040" points="164.4141,-398.9955 163.916,-391.8016 170.3649,-388.5749 170.863,-395.7688 164.4141,-398.9955"/>
<text text-anchor="middle" x="185" y="-410" font-family="Helvetica,sans-Serif" font-size="10.00" fill="#000000"> +elements</text>
</g>
<!-- Node7 -->
<g id="node6" class="node">
<title>Node7</title>
<g id="a_node6"><a xlink:title="STL class. ">
<polygon fill="#ffffff" stroke="#bfbfbf" points="97,-541.5 97,-609.5 192,-609.5 192,-541.5 97,-541.5"/>
<text text-anchor="start" x="105" y="-597.5" font-family="Helvetica,sans-Serif" font-size="10.00" fill="#000000">std::basic_string&lt;</text>
<text text-anchor="middle" x="144.5" y="-586.5" font-family="Helvetica,sans-Serif" font-size="10.00" fill="#000000"> char &gt;</text>
<polyline fill="none" stroke="#bfbfbf" points="97,-579.5 192,-579.5 "/>
<text text-anchor="middle" x="144.5" y="-567.5" font-family="Helvetica,sans-Serif" font-size="10.00" fill="#000000"> </text>
<polyline fill="none" stroke="#bfbfbf" points="97,-560.5 192,-560.5 "/>
<text text-anchor="middle" x="144.5" y="-548.5" font-family="Helvetica,sans-Serif" font-size="10.00" fill="#000000"> </text>
</a>
</g>
</g>
<!-- Node7&#45;&gt;Node6 -->
<g id="edge5" class="edge">
<title>Node7&#45;&gt;Node6</title>
<path fill="none" stroke="#191970" d="M144.5,-531.0661C144.5,-518.4172 144.5,-504.9812 144.5,-493.5519"/>
<polygon fill="none" stroke="#191970" points="141.0001,-531.4447 144.5,-541.4447 148.0001,-531.4447 141.0001,-531.4447"/>
</g>
<!-- Node8 -->
<g id="node7" class="node">
<title>Node8</title>
<g id="a_node7"><a xlink:title="STL class. ">
<polygon fill="#ffffff" stroke="#bfbfbf" points="193,-436.5 193,-493.5 280,-493.5 280,-436.5 193,-436.5"/>
<text text-anchor="middle" x="236.5" y="-481.5" font-family="Helvetica,sans-Serif" font-size="10.00" fill="#000000">std::vector&lt; T &gt;</text>
<polyline fill="none" stroke="#bfbfbf" points="193,-474.5 280,-474.5 "/>
<text text-anchor="middle" x="236.5" y="-462.5" font-family="Helvetica,sans-Serif" font-size="10.00" fill="#000000"> </text>
<polyline fill="none" stroke="#bfbfbf" points="193,-455.5 280,-455.5 "/>
<text text-anchor="middle" x="236.5" y="-443.5" font-family="Helvetica,sans-Serif" font-size="10.00" fill="#000000"> </text>
</a>
</g>
</g>
<!-- Node8&#45;&gt;Node5 -->
<g id="edge6" class="edge">
<title>Node8&#45;&gt;Node5</title>
<path fill="none" stroke="#ffa500" d="M219.8246,-426.9366C214.2897,-414.3026 208.225,-400.4592 203.0545,-388.657"/>
<polygon fill="#ffa500" stroke="#ffa500" points="216.7116,-428.5532 223.9303,-436.3083 223.1233,-425.7442 216.7116,-428.5532"/>
<text text-anchor="middle" x="248" y="-410" font-family="Helvetica,sans-Serif" font-size="10.00" fill="#000000"> &lt; std::string &gt;</text>
</g>
<!-- Node9 -->
<g id="node8" class="node">
<title>Node9</title>
<polygon fill="#ffffff" stroke="#bfbfbf" points="222,-547 222,-604 251,-604 251,-547 222,-547"/>
<text text-anchor="middle" x="236.5" y="-592" font-family="Helvetica,sans-Serif" font-size="10.00" fill="#000000">T</text>
<polyline fill="none" stroke="#bfbfbf" points="222,-585 251,-585 "/>
<text text-anchor="middle" x="236.5" y="-573" font-family="Helvetica,sans-Serif" font-size="10.00" fill="#000000"> </text>
<polyline fill="none" stroke="#bfbfbf" points="222,-566 251,-566 "/>
<text text-anchor="middle" x="236.5" y="-554" font-family="Helvetica,sans-Serif" font-size="10.00" fill="#000000"> </text>
</g>
<!-- Node9&#45;&gt;Node8 -->
<g id="edge7" class="edge">
<title>Node9&#45;&gt;Node8</title>
<path fill="none" stroke="#404040" d="M236.5,-546.7559C236.5,-534.2224 236.5,-519.3039 236.5,-505.6631"/>
<polygon fill="none" stroke="#404040" points="236.5001,-505.6002 232.5,-499.6002 236.5,-493.6002 240.5,-499.6002 236.5001,-505.6002"/>
<text text-anchor="middle" x="261" y="-515" font-family="Helvetica,sans-Serif" font-size="10.00" fill="#000000"> +elements</text>
</g>
</g>
</svg>
        <g id="navigator" transform="translate(0 0)" fill="#404254">
                <rect fill="#f2f5e9" fill-opacity="0.5" stroke="#606060" stroke-width=".5" x="0" y="0" width="60" height="60"/>
                <use id="zoomplus" xlink:href="#zoomPlus" x="17" y="9" onmousedown="handleZoom(evt,'in')"/>
                <use id="zoomminus" xlink:href="#zoomMin" x="42" y="9" onmousedown="handleZoom(evt,'out')"/>
                <use id="reset" xlink:href="#resetDef" x="30" y="36" onmousedown="handleReset()"/>
                <g id="arrowUp" xlink:href="#dirArrow" transform="translate(30 24)" onmousedown="handlePan(0,-1)">
                  <use xlink:href="#rim" fill="#404040">
                        <set attributeName="fill" to="#808080" begin="arrowUp.mouseover" end="arrowUp.mouseout"/>
                  </use>
                  <path fill="none" stroke="white" stroke-width="1.5" d="M0,-3.0v7 M-2.5,-0.5L0,-3.0L2.5,-0.5"/>
                </g>
                <g id="arrowRight" xlink:href="#dirArrow" transform="rotate(90) translate(36 -43)" onmousedown="handlePan(1,0)">
                  <use xlink:href="#rim" fill="#404040">
                        <set attributeName="fill" to="#808080" begin="arrowRight.mouseover" end="arrowRight.mouseout"/>
                  </use>
                  <path fill="none" stroke="white" stroke-width="1.5" d="M0,-3.0v7 M-2.5,-0.5L0,-3.0L2.5,-0.5"/>
                </g>
                <g id="arrowDown" xlink:href="#dirArrow" transform="rotate(180) translate(-30 -48)" onmousedown="handlePan(0,1)">
                  <use xlink:href="#rim" fill="#404040">
                        <set attributeName="fill" to="#808080" begin="arrowDown.mouseover" end="arrowDown.mouseout"/>
                  </use>
                  <path fill="none" stroke="white" stroke-width="1.5" d="M0,-3.0v7 M-2.5,-0.5L0,-3.0L2.5,-0.5"/>
                </g>
                <g id="arrowLeft" xlink:href="#dirArrow" transform="rotate(270) translate(-36 17)" onmousedown="handlePan(-1,0)">
                  <use xlink:href="#rim" fill="#404040">
                        <set attributeName="fill" to="#808080" begin="arrowLeft.mouseover" end="arrowLeft.mouseout"/>
                  </use>
                  <path fill="none" stroke="white" stroke-width="1.5" d="M0,-3.0v7 M-2.5,-0.5L0,-3.0L2.5,-0.5"/>
                </g>
        </g>
        <svg viewBox="0 0 15 15" width="100%" height="30px" preserveAspectRatio="xMaxYMin meet">
         <g id="arrow_out" transform="scale(0.3 0.3)">
          <a xlink:href="classDesignPattern_1_1Builder_1_1ConcreteBuilder1__coll__graph_org.svg" target="_base">
           <rect id="button" ry="5" rx="5" y="6" x="6" height="38" width="38"
                fill="#f2f5e9" fill-opacity="0.5" stroke="#606060" stroke-width="1.0"/>
           <path id="arrow"
             d="M 11.500037,31.436501 C 11.940474,20.09759 22.043105,11.32322 32.158766,21.979434 L 37.068811,17.246167 C 37.068811,17.246167 37.088388,32 37.088388,32 L 22.160133,31.978069 C 22.160133,31.978069 26.997745,27.140456 26.997745,27.140456 C 18.528582,18.264221 13.291696,25.230495 11.500037,31.436501 z"
             style="fill:#404040;"/>
          </a>
         </g>
        </svg>
</svg>
