<?xml version="1.0" encoding="UTF-8" standalone="no"?>
<!DOCTYPE svg PUBLIC "-//W3C//DTD SVG 1.1//EN"
 "http://www.w3.org/Graphics/SVG/1.1/DTD/svg11.dtd">
<!-- Generated by graphviz version 2.40.1 (20161225.0304)
 -->
<!-- Title: AutoDerivativeFunction&lt; dim &gt; Pages: 1 -->
<svg width="1367pt" height="165pt"
 viewBox="0.00 0.00 1367.00 165.00" xmlns="http://www.w3.org/2000/svg" xmlns:xlink="http://www.w3.org/1999/xlink">
<g id="graph0" class="graph" transform="scale(1 1) rotate(0) translate(4 161)">
<title>AutoDerivativeFunction&lt; dim &gt;</title>
<polygon fill="#ffffff" stroke="transparent" points="-4,4 -4,-161 1363,-161 1363,4 -4,4"/>
<!-- Node0 -->
<g id="node1" class="node">
<title>Node0</title>
<polygon fill="#bfbfbf" stroke="#000000" points="826,-63.5 826,-93.5 945,-93.5 945,-63.5 826,-63.5"/>
<text text-anchor="start" x="834" y="-81.5" font-family="Helvetica,sans-Serif" font-size="10.00" fill="#000000">AutoDerivativeFunction</text>
<text text-anchor="middle" x="885.5" y="-70.5" font-family="Helvetica,sans-Serif" font-size="10.00" fill="#000000">&lt; dim &gt;</text>
</g>
<!-- Node7 -->
<g id="node8" class="node">
<title>Node7</title>
<g id="a_node8"><a xlink:href="classFunctionDerivative.html" target="_top" xlink:title="FunctionDerivative\l\&lt; dim \&gt;">
<polygon fill="#ffffff" stroke="#000000" points="1000,-126.5 1000,-156.5 1098,-156.5 1098,-126.5 1000,-126.5"/>
<text text-anchor="start" x="1008" y="-144.5" font-family="Helvetica,sans-Serif" font-size="10.00" fill="#000000">FunctionDerivative</text>
<text text-anchor="middle" x="1049" y="-133.5" font-family="Helvetica,sans-Serif" font-size="10.00" fill="#000000">&lt; dim &gt;</text>
</a>
</g>
</g>
<!-- Node0&#45;&gt;Node7 -->
<g id="edge8" class="edge">
<title>Node0&#45;&gt;Node7</title>
<path fill="none" stroke="#191970" d="M932.9291,-97.373C948.5358,-103.5307 965.989,-110.361 982,-116.5 990.4625,-119.7447 999.5467,-123.1718 1008.21,-126.4133"/>
<polygon fill="#191970" stroke="#191970" points="934.0663,-94.059 923.4798,-93.6381 931.4932,-100.569 934.0663,-94.059"/>
</g>
<!-- Node8 -->
<g id="node9" class="node">
<title>Node8</title>
<g id="a_node9"><a xlink:href="classFunctionParser.html" target="_top" xlink:title="FunctionParser\&lt; dim \&gt;">
<polygon fill="#ffffff" stroke="#000000" points="991,-88 991,-107 1107,-107 1107,-88 991,-88"/>
<text text-anchor="middle" x="1049" y="-95" font-family="Helvetica,sans-Serif" font-size="10.00" fill="#000000">FunctionParser&lt; dim &gt;</text>
</a>
</g>
</g>
<!-- Node0&#45;&gt;Node8 -->
<g id="edge9" class="edge">
<title>Node0&#45;&gt;Node8</title>
<path fill="none" stroke="#191970" d="M955.6844,-86.656C967.4514,-88.0234 979.5446,-89.4287 990.9622,-90.7556"/>
<polygon fill="#191970" stroke="#191970" points="955.7902,-83.1448 945.453,-85.467 954.9821,-90.098 955.7902,-83.1448"/>
</g>
<!-- Node9 -->
<g id="node10" class="node">
<title>Node9</title>
<g id="a_node10"><a xlink:href="classFunctionParser.html" target="_top" xlink:title="FunctionParser\&lt; spacedim \&gt;">
<polygon fill="#ffffff" stroke="#000000" points="1216,-66 1216,-85 1359,-85 1359,-66 1216,-66"/>
<text text-anchor="middle" x="1287.5" y="-73" font-family="Helvetica,sans-Serif" font-size="10.00" fill="#000000">FunctionParser&lt; spacedim &gt;</text>
</a>
</g>
</g>
<!-- Node0&#45;&gt;Node9 -->
<g id="edge11" class="edge">
<title>Node0&#45;&gt;Node9</title>
<path fill="none" stroke="#191970" d="M955.2655,-77.9794C1028.2372,-77.4348 1142.2058,-76.5843 1215.8676,-76.0346"/>
<polygon fill="#191970" stroke="#191970" points="955.223,-74.4795 945.2494,-78.0541 955.2753,-81.4793 955.223,-74.4795"/>
</g>
<!-- Node10 -->
<g id="node11" class="node">
<title>Node10</title>
<g id="a_node11"><a xlink:href="classFunctions_1_1ParsedFunction.html" target="_top" xlink:title="Functions::ParsedFunction\l\&lt; dim \&gt;">
<polygon fill="#ffffff" stroke="#000000" points="982,-.5 982,-30.5 1116,-30.5 1116,-.5 982,-.5"/>
<text text-anchor="start" x="990" y="-18.5" font-family="Helvetica,sans-Serif" font-size="10.00" fill="#000000">Functions::ParsedFunction</text>
<text text-anchor="middle" x="1049" y="-7.5" font-family="Helvetica,sans-Serif" font-size="10.00" fill="#000000">&lt; dim &gt;</text>
</a>
</g>
</g>
<!-- Node0&#45;&gt;Node10 -->
<g id="edge12" class="edge">
<title>Node0&#45;&gt;Node10</title>
<path fill="none" stroke="#191970" d="M929.0601,-59.348C940.0756,-54.6717 951.9237,-49.7846 963,-45.5 976.2732,-40.3656 990.8429,-35.1335 1004.1571,-30.5069"/>
<polygon fill="#191970" stroke="#191970" points="927.4504,-56.2298 919.6345,-63.3826 930.205,-62.665 927.4504,-56.2298"/>
</g>
<!-- Node1 -->
<g id="node2" class="node">
<title>Node1</title>
<g id="a_node2"><a xlink:href="classFunction.html" target="_top" xlink:title="Function\&lt; dim \&gt;">
<polygon fill="#ffffff" stroke="#000000" points="701,-69 701,-88 789,-88 789,-69 701,-69"/>
<text text-anchor="middle" x="745" y="-76" font-family="Helvetica,sans-Serif" font-size="10.00" fill="#000000">Function&lt; dim &gt;</text>
</a>
</g>
</g>
<!-- Node1&#45;&gt;Node0 -->
<g id="edge1" class="edge">
<title>Node1&#45;&gt;Node0</title>
<path fill="none" stroke="#191970" d="M799.1473,-78.5C807.8997,-78.5 817.0046,-78.5 825.878,-78.5"/>
<polygon fill="#191970" stroke="#191970" points="799.0696,-75.0001 789.0696,-78.5 799.0696,-82.0001 799.0696,-75.0001"/>
</g>
<!-- Node2 -->
<g id="node3" class="node">
<title>Node2</title>
<g id="a_node3"><a xlink:href="classFunctionTime.html" target="_top" xlink:title="FunctionTime\&lt; numbers\l::NumberTraits\&lt; double\l \&gt;::real_type \&gt;">
<polygon fill="#ffffff" stroke="#000000" points="493,-107 493,-148 615,-148 615,-107 493,-107"/>
<text text-anchor="start" x="501" y="-136" font-family="Helvetica,sans-Serif" font-size="10.00" fill="#000000">FunctionTime&lt; numbers</text>
<text text-anchor="start" x="501" y="-125" font-family="Helvetica,sans-Serif" font-size="10.00" fill="#000000">::NumberTraits&lt; double</text>
<text text-anchor="middle" x="554" y="-114" font-family="Helvetica,sans-Serif" font-size="10.00" fill="#000000"> &gt;::real_type &gt;</text>
</a>
</g>
</g>
<!-- Node2&#45;&gt;Node1 -->
<g id="edge2" class="edge">
<title>Node2&#45;&gt;Node1</title>
<path fill="none" stroke="#191970" d="M625.0154,-109.2814C653.1106,-102.0737 684.2377,-94.0882 707.746,-88.0573"/>
<polygon fill="#191970" stroke="#191970" points="624.0383,-105.9186 615.2217,-111.7939 625.7778,-112.6991 624.0383,-105.9186"/>
</g>
<!-- Node3 -->
<g id="node4" class="node">
<title>Node3</title>
<g id="a_node4"><a xlink:href="classSubscriptor.html" target="_top" xlink:title="Subscriptor">
<polygon fill="#ffffff" stroke="#000000" points="333,-68 333,-87 399,-87 399,-68 333,-68"/>
<text text-anchor="middle" x="366" y="-75" font-family="Helvetica,sans-Serif" font-size="10.00" fill="#000000">Subscriptor</text>
</a>
</g>
</g>
<!-- Node3&#45;&gt;Node1 -->
<g id="edge3" class="edge">
<title>Node3&#45;&gt;Node1</title>
<path fill="none" stroke="#191970" d="M409.4919,-77.6148C482.2601,-77.8068 627.8881,-78.191 700.9963,-78.3839"/>
<polygon fill="#191970" stroke="#191970" points="409.3108,-74.1144 399.3016,-77.5879 409.2923,-81.1143 409.3108,-74.1144"/>
</g>
<!-- Node4 -->
<g id="node5" class="node">
<title>Node4</title>
<g id="a_node5"><a xlink:href="classFunction.html" target="_top" xlink:title="Function\&lt; dim, RangeNumber\lType \&gt;">
<polygon fill="#ffffff" stroke="#000000" points="480,-19.5 480,-49.5 628,-49.5 628,-19.5 480,-19.5"/>
<text text-anchor="start" x="488" y="-37.5" font-family="Helvetica,sans-Serif" font-size="10.00" fill="#000000">Function&lt; dim, RangeNumber</text>
<text text-anchor="middle" x="554" y="-26.5" font-family="Helvetica,sans-Serif" font-size="10.00" fill="#000000">Type &gt;</text>
</a>
</g>
</g>
<!-- Node3&#45;&gt;Node4 -->
<g id="edge7" class="edge">
<title>Node3&#45;&gt;Node4</title>
<path fill="none" stroke="#191970" d="M409.1302,-67.6351C432.5041,-62.289 461.883,-55.5693 488.0641,-49.5811"/>
<polygon fill="#191970" stroke="#191970" points="408.1457,-64.2698 399.1779,-69.9114 409.7065,-71.0936 408.1457,-64.2698"/>
</g>
<!-- Node4&#45;&gt;Node1 -->
<g id="edge4" class="edge">
<title>Node4&#45;&gt;Node1</title>
<path fill="none" stroke="#ffa500" stroke-dasharray="5,2" d="M638.5577,-44.0173C653.4921,-46.5296 668.7984,-49.6496 683,-53.5 697.338,-57.3874 712.838,-63.6374 724.7535,-68.9155"/>
<polygon fill="#ffa500" stroke="#ffa500" points="638.7237,-40.4993 628.296,-42.3736 637.6165,-47.4112 638.7237,-40.4993"/>
<text text-anchor="middle" x="664.5" y="-56.5" font-family="Helvetica,sans-Serif" font-size="10.00" fill="#000000"> &lt; dim &gt;</text>
</g>
<!-- Node5 -->
<g id="node6" class="node">
<title>Node5</title>
<g id="a_node6"><a xlink:href="classFunctionTime.html" target="_top" xlink:title="FunctionTime\&lt; numbers\l::NumberTraits\&lt; RangeNumber\lType \&gt;::real_type \&gt;">
<polygon fill="#ffffff" stroke="#000000" points="289,-8 289,-49 443,-49 443,-8 289,-8"/>
<text text-anchor="start" x="297" y="-37" font-family="Helvetica,sans-Serif" font-size="10.00" fill="#000000">FunctionTime&lt; numbers</text>
<text text-anchor="start" x="297" y="-26" font-family="Helvetica,sans-Serif" font-size="10.00" fill="#000000">::NumberTraits&lt; RangeNumber</text>
<text text-anchor="middle" x="366" y="-15" font-family="Helvetica,sans-Serif" font-size="10.00" fill="#000000">Type &gt;::real_type &gt;</text>
</a>
</g>
</g>
<!-- Node5&#45;&gt;Node4 -->
<g id="edge5" class="edge">
<title>Node5&#45;&gt;Node4</title>
<path fill="none" stroke="#191970" d="M453.0619,-31.2786C462.0128,-31.5642 471.0482,-31.8526 479.8408,-32.1332"/>
<polygon fill="#191970" stroke="#191970" points="453.1158,-27.7786 443.0092,-30.9577 452.8925,-34.775 453.1158,-27.7786"/>
</g>
<!-- Node6 -->
<g id="node7" class="node">
<title>Node6</title>
<g id="a_node7"><a xlink:href="classFunctionTime.html" target="_top" xlink:title="FunctionTime\&lt; Number \&gt;">
<polygon fill="#ffffff" stroke="#000000" points="0,-19 0,-38 128,-38 128,-19 0,-19"/>
<text text-anchor="middle" x="64" y="-26" font-family="Helvetica,sans-Serif" font-size="10.00" fill="#000000">FunctionTime&lt; Number &gt;</text>
</a>
</g>
</g>
<!-- Node6&#45;&gt;Node5 -->
<g id="edge6" class="edge">
<title>Node6&#45;&gt;Node5</title>
<path fill="none" stroke="#ffa500" stroke-dasharray="5,2" d="M138.2043,-28.5C183.9934,-28.5 242.6212,-28.5 288.9318,-28.5"/>
<polygon fill="#ffa500" stroke="#ffa500" points="138.0465,-25.0001 128.0464,-28.5 138.0464,-32.0001 138.0465,-25.0001"/>
<text text-anchor="start" x="146" y="-53.5" font-family="Helvetica,sans-Serif" font-size="10.00" fill="#000000"> &lt; numbers::NumberTraits</text>
<text text-anchor="start" x="146" y="-42.5" font-family="Helvetica,sans-Serif" font-size="10.00" fill="#000000">&lt; RangeNumberType &gt;::real</text>
<text text-anchor="middle" x="208.5" y="-31.5" font-family="Helvetica,sans-Serif" font-size="10.00" fill="#000000">_type &gt;</text>
</g>
<!-- Node8&#45;&gt;Node9 -->
<g id="edge10" class="edge">
<title>Node8&#45;&gt;Node9</title>
<path fill="none" stroke="#ffa500" stroke-dasharray="5,2" d="M1117.2843,-91.2012C1148.1775,-88.3516 1184.6916,-84.9834 1215.9636,-82.0987"/>
<polygon fill="#ffa500" stroke="#ffa500" points="1116.6749,-87.7425 1107.0387,-92.1463 1117.3179,-94.7129 1116.6749,-87.7425"/>
<text text-anchor="middle" x="1166" y="-91.5" font-family="Helvetica,sans-Serif" font-size="10.00" fill="#000000"> &lt; spacedim &gt;</text>
</g>
</g>
</svg>
