<?xml version="1.0" encoding="UTF-8" standalone="no"?>
<!DOCTYPE svg PUBLIC "-//W3C//DTD SVG 1.1//EN"
 "http://www.w3.org/Graphics/SVG/1.1/DTD/svg11.dtd">
<!-- Generated by graphviz version 2.40.1 (20161225.0304)
 -->
<!-- Title: DataOutFaces&lt; dim, spacedim &gt; Pages: 1 -->
<svg width="1082pt" height="75pt"
 viewBox="0.00 0.00 1082.00 75.00" xmlns="http://www.w3.org/2000/svg" xmlns:xlink="http://www.w3.org/1999/xlink">
<g id="graph0" class="graph" transform="scale(1 1) rotate(0) translate(4 71)">
<title>DataOutFaces&lt; dim, spacedim &gt;</title>
<polygon fill="#ffffff" stroke="transparent" points="-4,4 -4,-71 1078,-71 1078,4 -4,4"/>
<!-- Node0 -->
<g id="node1" class="node">
<title>Node0</title>
<polygon fill="#bfbfbf" stroke="#000000" points="957,-30 957,-60 1074,-60 1074,-30 957,-30"/>
<text text-anchor="start" x="965" y="-48" font-family="Helvetica,sans-Serif" font-size="10.00" fill="#000000">DataOutFaces&lt; dim,</text>
<text text-anchor="middle" x="1015.5" y="-37" font-family="Helvetica,sans-Serif" font-size="10.00" fill="#000000"> spacedim &gt;</text>
</g>
<!-- Node1 -->
<g id="node2" class="node">
<title>Node1</title>
<g id="a_node2"><a xlink:href="classDataOut__DoFData.html" target="_top" xlink:title="DataOut_DoFData\&lt; dim,\l dim &#45; 1, spacedim, spacedim \&gt;">
<polygon fill="#ffffff" stroke="#000000" points="748,-30 748,-60 920,-60 920,-30 748,-30"/>
<text text-anchor="start" x="756" y="-48" font-family="Helvetica,sans-Serif" font-size="10.00" fill="#000000">DataOut_DoFData&lt; dim,</text>
<text text-anchor="middle" x="834" y="-37" font-family="Helvetica,sans-Serif" font-size="10.00" fill="#000000"> dim &#45; 1, spacedim, spacedim &gt;</text>
</a>
</g>
</g>
<!-- Node1&#45;&gt;Node0 -->
<g id="edge1" class="edge">
<title>Node1&#45;&gt;Node0</title>
<path fill="none" stroke="#191970" d="M930.4422,-45C939.4742,-45 948.4307,-45 956.9519,-45"/>
<polygon fill="#191970" stroke="#191970" points="930.2319,-41.5001 920.2319,-45 930.2319,-48.5001 930.2319,-41.5001"/>
</g>
<!-- Node2 -->
<g id="node3" class="node">
<title>Node2</title>
<g id="a_node3"><a xlink:href="classDataOutInterface.html" target="_top" xlink:title="DataOutInterface\&lt; patch\l_dim, patch_spacedim \&gt;">
<polygon fill="#ffffff" stroke="#000000" points="269,-30 269,-60 408,-60 408,-30 269,-30"/>
<text text-anchor="start" x="277" y="-48" font-family="Helvetica,sans-Serif" font-size="10.00" fill="#000000">DataOutInterface&lt; patch</text>
<text text-anchor="middle" x="338.5" y="-37" font-family="Helvetica,sans-Serif" font-size="10.00" fill="#000000">_dim, patch_spacedim &gt;</text>
</a>
</g>
</g>
<!-- Node2&#45;&gt;Node1 -->
<g id="edge2" class="edge">
<title>Node2&#45;&gt;Node1</title>
<path fill="none" stroke="#191970" d="M418.5836,-51.029C497.7446,-56.0977 622.2897,-61.6804 730,-56 735.8019,-55.694 741.7784,-55.2927 747.7951,-54.8245"/>
<polygon fill="#191970" stroke="#191970" points="418.4082,-47.5102 408.2012,-50.3505 417.9516,-54.4953 418.4082,-47.5102"/>
</g>
<!-- Node4 -->
<g id="node5" class="node">
<title>Node4</title>
<g id="a_node5"><a xlink:href="classDataOut__DoFData.html" target="_top" xlink:title="DataOut_DoFData\&lt; dim,\l patch_dim, spacedim,\l patch_spacedim \&gt;">
<polygon fill="#ffffff" stroke="#000000" points="445,-.5 445,-41.5 582,-41.5 582,-.5 445,-.5"/>
<text text-anchor="start" x="453" y="-29.5" font-family="Helvetica,sans-Serif" font-size="10.00" fill="#000000">DataOut_DoFData&lt; dim,</text>
<text text-anchor="start" x="453" y="-18.5" font-family="Helvetica,sans-Serif" font-size="10.00" fill="#000000"> patch_dim, spacedim,</text>
<text text-anchor="middle" x="513.5" y="-7.5" font-family="Helvetica,sans-Serif" font-size="10.00" fill="#000000"> patch_spacedim &gt;</text>
</a>
</g>
</g>
<!-- Node2&#45;&gt;Node4 -->
<g id="edge5" class="edge">
<title>Node2&#45;&gt;Node4</title>
<path fill="none" stroke="#191970" d="M418.1841,-34.0719C427.1149,-32.8471 436.1552,-31.6073 444.9288,-30.404"/>
<polygon fill="#191970" stroke="#191970" points="417.5992,-30.6193 408.1675,-35.4456 418.5503,-37.5544 417.5992,-30.6193"/>
</g>
<!-- Node3 -->
<g id="node4" class="node">
<title>Node3</title>
<g id="a_node4"><a xlink:href="classDataOutInterface.html" target="_top" xlink:title="DataOutInterface\&lt; dim,\l spacedim \&gt;">
<polygon fill="#ffffff" stroke="#000000" points="0,-30 0,-60 134,-60 134,-30 0,-30"/>
<text text-anchor="start" x="8" y="-48" font-family="Helvetica,sans-Serif" font-size="10.00" fill="#000000">DataOutInterface&lt; dim,</text>
<text text-anchor="middle" x="67" y="-37" font-family="Helvetica,sans-Serif" font-size="10.00" fill="#000000"> spacedim &gt;</text>
</a>
</g>
</g>
<!-- Node3&#45;&gt;Node2 -->
<g id="edge3" class="edge">
<title>Node3&#45;&gt;Node2</title>
<path fill="none" stroke="#ffa500" stroke-dasharray="5,2" d="M144.1648,-45C183.4053,-45 230.7273,-45 268.8492,-45"/>
<polygon fill="#ffa500" stroke="#ffa500" points="144.1124,-41.5001 134.1124,-45 144.1123,-48.5001 144.1124,-41.5001"/>
<text text-anchor="start" x="152" y="-59" font-family="Helvetica,sans-Serif" font-size="10.00" fill="#000000"> &lt; patch_dim, patch</text>
<text text-anchor="middle" x="201.5" y="-48" font-family="Helvetica,sans-Serif" font-size="10.00" fill="#000000">_spacedim &gt;</text>
</g>
<!-- Node4&#45;&gt;Node1 -->
<g id="edge4" class="edge">
<title>Node4&#45;&gt;Node1</title>
<path fill="none" stroke="#ffa500" stroke-dasharray="5,2" d="M592.5095,-24.8811C633.5531,-27.1158 684.5087,-30.2304 730,-34 735.7902,-34.4798 741.7578,-35.0115 747.768,-35.5747"/>
<polygon fill="#ffa500" stroke="#ffa500" points="592.4711,-21.3741 582.2976,-24.3321 592.0952,-28.364 592.4711,-21.3741"/>
<text text-anchor="start" x="600" y="-48" font-family="Helvetica,sans-Serif" font-size="10.00" fill="#000000"> &lt; dim, dim &#45; 1, spacedim,</text>
<text text-anchor="middle" x="665" y="-37" font-family="Helvetica,sans-Serif" font-size="10.00" fill="#000000"> spacedim &gt;</text>
</g>
</g>
</svg>
