<?xml version="1.0" encoding="UTF-8" standalone="no"?>
<!DOCTYPE svg PUBLIC "-//W3C//DTD SVG 1.1//EN"
 "http://www.w3.org/Graphics/SVG/1.1/DTD/svg11.dtd">
<!-- Generated by graphviz version 2.40.1 (20161225.0304)
 -->
<!-- Title: IdentityMatrix Pages: 1 -->
<svg width="99pt" height="259pt"
 viewBox="0.00 0.00 99.00 259.00" xmlns="http://www.w3.org/2000/svg" xmlns:xlink="http://www.w3.org/1999/xlink">
<g id="graph0" class="graph" transform="scale(1 1) rotate(0) translate(4 255)">
<title>IdentityMatrix</title>
<polygon fill="#ffffff" stroke="transparent" points="-4,4 -4,-255 95,-255 95,4 -4,4"/>
<!-- Node1 -->
<g id="node1" class="node">
<title>Node1</title>
<polygon fill="#bfbfbf" stroke="#000000" points="0,-.5 0,-145.5 91,-145.5 91,-.5 0,-.5"/>
<text text-anchor="middle" x="45.5" y="-133.5" font-family="Helvetica,sans-Serif" font-size="10.00" fill="#000000">IdentityMatrix</text>
<polyline fill="none" stroke="#000000" points="0,-126.5 91,-126.5 "/>
<text text-anchor="middle" x="45.5" y="-114.5" font-family="Helvetica,sans-Serif" font-size="10.00" fill="#000000"> </text>
<polyline fill="none" stroke="#000000" points="0,-107.5 91,-107.5 "/>
<text text-anchor="start" x="8" y="-95.5" font-family="Helvetica,sans-Serif" font-size="10.00" fill="#000000">+ IdentityMatrix()</text>
<text text-anchor="start" x="8" y="-84.5" font-family="Helvetica,sans-Serif" font-size="10.00" fill="#000000">+ IdentityMatrix()</text>
<text text-anchor="start" x="8" y="-73.5" font-family="Helvetica,sans-Serif" font-size="10.00" fill="#000000">+ reinit()</text>
<text text-anchor="start" x="8" y="-62.5" font-family="Helvetica,sans-Serif" font-size="10.00" fill="#000000">+ m()</text>
<text text-anchor="start" x="8" y="-51.5" font-family="Helvetica,sans-Serif" font-size="10.00" fill="#000000">+ n()</text>
<text text-anchor="start" x="8" y="-40.5" font-family="Helvetica,sans-Serif" font-size="10.00" fill="#000000">+ vmult()</text>
<text text-anchor="start" x="8" y="-29.5" font-family="Helvetica,sans-Serif" font-size="10.00" fill="#000000">+ vmult_add()</text>
<text text-anchor="start" x="8" y="-18.5" font-family="Helvetica,sans-Serif" font-size="10.00" fill="#000000">+ Tvmult()</text>
<text text-anchor="start" x="8" y="-7.5" font-family="Helvetica,sans-Serif" font-size="10.00" fill="#000000">+ Tvmult_add()</text>
</g>
<!-- Node2 -->
<g id="node2" class="node">
<title>Node2</title>
<g id="a_node2"><a xlink:href="classunsigned_01int.html" target="_top" xlink:title="{unsigned int\n||}">
<polygon fill="#ffffff" stroke="#000000" points="11,-193.5 11,-250.5 80,-250.5 80,-193.5 11,-193.5"/>
<text text-anchor="middle" x="45.5" y="-238.5" font-family="Helvetica,sans-Serif" font-size="10.00" fill="#000000">unsigned int</text>
<polyline fill="none" stroke="#000000" points="11,-231.5 80,-231.5 "/>
<text text-anchor="middle" x="45.5" y="-219.5" font-family="Helvetica,sans-Serif" font-size="10.00" fill="#000000"> </text>
<polyline fill="none" stroke="#000000" points="11,-212.5 80,-212.5 "/>
<text text-anchor="middle" x="45.5" y="-200.5" font-family="Helvetica,sans-Serif" font-size="10.00" fill="#000000"> </text>
</a>
</g>
</g>
<!-- Node2&#45;&gt;Node1 -->
<g id="edge1" class="edge">
<title>Node2&#45;&gt;Node1</title>
<path fill="none" stroke="#404040" d="M45.5,-193.2713C45.5,-182.8895 45.5,-170.5716 45.5,-157.843"/>
<polygon fill="none" stroke="#404040" points="45.5001,-157.5631 41.5,-151.5632 45.5,-145.5631 49.5,-151.5631 45.5001,-157.5631"/>
<text text-anchor="middle" x="58" y="-167" font-family="Helvetica,sans-Serif" font-size="10.00" fill="#000000"> &#45;size</text>
</g>
</g>
</svg>
