<?xml version="1.0" encoding="UTF-8" standalone="no"?>
<!DOCTYPE svg PUBLIC "-//W3C//DTD SVG 1.1//EN"
 "http://www.w3.org/Graphics/SVG/1.1/DTD/svg11.dtd">
<!-- Generated by graphviz version 2.40.1 (20161225.0304)
 -->
<!-- Title: Vector&lt; Number &gt; Pages: 1 -->
<svg width="546pt" height="117pt"
 viewBox="0.00 0.00 546.00 116.50" xmlns="http://www.w3.org/2000/svg" xmlns:xlink="http://www.w3.org/1999/xlink">
<g id="graph0" class="graph" transform="scale(1 1) rotate(0) translate(4 112.5)">
<title>Vector&lt; Number &gt;</title>
<polygon fill="#ffffff" stroke="transparent" points="-4,4 -4,-112.5 542,-112.5 542,4 -4,4"/>
<!-- Node0 -->
<g id="node1" class="node">
<title>Node0</title>
<polygon fill="#bfbfbf" stroke="#000000" points="108,-51 108,-70 217,-70 217,-51 108,-51"/>
<text text-anchor="middle" x="162.5" y="-58" font-family="Helvetica,sans-Serif" font-size="10.00" fill="#000000">Vector&lt; Number &gt;</text>
</g>
<!-- Node2 -->
<g id="node3" class="node">
<title>Node2</title>
<g id="a_node3"><a xlink:href="classVector.html" target="_top" xlink:title="Vector\&lt; RangeNumberType \&gt;">
<polygon fill="#ffffff" stroke="#000000" points="375,-89 375,-108 537,-108 537,-89 375,-89"/>
<text text-anchor="middle" x="456" y="-96" font-family="Helvetica,sans-Serif" font-size="10.00" fill="#000000">Vector&lt; RangeNumberType &gt;</text>
</a>
</g>
</g>
<!-- Node0&#45;&gt;Node2 -->
<g id="edge2" class="edge">
<title>Node0&#45;&gt;Node2</title>
<path fill="none" stroke="#ffa500" stroke-dasharray="5,2" d="M214.7635,-71.9634C221.5529,-73.2612 228.4289,-74.4809 235,-75.5 281.1247,-82.6532 333.0194,-88.1827 374.9252,-92.0253"/>
<polygon fill="#ffa500" stroke="#ffa500" points="215.4124,-68.524 204.9238,-70.0206 214.0564,-75.3915 215.4124,-68.524"/>
<text text-anchor="middle" x="295.5" y="-93.5" font-family="Helvetica,sans-Serif" font-size="10.00" fill="#000000"> &lt; RangeNumberType &gt;</text>
</g>
<!-- Node3 -->
<g id="node4" class="node">
<title>Node3</title>
<g id="a_node4"><a xlink:href="classVector.html" target="_top" xlink:title="Vector\&lt; number \&gt;">
<polygon fill="#ffffff" stroke="#000000" points="402.5,-51 402.5,-70 509.5,-70 509.5,-51 402.5,-51"/>
<text text-anchor="middle" x="456" y="-58" font-family="Helvetica,sans-Serif" font-size="10.00" fill="#000000">Vector&lt; number &gt;</text>
</a>
</g>
</g>
<!-- Node0&#45;&gt;Node3 -->
<g id="edge3" class="edge">
<title>Node0&#45;&gt;Node3</title>
<path fill="none" stroke="#ffa500" stroke-dasharray="5,2" d="M227.2345,-60.5C279.7637,-60.5 352.9445,-60.5 402.2703,-60.5"/>
<polygon fill="#ffa500" stroke="#ffa500" points="227.0173,-57.0001 217.0173,-60.5 227.0172,-64.0001 227.0173,-57.0001"/>
<text text-anchor="middle" x="295.5" y="-63.5" font-family="Helvetica,sans-Serif" font-size="10.00" fill="#000000"> &lt; number &gt;</text>
</g>
<!-- Node4 -->
<g id="node5" class="node">
<title>Node4</title>
<g id="a_node5"><a xlink:href="classVector.html" target="_top" xlink:title="Vector\&lt; typename VectorType\l::value_type \&gt;">
<polygon fill="#ffffff" stroke="#000000" points="374,-.5 374,-30.5 538,-30.5 538,-.5 374,-.5"/>
<text text-anchor="start" x="382" y="-18.5" font-family="Helvetica,sans-Serif" font-size="10.00" fill="#000000">Vector&lt; typename VectorType</text>
<text text-anchor="middle" x="456" y="-7.5" font-family="Helvetica,sans-Serif" font-size="10.00" fill="#000000">::value_type &gt;</text>
</a>
</g>
</g>
<!-- Node0&#45;&gt;Node4 -->
<g id="edge4" class="edge">
<title>Node0&#45;&gt;Node4</title>
<path fill="none" stroke="#ffa500" stroke-dasharray="5,2" d="M194.1179,-47.1536C206.6371,-42.4033 221.2902,-37.4946 235,-34.5 280.3352,-24.5976 331.9566,-19.8078 373.9019,-17.5114"/>
<polygon fill="#ffa500" stroke="#ffa500" points="192.6253,-43.9794 184.5942,-50.8896 195.1817,-50.4959 192.6253,-43.9794"/>
<text text-anchor="start" x="235" y="-48.5" font-family="Helvetica,sans-Serif" font-size="10.00" fill="#000000"> &lt; typename VectorType</text>
<text text-anchor="middle" x="295.5" y="-37.5" font-family="Helvetica,sans-Serif" font-size="10.00" fill="#000000">::value_type &gt;</text>
</g>
<!-- Node1 -->
<g id="node2" class="node">
<title>Node1</title>
<g id="a_node2"><a xlink:href="classSubscriptor.html" target="_top" xlink:title="Subscriptor">
<polygon fill="#ffffff" stroke="#000000" points="0,-51 0,-70 71,-70 71,-51 0,-51"/>
<text text-anchor="middle" x="35.5" y="-58" font-family="Helvetica,sans-Serif" font-size="10.00" fill="#000000">Subscriptor</text>
</a>
</g>
</g>
<!-- Node1&#45;&gt;Node0 -->
<g id="edge1" class="edge">
<title>Node1&#45;&gt;Node0</title>
<path fill="none" stroke="#191970" d="M81.3329,-60.5C89.8532,-60.5 98.8346,-60.5 107.5937,-60.5"/>
<polygon fill="#191970" stroke="#191970" points="81.2146,-57.0001 71.2146,-60.5 81.2145,-64.0001 81.2146,-57.0001"/>
</g>
</g>
</svg>
