<?xml version="1.0" encoding="UTF-8" standalone="no"?>
<!DOCTYPE svg PUBLIC "-//W3C//DTD SVG 1.1//EN"
 "http://www.w3.org/Graphics/SVG/1.1/DTD/svg11.dtd">
<!-- Generated by graphviz version 2.40.1 (20161225.0304)
 -->
<!-- Title: ArborXWrappers::BoundingBoxIntersectPredicate Pages: 1 -->
<svg width="177pt" height="204pt"
 viewBox="0.00 0.00 177.00 204.00" xmlns="http://www.w3.org/2000/svg" xmlns:xlink="http://www.w3.org/1999/xlink">
<g id="graph0" class="graph" transform="scale(1 1) rotate(0) translate(4 200)">
<title>ArborXWrappers::BoundingBoxIntersectPredicate</title>
<polygon fill="#ffffff" stroke="transparent" points="-4,4 -4,-200 173,-200 173,4 -4,4"/>
<!-- Node0 -->
<g id="node1" class="node">
<title>Node0</title>
<polygon fill="#bfbfbf" stroke="#000000" points="0,-.5 0,-68.5 169,-68.5 169,-.5 0,-.5"/>
<text text-anchor="start" x="8" y="-56.5" font-family="Helvetica,sans-Serif" font-size="10.00" fill="#000000">ArborXWrappers::Bounding</text>
<text text-anchor="middle" x="84.5" y="-45.5" font-family="Helvetica,sans-Serif" font-size="10.00" fill="#000000">BoxIntersectPredicate</text>
<polyline fill="none" stroke="#000000" points="0,-38.5 169,-38.5 "/>
<text text-anchor="middle" x="84.5" y="-26.5" font-family="Helvetica,sans-Serif" font-size="10.00" fill="#000000"> </text>
<polyline fill="none" stroke="#000000" points="0,-19.5 169,-19.5 "/>
<text text-anchor="start" x="8" y="-7.5" font-family="Helvetica,sans-Serif" font-size="10.00" fill="#000000">+ BoundingBoxIntersectPredicate()</text>
</g>
<!-- Node1 -->
<g id="node2" class="node">
<title>Node1</title>
<g id="a_node2"><a xlink:href="classArborXWrappers_1_1BoundingBoxPredicate.html" target="_top" xlink:title="{ArborXWrappers::Bounding\lBoxPredicate\n|&#45; bounding_boxes\l|# BoundingBoxPredicate()\l# size()\l# get()\l}">
<polygon fill="#ffffff" stroke="#000000" points="17,-105.5 17,-195.5 152,-195.5 152,-105.5 17,-105.5"/>
<text text-anchor="start" x="25" y="-183.5" font-family="Helvetica,sans-Serif" font-size="10.00" fill="#000000">ArborXWrappers::Bounding</text>
<text text-anchor="middle" x="84.5" y="-172.5" font-family="Helvetica,sans-Serif" font-size="10.00" fill="#000000">BoxPredicate</text>
<polyline fill="none" stroke="#000000" points="17,-165.5 152,-165.5 "/>
<text text-anchor="start" x="25" y="-153.5" font-family="Helvetica,sans-Serif" font-size="10.00" fill="#000000">&#45; bounding_boxes</text>
<polyline fill="none" stroke="#000000" points="17,-146.5 152,-146.5 "/>
<text text-anchor="start" x="25" y="-134.5" font-family="Helvetica,sans-Serif" font-size="10.00" fill="#000000"># BoundingBoxPredicate()</text>
<text text-anchor="start" x="25" y="-123.5" font-family="Helvetica,sans-Serif" font-size="10.00" fill="#000000"># size()</text>
<text text-anchor="start" x="25" y="-112.5" font-family="Helvetica,sans-Serif" font-size="10.00" fill="#000000"># get()</text>
</a>
</g>
</g>
<!-- Node1&#45;&gt;Node0 -->
<g id="edge1" class="edge">
<title>Node1&#45;&gt;Node0</title>
<path fill="none" stroke="#8b1a1a" d="M84.5,-95.1681C84.5,-86.1024 84.5,-76.9497 84.5,-68.5982"/>
<polygon fill="none" stroke="#8b1a1a" points="81.0001,-95.3192 84.5,-105.3192 88.0001,-95.3192 81.0001,-95.3192"/>
</g>
</g>
</svg>
