<?xml version="1.0" encoding="UTF-8" standalone="no"?>
<!DOCTYPE svg PUBLIC "-//W3C//DTD SVG 1.1//EN"
 "http://www.w3.org/Graphics/SVG/1.1/DTD/svg11.dtd">
<!-- Generated by graphviz version 2.40.1 (20161225.0304)
 -->
<!-- Title: DesignPattern::Bridge::Abstraction Pages: 1 -->
<svg width="158pt" height="226pt"
 viewBox="0.00 0.00 158.00 226.00" xmlns="http://www.w3.org/2000/svg" xmlns:xlink="http://www.w3.org/1999/xlink">
<g id="graph0" class="graph" transform="scale(1 1) rotate(0) translate(4 222)">
<title>DesignPattern::Bridge::Abstraction</title>
<polygon fill="#ffffff" stroke="transparent" points="-4,4 -4,-222 154,-222 154,4 -4,4"/>
<!-- Node2 -->
<g id="node1" class="node">
<title>Node2</title>
<polygon fill="#bfbfbf" stroke="#000000" points="13.5,-.5 13.5,-90.5 126.5,-90.5 126.5,-.5 13.5,-.5"/>
<text text-anchor="start" x="21.5" y="-78.5" font-family="Helvetica,sans-Serif" font-size="10.00" fill="#000000">DesignPattern::Bridge</text>
<text text-anchor="middle" x="70" y="-67.5" font-family="Helvetica,sans-Serif" font-size="10.00" fill="#000000">::Abstraction</text>
<polyline fill="none" stroke="#000000" points="13.5,-60.5 126.5,-60.5 "/>
<text text-anchor="middle" x="70" y="-48.5" font-family="Helvetica,sans-Serif" font-size="10.00" fill="#000000"> </text>
<polyline fill="none" stroke="#000000" points="13.5,-41.5 126.5,-41.5 "/>
<text text-anchor="start" x="21.5" y="-29.5" font-family="Helvetica,sans-Serif" font-size="10.00" fill="#000000">+ Abstraction()</text>
<text text-anchor="start" x="21.5" y="-18.5" font-family="Helvetica,sans-Serif" font-size="10.00" fill="#000000">+ ~Abstraction()</text>
<text text-anchor="start" x="21.5" y="-7.5" font-family="Helvetica,sans-Serif" font-size="10.00" fill="#000000">+ Operation()</text>
</g>
<!-- Node3 -->
<g id="node2" class="node">
<title>Node3</title>
<g id="a_node2"><a xlink:href="classDesignPattern_1_1Bridge_1_1Implementation.html" target="_top" xlink:title="{DesignPattern::Bridge\l::Implementation\n||+ ~Implementation()\l+ OperationImplementation()\l}">
<polygon fill="#ffffff" stroke="#000000" points="0,-138.5 0,-217.5 140,-217.5 140,-138.5 0,-138.5"/>
<text text-anchor="start" x="8" y="-205.5" font-family="Helvetica,sans-Serif" font-size="10.00" fill="#000000">DesignPattern::Bridge</text>
<text text-anchor="middle" x="70" y="-194.5" font-family="Helvetica,sans-Serif" font-size="10.00" fill="#000000">::Implementation</text>
<polyline fill="none" stroke="#000000" points="0,-187.5 140,-187.5 "/>
<text text-anchor="middle" x="70" y="-175.5" font-family="Helvetica,sans-Serif" font-size="10.00" fill="#000000"> </text>
<polyline fill="none" stroke="#000000" points="0,-168.5 140,-168.5 "/>
<text text-anchor="start" x="8" y="-156.5" font-family="Helvetica,sans-Serif" font-size="10.00" fill="#000000">+ ~Implementation()</text>
<text text-anchor="start" x="8" y="-145.5" font-family="Helvetica,sans-Serif" font-size="10.00" fill="#000000">+ OperationImplementation()</text>
</a>
</g>
</g>
<!-- Node3&#45;&gt;Node2 -->
<g id="edge1" class="edge">
<title>Node3&#45;&gt;Node2</title>
<path fill="none" stroke="#404040" d="M70,-138.2456C70,-127.1568 70,-114.8824 70,-102.9911"/>
<polygon fill="none" stroke="#404040" points="70.0001,-102.8036 66,-96.8037 70,-90.8036 74,-96.8036 70.0001,-102.8036"/>
<text text-anchor="middle" x="110" y="-112" font-family="Helvetica,sans-Serif" font-size="10.00" fill="#000000"> #implementation_</text>
</g>
</g>
</svg>
