<?xml version="1.0" encoding="UTF-8" standalone="no"?>
<!DOCTYPE svg PUBLIC "-//W3C//DTD SVG 1.1//EN"
 "http://www.w3.org/Graphics/SVG/1.1/DTD/svg11.dtd">
<!-- Generated by graphviz version 2.40.1 (20161225.0304)
 -->
<!-- Title: FEFaceEvaluation&lt; dim, fe_degree, n_q_points_1d, n_components_, Number, VectorizedArrayType &gt; Pages: 1 -->
<svg width="996pt" height="89pt"
 viewBox="0.00 0.00 996.00 89.00" xmlns="http://www.w3.org/2000/svg" xmlns:xlink="http://www.w3.org/1999/xlink">
<g id="graph0" class="graph" transform="scale(1 1) rotate(0) translate(4 85)">
<title>FEFaceEvaluation&lt; dim, fe_degree, n_q_points_1d, n_components_, Number, VectorizedArrayType &gt;</title>
<polygon fill="#ffffff" stroke="transparent" points="-4,4 -4,-85 992,-85 992,4 -4,4"/>
<!-- Node0 -->
<g id="node1" class="node">
<title>Node0</title>
<polygon fill="#bfbfbf" stroke="#000000" points="837,-28.5 837,-80.5 988,-80.5 988,-28.5 837,-28.5"/>
<text text-anchor="start" x="845" y="-68.5" font-family="Helvetica,sans-Serif" font-size="10.00" fill="#000000">FEFaceEvaluation&lt; dim,</text>
<text text-anchor="start" x="845" y="-57.5" font-family="Helvetica,sans-Serif" font-size="10.00" fill="#000000"> fe_degree, n_q_points</text>
<text text-anchor="start" x="845" y="-46.5" font-family="Helvetica,sans-Serif" font-size="10.00" fill="#000000">_1d, n_components_, Number,</text>
<text text-anchor="middle" x="912.5" y="-35.5" font-family="Helvetica,sans-Serif" font-size="10.00" fill="#000000"> VectorizedArrayType &gt;</text>
</g>
<!-- Node1 -->
<g id="node2" class="node">
<title>Node1</title>
<g id="a_node2"><a xlink:href="classFEEvaluationAccess.html" target="_top" xlink:title="FEEvaluationAccess\l\&lt; dim, n_components\l_, Number, true, Vectorized\lArrayType \&gt;">
<polygon fill="#ffffff" stroke="#000000" points="663,-28.5 663,-80.5 800,-80.5 800,-28.5 663,-28.5"/>
<text text-anchor="start" x="671" y="-68.5" font-family="Helvetica,sans-Serif" font-size="10.00" fill="#000000">FEEvaluationAccess</text>
<text text-anchor="start" x="671" y="-57.5" font-family="Helvetica,sans-Serif" font-size="10.00" fill="#000000">&lt; dim, n_components</text>
<text text-anchor="start" x="671" y="-46.5" font-family="Helvetica,sans-Serif" font-size="10.00" fill="#000000">_, Number, true, Vectorized</text>
<text text-anchor="middle" x="731.5" y="-35.5" font-family="Helvetica,sans-Serif" font-size="10.00" fill="#000000">ArrayType &gt;</text>
</a>
</g>
</g>
<!-- Node1&#45;&gt;Node0 -->
<g id="edge1" class="edge">
<title>Node1&#45;&gt;Node0</title>
<path fill="none" stroke="#191970" d="M810.4209,-54.5C819.2145,-54.5 828.1564,-54.5 836.9071,-54.5"/>
<polygon fill="#191970" stroke="#191970" points="810.1865,-51.0001 800.1864,-54.5 810.1864,-58.0001 810.1865,-51.0001"/>
</g>
<!-- Node2 -->
<g id="node3" class="node">
<title>Node2</title>
<g id="a_node3"><a xlink:href="classFEEvaluationBase.html" target="_top" xlink:title="FEEvaluationBase\&lt; dim,\l n_components_, Number,\l is_face, VectorizedArrayType \&gt;">
<polygon fill="#ffffff" stroke="#000000" points="159,-33 159,-74 317,-74 317,-33 159,-33"/>
<text text-anchor="start" x="167" y="-62" font-family="Helvetica,sans-Serif" font-size="10.00" fill="#000000">FEEvaluationBase&lt; dim,</text>
<text text-anchor="start" x="167" y="-51" font-family="Helvetica,sans-Serif" font-size="10.00" fill="#000000"> n_components_, Number,</text>
<text text-anchor="middle" x="238" y="-40" font-family="Helvetica,sans-Serif" font-size="10.00" fill="#000000"> is_face, VectorizedArrayType &gt;</text>
</a>
</g>
</g>
<!-- Node2&#45;&gt;Node1 -->
<g id="edge2" class="edge">
<title>Node2&#45;&gt;Node1</title>
<path fill="none" stroke="#191970" d="M327.3617,-59.9657C336.358,-60.5258 345.3582,-61.0496 354,-61.5 483.1855,-68.2325 515.9988,-77.1396 645,-67.5 650.7546,-67.07 656.7068,-66.4812 662.671,-65.7902"/>
<polygon fill="#191970" stroke="#191970" points="327.4279,-56.4629 317.2256,-59.3199 326.9828,-63.4487 327.4279,-56.4629"/>
</g>
<!-- Node4 -->
<g id="node5" class="node">
<title>Node4</title>
<g id="a_node5"><a xlink:href="classFEEvaluationAccess.html" target="_top" xlink:title="FEEvaluationAccess\l\&lt; dim, n_components\l_, Number, is_face, Vectorized\lArrayType \&gt;">
<polygon fill="#ffffff" stroke="#000000" points="354,-.5 354,-52.5 506,-52.5 506,-.5 354,-.5"/>
<text text-anchor="start" x="362" y="-40.5" font-family="Helvetica,sans-Serif" font-size="10.00" fill="#000000">FEEvaluationAccess</text>
<text text-anchor="start" x="362" y="-29.5" font-family="Helvetica,sans-Serif" font-size="10.00" fill="#000000">&lt; dim, n_components</text>
<text text-anchor="start" x="362" y="-18.5" font-family="Helvetica,sans-Serif" font-size="10.00" fill="#000000">_, Number, is_face, Vectorized</text>
<text text-anchor="middle" x="430" y="-7.5" font-family="Helvetica,sans-Serif" font-size="10.00" fill="#000000">ArrayType &gt;</text>
</a>
</g>
</g>
<!-- Node2&#45;&gt;Node4 -->
<g id="edge5" class="edge">
<title>Node2&#45;&gt;Node4</title>
<path fill="none" stroke="#191970" d="M327.1823,-40.9587C336.0658,-39.7095 345.0274,-38.4493 353.761,-37.2211"/>
<polygon fill="#191970" stroke="#191970" points="326.6174,-37.5037 317.2022,-42.3622 327.5922,-44.4354 326.6174,-37.5037"/>
</g>
<!-- Node3 -->
<g id="node4" class="node">
<title>Node3</title>
<g id="a_node4"><a xlink:href="classFEEvaluationBaseData.html" target="_top" xlink:title="FEEvaluationBaseData\l\&lt; dim, Number, is_face,\l VectorizedArrayType \&gt;">
<polygon fill="#ffffff" stroke="#000000" points="0,-33 0,-74 122,-74 122,-33 0,-33"/>
<text text-anchor="start" x="8" y="-62" font-family="Helvetica,sans-Serif" font-size="10.00" fill="#000000">FEEvaluationBaseData</text>
<text text-anchor="start" x="8" y="-51" font-family="Helvetica,sans-Serif" font-size="10.00" fill="#000000">&lt; dim, Number, is_face,</text>
<text text-anchor="middle" x="61" y="-40" font-family="Helvetica,sans-Serif" font-size="10.00" fill="#000000"> VectorizedArrayType &gt;</text>
</a>
</g>
</g>
<!-- Node3&#45;&gt;Node2 -->
<g id="edge3" class="edge">
<title>Node3&#45;&gt;Node2</title>
<path fill="none" stroke="#191970" d="M132.4974,-53.5C141.1981,-53.5 150.1267,-53.5 158.9295,-53.5"/>
<polygon fill="#191970" stroke="#191970" points="132.4093,-50.0001 122.4093,-53.5 132.4092,-57.0001 132.4093,-50.0001"/>
</g>
<!-- Node4&#45;&gt;Node1 -->
<g id="edge4" class="edge">
<title>Node4&#45;&gt;Node1</title>
<path fill="none" stroke="#ffa500" stroke-dasharray="5,2" d="M516.2709,-25.9755C555.6705,-26.6926 602.8492,-28.8947 645,-34.5 650.806,-35.2721 656.7943,-36.2557 662.7828,-37.3709"/>
<polygon fill="#ffa500" stroke="#ffa500" points="516.2196,-22.4744 506.1671,-25.8207 516.1123,-29.4736 516.2196,-22.4744"/>
<text text-anchor="start" x="524" y="-59.5" font-family="Helvetica,sans-Serif" font-size="10.00" fill="#000000"> &lt; dim, n_components</text>
<text text-anchor="start" x="524" y="-48.5" font-family="Helvetica,sans-Serif" font-size="10.00" fill="#000000">_, Number, true, Vectorized</text>
<text text-anchor="middle" x="584.5" y="-37.5" font-family="Helvetica,sans-Serif" font-size="10.00" fill="#000000">ArrayType &gt;</text>
</g>
</g>
</svg>
