<?xml version="1.0" encoding="UTF-8" standalone="no"?>
<!DOCTYPE svg PUBLIC "-//W3C//DTD SVG 1.1//EN"
 "http://www.w3.org/Graphics/SVG/1.1/DTD/svg11.dtd">
<!-- Generated by graphviz version 2.40.1 (20161225.0304)
 -->
<!-- Title: hp::QCollection&lt; dim &gt; Pages: 1 -->
<svg width="881pt" height="166pt"
 viewBox="0.00 0.00 881.00 165.50" xmlns="http://www.w3.org/2000/svg" xmlns:xlink="http://www.w3.org/1999/xlink">
<g id="graph0" class="graph" transform="scale(1 1) rotate(0) translate(4 161.5)">
<title>hp::QCollection&lt; dim &gt;</title>
<polygon fill="#ffffff" stroke="transparent" points="-4,4 -4,-161.5 877,-161.5 877,4 -4,4"/>
<!-- Node0 -->
<g id="node1" class="node">
<title>Node0</title>
<polygon fill="#bfbfbf" stroke="#000000" points="514,-66.5 514,-85.5 632,-85.5 632,-66.5 514,-66.5"/>
<text text-anchor="middle" x="573" y="-73.5" font-family="Helvetica,sans-Serif" font-size="10.00" fill="#000000">hp::QCollection&lt; dim &gt;</text>
</g>
<!-- Node4 -->
<g id="node5" class="node">
<title>Node4</title>
<g id="a_node5"><a xlink:href="classhp_1_1QCollection.html" target="_top" xlink:title="hp::QCollection\&lt; dim\l &#45; 1 \&gt;">
<polygon fill="#ffffff" stroke="#000000" points="747,-127 747,-157 856,-157 856,-127 747,-127"/>
<text text-anchor="start" x="755" y="-145" font-family="Helvetica,sans-Serif" font-size="10.00" fill="#000000">hp::QCollection&lt; dim</text>
<text text-anchor="middle" x="801.5" y="-134" font-family="Helvetica,sans-Serif" font-size="10.00" fill="#000000"> &#45; 1 &gt;</text>
</a>
</g>
</g>
<!-- Node0&#45;&gt;Node4 -->
<g id="edge5" class="edge">
<title>Node0&#45;&gt;Node4</title>
<path fill="none" stroke="#ffa500" stroke-dasharray="5,2" d="M608.0582,-89.0019C621.1406,-93.6659 636.1731,-98.8045 650,-103 681.8371,-112.6605 717.8952,-122.0057 746.8446,-129.1253"/>
<polygon fill="#ffa500" stroke="#ffa500" points="609.0809,-85.6501 598.4865,-85.5513 606.7068,-92.2353 609.0809,-85.6501"/>
<text text-anchor="middle" x="681" y="-122" font-family="Helvetica,sans-Serif" font-size="10.00" fill="#000000"> &lt; dim &#45; 1 &gt;</text>
</g>
<!-- Node5 -->
<g id="node6" class="node">
<title>Node5</title>
<g id="a_node6"><a xlink:href="classhp_1_1QCollection.html" target="_top" xlink:title="hp::QCollection\&lt; 1 \&gt;">
<polygon fill="#ffffff" stroke="#000000" points="748,-88.5 748,-107.5 855,-107.5 855,-88.5 748,-88.5"/>
<text text-anchor="middle" x="801.5" y="-95.5" font-family="Helvetica,sans-Serif" font-size="10.00" fill="#000000">hp::QCollection&lt; 1 &gt;</text>
</a>
</g>
</g>
<!-- Node0&#45;&gt;Node5 -->
<g id="edge6" class="edge">
<title>Node0&#45;&gt;Node5</title>
<path fill="none" stroke="#ffa500" stroke-dasharray="5,2" d="M642.4156,-82.6833C676.2175,-85.9378 716.2424,-89.7914 747.6888,-92.8191"/>
<polygon fill="#ffa500" stroke="#ffa500" points="642.431,-79.1687 632.1416,-81.6942 641.7601,-86.1365 642.431,-79.1687"/>
<text text-anchor="middle" x="681" y="-91" font-family="Helvetica,sans-Serif" font-size="10.00" fill="#000000"> &lt; 1 &gt;</text>
</g>
<!-- Node6 -->
<g id="node7" class="node">
<title>Node6</title>
<g id="a_node7"><a xlink:href="classhp_1_1QCollection.html" target="_top" xlink:title="hp::QCollection\&lt; q\l_dim \&gt;">
<polygon fill="#ffffff" stroke="#000000" points="752.5,-39 752.5,-69 850.5,-69 850.5,-39 752.5,-39"/>
<text text-anchor="start" x="760.5" y="-57" font-family="Helvetica,sans-Serif" font-size="10.00" fill="#000000">hp::QCollection&lt; q</text>
<text text-anchor="middle" x="801.5" y="-46" font-family="Helvetica,sans-Serif" font-size="10.00" fill="#000000">_dim &gt;</text>
</a>
</g>
</g>
<!-- Node0&#45;&gt;Node6 -->
<g id="edge7" class="edge">
<title>Node0&#45;&gt;Node6</title>
<path fill="none" stroke="#ffa500" stroke-dasharray="5,2" d="M642.4254,-69.3157C677.8829,-65.9019 720.1861,-61.8289 752.2518,-58.7416"/>
<polygon fill="#ffa500" stroke="#ffa500" points="641.7601,-65.8635 632.1416,-70.3058 642.431,-72.8313 641.7601,-65.8635"/>
<text text-anchor="middle" x="681" y="-72" font-family="Helvetica,sans-Serif" font-size="10.00" fill="#000000"> &lt; q_dim &gt;</text>
</g>
<!-- Node7 -->
<g id="node8" class="node">
<title>Node7</title>
<g id="a_node8"><a xlink:href="classhp_1_1QCollection.html" target="_top" xlink:title="hp::QCollection\&lt; structdim \&gt;">
<polygon fill="#ffffff" stroke="#000000" points="730,-.5 730,-19.5 873,-19.5 873,-.5 730,-.5"/>
<text text-anchor="middle" x="801.5" y="-7.5" font-family="Helvetica,sans-Serif" font-size="10.00" fill="#000000">hp::QCollection&lt; structdim &gt;</text>
</a>
</g>
</g>
<!-- Node0&#45;&gt;Node7 -->
<g id="edge8" class="edge">
<title>Node0&#45;&gt;Node7</title>
<path fill="none" stroke="#ffa500" stroke-dasharray="5,2" d="M608.0582,-62.9981C621.1406,-58.3341 636.1731,-53.1955 650,-49 687.035,-37.7623 729.7817,-26.9512 760.4062,-19.5738"/>
<polygon fill="#ffa500" stroke="#ffa500" points="606.7068,-59.7647 598.4865,-66.4487 609.0809,-66.3499 606.7068,-59.7647"/>
<text text-anchor="middle" x="681" y="-52" font-family="Helvetica,sans-Serif" font-size="10.00" fill="#000000"> &lt; structdim &gt;</text>
</g>
<!-- Node1 -->
<g id="node2" class="node">
<title>Node1</title>
<g id="a_node2"><a xlink:href="classhp_1_1Collection.html" target="_top" xlink:title="hp::Collection\&lt; Quadrature\l\&lt; dim \&gt; \&gt;">
<polygon fill="#ffffff" stroke="#000000" points="343,-61 343,-91 477,-91 477,-61 343,-61"/>
<text text-anchor="start" x="351" y="-79" font-family="Helvetica,sans-Serif" font-size="10.00" fill="#000000">hp::Collection&lt; Quadrature</text>
<text text-anchor="middle" x="410" y="-68" font-family="Helvetica,sans-Serif" font-size="10.00" fill="#000000">&lt; dim &gt; &gt;</text>
</a>
</g>
</g>
<!-- Node1&#45;&gt;Node0 -->
<g id="edge1" class="edge">
<title>Node1&#45;&gt;Node0</title>
<path fill="none" stroke="#191970" d="M487.3141,-76C496.2834,-76 505.3206,-76 513.9894,-76"/>
<polygon fill="#191970" stroke="#191970" points="487.2394,-72.5001 477.2394,-76 487.2394,-79.5001 487.2394,-72.5001"/>
</g>
<!-- Node2 -->
<g id="node3" class="node">
<title>Node2</title>
<g id="a_node3"><a xlink:href="classSubscriptor.html" target="_top" xlink:title="Subscriptor">
<polygon fill="#ffffff" stroke="#000000" points="0,-63.5 0,-82.5 66,-82.5 66,-63.5 0,-63.5"/>
<text text-anchor="middle" x="33" y="-70.5" font-family="Helvetica,sans-Serif" font-size="10.00" fill="#000000">Subscriptor</text>
</a>
</g>
</g>
<!-- Node2&#45;&gt;Node1 -->
<g id="edge2" class="edge">
<title>Node2&#45;&gt;Node1</title>
<path fill="none" stroke="#191970" d="M76.2617,-77.5357C78.8782,-77.7186 81.473,-77.8764 84,-78 190.9833,-83.2317 217.8963,-79.2599 325,-78 330.7564,-77.9323 336.7316,-77.8388 342.7254,-77.7289"/>
<polygon fill="#191970" stroke="#191970" points="76.4084,-74.0363 66.1604,-76.725 75.8483,-81.0139 76.4084,-74.0363"/>
</g>
<!-- Node3 -->
<g id="node4" class="node">
<title>Node3</title>
<g id="a_node4"><a xlink:href="classhp_1_1Collection.html" target="_top" xlink:title="hp::Collection\&lt; T \&gt;">
<polygon fill="#ffffff" stroke="#000000" points="103,-44.5 103,-63.5 204,-63.5 204,-44.5 103,-44.5"/>
<text text-anchor="middle" x="153.5" y="-51.5" font-family="Helvetica,sans-Serif" font-size="10.00" fill="#000000">hp::Collection&lt; T &gt;</text>
</a>
</g>
</g>
<!-- Node2&#45;&gt;Node3 -->
<g id="edge4" class="edge">
<title>Node2&#45;&gt;Node3</title>
<path fill="none" stroke="#191970" d="M76.3805,-66.1599C84.9317,-64.8116 93.976,-63.3855 102.745,-62.0029"/>
<polygon fill="#191970" stroke="#191970" points="75.5789,-62.743 66.2461,-67.7579 76.6693,-69.6576 75.5789,-62.743"/>
</g>
<!-- Node3&#45;&gt;Node1 -->
<g id="edge3" class="edge">
<title>Node3&#45;&gt;Node1</title>
<path fill="none" stroke="#ffa500" stroke-dasharray="5,2" d="M214.5185,-58.181C247.2901,-60.5386 288.3726,-63.6734 325,-67 330.7637,-67.5235 336.7439,-68.0963 342.7411,-68.6914"/>
<polygon fill="#ffa500" stroke="#ffa500" points="214.4103,-54.6644 204.1865,-57.4436 213.9119,-61.6467 214.4103,-54.6644"/>
<text text-anchor="middle" x="273.5" y="-70" font-family="Helvetica,sans-Serif" font-size="10.00" fill="#000000"> &lt; Quadrature&lt; dim &gt; &gt;</text>
</g>
</g>
</svg>
