<?xml version="1.0" encoding="UTF-8" standalone="no"?>
<!DOCTYPE svg PUBLIC "-//W3C//DTD SVG 1.1//EN"
 "http://www.w3.org/Graphics/SVG/1.1/DTD/svg11.dtd">
<!-- Generated by graphviz version 2.40.1 (20161225.0304)
 -->
<!-- Title: TrilinosWrappers::PreconditionIdentity Pages: 1 -->
<svg width="867pt" height="1142pt"
 viewBox="0.00 0.00 866.50 1142.00" xmlns="http://www.w3.org/2000/svg" xmlns:xlink="http://www.w3.org/1999/xlink">
<g id="graph0" class="graph" transform="scale(1 1) rotate(0) translate(4 1138)">
<title>TrilinosWrappers::PreconditionIdentity</title>
<polygon fill="#ffffff" stroke="transparent" points="-4,4 -4,-1138 862.5,-1138 862.5,4 -4,4"/>
<!-- Node3 -->
<g id="node1" class="node">
<title>Node3</title>
<polygon fill="#bfbfbf" stroke="#000000" points="552.5,-.5 552.5,-134.5 702.5,-134.5 702.5,-.5 552.5,-.5"/>
<text text-anchor="start" x="560.5" y="-122.5" font-family="Helvetica,sans-Serif" font-size="10.00" fill="#000000">TrilinosWrappers::Precondition</text>
<text text-anchor="middle" x="627.5" y="-111.5" font-family="Helvetica,sans-Serif" font-size="10.00" fill="#000000">Identity</text>
<polyline fill="none" stroke="#000000" points="552.5,-104.5 702.5,-104.5 "/>
<text text-anchor="middle" x="627.5" y="-92.5" font-family="Helvetica,sans-Serif" font-size="10.00" fill="#000000"> </text>
<polyline fill="none" stroke="#000000" points="552.5,-85.5 702.5,-85.5 "/>
<text text-anchor="start" x="560.5" y="-73.5" font-family="Helvetica,sans-Serif" font-size="10.00" fill="#000000">+ initialize()</text>
<text text-anchor="start" x="560.5" y="-62.5" font-family="Helvetica,sans-Serif" font-size="10.00" fill="#000000">+ vmult()</text>
<text text-anchor="start" x="560.5" y="-51.5" font-family="Helvetica,sans-Serif" font-size="10.00" fill="#000000">+ Tvmult()</text>
<text text-anchor="start" x="560.5" y="-40.5" font-family="Helvetica,sans-Serif" font-size="10.00" fill="#000000">+ vmult()</text>
<text text-anchor="start" x="560.5" y="-29.5" font-family="Helvetica,sans-Serif" font-size="10.00" fill="#000000">+ Tvmult()</text>
<text text-anchor="start" x="560.5" y="-18.5" font-family="Helvetica,sans-Serif" font-size="10.00" fill="#000000">+ vmult()</text>
<text text-anchor="start" x="560.5" y="-7.5" font-family="Helvetica,sans-Serif" font-size="10.00" fill="#000000">+ Tvmult()</text>
</g>
<!-- Node4 -->
<g id="node2" class="node">
<title>Node4</title>
<g id="a_node2"><a xlink:href="classTrilinosWrappers_1_1PreconditionBase.html" target="_top" xlink:title="{TrilinosWrappers::PreconditionBase\n||+ PreconditionBase()\l+ PreconditionBase()\l+ ~PreconditionBase()\l+ clear()\l+ get_mpi_communicator()\l+ transpose()\l+ vmult()\l+ Tvmult()\l+ vmult()\l+ Tvmult()\l+ vmult()\l+ Tvmult()\l+ DeclException1()\l+ trilinos_operator()\l+ locally_owned_domain\l_indices()\l+ locally_owned_range\l_indices()\l* trilinos_operator()\l* locally_owned_domain\l_indices()\l* locally_owned_range\l_indices()\l}">
<polygon fill="#ffffff" stroke="#000000" points="541,-172.5 541,-471.5 714,-471.5 714,-172.5 541,-172.5"/>
<text text-anchor="middle" x="627.5" y="-459.5" font-family="Helvetica,sans-Serif" font-size="10.00" fill="#000000">TrilinosWrappers::PreconditionBase</text>
<polyline fill="none" stroke="#000000" points="541,-452.5 714,-452.5 "/>
<text text-anchor="middle" x="627.5" y="-440.5" font-family="Helvetica,sans-Serif" font-size="10.00" fill="#000000"> </text>
<polyline fill="none" stroke="#000000" points="541,-433.5 714,-433.5 "/>
<text text-anchor="start" x="549" y="-421.5" font-family="Helvetica,sans-Serif" font-size="10.00" fill="#000000">+ PreconditionBase()</text>
<text text-anchor="start" x="549" y="-410.5" font-family="Helvetica,sans-Serif" font-size="10.00" fill="#000000">+ PreconditionBase()</text>
<text text-anchor="start" x="549" y="-399.5" font-family="Helvetica,sans-Serif" font-size="10.00" fill="#000000">+ ~PreconditionBase()</text>
<text text-anchor="start" x="549" y="-388.5" font-family="Helvetica,sans-Serif" font-size="10.00" fill="#000000">+ clear()</text>
<text text-anchor="start" x="549" y="-377.5" font-family="Helvetica,sans-Serif" font-size="10.00" fill="#000000">+ get_mpi_communicator()</text>
<text text-anchor="start" x="549" y="-366.5" font-family="Helvetica,sans-Serif" font-size="10.00" fill="#000000">+ transpose()</text>
<text text-anchor="start" x="549" y="-355.5" font-family="Helvetica,sans-Serif" font-size="10.00" fill="#000000">+ vmult()</text>
<text text-anchor="start" x="549" y="-344.5" font-family="Helvetica,sans-Serif" font-size="10.00" fill="#000000">+ Tvmult()</text>
<text text-anchor="start" x="549" y="-333.5" font-family="Helvetica,sans-Serif" font-size="10.00" fill="#000000">+ vmult()</text>
<text text-anchor="start" x="549" y="-322.5" font-family="Helvetica,sans-Serif" font-size="10.00" fill="#000000">+ Tvmult()</text>
<text text-anchor="start" x="549" y="-311.5" font-family="Helvetica,sans-Serif" font-size="10.00" fill="#000000">+ vmult()</text>
<text text-anchor="start" x="549" y="-300.5" font-family="Helvetica,sans-Serif" font-size="10.00" fill="#000000">+ Tvmult()</text>
<text text-anchor="start" x="549" y="-289.5" font-family="Helvetica,sans-Serif" font-size="10.00" fill="#000000">+ DeclException1()</text>
<text text-anchor="start" x="549" y="-278.5" font-family="Helvetica,sans-Serif" font-size="10.00" fill="#000000">+ trilinos_operator()</text>
<text text-anchor="start" x="549" y="-267.5" font-family="Helvetica,sans-Serif" font-size="10.00" fill="#000000">+ locally_owned_domain</text>
<text text-anchor="start" x="549" y="-256.5" font-family="Helvetica,sans-Serif" font-size="10.00" fill="#000000">_indices()</text>
<text text-anchor="start" x="549" y="-245.5" font-family="Helvetica,sans-Serif" font-size="10.00" fill="#000000">+ locally_owned_range</text>
<text text-anchor="start" x="549" y="-234.5" font-family="Helvetica,sans-Serif" font-size="10.00" fill="#000000">_indices()</text>
<text text-anchor="start" x="549" y="-223.5" font-family="Helvetica,sans-Serif" font-size="10.00" fill="#000000">* trilinos_operator()</text>
<text text-anchor="start" x="549" y="-212.5" font-family="Helvetica,sans-Serif" font-size="10.00" fill="#000000">* locally_owned_domain</text>
<text text-anchor="start" x="549" y="-201.5" font-family="Helvetica,sans-Serif" font-size="10.00" fill="#000000">_indices()</text>
<text text-anchor="start" x="549" y="-190.5" font-family="Helvetica,sans-Serif" font-size="10.00" fill="#000000">* locally_owned_range</text>
<text text-anchor="start" x="549" y="-179.5" font-family="Helvetica,sans-Serif" font-size="10.00" fill="#000000">_indices()</text>
</a>
</g>
</g>
<!-- Node4&#45;&gt;Node3 -->
<g id="edge1" class="edge">
<title>Node4&#45;&gt;Node3</title>
<path fill="none" stroke="#191970" d="M627.5,-162.433C627.5,-152.869 627.5,-143.5658 627.5,-134.7597"/>
<polygon fill="none" stroke="#191970" points="624.0001,-162.4842 627.5,-172.4842 631.0001,-162.4843 624.0001,-162.4842"/>
</g>
<!-- Node5 -->
<g id="node3" class="node">
<title>Node5</title>
<g id="a_node3"><a xlink:href="classSubscriptor.html" target="_top" xlink:title="{Subscriptor\n||+ Subscriptor()\l+ Subscriptor()\l+ Subscriptor()\l+ ~Subscriptor()\l+ operator=()\l+ operator=()\l+ serialize()\l+ subscribe()\l+ unsubscribe()\l+ n_subscriptions()\l+ list_subscribers()\l+ list_subscribers()\l+ ExcInUse()\l+ ExcNoSubscriber()\l&#45; check_no_subscribers()\l* subscribe()\l* unsubscribe()\l* n_subscriptions()\l* list_subscribers()\l* list_subscribers()\l}">
<polygon fill="#ffffff" stroke="#000000" points="354.5,-519.5 354.5,-785.5 480.5,-785.5 480.5,-519.5 354.5,-519.5"/>
<text text-anchor="middle" x="417.5" y="-773.5" font-family="Helvetica,sans-Serif" font-size="10.00" fill="#000000">Subscriptor</text>
<polyline fill="none" stroke="#000000" points="354.5,-766.5 480.5,-766.5 "/>
<text text-anchor="middle" x="417.5" y="-754.5" font-family="Helvetica,sans-Serif" font-size="10.00" fill="#000000"> </text>
<polyline fill="none" stroke="#000000" points="354.5,-747.5 480.5,-747.5 "/>
<text text-anchor="start" x="362.5" y="-735.5" font-family="Helvetica,sans-Serif" font-size="10.00" fill="#000000">+ Subscriptor()</text>
<text text-anchor="start" x="362.5" y="-724.5" font-family="Helvetica,sans-Serif" font-size="10.00" fill="#000000">+ Subscriptor()</text>
<text text-anchor="start" x="362.5" y="-713.5" font-family="Helvetica,sans-Serif" font-size="10.00" fill="#000000">+ Subscriptor()</text>
<text text-anchor="start" x="362.5" y="-702.5" font-family="Helvetica,sans-Serif" font-size="10.00" fill="#000000">+ ~Subscriptor()</text>
<text text-anchor="start" x="362.5" y="-691.5" font-family="Helvetica,sans-Serif" font-size="10.00" fill="#000000">+ operator=()</text>
<text text-anchor="start" x="362.5" y="-680.5" font-family="Helvetica,sans-Serif" font-size="10.00" fill="#000000">+ operator=()</text>
<text text-anchor="start" x="362.5" y="-669.5" font-family="Helvetica,sans-Serif" font-size="10.00" fill="#000000">+ serialize()</text>
<text text-anchor="start" x="362.5" y="-658.5" font-family="Helvetica,sans-Serif" font-size="10.00" fill="#000000">+ subscribe()</text>
<text text-anchor="start" x="362.5" y="-647.5" font-family="Helvetica,sans-Serif" font-size="10.00" fill="#000000">+ unsubscribe()</text>
<text text-anchor="start" x="362.5" y="-636.5" font-family="Helvetica,sans-Serif" font-size="10.00" fill="#000000">+ n_subscriptions()</text>
<text text-anchor="start" x="362.5" y="-625.5" font-family="Helvetica,sans-Serif" font-size="10.00" fill="#000000">+ list_subscribers()</text>
<text text-anchor="start" x="362.5" y="-614.5" font-family="Helvetica,sans-Serif" font-size="10.00" fill="#000000">+ list_subscribers()</text>
<text text-anchor="start" x="362.5" y="-603.5" font-family="Helvetica,sans-Serif" font-size="10.00" fill="#000000">+ ExcInUse()</text>
<text text-anchor="start" x="362.5" y="-592.5" font-family="Helvetica,sans-Serif" font-size="10.00" fill="#000000">+ ExcNoSubscriber()</text>
<text text-anchor="start" x="362.5" y="-581.5" font-family="Helvetica,sans-Serif" font-size="10.00" fill="#000000">&#45; check_no_subscribers()</text>
<text text-anchor="start" x="362.5" y="-570.5" font-family="Helvetica,sans-Serif" font-size="10.00" fill="#000000">* subscribe()</text>
<text text-anchor="start" x="362.5" y="-559.5" font-family="Helvetica,sans-Serif" font-size="10.00" fill="#000000">* unsubscribe()</text>
<text text-anchor="start" x="362.5" y="-548.5" font-family="Helvetica,sans-Serif" font-size="10.00" fill="#000000">* n_subscriptions()</text>
<text text-anchor="start" x="362.5" y="-537.5" font-family="Helvetica,sans-Serif" font-size="10.00" fill="#000000">* list_subscribers()</text>
<text text-anchor="start" x="362.5" y="-526.5" font-family="Helvetica,sans-Serif" font-size="10.00" fill="#000000">* list_subscribers()</text>
</a>
</g>
</g>
<!-- Node5&#45;&gt;Node4 -->
<g id="edge2" class="edge">
<title>Node5&#45;&gt;Node4</title>
<path fill="none" stroke="#191970" d="M485.874,-524.934C487.0831,-522.9366 488.2922,-520.9574 489.5,-519 505.3974,-493.2352 523.3585,-466.2635 540.9395,-440.835"/>
<polygon fill="none" stroke="#191970" points="482.7038,-523.416 480.5781,-533.7954 488.7126,-527.007 482.7038,-523.416"/>
</g>
<!-- Node6 -->
<g id="node4" class="node">
<title>Node6</title>
<polygon fill="#ffffff" stroke="#bfbfbf" points="66.5,-833.5 66.5,-901.5 176.5,-901.5 176.5,-833.5 66.5,-833.5"/>
<text text-anchor="start" x="74.5" y="-889.5" font-family="Helvetica,sans-Serif" font-size="10.00" fill="#000000">std::map&lt; std::string,</text>
<text text-anchor="middle" x="121.5" y="-878.5" font-family="Helvetica,sans-Serif" font-size="10.00" fill="#000000"> unsigned int &gt;</text>
<polyline fill="none" stroke="#bfbfbf" points="66.5,-871.5 176.5,-871.5 "/>
<text text-anchor="middle" x="121.5" y="-859.5" font-family="Helvetica,sans-Serif" font-size="10.00" fill="#000000"> </text>
<polyline fill="none" stroke="#bfbfbf" points="66.5,-852.5 176.5,-852.5 "/>
<text text-anchor="middle" x="121.5" y="-840.5" font-family="Helvetica,sans-Serif" font-size="10.00" fill="#000000"> </text>
</g>
<!-- Node6&#45;&gt;Node5 -->
<g id="edge3" class="edge">
<title>Node6&#45;&gt;Node5</title>
<path fill="none" stroke="#404040" d="M168.4021,-833.4326C215.669,-799.1003 289.2888,-745.6264 344.2543,-705.7021"/>
<polygon fill="none" stroke="#404040" points="344.5808,-705.465 347.0846,-698.7025 354.2899,-698.4127 351.7861,-705.1752 344.5808,-705.465"/>
<text text-anchor="middle" x="233" y="-807" font-family="Helvetica,sans-Serif" font-size="10.00" fill="#000000"> &#45;counter_map</text>
</g>
<!-- Node7 -->
<g id="node5" class="node">
<title>Node7</title>
<g id="a_node5"><a xlink:href="classint.html" target="_top" xlink:title="{int\n||}">
<polygon fill="#ffffff" stroke="#000000" points="0,-960.5 0,-1017.5 29,-1017.5 29,-960.5 0,-960.5"/>
<text text-anchor="middle" x="14.5" y="-1005.5" font-family="Helvetica,sans-Serif" font-size="10.00" fill="#000000">int</text>
<polyline fill="none" stroke="#000000" points="0,-998.5 29,-998.5 "/>
<text text-anchor="middle" x="14.5" y="-986.5" font-family="Helvetica,sans-Serif" font-size="10.00" fill="#000000"> </text>
<polyline fill="none" stroke="#000000" points="0,-979.5 29,-979.5 "/>
<text text-anchor="middle" x="14.5" y="-967.5" font-family="Helvetica,sans-Serif" font-size="10.00" fill="#000000"> </text>
</a>
</g>
</g>
<!-- Node7&#45;&gt;Node6 -->
<g id="edge4" class="edge">
<title>Node7&#45;&gt;Node6</title>
<path fill="none" stroke="#404040" d="M21.3502,-960.4015C25.5642,-947.1055 32.0187,-931.6885 41.5,-920 45.9249,-914.545 51.0704,-909.4598 56.5778,-904.7711"/>
<polygon fill="none" stroke="#404040" points="56.694,-904.6797 58.9358,-897.826 66.1246,-897.2593 63.8828,-904.1131 56.694,-904.6797"/>
<text text-anchor="middle" x="66" y="-928.5" font-family="Helvetica,sans-Serif" font-size="10.00" fill="#000000"> +elements</text>
</g>
<!-- Node8 -->
<g id="node6" class="node">
<title>Node8</title>
<g id="a_node6"><a xlink:title="STL class. ">
<polygon fill="#ffffff" stroke="#bfbfbf" points="47.5,-960.5 47.5,-1017.5 107.5,-1017.5 107.5,-960.5 47.5,-960.5"/>
<text text-anchor="middle" x="77.5" y="-1005.5" font-family="Helvetica,sans-Serif" font-size="10.00" fill="#000000">std::string</text>
<polyline fill="none" stroke="#bfbfbf" points="47.5,-998.5 107.5,-998.5 "/>
<text text-anchor="middle" x="77.5" y="-986.5" font-family="Helvetica,sans-Serif" font-size="10.00" fill="#000000"> </text>
<polyline fill="none" stroke="#bfbfbf" points="47.5,-979.5 107.5,-979.5 "/>
<text text-anchor="middle" x="77.5" y="-967.5" font-family="Helvetica,sans-Serif" font-size="10.00" fill="#000000"> </text>
</a>
</g>
</g>
<!-- Node8&#45;&gt;Node6 -->
<g id="edge5" class="edge">
<title>Node8&#45;&gt;Node6</title>
<path fill="none" stroke="#404040" d="M87.2386,-960.3985C91.529,-947.9569 96.6811,-933.2278 101.5,-920 102.3477,-917.6731 103.224,-915.2913 104.1148,-912.8885"/>
<polygon fill="none" stroke="#404040" points="104.1275,-912.8546 102.4866,-905.8326 108.3373,-901.6172 109.9782,-908.6392 104.1275,-912.8546"/>
<text text-anchor="middle" x="117" y="-928.5" font-family="Helvetica,sans-Serif" font-size="10.00" fill="#000000"> +keys</text>
</g>
<!-- Node9 -->
<g id="node7" class="node">
<title>Node9</title>
<g id="a_node7"><a xlink:title="STL class. ">
<polygon fill="#ffffff" stroke="#bfbfbf" points="29,-1065.5 29,-1133.5 124,-1133.5 124,-1065.5 29,-1065.5"/>
<text text-anchor="start" x="37" y="-1121.5" font-family="Helvetica,sans-Serif" font-size="10.00" fill="#000000">std::basic_string&lt;</text>
<text text-anchor="middle" x="76.5" y="-1110.5" font-family="Helvetica,sans-Serif" font-size="10.00" fill="#000000"> char &gt;</text>
<polyline fill="none" stroke="#bfbfbf" points="29,-1103.5 124,-1103.5 "/>
<text text-anchor="middle" x="76.5" y="-1091.5" font-family="Helvetica,sans-Serif" font-size="10.00" fill="#000000"> </text>
<polyline fill="none" stroke="#bfbfbf" points="29,-1084.5 124,-1084.5 "/>
<text text-anchor="middle" x="76.5" y="-1072.5" font-family="Helvetica,sans-Serif" font-size="10.00" fill="#000000"> </text>
</a>
</g>
</g>
<!-- Node9&#45;&gt;Node8 -->
<g id="edge6" class="edge">
<title>Node9&#45;&gt;Node8</title>
<path fill="none" stroke="#191970" d="M76.9021,-1055.0661C77.0166,-1042.4172 77.1382,-1028.9812 77.2416,-1017.5519"/>
<polygon fill="none" stroke="#191970" points="73.3989,-1055.4134 76.8082,-1065.4447 80.3986,-1055.4768 73.3989,-1055.4134"/>
</g>
<!-- Node10 -->
<g id="node8" class="node">
<title>Node10</title>
<g id="a_node8"><a xlink:title="STL class. ">
<polygon fill="#ffffff" stroke="#bfbfbf" points="125.5,-960.5 125.5,-1017.5 217.5,-1017.5 217.5,-960.5 125.5,-960.5"/>
<text text-anchor="middle" x="171.5" y="-1005.5" font-family="Helvetica,sans-Serif" font-size="10.00" fill="#000000">std::map&lt; K, T &gt;</text>
<polyline fill="none" stroke="#bfbfbf" points="125.5,-998.5 217.5,-998.5 "/>
<text text-anchor="middle" x="171.5" y="-986.5" font-family="Helvetica,sans-Serif" font-size="10.00" fill="#000000"> </text>
<polyline fill="none" stroke="#bfbfbf" points="125.5,-979.5 217.5,-979.5 "/>
<text text-anchor="middle" x="171.5" y="-967.5" font-family="Helvetica,sans-Serif" font-size="10.00" fill="#000000"> </text>
</a>
</g>
</g>
<!-- Node10&#45;&gt;Node6 -->
<g id="edge7" class="edge">
<title>Node10&#45;&gt;Node6</title>
<path fill="none" stroke="#ffa500" d="M155.7657,-950.7657C149.2957,-935.0436 141.8613,-916.9779 135.5744,-901.7007"/>
<polygon fill="#ffa500" stroke="#ffa500" points="152.6084,-952.2906 159.6507,-960.2062 159.0817,-949.6266 152.6084,-952.2906"/>
<text text-anchor="start" x="151.5" y="-934" font-family="Helvetica,sans-Serif" font-size="10.00" fill="#000000"> &lt; std::string, unsigned</text>
<text text-anchor="middle" x="202" y="-923" font-family="Helvetica,sans-Serif" font-size="10.00" fill="#000000"> int &gt;</text>
</g>
<!-- Node11 -->
<g id="node9" class="node">
<title>Node11</title>
<polygon fill="#ffffff" stroke="#bfbfbf" points="142,-1071 142,-1128 171,-1128 171,-1071 142,-1071"/>
<text text-anchor="middle" x="156.5" y="-1116" font-family="Helvetica,sans-Serif" font-size="10.00" fill="#000000">K</text>
<polyline fill="none" stroke="#bfbfbf" points="142,-1109 171,-1109 "/>
<text text-anchor="middle" x="156.5" y="-1097" font-family="Helvetica,sans-Serif" font-size="10.00" fill="#000000"> </text>
<polyline fill="none" stroke="#bfbfbf" points="142,-1090 171,-1090 "/>
<text text-anchor="middle" x="156.5" y="-1078" font-family="Helvetica,sans-Serif" font-size="10.00" fill="#000000"> </text>
</g>
<!-- Node11&#45;&gt;Node10 -->
<g id="edge8" class="edge">
<title>Node11&#45;&gt;Node10</title>
<path fill="none" stroke="#404040" d="M155.2952,-1070.9114C155.2648,-1059.9384 155.7567,-1047.3334 157.5,-1036 157.8349,-1033.8226 158.2452,-1031.6052 158.7121,-1029.3782"/>
<polygon fill="none" stroke="#404040" points="158.7573,-1029.1956 156.3179,-1022.4096 161.6437,-1017.5479 164.0831,-1024.3339 158.7573,-1029.1956"/>
<text text-anchor="middle" x="173" y="-1039" font-family="Helvetica,sans-Serif" font-size="10.00" fill="#000000"> +keys</text>
</g>
<!-- Node12 -->
<g id="node10" class="node">
<title>Node12</title>
<polygon fill="#ffffff" stroke="#bfbfbf" points="232,-1071 232,-1128 261,-1128 261,-1071 232,-1071"/>
<text text-anchor="middle" x="246.5" y="-1116" font-family="Helvetica,sans-Serif" font-size="10.00" fill="#000000">T</text>
<polyline fill="none" stroke="#bfbfbf" points="232,-1109 261,-1109 "/>
<text text-anchor="middle" x="246.5" y="-1097" font-family="Helvetica,sans-Serif" font-size="10.00" fill="#000000"> </text>
<polyline fill="none" stroke="#bfbfbf" points="232,-1090 261,-1090 "/>
<text text-anchor="middle" x="246.5" y="-1078" font-family="Helvetica,sans-Serif" font-size="10.00" fill="#000000"> </text>
</g>
<!-- Node12&#45;&gt;Node10 -->
<g id="edge9" class="edge">
<title>Node12&#45;&gt;Node10</title>
<path fill="none" stroke="#404040" d="M231.8612,-1077.9322C222.1883,-1063.6807 209.2337,-1044.5943 197.806,-1027.7575"/>
<polygon fill="none" stroke="#404040" points="197.6701,-1027.5573 190.9909,-1024.8392 190.931,-1017.6283 197.6102,-1020.3464 197.6701,-1027.5573"/>
<text text-anchor="middle" x="234" y="-1039" font-family="Helvetica,sans-Serif" font-size="10.00" fill="#000000"> +elements</text>
</g>
<!-- Node17 -->
<g id="node15" class="node">
<title>Node17</title>
<g id="a_node15"><a xlink:title="STL class. ">
<polygon fill="#ffffff" stroke="#bfbfbf" points="238,-960.5 238,-1017.5 325,-1017.5 325,-960.5 238,-960.5"/>
<text text-anchor="middle" x="281.5" y="-1005.5" font-family="Helvetica,sans-Serif" font-size="10.00" fill="#000000">std::vector&lt; T &gt;</text>
<polyline fill="none" stroke="#bfbfbf" points="238,-998.5 325,-998.5 "/>
<text text-anchor="middle" x="281.5" y="-986.5" font-family="Helvetica,sans-Serif" font-size="10.00" fill="#000000"> </text>
<polyline fill="none" stroke="#bfbfbf" points="238,-979.5 325,-979.5 "/>
<text text-anchor="middle" x="281.5" y="-967.5" font-family="Helvetica,sans-Serif" font-size="10.00" fill="#000000"> </text>
</a>
</g>
</g>
<!-- Node12&#45;&gt;Node17 -->
<g id="edge15" class="edge">
<title>Node12&#45;&gt;Node17</title>
<path fill="none" stroke="#404040" d="M255.6045,-1070.7559C259.6149,-1058.0945 264.3962,-1042.9992 268.7524,-1029.2459"/>
<polygon fill="none" stroke="#404040" points="268.8176,-1029.0401 266.816,-1022.1123 272.4411,-1017.6002 274.4426,-1024.528 268.8176,-1029.0401"/>
<text text-anchor="middle" x="291" y="-1039" font-family="Helvetica,sans-Serif" font-size="10.00" fill="#000000"> +elements</text>
</g>
<!-- Node13 -->
<g id="node11" class="node">
<title>Node13</title>
<polygon fill="#ffffff" stroke="#bfbfbf" points="359.5,-839 359.5,-896 475.5,-896 475.5,-839 359.5,-839"/>
<text text-anchor="middle" x="417.5" y="-884" font-family="Helvetica,sans-Serif" font-size="10.00" fill="#000000">atomic&lt; unsigned int &gt;</text>
<polyline fill="none" stroke="#bfbfbf" points="359.5,-877 475.5,-877 "/>
<text text-anchor="middle" x="417.5" y="-865" font-family="Helvetica,sans-Serif" font-size="10.00" fill="#000000"> </text>
<polyline fill="none" stroke="#bfbfbf" points="359.5,-858 475.5,-858 "/>
<text text-anchor="middle" x="417.5" y="-846" font-family="Helvetica,sans-Serif" font-size="10.00" fill="#000000"> </text>
</g>
<!-- Node13&#45;&gt;Node5 -->
<g id="edge10" class="edge">
<title>Node13&#45;&gt;Node5</title>
<path fill="none" stroke="#404040" d="M417.5,-838.9497C417.5,-827.3895 417.5,-813.1147 417.5,-797.6501"/>
<polygon fill="none" stroke="#404040" points="417.5001,-797.6176 413.5,-791.6176 417.5,-785.6176 421.5,-791.6175 417.5001,-797.6176"/>
<text text-anchor="middle" x="437" y="-807" font-family="Helvetica,sans-Serif" font-size="10.00" fill="#000000"> &#45;counter</text>
</g>
<!-- Node14 -->
<g id="node12" class="node">
<title>Node14</title>
<polygon fill="#ffffff" stroke="#bfbfbf" points="493.5,-839 493.5,-896 537.5,-896 537.5,-839 493.5,-839"/>
<text text-anchor="middle" x="515.5" y="-884" font-family="Helvetica,sans-Serif" font-size="10.00" fill="#000000">mutex</text>
<polyline fill="none" stroke="#bfbfbf" points="493.5,-877 537.5,-877 "/>
<text text-anchor="middle" x="515.5" y="-865" font-family="Helvetica,sans-Serif" font-size="10.00" fill="#000000"> </text>
<polyline fill="none" stroke="#bfbfbf" points="493.5,-858 537.5,-858 "/>
<text text-anchor="middle" x="515.5" y="-846" font-family="Helvetica,sans-Serif" font-size="10.00" fill="#000000"> </text>
</g>
<!-- Node14&#45;&gt;Node5 -->
<g id="edge11" class="edge">
<title>Node14&#45;&gt;Node5</title>
<path fill="none" stroke="#404040" d="M502.4864,-838.9497C497.1138,-827.1629 490.4548,-812.5539 483.2462,-796.7391"/>
<polygon fill="none" stroke="#404040" points="483.154,-796.5368 477.0257,-792.7362 478.1768,-785.6176 484.3052,-789.4181 483.154,-796.5368"/>
<text text-anchor="middle" x="506.5" y="-807" font-family="Helvetica,sans-Serif" font-size="10.00" fill="#000000"> &#45;mutex</text>
</g>
<!-- Node15 -->
<g id="node13" class="node">
<title>Node15</title>
<polygon fill="#ffffff" stroke="#bfbfbf" points="220,-833.5 220,-901.5 341,-901.5 341,-833.5 220,-833.5"/>
<text text-anchor="start" x="228" y="-889.5" font-family="Helvetica,sans-Serif" font-size="10.00" fill="#000000">std::vector&lt; std::atomic</text>
<text text-anchor="middle" x="280.5" y="-878.5" font-family="Helvetica,sans-Serif" font-size="10.00" fill="#000000">&lt; bool &gt; *&gt;</text>
<polyline fill="none" stroke="#bfbfbf" points="220,-871.5 341,-871.5 "/>
<text text-anchor="middle" x="280.5" y="-859.5" font-family="Helvetica,sans-Serif" font-size="10.00" fill="#000000"> </text>
<polyline fill="none" stroke="#bfbfbf" points="220,-852.5 341,-852.5 "/>
<text text-anchor="middle" x="280.5" y="-840.5" font-family="Helvetica,sans-Serif" font-size="10.00" fill="#000000"> </text>
</g>
<!-- Node15&#45;&gt;Node5 -->
<g id="edge12" class="edge">
<title>Node15&#45;&gt;Node5</title>
<path fill="none" stroke="#404040" d="M302.2081,-833.4326C314.7304,-813.7808 331.2489,-787.8575 347.8571,-761.7936"/>
<polygon fill="none" stroke="#404040" points="348.0179,-761.5411 347.8689,-754.3315 354.4666,-751.421 354.6156,-758.6306 348.0179,-761.5411"/>
<text text-anchor="middle" x="356" y="-807" font-family="Helvetica,sans-Serif" font-size="10.00" fill="#000000"> &#45;validity_pointers</text>
</g>
<!-- Node16 -->
<g id="node14" class="node">
<title>Node16</title>
<polygon fill="#ffffff" stroke="#bfbfbf" points="369,-960.5 369,-1017.5 458,-1017.5 458,-960.5 369,-960.5"/>
<text text-anchor="middle" x="413.5" y="-1005.5" font-family="Helvetica,sans-Serif" font-size="10.00" fill="#000000">atomic&lt; bool &gt; *</text>
<polyline fill="none" stroke="#bfbfbf" points="369,-998.5 458,-998.5 "/>
<text text-anchor="middle" x="413.5" y="-986.5" font-family="Helvetica,sans-Serif" font-size="10.00" fill="#000000"> </text>
<polyline fill="none" stroke="#bfbfbf" points="369,-979.5 458,-979.5 "/>
<text text-anchor="middle" x="413.5" y="-967.5" font-family="Helvetica,sans-Serif" font-size="10.00" fill="#000000"> </text>
</g>
<!-- Node16&#45;&gt;Node15 -->
<g id="edge13" class="edge">
<title>Node16&#45;&gt;Node15</title>
<path fill="none" stroke="#404040" d="M409.9421,-960.422C406.9675,-946.8121 401.5099,-931.1207 391.5,-920 380.1623,-907.4042 371.4851,-909.2998 352.2305,-902.2257"/>
<polygon fill="none" stroke="#404040" points="352.199,-902.2126 345.1204,-903.5891 341.1273,-897.5846 348.2058,-896.208 352.199,-902.2126"/>
<text text-anchor="middle" x="429" y="-928.5" font-family="Helvetica,sans-Serif" font-size="10.00" fill="#000000"> +elements</text>
</g>
<!-- Node17&#45;&gt;Node15 -->
<g id="edge14" class="edge">
<title>Node17&#45;&gt;Node15</title>
<path fill="none" stroke="#ffa500" d="M281.178,-949.8733C281.0503,-934.3628 280.9049,-916.6896 280.7815,-901.7007"/>
<polygon fill="#ffa500" stroke="#ffa500" points="277.6807,-950.2354 281.263,-960.2062 284.6805,-950.1777 277.6807,-950.2354"/>
<text text-anchor="middle" x="336.5" y="-928.5" font-family="Helvetica,sans-Serif" font-size="10.00" fill="#000000"> &lt; std::atomic&lt; bool &gt; *&gt;</text>
</g>
<!-- Node18 -->
<g id="node16" class="node">
<title>Node18</title>
<polygon fill="#ffffff" stroke="#bfbfbf" points="556,-839 556,-896 619,-896 619,-839 556,-839"/>
<text text-anchor="middle" x="587.5" y="-884" font-family="Helvetica,sans-Serif" font-size="10.00" fill="#000000">type_info *</text>
<polyline fill="none" stroke="#bfbfbf" points="556,-877 619,-877 "/>
<text text-anchor="middle" x="587.5" y="-865" font-family="Helvetica,sans-Serif" font-size="10.00" fill="#000000"> </text>
<polyline fill="none" stroke="#bfbfbf" points="556,-858 619,-858 "/>
<text text-anchor="middle" x="587.5" y="-846" font-family="Helvetica,sans-Serif" font-size="10.00" fill="#000000"> </text>
</g>
<!-- Node18&#45;&gt;Node5 -->
<g id="edge16" class="edge">
<title>Node18&#45;&gt;Node5</title>
<path fill="none" stroke="#404040" d="M564.6699,-838.9826C554.2124,-827.1441 541.1229,-813.8921 527.5,-804 512.3783,-793.0196 503.0549,-798.8647 489.5,-786 489.4045,-785.9094 489.3091,-785.8186 489.2138,-785.7276"/>
<polygon fill="none" stroke="#404040" points="488.9746,-785.4802 481.9284,-783.9471 480.6335,-776.8531 487.6798,-778.3863 488.9746,-785.4802"/>
<text text-anchor="middle" x="567.5" y="-807" font-family="Helvetica,sans-Serif" font-size="10.00" fill="#000000"> &#45;object_info</text>
</g>
<!-- Node19 -->
<g id="node17" class="node">
<title>Node19</title>
<polygon fill="#ffffff" stroke="#bfbfbf" points="498.5,-624 498.5,-681 626.5,-681 626.5,-624 498.5,-624"/>
<text text-anchor="middle" x="562.5" y="-669" font-family="Helvetica,sans-Serif" font-size="10.00" fill="#000000">RCP&lt; Epetra_Operator &gt;</text>
<polyline fill="none" stroke="#bfbfbf" points="498.5,-662 626.5,-662 "/>
<text text-anchor="middle" x="562.5" y="-650" font-family="Helvetica,sans-Serif" font-size="10.00" fill="#000000"> </text>
<polyline fill="none" stroke="#bfbfbf" points="498.5,-643 626.5,-643 "/>
<text text-anchor="middle" x="562.5" y="-631" font-family="Helvetica,sans-Serif" font-size="10.00" fill="#000000"> </text>
</g>
<!-- Node19&#45;&gt;Node4 -->
<g id="edge17" class="edge">
<title>Node19&#45;&gt;Node4</title>
<path fill="none" stroke="#404040" d="M568.1546,-623.7485C574.4565,-591.706 585.1597,-537.284 595.7558,-483.407"/>
<polygon fill="none" stroke="#404040" points="595.769,-483.3396 593.0021,-476.6804 598.0848,-471.5651 600.8517,-478.2243 595.769,-483.3396"/>
<text text-anchor="middle" x="627.5" y="-493" font-family="Helvetica,sans-Serif" font-size="10.00" fill="#000000"> #preconditioner</text>
</g>
<!-- Node20 -->
<g id="node18" class="node">
<title>Node20</title>
<polygon fill="#ffffff" stroke="#bfbfbf" points="645,-624 645,-681 740,-681 740,-624 645,-624"/>
<text text-anchor="middle" x="692.5" y="-669" font-family="Helvetica,sans-Serif" font-size="10.00" fill="#000000">Epetra_MpiComm</text>
<polyline fill="none" stroke="#bfbfbf" points="645,-662 740,-662 "/>
<text text-anchor="middle" x="692.5" y="-650" font-family="Helvetica,sans-Serif" font-size="10.00" fill="#000000"> </text>
<polyline fill="none" stroke="#bfbfbf" points="645,-643 740,-643 "/>
<text text-anchor="middle" x="692.5" y="-631" font-family="Helvetica,sans-Serif" font-size="10.00" fill="#000000"> </text>
</g>
<!-- Node20&#45;&gt;Node4 -->
<g id="edge18" class="edge">
<title>Node20&#45;&gt;Node4</title>
<path fill="none" stroke="#404040" d="M688.5405,-623.9201C683.8903,-591.3807 675.6418,-536.6834 666.5,-490 666.0761,-487.8352 665.6443,-485.6559 665.2053,-483.4647"/>
<polygon fill="none" stroke="#404040" points="665.1934,-483.4056 660.0749,-478.3261 662.795,-471.6477 667.9135,-476.7272 665.1934,-483.4056"/>
<text text-anchor="middle" x="702.5" y="-493" font-family="Helvetica,sans-Serif" font-size="10.00" fill="#000000"> #communicator</text>
</g>
<!-- Node21 -->
<g id="node19" class="node">
<title>Node21</title>
<polygon fill="#ffffff" stroke="#bfbfbf" points="758.5,-618.5 758.5,-686.5 858.5,-686.5 858.5,-618.5 758.5,-618.5"/>
<text text-anchor="start" x="766.5" y="-674.5" font-family="Helvetica,sans-Serif" font-size="10.00" fill="#000000">shared_ptr&lt; Epetra</text>
<text text-anchor="middle" x="808.5" y="-663.5" font-family="Helvetica,sans-Serif" font-size="10.00" fill="#000000">_Map &gt;</text>
<polyline fill="none" stroke="#bfbfbf" points="758.5,-656.5 858.5,-656.5 "/>
<text text-anchor="middle" x="808.5" y="-644.5" font-family="Helvetica,sans-Serif" font-size="10.00" fill="#000000"> </text>
<polyline fill="none" stroke="#bfbfbf" points="758.5,-637.5 858.5,-637.5 "/>
<text text-anchor="middle" x="808.5" y="-625.5" font-family="Helvetica,sans-Serif" font-size="10.00" fill="#000000"> </text>
</g>
<!-- Node21&#45;&gt;Node4 -->
<g id="edge19" class="edge">
<title>Node21&#45;&gt;Node4</title>
<path fill="none" stroke="#404040" d="M796.72,-618.2758C784.6405,-584.7359 764.4179,-532.5931 741.5,-490 735.1058,-478.1164 728.0745,-466.0298 720.7396,-454.0667"/>
<polygon fill="none" stroke="#404040" points="720.563,-453.7827 713.9971,-450.8012 714.224,-443.5936 720.7898,-446.5752 720.563,-453.7827"/>
<text text-anchor="middle" x="787.5" y="-493" font-family="Helvetica,sans-Serif" font-size="10.00" fill="#000000"> #vector_distributor</text>
</g>
</g>
</svg>
