<?xml version="1.0" encoding="UTF-8" standalone="no"?>
<!DOCTYPE svg PUBLIC "-//W3C//DTD SVG 1.1//EN"
 "http://www.w3.org/Graphics/SVG/1.1/DTD/svg11.dtd">
<!-- Generated by graphviz version 2.40.1 (20161225.0304)
 -->
<!-- Title: Patterns::DirectoryName Pages: 1 -->
<svg width="250pt" height="259pt"
 viewBox="0.00 0.00 250.00 259.00" xmlns="http://www.w3.org/2000/svg" xmlns:xlink="http://www.w3.org/1999/xlink">
<g id="graph0" class="graph" transform="scale(1 1) rotate(0) translate(4 255)">
<title>Patterns::DirectoryName</title>
<polygon fill="#ffffff" stroke="transparent" points="-4,4 -4,-255 246,-255 246,4 -4,4"/>
<!-- Node2 -->
<g id="node1" class="node">
<title>Node2</title>
<polygon fill="#bfbfbf" stroke="#000000" points="66.5,-.5 66.5,-101.5 191.5,-101.5 191.5,-.5 66.5,-.5"/>
<text text-anchor="middle" x="129" y="-89.5" font-family="Helvetica,sans-Serif" font-size="10.00" fill="#000000">Patterns::DirectoryName</text>
<polyline fill="none" stroke="#000000" points="66.5,-82.5 191.5,-82.5 "/>
<text text-anchor="middle" x="129" y="-70.5" font-family="Helvetica,sans-Serif" font-size="10.00" fill="#000000"> </text>
<polyline fill="none" stroke="#000000" points="66.5,-63.5 191.5,-63.5 "/>
<text text-anchor="start" x="74.5" y="-51.5" font-family="Helvetica,sans-Serif" font-size="10.00" fill="#000000">+ DirectoryName()</text>
<text text-anchor="start" x="74.5" y="-40.5" font-family="Helvetica,sans-Serif" font-size="10.00" fill="#000000">+ match()</text>
<text text-anchor="start" x="74.5" y="-29.5" font-family="Helvetica,sans-Serif" font-size="10.00" fill="#000000">+ description()</text>
<text text-anchor="start" x="74.5" y="-18.5" font-family="Helvetica,sans-Serif" font-size="10.00" fill="#000000">+ clone()</text>
<text text-anchor="start" x="74.5" y="-7.5" font-family="Helvetica,sans-Serif" font-size="10.00" fill="#000000">+ create()</text>
</g>
<!-- Node3 -->
<g id="node2" class="node">
<title>Node3</title>
<g id="a_node2"><a xlink:href="classPatterns_1_1PatternBase.html" target="_top" xlink:title="{Patterns::PatternBase\n||+ ~PatternBase()\l+ match()\l+ description()\l+ clone()\l+ memory_consumption()\l}">
<polygon fill="#ffffff" stroke="#000000" points="0,-149.5 0,-250.5 128,-250.5 128,-149.5 0,-149.5"/>
<text text-anchor="middle" x="64" y="-238.5" font-family="Helvetica,sans-Serif" font-size="10.00" fill="#000000">Patterns::PatternBase</text>
<polyline fill="none" stroke="#000000" points="0,-231.5 128,-231.5 "/>
<text text-anchor="middle" x="64" y="-219.5" font-family="Helvetica,sans-Serif" font-size="10.00" fill="#000000"> </text>
<polyline fill="none" stroke="#000000" points="0,-212.5 128,-212.5 "/>
<text text-anchor="start" x="8" y="-200.5" font-family="Helvetica,sans-Serif" font-size="10.00" fill="#000000">+ ~PatternBase()</text>
<text text-anchor="start" x="8" y="-189.5" font-family="Helvetica,sans-Serif" font-size="10.00" fill="#000000">+ match()</text>
<text text-anchor="start" x="8" y="-178.5" font-family="Helvetica,sans-Serif" font-size="10.00" fill="#000000">+ description()</text>
<text text-anchor="start" x="8" y="-167.5" font-family="Helvetica,sans-Serif" font-size="10.00" fill="#000000">+ clone()</text>
<text text-anchor="start" x="8" y="-156.5" font-family="Helvetica,sans-Serif" font-size="10.00" fill="#000000">+ memory_consumption()</text>
</a>
</g>
</g>
<!-- Node3&#45;&gt;Node2 -->
<g id="edge1" class="edge">
<title>Node3&#45;&gt;Node2</title>
<path fill="none" stroke="#191970" d="M90.336,-139.6299C95.8376,-127.0185 101.5838,-113.8463 106.9125,-101.6314"/>
<polygon fill="none" stroke="#191970" points="86.978,-138.5741 86.1875,-149.1394 93.3941,-141.3731 86.978,-138.5741"/>
</g>
<!-- Node4 -->
<g id="node3" class="node">
<title>Node4</title>
<polygon fill="#ffffff" stroke="#bfbfbf" points="146,-171.5 146,-228.5 242,-228.5 242,-171.5 146,-171.5"/>
<text text-anchor="middle" x="194" y="-216.5" font-family="Helvetica,sans-Serif" font-size="10.00" fill="#000000">static const char *</text>
<polyline fill="none" stroke="#bfbfbf" points="146,-209.5 242,-209.5 "/>
<text text-anchor="middle" x="194" y="-197.5" font-family="Helvetica,sans-Serif" font-size="10.00" fill="#000000"> </text>
<polyline fill="none" stroke="#bfbfbf" points="146,-190.5 242,-190.5 "/>
<text text-anchor="middle" x="194" y="-178.5" font-family="Helvetica,sans-Serif" font-size="10.00" fill="#000000"> </text>
</g>
<!-- Node4&#45;&gt;Node2 -->
<g id="edge2" class="edge">
<title>Node4&#45;&gt;Node2</title>
<path fill="none" stroke="#404040" d="M181.4673,-171.2713C174.2148,-154.6462 164.7963,-133.0561 155.9444,-112.765"/>
<polygon fill="none" stroke="#404040" points="155.9007,-112.6645 149.8352,-108.7644 151.1024,-101.6655 157.1679,-105.5656 155.9007,-112.6645"/>
<text text-anchor="middle" x="199" y="-123" font-family="Helvetica,sans-Serif" font-size="10.00" fill="#000000"> &#45;description_init</text>
</g>
</g>
</svg>
