<?xml version="1.0" encoding="UTF-8" standalone="no"?>
<!DOCTYPE svg PUBLIC "-//W3C//DTD SVG 1.1//EN"
 "http://www.w3.org/Graphics/SVG/1.1/DTD/svg11.dtd">
<!-- Generated by graphviz version 2.40.1 (20161225.0304)
 -->
<!-- Title: TrilinosWrappers::BlockSparsityPattern Pages: 1 -->
<svg width="247pt" height="242pt"
 viewBox="0.00 0.00 247.00 242.00" xmlns="http://www.w3.org/2000/svg" xmlns:xlink="http://www.w3.org/1999/xlink">
<g id="graph0" class="graph" transform="scale(1 1) rotate(0) translate(4 238)">
<title>TrilinosWrappers::BlockSparsityPattern</title>
<polygon fill="#ffffff" stroke="transparent" points="-4,4 -4,-238 243,-238 243,4 -4,4"/>
<!-- Node0 -->
<g id="node1" class="node">
<title>Node0</title>
<polygon fill="#bfbfbf" stroke="#000000" points="0,-.5 0,-30.5 170,-30.5 170,-.5 0,-.5"/>
<text text-anchor="start" x="8" y="-18.5" font-family="Helvetica,sans-Serif" font-size="10.00" fill="#000000">TrilinosWrappers::BlockSparsity</text>
<text text-anchor="middle" x="85" y="-7.5" font-family="Helvetica,sans-Serif" font-size="10.00" fill="#000000">Pattern</text>
</g>
<!-- Node1 -->
<g id="node2" class="node">
<title>Node1</title>
<g id="a_node2"><a xlink:href="classBlockSparsityPatternBase.html" target="_top" xlink:title="BlockSparsityPatternBase\l\&lt; SparsityPattern \&gt;">
<polygon fill="#ffffff" stroke="#000000" points="14,-68.5 14,-98.5 156,-98.5 156,-68.5 14,-68.5"/>
<text text-anchor="start" x="22" y="-86.5" font-family="Helvetica,sans-Serif" font-size="10.00" fill="#000000">BlockSparsityPatternBase</text>
<text text-anchor="middle" x="85" y="-75.5" font-family="Helvetica,sans-Serif" font-size="10.00" fill="#000000">&lt; SparsityPattern &gt;</text>
</a>
</g>
</g>
<!-- Node1&#45;&gt;Node0 -->
<g id="edge1" class="edge">
<title>Node1&#45;&gt;Node0</title>
<path fill="none" stroke="#191970" d="M85,-58.1174C85,-48.8378 85,-38.6413 85,-30.5492"/>
<polygon fill="#191970" stroke="#191970" points="81.5001,-58.4086 85,-68.4086 88.5001,-58.4086 81.5001,-58.4086"/>
</g>
<!-- Node2 -->
<g id="node3" class="node">
<title>Node2</title>
<g id="a_node3"><a xlink:href="classSubscriptor.html" target="_top" xlink:title="Subscriptor">
<polygon fill="#ffffff" stroke="#000000" points="45.5,-214.5 45.5,-233.5 116.5,-233.5 116.5,-214.5 45.5,-214.5"/>
<text text-anchor="middle" x="81" y="-221.5" font-family="Helvetica,sans-Serif" font-size="10.00" fill="#000000">Subscriptor</text>
</a>
</g>
</g>
<!-- Node2&#45;&gt;Node1 -->
<g id="edge2" class="edge">
<title>Node2&#45;&gt;Node1</title>
<path fill="none" stroke="#191970" d="M81.5685,-204.031C82.3783,-175.5886 83.8458,-124.0418 84.5709,-98.5735"/>
<polygon fill="#191970" stroke="#191970" points="78.061,-204.2473 81.2749,-214.3429 85.0582,-204.4466 78.061,-204.2473"/>
</g>
<!-- Node3 -->
<g id="node4" class="node">
<title>Node3</title>
<g id="a_node4"><a xlink:href="classBlockSparsityPatternBase.html" target="_top" xlink:title="BlockSparsityPatternBase\l\&lt; SparsityPatternType \&gt;">
<polygon fill="#ffffff" stroke="#000000" points="97,-146.5 97,-176.5 239,-176.5 239,-146.5 97,-146.5"/>
<text text-anchor="start" x="105" y="-164.5" font-family="Helvetica,sans-Serif" font-size="10.00" fill="#000000">BlockSparsityPatternBase</text>
<text text-anchor="middle" x="168" y="-153.5" font-family="Helvetica,sans-Serif" font-size="10.00" fill="#000000">&lt; SparsityPatternType &gt;</text>
</a>
</g>
</g>
<!-- Node2&#45;&gt;Node3 -->
<g id="edge4" class="edge">
<title>Node2&#45;&gt;Node3</title>
<path fill="none" stroke="#191970" d="M102.8687,-208.2898C116.4047,-198.5656 133.6893,-186.1485 147.0506,-176.5498"/>
<polygon fill="#191970" stroke="#191970" points="100.6732,-205.5574 94.5938,-214.2344 104.7574,-211.2424 100.6732,-205.5574"/>
</g>
<!-- Node3&#45;&gt;Node1 -->
<g id="edge3" class="edge">
<title>Node3&#45;&gt;Node1</title>
<path fill="none" stroke="#ffa500" stroke-dasharray="5,2" d="M144.7,-139.6036C130.8471,-126.5853 113.6203,-110.3962 101.2373,-98.7592"/>
<polygon fill="#ffa500" stroke="#ffa500" points="142.3127,-142.1631 151.9968,-146.4608 147.1065,-137.0621 142.3127,-142.1631"/>
<text text-anchor="middle" x="181" y="-120" font-family="Helvetica,sans-Serif" font-size="10.00" fill="#000000"> &lt; SparsityPattern &gt;</text>
</g>
</g>
</svg>
