<?xml version="1.0" encoding="UTF-8" standalone="no"?>
<!DOCTYPE svg PUBLIC "-//W3C//DTD SVG 1.1//EN"
 "http://www.w3.org/Graphics/SVG/1.1/DTD/svg11.dtd">
<!-- Generated by graphviz version 2.40.1 (20161225.0304)
 -->
<!-- Title: FE_Nothing&lt; dim, spacedim &gt; Pages: 1 -->
<svg width="212pt" height="231pt"
 viewBox="0.00 0.00 212.00 231.00" xmlns="http://www.w3.org/2000/svg" xmlns:xlink="http://www.w3.org/1999/xlink">
<g id="graph0" class="graph" transform="scale(1 1) rotate(0) translate(4 227)">
<title>FE_Nothing&lt; dim, spacedim &gt;</title>
<polygon fill="#ffffff" stroke="transparent" points="-4,4 -4,-227 208,-227 208,4 -4,4"/>
<!-- Node0 -->
<g id="node1" class="node">
<title>Node0</title>
<polygon fill="#bfbfbf" stroke="#000000" points="7.5,-67.5 7.5,-86.5 173.5,-86.5 173.5,-67.5 7.5,-67.5"/>
<text text-anchor="middle" x="90.5" y="-74.5" font-family="Helvetica,sans-Serif" font-size="10.00" fill="#000000">FE_Nothing&lt; dim, spacedim &gt;</text>
</g>
<!-- Node4 -->
<g id="node5" class="node">
<title>Node4</title>
<g id="a_node5"><a xlink:href="classFE__Nothing.html" target="_top" xlink:title="FE_Nothing\&lt; dim \&gt;">
<polygon fill="#ffffff" stroke="#000000" points="34,-.5 34,-19.5 147,-19.5 147,-.5 34,-.5"/>
<text text-anchor="middle" x="90.5" y="-7.5" font-family="Helvetica,sans-Serif" font-size="10.00" fill="#000000">FE_Nothing&lt; dim &gt;</text>
</a>
</g>
</g>
<!-- Node0&#45;&gt;Node4 -->
<g id="edge4" class="edge">
<title>Node0&#45;&gt;Node4</title>
<path fill="none" stroke="#ffa500" stroke-dasharray="5,2" d="M90.5,-57.1079C90.5,-44.714 90.5,-29.3263 90.5,-19.5817"/>
<polygon fill="#ffa500" stroke="#ffa500" points="87.0001,-57.4005 90.5,-67.4005 94.0001,-57.4006 87.0001,-57.4005"/>
<text text-anchor="middle" x="113" y="-41" font-family="Helvetica,sans-Serif" font-size="10.00" fill="#000000"> &lt; dim &gt;</text>
</g>
<!-- Node1 -->
<g id="node2" class="node">
<title>Node1</title>
<g id="a_node2"><a xlink:href="classFiniteElement.html" target="_top" xlink:title="FiniteElement\&lt; dim,\l spacedim \&gt;">
<polygon fill="#ffffff" stroke="#000000" points="32.5,-124.5 32.5,-154.5 148.5,-154.5 148.5,-124.5 32.5,-124.5"/>
<text text-anchor="start" x="40.5" y="-142.5" font-family="Helvetica,sans-Serif" font-size="10.00" fill="#000000">FiniteElement&lt; dim,</text>
<text text-anchor="middle" x="90.5" y="-131.5" font-family="Helvetica,sans-Serif" font-size="10.00" fill="#000000"> spacedim &gt;</text>
</a>
</g>
</g>
<!-- Node1&#45;&gt;Node0 -->
<g id="edge1" class="edge">
<title>Node1&#45;&gt;Node0</title>
<path fill="none" stroke="#191970" d="M90.5,-114.3498C90.5,-104.6481 90.5,-94.1303 90.5,-86.7356"/>
<polygon fill="#191970" stroke="#191970" points="87.0001,-114.3705 90.5,-124.3705 94.0001,-114.3705 87.0001,-114.3705"/>
</g>
<!-- Node2 -->
<g id="node3" class="node">
<title>Node2</title>
<g id="a_node3"><a xlink:href="classSubscriptor.html" target="_top" xlink:title="Subscriptor">
<polygon fill="#ffffff" stroke="#000000" points="0,-198 0,-217 71,-217 71,-198 0,-198"/>
<text text-anchor="middle" x="35.5" y="-205" font-family="Helvetica,sans-Serif" font-size="10.00" fill="#000000">Subscriptor</text>
</a>
</g>
</g>
<!-- Node2&#45;&gt;Node1 -->
<g id="edge2" class="edge">
<title>Node2&#45;&gt;Node1</title>
<path fill="none" stroke="#191970" d="M49.8309,-189.7818C58.6246,-178.9096 69.7701,-165.1297 78.1687,-154.746"/>
<polygon fill="#191970" stroke="#191970" points="46.9476,-187.7811 43.3802,-197.7573 52.3902,-192.1832 46.9476,-187.7811"/>
</g>
<!-- Node3 -->
<g id="node4" class="node">
<title>Node3</title>
<g id="a_node4"><a xlink:href="classFiniteElementData.html" target="_top" xlink:title="FiniteElementData\&lt;\l dim \&gt;">
<polygon fill="#ffffff" stroke="#000000" points="89,-192.5 89,-222.5 204,-222.5 204,-192.5 89,-192.5"/>
<text text-anchor="start" x="97" y="-210.5" font-family="Helvetica,sans-Serif" font-size="10.00" fill="#000000">FiniteElementData&lt;</text>
<text text-anchor="middle" x="146.5" y="-199.5" font-family="Helvetica,sans-Serif" font-size="10.00" fill="#000000"> dim &gt;</text>
</a>
</g>
</g>
<!-- Node3&#45;&gt;Node1 -->
<g id="edge3" class="edge">
<title>Node3&#45;&gt;Node1</title>
<path fill="none" stroke="#191970" d="M127.5715,-184.5153C119.4281,-174.627 110.1371,-163.345 102.8935,-154.5492"/>
<polygon fill="#191970" stroke="#191970" points="125.0129,-186.9143 134.0718,-192.4086 130.4164,-182.4643 125.0129,-186.9143"/>
</g>
</g>
</svg>
