<?xml version="1.0" encoding="UTF-8" standalone="no"?>
<!DOCTYPE svg PUBLIC "-//W3C//DTD SVG 1.1//EN"
 "http://www.w3.org/Graphics/SVG/1.1/DTD/svg11.dtd">
<!-- Generated by graphviz version 2.40.1 (20161225.0304)
 -->
<!-- Title: FE_DGVector&lt; PolynomialType, dim, spacedim &gt;::InternalData Pages: 1 -->
<svg width="168pt" height="226pt"
 viewBox="0.00 0.00 168.00 226.00" xmlns="http://www.w3.org/2000/svg" xmlns:xlink="http://www.w3.org/1999/xlink">
<g id="graph0" class="graph" transform="scale(1 1) rotate(0) translate(4 222)">
<title>FE_DGVector&lt; PolynomialType, dim, spacedim &gt;::InternalData</title>
<polygon fill="#ffffff" stroke="transparent" points="-4,4 -4,-222 164,-222 164,4 -4,4"/>
<!-- Node0 -->
<g id="node1" class="node">
<title>Node0</title>
<polygon fill="#bfbfbf" stroke="#000000" points="0,-.5 0,-79.5 160,-79.5 160,-.5 0,-.5"/>
<text text-anchor="start" x="8" y="-67.5" font-family="Helvetica,sans-Serif" font-size="10.00" fill="#000000">FE_DGVector&lt; PolynomialType,</text>
<text text-anchor="middle" x="80" y="-56.5" font-family="Helvetica,sans-Serif" font-size="10.00" fill="#000000"> dim, spacedim &gt;::InternalData</text>
<polyline fill="none" stroke="#000000" points="0,-49.5 160,-49.5 "/>
<text text-anchor="start" x="8" y="-37.5" font-family="Helvetica,sans-Serif" font-size="10.00" fill="#000000">+ shape_values</text>
<text text-anchor="start" x="8" y="-26.5" font-family="Helvetica,sans-Serif" font-size="10.00" fill="#000000">+ shape_gradients</text>
<polyline fill="none" stroke="#000000" points="0,-19.5 160,-19.5 "/>
<text text-anchor="middle" x="80" y="-7.5" font-family="Helvetica,sans-Serif" font-size="10.00" fill="#000000"> </text>
</g>
<!-- Node1 -->
<g id="node2" class="node">
<title>Node1</title>
<g id="a_node2"><a xlink:href="classFiniteElement_1_1InternalDataBase.html" target="_top" xlink:title="{FiniteElement\&lt; dim\l \&gt;::InternalDataBase\n|+ update_each\l|+ InternalDataBase()\l+ ~InternalDataBase()\l+ InternalDataBase()\l+ memory_consumption()\l}">
<polygon fill="#ffffff" stroke="#000000" points="16,-116.5 16,-217.5 144,-217.5 144,-116.5 16,-116.5"/>
<text text-anchor="start" x="24" y="-205.5" font-family="Helvetica,sans-Serif" font-size="10.00" fill="#000000">FiniteElement&lt; dim</text>
<text text-anchor="middle" x="80" y="-194.5" font-family="Helvetica,sans-Serif" font-size="10.00" fill="#000000"> &gt;::InternalDataBase</text>
<polyline fill="none" stroke="#000000" points="16,-187.5 144,-187.5 "/>
<text text-anchor="start" x="24" y="-175.5" font-family="Helvetica,sans-Serif" font-size="10.00" fill="#000000">+ update_each</text>
<polyline fill="none" stroke="#000000" points="16,-168.5 144,-168.5 "/>
<text text-anchor="start" x="24" y="-156.5" font-family="Helvetica,sans-Serif" font-size="10.00" fill="#000000">+ InternalDataBase()</text>
<text text-anchor="start" x="24" y="-145.5" font-family="Helvetica,sans-Serif" font-size="10.00" fill="#000000">+ ~InternalDataBase()</text>
<text text-anchor="start" x="24" y="-134.5" font-family="Helvetica,sans-Serif" font-size="10.00" fill="#000000">+ InternalDataBase()</text>
<text text-anchor="start" x="24" y="-123.5" font-family="Helvetica,sans-Serif" font-size="10.00" fill="#000000">+ memory_consumption()</text>
</a>
</g>
</g>
<!-- Node1&#45;&gt;Node0 -->
<g id="edge1" class="edge">
<title>Node1&#45;&gt;Node0</title>
<path fill="none" stroke="#191970" d="M80,-106.3446C80,-97.3388 80,-88.2565 80,-79.8243"/>
<polygon fill="none" stroke="#191970" points="76.5001,-106.4413 80,-116.4413 83.5001,-106.4414 76.5001,-106.4413"/>
</g>
</g>
</svg>
