<?xml version="1.0" encoding="UTF-8" standalone="no"?>
<!DOCTYPE svg PUBLIC "-//W3C//DTD SVG 1.1//EN"
 "http://www.w3.org/Graphics/SVG/1.1/DTD/svg11.dtd">
<!-- Generated by graphviz version 2.40.1 (20161225.0304)
 -->
<!-- Title: OpenCASCADE::ArclengthProjectionLineManifold&lt; dim, spacedim &gt; Pages: 1 -->
<svg width="255pt" height="299pt"
 viewBox="0.00 0.00 255.00 299.00" xmlns="http://www.w3.org/2000/svg" xmlns:xlink="http://www.w3.org/1999/xlink">
<g id="graph0" class="graph" transform="scale(1 1) rotate(0) translate(4 295)">
<title>OpenCASCADE::ArclengthProjectionLineManifold&lt; dim, spacedim &gt;</title>
<polygon fill="#ffffff" stroke="transparent" points="-4,4 -4,-295 251,-295 251,4 -4,4"/>
<!-- Node0 -->
<g id="node1" class="node">
<title>Node0</title>
<polygon fill="#bfbfbf" stroke="#000000" points="0,-.5 0,-30.5 190,-30.5 190,-.5 0,-.5"/>
<text text-anchor="start" x="8" y="-18.5" font-family="Helvetica,sans-Serif" font-size="10.00" fill="#000000">OpenCASCADE::ArclengthProjection</text>
<text text-anchor="middle" x="95" y="-7.5" font-family="Helvetica,sans-Serif" font-size="10.00" fill="#000000">LineManifold&lt; dim, spacedim &gt;</text>
</g>
<!-- Node1 -->
<g id="node2" class="node">
<title>Node1</title>
<g id="a_node2"><a xlink:href="classChartManifold.html" target="_top" xlink:title="ChartManifold\&lt; dim,\l spacedim, 1 \&gt;">
<polygon fill="#ffffff" stroke="#000000" points="36,-68.5 36,-98.5 154,-98.5 154,-68.5 36,-68.5"/>
<text text-anchor="start" x="44" y="-86.5" font-family="Helvetica,sans-Serif" font-size="10.00" fill="#000000">ChartManifold&lt; dim,</text>
<text text-anchor="middle" x="95" y="-75.5" font-family="Helvetica,sans-Serif" font-size="10.00" fill="#000000"> spacedim, 1 &gt;</text>
</a>
</g>
</g>
<!-- Node1&#45;&gt;Node0 -->
<g id="edge1" class="edge">
<title>Node1&#45;&gt;Node0</title>
<path fill="none" stroke="#191970" d="M95,-58.1174C95,-48.8378 95,-38.6413 95,-30.5492"/>
<polygon fill="#191970" stroke="#191970" points="91.5001,-58.4086 95,-68.4086 98.5001,-58.4086 91.5001,-58.4086"/>
</g>
<!-- Node2 -->
<g id="node3" class="node">
<title>Node2</title>
<g id="a_node3"><a xlink:href="classManifold.html" target="_top" xlink:title="Manifold\&lt; dim, spacedim \&gt;">
<polygon fill="#ffffff" stroke="#000000" points="14.5,-214.5 14.5,-233.5 167.5,-233.5 167.5,-214.5 14.5,-214.5"/>
<text text-anchor="middle" x="91" y="-221.5" font-family="Helvetica,sans-Serif" font-size="10.00" fill="#000000">Manifold&lt; dim, spacedim &gt;</text>
</a>
</g>
</g>
<!-- Node2&#45;&gt;Node1 -->
<g id="edge2" class="edge">
<title>Node2&#45;&gt;Node1</title>
<path fill="none" stroke="#191970" d="M91.5685,-204.031C92.3783,-175.5886 93.8458,-124.0418 94.5709,-98.5735"/>
<polygon fill="#191970" stroke="#191970" points="88.061,-204.2473 91.2749,-214.3429 95.0582,-204.4466 88.061,-204.2473"/>
</g>
<!-- Node4 -->
<g id="node5" class="node">
<title>Node4</title>
<g id="a_node5"><a xlink:href="classChartManifold.html" target="_top" xlink:title="ChartManifold\&lt; dim,\l spacedim, chartdim \&gt;">
<polygon fill="#ffffff" stroke="#000000" points="107,-146.5 107,-176.5 235,-176.5 235,-146.5 107,-146.5"/>
<text text-anchor="start" x="115" y="-164.5" font-family="Helvetica,sans-Serif" font-size="10.00" fill="#000000">ChartManifold&lt; dim,</text>
<text text-anchor="middle" x="171" y="-153.5" font-family="Helvetica,sans-Serif" font-size="10.00" fill="#000000"> spacedim, chartdim &gt;</text>
</a>
</g>
</g>
<!-- Node2&#45;&gt;Node4 -->
<g id="edge5" class="edge">
<title>Node2&#45;&gt;Node4</title>
<path fill="none" stroke="#191970" d="M111.4657,-208.0112C123.8585,-198.3293 139.567,-186.057 151.7362,-176.5498"/>
<polygon fill="#191970" stroke="#191970" points="109.2255,-205.3198 103.5,-214.2344 113.535,-210.836 109.2255,-205.3198"/>
</g>
<!-- Node3 -->
<g id="node4" class="node">
<title>Node3</title>
<g id="a_node4"><a xlink:href="classSubscriptor.html" target="_top" xlink:title="Subscriptor">
<polygon fill="#ffffff" stroke="#000000" points="55.5,-271.5 55.5,-290.5 126.5,-290.5 126.5,-271.5 55.5,-271.5"/>
<text text-anchor="middle" x="91" y="-278.5" font-family="Helvetica,sans-Serif" font-size="10.00" fill="#000000">Subscriptor</text>
</a>
</g>
</g>
<!-- Node3&#45;&gt;Node2 -->
<g id="edge3" class="edge">
<title>Node3&#45;&gt;Node2</title>
<path fill="none" stroke="#191970" d="M91,-261.2342C91,-251.8491 91,-241.0651 91,-233.5265"/>
<polygon fill="#191970" stroke="#191970" points="87.5001,-261.3307 91,-271.3307 94.5001,-261.3308 87.5001,-261.3307"/>
</g>
<!-- Node4&#45;&gt;Node1 -->
<g id="edge4" class="edge">
<title>Node4&#45;&gt;Node1</title>
<path fill="none" stroke="#ffa500" stroke-dasharray="5,2" d="M149.3119,-139.2412C136.6888,-126.2859 121.1015,-110.2884 109.8679,-98.7592"/>
<polygon fill="#ffa500" stroke="#ffa500" points="146.8609,-141.741 156.3464,-146.4608 151.8746,-136.856 146.8609,-141.741"/>
<text text-anchor="middle" x="192" y="-120" font-family="Helvetica,sans-Serif" font-size="10.00" fill="#000000"> &lt; dim, spacedim, 1 &gt;</text>
</g>
</g>
</svg>
