<?xml version="1.0" encoding="UTF-8" standalone="no"?>
<!DOCTYPE svg PUBLIC "-//W3C//DTD SVG 1.1//EN"
 "http://www.w3.org/Graphics/SVG/1.1/DTD/svg11.dtd">
<!-- Generated by graphviz version 2.40.1 (20161225.0304)
 -->
<!-- Title: FE_WedgeDGP&lt; dim, spacedim &gt; Pages: 1 -->
<svg width="213pt" height="285pt"
 viewBox="0.00 0.00 212.50 285.00" xmlns="http://www.w3.org/2000/svg" xmlns:xlink="http://www.w3.org/1999/xlink">
<g id="graph0" class="graph" transform="scale(1 1) rotate(0) translate(4 281)">
<title>FE_WedgeDGP&lt; dim, spacedim &gt;</title>
<polygon fill="#ffffff" stroke="transparent" points="-4,4 -4,-281 208.5,-281 208.5,4 -4,4"/>
<!-- Node0 -->
<g id="node1" class="node">
<title>Node0</title>
<polygon fill="#bfbfbf" stroke="#000000" points="0,-.5 0,-19.5 182,-19.5 182,-.5 0,-.5"/>
<text text-anchor="middle" x="91" y="-7.5" font-family="Helvetica,sans-Serif" font-size="10.00" fill="#000000">FE_WedgeDGP&lt; dim, spacedim &gt;</text>
</g>
<!-- Node1 -->
<g id="node2" class="node">
<title>Node1</title>
<g id="a_node2"><a xlink:href="classFE__WedgePoly.html" target="_top" xlink:title="FE_WedgePoly\&lt; dim,\l spacedim \&gt;">
<polygon fill="#ffffff" stroke="#000000" points="31,-56.5 31,-86.5 151,-86.5 151,-56.5 31,-56.5"/>
<text text-anchor="start" x="39" y="-74.5" font-family="Helvetica,sans-Serif" font-size="10.00" fill="#000000">FE_WedgePoly&lt; dim,</text>
<text text-anchor="middle" x="91" y="-63.5" font-family="Helvetica,sans-Serif" font-size="10.00" fill="#000000"> spacedim &gt;</text>
</a>
</g>
</g>
<!-- Node1&#45;&gt;Node0 -->
<g id="edge1" class="edge">
<title>Node1&#45;&gt;Node0</title>
<path fill="none" stroke="#191970" d="M91,-46.2849C91,-36.9858 91,-26.9883 91,-19.8469"/>
<polygon fill="#191970" stroke="#191970" points="87.5001,-46.2977 91,-56.2977 94.5001,-46.2978 87.5001,-46.2977"/>
</g>
<!-- Node2 -->
<g id="node3" class="node">
<title>Node2</title>
<g id="a_node3"><a xlink:href="classFE__Poly.html" target="_top" xlink:title="FE_Poly\&lt; dim, spacedim \&gt;">
<polygon fill="#ffffff" stroke="#000000" points="16.5,-123.5 16.5,-142.5 165.5,-142.5 165.5,-123.5 16.5,-123.5"/>
<text text-anchor="middle" x="91" y="-130.5" font-family="Helvetica,sans-Serif" font-size="10.00" fill="#000000">FE_Poly&lt; dim, spacedim &gt;</text>
</a>
</g>
</g>
<!-- Node2&#45;&gt;Node1 -->
<g id="edge2" class="edge">
<title>Node2&#45;&gt;Node1</title>
<path fill="none" stroke="#191970" d="M91,-113.3693C91,-104.681 91,-94.6241 91,-86.5446"/>
<polygon fill="#191970" stroke="#191970" points="87.5001,-113.3906 91,-123.3906 94.5001,-113.3907 87.5001,-113.3906"/>
</g>
<!-- Node3 -->
<g id="node4" class="node">
<title>Node3</title>
<g id="a_node4"><a xlink:href="classFiniteElement.html" target="_top" xlink:title="FiniteElement\&lt; dim,\l spacedim \&gt;">
<polygon fill="#ffffff" stroke="#000000" points="33,-179.5 33,-209.5 149,-209.5 149,-179.5 33,-179.5"/>
<text text-anchor="start" x="41" y="-197.5" font-family="Helvetica,sans-Serif" font-size="10.00" fill="#000000">FiniteElement&lt; dim,</text>
<text text-anchor="middle" x="91" y="-186.5" font-family="Helvetica,sans-Serif" font-size="10.00" fill="#000000"> spacedim &gt;</text>
</a>
</g>
</g>
<!-- Node3&#45;&gt;Node2 -->
<g id="edge3" class="edge">
<title>Node3&#45;&gt;Node2</title>
<path fill="none" stroke="#191970" d="M91,-169.2849C91,-159.9858 91,-149.9883 91,-142.8469"/>
<polygon fill="#191970" stroke="#191970" points="87.5001,-169.2977 91,-179.2977 94.5001,-169.2978 87.5001,-169.2977"/>
</g>
<!-- Node4 -->
<g id="node5" class="node">
<title>Node4</title>
<g id="a_node5"><a xlink:href="classSubscriptor.html" target="_top" xlink:title="Subscriptor">
<polygon fill="#ffffff" stroke="#000000" points=".5,-252 .5,-271 71.5,-271 71.5,-252 .5,-252"/>
<text text-anchor="middle" x="36" y="-259" font-family="Helvetica,sans-Serif" font-size="10.00" fill="#000000">Subscriptor</text>
</a>
</g>
</g>
<!-- Node4&#45;&gt;Node3 -->
<g id="edge4" class="edge">
<title>Node4&#45;&gt;Node3</title>
<path fill="none" stroke="#191970" d="M50.3309,-244.0423C59.1246,-233.33 70.2701,-219.7528 78.6687,-209.5218"/>
<polygon fill="#191970" stroke="#191970" points="47.5199,-241.9505 43.8802,-251.9005 52.9304,-246.392 47.5199,-241.9505"/>
</g>
<!-- Node5 -->
<g id="node6" class="node">
<title>Node5</title>
<g id="a_node6"><a xlink:href="classFiniteElementData.html" target="_top" xlink:title="FiniteElementData\&lt;\l dim \&gt;">
<polygon fill="#ffffff" stroke="#000000" points="89.5,-246.5 89.5,-276.5 204.5,-276.5 204.5,-246.5 89.5,-246.5"/>
<text text-anchor="start" x="97.5" y="-264.5" font-family="Helvetica,sans-Serif" font-size="10.00" fill="#000000">FiniteElementData&lt;</text>
<text text-anchor="middle" x="147" y="-253.5" font-family="Helvetica,sans-Serif" font-size="10.00" fill="#000000"> dim &gt;</text>
</a>
</g>
</g>
<!-- Node5&#45;&gt;Node3 -->
<g id="edge5" class="edge">
<title>Node5&#45;&gt;Node3</title>
<path fill="none" stroke="#191970" d="M127.6515,-238.3509C119.7089,-228.8482 110.7364,-218.1132 103.657,-209.6432"/>
<polygon fill="#191970" stroke="#191970" points="125.1941,-240.8684 134.2927,-246.2967 130.5651,-236.3792 125.1941,-240.8684"/>
</g>
</g>
</svg>
