<?xml version="1.0" encoding="UTF-8" standalone="no"?>
<!DOCTYPE svg PUBLIC "-//W3C//DTD SVG 1.1//EN"
 "http://www.w3.org/Graphics/SVG/1.1/DTD/svg11.dtd">
<!-- Generated by graphviz version 2.40.1 (20161225.0304)
 -->
<!-- Title: DesignPattern::Prototype::PrototypeFactory Pages: 1 -->
<svg width="366pt" height="630pt"
 viewBox="0.00 0.00 365.50 630.00" xmlns="http://www.w3.org/2000/svg" xmlns:xlink="http://www.w3.org/1999/xlink">
<g id="graph0" class="graph" transform="scale(1 1) rotate(0) translate(4 626)">
<title>DesignPattern::Prototype::PrototypeFactory</title>
<polygon fill="#ffffff" stroke="transparent" points="-4,4 -4,-626 361.5,-626 361.5,4 -4,4"/>
<!-- Node1 -->
<g id="node1" class="node">
<title>Node1</title>
<polygon fill="#bfbfbf" stroke="#000000" points="135,-.5 135,-90.5 262,-90.5 262,-.5 135,-.5"/>
<text text-anchor="start" x="143" y="-78.5" font-family="Helvetica,sans-Serif" font-size="10.00" fill="#000000">DesignPattern::Prototype</text>
<text text-anchor="middle" x="198.5" y="-67.5" font-family="Helvetica,sans-Serif" font-size="10.00" fill="#000000">::PrototypeFactory</text>
<polyline fill="none" stroke="#000000" points="135,-60.5 262,-60.5 "/>
<text text-anchor="middle" x="198.5" y="-48.5" font-family="Helvetica,sans-Serif" font-size="10.00" fill="#000000"> </text>
<polyline fill="none" stroke="#000000" points="135,-41.5 262,-41.5 "/>
<text text-anchor="start" x="143" y="-29.5" font-family="Helvetica,sans-Serif" font-size="10.00" fill="#000000">+ PrototypeFactory()</text>
<text text-anchor="start" x="143" y="-18.5" font-family="Helvetica,sans-Serif" font-size="10.00" fill="#000000">+ ~PrototypeFactory()</text>
<text text-anchor="start" x="143" y="-7.5" font-family="Helvetica,sans-Serif" font-size="10.00" fill="#000000">+ CreatePrototype()</text>
</g>
<!-- Node2 -->
<g id="node2" class="node">
<title>Node2</title>
<polygon fill="#ffffff" stroke="#bfbfbf" points="140.5,-138.5 140.5,-228.5 256.5,-228.5 256.5,-138.5 140.5,-138.5"/>
<text text-anchor="start" x="148.5" y="-216.5" font-family="Helvetica,sans-Serif" font-size="10.00" fill="#000000">std::unordered_map</text>
<text text-anchor="start" x="148.5" y="-205.5" font-family="Helvetica,sans-Serif" font-size="10.00" fill="#000000">&lt; Type, DesignPattern</text>
<text text-anchor="start" x="148.5" y="-194.5" font-family="Helvetica,sans-Serif" font-size="10.00" fill="#000000">::Prototype::Prototype</text>
<text text-anchor="middle" x="198.5" y="-183.5" font-family="Helvetica,sans-Serif" font-size="10.00" fill="#000000"> *, std::hash&lt; int &gt; &gt;</text>
<polyline fill="none" stroke="#bfbfbf" points="140.5,-176.5 256.5,-176.5 "/>
<text text-anchor="middle" x="198.5" y="-164.5" font-family="Helvetica,sans-Serif" font-size="10.00" fill="#000000"> </text>
<polyline fill="none" stroke="#bfbfbf" points="140.5,-157.5 256.5,-157.5 "/>
<text text-anchor="middle" x="198.5" y="-145.5" font-family="Helvetica,sans-Serif" font-size="10.00" fill="#000000"> </text>
</g>
<!-- Node2&#45;&gt;Node1 -->
<g id="edge1" class="edge">
<title>Node2&#45;&gt;Node1</title>
<path fill="none" stroke="#404040" d="M198.5,-138.3136C198.5,-126.9955 198.5,-114.703 198.5,-102.8793"/>
<polygon fill="none" stroke="#404040" points="198.5001,-102.7879 194.5,-96.7879 198.5,-90.7879 202.5,-96.7878 198.5001,-102.7879"/>
<text text-anchor="middle" x="227.5" y="-112" font-family="Helvetica,sans-Serif" font-size="10.00" fill="#000000"> &#45;prototypes_</text>
</g>
<!-- Node3 -->
<g id="node3" class="node">
<title>Node3</title>
<g id="a_node3"><a xlink:href="classDesignPattern_1_1Prototype_1_1Prototype.html" target="_top" xlink:title="{DesignPattern::Prototype\l::Prototype\n||+ Prototype()\l+ Prototype()\l+ ~Prototype()\l+ Clone()\l+ Method()\l}">
<polygon fill="#ffffff" stroke="#000000" points="34,-298.5 34,-410.5 161,-410.5 161,-298.5 34,-298.5"/>
<text text-anchor="start" x="42" y="-398.5" font-family="Helvetica,sans-Serif" font-size="10.00" fill="#000000">DesignPattern::Prototype</text>
<text text-anchor="middle" x="97.5" y="-387.5" font-family="Helvetica,sans-Serif" font-size="10.00" fill="#000000">::Prototype</text>
<polyline fill="none" stroke="#000000" points="34,-380.5 161,-380.5 "/>
<text text-anchor="middle" x="97.5" y="-368.5" font-family="Helvetica,sans-Serif" font-size="10.00" fill="#000000"> </text>
<polyline fill="none" stroke="#000000" points="34,-361.5 161,-361.5 "/>
<text text-anchor="start" x="42" y="-349.5" font-family="Helvetica,sans-Serif" font-size="10.00" fill="#000000">+ Prototype()</text>
<text text-anchor="start" x="42" y="-338.5" font-family="Helvetica,sans-Serif" font-size="10.00" fill="#000000">+ Prototype()</text>
<text text-anchor="start" x="42" y="-327.5" font-family="Helvetica,sans-Serif" font-size="10.00" fill="#000000">+ ~Prototype()</text>
<text text-anchor="start" x="42" y="-316.5" font-family="Helvetica,sans-Serif" font-size="10.00" fill="#000000">+ Clone()</text>
<text text-anchor="start" x="42" y="-305.5" font-family="Helvetica,sans-Serif" font-size="10.00" fill="#000000">+ Method()</text>
</a>
</g>
</g>
<!-- Node3&#45;&gt;Node2 -->
<g id="edge2" class="edge">
<title>Node3&#45;&gt;Node2</title>
<path fill="none" stroke="#404040" d="M119.1048,-298.3152C126.5494,-281.3253 135.5477,-262.9544 145.5,-247 147.2219,-244.2397 149.0541,-241.4705 150.9637,-238.7158"/>
<polygon fill="none" stroke="#404040" points="151.0895,-238.5432 151.3909,-231.3384 158.1574,-228.8455 157.856,-236.0503 151.0895,-238.5432"/>
<text text-anchor="middle" x="170" y="-261" font-family="Helvetica,sans-Serif" font-size="10.00" fill="#000000"> +elements</text>
</g>
<!-- Node4 -->
<g id="node4" class="node">
<title>Node4</title>
<polygon fill="#ffffff" stroke="#bfbfbf" points="0,-458.5 0,-515.5 35,-515.5 35,-458.5 0,-458.5"/>
<text text-anchor="middle" x="17.5" y="-503.5" font-family="Helvetica,sans-Serif" font-size="10.00" fill="#000000">float</text>
<polyline fill="none" stroke="#bfbfbf" points="0,-496.5 35,-496.5 "/>
<text text-anchor="middle" x="17.5" y="-484.5" font-family="Helvetica,sans-Serif" font-size="10.00" fill="#000000"> </text>
<polyline fill="none" stroke="#bfbfbf" points="0,-477.5 35,-477.5 "/>
<text text-anchor="middle" x="17.5" y="-465.5" font-family="Helvetica,sans-Serif" font-size="10.00" fill="#000000"> </text>
</g>
<!-- Node4&#45;&gt;Node3 -->
<g id="edge3" class="edge">
<title>Node4&#45;&gt;Node3</title>
<path fill="none" stroke="#404040" d="M19.7281,-458.2389C21.3034,-448.5687 23.9758,-437.9673 28.5,-429 29.8897,-426.2456 31.4118,-423.5196 33.0417,-420.8311"/>
<polygon fill="none" stroke="#404040" points="33.1598,-420.6537 33.1562,-413.4425 39.8112,-410.6657 39.8148,-417.8768 33.1598,-420.6537"/>
<text text-anchor="middle" x="67.5" y="-432" font-family="Helvetica,sans-Serif" font-size="10.00" fill="#000000"> #prototype_field_</text>
</g>
<!-- Node5 -->
<g id="node5" class="node">
<title>Node5</title>
<g id="a_node5"><a xlink:title="STL class. ">
<polygon fill="#ffffff" stroke="#bfbfbf" points="88.5,-458.5 88.5,-515.5 148.5,-515.5 148.5,-458.5 88.5,-458.5"/>
<text text-anchor="middle" x="118.5" y="-503.5" font-family="Helvetica,sans-Serif" font-size="10.00" fill="#000000">std::string</text>
<polyline fill="none" stroke="#bfbfbf" points="88.5,-496.5 148.5,-496.5 "/>
<text text-anchor="middle" x="118.5" y="-484.5" font-family="Helvetica,sans-Serif" font-size="10.00" fill="#000000"> </text>
<polyline fill="none" stroke="#bfbfbf" points="88.5,-477.5 148.5,-477.5 "/>
<text text-anchor="middle" x="118.5" y="-465.5" font-family="Helvetica,sans-Serif" font-size="10.00" fill="#000000"> </text>
</a>
</g>
</g>
<!-- Node5&#45;&gt;Node3 -->
<g id="edge4" class="edge">
<title>Node5&#45;&gt;Node3</title>
<path fill="none" stroke="#404040" d="M113.9433,-458.2495C112.2704,-447.6943 110.2974,-435.2455 108.3096,-422.7033"/>
<polygon fill="none" stroke="#404040" points="108.287,-422.5605 103.3971,-417.2606 106.4085,-410.7084 111.2985,-416.0083 108.287,-422.5605"/>
<text text-anchor="middle" x="152.5" y="-432" font-family="Helvetica,sans-Serif" font-size="10.00" fill="#000000"> #prototype_name_</text>
</g>
<!-- Node6 -->
<g id="node6" class="node">
<title>Node6</title>
<g id="a_node6"><a xlink:title="STL class. ">
<polygon fill="#ffffff" stroke="#bfbfbf" points="71,-553.5 71,-621.5 166,-621.5 166,-553.5 71,-553.5"/>
<text text-anchor="start" x="79" y="-609.5" font-family="Helvetica,sans-Serif" font-size="10.00" fill="#000000">std::basic_string&lt;</text>
<text text-anchor="middle" x="118.5" y="-598.5" font-family="Helvetica,sans-Serif" font-size="10.00" fill="#000000"> char &gt;</text>
<polyline fill="none" stroke="#bfbfbf" points="71,-591.5 166,-591.5 "/>
<text text-anchor="middle" x="118.5" y="-579.5" font-family="Helvetica,sans-Serif" font-size="10.00" fill="#000000"> </text>
<polyline fill="none" stroke="#bfbfbf" points="71,-572.5 166,-572.5 "/>
<text text-anchor="middle" x="118.5" y="-560.5" font-family="Helvetica,sans-Serif" font-size="10.00" fill="#000000"> </text>
</a>
</g>
</g>
<!-- Node6&#45;&gt;Node5 -->
<g id="edge5" class="edge">
<title>Node6&#45;&gt;Node5</title>
<path fill="none" stroke="#191970" d="M118.5,-543.4301C118.5,-534.0073 118.5,-524.2901 118.5,-515.6312"/>
<polygon fill="none" stroke="#191970" points="115.0001,-543.4752 118.5,-553.4753 122.0001,-543.4753 115.0001,-543.4752"/>
</g>
<!-- Node7 -->
<g id="node7" class="node">
<title>Node7</title>
<polygon fill="#ffffff" stroke="#bfbfbf" points="179.5,-326 179.5,-383 217.5,-383 217.5,-326 179.5,-326"/>
<text text-anchor="middle" x="198.5" y="-371" font-family="Helvetica,sans-Serif" font-size="10.00" fill="#000000">Type</text>
<polyline fill="none" stroke="#bfbfbf" points="179.5,-364 217.5,-364 "/>
<text text-anchor="middle" x="198.5" y="-352" font-family="Helvetica,sans-Serif" font-size="10.00" fill="#000000"> </text>
<polyline fill="none" stroke="#bfbfbf" points="179.5,-345 217.5,-345 "/>
<text text-anchor="middle" x="198.5" y="-333" font-family="Helvetica,sans-Serif" font-size="10.00" fill="#000000"> </text>
</g>
<!-- Node7&#45;&gt;Node2 -->
<g id="edge6" class="edge">
<title>Node7&#45;&gt;Node2</title>
<path fill="none" stroke="#404040" d="M198.5,-325.8784C198.5,-302.7713 198.5,-269.5205 198.5,-240.9624"/>
<polygon fill="none" stroke="#404040" points="198.5001,-240.6405 194.5,-234.6406 198.5,-228.6405 202.5,-234.6405 198.5001,-240.6405"/>
<text text-anchor="middle" x="214" y="-261" font-family="Helvetica,sans-Serif" font-size="10.00" fill="#000000"> +keys</text>
</g>
<!-- Node8 -->
<g id="node8" class="node">
<title>Node8</title>
<g id="a_node8"><a xlink:title="STL class. ">
<polygon fill="#ffffff" stroke="#bfbfbf" points="236,-320.5 236,-388.5 339,-388.5 339,-320.5 236,-320.5"/>
<text text-anchor="start" x="244" y="-376.5" font-family="Helvetica,sans-Serif" font-size="10.00" fill="#000000">std::unordered_map</text>
<text text-anchor="middle" x="287.5" y="-365.5" font-family="Helvetica,sans-Serif" font-size="10.00" fill="#000000">&lt; K, T &gt;</text>
<polyline fill="none" stroke="#bfbfbf" points="236,-358.5 339,-358.5 "/>
<text text-anchor="middle" x="287.5" y="-346.5" font-family="Helvetica,sans-Serif" font-size="10.00" fill="#000000"> </text>
<polyline fill="none" stroke="#bfbfbf" points="236,-339.5 339,-339.5 "/>
<text text-anchor="middle" x="287.5" y="-327.5" font-family="Helvetica,sans-Serif" font-size="10.00" fill="#000000"> </text>
</a>
</g>
</g>
<!-- Node8&#45;&gt;Node2 -->
<g id="edge7" class="edge">
<title>Node8&#45;&gt;Node2</title>
<path fill="none" stroke="#ffa500" d="M266.3145,-311.3888C256.5041,-291.6703 244.5878,-268.0591 233.5,-247 230.3918,-241.0966 227.0705,-234.9159 223.7574,-228.8256"/>
<polygon fill="#ffa500" stroke="#ffa500" points="263.225,-313.0369 270.8054,-320.4388 269.4955,-309.9253 263.225,-313.0369"/>
<text text-anchor="start" x="250.5" y="-272" font-family="Helvetica,sans-Serif" font-size="10.00" fill="#000000"> &lt; Type, DesignPattern</text>
<text text-anchor="start" x="250.5" y="-261" font-family="Helvetica,sans-Serif" font-size="10.00" fill="#000000">::Prototype::Prototype</text>
<text text-anchor="middle" x="302" y="-250" font-family="Helvetica,sans-Serif" font-size="10.00" fill="#000000"> *, std::hash&lt; int &gt; &gt;</text>
</g>
<!-- Node9 -->
<g id="node9" class="node">
<title>Node9</title>
<polygon fill="#ffffff" stroke="#bfbfbf" points="252,-458.5 252,-515.5 281,-515.5 281,-458.5 252,-458.5"/>
<text text-anchor="middle" x="266.5" y="-503.5" font-family="Helvetica,sans-Serif" font-size="10.00" fill="#000000">K</text>
<polyline fill="none" stroke="#bfbfbf" points="252,-496.5 281,-496.5 "/>
<text text-anchor="middle" x="266.5" y="-484.5" font-family="Helvetica,sans-Serif" font-size="10.00" fill="#000000"> </text>
<polyline fill="none" stroke="#bfbfbf" points="252,-477.5 281,-477.5 "/>
<text text-anchor="middle" x="266.5" y="-465.5" font-family="Helvetica,sans-Serif" font-size="10.00" fill="#000000"> </text>
</g>
<!-- Node9&#45;&gt;Node8 -->
<g id="edge8" class="edge">
<title>Node9&#45;&gt;Node8</title>
<path fill="none" stroke="#404040" d="M265.6077,-458.2753C265.6859,-448.9039 266.1672,-438.4741 267.5,-429 268.8248,-419.5823 270.9537,-409.6566 273.3385,-400.2295"/>
<polygon fill="none" stroke="#404040" points="273.3411,-400.2198 271.0351,-393.3874 276.455,-388.6309 278.761,-395.4633 273.3411,-400.2198"/>
<text text-anchor="middle" x="283" y="-432" font-family="Helvetica,sans-Serif" font-size="10.00" fill="#000000"> +keys</text>
</g>
<!-- Node10 -->
<g id="node10" class="node">
<title>Node10</title>
<polygon fill="#ffffff" stroke="#bfbfbf" points="306,-458.5 306,-515.5 335,-515.5 335,-458.5 306,-458.5"/>
<text text-anchor="middle" x="320.5" y="-503.5" font-family="Helvetica,sans-Serif" font-size="10.00" fill="#000000">T</text>
<polyline fill="none" stroke="#bfbfbf" points="306,-496.5 335,-496.5 "/>
<text text-anchor="middle" x="320.5" y="-484.5" font-family="Helvetica,sans-Serif" font-size="10.00" fill="#000000"> </text>
<polyline fill="none" stroke="#bfbfbf" points="306,-477.5 335,-477.5 "/>
<text text-anchor="middle" x="320.5" y="-465.5" font-family="Helvetica,sans-Serif" font-size="10.00" fill="#000000"> </text>
</g>
<!-- Node10&#45;&gt;Node8 -->
<g id="edge9" class="edge">
<title>Node10&#45;&gt;Node8</title>
<path fill="none" stroke="#404040" d="M313.3395,-458.2495C309.1522,-441.4371 303.7685,-419.8205 299,-400.6743"/>
<polygon fill="none" stroke="#404040" points="298.9508,-400.4764 293.6193,-395.621 296.0506,-388.8321 301.3821,-393.6875 298.9508,-400.4764"/>
<text text-anchor="middle" x="333" y="-432" font-family="Helvetica,sans-Serif" font-size="10.00" fill="#000000"> +elements</text>
</g>
</g>
</svg>
