<?xml version="1.0" encoding="UTF-8" standalone="no"?>
<!DOCTYPE svg PUBLIC "-//W3C//DTD SVG 1.1//EN"
 "http://www.w3.org/Graphics/SVG/1.1/DTD/svg11.dtd">
<!-- Generated by graphviz version 2.40.1 (20161225.0304)
 -->
<!-- Title: PETScWrappers::PreconditionLU Pages: 1 -->
<!--zoomable 954 -->
<svg id="main" version="1.1" xmlns="http://www.w3.org/2000/svg" xmlns:xlink="http://www.w3.org/1999/xlink" xml:space="preserve" onload="init(evt)">
<style type="text/css"><![CDATA[
.edge:hover path { stroke: red; }
.edge:hover polygon { stroke: red; fill: red; }
]]></style>
<script type="text/javascript"><![CDATA[
var edges = document.getElementsByTagName('g');
if (edges && edges.length) {
  for (var i=0;i<edges.length;i++) {
    if (edges[i].id.substr(0,4)=='edge') {
      edges[i].setAttribute('class','edge');
    }
  }
}
]]></script>
        <defs>
                <circle id="rim" cx="0" cy="0" r="7"/>
                <circle id="rim2" cx="0" cy="0" r="3.5"/>
                <g id="zoomPlus">
                        <use xlink:href="#rim" fill="#404040">
                                <set attributeName="fill" to="#808080" begin="zoomplus.mouseover" end="zoomplus.mouseout"/>
                        </use>
                        <path d="M-4,0h8M0,-4v8" fill="none" stroke="white" stroke-width="1.5" pointer-events="none"/>
                </g>
                <g id="zoomMin">
                        <use xlink:href="#rim" fill="#404040">
                                <set attributeName="fill" to="#808080" begin="zoomminus.mouseover" end="zoomminus.mouseout"/>
                        </use>
                        <path d="M-4,0h8" fill="none" stroke="white" stroke-width="1.5" pointer-events="none"/>
                </g>
                <g id="dirArrow">
                        <path fill="none" stroke="white" stroke-width="1.5" d="M0,-3.0v7 M-2.5,-0.5L0,-3.0L2.5,-0.5"/>
                </g>
               <g id="resetDef">
                       <use xlink:href="#rim2" fill="#404040">
                               <set attributeName="fill" to="#808080" begin="reset.mouseover" end="reset.mouseout"/>
                       </use>
               </g>
        </defs>

<script type="text/javascript">
var viewWidth = 778;
var viewHeight = 954;
var sectionId = 'dynsection-1';
</script>
<script xlink:href="svgpan.js"/>
<svg id="graph" class="graph">
<g id="viewport">
<title>PETScWrappers::PreconditionLU</title>
<polygon fill="#ffffff" stroke="transparent" points="-4,4 -4,-950 773.5,-950 773.5,4 -4,4"/>
<!-- Node3 -->
<g id="node1" class="node">
<title>Node3</title>
<polygon fill="#bfbfbf" stroke="#000000" points="522,-.5 522,-79.5 685,-79.5 685,-.5 522,-.5"/>
<text text-anchor="middle" x="603.5" y="-67.5" font-family="Helvetica,sans-Serif" font-size="10.00" fill="#000000">PETScWrappers::PreconditionLU</text>
<polyline fill="none" stroke="#000000" points="522,-60.5 685,-60.5 "/>
<text text-anchor="middle" x="603.5" y="-48.5" font-family="Helvetica,sans-Serif" font-size="10.00" fill="#000000"> </text>
<polyline fill="none" stroke="#000000" points="522,-41.5 685,-41.5 "/>
<text text-anchor="start" x="530" y="-29.5" font-family="Helvetica,sans-Serif" font-size="10.00" fill="#000000">+ PreconditionLU()</text>
<text text-anchor="start" x="530" y="-18.5" font-family="Helvetica,sans-Serif" font-size="10.00" fill="#000000">+ PreconditionLU()</text>
<text text-anchor="start" x="530" y="-7.5" font-family="Helvetica,sans-Serif" font-size="10.00" fill="#000000">+ initialize()</text>
</g>
<!-- Node4 -->
<g id="node2" class="node">
<title>Node4</title>
<g id="a_node2"><a xlink:href="classPETScWrappers_1_1PreconditionBase.html" target="_top" xlink:title="{PETScWrappers::PreconditionBase\n||+ PreconditionBase()\l+ ~PreconditionBase()\l+ clear()\l+ vmult()\l+ Tvmult()\l+ get_pc()\l# create_pc()\l# operator Mat()\l}">
<polygon fill="#ffffff" stroke="#000000" points="428,-127.5 428,-261.5 601,-261.5 601,-127.5 428,-127.5"/>
<text text-anchor="middle" x="514.5" y="-249.5" font-family="Helvetica,sans-Serif" font-size="10.00" fill="#000000">PETScWrappers::PreconditionBase</text>
<polyline fill="none" stroke="#000000" points="428,-242.5 601,-242.5 "/>
<text text-anchor="middle" x="514.5" y="-230.5" font-family="Helvetica,sans-Serif" font-size="10.00" fill="#000000"> </text>
<polyline fill="none" stroke="#000000" points="428,-223.5 601,-223.5 "/>
<text text-anchor="start" x="436" y="-211.5" font-family="Helvetica,sans-Serif" font-size="10.00" fill="#000000">+ PreconditionBase()</text>
<text text-anchor="start" x="436" y="-200.5" font-family="Helvetica,sans-Serif" font-size="10.00" fill="#000000">+ ~PreconditionBase()</text>
<text text-anchor="start" x="436" y="-189.5" font-family="Helvetica,sans-Serif" font-size="10.00" fill="#000000">+ clear()</text>
<text text-anchor="start" x="436" y="-178.5" font-family="Helvetica,sans-Serif" font-size="10.00" fill="#000000">+ vmult()</text>
<text text-anchor="start" x="436" y="-167.5" font-family="Helvetica,sans-Serif" font-size="10.00" fill="#000000">+ Tvmult()</text>
<text text-anchor="start" x="436" y="-156.5" font-family="Helvetica,sans-Serif" font-size="10.00" fill="#000000">+ get_pc()</text>
<text text-anchor="start" x="436" y="-145.5" font-family="Helvetica,sans-Serif" font-size="10.00" fill="#000000"># create_pc()</text>
<text text-anchor="start" x="436" y="-134.5" font-family="Helvetica,sans-Serif" font-size="10.00" fill="#000000"># operator Mat()</text>
</a>
</g>
</g>
<!-- Node4&#45;&gt;Node3 -->
<g id="edge1" class="edge">
<title>Node4&#45;&gt;Node3</title>
<path fill="none" stroke="#191970" d="M558.3515,-118.3757C566.0932,-104.9366 573.861,-91.452 580.7175,-79.5494"/>
<polygon fill="none" stroke="#191970" points="555.2366,-116.7713 553.2778,-127.1835 561.3022,-120.2654 555.2366,-116.7713"/>
</g>
<!-- Node5 -->
<g id="node3" class="node">
<title>Node5</title>
<g id="a_node3"><a xlink:href="classSubscriptor.html" target="_top" xlink:title="{Subscriptor\n||+ Subscriptor()\l+ Subscriptor()\l+ Subscriptor()\l+ ~Subscriptor()\l+ operator=()\l+ operator=()\l+ serialize()\l+ subscribe()\l+ unsubscribe()\l+ n_subscriptions()\l+ list_subscribers()\l+ list_subscribers()\l+ ExcInUse()\l+ ExcNoSubscriber()\l&#45; check_no_subscribers()\l* subscribe()\l* unsubscribe()\l* n_subscriptions()\l* list_subscribers()\l* list_subscribers()\l}">
<polygon fill="#ffffff" stroke="#000000" points="354.5,-331.5 354.5,-597.5 480.5,-597.5 480.5,-331.5 354.5,-331.5"/>
<text text-anchor="middle" x="417.5" y="-585.5" font-family="Helvetica,sans-Serif" font-size="10.00" fill="#000000">Subscriptor</text>
<polyline fill="none" stroke="#000000" points="354.5,-578.5 480.5,-578.5 "/>
<text text-anchor="middle" x="417.5" y="-566.5" font-family="Helvetica,sans-Serif" font-size="10.00" fill="#000000"> </text>
<polyline fill="none" stroke="#000000" points="354.5,-559.5 480.5,-559.5 "/>
<text text-anchor="start" x="362.5" y="-547.5" font-family="Helvetica,sans-Serif" font-size="10.00" fill="#000000">+ Subscriptor()</text>
<text text-anchor="start" x="362.5" y="-536.5" font-family="Helvetica,sans-Serif" font-size="10.00" fill="#000000">+ Subscriptor()</text>
<text text-anchor="start" x="362.5" y="-525.5" font-family="Helvetica,sans-Serif" font-size="10.00" fill="#000000">+ Subscriptor()</text>
<text text-anchor="start" x="362.5" y="-514.5" font-family="Helvetica,sans-Serif" font-size="10.00" fill="#000000">+ ~Subscriptor()</text>
<text text-anchor="start" x="362.5" y="-503.5" font-family="Helvetica,sans-Serif" font-size="10.00" fill="#000000">+ operator=()</text>
<text text-anchor="start" x="362.5" y="-492.5" font-family="Helvetica,sans-Serif" font-size="10.00" fill="#000000">+ operator=()</text>
<text text-anchor="start" x="362.5" y="-481.5" font-family="Helvetica,sans-Serif" font-size="10.00" fill="#000000">+ serialize()</text>
<text text-anchor="start" x="362.5" y="-470.5" font-family="Helvetica,sans-Serif" font-size="10.00" fill="#000000">+ subscribe()</text>
<text text-anchor="start" x="362.5" y="-459.5" font-family="Helvetica,sans-Serif" font-size="10.00" fill="#000000">+ unsubscribe()</text>
<text text-anchor="start" x="362.5" y="-448.5" font-family="Helvetica,sans-Serif" font-size="10.00" fill="#000000">+ n_subscriptions()</text>
<text text-anchor="start" x="362.5" y="-437.5" font-family="Helvetica,sans-Serif" font-size="10.00" fill="#000000">+ list_subscribers()</text>
<text text-anchor="start" x="362.5" y="-426.5" font-family="Helvetica,sans-Serif" font-size="10.00" fill="#000000">+ list_subscribers()</text>
<text text-anchor="start" x="362.5" y="-415.5" font-family="Helvetica,sans-Serif" font-size="10.00" fill="#000000">+ ExcInUse()</text>
<text text-anchor="start" x="362.5" y="-404.5" font-family="Helvetica,sans-Serif" font-size="10.00" fill="#000000">+ ExcNoSubscriber()</text>
<text text-anchor="start" x="362.5" y="-393.5" font-family="Helvetica,sans-Serif" font-size="10.00" fill="#000000">&#45; check_no_subscribers()</text>
<text text-anchor="start" x="362.5" y="-382.5" font-family="Helvetica,sans-Serif" font-size="10.00" fill="#000000">* subscribe()</text>
<text text-anchor="start" x="362.5" y="-371.5" font-family="Helvetica,sans-Serif" font-size="10.00" fill="#000000">* unsubscribe()</text>
<text text-anchor="start" x="362.5" y="-360.5" font-family="Helvetica,sans-Serif" font-size="10.00" fill="#000000">* n_subscriptions()</text>
<text text-anchor="start" x="362.5" y="-349.5" font-family="Helvetica,sans-Serif" font-size="10.00" fill="#000000">* list_subscribers()</text>
<text text-anchor="start" x="362.5" y="-338.5" font-family="Helvetica,sans-Serif" font-size="10.00" fill="#000000">* list_subscribers()</text>
</a>
</g>
</g>
<!-- Node5&#45;&gt;Node4 -->
<g id="edge2" class="edge">
<title>Node5&#45;&gt;Node4</title>
<path fill="none" stroke="#191970" d="M468.7563,-321.8277C476.2938,-300.8473 483.7421,-280.1147 490.3701,-261.6658"/>
<polygon fill="none" stroke="#191970" points="465.3768,-320.883 465.2896,-331.4775 471.9645,-323.2498 465.3768,-320.883"/>
</g>
<!-- Node6 -->
<g id="node4" class="node">
<title>Node6</title>
<polygon fill="#ffffff" stroke="#bfbfbf" points="66.5,-645.5 66.5,-713.5 176.5,-713.5 176.5,-645.5 66.5,-645.5"/>
<text text-anchor="start" x="74.5" y="-701.5" font-family="Helvetica,sans-Serif" font-size="10.00" fill="#000000">std::map&lt; std::string,</text>
<text text-anchor="middle" x="121.5" y="-690.5" font-family="Helvetica,sans-Serif" font-size="10.00" fill="#000000"> unsigned int &gt;</text>
<polyline fill="none" stroke="#bfbfbf" points="66.5,-683.5 176.5,-683.5 "/>
<text text-anchor="middle" x="121.5" y="-671.5" font-family="Helvetica,sans-Serif" font-size="10.00" fill="#000000"> </text>
<polyline fill="none" stroke="#bfbfbf" points="66.5,-664.5 176.5,-664.5 "/>
<text text-anchor="middle" x="121.5" y="-652.5" font-family="Helvetica,sans-Serif" font-size="10.00" fill="#000000"> </text>
</g>
<!-- Node6&#45;&gt;Node5 -->
<g id="edge3" class="edge">
<title>Node6&#45;&gt;Node5</title>
<path fill="none" stroke="#404040" d="M168.4021,-645.4326C215.669,-611.1003 289.2888,-557.6264 344.2543,-517.7021"/>
<polygon fill="none" stroke="#404040" points="344.5808,-517.465 347.0846,-510.7025 354.2899,-510.4127 351.7861,-517.1752 344.5808,-517.465"/>
<text text-anchor="middle" x="233" y="-619" font-family="Helvetica,sans-Serif" font-size="10.00" fill="#000000"> &#45;counter_map</text>
</g>
<!-- Node7 -->
<g id="node5" class="node">
<title>Node7</title>
<g id="a_node5"><a xlink:href="classint.html" target="_top" xlink:title="{int\n||}">
<polygon fill="#ffffff" stroke="#000000" points="0,-772.5 0,-829.5 29,-829.5 29,-772.5 0,-772.5"/>
<text text-anchor="middle" x="14.5" y="-817.5" font-family="Helvetica,sans-Serif" font-size="10.00" fill="#000000">int</text>
<polyline fill="none" stroke="#000000" points="0,-810.5 29,-810.5 "/>
<text text-anchor="middle" x="14.5" y="-798.5" font-family="Helvetica,sans-Serif" font-size="10.00" fill="#000000"> </text>
<polyline fill="none" stroke="#000000" points="0,-791.5 29,-791.5 "/>
<text text-anchor="middle" x="14.5" y="-779.5" font-family="Helvetica,sans-Serif" font-size="10.00" fill="#000000"> </text>
</a>
</g>
</g>
<!-- Node7&#45;&gt;Node6 -->
<g id="edge4" class="edge">
<title>Node7&#45;&gt;Node6</title>
<path fill="none" stroke="#404040" d="M21.3502,-772.4015C25.5642,-759.1055 32.0187,-743.6885 41.5,-732 45.9249,-726.545 51.0704,-721.4598 56.5778,-716.7711"/>
<polygon fill="none" stroke="#404040" points="56.694,-716.6797 58.9358,-709.826 66.1246,-709.2593 63.8828,-716.1131 56.694,-716.6797"/>
<text text-anchor="middle" x="66" y="-740.5" font-family="Helvetica,sans-Serif" font-size="10.00" fill="#000000"> +elements</text>
</g>
<!-- Node8 -->
<g id="node6" class="node">
<title>Node8</title>
<g id="a_node6"><a xlink:title="STL class. ">
<polygon fill="#ffffff" stroke="#bfbfbf" points="47.5,-772.5 47.5,-829.5 107.5,-829.5 107.5,-772.5 47.5,-772.5"/>
<text text-anchor="middle" x="77.5" y="-817.5" font-family="Helvetica,sans-Serif" font-size="10.00" fill="#000000">std::string</text>
<polyline fill="none" stroke="#bfbfbf" points="47.5,-810.5 107.5,-810.5 "/>
<text text-anchor="middle" x="77.5" y="-798.5" font-family="Helvetica,sans-Serif" font-size="10.00" fill="#000000"> </text>
<polyline fill="none" stroke="#bfbfbf" points="47.5,-791.5 107.5,-791.5 "/>
<text text-anchor="middle" x="77.5" y="-779.5" font-family="Helvetica,sans-Serif" font-size="10.00" fill="#000000"> </text>
</a>
</g>
</g>
<!-- Node8&#45;&gt;Node6 -->
<g id="edge5" class="edge">
<title>Node8&#45;&gt;Node6</title>
<path fill="none" stroke="#404040" d="M87.2386,-772.3985C91.529,-759.9569 96.6811,-745.2278 101.5,-732 102.3477,-729.6731 103.224,-727.2913 104.1148,-724.8885"/>
<polygon fill="none" stroke="#404040" points="104.1275,-724.8546 102.4866,-717.8326 108.3373,-713.6172 109.9782,-720.6392 104.1275,-724.8546"/>
<text text-anchor="middle" x="117" y="-740.5" font-family="Helvetica,sans-Serif" font-size="10.00" fill="#000000"> +keys</text>
</g>
<!-- Node9 -->
<g id="node7" class="node">
<title>Node9</title>
<g id="a_node7"><a xlink:title="STL class. ">
<polygon fill="#ffffff" stroke="#bfbfbf" points="29,-877.5 29,-945.5 124,-945.5 124,-877.5 29,-877.5"/>
<text text-anchor="start" x="37" y="-933.5" font-family="Helvetica,sans-Serif" font-size="10.00" fill="#000000">std::basic_string&lt;</text>
<text text-anchor="middle" x="76.5" y="-922.5" font-family="Helvetica,sans-Serif" font-size="10.00" fill="#000000"> char &gt;</text>
<polyline fill="none" stroke="#bfbfbf" points="29,-915.5 124,-915.5 "/>
<text text-anchor="middle" x="76.5" y="-903.5" font-family="Helvetica,sans-Serif" font-size="10.00" fill="#000000"> </text>
<polyline fill="none" stroke="#bfbfbf" points="29,-896.5 124,-896.5 "/>
<text text-anchor="middle" x="76.5" y="-884.5" font-family="Helvetica,sans-Serif" font-size="10.00" fill="#000000"> </text>
</a>
</g>
</g>
<!-- Node9&#45;&gt;Node8 -->
<g id="edge6" class="edge">
<title>Node9&#45;&gt;Node8</title>
<path fill="none" stroke="#191970" d="M76.9021,-867.0661C77.0166,-854.4172 77.1382,-840.9812 77.2416,-829.5519"/>
<polygon fill="none" stroke="#191970" points="73.3989,-867.4134 76.8082,-877.4447 80.3986,-867.4768 73.3989,-867.4134"/>
</g>
<!-- Node10 -->
<g id="node8" class="node">
<title>Node10</title>
<g id="a_node8"><a xlink:title="STL class. ">
<polygon fill="#ffffff" stroke="#bfbfbf" points="125.5,-772.5 125.5,-829.5 217.5,-829.5 217.5,-772.5 125.5,-772.5"/>
<text text-anchor="middle" x="171.5" y="-817.5" font-family="Helvetica,sans-Serif" font-size="10.00" fill="#000000">std::map&lt; K, T &gt;</text>
<polyline fill="none" stroke="#bfbfbf" points="125.5,-810.5 217.5,-810.5 "/>
<text text-anchor="middle" x="171.5" y="-798.5" font-family="Helvetica,sans-Serif" font-size="10.00" fill="#000000"> </text>
<polyline fill="none" stroke="#bfbfbf" points="125.5,-791.5 217.5,-791.5 "/>
<text text-anchor="middle" x="171.5" y="-779.5" font-family="Helvetica,sans-Serif" font-size="10.00" fill="#000000"> </text>
</a>
</g>
</g>
<!-- Node10&#45;&gt;Node6 -->
<g id="edge7" class="edge">
<title>Node10&#45;&gt;Node6</title>
<path fill="none" stroke="#ffa500" d="M155.7657,-762.7657C149.2957,-747.0436 141.8613,-728.9779 135.5744,-713.7007"/>
<polygon fill="#ffa500" stroke="#ffa500" points="152.6084,-764.2906 159.6507,-772.2062 159.0817,-761.6266 152.6084,-764.2906"/>
<text text-anchor="start" x="151.5" y="-746" font-family="Helvetica,sans-Serif" font-size="10.00" fill="#000000"> &lt; std::string, unsigned</text>
<text text-anchor="middle" x="202" y="-735" font-family="Helvetica,sans-Serif" font-size="10.00" fill="#000000"> int &gt;</text>
</g>
<!-- Node11 -->
<g id="node9" class="node">
<title>Node11</title>
<polygon fill="#ffffff" stroke="#bfbfbf" points="142,-883 142,-940 171,-940 171,-883 142,-883"/>
<text text-anchor="middle" x="156.5" y="-928" font-family="Helvetica,sans-Serif" font-size="10.00" fill="#000000">K</text>
<polyline fill="none" stroke="#bfbfbf" points="142,-921 171,-921 "/>
<text text-anchor="middle" x="156.5" y="-909" font-family="Helvetica,sans-Serif" font-size="10.00" fill="#000000"> </text>
<polyline fill="none" stroke="#bfbfbf" points="142,-902 171,-902 "/>
<text text-anchor="middle" x="156.5" y="-890" font-family="Helvetica,sans-Serif" font-size="10.00" fill="#000000"> </text>
</g>
<!-- Node11&#45;&gt;Node10 -->
<g id="edge8" class="edge">
<title>Node11&#45;&gt;Node10</title>
<path fill="none" stroke="#404040" d="M155.2952,-882.9114C155.2648,-871.9384 155.7567,-859.3334 157.5,-848 157.8349,-845.8226 158.2452,-843.6052 158.7121,-841.3782"/>
<polygon fill="none" stroke="#404040" points="158.7573,-841.1956 156.3179,-834.4096 161.6437,-829.5479 164.0831,-836.3339 158.7573,-841.1956"/>
<text text-anchor="middle" x="173" y="-851" font-family="Helvetica,sans-Serif" font-size="10.00" fill="#000000"> +keys</text>
</g>
<!-- Node12 -->
<g id="node10" class="node">
<title>Node12</title>
<polygon fill="#ffffff" stroke="#bfbfbf" points="232,-883 232,-940 261,-940 261,-883 232,-883"/>
<text text-anchor="middle" x="246.5" y="-928" font-family="Helvetica,sans-Serif" font-size="10.00" fill="#000000">T</text>
<polyline fill="none" stroke="#bfbfbf" points="232,-921 261,-921 "/>
<text text-anchor="middle" x="246.5" y="-909" font-family="Helvetica,sans-Serif" font-size="10.00" fill="#000000"> </text>
<polyline fill="none" stroke="#bfbfbf" points="232,-902 261,-902 "/>
<text text-anchor="middle" x="246.5" y="-890" font-family="Helvetica,sans-Serif" font-size="10.00" fill="#000000"> </text>
</g>
<!-- Node12&#45;&gt;Node10 -->
<g id="edge9" class="edge">
<title>Node12&#45;&gt;Node10</title>
<path fill="none" stroke="#404040" d="M231.8612,-889.9322C222.1883,-875.6807 209.2337,-856.5943 197.806,-839.7575"/>
<polygon fill="none" stroke="#404040" points="197.6701,-839.5573 190.9909,-836.8392 190.931,-829.6283 197.6102,-832.3464 197.6701,-839.5573"/>
<text text-anchor="middle" x="234" y="-851" font-family="Helvetica,sans-Serif" font-size="10.00" fill="#000000"> +elements</text>
</g>
<!-- Node17 -->
<g id="node15" class="node">
<title>Node17</title>
<g id="a_node15"><a xlink:title="STL class. ">
<polygon fill="#ffffff" stroke="#bfbfbf" points="238,-772.5 238,-829.5 325,-829.5 325,-772.5 238,-772.5"/>
<text text-anchor="middle" x="281.5" y="-817.5" font-family="Helvetica,sans-Serif" font-size="10.00" fill="#000000">std::vector&lt; T &gt;</text>
<polyline fill="none" stroke="#bfbfbf" points="238,-810.5 325,-810.5 "/>
<text text-anchor="middle" x="281.5" y="-798.5" font-family="Helvetica,sans-Serif" font-size="10.00" fill="#000000"> </text>
<polyline fill="none" stroke="#bfbfbf" points="238,-791.5 325,-791.5 "/>
<text text-anchor="middle" x="281.5" y="-779.5" font-family="Helvetica,sans-Serif" font-size="10.00" fill="#000000"> </text>
</a>
</g>
</g>
<!-- Node12&#45;&gt;Node17 -->
<g id="edge15" class="edge">
<title>Node12&#45;&gt;Node17</title>
<path fill="none" stroke="#404040" d="M255.6045,-882.7559C259.6149,-870.0945 264.3962,-854.9992 268.7524,-841.2459"/>
<polygon fill="none" stroke="#404040" points="268.8176,-841.0401 266.816,-834.1123 272.4411,-829.6002 274.4426,-836.528 268.8176,-841.0401"/>
<text text-anchor="middle" x="291" y="-851" font-family="Helvetica,sans-Serif" font-size="10.00" fill="#000000"> +elements</text>
</g>
<!-- Node13 -->
<g id="node11" class="node">
<title>Node13</title>
<polygon fill="#ffffff" stroke="#bfbfbf" points="359.5,-651 359.5,-708 475.5,-708 475.5,-651 359.5,-651"/>
<text text-anchor="middle" x="417.5" y="-696" font-family="Helvetica,sans-Serif" font-size="10.00" fill="#000000">atomic&lt; unsigned int &gt;</text>
<polyline fill="none" stroke="#bfbfbf" points="359.5,-689 475.5,-689 "/>
<text text-anchor="middle" x="417.5" y="-677" font-family="Helvetica,sans-Serif" font-size="10.00" fill="#000000"> </text>
<polyline fill="none" stroke="#bfbfbf" points="359.5,-670 475.5,-670 "/>
<text text-anchor="middle" x="417.5" y="-658" font-family="Helvetica,sans-Serif" font-size="10.00" fill="#000000"> </text>
</g>
<!-- Node13&#45;&gt;Node5 -->
<g id="edge10" class="edge">
<title>Node13&#45;&gt;Node5</title>
<path fill="none" stroke="#404040" d="M417.5,-650.9497C417.5,-639.3895 417.5,-625.1147 417.5,-609.6501"/>
<polygon fill="none" stroke="#404040" points="417.5001,-609.6176 413.5,-603.6176 417.5,-597.6176 421.5,-603.6175 417.5001,-609.6176"/>
<text text-anchor="middle" x="437" y="-619" font-family="Helvetica,sans-Serif" font-size="10.00" fill="#000000"> &#45;counter</text>
</g>
<!-- Node14 -->
<g id="node12" class="node">
<title>Node14</title>
<polygon fill="#ffffff" stroke="#bfbfbf" points="493.5,-651 493.5,-708 537.5,-708 537.5,-651 493.5,-651"/>
<text text-anchor="middle" x="515.5" y="-696" font-family="Helvetica,sans-Serif" font-size="10.00" fill="#000000">mutex</text>
<polyline fill="none" stroke="#bfbfbf" points="493.5,-689 537.5,-689 "/>
<text text-anchor="middle" x="515.5" y="-677" font-family="Helvetica,sans-Serif" font-size="10.00" fill="#000000"> </text>
<polyline fill="none" stroke="#bfbfbf" points="493.5,-670 537.5,-670 "/>
<text text-anchor="middle" x="515.5" y="-658" font-family="Helvetica,sans-Serif" font-size="10.00" fill="#000000"> </text>
</g>
<!-- Node14&#45;&gt;Node5 -->
<g id="edge11" class="edge">
<title>Node14&#45;&gt;Node5</title>
<path fill="none" stroke="#404040" d="M502.4864,-650.9497C497.1138,-639.1629 490.4548,-624.5539 483.2462,-608.7391"/>
<polygon fill="none" stroke="#404040" points="483.154,-608.5368 477.0257,-604.7362 478.1768,-597.6176 484.3052,-601.4181 483.154,-608.5368"/>
<text text-anchor="middle" x="506.5" y="-619" font-family="Helvetica,sans-Serif" font-size="10.00" fill="#000000"> &#45;mutex</text>
</g>
<!-- Node15 -->
<g id="node13" class="node">
<title>Node15</title>
<polygon fill="#ffffff" stroke="#bfbfbf" points="220,-645.5 220,-713.5 341,-713.5 341,-645.5 220,-645.5"/>
<text text-anchor="start" x="228" y="-701.5" font-family="Helvetica,sans-Serif" font-size="10.00" fill="#000000">std::vector&lt; std::atomic</text>
<text text-anchor="middle" x="280.5" y="-690.5" font-family="Helvetica,sans-Serif" font-size="10.00" fill="#000000">&lt; bool &gt; *&gt;</text>
<polyline fill="none" stroke="#bfbfbf" points="220,-683.5 341,-683.5 "/>
<text text-anchor="middle" x="280.5" y="-671.5" font-family="Helvetica,sans-Serif" font-size="10.00" fill="#000000"> </text>
<polyline fill="none" stroke="#bfbfbf" points="220,-664.5 341,-664.5 "/>
<text text-anchor="middle" x="280.5" y="-652.5" font-family="Helvetica,sans-Serif" font-size="10.00" fill="#000000"> </text>
</g>
<!-- Node15&#45;&gt;Node5 -->
<g id="edge12" class="edge">
<title>Node15&#45;&gt;Node5</title>
<path fill="none" stroke="#404040" d="M302.2081,-645.4326C314.7304,-625.7808 331.2489,-599.8575 347.8571,-573.7936"/>
<polygon fill="none" stroke="#404040" points="348.0179,-573.5411 347.8689,-566.3315 354.4666,-563.421 354.6156,-570.6306 348.0179,-573.5411"/>
<text text-anchor="middle" x="356" y="-619" font-family="Helvetica,sans-Serif" font-size="10.00" fill="#000000"> &#45;validity_pointers</text>
</g>
<!-- Node16 -->
<g id="node14" class="node">
<title>Node16</title>
<polygon fill="#ffffff" stroke="#bfbfbf" points="369,-772.5 369,-829.5 458,-829.5 458,-772.5 369,-772.5"/>
<text text-anchor="middle" x="413.5" y="-817.5" font-family="Helvetica,sans-Serif" font-size="10.00" fill="#000000">atomic&lt; bool &gt; *</text>
<polyline fill="none" stroke="#bfbfbf" points="369,-810.5 458,-810.5 "/>
<text text-anchor="middle" x="413.5" y="-798.5" font-family="Helvetica,sans-Serif" font-size="10.00" fill="#000000"> </text>
<polyline fill="none" stroke="#bfbfbf" points="369,-791.5 458,-791.5 "/>
<text text-anchor="middle" x="413.5" y="-779.5" font-family="Helvetica,sans-Serif" font-size="10.00" fill="#000000"> </text>
</g>
<!-- Node16&#45;&gt;Node15 -->
<g id="edge13" class="edge">
<title>Node16&#45;&gt;Node15</title>
<path fill="none" stroke="#404040" d="M409.9421,-772.422C406.9675,-758.8121 401.5099,-743.1207 391.5,-732 380.1623,-719.4042 371.4851,-721.2998 352.2305,-714.2257"/>
<polygon fill="none" stroke="#404040" points="352.199,-714.2126 345.1204,-715.5891 341.1273,-709.5846 348.2058,-708.208 352.199,-714.2126"/>
<text text-anchor="middle" x="429" y="-740.5" font-family="Helvetica,sans-Serif" font-size="10.00" fill="#000000"> +elements</text>
</g>
<!-- Node17&#45;&gt;Node15 -->
<g id="edge14" class="edge">
<title>Node17&#45;&gt;Node15</title>
<path fill="none" stroke="#ffa500" d="M281.178,-761.8733C281.0503,-746.3628 280.9049,-728.6896 280.7815,-713.7007"/>
<polygon fill="#ffa500" stroke="#ffa500" points="277.6807,-762.2354 281.263,-772.2062 284.6805,-762.1777 277.6807,-762.2354"/>
<text text-anchor="middle" x="336.5" y="-740.5" font-family="Helvetica,sans-Serif" font-size="10.00" fill="#000000"> &lt; std::atomic&lt; bool &gt; *&gt;</text>
</g>
<!-- Node18 -->
<g id="node16" class="node">
<title>Node18</title>
<polygon fill="#ffffff" stroke="#bfbfbf" points="556,-651 556,-708 619,-708 619,-651 556,-651"/>
<text text-anchor="middle" x="587.5" y="-696" font-family="Helvetica,sans-Serif" font-size="10.00" fill="#000000">type_info *</text>
<polyline fill="none" stroke="#bfbfbf" points="556,-689 619,-689 "/>
<text text-anchor="middle" x="587.5" y="-677" font-family="Helvetica,sans-Serif" font-size="10.00" fill="#000000"> </text>
<polyline fill="none" stroke="#bfbfbf" points="556,-670 619,-670 "/>
<text text-anchor="middle" x="587.5" y="-658" font-family="Helvetica,sans-Serif" font-size="10.00" fill="#000000"> </text>
</g>
<!-- Node18&#45;&gt;Node5 -->
<g id="edge16" class="edge">
<title>Node18&#45;&gt;Node5</title>
<path fill="none" stroke="#404040" d="M564.6699,-650.9826C554.2124,-639.1441 541.1229,-625.8921 527.5,-616 512.3783,-605.0196 503.0549,-610.8647 489.5,-598 489.4045,-597.9094 489.3091,-597.8186 489.2138,-597.7276"/>
<polygon fill="none" stroke="#404040" points="488.9746,-597.4802 481.9284,-595.9471 480.6335,-588.8531 487.6798,-590.3863 488.9746,-597.4802"/>
<text text-anchor="middle" x="567.5" y="-619" font-family="Helvetica,sans-Serif" font-size="10.00" fill="#000000"> &#45;object_info</text>
</g>
<!-- Node19 -->
<g id="node17" class="node">
<title>Node19</title>
<polygon fill="#ffffff" stroke="#bfbfbf" points="499,-436 499,-493 530,-493 530,-436 499,-436"/>
<text text-anchor="middle" x="514.5" y="-481" font-family="Helvetica,sans-Serif" font-size="10.00" fill="#000000">PC</text>
<polyline fill="none" stroke="#bfbfbf" points="499,-474 530,-474 "/>
<text text-anchor="middle" x="514.5" y="-462" font-family="Helvetica,sans-Serif" font-size="10.00" fill="#000000"> </text>
<polyline fill="none" stroke="#bfbfbf" points="499,-455 530,-455 "/>
<text text-anchor="middle" x="514.5" y="-443" font-family="Helvetica,sans-Serif" font-size="10.00" fill="#000000"> </text>
</g>
<!-- Node19&#45;&gt;Node4 -->
<g id="edge17" class="edge">
<title>Node19&#45;&gt;Node4</title>
<path fill="none" stroke="#404040" d="M514.5,-435.8609C514.5,-397.6297 514.5,-328.4059 514.5,-273.8658"/>
<polygon fill="none" stroke="#404040" points="514.5001,-273.7628 510.5,-267.7628 514.5,-261.7628 518.5,-267.7628 514.5001,-273.7628"/>
<text text-anchor="middle" x="524" y="-294" font-family="Helvetica,sans-Serif" font-size="10.00" fill="#000000"> #pc</text>
</g>
<!-- Node20 -->
<g id="node18" class="node">
<title>Node20</title>
<polygon fill="#ffffff" stroke="#bfbfbf" points="548,-436 548,-493 581,-493 581,-436 548,-436"/>
<text text-anchor="middle" x="564.5" y="-481" font-family="Helvetica,sans-Serif" font-size="10.00" fill="#000000">Mat</text>
<polyline fill="none" stroke="#bfbfbf" points="548,-474 581,-474 "/>
<text text-anchor="middle" x="564.5" y="-462" font-family="Helvetica,sans-Serif" font-size="10.00" fill="#000000"> </text>
<polyline fill="none" stroke="#bfbfbf" points="548,-455 581,-455 "/>
<text text-anchor="middle" x="564.5" y="-443" font-family="Helvetica,sans-Serif" font-size="10.00" fill="#000000"> </text>
</g>
<!-- Node20&#45;&gt;Node4 -->
<g id="edge18" class="edge">
<title>Node20&#45;&gt;Node4</title>
<path fill="none" stroke="#404040" d="M561.3679,-435.8719C557.1409,-399.4439 548.8156,-334.6839 537.5,-280 537.0522,-277.8362 536.5823,-275.6458 536.0939,-273.4386"/>
<polygon fill="none" stroke="#404040" points="536.0433,-273.22 530.7902,-268.2798 533.33,-261.5308 538.583,-266.4709 536.0433,-273.22"/>
<text text-anchor="middle" x="561.5" y="-294" font-family="Helvetica,sans-Serif" font-size="10.00" fill="#000000"> #matrix</text>
</g>
<!-- Node21 -->
<g id="node19" class="node">
<title>Node21</title>
<g id="a_node19"><a xlink:href="structPETScWrappers_1_1PreconditionLU_1_1AdditionalData.html" target="_top" xlink:title="{PETScWrappers::Precondition\lLU::AdditionalData\n||+ AdditionalData()\l}">
<polygon fill="#ffffff" stroke="#000000" points="619.5,-160.5 619.5,-228.5 769.5,-228.5 769.5,-160.5 619.5,-160.5"/>
<text text-anchor="start" x="627.5" y="-216.5" font-family="Helvetica,sans-Serif" font-size="10.00" fill="#000000">PETScWrappers::Precondition</text>
<text text-anchor="middle" x="694.5" y="-205.5" font-family="Helvetica,sans-Serif" font-size="10.00" fill="#000000">LU::AdditionalData</text>
<polyline fill="none" stroke="#000000" points="619.5,-198.5 769.5,-198.5 "/>
<text text-anchor="middle" x="694.5" y="-186.5" font-family="Helvetica,sans-Serif" font-size="10.00" fill="#000000"> </text>
<polyline fill="none" stroke="#000000" points="619.5,-179.5 769.5,-179.5 "/>
<text text-anchor="start" x="627.5" y="-167.5" font-family="Helvetica,sans-Serif" font-size="10.00" fill="#000000">+ AdditionalData()</text>
</a>
</g>
</g>
<!-- Node21&#45;&gt;Node3 -->
<g id="edge19" class="edge">
<title>Node21&#45;&gt;Node3</title>
<path fill="none" stroke="#404040" d="M674.3042,-160.2114C662.1897,-139.6435 646.5662,-113.1178 633.0785,-90.2185"/>
<polygon fill="none" stroke="#404040" points="632.9436,-89.9894 626.452,-86.8496 626.8535,-79.6496 633.3452,-82.7895 632.9436,-89.9894"/>
<text text-anchor="middle" x="681.5" y="-101" font-family="Helvetica,sans-Serif" font-size="10.00" fill="#000000"> #additional_data</text>
</g>
<!-- Node22 -->
<g id="node20" class="node">
<title>Node22</title>
<g id="a_node20"><a xlink:href="classdouble.html" target="_top" xlink:title="{double\n||}">
<polygon fill="#ffffff" stroke="#000000" points="672,-436 672,-493 717,-493 717,-436 672,-436"/>
<text text-anchor="middle" x="694.5" y="-481" font-family="Helvetica,sans-Serif" font-size="10.00" fill="#000000">double</text>
<polyline fill="none" stroke="#000000" points="672,-474 717,-474 "/>
<text text-anchor="middle" x="694.5" y="-462" font-family="Helvetica,sans-Serif" font-size="10.00" fill="#000000"> </text>
<polyline fill="none" stroke="#000000" points="672,-455 717,-455 "/>
<text text-anchor="middle" x="694.5" y="-443" font-family="Helvetica,sans-Serif" font-size="10.00" fill="#000000"> </text>
</a>
</g>
</g>
<!-- Node22&#45;&gt;Node21 -->
<g id="edge20" class="edge">
<title>Node22&#45;&gt;Node21</title>
<path fill="none" stroke="#404040" d="M694.5,-435.8609C694.5,-389.3021 694.5,-296.7786 694.5,-240.7877"/>
<polygon fill="none" stroke="#404040" points="694.5001,-240.7465 690.5,-234.7465 694.5,-228.7465 698.5,-234.7465 694.5001,-240.7465"/>
<text text-anchor="middle" x="720.5" y="-305" font-family="Helvetica,sans-Serif" font-size="10.00" fill="#000000"> +pivoting</text>
<text text-anchor="middle" x="720.5" y="-294" font-family="Helvetica,sans-Serif" font-size="10.00" fill="#000000">+zero_pivot</text>
<text text-anchor="middle" x="720.5" y="-283" font-family="Helvetica,sans-Serif" font-size="10.00" fill="#000000">+damping</text>
</g>
</g>
</svg>
        <g id="navigator" transform="translate(0 0)" fill="#404254">
                <rect fill="#f2f5e9" fill-opacity="0.5" stroke="#606060" stroke-width=".5" x="0" y="0" width="60" height="60"/>
                <use id="zoomplus" xlink:href="#zoomPlus" x="17" y="9" onmousedown="handleZoom(evt,'in')"/>
                <use id="zoomminus" xlink:href="#zoomMin" x="42" y="9" onmousedown="handleZoom(evt,'out')"/>
                <use id="reset" xlink:href="#resetDef" x="30" y="36" onmousedown="handleReset()"/>
                <g id="arrowUp" xlink:href="#dirArrow" transform="translate(30 24)" onmousedown="handlePan(0,-1)">
                  <use xlink:href="#rim" fill="#404040">
                        <set attributeName="fill" to="#808080" begin="arrowUp.mouseover" end="arrowUp.mouseout"/>
                  </use>
                  <path fill="none" stroke="white" stroke-width="1.5" d="M0,-3.0v7 M-2.5,-0.5L0,-3.0L2.5,-0.5"/>
                </g>
                <g id="arrowRight" xlink:href="#dirArrow" transform="rotate(90) translate(36 -43)" onmousedown="handlePan(1,0)">
                  <use xlink:href="#rim" fill="#404040">
                        <set attributeName="fill" to="#808080" begin="arrowRight.mouseover" end="arrowRight.mouseout"/>
                  </use>
                  <path fill="none" stroke="white" stroke-width="1.5" d="M0,-3.0v7 M-2.5,-0.5L0,-3.0L2.5,-0.5"/>
                </g>
                <g id="arrowDown" xlink:href="#dirArrow" transform="rotate(180) translate(-30 -48)" onmousedown="handlePan(0,1)">
                  <use xlink:href="#rim" fill="#404040">
                        <set attributeName="fill" to="#808080" begin="arrowDown.mouseover" end="arrowDown.mouseout"/>
                  </use>
                  <path fill="none" stroke="white" stroke-width="1.5" d="M0,-3.0v7 M-2.5,-0.5L0,-3.0L2.5,-0.5"/>
                </g>
                <g id="arrowLeft" xlink:href="#dirArrow" transform="rotate(270) translate(-36 17)" onmousedown="handlePan(-1,0)">
                  <use xlink:href="#rim" fill="#404040">
                        <set attributeName="fill" to="#808080" begin="arrowLeft.mouseover" end="arrowLeft.mouseout"/>
                  </use>
                  <path fill="none" stroke="white" stroke-width="1.5" d="M0,-3.0v7 M-2.5,-0.5L0,-3.0L2.5,-0.5"/>
                </g>
        </g>
        <svg viewBox="0 0 15 15" width="100%" height="30px" preserveAspectRatio="xMaxYMin meet">
         <g id="arrow_out" transform="scale(0.3 0.3)">
          <a xlink:href="classPETScWrappers_1_1PreconditionLU__coll__graph_org.svg" target="_base">
           <rect id="button" ry="5" rx="5" y="6" x="6" height="38" width="38"
                fill="#f2f5e9" fill-opacity="0.5" stroke="#606060" stroke-width="1.0"/>
           <path id="arrow"
             d="M 11.500037,31.436501 C 11.940474,20.09759 22.043105,11.32322 32.158766,21.979434 L 37.068811,17.246167 C 37.068811,17.246167 37.088388,32 37.088388,32 L 22.160133,31.978069 C 22.160133,31.978069 26.997745,27.140456 26.997745,27.140456 C 18.528582,18.264221 13.291696,25.230495 11.500037,31.436501 z"
             style="fill:#404040;"/>
          </a>
         </g>
        </svg>
</svg>
