<?xml version="1.0" encoding="UTF-8" standalone="no"?>
<!DOCTYPE svg PUBLIC "-//W3C//DTD SVG 1.1//EN"
 "http://www.w3.org/Graphics/SVG/1.1/DTD/svg11.dtd">
<!-- Generated by graphviz version 2.40.1 (20161225.0304)
 -->
<!-- Title: FE_Poly&lt; dim, spacedim &gt; Pages: 1 -->
<svg width="926pt" height="739pt"
 viewBox="0.00 0.00 926.00 739.00" xmlns="http://www.w3.org/2000/svg" xmlns:xlink="http://www.w3.org/1999/xlink">
<g id="graph0" class="graph" transform="scale(1 1) rotate(0) translate(4 735)">
<title>FE_Poly&lt; dim, spacedim &gt;</title>
<polygon fill="#ffffff" stroke="transparent" points="-4,4 -4,-735 922,-735 922,4 -4,4"/>
<!-- Node0 -->
<g id="node1" class="node">
<title>Node0</title>
<polygon fill="#bfbfbf" stroke="#000000" points="305,-361 305,-380 454,-380 454,-361 305,-361"/>
<text text-anchor="middle" x="379.5" y="-368" font-family="Helvetica,sans-Serif" font-size="10.00" fill="#000000">FE_Poly&lt; dim, spacedim &gt;</text>
</g>
<!-- Node4 -->
<g id="node5" class="node">
<title>Node4</title>
<g id="a_node5"><a xlink:href="classFE__DGP.html" target="_top" xlink:title="FE_DGP\&lt; dim, spacedim \&gt;">
<polygon fill="#ffffff" stroke="#000000" points="542.5,-646 542.5,-665 691.5,-665 691.5,-646 542.5,-646"/>
<text text-anchor="middle" x="617" y="-653" font-family="Helvetica,sans-Serif" font-size="10.00" fill="#000000">FE_DGP&lt; dim, spacedim &gt;</text>
</a>
</g>
</g>
<!-- Node0&#45;&gt;Node4 -->
<g id="edge4" class="edge">
<title>Node0&#45;&gt;Node4</title>
<path fill="none" stroke="#191970" d="M384.9409,-389.888C399.8938,-439.4276 446.5004,-571.3292 535,-636.5 540.1775,-640.3127 545.9976,-643.376 552.0864,-645.835"/>
<polygon fill="#191970" stroke="#191970" points="388.2524,-388.7419 382.087,-380.1258 381.5337,-390.7061 388.2524,-388.7419"/>
</g>
<!-- Node5 -->
<g id="node6" class="node">
<title>Node5</title>
<g id="a_node6"><a xlink:href="classFE__DGQ.html" target="_top" xlink:title="FE_DGQ\&lt; dim, spacedim \&gt;">
<polygon fill="#ffffff" stroke="#000000" points="542,-608 542,-627 692,-627 692,-608 542,-608"/>
<text text-anchor="middle" x="617" y="-615" font-family="Helvetica,sans-Serif" font-size="10.00" fill="#000000">FE_DGQ&lt; dim, spacedim &gt;</text>
</a>
</g>
</g>
<!-- Node0&#45;&gt;Node5 -->
<g id="edge5" class="edge">
<title>Node0&#45;&gt;Node5</title>
<path fill="none" stroke="#191970" d="M393.2575,-388.1854C419.3582,-421.3009 478.5182,-494.2984 535,-549.5 558.014,-571.9924 587.6253,-595.3235 604.2338,-607.9623"/>
<polygon fill="#191970" stroke="#191970" points="396.0025,-386.0139 387.0778,-380.3043 390.494,-390.3332 396.0025,-386.0139"/>
</g>
<!-- Node9 -->
<g id="node10" class="node">
<title>Node9</title>
<g id="a_node10"><a xlink:href="classFE__PyramidPoly.html" target="_top" xlink:title="FE_PyramidPoly\&lt; dim,\l spacedim \&gt;">
<polygon fill="#ffffff" stroke="#000000" points="553,-509.5 553,-539.5 681,-539.5 681,-509.5 553,-509.5"/>
<text text-anchor="start" x="561" y="-527.5" font-family="Helvetica,sans-Serif" font-size="10.00" fill="#000000">FE_PyramidPoly&lt; dim,</text>
<text text-anchor="middle" x="617" y="-516.5" font-family="Helvetica,sans-Serif" font-size="10.00" fill="#000000"> spacedim &gt;</text>
</a>
</g>
</g>
<!-- Node0&#45;&gt;Node9 -->
<g id="edge9" class="edge">
<title>Node0&#45;&gt;Node9</title>
<path fill="none" stroke="#191970" d="M402.9575,-385.7103C448.4856,-415.2317 548.3311,-479.9737 593.7187,-509.4039"/>
<polygon fill="#191970" stroke="#191970" points="404.6514,-382.6373 394.3567,-380.1334 400.843,-388.5107 404.6514,-382.6373"/>
</g>
<!-- Node12 -->
<g id="node13" class="node">
<title>Node12</title>
<g id="a_node13"><a xlink:href="classFE__Q__Base.html" target="_top" xlink:title="FE_Q_Base\&lt; dim, spacedim \&gt;">
<polygon fill="#ffffff" stroke="#000000" points="535,-383 535,-402 699,-402 699,-383 535,-383"/>
<text text-anchor="middle" x="617" y="-390" font-family="Helvetica,sans-Serif" font-size="10.00" fill="#000000">FE_Q_Base&lt; dim, spacedim &gt;</text>
</a>
</g>
</g>
<!-- Node0&#45;&gt;Node12 -->
<g id="edge12" class="edge">
<title>Node0&#45;&gt;Node12</title>
<path fill="none" stroke="#191970" d="M464.3511,-378.3599C487.2445,-380.4805 511.9727,-382.7712 534.7228,-384.8785"/>
<polygon fill="#191970" stroke="#191970" points="464.6007,-374.8681 454.3205,-377.4307 463.955,-381.8383 464.6007,-374.8681"/>
</g>
<!-- Node18 -->
<g id="node19" class="node">
<title>Node18</title>
<g id="a_node19"><a xlink:href="classFE__SimplexP__Bubbles.html" target="_top" xlink:title="Enriched version of FE_P that can be used with nodal quadrature. 许多显式时间积分方案需要在每个时间步...">
<polygon fill="#ffffff" stroke="#000000" points="555.5,-333.5 555.5,-363.5 678.5,-363.5 678.5,-333.5 555.5,-333.5"/>
<text text-anchor="start" x="563.5" y="-351.5" font-family="Helvetica,sans-Serif" font-size="10.00" fill="#000000">FE_SimplexP_Bubbles</text>
<text text-anchor="middle" x="617" y="-340.5" font-family="Helvetica,sans-Serif" font-size="10.00" fill="#000000">&lt; dim, spacedim &gt;</text>
</a>
</g>
</g>
<!-- Node0&#45;&gt;Node18 -->
<g id="edge18" class="edge">
<title>Node0&#45;&gt;Node18</title>
<path fill="none" stroke="#191970" d="M464.3675,-362.6386C494.3861,-359.8579 527.5573,-356.7852 555.2868,-354.2166"/>
<polygon fill="#191970" stroke="#191970" points="463.955,-359.1617 454.3205,-363.5693 464.6007,-366.1319 463.955,-359.1617"/>
</g>
<!-- Node19 -->
<g id="node20" class="node">
<title>Node19</title>
<g id="a_node20"><a xlink:href="classFE__SimplexPoly.html" target="_top" xlink:title="FE_SimplexPoly\&lt; dim,\l spacedim \&gt;">
<polygon fill="#ffffff" stroke="#000000" points="553.5,-251.5 553.5,-281.5 680.5,-281.5 680.5,-251.5 553.5,-251.5"/>
<text text-anchor="start" x="561.5" y="-269.5" font-family="Helvetica,sans-Serif" font-size="10.00" fill="#000000">FE_SimplexPoly&lt; dim,</text>
<text text-anchor="middle" x="617" y="-258.5" font-family="Helvetica,sans-Serif" font-size="10.00" fill="#000000"> spacedim &gt;</text>
</a>
</g>
</g>
<!-- Node0&#45;&gt;Node19 -->
<g id="edge19" class="edge">
<title>Node0&#45;&gt;Node19</title>
<path fill="none" stroke="#191970" d="M410.8537,-356.7704C455.3525,-337.2846 536.5295,-301.7376 582.6241,-281.553"/>
<polygon fill="#191970" stroke="#191970" points="409.174,-353.685 401.4177,-360.9023 411.9819,-360.0972 409.174,-353.685"/>
</g>
<!-- Node22 -->
<g id="node23" class="node">
<title>Node22</title>
<g id="a_node23"><a xlink:href="classFE__WedgePoly.html" target="_top" xlink:title="FE_WedgePoly\&lt; dim,\l spacedim \&gt;">
<polygon fill="#ffffff" stroke="#000000" points="557,-169.5 557,-199.5 677,-199.5 677,-169.5 557,-169.5"/>
<text text-anchor="start" x="565" y="-187.5" font-family="Helvetica,sans-Serif" font-size="10.00" fill="#000000">FE_WedgePoly&lt; dim,</text>
<text text-anchor="middle" x="617" y="-176.5" font-family="Helvetica,sans-Serif" font-size="10.00" fill="#000000"> spacedim &gt;</text>
</a>
</g>
</g>
<!-- Node0&#45;&gt;Node22 -->
<g id="edge22" class="edge">
<title>Node0&#45;&gt;Node22</title>
<path fill="none" stroke="#191970" d="M398.2132,-354.0923C427.0039,-329.0529 484.1687,-280.1408 535,-241.5 554.4614,-226.7059 577.3604,-210.9169 594.0064,-199.7169"/>
<polygon fill="#191970" stroke="#191970" points="395.7852,-351.5657 390.55,-360.7767 400.3866,-356.8408 395.7852,-351.5657"/>
</g>
<!-- Node25 -->
<g id="node26" class="node">
<title>Node25</title>
<g id="a_node26"><a xlink:href="classFE__Poly.html" target="_top" xlink:title="FE_Poly\&lt; dim \&gt;">
<polygon fill="#ffffff" stroke="#000000" points="569.5,-77 569.5,-96 664.5,-96 664.5,-77 569.5,-77"/>
<text text-anchor="middle" x="617" y="-84" font-family="Helvetica,sans-Serif" font-size="10.00" fill="#000000">FE_Poly&lt; dim &gt;</text>
</a>
</g>
</g>
<!-- Node0&#45;&gt;Node25 -->
<g id="edge25" class="edge">
<title>Node0&#45;&gt;Node25</title>
<path fill="none" stroke="#ffa500" stroke-dasharray="5,2" d="M391.0398,-352.1898C415.3353,-314.2864 474.5228,-225.2765 535,-159.5 557.7048,-134.8057 587.9483,-109.5621 604.6332,-96.1965"/>
<polygon fill="#ffa500" stroke="#ffa500" points="388.0527,-350.3645 385.6352,-360.6799 393.9578,-354.1236 388.0527,-350.3645"/>
<text text-anchor="middle" x="494.5" y="-235.5" font-family="Helvetica,sans-Serif" font-size="10.00" fill="#000000"> &lt; dim &gt;</text>
</g>
<!-- Node1 -->
<g id="node2" class="node">
<title>Node1</title>
<g id="a_node2"><a xlink:href="classFiniteElement.html" target="_top" xlink:title="FiniteElement\&lt; dim,\l spacedim \&gt;">
<polygon fill="#ffffff" stroke="#000000" points="152,-355.5 152,-385.5 268,-385.5 268,-355.5 152,-355.5"/>
<text text-anchor="start" x="160" y="-373.5" font-family="Helvetica,sans-Serif" font-size="10.00" fill="#000000">FiniteElement&lt; dim,</text>
<text text-anchor="middle" x="210" y="-362.5" font-family="Helvetica,sans-Serif" font-size="10.00" fill="#000000"> spacedim &gt;</text>
</a>
</g>
</g>
<!-- Node1&#45;&gt;Node0 -->
<g id="edge1" class="edge">
<title>Node1&#45;&gt;Node0</title>
<path fill="none" stroke="#191970" d="M278.4269,-370.5C287.1394,-370.5 296.0911,-370.5 304.8947,-370.5"/>
<polygon fill="#191970" stroke="#191970" points="278.3323,-367.0001 268.3323,-370.5 278.3322,-374.0001 278.3323,-367.0001"/>
</g>
<!-- Node2 -->
<g id="node3" class="node">
<title>Node2</title>
<g id="a_node3"><a xlink:href="classSubscriptor.html" target="_top" xlink:title="Subscriptor">
<polygon fill="#ffffff" stroke="#000000" points="22,-383 22,-402 93,-402 93,-383 22,-383"/>
<text text-anchor="middle" x="57.5" y="-390" font-family="Helvetica,sans-Serif" font-size="10.00" fill="#000000">Subscriptor</text>
</a>
</g>
</g>
<!-- Node2&#45;&gt;Node1 -->
<g id="edge2" class="edge">
<title>Node2&#45;&gt;Node1</title>
<path fill="none" stroke="#191970" d="M103.4415,-385.8724C118.6539,-383.6778 135.7886,-381.2059 151.7973,-378.8965"/>
<polygon fill="#191970" stroke="#191970" points="102.6522,-382.4499 93.2545,-387.342 103.6518,-389.3782 102.6522,-382.4499"/>
</g>
<!-- Node3 -->
<g id="node4" class="node">
<title>Node3</title>
<g id="a_node4"><a xlink:href="classFiniteElementData.html" target="_top" xlink:title="FiniteElementData\&lt;\l dim \&gt;">
<polygon fill="#ffffff" stroke="#000000" points="0,-333.5 0,-363.5 115,-363.5 115,-333.5 0,-333.5"/>
<text text-anchor="start" x="8" y="-351.5" font-family="Helvetica,sans-Serif" font-size="10.00" fill="#000000">FiniteElementData&lt;</text>
<text text-anchor="middle" x="57.5" y="-340.5" font-family="Helvetica,sans-Serif" font-size="10.00" fill="#000000"> dim &gt;</text>
</a>
</g>
</g>
<!-- Node3&#45;&gt;Node1 -->
<g id="edge3" class="edge">
<title>Node3&#45;&gt;Node1</title>
<path fill="none" stroke="#191970" d="M125.0987,-358.252C133.9903,-359.5347 143.0408,-360.8403 151.7582,-362.0979"/>
<polygon fill="#191970" stroke="#191970" points="125.551,-354.781 115.1537,-356.8173 124.5515,-361.7093 125.551,-354.781"/>
</g>
<!-- Node6 -->
<g id="node7" class="node">
<title>Node6</title>
<g id="a_node7"><a xlink:href="classFE__DGQArbitraryNodes.html" target="_top" xlink:title="FE_DGQArbitraryNodes\l\&lt; dim, spacedim \&gt;">
<polygon fill="#ffffff" stroke="#000000" points="762.5,-700.5 762.5,-730.5 891.5,-730.5 891.5,-700.5 762.5,-700.5"/>
<text text-anchor="start" x="770.5" y="-718.5" font-family="Helvetica,sans-Serif" font-size="10.00" fill="#000000">FE_DGQArbitraryNodes</text>
<text text-anchor="middle" x="827" y="-707.5" font-family="Helvetica,sans-Serif" font-size="10.00" fill="#000000">&lt; dim, spacedim &gt;</text>
</a>
</g>
</g>
<!-- Node5&#45;&gt;Node6 -->
<g id="edge6" class="edge">
<title>Node5&#45;&gt;Node6</title>
<path fill="none" stroke="#191970" d="M689.7631,-631.0819C692.9842,-632.6924 696.0834,-634.4912 699,-636.5 723.2627,-653.2114 711.9922,-674.4244 736,-691.5 743.8556,-697.0873 752.9238,-701.374 762.2284,-704.6628"/>
<polygon fill="#191970" stroke="#191970" points="690.9796,-627.7945 680.4128,-627.0237 688.1926,-634.2158 690.9796,-627.7945"/>
</g>
<!-- Node7 -->
<g id="node8" class="node">
<title>Node7</title>
<g id="a_node8"><a xlink:href="classFE__DGQHermite.html" target="_top" xlink:title="FE_DGQHermite\&lt; dim,\l spacedim \&gt;">
<polygon fill="#ffffff" stroke="#000000" points="763,-651.5 763,-681.5 891,-681.5 891,-651.5 763,-651.5"/>
<text text-anchor="start" x="771" y="-669.5" font-family="Helvetica,sans-Serif" font-size="10.00" fill="#000000">FE_DGQHermite&lt; dim,</text>
<text text-anchor="middle" x="827" y="-658.5" font-family="Helvetica,sans-Serif" font-size="10.00" fill="#000000"> spacedim &gt;</text>
</a>
</g>
</g>
<!-- Node5&#45;&gt;Node7 -->
<g id="edge7" class="edge">
<title>Node5&#45;&gt;Node7</title>
<path fill="none" stroke="#191970" d="M668.2922,-629.3638C678.4685,-631.7234 689.0732,-634.1867 699,-636.5 719.7839,-641.3435 742.4605,-646.6509 762.8748,-651.4371"/>
<polygon fill="#191970" stroke="#191970" points="668.8316,-625.8961 658.2996,-627.048 667.2512,-632.7154 668.8316,-625.8961"/>
</g>
<!-- Node8 -->
<g id="node9" class="node">
<title>Node8</title>
<g id="a_node9"><a xlink:href="classFE__DGQLegendre.html" target="_top" xlink:title="FE_DGQLegendre\&lt; dim,\l spacedim \&gt;">
<polygon fill="#ffffff" stroke="#000000" points="760,-602.5 760,-632.5 894,-632.5 894,-602.5 760,-602.5"/>
<text text-anchor="start" x="768" y="-620.5" font-family="Helvetica,sans-Serif" font-size="10.00" fill="#000000">FE_DGQLegendre&lt; dim,</text>
<text text-anchor="middle" x="827" y="-609.5" font-family="Helvetica,sans-Serif" font-size="10.00" fill="#000000"> spacedim &gt;</text>
</a>
</g>
</g>
<!-- Node5&#45;&gt;Node8 -->
<g id="edge8" class="edge">
<title>Node5&#45;&gt;Node8</title>
<path fill="none" stroke="#191970" d="M702.4522,-617.5C721.6174,-617.5 741.6833,-617.5 759.9728,-617.5"/>
<polygon fill="#191970" stroke="#191970" points="702.2217,-614.0001 692.2217,-617.5 702.2216,-621.0001 702.2217,-614.0001"/>
</g>
<!-- Node10 -->
<g id="node11" class="node">
<title>Node10</title>
<g id="a_node11"><a xlink:href="classFE__PyramidDGP.html" target="_top" xlink:title="FE_PyramidDGP\&lt; dim,\l spacedim \&gt;">
<polygon fill="#ffffff" stroke="#000000" points="763,-553.5 763,-583.5 891,-583.5 891,-553.5 763,-553.5"/>
<text text-anchor="start" x="771" y="-571.5" font-family="Helvetica,sans-Serif" font-size="10.00" fill="#000000">FE_PyramidDGP&lt; dim,</text>
<text text-anchor="middle" x="827" y="-560.5" font-family="Helvetica,sans-Serif" font-size="10.00" fill="#000000"> spacedim &gt;</text>
</a>
</g>
</g>
<!-- Node9&#45;&gt;Node10 -->
<g id="edge10" class="edge">
<title>Node9&#45;&gt;Node10</title>
<path fill="none" stroke="#191970" d="M691.0422,-540.0136C714.4876,-544.926 740.1945,-550.3122 762.8833,-555.066"/>
<polygon fill="#191970" stroke="#191970" points="691.6532,-536.5657 681.148,-537.9405 690.2177,-543.4169 691.6532,-536.5657"/>
</g>
<!-- Node11 -->
<g id="node12" class="node">
<title>Node11</title>
<g id="a_node12"><a xlink:href="classFE__PyramidP.html" target="_top" xlink:title="FE_PyramidP\&lt; dim, spacedim \&gt;">
<polygon fill="#ffffff" stroke="#000000" points="740,-515 740,-534 914,-534 914,-515 740,-515"/>
<text text-anchor="middle" x="827" y="-522" font-family="Helvetica,sans-Serif" font-size="10.00" fill="#000000">FE_PyramidP&lt; dim, spacedim &gt;</text>
</a>
</g>
</g>
<!-- Node9&#45;&gt;Node11 -->
<g id="edge11" class="edge">
<title>Node9&#45;&gt;Node11</title>
<path fill="none" stroke="#191970" d="M691.273,-524.5C706.9245,-524.5 723.5749,-524.5 739.6563,-524.5"/>
<polygon fill="#191970" stroke="#191970" points="691.148,-521.0001 681.148,-524.5 691.148,-528.0001 691.148,-521.0001"/>
</g>
<!-- Node13 -->
<g id="node14" class="node">
<title>Node13</title>
<g id="a_node14"><a xlink:href="classFE__Bernstein.html" target="_top" xlink:title="FE_Bernstein\&lt; dim,\l spacedim \&gt;">
<polygon fill="#ffffff" stroke="#000000" points="770.5,-465.5 770.5,-495.5 883.5,-495.5 883.5,-465.5 770.5,-465.5"/>
<text text-anchor="start" x="778.5" y="-483.5" font-family="Helvetica,sans-Serif" font-size="10.00" fill="#000000">FE_Bernstein&lt; dim,</text>
<text text-anchor="middle" x="827" y="-472.5" font-family="Helvetica,sans-Serif" font-size="10.00" fill="#000000"> spacedim &gt;</text>
</a>
</g>
</g>
<!-- Node12&#45;&gt;Node13 -->
<g id="edge13" class="edge">
<title>Node12&#45;&gt;Node13</title>
<path fill="none" stroke="#191970" d="M641.2555,-407.3713C664.789,-421.3048 701.8528,-441.9599 736,-455.5 746.8135,-459.7878 758.6286,-463.6202 770.0579,-466.92"/>
<polygon fill="#191970" stroke="#191970" points="643.0149,-404.3453 632.6374,-402.2102 639.4184,-410.3508 643.0149,-404.3453"/>
</g>
<!-- Node14 -->
<g id="node15" class="node">
<title>Node14</title>
<g id="a_node15"><a xlink:href="classFE__Q.html" target="_top" xlink:title="FE_Q\&lt; dim, spacedim \&gt;">
<polygon fill="#ffffff" stroke="#000000" points="759.5,-427 759.5,-446 894.5,-446 894.5,-427 759.5,-427"/>
<text text-anchor="middle" x="827" y="-434" font-family="Helvetica,sans-Serif" font-size="10.00" fill="#000000">FE_Q&lt; dim, spacedim &gt;</text>
</a>
</g>
</g>
<!-- Node12&#45;&gt;Node14 -->
<g id="edge14" class="edge">
<title>Node12&#45;&gt;Node14</title>
<path fill="none" stroke="#191970" d="M672.1283,-404.0964C692.2308,-408.3211 715.1423,-413.1316 736,-417.5 750.6908,-420.5768 766.7174,-423.9256 781.1704,-426.9427"/>
<polygon fill="#191970" stroke="#191970" points="672.7095,-400.6422 662.2034,-402.0103 671.2696,-407.4925 672.7095,-400.6422"/>
</g>
<!-- Node15 -->
<g id="node16" class="node">
<title>Node15</title>
<g id="a_node16"><a xlink:href="classFE__Q__Bubbles.html" target="_top" xlink:title="FE_Q_Bubbles\&lt; dim,\l spacedim \&gt;">
<polygon fill="#ffffff" stroke="#000000" points="768,-377.5 768,-407.5 886,-407.5 886,-377.5 768,-377.5"/>
<text text-anchor="start" x="776" y="-395.5" font-family="Helvetica,sans-Serif" font-size="10.00" fill="#000000">FE_Q_Bubbles&lt; dim,</text>
<text text-anchor="middle" x="827" y="-384.5" font-family="Helvetica,sans-Serif" font-size="10.00" fill="#000000"> spacedim &gt;</text>
</a>
</g>
</g>
<!-- Node12&#45;&gt;Node15 -->
<g id="edge15" class="edge">
<title>Node12&#45;&gt;Node15</title>
<path fill="none" stroke="#191970" d="M709.1014,-392.5C728.9797,-392.5 749.4841,-392.5 767.7066,-392.5"/>
<polygon fill="#191970" stroke="#191970" points="709.0938,-389.0001 699.0937,-392.5 709.0937,-396.0001 709.0938,-389.0001"/>
</g>
<!-- Node16 -->
<g id="node17" class="node">
<title>Node16</title>
<g id="a_node17"><a xlink:href="classFE__Q__DG0.html" target="_top" xlink:title="FE_Q_DG0\&lt; dim, spacedim \&gt;">
<polygon fill="#ffffff" stroke="#000000" points="746.5,-339 746.5,-358 907.5,-358 907.5,-339 746.5,-339"/>
<text text-anchor="middle" x="827" y="-346" font-family="Helvetica,sans-Serif" font-size="10.00" fill="#000000">FE_Q_DG0&lt; dim, spacedim &gt;</text>
</a>
</g>
</g>
<!-- Node12&#45;&gt;Node16 -->
<g id="edge16" class="edge">
<title>Node12&#45;&gt;Node16</title>
<path fill="none" stroke="#191970" d="M672.3637,-380.9C706.4035,-373.7678 749.4831,-364.7416 781.5221,-358.0287"/>
<polygon fill="#191970" stroke="#191970" points="671.6366,-377.4763 662.5669,-382.9527 673.0721,-384.3275 671.6366,-377.4763"/>
</g>
<!-- Node17 -->
<g id="node18" class="node">
<title>Node17</title>
<g id="a_node18"><a xlink:href="classFE__Q__iso__Q1.html" target="_top" xlink:title="FE_Q_iso_Q1\&lt; dim, spacedim \&gt;">
<polygon fill="#ffffff" stroke="#000000" points="740.5,-301 740.5,-320 913.5,-320 913.5,-301 740.5,-301"/>
<text text-anchor="middle" x="827" y="-308" font-family="Helvetica,sans-Serif" font-size="10.00" fill="#000000">FE_Q_iso_Q1&lt; dim, spacedim &gt;</text>
</a>
</g>
</g>
<!-- Node12&#45;&gt;Node17 -->
<g id="edge17" class="edge">
<title>Node12&#45;&gt;Node17</title>
<path fill="none" stroke="#191970" d="M685.1547,-379.4644C689.9884,-377.4651 694.6602,-375.1593 699,-372.5 720.4974,-359.3274 714.2857,-342.3118 736,-329.5 742.5331,-325.6454 749.7346,-322.5657 757.1389,-320.1063"/>
<polygon fill="#191970" stroke="#191970" points="683.8792,-376.2043 675.7043,-382.9439 686.2978,-382.7732 683.8792,-376.2043"/>
</g>
<!-- Node20 -->
<g id="node21" class="node">
<title>Node20</title>
<g id="a_node21"><a xlink:href="classFE__SimplexDGP.html" target="_top" xlink:title="FE_SimplexDGP\&lt; dim,\l spacedim \&gt;">
<polygon fill="#ffffff" stroke="#000000" points="763.5,-251.5 763.5,-281.5 890.5,-281.5 890.5,-251.5 763.5,-251.5"/>
<text text-anchor="start" x="771.5" y="-269.5" font-family="Helvetica,sans-Serif" font-size="10.00" fill="#000000">FE_SimplexDGP&lt; dim,</text>
<text text-anchor="middle" x="827" y="-258.5" font-family="Helvetica,sans-Serif" font-size="10.00" fill="#000000"> spacedim &gt;</text>
</a>
</g>
</g>
<!-- Node19&#45;&gt;Node20 -->
<g id="edge20" class="edge">
<title>Node19&#45;&gt;Node20</title>
<path fill="none" stroke="#191970" d="M690.8941,-266.5C714.515,-266.5 740.4446,-266.5 763.2772,-266.5"/>
<polygon fill="#191970" stroke="#191970" points="690.5768,-263.0001 680.5768,-266.5 690.5768,-270.0001 690.5768,-263.0001"/>
</g>
<!-- Node21 -->
<g id="node22" class="node">
<title>Node21</title>
<g id="a_node22"><a xlink:href="classFE__SimplexP.html" target="_top" xlink:title="FE_SimplexP\&lt; dim, spacedim \&gt;">
<polygon fill="#ffffff" stroke="#000000" points="740.5,-213 740.5,-232 913.5,-232 913.5,-213 740.5,-213"/>
<text text-anchor="middle" x="827" y="-220" font-family="Helvetica,sans-Serif" font-size="10.00" fill="#000000">FE_SimplexP&lt; dim, spacedim &gt;</text>
</a>
</g>
</g>
<!-- Node19&#45;&gt;Node21 -->
<g id="edge21" class="edge">
<title>Node19&#45;&gt;Node21</title>
<path fill="none" stroke="#191970" d="M690.4003,-251.0649C705.4811,-247.8978 721.2538,-244.5884 736,-241.5 750.6908,-238.4232 766.7174,-235.0744 781.1704,-232.0573"/>
<polygon fill="#191970" stroke="#191970" points="689.6746,-247.6409 680.6076,-253.1219 691.1136,-254.4914 689.6746,-247.6409"/>
</g>
<!-- Node23 -->
<g id="node24" class="node">
<title>Node23</title>
<g id="a_node24"><a xlink:href="classFE__WedgeDGP.html" target="_top" xlink:title="FE_WedgeDGP\&lt; dim, spacedim \&gt;">
<polygon fill="#ffffff" stroke="#000000" points="736,-175 736,-194 918,-194 918,-175 736,-175"/>
<text text-anchor="middle" x="827" y="-182" font-family="Helvetica,sans-Serif" font-size="10.00" fill="#000000">FE_WedgeDGP&lt; dim, spacedim &gt;</text>
</a>
</g>
</g>
<!-- Node22&#45;&gt;Node23 -->
<g id="edge23" class="edge">
<title>Node22&#45;&gt;Node23</title>
<path fill="none" stroke="#191970" d="M687.2428,-184.5C702.8378,-184.5 719.5858,-184.5 735.8799,-184.5"/>
<polygon fill="#191970" stroke="#191970" points="687.1776,-181.0001 677.1776,-184.5 687.1775,-188.0001 687.1776,-181.0001"/>
</g>
<!-- Node24 -->
<g id="node25" class="node">
<title>Node24</title>
<g id="a_node25"><a xlink:href="classFE__WedgeP.html" target="_top" xlink:title="FE_WedgeP\&lt; dim, spacedim \&gt;">
<polygon fill="#ffffff" stroke="#000000" points="743.5,-137 743.5,-156 910.5,-156 910.5,-137 743.5,-137"/>
<text text-anchor="middle" x="827" y="-144" font-family="Helvetica,sans-Serif" font-size="10.00" fill="#000000">FE_WedgeP&lt; dim, spacedim &gt;</text>
</a>
</g>
</g>
<!-- Node22&#45;&gt;Node24 -->
<g id="edge24" class="edge">
<title>Node22&#45;&gt;Node24</title>
<path fill="none" stroke="#191970" d="M687.0732,-171.8201C715.5513,-166.6669 747.8978,-160.8137 774.312,-156.034"/>
<polygon fill="#191970" stroke="#191970" points="686.3945,-168.386 677.1776,-173.6107 687.641,-175.2741 686.3945,-168.386"/>
</g>
<!-- Node26 -->
<g id="node27" class="node">
<title>Node26</title>
<g id="a_node27"><a xlink:href="classFE__DGPMonomial.html" target="_top" xlink:title="FE_DGPMonomial\&lt; dim \&gt;">
<polygon fill="#ffffff" stroke="#000000" points="755.5,-99 755.5,-118 898.5,-118 898.5,-99 755.5,-99"/>
<text text-anchor="middle" x="827" y="-106" font-family="Helvetica,sans-Serif" font-size="10.00" fill="#000000">FE_DGPMonomial&lt; dim &gt;</text>
</a>
</g>
</g>
<!-- Node25&#45;&gt;Node26 -->
<g id="edge26" class="edge">
<title>Node25&#45;&gt;Node26</title>
<path fill="none" stroke="#191970" d="M674.663,-92.5409C699.5486,-95.1479 728.9209,-98.225 755.2003,-100.9781"/>
<polygon fill="#191970" stroke="#191970" points="674.9625,-89.0532 664.6523,-91.4921 674.2331,-96.0151 674.9625,-89.0532"/>
</g>
<!-- Node27 -->
<g id="node28" class="node">
<title>Node27</title>
<g id="a_node28"><a xlink:href="classFE__Q__Hierarchical.html" target="_top" xlink:title="FE_Q_Hierarchical\&lt;\l dim \&gt;">
<polygon fill="#ffffff" stroke="#000000" points="770.5,-49.5 770.5,-79.5 883.5,-79.5 883.5,-49.5 770.5,-49.5"/>
<text text-anchor="start" x="778.5" y="-67.5" font-family="Helvetica,sans-Serif" font-size="10.00" fill="#000000">FE_Q_Hierarchical&lt;</text>
<text text-anchor="middle" x="827" y="-56.5" font-family="Helvetica,sans-Serif" font-size="10.00" fill="#000000"> dim &gt;</text>
</a>
</g>
</g>
<!-- Node25&#45;&gt;Node27 -->
<g id="edge27" class="edge">
<title>Node25&#45;&gt;Node27</title>
<path fill="none" stroke="#191970" d="M674.8763,-80.4368C704.5899,-77.3239 740.6559,-73.5456 770.2121,-70.4492"/>
<polygon fill="#191970" stroke="#191970" points="674.2331,-76.9849 664.6523,-81.5079 674.9625,-83.9468 674.2331,-76.9849"/>
</g>
<!-- Node28 -->
<g id="node29" class="node">
<title>Node28</title>
<g id="a_node29"><a xlink:href="classFE__RannacherTurek.html" target="_top" xlink:title="FE_RannacherTurek\&lt;\l dim \&gt;">
<polygon fill="#ffffff" stroke="#000000" points="767.5,-.5 767.5,-30.5 886.5,-30.5 886.5,-.5 767.5,-.5"/>
<text text-anchor="start" x="775.5" y="-18.5" font-family="Helvetica,sans-Serif" font-size="10.00" fill="#000000">FE_RannacherTurek&lt;</text>
<text text-anchor="middle" x="827" y="-7.5" font-family="Helvetica,sans-Serif" font-size="10.00" fill="#000000"> dim &gt;</text>
</a>
</g>
</g>
<!-- Node25&#45;&gt;Node28 -->
<g id="edge28" class="edge">
<title>Node25&#45;&gt;Node28</title>
<path fill="none" stroke="#191970" d="M648.3168,-72.9545C672.1012,-62.9561 705.7633,-49.4198 736,-39.5 746.0911,-36.1894 756.9244,-33.0127 767.4725,-30.1154"/>
<polygon fill="#191970" stroke="#191970" points="646.9252,-69.7429 639.0832,-76.867 649.6563,-76.1881 646.9252,-69.7429"/>
</g>
</g>
</svg>
