<?xml version="1.0" encoding="UTF-8" standalone="no"?>
<!DOCTYPE svg PUBLIC "-//W3C//DTD SVG 1.1//EN"
 "http://www.w3.org/Graphics/SVG/1.1/DTD/svg11.dtd">
<!-- Generated by graphviz version 2.40.1 (20161225.0304)
 -->
<!-- Title: internal::MatrixFreeFunctions::color::PartitionWork Pages: 1 -->
<!--zoomable 981 -->
<svg id="main" version="1.1" xmlns="http://www.w3.org/2000/svg" xmlns:xlink="http://www.w3.org/1999/xlink" xml:space="preserve" onload="init(evt)">
<style type="text/css"><![CDATA[
.edge:hover path { stroke: red; }
.edge:hover polygon { stroke: red; fill: red; }
]]></style>
<script type="text/javascript"><![CDATA[
var edges = document.getElementsByTagName('g');
if (edges && edges.length) {
  for (var i=0;i<edges.length;i++) {
    if (edges[i].id.substr(0,4)=='edge') {
      edges[i].setAttribute('class','edge');
    }
  }
}
]]></script>
        <defs>
                <circle id="rim" cx="0" cy="0" r="7"/>
                <circle id="rim2" cx="0" cy="0" r="3.5"/>
                <g id="zoomPlus">
                        <use xlink:href="#rim" fill="#404040">
                                <set attributeName="fill" to="#808080" begin="zoomplus.mouseover" end="zoomplus.mouseout"/>
                        </use>
                        <path d="M-4,0h8M0,-4v8" fill="none" stroke="white" stroke-width="1.5" pointer-events="none"/>
                </g>
                <g id="zoomMin">
                        <use xlink:href="#rim" fill="#404040">
                                <set attributeName="fill" to="#808080" begin="zoomminus.mouseover" end="zoomminus.mouseout"/>
                        </use>
                        <path d="M-4,0h8" fill="none" stroke="white" stroke-width="1.5" pointer-events="none"/>
                </g>
                <g id="dirArrow">
                        <path fill="none" stroke="white" stroke-width="1.5" d="M0,-3.0v7 M-2.5,-0.5L0,-3.0L2.5,-0.5"/>
                </g>
               <g id="resetDef">
                       <use xlink:href="#rim2" fill="#404040">
                               <set attributeName="fill" to="#808080" begin="reset.mouseover" end="reset.mouseout"/>
                       </use>
               </g>
        </defs>

<script type="text/javascript">
var viewWidth = 926;
var viewHeight = 981;
var sectionId = 'dynsection-1';
</script>
<script xlink:href="svgpan.js"/>
<svg id="graph" class="graph">
<g id="viewport">
<title>internal::MatrixFreeFunctions::color::PartitionWork</title>
<polygon fill="#ffffff" stroke="transparent" points="-4,4 -4,-977 921.5,-977 921.5,4 -4,4"/>
<!-- Node2 -->
<g id="node1" class="node">
<title>Node2</title>
<polygon fill="#bfbfbf" stroke="#000000" points="551,-.5 551,-79.5 694,-79.5 694,-.5 551,-.5"/>
<text text-anchor="start" x="559" y="-67.5" font-family="Helvetica,sans-Serif" font-size="10.00" fill="#000000">internal::MatrixFreeFunctions</text>
<text text-anchor="middle" x="622.5" y="-56.5" font-family="Helvetica,sans-Serif" font-size="10.00" fill="#000000">::color::PartitionWork</text>
<polyline fill="none" stroke="#000000" points="551,-49.5 694,-49.5 "/>
<text text-anchor="middle" x="622.5" y="-37.5" font-family="Helvetica,sans-Serif" font-size="10.00" fill="#000000"> </text>
<polyline fill="none" stroke="#000000" points="551,-30.5 694,-30.5 "/>
<text text-anchor="start" x="559" y="-18.5" font-family="Helvetica,sans-Serif" font-size="10.00" fill="#000000">+ PartitionWork()</text>
<text text-anchor="start" x="559" y="-7.5" font-family="Helvetica,sans-Serif" font-size="10.00" fill="#000000">+ execute()</text>
</g>
<!-- Node3 -->
<g id="node2" class="node">
<title>Node3</title>
<polygon fill="#ffffff" stroke="#bfbfbf" points="273,-259.5 273,-316.5 308,-316.5 308,-259.5 273,-259.5"/>
<text text-anchor="middle" x="290.5" y="-304.5" font-family="Helvetica,sans-Serif" font-size="10.00" fill="#000000">task</text>
<polyline fill="none" stroke="#bfbfbf" points="273,-297.5 308,-297.5 "/>
<text text-anchor="middle" x="290.5" y="-285.5" font-family="Helvetica,sans-Serif" font-size="10.00" fill="#000000"> </text>
<polyline fill="none" stroke="#bfbfbf" points="273,-278.5 308,-278.5 "/>
<text text-anchor="middle" x="290.5" y="-266.5" font-family="Helvetica,sans-Serif" font-size="10.00" fill="#000000"> </text>
</g>
<!-- Node3&#45;&gt;Node2 -->
<g id="edge1" class="edge">
<title>Node3&#45;&gt;Node2</title>
<path fill="none" stroke="#191970" d="M285.9033,-249.2927C283.8715,-213.2453 286.957,-160.2153 316.5,-127 347.4705,-92.1797 470.5732,-65.462 550.8876,-51.2948"/>
<polygon fill="none" stroke="#191970" points="282.4244,-249.7132 286.634,-259.4358 289.4063,-249.2101 282.4244,-249.7132"/>
</g>
<!-- Node4 -->
<g id="node3" class="node">
<title>Node4</title>
<g id="a_node3"><a xlink:href="structinternal_1_1MatrixFreeFunctions_1_1TaskInfo.html" target="_top" xlink:title="{internal::MatrixFreeFunctions\l::TaskInfo\n|+ block_size\l+ boundary_partition\l_data_hp\l+ ghost_face_partition_data\l+ refinement_edge_face\l_partition_data\l+ partition_odds\l+ partition_n_blocked\l_workers\l+ partition_n_workers\l|+ TaskInfo()\l+ clear()\l+ loop()\l+ make_boundary_cells\l_divisible()\l+ create_blocks_serial()\l+ initial_setup_blocks\l_tasks()\l+ guess_block_size()\l+ make_thread_graph_partition\l_color()\l+ make_thread_graph_partition\l_partition()\l+ make_thread_graph()\land 8 more...\l}">
<polygon fill="#ffffff" stroke="#000000" points="326,-127.5 326,-448.5 477,-448.5 477,-127.5 326,-127.5"/>
<text text-anchor="start" x="334" y="-436.5" font-family="Helvetica,sans-Serif" font-size="10.00" fill="#000000">internal::MatrixFreeFunctions</text>
<text text-anchor="middle" x="401.5" y="-425.5" font-family="Helvetica,sans-Serif" font-size="10.00" fill="#000000">::TaskInfo</text>
<polyline fill="none" stroke="#000000" points="326,-418.5 477,-418.5 "/>
<text text-anchor="start" x="334" y="-406.5" font-family="Helvetica,sans-Serif" font-size="10.00" fill="#000000">+ block_size</text>
<text text-anchor="start" x="334" y="-395.5" font-family="Helvetica,sans-Serif" font-size="10.00" fill="#000000">+ boundary_partition</text>
<text text-anchor="start" x="334" y="-384.5" font-family="Helvetica,sans-Serif" font-size="10.00" fill="#000000">_data_hp</text>
<text text-anchor="start" x="334" y="-373.5" font-family="Helvetica,sans-Serif" font-size="10.00" fill="#000000">+ ghost_face_partition_data</text>
<text text-anchor="start" x="334" y="-362.5" font-family="Helvetica,sans-Serif" font-size="10.00" fill="#000000">+ refinement_edge_face</text>
<text text-anchor="start" x="334" y="-351.5" font-family="Helvetica,sans-Serif" font-size="10.00" fill="#000000">_partition_data</text>
<text text-anchor="start" x="334" y="-340.5" font-family="Helvetica,sans-Serif" font-size="10.00" fill="#000000">+ partition_odds</text>
<text text-anchor="start" x="334" y="-329.5" font-family="Helvetica,sans-Serif" font-size="10.00" fill="#000000">+ partition_n_blocked</text>
<text text-anchor="start" x="334" y="-318.5" font-family="Helvetica,sans-Serif" font-size="10.00" fill="#000000">_workers</text>
<text text-anchor="start" x="334" y="-307.5" font-family="Helvetica,sans-Serif" font-size="10.00" fill="#000000">+ partition_n_workers</text>
<polyline fill="none" stroke="#000000" points="326,-300.5 477,-300.5 "/>
<text text-anchor="start" x="334" y="-288.5" font-family="Helvetica,sans-Serif" font-size="10.00" fill="#000000">+ TaskInfo()</text>
<text text-anchor="start" x="334" y="-277.5" font-family="Helvetica,sans-Serif" font-size="10.00" fill="#000000">+ clear()</text>
<text text-anchor="start" x="334" y="-266.5" font-family="Helvetica,sans-Serif" font-size="10.00" fill="#000000">+ loop()</text>
<text text-anchor="start" x="334" y="-255.5" font-family="Helvetica,sans-Serif" font-size="10.00" fill="#000000">+ make_boundary_cells</text>
<text text-anchor="start" x="334" y="-244.5" font-family="Helvetica,sans-Serif" font-size="10.00" fill="#000000">_divisible()</text>
<text text-anchor="start" x="334" y="-233.5" font-family="Helvetica,sans-Serif" font-size="10.00" fill="#000000">+ create_blocks_serial()</text>
<text text-anchor="start" x="334" y="-222.5" font-family="Helvetica,sans-Serif" font-size="10.00" fill="#000000">+ initial_setup_blocks</text>
<text text-anchor="start" x="334" y="-211.5" font-family="Helvetica,sans-Serif" font-size="10.00" fill="#000000">_tasks()</text>
<text text-anchor="start" x="334" y="-200.5" font-family="Helvetica,sans-Serif" font-size="10.00" fill="#000000">+ guess_block_size()</text>
<text text-anchor="start" x="334" y="-189.5" font-family="Helvetica,sans-Serif" font-size="10.00" fill="#000000">+ make_thread_graph_partition</text>
<text text-anchor="start" x="334" y="-178.5" font-family="Helvetica,sans-Serif" font-size="10.00" fill="#000000">_color()</text>
<text text-anchor="start" x="334" y="-167.5" font-family="Helvetica,sans-Serif" font-size="10.00" fill="#000000">+ make_thread_graph_partition</text>
<text text-anchor="start" x="334" y="-156.5" font-family="Helvetica,sans-Serif" font-size="10.00" fill="#000000">_partition()</text>
<text text-anchor="start" x="334" y="-145.5" font-family="Helvetica,sans-Serif" font-size="10.00" fill="#000000">+ make_thread_graph()</text>
<text text-anchor="start" x="334" y="-134.5" font-family="Helvetica,sans-Serif" font-size="10.00" fill="#000000">and 8 more...</text>
</a>
</g>
</g>
<!-- Node4&#45;&gt;Node2 -->
<g id="edge2" class="edge">
<title>Node4&#45;&gt;Node2</title>
<path fill="none" stroke="#404040" d="M477.0184,-141.7248C488.3905,-125.9907 500.915,-111.0039 514.5,-98 522.2905,-90.5427 531.2283,-83.7652 540.554,-77.6905"/>
<polygon fill="none" stroke="#404040" points="540.5768,-77.6765 543.5829,-71.1219 550.7896,-71.3758 547.7834,-77.9304 540.5768,-77.6765"/>
<text text-anchor="middle" x="537.5" y="-101" font-family="Helvetica,sans-Serif" font-size="10.00" fill="#000000"> &#45;task_info</text>
</g>
<!-- Node5 -->
<g id="node4" class="node">
<title>Node5</title>
<polygon fill="#ffffff" stroke="#bfbfbf" points="345.5,-700 345.5,-757 457.5,-757 457.5,-700 345.5,-700"/>
<text text-anchor="middle" x="401.5" y="-745" font-family="Helvetica,sans-Serif" font-size="10.00" fill="#000000">TasksParallelScheme</text>
<polyline fill="none" stroke="#bfbfbf" points="345.5,-738 457.5,-738 "/>
<text text-anchor="middle" x="401.5" y="-726" font-family="Helvetica,sans-Serif" font-size="10.00" fill="#000000"> </text>
<polyline fill="none" stroke="#bfbfbf" points="345.5,-719 457.5,-719 "/>
<text text-anchor="middle" x="401.5" y="-707" font-family="Helvetica,sans-Serif" font-size="10.00" fill="#000000"> </text>
</g>
<!-- Node5&#45;&gt;Node4 -->
<g id="edge3" class="edge">
<title>Node5&#45;&gt;Node4</title>
<path fill="none" stroke="#404040" d="M401.5,-699.937C401.5,-651.7226 401.5,-550.6363 401.5,-460.6718"/>
<polygon fill="none" stroke="#404040" points="401.5001,-460.6272 397.5,-454.6272 401.5,-448.6272 405.5,-454.6272 401.5001,-460.6272"/>
<text text-anchor="middle" x="423.5" y="-569" font-family="Helvetica,sans-Serif" font-size="10.00" fill="#000000"> +scheme</text>
</g>
<!-- Node6 -->
<g id="node5" class="node">
<title>Node6</title>
<g id="a_node5"><a xlink:href="classMPI__Comm.html" target="_top" xlink:title="{MPI_Comm\n||}">
<polygon fill="#ffffff" stroke="#000000" points="0,-700 0,-757 69,-757 69,-700 0,-700"/>
<text text-anchor="middle" x="34.5" y="-745" font-family="Helvetica,sans-Serif" font-size="10.00" fill="#000000">MPI_Comm</text>
<polyline fill="none" stroke="#000000" points="0,-738 69,-738 "/>
<text text-anchor="middle" x="34.5" y="-726" font-family="Helvetica,sans-Serif" font-size="10.00" fill="#000000"> </text>
<polyline fill="none" stroke="#000000" points="0,-719 69,-719 "/>
<text text-anchor="middle" x="34.5" y="-707" font-family="Helvetica,sans-Serif" font-size="10.00" fill="#000000"> </text>
</a>
</g>
</g>
<!-- Node6&#45;&gt;Node4 -->
<g id="edge4" class="edge">
<title>Node6&#45;&gt;Node4</title>
<path fill="none" stroke="#404040" d="M24.7858,-699.7865C8.5966,-645.9645 -16.4745,-529.6972 44.5,-467 84.4238,-425.9483 246.5193,-475.8893 314.8403,-447.9998"/>
<polygon fill="none" stroke="#404040" points="315.0678,-447.8816 318.5457,-441.5646 325.7144,-442.3454 322.2365,-448.6624 315.0678,-447.8816"/>
<text text-anchor="middle" x="89.5" y="-574.5" font-family="Helvetica,sans-Serif" font-size="10.00" fill="#000000"> +communicator_sm</text>
<text text-anchor="middle" x="89.5" y="-563.5" font-family="Helvetica,sans-Serif" font-size="10.00" fill="#000000">+communicator</text>
</g>
<!-- Node7 -->
<g id="node6" class="node">
<title>Node7</title>
<polygon fill="#ffffff" stroke="#bfbfbf" points="87,-694.5 87,-762.5 198,-762.5 198,-694.5 87,-694.5"/>
<text text-anchor="start" x="95" y="-750.5" font-family="Helvetica,sans-Serif" font-size="10.00" fill="#000000">std::vector&lt; unsigned</text>
<text text-anchor="middle" x="142.5" y="-739.5" font-family="Helvetica,sans-Serif" font-size="10.00" fill="#000000"> int &gt;</text>
<polyline fill="none" stroke="#bfbfbf" points="87,-732.5 198,-732.5 "/>
<text text-anchor="middle" x="142.5" y="-720.5" font-family="Helvetica,sans-Serif" font-size="10.00" fill="#000000"> </text>
<polyline fill="none" stroke="#bfbfbf" points="87,-713.5 198,-713.5 "/>
<text text-anchor="middle" x="142.5" y="-701.5" font-family="Helvetica,sans-Serif" font-size="10.00" fill="#000000"> </text>
</g>
<!-- Node7&#45;&gt;Node4 -->
<g id="edge5" class="edge">
<title>Node7&#45;&gt;Node4</title>
<path fill="none" stroke="#404040" d="M140.1203,-694.0401C136.535,-630.5203 133.0805,-498.5655 163.5,-467 185.2607,-444.4195 271.8442,-464.3488 315.185,-447.4572"/>
<polygon fill="none" stroke="#404040" points="315.3048,-447.3944 318.7609,-441.0654 325.9323,-441.8214 322.4762,-448.1504 315.3048,-447.3944"/>
<text text-anchor="start" x="163.5" y="-668" font-family="Helvetica,sans-Serif" font-size="10.00" fill="#000000"> +boundary_partition</text>
<text text-anchor="middle" x="209" y="-657" font-family="Helvetica,sans-Serif" font-size="10.00" fill="#000000">_data_hp_ptr</text>
<text text-anchor="start" x="163.5" y="-646" font-family="Helvetica,sans-Serif" font-size="10.00" fill="#000000">+boundary_partition</text>
<text text-anchor="middle" x="209" y="-635" font-family="Helvetica,sans-Serif" font-size="10.00" fill="#000000">_data</text>
<text text-anchor="middle" x="209" y="-624" font-family="Helvetica,sans-Serif" font-size="10.00" fill="#000000">+partition_evens</text>
<text text-anchor="start" x="163.5" y="-613" font-family="Helvetica,sans-Serif" font-size="10.00" fill="#000000">+cell_partition_data</text>
<text text-anchor="middle" x="209" y="-602" font-family="Helvetica,sans-Serif" font-size="10.00" fill="#000000">_hp</text>
<text text-anchor="middle" x="209" y="-591" font-family="Helvetica,sans-Serif" font-size="10.00" fill="#000000">+partition_row_index</text>
<text text-anchor="start" x="163.5" y="-580" font-family="Helvetica,sans-Serif" font-size="10.00" fill="#000000">+face_partition_data</text>
<text text-anchor="middle" x="209" y="-569" font-family="Helvetica,sans-Serif" font-size="10.00" fill="#000000">_hp</text>
<text text-anchor="start" x="163.5" y="-558" font-family="Helvetica,sans-Serif" font-size="10.00" fill="#000000">+cell_partition</text>
<text text-anchor="middle" x="209" y="-547" font-family="Helvetica,sans-Serif" font-size="10.00" fill="#000000">_data_hp_ptr</text>
<text text-anchor="start" x="163.5" y="-536" font-family="Helvetica,sans-Serif" font-size="10.00" fill="#000000">+face_partition</text>
<text text-anchor="middle" x="209" y="-525" font-family="Helvetica,sans-Serif" font-size="10.00" fill="#000000">_data_hp_ptr</text>
<text text-anchor="start" x="163.5" y="-514" font-family="Helvetica,sans-Serif" font-size="10.00" fill="#000000">+face_partition</text>
<text text-anchor="middle" x="209" y="-503" font-family="Helvetica,sans-Serif" font-size="10.00" fill="#000000">_data</text>
<text text-anchor="start" x="163.5" y="-492" font-family="Helvetica,sans-Serif" font-size="10.00" fill="#000000">+cell_partition</text>
<text text-anchor="middle" x="209" y="-481" font-family="Helvetica,sans-Serif" font-size="10.00" fill="#000000">_data</text>
<text text-anchor="middle" x="209" y="-470" font-family="Helvetica,sans-Serif" font-size="10.00" fill="#000000">...</text>
</g>
<!-- Node8 -->
<g id="node7" class="node">
<title>Node8</title>
<g id="a_node7"><a xlink:href="classunsigned_01int.html" target="_top" xlink:title="{unsigned int\n||}">
<polygon fill="#ffffff" stroke="#000000" points="52,-810.5 52,-867.5 121,-867.5 121,-810.5 52,-810.5"/>
<text text-anchor="middle" x="86.5" y="-855.5" font-family="Helvetica,sans-Serif" font-size="10.00" fill="#000000">unsigned int</text>
<polyline fill="none" stroke="#000000" points="52,-848.5 121,-848.5 "/>
<text text-anchor="middle" x="86.5" y="-836.5" font-family="Helvetica,sans-Serif" font-size="10.00" fill="#000000"> </text>
<polyline fill="none" stroke="#000000" points="52,-829.5 121,-829.5 "/>
<text text-anchor="middle" x="86.5" y="-817.5" font-family="Helvetica,sans-Serif" font-size="10.00" fill="#000000"> </text>
</a>
</g>
</g>
<!-- Node8&#45;&gt;Node7 -->
<g id="edge6" class="edge">
<title>Node8&#45;&gt;Node7</title>
<path fill="none" stroke="#404040" d="M82.6464,-810.3218C82.4644,-800.6583 83.5393,-790.0399 87.5,-781 88.7515,-778.1435 90.2405,-775.3672 91.9123,-772.6805"/>
<polygon fill="none" stroke="#404040" points="92.0679,-772.4678 92.3816,-765.2635 99.1524,-762.7822 98.8387,-769.9865 92.0679,-772.4678"/>
<text text-anchor="middle" x="112" y="-784" font-family="Helvetica,sans-Serif" font-size="10.00" fill="#000000"> +elements</text>
</g>
<!-- Node9 -->
<g id="node8" class="node">
<title>Node9</title>
<g id="a_node8"><a xlink:title="STL class. ">
<polygon fill="#ffffff" stroke="#bfbfbf" points="176,-810.5 176,-867.5 263,-867.5 263,-810.5 176,-810.5"/>
<text text-anchor="middle" x="219.5" y="-855.5" font-family="Helvetica,sans-Serif" font-size="10.00" fill="#000000">std::vector&lt; T &gt;</text>
<polyline fill="none" stroke="#bfbfbf" points="176,-848.5 263,-848.5 "/>
<text text-anchor="middle" x="219.5" y="-836.5" font-family="Helvetica,sans-Serif" font-size="10.00" fill="#000000"> </text>
<polyline fill="none" stroke="#bfbfbf" points="176,-829.5 263,-829.5 "/>
<text text-anchor="middle" x="219.5" y="-817.5" font-family="Helvetica,sans-Serif" font-size="10.00" fill="#000000"> </text>
</a>
</g>
</g>
<!-- Node9&#45;&gt;Node7 -->
<g id="edge7" class="edge">
<title>Node9&#45;&gt;Node7</title>
<path fill="none" stroke="#ffa500" d="M173.2123,-802.9245C170.0352,-799.4345 167.0777,-795.7792 164.5,-792 158.5175,-783.2289 154.0082,-772.6697 150.6809,-762.702"/>
<polygon fill="#ffa500" stroke="#ffa500" points="170.9471,-805.6125 180.456,-810.2848 175.9362,-800.7024 170.9471,-805.6125"/>
<text text-anchor="middle" x="201.5" y="-784" font-family="Helvetica,sans-Serif" font-size="10.00" fill="#000000"> &lt; unsigned int &gt;</text>
</g>
<!-- Node12 -->
<g id="node11" class="node">
<title>Node12</title>
<polygon fill="#ffffff" stroke="#bfbfbf" points="216,-694.5 216,-762.5 327,-762.5 327,-694.5 216,-694.5"/>
<text text-anchor="start" x="224" y="-750.5" font-family="Helvetica,sans-Serif" font-size="10.00" fill="#000000">std::vector&lt; unsigned</text>
<text text-anchor="middle" x="271.5" y="-739.5" font-family="Helvetica,sans-Serif" font-size="10.00" fill="#000000"> char &gt;</text>
<polyline fill="none" stroke="#bfbfbf" points="216,-732.5 327,-732.5 "/>
<text text-anchor="middle" x="271.5" y="-720.5" font-family="Helvetica,sans-Serif" font-size="10.00" fill="#000000"> </text>
<polyline fill="none" stroke="#bfbfbf" points="216,-713.5 327,-713.5 "/>
<text text-anchor="middle" x="271.5" y="-701.5" font-family="Helvetica,sans-Serif" font-size="10.00" fill="#000000"> </text>
</g>
<!-- Node9&#45;&gt;Node12 -->
<g id="edge12" class="edge">
<title>Node9&#45;&gt;Node12</title>
<path fill="none" stroke="#ffa500" d="M237.3729,-801.0202C243.2428,-788.5466 249.7271,-774.7675 255.4529,-762.6001"/>
<polygon fill="#ffa500" stroke="#ffa500" points="234.1178,-799.7174 233.0266,-810.2559 240.4515,-802.698 234.1178,-799.7174"/>
<text text-anchor="middle" x="286.5" y="-784" font-family="Helvetica,sans-Serif" font-size="10.00" fill="#000000"> &lt; unsigned char &gt;</text>
</g>
<!-- Node10 -->
<g id="node9" class="node">
<title>Node10</title>
<polygon fill="#ffffff" stroke="#bfbfbf" points="205,-915.5 205,-972.5 234,-972.5 234,-915.5 205,-915.5"/>
<text text-anchor="middle" x="219.5" y="-960.5" font-family="Helvetica,sans-Serif" font-size="10.00" fill="#000000">T</text>
<polyline fill="none" stroke="#bfbfbf" points="205,-953.5 234,-953.5 "/>
<text text-anchor="middle" x="219.5" y="-941.5" font-family="Helvetica,sans-Serif" font-size="10.00" fill="#000000"> </text>
<polyline fill="none" stroke="#bfbfbf" points="205,-934.5 234,-934.5 "/>
<text text-anchor="middle" x="219.5" y="-922.5" font-family="Helvetica,sans-Serif" font-size="10.00" fill="#000000"> </text>
</g>
<!-- Node10&#45;&gt;Node9 -->
<g id="edge8" class="edge">
<title>Node10&#45;&gt;Node9</title>
<path fill="none" stroke="#404040" d="M219.5,-915.3083C219.5,-904.4281 219.5,-891.817 219.5,-880.0192"/>
<polygon fill="none" stroke="#404040" points="219.5001,-879.657 215.5,-873.6571 219.5,-867.657 223.5,-873.657 219.5001,-879.657"/>
<text text-anchor="middle" x="244" y="-889" font-family="Helvetica,sans-Serif" font-size="10.00" fill="#000000"> +elements</text>
</g>
<!-- Node11 -->
<g id="node10" class="node">
<title>Node11</title>
<polygon fill="#ffffff" stroke="#bfbfbf" points="510.5,-700 510.5,-757 566.5,-757 566.5,-700 510.5,-700"/>
<text text-anchor="middle" x="538.5" y="-745" font-family="Helvetica,sans-Serif" font-size="10.00" fill="#000000">unsigned</text>
<polyline fill="none" stroke="#bfbfbf" points="510.5,-738 566.5,-738 "/>
<text text-anchor="middle" x="538.5" y="-726" font-family="Helvetica,sans-Serif" font-size="10.00" fill="#000000"> </text>
<polyline fill="none" stroke="#bfbfbf" points="510.5,-719 566.5,-719 "/>
<text text-anchor="middle" x="538.5" y="-707" font-family="Helvetica,sans-Serif" font-size="10.00" fill="#000000"> </text>
</g>
<!-- Node11&#45;&gt;Node2 -->
<g id="edge16" class="edge">
<title>Node11&#45;&gt;Node2</title>
<path fill="none" stroke="#404040" d="M552.6166,-699.946C555.7752,-692.3392 558.7152,-684.0059 560.5,-676 613.6384,-437.6372 527.4337,-364.6911 583.5,-127 586.35,-114.9173 590.8775,-102.4471 595.855,-90.8534"/>
<polygon fill="none" stroke="#404040" points="595.9985,-90.5355 594.8221,-83.421 600.9369,-79.5988 602.1133,-86.7133 595.9985,-90.5355"/>
<text text-anchor="middle" x="604" y="-285.5" font-family="Helvetica,sans-Serif" font-size="10.00" fill="#000000"> &#45;partition</text>
</g>
<!-- Node11&#45;&gt;Node4 -->
<g id="edge9" class="edge">
<title>Node11&#45;&gt;Node4</title>
<path fill="none" stroke="#404040" d="M510.4181,-714.4043C495.7024,-705.4821 478.8413,-692.5061 469.5,-676 446.4868,-635.3355 454.7709,-512.987 446.5,-467 446.1295,-464.9402 445.7487,-462.869 445.3582,-460.7883"/>
<polygon fill="none" stroke="#404040" points="445.314,-460.5605 440.2417,-455.4349 443.0222,-448.7814 448.0945,-453.907 445.314,-460.5605"/>
<text text-anchor="middle" x="515" y="-629.5" font-family="Helvetica,sans-Serif" font-size="10.00" fill="#000000"> +n_blocks</text>
<text text-anchor="middle" x="515" y="-618.5" font-family="Helvetica,sans-Serif" font-size="10.00" fill="#000000">+my_pid</text>
<text text-anchor="middle" x="515" y="-607.5" font-family="Helvetica,sans-Serif" font-size="10.00" fill="#000000">+n_blocked_workers</text>
<text text-anchor="middle" x="515" y="-596.5" font-family="Helvetica,sans-Serif" font-size="10.00" fill="#000000">+n_active_cells</text>
<text text-anchor="middle" x="515" y="-585.5" font-family="Helvetica,sans-Serif" font-size="10.00" fill="#000000">+evens</text>
<text text-anchor="middle" x="515" y="-574.5" font-family="Helvetica,sans-Serif" font-size="10.00" fill="#000000">+n_workers</text>
<text text-anchor="middle" x="515" y="-563.5" font-family="Helvetica,sans-Serif" font-size="10.00" fill="#000000">+odds</text>
<text text-anchor="middle" x="515" y="-552.5" font-family="Helvetica,sans-Serif" font-size="10.00" fill="#000000">+n_ghost_cells</text>
<text text-anchor="middle" x="515" y="-541.5" font-family="Helvetica,sans-Serif" font-size="10.00" fill="#000000">+n_procs</text>
<text text-anchor="start" x="469.5" y="-530.5" font-family="Helvetica,sans-Serif" font-size="10.00" fill="#000000">+vectorization</text>
<text text-anchor="middle" x="515" y="-519.5" font-family="Helvetica,sans-Serif" font-size="10.00" fill="#000000">_length</text>
<text text-anchor="middle" x="515" y="-508.5" font-family="Helvetica,sans-Serif" font-size="10.00" fill="#000000">...</text>
</g>
<!-- Node12&#45;&gt;Node4 -->
<g id="edge10" class="edge">
<title>Node12&#45;&gt;Node4</title>
<path fill="none" stroke="#404040" d="M264.8608,-694.4072C256.4661,-641.7066 247.7056,-539.0301 289.5,-467 296.7381,-454.5256 306.8364,-459.7058 316.5,-449 316.9964,-448.4501 317.4908,-447.8967 317.9832,-447.3401"/>
<polygon fill="none" stroke="#404040" points="318.0692,-447.2377 318.8656,-440.0707 325.7876,-438.0493 324.9912,-445.2163 318.0692,-447.2377"/>
<text text-anchor="middle" x="343.5" y="-569" font-family="Helvetica,sans-Serif" font-size="10.00" fill="#000000"> +task_at_mpi_boundary</text>
</g>
<!-- Node13 -->
<g id="node12" class="node">
<title>Node13</title>
<polygon fill="#ffffff" stroke="#bfbfbf" points="322,-810.5 322,-867.5 399,-867.5 399,-810.5 322,-810.5"/>
<text text-anchor="middle" x="360.5" y="-855.5" font-family="Helvetica,sans-Serif" font-size="10.00" fill="#000000">unsigned char</text>
<polyline fill="none" stroke="#bfbfbf" points="322,-848.5 399,-848.5 "/>
<text text-anchor="middle" x="360.5" y="-836.5" font-family="Helvetica,sans-Serif" font-size="10.00" fill="#000000"> </text>
<polyline fill="none" stroke="#bfbfbf" points="322,-829.5 399,-829.5 "/>
<text text-anchor="middle" x="360.5" y="-817.5" font-family="Helvetica,sans-Serif" font-size="10.00" fill="#000000"> </text>
</g>
<!-- Node13&#45;&gt;Node12 -->
<g id="edge11" class="edge">
<title>Node13&#45;&gt;Node12</title>
<path fill="none" stroke="#404040" d="M348.8452,-810.2648C344.1949,-800.4919 338.3141,-789.8197 331.5,-781 328.9692,-777.7243 326.2109,-774.4975 323.3128,-771.3528"/>
<polygon fill="none" stroke="#404040" points="323.2572,-771.2962 316.1989,-769.8191 314.8478,-762.7357 321.906,-764.2128 323.2572,-771.2962"/>
<text text-anchor="middle" x="364" y="-784" font-family="Helvetica,sans-Serif" font-size="10.00" fill="#000000"> +elements</text>
</g>
<!-- Node14 -->
<g id="node13" class="node">
<title>Node14</title>
<polygon fill="#ffffff" stroke="#bfbfbf" points="633.5,-259.5 633.5,-316.5 707.5,-316.5 707.5,-259.5 633.5,-259.5"/>
<text text-anchor="middle" x="670.5" y="-304.5" font-family="Helvetica,sans-Serif" font-size="10.00" fill="#000000">empty_task *</text>
<polyline fill="none" stroke="#bfbfbf" points="633.5,-297.5 707.5,-297.5 "/>
<text text-anchor="middle" x="670.5" y="-285.5" font-family="Helvetica,sans-Serif" font-size="10.00" fill="#000000"> </text>
<polyline fill="none" stroke="#bfbfbf" points="633.5,-278.5 707.5,-278.5 "/>
<text text-anchor="middle" x="670.5" y="-266.5" font-family="Helvetica,sans-Serif" font-size="10.00" fill="#000000"> </text>
</g>
<!-- Node14&#45;&gt;Node2 -->
<g id="edge13" class="edge">
<title>Node14&#45;&gt;Node2</title>
<path fill="none" stroke="#404040" d="M664.8998,-259.0659C656.9721,-218.106 642.3503,-142.56 632.5247,-91.7942"/>
<polygon fill="none" stroke="#404040" points="632.4788,-91.557 627.4116,-86.4264 630.1985,-79.7756 635.2658,-84.9062 632.4788,-91.557"/>
<text text-anchor="middle" x="655.5" y="-101" font-family="Helvetica,sans-Serif" font-size="10.00" fill="#000000"> +dummy</text>
</g>
<!-- Node15 -->
<g id="node14" class="node">
<title>Node15</title>
<g id="a_node14"><a xlink:href="classbool.html" target="_top" xlink:title="{bool\n||}">
<polygon fill="#ffffff" stroke="#000000" points="726,-259.5 726,-316.5 761,-316.5 761,-259.5 726,-259.5"/>
<text text-anchor="middle" x="743.5" y="-304.5" font-family="Helvetica,sans-Serif" font-size="10.00" fill="#000000">bool</text>
<polyline fill="none" stroke="#000000" points="726,-297.5 761,-297.5 "/>
<text text-anchor="middle" x="743.5" y="-285.5" font-family="Helvetica,sans-Serif" font-size="10.00" fill="#000000"> </text>
<polyline fill="none" stroke="#000000" points="726,-278.5 761,-278.5 "/>
<text text-anchor="middle" x="743.5" y="-266.5" font-family="Helvetica,sans-Serif" font-size="10.00" fill="#000000"> </text>
</a>
</g>
</g>
<!-- Node15&#45;&gt;Node2 -->
<g id="edge14" class="edge">
<title>Node15&#45;&gt;Node2</title>
<path fill="none" stroke="#404040" d="M744.1494,-259.4577C743.7346,-225.8109 739.2572,-169.1459 716.5,-127 708.8387,-112.8114 697.9753,-99.6803 686.3386,-88.146"/>
<polygon fill="none" stroke="#404040" points="686.0578,-87.8811 678.9486,-86.6729 677.3295,-79.6459 684.4387,-80.854 686.0578,-87.8811"/>
<text text-anchor="middle" x="729" y="-101" font-family="Helvetica,sans-Serif" font-size="10.00" fill="#000000"> &#45;is_blocked</text>
</g>
<!-- Node16 -->
<g id="node15" class="node">
<title>Node16</title>
<g id="a_node15"><a xlink:href="structinternal_1_1MFWorkerInterface.html" target="_top" xlink:title="{internal::MFWorkerInterface\n||+ ~MFWorkerInterface()\l+ vector_update_ghosts\l_start()\l+ vector_update_ghosts\l_finish()\l+ vector_compress_start()\l+ vector_compress_finish()\l+ zero_dst_vector_range()\l+ cell_loop_pre_range()\l+ cell_loop_post_range()\l+ cell()\l+ cell()\l+ face()\l+ boundary()\l}">
<polygon fill="#ffffff" stroke="#000000" points="779.5,-188 779.5,-388 917.5,-388 917.5,-188 779.5,-188"/>
<text text-anchor="middle" x="848.5" y="-376" font-family="Helvetica,sans-Serif" font-size="10.00" fill="#000000">internal::MFWorkerInterface</text>
<polyline fill="none" stroke="#000000" points="779.5,-369 917.5,-369 "/>
<text text-anchor="middle" x="848.5" y="-357" font-family="Helvetica,sans-Serif" font-size="10.00" fill="#000000"> </text>
<polyline fill="none" stroke="#000000" points="779.5,-350 917.5,-350 "/>
<text text-anchor="start" x="787.5" y="-338" font-family="Helvetica,sans-Serif" font-size="10.00" fill="#000000">+ ~MFWorkerInterface()</text>
<text text-anchor="start" x="787.5" y="-327" font-family="Helvetica,sans-Serif" font-size="10.00" fill="#000000">+ vector_update_ghosts</text>
<text text-anchor="start" x="787.5" y="-316" font-family="Helvetica,sans-Serif" font-size="10.00" fill="#000000">_start()</text>
<text text-anchor="start" x="787.5" y="-305" font-family="Helvetica,sans-Serif" font-size="10.00" fill="#000000">+ vector_update_ghosts</text>
<text text-anchor="start" x="787.5" y="-294" font-family="Helvetica,sans-Serif" font-size="10.00" fill="#000000">_finish()</text>
<text text-anchor="start" x="787.5" y="-283" font-family="Helvetica,sans-Serif" font-size="10.00" fill="#000000">+ vector_compress_start()</text>
<text text-anchor="start" x="787.5" y="-272" font-family="Helvetica,sans-Serif" font-size="10.00" fill="#000000">+ vector_compress_finish()</text>
<text text-anchor="start" x="787.5" y="-261" font-family="Helvetica,sans-Serif" font-size="10.00" fill="#000000">+ zero_dst_vector_range()</text>
<text text-anchor="start" x="787.5" y="-250" font-family="Helvetica,sans-Serif" font-size="10.00" fill="#000000">+ cell_loop_pre_range()</text>
<text text-anchor="start" x="787.5" y="-239" font-family="Helvetica,sans-Serif" font-size="10.00" fill="#000000">+ cell_loop_post_range()</text>
<text text-anchor="start" x="787.5" y="-228" font-family="Helvetica,sans-Serif" font-size="10.00" fill="#000000">+ cell()</text>
<text text-anchor="start" x="787.5" y="-217" font-family="Helvetica,sans-Serif" font-size="10.00" fill="#000000">+ cell()</text>
<text text-anchor="start" x="787.5" y="-206" font-family="Helvetica,sans-Serif" font-size="10.00" fill="#000000">+ face()</text>
<text text-anchor="start" x="787.5" y="-195" font-family="Helvetica,sans-Serif" font-size="10.00" fill="#000000">+ boundary()</text>
</a>
</g>
</g>
<!-- Node16&#45;&gt;Node2 -->
<g id="edge15" class="edge">
<title>Node16&#45;&gt;Node2</title>
<path fill="none" stroke="#404040" d="M817.6018,-187.528C803.8905,-155.7245 784.9492,-122.5102 759.5,-98 744.2666,-83.3287 724.7617,-72.1089 705.2763,-63.6337"/>
<polygon fill="none" stroke="#404040" points="705.265,-63.6291 698.1964,-65.0557 694.1608,-59.0795 701.2294,-57.6529 705.265,-63.6291"/>
<text text-anchor="middle" x="784.5" y="-101" font-family="Helvetica,sans-Serif" font-size="10.00" fill="#000000"> &#45;worker</text>
</g>
</g>
</svg>
        <g id="navigator" transform="translate(0 0)" fill="#404254">
                <rect fill="#f2f5e9" fill-opacity="0.5" stroke="#606060" stroke-width=".5" x="0" y="0" width="60" height="60"/>
                <use id="zoomplus" xlink:href="#zoomPlus" x="17" y="9" onmousedown="handleZoom(evt,'in')"/>
                <use id="zoomminus" xlink:href="#zoomMin" x="42" y="9" onmousedown="handleZoom(evt,'out')"/>
                <use id="reset" xlink:href="#resetDef" x="30" y="36" onmousedown="handleReset()"/>
                <g id="arrowUp" xlink:href="#dirArrow" transform="translate(30 24)" onmousedown="handlePan(0,-1)">
                  <use xlink:href="#rim" fill="#404040">
                        <set attributeName="fill" to="#808080" begin="arrowUp.mouseover" end="arrowUp.mouseout"/>
                  </use>
                  <path fill="none" stroke="white" stroke-width="1.5" d="M0,-3.0v7 M-2.5,-0.5L0,-3.0L2.5,-0.5"/>
                </g>
                <g id="arrowRight" xlink:href="#dirArrow" transform="rotate(90) translate(36 -43)" onmousedown="handlePan(1,0)">
                  <use xlink:href="#rim" fill="#404040">
                        <set attributeName="fill" to="#808080" begin="arrowRight.mouseover" end="arrowRight.mouseout"/>
                  </use>
                  <path fill="none" stroke="white" stroke-width="1.5" d="M0,-3.0v7 M-2.5,-0.5L0,-3.0L2.5,-0.5"/>
                </g>
                <g id="arrowDown" xlink:href="#dirArrow" transform="rotate(180) translate(-30 -48)" onmousedown="handlePan(0,1)">
                  <use xlink:href="#rim" fill="#404040">
                        <set attributeName="fill" to="#808080" begin="arrowDown.mouseover" end="arrowDown.mouseout"/>
                  </use>
                  <path fill="none" stroke="white" stroke-width="1.5" d="M0,-3.0v7 M-2.5,-0.5L0,-3.0L2.5,-0.5"/>
                </g>
                <g id="arrowLeft" xlink:href="#dirArrow" transform="rotate(270) translate(-36 17)" onmousedown="handlePan(-1,0)">
                  <use xlink:href="#rim" fill="#404040">
                        <set attributeName="fill" to="#808080" begin="arrowLeft.mouseover" end="arrowLeft.mouseout"/>
                  </use>
                  <path fill="none" stroke="white" stroke-width="1.5" d="M0,-3.0v7 M-2.5,-0.5L0,-3.0L2.5,-0.5"/>
                </g>
        </g>
        <svg viewBox="0 0 15 15" width="100%" height="30px" preserveAspectRatio="xMaxYMin meet">
         <g id="arrow_out" transform="scale(0.3 0.3)">
          <a xlink:href="classinternal_1_1MatrixFreeFunctions_1_1color_1_1PartitionWork__coll__graph_org.svg" target="_base">
           <rect id="button" ry="5" rx="5" y="6" x="6" height="38" width="38"
                fill="#f2f5e9" fill-opacity="0.5" stroke="#606060" stroke-width="1.0"/>
           <path id="arrow"
             d="M 11.500037,31.436501 C 11.940474,20.09759 22.043105,11.32322 32.158766,21.979434 L 37.068811,17.246167 C 37.068811,17.246167 37.088388,32 37.088388,32 L 22.160133,31.978069 C 22.160133,31.978069 26.997745,27.140456 26.997745,27.140456 C 18.528582,18.264221 13.291696,25.230495 11.500037,31.436501 z"
             style="fill:#404040;"/>
          </a>
         </g>
        </svg>
</svg>
