<?xml version="1.0" encoding="UTF-8" standalone="no"?>
<!DOCTYPE svg PUBLIC "-//W3C//DTD SVG 1.1//EN"
 "http://www.w3.org/Graphics/SVG/1.1/DTD/svg11.dtd">
<!-- Generated by graphviz version 2.40.1 (20161225.0304)
 -->
<!-- Title: IndexSet::IntervalIterator Pages: 1 -->
<!--zoomable 1196 -->
<svg id="main" version="1.1" xmlns="http://www.w3.org/2000/svg" xmlns:xlink="http://www.w3.org/1999/xlink" xml:space="preserve" onload="init(evt)">
<style type="text/css"><![CDATA[
.edge:hover path { stroke: red; }
.edge:hover polygon { stroke: red; fill: red; }
]]></style>
<script type="text/javascript"><![CDATA[
var edges = document.getElementsByTagName('g');
if (edges && edges.length) {
  for (var i=0;i<edges.length;i++) {
    if (edges[i].id.substr(0,4)=='edge') {
      edges[i].setAttribute('class','edge');
    }
  }
}
]]></script>
        <defs>
                <circle id="rim" cx="0" cy="0" r="7"/>
                <circle id="rim2" cx="0" cy="0" r="3.5"/>
                <g id="zoomPlus">
                        <use xlink:href="#rim" fill="#404040">
                                <set attributeName="fill" to="#808080" begin="zoomplus.mouseover" end="zoomplus.mouseout"/>
                        </use>
                        <path d="M-4,0h8M0,-4v8" fill="none" stroke="white" stroke-width="1.5" pointer-events="none"/>
                </g>
                <g id="zoomMin">
                        <use xlink:href="#rim" fill="#404040">
                                <set attributeName="fill" to="#808080" begin="zoomminus.mouseover" end="zoomminus.mouseout"/>
                        </use>
                        <path d="M-4,0h8" fill="none" stroke="white" stroke-width="1.5" pointer-events="none"/>
                </g>
                <g id="dirArrow">
                        <path fill="none" stroke="white" stroke-width="1.5" d="M0,-3.0v7 M-2.5,-0.5L0,-3.0L2.5,-0.5"/>
                </g>
               <g id="resetDef">
                       <use xlink:href="#rim2" fill="#404040">
                               <set attributeName="fill" to="#808080" begin="reset.mouseover" end="reset.mouseout"/>
                       </use>
               </g>
        </defs>

<script type="text/javascript">
var viewWidth = 536;
var viewHeight = 1196;
var sectionId = 'dynsection-0';
</script>
<script xlink:href="svgpan.js"/>
<svg id="graph" class="graph">
<g id="viewport">
<title>IndexSet::IntervalIterator</title>
<polygon fill="#ffffff" stroke="transparent" points="-4,4 -4,-1192 531.5,-1192 531.5,4 -4,4"/>
<!-- Node1 -->
<g id="node1" class="node">
<title>Node1</title>
<polygon fill="#bfbfbf" stroke="#000000" points="5,-.5 5,-189.5 130,-189.5 130,-.5 5,-.5"/>
<text text-anchor="middle" x="67.5" y="-177.5" font-family="Helvetica,sans-Serif" font-size="10.00" fill="#000000">IndexSet::IntervalIterator</text>
<polyline fill="none" stroke="#000000" points="5,-170.5 130,-170.5 "/>
<text text-anchor="middle" x="67.5" y="-158.5" font-family="Helvetica,sans-Serif" font-size="10.00" fill="#000000"> </text>
<polyline fill="none" stroke="#000000" points="5,-151.5 130,-151.5 "/>
<text text-anchor="start" x="13" y="-139.5" font-family="Helvetica,sans-Serif" font-size="10.00" fill="#000000">+ IntervalIterator()</text>
<text text-anchor="start" x="13" y="-128.5" font-family="Helvetica,sans-Serif" font-size="10.00" fill="#000000">+ IntervalIterator()</text>
<text text-anchor="start" x="13" y="-117.5" font-family="Helvetica,sans-Serif" font-size="10.00" fill="#000000">+ IntervalIterator()</text>
<text text-anchor="start" x="13" y="-106.5" font-family="Helvetica,sans-Serif" font-size="10.00" fill="#000000">+ IntervalIterator()</text>
<text text-anchor="start" x="13" y="-95.5" font-family="Helvetica,sans-Serif" font-size="10.00" fill="#000000">+ operator=()</text>
<text text-anchor="start" x="13" y="-84.5" font-family="Helvetica,sans-Serif" font-size="10.00" fill="#000000">+ operator++()</text>
<text text-anchor="start" x="13" y="-73.5" font-family="Helvetica,sans-Serif" font-size="10.00" fill="#000000">+ operator++()</text>
<text text-anchor="start" x="13" y="-62.5" font-family="Helvetica,sans-Serif" font-size="10.00" fill="#000000">+ operator*()</text>
<text text-anchor="start" x="13" y="-51.5" font-family="Helvetica,sans-Serif" font-size="10.00" fill="#000000">+ operator&#45;&gt;()</text>
<text text-anchor="start" x="13" y="-40.5" font-family="Helvetica,sans-Serif" font-size="10.00" fill="#000000">+ operator==()</text>
<text text-anchor="start" x="13" y="-29.5" font-family="Helvetica,sans-Serif" font-size="10.00" fill="#000000">+ operator!=()</text>
<text text-anchor="start" x="13" y="-18.5" font-family="Helvetica,sans-Serif" font-size="10.00" fill="#000000">+ operator&lt;()</text>
<text text-anchor="start" x="13" y="-7.5" font-family="Helvetica,sans-Serif" font-size="10.00" fill="#000000">+ operator&#45;()</text>
</g>
<!-- Node2 -->
<g id="node2" class="node">
<title>Node2</title>
<g id="a_node2"><a xlink:href="classIndexSet_1_1IntervalAccessor.html" target="_top" xlink:title="{IndexSet::IntervalAccessor\n||+ IntervalAccessor()\l+ IntervalAccessor()\l+ n_elements()\l+ is_valid()\l+ begin()\l+ end()\l+ last()\l&#45; IntervalAccessor()\l&#45; operator=()\l&#45; operator==()\l&#45; operator\&lt;()\l&#45; advance()\l}">
<polygon fill="#ffffff" stroke="#000000" points="0,-237.5 0,-415.5 135,-415.5 135,-237.5 0,-237.5"/>
<text text-anchor="middle" x="67.5" y="-403.5" font-family="Helvetica,sans-Serif" font-size="10.00" fill="#000000">IndexSet::IntervalAccessor</text>
<polyline fill="none" stroke="#000000" points="0,-396.5 135,-396.5 "/>
<text text-anchor="middle" x="67.5" y="-384.5" font-family="Helvetica,sans-Serif" font-size="10.00" fill="#000000"> </text>
<polyline fill="none" stroke="#000000" points="0,-377.5 135,-377.5 "/>
<text text-anchor="start" x="8" y="-365.5" font-family="Helvetica,sans-Serif" font-size="10.00" fill="#000000">+ IntervalAccessor()</text>
<text text-anchor="start" x="8" y="-354.5" font-family="Helvetica,sans-Serif" font-size="10.00" fill="#000000">+ IntervalAccessor()</text>
<text text-anchor="start" x="8" y="-343.5" font-family="Helvetica,sans-Serif" font-size="10.00" fill="#000000">+ n_elements()</text>
<text text-anchor="start" x="8" y="-332.5" font-family="Helvetica,sans-Serif" font-size="10.00" fill="#000000">+ is_valid()</text>
<text text-anchor="start" x="8" y="-321.5" font-family="Helvetica,sans-Serif" font-size="10.00" fill="#000000">+ begin()</text>
<text text-anchor="start" x="8" y="-310.5" font-family="Helvetica,sans-Serif" font-size="10.00" fill="#000000">+ end()</text>
<text text-anchor="start" x="8" y="-299.5" font-family="Helvetica,sans-Serif" font-size="10.00" fill="#000000">+ last()</text>
<text text-anchor="start" x="8" y="-288.5" font-family="Helvetica,sans-Serif" font-size="10.00" fill="#000000">&#45; IntervalAccessor()</text>
<text text-anchor="start" x="8" y="-277.5" font-family="Helvetica,sans-Serif" font-size="10.00" fill="#000000">&#45; operator=()</text>
<text text-anchor="start" x="8" y="-266.5" font-family="Helvetica,sans-Serif" font-size="10.00" fill="#000000">&#45; operator==()</text>
<text text-anchor="start" x="8" y="-255.5" font-family="Helvetica,sans-Serif" font-size="10.00" fill="#000000">&#45; operator&lt;()</text>
<text text-anchor="start" x="8" y="-244.5" font-family="Helvetica,sans-Serif" font-size="10.00" fill="#000000">&#45; advance()</text>
</a>
</g>
</g>
<!-- Node2&#45;&gt;Node1 -->
<g id="edge1" class="edge">
<title>Node2&#45;&gt;Node1</title>
<path fill="none" stroke="#404040" d="M67.5,-237.3272C67.5,-225.6995 67.5,-213.6936 67.5,-201.814"/>
<polygon fill="none" stroke="#404040" points="67.5001,-201.501 63.5,-195.501 67.5,-189.501 71.5,-195.501 67.5001,-201.501"/>
<text text-anchor="middle" x="90.5" y="-211" font-family="Helvetica,sans-Serif" font-size="10.00" fill="#000000"> &#45;accessor</text>
</g>
<!-- Node3 -->
<g id="node3" class="node">
<title>Node3</title>
<g id="a_node3"><a xlink:href="classunsigned_01int.html" target="_top" xlink:title="{unsigned int\n||}">
<polygon fill="#ffffff" stroke="#000000" points="94,-1130.5 94,-1187.5 163,-1187.5 163,-1130.5 94,-1130.5"/>
<text text-anchor="middle" x="128.5" y="-1175.5" font-family="Helvetica,sans-Serif" font-size="10.00" fill="#000000">unsigned int</text>
<polyline fill="none" stroke="#000000" points="94,-1168.5 163,-1168.5 "/>
<text text-anchor="middle" x="128.5" y="-1156.5" font-family="Helvetica,sans-Serif" font-size="10.00" fill="#000000"> </text>
<polyline fill="none" stroke="#000000" points="94,-1149.5 163,-1149.5 "/>
<text text-anchor="middle" x="128.5" y="-1137.5" font-family="Helvetica,sans-Serif" font-size="10.00" fill="#000000"> </text>
</a>
</g>
</g>
<!-- Node3&#45;&gt;Node2 -->
<g id="edge2" class="edge">
<title>Node3&#45;&gt;Node2</title>
<path fill="none" stroke="#404040" d="M104.1367,-1130.3447C81.5781,-1100.815 51.5,-1052.4513 51.5,-1004.5 51.5,-1004.5 51.5,-1004.5 51.5,-613 51.5,-551.5177 55.2186,-482.7292 59.0704,-427.9683"/>
<polygon fill="none" stroke="#404040" points="59.0851,-427.7627 55.5254,-421.4914 59.9451,-415.7935 63.5048,-422.0648 59.0851,-427.7627"/>
<text text-anchor="middle" x="76" y="-847.5" font-family="Helvetica,sans-Serif" font-size="10.00" fill="#000000"> &#45;range_idx</text>
</g>
<!-- Node4 -->
<g id="node4" class="node">
<title>Node4</title>
<g id="a_node4"><a xlink:href="classIndexSet.html" target="_top" xlink:title="{IndexSet\n||+ IndexSet()\l+ IndexSet()\l+ IndexSet()\l+ operator=()\l+ IndexSet()\l+ operator=()\l+ IndexSet()\l+ clear()\l+ set_size()\l+ size()\land 35 more...\l+ begin()\l+ at()\l+ end()\l+ begin_intervals()\l+ end_intervals()\l+ ExcIndexNotPresent()\l&#45; do_compress()\l* begin()\l* at()\l* end()\l* begin_intervals()\l* end_intervals()\l}">
<polygon fill="#ffffff" stroke="#000000" points="103.5,-463.5 103.5,-762.5 225.5,-762.5 225.5,-463.5 103.5,-463.5"/>
<text text-anchor="middle" x="164.5" y="-750.5" font-family="Helvetica,sans-Serif" font-size="10.00" fill="#000000">IndexSet</text>
<polyline fill="none" stroke="#000000" points="103.5,-743.5 225.5,-743.5 "/>
<text text-anchor="middle" x="164.5" y="-731.5" font-family="Helvetica,sans-Serif" font-size="10.00" fill="#000000"> </text>
<polyline fill="none" stroke="#000000" points="103.5,-724.5 225.5,-724.5 "/>
<text text-anchor="start" x="111.5" y="-712.5" font-family="Helvetica,sans-Serif" font-size="10.00" fill="#000000">+ IndexSet()</text>
<text text-anchor="start" x="111.5" y="-701.5" font-family="Helvetica,sans-Serif" font-size="10.00" fill="#000000">+ IndexSet()</text>
<text text-anchor="start" x="111.5" y="-690.5" font-family="Helvetica,sans-Serif" font-size="10.00" fill="#000000">+ IndexSet()</text>
<text text-anchor="start" x="111.5" y="-679.5" font-family="Helvetica,sans-Serif" font-size="10.00" fill="#000000">+ operator=()</text>
<text text-anchor="start" x="111.5" y="-668.5" font-family="Helvetica,sans-Serif" font-size="10.00" fill="#000000">+ IndexSet()</text>
<text text-anchor="start" x="111.5" y="-657.5" font-family="Helvetica,sans-Serif" font-size="10.00" fill="#000000">+ operator=()</text>
<text text-anchor="start" x="111.5" y="-646.5" font-family="Helvetica,sans-Serif" font-size="10.00" fill="#000000">+ IndexSet()</text>
<text text-anchor="start" x="111.5" y="-635.5" font-family="Helvetica,sans-Serif" font-size="10.00" fill="#000000">+ clear()</text>
<text text-anchor="start" x="111.5" y="-624.5" font-family="Helvetica,sans-Serif" font-size="10.00" fill="#000000">+ set_size()</text>
<text text-anchor="start" x="111.5" y="-613.5" font-family="Helvetica,sans-Serif" font-size="10.00" fill="#000000">+ size()</text>
<text text-anchor="start" x="111.5" y="-602.5" font-family="Helvetica,sans-Serif" font-size="10.00" fill="#000000">and 35 more...</text>
<text text-anchor="start" x="111.5" y="-591.5" font-family="Helvetica,sans-Serif" font-size="10.00" fill="#000000">+ begin()</text>
<text text-anchor="start" x="111.5" y="-580.5" font-family="Helvetica,sans-Serif" font-size="10.00" fill="#000000">+ at()</text>
<text text-anchor="start" x="111.5" y="-569.5" font-family="Helvetica,sans-Serif" font-size="10.00" fill="#000000">+ end()</text>
<text text-anchor="start" x="111.5" y="-558.5" font-family="Helvetica,sans-Serif" font-size="10.00" fill="#000000">+ begin_intervals()</text>
<text text-anchor="start" x="111.5" y="-547.5" font-family="Helvetica,sans-Serif" font-size="10.00" fill="#000000">+ end_intervals()</text>
<text text-anchor="start" x="111.5" y="-536.5" font-family="Helvetica,sans-Serif" font-size="10.00" fill="#000000">+ ExcIndexNotPresent()</text>
<text text-anchor="start" x="111.5" y="-525.5" font-family="Helvetica,sans-Serif" font-size="10.00" fill="#000000">&#45; do_compress()</text>
<text text-anchor="start" x="111.5" y="-514.5" font-family="Helvetica,sans-Serif" font-size="10.00" fill="#000000">* begin()</text>
<text text-anchor="start" x="111.5" y="-503.5" font-family="Helvetica,sans-Serif" font-size="10.00" fill="#000000">* at()</text>
<text text-anchor="start" x="111.5" y="-492.5" font-family="Helvetica,sans-Serif" font-size="10.00" fill="#000000">* end()</text>
<text text-anchor="start" x="111.5" y="-481.5" font-family="Helvetica,sans-Serif" font-size="10.00" fill="#000000">* begin_intervals()</text>
<text text-anchor="start" x="111.5" y="-470.5" font-family="Helvetica,sans-Serif" font-size="10.00" fill="#000000">* end_intervals()</text>
</a>
</g>
</g>
<!-- Node3&#45;&gt;Node4 -->
<g id="edge7" class="edge">
<title>Node3&#45;&gt;Node4</title>
<path fill="none" stroke="#404040" d="M129.746,-1130.4806C132.416,-1070.912 139.1324,-928.9422 147.5,-810 148.3001,-798.6266 149.1788,-786.8885 150.1021,-775.0716"/>
<polygon fill="none" stroke="#404040" points="150.1312,-774.7033 146.6176,-768.4061 151.0791,-762.7408 154.5926,-769.038 150.1312,-774.7033"/>
<text text-anchor="middle" x="182.5" y="-922" font-family="Helvetica,sans-Serif" font-size="10.00" fill="#000000"> &#45;largest_range</text>
<text text-anchor="middle" x="182.5" y="-911" font-family="Helvetica,sans-Serif" font-size="10.00" fill="#000000">&#45;index_space_size</text>
</g>
<!-- Node9 -->
<g id="node9" class="node">
<title>Node9</title>
<g id="a_node9"><a xlink:href="structIndexSet_1_1Range.html" target="_top" xlink:title="{IndexSet::Range\n||+ Range()\l+ Range()\l+ serialize()\l+ end_compare()\l+ nth_index_compare()\l+ memory_consumption()\l}">
<polygon fill="#ffffff" stroke="#000000" points="288.5,-948.5 288.5,-1060.5 416.5,-1060.5 416.5,-948.5 288.5,-948.5"/>
<text text-anchor="middle" x="352.5" y="-1048.5" font-family="Helvetica,sans-Serif" font-size="10.00" fill="#000000">IndexSet::Range</text>
<polyline fill="none" stroke="#000000" points="288.5,-1041.5 416.5,-1041.5 "/>
<text text-anchor="middle" x="352.5" y="-1029.5" font-family="Helvetica,sans-Serif" font-size="10.00" fill="#000000"> </text>
<polyline fill="none" stroke="#000000" points="288.5,-1022.5 416.5,-1022.5 "/>
<text text-anchor="start" x="296.5" y="-1010.5" font-family="Helvetica,sans-Serif" font-size="10.00" fill="#000000">+ Range()</text>
<text text-anchor="start" x="296.5" y="-999.5" font-family="Helvetica,sans-Serif" font-size="10.00" fill="#000000">+ Range()</text>
<text text-anchor="start" x="296.5" y="-988.5" font-family="Helvetica,sans-Serif" font-size="10.00" fill="#000000">+ serialize()</text>
<text text-anchor="start" x="296.5" y="-977.5" font-family="Helvetica,sans-Serif" font-size="10.00" fill="#000000">+ end_compare()</text>
<text text-anchor="start" x="296.5" y="-966.5" font-family="Helvetica,sans-Serif" font-size="10.00" fill="#000000">+ nth_index_compare()</text>
<text text-anchor="start" x="296.5" y="-955.5" font-family="Helvetica,sans-Serif" font-size="10.00" fill="#000000">+ memory_consumption()</text>
</a>
</g>
</g>
<!-- Node3&#45;&gt;Node9 -->
<g id="edge10" class="edge">
<title>Node3&#45;&gt;Node9</title>
<path fill="none" stroke="#404040" d="M163.2353,-1137.3255C191.8501,-1119.2467 233.5717,-1092.3761 278.2542,-1061.0512"/>
<polygon fill="none" stroke="#404040" points="278.3263,-1061.0004 280.9251,-1054.2738 288.1338,-1054.0856 285.535,-1060.8121 278.3263,-1061.0004"/>
<text text-anchor="middle" x="292" y="-1104" font-family="Helvetica,sans-Serif" font-size="10.00" fill="#000000"> +nth_index_in_set</text>
<text text-anchor="middle" x="292" y="-1093" font-family="Helvetica,sans-Serif" font-size="10.00" fill="#000000">+begin</text>
<text text-anchor="middle" x="292" y="-1082" font-family="Helvetica,sans-Serif" font-size="10.00" fill="#000000">+end</text>
</g>
<!-- Node4&#45;&gt;Node2 -->
<g id="edge3" class="edge">
<title>Node4&#45;&gt;Node2</title>
<path fill="none" stroke="#404040" d="M113.8693,-463.4566C109.735,-451.2457 105.6214,-439.0958 101.649,-427.3628"/>
<polygon fill="none" stroke="#404040" points="101.5764,-427.1482 95.8635,-422.7479 97.7281,-415.782 103.441,-420.1823 101.5764,-427.1482"/>
<text text-anchor="middle" x="132" y="-437" font-family="Helvetica,sans-Serif" font-size="10.00" fill="#000000"> &#45;index_set</text>
</g>
<!-- Node5 -->
<g id="node5" class="node">
<title>Node5</title>
<g id="a_node5"><a xlink:href="classbool.html" target="_top" xlink:title="{bool\n||}">
<polygon fill="#ffffff" stroke="#000000" points="157,-821.5 157,-878.5 192,-878.5 192,-821.5 157,-821.5"/>
<text text-anchor="middle" x="174.5" y="-866.5" font-family="Helvetica,sans-Serif" font-size="10.00" fill="#000000">bool</text>
<polyline fill="none" stroke="#000000" points="157,-859.5 192,-859.5 "/>
<text text-anchor="middle" x="174.5" y="-847.5" font-family="Helvetica,sans-Serif" font-size="10.00" fill="#000000"> </text>
<polyline fill="none" stroke="#000000" points="157,-840.5 192,-840.5 "/>
<text text-anchor="middle" x="174.5" y="-828.5" font-family="Helvetica,sans-Serif" font-size="10.00" fill="#000000"> </text>
</a>
</g>
</g>
<!-- Node5&#45;&gt;Node4 -->
<g id="edge4" class="edge">
<title>Node5&#45;&gt;Node4</title>
<path fill="none" stroke="#404040" d="M169.2136,-821.4836C167.7096,-812.1247 166.2713,-801.6497 165.5,-792 165.0442,-786.2981 164.6488,-780.4908 164.3074,-774.6227"/>
<polygon fill="none" stroke="#404040" points="164.3007,-774.4905 159.996,-768.7052 163.6806,-762.5066 167.9853,-768.2919 164.3007,-774.4905"/>
<text text-anchor="middle" x="202" y="-784" font-family="Helvetica,sans-Serif" font-size="10.00" fill="#000000"> &#45;is_compressed</text>
</g>
<!-- Node6 -->
<g id="node6" class="node">
<title>Node6</title>
<g id="a_node6"><a xlink:href="classThreads_1_1Mutex.html" target="_top" xlink:title="{Threads::Mutex\n||+ Mutex()\l+ Mutex()\l+ operator=()\l}">
<polygon fill="#ffffff" stroke="#000000" points="210,-810.5 210,-889.5 295,-889.5 295,-810.5 210,-810.5"/>
<text text-anchor="middle" x="252.5" y="-877.5" font-family="Helvetica,sans-Serif" font-size="10.00" fill="#000000">Threads::Mutex</text>
<polyline fill="none" stroke="#000000" points="210,-870.5 295,-870.5 "/>
<text text-anchor="middle" x="252.5" y="-858.5" font-family="Helvetica,sans-Serif" font-size="10.00" fill="#000000"> </text>
<polyline fill="none" stroke="#000000" points="210,-851.5 295,-851.5 "/>
<text text-anchor="start" x="218" y="-839.5" font-family="Helvetica,sans-Serif" font-size="10.00" fill="#000000">+ Mutex()</text>
<text text-anchor="start" x="218" y="-828.5" font-family="Helvetica,sans-Serif" font-size="10.00" fill="#000000">+ Mutex()</text>
<text text-anchor="start" x="218" y="-817.5" font-family="Helvetica,sans-Serif" font-size="10.00" fill="#000000">+ operator=()</text>
</a>
</g>
</g>
<!-- Node6&#45;&gt;Node4 -->
<g id="edge5" class="edge">
<title>Node6&#45;&gt;Node4</title>
<path fill="none" stroke="#404040" d="M245.9445,-810.2186C243.9374,-800.553 241.4602,-790.3198 238.5,-781 235.88,-772.7512 232.9832,-764.362 229.8977,-755.9549"/>
<polygon fill="none" stroke="#404040" points="229.8099,-755.7217 223.9523,-751.5159 225.5816,-744.4913 231.4392,-748.697 229.8099,-755.7217"/>
<text text-anchor="middle" x="282.5" y="-784" font-family="Helvetica,sans-Serif" font-size="10.00" fill="#000000"> &#45;compress_mutex</text>
</g>
<!-- Node7 -->
<g id="node7" class="node">
<title>Node7</title>
<polygon fill="#ffffff" stroke="#bfbfbf" points="207,-976 207,-1033 270,-1033 270,-976 207,-976"/>
<text text-anchor="middle" x="238.5" y="-1021" font-family="Helvetica,sans-Serif" font-size="10.00" fill="#000000">std::mutex</text>
<polyline fill="none" stroke="#bfbfbf" points="207,-1014 270,-1014 "/>
<text text-anchor="middle" x="238.5" y="-1002" font-family="Helvetica,sans-Serif" font-size="10.00" fill="#000000"> </text>
<polyline fill="none" stroke="#bfbfbf" points="207,-995 270,-995 "/>
<text text-anchor="middle" x="238.5" y="-983" font-family="Helvetica,sans-Serif" font-size="10.00" fill="#000000"> </text>
</g>
<!-- Node7&#45;&gt;Node6 -->
<g id="edge6" class="edge">
<title>Node7&#45;&gt;Node6</title>
<path fill="none" stroke="#191970" d="M242.0239,-965.6113C244.1284,-942.3865 246.7947,-912.962 248.9107,-889.6105"/>
<polygon fill="none" stroke="#191970" points="238.5173,-965.5267 241.1005,-975.8018 245.4887,-966.1585 238.5173,-965.5267"/>
</g>
<!-- Node8 -->
<g id="node8" class="node">
<title>Node8</title>
<polygon fill="#ffffff" stroke="#bfbfbf" points="313,-816 313,-884 424,-884 424,-816 313,-816"/>
<text text-anchor="start" x="321" y="-872" font-family="Helvetica,sans-Serif" font-size="10.00" fill="#000000">std::vector&lt; IndexSet</text>
<text text-anchor="middle" x="368.5" y="-861" font-family="Helvetica,sans-Serif" font-size="10.00" fill="#000000">::Range &gt;</text>
<polyline fill="none" stroke="#bfbfbf" points="313,-854 424,-854 "/>
<text text-anchor="middle" x="368.5" y="-842" font-family="Helvetica,sans-Serif" font-size="10.00" fill="#000000"> </text>
<polyline fill="none" stroke="#bfbfbf" points="313,-835 424,-835 "/>
<text text-anchor="middle" x="368.5" y="-823" font-family="Helvetica,sans-Serif" font-size="10.00" fill="#000000"> </text>
</g>
<!-- Node8&#45;&gt;Node4 -->
<g id="edge8" class="edge">
<title>Node8&#45;&gt;Node4</title>
<path fill="none" stroke="#404040" d="M350.4089,-815.9858C343.7527,-804.4977 335.7992,-791.8444 327.5,-781 299.7383,-744.7244 264.9309,-707.9157 234.6173,-678.0356"/>
<polygon fill="none" stroke="#404040" points="234.3625,-677.7865 227.276,-676.4515 225.7827,-669.3967 232.8692,-670.7317 234.3625,-677.7865"/>
<text text-anchor="middle" x="353.5" y="-784" font-family="Helvetica,sans-Serif" font-size="10.00" fill="#000000"> &#45;ranges</text>
</g>
<!-- Node9&#45;&gt;Node8 -->
<g id="edge9" class="edge">
<title>Node9&#45;&gt;Node8</title>
<path fill="none" stroke="#404040" d="M358.3216,-948.2849C360.0874,-931.2338 362.0065,-912.7027 363.6975,-896.3744"/>
<polygon fill="none" stroke="#404040" points="363.7036,-896.3147 360.3429,-889.9345 364.9398,-884.3785 368.3004,-890.7586 363.7036,-896.3147"/>
<text text-anchor="middle" x="387" y="-916.5" font-family="Helvetica,sans-Serif" font-size="10.00" fill="#000000"> +elements</text>
</g>
<!-- Node10 -->
<g id="node10" class="node">
<title>Node10</title>
<g id="a_node10"><a xlink:title="STL class. ">
<polygon fill="#ffffff" stroke="#bfbfbf" points="435,-976 435,-1033 522,-1033 522,-976 435,-976"/>
<text text-anchor="middle" x="478.5" y="-1021" font-family="Helvetica,sans-Serif" font-size="10.00" fill="#000000">std::vector&lt; T &gt;</text>
<polyline fill="none" stroke="#bfbfbf" points="435,-1014 522,-1014 "/>
<text text-anchor="middle" x="478.5" y="-1002" font-family="Helvetica,sans-Serif" font-size="10.00" fill="#000000"> </text>
<polyline fill="none" stroke="#bfbfbf" points="435,-995 522,-995 "/>
<text text-anchor="middle" x="478.5" y="-983" font-family="Helvetica,sans-Serif" font-size="10.00" fill="#000000"> </text>
</a>
</g>
</g>
<!-- Node10&#45;&gt;Node8 -->
<g id="edge11" class="edge">
<title>Node10&#45;&gt;Node8</title>
<path fill="none" stroke="#ffa500" d="M455.3585,-967.1186C443.8096,-948.9754 429.3721,-927.0381 415.5,-908 409.7757,-900.1439 403.3714,-891.9128 397.1769,-884.2008"/>
<polygon fill="#ffa500" stroke="#ffa500" points="452.4771,-969.1108 460.7807,-975.6912 458.3931,-965.3689 452.4771,-969.1108"/>
<text text-anchor="middle" x="478" y="-916.5" font-family="Helvetica,sans-Serif" font-size="10.00" fill="#000000"> &lt; IndexSet::Range &gt;</text>
</g>
<!-- Node11 -->
<g id="node11" class="node">
<title>Node11</title>
<polygon fill="#ffffff" stroke="#bfbfbf" points="464,-1130.5 464,-1187.5 493,-1187.5 493,-1130.5 464,-1130.5"/>
<text text-anchor="middle" x="478.5" y="-1175.5" font-family="Helvetica,sans-Serif" font-size="10.00" fill="#000000">T</text>
<polyline fill="none" stroke="#bfbfbf" points="464,-1168.5 493,-1168.5 "/>
<text text-anchor="middle" x="478.5" y="-1156.5" font-family="Helvetica,sans-Serif" font-size="10.00" fill="#000000"> </text>
<polyline fill="none" stroke="#bfbfbf" points="464,-1149.5 493,-1149.5 "/>
<text text-anchor="middle" x="478.5" y="-1137.5" font-family="Helvetica,sans-Serif" font-size="10.00" fill="#000000"> </text>
</g>
<!-- Node11&#45;&gt;Node10 -->
<g id="edge12" class="edge">
<title>Node11&#45;&gt;Node10</title>
<path fill="none" stroke="#404040" d="M478.5,-1130.3018C478.5,-1106.3452 478.5,-1071.9122 478.5,-1045.1245"/>
<polygon fill="none" stroke="#404040" points="478.5001,-1045.0445 474.5,-1039.0445 478.5,-1033.0445 482.5,-1039.0445 478.5001,-1045.0445"/>
<text text-anchor="middle" x="503" y="-1093" font-family="Helvetica,sans-Serif" font-size="10.00" fill="#000000"> +elements</text>
</g>
</g>
</svg>
        <g id="navigator" transform="translate(0 0)" fill="#404254">
                <rect fill="#f2f5e9" fill-opacity="0.5" stroke="#606060" stroke-width=".5" x="0" y="0" width="60" height="60"/>
                <use id="zoomplus" xlink:href="#zoomPlus" x="17" y="9" onmousedown="handleZoom(evt,'in')"/>
                <use id="zoomminus" xlink:href="#zoomMin" x="42" y="9" onmousedown="handleZoom(evt,'out')"/>
                <use id="reset" xlink:href="#resetDef" x="30" y="36" onmousedown="handleReset()"/>
                <g id="arrowUp" xlink:href="#dirArrow" transform="translate(30 24)" onmousedown="handlePan(0,-1)">
                  <use xlink:href="#rim" fill="#404040">
                        <set attributeName="fill" to="#808080" begin="arrowUp.mouseover" end="arrowUp.mouseout"/>
                  </use>
                  <path fill="none" stroke="white" stroke-width="1.5" d="M0,-3.0v7 M-2.5,-0.5L0,-3.0L2.5,-0.5"/>
                </g>
                <g id="arrowRight" xlink:href="#dirArrow" transform="rotate(90) translate(36 -43)" onmousedown="handlePan(1,0)">
                  <use xlink:href="#rim" fill="#404040">
                        <set attributeName="fill" to="#808080" begin="arrowRight.mouseover" end="arrowRight.mouseout"/>
                  </use>
                  <path fill="none" stroke="white" stroke-width="1.5" d="M0,-3.0v7 M-2.5,-0.5L0,-3.0L2.5,-0.5"/>
                </g>
                <g id="arrowDown" xlink:href="#dirArrow" transform="rotate(180) translate(-30 -48)" onmousedown="handlePan(0,1)">
                  <use xlink:href="#rim" fill="#404040">
                        <set attributeName="fill" to="#808080" begin="arrowDown.mouseover" end="arrowDown.mouseout"/>
                  </use>
                  <path fill="none" stroke="white" stroke-width="1.5" d="M0,-3.0v7 M-2.5,-0.5L0,-3.0L2.5,-0.5"/>
                </g>
                <g id="arrowLeft" xlink:href="#dirArrow" transform="rotate(270) translate(-36 17)" onmousedown="handlePan(-1,0)">
                  <use xlink:href="#rim" fill="#404040">
                        <set attributeName="fill" to="#808080" begin="arrowLeft.mouseover" end="arrowLeft.mouseout"/>
                  </use>
                  <path fill="none" stroke="white" stroke-width="1.5" d="M0,-3.0v7 M-2.5,-0.5L0,-3.0L2.5,-0.5"/>
                </g>
        </g>
        <svg viewBox="0 0 15 15" width="100%" height="30px" preserveAspectRatio="xMaxYMin meet">
         <g id="arrow_out" transform="scale(0.3 0.3)">
          <a xlink:href="classIndexSet_1_1IntervalIterator__coll__graph_org.svg" target="_base">
           <rect id="button" ry="5" rx="5" y="6" x="6" height="38" width="38"
                fill="#f2f5e9" fill-opacity="0.5" stroke="#606060" stroke-width="1.0"/>
           <path id="arrow"
             d="M 11.500037,31.436501 C 11.940474,20.09759 22.043105,11.32322 32.158766,21.979434 L 37.068811,17.246167 C 37.068811,17.246167 37.088388,32 37.088388,32 L 22.160133,31.978069 C 22.160133,31.978069 26.997745,27.140456 26.997745,27.140456 C 18.528582,18.264221 13.291696,25.230495 11.500037,31.436501 z"
             style="fill:#404040;"/>
          </a>
         </g>
        </svg>
</svg>
