<?xml version="1.0" encoding="UTF-8" standalone="no"?>
<!DOCTYPE svg PUBLIC "-//W3C//DTD SVG 1.1//EN"
 "http://www.w3.org/Graphics/SVG/1.1/DTD/svg11.dtd">
<!-- Generated by graphviz version 2.40.1 (20161225.0304)
 -->
<!-- Title: Utilities::MPI::CollectiveMutex Pages: 1 -->
<svg width="145pt" height="215pt"
 viewBox="0.00 0.00 145.00 215.00" xmlns="http://www.w3.org/2000/svg" xmlns:xlink="http://www.w3.org/1999/xlink">
<g id="graph0" class="graph" transform="scale(1 1) rotate(0) translate(4 211)">
<title>Utilities::MPI::CollectiveMutex</title>
<polygon fill="#ffffff" stroke="transparent" points="-4,4 -4,-211 141,-211 141,4 -4,4"/>
<!-- Node1 -->
<g id="node1" class="node">
<title>Node1</title>
<polygon fill="#bfbfbf" stroke="#000000" points="14,-.5 14,-101.5 137,-101.5 137,-.5 14,-.5"/>
<text text-anchor="start" x="22" y="-89.5" font-family="Helvetica,sans-Serif" font-size="10.00" fill="#000000">Utilities::MPI::Collective</text>
<text text-anchor="middle" x="75.5" y="-78.5" font-family="Helvetica,sans-Serif" font-size="10.00" fill="#000000">Mutex</text>
<polyline fill="none" stroke="#000000" points="14,-71.5 137,-71.5 "/>
<text text-anchor="middle" x="75.5" y="-59.5" font-family="Helvetica,sans-Serif" font-size="10.00" fill="#000000"> </text>
<polyline fill="none" stroke="#000000" points="14,-52.5 137,-52.5 "/>
<text text-anchor="start" x="22" y="-40.5" font-family="Helvetica,sans-Serif" font-size="10.00" fill="#000000">+ CollectiveMutex()</text>
<text text-anchor="start" x="22" y="-29.5" font-family="Helvetica,sans-Serif" font-size="10.00" fill="#000000">+ ~CollectiveMutex()</text>
<text text-anchor="start" x="22" y="-18.5" font-family="Helvetica,sans-Serif" font-size="10.00" fill="#000000">+ lock()</text>
<text text-anchor="start" x="22" y="-7.5" font-family="Helvetica,sans-Serif" font-size="10.00" fill="#000000">+ unlock()</text>
</g>
<!-- Node2 -->
<g id="node2" class="node">
<title>Node2</title>
<g id="a_node2"><a xlink:href="classMPI__Request.html" target="_top" xlink:title="{MPI_Request\n||}">
<polygon fill="#ffffff" stroke="#000000" points="0,-149.5 0,-206.5 77,-206.5 77,-149.5 0,-149.5"/>
<text text-anchor="middle" x="38.5" y="-194.5" font-family="Helvetica,sans-Serif" font-size="10.00" fill="#000000">MPI_Request</text>
<polyline fill="none" stroke="#000000" points="0,-187.5 77,-187.5 "/>
<text text-anchor="middle" x="38.5" y="-175.5" font-family="Helvetica,sans-Serif" font-size="10.00" fill="#000000"> </text>
<polyline fill="none" stroke="#000000" points="0,-168.5 77,-168.5 "/>
<text text-anchor="middle" x="38.5" y="-156.5" font-family="Helvetica,sans-Serif" font-size="10.00" fill="#000000"> </text>
</a>
</g>
</g>
<!-- Node2&#45;&gt;Node1 -->
<g id="edge1" class="edge">
<title>Node2&#45;&gt;Node1</title>
<path fill="none" stroke="#404040" d="M44.27,-149.2206C46.3304,-139.8458 48.8133,-129.428 51.5,-120 52.1387,-117.7587 52.8094,-115.4837 53.5041,-113.1913"/>
<polygon fill="none" stroke="#404040" points="53.5314,-113.1047 51.5221,-106.1791 57.1421,-101.6607 59.1514,-108.5862 53.5314,-113.1047"/>
<text text-anchor="middle" x="71" y="-123" font-family="Helvetica,sans-Serif" font-size="10.00" fill="#000000"> &#45;request</text>
</g>
<!-- Node3 -->
<g id="node3" class="node">
<title>Node3</title>
<g id="a_node3"><a xlink:href="classbool.html" target="_top" xlink:title="{bool\n||}">
<polygon fill="#ffffff" stroke="#000000" points="95,-149.5 95,-206.5 130,-206.5 130,-149.5 95,-149.5"/>
<text text-anchor="middle" x="112.5" y="-194.5" font-family="Helvetica,sans-Serif" font-size="10.00" fill="#000000">bool</text>
<polyline fill="none" stroke="#000000" points="95,-187.5 130,-187.5 "/>
<text text-anchor="middle" x="112.5" y="-175.5" font-family="Helvetica,sans-Serif" font-size="10.00" fill="#000000"> </text>
<polyline fill="none" stroke="#000000" points="95,-168.5 130,-168.5 "/>
<text text-anchor="middle" x="112.5" y="-156.5" font-family="Helvetica,sans-Serif" font-size="10.00" fill="#000000"> </text>
</a>
</g>
</g>
<!-- Node3&#45;&gt;Node1 -->
<g id="edge2" class="edge">
<title>Node3&#45;&gt;Node1</title>
<path fill="none" stroke="#404040" d="M104.1965,-149.4987C101.0481,-138.6923 97.3268,-125.9192 93.6255,-113.2147"/>
<polygon fill="none" stroke="#404040" points="93.6056,-113.146 88.087,-108.5044 90.249,-101.625 95.7677,-106.2667 93.6056,-113.146"/>
<text text-anchor="middle" x="115" y="-123" font-family="Helvetica,sans-Serif" font-size="10.00" fill="#000000"> &#45;locked</text>
</g>
</g>
</svg>
