<?xml version="1.0" encoding="UTF-8" standalone="no"?>
<!DOCTYPE svg PUBLIC "-//W3C//DTD SVG 1.1//EN"
 "http://www.w3.org/Graphics/SVG/1.1/DTD/svg11.dtd">
<!-- Generated by graphviz version 2.40.1 (20161225.0304)
 -->
<!-- Title: FEValuesViews::Scalar&lt; dim, spacedim &gt; Pages: 1 -->
<!--zoomable 872 -->
<svg id="main" version="1.1" xmlns="http://www.w3.org/2000/svg" xmlns:xlink="http://www.w3.org/1999/xlink" xml:space="preserve" onload="init(evt)">
<style type="text/css"><![CDATA[
.edge:hover path { stroke: red; }
.edge:hover polygon { stroke: red; fill: red; }
]]></style>
<script type="text/javascript"><![CDATA[
var edges = document.getElementsByTagName('g');
if (edges && edges.length) {
  for (var i=0;i<edges.length;i++) {
    if (edges[i].id.substr(0,4)=='edge') {
      edges[i].setAttribute('class','edge');
    }
  }
}
]]></script>
        <defs>
                <circle id="rim" cx="0" cy="0" r="7"/>
                <circle id="rim2" cx="0" cy="0" r="3.5"/>
                <g id="zoomPlus">
                        <use xlink:href="#rim" fill="#404040">
                                <set attributeName="fill" to="#808080" begin="zoomplus.mouseover" end="zoomplus.mouseout"/>
                        </use>
                        <path d="M-4,0h8M0,-4v8" fill="none" stroke="white" stroke-width="1.5" pointer-events="none"/>
                </g>
                <g id="zoomMin">
                        <use xlink:href="#rim" fill="#404040">
                                <set attributeName="fill" to="#808080" begin="zoomminus.mouseover" end="zoomminus.mouseout"/>
                        </use>
                        <path d="M-4,0h8" fill="none" stroke="white" stroke-width="1.5" pointer-events="none"/>
                </g>
                <g id="dirArrow">
                        <path fill="none" stroke="white" stroke-width="1.5" d="M0,-3.0v7 M-2.5,-0.5L0,-3.0L2.5,-0.5"/>
                </g>
               <g id="resetDef">
                       <use xlink:href="#rim2" fill="#404040">
                               <set attributeName="fill" to="#808080" begin="reset.mouseover" end="reset.mouseout"/>
                       </use>
               </g>
        </defs>

<script type="text/javascript">
var viewWidth = 727;
var viewHeight = 872;
var sectionId = 'dynsection-0';
</script>
<script xlink:href="svgpan.js"/>
<svg id="graph" class="graph">
<g id="viewport">
<title>FEValuesViews::Scalar&lt; dim, spacedim &gt;</title>
<polygon fill="#ffffff" stroke="transparent" points="-4,4 -4,-868 722.5,-868 722.5,4 -4,4"/>
<!-- Node1 -->
<g id="node1" class="node">
<title>Node1</title>
<polygon fill="#bfbfbf" stroke="#000000" points="287.5,-.5 287.5,-178.5 407.5,-178.5 407.5,-.5 287.5,-.5"/>
<text text-anchor="start" x="295.5" y="-166.5" font-family="Helvetica,sans-Serif" font-size="10.00" fill="#000000">FEValuesViews::Scalar</text>
<text text-anchor="middle" x="347.5" y="-155.5" font-family="Helvetica,sans-Serif" font-size="10.00" fill="#000000">&lt; dim, spacedim &gt;</text>
<polyline fill="none" stroke="#000000" points="287.5,-148.5 407.5,-148.5 "/>
<text text-anchor="middle" x="347.5" y="-136.5" font-family="Helvetica,sans-Serif" font-size="10.00" fill="#000000"> </text>
<polyline fill="none" stroke="#000000" points="287.5,-129.5 407.5,-129.5 "/>
<text text-anchor="start" x="295.5" y="-117.5" font-family="Helvetica,sans-Serif" font-size="10.00" fill="#000000">+ Scalar()</text>
<text text-anchor="start" x="295.5" y="-106.5" font-family="Helvetica,sans-Serif" font-size="10.00" fill="#000000">+ Scalar()</text>
<text text-anchor="start" x="295.5" y="-95.5" font-family="Helvetica,sans-Serif" font-size="10.00" fill="#000000">+ Scalar()</text>
<text text-anchor="start" x="295.5" y="-84.5" font-family="Helvetica,sans-Serif" font-size="10.00" fill="#000000">+ Scalar()</text>
<text text-anchor="start" x="295.5" y="-73.5" font-family="Helvetica,sans-Serif" font-size="10.00" fill="#000000">+ ~Scalar()</text>
<text text-anchor="start" x="295.5" y="-62.5" font-family="Helvetica,sans-Serif" font-size="10.00" fill="#000000">+ operator=()</text>
<text text-anchor="start" x="295.5" y="-51.5" font-family="Helvetica,sans-Serif" font-size="10.00" fill="#000000">+ operator=()</text>
<text text-anchor="start" x="295.5" y="-40.5" font-family="Helvetica,sans-Serif" font-size="10.00" fill="#000000">+ value()</text>
<text text-anchor="start" x="295.5" y="-29.5" font-family="Helvetica,sans-Serif" font-size="10.00" fill="#000000">+ gradient()</text>
<text text-anchor="start" x="295.5" y="-18.5" font-family="Helvetica,sans-Serif" font-size="10.00" fill="#000000">+ hessian()</text>
<text text-anchor="start" x="295.5" y="-7.5" font-family="Helvetica,sans-Serif" font-size="10.00" fill="#000000">and 11 more...</text>
</g>
<!-- Node2 -->
<g id="node2" class="node">
<title>Node2</title>
<polygon fill="#ffffff" stroke="#bfbfbf" points="132.5,-287 132.5,-355 284.5,-355 284.5,-287 132.5,-287"/>
<text text-anchor="start" x="140.5" y="-343" font-family="Helvetica,sans-Serif" font-size="10.00" fill="#000000">std::vector&lt; FEValuesViews</text>
<text text-anchor="middle" x="208.5" y="-332" font-family="Helvetica,sans-Serif" font-size="10.00" fill="#000000">::Scalar::ShapeFunctionData &gt;</text>
<polyline fill="none" stroke="#bfbfbf" points="132.5,-325 284.5,-325 "/>
<text text-anchor="middle" x="208.5" y="-313" font-family="Helvetica,sans-Serif" font-size="10.00" fill="#000000"> </text>
<polyline fill="none" stroke="#bfbfbf" points="132.5,-306 284.5,-306 "/>
<text text-anchor="middle" x="208.5" y="-294" font-family="Helvetica,sans-Serif" font-size="10.00" fill="#000000"> </text>
</g>
<!-- Node2&#45;&gt;Node1 -->
<g id="edge1" class="edge">
<title>Node2&#45;&gt;Node1</title>
<path fill="none" stroke="#404040" d="M214.5532,-286.9369C220.1682,-261.0206 230.1703,-225.1408 246.5,-197 255.4287,-181.6133 266.949,-166.6613 278.9969,-153.0411"/>
<polygon fill="none" stroke="#404040" points="279.3081,-152.6999 280.3975,-145.5716 287.3966,-143.8355 286.3072,-150.9639 279.3081,-152.6999"/>
<text text-anchor="middle" x="295" y="-200" font-family="Helvetica,sans-Serif" font-size="10.00" fill="#000000"> &#45;shape_function_data</text>
</g>
<!-- Node3 -->
<g id="node3" class="node">
<title>Node3</title>
<g id="a_node3"><a xlink:href="structFEValuesViews_1_1Scalar_1_1ShapeFunctionData.html" target="_top" xlink:title="{FEValuesViews::Scalar\l\&lt; dim, spacedim \&gt;::ShapeFunctionData\n||}">
<polygon fill="#ffffff" stroke="#000000" points="0,-524 0,-592 191,-592 191,-524 0,-524"/>
<text text-anchor="start" x="8" y="-580" font-family="Helvetica,sans-Serif" font-size="10.00" fill="#000000">FEValuesViews::Scalar</text>
<text text-anchor="middle" x="95.5" y="-569" font-family="Helvetica,sans-Serif" font-size="10.00" fill="#000000">&lt; dim, spacedim &gt;::ShapeFunctionData</text>
<polyline fill="none" stroke="#000000" points="0,-562 191,-562 "/>
<text text-anchor="middle" x="95.5" y="-550" font-family="Helvetica,sans-Serif" font-size="10.00" fill="#000000"> </text>
<polyline fill="none" stroke="#000000" points="0,-543 191,-543 "/>
<text text-anchor="middle" x="95.5" y="-531" font-family="Helvetica,sans-Serif" font-size="10.00" fill="#000000"> </text>
</a>
</g>
</g>
<!-- Node3&#45;&gt;Node2 -->
<g id="edge2" class="edge">
<title>Node3&#45;&gt;Node2</title>
<path fill="none" stroke="#404040" d="M111.2371,-523.9869C122.8243,-499.0336 139.0167,-464.3507 153.5,-434 164.2034,-411.5704 176.2706,-386.7293 186.3691,-366.0632"/>
<polygon fill="none" stroke="#404040" points="186.4819,-365.8326 185.5257,-358.6851 191.7556,-355.0535 192.7118,-362.2009 186.4819,-365.8326"/>
<text text-anchor="middle" x="178" y="-442.5" font-family="Helvetica,sans-Serif" font-size="10.00" fill="#000000"> +elements</text>
</g>
<!-- Node4 -->
<g id="node4" class="node">
<title>Node4</title>
<g id="a_node4"><a xlink:href="classint.html" target="_top" xlink:title="{int\n||}">
<polygon fill="#ffffff" stroke="#000000" points="7,-700.5 7,-757.5 36,-757.5 36,-700.5 7,-700.5"/>
<text text-anchor="middle" x="21.5" y="-745.5" font-family="Helvetica,sans-Serif" font-size="10.00" fill="#000000">int</text>
<polyline fill="none" stroke="#000000" points="7,-738.5 36,-738.5 "/>
<text text-anchor="middle" x="21.5" y="-726.5" font-family="Helvetica,sans-Serif" font-size="10.00" fill="#000000"> </text>
<polyline fill="none" stroke="#000000" points="7,-719.5 36,-719.5 "/>
<text text-anchor="middle" x="21.5" y="-707.5" font-family="Helvetica,sans-Serif" font-size="10.00" fill="#000000"> </text>
</a>
</g>
</g>
<!-- Node4&#45;&gt;Node3 -->
<g id="edge3" class="edge">
<title>Node4&#45;&gt;Node3</title>
<path fill="none" stroke="#404040" d="M27.3135,-700.2943C30.2885,-687.701 34.3745,-672.8836 39.5,-660 47.2301,-640.5693 57.8651,-620.175 67.7918,-602.7734"/>
<polygon fill="none" stroke="#404040" points="67.815,-602.7333 67.3743,-595.5357 73.8487,-592.3605 74.2895,-599.5581 67.815,-602.7333"/>
<text text-anchor="middle" x="66.5" y="-668.5" font-family="Helvetica,sans-Serif" font-size="10.00" fill="#000000"> +row_index</text>
</g>
<!-- Node5 -->
<g id="node5" class="node">
<title>Node5</title>
<g id="a_node5"><a xlink:href="classbool.html" target="_top" xlink:title="{bool\n||}">
<polygon fill="#ffffff" stroke="#000000" points="81,-700.5 81,-757.5 116,-757.5 116,-700.5 81,-700.5"/>
<text text-anchor="middle" x="98.5" y="-745.5" font-family="Helvetica,sans-Serif" font-size="10.00" fill="#000000">bool</text>
<polyline fill="none" stroke="#000000" points="81,-738.5 116,-738.5 "/>
<text text-anchor="middle" x="98.5" y="-726.5" font-family="Helvetica,sans-Serif" font-size="10.00" fill="#000000"> </text>
<polyline fill="none" stroke="#000000" points="81,-719.5 116,-719.5 "/>
<text text-anchor="middle" x="98.5" y="-707.5" font-family="Helvetica,sans-Serif" font-size="10.00" fill="#000000"> </text>
</a>
</g>
</g>
<!-- Node5&#45;&gt;Node3 -->
<g id="edge4" class="edge">
<title>Node5&#45;&gt;Node3</title>
<path fill="none" stroke="#404040" d="M97.9979,-700.3784C97.5375,-674.1394 96.8477,-634.8204 96.3096,-604.1456"/>
<polygon fill="none" stroke="#404040" points="96.3074,-604.0139 92.2027,-598.085 96.0968,-592.0157 100.2014,-597.9446 96.3074,-604.0139"/>
<text text-anchor="start" x="98.5" y="-674" font-family="Helvetica,sans-Serif" font-size="10.00" fill="#000000"> +is_nonzero_shape_function</text>
<text text-anchor="middle" x="162.5" y="-663" font-family="Helvetica,sans-Serif" font-size="10.00" fill="#000000">_component</text>
</g>
<!-- Node6 -->
<g id="node6" class="node">
<title>Node6</title>
<g id="a_node6"><a xlink:title="STL class. ">
<polygon fill="#ffffff" stroke="#bfbfbf" points="209,-529.5 209,-586.5 296,-586.5 296,-529.5 209,-529.5"/>
<text text-anchor="middle" x="252.5" y="-574.5" font-family="Helvetica,sans-Serif" font-size="10.00" fill="#000000">std::vector&lt; T &gt;</text>
<polyline fill="none" stroke="#bfbfbf" points="209,-567.5 296,-567.5 "/>
<text text-anchor="middle" x="252.5" y="-555.5" font-family="Helvetica,sans-Serif" font-size="10.00" fill="#000000"> </text>
<polyline fill="none" stroke="#bfbfbf" points="209,-548.5 296,-548.5 "/>
<text text-anchor="middle" x="252.5" y="-536.5" font-family="Helvetica,sans-Serif" font-size="10.00" fill="#000000"> </text>
</a>
</g>
</g>
<!-- Node6&#45;&gt;Node2 -->
<g id="edge5" class="edge">
<title>Node6&#45;&gt;Node2</title>
<path fill="none" stroke="#ffa500" d="M232.2933,-520.0147C223.4407,-501.2991 214.0449,-478.0595 209.5,-456 202.5476,-422.2547 203.2498,-382.7506 205.1083,-355.2281"/>
<polygon fill="#ffa500" stroke="#ffa500" points="229.1848,-521.6256 236.7078,-529.0859 235.479,-518.5625 229.1848,-521.6256"/>
<text text-anchor="start" x="209.5" y="-448" font-family="Helvetica,sans-Serif" font-size="10.00" fill="#000000"> &lt; FEValuesViews::Scalar</text>
<text text-anchor="middle" x="267.5" y="-437" font-family="Helvetica,sans-Serif" font-size="10.00" fill="#000000">::ShapeFunctionData &gt;</text>
</g>
<!-- Node7 -->
<g id="node7" class="node">
<title>Node7</title>
<polygon fill="#ffffff" stroke="#bfbfbf" points="262,-700.5 262,-757.5 291,-757.5 291,-700.5 262,-700.5"/>
<text text-anchor="middle" x="276.5" y="-745.5" font-family="Helvetica,sans-Serif" font-size="10.00" fill="#000000">T</text>
<polyline fill="none" stroke="#bfbfbf" points="262,-738.5 291,-738.5 "/>
<text text-anchor="middle" x="276.5" y="-726.5" font-family="Helvetica,sans-Serif" font-size="10.00" fill="#000000"> </text>
<polyline fill="none" stroke="#bfbfbf" points="262,-719.5 291,-719.5 "/>
<text text-anchor="middle" x="276.5" y="-707.5" font-family="Helvetica,sans-Serif" font-size="10.00" fill="#000000"> </text>
</g>
<!-- Node7&#45;&gt;Node6 -->
<g id="edge6" class="edge">
<title>Node7&#45;&gt;Node6</title>
<path fill="none" stroke="#404040" d="M267.69,-700.3578C266.0898,-694.3399 264.5863,-687.998 263.5,-682 258.5148,-654.4733 255.7586,-623.0823 254.2519,-598.7717"/>
<polygon fill="none" stroke="#404040" points="254.2504,-598.7431 249.918,-592.9786 253.5727,-586.7622 257.9052,-592.5268 254.2504,-598.7431"/>
<text text-anchor="middle" x="288" y="-668.5" font-family="Helvetica,sans-Serif" font-size="10.00" fill="#000000"> +elements</text>
</g>
<!-- Node14 -->
<g id="node14" class="node">
<title>Node14</title>
<g id="a_node14"><a xlink:href="classSmartPointer.html" target="_top" xlink:title="{SmartPointer\&lt; T, P \&gt;\n||+ SmartPointer()\l+ SmartPointer()\l+ SmartPointer()\l+ SmartPointer()\l+ SmartPointer()\l+ ~SmartPointer()\l+ operator=()\l+ operator=()\l+ operator=()\l+ clear()\land 6 more...\l}">
<polygon fill="#ffffff" stroke="#000000" points="314.5,-474.5 314.5,-641.5 424.5,-641.5 424.5,-474.5 314.5,-474.5"/>
<text text-anchor="middle" x="369.5" y="-629.5" font-family="Helvetica,sans-Serif" font-size="10.00" fill="#000000">SmartPointer&lt; T, P &gt;</text>
<polyline fill="none" stroke="#000000" points="314.5,-622.5 424.5,-622.5 "/>
<text text-anchor="middle" x="369.5" y="-610.5" font-family="Helvetica,sans-Serif" font-size="10.00" fill="#000000"> </text>
<polyline fill="none" stroke="#000000" points="314.5,-603.5 424.5,-603.5 "/>
<text text-anchor="start" x="322.5" y="-591.5" font-family="Helvetica,sans-Serif" font-size="10.00" fill="#000000">+ SmartPointer()</text>
<text text-anchor="start" x="322.5" y="-580.5" font-family="Helvetica,sans-Serif" font-size="10.00" fill="#000000">+ SmartPointer()</text>
<text text-anchor="start" x="322.5" y="-569.5" font-family="Helvetica,sans-Serif" font-size="10.00" fill="#000000">+ SmartPointer()</text>
<text text-anchor="start" x="322.5" y="-558.5" font-family="Helvetica,sans-Serif" font-size="10.00" fill="#000000">+ SmartPointer()</text>
<text text-anchor="start" x="322.5" y="-547.5" font-family="Helvetica,sans-Serif" font-size="10.00" fill="#000000">+ SmartPointer()</text>
<text text-anchor="start" x="322.5" y="-536.5" font-family="Helvetica,sans-Serif" font-size="10.00" fill="#000000">+ ~SmartPointer()</text>
<text text-anchor="start" x="322.5" y="-525.5" font-family="Helvetica,sans-Serif" font-size="10.00" fill="#000000">+ operator=()</text>
<text text-anchor="start" x="322.5" y="-514.5" font-family="Helvetica,sans-Serif" font-size="10.00" fill="#000000">+ operator=()</text>
<text text-anchor="start" x="322.5" y="-503.5" font-family="Helvetica,sans-Serif" font-size="10.00" fill="#000000">+ operator=()</text>
<text text-anchor="start" x="322.5" y="-492.5" font-family="Helvetica,sans-Serif" font-size="10.00" fill="#000000">+ clear()</text>
<text text-anchor="start" x="322.5" y="-481.5" font-family="Helvetica,sans-Serif" font-size="10.00" fill="#000000">and 6 more...</text>
</a>
</g>
</g>
<!-- Node7&#45;&gt;Node14 -->
<g id="edge16" class="edge">
<title>Node7&#45;&gt;Node14</title>
<path fill="none" stroke="#404040" d="M291.1486,-711.8081C298.1032,-703.1859 306.2409,-692.3886 312.5,-682 318.1122,-672.6852 323.5442,-662.7245 328.6803,-652.6489"/>
<polygon fill="none" stroke="#404040" points="328.7848,-652.4388 327.8773,-645.285 334.1318,-641.6959 335.0393,-648.8497 328.7848,-652.4388"/>
<text text-anchor="middle" x="327.5" y="-668.5" font-family="Helvetica,sans-Serif" font-size="10.00" fill="#000000"> &#45;t</text>
</g>
<!-- Node8 -->
<g id="node8" class="node">
<title>Node8</title>
<polygon fill="#ffffff" stroke="#bfbfbf" points="319.5,-292.5 319.5,-349.5 375.5,-349.5 375.5,-292.5 319.5,-292.5"/>
<text text-anchor="middle" x="347.5" y="-337.5" font-family="Helvetica,sans-Serif" font-size="10.00" fill="#000000">unsigned</text>
<polyline fill="none" stroke="#bfbfbf" points="319.5,-330.5 375.5,-330.5 "/>
<text text-anchor="middle" x="347.5" y="-318.5" font-family="Helvetica,sans-Serif" font-size="10.00" fill="#000000"> </text>
<polyline fill="none" stroke="#bfbfbf" points="319.5,-311.5 375.5,-311.5 "/>
<text text-anchor="middle" x="347.5" y="-299.5" font-family="Helvetica,sans-Serif" font-size="10.00" fill="#000000"> </text>
</g>
<!-- Node8&#45;&gt;Node1 -->
<g id="edge7" class="edge">
<title>Node8&#45;&gt;Node1</title>
<path fill="none" stroke="#404040" d="M347.5,-292.1484C347.5,-266.6123 347.5,-227.7784 347.5,-190.9146"/>
<polygon fill="none" stroke="#404040" points="347.5001,-190.5105 343.5,-184.5106 347.5,-178.5105 351.5,-184.5105 347.5001,-190.5105"/>
<text text-anchor="middle" x="375" y="-200" font-family="Helvetica,sans-Serif" font-size="10.00" fill="#000000"> &#45;component</text>
</g>
<!-- Node9 -->
<g id="node9" class="node">
<title>Node9</title>
<g id="a_node9"><a xlink:href="classSmartPointer.html" target="_top" xlink:title="{SmartPointer\&lt; const\l FEValuesBase\&lt; dim,\l spacedim \&gt; \&gt;\n||+ SmartPointer()\l+ SmartPointer()\l+ SmartPointer()\l+ SmartPointer()\l+ SmartPointer()\l+ ~SmartPointer()\l+ operator=()\l+ operator=()\l+ operator=()\l+ clear()\land 6 more...\l}">
<polygon fill="#ffffff" stroke="#000000" points="411,-226.5 411,-415.5 524,-415.5 524,-226.5 411,-226.5"/>
<text text-anchor="start" x="419" y="-403.5" font-family="Helvetica,sans-Serif" font-size="10.00" fill="#000000">SmartPointer&lt; const</text>
<text text-anchor="start" x="419" y="-392.5" font-family="Helvetica,sans-Serif" font-size="10.00" fill="#000000"> FEValuesBase&lt; dim,</text>
<text text-anchor="middle" x="467.5" y="-381.5" font-family="Helvetica,sans-Serif" font-size="10.00" fill="#000000"> spacedim &gt; &gt;</text>
<polyline fill="none" stroke="#000000" points="411,-374.5 524,-374.5 "/>
<text text-anchor="middle" x="467.5" y="-362.5" font-family="Helvetica,sans-Serif" font-size="10.00" fill="#000000"> </text>
<polyline fill="none" stroke="#000000" points="411,-355.5 524,-355.5 "/>
<text text-anchor="start" x="419" y="-343.5" font-family="Helvetica,sans-Serif" font-size="10.00" fill="#000000">+ SmartPointer()</text>
<text text-anchor="start" x="419" y="-332.5" font-family="Helvetica,sans-Serif" font-size="10.00" fill="#000000">+ SmartPointer()</text>
<text text-anchor="start" x="419" y="-321.5" font-family="Helvetica,sans-Serif" font-size="10.00" fill="#000000">+ SmartPointer()</text>
<text text-anchor="start" x="419" y="-310.5" font-family="Helvetica,sans-Serif" font-size="10.00" fill="#000000">+ SmartPointer()</text>
<text text-anchor="start" x="419" y="-299.5" font-family="Helvetica,sans-Serif" font-size="10.00" fill="#000000">+ SmartPointer()</text>
<text text-anchor="start" x="419" y="-288.5" font-family="Helvetica,sans-Serif" font-size="10.00" fill="#000000">+ ~SmartPointer()</text>
<text text-anchor="start" x="419" y="-277.5" font-family="Helvetica,sans-Serif" font-size="10.00" fill="#000000">+ operator=()</text>
<text text-anchor="start" x="419" y="-266.5" font-family="Helvetica,sans-Serif" font-size="10.00" fill="#000000">+ operator=()</text>
<text text-anchor="start" x="419" y="-255.5" font-family="Helvetica,sans-Serif" font-size="10.00" fill="#000000">+ operator=()</text>
<text text-anchor="start" x="419" y="-244.5" font-family="Helvetica,sans-Serif" font-size="10.00" fill="#000000">+ clear()</text>
<text text-anchor="start" x="419" y="-233.5" font-family="Helvetica,sans-Serif" font-size="10.00" fill="#000000">and 6 more...</text>
</a>
</g>
</g>
<!-- Node9&#45;&gt;Node1 -->
<g id="edge8" class="edge">
<title>Node9&#45;&gt;Node1</title>
<path fill="none" stroke="#404040" d="M421.4755,-226.3334C416.4825,-216.3978 411.4259,-206.472 406.5,-197 405.243,-194.583 403.9642,-192.1389 402.669,-189.6767"/>
<polygon fill="none" stroke="#404040" points="402.5196,-189.3946 396.176,-185.9656 396.9013,-178.791 403.245,-182.22 402.5196,-189.3946"/>
<text text-anchor="middle" x="436" y="-200" font-family="Helvetica,sans-Serif" font-size="10.00" fill="#000000"> &#45;fe_values</text>
</g>
<!-- Node10 -->
<g id="node10" class="node">
<title>Node10</title>
<polygon fill="#ffffff" stroke="#bfbfbf" points="569,-524 569,-592 678,-592 678,-524 569,-524"/>
<text text-anchor="start" x="577" y="-580" font-family="Helvetica,sans-Serif" font-size="10.00" fill="#000000">const FEValuesBase</text>
<text text-anchor="middle" x="623.5" y="-569" font-family="Helvetica,sans-Serif" font-size="10.00" fill="#000000">&lt; dim, spacedim &gt; *</text>
<polyline fill="none" stroke="#bfbfbf" points="569,-562 678,-562 "/>
<text text-anchor="middle" x="623.5" y="-550" font-family="Helvetica,sans-Serif" font-size="10.00" fill="#000000"> </text>
<polyline fill="none" stroke="#bfbfbf" points="569,-543 678,-543 "/>
<text text-anchor="middle" x="623.5" y="-531" font-family="Helvetica,sans-Serif" font-size="10.00" fill="#000000"> </text>
</g>
<!-- Node10&#45;&gt;Node9 -->
<g id="edge9" class="edge">
<title>Node10&#45;&gt;Node9</title>
<path fill="none" stroke="#404040" d="M600.9829,-523.7913C582.5484,-495.7851 555.5414,-454.7552 530.6344,-416.9157"/>
<polygon fill="none" stroke="#404040" points="530.6129,-416.883 523.9729,-414.0706 524.0152,-406.8596 530.6552,-409.672 530.6129,-416.883"/>
<text text-anchor="middle" x="559.5" y="-442.5" font-family="Helvetica,sans-Serif" font-size="10.00" fill="#000000"> &#45;t</text>
</g>
<!-- Node11 -->
<g id="node11" class="node">
<title>Node11</title>
<g id="a_node11"><a xlink:title="STL class. ">
<polygon fill="#ffffff" stroke="#bfbfbf" points="623.5,-700.5 623.5,-757.5 683.5,-757.5 683.5,-700.5 623.5,-700.5"/>
<text text-anchor="middle" x="653.5" y="-745.5" font-family="Helvetica,sans-Serif" font-size="10.00" fill="#000000">std::string</text>
<polyline fill="none" stroke="#bfbfbf" points="623.5,-738.5 683.5,-738.5 "/>
<text text-anchor="middle" x="653.5" y="-726.5" font-family="Helvetica,sans-Serif" font-size="10.00" fill="#000000"> </text>
<polyline fill="none" stroke="#bfbfbf" points="623.5,-719.5 683.5,-719.5 "/>
<text text-anchor="middle" x="653.5" y="-707.5" font-family="Helvetica,sans-Serif" font-size="10.00" fill="#000000"> </text>
</a>
</g>
</g>
<!-- Node11&#45;&gt;Node9 -->
<g id="edge10" class="edge">
<title>Node11&#45;&gt;Node9</title>
<path fill="none" stroke="#404040" d="M667.6542,-700.3341C689.8239,-651.0569 726.39,-548.4164 687.5,-474 655.6814,-413.1148 587.372,-371.5631 535.2554,-347.2986"/>
<polygon fill="none" stroke="#404040" points="534.9985,-347.1824 527.8831,-348.3534 524.0655,-342.2358 531.1809,-341.0648 534.9985,-347.1824"/>
<text text-anchor="middle" x="711.5" y="-555.5" font-family="Helvetica,sans-Serif" font-size="10.00" fill="#000000"> &#45;id</text>
</g>
<!-- Node11&#45;&gt;Node14 -->
<g id="edge14" class="edge">
<title>Node11&#45;&gt;Node14</title>
<path fill="none" stroke="#404040" d="M623.1786,-720.8994C580.7192,-708.5834 502.3774,-682.242 445.5,-642 441.4362,-639.1248 437.4331,-635.9969 433.5182,-632.6945"/>
<polygon fill="none" stroke="#404040" points="433.5159,-632.6924 426.3752,-631.6868 424.557,-624.7087 431.6977,-625.7143 433.5159,-632.6924"/>
<text text-anchor="middle" x="521.5" y="-668.5" font-family="Helvetica,sans-Serif" font-size="10.00" fill="#000000"> &#45;id</text>
</g>
<!-- Node12 -->
<g id="node12" class="node">
<title>Node12</title>
<g id="a_node12"><a xlink:title="STL class. ">
<polygon fill="#ffffff" stroke="#bfbfbf" points="606,-795.5 606,-863.5 701,-863.5 701,-795.5 606,-795.5"/>
<text text-anchor="start" x="614" y="-851.5" font-family="Helvetica,sans-Serif" font-size="10.00" fill="#000000">std::basic_string&lt;</text>
<text text-anchor="middle" x="653.5" y="-840.5" font-family="Helvetica,sans-Serif" font-size="10.00" fill="#000000"> char &gt;</text>
<polyline fill="none" stroke="#bfbfbf" points="606,-833.5 701,-833.5 "/>
<text text-anchor="middle" x="653.5" y="-821.5" font-family="Helvetica,sans-Serif" font-size="10.00" fill="#000000"> </text>
<polyline fill="none" stroke="#bfbfbf" points="606,-814.5 701,-814.5 "/>
<text text-anchor="middle" x="653.5" y="-802.5" font-family="Helvetica,sans-Serif" font-size="10.00" fill="#000000"> </text>
</a>
</g>
</g>
<!-- Node12&#45;&gt;Node11 -->
<g id="edge11" class="edge">
<title>Node12&#45;&gt;Node11</title>
<path fill="none" stroke="#191970" d="M653.5,-785.4301C653.5,-776.0073 653.5,-766.2901 653.5,-757.6312"/>
<polygon fill="none" stroke="#191970" points="650.0001,-785.4752 653.5,-795.4753 657.0001,-785.4753 650.0001,-785.4752"/>
</g>
<!-- Node13 -->
<g id="node13" class="node">
<title>Node13</title>
<polygon fill="#ffffff" stroke="#bfbfbf" points="377.5,-700.5 377.5,-757.5 459.5,-757.5 459.5,-700.5 377.5,-700.5"/>
<text text-anchor="middle" x="418.5" y="-745.5" font-family="Helvetica,sans-Serif" font-size="10.00" fill="#000000">atomic&lt; bool &gt;</text>
<polyline fill="none" stroke="#bfbfbf" points="377.5,-738.5 459.5,-738.5 "/>
<text text-anchor="middle" x="418.5" y="-726.5" font-family="Helvetica,sans-Serif" font-size="10.00" fill="#000000"> </text>
<polyline fill="none" stroke="#bfbfbf" points="377.5,-719.5 459.5,-719.5 "/>
<text text-anchor="middle" x="418.5" y="-707.5" font-family="Helvetica,sans-Serif" font-size="10.00" fill="#000000"> </text>
</g>
<!-- Node13&#45;&gt;Node9 -->
<g id="edge12" class="edge">
<title>Node13&#45;&gt;Node9</title>
<path fill="none" stroke="#404040" d="M443.8517,-700.4829C447.7516,-694.7099 451.2305,-688.4275 453.5,-682 469.4469,-636.8361 471.349,-517.0703 470.2886,-427.7929"/>
<polygon fill="none" stroke="#404040" points="470.2872,-427.6843 466.2063,-421.739 470.1246,-415.6854 474.2055,-421.6307 470.2872,-427.6843"/>
<text text-anchor="start" x="470.5" y="-561" font-family="Helvetica,sans-Serif" font-size="10.00" fill="#000000"> &#45;pointed_to_object</text>
<text text-anchor="middle" x="512" y="-550" font-family="Helvetica,sans-Serif" font-size="10.00" fill="#000000">_is_alive</text>
</g>
<!-- Node13&#45;&gt;Node14 -->
<g id="edge15" class="edge">
<title>Node13&#45;&gt;Node14</title>
<path fill="none" stroke="#404040" d="M382.4568,-700.3998C377.6034,-694.8427 373.3292,-688.6546 370.5,-682 366.6974,-673.0558 364.2049,-663.4101 362.6786,-653.5883"/>
<polygon fill="none" stroke="#404040" points="362.6654,-653.4749 357.9962,-647.9796 361.273,-641.5559 365.9422,-647.0513 362.6654,-653.4749"/>
<text text-anchor="start" x="370.5" y="-674" font-family="Helvetica,sans-Serif" font-size="10.00" fill="#000000"> &#45;pointed_to_object</text>
<text text-anchor="middle" x="412" y="-663" font-family="Helvetica,sans-Serif" font-size="10.00" fill="#000000">_is_alive</text>
</g>
<!-- Node14&#45;&gt;Node9 -->
<g id="edge13" class="edge">
<title>Node14&#45;&gt;Node9</title>
<path fill="none" stroke="#ffa500" d="M339.4549,-464.1496C340.1034,-453.5251 342.8022,-443.2192 348.5,-434 357.9046,-418.7831 370.3482,-426.942 384.5,-416 393.5096,-409.0338 402.2836,-400.978 410.546,-392.5626"/>
<polygon fill="#ffa500" stroke="#ffa500" points="335.9544,-464.4002 339.4304,-474.4086 342.9544,-464.417 335.9544,-464.4002"/>
<text text-anchor="start" x="348.5" y="-448" font-family="Helvetica,sans-Serif" font-size="10.00" fill="#000000"> &lt; const FEValuesBase</text>
<text text-anchor="middle" x="401" y="-437" font-family="Helvetica,sans-Serif" font-size="10.00" fill="#000000">&lt; dim, spacedim &gt; &gt;</text>
</g>
</g>
</svg>
        <g id="navigator" transform="translate(0 0)" fill="#404254">
                <rect fill="#f2f5e9" fill-opacity="0.5" stroke="#606060" stroke-width=".5" x="0" y="0" width="60" height="60"/>
                <use id="zoomplus" xlink:href="#zoomPlus" x="17" y="9" onmousedown="handleZoom(evt,'in')"/>
                <use id="zoomminus" xlink:href="#zoomMin" x="42" y="9" onmousedown="handleZoom(evt,'out')"/>
                <use id="reset" xlink:href="#resetDef" x="30" y="36" onmousedown="handleReset()"/>
                <g id="arrowUp" xlink:href="#dirArrow" transform="translate(30 24)" onmousedown="handlePan(0,-1)">
                  <use xlink:href="#rim" fill="#404040">
                        <set attributeName="fill" to="#808080" begin="arrowUp.mouseover" end="arrowUp.mouseout"/>
                  </use>
                  <path fill="none" stroke="white" stroke-width="1.5" d="M0,-3.0v7 M-2.5,-0.5L0,-3.0L2.5,-0.5"/>
                </g>
                <g id="arrowRight" xlink:href="#dirArrow" transform="rotate(90) translate(36 -43)" onmousedown="handlePan(1,0)">
                  <use xlink:href="#rim" fill="#404040">
                        <set attributeName="fill" to="#808080" begin="arrowRight.mouseover" end="arrowRight.mouseout"/>
                  </use>
                  <path fill="none" stroke="white" stroke-width="1.5" d="M0,-3.0v7 M-2.5,-0.5L0,-3.0L2.5,-0.5"/>
                </g>
                <g id="arrowDown" xlink:href="#dirArrow" transform="rotate(180) translate(-30 -48)" onmousedown="handlePan(0,1)">
                  <use xlink:href="#rim" fill="#404040">
                        <set attributeName="fill" to="#808080" begin="arrowDown.mouseover" end="arrowDown.mouseout"/>
                  </use>
                  <path fill="none" stroke="white" stroke-width="1.5" d="M0,-3.0v7 M-2.5,-0.5L0,-3.0L2.5,-0.5"/>
                </g>
                <g id="arrowLeft" xlink:href="#dirArrow" transform="rotate(270) translate(-36 17)" onmousedown="handlePan(-1,0)">
                  <use xlink:href="#rim" fill="#404040">
                        <set attributeName="fill" to="#808080" begin="arrowLeft.mouseover" end="arrowLeft.mouseout"/>
                  </use>
                  <path fill="none" stroke="white" stroke-width="1.5" d="M0,-3.0v7 M-2.5,-0.5L0,-3.0L2.5,-0.5"/>
                </g>
        </g>
        <svg viewBox="0 0 15 15" width="100%" height="30px" preserveAspectRatio="xMaxYMin meet">
         <g id="arrow_out" transform="scale(0.3 0.3)">
          <a xlink:href="classFEValuesViews_1_1Scalar__coll__graph_org.svg" target="_base">
           <rect id="button" ry="5" rx="5" y="6" x="6" height="38" width="38"
                fill="#f2f5e9" fill-opacity="0.5" stroke="#606060" stroke-width="1.0"/>
           <path id="arrow"
             d="M 11.500037,31.436501 C 11.940474,20.09759 22.043105,11.32322 32.158766,21.979434 L 37.068811,17.246167 C 37.068811,17.246167 37.088388,32 37.088388,32 L 22.160133,31.978069 C 22.160133,31.978069 26.997745,27.140456 26.997745,27.140456 C 18.528582,18.264221 13.291696,25.230495 11.500037,31.436501 z"
             style="fill:#404040;"/>
          </a>
         </g>
        </svg>
</svg>
