<?xml version="1.0" encoding="UTF-8" standalone="no"?>
<!DOCTYPE svg PUBLIC "-//W3C//DTD SVG 1.1//EN"
 "http://www.w3.org/Graphics/SVG/1.1/DTD/svg11.dtd">
<!-- Generated by graphviz version 2.40.1 (20161225.0304)
 -->
<!-- Title: PETScWrappers::PreconditionBase Pages: 1 -->
<svg width="498pt" height="417pt"
 viewBox="0.00 0.00 498.00 416.50" xmlns="http://www.w3.org/2000/svg" xmlns:xlink="http://www.w3.org/1999/xlink">
<g id="graph0" class="graph" transform="scale(1 1) rotate(0) translate(4 412.5)">
<title>PETScWrappers::PreconditionBase</title>
<polygon fill="#ffffff" stroke="transparent" points="-4,4 -4,-412.5 494,-412.5 494,4 -4,4"/>
<!-- Node0 -->
<g id="node1" class="node">
<title>Node0</title>
<polygon fill="#bfbfbf" stroke="#000000" points="102,-186.5 102,-205.5 275,-205.5 275,-186.5 102,-186.5"/>
<text text-anchor="middle" x="188.5" y="-193.5" font-family="Helvetica,sans-Serif" font-size="10.00" fill="#000000">PETScWrappers::PreconditionBase</text>
</g>
<!-- Node2 -->
<g id="node3" class="node">
<title>Node2</title>
<g id="a_node3"><a xlink:href="classPETScWrappers_1_1PreconditionBlockJacobi.html" target="_top" xlink:title="PETScWrappers::Precondition\lBlockJacobi">
<polygon fill="#ffffff" stroke="#000000" points="325.5,-378 325.5,-408 475.5,-408 475.5,-378 325.5,-378"/>
<text text-anchor="start" x="333.5" y="-396" font-family="Helvetica,sans-Serif" font-size="10.00" fill="#000000">PETScWrappers::Precondition</text>
<text text-anchor="middle" x="400.5" y="-385" font-family="Helvetica,sans-Serif" font-size="10.00" fill="#000000">BlockJacobi</text>
</a>
</g>
</g>
<!-- Node0&#45;&gt;Node2 -->
<g id="edge2" class="edge">
<title>Node0&#45;&gt;Node2</title>
<path fill="none" stroke="#191970" d="M196.5272,-214.926C212.706,-250.7301 252.7283,-328.4178 311,-369 315.8844,-372.4017 321.2266,-375.3214 326.7921,-377.8274"/>
<polygon fill="#191970" stroke="#191970" points="199.6664,-213.3699 192.4384,-205.6235 193.2581,-216.1866 199.6664,-213.3699"/>
</g>
<!-- Node3 -->
<g id="node4" class="node">
<title>Node3</title>
<g id="a_node4"><a xlink:href="classPETScWrappers_1_1PreconditionBoomerAMG.html" target="_top" xlink:title="PETScWrappers::Precondition\lBoomerAMG">
<polygon fill="#ffffff" stroke="#000000" points="325.5,-329 325.5,-359 475.5,-359 475.5,-329 325.5,-329"/>
<text text-anchor="start" x="333.5" y="-347" font-family="Helvetica,sans-Serif" font-size="10.00" fill="#000000">PETScWrappers::Precondition</text>
<text text-anchor="middle" x="400.5" y="-336" font-family="Helvetica,sans-Serif" font-size="10.00" fill="#000000">BoomerAMG</text>
</a>
</g>
</g>
<!-- Node0&#45;&gt;Node3 -->
<g id="edge3" class="edge">
<title>Node0&#45;&gt;Node3</title>
<path fill="none" stroke="#191970" d="M201.298,-213.7719C221.5463,-240.591 263.572,-291.2168 311,-319 317.5426,-322.8326 324.6996,-326.1006 332.0248,-328.8821"/>
<polygon fill="#191970" stroke="#191970" points="204.0531,-211.611 195.2897,-205.6567 198.4272,-215.7764 204.0531,-211.611"/>
</g>
<!-- Node4 -->
<g id="node5" class="node">
<title>Node4</title>
<g id="a_node5"><a xlink:href="classPETScWrappers_1_1PreconditionICC.html" target="_top" xlink:title="PETScWrappers::PreconditionICC">
<polygon fill="#ffffff" stroke="#000000" points="316.5,-290.5 316.5,-309.5 484.5,-309.5 484.5,-290.5 316.5,-290.5"/>
<text text-anchor="middle" x="400.5" y="-297.5" font-family="Helvetica,sans-Serif" font-size="10.00" fill="#000000">PETScWrappers::PreconditionICC</text>
</a>
</g>
</g>
<!-- Node0&#45;&gt;Node4 -->
<g id="edge4" class="edge">
<title>Node0&#45;&gt;Node4</title>
<path fill="none" stroke="#191970" d="M206.9085,-212.3374C229.7196,-231.6951 270.5453,-263.5183 311,-281 319.8946,-284.8436 329.632,-287.9343 339.3055,-290.4126"/>
<polygon fill="#191970" stroke="#191970" points="208.943,-209.47 199.0863,-205.5847 204.3688,-214.7687 208.943,-209.47"/>
</g>
<!-- Node5 -->
<g id="node6" class="node">
<title>Node5</title>
<g id="a_node6"><a xlink:href="classPETScWrappers_1_1PreconditionILU.html" target="_top" xlink:title="PETScWrappers::PreconditionILU">
<polygon fill="#ffffff" stroke="#000000" points="317.5,-252.5 317.5,-271.5 483.5,-271.5 483.5,-252.5 317.5,-252.5"/>
<text text-anchor="middle" x="400.5" y="-259.5" font-family="Helvetica,sans-Serif" font-size="10.00" fill="#000000">PETScWrappers::PreconditionILU</text>
</a>
</g>
</g>
<!-- Node0&#45;&gt;Node5 -->
<g id="edge5" class="edge">
<title>Node0&#45;&gt;Node5</title>
<path fill="none" stroke="#191970" d="M219.7467,-209.5546C244.2256,-219.7887 279.3244,-233.6245 311,-243 323.0327,-246.5615 336.1621,-249.7343 348.5654,-252.419"/>
<polygon fill="#191970" stroke="#191970" points="220.8441,-206.2187 210.2703,-205.5507 218.1197,-212.6668 220.8441,-206.2187"/>
</g>
<!-- Node6 -->
<g id="node7" class="node">
<title>Node6</title>
<g id="a_node7"><a xlink:href="classPETScWrappers_1_1PreconditionJacobi.html" target="_top" xlink:title="PETScWrappers::Precondition\lJacobi">
<polygon fill="#ffffff" stroke="#000000" points="325.5,-203 325.5,-233 475.5,-233 475.5,-203 325.5,-203"/>
<text text-anchor="start" x="333.5" y="-221" font-family="Helvetica,sans-Serif" font-size="10.00" fill="#000000">PETScWrappers::Precondition</text>
<text text-anchor="middle" x="400.5" y="-210" font-family="Helvetica,sans-Serif" font-size="10.00" fill="#000000">Jacobi</text>
</a>
</g>
</g>
<!-- Node0&#45;&gt;Node6 -->
<g id="edge6" class="edge">
<title>Node0&#45;&gt;Node6</title>
<path fill="none" stroke="#191970" d="M285.2888,-206.0441C298.7686,-207.443 312.4486,-208.8626 325.4479,-210.2116"/>
<polygon fill="#191970" stroke="#191970" points="285.3422,-202.5309 275.0343,-204.98 284.6196,-209.4936 285.3422,-202.5309"/>
</g>
<!-- Node7 -->
<g id="node8" class="node">
<title>Node7</title>
<g id="a_node8"><a xlink:href="classPETScWrappers_1_1PreconditionLU.html" target="_top" xlink:title="PETScWrappers::PreconditionLU">
<polygon fill="#ffffff" stroke="#000000" points="319,-164.5 319,-183.5 482,-183.5 482,-164.5 319,-164.5"/>
<text text-anchor="middle" x="400.5" y="-171.5" font-family="Helvetica,sans-Serif" font-size="10.00" fill="#000000">PETScWrappers::PreconditionLU</text>
</a>
</g>
</g>
<!-- Node0&#45;&gt;Node7 -->
<g id="edge7" class="edge">
<title>Node0&#45;&gt;Node7</title>
<path fill="none" stroke="#191970" d="M285.2453,-185.9604C296.422,-184.8005 307.737,-183.6264 318.6881,-182.4899"/>
<polygon fill="#191970" stroke="#191970" points="284.6196,-182.5064 275.0343,-187.02 285.3422,-189.4691 284.6196,-182.5064"/>
</g>
<!-- Node8 -->
<g id="node9" class="node">
<title>Node8</title>
<g id="a_node9"><a xlink:href="classPETScWrappers_1_1PreconditionNone.html" target="_top" xlink:title="PETScWrappers::PreconditionNone">
<polygon fill="#ffffff" stroke="#000000" points="314,-126.5 314,-145.5 487,-145.5 487,-126.5 314,-126.5"/>
<text text-anchor="middle" x="400.5" y="-133.5" font-family="Helvetica,sans-Serif" font-size="10.00" fill="#000000">PETScWrappers::PreconditionNone</text>
</a>
</g>
</g>
<!-- Node0&#45;&gt;Node8 -->
<g id="edge8" class="edge">
<title>Node0&#45;&gt;Node8</title>
<path fill="none" stroke="#191970" d="M224.0264,-182.9165C248.3049,-174.271 281.3327,-163.0856 311,-155 323.7201,-151.5332 337.6001,-148.3172 350.5507,-145.5537"/>
<polygon fill="#191970" stroke="#191970" points="222.7494,-179.6561 214.5212,-186.3305 225.1157,-186.2441 222.7494,-179.6561"/>
</g>
<!-- Node9 -->
<g id="node10" class="node">
<title>Node9</title>
<g id="a_node10"><a xlink:href="classPETScWrappers_1_1PreconditionParaSails.html" target="_top" xlink:title="PETScWrappers::Precondition\lParaSails">
<polygon fill="#ffffff" stroke="#000000" points="325.5,-77 325.5,-107 475.5,-107 475.5,-77 325.5,-77"/>
<text text-anchor="start" x="333.5" y="-95" font-family="Helvetica,sans-Serif" font-size="10.00" fill="#000000">PETScWrappers::Precondition</text>
<text text-anchor="middle" x="400.5" y="-84" font-family="Helvetica,sans-Serif" font-size="10.00" fill="#000000">ParaSails</text>
</a>
</g>
</g>
<!-- Node0&#45;&gt;Node9 -->
<g id="edge9" class="edge">
<title>Node0&#45;&gt;Node9</title>
<path fill="none" stroke="#191970" d="M208.7723,-180.1847C232.2134,-162.5692 272.5246,-134.3014 311,-117 319.2397,-113.2948 328.1573,-110.0143 337.0619,-107.1501"/>
<polygon fill="#191970" stroke="#191970" points="206.4874,-177.5254 200.6534,-186.3693 210.7292,-183.0938 206.4874,-177.5254"/>
</g>
<!-- Node10 -->
<g id="node11" class="node">
<title>Node10</title>
<g id="a_node11"><a xlink:href="classPETScWrappers_1_1PreconditionSOR.html" target="_top" xlink:title="PETScWrappers::PreconditionSOR">
<polygon fill="#ffffff" stroke="#000000" points="314.5,-38.5 314.5,-57.5 486.5,-57.5 486.5,-38.5 314.5,-38.5"/>
<text text-anchor="middle" x="400.5" y="-45.5" font-family="Helvetica,sans-Serif" font-size="10.00" fill="#000000">PETScWrappers::PreconditionSOR</text>
</a>
</g>
</g>
<!-- Node0&#45;&gt;Node10 -->
<g id="edge10" class="edge">
<title>Node0&#45;&gt;Node10</title>
<path fill="none" stroke="#191970" d="M200.2942,-177.7966C219.7404,-149.3589 261.361,-94.7798 311,-67 317.9307,-63.1213 325.5683,-60.033 333.3722,-57.5742"/>
<polygon fill="#191970" stroke="#191970" points="197.2164,-176.1031 194.5699,-186.3621 203.0363,-179.9926 197.2164,-176.1031"/>
</g>
<!-- Node11 -->
<g id="node12" class="node">
<title>Node11</title>
<g id="a_node12"><a xlink:href="classPETScWrappers_1_1PreconditionSSOR.html" target="_top" xlink:title="PETScWrappers::PreconditionSSOR">
<polygon fill="#ffffff" stroke="#000000" points="311,-.5 311,-19.5 490,-19.5 490,-.5 311,-.5"/>
<text text-anchor="middle" x="400.5" y="-7.5" font-family="Helvetica,sans-Serif" font-size="10.00" fill="#000000">PETScWrappers::PreconditionSSOR</text>
</a>
</g>
</g>
<!-- Node0&#45;&gt;Node11 -->
<g id="edge11" class="edge">
<title>Node0&#45;&gt;Node11</title>
<path fill="none" stroke="#191970" d="M196.7566,-176.9538C213.081,-141.7016 252.9972,-66.4693 311,-29 317.0042,-25.1214 323.663,-22.0192 330.5607,-19.5404"/>
<polygon fill="#191970" stroke="#191970" points="193.5303,-175.5944 192.6172,-186.1498 199.9135,-178.4677 193.5303,-175.5944"/>
</g>
<!-- Node1 -->
<g id="node2" class="node">
<title>Node1</title>
<g id="a_node2"><a xlink:href="classSubscriptor.html" target="_top" xlink:title="Subscriptor">
<polygon fill="#ffffff" stroke="#000000" points="0,-186.5 0,-205.5 66,-205.5 66,-186.5 0,-186.5"/>
<text text-anchor="middle" x="33" y="-193.5" font-family="Helvetica,sans-Serif" font-size="10.00" fill="#000000">Subscriptor</text>
</a>
</g>
</g>
<!-- Node1&#45;&gt;Node0 -->
<g id="edge1" class="edge">
<title>Node1&#45;&gt;Node0</title>
<path fill="none" stroke="#191970" d="M76.4903,-196C84.4914,-196 93.0975,-196 101.8562,-196"/>
<polygon fill="#191970" stroke="#191970" points="76.3587,-192.5001 66.3587,-196 76.3586,-199.5001 76.3587,-192.5001"/>
</g>
</g>
</svg>
