<?xml version="1.0" encoding="UTF-8" standalone="no"?>
<!DOCTYPE svg PUBLIC "-//W3C//DTD SVG 1.1//EN"
 "http://www.w3.org/Graphics/SVG/1.1/DTD/svg11.dtd">
<!-- Generated by graphviz version 2.40.1 (20161225.0304)
 -->
<!-- Title: Utilities::MPI::ConsensusAlgorithmsProcessTargets Pages: 1 -->
<svg width="218pt" height="207pt"
 viewBox="0.00 0.00 217.50 207.00" xmlns="http://www.w3.org/2000/svg" xmlns:xlink="http://www.w3.org/1999/xlink">
<g id="graph0" class="graph" transform="scale(1 1) rotate(0) translate(4 203)">
<title>Utilities::MPI::ConsensusAlgorithmsProcessTargets</title>
<polygon fill="#ffffff" stroke="transparent" points="-4,4 -4,-203 213.5,-203 213.5,4 -4,4"/>
<!-- Node0 -->
<g id="node1" class="node">
<title>Node0</title>
<polygon fill="#bfbfbf" stroke="#000000" points="13,-.5 13,-30.5 156,-30.5 156,-.5 13,-.5"/>
<text text-anchor="start" x="21" y="-18.5" font-family="Helvetica,sans-Serif" font-size="10.00" fill="#000000">Utilities::MPI::Consensus</text>
<text text-anchor="middle" x="84.5" y="-7.5" font-family="Helvetica,sans-Serif" font-size="10.00" fill="#000000">AlgorithmsProcessTargets</text>
</g>
<!-- Node1 -->
<g id="node2" class="node">
<title>Node1</title>
<g id="a_node2"><a xlink:href="classUtilities_1_1MPI_1_1ConsensusAlgorithms_1_1Process.html" target="_top" xlink:title="Utilities::MPI::Consensus\lAlgorithms::Process\&lt; unsigned\l int, unsigned int \&gt;">
<polygon fill="#ffffff" stroke="#000000" points="0,-68.5 0,-109.5 169,-109.5 169,-68.5 0,-68.5"/>
<text text-anchor="start" x="8" y="-97.5" font-family="Helvetica,sans-Serif" font-size="10.00" fill="#000000">Utilities::MPI::Consensus</text>
<text text-anchor="start" x="8" y="-86.5" font-family="Helvetica,sans-Serif" font-size="10.00" fill="#000000">Algorithms::Process&lt; unsigned</text>
<text text-anchor="middle" x="84.5" y="-75.5" font-family="Helvetica,sans-Serif" font-size="10.00" fill="#000000"> int, unsigned int &gt;</text>
</a>
</g>
</g>
<!-- Node1&#45;&gt;Node0 -->
<g id="edge1" class="edge">
<title>Node1&#45;&gt;Node0</title>
<path fill="none" stroke="#191970" d="M84.5,-57.9048C84.5,-48.5365 84.5,-38.666 84.5,-30.8074"/>
<polygon fill="#191970" stroke="#191970" points="81.0001,-58.1344 84.5,-68.1345 88.0001,-58.1345 81.0001,-58.1344"/>
</g>
<!-- Node2 -->
<g id="node3" class="node">
<title>Node2</title>
<g id="a_node3"><a xlink:href="classUtilities_1_1MPI_1_1ConsensusAlgorithms_1_1Process.html" target="_top" xlink:title="Utilities::MPI::Consensus\lAlgorithms::Process\&lt; T1, T2 \&gt;">
<polygon fill="#ffffff" stroke="#000000" points="1.5,-168.5 1.5,-198.5 167.5,-198.5 167.5,-168.5 1.5,-168.5"/>
<text text-anchor="start" x="9.5" y="-186.5" font-family="Helvetica,sans-Serif" font-size="10.00" fill="#000000">Utilities::MPI::Consensus</text>
<text text-anchor="middle" x="84.5" y="-175.5" font-family="Helvetica,sans-Serif" font-size="10.00" fill="#000000">Algorithms::Process&lt; T1, T2 &gt;</text>
</a>
</g>
</g>
<!-- Node2&#45;&gt;Node1 -->
<g id="edge2" class="edge">
<title>Node2&#45;&gt;Node1</title>
<path fill="none" stroke="#ffa500" stroke-dasharray="5,2" d="M84.5,-158.1013C84.5,-142.9736 84.5,-124.0135 84.5,-109.7823"/>
<polygon fill="#ffa500" stroke="#ffa500" points="81.0001,-158.3169 84.5,-168.3169 88.0001,-158.317 81.0001,-158.3169"/>
<text text-anchor="start" x="84.5" y="-142" font-family="Helvetica,sans-Serif" font-size="10.00" fill="#000000"> &lt; unsigned int, unsigned</text>
<text text-anchor="middle" x="147" y="-131" font-family="Helvetica,sans-Serif" font-size="10.00" fill="#000000"> int &gt;</text>
</g>
</g>
</svg>
