<?xml version="1.0" encoding="UTF-8" standalone="no"?>
<!DOCTYPE svg PUBLIC "-//W3C//DTD SVG 1.1//EN"
 "http://www.w3.org/Graphics/SVG/1.1/DTD/svg11.dtd">
<!-- Generated by graphviz version 2.40.1 (20161225.0304)
 -->
<!-- Title: LinearAlgebra::distributed::BlockVector&lt; Number &gt; Pages: 1 -->
<svg width="294pt" height="231pt"
 viewBox="0.00 0.00 294.00 231.00" xmlns="http://www.w3.org/2000/svg" xmlns:xlink="http://www.w3.org/1999/xlink">
<g id="graph0" class="graph" transform="scale(1 1) rotate(0) translate(4 227)">
<title>LinearAlgebra::distributed::BlockVector&lt; Number &gt;</title>
<polygon fill="#ffffff" stroke="transparent" points="-4,4 -4,-227 290,-227 290,4 -4,4"/>
<!-- Node0 -->
<g id="node1" class="node">
<title>Node0</title>
<polygon fill="#bfbfbf" stroke="#000000" points="77,-.5 77,-30.5 205,-30.5 205,-.5 77,-.5"/>
<text text-anchor="start" x="85" y="-18.5" font-family="Helvetica,sans-Serif" font-size="10.00" fill="#000000">LinearAlgebra::distributed</text>
<text text-anchor="middle" x="141" y="-7.5" font-family="Helvetica,sans-Serif" font-size="10.00" fill="#000000">::BlockVector&lt; Number &gt;</text>
</g>
<!-- Node1 -->
<g id="node2" class="node">
<title>Node1</title>
<g id="a_node2"><a xlink:href="classBlockVectorBase.html" target="_top" xlink:title="BlockVectorBase\&lt; Vector\l\&lt; Number \&gt; \&gt;">
<polygon fill="#ffffff" stroke="#000000" points="0,-68.5 0,-98.5 130,-98.5 130,-68.5 0,-68.5"/>
<text text-anchor="start" x="8" y="-86.5" font-family="Helvetica,sans-Serif" font-size="10.00" fill="#000000">BlockVectorBase&lt; Vector</text>
<text text-anchor="middle" x="65" y="-75.5" font-family="Helvetica,sans-Serif" font-size="10.00" fill="#000000">&lt; Number &gt; &gt;</text>
</a>
</g>
</g>
<!-- Node1&#45;&gt;Node0 -->
<g id="edge1" class="edge">
<title>Node1&#45;&gt;Node0</title>
<path fill="none" stroke="#191970" d="M89.3703,-61.695C100.7272,-51.5335 113.9565,-39.6968 124.1803,-30.5492"/>
<polygon fill="#191970" stroke="#191970" points="86.9855,-59.1323 81.8669,-68.4086 91.6531,-64.349 86.9855,-59.1323"/>
</g>
<!-- Node2 -->
<g id="node3" class="node">
<title>Node2</title>
<g id="a_node3"><a xlink:href="classSubscriptor.html" target="_top" xlink:title="Subscriptor">
<polygon fill="#ffffff" stroke="#000000" points="28,-203.5 28,-222.5 94,-222.5 94,-203.5 28,-203.5"/>
<text text-anchor="middle" x="61" y="-210.5" font-family="Helvetica,sans-Serif" font-size="10.00" fill="#000000">Subscriptor</text>
</a>
</g>
</g>
<!-- Node2&#45;&gt;Node1 -->
<g id="edge2" class="edge">
<title>Node2&#45;&gt;Node1</title>
<path fill="none" stroke="#191970" d="M61.6141,-193.1183C62.4157,-167.1655 63.8017,-122.2948 64.5268,-98.8199"/>
<polygon fill="#191970" stroke="#191970" points="58.1111,-193.1631 61.3007,-203.2665 65.1078,-193.3793 58.1111,-193.1631"/>
</g>
<!-- Node3 -->
<g id="node4" class="node">
<title>Node3</title>
<g id="a_node4"><a xlink:href="classBlockVectorBase.html" target="_top" xlink:title="BlockVectorBase\&lt; VectorType \&gt;">
<polygon fill="#ffffff" stroke="#000000" points="77.5,-146.5 77.5,-165.5 238.5,-165.5 238.5,-146.5 77.5,-146.5"/>
<text text-anchor="middle" x="158" y="-153.5" font-family="Helvetica,sans-Serif" font-size="10.00" fill="#000000">BlockVectorBase&lt; VectorType &gt;</text>
</a>
</g>
</g>
<!-- Node2&#45;&gt;Node3 -->
<g id="edge4" class="edge">
<title>Node2&#45;&gt;Node3</title>
<path fill="none" stroke="#191970" d="M86.0766,-198.2642C103.637,-187.9452 126.5889,-174.4581 141.7883,-165.5265"/>
<polygon fill="#191970" stroke="#191970" points="84.3031,-195.2468 77.4547,-203.3307 87.8496,-201.2819 84.3031,-195.2468"/>
</g>
<!-- Node3&#45;&gt;Node1 -->
<g id="edge3" class="edge">
<title>Node3&#45;&gt;Node1</title>
<path fill="none" stroke="#ffa500" stroke-dasharray="5,2" d="M137.3613,-139.9107C121.5707,-127.6008 99.946,-110.7429 84.4569,-98.668"/>
<polygon fill="#ffa500" stroke="#ffa500" points="135.419,-142.8344 145.4576,-146.2223 139.7228,-137.3137 135.419,-142.8344"/>
<text text-anchor="middle" x="171.5" y="-120" font-family="Helvetica,sans-Serif" font-size="10.00" fill="#000000"> &lt; Vector&lt; Number &gt; &gt;</text>
</g>
<!-- Node4 -->
<g id="node5" class="node">
<title>Node4</title>
<g id="a_node5"><a xlink:href="classLinearAlgebra_1_1VectorSpaceVector.html" target="_top" xlink:title="LinearAlgebra::VectorSpace\lVector\&lt; Number \&gt;">
<polygon fill="#ffffff" stroke="#000000" points="148,-68.5 148,-98.5 286,-98.5 286,-68.5 148,-68.5"/>
<text text-anchor="start" x="156" y="-86.5" font-family="Helvetica,sans-Serif" font-size="10.00" fill="#000000">LinearAlgebra::VectorSpace</text>
<text text-anchor="middle" x="217" y="-75.5" font-family="Helvetica,sans-Serif" font-size="10.00" fill="#000000">Vector&lt; Number &gt;</text>
</a>
</g>
</g>
<!-- Node4&#45;&gt;Node0 -->
<g id="edge5" class="edge">
<title>Node4&#45;&gt;Node0</title>
<path fill="none" stroke="#191970" d="M192.6297,-61.695C181.2728,-51.5335 168.0435,-39.6968 157.8197,-30.5492"/>
<polygon fill="#191970" stroke="#191970" points="190.3469,-64.349 200.1331,-68.4086 195.0145,-59.1323 190.3469,-64.349"/>
</g>
</g>
</svg>
