<?xml version="1.0" encoding="UTF-8" standalone="no"?>
<!DOCTYPE svg PUBLIC "-//W3C//DTD SVG 1.1//EN"
 "http://www.w3.org/Graphics/SVG/1.1/DTD/svg11.dtd">
<!-- Generated by graphviz version 2.40.1 (20161225.0304)
 -->
<!-- Title: PETScWrappers::MPI::BlockSparseMatrix Pages: 1 -->
<svg width="262pt" height="220pt"
 viewBox="0.00 0.00 261.50 220.00" xmlns="http://www.w3.org/2000/svg" xmlns:xlink="http://www.w3.org/1999/xlink">
<g id="graph0" class="graph" transform="scale(1 1) rotate(0) translate(4 216)">
<title>PETScWrappers::MPI::BlockSparseMatrix</title>
<polygon fill="#ffffff" stroke="transparent" points="-4,4 -4,-216 257.5,-216 257.5,4 -4,4"/>
<!-- Node0 -->
<g id="node1" class="node">
<title>Node0</title>
<polygon fill="#bfbfbf" stroke="#000000" points="26.5,-.5 26.5,-30.5 140.5,-30.5 140.5,-.5 26.5,-.5"/>
<text text-anchor="start" x="34.5" y="-18.5" font-family="Helvetica,sans-Serif" font-size="10.00" fill="#000000">PETScWrappers::MPI</text>
<text text-anchor="middle" x="83.5" y="-7.5" font-family="Helvetica,sans-Serif" font-size="10.00" fill="#000000">::BlockSparseMatrix</text>
</g>
<!-- Node1 -->
<g id="node2" class="node">
<title>Node1</title>
<g id="a_node2"><a xlink:href="classBlockMatrixBase.html" target="_top" xlink:title="BlockMatrixBase\&lt; SparseMatrix \&gt;">
<polygon fill="#ffffff" stroke="#000000" points="0,-68.5 0,-87.5 167,-87.5 167,-68.5 0,-68.5"/>
<text text-anchor="middle" x="83.5" y="-75.5" font-family="Helvetica,sans-Serif" font-size="10.00" fill="#000000">BlockMatrixBase&lt; SparseMatrix &gt;</text>
</a>
</g>
</g>
<!-- Node1&#45;&gt;Node0 -->
<g id="edge1" class="edge">
<title>Node1&#45;&gt;Node0</title>
<path fill="none" stroke="#191970" d="M83.5,-58.0501C83.5,-49.2205 83.5,-39.0001 83.5,-30.7892"/>
<polygon fill="#191970" stroke="#191970" points="80.0001,-58.2343 83.5,-68.2344 87.0001,-58.2344 80.0001,-58.2343"/>
</g>
<!-- Node2 -->
<g id="node3" class="node">
<title>Node2</title>
<g id="a_node3"><a xlink:href="classSubscriptor.html" target="_top" xlink:title="Subscriptor">
<polygon fill="#ffffff" stroke="#000000" points="46.5,-192.5 46.5,-211.5 112.5,-211.5 112.5,-192.5 46.5,-192.5"/>
<text text-anchor="middle" x="79.5" y="-199.5" font-family="Helvetica,sans-Serif" font-size="10.00" fill="#000000">Subscriptor</text>
</a>
</g>
</g>
<!-- Node2&#45;&gt;Node1 -->
<g id="edge2" class="edge">
<title>Node2&#45;&gt;Node1</title>
<path fill="none" stroke="#191970" d="M80.1429,-182.0697C81.0138,-155.0713 82.5346,-107.9273 83.1876,-87.6849"/>
<polygon fill="#191970" stroke="#191970" points="76.6382,-182.1622 79.8139,-192.2699 83.6346,-182.388 76.6382,-182.1622"/>
</g>
<!-- Node3 -->
<g id="node4" class="node">
<title>Node3</title>
<g id="a_node4"><a xlink:href="classBlockMatrixBase.html" target="_top" xlink:title="BlockMatrixBase\&lt; MatrixType \&gt;">
<polygon fill="#ffffff" stroke="#000000" points="95.5,-135.5 95.5,-154.5 253.5,-154.5 253.5,-135.5 95.5,-135.5"/>
<text text-anchor="middle" x="174.5" y="-142.5" font-family="Helvetica,sans-Serif" font-size="10.00" fill="#000000">BlockMatrixBase&lt; MatrixType &gt;</text>
</a>
</g>
</g>
<!-- Node2&#45;&gt;Node3 -->
<g id="edge4" class="edge">
<title>Node2&#45;&gt;Node3</title>
<path fill="none" stroke="#191970" d="M104.5343,-186.9794C121.6697,-176.6982 143.8731,-163.3762 158.6225,-154.5265"/>
<polygon fill="#191970" stroke="#191970" points="102.3896,-184.1845 95.6155,-192.3307 105.9911,-190.187 102.3896,-184.1845"/>
</g>
<!-- Node3&#45;&gt;Node1 -->
<g id="edge3" class="edge">
<title>Node3&#45;&gt;Node1</title>
<path fill="none" stroke="#ffa500" stroke-dasharray="5,2" d="M152.9804,-129.1559C135.4372,-116.2395 111.2348,-98.4201 96.5139,-87.5817"/>
<polygon fill="#ffa500" stroke="#ffa500" points="151.334,-132.29 161.4619,-135.4005 155.4843,-126.653 151.334,-132.29"/>
<text text-anchor="middle" x="173" y="-109" font-family="Helvetica,sans-Serif" font-size="10.00" fill="#000000"> &lt; SparseMatrix &gt;</text>
</g>
</g>
</svg>
