<?xml version="1.0" encoding="UTF-8" standalone="no"?>
<!DOCTYPE svg PUBLIC "-//W3C//DTD SVG 1.1//EN"
 "http://www.w3.org/Graphics/SVG/1.1/DTD/svg11.dtd">
<!-- Generated by graphviz version 2.40.1 (20161225.0304)
 -->
<!-- Title: TensorProductMatrixSymmetricSum&lt; dim, Number, n_rows_1d &gt; Pages: 1 -->
<svg width="667pt" height="1297pt"
 viewBox="0.00 0.00 666.50 1297.00" xmlns="http://www.w3.org/2000/svg" xmlns:xlink="http://www.w3.org/1999/xlink">
<g id="graph0" class="graph" transform="scale(1 1) rotate(0) translate(4 1293)">
<title>TensorProductMatrixSymmetricSum&lt; dim, Number, n_rows_1d &gt;</title>
<polygon fill="#ffffff" stroke="transparent" points="-4,4 -4,-1293 662.5,-1293 662.5,4 -4,4"/>
<!-- Node2 -->
<g id="node1" class="node">
<title>Node2</title>
<polygon fill="#bfbfbf" stroke="#000000" points="113.5,-.5 113.5,-145.5 303.5,-145.5 303.5,-.5 113.5,-.5"/>
<text text-anchor="start" x="121.5" y="-133.5" font-family="Helvetica,sans-Serif" font-size="10.00" fill="#000000">TensorProductMatrixSymmetric</text>
<text text-anchor="middle" x="208.5" y="-122.5" font-family="Helvetica,sans-Serif" font-size="10.00" fill="#000000">Sum&lt; dim, Number, n_rows_1d &gt;</text>
<polyline fill="none" stroke="#000000" points="113.5,-115.5 303.5,-115.5 "/>
<text text-anchor="middle" x="208.5" y="-103.5" font-family="Helvetica,sans-Serif" font-size="10.00" fill="#000000"> </text>
<polyline fill="none" stroke="#000000" points="113.5,-96.5 303.5,-96.5 "/>
<text text-anchor="start" x="121.5" y="-84.5" font-family="Helvetica,sans-Serif" font-size="10.00" fill="#000000">+ TensorProductMatrixSymmetricSum()</text>
<text text-anchor="start" x="121.5" y="-73.5" font-family="Helvetica,sans-Serif" font-size="10.00" fill="#000000">+ TensorProductMatrixSymmetricSum()</text>
<text text-anchor="start" x="121.5" y="-62.5" font-family="Helvetica,sans-Serif" font-size="10.00" fill="#000000">+ TensorProductMatrixSymmetricSum()</text>
<text text-anchor="start" x="121.5" y="-51.5" font-family="Helvetica,sans-Serif" font-size="10.00" fill="#000000">+ TensorProductMatrixSymmetricSum()</text>
<text text-anchor="start" x="121.5" y="-40.5" font-family="Helvetica,sans-Serif" font-size="10.00" fill="#000000">+ reinit()</text>
<text text-anchor="start" x="121.5" y="-29.5" font-family="Helvetica,sans-Serif" font-size="10.00" fill="#000000">+ reinit()</text>
<text text-anchor="start" x="121.5" y="-18.5" font-family="Helvetica,sans-Serif" font-size="10.00" fill="#000000">+ reinit()</text>
<text text-anchor="start" x="121.5" y="-7.5" font-family="Helvetica,sans-Serif" font-size="10.00" fill="#000000">&#45; reinit_impl()</text>
</g>
<!-- Node3 -->
<g id="node2" class="node">
<title>Node3</title>
<g id="a_node2"><a xlink:href="classTensorProductMatrixSymmetricSumBase.html" target="_top" xlink:title="{TensorProductMatrixSymmetric\lSumBase\&lt; dim, Number, n\l_rows_1d \&gt;\n||+ m()\l+ n()\l+ vmult()\l+ apply_inverse()\l# TensorProductMatrixSymmetric\lSumBase()\l}">
<polygon fill="#ffffff" stroke="#000000" points="127,-183.5 127,-317.5 290,-317.5 290,-183.5 127,-183.5"/>
<text text-anchor="start" x="135" y="-305.5" font-family="Helvetica,sans-Serif" font-size="10.00" fill="#000000">TensorProductMatrixSymmetric</text>
<text text-anchor="start" x="135" y="-294.5" font-family="Helvetica,sans-Serif" font-size="10.00" fill="#000000">SumBase&lt; dim, Number, n</text>
<text text-anchor="middle" x="208.5" y="-283.5" font-family="Helvetica,sans-Serif" font-size="10.00" fill="#000000">_rows_1d &gt;</text>
<polyline fill="none" stroke="#000000" points="127,-276.5 290,-276.5 "/>
<text text-anchor="middle" x="208.5" y="-264.5" font-family="Helvetica,sans-Serif" font-size="10.00" fill="#000000"> </text>
<polyline fill="none" stroke="#000000" points="127,-257.5 290,-257.5 "/>
<text text-anchor="start" x="135" y="-245.5" font-family="Helvetica,sans-Serif" font-size="10.00" fill="#000000">+ m()</text>
<text text-anchor="start" x="135" y="-234.5" font-family="Helvetica,sans-Serif" font-size="10.00" fill="#000000">+ n()</text>
<text text-anchor="start" x="135" y="-223.5" font-family="Helvetica,sans-Serif" font-size="10.00" fill="#000000">+ vmult()</text>
<text text-anchor="start" x="135" y="-212.5" font-family="Helvetica,sans-Serif" font-size="10.00" fill="#000000">+ apply_inverse()</text>
<text text-anchor="start" x="135" y="-201.5" font-family="Helvetica,sans-Serif" font-size="10.00" fill="#000000"># TensorProductMatrixSymmetric</text>
<text text-anchor="start" x="135" y="-190.5" font-family="Helvetica,sans-Serif" font-size="10.00" fill="#000000">SumBase()</text>
</a>
</g>
</g>
<!-- Node3&#45;&gt;Node2 -->
<g id="edge1" class="edge">
<title>Node3&#45;&gt;Node2</title>
<path fill="none" stroke="#191970" d="M208.5,-173.135C208.5,-163.9668 208.5,-154.6338 208.5,-145.5361"/>
<polygon fill="none" stroke="#191970" points="205.0001,-173.3948 208.5,-183.3949 212.0001,-173.3949 205.0001,-173.3948"/>
</g>
<!-- Node4 -->
<g id="node3" class="node">
<title>Node4</title>
<g id="a_node3"><a xlink:href="classint.html" target="_top" xlink:title="{int\n||}">
<polygon fill="#ffffff" stroke="#000000" points="36,-398.5 36,-455.5 65,-455.5 65,-398.5 36,-398.5"/>
<text text-anchor="middle" x="50.5" y="-443.5" font-family="Helvetica,sans-Serif" font-size="10.00" fill="#000000">int</text>
<polyline fill="none" stroke="#000000" points="36,-436.5 65,-436.5 "/>
<text text-anchor="middle" x="50.5" y="-424.5" font-family="Helvetica,sans-Serif" font-size="10.00" fill="#000000"> </text>
<polyline fill="none" stroke="#000000" points="36,-417.5 65,-417.5 "/>
<text text-anchor="middle" x="50.5" y="-405.5" font-family="Helvetica,sans-Serif" font-size="10.00" fill="#000000"> </text>
</a>
</g>
</g>
<!-- Node4&#45;&gt;Node3 -->
<g id="edge2" class="edge">
<title>Node4&#45;&gt;Node3</title>
<path fill="none" stroke="#404040" d="M46.4758,-398.1472C45.3048,-379.0657 46.7713,-354.29 58.5,-336 72.3987,-314.326 93.8578,-297.5709 116.2391,-284.8739"/>
<polygon fill="none" stroke="#404040" points="116.3425,-284.8184 119.7374,-278.4564 126.9157,-279.1433 123.5208,-285.5053 116.3425,-284.8184"/>
<text text-anchor="middle" x="101.5" y="-350" font-family="Helvetica,sans-Serif" font-size="10.00" fill="#000000"> +n_rows_1d_static</text>
</g>
<!-- Node5 -->
<g id="node4" class="node">
<title>Node5</title>
<g id="a_node4"><a xlink:href="classThreads_1_1Mutex.html" target="_top" xlink:title="{Threads::Mutex\n||+ Mutex()\l+ Mutex()\l+ operator=()\l}">
<polygon fill="#ffffff" stroke="#000000" points="87,-387.5 87,-466.5 172,-466.5 172,-387.5 87,-387.5"/>
<text text-anchor="middle" x="129.5" y="-454.5" font-family="Helvetica,sans-Serif" font-size="10.00" fill="#000000">Threads::Mutex</text>
<polyline fill="none" stroke="#000000" points="87,-447.5 172,-447.5 "/>
<text text-anchor="middle" x="129.5" y="-435.5" font-family="Helvetica,sans-Serif" font-size="10.00" fill="#000000"> </text>
<polyline fill="none" stroke="#000000" points="87,-428.5 172,-428.5 "/>
<text text-anchor="start" x="95" y="-416.5" font-family="Helvetica,sans-Serif" font-size="10.00" fill="#000000">+ Mutex()</text>
<text text-anchor="start" x="95" y="-405.5" font-family="Helvetica,sans-Serif" font-size="10.00" fill="#000000">+ Mutex()</text>
<text text-anchor="start" x="95" y="-394.5" font-family="Helvetica,sans-Serif" font-size="10.00" fill="#000000">+ operator=()</text>
</a>
</g>
</g>
<!-- Node5&#45;&gt;Node3 -->
<g id="edge3" class="edge">
<title>Node5&#45;&gt;Node3</title>
<path fill="none" stroke="#404040" d="M141.2344,-387.4261C146.4853,-371.227 153.1509,-352.4592 160.5,-336 161.5996,-333.5373 162.747,-331.0519 163.932,-328.5561"/>
<polygon fill="none" stroke="#404040" points="164.034,-328.3489 163.0974,-321.1989 169.3372,-317.5843 170.2738,-324.7344 164.034,-328.3489"/>
<text text-anchor="middle" x="177.5" y="-350" font-family="Helvetica,sans-Serif" font-size="10.00" fill="#000000"> &#45;mutex</text>
</g>
<!-- Node6 -->
<g id="node5" class="node">
<title>Node6</title>
<polygon fill="#ffffff" stroke="#bfbfbf" points="98,-580.5 98,-637.5 161,-637.5 161,-580.5 98,-580.5"/>
<text text-anchor="middle" x="129.5" y="-625.5" font-family="Helvetica,sans-Serif" font-size="10.00" fill="#000000">std::mutex</text>
<polyline fill="none" stroke="#bfbfbf" points="98,-618.5 161,-618.5 "/>
<text text-anchor="middle" x="129.5" y="-606.5" font-family="Helvetica,sans-Serif" font-size="10.00" fill="#000000"> </text>
<polyline fill="none" stroke="#bfbfbf" points="98,-599.5 161,-599.5 "/>
<text text-anchor="middle" x="129.5" y="-587.5" font-family="Helvetica,sans-Serif" font-size="10.00" fill="#000000"> </text>
</g>
<!-- Node6&#45;&gt;Node5 -->
<g id="edge4" class="edge">
<title>Node6&#45;&gt;Node5</title>
<path fill="none" stroke="#191970" d="M129.5,-569.8929C129.5,-539.3751 129.5,-497.1616 129.5,-466.5351"/>
<polygon fill="none" stroke="#191970" points="126.0001,-570.1615 129.5,-580.1616 133.0001,-570.1616 126.0001,-570.1615"/>
</g>
<!-- Node7 -->
<g id="node6" class="node">
<title>Node7</title>
<polygon fill="#ffffff" stroke="#bfbfbf" points="276.5,-393 276.5,-461 404.5,-461 404.5,-393 276.5,-393"/>
<text text-anchor="start" x="284.5" y="-449" font-family="Helvetica,sans-Serif" font-size="10.00" fill="#000000">std::array&lt; AlignedVector</text>
<text text-anchor="middle" x="340.5" y="-438" font-family="Helvetica,sans-Serif" font-size="10.00" fill="#000000">&lt; Number &gt;, dim &gt;</text>
<polyline fill="none" stroke="#bfbfbf" points="276.5,-431 404.5,-431 "/>
<text text-anchor="middle" x="340.5" y="-419" font-family="Helvetica,sans-Serif" font-size="10.00" fill="#000000"> </text>
<polyline fill="none" stroke="#bfbfbf" points="276.5,-412 404.5,-412 "/>
<text text-anchor="middle" x="340.5" y="-400" font-family="Helvetica,sans-Serif" font-size="10.00" fill="#000000"> </text>
</g>
<!-- Node7&#45;&gt;Node3 -->
<g id="edge5" class="edge">
<title>Node7&#45;&gt;Node3</title>
<path fill="none" stroke="#404040" d="M315.0491,-392.969C301.0864,-374.2992 283.1705,-350.3435 266.0296,-327.4241"/>
<polygon fill="none" stroke="#404040" points="265.9317,-327.2932 259.135,-324.8839 258.7448,-317.6834 265.5415,-320.0926 265.9317,-327.2932"/>
<text text-anchor="middle" x="324" y="-350" font-family="Helvetica,sans-Serif" font-size="10.00" fill="#000000"> #eigenvalues</text>
</g>
<!-- Node8 -->
<g id="node7" class="node">
<title>Node8</title>
<g id="a_node7"><a xlink:href="classAlignedVector.html" target="_top" xlink:title="{AlignedVector\&lt; Number \&gt;\n||+ AlignedVector()\l+ AlignedVector()\l+ AlignedVector()\l+ AlignedVector()\l+ ~AlignedVector()\l+ operator=()\l+ operator=()\l+ resize_fast()\l+ resize()\l+ resize()\land 25 more...\l}">
<polygon fill="#ffffff" stroke="#000000" points="186.5,-525.5 186.5,-692.5 316.5,-692.5 316.5,-525.5 186.5,-525.5"/>
<text text-anchor="middle" x="251.5" y="-680.5" font-family="Helvetica,sans-Serif" font-size="10.00" fill="#000000">AlignedVector&lt; Number &gt;</text>
<polyline fill="none" stroke="#000000" points="186.5,-673.5 316.5,-673.5 "/>
<text text-anchor="middle" x="251.5" y="-661.5" font-family="Helvetica,sans-Serif" font-size="10.00" fill="#000000"> </text>
<polyline fill="none" stroke="#000000" points="186.5,-654.5 316.5,-654.5 "/>
<text text-anchor="start" x="194.5" y="-642.5" font-family="Helvetica,sans-Serif" font-size="10.00" fill="#000000">+ AlignedVector()</text>
<text text-anchor="start" x="194.5" y="-631.5" font-family="Helvetica,sans-Serif" font-size="10.00" fill="#000000">+ AlignedVector()</text>
<text text-anchor="start" x="194.5" y="-620.5" font-family="Helvetica,sans-Serif" font-size="10.00" fill="#000000">+ AlignedVector()</text>
<text text-anchor="start" x="194.5" y="-609.5" font-family="Helvetica,sans-Serif" font-size="10.00" fill="#000000">+ AlignedVector()</text>
<text text-anchor="start" x="194.5" y="-598.5" font-family="Helvetica,sans-Serif" font-size="10.00" fill="#000000">+ ~AlignedVector()</text>
<text text-anchor="start" x="194.5" y="-587.5" font-family="Helvetica,sans-Serif" font-size="10.00" fill="#000000">+ operator=()</text>
<text text-anchor="start" x="194.5" y="-576.5" font-family="Helvetica,sans-Serif" font-size="10.00" fill="#000000">+ operator=()</text>
<text text-anchor="start" x="194.5" y="-565.5" font-family="Helvetica,sans-Serif" font-size="10.00" fill="#000000">+ resize_fast()</text>
<text text-anchor="start" x="194.5" y="-554.5" font-family="Helvetica,sans-Serif" font-size="10.00" fill="#000000">+ resize()</text>
<text text-anchor="start" x="194.5" y="-543.5" font-family="Helvetica,sans-Serif" font-size="10.00" fill="#000000">+ resize()</text>
<text text-anchor="start" x="194.5" y="-532.5" font-family="Helvetica,sans-Serif" font-size="10.00" fill="#000000">and 25 more...</text>
</a>
</g>
</g>
<!-- Node8&#45;&gt;Node3 -->
<g id="edge19" class="edge">
<title>Node8&#45;&gt;Node3</title>
<path fill="none" stroke="#404040" d="M228.6491,-525.4158C224.231,-506.3489 220.1556,-486.0818 217.5,-467 211.2129,-421.8239 208.8624,-370.8767 208.1298,-329.7584"/>
<polygon fill="none" stroke="#404040" points="208.1277,-329.6064 204.0417,-323.6647 207.9548,-317.6077 212.0409,-323.5494 208.1277,-329.6064"/>
<text text-anchor="middle" x="242.5" y="-424.5" font-family="Helvetica,sans-Serif" font-size="10.00" fill="#000000"> &#45;tmp_array</text>
</g>
<!-- Node8&#45;&gt;Node7 -->
<g id="edge6" class="edge">
<title>Node8&#45;&gt;Node7</title>
<path fill="none" stroke="#404040" d="M252.5334,-525.4288C255.2067,-511.3171 259.5798,-497.2793 266.5,-485 269.5279,-479.6274 273.2738,-474.5773 277.4598,-469.8716"/>
<polygon fill="none" stroke="#404040" points="277.5436,-469.7868 278.9166,-462.7076 285.9794,-461.2523 284.6063,-468.3315 277.5436,-469.7868"/>
<text text-anchor="middle" x="291" y="-493.5" font-family="Helvetica,sans-Serif" font-size="10.00" fill="#000000"> +elements</text>
</g>
<!-- Node9 -->
<g id="node8" class="node">
<title>Node9</title>
<polygon fill="#ffffff" stroke="#bfbfbf" points="7,-977.5 7,-1056.5 132,-1056.5 132,-977.5 7,-977.5"/>
<text text-anchor="start" x="15" y="-1044.5" font-family="Helvetica,sans-Serif" font-size="10.00" fill="#000000">std::unique_ptr&lt; Number</text>
<text text-anchor="start" x="15" y="-1033.5" font-family="Helvetica,sans-Serif" font-size="10.00" fill="#000000"> [], std::function&lt; void</text>
<text text-anchor="middle" x="69.5" y="-1022.5" font-family="Helvetica,sans-Serif" font-size="10.00" fill="#000000">(Number *)&gt; &gt;</text>
<polyline fill="none" stroke="#bfbfbf" points="7,-1015.5 132,-1015.5 "/>
<text text-anchor="middle" x="69.5" y="-1003.5" font-family="Helvetica,sans-Serif" font-size="10.00" fill="#000000"> </text>
<polyline fill="none" stroke="#bfbfbf" points="7,-996.5 132,-996.5 "/>
<text text-anchor="start" x="15" y="-984.5" font-family="Helvetica,sans-Serif" font-size="10.00" fill="#000000">+ operator&#45;&gt;()</text>
</g>
<!-- Node9&#45;&gt;Node8 -->
<g id="edge7" class="edge">
<title>Node9&#45;&gt;Node8</title>
<path fill="none" stroke="#404040" d="M77.2801,-977.1297C88.2255,-925.6932 110.799,-834.2472 145.5,-762 155.1061,-742.0001 167.1844,-721.7226 179.7177,-702.7549"/>
<polygon fill="none" stroke="#404040" points="179.8083,-702.6201 179.8393,-695.4091 186.5076,-692.6642 186.4766,-699.8753 179.8083,-702.6201"/>
<text text-anchor="middle" x="168.5" y="-843.5" font-family="Helvetica,sans-Serif" font-size="10.00" fill="#000000"> &#45;elements</text>
</g>
<!-- Node10 -->
<g id="node9" class="node">
<title>Node10</title>
<polygon fill="#ffffff" stroke="#bfbfbf" points="0,-1126.5 0,-1183.5 51,-1183.5 51,-1126.5 0,-1126.5"/>
<text text-anchor="middle" x="25.5" y="-1171.5" font-family="Helvetica,sans-Serif" font-size="10.00" fill="#000000">Number</text>
<polyline fill="none" stroke="#bfbfbf" points="0,-1164.5 51,-1164.5 "/>
<text text-anchor="middle" x="25.5" y="-1152.5" font-family="Helvetica,sans-Serif" font-size="10.00" fill="#000000"> </text>
<polyline fill="none" stroke="#bfbfbf" points="0,-1145.5 51,-1145.5 "/>
<text text-anchor="middle" x="25.5" y="-1133.5" font-family="Helvetica,sans-Serif" font-size="10.00" fill="#000000"> </text>
</g>
<!-- Node10&#45;&gt;Node9 -->
<g id="edge8" class="edge">
<title>Node10&#45;&gt;Node9</title>
<path fill="none" stroke="#404040" d="M21.6339,-1126.1431C20.59,-1110.6002 20.9966,-1091.3207 26.5,-1075 27.3624,-1072.4426 28.3839,-1069.905 29.5316,-1067.4022"/>
<polygon fill="none" stroke="#404040" points="29.6011,-1067.2724 28.9103,-1060.0945 35.2705,-1056.6961 35.9612,-1063.874 29.6011,-1067.2724"/>
<text text-anchor="middle" x="37" y="-1089" font-family="Helvetica,sans-Serif" font-size="10.00" fill="#000000"> +ptr</text>
</g>
<!-- Node11 -->
<g id="node10" class="node">
<title>Node11</title>
<g id="a_node10"><a xlink:title="STL class. ">
<polygon fill="#ffffff" stroke="#bfbfbf" points="156,-1126.5 156,-1183.5 261,-1183.5 261,-1126.5 156,-1126.5"/>
<text text-anchor="middle" x="208.5" y="-1171.5" font-family="Helvetica,sans-Serif" font-size="10.00" fill="#000000">std::unique_ptr&lt; T &gt;</text>
<polyline fill="none" stroke="#bfbfbf" points="156,-1164.5 261,-1164.5 "/>
<text text-anchor="middle" x="208.5" y="-1152.5" font-family="Helvetica,sans-Serif" font-size="10.00" fill="#000000"> </text>
<polyline fill="none" stroke="#bfbfbf" points="156,-1145.5 261,-1145.5 "/>
<text text-anchor="start" x="164" y="-1133.5" font-family="Helvetica,sans-Serif" font-size="10.00" fill="#000000">+ operator&#45;&gt;()</text>
</a>
</g>
</g>
<!-- Node11&#45;&gt;Node9 -->
<g id="edge9" class="edge">
<title>Node11&#45;&gt;Node9</title>
<path fill="none" stroke="#ffa500" d="M145.9286,-1144.7522C123.4079,-1137.967 99.8064,-1126.7002 84.5,-1108 72.9384,-1093.8749 68.6993,-1074.2844 67.5538,-1056.8971"/>
<polygon fill="#ffa500" stroke="#ffa500" points="145.2547,-1148.1969 155.8253,-1147.4796 147.1146,-1141.4485 145.2547,-1148.1969"/>
<text text-anchor="start" x="84.5" y="-1094.5" font-family="Helvetica,sans-Serif" font-size="10.00" fill="#000000"> &lt; Number [], std::function</text>
<text text-anchor="middle" x="142.5" y="-1083.5" font-family="Helvetica,sans-Serif" font-size="10.00" fill="#000000">&lt; void(Number *)&gt; &gt;</text>
</g>
<!-- Node15 -->
<g id="node14" class="node">
<title>Node15</title>
<polygon fill="#ffffff" stroke="#bfbfbf" points="196.5,-977.5 196.5,-1056.5 306.5,-1056.5 306.5,-977.5 196.5,-977.5"/>
<text text-anchor="start" x="204.5" y="-1044.5" font-family="Helvetica,sans-Serif" font-size="10.00" fill="#000000">std::unique_ptr&lt; T</text>
<text text-anchor="start" x="204.5" y="-1033.5" font-family="Helvetica,sans-Serif" font-size="10.00" fill="#000000">[], std::function&lt; void</text>
<text text-anchor="middle" x="251.5" y="-1022.5" font-family="Helvetica,sans-Serif" font-size="10.00" fill="#000000">(T *)&gt; &gt;</text>
<polyline fill="none" stroke="#bfbfbf" points="196.5,-1015.5 306.5,-1015.5 "/>
<text text-anchor="middle" x="251.5" y="-1003.5" font-family="Helvetica,sans-Serif" font-size="10.00" fill="#000000"> </text>
<polyline fill="none" stroke="#bfbfbf" points="196.5,-996.5 306.5,-996.5 "/>
<text text-anchor="start" x="204.5" y="-984.5" font-family="Helvetica,sans-Serif" font-size="10.00" fill="#000000">+ operator&#45;&gt;()</text>
</g>
<!-- Node11&#45;&gt;Node15 -->
<g id="edge15" class="edge">
<title>Node11&#45;&gt;Node15</title>
<path fill="none" stroke="#ffa500" d="M204.2839,-1115.8991C204.0777,-1102.6282 205.2298,-1087.9022 209.5,-1075 211.5703,-1068.7446 214.5836,-1062.5933 218.0607,-1056.7712"/>
<polygon fill="#ffa500" stroke="#ffa500" points="200.7982,-1116.3201 204.707,-1126.1675 207.7923,-1116.0319 200.7982,-1116.3201"/>
<text text-anchor="start" x="209.5" y="-1094.5" font-family="Helvetica,sans-Serif" font-size="10.00" fill="#000000"> &lt; T[], std::function</text>
<text text-anchor="middle" x="252" y="-1083.5" font-family="Helvetica,sans-Serif" font-size="10.00" fill="#000000">&lt; void(T *)&gt; &gt;</text>
</g>
<!-- Node12 -->
<g id="node11" class="node">
<title>Node12</title>
<polygon fill="#ffffff" stroke="#bfbfbf" points="318,-1231.5 318,-1288.5 347,-1288.5 347,-1231.5 318,-1231.5"/>
<text text-anchor="middle" x="332.5" y="-1276.5" font-family="Helvetica,sans-Serif" font-size="10.00" fill="#000000">T</text>
<polyline fill="none" stroke="#bfbfbf" points="318,-1269.5 347,-1269.5 "/>
<text text-anchor="middle" x="332.5" y="-1257.5" font-family="Helvetica,sans-Serif" font-size="10.00" fill="#000000"> </text>
<polyline fill="none" stroke="#bfbfbf" points="318,-1250.5 347,-1250.5 "/>
<text text-anchor="middle" x="332.5" y="-1238.5" font-family="Helvetica,sans-Serif" font-size="10.00" fill="#000000"> </text>
</g>
<!-- Node12&#45;&gt;Node11 -->
<g id="edge10" class="edge">
<title>Node12&#45;&gt;Node11</title>
<path fill="none" stroke="#404040" d="M317.7688,-1248.6346C305.7209,-1239.2515 288.3164,-1225.4952 273.5,-1213 265.5225,-1206.2723 257.1233,-1198.9577 249.1093,-1191.8614"/>
<polygon fill="none" stroke="#404040" points="248.8861,-1191.6626 241.7454,-1190.6574 239.9268,-1183.6794 247.0675,-1184.6845 248.8861,-1191.6626"/>
<text text-anchor="middle" x="284" y="-1205" font-family="Helvetica,sans-Serif" font-size="10.00" fill="#000000"> +ptr</text>
</g>
<!-- Node14 -->
<g id="node13" class="node">
<title>Node14</title>
<g id="a_node13"><a xlink:href="classAlignedVector.html" target="_top" xlink:title="{AlignedVector\&lt; T \&gt;\n||+ AlignedVector()\l+ AlignedVector()\l+ ~AlignedVector()\l+ AlignedVector()\l+ AlignedVector()\l+ operator=()\l+ operator=()\l+ resize_fast()\l+ resize()\l+ resize()\land 25 more...\l}">
<polygon fill="#ffffff" stroke="#000000" points="201,-762.5 201,-929.5 302,-929.5 302,-762.5 201,-762.5"/>
<text text-anchor="middle" x="251.5" y="-917.5" font-family="Helvetica,sans-Serif" font-size="10.00" fill="#000000">AlignedVector&lt; T &gt;</text>
<polyline fill="none" stroke="#000000" points="201,-910.5 302,-910.5 "/>
<text text-anchor="middle" x="251.5" y="-898.5" font-family="Helvetica,sans-Serif" font-size="10.00" fill="#000000"> </text>
<polyline fill="none" stroke="#000000" points="201,-891.5 302,-891.5 "/>
<text text-anchor="start" x="209" y="-879.5" font-family="Helvetica,sans-Serif" font-size="10.00" fill="#000000">+ AlignedVector()</text>
<text text-anchor="start" x="209" y="-868.5" font-family="Helvetica,sans-Serif" font-size="10.00" fill="#000000">+ AlignedVector()</text>
<text text-anchor="start" x="209" y="-857.5" font-family="Helvetica,sans-Serif" font-size="10.00" fill="#000000">+ ~AlignedVector()</text>
<text text-anchor="start" x="209" y="-846.5" font-family="Helvetica,sans-Serif" font-size="10.00" fill="#000000">+ AlignedVector()</text>
<text text-anchor="start" x="209" y="-835.5" font-family="Helvetica,sans-Serif" font-size="10.00" fill="#000000">+ AlignedVector()</text>
<text text-anchor="start" x="209" y="-824.5" font-family="Helvetica,sans-Serif" font-size="10.00" fill="#000000">+ operator=()</text>
<text text-anchor="start" x="209" y="-813.5" font-family="Helvetica,sans-Serif" font-size="10.00" fill="#000000">+ operator=()</text>
<text text-anchor="start" x="209" y="-802.5" font-family="Helvetica,sans-Serif" font-size="10.00" fill="#000000">+ resize_fast()</text>
<text text-anchor="start" x="209" y="-791.5" font-family="Helvetica,sans-Serif" font-size="10.00" fill="#000000">+ resize()</text>
<text text-anchor="start" x="209" y="-780.5" font-family="Helvetica,sans-Serif" font-size="10.00" fill="#000000">+ resize()</text>
<text text-anchor="start" x="209" y="-769.5" font-family="Helvetica,sans-Serif" font-size="10.00" fill="#000000">and 25 more...</text>
</a>
</g>
</g>
<!-- Node12&#45;&gt;Node14 -->
<g id="edge16" class="edge">
<title>Node12&#45;&gt;Node14</title>
<path fill="none" stroke="#404040" d="M337.6584,-1231.2349C339.945,-1217.0641 342.3703,-1199.6911 343.5,-1184 345.351,-1158.2888 345.8907,-1151.6667 343.5,-1126 337.2508,-1058.9091 336.5524,-1041.0082 315.5,-977 311.0283,-963.4043 307.761,-960.8701 301.5,-948 300.3259,-945.5865 299.1353,-943.1413 297.9333,-940.6746"/>
<polygon fill="none" stroke="#404040" points="297.867,-940.5387 291.6414,-936.8999 292.6058,-929.7535 298.8315,-933.3924 297.867,-940.5387"/>
<text text-anchor="start" x="341.5" y="-1100" font-family="Helvetica,sans-Serif" font-size="10.00" fill="#000000"> &#45;allocated_elements</text>
<text text-anchor="middle" x="387" y="-1089" font-family="Helvetica,sans-Serif" font-size="10.00" fill="#000000">_end</text>
<text text-anchor="middle" x="387" y="-1078" font-family="Helvetica,sans-Serif" font-size="10.00" fill="#000000">&#45;used_elements_end</text>
</g>
<!-- Node12&#45;&gt;Node15 -->
<g id="edge14" class="edge">
<title>Node12&#45;&gt;Node15</title>
<path fill="none" stroke="#404040" d="M328.1512,-1231.23C321.1315,-1186.5171 306.8413,-1102.6153 294.5,-1075 293.3349,-1072.3929 292.0366,-1069.7905 290.6381,-1067.2126"/>
<polygon fill="none" stroke="#404040" points="290.5711,-1067.1006 284.0576,-1064.0062 284.4088,-1056.8037 290.9222,-1059.898 290.5711,-1067.1006"/>
<text text-anchor="middle" x="330" y="-1152.5" font-family="Helvetica,sans-Serif" font-size="10.00" fill="#000000"> +ptr</text>
</g>
<!-- Node16 -->
<g id="node15" class="node">
<title>Node16</title>
<g id="a_node15"><a xlink:title="STL class. ">
<polygon fill="#ffffff" stroke="#bfbfbf" points="422.5,-580.5 422.5,-637.5 504.5,-637.5 504.5,-580.5 422.5,-580.5"/>
<text text-anchor="middle" x="463.5" y="-625.5" font-family="Helvetica,sans-Serif" font-size="10.00" fill="#000000">std::array&lt; T &gt;</text>
<polyline fill="none" stroke="#bfbfbf" points="422.5,-618.5 504.5,-618.5 "/>
<text text-anchor="middle" x="463.5" y="-606.5" font-family="Helvetica,sans-Serif" font-size="10.00" fill="#000000"> </text>
<polyline fill="none" stroke="#bfbfbf" points="422.5,-599.5 504.5,-599.5 "/>
<text text-anchor="middle" x="463.5" y="-587.5" font-family="Helvetica,sans-Serif" font-size="10.00" fill="#000000"> </text>
</a>
</g>
</g>
<!-- Node12&#45;&gt;Node16 -->
<g id="edge18" class="edge">
<title>Node12&#45;&gt;Node16</title>
<path fill="none" stroke="#404040" d="M347.0198,-1255.9702C381.1273,-1245.5234 463.5,-1214.1685 463.5,-1155 463.5,-1155 463.5,-1155 463.5,-846 463.5,-777.2153 463.5,-697.2013 463.5,-649.9559"/>
<polygon fill="none" stroke="#404040" points="463.5001,-649.8212 459.5,-643.8212 463.5,-637.8212 467.5,-643.8211 463.5001,-649.8212"/>
<text text-anchor="middle" x="488" y="-1014.5" font-family="Helvetica,sans-Serif" font-size="10.00" fill="#000000"> +elements</text>
</g>
<!-- Node13 -->
<g id="node12" class="node">
<title>Node13</title>
<polygon fill="#ffffff" stroke="#bfbfbf" points="320.5,-817.5 320.5,-874.5 378.5,-874.5 378.5,-817.5 320.5,-817.5"/>
<text text-anchor="middle" x="349.5" y="-862.5" font-family="Helvetica,sans-Serif" font-size="10.00" fill="#000000">Number *</text>
<polyline fill="none" stroke="#bfbfbf" points="320.5,-855.5 378.5,-855.5 "/>
<text text-anchor="middle" x="349.5" y="-843.5" font-family="Helvetica,sans-Serif" font-size="10.00" fill="#000000"> </text>
<polyline fill="none" stroke="#bfbfbf" points="320.5,-836.5 378.5,-836.5 "/>
<text text-anchor="middle" x="349.5" y="-824.5" font-family="Helvetica,sans-Serif" font-size="10.00" fill="#000000"> </text>
</g>
<!-- Node13&#45;&gt;Node8 -->
<g id="edge11" class="edge">
<title>Node13&#45;&gt;Node8</title>
<path fill="none" stroke="#404040" d="M343.6911,-817.3536C337.5276,-789.5179 326.5892,-746.3876 311.5,-711 310.4524,-708.5432 309.3565,-706.0729 308.2199,-703.5967"/>
<polygon fill="none" stroke="#404040" points="308.1945,-703.5438 301.9911,-699.8671 302.999,-692.7267 309.2024,-696.4034 308.1945,-703.5438"/>
<text text-anchor="start" x="323.5" y="-736" font-family="Helvetica,sans-Serif" font-size="10.00" fill="#000000"> &#45;allocated_elements</text>
<text text-anchor="middle" x="369" y="-725" font-family="Helvetica,sans-Serif" font-size="10.00" fill="#000000">_end</text>
<text text-anchor="middle" x="369" y="-714" font-family="Helvetica,sans-Serif" font-size="10.00" fill="#000000">&#45;used_elements_end</text>
</g>
<!-- Node14&#45;&gt;Node8 -->
<g id="edge12" class="edge">
<title>Node14&#45;&gt;Node8</title>
<path fill="none" stroke="#ffa500" d="M251.5,-752.2423C251.5,-732.5466 251.5,-711.8965 251.5,-692.6016"/>
<polygon fill="#ffa500" stroke="#ffa500" points="248.0001,-752.4426 251.5,-762.4427 255.0001,-752.4427 248.0001,-752.4426"/>
<text text-anchor="middle" x="279.5" y="-725" font-family="Helvetica,sans-Serif" font-size="10.00" fill="#000000"> &lt; Number &gt;</text>
</g>
<!-- Node15&#45;&gt;Node14 -->
<g id="edge13" class="edge">
<title>Node15&#45;&gt;Node14</title>
<path fill="none" stroke="#404040" d="M251.5,-977.3394C251.5,-966.4981 251.5,-954.2607 251.5,-941.7259"/>
<polygon fill="none" stroke="#404040" points="251.5001,-941.6528 247.5,-935.6528 251.5,-929.6528 255.5,-935.6527 251.5001,-941.6528"/>
<text text-anchor="middle" x="274.5" y="-951" font-family="Helvetica,sans-Serif" font-size="10.00" fill="#000000"> &#45;elements</text>
</g>
<!-- Node16&#45;&gt;Node7 -->
<g id="edge17" class="edge">
<title>Node16&#45;&gt;Node7</title>
<path fill="none" stroke="#ffa500" d="M414.3023,-577.1761C391.0373,-559.4202 365.1955,-535.1974 350.5,-507 343.2548,-493.0981 340.4351,-476.0478 339.5553,-461.265"/>
<polygon fill="#ffa500" stroke="#ffa500" points="412.2845,-580.037 422.4015,-583.1828 416.4543,-574.4146 412.2845,-580.037"/>
<text text-anchor="start" x="350.5" y="-499" font-family="Helvetica,sans-Serif" font-size="10.00" fill="#000000"> &lt; AlignedVector&lt; Number</text>
<text text-anchor="middle" x="409" y="-488" font-family="Helvetica,sans-Serif" font-size="10.00" fill="#000000"> &gt;, dim &gt;</text>
</g>
<!-- Node17 -->
<g id="node16" class="node">
<title>Node17</title>
<polygon fill="#ffffff" stroke="#bfbfbf" points="425,-393 425,-461 530,-461 530,-393 425,-393"/>
<text text-anchor="start" x="433" y="-449" font-family="Helvetica,sans-Serif" font-size="10.00" fill="#000000">std::array&lt; Table&lt;</text>
<text text-anchor="middle" x="477.5" y="-438" font-family="Helvetica,sans-Serif" font-size="10.00" fill="#000000"> 2, Number &gt;, dim &gt;</text>
<polyline fill="none" stroke="#bfbfbf" points="425,-431 530,-431 "/>
<text text-anchor="middle" x="477.5" y="-419" font-family="Helvetica,sans-Serif" font-size="10.00" fill="#000000"> </text>
<polyline fill="none" stroke="#bfbfbf" points="425,-412 530,-412 "/>
<text text-anchor="middle" x="477.5" y="-400" font-family="Helvetica,sans-Serif" font-size="10.00" fill="#000000"> </text>
</g>
<!-- Node16&#45;&gt;Node17 -->
<g id="edge23" class="edge">
<title>Node16&#45;&gt;Node17</title>
<path fill="none" stroke="#ffa500" d="M466.487,-570.1696C468.973,-537.8509 472.4788,-492.275 474.8625,-461.2879"/>
<polygon fill="#ffa500" stroke="#ffa500" points="462.9957,-569.9225 465.7183,-580.1616 469.9751,-570.4595 462.9957,-569.9225"/>
<text text-anchor="start" x="472.5" y="-499" font-family="Helvetica,sans-Serif" font-size="10.00" fill="#000000"> &lt; Table&lt; 2, Number</text>
<text text-anchor="middle" x="518" y="-488" font-family="Helvetica,sans-Serif" font-size="10.00" fill="#000000"> &gt;, dim &gt;</text>
</g>
<!-- Node17&#45;&gt;Node3 -->
<g id="edge20" class="edge">
<title>Node17&#45;&gt;Node3</title>
<path fill="none" stroke="#404040" d="M435.8311,-392.9322C413.4432,-375.1986 385.0539,-353.6052 358.5,-336 340.2663,-323.9111 320.2374,-311.7658 300.9189,-300.5789"/>
<polygon fill="none" stroke="#404040" points="300.6826,-300.4432 293.4876,-300.9251 290.2754,-294.4689 297.4704,-293.987 300.6826,-300.4432"/>
<text text-anchor="middle" x="441.5" y="-361" font-family="Helvetica,sans-Serif" font-size="10.00" fill="#000000"> #eigenvectors</text>
<text text-anchor="middle" x="441.5" y="-350" font-family="Helvetica,sans-Serif" font-size="10.00" fill="#000000">#derivative_matrix</text>
<text text-anchor="middle" x="441.5" y="-339" font-family="Helvetica,sans-Serif" font-size="10.00" fill="#000000">#mass_matrix</text>
</g>
<!-- Node18 -->
<g id="node17" class="node">
<title>Node18</title>
<g id="a_node17"><a xlink:href="classTable.html" target="_top" xlink:title="{Table\&lt; 2, Number \&gt;\n||}">
<polygon fill="#ffffff" stroke="#000000" points="539.5,-580.5 539.5,-637.5 643.5,-637.5 643.5,-580.5 539.5,-580.5"/>
<text text-anchor="middle" x="591.5" y="-625.5" font-family="Helvetica,sans-Serif" font-size="10.00" fill="#000000">Table&lt; 2, Number &gt;</text>
<polyline fill="none" stroke="#000000" points="539.5,-618.5 643.5,-618.5 "/>
<text text-anchor="middle" x="591.5" y="-606.5" font-family="Helvetica,sans-Serif" font-size="10.00" fill="#000000"> </text>
<polyline fill="none" stroke="#000000" points="539.5,-599.5 643.5,-599.5 "/>
<text text-anchor="middle" x="591.5" y="-587.5" font-family="Helvetica,sans-Serif" font-size="10.00" fill="#000000"> </text>
</a>
</g>
</g>
<!-- Node18&#45;&gt;Node17 -->
<g id="edge21" class="edge">
<title>Node18&#45;&gt;Node17</title>
<path fill="none" stroke="#404040" d="M592.1555,-580.2463C591.4159,-553.4364 586.7277,-513.4235 567.5,-485 560.3964,-474.4991 550.6898,-465.4766 540.2713,-457.8903"/>
<polygon fill="none" stroke="#404040" points="540.0782,-457.7602 532.8672,-457.7252 530.1261,-451.0554 537.3371,-451.0904 540.0782,-457.7602"/>
<text text-anchor="middle" x="603" y="-493.5" font-family="Helvetica,sans-Serif" font-size="10.00" fill="#000000"> +elements</text>
</g>
<!-- Node19 -->
<g id="node18" class="node">
<title>Node19</title>
<g id="a_node18"><a xlink:href="classTable.html" target="_top" xlink:title="{Table\&lt; N, T \&gt;\n||}">
<polygon fill="#ffffff" stroke="#000000" points="552.5,-817.5 552.5,-874.5 630.5,-874.5 630.5,-817.5 552.5,-817.5"/>
<text text-anchor="middle" x="591.5" y="-862.5" font-family="Helvetica,sans-Serif" font-size="10.00" fill="#000000">Table&lt; N, T &gt;</text>
<polyline fill="none" stroke="#000000" points="552.5,-855.5 630.5,-855.5 "/>
<text text-anchor="middle" x="591.5" y="-843.5" font-family="Helvetica,sans-Serif" font-size="10.00" fill="#000000"> </text>
<polyline fill="none" stroke="#000000" points="552.5,-836.5 630.5,-836.5 "/>
<text text-anchor="middle" x="591.5" y="-824.5" font-family="Helvetica,sans-Serif" font-size="10.00" fill="#000000"> </text>
</a>
</g>
</g>
<!-- Node19&#45;&gt;Node18 -->
<g id="edge22" class="edge">
<title>Node19&#45;&gt;Node18</title>
<path fill="none" stroke="#ffa500" d="M591.5,-807.1956C591.5,-759.6191 591.5,-680.0979 591.5,-637.6891"/>
<polygon fill="#ffa500" stroke="#ffa500" points="588.0001,-807.4122 591.5,-817.4123 595.0001,-807.4123 588.0001,-807.4122"/>
<text text-anchor="middle" x="625" y="-725" font-family="Helvetica,sans-Serif" font-size="10.00" fill="#000000"> &lt; 2, Number &gt;</text>
</g>
</g>
</svg>
