<?xml version="1.0" encoding="UTF-8" standalone="no"?>
<!DOCTYPE svg PUBLIC "-//W3C//DTD SVG 1.1//EN"
 "http://www.w3.org/Graphics/SVG/1.1/DTD/svg11.dtd">
<!-- Generated by graphviz version 2.40.1 (20161225.0304)
 -->
<!-- Title: BlockSparseMatrix&lt; number &gt; Pages: 1 -->
<svg width="270pt" height="231pt"
 viewBox="0.00 0.00 270.00 231.00" xmlns="http://www.w3.org/2000/svg" xmlns:xlink="http://www.w3.org/1999/xlink">
<g id="graph0" class="graph" transform="scale(1 1) rotate(0) translate(4 227)">
<title>BlockSparseMatrix&lt; number &gt;</title>
<polygon fill="#ffffff" stroke="transparent" points="-4,4 -4,-227 266,-227 266,4 -4,4"/>
<!-- Node0 -->
<g id="node1" class="node">
<title>Node0</title>
<polygon fill="#bfbfbf" stroke="#000000" points="26.5,-.5 26.5,-30.5 131.5,-30.5 131.5,-.5 26.5,-.5"/>
<text text-anchor="start" x="34.5" y="-18.5" font-family="Helvetica,sans-Serif" font-size="10.00" fill="#000000">BlockSparseMatrix&lt;</text>
<text text-anchor="middle" x="79" y="-7.5" font-family="Helvetica,sans-Serif" font-size="10.00" fill="#000000"> number &gt;</text>
</g>
<!-- Node1 -->
<g id="node2" class="node">
<title>Node1</title>
<g id="a_node2"><a xlink:href="classBlockMatrixBase.html" target="_top" xlink:title="BlockMatrixBase\&lt; SparseMatrix\l\&lt; number \&gt; \&gt;">
<polygon fill="#ffffff" stroke="#000000" points="0,-68.5 0,-98.5 158,-98.5 158,-68.5 0,-68.5"/>
<text text-anchor="start" x="8" y="-86.5" font-family="Helvetica,sans-Serif" font-size="10.00" fill="#000000">BlockMatrixBase&lt; SparseMatrix</text>
<text text-anchor="middle" x="79" y="-75.5" font-family="Helvetica,sans-Serif" font-size="10.00" fill="#000000">&lt; number &gt; &gt;</text>
</a>
</g>
</g>
<!-- Node1&#45;&gt;Node0 -->
<g id="edge1" class="edge">
<title>Node1&#45;&gt;Node0</title>
<path fill="none" stroke="#191970" d="M79,-58.1174C79,-48.8378 79,-38.6413 79,-30.5492"/>
<polygon fill="#191970" stroke="#191970" points="75.5001,-58.4086 79,-68.4086 82.5001,-58.4086 75.5001,-58.4086"/>
</g>
<!-- Node2 -->
<g id="node3" class="node">
<title>Node2</title>
<g id="a_node3"><a xlink:href="classSubscriptor.html" target="_top" xlink:title="Subscriptor">
<polygon fill="#ffffff" stroke="#000000" points="42,-203.5 42,-222.5 108,-222.5 108,-203.5 42,-203.5"/>
<text text-anchor="middle" x="75" y="-210.5" font-family="Helvetica,sans-Serif" font-size="10.00" fill="#000000">Subscriptor</text>
</a>
</g>
</g>
<!-- Node2&#45;&gt;Node1 -->
<g id="edge2" class="edge">
<title>Node2&#45;&gt;Node1</title>
<path fill="none" stroke="#191970" d="M75.6141,-193.1183C76.4157,-167.1655 77.8017,-122.2948 78.5268,-98.8199"/>
<polygon fill="#191970" stroke="#191970" points="72.1111,-193.1631 75.3007,-203.2665 79.1078,-193.3793 72.1111,-193.1631"/>
</g>
<!-- Node3 -->
<g id="node4" class="node">
<title>Node3</title>
<g id="a_node4"><a xlink:href="classBlockMatrixBase.html" target="_top" xlink:title="BlockMatrixBase\&lt; MatrixType \&gt;">
<polygon fill="#ffffff" stroke="#000000" points="91,-146.5 91,-165.5 249,-165.5 249,-146.5 91,-146.5"/>
<text text-anchor="middle" x="170" y="-153.5" font-family="Helvetica,sans-Serif" font-size="10.00" fill="#000000">BlockMatrixBase&lt; MatrixType &gt;</text>
</a>
</g>
</g>
<!-- Node2&#45;&gt;Node3 -->
<g id="edge4" class="edge">
<title>Node2&#45;&gt;Node3</title>
<path fill="none" stroke="#191970" d="M100.0343,-197.9794C117.1697,-187.6982 139.3731,-174.3762 154.1225,-165.5265"/>
<polygon fill="#191970" stroke="#191970" points="97.8896,-195.1845 91.1155,-203.3307 101.4911,-201.187 97.8896,-195.1845"/>
</g>
<!-- Node3&#45;&gt;Node1 -->
<g id="edge3" class="edge">
<title>Node3&#45;&gt;Node1</title>
<path fill="none" stroke="#ffa500" stroke-dasharray="5,2" d="M149.8051,-139.9107C134.3542,-127.6008 113.1945,-110.7429 98.0385,-98.668"/>
<polygon fill="#ffa500" stroke="#ffa500" points="147.7251,-142.7285 157.7273,-146.2223 152.087,-137.2536 147.7251,-142.7285"/>
<text text-anchor="middle" x="197" y="-120" font-family="Helvetica,sans-Serif" font-size="10.00" fill="#000000"> &lt; SparseMatrix&lt; number &gt; &gt;</text>
</g>
</g>
</svg>
