<?xml version="1.0" encoding="UTF-8" standalone="no"?>
<!DOCTYPE svg PUBLIC "-//W3C//DTD SVG 1.1//EN"
 "http://www.w3.org/Graphics/SVG/1.1/DTD/svg11.dtd">
<!-- Generated by graphviz version 2.40.1 (20161225.0304)
 -->
<!-- Title: internal::DoFHandlerImplementation::DoFFaces&lt; 3 &gt; Pages: 1 -->
<svg width="372pt" height="756pt"
 viewBox="0.00 0.00 372.00 756.00" xmlns="http://www.w3.org/2000/svg" xmlns:xlink="http://www.w3.org/1999/xlink">
<g id="graph0" class="graph" transform="scale(1 1) rotate(0) translate(4 752)">
<title>internal::DoFHandlerImplementation::DoFFaces&lt; 3 &gt;</title>
<polygon fill="#ffffff" stroke="transparent" points="-4,4 -4,-752 368,-752 368,4 -4,4"/>
<!-- Node1 -->
<g id="node1" class="node">
<title>Node1</title>
<polygon fill="#bfbfbf" stroke="#000000" points="95,-.5 95,-79.5 268,-79.5 268,-.5 95,-.5"/>
<text text-anchor="start" x="103" y="-67.5" font-family="Helvetica,sans-Serif" font-size="10.00" fill="#000000">internal::DoFHandlerImplementation</text>
<text text-anchor="middle" x="181.5" y="-56.5" font-family="Helvetica,sans-Serif" font-size="10.00" fill="#000000">::DoFFaces&lt; 3 &gt;</text>
<polyline fill="none" stroke="#000000" points="95,-49.5 268,-49.5 "/>
<text text-anchor="middle" x="181.5" y="-37.5" font-family="Helvetica,sans-Serif" font-size="10.00" fill="#000000"> </text>
<polyline fill="none" stroke="#000000" points="95,-30.5 268,-30.5 "/>
<text text-anchor="start" x="103" y="-18.5" font-family="Helvetica,sans-Serif" font-size="10.00" fill="#000000">+ memory_consumption()</text>
<text text-anchor="start" x="103" y="-7.5" font-family="Helvetica,sans-Serif" font-size="10.00" fill="#000000">+ serialize()</text>
</g>
<!-- Node2 -->
<g id="node2" class="node">
<title>Node2</title>
<g id="a_node2"><a xlink:href="classinternal_1_1DoFHandlerImplementation_1_1DoFObjects.html" target="_top" xlink:title="{internal::DoFHandlerImplementation\l::DoFObjects\&lt; 1 \&gt;\n||+ set_dof_index()\l+ get_dof_index()\l+ n_active_fe_indices()\l+ fe_index_is_active()\l+ memory_consumption()\l+ serialize()\l}">
<polygon fill="#ffffff" stroke="#000000" points="0,-127.5 0,-250.5 173,-250.5 173,-127.5 0,-127.5"/>
<text text-anchor="start" x="8" y="-238.5" font-family="Helvetica,sans-Serif" font-size="10.00" fill="#000000">internal::DoFHandlerImplementation</text>
<text text-anchor="middle" x="86.5" y="-227.5" font-family="Helvetica,sans-Serif" font-size="10.00" fill="#000000">::DoFObjects&lt; 1 &gt;</text>
<polyline fill="none" stroke="#000000" points="0,-220.5 173,-220.5 "/>
<text text-anchor="middle" x="86.5" y="-208.5" font-family="Helvetica,sans-Serif" font-size="10.00" fill="#000000"> </text>
<polyline fill="none" stroke="#000000" points="0,-201.5 173,-201.5 "/>
<text text-anchor="start" x="8" y="-189.5" font-family="Helvetica,sans-Serif" font-size="10.00" fill="#000000">+ set_dof_index()</text>
<text text-anchor="start" x="8" y="-178.5" font-family="Helvetica,sans-Serif" font-size="10.00" fill="#000000">+ get_dof_index()</text>
<text text-anchor="start" x="8" y="-167.5" font-family="Helvetica,sans-Serif" font-size="10.00" fill="#000000">+ n_active_fe_indices()</text>
<text text-anchor="start" x="8" y="-156.5" font-family="Helvetica,sans-Serif" font-size="10.00" fill="#000000">+ fe_index_is_active()</text>
<text text-anchor="start" x="8" y="-145.5" font-family="Helvetica,sans-Serif" font-size="10.00" fill="#000000">+ memory_consumption()</text>
<text text-anchor="start" x="8" y="-134.5" font-family="Helvetica,sans-Serif" font-size="10.00" fill="#000000">+ serialize()</text>
</a>
</g>
</g>
<!-- Node2&#45;&gt;Node1 -->
<g id="edge1" class="edge">
<title>Node2&#45;&gt;Node1</title>
<path fill="none" stroke="#404040" d="M125.9632,-127.105C133.849,-114.7368 142.0392,-101.8912 149.63,-89.9856"/>
<polygon fill="none" stroke="#404040" points="149.6723,-89.9191 149.5252,-82.7095 156.1237,-79.8008 156.2708,-87.0104 149.6723,-89.9191"/>
<text text-anchor="middle" x="158.5" y="-101" font-family="Helvetica,sans-Serif" font-size="10.00" fill="#000000"> +lines</text>
</g>
<!-- Node3 -->
<g id="node3" class="node">
<title>Node3</title>
<polygon fill="#ffffff" stroke="#bfbfbf" points="131,-469.5 131,-537.5 242,-537.5 242,-469.5 131,-469.5"/>
<text text-anchor="start" x="139" y="-525.5" font-family="Helvetica,sans-Serif" font-size="10.00" fill="#000000">std::vector&lt; unsigned</text>
<text text-anchor="middle" x="186.5" y="-514.5" font-family="Helvetica,sans-Serif" font-size="10.00" fill="#000000"> int &gt;</text>
<polyline fill="none" stroke="#bfbfbf" points="131,-507.5 242,-507.5 "/>
<text text-anchor="middle" x="186.5" y="-495.5" font-family="Helvetica,sans-Serif" font-size="10.00" fill="#000000"> </text>
<polyline fill="none" stroke="#bfbfbf" points="131,-488.5 242,-488.5 "/>
<text text-anchor="middle" x="186.5" y="-476.5" font-family="Helvetica,sans-Serif" font-size="10.00" fill="#000000"> </text>
</g>
<!-- Node3&#45;&gt;Node2 -->
<g id="edge2" class="edge">
<title>Node3&#45;&gt;Node2</title>
<path fill="none" stroke="#404040" d="M130.7985,-481.8063C105.1048,-468.6526 77.1148,-449.0945 62.5,-422 36.1935,-373.2299 44.6918,-310.3639 58.3963,-262.2259"/>
<polygon fill="none" stroke="#404040" points="58.4255,-262.1284 56.3195,-255.2317 61.8757,-250.6351 63.9817,-257.5319 58.4255,-262.1284"/>
<text text-anchor="middle" x="76.5" y="-357.5" font-family="Helvetica,sans-Serif" font-size="10.00" fill="#000000"> +dofs</text>
</g>
<!-- Node7 -->
<g id="node7" class="node">
<title>Node7</title>
<g id="a_node7"><a xlink:href="classinternal_1_1DoFHandlerImplementation_1_1DoFObjects.html" target="_top" xlink:title="{internal::DoFHandlerImplementation\l::DoFObjects\&lt; dim \&gt;\n||+ set_dof_index()\l+ get_dof_index()\l+ n_active_fe_indices()\l+ fe_index_is_active()\l+ memory_consumption()\l+ serialize()\l}">
<polygon fill="#ffffff" stroke="#000000" points="100,-298.5 100,-421.5 273,-421.5 273,-298.5 100,-298.5"/>
<text text-anchor="start" x="108" y="-409.5" font-family="Helvetica,sans-Serif" font-size="10.00" fill="#000000">internal::DoFHandlerImplementation</text>
<text text-anchor="middle" x="186.5" y="-398.5" font-family="Helvetica,sans-Serif" font-size="10.00" fill="#000000">::DoFObjects&lt; dim &gt;</text>
<polyline fill="none" stroke="#000000" points="100,-391.5 273,-391.5 "/>
<text text-anchor="middle" x="186.5" y="-379.5" font-family="Helvetica,sans-Serif" font-size="10.00" fill="#000000"> </text>
<polyline fill="none" stroke="#000000" points="100,-372.5 273,-372.5 "/>
<text text-anchor="start" x="108" y="-360.5" font-family="Helvetica,sans-Serif" font-size="10.00" fill="#000000">+ set_dof_index()</text>
<text text-anchor="start" x="108" y="-349.5" font-family="Helvetica,sans-Serif" font-size="10.00" fill="#000000">+ get_dof_index()</text>
<text text-anchor="start" x="108" y="-338.5" font-family="Helvetica,sans-Serif" font-size="10.00" fill="#000000">+ n_active_fe_indices()</text>
<text text-anchor="start" x="108" y="-327.5" font-family="Helvetica,sans-Serif" font-size="10.00" fill="#000000">+ fe_index_is_active()</text>
<text text-anchor="start" x="108" y="-316.5" font-family="Helvetica,sans-Serif" font-size="10.00" fill="#000000">+ memory_consumption()</text>
<text text-anchor="start" x="108" y="-305.5" font-family="Helvetica,sans-Serif" font-size="10.00" fill="#000000">+ serialize()</text>
</a>
</g>
</g>
<!-- Node3&#45;&gt;Node7 -->
<g id="edge7" class="edge">
<title>Node3&#45;&gt;Node7</title>
<path fill="none" stroke="#404040" d="M186.5,-469.4925C186.5,-458.6267 186.5,-446.1465 186.5,-433.5911"/>
<polygon fill="none" stroke="#404040" points="186.5001,-433.5807 182.5,-427.5807 186.5,-421.5807 190.5,-427.5806 186.5001,-433.5807"/>
<text text-anchor="middle" x="200.5" y="-443" font-family="Helvetica,sans-Serif" font-size="10.00" fill="#000000"> +dofs</text>
</g>
<!-- Node8 -->
<g id="node8" class="node">
<title>Node8</title>
<g id="a_node8"><a xlink:href="classinternal_1_1DoFHandlerImplementation_1_1DoFObjects.html" target="_top" xlink:title="{internal::DoFHandlerImplementation\l::DoFObjects\&lt; 2 \&gt;\n||+ set_dof_index()\l+ get_dof_index()\l+ n_active_fe_indices()\l+ fe_index_is_active()\l+ memory_consumption()\l+ serialize()\l}">
<polygon fill="#ffffff" stroke="#000000" points="191,-127.5 191,-250.5 364,-250.5 364,-127.5 191,-127.5"/>
<text text-anchor="start" x="199" y="-238.5" font-family="Helvetica,sans-Serif" font-size="10.00" fill="#000000">internal::DoFHandlerImplementation</text>
<text text-anchor="middle" x="277.5" y="-227.5" font-family="Helvetica,sans-Serif" font-size="10.00" fill="#000000">::DoFObjects&lt; 2 &gt;</text>
<polyline fill="none" stroke="#000000" points="191,-220.5 364,-220.5 "/>
<text text-anchor="middle" x="277.5" y="-208.5" font-family="Helvetica,sans-Serif" font-size="10.00" fill="#000000"> </text>
<polyline fill="none" stroke="#000000" points="191,-201.5 364,-201.5 "/>
<text text-anchor="start" x="199" y="-189.5" font-family="Helvetica,sans-Serif" font-size="10.00" fill="#000000">+ set_dof_index()</text>
<text text-anchor="start" x="199" y="-178.5" font-family="Helvetica,sans-Serif" font-size="10.00" fill="#000000">+ get_dof_index()</text>
<text text-anchor="start" x="199" y="-167.5" font-family="Helvetica,sans-Serif" font-size="10.00" fill="#000000">+ n_active_fe_indices()</text>
<text text-anchor="start" x="199" y="-156.5" font-family="Helvetica,sans-Serif" font-size="10.00" fill="#000000">+ fe_index_is_active()</text>
<text text-anchor="start" x="199" y="-145.5" font-family="Helvetica,sans-Serif" font-size="10.00" fill="#000000">+ memory_consumption()</text>
<text text-anchor="start" x="199" y="-134.5" font-family="Helvetica,sans-Serif" font-size="10.00" fill="#000000">+ serialize()</text>
</a>
</g>
</g>
<!-- Node3&#45;&gt;Node8 -->
<g id="edge9" class="edge">
<title>Node3&#45;&gt;Node8</title>
<path fill="none" stroke="#404040" d="M242.0475,-469.9073C258.1444,-457.101 273.7307,-440.9481 282.5,-422 305.4023,-372.5144 302.8055,-310.5579 295.2101,-262.9751"/>
<polygon fill="none" stroke="#404040" points="295.166,-262.719 290.2044,-257.4861 293.1264,-250.8935 298.088,-256.1264 295.166,-262.719"/>
<text text-anchor="middle" x="314.5" y="-357.5" font-family="Helvetica,sans-Serif" font-size="10.00" fill="#000000"> +dofs</text>
</g>
<!-- Node4 -->
<g id="node4" class="node">
<title>Node4</title>
<g id="a_node4"><a xlink:href="classunsigned_01int.html" target="_top" xlink:title="{unsigned int\n||}">
<polygon fill="#ffffff" stroke="#000000" points="116,-585.5 116,-642.5 185,-642.5 185,-585.5 116,-585.5"/>
<text text-anchor="middle" x="150.5" y="-630.5" font-family="Helvetica,sans-Serif" font-size="10.00" fill="#000000">unsigned int</text>
<polyline fill="none" stroke="#000000" points="116,-623.5 185,-623.5 "/>
<text text-anchor="middle" x="150.5" y="-611.5" font-family="Helvetica,sans-Serif" font-size="10.00" fill="#000000"> </text>
<polyline fill="none" stroke="#000000" points="116,-604.5 185,-604.5 "/>
<text text-anchor="middle" x="150.5" y="-592.5" font-family="Helvetica,sans-Serif" font-size="10.00" fill="#000000"> </text>
</a>
</g>
</g>
<!-- Node4&#45;&gt;Node3 -->
<g id="edge3" class="edge">
<title>Node4&#45;&gt;Node3</title>
<path fill="none" stroke="#404040" d="M155.7712,-585.3834C157.8153,-575.9235 160.4148,-565.4138 163.5,-556 164.2748,-553.636 165.1175,-551.233 166.0077,-548.8213"/>
<polygon fill="none" stroke="#404040" points="166.0369,-548.7471 164.5179,-541.6978 170.4407,-537.5844 171.9597,-544.6337 166.0369,-548.7471"/>
<text text-anchor="middle" x="188" y="-559" font-family="Helvetica,sans-Serif" font-size="10.00" fill="#000000"> +elements</text>
</g>
<!-- Node5 -->
<g id="node5" class="node">
<title>Node5</title>
<g id="a_node5"><a xlink:title="STL class. ">
<polygon fill="#ffffff" stroke="#bfbfbf" points="203,-585.5 203,-642.5 290,-642.5 290,-585.5 203,-585.5"/>
<text text-anchor="middle" x="246.5" y="-630.5" font-family="Helvetica,sans-Serif" font-size="10.00" fill="#000000">std::vector&lt; T &gt;</text>
<polyline fill="none" stroke="#bfbfbf" points="203,-623.5 290,-623.5 "/>
<text text-anchor="middle" x="246.5" y="-611.5" font-family="Helvetica,sans-Serif" font-size="10.00" fill="#000000"> </text>
<polyline fill="none" stroke="#bfbfbf" points="203,-604.5 290,-604.5 "/>
<text text-anchor="middle" x="246.5" y="-592.5" font-family="Helvetica,sans-Serif" font-size="10.00" fill="#000000"> </text>
</a>
</g>
</g>
<!-- Node5&#45;&gt;Node3 -->
<g id="edge4" class="edge">
<title>Node5&#45;&gt;Node3</title>
<path fill="none" stroke="#ffa500" d="M226.0765,-576.3866C219.2513,-563.817 211.6874,-549.8867 205.0159,-537.6001"/>
<polygon fill="#ffa500" stroke="#ffa500" points="223.0447,-578.138 230.8923,-585.2559 229.1963,-574.7977 223.0447,-578.138"/>
<text text-anchor="middle" x="257.5" y="-559" font-family="Helvetica,sans-Serif" font-size="10.00" fill="#000000"> &lt; unsigned int &gt;</text>
</g>
<!-- Node6 -->
<g id="node6" class="node">
<title>Node6</title>
<polygon fill="#ffffff" stroke="#bfbfbf" points="232,-690.5 232,-747.5 261,-747.5 261,-690.5 232,-690.5"/>
<text text-anchor="middle" x="246.5" y="-735.5" font-family="Helvetica,sans-Serif" font-size="10.00" fill="#000000">T</text>
<polyline fill="none" stroke="#bfbfbf" points="232,-728.5 261,-728.5 "/>
<text text-anchor="middle" x="246.5" y="-716.5" font-family="Helvetica,sans-Serif" font-size="10.00" fill="#000000"> </text>
<polyline fill="none" stroke="#bfbfbf" points="232,-709.5 261,-709.5 "/>
<text text-anchor="middle" x="246.5" y="-697.5" font-family="Helvetica,sans-Serif" font-size="10.00" fill="#000000"> </text>
</g>
<!-- Node6&#45;&gt;Node5 -->
<g id="edge5" class="edge">
<title>Node6&#45;&gt;Node5</title>
<path fill="none" stroke="#404040" d="M246.5,-690.3083C246.5,-679.4281 246.5,-666.817 246.5,-655.0192"/>
<polygon fill="none" stroke="#404040" points="246.5001,-654.657 242.5,-648.6571 246.5,-642.657 250.5,-648.657 246.5001,-654.657"/>
<text text-anchor="middle" x="271" y="-664" font-family="Helvetica,sans-Serif" font-size="10.00" fill="#000000"> +elements</text>
</g>
<!-- Node7&#45;&gt;Node2 -->
<g id="edge6" class="edge">
<title>Node7&#45;&gt;Node2</title>
<path fill="none" stroke="#ffa500" d="M145.2387,-289.4431C137.7112,-276.5711 129.911,-263.2327 122.5493,-250.6443"/>
<polygon fill="#ffa500" stroke="#ffa500" points="142.3282,-291.3996 150.3977,-298.2651 148.3708,-287.8659 142.3282,-291.3996"/>
<text text-anchor="middle" x="153" y="-272" font-family="Helvetica,sans-Serif" font-size="10.00" fill="#000000"> &lt; 1 &gt;</text>
</g>
<!-- Node7&#45;&gt;Node8 -->
<g id="edge10" class="edge">
<title>Node7&#45;&gt;Node8</title>
<path fill="none" stroke="#ffa500" d="M224.2455,-289.0717C231.0343,-276.3147 238.0604,-263.1117 244.6951,-250.6443"/>
<polygon fill="#ffa500" stroke="#ffa500" points="220.9612,-287.793 219.3531,-298.2651 227.1407,-291.0815 220.9612,-287.793"/>
<text text-anchor="middle" x="248" y="-272" font-family="Helvetica,sans-Serif" font-size="10.00" fill="#000000"> &lt; 2 &gt;</text>
</g>
<!-- Node8&#45;&gt;Node1 -->
<g id="edge8" class="edge">
<title>Node8&#45;&gt;Node1</title>
<path fill="none" stroke="#404040" d="M237.6214,-127.105C229.6526,-114.7368 221.3762,-101.8912 213.7055,-89.9856"/>
<polygon fill="none" stroke="#404040" points="213.6429,-89.8883 207.0306,-87.011 207.1435,-79.8008 213.7557,-82.6781 213.6429,-89.8883"/>
<text text-anchor="middle" x="241.5" y="-101" font-family="Helvetica,sans-Serif" font-size="10.00" fill="#000000"> +quads</text>
</g>
</g>
</svg>
