<?xml version="1.0" encoding="UTF-8" standalone="no"?>
<!DOCTYPE svg PUBLIC "-//W3C//DTD SVG 1.1//EN"
 "http://www.w3.org/Graphics/SVG/1.1/DTD/svg11.dtd">
<!-- Generated by graphviz version 2.40.1 (20161225.0304)
 -->
<!-- Title: TensorAccessors::internal::StoreIndex&lt; rank, S &gt; Pages: 1 -->
<svg width="139pt" height="204pt"
 viewBox="0.00 0.00 139.00 204.00" xmlns="http://www.w3.org/2000/svg" xmlns:xlink="http://www.w3.org/1999/xlink">
<g id="graph0" class="graph" transform="scale(1 1) rotate(0) translate(4 200)">
<title>TensorAccessors::internal::StoreIndex&lt; rank, S &gt;</title>
<polygon fill="#ffffff" stroke="transparent" points="-4,4 -4,-200 135,-200 135,4 -4,4"/>
<!-- Node1 -->
<g id="node1" class="node">
<title>Node1</title>
<polygon fill="#bfbfbf" stroke="#000000" points="0,-.5 0,-90.5 131,-90.5 131,-.5 0,-.5"/>
<text text-anchor="start" x="8" y="-78.5" font-family="Helvetica,sans-Serif" font-size="10.00" fill="#000000">TensorAccessors::internal</text>
<text text-anchor="middle" x="65.5" y="-67.5" font-family="Helvetica,sans-Serif" font-size="10.00" fill="#000000">::StoreIndex&lt; rank, S &gt;</text>
<polyline fill="none" stroke="#000000" points="0,-60.5 131,-60.5 "/>
<text text-anchor="middle" x="65.5" y="-48.5" font-family="Helvetica,sans-Serif" font-size="10.00" fill="#000000"> </text>
<polyline fill="none" stroke="#000000" points="0,-41.5 131,-41.5 "/>
<text text-anchor="start" x="8" y="-29.5" font-family="Helvetica,sans-Serif" font-size="10.00" fill="#000000">+ StoreIndex()</text>
<text text-anchor="start" x="8" y="-18.5" font-family="Helvetica,sans-Serif" font-size="10.00" fill="#000000">+ operator[]()</text>
<text text-anchor="start" x="8" y="-7.5" font-family="Helvetica,sans-Serif" font-size="10.00" fill="#000000">+ apply()</text>
</g>
<!-- Node2 -->
<g id="node2" class="node">
<title>Node2</title>
<polygon fill="#ffffff" stroke="#bfbfbf" points="11.5,-138.5 11.5,-195.5 61.5,-195.5 61.5,-138.5 11.5,-138.5"/>
<text text-anchor="middle" x="36.5" y="-183.5" font-family="Helvetica,sans-Serif" font-size="10.00" fill="#000000">const S</text>
<polyline fill="none" stroke="#bfbfbf" points="11.5,-176.5 61.5,-176.5 "/>
<text text-anchor="middle" x="36.5" y="-164.5" font-family="Helvetica,sans-Serif" font-size="10.00" fill="#000000"> </text>
<polyline fill="none" stroke="#bfbfbf" points="11.5,-157.5 61.5,-157.5 "/>
<text text-anchor="middle" x="36.5" y="-145.5" font-family="Helvetica,sans-Serif" font-size="10.00" fill="#000000"> </text>
</g>
<!-- Node2&#45;&gt;Node1 -->
<g id="edge1" class="edge">
<title>Node2&#45;&gt;Node1</title>
<path fill="none" stroke="#404040" d="M43.3726,-138.2062C45.9366,-127.4641 48.9453,-114.8583 51.9037,-102.4636"/>
<polygon fill="none" stroke="#404040" points="51.9225,-102.3846 49.4248,-95.6198 54.7086,-90.7124 57.2063,-97.4772 51.9225,-102.3846"/>
<text text-anchor="middle" x="59" y="-112" font-family="Helvetica,sans-Serif" font-size="10.00" fill="#000000"> &#45;s_</text>
</g>
<!-- Node3 -->
<g id="node3" class="node">
<title>Node3</title>
<g id="a_node3"><a xlink:href="classint.html" target="_top" xlink:title="{int\n||}">
<polygon fill="#ffffff" stroke="#000000" points="80,-138.5 80,-195.5 109,-195.5 109,-138.5 80,-138.5"/>
<text text-anchor="middle" x="94.5" y="-183.5" font-family="Helvetica,sans-Serif" font-size="10.00" fill="#000000">int</text>
<polyline fill="none" stroke="#000000" points="80,-176.5 109,-176.5 "/>
<text text-anchor="middle" x="94.5" y="-164.5" font-family="Helvetica,sans-Serif" font-size="10.00" fill="#000000"> </text>
<polyline fill="none" stroke="#000000" points="80,-157.5 109,-157.5 "/>
<text text-anchor="middle" x="94.5" y="-145.5" font-family="Helvetica,sans-Serif" font-size="10.00" fill="#000000"> </text>
</a>
</g>
</g>
<!-- Node3&#45;&gt;Node1 -->
<g id="edge2" class="edge">
<title>Node3&#45;&gt;Node1</title>
<path fill="none" stroke="#404040" d="M87.6274,-138.2062C85.0634,-127.4641 82.0547,-114.8583 79.0963,-102.4636"/>
<polygon fill="none" stroke="#404040" points="79.0775,-102.3846 73.7937,-97.4772 76.2914,-90.7124 81.5752,-95.6198 79.0775,-102.3846"/>
<text text-anchor="middle" x="89.5" y="-112" font-family="Helvetica,sans-Serif" font-size="10.00" fill="#000000"> &#45;i_</text>
</g>
</g>
</svg>
