<?xml version="1.0" encoding="UTF-8" standalone="no"?>
<!DOCTYPE svg PUBLIC "-//W3C//DTD SVG 1.1//EN"
 "http://www.w3.org/Graphics/SVG/1.1/DTD/svg11.dtd">
<!-- Generated by graphviz version 2.40.1 (20161225.0304)
 -->
<!-- Title: DesignPattern::Command::Invoker Pages: 1 -->
<svg width="140pt" height="248pt"
 viewBox="0.00 0.00 140.00 248.00" xmlns="http://www.w3.org/2000/svg" xmlns:xlink="http://www.w3.org/1999/xlink">
<g id="graph0" class="graph" transform="scale(1 1) rotate(0) translate(4 244)">
<title>DesignPattern::Command::Invoker</title>
<polygon fill="#ffffff" stroke="transparent" points="-4,4 -4,-244 136,-244 136,4 -4,4"/>
<!-- Node1 -->
<g id="node1" class="node">
<title>Node1</title>
<polygon fill="#bfbfbf" stroke="#000000" points="0,-.5 0,-101.5 132,-101.5 132,-.5 0,-.5"/>
<text text-anchor="start" x="8" y="-89.5" font-family="Helvetica,sans-Serif" font-size="10.00" fill="#000000">DesignPattern::Command</text>
<text text-anchor="middle" x="66" y="-78.5" font-family="Helvetica,sans-Serif" font-size="10.00" fill="#000000">::Invoker</text>
<polyline fill="none" stroke="#000000" points="0,-71.5 132,-71.5 "/>
<text text-anchor="middle" x="66" y="-59.5" font-family="Helvetica,sans-Serif" font-size="10.00" fill="#000000"> </text>
<polyline fill="none" stroke="#000000" points="0,-52.5 132,-52.5 "/>
<text text-anchor="start" x="8" y="-40.5" font-family="Helvetica,sans-Serif" font-size="10.00" fill="#000000">+ ~Invoker()</text>
<text text-anchor="start" x="8" y="-29.5" font-family="Helvetica,sans-Serif" font-size="10.00" fill="#000000">+ SetOnStart()</text>
<text text-anchor="start" x="8" y="-18.5" font-family="Helvetica,sans-Serif" font-size="10.00" fill="#000000">+ SetOnFinish()</text>
<text text-anchor="start" x="8" y="-7.5" font-family="Helvetica,sans-Serif" font-size="10.00" fill="#000000">+ DoSomethingImportant()</text>
</g>
<!-- Node2 -->
<g id="node2" class="node">
<title>Node2</title>
<g id="a_node2"><a xlink:href="classDesignPattern_1_1Command_1_1Command.html" target="_top" xlink:title="{DesignPattern::Command\l::Command\n||+ ~Command()\l+ Execute()\l}">
<polygon fill="#ffffff" stroke="#000000" points="1,-160.5 1,-239.5 131,-239.5 131,-160.5 1,-160.5"/>
<text text-anchor="start" x="9" y="-227.5" font-family="Helvetica,sans-Serif" font-size="10.00" fill="#000000">DesignPattern::Command</text>
<text text-anchor="middle" x="66" y="-216.5" font-family="Helvetica,sans-Serif" font-size="10.00" fill="#000000">::Command</text>
<polyline fill="none" stroke="#000000" points="1,-209.5 131,-209.5 "/>
<text text-anchor="middle" x="66" y="-197.5" font-family="Helvetica,sans-Serif" font-size="10.00" fill="#000000"> </text>
<polyline fill="none" stroke="#000000" points="1,-190.5 131,-190.5 "/>
<text text-anchor="start" x="9" y="-178.5" font-family="Helvetica,sans-Serif" font-size="10.00" fill="#000000">+ ~Command()</text>
<text text-anchor="start" x="9" y="-167.5" font-family="Helvetica,sans-Serif" font-size="10.00" fill="#000000">+ Execute()</text>
</a>
</g>
</g>
<!-- Node2&#45;&gt;Node1 -->
<g id="edge1" class="edge">
<title>Node2&#45;&gt;Node1</title>
<path fill="none" stroke="#404040" d="M66,-160.4619C66,-146.2439 66,-129.8287 66,-114.1068"/>
<polygon fill="none" stroke="#404040" points="66.0001,-113.7021 62,-107.7021 66,-101.7021 70,-107.702 66.0001,-113.7021"/>
<text text-anchor="middle" x="90" y="-134" font-family="Helvetica,sans-Serif" font-size="10.00" fill="#000000"> &#45;on_start_</text>
<text text-anchor="middle" x="90" y="-123" font-family="Helvetica,sans-Serif" font-size="10.00" fill="#000000">&#45;on_finish_</text>
</g>
</g>
</svg>
