<?xml version="1.0" encoding="UTF-8" standalone="no"?>
<!DOCTYPE svg PUBLIC "-//W3C//DTD SVG 1.1//EN"
 "http://www.w3.org/Graphics/SVG/1.1/DTD/svg11.dtd">
<!-- Generated by graphviz version 2.40.1 (20161225.0304)
 -->
<!-- Title: GrowingVectorMemory&lt; VectorType &gt; Pages: 1 -->
<svg width="208pt" height="231pt"
 viewBox="0.00 0.00 207.50 231.00" xmlns="http://www.w3.org/2000/svg" xmlns:xlink="http://www.w3.org/1999/xlink">
<g id="graph0" class="graph" transform="scale(1 1) rotate(0) translate(4 227)">
<title>GrowingVectorMemory&lt; VectorType &gt;</title>
<polygon fill="#ffffff" stroke="transparent" points="-4,4 -4,-227 203.5,-227 203.5,4 -4,4"/>
<!-- Node0 -->
<g id="node1" class="node">
<title>Node0</title>
<polygon fill="#bfbfbf" stroke="#000000" points="16.5,-78.5 16.5,-108.5 132.5,-108.5 132.5,-78.5 16.5,-78.5"/>
<text text-anchor="start" x="24.5" y="-96.5" font-family="Helvetica,sans-Serif" font-size="10.00" fill="#000000">GrowingVectorMemory</text>
<text text-anchor="middle" x="74.5" y="-85.5" font-family="Helvetica,sans-Serif" font-size="10.00" fill="#000000">&lt; VectorType &gt;</text>
</g>
<!-- Node3 -->
<g id="node4" class="node">
<title>Node3</title>
<g id="a_node4"><a xlink:href="classGrowingVectorMemory.html" target="_top" xlink:title="GrowingVectorMemory\l\&lt; BlockVector\&lt; number \&gt; \&gt;">
<polygon fill="#ffffff" stroke="#000000" points="5.5,-.5 5.5,-30.5 143.5,-30.5 143.5,-.5 5.5,-.5"/>
<text text-anchor="start" x="13.5" y="-18.5" font-family="Helvetica,sans-Serif" font-size="10.00" fill="#000000">GrowingVectorMemory</text>
<text text-anchor="middle" x="74.5" y="-7.5" font-family="Helvetica,sans-Serif" font-size="10.00" fill="#000000">&lt; BlockVector&lt; number &gt; &gt;</text>
</a>
</g>
</g>
<!-- Node0&#45;&gt;Node3 -->
<g id="edge3" class="edge">
<title>Node0&#45;&gt;Node3</title>
<path fill="none" stroke="#ffa500" stroke-dasharray="5,2" d="M74.5,-68.2875C74.5,-55.9187 74.5,-41.4264 74.5,-30.7592"/>
<polygon fill="#ffa500" stroke="#ffa500" points="71.0001,-68.4608 74.5,-78.4608 78.0001,-68.4608 71.0001,-68.4608"/>
<text text-anchor="middle" x="137" y="-52" font-family="Helvetica,sans-Serif" font-size="10.00" fill="#000000"> &lt; BlockVector&lt; number &gt; &gt;</text>
</g>
<!-- Node1 -->
<g id="node2" class="node">
<title>Node1</title>
<g id="a_node2"><a xlink:href="classVectorMemory.html" target="_top" xlink:title="VectorMemory\&lt; VectorType \&gt;">
<polygon fill="#ffffff" stroke="#000000" points="0,-146.5 0,-165.5 149,-165.5 149,-146.5 0,-146.5"/>
<text text-anchor="middle" x="74.5" y="-153.5" font-family="Helvetica,sans-Serif" font-size="10.00" fill="#000000">VectorMemory&lt; VectorType &gt;</text>
</a>
</g>
</g>
<!-- Node1&#45;&gt;Node0 -->
<g id="edge1" class="edge">
<title>Node1&#45;&gt;Node0</title>
<path fill="none" stroke="#191970" d="M74.5,-136.0501C74.5,-127.2205 74.5,-117.0001 74.5,-108.7892"/>
<polygon fill="#191970" stroke="#191970" points="71.0001,-136.2343 74.5,-146.2344 78.0001,-136.2344 71.0001,-136.2343"/>
</g>
<!-- Node2 -->
<g id="node3" class="node">
<title>Node2</title>
<g id="a_node3"><a xlink:href="classSubscriptor.html" target="_top" xlink:title="Subscriptor">
<polygon fill="#ffffff" stroke="#000000" points="41.5,-203.5 41.5,-222.5 107.5,-222.5 107.5,-203.5 41.5,-203.5"/>
<text text-anchor="middle" x="74.5" y="-210.5" font-family="Helvetica,sans-Serif" font-size="10.00" fill="#000000">Subscriptor</text>
</a>
</g>
</g>
<!-- Node2&#45;&gt;Node1 -->
<g id="edge2" class="edge">
<title>Node2&#45;&gt;Node1</title>
<path fill="none" stroke="#191970" d="M74.5,-193.2342C74.5,-183.8491 74.5,-173.0651 74.5,-165.5265"/>
<polygon fill="#191970" stroke="#191970" points="71.0001,-193.3307 74.5,-203.3307 78.0001,-193.3308 71.0001,-193.3307"/>
</g>
</g>
</svg>
