<?xml version="1.0" encoding="UTF-8" standalone="no"?>
<!DOCTYPE svg PUBLIC "-//W3C//DTD SVG 1.1//EN"
 "http://www.w3.org/Graphics/SVG/1.1/DTD/svg11.dtd">
<!-- Generated by graphviz version 2.40.1 (20161225.0304)
 -->
<!-- Title: LinearAlgebra::EpetraWrappers::Vector Pages: 1 -->
<svg width="248pt" height="185pt"
 viewBox="0.00 0.00 247.50 185.00" xmlns="http://www.w3.org/2000/svg" xmlns:xlink="http://www.w3.org/1999/xlink">
<g id="graph0" class="graph" transform="scale(1 1) rotate(0) translate(4 181)">
<title>LinearAlgebra::EpetraWrappers::Vector</title>
<polygon fill="#ffffff" stroke="transparent" points="-4,4 -4,-181 243.5,-181 243.5,4 -4,4"/>
<!-- Node0 -->
<g id="node1" class="node">
<title>Node0</title>
<polygon fill="#bfbfbf" stroke="#000000" points="55.5,-.5 55.5,-30.5 222.5,-30.5 222.5,-.5 55.5,-.5"/>
<text text-anchor="start" x="63.5" y="-18.5" font-family="Helvetica,sans-Serif" font-size="10.00" fill="#000000">LinearAlgebra::EpetraWrappers</text>
<text text-anchor="middle" x="139" y="-7.5" font-family="Helvetica,sans-Serif" font-size="10.00" fill="#000000">::Vector</text>
</g>
<!-- Node1 -->
<g id="node2" class="node">
<title>Node1</title>
<g id="a_node2"><a xlink:href="classLinearAlgebra_1_1VectorSpaceVector.html" target="_top" xlink:title="LinearAlgebra::VectorSpace\lVector\&lt; double \&gt;">
<polygon fill="#ffffff" stroke="#000000" points="0,-68.5 0,-98.5 150,-98.5 150,-68.5 0,-68.5"/>
<text text-anchor="start" x="8" y="-86.5" font-family="Helvetica,sans-Serif" font-size="10.00" fill="#000000">LinearAlgebra::VectorSpace</text>
<text text-anchor="middle" x="75" y="-75.5" font-family="Helvetica,sans-Serif" font-size="10.00" fill="#000000">Vector&lt; double &gt;</text>
</a>
</g>
</g>
<!-- Node1&#45;&gt;Node0 -->
<g id="edge1" class="edge">
<title>Node1&#45;&gt;Node0</title>
<path fill="none" stroke="#191970" d="M96.0758,-61.1069C105.5136,-51.0793 116.3921,-39.5209 124.836,-30.5492"/>
<polygon fill="#191970" stroke="#191970" points="93.5086,-58.7278 89.2037,-68.4086 98.6061,-63.5254 93.5086,-58.7278"/>
</g>
<!-- Node2 -->
<g id="node3" class="node">
<title>Node2</title>
<g id="a_node3"><a xlink:href="classLinearAlgebra_1_1VectorSpaceVector.html" target="_top" xlink:title="LinearAlgebra::VectorSpace\lVector\&lt; Number \&gt;">
<polygon fill="#ffffff" stroke="#000000" points="0,-146.5 0,-176.5 150,-176.5 150,-146.5 0,-146.5"/>
<text text-anchor="start" x="8" y="-164.5" font-family="Helvetica,sans-Serif" font-size="10.00" fill="#000000">LinearAlgebra::VectorSpace</text>
<text text-anchor="middle" x="75" y="-153.5" font-family="Helvetica,sans-Serif" font-size="10.00" fill="#000000">Vector&lt; Number &gt;</text>
</a>
</g>
</g>
<!-- Node2&#45;&gt;Node1 -->
<g id="edge2" class="edge">
<title>Node2&#45;&gt;Node1</title>
<path fill="none" stroke="#ffa500" stroke-dasharray="5,2" d="M75,-136.2875C75,-123.9187 75,-109.4264 75,-98.7592"/>
<polygon fill="#ffa500" stroke="#ffa500" points="71.5001,-136.4608 75,-146.4608 78.5001,-136.4608 71.5001,-136.4608"/>
<text text-anchor="middle" x="104.5" y="-120" font-family="Helvetica,sans-Serif" font-size="10.00" fill="#000000"> &lt; double &gt;</text>
</g>
<!-- Node3 -->
<g id="node4" class="node">
<title>Node3</title>
<g id="a_node4"><a xlink:href="classSubscriptor.html" target="_top" xlink:title="Subscriptor">
<polygon fill="#ffffff" stroke="#000000" points="168.5,-74 168.5,-93 239.5,-93 239.5,-74 168.5,-74"/>
<text text-anchor="middle" x="204" y="-81" font-family="Helvetica,sans-Serif" font-size="10.00" fill="#000000">Subscriptor</text>
</a>
</g>
</g>
<!-- Node3&#45;&gt;Node0 -->
<g id="edge3" class="edge">
<title>Node3&#45;&gt;Node0</title>
<path fill="none" stroke="#191970" d="M187.6775,-66.4242C177.1939,-55.4566 163.6955,-41.3353 153.5734,-30.746"/>
<polygon fill="#191970" stroke="#191970" points="185.2472,-68.9469 194.6871,-73.7573 190.3073,-64.1101 185.2472,-68.9469"/>
</g>
</g>
</svg>
