<?xml version="1.0" encoding="UTF-8" standalone="no"?>
<!DOCTYPE svg PUBLIC "-//W3C//DTD SVG 1.1//EN"
 "http://www.w3.org/Graphics/SVG/1.1/DTD/svg11.dtd">
<!-- Generated by graphviz version 2.40.1 (20161225.0304)
 -->
<!-- Title: LinearAlgebra::distributed::Vector&lt; Number, MemorySpace &gt; Pages: 1 -->
<svg width="230pt" height="185pt"
 viewBox="0.00 0.00 230.00 185.00" xmlns="http://www.w3.org/2000/svg" xmlns:xlink="http://www.w3.org/1999/xlink">
<g id="graph0" class="graph" transform="scale(1 1) rotate(0) translate(4 181)">
<title>LinearAlgebra::distributed::Vector&lt; Number, MemorySpace &gt;</title>
<polygon fill="#ffffff" stroke="transparent" points="-4,4 -4,-181 226,-181 226,4 -4,4"/>
<!-- Node0 -->
<g id="node1" class="node">
<title>Node0</title>
<polygon fill="#bfbfbf" stroke="#000000" points="42.5,-78.5 42.5,-108.5 215.5,-108.5 215.5,-78.5 42.5,-78.5"/>
<text text-anchor="start" x="50.5" y="-96.5" font-family="Helvetica,sans-Serif" font-size="10.00" fill="#000000">LinearAlgebra::distributed</text>
<text text-anchor="middle" x="129" y="-85.5" font-family="Helvetica,sans-Serif" font-size="10.00" fill="#000000">::Vector&lt; Number, MemorySpace &gt;</text>
</g>
<!-- Node3 -->
<g id="node4" class="node">
<title>Node3</title>
<g id="a_node4"><a xlink:href="classLinearAlgebra_1_1distributed_1_1Vector.html" target="_top" xlink:title="LinearAlgebra::distributed\l::Vector\&lt; Number \&gt;">
<polygon fill="#ffffff" stroke="#000000" points="65.5,-.5 65.5,-30.5 192.5,-30.5 192.5,-.5 65.5,-.5"/>
<text text-anchor="start" x="73.5" y="-18.5" font-family="Helvetica,sans-Serif" font-size="10.00" fill="#000000">LinearAlgebra::distributed</text>
<text text-anchor="middle" x="129" y="-7.5" font-family="Helvetica,sans-Serif" font-size="10.00" fill="#000000">::Vector&lt; Number &gt;</text>
</a>
</g>
</g>
<!-- Node0&#45;&gt;Node3 -->
<g id="edge3" class="edge">
<title>Node0&#45;&gt;Node3</title>
<path fill="none" stroke="#ffa500" stroke-dasharray="5,2" d="M129,-68.2875C129,-55.9187 129,-41.4264 129,-30.7592"/>
<polygon fill="#ffa500" stroke="#ffa500" points="125.5001,-68.4608 129,-78.4608 132.5001,-68.4608 125.5001,-68.4608"/>
<text text-anchor="middle" x="157" y="-52" font-family="Helvetica,sans-Serif" font-size="10.00" fill="#000000"> &lt; Number &gt;</text>
</g>
<!-- Node1 -->
<g id="node2" class="node">
<title>Node1</title>
<g id="a_node2"><a xlink:href="classLinearAlgebra_1_1VectorSpaceVector.html" target="_top" xlink:title="LinearAlgebra::VectorSpace\lVector\&lt; Number \&gt;">
<polygon fill="#ffffff" stroke="#000000" points="0,-146.5 0,-176.5 138,-176.5 138,-146.5 0,-146.5"/>
<text text-anchor="start" x="8" y="-164.5" font-family="Helvetica,sans-Serif" font-size="10.00" fill="#000000">LinearAlgebra::VectorSpace</text>
<text text-anchor="middle" x="69" y="-153.5" font-family="Helvetica,sans-Serif" font-size="10.00" fill="#000000">Vector&lt; Number &gt;</text>
</a>
</g>
</g>
<!-- Node1&#45;&gt;Node0 -->
<g id="edge1" class="edge">
<title>Node1&#45;&gt;Node0</title>
<path fill="none" stroke="#191970" d="M89.0192,-138.8116C97.8063,-128.8529 107.8827,-117.433 115.7213,-108.5492"/>
<polygon fill="#191970" stroke="#191970" points="86.3078,-136.5945 82.3159,-146.4086 91.5566,-141.2259 86.3078,-136.5945"/>
</g>
<!-- Node2 -->
<g id="node3" class="node">
<title>Node2</title>
<g id="a_node3"><a xlink:href="classSubscriptor.html" target="_top" xlink:title="Subscriptor">
<polygon fill="#ffffff" stroke="#000000" points="156,-152 156,-171 222,-171 222,-152 156,-152"/>
<text text-anchor="middle" x="189" y="-159" font-family="Helvetica,sans-Serif" font-size="10.00" fill="#000000">Subscriptor</text>
</a>
</g>
</g>
<!-- Node2&#45;&gt;Node0 -->
<g id="edge2" class="edge">
<title>Node2&#45;&gt;Node0</title>
<path fill="none" stroke="#191970" d="M173.6505,-144.1039C164.0142,-133.1828 151.7051,-119.2325 142.4523,-108.746"/>
<polygon fill="#191970" stroke="#191970" points="171.1628,-146.5745 180.4035,-151.7573 176.4117,-141.9432 171.1628,-146.5745"/>
</g>
</g>
</svg>
