<?xml version="1.0" encoding="UTF-8" standalone="no"?>
<!DOCTYPE svg PUBLIC "-//W3C//DTD SVG 1.1//EN"
 "http://www.w3.org/Graphics/SVG/1.1/DTD/svg11.dtd">
<!-- Generated by graphviz version 2.40.1 (20161225.0304)
 -->
<!-- Title: HDF5::HDF5Object Pages: 1 -->
<svg width="186pt" height="140pt"
 viewBox="0.00 0.00 186.00 140.00" xmlns="http://www.w3.org/2000/svg" xmlns:xlink="http://www.w3.org/1999/xlink">
<g id="graph0" class="graph" transform="scale(1 1) rotate(0) translate(4 136)">
<title>HDF5::HDF5Object</title>
<polygon fill="#ffffff" stroke="transparent" points="-4,4 -4,-136 182,-136 182,4 -4,4"/>
<!-- Node0 -->
<g id="node1" class="node">
<title>Node0</title>
<polygon fill="#bfbfbf" stroke="#000000" points="39.5,-112.5 39.5,-131.5 143.5,-131.5 143.5,-112.5 39.5,-112.5"/>
<text text-anchor="middle" x="91.5" y="-119.5" font-family="Helvetica,sans-Serif" font-size="10.00" fill="#000000">HDF5::HDF5Object</text>
</g>
<!-- Node1 -->
<g id="node2" class="node">
<title>Node1</title>
<g id="a_node2"><a xlink:href="classHDF5_1_1DataSet.html" target="_top" xlink:title="HDF5::DataSet">
<polygon fill="#ffffff" stroke="#000000" points="0,-56.5 0,-75.5 85,-75.5 85,-56.5 0,-56.5"/>
<text text-anchor="middle" x="42.5" y="-63.5" font-family="Helvetica,sans-Serif" font-size="10.00" fill="#000000">HDF5::DataSet</text>
</a>
</g>
</g>
<!-- Node0&#45;&gt;Node1 -->
<g id="edge1" class="edge">
<title>Node0&#45;&gt;Node1</title>
<path fill="none" stroke="#191970" d="M76.1878,-104.5004C67.8553,-94.9775 57.8647,-83.5596 50.9373,-75.6427"/>
<polygon fill="#191970" stroke="#191970" points="73.7457,-107.0245 82.9649,-112.2455 79.0138,-102.415 73.7457,-107.0245"/>
</g>
<!-- Node2 -->
<g id="node3" class="node">
<title>Node2</title>
<g id="a_node3"><a xlink:href="classHDF5_1_1Group.html" target="_top" xlink:title="HDF5::Group">
<polygon fill="#ffffff" stroke="#000000" points="103,-56.5 103,-75.5 178,-75.5 178,-56.5 103,-56.5"/>
<text text-anchor="middle" x="140.5" y="-63.5" font-family="Helvetica,sans-Serif" font-size="10.00" fill="#000000">HDF5::Group</text>
</a>
</g>
</g>
<!-- Node0&#45;&gt;Node2 -->
<g id="edge2" class="edge">
<title>Node0&#45;&gt;Node2</title>
<path fill="none" stroke="#191970" d="M106.8122,-104.5004C115.1447,-94.9775 125.1353,-83.5596 132.0627,-75.6427"/>
<polygon fill="#191970" stroke="#191970" points="103.9862,-102.415 100.0351,-112.2455 109.2543,-107.0245 103.9862,-102.415"/>
</g>
<!-- Node3 -->
<g id="node4" class="node">
<title>Node3</title>
<g id="a_node4"><a xlink:href="classHDF5_1_1File.html" target="_top" xlink:title="HDF5::File">
<polygon fill="#ffffff" stroke="#000000" points="108,-.5 108,-19.5 173,-19.5 173,-.5 108,-.5"/>
<text text-anchor="middle" x="140.5" y="-7.5" font-family="Helvetica,sans-Serif" font-size="10.00" fill="#000000">HDF5::File</text>
</a>
</g>
</g>
<!-- Node2&#45;&gt;Node3 -->
<g id="edge3" class="edge">
<title>Node2&#45;&gt;Node3</title>
<path fill="none" stroke="#191970" d="M140.5,-46.1575C140.5,-37.155 140.5,-26.9199 140.5,-19.6427"/>
<polygon fill="#191970" stroke="#191970" points="137.0001,-46.2455 140.5,-56.2455 144.0001,-46.2456 137.0001,-46.2455"/>
</g>
</g>
</svg>
