<?xml version="1.0" encoding="UTF-8" standalone="no"?>
<!DOCTYPE svg PUBLIC "-//W3C//DTD SVG 1.1//EN"
 "http://www.w3.org/Graphics/SVG/1.1/DTD/svg11.dtd">
<!-- Generated by graphviz version 2.40.1 (20161225.0304)
 -->
<!-- Title: MappingQ&lt; dim, spacedim &gt;::InternalData Pages: 1 -->
<svg width="178pt" height="248pt"
 viewBox="0.00 0.00 178.00 248.00" xmlns="http://www.w3.org/2000/svg" xmlns:xlink="http://www.w3.org/1999/xlink">
<g id="graph0" class="graph" transform="scale(1 1) rotate(0) translate(4 244)">
<title>MappingQ&lt; dim, spacedim &gt;::InternalData</title>
<polygon fill="#ffffff" stroke="transparent" points="-4,4 -4,-244 174,-244 174,4 -4,4"/>
<!-- Node0 -->
<g id="node1" class="node">
<title>Node0</title>
<polygon fill="#bfbfbf" stroke="#000000" points="0,-.5 0,-101.5 170,-101.5 170,-.5 0,-.5"/>
<text text-anchor="start" x="8" y="-89.5" font-family="Helvetica,sans-Serif" font-size="10.00" fill="#000000">MappingQ&lt; dim, spacedim</text>
<text text-anchor="middle" x="85" y="-78.5" font-family="Helvetica,sans-Serif" font-size="10.00" fill="#000000"> &gt;::InternalData</text>
<polyline fill="none" stroke="#000000" points="0,-71.5 170,-71.5 "/>
<text text-anchor="start" x="8" y="-59.5" font-family="Helvetica,sans-Serif" font-size="10.00" fill="#000000">+ use_mapping_q1_on_current_cell</text>
<text text-anchor="start" x="8" y="-48.5" font-family="Helvetica,sans-Serif" font-size="10.00" fill="#000000">+ mapping_q1_data</text>
<text text-anchor="start" x="8" y="-37.5" font-family="Helvetica,sans-Serif" font-size="10.00" fill="#000000">+ mapping_qp_data</text>
<polyline fill="none" stroke="#000000" points="0,-30.5 170,-30.5 "/>
<text text-anchor="start" x="8" y="-18.5" font-family="Helvetica,sans-Serif" font-size="10.00" fill="#000000">+ InternalData()</text>
<text text-anchor="start" x="8" y="-7.5" font-family="Helvetica,sans-Serif" font-size="10.00" fill="#000000">+ memory_consumption()</text>
</g>
<!-- Node1 -->
<g id="node2" class="node">
<title>Node1</title>
<g id="a_node2"><a xlink:href="classMapping_1_1InternalDataBase.html" target="_top" xlink:title="{Mapping\&lt; dim, spacedim\l \&gt;::InternalDataBase\n|+ update_each\l|+ InternalDataBase()\l+ InternalDataBase()\l+ ~InternalDataBase()\l+ memory_consumption()\l}">
<polygon fill="#ffffff" stroke="#000000" points="21,-138.5 21,-239.5 149,-239.5 149,-138.5 21,-138.5"/>
<text text-anchor="start" x="29" y="-227.5" font-family="Helvetica,sans-Serif" font-size="10.00" fill="#000000">Mapping&lt; dim, spacedim</text>
<text text-anchor="middle" x="85" y="-216.5" font-family="Helvetica,sans-Serif" font-size="10.00" fill="#000000"> &gt;::InternalDataBase</text>
<polyline fill="none" stroke="#000000" points="21,-209.5 149,-209.5 "/>
<text text-anchor="start" x="29" y="-197.5" font-family="Helvetica,sans-Serif" font-size="10.00" fill="#000000">+ update_each</text>
<polyline fill="none" stroke="#000000" points="21,-190.5 149,-190.5 "/>
<text text-anchor="start" x="29" y="-178.5" font-family="Helvetica,sans-Serif" font-size="10.00" fill="#000000">+ InternalDataBase()</text>
<text text-anchor="start" x="29" y="-167.5" font-family="Helvetica,sans-Serif" font-size="10.00" fill="#000000">+ InternalDataBase()</text>
<text text-anchor="start" x="29" y="-156.5" font-family="Helvetica,sans-Serif" font-size="10.00" fill="#000000">+ ~InternalDataBase()</text>
<text text-anchor="start" x="29" y="-145.5" font-family="Helvetica,sans-Serif" font-size="10.00" fill="#000000">+ memory_consumption()</text>
</a>
</g>
</g>
<!-- Node1&#45;&gt;Node0 -->
<g id="edge1" class="edge">
<title>Node1&#45;&gt;Node0</title>
<path fill="none" stroke="#191970" d="M85,-128.1179C85,-119.2601 85,-110.2213 85,-101.5964"/>
<polygon fill="none" stroke="#191970" points="81.5001,-128.3975 85,-138.3975 88.5001,-128.3975 81.5001,-128.3975"/>
</g>
</g>
</svg>
