<?xml version="1.0" encoding="UTF-8" standalone="no"?>
<!DOCTYPE svg PUBLIC "-//W3C//DTD SVG 1.1//EN"
 "http://www.w3.org/Graphics/SVG/1.1/DTD/svg11.dtd">
<!-- Generated by graphviz version 2.40.1 (20161225.0304)
 -->
<!-- Title: Utilities::MPI::ConsensusAlgorithms::NBX&lt; T1, T2 &gt; Pages: 1 -->
<svg width="1531pt" height="778pt"
 viewBox="0.00 0.00 1531.00 778.00" xmlns="http://www.w3.org/2000/svg" xmlns:xlink="http://www.w3.org/1999/xlink">
<g id="graph0" class="graph" transform="scale(1 1) rotate(0) translate(4 774)">
<title>Utilities::MPI::ConsensusAlgorithms::NBX&lt; T1, T2 &gt;</title>
<polygon fill="#ffffff" stroke="transparent" points="-4,4 -4,-774 1527,-774 1527,4 -4,4"/>
<!-- Node2 -->
<g id="node1" class="node">
<title>Node2</title>
<polygon fill="#bfbfbf" stroke="#000000" points="872,-.5 872,-156.5 1053,-156.5 1053,-.5 872,-.5"/>
<text text-anchor="start" x="880" y="-144.5" font-family="Helvetica,sans-Serif" font-size="10.00" fill="#000000">Utilities::MPI::Consensus</text>
<text text-anchor="middle" x="962.5" y="-133.5" font-family="Helvetica,sans-Serif" font-size="10.00" fill="#000000">Algorithms::NBX&lt; T1, T2 &gt;</text>
<polyline fill="none" stroke="#000000" points="872,-126.5 1053,-126.5 "/>
<text text-anchor="middle" x="962.5" y="-114.5" font-family="Helvetica,sans-Serif" font-size="10.00" fill="#000000"> </text>
<polyline fill="none" stroke="#000000" points="872,-107.5 1053,-107.5 "/>
<text text-anchor="start" x="880" y="-95.5" font-family="Helvetica,sans-Serif" font-size="10.00" fill="#000000">+ NBX()</text>
<text text-anchor="start" x="880" y="-84.5" font-family="Helvetica,sans-Serif" font-size="10.00" fill="#000000">+ ~NBX()</text>
<text text-anchor="start" x="880" y="-73.5" font-family="Helvetica,sans-Serif" font-size="10.00" fill="#000000">+ run()</text>
<text text-anchor="start" x="880" y="-62.5" font-family="Helvetica,sans-Serif" font-size="10.00" fill="#000000">&#45; check_own_state()</text>
<text text-anchor="start" x="880" y="-51.5" font-family="Helvetica,sans-Serif" font-size="10.00" fill="#000000">&#45; signal_finish()</text>
<text text-anchor="start" x="880" y="-40.5" font-family="Helvetica,sans-Serif" font-size="10.00" fill="#000000">&#45; check_global_state()</text>
<text text-anchor="start" x="880" y="-29.5" font-family="Helvetica,sans-Serif" font-size="10.00" fill="#000000">&#45; answer_requests()</text>
<text text-anchor="start" x="880" y="-18.5" font-family="Helvetica,sans-Serif" font-size="10.00" fill="#000000">&#45; start_communication()</text>
<text text-anchor="start" x="880" y="-7.5" font-family="Helvetica,sans-Serif" font-size="10.00" fill="#000000">&#45; clean_up_and_end_communication()</text>
</g>
<!-- Node3 -->
<g id="node2" class="node">
<title>Node3</title>
<g id="a_node2"><a xlink:href="classUtilities_1_1MPI_1_1ConsensusAlgorithms_1_1Interface.html" target="_top" xlink:title="{Utilities::MPI::Consensus\lAlgorithms::Interface\&lt;\l T1, T2 \&gt;\n||+ Interface()\l+ ~Interface()\l+ run()\l}">
<polygon fill="#ffffff" stroke="#000000" points="177,-204.5 177,-305.5 306,-305.5 306,-204.5 177,-204.5"/>
<text text-anchor="start" x="185" y="-293.5" font-family="Helvetica,sans-Serif" font-size="10.00" fill="#000000">Utilities::MPI::Consensus</text>
<text text-anchor="start" x="185" y="-282.5" font-family="Helvetica,sans-Serif" font-size="10.00" fill="#000000">Algorithms::Interface&lt;</text>
<text text-anchor="middle" x="241.5" y="-271.5" font-family="Helvetica,sans-Serif" font-size="10.00" fill="#000000"> T1, T2 &gt;</text>
<polyline fill="none" stroke="#000000" points="177,-264.5 306,-264.5 "/>
<text text-anchor="middle" x="241.5" y="-252.5" font-family="Helvetica,sans-Serif" font-size="10.00" fill="#000000"> </text>
<polyline fill="none" stroke="#000000" points="177,-245.5 306,-245.5 "/>
<text text-anchor="start" x="185" y="-233.5" font-family="Helvetica,sans-Serif" font-size="10.00" fill="#000000">+ Interface()</text>
<text text-anchor="start" x="185" y="-222.5" font-family="Helvetica,sans-Serif" font-size="10.00" fill="#000000">+ ~Interface()</text>
<text text-anchor="start" x="185" y="-211.5" font-family="Helvetica,sans-Serif" font-size="10.00" fill="#000000">+ run()</text>
</a>
</g>
</g>
<!-- Node3&#45;&gt;Node2 -->
<g id="edge1" class="edge">
<title>Node3&#45;&gt;Node2</title>
<path fill="none" stroke="#191970" d="M315.3827,-212.3886C341.8341,-198.6754 372.3315,-184.569 401.5,-175 562.3077,-122.2454 759.0129,-96.8881 871.6293,-85.8806"/>
<polygon fill="none" stroke="#191970" points="313.4264,-209.4629 306.2041,-217.2147 316.6841,-215.6587 313.4264,-209.4629"/>
</g>
<!-- Node4 -->
<g id="node3" class="node">
<title>Node4</title>
<g id="a_node3"><a xlink:href="classbool.html" target="_top" xlink:title="{bool\n||}">
<polygon fill="#ffffff" stroke="#000000" points="290,-370 290,-427 325,-427 325,-370 290,-370"/>
<text text-anchor="middle" x="307.5" y="-415" font-family="Helvetica,sans-Serif" font-size="10.00" fill="#000000">bool</text>
<polyline fill="none" stroke="#000000" points="290,-408 325,-408 "/>
<text text-anchor="middle" x="307.5" y="-396" font-family="Helvetica,sans-Serif" font-size="10.00" fill="#000000"> </text>
<polyline fill="none" stroke="#000000" points="290,-389 325,-389 "/>
<text text-anchor="middle" x="307.5" y="-377" font-family="Helvetica,sans-Serif" font-size="10.00" fill="#000000"> </text>
</a>
</g>
</g>
<!-- Node4&#45;&gt;Node3 -->
<g id="edge2" class="edge">
<title>Node4&#45;&gt;Node3</title>
<path fill="none" stroke="#404040" d="M301.0572,-369.876C297.3738,-355.7298 292.1523,-338.6049 285.5,-324 284.3755,-321.5313 283.1741,-319.047 281.9133,-316.5632"/>
<polygon fill="none" stroke="#404040" points="281.7628,-316.2844 275.3922,-312.9058 276.0607,-305.7257 282.4313,-309.1044 281.7628,-316.2844"/>
<text text-anchor="middle" x="337" y="-332.5" font-family="Helvetica,sans-Serif" font-size="10.00" fill="#000000"> #job_supports_mpi</text>
</g>
<!-- Node5 -->
<g id="node4" class="node">
<title>Node5</title>
<g id="a_node4"><a xlink:href="classMPI__Comm.html" target="_top" xlink:title="{MPI_Comm\n||}">
<polygon fill="#ffffff" stroke="#000000" points="0,-370 0,-427 69,-427 69,-370 0,-370"/>
<text text-anchor="middle" x="34.5" y="-415" font-family="Helvetica,sans-Serif" font-size="10.00" fill="#000000">MPI_Comm</text>
<polyline fill="none" stroke="#000000" points="0,-408 69,-408 "/>
<text text-anchor="middle" x="34.5" y="-396" font-family="Helvetica,sans-Serif" font-size="10.00" fill="#000000"> </text>
<polyline fill="none" stroke="#000000" points="0,-389 69,-389 "/>
<text text-anchor="middle" x="34.5" y="-377" font-family="Helvetica,sans-Serif" font-size="10.00" fill="#000000"> </text>
</a>
</g>
</g>
<!-- Node5&#45;&gt;Node3 -->
<g id="edge3" class="edge">
<title>Node5&#45;&gt;Node3</title>
<path fill="none" stroke="#404040" d="M69.0259,-370.3609C71.8692,-368.1778 74.7187,-366.0338 77.5,-364 106.0107,-343.1523 138.2193,-321.3792 166.4978,-302.8229"/>
<polygon fill="none" stroke="#404040" points="166.6791,-302.7044 169.5134,-296.0737 176.7242,-296.1396 173.8899,-302.7704 166.6791,-302.7044"/>
<text text-anchor="middle" x="149.5" y="-332.5" font-family="Helvetica,sans-Serif" font-size="10.00" fill="#000000"> #comm</text>
</g>
<!-- Node6 -->
<g id="node5" class="node">
<title>Node6</title>
<polygon fill="#ffffff" stroke="#bfbfbf" points="87,-370 87,-427 196,-427 196,-370 87,-370"/>
<text text-anchor="middle" x="141.5" y="-415" font-family="Helvetica,sans-Serif" font-size="10.00" fill="#000000">Process&lt; T1, T2 &gt; &amp;</text>
<polyline fill="none" stroke="#bfbfbf" points="87,-408 196,-408 "/>
<text text-anchor="middle" x="141.5" y="-396" font-family="Helvetica,sans-Serif" font-size="10.00" fill="#000000"> </text>
<polyline fill="none" stroke="#bfbfbf" points="87,-389 196,-389 "/>
<text text-anchor="middle" x="141.5" y="-377" font-family="Helvetica,sans-Serif" font-size="10.00" fill="#000000"> </text>
</g>
<!-- Node6&#45;&gt;Node3 -->
<g id="edge4" class="edge">
<title>Node6&#45;&gt;Node3</title>
<path fill="none" stroke="#404040" d="M161.4961,-369.8055C172.3185,-354.2755 186.1168,-334.4749 199.1954,-315.7071"/>
<polygon fill="none" stroke="#404040" points="199.2949,-315.5642 199.4436,-308.3546 206.1558,-305.7189 206.0071,-312.9285 199.2949,-315.5642"/>
<text text-anchor="middle" x="213" y="-332.5" font-family="Helvetica,sans-Serif" font-size="10.00" fill="#000000"> #process</text>
</g>
<!-- Node7 -->
<g id="node6" class="node">
<title>Node7</title>
<polygon fill="#ffffff" stroke="#bfbfbf" points="214.5,-370 214.5,-427 270.5,-427 270.5,-370 214.5,-370"/>
<text text-anchor="middle" x="242.5" y="-415" font-family="Helvetica,sans-Serif" font-size="10.00" fill="#000000">unsigned</text>
<polyline fill="none" stroke="#bfbfbf" points="214.5,-408 270.5,-408 "/>
<text text-anchor="middle" x="242.5" y="-396" font-family="Helvetica,sans-Serif" font-size="10.00" fill="#000000"> </text>
<polyline fill="none" stroke="#bfbfbf" points="214.5,-389 270.5,-389 "/>
<text text-anchor="middle" x="242.5" y="-377" font-family="Helvetica,sans-Serif" font-size="10.00" fill="#000000"> </text>
</g>
<!-- Node7&#45;&gt;Node3 -->
<g id="edge5" class="edge">
<title>Node7&#45;&gt;Node3</title>
<path fill="none" stroke="#404040" d="M242.3,-369.8055C242.1958,-354.848 242.064,-335.9291 241.9375,-317.7868"/>
<polygon fill="none" stroke="#404040" points="241.9372,-317.7186 237.8954,-311.7467 241.8534,-305.7189 245.8952,-311.6909 241.9372,-317.7186"/>
<text text-anchor="middle" x="264" y="-338" font-family="Helvetica,sans-Serif" font-size="10.00" fill="#000000"> #n_procs</text>
<text text-anchor="middle" x="264" y="-327" font-family="Helvetica,sans-Serif" font-size="10.00" fill="#000000">#my_rank</text>
</g>
<!-- Node8 -->
<g id="node7" class="node">
<title>Node8</title>
<polygon fill="#ffffff" stroke="#bfbfbf" points="465,-370 465,-427 606,-427 606,-370 465,-370"/>
<text text-anchor="middle" x="535.5" y="-415" font-family="Helvetica,sans-Serif" font-size="10.00" fill="#000000">std::vector&lt; MPI_Request &gt;</text>
<polyline fill="none" stroke="#bfbfbf" points="465,-408 606,-408 "/>
<text text-anchor="middle" x="535.5" y="-396" font-family="Helvetica,sans-Serif" font-size="10.00" fill="#000000"> </text>
<polyline fill="none" stroke="#bfbfbf" points="465,-389 606,-389 "/>
<text text-anchor="middle" x="535.5" y="-377" font-family="Helvetica,sans-Serif" font-size="10.00" fill="#000000"> </text>
</g>
<!-- Node8&#45;&gt;Node2 -->
<g id="edge6" class="edge">
<title>Node8&#45;&gt;Node2</title>
<path fill="none" stroke="#404040" d="M548.8078,-369.9746C569.4961,-328.3796 613.0429,-250.9392 670.5,-204 725.9843,-158.6724 800.3033,-127.04 860.0774,-106.8709"/>
<polygon fill="none" stroke="#404040" points="860.4339,-106.7532 864.8765,-101.0731 871.8284,-102.9893 867.3858,-108.6694 860.4339,-106.7532"/>
<text text-anchor="middle" x="705.5" y="-258" font-family="Helvetica,sans-Serif" font-size="10.00" fill="#000000"> &#45;send_requests</text>
<text text-anchor="middle" x="705.5" y="-247" font-family="Helvetica,sans-Serif" font-size="10.00" fill="#000000">&#45;recv_requests</text>
</g>
<!-- Node9 -->
<g id="node8" class="node">
<title>Node9</title>
<g id="a_node8"><a xlink:href="classMPI__Request.html" target="_top" xlink:title="{MPI_Request\n||}">
<polygon fill="#ffffff" stroke="#000000" points="410,-497 410,-554 487,-554 487,-497 410,-497"/>
<text text-anchor="middle" x="448.5" y="-542" font-family="Helvetica,sans-Serif" font-size="10.00" fill="#000000">MPI_Request</text>
<polyline fill="none" stroke="#000000" points="410,-535 487,-535 "/>
<text text-anchor="middle" x="448.5" y="-523" font-family="Helvetica,sans-Serif" font-size="10.00" fill="#000000"> </text>
<polyline fill="none" stroke="#000000" points="410,-516 487,-516 "/>
<text text-anchor="middle" x="448.5" y="-504" font-family="Helvetica,sans-Serif" font-size="10.00" fill="#000000"> </text>
</a>
</g>
</g>
<!-- Node9&#45;&gt;Node2 -->
<g id="edge10" class="edge">
<title>Node9&#45;&gt;Node2</title>
<path fill="none" stroke="#404040" d="M442.663,-496.7298C441.354,-489.053 440.1586,-480.74 439.5,-473 435.3485,-424.2127 435.249,-408.5795 455.5,-364 493.05,-281.3395 508.0549,-255.9681 582.5,-204 666.0844,-145.652 778.6778,-112.9623 859.5746,-95.6857"/>
<polygon fill="none" stroke="#404040" points="860.0262,-95.5917 865.0848,-90.4526 871.7742,-93.1455 866.7156,-98.2846 860.0262,-95.5917"/>
<text text-anchor="middle" x="510" y="-332.5" font-family="Helvetica,sans-Serif" font-size="10.00" fill="#000000"> &#45;barrier_request</text>
</g>
<!-- Node9&#45;&gt;Node8 -->
<g id="edge7" class="edge">
<title>Node9&#45;&gt;Node8</title>
<path fill="none" stroke="#404040" d="M442.6117,-496.9019C441.0918,-482.2726 441.6852,-464.7101 449.5,-451 452.8567,-445.111 457.1677,-439.802 462.0671,-435.0322"/>
<polygon fill="none" stroke="#404040" points="462.3198,-434.8162 464.2825,-427.8774 471.4425,-427.0203 469.4798,-433.9592 462.3198,-434.8162"/>
<text text-anchor="middle" x="474" y="-459.5" font-family="Helvetica,sans-Serif" font-size="10.00" fill="#000000"> +elements</text>
</g>
<!-- Node13 -->
<g id="node12" class="node">
<title>Node13</title>
<polygon fill="#ffffff" stroke="#bfbfbf" points="624.5,-364.5 624.5,-432.5 732.5,-432.5 732.5,-364.5 624.5,-364.5"/>
<text text-anchor="start" x="632.5" y="-420.5" font-family="Helvetica,sans-Serif" font-size="10.00" fill="#000000">std::unique_ptr&lt; MPI</text>
<text text-anchor="middle" x="678.5" y="-409.5" font-family="Helvetica,sans-Serif" font-size="10.00" fill="#000000">_Request &gt;</text>
<polyline fill="none" stroke="#bfbfbf" points="624.5,-402.5 732.5,-402.5 "/>
<text text-anchor="middle" x="678.5" y="-390.5" font-family="Helvetica,sans-Serif" font-size="10.00" fill="#000000"> </text>
<polyline fill="none" stroke="#bfbfbf" points="624.5,-383.5 732.5,-383.5 "/>
<text text-anchor="start" x="632.5" y="-371.5" font-family="Helvetica,sans-Serif" font-size="10.00" fill="#000000">+ operator&#45;&gt;()</text>
</g>
<!-- Node9&#45;&gt;Node13 -->
<g id="edge13" class="edge">
<title>Node9&#45;&gt;Node13</title>
<path fill="none" stroke="#404040" d="M486.9179,-496.9841C508.3872,-481.9383 536.0725,-463.9634 562.5,-451 581.6268,-441.6178 589.8977,-442.385 613.0107,-433.2441"/>
<polygon fill="none" stroke="#404040" points="613.2731,-433.1335 617.2471,-427.1162 624.3299,-428.4701 620.356,-434.4874 613.2731,-433.1335"/>
<text text-anchor="middle" x="573" y="-459.5" font-family="Helvetica,sans-Serif" font-size="10.00" fill="#000000"> +ptr</text>
</g>
<!-- Node10 -->
<g id="node9" class="node">
<title>Node10</title>
<g id="a_node9"><a xlink:title="STL class. ">
<polygon fill="#ffffff" stroke="#bfbfbf" points="882,-607.5 882,-664.5 969,-664.5 969,-607.5 882,-607.5"/>
<text text-anchor="middle" x="925.5" y="-652.5" font-family="Helvetica,sans-Serif" font-size="10.00" fill="#000000">std::vector&lt; T &gt;</text>
<polyline fill="none" stroke="#bfbfbf" points="882,-645.5 969,-645.5 "/>
<text text-anchor="middle" x="925.5" y="-633.5" font-family="Helvetica,sans-Serif" font-size="10.00" fill="#000000"> </text>
<polyline fill="none" stroke="#bfbfbf" points="882,-626.5 969,-626.5 "/>
<text text-anchor="middle" x="925.5" y="-614.5" font-family="Helvetica,sans-Serif" font-size="10.00" fill="#000000"> </text>
</a>
</g>
</g>
<!-- Node10&#45;&gt;Node8 -->
<g id="edge8" class="edge">
<title>Node10&#45;&gt;Node8</title>
<path fill="none" stroke="#ffa500" d="M871.9825,-625.4949C773.0099,-605.9599 570.8849,-565.5178 565.5,-560 560.8691,-555.2548 547.1307,-472.1502 539.9637,-427.0572"/>
<polygon fill="#ffa500" stroke="#ffa500" points="871.3144,-628.9304 881.8026,-627.4313 872.6687,-622.0627 871.3144,-628.9304"/>
<text text-anchor="middle" x="606.5" y="-523" font-family="Helvetica,sans-Serif" font-size="10.00" fill="#000000"> &lt; MPI_Request &gt;</text>
</g>
<!-- Node12 -->
<g id="node11" class="node">
<title>Node12</title>
<polygon fill="#ffffff" stroke="#bfbfbf" points="749.5,-221 749.5,-289 869.5,-289 869.5,-221 749.5,-221"/>
<text text-anchor="start" x="757.5" y="-277" font-family="Helvetica,sans-Serif" font-size="10.00" fill="#000000">std::vector&lt; std::unique</text>
<text text-anchor="middle" x="809.5" y="-266" font-family="Helvetica,sans-Serif" font-size="10.00" fill="#000000">_ptr&lt; MPI_Request &gt; &gt;</text>
<polyline fill="none" stroke="#bfbfbf" points="749.5,-259 869.5,-259 "/>
<text text-anchor="middle" x="809.5" y="-247" font-family="Helvetica,sans-Serif" font-size="10.00" fill="#000000"> </text>
<polyline fill="none" stroke="#bfbfbf" points="749.5,-240 869.5,-240 "/>
<text text-anchor="middle" x="809.5" y="-228" font-family="Helvetica,sans-Serif" font-size="10.00" fill="#000000"> </text>
</g>
<!-- Node10&#45;&gt;Node12 -->
<g id="edge16" class="edge">
<title>Node10&#45;&gt;Node12</title>
<path fill="none" stroke="#ffa500" d="M873.5401,-602.5346C858.6975,-590.7068 843.7791,-576.2501 833.5,-560 812.1788,-526.2936 816.6081,-512.5553 811.5,-473 803.1623,-408.4362 805.1256,-332.2213 807.3116,-289.1566"/>
<polygon fill="#ffa500" stroke="#ffa500" points="871.6833,-605.5214 881.7483,-608.8299 875.9433,-599.9669 871.6833,-605.5214"/>
<text text-anchor="start" x="811.5" y="-465" font-family="Helvetica,sans-Serif" font-size="10.00" fill="#000000"> &lt; std::unique_ptr&lt;</text>
<text text-anchor="middle" x="853" y="-454" font-family="Helvetica,sans-Serif" font-size="10.00" fill="#000000"> MPI_Request &gt; &gt;</text>
</g>
<!-- Node19 -->
<g id="node18" class="node">
<title>Node19</title>
<polygon fill="#ffffff" stroke="#bfbfbf" points="894.5,-221 894.5,-289 1030.5,-289 1030.5,-221 894.5,-221"/>
<text text-anchor="start" x="902.5" y="-277" font-family="Helvetica,sans-Serif" font-size="10.00" fill="#000000">std::vector&lt; std::unique</text>
<text text-anchor="middle" x="962.5" y="-266" font-family="Helvetica,sans-Serif" font-size="10.00" fill="#000000">_ptr&lt; std::vector&lt; T2 &gt; &gt; &gt;</text>
<polyline fill="none" stroke="#bfbfbf" points="894.5,-259 1030.5,-259 "/>
<text text-anchor="middle" x="962.5" y="-247" font-family="Helvetica,sans-Serif" font-size="10.00" fill="#000000"> </text>
<polyline fill="none" stroke="#bfbfbf" points="894.5,-240 1030.5,-240 "/>
<text text-anchor="middle" x="962.5" y="-228" font-family="Helvetica,sans-Serif" font-size="10.00" fill="#000000"> </text>
</g>
<!-- Node10&#45;&gt;Node19 -->
<g id="edge27" class="edge">
<title>Node10&#45;&gt;Node19</title>
<path fill="none" stroke="#ffa500" d="M939.442,-597.684C940.2259,-594.7689 940.9264,-591.852 941.5,-589 944.0476,-576.3342 942.6539,-572.8918 943.5,-560 949.9451,-461.796 957.0259,-345.7682 960.4372,-289.31"/>
<polygon fill="#ffa500" stroke="#ffa500" points="936.0211,-596.9083 936.5184,-607.4915 942.7294,-598.9081 936.0211,-596.9083"/>
<text text-anchor="start" x="950.5" y="-465" font-family="Helvetica,sans-Serif" font-size="10.00" fill="#000000"> &lt; std::unique_ptr&lt;</text>
<text text-anchor="middle" x="999" y="-454" font-family="Helvetica,sans-Serif" font-size="10.00" fill="#000000"> std::vector&lt; T2 &gt; &gt; &gt;</text>
</g>
<!-- Node21 -->
<g id="node20" class="node">
<title>Node21</title>
<polygon fill="#ffffff" stroke="#bfbfbf" points="842.5,-497 842.5,-554 934.5,-554 934.5,-497 842.5,-497"/>
<text text-anchor="middle" x="888.5" y="-542" font-family="Helvetica,sans-Serif" font-size="10.00" fill="#000000">std::vector&lt; T2 &gt;</text>
<polyline fill="none" stroke="#bfbfbf" points="842.5,-535 934.5,-535 "/>
<text text-anchor="middle" x="888.5" y="-523" font-family="Helvetica,sans-Serif" font-size="10.00" fill="#000000"> </text>
<polyline fill="none" stroke="#bfbfbf" points="842.5,-516 934.5,-516 "/>
<text text-anchor="middle" x="888.5" y="-504" font-family="Helvetica,sans-Serif" font-size="10.00" fill="#000000"> </text>
</g>
<!-- Node10&#45;&gt;Node21 -->
<g id="edge25" class="edge">
<title>Node10&#45;&gt;Node21</title>
<path fill="none" stroke="#ffa500" d="M911.5303,-597.7955C910.4902,-594.8245 909.4694,-591.8667 908.5,-589 904.6493,-577.613 900.6265,-564.9979 897.207,-554.0319"/>
<polygon fill="#ffa500" stroke="#ffa500" points="908.2369,-598.9803 914.8795,-607.2342 914.8339,-596.6395 908.2369,-598.9803"/>
<text text-anchor="middle" x="925" y="-581" font-family="Helvetica,sans-Serif" font-size="10.00" fill="#000000"> &lt; T2 &gt;</text>
</g>
<!-- Node23 -->
<g id="node22" class="node">
<title>Node23</title>
<polygon fill="#ffffff" stroke="#bfbfbf" points="991,-491.5 991,-559.5 1110,-559.5 1110,-491.5 991,-491.5"/>
<text text-anchor="start" x="999" y="-547.5" font-family="Helvetica,sans-Serif" font-size="10.00" fill="#000000">std::vector&lt; std::vector</text>
<text text-anchor="middle" x="1050.5" y="-536.5" font-family="Helvetica,sans-Serif" font-size="10.00" fill="#000000">&lt; T1 &gt; &gt;</text>
<polyline fill="none" stroke="#bfbfbf" points="991,-529.5 1110,-529.5 "/>
<text text-anchor="middle" x="1050.5" y="-517.5" font-family="Helvetica,sans-Serif" font-size="10.00" fill="#000000"> </text>
<polyline fill="none" stroke="#bfbfbf" points="991,-510.5 1110,-510.5 "/>
<text text-anchor="middle" x="1050.5" y="-498.5" font-family="Helvetica,sans-Serif" font-size="10.00" fill="#000000"> </text>
</g>
<!-- Node10&#45;&gt;Node23 -->
<g id="edge30" class="edge">
<title>Node10&#45;&gt;Node23</title>
<path fill="none" stroke="#ffa500" d="M964.3685,-600.4857C972.6295,-593.0191 981.3253,-585.2199 989.5,-578 996.3073,-571.9879 1003.5903,-565.6442 1010.6686,-559.5249"/>
<polygon fill="#ffa500" stroke="#ffa500" points="961.9928,-597.9152 956.9316,-607.223 966.6925,-603.1029 961.9928,-597.9152"/>
<text text-anchor="middle" x="1038" y="-581" font-family="Helvetica,sans-Serif" font-size="10.00" fill="#000000"> &lt; std::vector&lt; T1 &gt; &gt;</text>
</g>
<!-- Node25 -->
<g id="node24" class="node">
<title>Node25</title>
<polygon fill="#ffffff" stroke="#bfbfbf" points="1128,-491.5 1128,-559.5 1239,-559.5 1239,-491.5 1128,-491.5"/>
<text text-anchor="start" x="1136" y="-547.5" font-family="Helvetica,sans-Serif" font-size="10.00" fill="#000000">std::vector&lt; unsigned</text>
<text text-anchor="middle" x="1183.5" y="-536.5" font-family="Helvetica,sans-Serif" font-size="10.00" fill="#000000"> int &gt;</text>
<polyline fill="none" stroke="#bfbfbf" points="1128,-529.5 1239,-529.5 "/>
<text text-anchor="middle" x="1183.5" y="-517.5" font-family="Helvetica,sans-Serif" font-size="10.00" fill="#000000"> </text>
<polyline fill="none" stroke="#bfbfbf" points="1128,-510.5 1239,-510.5 "/>
<text text-anchor="middle" x="1183.5" y="-498.5" font-family="Helvetica,sans-Serif" font-size="10.00" fill="#000000"> </text>
</g>
<!-- Node10&#45;&gt;Node25 -->
<g id="edge33" class="edge">
<title>Node10&#45;&gt;Node25</title>
<path fill="none" stroke="#ffa500" d="M979.1751,-624.5532C1011.1804,-616.7041 1052.138,-604.8354 1086.5,-589 1091.8012,-586.557 1112.2145,-573.29 1132.956,-559.5098"/>
<polygon fill="#ffa500" stroke="#ffa500" points="978.0287,-621.2287 969.1181,-626.9604 979.6582,-628.0364 978.0287,-621.2287"/>
<text text-anchor="middle" x="1140.5" y="-581" font-family="Helvetica,sans-Serif" font-size="10.00" fill="#000000"> &lt; unsigned int &gt;</text>
</g>
<!-- Node27 -->
<g id="node26" class="node">
<title>Node27</title>
<polygon fill="#ffffff" stroke="#bfbfbf" points="1257,-491.5 1257,-559.5 1376,-559.5 1376,-491.5 1257,-491.5"/>
<text text-anchor="start" x="1265" y="-547.5" font-family="Helvetica,sans-Serif" font-size="10.00" fill="#000000">std::vector&lt; std::vector</text>
<text text-anchor="middle" x="1316.5" y="-536.5" font-family="Helvetica,sans-Serif" font-size="10.00" fill="#000000">&lt; T2 &gt; &gt;</text>
<polyline fill="none" stroke="#bfbfbf" points="1257,-529.5 1376,-529.5 "/>
<text text-anchor="middle" x="1316.5" y="-517.5" font-family="Helvetica,sans-Serif" font-size="10.00" fill="#000000"> </text>
<polyline fill="none" stroke="#bfbfbf" points="1257,-510.5 1376,-510.5 "/>
<text text-anchor="middle" x="1316.5" y="-498.5" font-family="Helvetica,sans-Serif" font-size="10.00" fill="#000000"> </text>
</g>
<!-- Node10&#45;&gt;Node27 -->
<g id="edge36" class="edge">
<title>Node10&#45;&gt;Node27</title>
<path fill="none" stroke="#ffa500" d="M978.9686,-629.8528C1063.7412,-619.8517 1221.8591,-600.0651 1245.5,-589 1260.4777,-581.9897 1274.5878,-570.7669 1286.2227,-559.6922"/>
<polygon fill="#ffa500" stroke="#ffa500" points="978.5315,-626.38 969.0081,-631.0227 979.3481,-633.3322 978.5315,-626.38"/>
<text text-anchor="middle" x="1312" y="-581" font-family="Helvetica,sans-Serif" font-size="10.00" fill="#000000"> &lt; std::vector&lt; T2 &gt; &gt;</text>
</g>
<!-- Node11 -->
<g id="node10" class="node">
<title>Node11</title>
<polygon fill="#ffffff" stroke="#bfbfbf" points="533,-712.5 533,-769.5 562,-769.5 562,-712.5 533,-712.5"/>
<text text-anchor="middle" x="547.5" y="-757.5" font-family="Helvetica,sans-Serif" font-size="10.00" fill="#000000">T</text>
<polyline fill="none" stroke="#bfbfbf" points="533,-750.5 562,-750.5 "/>
<text text-anchor="middle" x="547.5" y="-738.5" font-family="Helvetica,sans-Serif" font-size="10.00" fill="#000000"> </text>
<polyline fill="none" stroke="#bfbfbf" points="533,-731.5 562,-731.5 "/>
<text text-anchor="middle" x="547.5" y="-719.5" font-family="Helvetica,sans-Serif" font-size="10.00" fill="#000000"> </text>
</g>
<!-- Node11&#45;&gt;Node10 -->
<g id="edge9" class="edge">
<title>Node11&#45;&gt;Node10</title>
<path fill="none" stroke="#404040" d="M562.318,-736.8839C613.0822,-722.7827 781.7221,-675.9383 870.2087,-651.3587"/>
<polygon fill="none" stroke="#404040" points="870.3212,-651.3275 875.0317,-645.8675 881.8834,-648.1157 877.1729,-653.5757 870.3212,-651.3275"/>
<text text-anchor="middle" x="773" y="-686" font-family="Helvetica,sans-Serif" font-size="10.00" fill="#000000"> +elements</text>
</g>
<!-- Node14 -->
<g id="node13" class="node">
<title>Node14</title>
<g id="a_node13"><a xlink:title="STL class. ">
<polygon fill="#ffffff" stroke="#bfbfbf" points="657,-497 657,-554 762,-554 762,-497 657,-497"/>
<text text-anchor="middle" x="709.5" y="-542" font-family="Helvetica,sans-Serif" font-size="10.00" fill="#000000">std::unique_ptr&lt; T &gt;</text>
<polyline fill="none" stroke="#bfbfbf" points="657,-535 762,-535 "/>
<text text-anchor="middle" x="709.5" y="-523" font-family="Helvetica,sans-Serif" font-size="10.00" fill="#000000"> </text>
<polyline fill="none" stroke="#bfbfbf" points="657,-516 762,-516 "/>
<text text-anchor="start" x="665" y="-504" font-family="Helvetica,sans-Serif" font-size="10.00" fill="#000000">+ operator&#45;&gt;()</text>
</a>
</g>
</g>
<!-- Node11&#45;&gt;Node14 -->
<g id="edge15" class="edge">
<title>Node11&#45;&gt;Node14</title>
<path fill="none" stroke="#404040" d="M562.1621,-721.4957C588.865,-685.9744 645.8708,-610.1426 680.6236,-563.9127"/>
<polygon fill="none" stroke="#404040" points="680.6827,-563.8341 681.0907,-556.6345 687.8934,-554.2421 687.4854,-561.4416 680.6827,-563.8341"/>
<text text-anchor="middle" x="658" y="-633.5" font-family="Helvetica,sans-Serif" font-size="10.00" fill="#000000"> +ptr</text>
</g>
<!-- Node12&#45;&gt;Node2 -->
<g id="edge11" class="edge">
<title>Node12&#45;&gt;Node2</title>
<path fill="none" stroke="#404040" d="M837.6339,-220.9398C849.5273,-206.6634 863.59,-189.9423 876.5,-175 879.1042,-171.9859 881.7606,-168.9258 884.4497,-165.8407"/>
<polygon fill="none" stroke="#404040" points="884.6932,-165.5623 885.6334,-158.4128 892.5946,-156.5308 891.6544,-163.6804 884.6932,-165.5623"/>
<text text-anchor="middle" x="917.5" y="-178" font-family="Helvetica,sans-Serif" font-size="10.00" fill="#000000"> &#45;request_requests</text>
</g>
<!-- Node13&#45;&gt;Node12 -->
<g id="edge12" class="edge">
<title>Node13&#45;&gt;Node12</title>
<path fill="none" stroke="#404040" d="M709.5452,-364.4925C727.6039,-344.7106 750.5475,-319.5777 769.8971,-298.3818"/>
<polygon fill="none" stroke="#404040" points="770.1332,-298.1232 771.2242,-290.9951 778.2237,-289.2607 777.1326,-296.3888 770.1332,-298.1232"/>
<text text-anchor="middle" x="769" y="-332.5" font-family="Helvetica,sans-Serif" font-size="10.00" fill="#000000"> +elements</text>
</g>
<!-- Node14&#45;&gt;Node13 -->
<g id="edge14" class="edge">
<title>Node14&#45;&gt;Node13</title>
<path fill="none" stroke="#ffa500" d="M647.3762,-493.1331C645.7399,-492.4026 644.1125,-491.6901 642.5,-491 620.0159,-481.3776 604.6857,-492.922 590.5,-473 584.8285,-465.0351 585.6718,-459.5026 590.5,-451 592.762,-447.0165 607.4493,-437.7398 624.1972,-428.074"/>
<polygon fill="#ffa500" stroke="#ffa500" points="646.2568,-496.4713 656.8029,-497.4856 649.1912,-490.116 646.2568,-496.4713"/>
<text text-anchor="middle" x="631.5" y="-459.5" font-family="Helvetica,sans-Serif" font-size="10.00" fill="#000000"> &lt; MPI_Request &gt;</text>
</g>
<!-- Node20 -->
<g id="node19" class="node">
<title>Node20</title>
<polygon fill="#ffffff" stroke="#bfbfbf" points="837.5,-364.5 837.5,-432.5 941.5,-432.5 941.5,-364.5 837.5,-364.5"/>
<text text-anchor="start" x="845.5" y="-420.5" font-family="Helvetica,sans-Serif" font-size="10.00" fill="#000000">std::unique_ptr&lt; std</text>
<text text-anchor="middle" x="889.5" y="-409.5" font-family="Helvetica,sans-Serif" font-size="10.00" fill="#000000">::vector&lt; T2 &gt; &gt;</text>
<polyline fill="none" stroke="#bfbfbf" points="837.5,-402.5 941.5,-402.5 "/>
<text text-anchor="middle" x="889.5" y="-390.5" font-family="Helvetica,sans-Serif" font-size="10.00" fill="#000000"> </text>
<polyline fill="none" stroke="#bfbfbf" points="837.5,-383.5 941.5,-383.5 "/>
<text text-anchor="start" x="845.5" y="-371.5" font-family="Helvetica,sans-Serif" font-size="10.00" fill="#000000">+ operator&#45;&gt;()</text>
</g>
<!-- Node14&#45;&gt;Node20 -->
<g id="edge26" class="edge">
<title>Node14&#45;&gt;Node20</title>
<path fill="none" stroke="#ffa500" d="M691.111,-487.0381C687.8752,-474.5174 687.6739,-461.2255 695.5,-451 699.9335,-445.2073 781.3785,-424.5751 837.3163,-410.9658"/>
<polygon fill="#ffa500" stroke="#ffa500" points="687.8694,-488.3911 694.2611,-496.8407 694.5337,-486.2494 687.8694,-488.3911"/>
<text text-anchor="middle" x="744" y="-459.5" font-family="Helvetica,sans-Serif" font-size="10.00" fill="#000000"> &lt; std::vector&lt; T2 &gt; &gt;</text>
</g>
<!-- Node15 -->
<g id="node14" class="node">
<title>Node15</title>
<polygon fill="#ffffff" stroke="#bfbfbf" points="1319.5,-221 1319.5,-289 1417.5,-289 1417.5,-221 1319.5,-221"/>
<text text-anchor="start" x="1327.5" y="-277" font-family="Helvetica,sans-Serif" font-size="10.00" fill="#000000">std::set&lt; unsigned</text>
<text text-anchor="middle" x="1368.5" y="-266" font-family="Helvetica,sans-Serif" font-size="10.00" fill="#000000"> int &gt;</text>
<polyline fill="none" stroke="#bfbfbf" points="1319.5,-259 1417.5,-259 "/>
<text text-anchor="middle" x="1368.5" y="-247" font-family="Helvetica,sans-Serif" font-size="10.00" fill="#000000"> </text>
<polyline fill="none" stroke="#bfbfbf" points="1319.5,-240 1417.5,-240 "/>
<text text-anchor="middle" x="1368.5" y="-228" font-family="Helvetica,sans-Serif" font-size="10.00" fill="#000000"> </text>
</g>
<!-- Node15&#45;&gt;Node2 -->
<g id="edge17" class="edge">
<title>Node15&#45;&gt;Node2</title>
<path fill="none" stroke="#404040" d="M1338.2448,-220.785C1322.6558,-204.9367 1302.5286,-187.002 1281.5,-175 1214.2053,-136.5919 1130.0241,-111.9605 1065.0377,-97.2025"/>
<polygon fill="none" stroke="#404040" points="1064.85,-97.161 1058.1258,-99.7658 1053.1351,-94.5607 1059.8593,-91.9559 1064.85,-97.161"/>
<text text-anchor="middle" x="1349.5" y="-178" font-family="Helvetica,sans-Serif" font-size="10.00" fill="#000000"> &#45;requesting_processes</text>
</g>
<!-- Node16 -->
<g id="node15" class="node">
<title>Node16</title>
<g id="a_node15"><a xlink:href="classint.html" target="_top" xlink:title="{int\n||}">
<polygon fill="#ffffff" stroke="#000000" points="1451,-370 1451,-427 1480,-427 1480,-370 1451,-370"/>
<text text-anchor="middle" x="1465.5" y="-415" font-family="Helvetica,sans-Serif" font-size="10.00" fill="#000000">int</text>
<polyline fill="none" stroke="#000000" points="1451,-408 1480,-408 "/>
<text text-anchor="middle" x="1465.5" y="-396" font-family="Helvetica,sans-Serif" font-size="10.00" fill="#000000"> </text>
<polyline fill="none" stroke="#000000" points="1451,-389 1480,-389 "/>
<text text-anchor="middle" x="1465.5" y="-377" font-family="Helvetica,sans-Serif" font-size="10.00" fill="#000000"> </text>
</a>
</g>
</g>
<!-- Node16&#45;&gt;Node15 -->
<g id="edge18" class="edge">
<title>Node16&#45;&gt;Node15</title>
<path fill="none" stroke="#404040" d="M1460.7965,-369.7528C1457.5145,-355.252 1452.1278,-337.8509 1443.5,-324 1437.6607,-314.6256 1430.2098,-305.7204 1422.2805,-297.6129"/>
<polygon fill="none" stroke="#404040" points="1422.1594,-297.4955 1415.067,-296.1922 1413.5423,-289.1441 1420.6346,-290.4474 1422.1594,-297.4955"/>
<text text-anchor="middle" x="1469" y="-332.5" font-family="Helvetica,sans-Serif" font-size="10.00" fill="#000000"> +keys</text>
</g>
<!-- Node17 -->
<g id="node16" class="node">
<title>Node17</title>
<g id="a_node16"><a xlink:title="STL class. ">
<polygon fill="#ffffff" stroke="#bfbfbf" points="1344.5,-370 1344.5,-427 1418.5,-427 1418.5,-370 1344.5,-370"/>
<text text-anchor="middle" x="1381.5" y="-415" font-family="Helvetica,sans-Serif" font-size="10.00" fill="#000000">std::set&lt; K &gt;</text>
<polyline fill="none" stroke="#bfbfbf" points="1344.5,-408 1418.5,-408 "/>
<text text-anchor="middle" x="1381.5" y="-396" font-family="Helvetica,sans-Serif" font-size="10.00" fill="#000000"> </text>
<polyline fill="none" stroke="#bfbfbf" points="1344.5,-389 1418.5,-389 "/>
<text text-anchor="middle" x="1381.5" y="-377" font-family="Helvetica,sans-Serif" font-size="10.00" fill="#000000"> </text>
</a>
</g>
</g>
<!-- Node17&#45;&gt;Node15 -->
<g id="edge19" class="edge">
<title>Node17&#45;&gt;Node15</title>
<path fill="none" stroke="#ffa500" d="M1371.6832,-359.8324C1370.797,-355.1964 1370.0339,-350.5089 1369.5,-346 1367.2894,-327.3289 1366.9179,-306.3529 1367.1533,-289.2492"/>
<polygon fill="#ffa500" stroke="#ffa500" points="1368.298,-360.7429 1373.7786,-369.8101 1375.1485,-359.3042 1368.298,-360.7429"/>
<text text-anchor="middle" x="1406.5" y="-332.5" font-family="Helvetica,sans-Serif" font-size="10.00" fill="#000000"> &lt; unsigned int &gt;</text>
</g>
<!-- Node18 -->
<g id="node17" class="node">
<title>Node18</title>
<polygon fill="#ffffff" stroke="#bfbfbf" points="1394,-497 1394,-554 1423,-554 1423,-497 1394,-497"/>
<text text-anchor="middle" x="1408.5" y="-542" font-family="Helvetica,sans-Serif" font-size="10.00" fill="#000000">K</text>
<polyline fill="none" stroke="#bfbfbf" points="1394,-535 1423,-535 "/>
<text text-anchor="middle" x="1408.5" y="-523" font-family="Helvetica,sans-Serif" font-size="10.00" fill="#000000"> </text>
<polyline fill="none" stroke="#bfbfbf" points="1394,-516 1423,-516 "/>
<text text-anchor="middle" x="1408.5" y="-504" font-family="Helvetica,sans-Serif" font-size="10.00" fill="#000000"> </text>
</g>
<!-- Node18&#45;&gt;Node17 -->
<g id="edge20" class="edge">
<title>Node18&#45;&gt;Node17</title>
<path fill="none" stroke="#404040" d="M1402.4407,-496.9987C1398.8185,-479.9611 1394.1571,-458.0351 1390.1521,-439.1968"/>
<polygon fill="none" stroke="#404040" points="1390.128,-439.0832 1384.9677,-434.0462 1387.6325,-427.3456 1392.7928,-432.3826 1390.128,-439.0832"/>
<text text-anchor="middle" x="1413" y="-459.5" font-family="Helvetica,sans-Serif" font-size="10.00" fill="#000000"> +keys</text>
</g>
<!-- Node19&#45;&gt;Node2 -->
<g id="edge21" class="edge">
<title>Node19&#45;&gt;Node2</title>
<path fill="none" stroke="#404040" d="M962.5,-220.969C962.5,-205.9313 962.5,-187.4642 962.5,-168.8716"/>
<polygon fill="none" stroke="#404040" points="962.5001,-168.6702 958.5,-162.6702 962.5,-156.6702 966.5,-162.6702 962.5001,-168.6702"/>
<text text-anchor="middle" x="999.5" y="-178" font-family="Helvetica,sans-Serif" font-size="10.00" fill="#000000"> &#45;request_buffers</text>
</g>
<!-- Node20&#45;&gt;Node19 -->
<g id="edge22" class="edge">
<title>Node20&#45;&gt;Node19</title>
<path fill="none" stroke="#404040" d="M893.9023,-364.3904C896.4472,-351.308 900.4027,-336.5245 906.5,-324 910.7729,-315.223 916.3546,-306.5696 922.3371,-298.5148"/>
<polygon fill="none" stroke="#404040" points="922.3744,-298.4671 922.9238,-291.2769 929.7722,-289.0185 929.2228,-296.2087 922.3744,-298.4671"/>
<text text-anchor="middle" x="931" y="-332.5" font-family="Helvetica,sans-Serif" font-size="10.00" fill="#000000"> +elements</text>
</g>
<!-- Node21&#45;&gt;Node20 -->
<g id="edge23" class="edge">
<title>Node21&#45;&gt;Node20</title>
<path fill="none" stroke="#404040" d="M894.9847,-496.7561C896.4392,-489.0792 897.7676,-480.7594 898.5,-473 899.3683,-463.8011 899.0647,-453.9813 898.1719,-444.5905"/>
<polygon fill="none" stroke="#404040" points="898.1601,-444.4926 893.4634,-439.0208 896.7079,-432.5808 901.4046,-438.0526 898.1601,-444.4926"/>
<text text-anchor="middle" x="910" y="-459.5" font-family="Helvetica,sans-Serif" font-size="10.00" fill="#000000"> +ptr</text>
</g>
<!-- Node22 -->
<g id="node21" class="node">
<title>Node22</title>
<polygon fill="#ffffff" stroke="#bfbfbf" points="736,-607.5 736,-664.5 765,-664.5 765,-607.5 736,-607.5"/>
<text text-anchor="middle" x="750.5" y="-652.5" font-family="Helvetica,sans-Serif" font-size="10.00" fill="#000000">T2</text>
<polyline fill="none" stroke="#bfbfbf" points="736,-645.5 765,-645.5 "/>
<text text-anchor="middle" x="750.5" y="-633.5" font-family="Helvetica,sans-Serif" font-size="10.00" fill="#000000"> </text>
<polyline fill="none" stroke="#bfbfbf" points="736,-626.5 765,-626.5 "/>
<text text-anchor="middle" x="750.5" y="-614.5" font-family="Helvetica,sans-Serif" font-size="10.00" fill="#000000"> </text>
</g>
<!-- Node22&#45;&gt;Node21 -->
<g id="edge24" class="edge">
<title>Node22&#45;&gt;Node21</title>
<path fill="none" stroke="#404040" d="M765.0076,-624.3834C783.374,-609.677 815.8827,-583.6465 842.9365,-561.9838"/>
<polygon fill="none" stroke="#404040" points="843.2535,-561.73 845.4369,-554.8574 852.6206,-554.2295 850.4372,-561.1021 843.2535,-561.73"/>
<text text-anchor="middle" x="844" y="-581" font-family="Helvetica,sans-Serif" font-size="10.00" fill="#000000"> +elements</text>
</g>
<!-- Node23&#45;&gt;Node2 -->
<g id="edge28" class="edge">
<title>Node23&#45;&gt;Node2</title>
<path fill="none" stroke="#404040" d="M1056.6536,-491.2462C1066.7014,-426.8545 1081.6528,-284.3965 1040.5,-175 1039.5448,-172.4608 1038.4948,-169.9379 1037.3617,-167.4358"/>
<polygon fill="none" stroke="#404040" points="1037.3056,-167.3247 1031.0306,-163.7717 1031.8968,-156.6128 1038.1719,-160.1658 1037.3056,-167.3247"/>
<text text-anchor="middle" x="1100" y="-332.5" font-family="Helvetica,sans-Serif" font-size="10.00" fill="#000000"> &#45;send_buffers</text>
</g>
<!-- Node24 -->
<g id="node23" class="node">
<title>Node24</title>
<polygon fill="#ffffff" stroke="#bfbfbf" points="1169,-607.5 1169,-664.5 1242,-664.5 1242,-607.5 1169,-607.5"/>
<text text-anchor="middle" x="1205.5" y="-652.5" font-family="Helvetica,sans-Serif" font-size="10.00" fill="#000000">vector&lt; T1 &gt;</text>
<polyline fill="none" stroke="#bfbfbf" points="1169,-645.5 1242,-645.5 "/>
<text text-anchor="middle" x="1205.5" y="-633.5" font-family="Helvetica,sans-Serif" font-size="10.00" fill="#000000"> </text>
<polyline fill="none" stroke="#bfbfbf" points="1169,-626.5 1242,-626.5 "/>
<text text-anchor="middle" x="1205.5" y="-614.5" font-family="Helvetica,sans-Serif" font-size="10.00" fill="#000000"> </text>
</g>
<!-- Node24&#45;&gt;Node23 -->
<g id="edge29" class="edge">
<title>Node24&#45;&gt;Node23</title>
<path fill="none" stroke="#404040" d="M1200.2893,-607.2192C1197.0593,-596.7443 1191.8567,-585.6182 1183.5,-578 1163.8569,-560.0928 1149.9178,-568.3094 1121.7899,-560.5044"/>
<polygon fill="none" stroke="#404040" points="1121.6502,-560.4576 1114.6895,-562.3415 1110.2733,-556.6408 1117.234,-554.7569 1121.6502,-560.4576"/>
<text text-anchor="middle" x="1217" y="-581" font-family="Helvetica,sans-Serif" font-size="10.00" fill="#000000"> +elements</text>
</g>
<!-- Node25&#45;&gt;Node2 -->
<g id="edge31" class="edge">
<title>Node25&#45;&gt;Node2</title>
<path fill="none" stroke="#404040" d="M1178.0283,-491.2192C1170.9183,-450.4946 1156.8327,-380.9079 1135.5,-324 1109.1901,-253.8148 1101.1554,-235.2002 1056.5,-175 1054.3065,-172.0429 1052.0273,-169.0846 1049.6813,-166.1365"/>
<polygon fill="none" stroke="#404040" points="1049.6029,-166.041 1042.7032,-163.9446 1041.9846,-156.7693 1048.8843,-158.8657 1049.6029,-166.041"/>
<text text-anchor="middle" x="1162" y="-332.5" font-family="Helvetica,sans-Serif" font-size="10.00" fill="#000000"> &#45;targets</text>
</g>
<!-- Node26 -->
<g id="node25" class="node">
<title>Node26</title>
<g id="a_node25"><a xlink:href="classunsigned_01int.html" target="_top" xlink:title="{unsigned int\n||}">
<polygon fill="#ffffff" stroke="#000000" points="1363,-607.5 1363,-664.5 1432,-664.5 1432,-607.5 1363,-607.5"/>
<text text-anchor="middle" x="1397.5" y="-652.5" font-family="Helvetica,sans-Serif" font-size="10.00" fill="#000000">unsigned int</text>
<polyline fill="none" stroke="#000000" points="1363,-645.5 1432,-645.5 "/>
<text text-anchor="middle" x="1397.5" y="-633.5" font-family="Helvetica,sans-Serif" font-size="10.00" fill="#000000"> </text>
<polyline fill="none" stroke="#000000" points="1363,-626.5 1432,-626.5 "/>
<text text-anchor="middle" x="1397.5" y="-614.5" font-family="Helvetica,sans-Serif" font-size="10.00" fill="#000000"> </text>
</a>
</g>
</g>
<!-- Node26&#45;&gt;Node25 -->
<g id="edge32" class="edge">
<title>Node26&#45;&gt;Node25</title>
<path fill="none" stroke="#404040" d="M1392.9675,-607.2361C1389.8242,-596.5041 1384.5037,-585.1917 1375.5,-578 1333.506,-544.4571 1305.8306,-573.5981 1250.9348,-560.3428"/>
<polygon fill="none" stroke="#404040" points="1250.7204,-560.2813 1243.8487,-562.4675 1239.1877,-556.9652 1246.0594,-554.779 1250.7204,-560.2813"/>
<text text-anchor="middle" x="1409" y="-581" font-family="Helvetica,sans-Serif" font-size="10.00" fill="#000000"> +elements</text>
</g>
<!-- Node27&#45;&gt;Node2 -->
<g id="edge34" class="edge">
<title>Node27&#45;&gt;Node2</title>
<path fill="none" stroke="#404040" d="M1300.0794,-491.0717C1269.6297,-429.3501 1199.9476,-297.5841 1117.5,-204 1101.174,-185.4688 1081.9127,-167.5213 1062.6192,-151.2708"/>
<polygon fill="none" stroke="#404040" points="1062.3997,-151.089 1055.2274,-150.3424 1053.158,-143.4345 1060.3304,-144.1812 1062.3997,-151.089"/>
<text text-anchor="middle" x="1251" y="-332.5" font-family="Helvetica,sans-Serif" font-size="10.00" fill="#000000"> &#45;recv_buffers</text>
</g>
<!-- Node28 -->
<g id="node27" class="node">
<title>Node28</title>
<polygon fill="#ffffff" stroke="#bfbfbf" points="1450,-607.5 1450,-664.5 1523,-664.5 1523,-607.5 1450,-607.5"/>
<text text-anchor="middle" x="1486.5" y="-652.5" font-family="Helvetica,sans-Serif" font-size="10.00" fill="#000000">vector&lt; T2 &gt;</text>
<polyline fill="none" stroke="#bfbfbf" points="1450,-645.5 1523,-645.5 "/>
<text text-anchor="middle" x="1486.5" y="-633.5" font-family="Helvetica,sans-Serif" font-size="10.00" fill="#000000"> </text>
<polyline fill="none" stroke="#bfbfbf" points="1450,-626.5 1523,-626.5 "/>
<text text-anchor="middle" x="1486.5" y="-614.5" font-family="Helvetica,sans-Serif" font-size="10.00" fill="#000000"> </text>
</g>
<!-- Node28&#45;&gt;Node27 -->
<g id="edge35" class="edge">
<title>Node28&#45;&gt;Node27</title>
<path fill="none" stroke="#404040" d="M1474.2774,-607.3322C1468.4735,-596.7449 1460.5705,-585.5101 1450.5,-578 1428.8877,-561.8826 1416.0164,-568.7932 1387.8585,-560.6092"/>
<polygon fill="none" stroke="#404040" points="1387.6252,-560.5296 1380.6548,-562.3775 1376.2682,-556.6541 1383.2385,-554.8062 1387.6252,-560.5296"/>
<text text-anchor="middle" x="1485" y="-581" font-family="Helvetica,sans-Serif" font-size="10.00" fill="#000000"> +elements</text>
</g>
</g>
</svg>
