<?xml version="1.0" encoding="UTF-8" standalone="no"?>
<!DOCTYPE svg PUBLIC "-//W3C//DTD SVG 1.1//EN"
 "http://www.w3.org/Graphics/SVG/1.1/DTD/svg11.dtd">
<!-- Generated by graphviz version 2.40.1 (20161225.0304)
 -->
<!-- Title: DesignPattern::Visitor::ConcreteVisitor2 Pages: 1 -->
<svg width="156pt" height="204pt"
 viewBox="0.00 0.00 156.00 204.00" xmlns="http://www.w3.org/2000/svg" xmlns:xlink="http://www.w3.org/1999/xlink">
<g id="graph0" class="graph" transform="scale(1 1) rotate(0) translate(4 200)">
<title>DesignPattern::Visitor::ConcreteVisitor2</title>
<polygon fill="#ffffff" stroke="transparent" points="-4,4 -4,-200 152,-200 152,4 -4,4"/>
<!-- Node2 -->
<g id="node1" class="node">
<title>Node2</title>
<polygon fill="#bfbfbf" stroke="#000000" points="0,-.5 0,-79.5 148,-79.5 148,-.5 0,-.5"/>
<text text-anchor="start" x="8" y="-67.5" font-family="Helvetica,sans-Serif" font-size="10.00" fill="#000000">DesignPattern::Visitor</text>
<text text-anchor="middle" x="74" y="-56.5" font-family="Helvetica,sans-Serif" font-size="10.00" fill="#000000">::ConcreteVisitor2</text>
<polyline fill="none" stroke="#000000" points="0,-49.5 148,-49.5 "/>
<text text-anchor="middle" x="74" y="-37.5" font-family="Helvetica,sans-Serif" font-size="10.00" fill="#000000"> </text>
<polyline fill="none" stroke="#000000" points="0,-30.5 148,-30.5 "/>
<text text-anchor="start" x="8" y="-18.5" font-family="Helvetica,sans-Serif" font-size="10.00" fill="#000000">+ VisitConcreteComponentA()</text>
<text text-anchor="start" x="8" y="-7.5" font-family="Helvetica,sans-Serif" font-size="10.00" fill="#000000">+ VisitConcreteComponentB()</text>
</g>
<!-- Node3 -->
<g id="node2" class="node">
<title>Node3</title>
<g id="a_node2"><a xlink:href="classDesignPattern_1_1Visitor_1_1Visitor.html" target="_top" xlink:title="{DesignPattern::Visitor\l::Visitor\n||+ VisitConcreteComponentA()\l+ VisitConcreteComponentB()\l}">
<polygon fill="#ffffff" stroke="#000000" points="0,-116.5 0,-195.5 148,-195.5 148,-116.5 0,-116.5"/>
<text text-anchor="start" x="8" y="-183.5" font-family="Helvetica,sans-Serif" font-size="10.00" fill="#000000">DesignPattern::Visitor</text>
<text text-anchor="middle" x="74" y="-172.5" font-family="Helvetica,sans-Serif" font-size="10.00" fill="#000000">::Visitor</text>
<polyline fill="none" stroke="#000000" points="0,-165.5 148,-165.5 "/>
<text text-anchor="middle" x="74" y="-153.5" font-family="Helvetica,sans-Serif" font-size="10.00" fill="#000000"> </text>
<polyline fill="none" stroke="#000000" points="0,-146.5 148,-146.5 "/>
<text text-anchor="start" x="8" y="-134.5" font-family="Helvetica,sans-Serif" font-size="10.00" fill="#000000">+ VisitConcreteComponentA()</text>
<text text-anchor="start" x="8" y="-123.5" font-family="Helvetica,sans-Serif" font-size="10.00" fill="#000000">+ VisitConcreteComponentB()</text>
</a>
</g>
</g>
<!-- Node3&#45;&gt;Node2 -->
<g id="edge1" class="edge">
<title>Node3&#45;&gt;Node2</title>
<path fill="none" stroke="#191970" d="M74,-106.2163C74,-97.394 74,-88.3127 74,-79.8116"/>
<polygon fill="none" stroke="#191970" points="70.5001,-106.4038 74,-116.4038 77.5001,-106.4039 70.5001,-106.4038"/>
</g>
</g>
</svg>
