<?xml version="1.0" encoding="UTF-8" standalone="no"?>
<!DOCTYPE svg PUBLIC "-//W3C//DTD SVG 1.1//EN"
 "http://www.w3.org/Graphics/SVG/1.1/DTD/svg11.dtd">
<!-- Generated by graphviz version 2.40.1 (20161225.0304)
 -->
<!-- Title: Functions::SlitHyperSingularityFunction Pages: 1 -->
<svg width="1110pt" height="1427pt"
 viewBox="0.00 0.00 1110.00 1427.00" xmlns="http://www.w3.org/2000/svg" xmlns:xlink="http://www.w3.org/1999/xlink">
<g id="graph0" class="graph" transform="scale(1 1) rotate(0) translate(4 1423)">
<title>Functions::SlitHyperSingularityFunction</title>
<polygon fill="#ffffff" stroke="transparent" points="-4,4 -4,-1423 1106,-1423 1106,4 -4,4"/>
<!-- Node7 -->
<g id="node1" class="node">
<title>Node7</title>
<polygon fill="#bfbfbf" stroke="#000000" points="386,-.5 386,-145.5 538,-145.5 538,-.5 386,-.5"/>
<text text-anchor="start" x="394" y="-133.5" font-family="Helvetica,sans-Serif" font-size="10.00" fill="#000000">Functions::SlitHyperSingularity</text>
<text text-anchor="middle" x="462" y="-122.5" font-family="Helvetica,sans-Serif" font-size="10.00" fill="#000000">Function</text>
<polyline fill="none" stroke="#000000" points="386,-115.5 538,-115.5 "/>
<text text-anchor="middle" x="462" y="-103.5" font-family="Helvetica,sans-Serif" font-size="10.00" fill="#000000"> </text>
<polyline fill="none" stroke="#000000" points="386,-96.5 538,-96.5 "/>
<text text-anchor="start" x="394" y="-84.5" font-family="Helvetica,sans-Serif" font-size="10.00" fill="#000000">+ value()</text>
<text text-anchor="start" x="394" y="-73.5" font-family="Helvetica,sans-Serif" font-size="10.00" fill="#000000">+ value_list()</text>
<text text-anchor="start" x="394" y="-62.5" font-family="Helvetica,sans-Serif" font-size="10.00" fill="#000000">+ vector_value_list()</text>
<text text-anchor="start" x="394" y="-51.5" font-family="Helvetica,sans-Serif" font-size="10.00" fill="#000000">+ gradient()</text>
<text text-anchor="start" x="394" y="-40.5" font-family="Helvetica,sans-Serif" font-size="10.00" fill="#000000">+ gradient_list()</text>
<text text-anchor="start" x="394" y="-29.5" font-family="Helvetica,sans-Serif" font-size="10.00" fill="#000000">+ vector_gradient_list()</text>
<text text-anchor="start" x="394" y="-18.5" font-family="Helvetica,sans-Serif" font-size="10.00" fill="#000000">+ laplacian()</text>
<text text-anchor="start" x="394" y="-7.5" font-family="Helvetica,sans-Serif" font-size="10.00" fill="#000000">+ laplacian_list()</text>
</g>
<!-- Node8 -->
<g id="node2" class="node">
<title>Node8</title>
<g id="a_node2"><a xlink:href="classFunction.html" target="_top" xlink:title="{Function\&lt; 2 \&gt;\n||+ Function()\l+ Function()\l+ ~Function()\l+ operator=()\l+ value()\l+ vector_value()\l+ value_list()\l+ vector_value_list()\l+ vector_values()\l+ gradient()\land 13 more...\l}">
<polygon fill="#ffffff" stroke="#000000" points="409.5,-183.5 409.5,-350.5 514.5,-350.5 514.5,-183.5 409.5,-183.5"/>
<text text-anchor="middle" x="462" y="-338.5" font-family="Helvetica,sans-Serif" font-size="10.00" fill="#000000">Function&lt; 2 &gt;</text>
<polyline fill="none" stroke="#000000" points="409.5,-331.5 514.5,-331.5 "/>
<text text-anchor="middle" x="462" y="-319.5" font-family="Helvetica,sans-Serif" font-size="10.00" fill="#000000"> </text>
<polyline fill="none" stroke="#000000" points="409.5,-312.5 514.5,-312.5 "/>
<text text-anchor="start" x="417.5" y="-300.5" font-family="Helvetica,sans-Serif" font-size="10.00" fill="#000000">+ Function()</text>
<text text-anchor="start" x="417.5" y="-289.5" font-family="Helvetica,sans-Serif" font-size="10.00" fill="#000000">+ Function()</text>
<text text-anchor="start" x="417.5" y="-278.5" font-family="Helvetica,sans-Serif" font-size="10.00" fill="#000000">+ ~Function()</text>
<text text-anchor="start" x="417.5" y="-267.5" font-family="Helvetica,sans-Serif" font-size="10.00" fill="#000000">+ operator=()</text>
<text text-anchor="start" x="417.5" y="-256.5" font-family="Helvetica,sans-Serif" font-size="10.00" fill="#000000">+ value()</text>
<text text-anchor="start" x="417.5" y="-245.5" font-family="Helvetica,sans-Serif" font-size="10.00" fill="#000000">+ vector_value()</text>
<text text-anchor="start" x="417.5" y="-234.5" font-family="Helvetica,sans-Serif" font-size="10.00" fill="#000000">+ value_list()</text>
<text text-anchor="start" x="417.5" y="-223.5" font-family="Helvetica,sans-Serif" font-size="10.00" fill="#000000">+ vector_value_list()</text>
<text text-anchor="start" x="417.5" y="-212.5" font-family="Helvetica,sans-Serif" font-size="10.00" fill="#000000">+ vector_values()</text>
<text text-anchor="start" x="417.5" y="-201.5" font-family="Helvetica,sans-Serif" font-size="10.00" fill="#000000">+ gradient()</text>
<text text-anchor="start" x="417.5" y="-190.5" font-family="Helvetica,sans-Serif" font-size="10.00" fill="#000000">and 13 more...</text>
</a>
</g>
</g>
<!-- Node8&#45;&gt;Node7 -->
<g id="edge1" class="edge">
<title>Node8&#45;&gt;Node7</title>
<path fill="none" stroke="#191970" d="M462,-173.3013C462,-164.0401 462,-154.7387 462,-145.7354"/>
<polygon fill="none" stroke="#191970" points="458.5001,-173.3189 462,-183.3189 465.5001,-173.319 458.5001,-173.3189"/>
</g>
<!-- Node9 -->
<g id="node3" class="node">
<title>Node9</title>
<g id="a_node3"><a xlink:href="classFunctionTime.html" target="_top" xlink:title="{FunctionTime\&lt; numbers\l::NumberTraits\&lt; double\l \&gt;::real_type \&gt;\n||+ FunctionTime()\l+ ~FunctionTime()\l+ get_time()\l+ set_time()\l+ advance_time()\l}">
<polygon fill="#ffffff" stroke="#000000" points="0,-899.5 0,-1022.5 122,-1022.5 122,-899.5 0,-899.5"/>
<text text-anchor="start" x="8" y="-1010.5" font-family="Helvetica,sans-Serif" font-size="10.00" fill="#000000">FunctionTime&lt; numbers</text>
<text text-anchor="start" x="8" y="-999.5" font-family="Helvetica,sans-Serif" font-size="10.00" fill="#000000">::NumberTraits&lt; double</text>
<text text-anchor="middle" x="61" y="-988.5" font-family="Helvetica,sans-Serif" font-size="10.00" fill="#000000"> &gt;::real_type &gt;</text>
<polyline fill="none" stroke="#000000" points="0,-981.5 122,-981.5 "/>
<text text-anchor="middle" x="61" y="-969.5" font-family="Helvetica,sans-Serif" font-size="10.00" fill="#000000"> </text>
<polyline fill="none" stroke="#000000" points="0,-962.5 122,-962.5 "/>
<text text-anchor="start" x="8" y="-950.5" font-family="Helvetica,sans-Serif" font-size="10.00" fill="#000000">+ FunctionTime()</text>
<text text-anchor="start" x="8" y="-939.5" font-family="Helvetica,sans-Serif" font-size="10.00" fill="#000000">+ ~FunctionTime()</text>
<text text-anchor="start" x="8" y="-928.5" font-family="Helvetica,sans-Serif" font-size="10.00" fill="#000000">+ get_time()</text>
<text text-anchor="start" x="8" y="-917.5" font-family="Helvetica,sans-Serif" font-size="10.00" fill="#000000">+ set_time()</text>
<text text-anchor="start" x="8" y="-906.5" font-family="Helvetica,sans-Serif" font-size="10.00" fill="#000000">+ advance_time()</text>
</a>
</g>
</g>
<!-- Node9&#45;&gt;Node8 -->
<g id="edge2" class="edge">
<title>Node9&#45;&gt;Node8</title>
<path fill="none" stroke="#191970" d="M86.5276,-889.8006C113.4344,-818.0955 159.0651,-705.3151 211,-614 270.5475,-509.2999 355.2436,-398.1541 409.4136,-330.6478"/>
<polygon fill="none" stroke="#191970" points="83.2354,-888.6122 83.0178,-899.2048 89.7935,-891.0599 83.2354,-888.6122"/>
</g>
<!-- Node10 -->
<g id="node4" class="node">
<title>Node10</title>
<polygon fill="#ffffff" stroke="#bfbfbf" points="33.5,-1223.5 33.5,-1280.5 84.5,-1280.5 84.5,-1223.5 33.5,-1223.5"/>
<text text-anchor="middle" x="59" y="-1268.5" font-family="Helvetica,sans-Serif" font-size="10.00" fill="#000000">Number</text>
<polyline fill="none" stroke="#bfbfbf" points="33.5,-1261.5 84.5,-1261.5 "/>
<text text-anchor="middle" x="59" y="-1249.5" font-family="Helvetica,sans-Serif" font-size="10.00" fill="#000000"> </text>
<polyline fill="none" stroke="#bfbfbf" points="33.5,-1242.5 84.5,-1242.5 "/>
<text text-anchor="middle" x="59" y="-1230.5" font-family="Helvetica,sans-Serif" font-size="10.00" fill="#000000"> </text>
</g>
<!-- Node10&#45;&gt;Node9 -->
<g id="edge3" class="edge">
<title>Node10&#45;&gt;Node9</title>
<path fill="none" stroke="#404040" d="M59.1972,-1223.3014C59.4955,-1179.905 60.0711,-1096.1612 60.4919,-1034.933"/>
<polygon fill="none" stroke="#404040" points="60.4939,-1034.6192 56.5353,-1028.5918 60.5765,-1022.6194 64.5351,-1028.6468 60.4939,-1034.6192"/>
<text text-anchor="middle" x="72.5" y="-1169.5" font-family="Helvetica,sans-Serif" font-size="10.00" fill="#000000"> &#45;time</text>
</g>
<!-- Node31 -->
<g id="node24" class="node">
<title>Node31</title>
<g id="a_node24"><a xlink:href="classFunctionTime.html" target="_top" xlink:title="{FunctionTime\&lt; Number \&gt;\n||+ FunctionTime()\l+ ~FunctionTime()\l+ get_time()\l+ set_time()\l+ advance_time()\l}">
<polygon fill="#ffffff" stroke="#000000" points="85,-1041.5 85,-1142.5 213,-1142.5 213,-1041.5 85,-1041.5"/>
<text text-anchor="middle" x="149" y="-1130.5" font-family="Helvetica,sans-Serif" font-size="10.00" fill="#000000">FunctionTime&lt; Number &gt;</text>
<polyline fill="none" stroke="#000000" points="85,-1123.5 213,-1123.5 "/>
<text text-anchor="middle" x="149" y="-1111.5" font-family="Helvetica,sans-Serif" font-size="10.00" fill="#000000"> </text>
<polyline fill="none" stroke="#000000" points="85,-1104.5 213,-1104.5 "/>
<text text-anchor="start" x="93" y="-1092.5" font-family="Helvetica,sans-Serif" font-size="10.00" fill="#000000">+ FunctionTime()</text>
<text text-anchor="start" x="93" y="-1081.5" font-family="Helvetica,sans-Serif" font-size="10.00" fill="#000000">+ ~FunctionTime()</text>
<text text-anchor="start" x="93" y="-1070.5" font-family="Helvetica,sans-Serif" font-size="10.00" fill="#000000">+ get_time()</text>
<text text-anchor="start" x="93" y="-1059.5" font-family="Helvetica,sans-Serif" font-size="10.00" fill="#000000">+ set_time()</text>
<text text-anchor="start" x="93" y="-1048.5" font-family="Helvetica,sans-Serif" font-size="10.00" fill="#000000">+ advance_time()</text>
</a>
</g>
</g>
<!-- Node10&#45;&gt;Node31 -->
<g id="edge26" class="edge">
<title>Node10&#45;&gt;Node31</title>
<path fill="none" stroke="#404040" d="M75.0902,-1223.3952C86.057,-1203.8987 100.9964,-1177.3398 114.5743,-1153.2013"/>
<polygon fill="none" stroke="#404040" points="114.6122,-1153.1337 114.0675,-1145.9432 120.4954,-1142.6748 121.0401,-1149.8653 114.6122,-1153.1337"/>
<text text-anchor="middle" x="122.5" y="-1169.5" font-family="Helvetica,sans-Serif" font-size="10.00" fill="#000000"> &#45;time</text>
</g>
<!-- Node11 -->
<g id="node5" class="node">
<title>Node11</title>
<g id="a_node5"><a xlink:href="classSubscriptor.html" target="_top" xlink:title="{Subscriptor\n||+ Subscriptor()\l+ Subscriptor()\l+ Subscriptor()\l+ ~Subscriptor()\l+ operator=()\l+ operator=()\l+ serialize()\l+ subscribe()\l+ unsubscribe()\l+ n_subscriptions()\l+ list_subscribers()\l+ list_subscribers()\l+ ExcInUse()\l+ ExcNoSubscriber()\l&#45; check_no_subscribers()\l* subscribe()\l* unsubscribe()\l* n_subscriptions()\l* list_subscribers()\l* list_subscribers()\l}">
<polygon fill="#ffffff" stroke="#000000" points="685,-614.5 685,-880.5 811,-880.5 811,-614.5 685,-614.5"/>
<text text-anchor="middle" x="748" y="-868.5" font-family="Helvetica,sans-Serif" font-size="10.00" fill="#000000">Subscriptor</text>
<polyline fill="none" stroke="#000000" points="685,-861.5 811,-861.5 "/>
<text text-anchor="middle" x="748" y="-849.5" font-family="Helvetica,sans-Serif" font-size="10.00" fill="#000000"> </text>
<polyline fill="none" stroke="#000000" points="685,-842.5 811,-842.5 "/>
<text text-anchor="start" x="693" y="-830.5" font-family="Helvetica,sans-Serif" font-size="10.00" fill="#000000">+ Subscriptor()</text>
<text text-anchor="start" x="693" y="-819.5" font-family="Helvetica,sans-Serif" font-size="10.00" fill="#000000">+ Subscriptor()</text>
<text text-anchor="start" x="693" y="-808.5" font-family="Helvetica,sans-Serif" font-size="10.00" fill="#000000">+ Subscriptor()</text>
<text text-anchor="start" x="693" y="-797.5" font-family="Helvetica,sans-Serif" font-size="10.00" fill="#000000">+ ~Subscriptor()</text>
<text text-anchor="start" x="693" y="-786.5" font-family="Helvetica,sans-Serif" font-size="10.00" fill="#000000">+ operator=()</text>
<text text-anchor="start" x="693" y="-775.5" font-family="Helvetica,sans-Serif" font-size="10.00" fill="#000000">+ operator=()</text>
<text text-anchor="start" x="693" y="-764.5" font-family="Helvetica,sans-Serif" font-size="10.00" fill="#000000">+ serialize()</text>
<text text-anchor="start" x="693" y="-753.5" font-family="Helvetica,sans-Serif" font-size="10.00" fill="#000000">+ subscribe()</text>
<text text-anchor="start" x="693" y="-742.5" font-family="Helvetica,sans-Serif" font-size="10.00" fill="#000000">+ unsubscribe()</text>
<text text-anchor="start" x="693" y="-731.5" font-family="Helvetica,sans-Serif" font-size="10.00" fill="#000000">+ n_subscriptions()</text>
<text text-anchor="start" x="693" y="-720.5" font-family="Helvetica,sans-Serif" font-size="10.00" fill="#000000">+ list_subscribers()</text>
<text text-anchor="start" x="693" y="-709.5" font-family="Helvetica,sans-Serif" font-size="10.00" fill="#000000">+ list_subscribers()</text>
<text text-anchor="start" x="693" y="-698.5" font-family="Helvetica,sans-Serif" font-size="10.00" fill="#000000">+ ExcInUse()</text>
<text text-anchor="start" x="693" y="-687.5" font-family="Helvetica,sans-Serif" font-size="10.00" fill="#000000">+ ExcNoSubscriber()</text>
<text text-anchor="start" x="693" y="-676.5" font-family="Helvetica,sans-Serif" font-size="10.00" fill="#000000">&#45; check_no_subscribers()</text>
<text text-anchor="start" x="693" y="-665.5" font-family="Helvetica,sans-Serif" font-size="10.00" fill="#000000">* subscribe()</text>
<text text-anchor="start" x="693" y="-654.5" font-family="Helvetica,sans-Serif" font-size="10.00" fill="#000000">* unsubscribe()</text>
<text text-anchor="start" x="693" y="-643.5" font-family="Helvetica,sans-Serif" font-size="10.00" fill="#000000">* n_subscriptions()</text>
<text text-anchor="start" x="693" y="-632.5" font-family="Helvetica,sans-Serif" font-size="10.00" fill="#000000">* list_subscribers()</text>
<text text-anchor="start" x="693" y="-621.5" font-family="Helvetica,sans-Serif" font-size="10.00" fill="#000000">* list_subscribers()</text>
</a>
</g>
</g>
<!-- Node11&#45;&gt;Node8 -->
<g id="edge4" class="edge">
<title>Node11&#45;&gt;Node8</title>
<path fill="none" stroke="#191970" d="M700.2958,-604.6151C674.7321,-538.6199 639.485,-461.0903 596,-398 573.2902,-365.0515 541.4692,-333.5231 514.5348,-309.6563"/>
<polygon fill="none" stroke="#191970" points="697.1481,-606.1818 703.9971,-614.2653 703.6838,-603.6751 697.1481,-606.1818"/>
</g>
<!-- Node25 -->
<g id="node19" class="node">
<title>Node25</title>
<g id="a_node19"><a xlink:href="classFunction.html" target="_top" xlink:title="{Function\&lt; dim, RangeNumber\lType \&gt;\n||+ Function()\l+ Function()\l+ ~Function()\l+ operator=()\l+ value()\l+ vector_value()\l+ value_list()\l+ vector_value_list()\l+ vector_values()\l+ gradient()\land 13 more...\l}">
<polygon fill="#ffffff" stroke="#000000" points="439,-398.5 439,-576.5 587,-576.5 587,-398.5 439,-398.5"/>
<text text-anchor="start" x="447" y="-564.5" font-family="Helvetica,sans-Serif" font-size="10.00" fill="#000000">Function&lt; dim, RangeNumber</text>
<text text-anchor="middle" x="513" y="-553.5" font-family="Helvetica,sans-Serif" font-size="10.00" fill="#000000">Type &gt;</text>
<polyline fill="none" stroke="#000000" points="439,-546.5 587,-546.5 "/>
<text text-anchor="middle" x="513" y="-534.5" font-family="Helvetica,sans-Serif" font-size="10.00" fill="#000000"> </text>
<polyline fill="none" stroke="#000000" points="439,-527.5 587,-527.5 "/>
<text text-anchor="start" x="447" y="-515.5" font-family="Helvetica,sans-Serif" font-size="10.00" fill="#000000">+ Function()</text>
<text text-anchor="start" x="447" y="-504.5" font-family="Helvetica,sans-Serif" font-size="10.00" fill="#000000">+ Function()</text>
<text text-anchor="start" x="447" y="-493.5" font-family="Helvetica,sans-Serif" font-size="10.00" fill="#000000">+ ~Function()</text>
<text text-anchor="start" x="447" y="-482.5" font-family="Helvetica,sans-Serif" font-size="10.00" fill="#000000">+ operator=()</text>
<text text-anchor="start" x="447" y="-471.5" font-family="Helvetica,sans-Serif" font-size="10.00" fill="#000000">+ value()</text>
<text text-anchor="start" x="447" y="-460.5" font-family="Helvetica,sans-Serif" font-size="10.00" fill="#000000">+ vector_value()</text>
<text text-anchor="start" x="447" y="-449.5" font-family="Helvetica,sans-Serif" font-size="10.00" fill="#000000">+ value_list()</text>
<text text-anchor="start" x="447" y="-438.5" font-family="Helvetica,sans-Serif" font-size="10.00" fill="#000000">+ vector_value_list()</text>
<text text-anchor="start" x="447" y="-427.5" font-family="Helvetica,sans-Serif" font-size="10.00" fill="#000000">+ vector_values()</text>
<text text-anchor="start" x="447" y="-416.5" font-family="Helvetica,sans-Serif" font-size="10.00" fill="#000000">+ gradient()</text>
<text text-anchor="start" x="447" y="-405.5" font-family="Helvetica,sans-Serif" font-size="10.00" fill="#000000">and 13 more...</text>
</a>
</g>
</g>
<!-- Node11&#45;&gt;Node25 -->
<g id="edge27" class="edge">
<title>Node11&#45;&gt;Node25</title>
<path fill="none" stroke="#191970" d="M677.9301,-669.9759C649.3391,-638.3433 616.2457,-601.7293 587.2401,-569.638"/>
<polygon fill="none" stroke="#191970" points="675.4132,-672.4109 684.7152,-677.4828 680.6063,-667.7171 675.4132,-672.4109"/>
</g>
<!-- Node12 -->
<g id="node6" class="node">
<title>Node12</title>
<polygon fill="#ffffff" stroke="#bfbfbf" points="559,-1058 559,-1126 669,-1126 669,-1058 559,-1058"/>
<text text-anchor="start" x="567" y="-1114" font-family="Helvetica,sans-Serif" font-size="10.00" fill="#000000">std::map&lt; std::string,</text>
<text text-anchor="middle" x="614" y="-1103" font-family="Helvetica,sans-Serif" font-size="10.00" fill="#000000"> unsigned int &gt;</text>
<polyline fill="none" stroke="#bfbfbf" points="559,-1096 669,-1096 "/>
<text text-anchor="middle" x="614" y="-1084" font-family="Helvetica,sans-Serif" font-size="10.00" fill="#000000"> </text>
<polyline fill="none" stroke="#bfbfbf" points="559,-1077 669,-1077 "/>
<text text-anchor="middle" x="614" y="-1065" font-family="Helvetica,sans-Serif" font-size="10.00" fill="#000000"> </text>
</g>
<!-- Node12&#45;&gt;Node11 -->
<g id="edge5" class="edge">
<title>Node12&#45;&gt;Node11</title>
<path fill="none" stroke="#404040" d="M624.9049,-1057.8726C637.5242,-1019.0595 659.3555,-953.9456 681,-899 681.9264,-896.6482 682.8682,-894.2793 683.8232,-891.8973"/>
<polygon fill="none" stroke="#404040" points="683.8678,-891.7875 682.418,-884.7236 688.381,-880.6685 689.8307,-887.7324 683.8678,-891.7875"/>
<text text-anchor="middle" x="712.5" y="-958.5" font-family="Helvetica,sans-Serif" font-size="10.00" fill="#000000"> &#45;counter_map</text>
</g>
<!-- Node13 -->
<g id="node7" class="node">
<title>Node13</title>
<g id="a_node7"><a xlink:href="classint.html" target="_top" xlink:title="{int\n||}">
<polygon fill="#ffffff" stroke="#000000" points="494.5,-1223.5 494.5,-1280.5 523.5,-1280.5 523.5,-1223.5 494.5,-1223.5"/>
<text text-anchor="middle" x="509" y="-1268.5" font-family="Helvetica,sans-Serif" font-size="10.00" fill="#000000">int</text>
<polyline fill="none" stroke="#000000" points="494.5,-1261.5 523.5,-1261.5 "/>
<text text-anchor="middle" x="509" y="-1249.5" font-family="Helvetica,sans-Serif" font-size="10.00" fill="#000000"> </text>
<polyline fill="none" stroke="#000000" points="494.5,-1242.5 523.5,-1242.5 "/>
<text text-anchor="middle" x="509" y="-1230.5" font-family="Helvetica,sans-Serif" font-size="10.00" fill="#000000"> </text>
</a>
</g>
</g>
<!-- Node13&#45;&gt;Node8 -->
<g id="edge19" class="edge">
<title>Node13&#45;&gt;Node8</title>
<path fill="none" stroke="#404040" d="M494.1159,-1239.1217C466.7007,-1213.8829 411,-1154.8682 411,-1092 411,-1092 411,-1092 411,-487.5 411,-445.7493 419.7864,-400.6692 430.0653,-362.2164"/>
<polygon fill="none" stroke="#404040" points="430.1043,-362.0746 427.8437,-355.227 433.2952,-350.5066 435.5558,-357.3542 430.1043,-362.0746"/>
<text text-anchor="middle" x="446" y="-750.5" font-family="Helvetica,sans-Serif" font-size="10.00" fill="#000000"> +dimension</text>
<text text-anchor="middle" x="446" y="-739.5" font-family="Helvetica,sans-Serif" font-size="10.00" fill="#000000">+n_components</text>
</g>
<!-- Node13&#45;&gt;Node12 -->
<g id="edge6" class="edge">
<title>Node13&#45;&gt;Node12</title>
<path fill="none" stroke="#404040" d="M517.9132,-1223.1594C524.4016,-1204.5446 534.273,-1180.2934 547,-1161 552.8786,-1152.0884 560.0001,-1143.3241 567.3769,-1135.1896"/>
<polygon fill="none" stroke="#404040" points="567.5284,-1135.0289 568.7349,-1127.9194 575.7615,-1126.2986 574.5551,-1133.4081 567.5284,-1135.0289"/>
<text text-anchor="middle" x="571.5" y="-1169.5" font-family="Helvetica,sans-Serif" font-size="10.00" fill="#000000"> +elements</text>
</g>
<!-- Node13&#45;&gt;Node25 -->
<g id="edge28" class="edge">
<title>Node13&#45;&gt;Node25</title>
<path fill="none" stroke="#404040" d="M509.1495,-1223.426C509.6882,-1120.4658 511.5467,-765.2549 512.4704,-588.7225"/>
<polygon fill="none" stroke="#404040" points="512.471,-588.5844 508.5025,-582.5635 512.5339,-576.5845 516.5024,-582.6054 512.471,-588.5844"/>
<text text-anchor="middle" x="545" y="-964" font-family="Helvetica,sans-Serif" font-size="10.00" fill="#000000"> +dimension</text>
<text text-anchor="middle" x="545" y="-953" font-family="Helvetica,sans-Serif" font-size="10.00" fill="#000000">+n_components</text>
</g>
<!-- Node14 -->
<g id="node8" class="node">
<title>Node14</title>
<g id="a_node8"><a xlink:title="STL class. ">
<polygon fill="#ffffff" stroke="#bfbfbf" points="559,-1223.5 559,-1280.5 619,-1280.5 619,-1223.5 559,-1223.5"/>
<text text-anchor="middle" x="589" y="-1268.5" font-family="Helvetica,sans-Serif" font-size="10.00" fill="#000000">std::string</text>
<polyline fill="none" stroke="#bfbfbf" points="559,-1261.5 619,-1261.5 "/>
<text text-anchor="middle" x="589" y="-1249.5" font-family="Helvetica,sans-Serif" font-size="10.00" fill="#000000"> </text>
<polyline fill="none" stroke="#bfbfbf" points="559,-1242.5 619,-1242.5 "/>
<text text-anchor="middle" x="589" y="-1230.5" font-family="Helvetica,sans-Serif" font-size="10.00" fill="#000000"> </text>
</a>
</g>
</g>
<!-- Node14&#45;&gt;Node12 -->
<g id="edge7" class="edge">
<title>Node14&#45;&gt;Node12</title>
<path fill="none" stroke="#404040" d="M593.4695,-1223.3952C597.1599,-1199.7769 602.4696,-1165.7944 606.7647,-1138.306"/>
<polygon fill="none" stroke="#404040" points="606.8046,-1138.0498 603.7789,-1131.5042 608.6572,-1126.1937 611.683,-1132.7393 606.8046,-1138.0498"/>
<text text-anchor="middle" x="617.5" y="-1169.5" font-family="Helvetica,sans-Serif" font-size="10.00" fill="#000000"> +keys</text>
</g>
<!-- Node15 -->
<g id="node9" class="node">
<title>Node15</title>
<g id="a_node9"><a xlink:title="STL class. ">
<polygon fill="#ffffff" stroke="#bfbfbf" points="541.5,-1350.5 541.5,-1418.5 636.5,-1418.5 636.5,-1350.5 541.5,-1350.5"/>
<text text-anchor="start" x="549.5" y="-1406.5" font-family="Helvetica,sans-Serif" font-size="10.00" fill="#000000">std::basic_string&lt;</text>
<text text-anchor="middle" x="589" y="-1395.5" font-family="Helvetica,sans-Serif" font-size="10.00" fill="#000000"> char &gt;</text>
<polyline fill="none" stroke="#bfbfbf" points="541.5,-1388.5 636.5,-1388.5 "/>
<text text-anchor="middle" x="589" y="-1376.5" font-family="Helvetica,sans-Serif" font-size="10.00" fill="#000000"> </text>
<polyline fill="none" stroke="#bfbfbf" points="541.5,-1369.5 636.5,-1369.5 "/>
<text text-anchor="middle" x="589" y="-1357.5" font-family="Helvetica,sans-Serif" font-size="10.00" fill="#000000"> </text>
</a>
</g>
</g>
<!-- Node15&#45;&gt;Node14 -->
<g id="edge8" class="edge">
<title>Node15&#45;&gt;Node14</title>
<path fill="none" stroke="#191970" d="M589,-1340.1227C589,-1320.4974 589,-1297.9876 589,-1280.6307"/>
<polygon fill="none" stroke="#191970" points="585.5001,-1340.3779 589,-1350.378 592.5001,-1340.378 585.5001,-1340.3779"/>
</g>
<!-- Node16 -->
<g id="node10" class="node">
<title>Node16</title>
<g id="a_node10"><a xlink:title="STL class. ">
<polygon fill="#ffffff" stroke="#bfbfbf" points="637,-1223.5 637,-1280.5 729,-1280.5 729,-1223.5 637,-1223.5"/>
<text text-anchor="middle" x="683" y="-1268.5" font-family="Helvetica,sans-Serif" font-size="10.00" fill="#000000">std::map&lt; K, T &gt;</text>
<polyline fill="none" stroke="#bfbfbf" points="637,-1261.5 729,-1261.5 "/>
<text text-anchor="middle" x="683" y="-1249.5" font-family="Helvetica,sans-Serif" font-size="10.00" fill="#000000"> </text>
<polyline fill="none" stroke="#bfbfbf" points="637,-1242.5 729,-1242.5 "/>
<text text-anchor="middle" x="683" y="-1230.5" font-family="Helvetica,sans-Serif" font-size="10.00" fill="#000000"> </text>
</a>
</g>
</g>
<!-- Node16&#45;&gt;Node12 -->
<g id="edge9" class="edge">
<title>Node16&#45;&gt;Node12</title>
<path fill="none" stroke="#ffa500" d="M666.6115,-1213.9978C655.1117,-1187.3315 639.8647,-1151.976 628.746,-1126.1937"/>
<polygon fill="#ffa500" stroke="#ffa500" points="663.4903,-1215.5987 670.6642,-1223.3952 669.918,-1212.8267 663.4903,-1215.5987"/>
<text text-anchor="start" x="652" y="-1175" font-family="Helvetica,sans-Serif" font-size="10.00" fill="#000000"> &lt; std::string, unsigned</text>
<text text-anchor="middle" x="702.5" y="-1164" font-family="Helvetica,sans-Serif" font-size="10.00" fill="#000000"> int &gt;</text>
</g>
<!-- Node17 -->
<g id="node11" class="node">
<title>Node17</title>
<polygon fill="#ffffff" stroke="#bfbfbf" points="668.5,-1356 668.5,-1413 697.5,-1413 697.5,-1356 668.5,-1356"/>
<text text-anchor="middle" x="683" y="-1401" font-family="Helvetica,sans-Serif" font-size="10.00" fill="#000000">K</text>
<polyline fill="none" stroke="#bfbfbf" points="668.5,-1394 697.5,-1394 "/>
<text text-anchor="middle" x="683" y="-1382" font-family="Helvetica,sans-Serif" font-size="10.00" fill="#000000"> </text>
<polyline fill="none" stroke="#bfbfbf" points="668.5,-1375 697.5,-1375 "/>
<text text-anchor="middle" x="683" y="-1363" font-family="Helvetica,sans-Serif" font-size="10.00" fill="#000000"> </text>
</g>
<!-- Node17&#45;&gt;Node16 -->
<g id="edge10" class="edge">
<title>Node17&#45;&gt;Node16</title>
<path fill="none" stroke="#404040" d="M683,-1355.7495C683,-1337.3447 683,-1313.1825 683,-1292.8067"/>
<polygon fill="none" stroke="#404040" points="683.0001,-1292.6944 679,-1286.6945 683,-1280.6944 687,-1286.6944 683.0001,-1292.6944"/>
<text text-anchor="middle" x="698.5" y="-1324" font-family="Helvetica,sans-Serif" font-size="10.00" fill="#000000"> +keys</text>
</g>
<!-- Node18 -->
<g id="node12" class="node">
<title>Node18</title>
<polygon fill="#ffffff" stroke="#bfbfbf" points="813.5,-1356 813.5,-1413 842.5,-1413 842.5,-1356 813.5,-1356"/>
<text text-anchor="middle" x="828" y="-1401" font-family="Helvetica,sans-Serif" font-size="10.00" fill="#000000">T</text>
<polyline fill="none" stroke="#bfbfbf" points="813.5,-1394 842.5,-1394 "/>
<text text-anchor="middle" x="828" y="-1382" font-family="Helvetica,sans-Serif" font-size="10.00" fill="#000000"> </text>
<polyline fill="none" stroke="#bfbfbf" points="813.5,-1375 842.5,-1375 "/>
<text text-anchor="middle" x="828" y="-1363" font-family="Helvetica,sans-Serif" font-size="10.00" fill="#000000"> </text>
</g>
<!-- Node18&#45;&gt;Node16 -->
<g id="edge11" class="edge">
<title>Node18&#45;&gt;Node16</title>
<path fill="none" stroke="#404040" d="M813.2987,-1371.066C792.3539,-1351.9268 753.1462,-1316.0991 723.1902,-1288.7255"/>
<polygon fill="none" stroke="#404040" points="723.0795,-1288.6244 715.9519,-1287.5298 714.2209,-1280.5295 721.3485,-1281.6241 723.0795,-1288.6244"/>
<text text-anchor="middle" x="792.5" y="-1324" font-family="Helvetica,sans-Serif" font-size="10.00" fill="#000000"> +elements</text>
</g>
<!-- Node23 -->
<g id="node17" class="node">
<title>Node23</title>
<g id="a_node17"><a xlink:title="STL class. ">
<polygon fill="#ffffff" stroke="#bfbfbf" points="854.5,-1223.5 854.5,-1280.5 941.5,-1280.5 941.5,-1223.5 854.5,-1223.5"/>
<text text-anchor="middle" x="898" y="-1268.5" font-family="Helvetica,sans-Serif" font-size="10.00" fill="#000000">std::vector&lt; T &gt;</text>
<polyline fill="none" stroke="#bfbfbf" points="854.5,-1261.5 941.5,-1261.5 "/>
<text text-anchor="middle" x="898" y="-1249.5" font-family="Helvetica,sans-Serif" font-size="10.00" fill="#000000"> </text>
<polyline fill="none" stroke="#bfbfbf" points="854.5,-1242.5 941.5,-1242.5 "/>
<text text-anchor="middle" x="898" y="-1230.5" font-family="Helvetica,sans-Serif" font-size="10.00" fill="#000000"> </text>
</a>
</g>
</g>
<!-- Node18&#45;&gt;Node23 -->
<g id="edge17" class="edge">
<title>Node18&#45;&gt;Node23</title>
<path fill="none" stroke="#404040" d="M842.504,-1357.0459C852.4839,-1338.1555 865.8964,-1312.7675 877.0356,-1291.6826"/>
<polygon fill="none" stroke="#404040" points="877.1826,-1291.4042 876.4486,-1284.2306 882.7881,-1280.7939 883.5221,-1287.9676 877.1826,-1291.4042"/>
<text text-anchor="middle" x="884.5" y="-1324" font-family="Helvetica,sans-Serif" font-size="10.00" fill="#000000"> +elements</text>
</g>
<!-- Node19 -->
<g id="node13" class="node">
<title>Node19</title>
<polygon fill="#ffffff" stroke="#bfbfbf" points="827,-1063.5 827,-1120.5 943,-1120.5 943,-1063.5 827,-1063.5"/>
<text text-anchor="middle" x="885" y="-1108.5" font-family="Helvetica,sans-Serif" font-size="10.00" fill="#000000">atomic&lt; unsigned int &gt;</text>
<polyline fill="none" stroke="#bfbfbf" points="827,-1101.5 943,-1101.5 "/>
<text text-anchor="middle" x="885" y="-1089.5" font-family="Helvetica,sans-Serif" font-size="10.00" fill="#000000"> </text>
<polyline fill="none" stroke="#bfbfbf" points="827,-1082.5 943,-1082.5 "/>
<text text-anchor="middle" x="885" y="-1070.5" font-family="Helvetica,sans-Serif" font-size="10.00" fill="#000000"> </text>
</g>
<!-- Node19&#45;&gt;Node11 -->
<g id="edge12" class="edge">
<title>Node19&#45;&gt;Node11</title>
<path fill="none" stroke="#404040" d="M878.6443,-1063.2451C869.7398,-1024.9729 852.0257,-955.5474 829,-899 825.1181,-889.4668 820.8108,-879.7506 816.2633,-870.0739"/>
<polygon fill="none" stroke="#404040" points="816.2265,-869.9972 810.0251,-866.3172 811.0368,-859.1774 817.2382,-862.8574 816.2265,-869.9972"/>
<text text-anchor="middle" x="887.5" y="-958.5" font-family="Helvetica,sans-Serif" font-size="10.00" fill="#000000"> &#45;counter</text>
</g>
<!-- Node20 -->
<g id="node14" class="node">
<title>Node20</title>
<polygon fill="#ffffff" stroke="#bfbfbf" points="961,-1063.5 961,-1120.5 1005,-1120.5 1005,-1063.5 961,-1063.5"/>
<text text-anchor="middle" x="983" y="-1108.5" font-family="Helvetica,sans-Serif" font-size="10.00" fill="#000000">mutex</text>
<polyline fill="none" stroke="#bfbfbf" points="961,-1101.5 1005,-1101.5 "/>
<text text-anchor="middle" x="983" y="-1089.5" font-family="Helvetica,sans-Serif" font-size="10.00" fill="#000000"> </text>
<polyline fill="none" stroke="#bfbfbf" points="961,-1082.5 1005,-1082.5 "/>
<text text-anchor="middle" x="983" y="-1070.5" font-family="Helvetica,sans-Serif" font-size="10.00" fill="#000000"> </text>
</g>
<!-- Node20&#45;&gt;Node11 -->
<g id="edge13" class="edge">
<title>Node20&#45;&gt;Node11</title>
<path fill="none" stroke="#404040" d="M976.716,-1063.2371C967.1389,-1023.736 946.1916,-951.6158 911,-899 886.6685,-862.6215 851.9535,-828.773 820.8089,-802.3388"/>
<polygon fill="none" stroke="#404040" points="820.4854,-802.0687 813.316,-801.2943 811.2734,-794.3785 818.4428,-795.1529 820.4854,-802.0687"/>
<text text-anchor="middle" x="981" y="-958.5" font-family="Helvetica,sans-Serif" font-size="10.00" fill="#000000"> &#45;mutex</text>
</g>
<!-- Node21 -->
<g id="node15" class="node">
<title>Node21</title>
<polygon fill="#ffffff" stroke="#bfbfbf" points="687.5,-1058 687.5,-1126 808.5,-1126 808.5,-1058 687.5,-1058"/>
<text text-anchor="start" x="695.5" y="-1114" font-family="Helvetica,sans-Serif" font-size="10.00" fill="#000000">std::vector&lt; std::atomic</text>
<text text-anchor="middle" x="748" y="-1103" font-family="Helvetica,sans-Serif" font-size="10.00" fill="#000000">&lt; bool &gt; *&gt;</text>
<polyline fill="none" stroke="#bfbfbf" points="687.5,-1096 808.5,-1096 "/>
<text text-anchor="middle" x="748" y="-1084" font-family="Helvetica,sans-Serif" font-size="10.00" fill="#000000"> </text>
<polyline fill="none" stroke="#bfbfbf" points="687.5,-1077 808.5,-1077 "/>
<text text-anchor="middle" x="748" y="-1065" font-family="Helvetica,sans-Serif" font-size="10.00" fill="#000000"> </text>
</g>
<!-- Node21&#45;&gt;Node11 -->
<g id="edge14" class="edge">
<title>Node21&#45;&gt;Node11</title>
<path fill="none" stroke="#404040" d="M748,-1057.7086C748,-1019.0169 748,-953.5241 748,-892.6598"/>
<polygon fill="none" stroke="#404040" points="748.0001,-892.5579 744,-886.558 748,-880.5579 752,-886.5579 748.0001,-892.5579"/>
<text text-anchor="middle" x="786.5" y="-958.5" font-family="Helvetica,sans-Serif" font-size="10.00" fill="#000000"> &#45;validity_pointers</text>
</g>
<!-- Node22 -->
<g id="node16" class="node">
<title>Node22</title>
<polygon fill="#ffffff" stroke="#bfbfbf" points="747.5,-1223.5 747.5,-1280.5 836.5,-1280.5 836.5,-1223.5 747.5,-1223.5"/>
<text text-anchor="middle" x="792" y="-1268.5" font-family="Helvetica,sans-Serif" font-size="10.00" fill="#000000">atomic&lt; bool &gt; *</text>
<polyline fill="none" stroke="#bfbfbf" points="747.5,-1261.5 836.5,-1261.5 "/>
<text text-anchor="middle" x="792" y="-1249.5" font-family="Helvetica,sans-Serif" font-size="10.00" fill="#000000"> </text>
<polyline fill="none" stroke="#bfbfbf" points="747.5,-1242.5 836.5,-1242.5 "/>
<text text-anchor="middle" x="792" y="-1230.5" font-family="Helvetica,sans-Serif" font-size="10.00" fill="#000000"> </text>
</g>
<!-- Node22&#45;&gt;Node21 -->
<g id="edge15" class="edge">
<title>Node22&#45;&gt;Node21</title>
<path fill="none" stroke="#404040" d="M785.586,-1223.1744C781.4516,-1205.2092 775.7832,-1181.6608 770,-1161 767.8844,-1153.442 765.4925,-1145.4674 763.0848,-1137.7287"/>
<polygon fill="none" stroke="#404040" points="763.0728,-1137.6905 757.449,-1133.1769 759.4524,-1126.2496 765.0762,-1130.7633 763.0728,-1137.6905"/>
<text text-anchor="middle" x="799.5" y="-1169.5" font-family="Helvetica,sans-Serif" font-size="10.00" fill="#000000"> +elements</text>
</g>
<!-- Node23&#45;&gt;Node21 -->
<g id="edge16" class="edge">
<title>Node23&#45;&gt;Node21</title>
<path fill="none" stroke="#ffa500" d="M872.3498,-1215.2009C859.751,-1198.0654 843.8871,-1177.8028 828,-1161 816.6591,-1149.0054 803.4046,-1136.9164 790.9837,-1126.2818"/>
<polygon fill="#ffa500" stroke="#ffa500" points="869.5487,-1217.3001 878.2583,-1223.3329 875.2118,-1213.1855 869.5487,-1217.3001"/>
<text text-anchor="middle" x="901" y="-1169.5" font-family="Helvetica,sans-Serif" font-size="10.00" fill="#000000"> &lt; std::atomic&lt; bool &gt; *&gt;</text>
</g>
<!-- Node24 -->
<g id="node18" class="node">
<title>Node24</title>
<polygon fill="#ffffff" stroke="#bfbfbf" points="1023.5,-1063.5 1023.5,-1120.5 1086.5,-1120.5 1086.5,-1063.5 1023.5,-1063.5"/>
<text text-anchor="middle" x="1055" y="-1108.5" font-family="Helvetica,sans-Serif" font-size="10.00" fill="#000000">type_info *</text>
<polyline fill="none" stroke="#bfbfbf" points="1023.5,-1101.5 1086.5,-1101.5 "/>
<text text-anchor="middle" x="1055" y="-1089.5" font-family="Helvetica,sans-Serif" font-size="10.00" fill="#000000"> </text>
<polyline fill="none" stroke="#bfbfbf" points="1023.5,-1082.5 1086.5,-1082.5 "/>
<text text-anchor="middle" x="1055" y="-1070.5" font-family="Helvetica,sans-Serif" font-size="10.00" fill="#000000"> </text>
</g>
<!-- Node24&#45;&gt;Node11 -->
<g id="edge18" class="edge">
<title>Node24&#45;&gt;Node11</title>
<path fill="none" stroke="#404040" d="M1053.696,-1063.216C1050.5093,-1022.7172 1039.5606,-948.3578 1002,-899 956.3795,-839.0508 879.6205,-798.0551 822.4,-773.9789"/>
<polygon fill="none" stroke="#404040" points="822.3306,-773.9504 815.2604,-775.3693 811.2315,-769.3887 818.3016,-767.9698 822.3306,-773.9504"/>
<text text-anchor="middle" x="1075" y="-958.5" font-family="Helvetica,sans-Serif" font-size="10.00" fill="#000000"> &#45;object_info</text>
</g>
<!-- Node25&#45;&gt;Node8 -->
<g id="edge20" class="edge">
<title>Node25&#45;&gt;Node8</title>
<path fill="none" stroke="#ffa500" d="M490.0785,-388.3981C487.1637,-375.7962 484.2036,-362.9979 481.3525,-350.6711"/>
<polygon fill="#ffa500" stroke="#ffa500" points="486.7399,-389.4957 492.4034,-398.4498 493.5598,-387.9183 486.7399,-389.4957"/>
<text text-anchor="middle" x="500.5" y="-372" font-family="Helvetica,sans-Serif" font-size="10.00" fill="#000000"> &lt; 2 &gt;</text>
</g>
<!-- Node26 -->
<g id="node20" class="node">
<title>Node26</title>
<g id="a_node20"><a xlink:href="classFunctionTime.html" target="_top" xlink:title="{FunctionTime\&lt; numbers\l::NumberTraits\&lt; RangeNumber\lType \&gt;::real_type \&gt;\n||+ FunctionTime()\l+ ~FunctionTime()\l+ get_time()\l+ set_time()\l+ advance_time()\l}">
<polygon fill="#ffffff" stroke="#000000" points="220,-686 220,-809 374,-809 374,-686 220,-686"/>
<text text-anchor="start" x="228" y="-797" font-family="Helvetica,sans-Serif" font-size="10.00" fill="#000000">FunctionTime&lt; numbers</text>
<text text-anchor="start" x="228" y="-786" font-family="Helvetica,sans-Serif" font-size="10.00" fill="#000000">::NumberTraits&lt; RangeNumber</text>
<text text-anchor="middle" x="297" y="-775" font-family="Helvetica,sans-Serif" font-size="10.00" fill="#000000">Type &gt;::real_type &gt;</text>
<polyline fill="none" stroke="#000000" points="220,-768 374,-768 "/>
<text text-anchor="middle" x="297" y="-756" font-family="Helvetica,sans-Serif" font-size="10.00" fill="#000000"> </text>
<polyline fill="none" stroke="#000000" points="220,-749 374,-749 "/>
<text text-anchor="start" x="228" y="-737" font-family="Helvetica,sans-Serif" font-size="10.00" fill="#000000">+ FunctionTime()</text>
<text text-anchor="start" x="228" y="-726" font-family="Helvetica,sans-Serif" font-size="10.00" fill="#000000">+ ~FunctionTime()</text>
<text text-anchor="start" x="228" y="-715" font-family="Helvetica,sans-Serif" font-size="10.00" fill="#000000">+ get_time()</text>
<text text-anchor="start" x="228" y="-704" font-family="Helvetica,sans-Serif" font-size="10.00" fill="#000000">+ set_time()</text>
<text text-anchor="start" x="228" y="-693" font-family="Helvetica,sans-Serif" font-size="10.00" fill="#000000">+ advance_time()</text>
</a>
</g>
</g>
<!-- Node26&#45;&gt;Node25 -->
<g id="edge21" class="edge">
<title>Node26&#45;&gt;Node25</title>
<path fill="none" stroke="#191970" d="M342.1003,-677.2227C356.3845,-656.3301 372.7131,-633.7574 389,-614 404.3559,-595.372 421.9538,-576.2736 438.9749,-558.7449"/>
<polygon fill="none" stroke="#191970" points="339.0331,-675.5098 336.3181,-685.7509 344.8269,-679.4382 339.0331,-675.5098"/>
</g>
<!-- Node27 -->
<g id="node21" class="node">
<title>Node27</title>
<g id="a_node21"><a xlink:href="structnumbers_1_1NumberTraits.html" target="_top" xlink:title="{numbers::NumberTraits\l\&lt; RangeNumberType \&gt;\n||+ conjugate()\l+ abs_square()\l+ abs_square()\l+ abs()\l}">
<polygon fill="#ffffff" stroke="#000000" points="231.5,-1041.5 231.5,-1142.5 350.5,-1142.5 350.5,-1041.5 231.5,-1041.5"/>
<text text-anchor="start" x="239.5" y="-1130.5" font-family="Helvetica,sans-Serif" font-size="10.00" fill="#000000">numbers::NumberTraits</text>
<text text-anchor="middle" x="291" y="-1119.5" font-family="Helvetica,sans-Serif" font-size="10.00" fill="#000000">&lt; RangeNumberType &gt;</text>
<polyline fill="none" stroke="#000000" points="231.5,-1112.5 350.5,-1112.5 "/>
<text text-anchor="middle" x="291" y="-1100.5" font-family="Helvetica,sans-Serif" font-size="10.00" fill="#000000"> </text>
<polyline fill="none" stroke="#000000" points="231.5,-1093.5 350.5,-1093.5 "/>
<text text-anchor="start" x="239.5" y="-1081.5" font-family="Helvetica,sans-Serif" font-size="10.00" fill="#000000">+ conjugate()</text>
<text text-anchor="start" x="239.5" y="-1070.5" font-family="Helvetica,sans-Serif" font-size="10.00" fill="#000000">+ abs_square()</text>
<text text-anchor="start" x="239.5" y="-1059.5" font-family="Helvetica,sans-Serif" font-size="10.00" fill="#000000">+ abs_square()</text>
<text text-anchor="start" x="239.5" y="-1048.5" font-family="Helvetica,sans-Serif" font-size="10.00" fill="#000000">+ abs()</text>
</a>
</g>
</g>
<!-- Node27&#45;&gt;Node26 -->
<g id="edge22" class="edge">
<title>Node27&#45;&gt;Node26</title>
<path fill="none" stroke="#404040" d="M291.8853,-1041.1678C292.898,-983.0224 294.5648,-887.3202 295.7191,-821.0446"/>
<polygon fill="none" stroke="#404040" points="295.7193,-821.0258 291.8245,-814.957 295.9284,-809.0276 299.8233,-815.0964 295.7193,-821.0258"/>
<text text-anchor="middle" x="306.5" y="-958.5" font-family="Helvetica,sans-Serif" font-size="10.00" fill="#000000"> &#45;time</text>
</g>
<!-- Node28 -->
<g id="node22" class="node">
<title>Node28</title>
<g id="a_node22"><a xlink:href="classstatic_01constexpr_01bool.html" target="_top" xlink:title="{static constexpr bool\n||}">
<polygon fill="#ffffff" stroke="#000000" points="105.5,-1223.5 105.5,-1280.5 212.5,-1280.5 212.5,-1223.5 105.5,-1223.5"/>
<text text-anchor="middle" x="159" y="-1268.5" font-family="Helvetica,sans-Serif" font-size="10.00" fill="#000000">static constexpr bool</text>
<polyline fill="none" stroke="#000000" points="105.5,-1261.5 212.5,-1261.5 "/>
<text text-anchor="middle" x="159" y="-1249.5" font-family="Helvetica,sans-Serif" font-size="10.00" fill="#000000"> </text>
<polyline fill="none" stroke="#000000" points="105.5,-1242.5 212.5,-1242.5 "/>
<text text-anchor="middle" x="159" y="-1230.5" font-family="Helvetica,sans-Serif" font-size="10.00" fill="#000000"> </text>
</a>
</g>
</g>
<!-- Node28&#45;&gt;Node27 -->
<g id="edge23" class="edge">
<title>Node28&#45;&gt;Node27</title>
<path fill="none" stroke="#404040" d="M179.3786,-1223.1197C192.5086,-1204.9251 210.2067,-1181.1502 227,-1161 229.5105,-1157.9877 232.1128,-1154.9337 234.7676,-1151.8724"/>
<polygon fill="none" stroke="#404040" points="234.9162,-1151.7037 235.8822,-1144.5575 242.8502,-1142.7007 241.8842,-1149.8468 234.9162,-1151.7037"/>
<text text-anchor="middle" x="256.5" y="-1169.5" font-family="Helvetica,sans-Serif" font-size="10.00" fill="#000000"> +is_complex</text>
</g>
<!-- Node29 -->
<g id="node23" class="node">
<title>Node29</title>
<g id="a_node23"><a xlink:href="structnumbers_1_1NumberTraits.html" target="_top" xlink:title="{numbers::NumberTraits\l\&lt; number \&gt;\n||+ conjugate()\l+ abs_square()\l+ abs_square()\l+ abs()\l}">
<polygon fill="#ffffff" stroke="#ff0000" points="230.5,-1201.5 230.5,-1302.5 349.5,-1302.5 349.5,-1201.5 230.5,-1201.5"/>
<text text-anchor="start" x="238.5" y="-1290.5" font-family="Helvetica,sans-Serif" font-size="10.00" fill="#000000">numbers::NumberTraits</text>
<text text-anchor="middle" x="290" y="-1279.5" font-family="Helvetica,sans-Serif" font-size="10.00" fill="#000000">&lt; number &gt;</text>
<polyline fill="none" stroke="#ff0000" points="230.5,-1272.5 349.5,-1272.5 "/>
<text text-anchor="middle" x="290" y="-1260.5" font-family="Helvetica,sans-Serif" font-size="10.00" fill="#000000"> </text>
<polyline fill="none" stroke="#ff0000" points="230.5,-1253.5 349.5,-1253.5 "/>
<text text-anchor="start" x="238.5" y="-1241.5" font-family="Helvetica,sans-Serif" font-size="10.00" fill="#000000">+ conjugate()</text>
<text text-anchor="start" x="238.5" y="-1230.5" font-family="Helvetica,sans-Serif" font-size="10.00" fill="#000000">+ abs_square()</text>
<text text-anchor="start" x="238.5" y="-1219.5" font-family="Helvetica,sans-Serif" font-size="10.00" fill="#000000">+ abs_square()</text>
<text text-anchor="start" x="238.5" y="-1208.5" font-family="Helvetica,sans-Serif" font-size="10.00" fill="#000000">+ abs()</text>
</a>
</g>
</g>
<!-- Node29&#45;&gt;Node27 -->
<g id="edge24" class="edge">
<title>Node29&#45;&gt;Node27</title>
<path fill="none" stroke="#ffa500" d="M290.381,-1191.0442C290.481,-1175.0427 290.5877,-1157.9619 290.6839,-1142.5701"/>
<polygon fill="#ffa500" stroke="#ffa500" points="286.8791,-1191.3533 290.3164,-1201.375 293.8789,-1191.3971 286.8791,-1191.3533"/>
<text text-anchor="middle" x="343" y="-1169.5" font-family="Helvetica,sans-Serif" font-size="10.00" fill="#000000"> &lt; RangeNumberType &gt;</text>
</g>
<!-- Node31&#45;&gt;Node26 -->
<g id="edge25" class="edge">
<title>Node31&#45;&gt;Node26</title>
<path fill="none" stroke="#ffa500" d="M143.6241,-1030.9733C142.5012,-991.7948 145.4773,-940.6429 163,-899 177.0956,-865.5016 201.6967,-834.3262 226.0046,-809.071"/>
<polygon fill="#ffa500" stroke="#ffa500" points="140.1346,-1031.316 144.0158,-1041.1742 147.1294,-1031.0473 140.1346,-1031.316"/>
<text text-anchor="start" x="163" y="-969.5" font-family="Helvetica,sans-Serif" font-size="10.00" fill="#000000"> &lt; numbers::NumberTraits</text>
<text text-anchor="start" x="163" y="-958.5" font-family="Helvetica,sans-Serif" font-size="10.00" fill="#000000">&lt; RangeNumberType &gt;::real</text>
<text text-anchor="middle" x="225.5" y="-947.5" font-family="Helvetica,sans-Serif" font-size="10.00" fill="#000000">_type &gt;</text>
</g>
</g>
</svg>
