<?xml version="1.0" encoding="UTF-8" standalone="no"?>
<!DOCTYPE svg PUBLIC "-//W3C//DTD SVG 1.1//EN"
 "http://www.w3.org/Graphics/SVG/1.1/DTD/svg11.dtd">
<!-- Generated by graphviz version 2.40.1 (20161225.0304)
 -->
<!-- Title: Mapping&lt; dim, spacedim &gt; Pages: 1 -->
<svg width="723pt" height="453pt"
 viewBox="0.00 0.00 723.00 452.50" xmlns="http://www.w3.org/2000/svg" xmlns:xlink="http://www.w3.org/1999/xlink">
<g id="graph0" class="graph" transform="scale(1 1) rotate(0) translate(4 448.5)">
<title>Mapping&lt; dim, spacedim &gt;</title>
<polygon fill="#ffffff" stroke="transparent" points="-4,4 -4,-448.5 719,-448.5 719,4 -4,4"/>
<!-- Node0 -->
<g id="node1" class="node">
<title>Node0</title>
<polygon fill="#bfbfbf" stroke="#000000" points="108,-271.5 108,-290.5 260,-290.5 260,-271.5 108,-271.5"/>
<text text-anchor="middle" x="184" y="-278.5" font-family="Helvetica,sans-Serif" font-size="10.00" fill="#000000">Mapping&lt; dim, spacedim &gt;</text>
</g>
<!-- Node2 -->
<g id="node3" class="node">
<title>Node2</title>
<g id="a_node3"><a xlink:href="classMappingCartesian.html" target="_top" xlink:title="MappingCartesian\&lt; dim,\l spacedim \&gt;">
<polygon fill="#ffffff" stroke="#000000" points="354.5,-414 354.5,-444 491.5,-444 491.5,-414 354.5,-414"/>
<text text-anchor="start" x="362.5" y="-432" font-family="Helvetica,sans-Serif" font-size="10.00" fill="#000000">MappingCartesian&lt; dim,</text>
<text text-anchor="middle" x="423" y="-421" font-family="Helvetica,sans-Serif" font-size="10.00" fill="#000000"> spacedim &gt;</text>
</a>
</g>
</g>
<!-- Node0&#45;&gt;Node2 -->
<g id="edge2" class="edge">
<title>Node0&#45;&gt;Node2</title>
<path fill="none" stroke="#191970" d="M200.3073,-297.8433C227.1201,-324.5266 283.3222,-376.3218 341,-404 348.7825,-407.7346 357.2476,-411.0602 365.6866,-413.9705"/>
<polygon fill="#191970" stroke="#191970" points="202.7774,-295.3635 193.253,-290.7228 197.8046,-300.2901 202.7774,-295.3635"/>
</g>
<!-- Node3 -->
<g id="node4" class="node">
<title>Node3</title>
<g id="a_node4"><a xlink:href="classMappingFE.html" target="_top" xlink:title="MappingFE\&lt; dim, spacedim \&gt;">
<polygon fill="#ffffff" stroke="#000000" points="341,-375.5 341,-394.5 505,-394.5 505,-375.5 341,-375.5"/>
<text text-anchor="middle" x="423" y="-382.5" font-family="Helvetica,sans-Serif" font-size="10.00" fill="#000000">MappingFE&lt; dim, spacedim &gt;</text>
</a>
</g>
</g>
<!-- Node0&#45;&gt;Node3 -->
<g id="edge3" class="edge">
<title>Node0&#45;&gt;Node3</title>
<path fill="none" stroke="#191970" d="M206.9464,-295.9928C236.725,-314.8351 290.8253,-347.0021 341,-366 350.8398,-369.7257 361.6311,-372.8586 372.0602,-375.4375"/>
<polygon fill="#191970" stroke="#191970" points="208.8272,-293.0411 198.5169,-290.6023 205.056,-298.9384 208.8272,-293.0411"/>
</g>
<!-- Node4 -->
<g id="node5" class="node">
<title>Node4</title>
<g id="a_node5"><a xlink:href="classMappingFEField_3_01dim_00_01spacedim_00_01VectorType_00_01void_01_4.html" target="_top" xlink:title="MappingFEField\&lt; dim,\l spacedim, VectorType,\l void \&gt;">
<polygon fill="#ffffff" stroke="#000000" points="358.5,-315.5 358.5,-356.5 487.5,-356.5 487.5,-315.5 358.5,-315.5"/>
<text text-anchor="start" x="366.5" y="-344.5" font-family="Helvetica,sans-Serif" font-size="10.00" fill="#000000">MappingFEField&lt; dim,</text>
<text text-anchor="start" x="366.5" y="-333.5" font-family="Helvetica,sans-Serif" font-size="10.00" fill="#000000"> spacedim, VectorType,</text>
<text text-anchor="middle" x="423" y="-322.5" font-family="Helvetica,sans-Serif" font-size="10.00" fill="#000000"> void &gt;</text>
</a>
</g>
</g>
<!-- Node0&#45;&gt;Node4 -->
<g id="edge4" class="edge">
<title>Node0&#45;&gt;Node4</title>
<path fill="none" stroke="#191970" d="M235.1631,-292.7739C271.1649,-301.0589 319.6312,-312.2122 358.3145,-321.1142"/>
<polygon fill="#191970" stroke="#191970" points="235.888,-289.3493 225.3578,-290.5175 234.3181,-296.171 235.888,-289.3493"/>
</g>
<!-- Node5 -->
<g id="node6" class="node">
<title>Node5</title>
<g id="a_node6"><a xlink:href="classMappingManifold.html" target="_top" xlink:title="MappingManifold\&lt; dim,\l spacedim \&gt;">
<polygon fill="#ffffff" stroke="#000000" points="356.5,-266 356.5,-296 489.5,-296 489.5,-266 356.5,-266"/>
<text text-anchor="start" x="364.5" y="-284" font-family="Helvetica,sans-Serif" font-size="10.00" fill="#000000">MappingManifold&lt; dim,</text>
<text text-anchor="middle" x="423" y="-273" font-family="Helvetica,sans-Serif" font-size="10.00" fill="#000000"> spacedim &gt;</text>
</a>
</g>
</g>
<!-- Node0&#45;&gt;Node5 -->
<g id="edge5" class="edge">
<title>Node0&#45;&gt;Node5</title>
<path fill="none" stroke="#191970" d="M270.5554,-281C298.8135,-281 329.7376,-281 356.3036,-281"/>
<polygon fill="#191970" stroke="#191970" points="270.2782,-277.5001 260.2782,-281 270.2782,-284.5001 270.2782,-277.5001"/>
</g>
<!-- Node6 -->
<g id="node7" class="node">
<title>Node6</title>
<g id="a_node7"><a xlink:href="classMappingQ.html" target="_top" xlink:title="MappingQ\&lt; dim, spacedim \&gt;">
<polygon fill="#ffffff" stroke="#000000" points="343,-227.5 343,-246.5 503,-246.5 503,-227.5 343,-227.5"/>
<text text-anchor="middle" x="423" y="-234.5" font-family="Helvetica,sans-Serif" font-size="10.00" fill="#000000">MappingQ&lt; dim, spacedim &gt;</text>
</a>
</g>
</g>
<!-- Node0&#45;&gt;Node6 -->
<g id="edge6" class="edge">
<title>Node0&#45;&gt;Node6</title>
<path fill="none" stroke="#191970" d="M246.0139,-269.5832C284.907,-262.423 334.4654,-253.2993 371.2418,-246.5287"/>
<polygon fill="#191970" stroke="#191970" points="245.0604,-266.1998 235.8594,-271.4527 246.3279,-273.0842 245.0604,-266.1998"/>
</g>
<!-- Node9 -->
<g id="node10" class="node">
<title>Node9</title>
<g id="a_node10"><a xlink:href="classMappingQGeneric.html" target="_top" xlink:title="MappingQGeneric\&lt; dim,\l spacedim \&gt;">
<polygon fill="#ffffff" stroke="#000000" points="355,-154 355,-184 491,-184 491,-154 355,-154"/>
<text text-anchor="start" x="363" y="-172" font-family="Helvetica,sans-Serif" font-size="10.00" fill="#000000">MappingQGeneric&lt; dim,</text>
<text text-anchor="middle" x="423" y="-161" font-family="Helvetica,sans-Serif" font-size="10.00" fill="#000000"> spacedim &gt;</text>
</a>
</g>
</g>
<!-- Node0&#45;&gt;Node9 -->
<g id="edge9" class="edge">
<title>Node0&#45;&gt;Node9</title>
<path fill="none" stroke="#191970" d="M213.6111,-267.1237C258.6658,-246.0102 344.1044,-205.972 390.7053,-184.1339"/>
<polygon fill="#191970" stroke="#191970" points="211.9469,-264.0382 204.377,-271.4509 214.9173,-270.3768 211.9469,-264.0382"/>
</g>
<!-- Node15 -->
<g id="node16" class="node">
<title>Node15</title>
<g id="a_node16"><a xlink:href="classMapping.html" target="_top" xlink:title="Mapping\&lt; dim \&gt;">
<polygon fill="#ffffff" stroke="#000000" points="373.5,-115.5 373.5,-134.5 472.5,-134.5 472.5,-115.5 373.5,-115.5"/>
<text text-anchor="middle" x="423" y="-122.5" font-family="Helvetica,sans-Serif" font-size="10.00" fill="#000000">Mapping&lt; dim &gt;</text>
</a>
</g>
</g>
<!-- Node0&#45;&gt;Node15 -->
<g id="edge15" class="edge">
<title>Node0&#45;&gt;Node15</title>
<path fill="none" stroke="#ffa500" stroke-dasharray="5,2" d="M198.7379,-263.4506C224.4629,-234.0104 280.6081,-174.8735 341,-144 351.0189,-138.8781 362.4293,-135.1185 373.4877,-132.3649"/>
<polygon fill="#ffa500" stroke="#ffa500" points="195.9013,-261.3811 192.0342,-271.245 201.2085,-265.9456 195.9013,-261.3811"/>
<text text-anchor="middle" x="300.5" y="-188" font-family="Helvetica,sans-Serif" font-size="10.00" fill="#000000"> &lt; dim &gt;</text>
</g>
<!-- Node1 -->
<g id="node2" class="node">
<title>Node1</title>
<g id="a_node2"><a xlink:href="classSubscriptor.html" target="_top" xlink:title="Subscriptor">
<polygon fill="#ffffff" stroke="#000000" points="0,-271.5 0,-290.5 71,-290.5 71,-271.5 0,-271.5"/>
<text text-anchor="middle" x="35.5" y="-278.5" font-family="Helvetica,sans-Serif" font-size="10.00" fill="#000000">Subscriptor</text>
</a>
</g>
</g>
<!-- Node1&#45;&gt;Node0 -->
<g id="edge1" class="edge">
<title>Node1&#45;&gt;Node0</title>
<path fill="none" stroke="#191970" d="M81.1106,-281C89.6136,-281 98.7084,-281 107.8417,-281"/>
<polygon fill="#191970" stroke="#191970" points="81.0695,-277.5001 71.0694,-281 81.0694,-284.5001 81.0695,-277.5001"/>
</g>
<!-- Node7 -->
<g id="node8" class="node">
<title>Node7</title>
<g id="a_node8"><a xlink:href="classMappingC1.html" target="_top" xlink:title="MappingC1\&lt; dim, spacedim \&gt;">
<polygon fill="#ffffff" stroke="#000000" points="546,-296.5 546,-315.5 711,-315.5 711,-296.5 546,-296.5"/>
<text text-anchor="middle" x="628.5" y="-303.5" font-family="Helvetica,sans-Serif" font-size="10.00" fill="#000000">MappingC1&lt; dim, spacedim &gt;</text>
</a>
</g>
</g>
<!-- Node6&#45;&gt;Node7 -->
<g id="edge7" class="edge">
<title>Node6&#45;&gt;Node7</title>
<path fill="none" stroke="#191970" d="M489.4764,-249.6387C494.8356,-251.4856 500.0763,-253.5942 505,-256 524.0215,-265.2941 522.9763,-276.7104 542,-286 550.8643,-290.3286 560.7026,-293.7429 570.4741,-296.4295"/>
<polygon fill="#191970" stroke="#191970" points="490.3337,-246.2396 479.7447,-246.5891 488.2405,-252.9193 490.3337,-246.2396"/>
</g>
<!-- Node8 -->
<g id="node9" class="node">
<title>Node8</title>
<g id="a_node9"><a xlink:href="classMappingQEulerian.html" target="_top" xlink:title="MappingQEulerian\&lt; dim,\l spacedim \&gt;">
<polygon fill="#ffffff" stroke="#000000" points="559.5,-247 559.5,-277 697.5,-277 697.5,-247 559.5,-247"/>
<text text-anchor="start" x="567.5" y="-265" font-family="Helvetica,sans-Serif" font-size="10.00" fill="#000000">MappingQEulerian&lt; dim,</text>
<text text-anchor="middle" x="628.5" y="-254" font-family="Helvetica,sans-Serif" font-size="10.00" fill="#000000"> spacedim &gt;</text>
</a>
</g>
</g>
<!-- Node6&#45;&gt;Node8 -->
<g id="edge8" class="edge">
<title>Node6&#45;&gt;Node8</title>
<path fill="none" stroke="#191970" d="M511.6482,-247.7844C527.5562,-249.7197 543.9238,-251.7109 559.1867,-253.5677"/>
<polygon fill="#191970" stroke="#191970" points="511.6265,-244.2561 501.277,-246.5227 510.7811,-251.2049 511.6265,-244.2561"/>
</g>
<!-- Node10 -->
<g id="node11" class="node">
<title>Node10</title>
<g id="a_node11"><a xlink:href="classMappingC1_1_1MappingC1Generic.html" target="_top" xlink:title="MappingC1\&lt; dim, spacedim\l \&gt;::MappingC1Generic">
<polygon fill="#ffffff" stroke="#000000" points="551.5,-198 551.5,-228 705.5,-228 705.5,-198 551.5,-198"/>
<text text-anchor="start" x="559.5" y="-216" font-family="Helvetica,sans-Serif" font-size="10.00" fill="#000000">MappingC1&lt; dim, spacedim</text>
<text text-anchor="middle" x="628.5" y="-205" font-family="Helvetica,sans-Serif" font-size="10.00" fill="#000000"> &gt;::MappingC1Generic</text>
</a>
</g>
</g>
<!-- Node9&#45;&gt;Node10 -->
<g id="edge10" class="edge">
<title>Node9&#45;&gt;Node10</title>
<path fill="none" stroke="#191970" d="M501.1667,-185.7364C519.9973,-189.7683 539.9981,-194.0507 558.4324,-197.9977"/>
<polygon fill="#191970" stroke="#191970" points="501.6543,-182.2616 491.1431,-183.5902 500.1886,-189.1064 501.6543,-182.2616"/>
</g>
<!-- Node11 -->
<g id="node12" class="node">
<title>Node11</title>
<g id="a_node12"><a xlink:href="classMappingQ1.html" target="_top" xlink:title="MappingQ1\&lt; dim, spacedim \&gt;">
<polygon fill="#ffffff" stroke="#000000" points="545.5,-159.5 545.5,-178.5 711.5,-178.5 711.5,-159.5 545.5,-159.5"/>
<text text-anchor="middle" x="628.5" y="-166.5" font-family="Helvetica,sans-Serif" font-size="10.00" fill="#000000">MappingQ1&lt; dim, spacedim &gt;</text>
</a>
</g>
</g>
<!-- Node9&#45;&gt;Node11 -->
<g id="edge11" class="edge">
<title>Node9&#45;&gt;Node11</title>
<path fill="none" stroke="#191970" d="M501.4271,-169C515.7361,-169 530.7128,-169 545.1583,-169"/>
<polygon fill="#191970" stroke="#191970" points="501.1431,-165.5001 491.1431,-169 501.1431,-172.5001 501.1431,-165.5001"/>
</g>
<!-- Node12 -->
<g id="node13" class="node">
<title>Node12</title>
<g id="a_node13"><a xlink:href="classMappingQ1Eulerian.html" target="_top" xlink:title="MappingQ1Eulerian\&lt;\l dim, spacedim \&gt;">
<polygon fill="#ffffff" stroke="#000000" points="569,-110 569,-140 688,-140 688,-110 569,-110"/>
<text text-anchor="start" x="577" y="-128" font-family="Helvetica,sans-Serif" font-size="10.00" fill="#000000">MappingQ1Eulerian&lt;</text>
<text text-anchor="middle" x="628.5" y="-117" font-family="Helvetica,sans-Serif" font-size="10.00" fill="#000000"> dim, spacedim &gt;</text>
</a>
</g>
</g>
<!-- Node9&#45;&gt;Node12 -->
<g id="edge12" class="edge">
<title>Node9&#45;&gt;Node12</title>
<path fill="none" stroke="#191970" d="M500.9979,-152.2997C523.4788,-147.4863 547.6406,-142.313 568.821,-137.778"/>
<polygon fill="#191970" stroke="#191970" points="500.1886,-148.8936 491.1431,-154.4098 501.6543,-155.7384 500.1886,-148.8936"/>
</g>
<!-- Node13 -->
<g id="node14" class="node">
<title>Node13</title>
<g id="a_node14"><a xlink:href="classMappingQCache.html" target="_top" xlink:title="MappingQCache\&lt; dim,\l spacedim \&gt;">
<polygon fill="#ffffff" stroke="#000000" points="564.5,-61 564.5,-91 692.5,-91 692.5,-61 564.5,-61"/>
<text text-anchor="start" x="572.5" y="-79" font-family="Helvetica,sans-Serif" font-size="10.00" fill="#000000">MappingQCache&lt; dim,</text>
<text text-anchor="middle" x="628.5" y="-68" font-family="Helvetica,sans-Serif" font-size="10.00" fill="#000000"> spacedim &gt;</text>
</a>
</g>
</g>
<!-- Node9&#45;&gt;Node13 -->
<g id="edge13" class="edge">
<title>Node9&#45;&gt;Node13</title>
<path fill="none" stroke="#191970" d="M495.2359,-149.6715C498.6234,-147.9347 501.8993,-146.0482 505,-144 526.3194,-129.9172 520.5044,-113.8122 542,-100 548.8179,-95.6191 556.4349,-92.0277 564.2452,-89.0859"/>
<polygon fill="#191970" stroke="#191970" points="493.6536,-146.5472 486.0524,-153.9278 496.5971,-152.8983 493.6536,-146.5472"/>
</g>
<!-- Node14 -->
<g id="node15" class="node">
<title>Node14</title>
<g id="a_node15"><a xlink:href="classMappingQEulerian_1_1MappingQEulerianGeneric.html" target="_top" xlink:title="MappingQEulerian\&lt; dim,\l spacedim \&gt;::MappingQEulerian\lGeneric">
<polygon fill="#ffffff" stroke="#000000" points="542,-.5 542,-41.5 715,-41.5 715,-.5 542,-.5"/>
<text text-anchor="start" x="550" y="-29.5" font-family="Helvetica,sans-Serif" font-size="10.00" fill="#000000">MappingQEulerian&lt; dim,</text>
<text text-anchor="start" x="550" y="-18.5" font-family="Helvetica,sans-Serif" font-size="10.00" fill="#000000"> spacedim &gt;::MappingQEulerian</text>
<text text-anchor="middle" x="628.5" y="-7.5" font-family="Helvetica,sans-Serif" font-size="10.00" fill="#000000">Generic</text>
</a>
</g>
</g>
<!-- Node9&#45;&gt;Node14 -->
<g id="edge14" class="edge">
<title>Node9&#45;&gt;Node14</title>
<path fill="none" stroke="#191970" d="M499.6633,-148.3839C501.5249,-147.0154 503.3096,-145.5561 505,-144 537.729,-113.8724 509.8479,-81.7426 542,-51 545.6763,-47.4849 549.7851,-44.3798 554.1608,-41.6371"/>
<polygon fill="#191970" stroke="#191970" points="497.6453,-145.5189 491.0639,-153.8217 501.3865,-151.4353 497.6453,-145.5189"/>
</g>
</g>
</svg>
