<?xml version="1.0" encoding="UTF-8" standalone="no"?>
<!DOCTYPE svg PUBLIC "-//W3C//DTD SVG 1.1//EN"
 "http://www.w3.org/Graphics/SVG/1.1/DTD/svg11.dtd">
<!-- Generated by graphviz version 2.40.1 (20161225.0304)
 -->
<!-- Title: internal::DoFHandlerImplementation::Policy::ParallelDistributed&lt; dim, spacedim &gt; Pages: 1 -->
<svg width="525pt" height="806pt"
 viewBox="0.00 0.00 524.50 806.00" xmlns="http://www.w3.org/2000/svg" xmlns:xlink="http://www.w3.org/1999/xlink">
<g id="graph0" class="graph" transform="scale(1 1) rotate(0) translate(4 802)">
<title>internal::DoFHandlerImplementation::Policy::ParallelDistributed&lt; dim, spacedim &gt;</title>
<polygon fill="#ffffff" stroke="transparent" points="-4,4 -4,-802 520.5,-802 520.5,4 -4,4"/>
<!-- Node2 -->
<g id="node1" class="node">
<title>Node2</title>
<polygon fill="#bfbfbf" stroke="#000000" points="23,-.5 23,-123.5 196,-123.5 196,-.5 23,-.5"/>
<text text-anchor="start" x="31" y="-111.5" font-family="Helvetica,sans-Serif" font-size="10.00" fill="#000000">internal::DoFHandlerImplementation</text>
<text text-anchor="start" x="31" y="-100.5" font-family="Helvetica,sans-Serif" font-size="10.00" fill="#000000">::Policy::ParallelDistributed</text>
<text text-anchor="middle" x="109.5" y="-89.5" font-family="Helvetica,sans-Serif" font-size="10.00" fill="#000000">&lt; dim, spacedim &gt;</text>
<polyline fill="none" stroke="#000000" points="23,-82.5 196,-82.5 "/>
<text text-anchor="middle" x="109.5" y="-70.5" font-family="Helvetica,sans-Serif" font-size="10.00" fill="#000000"> </text>
<polyline fill="none" stroke="#000000" points="23,-63.5 196,-63.5 "/>
<text text-anchor="start" x="31" y="-51.5" font-family="Helvetica,sans-Serif" font-size="10.00" fill="#000000">+ ParallelDistributed()</text>
<text text-anchor="start" x="31" y="-40.5" font-family="Helvetica,sans-Serif" font-size="10.00" fill="#000000">+ distribute_dofs()</text>
<text text-anchor="start" x="31" y="-29.5" font-family="Helvetica,sans-Serif" font-size="10.00" fill="#000000">+ distribute_mg_dofs()</text>
<text text-anchor="start" x="31" y="-18.5" font-family="Helvetica,sans-Serif" font-size="10.00" fill="#000000">+ renumber_dofs()</text>
<text text-anchor="start" x="31" y="-7.5" font-family="Helvetica,sans-Serif" font-size="10.00" fill="#000000">+ renumber_mg_dofs()</text>
</g>
<!-- Node3 -->
<g id="node2" class="node">
<title>Node3</title>
<g id="a_node2"><a xlink:href="classinternal_1_1DoFHandlerImplementation_1_1Policy_1_1PolicyBase.html" target="_top" xlink:title="{internal::DoFHandlerImplementation\l::Policy::PolicyBase\&lt; dim, spacedim \&gt;\n||+ ~PolicyBase()\l+ distribute_dofs()\l+ distribute_mg_dofs()\l+ renumber_dofs()\l+ renumber_mg_dofs()\l}">
<polygon fill="#ffffff" stroke="#000000" points="0,-204.5 0,-316.5 187,-316.5 187,-204.5 0,-204.5"/>
<text text-anchor="start" x="8" y="-304.5" font-family="Helvetica,sans-Serif" font-size="10.00" fill="#000000">internal::DoFHandlerImplementation</text>
<text text-anchor="middle" x="93.5" y="-293.5" font-family="Helvetica,sans-Serif" font-size="10.00" fill="#000000">::Policy::PolicyBase&lt; dim, spacedim &gt;</text>
<polyline fill="none" stroke="#000000" points="0,-286.5 187,-286.5 "/>
<text text-anchor="middle" x="93.5" y="-274.5" font-family="Helvetica,sans-Serif" font-size="10.00" fill="#000000"> </text>
<polyline fill="none" stroke="#000000" points="0,-267.5 187,-267.5 "/>
<text text-anchor="start" x="8" y="-255.5" font-family="Helvetica,sans-Serif" font-size="10.00" fill="#000000">+ ~PolicyBase()</text>
<text text-anchor="start" x="8" y="-244.5" font-family="Helvetica,sans-Serif" font-size="10.00" fill="#000000">+ distribute_dofs()</text>
<text text-anchor="start" x="8" y="-233.5" font-family="Helvetica,sans-Serif" font-size="10.00" fill="#000000">+ distribute_mg_dofs()</text>
<text text-anchor="start" x="8" y="-222.5" font-family="Helvetica,sans-Serif" font-size="10.00" fill="#000000">+ renumber_dofs()</text>
<text text-anchor="start" x="8" y="-211.5" font-family="Helvetica,sans-Serif" font-size="10.00" fill="#000000">+ renumber_mg_dofs()</text>
</a>
</g>
</g>
<!-- Node3&#45;&gt;Node2 -->
<g id="edge1" class="edge">
<title>Node3&#45;&gt;Node2</title>
<path fill="none" stroke="#191970" d="M98.8489,-194.1402C100.687,-171.3359 102.7357,-145.9198 104.5414,-123.5172"/>
<polygon fill="none" stroke="#191970" points="95.3356,-194.1649 98.0208,-204.4138 102.313,-194.7274 95.3356,-194.1649"/>
</g>
<!-- Node4 -->
<g id="node3" class="node">
<title>Node4</title>
<g id="a_node3"><a xlink:href="classSmartPointer.html" target="_top" xlink:title="{SmartPointer\&lt; DoFHandler\l\&lt; dim, spacedim \&gt; \&gt;\n||+ SmartPointer()\l+ SmartPointer()\l+ SmartPointer()\l+ SmartPointer()\l+ SmartPointer()\l+ ~SmartPointer()\l+ operator=()\l+ operator=()\l+ operator=()\l+ clear()\land 6 more...\l}">
<polygon fill="#ffffff" stroke="#000000" points="205,-171.5 205,-349.5 340,-349.5 340,-171.5 205,-171.5"/>
<text text-anchor="start" x="213" y="-337.5" font-family="Helvetica,sans-Serif" font-size="10.00" fill="#000000">SmartPointer&lt; DoFHandler</text>
<text text-anchor="middle" x="272.5" y="-326.5" font-family="Helvetica,sans-Serif" font-size="10.00" fill="#000000">&lt; dim, spacedim &gt; &gt;</text>
<polyline fill="none" stroke="#000000" points="205,-319.5 340,-319.5 "/>
<text text-anchor="middle" x="272.5" y="-307.5" font-family="Helvetica,sans-Serif" font-size="10.00" fill="#000000"> </text>
<polyline fill="none" stroke="#000000" points="205,-300.5 340,-300.5 "/>
<text text-anchor="start" x="213" y="-288.5" font-family="Helvetica,sans-Serif" font-size="10.00" fill="#000000">+ SmartPointer()</text>
<text text-anchor="start" x="213" y="-277.5" font-family="Helvetica,sans-Serif" font-size="10.00" fill="#000000">+ SmartPointer()</text>
<text text-anchor="start" x="213" y="-266.5" font-family="Helvetica,sans-Serif" font-size="10.00" fill="#000000">+ SmartPointer()</text>
<text text-anchor="start" x="213" y="-255.5" font-family="Helvetica,sans-Serif" font-size="10.00" fill="#000000">+ SmartPointer()</text>
<text text-anchor="start" x="213" y="-244.5" font-family="Helvetica,sans-Serif" font-size="10.00" fill="#000000">+ SmartPointer()</text>
<text text-anchor="start" x="213" y="-233.5" font-family="Helvetica,sans-Serif" font-size="10.00" fill="#000000">+ ~SmartPointer()</text>
<text text-anchor="start" x="213" y="-222.5" font-family="Helvetica,sans-Serif" font-size="10.00" fill="#000000">+ operator=()</text>
<text text-anchor="start" x="213" y="-211.5" font-family="Helvetica,sans-Serif" font-size="10.00" fill="#000000">+ operator=()</text>
<text text-anchor="start" x="213" y="-200.5" font-family="Helvetica,sans-Serif" font-size="10.00" fill="#000000">+ operator=()</text>
<text text-anchor="start" x="213" y="-189.5" font-family="Helvetica,sans-Serif" font-size="10.00" fill="#000000">+ clear()</text>
<text text-anchor="start" x="213" y="-178.5" font-family="Helvetica,sans-Serif" font-size="10.00" fill="#000000">and 6 more...</text>
</a>
</g>
</g>
<!-- Node4&#45;&gt;Node2 -->
<g id="edge2" class="edge">
<title>Node4&#45;&gt;Node2</title>
<path fill="none" stroke="#404040" d="M204.7894,-178.0426C192.5198,-163.1008 179.8208,-147.6361 167.8487,-133.0565"/>
<polygon fill="none" stroke="#404040" points="167.7134,-132.8918 160.8144,-130.7933 160.098,-123.6178 166.997,-125.7163 167.7134,-132.8918"/>
<text text-anchor="middle" x="210" y="-145" font-family="Helvetica,sans-Serif" font-size="10.00" fill="#000000"> &#45;dof_handler</text>
</g>
<!-- Node5 -->
<g id="node4" class="node">
<title>Node5</title>
<g id="a_node4"><a xlink:title="STL class. ">
<polygon fill="#ffffff" stroke="#bfbfbf" points="282.5,-634.5 282.5,-691.5 342.5,-691.5 342.5,-634.5 282.5,-634.5"/>
<text text-anchor="middle" x="312.5" y="-679.5" font-family="Helvetica,sans-Serif" font-size="10.00" fill="#000000">std::string</text>
<polyline fill="none" stroke="#bfbfbf" points="282.5,-672.5 342.5,-672.5 "/>
<text text-anchor="middle" x="312.5" y="-660.5" font-family="Helvetica,sans-Serif" font-size="10.00" fill="#000000"> </text>
<polyline fill="none" stroke="#bfbfbf" points="282.5,-653.5 342.5,-653.5 "/>
<text text-anchor="middle" x="312.5" y="-641.5" font-family="Helvetica,sans-Serif" font-size="10.00" fill="#000000"> </text>
</a>
</g>
</g>
<!-- Node5&#45;&gt;Node4 -->
<g id="edge3" class="edge">
<title>Node5&#45;&gt;Node4</title>
<path fill="none" stroke="#404040" d="M315.8519,-634.223C321.3009,-581.1025 329.8309,-464.2737 312.5,-368 312.107,-365.8166 311.6724,-363.6197 311.2006,-361.4145"/>
<polygon fill="none" stroke="#404040" points="311.1585,-361.2395 305.8644,-356.3433 308.3479,-349.5733 313.6419,-354.4695 311.1585,-361.2395"/>
<text text-anchor="middle" x="329.5" y="-489.5" font-family="Helvetica,sans-Serif" font-size="10.00" fill="#000000"> &#45;id</text>
</g>
<!-- Node9 -->
<g id="node8" class="node">
<title>Node9</title>
<g id="a_node8"><a xlink:href="classSmartPointer.html" target="_top" xlink:title="{SmartPointer\&lt; T, P \&gt;\n||+ SmartPointer()\l+ SmartPointer()\l+ SmartPointer()\l+ SmartPointer()\l+ SmartPointer()\l+ ~SmartPointer()\l+ operator=()\l+ operator=()\l+ operator=()\l+ clear()\land 6 more...\l}">
<polygon fill="#ffffff" stroke="#000000" points="180.5,-408.5 180.5,-575.5 290.5,-575.5 290.5,-408.5 180.5,-408.5"/>
<text text-anchor="middle" x="235.5" y="-563.5" font-family="Helvetica,sans-Serif" font-size="10.00" fill="#000000">SmartPointer&lt; T, P &gt;</text>
<polyline fill="none" stroke="#000000" points="180.5,-556.5 290.5,-556.5 "/>
<text text-anchor="middle" x="235.5" y="-544.5" font-family="Helvetica,sans-Serif" font-size="10.00" fill="#000000"> </text>
<polyline fill="none" stroke="#000000" points="180.5,-537.5 290.5,-537.5 "/>
<text text-anchor="start" x="188.5" y="-525.5" font-family="Helvetica,sans-Serif" font-size="10.00" fill="#000000">+ SmartPointer()</text>
<text text-anchor="start" x="188.5" y="-514.5" font-family="Helvetica,sans-Serif" font-size="10.00" fill="#000000">+ SmartPointer()</text>
<text text-anchor="start" x="188.5" y="-503.5" font-family="Helvetica,sans-Serif" font-size="10.00" fill="#000000">+ SmartPointer()</text>
<text text-anchor="start" x="188.5" y="-492.5" font-family="Helvetica,sans-Serif" font-size="10.00" fill="#000000">+ SmartPointer()</text>
<text text-anchor="start" x="188.5" y="-481.5" font-family="Helvetica,sans-Serif" font-size="10.00" fill="#000000">+ SmartPointer()</text>
<text text-anchor="start" x="188.5" y="-470.5" font-family="Helvetica,sans-Serif" font-size="10.00" fill="#000000">+ ~SmartPointer()</text>
<text text-anchor="start" x="188.5" y="-459.5" font-family="Helvetica,sans-Serif" font-size="10.00" fill="#000000">+ operator=()</text>
<text text-anchor="start" x="188.5" y="-448.5" font-family="Helvetica,sans-Serif" font-size="10.00" fill="#000000">+ operator=()</text>
<text text-anchor="start" x="188.5" y="-437.5" font-family="Helvetica,sans-Serif" font-size="10.00" fill="#000000">+ operator=()</text>
<text text-anchor="start" x="188.5" y="-426.5" font-family="Helvetica,sans-Serif" font-size="10.00" fill="#000000">+ clear()</text>
<text text-anchor="start" x="188.5" y="-415.5" font-family="Helvetica,sans-Serif" font-size="10.00" fill="#000000">and 6 more...</text>
</a>
</g>
</g>
<!-- Node5&#45;&gt;Node9 -->
<g id="edge8" class="edge">
<title>Node5&#45;&gt;Node9</title>
<path fill="none" stroke="#404040" d="M299.6119,-634.3784C293.6065,-621.0416 286.0794,-604.3257 278.3152,-587.0832"/>
<polygon fill="none" stroke="#404040" points="278.1195,-586.6485 272.0087,-582.8199 273.1924,-575.7066 279.3033,-579.5352 278.1195,-586.6485"/>
<text text-anchor="middle" x="296.5" y="-602.5" font-family="Helvetica,sans-Serif" font-size="10.00" fill="#000000"> &#45;id</text>
</g>
<!-- Node6 -->
<g id="node5" class="node">
<title>Node6</title>
<g id="a_node5"><a xlink:title="STL class. ">
<polygon fill="#ffffff" stroke="#bfbfbf" points="265,-729.5 265,-797.5 360,-797.5 360,-729.5 265,-729.5"/>
<text text-anchor="start" x="273" y="-785.5" font-family="Helvetica,sans-Serif" font-size="10.00" fill="#000000">std::basic_string&lt;</text>
<text text-anchor="middle" x="312.5" y="-774.5" font-family="Helvetica,sans-Serif" font-size="10.00" fill="#000000"> char &gt;</text>
<polyline fill="none" stroke="#bfbfbf" points="265,-767.5 360,-767.5 "/>
<text text-anchor="middle" x="312.5" y="-755.5" font-family="Helvetica,sans-Serif" font-size="10.00" fill="#000000"> </text>
<polyline fill="none" stroke="#bfbfbf" points="265,-748.5 360,-748.5 "/>
<text text-anchor="middle" x="312.5" y="-736.5" font-family="Helvetica,sans-Serif" font-size="10.00" fill="#000000"> </text>
</a>
</g>
</g>
<!-- Node6&#45;&gt;Node5 -->
<g id="edge4" class="edge">
<title>Node6&#45;&gt;Node5</title>
<path fill="none" stroke="#191970" d="M312.5,-719.4301C312.5,-710.0073 312.5,-700.2901 312.5,-691.6312"/>
<polygon fill="none" stroke="#191970" points="309.0001,-719.4752 312.5,-729.4753 316.0001,-719.4753 309.0001,-719.4752"/>
</g>
<!-- Node7 -->
<g id="node6" class="node">
<title>Node7</title>
<polygon fill="#ffffff" stroke="#bfbfbf" points="55.5,-634.5 55.5,-691.5 137.5,-691.5 137.5,-634.5 55.5,-634.5"/>
<text text-anchor="middle" x="96.5" y="-679.5" font-family="Helvetica,sans-Serif" font-size="10.00" fill="#000000">atomic&lt; bool &gt;</text>
<polyline fill="none" stroke="#bfbfbf" points="55.5,-672.5 137.5,-672.5 "/>
<text text-anchor="middle" x="96.5" y="-660.5" font-family="Helvetica,sans-Serif" font-size="10.00" fill="#000000"> </text>
<polyline fill="none" stroke="#bfbfbf" points="55.5,-653.5 137.5,-653.5 "/>
<text text-anchor="middle" x="96.5" y="-641.5" font-family="Helvetica,sans-Serif" font-size="10.00" fill="#000000"> </text>
</g>
<!-- Node7&#45;&gt;Node4 -->
<g id="edge5" class="edge">
<title>Node7&#45;&gt;Node4</title>
<path fill="none" stroke="#404040" d="M86.216,-634.1263C70.3127,-584.0864 45.7864,-479.7384 88.5,-408 116.1734,-361.522 153.3889,-383.9512 195.5,-350 195.5997,-349.9196 195.6994,-349.839 195.7991,-349.7584"/>
<polygon fill="none" stroke="#404040" points="195.8662,-349.7008 197.8149,-342.758 204.9732,-341.8865 203.0245,-348.8293 195.8662,-349.7008"/>
<text text-anchor="start" x="88.5" y="-495" font-family="Helvetica,sans-Serif" font-size="10.00" fill="#000000"> &#45;pointed_to_object</text>
<text text-anchor="middle" x="130" y="-484" font-family="Helvetica,sans-Serif" font-size="10.00" fill="#000000">_is_alive</text>
</g>
<!-- Node7&#45;&gt;Node9 -->
<g id="edge9" class="edge">
<title>Node7&#45;&gt;Node9</title>
<path fill="none" stroke="#404040" d="M116.6397,-634.4378C125.9446,-621.7351 137.3795,-606.7921 148.5,-594 155.9226,-585.4616 158.9003,-584.3812 166.5,-576 168.354,-573.9553 170.2214,-571.8701 172.0946,-569.7556"/>
<polygon fill="none" stroke="#404040" points="172.4292,-569.3724 173.3619,-562.2218 180.3212,-560.3326 179.3884,-567.4831 172.4292,-569.3724"/>
<text text-anchor="start" x="148.5" y="-608" font-family="Helvetica,sans-Serif" font-size="10.00" fill="#000000"> &#45;pointed_to_object</text>
<text text-anchor="middle" x="190" y="-597" font-family="Helvetica,sans-Serif" font-size="10.00" fill="#000000">_is_alive</text>
</g>
<!-- Node8 -->
<g id="node7" class="node">
<title>Node8</title>
<polygon fill="#ffffff" stroke="#bfbfbf" points="358.5,-463.5 358.5,-520.5 516.5,-520.5 516.5,-463.5 358.5,-463.5"/>
<text text-anchor="middle" x="437.5" y="-508.5" font-family="Helvetica,sans-Serif" font-size="10.00" fill="#000000">DoFHandler&lt; dim, spacedim &gt; *</text>
<polyline fill="none" stroke="#bfbfbf" points="358.5,-501.5 516.5,-501.5 "/>
<text text-anchor="middle" x="437.5" y="-489.5" font-family="Helvetica,sans-Serif" font-size="10.00" fill="#000000"> </text>
<polyline fill="none" stroke="#bfbfbf" points="358.5,-482.5 516.5,-482.5 "/>
<text text-anchor="middle" x="437.5" y="-470.5" font-family="Helvetica,sans-Serif" font-size="10.00" fill="#000000"> </text>
</g>
<!-- Node8&#45;&gt;Node4 -->
<g id="edge6" class="edge">
<title>Node8&#45;&gt;Node4</title>
<path fill="none" stroke="#404040" d="M416.9363,-463.1484C398.3398,-437.0571 369.8491,-397.0837 343.0711,-359.5134"/>
<polygon fill="none" stroke="#404040" points="342.9066,-359.2825 336.1668,-356.7182 335.9416,-349.5105 342.6814,-352.0749 342.9066,-359.2825"/>
<text text-anchor="middle" x="364.5" y="-376.5" font-family="Helvetica,sans-Serif" font-size="10.00" fill="#000000"> &#45;t</text>
</g>
<!-- Node9&#45;&gt;Node4 -->
<g id="edge7" class="edge">
<title>Node9&#45;&gt;Node4</title>
<path fill="none" stroke="#ffa500" d="M216.2882,-398.0356C216.3078,-387.8461 217.2455,-377.6713 219.5,-368 220.9172,-361.9205 222.7301,-355.7897 224.8265,-349.7029"/>
<polygon fill="#ffa500" stroke="#ffa500" points="212.7942,-398.309 216.56,-408.2119 219.7917,-398.122 212.7942,-398.309"/>
<text text-anchor="start" x="219.5" y="-382" font-family="Helvetica,sans-Serif" font-size="10.00" fill="#000000"> &lt; DoFHandler&lt; dim,</text>
<text text-anchor="middle" x="266" y="-371" font-family="Helvetica,sans-Serif" font-size="10.00" fill="#000000"> spacedim &gt; &gt;</text>
</g>
<!-- Node10 -->
<g id="node9" class="node">
<title>Node10</title>
<polygon fill="#ffffff" stroke="#bfbfbf" points="221,-634.5 221,-691.5 250,-691.5 250,-634.5 221,-634.5"/>
<text text-anchor="middle" x="235.5" y="-679.5" font-family="Helvetica,sans-Serif" font-size="10.00" fill="#000000">T</text>
<polyline fill="none" stroke="#bfbfbf" points="221,-672.5 250,-672.5 "/>
<text text-anchor="middle" x="235.5" y="-660.5" font-family="Helvetica,sans-Serif" font-size="10.00" fill="#000000"> </text>
<polyline fill="none" stroke="#bfbfbf" points="221,-653.5 250,-653.5 "/>
<text text-anchor="middle" x="235.5" y="-641.5" font-family="Helvetica,sans-Serif" font-size="10.00" fill="#000000"> </text>
</g>
<!-- Node10&#45;&gt;Node9 -->
<g id="edge10" class="edge">
<title>Node10&#45;&gt;Node9</title>
<path fill="none" stroke="#404040" d="M235.5,-634.3784C235.5,-621.2957 235.5,-604.9612 235.5,-588.0679"/>
<polygon fill="none" stroke="#404040" points="235.5001,-587.7066 231.5,-581.7066 235.5,-575.7066 239.5,-581.7065 235.5001,-587.7066"/>
<text text-anchor="middle" x="240.5" y="-602.5" font-family="Helvetica,sans-Serif" font-size="10.00" fill="#000000"> &#45;t</text>
</g>
</g>
</svg>
