<?xml version="1.0" encoding="UTF-8" standalone="no"?>
<!DOCTYPE svg PUBLIC "-//W3C//DTD SVG 1.1//EN"
 "http://www.w3.org/Graphics/SVG/1.1/DTD/svg11.dtd">
<!-- Generated by graphviz version 2.40.1 (20161225.0304)
 -->
<!-- Title: ChunkSparseMatrixIterators::Iterator&lt; number, Constness &gt; Pages: 1 -->
<svg width="169pt" height="314pt"
 viewBox="0.00 0.00 169.00 314.00" xmlns="http://www.w3.org/2000/svg" xmlns:xlink="http://www.w3.org/1999/xlink">
<g id="graph0" class="graph" transform="scale(1 1) rotate(0) translate(4 310)">
<title>ChunkSparseMatrixIterators::Iterator&lt; number, Constness &gt;</title>
<polygon fill="#ffffff" stroke="transparent" points="-4,4 -4,-310 165,-310 165,4 -4,4"/>
<!-- Node1 -->
<g id="node1" class="node">
<title>Node1</title>
<polygon fill="#bfbfbf" stroke="#000000" points="2,-.5 2,-200.5 159,-200.5 159,-.5 2,-.5"/>
<text text-anchor="start" x="10" y="-188.5" font-family="Helvetica,sans-Serif" font-size="10.00" fill="#000000">ChunkSparseMatrixIterators</text>
<text text-anchor="middle" x="80.5" y="-177.5" font-family="Helvetica,sans-Serif" font-size="10.00" fill="#000000">::Iterator&lt; number, Constness &gt;</text>
<polyline fill="none" stroke="#000000" points="2,-170.5 159,-170.5 "/>
<text text-anchor="middle" x="80.5" y="-158.5" font-family="Helvetica,sans-Serif" font-size="10.00" fill="#000000"> </text>
<polyline fill="none" stroke="#000000" points="2,-151.5 159,-151.5 "/>
<text text-anchor="start" x="10" y="-139.5" font-family="Helvetica,sans-Serif" font-size="10.00" fill="#000000">+ Iterator()</text>
<text text-anchor="start" x="10" y="-128.5" font-family="Helvetica,sans-Serif" font-size="10.00" fill="#000000">+ Iterator()</text>
<text text-anchor="start" x="10" y="-117.5" font-family="Helvetica,sans-Serif" font-size="10.00" fill="#000000">+ Iterator()</text>
<text text-anchor="start" x="10" y="-106.5" font-family="Helvetica,sans-Serif" font-size="10.00" fill="#000000">+ operator++()</text>
<text text-anchor="start" x="10" y="-95.5" font-family="Helvetica,sans-Serif" font-size="10.00" fill="#000000">+ operator++()</text>
<text text-anchor="start" x="10" y="-84.5" font-family="Helvetica,sans-Serif" font-size="10.00" fill="#000000">+ operator*()</text>
<text text-anchor="start" x="10" y="-73.5" font-family="Helvetica,sans-Serif" font-size="10.00" fill="#000000">+ operator&#45;&gt;()</text>
<text text-anchor="start" x="10" y="-62.5" font-family="Helvetica,sans-Serif" font-size="10.00" fill="#000000">+ operator==()</text>
<text text-anchor="start" x="10" y="-51.5" font-family="Helvetica,sans-Serif" font-size="10.00" fill="#000000">+ operator!=()</text>
<text text-anchor="start" x="10" y="-40.5" font-family="Helvetica,sans-Serif" font-size="10.00" fill="#000000">+ operator&lt;()</text>
<text text-anchor="start" x="10" y="-29.5" font-family="Helvetica,sans-Serif" font-size="10.00" fill="#000000">+ operator&gt;()</text>
<text text-anchor="start" x="10" y="-18.5" font-family="Helvetica,sans-Serif" font-size="10.00" fill="#000000">+ operator&#45;()</text>
<text text-anchor="start" x="10" y="-7.5" font-family="Helvetica,sans-Serif" font-size="10.00" fill="#000000">+ operator+()</text>
</g>
<!-- Node2 -->
<g id="node2" class="node">
<title>Node2</title>
<polygon fill="#ffffff" stroke="#bfbfbf" points="0,-248.5 0,-305.5 161,-305.5 161,-248.5 0,-248.5"/>
<text text-anchor="middle" x="80.5" y="-293.5" font-family="Helvetica,sans-Serif" font-size="10.00" fill="#000000">Accessor&lt; number, Constness &gt;</text>
<polyline fill="none" stroke="#bfbfbf" points="0,-286.5 161,-286.5 "/>
<text text-anchor="middle" x="80.5" y="-274.5" font-family="Helvetica,sans-Serif" font-size="10.00" fill="#000000"> </text>
<polyline fill="none" stroke="#bfbfbf" points="0,-267.5 161,-267.5 "/>
<text text-anchor="middle" x="80.5" y="-255.5" font-family="Helvetica,sans-Serif" font-size="10.00" fill="#000000"> </text>
</g>
<!-- Node2&#45;&gt;Node1 -->
<g id="edge1" class="edge">
<title>Node2&#45;&gt;Node1</title>
<path fill="none" stroke="#404040" d="M80.5,-248.2494C80.5,-238.0034 80.5,-225.7546 80.5,-212.7535"/>
<polygon fill="none" stroke="#404040" points="80.5001,-212.6381 76.5,-206.6381 80.5,-200.6381 84.5,-206.6381 80.5001,-212.6381"/>
<text text-anchor="middle" x="103.5" y="-222" font-family="Helvetica,sans-Serif" font-size="10.00" fill="#000000"> &#45;accessor</text>
</g>
</g>
</svg>
