<?xml version="1.0" encoding="UTF-8" standalone="no"?>
<!DOCTYPE svg PUBLIC "-//W3C//DTD SVG 1.1//EN"
 "http://www.w3.org/Graphics/SVG/1.1/DTD/svg11.dtd">
<!-- Generated by graphviz version 2.40.1 (20161225.0304)
 -->
<!-- Title: DataPostprocessor&lt; dim &gt; Pages: 1 -->
<!--zoomable 795 -->
<svg id="main" version="1.1" xmlns="http://www.w3.org/2000/svg" xmlns:xlink="http://www.w3.org/1999/xlink" xml:space="preserve" onload="init(evt)">
<style type="text/css"><![CDATA[
.edge:hover path { stroke: red; }
.edge:hover polygon { stroke: red; fill: red; }
]]></style>
<script type="text/javascript"><![CDATA[
var edges = document.getElementsByTagName('g');
if (edges && edges.length) {
  for (var i=0;i<edges.length;i++) {
    if (edges[i].id.substr(0,4)=='edge') {
      edges[i].setAttribute('class','edge');
    }
  }
}
]]></script>
        <defs>
                <circle id="rim" cx="0" cy="0" r="7"/>
                <circle id="rim2" cx="0" cy="0" r="3.5"/>
                <g id="zoomPlus">
                        <use xlink:href="#rim" fill="#404040">
                                <set attributeName="fill" to="#808080" begin="zoomplus.mouseover" end="zoomplus.mouseout"/>
                        </use>
                        <path d="M-4,0h8M0,-4v8" fill="none" stroke="white" stroke-width="1.5" pointer-events="none"/>
                </g>
                <g id="zoomMin">
                        <use xlink:href="#rim" fill="#404040">
                                <set attributeName="fill" to="#808080" begin="zoomminus.mouseover" end="zoomminus.mouseout"/>
                        </use>
                        <path d="M-4,0h8" fill="none" stroke="white" stroke-width="1.5" pointer-events="none"/>
                </g>
                <g id="dirArrow">
                        <path fill="none" stroke="white" stroke-width="1.5" d="M0,-3.0v7 M-2.5,-0.5L0,-3.0L2.5,-0.5"/>
                </g>
               <g id="resetDef">
                       <use xlink:href="#rim2" fill="#404040">
                               <set attributeName="fill" to="#808080" begin="reset.mouseover" end="reset.mouseout"/>
                       </use>
               </g>
        </defs>

<script type="text/javascript">
var viewWidth = 627;
var viewHeight = 795;
var sectionId = 'dynsection-1';
</script>
<script xlink:href="svgpan.js"/>
<svg id="graph" class="graph">
<g id="viewport">
<title>DataPostprocessor&lt; dim &gt;</title>
<polygon fill="#ffffff" stroke="transparent" points="-4,4 -4,-791 623,-791 623,4 -4,4"/>
<!-- Node6 -->
<g id="node1" class="node">
<title>Node6</title>
<polygon fill="#bfbfbf" stroke="#000000" points="346,-.5 346,-134.5 489,-134.5 489,-.5 346,-.5"/>
<text text-anchor="start" x="354" y="-122.5" font-family="Helvetica,sans-Serif" font-size="10.00" fill="#000000">DataPostprocessor&lt;</text>
<text text-anchor="middle" x="417.5" y="-111.5" font-family="Helvetica,sans-Serif" font-size="10.00" fill="#000000"> dim &gt;</text>
<polyline fill="none" stroke="#000000" points="346,-104.5 489,-104.5 "/>
<text text-anchor="middle" x="417.5" y="-92.5" font-family="Helvetica,sans-Serif" font-size="10.00" fill="#000000"> </text>
<polyline fill="none" stroke="#000000" points="346,-85.5 489,-85.5 "/>
<text text-anchor="start" x="354" y="-73.5" font-family="Helvetica,sans-Serif" font-size="10.00" fill="#000000">+ ~DataPostprocessor()</text>
<text text-anchor="start" x="354" y="-62.5" font-family="Helvetica,sans-Serif" font-size="10.00" fill="#000000">+ evaluate_scalar_field()</text>
<text text-anchor="start" x="354" y="-51.5" font-family="Helvetica,sans-Serif" font-size="10.00" fill="#000000">+ evaluate_vector_field()</text>
<text text-anchor="start" x="354" y="-40.5" font-family="Helvetica,sans-Serif" font-size="10.00" fill="#000000">+ get_names()</text>
<text text-anchor="start" x="354" y="-29.5" font-family="Helvetica,sans-Serif" font-size="10.00" fill="#000000">+ get_data_component</text>
<text text-anchor="start" x="354" y="-18.5" font-family="Helvetica,sans-Serif" font-size="10.00" fill="#000000">_interpretation()</text>
<text text-anchor="start" x="354" y="-7.5" font-family="Helvetica,sans-Serif" font-size="10.00" fill="#000000">+ get_needed_update_flags()</text>
</g>
<!-- Node7 -->
<g id="node2" class="node">
<title>Node7</title>
<g id="a_node2"><a xlink:href="classSubscriptor.html" target="_top" xlink:title="{Subscriptor\n||+ Subscriptor()\l+ Subscriptor()\l+ Subscriptor()\l+ ~Subscriptor()\l+ operator=()\l+ operator=()\l+ serialize()\l+ subscribe()\l+ unsubscribe()\l+ n_subscriptions()\l+ list_subscribers()\l+ list_subscribers()\l+ ExcInUse()\l+ ExcNoSubscriber()\l&#45; check_no_subscribers()\l* subscribe()\l* unsubscribe()\l* n_subscriptions()\l* list_subscribers()\l* list_subscribers()\l}">
<polygon fill="#ffffff" stroke="#000000" points="354.5,-172.5 354.5,-438.5 480.5,-438.5 480.5,-172.5 354.5,-172.5"/>
<text text-anchor="middle" x="417.5" y="-426.5" font-family="Helvetica,sans-Serif" font-size="10.00" fill="#000000">Subscriptor</text>
<polyline fill="none" stroke="#000000" points="354.5,-419.5 480.5,-419.5 "/>
<text text-anchor="middle" x="417.5" y="-407.5" font-family="Helvetica,sans-Serif" font-size="10.00" fill="#000000"> </text>
<polyline fill="none" stroke="#000000" points="354.5,-400.5 480.5,-400.5 "/>
<text text-anchor="start" x="362.5" y="-388.5" font-family="Helvetica,sans-Serif" font-size="10.00" fill="#000000">+ Subscriptor()</text>
<text text-anchor="start" x="362.5" y="-377.5" font-family="Helvetica,sans-Serif" font-size="10.00" fill="#000000">+ Subscriptor()</text>
<text text-anchor="start" x="362.5" y="-366.5" font-family="Helvetica,sans-Serif" font-size="10.00" fill="#000000">+ Subscriptor()</text>
<text text-anchor="start" x="362.5" y="-355.5" font-family="Helvetica,sans-Serif" font-size="10.00" fill="#000000">+ ~Subscriptor()</text>
<text text-anchor="start" x="362.5" y="-344.5" font-family="Helvetica,sans-Serif" font-size="10.00" fill="#000000">+ operator=()</text>
<text text-anchor="start" x="362.5" y="-333.5" font-family="Helvetica,sans-Serif" font-size="10.00" fill="#000000">+ operator=()</text>
<text text-anchor="start" x="362.5" y="-322.5" font-family="Helvetica,sans-Serif" font-size="10.00" fill="#000000">+ serialize()</text>
<text text-anchor="start" x="362.5" y="-311.5" font-family="Helvetica,sans-Serif" font-size="10.00" fill="#000000">+ subscribe()</text>
<text text-anchor="start" x="362.5" y="-300.5" font-family="Helvetica,sans-Serif" font-size="10.00" fill="#000000">+ unsubscribe()</text>
<text text-anchor="start" x="362.5" y="-289.5" font-family="Helvetica,sans-Serif" font-size="10.00" fill="#000000">+ n_subscriptions()</text>
<text text-anchor="start" x="362.5" y="-278.5" font-family="Helvetica,sans-Serif" font-size="10.00" fill="#000000">+ list_subscribers()</text>
<text text-anchor="start" x="362.5" y="-267.5" font-family="Helvetica,sans-Serif" font-size="10.00" fill="#000000">+ list_subscribers()</text>
<text text-anchor="start" x="362.5" y="-256.5" font-family="Helvetica,sans-Serif" font-size="10.00" fill="#000000">+ ExcInUse()</text>
<text text-anchor="start" x="362.5" y="-245.5" font-family="Helvetica,sans-Serif" font-size="10.00" fill="#000000">+ ExcNoSubscriber()</text>
<text text-anchor="start" x="362.5" y="-234.5" font-family="Helvetica,sans-Serif" font-size="10.00" fill="#000000">&#45; check_no_subscribers()</text>
<text text-anchor="start" x="362.5" y="-223.5" font-family="Helvetica,sans-Serif" font-size="10.00" fill="#000000">* subscribe()</text>
<text text-anchor="start" x="362.5" y="-212.5" font-family="Helvetica,sans-Serif" font-size="10.00" fill="#000000">* unsubscribe()</text>
<text text-anchor="start" x="362.5" y="-201.5" font-family="Helvetica,sans-Serif" font-size="10.00" fill="#000000">* n_subscriptions()</text>
<text text-anchor="start" x="362.5" y="-190.5" font-family="Helvetica,sans-Serif" font-size="10.00" fill="#000000">* list_subscribers()</text>
<text text-anchor="start" x="362.5" y="-179.5" font-family="Helvetica,sans-Serif" font-size="10.00" fill="#000000">* list_subscribers()</text>
</a>
</g>
</g>
<!-- Node7&#45;&gt;Node6 -->
<g id="edge1" class="edge">
<title>Node7&#45;&gt;Node6</title>
<path fill="none" stroke="#191970" d="M417.5,-161.9703C417.5,-152.5755 417.5,-143.3939 417.5,-134.6738"/>
<polygon fill="none" stroke="#191970" points="414.0001,-162.2366 417.5,-172.2366 421.0001,-162.2366 414.0001,-162.2366"/>
</g>
<!-- Node8 -->
<g id="node3" class="node">
<title>Node8</title>
<polygon fill="#ffffff" stroke="#bfbfbf" points="66.5,-486.5 66.5,-554.5 176.5,-554.5 176.5,-486.5 66.5,-486.5"/>
<text text-anchor="start" x="74.5" y="-542.5" font-family="Helvetica,sans-Serif" font-size="10.00" fill="#000000">std::map&lt; std::string,</text>
<text text-anchor="middle" x="121.5" y="-531.5" font-family="Helvetica,sans-Serif" font-size="10.00" fill="#000000"> unsigned int &gt;</text>
<polyline fill="none" stroke="#bfbfbf" points="66.5,-524.5 176.5,-524.5 "/>
<text text-anchor="middle" x="121.5" y="-512.5" font-family="Helvetica,sans-Serif" font-size="10.00" fill="#000000"> </text>
<polyline fill="none" stroke="#bfbfbf" points="66.5,-505.5 176.5,-505.5 "/>
<text text-anchor="middle" x="121.5" y="-493.5" font-family="Helvetica,sans-Serif" font-size="10.00" fill="#000000"> </text>
</g>
<!-- Node8&#45;&gt;Node7 -->
<g id="edge2" class="edge">
<title>Node8&#45;&gt;Node7</title>
<path fill="none" stroke="#404040" d="M168.4021,-486.4326C215.669,-452.1003 289.2888,-398.6264 344.2543,-358.7021"/>
<polygon fill="none" stroke="#404040" points="344.5808,-358.465 347.0846,-351.7025 354.2899,-351.4127 351.7861,-358.1752 344.5808,-358.465"/>
<text text-anchor="middle" x="233" y="-460" font-family="Helvetica,sans-Serif" font-size="10.00" fill="#000000"> &#45;counter_map</text>
</g>
<!-- Node9 -->
<g id="node4" class="node">
<title>Node9</title>
<g id="a_node4"><a xlink:href="classint.html" target="_top" xlink:title="{int\n||}">
<polygon fill="#ffffff" stroke="#000000" points="0,-613.5 0,-670.5 29,-670.5 29,-613.5 0,-613.5"/>
<text text-anchor="middle" x="14.5" y="-658.5" font-family="Helvetica,sans-Serif" font-size="10.00" fill="#000000">int</text>
<polyline fill="none" stroke="#000000" points="0,-651.5 29,-651.5 "/>
<text text-anchor="middle" x="14.5" y="-639.5" font-family="Helvetica,sans-Serif" font-size="10.00" fill="#000000"> </text>
<polyline fill="none" stroke="#000000" points="0,-632.5 29,-632.5 "/>
<text text-anchor="middle" x="14.5" y="-620.5" font-family="Helvetica,sans-Serif" font-size="10.00" fill="#000000"> </text>
</a>
</g>
</g>
<!-- Node9&#45;&gt;Node8 -->
<g id="edge3" class="edge">
<title>Node9&#45;&gt;Node8</title>
<path fill="none" stroke="#404040" d="M21.3502,-613.4015C25.5642,-600.1055 32.0187,-584.6885 41.5,-573 45.9249,-567.545 51.0704,-562.4598 56.5778,-557.7711"/>
<polygon fill="none" stroke="#404040" points="56.694,-557.6797 58.9358,-550.826 66.1246,-550.2593 63.8828,-557.1131 56.694,-557.6797"/>
<text text-anchor="middle" x="66" y="-581.5" font-family="Helvetica,sans-Serif" font-size="10.00" fill="#000000"> +elements</text>
</g>
<!-- Node10 -->
<g id="node5" class="node">
<title>Node10</title>
<g id="a_node5"><a xlink:title="STL class. ">
<polygon fill="#ffffff" stroke="#bfbfbf" points="47.5,-613.5 47.5,-670.5 107.5,-670.5 107.5,-613.5 47.5,-613.5"/>
<text text-anchor="middle" x="77.5" y="-658.5" font-family="Helvetica,sans-Serif" font-size="10.00" fill="#000000">std::string</text>
<polyline fill="none" stroke="#bfbfbf" points="47.5,-651.5 107.5,-651.5 "/>
<text text-anchor="middle" x="77.5" y="-639.5" font-family="Helvetica,sans-Serif" font-size="10.00" fill="#000000"> </text>
<polyline fill="none" stroke="#bfbfbf" points="47.5,-632.5 107.5,-632.5 "/>
<text text-anchor="middle" x="77.5" y="-620.5" font-family="Helvetica,sans-Serif" font-size="10.00" fill="#000000"> </text>
</a>
</g>
</g>
<!-- Node10&#45;&gt;Node8 -->
<g id="edge4" class="edge">
<title>Node10&#45;&gt;Node8</title>
<path fill="none" stroke="#404040" d="M87.2386,-613.3985C91.529,-600.9569 96.6811,-586.2278 101.5,-573 102.3477,-570.6731 103.224,-568.2913 104.1148,-565.8885"/>
<polygon fill="none" stroke="#404040" points="104.1275,-565.8546 102.4866,-558.8326 108.3373,-554.6172 109.9782,-561.6392 104.1275,-565.8546"/>
<text text-anchor="middle" x="117" y="-581.5" font-family="Helvetica,sans-Serif" font-size="10.00" fill="#000000"> +keys</text>
</g>
<!-- Node11 -->
<g id="node6" class="node">
<title>Node11</title>
<g id="a_node6"><a xlink:title="STL class. ">
<polygon fill="#ffffff" stroke="#bfbfbf" points="29,-718.5 29,-786.5 124,-786.5 124,-718.5 29,-718.5"/>
<text text-anchor="start" x="37" y="-774.5" font-family="Helvetica,sans-Serif" font-size="10.00" fill="#000000">std::basic_string&lt;</text>
<text text-anchor="middle" x="76.5" y="-763.5" font-family="Helvetica,sans-Serif" font-size="10.00" fill="#000000"> char &gt;</text>
<polyline fill="none" stroke="#bfbfbf" points="29,-756.5 124,-756.5 "/>
<text text-anchor="middle" x="76.5" y="-744.5" font-family="Helvetica,sans-Serif" font-size="10.00" fill="#000000"> </text>
<polyline fill="none" stroke="#bfbfbf" points="29,-737.5 124,-737.5 "/>
<text text-anchor="middle" x="76.5" y="-725.5" font-family="Helvetica,sans-Serif" font-size="10.00" fill="#000000"> </text>
</a>
</g>
</g>
<!-- Node11&#45;&gt;Node10 -->
<g id="edge5" class="edge">
<title>Node11&#45;&gt;Node10</title>
<path fill="none" stroke="#191970" d="M76.9021,-708.0661C77.0166,-695.4172 77.1382,-681.9812 77.2416,-670.5519"/>
<polygon fill="none" stroke="#191970" points="73.3989,-708.4134 76.8082,-718.4447 80.3986,-708.4768 73.3989,-708.4134"/>
</g>
<!-- Node12 -->
<g id="node7" class="node">
<title>Node12</title>
<g id="a_node7"><a xlink:title="STL class. ">
<polygon fill="#ffffff" stroke="#bfbfbf" points="125.5,-613.5 125.5,-670.5 217.5,-670.5 217.5,-613.5 125.5,-613.5"/>
<text text-anchor="middle" x="171.5" y="-658.5" font-family="Helvetica,sans-Serif" font-size="10.00" fill="#000000">std::map&lt; K, T &gt;</text>
<polyline fill="none" stroke="#bfbfbf" points="125.5,-651.5 217.5,-651.5 "/>
<text text-anchor="middle" x="171.5" y="-639.5" font-family="Helvetica,sans-Serif" font-size="10.00" fill="#000000"> </text>
<polyline fill="none" stroke="#bfbfbf" points="125.5,-632.5 217.5,-632.5 "/>
<text text-anchor="middle" x="171.5" y="-620.5" font-family="Helvetica,sans-Serif" font-size="10.00" fill="#000000"> </text>
</a>
</g>
</g>
<!-- Node12&#45;&gt;Node8 -->
<g id="edge6" class="edge">
<title>Node12&#45;&gt;Node8</title>
<path fill="none" stroke="#ffa500" d="M155.7657,-603.7657C149.2957,-588.0436 141.8613,-569.9779 135.5744,-554.7007"/>
<polygon fill="#ffa500" stroke="#ffa500" points="152.6084,-605.2906 159.6507,-613.2062 159.0817,-602.6266 152.6084,-605.2906"/>
<text text-anchor="start" x="151.5" y="-587" font-family="Helvetica,sans-Serif" font-size="10.00" fill="#000000"> &lt; std::string, unsigned</text>
<text text-anchor="middle" x="202" y="-576" font-family="Helvetica,sans-Serif" font-size="10.00" fill="#000000"> int &gt;</text>
</g>
<!-- Node13 -->
<g id="node8" class="node">
<title>Node13</title>
<polygon fill="#ffffff" stroke="#bfbfbf" points="142,-724 142,-781 171,-781 171,-724 142,-724"/>
<text text-anchor="middle" x="156.5" y="-769" font-family="Helvetica,sans-Serif" font-size="10.00" fill="#000000">K</text>
<polyline fill="none" stroke="#bfbfbf" points="142,-762 171,-762 "/>
<text text-anchor="middle" x="156.5" y="-750" font-family="Helvetica,sans-Serif" font-size="10.00" fill="#000000"> </text>
<polyline fill="none" stroke="#bfbfbf" points="142,-743 171,-743 "/>
<text text-anchor="middle" x="156.5" y="-731" font-family="Helvetica,sans-Serif" font-size="10.00" fill="#000000"> </text>
</g>
<!-- Node13&#45;&gt;Node12 -->
<g id="edge7" class="edge">
<title>Node13&#45;&gt;Node12</title>
<path fill="none" stroke="#404040" d="M155.2952,-723.9114C155.2648,-712.9384 155.7567,-700.3334 157.5,-689 157.8349,-686.8226 158.2452,-684.6052 158.7121,-682.3782"/>
<polygon fill="none" stroke="#404040" points="158.7573,-682.1956 156.3179,-675.4096 161.6437,-670.5479 164.0831,-677.3339 158.7573,-682.1956"/>
<text text-anchor="middle" x="173" y="-692" font-family="Helvetica,sans-Serif" font-size="10.00" fill="#000000"> +keys</text>
</g>
<!-- Node14 -->
<g id="node9" class="node">
<title>Node14</title>
<polygon fill="#ffffff" stroke="#bfbfbf" points="232,-724 232,-781 261,-781 261,-724 232,-724"/>
<text text-anchor="middle" x="246.5" y="-769" font-family="Helvetica,sans-Serif" font-size="10.00" fill="#000000">T</text>
<polyline fill="none" stroke="#bfbfbf" points="232,-762 261,-762 "/>
<text text-anchor="middle" x="246.5" y="-750" font-family="Helvetica,sans-Serif" font-size="10.00" fill="#000000"> </text>
<polyline fill="none" stroke="#bfbfbf" points="232,-743 261,-743 "/>
<text text-anchor="middle" x="246.5" y="-731" font-family="Helvetica,sans-Serif" font-size="10.00" fill="#000000"> </text>
</g>
<!-- Node14&#45;&gt;Node12 -->
<g id="edge8" class="edge">
<title>Node14&#45;&gt;Node12</title>
<path fill="none" stroke="#404040" d="M231.8612,-730.9322C222.1883,-716.6807 209.2337,-697.5943 197.806,-680.7575"/>
<polygon fill="none" stroke="#404040" points="197.6701,-680.5573 190.9909,-677.8392 190.931,-670.6283 197.6102,-673.3464 197.6701,-680.5573"/>
<text text-anchor="middle" x="234" y="-692" font-family="Helvetica,sans-Serif" font-size="10.00" fill="#000000"> +elements</text>
</g>
<!-- Node19 -->
<g id="node14" class="node">
<title>Node19</title>
<g id="a_node14"><a xlink:title="STL class. ">
<polygon fill="#ffffff" stroke="#bfbfbf" points="238,-613.5 238,-670.5 325,-670.5 325,-613.5 238,-613.5"/>
<text text-anchor="middle" x="281.5" y="-658.5" font-family="Helvetica,sans-Serif" font-size="10.00" fill="#000000">std::vector&lt; T &gt;</text>
<polyline fill="none" stroke="#bfbfbf" points="238,-651.5 325,-651.5 "/>
<text text-anchor="middle" x="281.5" y="-639.5" font-family="Helvetica,sans-Serif" font-size="10.00" fill="#000000"> </text>
<polyline fill="none" stroke="#bfbfbf" points="238,-632.5 325,-632.5 "/>
<text text-anchor="middle" x="281.5" y="-620.5" font-family="Helvetica,sans-Serif" font-size="10.00" fill="#000000"> </text>
</a>
</g>
</g>
<!-- Node14&#45;&gt;Node19 -->
<g id="edge14" class="edge">
<title>Node14&#45;&gt;Node19</title>
<path fill="none" stroke="#404040" d="M255.6045,-723.7559C259.6149,-711.0945 264.3962,-695.9992 268.7524,-682.2459"/>
<polygon fill="none" stroke="#404040" points="268.8176,-682.0401 266.816,-675.1123 272.4411,-670.6002 274.4426,-677.528 268.8176,-682.0401"/>
<text text-anchor="middle" x="291" y="-692" font-family="Helvetica,sans-Serif" font-size="10.00" fill="#000000"> +elements</text>
</g>
<!-- Node15 -->
<g id="node10" class="node">
<title>Node15</title>
<polygon fill="#ffffff" stroke="#bfbfbf" points="359.5,-492 359.5,-549 475.5,-549 475.5,-492 359.5,-492"/>
<text text-anchor="middle" x="417.5" y="-537" font-family="Helvetica,sans-Serif" font-size="10.00" fill="#000000">atomic&lt; unsigned int &gt;</text>
<polyline fill="none" stroke="#bfbfbf" points="359.5,-530 475.5,-530 "/>
<text text-anchor="middle" x="417.5" y="-518" font-family="Helvetica,sans-Serif" font-size="10.00" fill="#000000"> </text>
<polyline fill="none" stroke="#bfbfbf" points="359.5,-511 475.5,-511 "/>
<text text-anchor="middle" x="417.5" y="-499" font-family="Helvetica,sans-Serif" font-size="10.00" fill="#000000"> </text>
</g>
<!-- Node15&#45;&gt;Node7 -->
<g id="edge9" class="edge">
<title>Node15&#45;&gt;Node7</title>
<path fill="none" stroke="#404040" d="M417.5,-491.9497C417.5,-480.3895 417.5,-466.1147 417.5,-450.6501"/>
<polygon fill="none" stroke="#404040" points="417.5001,-450.6176 413.5,-444.6176 417.5,-438.6176 421.5,-444.6175 417.5001,-450.6176"/>
<text text-anchor="middle" x="437" y="-460" font-family="Helvetica,sans-Serif" font-size="10.00" fill="#000000"> &#45;counter</text>
</g>
<!-- Node16 -->
<g id="node11" class="node">
<title>Node16</title>
<polygon fill="#ffffff" stroke="#bfbfbf" points="493.5,-492 493.5,-549 537.5,-549 537.5,-492 493.5,-492"/>
<text text-anchor="middle" x="515.5" y="-537" font-family="Helvetica,sans-Serif" font-size="10.00" fill="#000000">mutex</text>
<polyline fill="none" stroke="#bfbfbf" points="493.5,-530 537.5,-530 "/>
<text text-anchor="middle" x="515.5" y="-518" font-family="Helvetica,sans-Serif" font-size="10.00" fill="#000000"> </text>
<polyline fill="none" stroke="#bfbfbf" points="493.5,-511 537.5,-511 "/>
<text text-anchor="middle" x="515.5" y="-499" font-family="Helvetica,sans-Serif" font-size="10.00" fill="#000000"> </text>
</g>
<!-- Node16&#45;&gt;Node7 -->
<g id="edge10" class="edge">
<title>Node16&#45;&gt;Node7</title>
<path fill="none" stroke="#404040" d="M502.4864,-491.9497C497.1138,-480.1629 490.4548,-465.5539 483.2462,-449.7391"/>
<polygon fill="none" stroke="#404040" points="483.154,-449.5368 477.0257,-445.7362 478.1768,-438.6176 484.3052,-442.4181 483.154,-449.5368"/>
<text text-anchor="middle" x="505.5" y="-460" font-family="Helvetica,sans-Serif" font-size="10.00" fill="#000000"> &#45;mutex</text>
</g>
<!-- Node17 -->
<g id="node12" class="node">
<title>Node17</title>
<polygon fill="#ffffff" stroke="#bfbfbf" points="220,-486.5 220,-554.5 341,-554.5 341,-486.5 220,-486.5"/>
<text text-anchor="start" x="228" y="-542.5" font-family="Helvetica,sans-Serif" font-size="10.00" fill="#000000">std::vector&lt; std::atomic</text>
<text text-anchor="middle" x="280.5" y="-531.5" font-family="Helvetica,sans-Serif" font-size="10.00" fill="#000000">&lt; bool &gt; *&gt;</text>
<polyline fill="none" stroke="#bfbfbf" points="220,-524.5 341,-524.5 "/>
<text text-anchor="middle" x="280.5" y="-512.5" font-family="Helvetica,sans-Serif" font-size="10.00" fill="#000000"> </text>
<polyline fill="none" stroke="#bfbfbf" points="220,-505.5 341,-505.5 "/>
<text text-anchor="middle" x="280.5" y="-493.5" font-family="Helvetica,sans-Serif" font-size="10.00" fill="#000000"> </text>
</g>
<!-- Node17&#45;&gt;Node7 -->
<g id="edge11" class="edge">
<title>Node17&#45;&gt;Node7</title>
<path fill="none" stroke="#404040" d="M302.2081,-486.4326C314.7304,-466.7808 331.2489,-440.8575 347.8571,-414.7936"/>
<polygon fill="none" stroke="#404040" points="348.0179,-414.5411 347.8689,-407.3315 354.4666,-404.421 354.6156,-411.6306 348.0179,-414.5411"/>
<text text-anchor="middle" x="355" y="-460" font-family="Helvetica,sans-Serif" font-size="10.00" fill="#000000"> &#45;validity_pointers</text>
</g>
<!-- Node18 -->
<g id="node13" class="node">
<title>Node18</title>
<polygon fill="#ffffff" stroke="#bfbfbf" points="369,-613.5 369,-670.5 458,-670.5 458,-613.5 369,-613.5"/>
<text text-anchor="middle" x="413.5" y="-658.5" font-family="Helvetica,sans-Serif" font-size="10.00" fill="#000000">atomic&lt; bool &gt; *</text>
<polyline fill="none" stroke="#bfbfbf" points="369,-651.5 458,-651.5 "/>
<text text-anchor="middle" x="413.5" y="-639.5" font-family="Helvetica,sans-Serif" font-size="10.00" fill="#000000"> </text>
<polyline fill="none" stroke="#bfbfbf" points="369,-632.5 458,-632.5 "/>
<text text-anchor="middle" x="413.5" y="-620.5" font-family="Helvetica,sans-Serif" font-size="10.00" fill="#000000"> </text>
</g>
<!-- Node18&#45;&gt;Node17 -->
<g id="edge12" class="edge">
<title>Node18&#45;&gt;Node17</title>
<path fill="none" stroke="#404040" d="M409.9421,-613.422C406.9675,-599.8121 401.5099,-584.1207 391.5,-573 380.1623,-560.4042 371.4851,-562.2998 352.2305,-555.2257"/>
<polygon fill="none" stroke="#404040" points="352.199,-555.2126 345.1204,-556.5891 341.1273,-550.5846 348.2058,-549.208 352.199,-555.2126"/>
<text text-anchor="middle" x="428" y="-581.5" font-family="Helvetica,sans-Serif" font-size="10.00" fill="#000000"> +elements</text>
</g>
<!-- Node19&#45;&gt;Node17 -->
<g id="edge13" class="edge">
<title>Node19&#45;&gt;Node17</title>
<path fill="none" stroke="#ffa500" d="M281.178,-602.8733C281.0503,-587.3628 280.9049,-569.6896 280.7815,-554.7007"/>
<polygon fill="#ffa500" stroke="#ffa500" points="277.6807,-603.2354 281.263,-613.2062 284.6805,-603.1777 277.6807,-603.2354"/>
<text text-anchor="middle" x="336.5" y="-581.5" font-family="Helvetica,sans-Serif" font-size="10.00" fill="#000000"> &lt; std::atomic&lt; bool &gt; *&gt;</text>
</g>
<!-- Node20 -->
<g id="node15" class="node">
<title>Node20</title>
<polygon fill="#ffffff" stroke="#bfbfbf" points="556,-492 556,-549 619,-549 619,-492 556,-492"/>
<text text-anchor="middle" x="587.5" y="-537" font-family="Helvetica,sans-Serif" font-size="10.00" fill="#000000">type_info *</text>
<polyline fill="none" stroke="#bfbfbf" points="556,-530 619,-530 "/>
<text text-anchor="middle" x="587.5" y="-518" font-family="Helvetica,sans-Serif" font-size="10.00" fill="#000000"> </text>
<polyline fill="none" stroke="#bfbfbf" points="556,-511 619,-511 "/>
<text text-anchor="middle" x="587.5" y="-499" font-family="Helvetica,sans-Serif" font-size="10.00" fill="#000000"> </text>
</g>
<!-- Node20&#45;&gt;Node7 -->
<g id="edge15" class="edge">
<title>Node20&#45;&gt;Node7</title>
<path fill="none" stroke="#404040" d="M564.9253,-491.9497C545.2767,-467.0999 515.7096,-429.7063 488.2,-394.9148"/>
<polygon fill="none" stroke="#404040" points="487.9483,-394.5963 481.0892,-392.3708 480.5054,-385.1833 487.3645,-387.4089 487.9483,-394.5963"/>
<text text-anchor="middle" x="568.5" y="-460" font-family="Helvetica,sans-Serif" font-size="10.00" fill="#000000"> &#45;object_info</text>
</g>
</g>
</svg>
        <g id="navigator" transform="translate(0 0)" fill="#404254">
                <rect fill="#f2f5e9" fill-opacity="0.5" stroke="#606060" stroke-width=".5" x="0" y="0" width="60" height="60"/>
                <use id="zoomplus" xlink:href="#zoomPlus" x="17" y="9" onmousedown="handleZoom(evt,'in')"/>
                <use id="zoomminus" xlink:href="#zoomMin" x="42" y="9" onmousedown="handleZoom(evt,'out')"/>
                <use id="reset" xlink:href="#resetDef" x="30" y="36" onmousedown="handleReset()"/>
                <g id="arrowUp" xlink:href="#dirArrow" transform="translate(30 24)" onmousedown="handlePan(0,-1)">
                  <use xlink:href="#rim" fill="#404040">
                        <set attributeName="fill" to="#808080" begin="arrowUp.mouseover" end="arrowUp.mouseout"/>
                  </use>
                  <path fill="none" stroke="white" stroke-width="1.5" d="M0,-3.0v7 M-2.5,-0.5L0,-3.0L2.5,-0.5"/>
                </g>
                <g id="arrowRight" xlink:href="#dirArrow" transform="rotate(90) translate(36 -43)" onmousedown="handlePan(1,0)">
                  <use xlink:href="#rim" fill="#404040">
                        <set attributeName="fill" to="#808080" begin="arrowRight.mouseover" end="arrowRight.mouseout"/>
                  </use>
                  <path fill="none" stroke="white" stroke-width="1.5" d="M0,-3.0v7 M-2.5,-0.5L0,-3.0L2.5,-0.5"/>
                </g>
                <g id="arrowDown" xlink:href="#dirArrow" transform="rotate(180) translate(-30 -48)" onmousedown="handlePan(0,1)">
                  <use xlink:href="#rim" fill="#404040">
                        <set attributeName="fill" to="#808080" begin="arrowDown.mouseover" end="arrowDown.mouseout"/>
                  </use>
                  <path fill="none" stroke="white" stroke-width="1.5" d="M0,-3.0v7 M-2.5,-0.5L0,-3.0L2.5,-0.5"/>
                </g>
                <g id="arrowLeft" xlink:href="#dirArrow" transform="rotate(270) translate(-36 17)" onmousedown="handlePan(-1,0)">
                  <use xlink:href="#rim" fill="#404040">
                        <set attributeName="fill" to="#808080" begin="arrowLeft.mouseover" end="arrowLeft.mouseout"/>
                  </use>
                  <path fill="none" stroke="white" stroke-width="1.5" d="M0,-3.0v7 M-2.5,-0.5L0,-3.0L2.5,-0.5"/>
                </g>
        </g>
        <svg viewBox="0 0 15 15" width="100%" height="30px" preserveAspectRatio="xMaxYMin meet">
         <g id="arrow_out" transform="scale(0.3 0.3)">
          <a xlink:href="classDataPostprocessor__coll__graph_org.svg" target="_base">
           <rect id="button" ry="5" rx="5" y="6" x="6" height="38" width="38"
                fill="#f2f5e9" fill-opacity="0.5" stroke="#606060" stroke-width="1.0"/>
           <path id="arrow"
             d="M 11.500037,31.436501 C 11.940474,20.09759 22.043105,11.32322 32.158766,21.979434 L 37.068811,17.246167 C 37.068811,17.246167 37.088388,32 37.088388,32 L 22.160133,31.978069 C 22.160133,31.978069 26.997745,27.140456 26.997745,27.140456 C 18.528582,18.264221 13.291696,25.230495 11.500037,31.436501 z"
             style="fill:#404040;"/>
          </a>
         </g>
        </svg>
</svg>
