<?xml version="1.0" encoding="UTF-8" standalone="no"?>
<!DOCTYPE svg PUBLIC "-//W3C//DTD SVG 1.1//EN"
 "http://www.w3.org/Graphics/SVG/1.1/DTD/svg11.dtd">
<!-- Generated by graphviz version 2.40.1 (20161225.0304)
 -->
<!-- Title: AutoDerivativeFunction&lt; dim &gt; Pages: 1 -->
<svg width="1487pt" height="165pt"
 viewBox="0.00 0.00 1487.00 165.00" xmlns="http://www.w3.org/2000/svg" xmlns:xlink="http://www.w3.org/1999/xlink">
<g id="graph0" class="graph" transform="scale(1 1) rotate(0) translate(4 161)">
<title>AutoDerivativeFunction&lt; dim &gt;</title>
<polygon fill="#ffffff" stroke="transparent" points="-4,4 -4,-161 1483,-161 1483,4 -4,4"/>
<!-- Node0 -->
<g id="node1" class="node">
<title>Node0</title>
<polygon fill="#bfbfbf" stroke="#000000" points="904,-63.5 904,-93.5 1035,-93.5 1035,-63.5 904,-63.5"/>
<text text-anchor="start" x="912" y="-81.5" font-family="Helvetica,sans-Serif" font-size="10.00" fill="#000000">AutoDerivativeFunction</text>
<text text-anchor="middle" x="969.5" y="-70.5" font-family="Helvetica,sans-Serif" font-size="10.00" fill="#000000">&lt; dim &gt;</text>
</g>
<!-- Node7 -->
<g id="node8" class="node">
<title>Node7</title>
<g id="a_node8"><a xlink:href="classFunctionDerivative.html" target="_top" xlink:title="FunctionDerivative\l\&lt; dim \&gt;">
<polygon fill="#ffffff" stroke="#000000" points="1088.5,-126.5 1088.5,-156.5 1196.5,-156.5 1196.5,-126.5 1088.5,-126.5"/>
<text text-anchor="start" x="1096.5" y="-144.5" font-family="Helvetica,sans-Serif" font-size="10.00" fill="#000000">FunctionDerivative</text>
<text text-anchor="middle" x="1142.5" y="-133.5" font-family="Helvetica,sans-Serif" font-size="10.00" fill="#000000">&lt; dim &gt;</text>
</a>
</g>
</g>
<!-- Node0&#45;&gt;Node7 -->
<g id="edge8" class="edge">
<title>Node0&#45;&gt;Node7</title>
<path fill="none" stroke="#191970" d="M1019.4272,-97.1718C1036.1242,-103.3728 1054.8483,-110.2799 1072,-116.5 1080.9121,-119.732 1090.4742,-123.1536 1099.5908,-126.3938"/>
<polygon fill="#191970" stroke="#191970" points="1020.4507,-93.8182 1009.8578,-93.6128 1018.0105,-100.3792 1020.4507,-93.8182"/>
</g>
<!-- Node8 -->
<g id="node9" class="node">
<title>Node8</title>
<g id="a_node9"><a xlink:href="classFunctionParser.html" target="_top" xlink:title="FunctionParser\&lt; dim \&gt;">
<polygon fill="#ffffff" stroke="#000000" points="1078.5,-88 1078.5,-107 1206.5,-107 1206.5,-88 1078.5,-88"/>
<text text-anchor="middle" x="1142.5" y="-95" font-family="Helvetica,sans-Serif" font-size="10.00" fill="#000000">FunctionParser&lt; dim &gt;</text>
</a>
</g>
</g>
<!-- Node0&#45;&gt;Node8 -->
<g id="edge9" class="edge">
<title>Node0&#45;&gt;Node8</title>
<path fill="none" stroke="#191970" d="M1045.4415,-86.8404C1056.4724,-88.0519 1067.7359,-89.2889 1078.4998,-90.4711"/>
<polygon fill="#191970" stroke="#191970" points="1045.7198,-83.35 1035.3974,-85.7373 1044.9555,-90.3082 1045.7198,-83.35"/>
</g>
<!-- Node9 -->
<g id="node10" class="node">
<title>Node9</title>
<g id="a_node10"><a xlink:href="classFunctionParser.html" target="_top" xlink:title="FunctionParser\&lt; spacedim \&gt;">
<polygon fill="#ffffff" stroke="#000000" points="1322,-66 1322,-85 1479,-85 1479,-66 1322,-66"/>
<text text-anchor="middle" x="1400.5" y="-73" font-family="Helvetica,sans-Serif" font-size="10.00" fill="#000000">FunctionParser&lt; spacedim &gt;</text>
</a>
</g>
</g>
<!-- Node0&#45;&gt;Node9 -->
<g id="edge11" class="edge">
<title>Node0&#45;&gt;Node9</title>
<path fill="none" stroke="#191970" d="M1045.6245,-77.9701C1123.2742,-77.4296 1243.2045,-76.5949 1321.7804,-76.0479"/>
<polygon fill="#191970" stroke="#191970" points="1045.4042,-74.4715 1035.4288,-78.0411 1045.4529,-81.4713 1045.4042,-74.4715"/>
</g>
<!-- Node10 -->
<g id="node11" class="node">
<title>Node10</title>
<g id="a_node11"><a xlink:href="classFunctions_1_1ParsedFunction.html" target="_top" xlink:title="Functions::ParsedFunction\l\&lt; dim \&gt;">
<polygon fill="#ffffff" stroke="#000000" points="1072,-.5 1072,-30.5 1213,-30.5 1213,-.5 1072,-.5"/>
<text text-anchor="start" x="1080" y="-18.5" font-family="Helvetica,sans-Serif" font-size="10.00" fill="#000000">Functions::ParsedFunction</text>
<text text-anchor="middle" x="1142.5" y="-7.5" font-family="Helvetica,sans-Serif" font-size="10.00" fill="#000000">&lt; dim &gt;</text>
</a>
</g>
</g>
<!-- Node0&#45;&gt;Node10 -->
<g id="edge12" class="edge">
<title>Node0&#45;&gt;Node10</title>
<path fill="none" stroke="#191970" d="M1015.7732,-59.7079C1027.8428,-54.9452 1040.868,-49.9271 1053,-45.5 1066.8554,-40.444 1082.0306,-35.2351 1095.8851,-30.6057"/>
<polygon fill="#191970" stroke="#191970" points="1014.336,-56.5127 1006.334,-63.4567 1016.9197,-63.0185 1014.336,-56.5127"/>
</g>
<!-- Node1 -->
<g id="node2" class="node">
<title>Node1</title>
<g id="a_node2"><a xlink:href="classFunction.html" target="_top" xlink:title="Function\&lt; dim \&gt;">
<polygon fill="#ffffff" stroke="#000000" points="769,-69 769,-88 867,-88 867,-69 769,-69"/>
<text text-anchor="middle" x="818" y="-76" font-family="Helvetica,sans-Serif" font-size="10.00" fill="#000000">Function&lt; dim &gt;</text>
</a>
</g>
</g>
<!-- Node1&#45;&gt;Node0 -->
<g id="edge1" class="edge">
<title>Node1&#45;&gt;Node0</title>
<path fill="none" stroke="#191970" d="M877.2282,-78.5C885.9258,-78.5 894.9288,-78.5 903.7478,-78.5"/>
<polygon fill="#191970" stroke="#191970" points="877.1877,-75.0001 867.1877,-78.5 877.1877,-82.0001 877.1877,-75.0001"/>
</g>
<!-- Node2 -->
<g id="node3" class="node">
<title>Node2</title>
<g id="a_node3"><a xlink:href="classFunctionTime.html" target="_top" xlink:title="FunctionTime\&lt; numbers\l::NumberTraits\&lt; double\l \&gt;::real_type \&gt;">
<polygon fill="#ffffff" stroke="#000000" points="538.5,-107 538.5,-148 674.5,-148 674.5,-107 538.5,-107"/>
<text text-anchor="start" x="546.5" y="-136" font-family="Helvetica,sans-Serif" font-size="10.00" fill="#000000">FunctionTime&lt; numbers</text>
<text text-anchor="start" x="546.5" y="-125" font-family="Helvetica,sans-Serif" font-size="10.00" fill="#000000">::NumberTraits&lt; double</text>
<text text-anchor="middle" x="606.5" y="-114" font-family="Helvetica,sans-Serif" font-size="10.00" fill="#000000"> &gt;::real_type &gt;</text>
</a>
</g>
</g>
<!-- Node2&#45;&gt;Node1 -->
<g id="edge2" class="edge">
<title>Node2&#45;&gt;Node1</title>
<path fill="none" stroke="#191970" d="M684.6073,-109.4042C715.9016,-102.154 750.6693,-94.0991 776.862,-88.0308"/>
<polygon fill="#191970" stroke="#191970" points="683.5361,-106.0596 674.5841,-111.7264 685.1161,-112.879 683.5361,-106.0596"/>
</g>
<!-- Node3 -->
<g id="node4" class="node">
<title>Node3</title>
<g id="a_node4"><a xlink:href="classSubscriptor.html" target="_top" xlink:title="Subscriptor">
<polygon fill="#ffffff" stroke="#000000" points="368,-68 368,-87 439,-87 439,-68 368,-68"/>
<text text-anchor="middle" x="403.5" y="-75" font-family="Helvetica,sans-Serif" font-size="10.00" fill="#000000">Subscriptor</text>
</a>
</g>
</g>
<!-- Node3&#45;&gt;Node1 -->
<g id="edge3" class="edge">
<title>Node3&#45;&gt;Node1</title>
<path fill="none" stroke="#191970" d="M449.2893,-77.6105C527.971,-77.8003 688.1517,-78.1867 768.9948,-78.3818"/>
<polygon fill="#191970" stroke="#191970" points="449.2072,-74.1104 439.1988,-77.5861 449.1903,-81.1103 449.2072,-74.1104"/>
</g>
<!-- Node4 -->
<g id="node5" class="node">
<title>Node4</title>
<g id="a_node5"><a xlink:href="classFunction.html" target="_top" xlink:title="Function\&lt; dim, RangeNumber\lType \&gt;">
<polygon fill="#ffffff" stroke="#000000" points="525,-19.5 525,-49.5 688,-49.5 688,-19.5 525,-19.5"/>
<text text-anchor="start" x="533" y="-37.5" font-family="Helvetica,sans-Serif" font-size="10.00" fill="#000000">Function&lt; dim, RangeNumber</text>
<text text-anchor="middle" x="606.5" y="-26.5" font-family="Helvetica,sans-Serif" font-size="10.00" fill="#000000">Type &gt;</text>
</a>
</g>
</g>
<!-- Node3&#45;&gt;Node4 -->
<g id="edge7" class="edge">
<title>Node3&#45;&gt;Node4</title>
<path fill="none" stroke="#191970" d="M449.394,-67.7786C474.7409,-62.4096 506.7797,-55.623 535.3033,-49.5811"/>
<polygon fill="#191970" stroke="#191970" points="448.3827,-64.4151 439.325,-69.9114 449.8333,-71.2631 448.3827,-64.4151"/>
</g>
<!-- Node4&#45;&gt;Node1 -->
<g id="edge4" class="edge">
<title>Node4&#45;&gt;Node1</title>
<path fill="none" stroke="#ffa500" stroke-dasharray="5,2" d="M698.3952,-43.4047C715.9916,-46.003 734.1692,-49.311 751,-53.5 766.4211,-57.3382 783.1711,-63.5882 796.0659,-68.8787"/>
<polygon fill="#ffa500" stroke="#ffa500" points="698.5071,-39.8859 688.1164,-41.9555 697.5298,-46.8173 698.5071,-39.8859"/>
<text text-anchor="middle" x="728.5" y="-56.5" font-family="Helvetica,sans-Serif" font-size="10.00" fill="#000000"> &lt; dim &gt;</text>
</g>
<!-- Node5 -->
<g id="node6" class="node">
<title>Node5</title>
<g id="a_node6"><a xlink:href="classFunctionTime.html" target="_top" xlink:title="FunctionTime\&lt; numbers\l::NumberTraits\&lt; RangeNumber\lType \&gt;::real_type \&gt;">
<polygon fill="#ffffff" stroke="#000000" points="319,-8 319,-49 488,-49 488,-8 319,-8"/>
<text text-anchor="start" x="327" y="-37" font-family="Helvetica,sans-Serif" font-size="10.00" fill="#000000">FunctionTime&lt; numbers</text>
<text text-anchor="start" x="327" y="-26" font-family="Helvetica,sans-Serif" font-size="10.00" fill="#000000">::NumberTraits&lt; RangeNumber</text>
<text text-anchor="middle" x="403.5" y="-15" font-family="Helvetica,sans-Serif" font-size="10.00" fill="#000000">Type &gt;::real_type &gt;</text>
</a>
</g>
</g>
<!-- Node5&#45;&gt;Node4 -->
<g id="edge5" class="edge">
<title>Node5&#45;&gt;Node4</title>
<path fill="none" stroke="#191970" d="M498.1755,-31.2983C507.1214,-31.5627 516.1383,-31.8292 524.9466,-32.0896"/>
<polygon fill="#191970" stroke="#191970" points="498.2194,-27.7982 488.1203,-31.0011 498.0125,-34.7951 498.2194,-27.7982"/>
</g>
<!-- Node6 -->
<g id="node7" class="node">
<title>Node6</title>
<g id="a_node7"><a xlink:href="classFunctionTime.html" target="_top" xlink:title="FunctionTime\&lt; Number \&gt;">
<polygon fill="#ffffff" stroke="#000000" points="0,-19 0,-38 143,-38 143,-19 0,-19"/>
<text text-anchor="middle" x="71.5" y="-26" font-family="Helvetica,sans-Serif" font-size="10.00" fill="#000000">FunctionTime&lt; Number &gt;</text>
</a>
</g>
</g>
<!-- Node6&#45;&gt;Node5 -->
<g id="edge6" class="edge">
<title>Node6&#45;&gt;Node5</title>
<path fill="none" stroke="#ffa500" stroke-dasharray="5,2" d="M153.3183,-28.5C203.6215,-28.5 267.95,-28.5 318.7797,-28.5"/>
<polygon fill="#ffa500" stroke="#ffa500" points="153.1303,-25.0001 143.1303,-28.5 153.1303,-32.0001 153.1303,-25.0001"/>
<text text-anchor="start" x="161" y="-53.5" font-family="Helvetica,sans-Serif" font-size="10.00" fill="#000000"> &lt; numbers::NumberTraits</text>
<text text-anchor="start" x="161" y="-42.5" font-family="Helvetica,sans-Serif" font-size="10.00" fill="#000000">&lt; RangeNumberType &gt;::real</text>
<text text-anchor="middle" x="231" y="-31.5" font-family="Helvetica,sans-Serif" font-size="10.00" fill="#000000">_type &gt;</text>
</g>
<!-- Node8&#45;&gt;Node9 -->
<g id="edge10" class="edge">
<title>Node8&#45;&gt;Node9</title>
<path fill="none" stroke="#ffa500" stroke-dasharray="5,2" d="M1216.6423,-91.1778C1249.6273,-88.3651 1288.4931,-85.051 1321.9735,-82.1961"/>
<polygon fill="#ffa500" stroke="#ffa500" points="1216.2732,-87.6965 1206.6068,-92.0335 1216.868,-94.6712 1216.2732,-87.6965"/>
<text text-anchor="middle" x="1267.5" y="-92.5" font-family="Helvetica,sans-Serif" font-size="10.00" fill="#000000"> &lt; spacedim &gt;</text>
</g>
</g>
</svg>
