<?xml version="1.0" encoding="UTF-8" standalone="no"?>
<!DOCTYPE svg PUBLIC "-//W3C//DTD SVG 1.1//EN"
 "http://www.w3.org/Graphics/SVG/1.1/DTD/svg11.dtd">
<!-- Generated by graphviz version 2.40.1 (20161225.0304)
 -->
<!-- Title: DesignPattern::ChainofResponsibility::MonkeyHandler Pages: 1 -->
<svg width="188pt" height="332pt"
 viewBox="0.00 0.00 188.00 332.00" xmlns="http://www.w3.org/2000/svg" xmlns:xlink="http://www.w3.org/1999/xlink">
<g id="graph0" class="graph" transform="scale(1 1) rotate(0) translate(4 328)">
<title>DesignPattern::ChainofResponsibility::MonkeyHandler</title>
<polygon fill="#ffffff" stroke="transparent" points="-4,4 -4,-328 184,-328 184,4 -4,4"/>
<!-- Node3 -->
<g id="node1" class="node">
<title>Node3</title>
<polygon fill="#bfbfbf" stroke="#000000" points="0,-.5 0,-68.5 180,-68.5 180,-.5 0,-.5"/>
<text text-anchor="start" x="8" y="-56.5" font-family="Helvetica,sans-Serif" font-size="10.00" fill="#000000">DesignPattern::ChainofResponsibility</text>
<text text-anchor="middle" x="90" y="-45.5" font-family="Helvetica,sans-Serif" font-size="10.00" fill="#000000">::MonkeyHandler</text>
<polyline fill="none" stroke="#000000" points="0,-38.5 180,-38.5 "/>
<text text-anchor="middle" x="90" y="-26.5" font-family="Helvetica,sans-Serif" font-size="10.00" fill="#000000"> </text>
<polyline fill="none" stroke="#000000" points="0,-19.5 180,-19.5 "/>
<text text-anchor="start" x="8" y="-7.5" font-family="Helvetica,sans-Serif" font-size="10.00" fill="#000000">+ Handle()</text>
</g>
<!-- Node4 -->
<g id="node2" class="node">
<title>Node4</title>
<g id="a_node2"><a xlink:href="classDesignPattern_1_1ChainofResponsibility_1_1AbstractHandler.html" target="_top" xlink:title="{DesignPattern::ChainofResponsibility\l::AbstractHandler\n||+ AbstractHandler()\l+ SetNext()\l+ Handle()\l}">
<polygon fill="#ffffff" stroke="#000000" points="0,-106.5 0,-196.5 180,-196.5 180,-106.5 0,-106.5"/>
<text text-anchor="start" x="8" y="-184.5" font-family="Helvetica,sans-Serif" font-size="10.00" fill="#000000">DesignPattern::ChainofResponsibility</text>
<text text-anchor="middle" x="90" y="-173.5" font-family="Helvetica,sans-Serif" font-size="10.00" fill="#000000">::AbstractHandler</text>
<polyline fill="none" stroke="#000000" points="0,-166.5 180,-166.5 "/>
<text text-anchor="middle" x="90" y="-154.5" font-family="Helvetica,sans-Serif" font-size="10.00" fill="#000000"> </text>
<polyline fill="none" stroke="#000000" points="0,-147.5 180,-147.5 "/>
<text text-anchor="start" x="8" y="-135.5" font-family="Helvetica,sans-Serif" font-size="10.00" fill="#000000">+ AbstractHandler()</text>
<text text-anchor="start" x="8" y="-124.5" font-family="Helvetica,sans-Serif" font-size="10.00" fill="#000000">+ SetNext()</text>
<text text-anchor="start" x="8" y="-113.5" font-family="Helvetica,sans-Serif" font-size="10.00" fill="#000000">+ Handle()</text>
</a>
</g>
</g>
<!-- Node4&#45;&gt;Node3 -->
<g id="edge1" class="edge">
<title>Node4&#45;&gt;Node3</title>
<path fill="none" stroke="#191970" d="M90,-96.1895C90,-86.8229 90,-77.3469 90,-68.7259"/>
<polygon fill="none" stroke="#191970" points="86.5001,-96.2647 90,-106.2647 93.5001,-96.2648 86.5001,-96.2647"/>
</g>
<!-- Node5 -->
<g id="node3" class="node">
<title>Node5</title>
<g id="a_node3"><a xlink:href="classDesignPattern_1_1ChainofResponsibility_1_1Handler.html" target="_top" xlink:title="{DesignPattern::ChainofResponsibility\l::Handler\n||+ SetNext()\l+ Handle()\l}">
<polygon fill="#ffffff" stroke="#000000" points="0,-244.5 0,-323.5 180,-323.5 180,-244.5 0,-244.5"/>
<text text-anchor="start" x="8" y="-311.5" font-family="Helvetica,sans-Serif" font-size="10.00" fill="#000000">DesignPattern::ChainofResponsibility</text>
<text text-anchor="middle" x="90" y="-300.5" font-family="Helvetica,sans-Serif" font-size="10.00" fill="#000000">::Handler</text>
<polyline fill="none" stroke="#000000" points="0,-293.5 180,-293.5 "/>
<text text-anchor="middle" x="90" y="-281.5" font-family="Helvetica,sans-Serif" font-size="10.00" fill="#000000"> </text>
<polyline fill="none" stroke="#000000" points="0,-274.5 180,-274.5 "/>
<text text-anchor="start" x="8" y="-262.5" font-family="Helvetica,sans-Serif" font-size="10.00" fill="#000000">+ SetNext()</text>
<text text-anchor="start" x="8" y="-251.5" font-family="Helvetica,sans-Serif" font-size="10.00" fill="#000000">+ Handle()</text>
</a>
</g>
</g>
<!-- Node5&#45;&gt;Node4 -->
<g id="edge2" class="edge">
<title>Node5&#45;&gt;Node4</title>
<path fill="none" stroke="#191970" d="M88.1726,-234.2457C88.105,-231.4564 88.0464,-228.6932 88,-226 87.8372,-216.5562 87.9299,-206.4404 88.1456,-196.8037"/>
<polygon fill="none" stroke="#191970" points="84.6776,-234.4814 88.4517,-244.3812 91.675,-234.2886 84.6776,-234.4814"/>
</g>
<!-- Node5&#45;&gt;Node4 -->
<g id="edge3" class="edge">
<title>Node5&#45;&gt;Node4</title>
<path fill="none" stroke="#404040" d="M90,-244.2456C90,-233.1568 90,-220.8824 90,-208.9911"/>
<polygon fill="none" stroke="#404040" points="90.0001,-208.8036 86,-202.8037 90,-196.8036 94,-202.8036 90.0001,-208.8036"/>
<text text-anchor="middle" x="123.5" y="-218" font-family="Helvetica,sans-Serif" font-size="10.00" fill="#000000"> &#45;next_handler_</text>
</g>
</g>
</svg>
