<?xml version="1.0" encoding="UTF-8" standalone="no"?>
<!DOCTYPE svg PUBLIC "-//W3C//DTD SVG 1.1//EN"
 "http://www.w3.org/Graphics/SVG/1.1/DTD/svg11.dtd">
<!-- Generated by graphviz version 2.40.1 (20161225.0304)
 -->
<!-- Title: FunctionTime&lt; Number &gt; Pages: 1 -->
<svg width="136pt" height="215pt"
 viewBox="0.00 0.00 136.00 215.00" xmlns="http://www.w3.org/2000/svg" xmlns:xlink="http://www.w3.org/1999/xlink">
<g id="graph0" class="graph" transform="scale(1 1) rotate(0) translate(4 211)">
<title>FunctionTime&lt; Number &gt;</title>
<polygon fill="#ffffff" stroke="transparent" points="-4,4 -4,-211 132,-211 132,4 -4,4"/>
<!-- Node72 -->
<g id="node1" class="node">
<title>Node72</title>
<polygon fill="#bfbfbf" stroke="#000000" points="0,-.5 0,-101.5 128,-101.5 128,-.5 0,-.5"/>
<text text-anchor="middle" x="64" y="-89.5" font-family="Helvetica,sans-Serif" font-size="10.00" fill="#000000">FunctionTime&lt; Number &gt;</text>
<polyline fill="none" stroke="#000000" points="0,-82.5 128,-82.5 "/>
<text text-anchor="middle" x="64" y="-70.5" font-family="Helvetica,sans-Serif" font-size="10.00" fill="#000000"> </text>
<polyline fill="none" stroke="#000000" points="0,-63.5 128,-63.5 "/>
<text text-anchor="start" x="8" y="-51.5" font-family="Helvetica,sans-Serif" font-size="10.00" fill="#000000">+ FunctionTime()</text>
<text text-anchor="start" x="8" y="-40.5" font-family="Helvetica,sans-Serif" font-size="10.00" fill="#000000">+ ~FunctionTime()</text>
<text text-anchor="start" x="8" y="-29.5" font-family="Helvetica,sans-Serif" font-size="10.00" fill="#000000">+ get_time()</text>
<text text-anchor="start" x="8" y="-18.5" font-family="Helvetica,sans-Serif" font-size="10.00" fill="#000000">+ set_time()</text>
<text text-anchor="start" x="8" y="-7.5" font-family="Helvetica,sans-Serif" font-size="10.00" fill="#000000">+ advance_time()</text>
</g>
<!-- Node73 -->
<g id="node2" class="node">
<title>Node73</title>
<polygon fill="#ffffff" stroke="#bfbfbf" points="38.5,-149.5 38.5,-206.5 89.5,-206.5 89.5,-149.5 38.5,-149.5"/>
<text text-anchor="middle" x="64" y="-194.5" font-family="Helvetica,sans-Serif" font-size="10.00" fill="#000000">Number</text>
<polyline fill="none" stroke="#bfbfbf" points="38.5,-187.5 89.5,-187.5 "/>
<text text-anchor="middle" x="64" y="-175.5" font-family="Helvetica,sans-Serif" font-size="10.00" fill="#000000"> </text>
<polyline fill="none" stroke="#bfbfbf" points="38.5,-168.5 89.5,-168.5 "/>
<text text-anchor="middle" x="64" y="-156.5" font-family="Helvetica,sans-Serif" font-size="10.00" fill="#000000"> </text>
</g>
<!-- Node73&#45;&gt;Node72 -->
<g id="edge1" class="edge">
<title>Node73&#45;&gt;Node72</title>
<path fill="none" stroke="#404040" d="M64,-149.4987C64,-138.9128 64,-126.4397 64,-113.9926"/>
<polygon fill="none" stroke="#404040" points="64.0001,-113.625 60,-107.625 64,-101.625 68,-107.625 64.0001,-113.625"/>
<text text-anchor="middle" x="76.5" y="-123" font-family="Helvetica,sans-Serif" font-size="10.00" fill="#000000"> &#45;time</text>
</g>
</g>
</svg>
