<?xml version="1.0" encoding="UTF-8" standalone="no"?>
<!DOCTYPE svg PUBLIC "-//W3C//DTD SVG 1.1//EN"
 "http://www.w3.org/Graphics/SVG/1.1/DTD/svg11.dtd">
<!-- Generated by graphviz version 2.40.1 (20161225.0304)
 -->
<!-- Title: SparsityPatternIterators::Iterator Pages: 1 -->
<svg width="177pt" height="196pt"
 viewBox="0.00 0.00 176.50 196.00" xmlns="http://www.w3.org/2000/svg" xmlns:xlink="http://www.w3.org/1999/xlink">
<g id="graph0" class="graph" transform="scale(1 1) rotate(0) translate(4 192)">
<title>SparsityPatternIterators::Iterator</title>
<polygon fill="#ffffff" stroke="transparent" points="-4,4 -4,-192 172.5,-192 172.5,4 -4,4"/>
<!-- Node0 -->
<g id="node1" class="node">
<title>Node0</title>
<polygon fill="#bfbfbf" stroke="#000000" points="8.5,-.5 8.5,-30.5 128.5,-30.5 128.5,-.5 8.5,-.5"/>
<text text-anchor="start" x="16.5" y="-18.5" font-family="Helvetica,sans-Serif" font-size="10.00" fill="#000000">SparsityPatternIterators</text>
<text text-anchor="middle" x="68.5" y="-7.5" font-family="Helvetica,sans-Serif" font-size="10.00" fill="#000000">::Iterator</text>
</g>
<!-- Node1 -->
<g id="node2" class="node">
<title>Node1</title>
<g id="a_node2"><a xlink:href="classLinearIndexIterator.html" target="_top" xlink:title="LinearIndexIterator\l\&lt; Iterator, Accessor \&gt;">
<polygon fill="#ffffff" stroke="#000000" points="12,-68.5 12,-98.5 125,-98.5 125,-68.5 12,-68.5"/>
<text text-anchor="start" x="20" y="-86.5" font-family="Helvetica,sans-Serif" font-size="10.00" fill="#000000">LinearIndexIterator</text>
<text text-anchor="middle" x="68.5" y="-75.5" font-family="Helvetica,sans-Serif" font-size="10.00" fill="#000000">&lt; Iterator, Accessor &gt;</text>
</a>
</g>
</g>
<!-- Node1&#45;&gt;Node0 -->
<g id="edge1" class="edge">
<title>Node1&#45;&gt;Node0</title>
<path fill="none" stroke="#191970" d="M68.5,-58.1174C68.5,-48.8378 68.5,-38.6413 68.5,-30.5492"/>
<polygon fill="#191970" stroke="#191970" points="65.0001,-58.4086 68.5,-68.4086 72.0001,-58.4086 65.0001,-58.4086"/>
</g>
<!-- Node2 -->
<g id="node3" class="node">
<title>Node2</title>
<g id="a_node3"><a xlink:href="classLinearIndexIterator.html" target="_top" xlink:title="LinearIndexIterator\l\&lt; DerivedIterator, Accessor\lType \&gt;">
<polygon fill="#ffffff" stroke="#000000" points="0,-146.5 0,-187.5 137,-187.5 137,-146.5 0,-146.5"/>
<text text-anchor="start" x="8" y="-175.5" font-family="Helvetica,sans-Serif" font-size="10.00" fill="#000000">LinearIndexIterator</text>
<text text-anchor="start" x="8" y="-164.5" font-family="Helvetica,sans-Serif" font-size="10.00" fill="#000000">&lt; DerivedIterator, Accessor</text>
<text text-anchor="middle" x="68.5" y="-153.5" font-family="Helvetica,sans-Serif" font-size="10.00" fill="#000000">Type &gt;</text>
</a>
</g>
</g>
<!-- Node2&#45;&gt;Node1 -->
<g id="edge2" class="edge">
<title>Node2&#45;&gt;Node1</title>
<path fill="none" stroke="#ffa500" stroke-dasharray="5,2" d="M68.5,-136.0892C68.5,-123.3184 68.5,-109.0939 68.5,-98.6621"/>
<polygon fill="#ffa500" stroke="#ffa500" points="65.0001,-136.3595 68.5,-146.3595 72.0001,-136.3596 65.0001,-136.3595"/>
<text text-anchor="middle" x="118.5" y="-120" font-family="Helvetica,sans-Serif" font-size="10.00" fill="#000000"> &lt; Iterator, Accessor &gt;</text>
</g>
</g>
</svg>
