<?xml version="1.0" encoding="UTF-8" standalone="no"?>
<!DOCTYPE svg PUBLIC "-//W3C//DTD SVG 1.1//EN"
 "http://www.w3.org/Graphics/SVG/1.1/DTD/svg11.dtd">
<!-- Generated by graphviz version 2.40.1 (20161225.0304)
 -->
<!-- Title: FE_DGVector&lt; PolynomialType, dim, spacedim &gt; Pages: 1 -->
<svg width="1213pt" height="149pt"
 viewBox="0.00 0.00 1213.00 148.50" xmlns="http://www.w3.org/2000/svg" xmlns:xlink="http://www.w3.org/1999/xlink">
<g id="graph0" class="graph" transform="scale(1 1) rotate(0) translate(4 144.5)">
<title>FE_DGVector&lt; PolynomialType, dim, spacedim &gt;</title>
<polygon fill="#ffffff" stroke="transparent" points="-4,4 -4,-144.5 1209,-144.5 1209,4 -4,4"/>
<!-- Node0 -->
<g id="node1" class="node">
<title>Node0</title>
<polygon fill="#bfbfbf" stroke="#000000" points="461,-49.5 461,-79.5 631,-79.5 631,-49.5 461,-49.5"/>
<text text-anchor="start" x="469" y="-67.5" font-family="Helvetica,sans-Serif" font-size="10.00" fill="#000000">FE_DGVector&lt; PolynomialType,</text>
<text text-anchor="middle" x="546" y="-56.5" font-family="Helvetica,sans-Serif" font-size="10.00" fill="#000000"> dim, spacedim &gt;</text>
</g>
<!-- Node5 -->
<g id="node6" class="node">
<title>Node5</title>
<g id="a_node6"><a xlink:href="classFE__DGVector.html" target="_top" xlink:title="FE_DGVector\&lt; Polynomials\lRaviartThomas\&lt; dim \&gt;,\l dim, spacedim \&gt;">
<polygon fill="#ffffff" stroke="#000000" points="834.5,-99 834.5,-140 984.5,-140 984.5,-99 834.5,-99"/>
<text text-anchor="start" x="842.5" y="-128" font-family="Helvetica,sans-Serif" font-size="10.00" fill="#000000">FE_DGVector&lt; Polynomials</text>
<text text-anchor="start" x="842.5" y="-117" font-family="Helvetica,sans-Serif" font-size="10.00" fill="#000000">RaviartThomas&lt; dim &gt;,</text>
<text text-anchor="middle" x="909.5" y="-106" font-family="Helvetica,sans-Serif" font-size="10.00" fill="#000000"> dim, spacedim &gt;</text>
</a>
</g>
</g>
<!-- Node0&#45;&gt;Node5 -->
<g id="edge5" class="edge">
<title>Node0&#45;&gt;Node5</title>
<path fill="none" stroke="#ffa500" stroke-dasharray="5,2" d="M609.4825,-81.9662C622.4844,-85.136 636.1291,-88.1703 649,-90.5 711.0168,-101.7253 782.1773,-109.2927 834.4355,-113.8745"/>
<polygon fill="#ffa500" stroke="#ffa500" points="610.2382,-78.5475 599.6886,-79.5252 608.5453,-85.3397 610.2382,-78.5475"/>
<text text-anchor="start" x="649" y="-123.5" font-family="Helvetica,sans-Serif" font-size="10.00" fill="#000000"> &lt; PolynomialsRaviartThomas</text>
<text text-anchor="middle" x="723.5" y="-112.5" font-family="Helvetica,sans-Serif" font-size="10.00" fill="#000000">&lt; dim &gt;, dim, spacedim &gt;</text>
</g>
<!-- Node7 -->
<g id="node8" class="node">
<title>Node7</title>
<g id="a_node8"><a xlink:href="classFE__DGVector.html" target="_top" xlink:title="FE_DGVector\&lt; Polynomials\lBDM\&lt; dim \&gt;, dim, spacedim \&gt;">
<polygon fill="#ffffff" stroke="#000000" points="824.5,-49.5 824.5,-79.5 994.5,-79.5 994.5,-49.5 824.5,-49.5"/>
<text text-anchor="start" x="832.5" y="-67.5" font-family="Helvetica,sans-Serif" font-size="10.00" fill="#000000">FE_DGVector&lt; Polynomials</text>
<text text-anchor="middle" x="909.5" y="-56.5" font-family="Helvetica,sans-Serif" font-size="10.00" fill="#000000">BDM&lt; dim &gt;, dim, spacedim &gt;</text>
</a>
</g>
</g>
<!-- Node0&#45;&gt;Node7 -->
<g id="edge7" class="edge">
<title>Node0&#45;&gt;Node7</title>
<path fill="none" stroke="#ffa500" stroke-dasharray="5,2" d="M641.2919,-64.5C698.1023,-64.5 769.6061,-64.5 824.495,-64.5"/>
<polygon fill="#ffa500" stroke="#ffa500" points="641.2246,-61.0001 631.2246,-64.5 641.2246,-68.0001 641.2246,-61.0001"/>
<text text-anchor="start" x="660" y="-78.5" font-family="Helvetica,sans-Serif" font-size="10.00" fill="#000000"> &lt; PolynomialsBDM&lt; dim</text>
<text text-anchor="middle" x="723.5" y="-67.5" font-family="Helvetica,sans-Serif" font-size="10.00" fill="#000000"> &gt;, dim, spacedim &gt;</text>
</g>
<!-- Node9 -->
<g id="node10" class="node">
<title>Node9</title>
<g id="a_node10"><a xlink:href="classFE__DGVector.html" target="_top" xlink:title="FE_DGVector\&lt; Polynomials\lNedelec\&lt; dim \&gt;, dim, spacedim \&gt;">
<polygon fill="#ffffff" stroke="#000000" points="816,-.5 816,-30.5 1003,-30.5 1003,-.5 816,-.5"/>
<text text-anchor="start" x="824" y="-18.5" font-family="Helvetica,sans-Serif" font-size="10.00" fill="#000000">FE_DGVector&lt; Polynomials</text>
<text text-anchor="middle" x="909.5" y="-7.5" font-family="Helvetica,sans-Serif" font-size="10.00" fill="#000000">Nedelec&lt; dim &gt;, dim, spacedim &gt;</text>
</a>
</g>
</g>
<!-- Node0&#45;&gt;Node9 -->
<g id="edge9" class="edge">
<title>Node0&#45;&gt;Node9</title>
<path fill="none" stroke="#ffa500" stroke-dasharray="5,2" d="M608.7851,-46.963C621.9867,-43.7519 635.886,-40.7196 649,-38.5 703.949,-29.1998 766.0951,-23.5303 815.9028,-20.1481"/>
<polygon fill="#ffa500" stroke="#ffa500" points="607.7051,-43.6251 598.8504,-49.4429 609.4004,-50.4167 607.7051,-43.6251"/>
<text text-anchor="start" x="658" y="-52.5" font-family="Helvetica,sans-Serif" font-size="10.00" fill="#000000"> &lt; PolynomialsNedelec</text>
<text text-anchor="middle" x="723.5" y="-41.5" font-family="Helvetica,sans-Serif" font-size="10.00" fill="#000000">&lt; dim &gt;, dim, spacedim &gt;</text>
</g>
<!-- Node1 -->
<g id="node2" class="node">
<title>Node1</title>
<g id="a_node2"><a xlink:href="classFE__PolyTensor.html" target="_top" xlink:title="FE_PolyTensor\&lt; dim,\l spacedim \&gt;">
<polygon fill="#ffffff" stroke="#000000" points="305,-49.5 305,-79.5 424,-79.5 424,-49.5 305,-49.5"/>
<text text-anchor="start" x="313" y="-67.5" font-family="Helvetica,sans-Serif" font-size="10.00" fill="#000000">FE_PolyTensor&lt; dim,</text>
<text text-anchor="middle" x="364.5" y="-56.5" font-family="Helvetica,sans-Serif" font-size="10.00" fill="#000000"> spacedim &gt;</text>
</a>
</g>
</g>
<!-- Node1&#45;&gt;Node0 -->
<g id="edge1" class="edge">
<title>Node1&#45;&gt;Node0</title>
<path fill="none" stroke="#191970" d="M434.287,-64.5C443.0206,-64.5 452.0283,-64.5 460.9618,-64.5"/>
<polygon fill="#191970" stroke="#191970" points="434.1813,-61.0001 424.1813,-64.5 434.1812,-68.0001 434.1813,-61.0001"/>
</g>
<!-- Node2 -->
<g id="node3" class="node">
<title>Node2</title>
<g id="a_node3"><a xlink:href="classFiniteElement.html" target="_top" xlink:title="FiniteElement\&lt; dim,\l spacedim \&gt;">
<polygon fill="#ffffff" stroke="#000000" points="152,-49.5 152,-79.5 268,-79.5 268,-49.5 152,-49.5"/>
<text text-anchor="start" x="160" y="-67.5" font-family="Helvetica,sans-Serif" font-size="10.00" fill="#000000">FiniteElement&lt; dim,</text>
<text text-anchor="middle" x="210" y="-56.5" font-family="Helvetica,sans-Serif" font-size="10.00" fill="#000000"> spacedim &gt;</text>
</a>
</g>
</g>
<!-- Node2&#45;&gt;Node1 -->
<g id="edge2" class="edge">
<title>Node2&#45;&gt;Node1</title>
<path fill="none" stroke="#191970" d="M278.6285,-64.5C287.416,-64.5 296.3541,-64.5 304.9804,-64.5"/>
<polygon fill="#191970" stroke="#191970" points="278.4099,-61.0001 268.4098,-64.5 278.4098,-68.0001 278.4099,-61.0001"/>
</g>
<!-- Node3 -->
<g id="node4" class="node">
<title>Node3</title>
<g id="a_node4"><a xlink:href="classSubscriptor.html" target="_top" xlink:title="Subscriptor">
<polygon fill="#ffffff" stroke="#000000" points="22,-77 22,-96 93,-96 93,-77 22,-77"/>
<text text-anchor="middle" x="57.5" y="-84" font-family="Helvetica,sans-Serif" font-size="10.00" fill="#000000">Subscriptor</text>
</a>
</g>
</g>
<!-- Node3&#45;&gt;Node2 -->
<g id="edge3" class="edge">
<title>Node3&#45;&gt;Node2</title>
<path fill="none" stroke="#191970" d="M103.4415,-79.8724C118.6539,-77.6778 135.7886,-75.2059 151.7973,-72.8965"/>
<polygon fill="#191970" stroke="#191970" points="102.6522,-76.4499 93.2545,-81.342 103.6518,-83.3782 102.6522,-76.4499"/>
</g>
<!-- Node4 -->
<g id="node5" class="node">
<title>Node4</title>
<g id="a_node5"><a xlink:href="classFiniteElementData.html" target="_top" xlink:title="FiniteElementData\&lt;\l dim \&gt;">
<polygon fill="#ffffff" stroke="#000000" points="0,-27.5 0,-57.5 115,-57.5 115,-27.5 0,-27.5"/>
<text text-anchor="start" x="8" y="-45.5" font-family="Helvetica,sans-Serif" font-size="10.00" fill="#000000">FiniteElementData&lt;</text>
<text text-anchor="middle" x="57.5" y="-34.5" font-family="Helvetica,sans-Serif" font-size="10.00" fill="#000000"> dim &gt;</text>
</a>
</g>
</g>
<!-- Node4&#45;&gt;Node2 -->
<g id="edge4" class="edge">
<title>Node4&#45;&gt;Node2</title>
<path fill="none" stroke="#191970" d="M125.0987,-52.252C133.9903,-53.5347 143.0408,-54.8403 151.7582,-56.0979"/>
<polygon fill="#191970" stroke="#191970" points="125.551,-48.781 115.1537,-50.8173 124.5515,-55.7093 125.551,-48.781"/>
</g>
<!-- Node6 -->
<g id="node7" class="node">
<title>Node6</title>
<g id="a_node7"><a xlink:href="classFE__DGRaviartThomas.html" target="_top" xlink:title="FE_DGRaviartThomas\l\&lt; dim, spacedim \&gt;">
<polygon fill="#ffffff" stroke="#000000" points="1061.5,-104.5 1061.5,-134.5 1183.5,-134.5 1183.5,-104.5 1061.5,-104.5"/>
<text text-anchor="start" x="1069.5" y="-122.5" font-family="Helvetica,sans-Serif" font-size="10.00" fill="#000000">FE_DGRaviartThomas</text>
<text text-anchor="middle" x="1122.5" y="-111.5" font-family="Helvetica,sans-Serif" font-size="10.00" fill="#000000">&lt; dim, spacedim &gt;</text>
</a>
</g>
</g>
<!-- Node5&#45;&gt;Node6 -->
<g id="edge6" class="edge">
<title>Node5&#45;&gt;Node6</title>
<path fill="none" stroke="#191970" d="M994.7385,-119.5C1017.0446,-119.5 1040.6479,-119.5 1061.4159,-119.5"/>
<polygon fill="#191970" stroke="#191970" points="994.5959,-116.0001 984.5958,-119.5 994.5958,-123.0001 994.5959,-116.0001"/>
</g>
<!-- Node8 -->
<g id="node9" class="node">
<title>Node8</title>
<g id="a_node9"><a xlink:href="classFE__DGBDM.html" target="_top" xlink:title="FE_DGBDM\&lt; dim, spacedim \&gt;">
<polygon fill="#ffffff" stroke="#000000" points="1040,-55 1040,-74 1205,-74 1205,-55 1040,-55"/>
<text text-anchor="middle" x="1122.5" y="-62" font-family="Helvetica,sans-Serif" font-size="10.00" fill="#000000">FE_DGBDM&lt; dim, spacedim &gt;</text>
</a>
</g>
</g>
<!-- Node7&#45;&gt;Node8 -->
<g id="edge8" class="edge">
<title>Node7&#45;&gt;Node8</title>
<path fill="none" stroke="#191970" d="M1004.8374,-64.5C1016.555,-64.5 1028.4548,-64.5 1039.9611,-64.5"/>
<polygon fill="#191970" stroke="#191970" points="1004.6016,-61.0001 994.6015,-64.5 1004.6015,-68.0001 1004.6016,-61.0001"/>
</g>
<!-- Node10 -->
<g id="node11" class="node">
<title>Node10</title>
<g id="a_node11"><a xlink:href="classFE__DGNedelec.html" target="_top" xlink:title="FE_DGNedelec\&lt; dim,\l spacedim \&gt;">
<polygon fill="#ffffff" stroke="#000000" points="1062,-.5 1062,-30.5 1183,-30.5 1183,-.5 1062,-.5"/>
<text text-anchor="start" x="1070" y="-18.5" font-family="Helvetica,sans-Serif" font-size="10.00" fill="#000000">FE_DGNedelec&lt; dim,</text>
<text text-anchor="middle" x="1122.5" y="-7.5" font-family="Helvetica,sans-Serif" font-size="10.00" fill="#000000"> spacedim &gt;</text>
</a>
</g>
</g>
<!-- Node9&#45;&gt;Node10 -->
<g id="edge10" class="edge">
<title>Node9&#45;&gt;Node10</title>
<path fill="none" stroke="#191970" d="M1013.5177,-15.5C1030.0722,-15.5 1046.7067,-15.5 1061.8201,-15.5"/>
<polygon fill="#191970" stroke="#191970" points="1013.2349,-12.0001 1003.2349,-15.5 1013.2348,-19.0001 1013.2349,-12.0001"/>
</g>
</g>
</svg>
