<?xml version="1.0" encoding="UTF-8" standalone="no"?>
<!DOCTYPE svg PUBLIC "-//W3C//DTD SVG 1.1//EN"
 "http://www.w3.org/Graphics/SVG/1.1/DTD/svg11.dtd">
<!-- Generated by graphviz version 2.40.1 (20161225.0304)
 -->
<!-- Title: TriaAccessor&lt; structdim, dim, spacedim &gt; Pages: 1 -->
<svg width="212pt" height="253pt"
 viewBox="0.00 0.00 212.00 253.00" xmlns="http://www.w3.org/2000/svg" xmlns:xlink="http://www.w3.org/1999/xlink">
<g id="graph0" class="graph" transform="scale(1 1) rotate(0) translate(4 249)">
<title>TriaAccessor&lt; structdim, dim, spacedim &gt;</title>
<polygon fill="#ffffff" stroke="transparent" points="-4,4 -4,-249 208,-249 208,4 -4,4"/>
<!-- Node0 -->
<g id="node1" class="node">
<title>Node0</title>
<polygon fill="#bfbfbf" stroke="#000000" points="12,-146.5 12,-176.5 150,-176.5 150,-146.5 12,-146.5"/>
<text text-anchor="start" x="20" y="-164.5" font-family="Helvetica,sans-Serif" font-size="10.00" fill="#000000">TriaAccessor&lt; structdim,</text>
<text text-anchor="middle" x="81" y="-153.5" font-family="Helvetica,sans-Serif" font-size="10.00" fill="#000000"> dim, spacedim &gt;</text>
</g>
<!-- Node2 -->
<g id="node3" class="node">
<title>Node2</title>
<g id="a_node3"><a xlink:href="classTriaAccessor.html" target="_top" xlink:title="TriaAccessor\&lt; dim,\l dim, spacedim \&gt;">
<polygon fill="#ffffff" stroke="#000000" points="26,-68.5 26,-98.5 136,-98.5 136,-68.5 26,-68.5"/>
<text text-anchor="start" x="34" y="-86.5" font-family="Helvetica,sans-Serif" font-size="10.00" fill="#000000">TriaAccessor&lt; dim,</text>
<text text-anchor="middle" x="81" y="-75.5" font-family="Helvetica,sans-Serif" font-size="10.00" fill="#000000"> dim, spacedim &gt;</text>
</a>
</g>
</g>
<!-- Node0&#45;&gt;Node2 -->
<g id="edge2" class="edge">
<title>Node0&#45;&gt;Node2</title>
<path fill="none" stroke="#ffa500" stroke-dasharray="5,2" d="M81,-136.2875C81,-123.9187 81,-109.4264 81,-98.7592"/>
<polygon fill="#ffa500" stroke="#ffa500" points="77.5001,-136.4608 81,-146.4608 84.5001,-136.4608 77.5001,-136.4608"/>
<text text-anchor="middle" x="142.5" y="-120" font-family="Helvetica,sans-Serif" font-size="10.00" fill="#000000"> &lt; dim, dim, spacedim &gt;</text>
</g>
<!-- Node1 -->
<g id="node2" class="node">
<title>Node1</title>
<g id="a_node2"><a xlink:href="classTriaAccessorBase.html" target="_top" xlink:title="TriaAccessorBase\&lt; structdim,\l dim, spacedim \&gt;">
<polygon fill="#ffffff" stroke="#000000" points="0,-214.5 0,-244.5 162,-244.5 162,-214.5 0,-214.5"/>
<text text-anchor="start" x="8" y="-232.5" font-family="Helvetica,sans-Serif" font-size="10.00" fill="#000000">TriaAccessorBase&lt; structdim,</text>
<text text-anchor="middle" x="81" y="-221.5" font-family="Helvetica,sans-Serif" font-size="10.00" fill="#000000"> dim, spacedim &gt;</text>
</a>
</g>
</g>
<!-- Node1&#45;&gt;Node0 -->
<g id="edge1" class="edge">
<title>Node1&#45;&gt;Node0</title>
<path fill="none" stroke="#191970" d="M81,-204.1174C81,-194.8378 81,-184.6413 81,-176.5492"/>
<polygon fill="#191970" stroke="#191970" points="77.5001,-204.4086 81,-214.4086 84.5001,-204.4086 77.5001,-204.4086"/>
</g>
<!-- Node3 -->
<g id="node4" class="node">
<title>Node3</title>
<g id="a_node4"><a xlink:href="classCellAccessor.html" target="_top" xlink:title="CellAccessor\&lt; dim,\l spacedim \&gt;">
<polygon fill="#ffffff" stroke="#000000" points="25,-.5 25,-30.5 137,-30.5 137,-.5 25,-.5"/>
<text text-anchor="start" x="33" y="-18.5" font-family="Helvetica,sans-Serif" font-size="10.00" fill="#000000">CellAccessor&lt; dim,</text>
<text text-anchor="middle" x="81" y="-7.5" font-family="Helvetica,sans-Serif" font-size="10.00" fill="#000000"> spacedim &gt;</text>
</a>
</g>
</g>
<!-- Node2&#45;&gt;Node3 -->
<g id="edge3" class="edge">
<title>Node2&#45;&gt;Node3</title>
<path fill="none" stroke="#191970" d="M81,-58.1174C81,-48.8378 81,-38.6413 81,-30.5492"/>
<polygon fill="#191970" stroke="#191970" points="77.5001,-58.4086 81,-68.4086 84.5001,-58.4086 77.5001,-58.4086"/>
</g>
</g>
</svg>
