<?xml version="1.0" encoding="UTF-8" standalone="no"?>
<!DOCTYPE svg PUBLIC "-//W3C//DTD SVG 1.1//EN"
 "http://www.w3.org/Graphics/SVG/1.1/DTD/svg11.dtd">
<!-- Generated by graphviz version 2.40.1 (20161225.0304)
 -->
<!-- Title: ArborXWrappers::BoundingBoxPredicate Pages: 1 -->
<svg width="360pt" height="215pt"
 viewBox="0.00 0.00 360.00 215.00" xmlns="http://www.w3.org/2000/svg" xmlns:xlink="http://www.w3.org/1999/xlink">
<g id="graph0" class="graph" transform="scale(1 1) rotate(0) translate(4 211)">
<title>ArborXWrappers::BoundingBoxPredicate</title>
<polygon fill="#ffffff" stroke="transparent" points="-4,4 -4,-211 356,-211 356,4 -4,4"/>
<!-- Node0 -->
<g id="node1" class="node">
<title>Node0</title>
<polygon fill="#bfbfbf" stroke="#000000" points="109,-116.5 109,-206.5 244,-206.5 244,-116.5 109,-116.5"/>
<text text-anchor="start" x="117" y="-194.5" font-family="Helvetica,sans-Serif" font-size="10.00" fill="#000000">ArborXWrappers::Bounding</text>
<text text-anchor="middle" x="176.5" y="-183.5" font-family="Helvetica,sans-Serif" font-size="10.00" fill="#000000">BoxPredicate</text>
<polyline fill="none" stroke="#000000" points="109,-176.5 244,-176.5 "/>
<text text-anchor="start" x="117" y="-164.5" font-family="Helvetica,sans-Serif" font-size="10.00" fill="#000000">&#45; bounding_boxes</text>
<polyline fill="none" stroke="#000000" points="109,-157.5 244,-157.5 "/>
<text text-anchor="start" x="117" y="-145.5" font-family="Helvetica,sans-Serif" font-size="10.00" fill="#000000"># BoundingBoxPredicate()</text>
<text text-anchor="start" x="117" y="-134.5" font-family="Helvetica,sans-Serif" font-size="10.00" fill="#000000"># size()</text>
<text text-anchor="start" x="117" y="-123.5" font-family="Helvetica,sans-Serif" font-size="10.00" fill="#000000"># get()</text>
</g>
<!-- Node1 -->
<g id="node2" class="node">
<title>Node1</title>
<g id="a_node2"><a xlink:href="classArborXWrappers_1_1BoundingBoxIntersectPredicate.html" target="_top" xlink:title="{ArborXWrappers::Bounding\lBoxIntersectPredicate\n||+ BoundingBoxIntersectPredicate()\l}">
<polygon fill="#ffffff" stroke="#000000" points="0,-6 0,-74 169,-74 169,-6 0,-6"/>
<text text-anchor="start" x="8" y="-62" font-family="Helvetica,sans-Serif" font-size="10.00" fill="#000000">ArborXWrappers::Bounding</text>
<text text-anchor="middle" x="84.5" y="-51" font-family="Helvetica,sans-Serif" font-size="10.00" fill="#000000">BoxIntersectPredicate</text>
<polyline fill="none" stroke="#000000" points="0,-44 169,-44 "/>
<text text-anchor="middle" x="84.5" y="-32" font-family="Helvetica,sans-Serif" font-size="10.00" fill="#000000"> </text>
<polyline fill="none" stroke="#000000" points="0,-25 169,-25 "/>
<text text-anchor="start" x="8" y="-13" font-family="Helvetica,sans-Serif" font-size="10.00" fill="#000000">+ BoundingBoxIntersectPredicate()</text>
</a>
</g>
</g>
<!-- Node0&#45;&gt;Node1 -->
<g id="edge1" class="edge">
<title>Node0&#45;&gt;Node1</title>
<path fill="none" stroke="#8b1a1a" d="M135.9935,-108.0051C127.3227,-96.5539 118.3877,-84.7539 110.4448,-74.264"/>
<polygon fill="none" stroke="#8b1a1a" points="133.4155,-110.3984 142.2426,-116.2579 138.9962,-106.1727 133.4155,-110.3984"/>
</g>
<!-- Node2 -->
<g id="node3" class="node">
<title>Node2</title>
<g id="a_node3"><a xlink:href="classArborXWrappers_1_1BoundingBoxNearestPredicate.html" target="_top" xlink:title="{ArborXWrappers::Bounding\lBoxNearestPredicate\n|&#45; n_nearest_neighbors\l|+ BoundingBoxNearestPredicate()\l+ get_n_nearest_neighbors()\l}">
<polygon fill="#ffffff" stroke="#000000" points="187,-.5 187,-79.5 352,-79.5 352,-.5 187,-.5"/>
<text text-anchor="start" x="195" y="-67.5" font-family="Helvetica,sans-Serif" font-size="10.00" fill="#000000">ArborXWrappers::Bounding</text>
<text text-anchor="middle" x="269.5" y="-56.5" font-family="Helvetica,sans-Serif" font-size="10.00" fill="#000000">BoxNearestPredicate</text>
<polyline fill="none" stroke="#000000" points="187,-49.5 352,-49.5 "/>
<text text-anchor="start" x="195" y="-37.5" font-family="Helvetica,sans-Serif" font-size="10.00" fill="#000000">&#45; n_nearest_neighbors</text>
<polyline fill="none" stroke="#000000" points="187,-30.5 352,-30.5 "/>
<text text-anchor="start" x="195" y="-18.5" font-family="Helvetica,sans-Serif" font-size="10.00" fill="#000000">+ BoundingBoxNearestPredicate()</text>
<text text-anchor="start" x="195" y="-7.5" font-family="Helvetica,sans-Serif" font-size="10.00" fill="#000000">+ get_n_nearest_neighbors()</text>
</a>
</g>
</g>
<!-- Node0&#45;&gt;Node2 -->
<g id="edge2" class="edge">
<title>Node0&#45;&gt;Node2</title>
<path fill="none" stroke="#8b1a1a" d="M217.2411,-108.2738C224.5906,-98.6719 232.1351,-88.8155 239.1247,-79.6838"/>
<polygon fill="none" stroke="#8b1a1a" points="214.4287,-106.1897 211.1298,-116.2579 219.9872,-110.4444 214.4287,-106.1897"/>
</g>
</g>
</svg>
