<?xml version="1.0" encoding="UTF-8" standalone="no"?>
<!DOCTYPE svg PUBLIC "-//W3C//DTD SVG 1.1//EN"
 "http://www.w3.org/Graphics/SVG/1.1/DTD/svg11.dtd">
<!-- Generated by graphviz version 2.40.1 (20161225.0304)
 -->
<!-- Title: LinearIndexIterator&lt; DerivedIterator, AccessorType &gt; Pages: 1 -->
<svg width="704pt" height="124pt"
 viewBox="0.00 0.00 704.00 123.50" xmlns="http://www.w3.org/2000/svg" xmlns:xlink="http://www.w3.org/1999/xlink">
<g id="graph0" class="graph" transform="scale(1 1) rotate(0) translate(4 119.5)">
<title>LinearIndexIterator&lt; DerivedIterator, AccessorType &gt;</title>
<polygon fill="#ffffff" stroke="transparent" points="-4,4 -4,-119.5 700,-119.5 700,4 -4,4"/>
<!-- Node0 -->
<g id="node1" class="node">
<title>Node0</title>
<polygon fill="#bfbfbf" stroke="#000000" points="0,-28 0,-69 152,-69 152,-28 0,-28"/>
<text text-anchor="start" x="8" y="-57" font-family="Helvetica,sans-Serif" font-size="10.00" fill="#000000">LinearIndexIterator</text>
<text text-anchor="start" x="8" y="-46" font-family="Helvetica,sans-Serif" font-size="10.00" fill="#000000">&lt; DerivedIterator, Accessor</text>
<text text-anchor="middle" x="76" y="-35" font-family="Helvetica,sans-Serif" font-size="10.00" fill="#000000">Type &gt;</text>
</g>
<!-- Node1 -->
<g id="node2" class="node">
<title>Node1</title>
<g id="a_node2"><a xlink:href="classLinearIndexIterator.html" target="_top" xlink:title="LinearIndexIterator\l\&lt; Iterator\&lt; TableType,\l Constness, storage_order\l \&gt;, Accessor\&lt; TableType,\l Constness, storage_order \&gt; \&gt;">
<polygon fill="#ffffff" stroke="#000000" points="338,-50 338,-113 504,-113 504,-50 338,-50"/>
<text text-anchor="start" x="346" y="-101" font-family="Helvetica,sans-Serif" font-size="10.00" fill="#000000">LinearIndexIterator</text>
<text text-anchor="start" x="346" y="-90" font-family="Helvetica,sans-Serif" font-size="10.00" fill="#000000">&lt; Iterator&lt; TableType,</text>
<text text-anchor="start" x="346" y="-79" font-family="Helvetica,sans-Serif" font-size="10.00" fill="#000000"> Constness, storage_order</text>
<text text-anchor="start" x="346" y="-68" font-family="Helvetica,sans-Serif" font-size="10.00" fill="#000000"> &gt;, Accessor&lt; TableType,</text>
<text text-anchor="middle" x="421" y="-57" font-family="Helvetica,sans-Serif" font-size="10.00" fill="#000000"> Constness, storage_order &gt; &gt;</text>
</a>
</g>
</g>
<!-- Node0&#45;&gt;Node1 -->
<g id="edge1" class="edge">
<title>Node0&#45;&gt;Node1</title>
<path fill="none" stroke="#ffa500" stroke-dasharray="5,2" d="M162.3262,-56.7573C216.0241,-61.8936 284.7137,-68.4639 337.8124,-73.5429"/>
<polygon fill="#ffa500" stroke="#ffa500" points="162.4267,-53.251 152.1388,-55.7828 161.7601,-60.2192 162.4267,-53.251"/>
<text text-anchor="start" x="170" y="-107.5" font-family="Helvetica,sans-Serif" font-size="10.00" fill="#000000"> &lt; Iterator&lt; TableType,</text>
<text text-anchor="start" x="170" y="-96.5" font-family="Helvetica,sans-Serif" font-size="10.00" fill="#000000"> Constness, storage_order</text>
<text text-anchor="start" x="170" y="-85.5" font-family="Helvetica,sans-Serif" font-size="10.00" fill="#000000"> &gt;, Accessor&lt; TableType,</text>
<text text-anchor="middle" x="245" y="-74.5" font-family="Helvetica,sans-Serif" font-size="10.00" fill="#000000"> Constness, storage_order &gt; &gt;</text>
</g>
<!-- Node3 -->
<g id="node4" class="node">
<title>Node3</title>
<g id="a_node4"><a xlink:href="classLinearIndexIterator.html" target="_top" xlink:title="LinearIndexIterator\l\&lt; Iterator, Accessor \&gt;">
<polygon fill="#ffffff" stroke="#000000" points="358.5,-.5 358.5,-30.5 483.5,-30.5 483.5,-.5 358.5,-.5"/>
<text text-anchor="start" x="366.5" y="-18.5" font-family="Helvetica,sans-Serif" font-size="10.00" fill="#000000">LinearIndexIterator</text>
<text text-anchor="middle" x="421" y="-7.5" font-family="Helvetica,sans-Serif" font-size="10.00" fill="#000000">&lt; Iterator, Accessor &gt;</text>
</a>
</g>
</g>
<!-- Node0&#45;&gt;Node3 -->
<g id="edge3" class="edge">
<title>Node0&#45;&gt;Node3</title>
<path fill="none" stroke="#ffa500" stroke-dasharray="5,2" d="M162.1291,-40.2616C223.0733,-34.4321 303.4028,-26.7484 358.3168,-21.4958"/>
<polygon fill="#ffa500" stroke="#ffa500" points="161.7601,-36.7808 152.1388,-41.2172 162.4267,-43.749 161.7601,-36.7808"/>
<text text-anchor="middle" x="245" y="-42.5" font-family="Helvetica,sans-Serif" font-size="10.00" fill="#000000"> &lt; Iterator, Accessor &gt;</text>
</g>
<!-- Node2 -->
<g id="node3" class="node">
<title>Node2</title>
<g id="a_node3"><a xlink:href="classMatrixTableIterators_1_1Iterator.html" target="_top" xlink:title="Iterator class for both matrix&#45;like tables, i.e., Table&lt;2, T&gt; and TransposeTable. ...">
<polygon fill="#ffffff" stroke="#000000" points="541,-61 541,-102 696,-102 696,-61 541,-61"/>
<text text-anchor="start" x="549" y="-90" font-family="Helvetica,sans-Serif" font-size="10.00" fill="#000000">MatrixTableIterators</text>
<text text-anchor="start" x="549" y="-79" font-family="Helvetica,sans-Serif" font-size="10.00" fill="#000000">::Iterator&lt; TableType,</text>
<text text-anchor="middle" x="618.5" y="-68" font-family="Helvetica,sans-Serif" font-size="10.00" fill="#000000"> Constness, storage_order &gt;</text>
</a>
</g>
</g>
<!-- Node1&#45;&gt;Node2 -->
<g id="edge2" class="edge">
<title>Node1&#45;&gt;Node2</title>
<path fill="none" stroke="#191970" d="M514.1869,-81.5C523.0818,-81.5 532.0371,-81.5 540.7628,-81.5"/>
<polygon fill="#191970" stroke="#191970" points="514.1854,-78.0001 504.1854,-81.5 514.1853,-85.0001 514.1854,-78.0001"/>
</g>
<!-- Node4 -->
<g id="node5" class="node">
<title>Node4</title>
<g id="a_node5"><a xlink:href="classSparsityPatternIterators_1_1Iterator.html" target="_top" xlink:title="SparsityPatternIterators\l::Iterator">
<polygon fill="#ffffff" stroke="#000000" points="552.5,-.5 552.5,-30.5 684.5,-30.5 684.5,-.5 552.5,-.5"/>
<text text-anchor="start" x="560.5" y="-18.5" font-family="Helvetica,sans-Serif" font-size="10.00" fill="#000000">SparsityPatternIterators</text>
<text text-anchor="middle" x="618.5" y="-7.5" font-family="Helvetica,sans-Serif" font-size="10.00" fill="#000000">::Iterator</text>
</a>
</g>
</g>
<!-- Node3&#45;&gt;Node4 -->
<g id="edge4" class="edge">
<title>Node3&#45;&gt;Node4</title>
<path fill="none" stroke="#191970" d="M493.9485,-15.5C513.1274,-15.5 533.7026,-15.5 552.494,-15.5"/>
<polygon fill="#191970" stroke="#191970" points="493.7616,-12.0001 483.7616,-15.5 493.7616,-19.0001 493.7616,-12.0001"/>
</g>
</g>
</svg>
