<?xml version="1.0" encoding="UTF-8" standalone="no"?>
<!DOCTYPE svg PUBLIC "-//W3C//DTD SVG 1.1//EN"
 "http://www.w3.org/Graphics/SVG/1.1/DTD/svg11.dtd">
<!-- Generated by graphviz version 2.40.1 (20161225.0304)
 -->
<!-- Title: Gmsh::AdditionalParameters Pages: 1 -->
<svg width="230pt" height="288pt"
 viewBox="0.00 0.00 229.50 288.00" xmlns="http://www.w3.org/2000/svg" xmlns:xlink="http://www.w3.org/1999/xlink">
<g id="graph0" class="graph" transform="scale(1 1) rotate(0) translate(4 284)">
<title>Gmsh::AdditionalParameters</title>
<polygon fill="#ffffff" stroke="transparent" points="-4,4 -4,-284 225.5,-284 225.5,4 -4,4"/>
<!-- Node1 -->
<g id="node1" class="node">
<title>Node1</title>
<polygon fill="#bfbfbf" stroke="#000000" points="12.5,-.5 12.5,-68.5 154.5,-68.5 154.5,-.5 12.5,-.5"/>
<text text-anchor="middle" x="83.5" y="-56.5" font-family="Helvetica,sans-Serif" font-size="10.00" fill="#000000">Gmsh::AdditionalParameters</text>
<polyline fill="none" stroke="#000000" points="12.5,-49.5 154.5,-49.5 "/>
<text text-anchor="middle" x="83.5" y="-37.5" font-family="Helvetica,sans-Serif" font-size="10.00" fill="#000000"> </text>
<polyline fill="none" stroke="#000000" points="12.5,-30.5 154.5,-30.5 "/>
<text text-anchor="start" x="20.5" y="-18.5" font-family="Helvetica,sans-Serif" font-size="10.00" fill="#000000">+ AdditionalParameters()</text>
<text text-anchor="start" x="20.5" y="-7.5" font-family="Helvetica,sans-Serif" font-size="10.00" fill="#000000">+ add_parameters()</text>
</g>
<!-- Node2 -->
<g id="node2" class="node">
<title>Node2</title>
<g id="a_node2"><a xlink:href="classdouble.html" target="_top" xlink:title="{double\n||}">
<polygon fill="#ffffff" stroke="#000000" points="0,-116.5 0,-173.5 45,-173.5 45,-116.5 0,-116.5"/>
<text text-anchor="middle" x="22.5" y="-161.5" font-family="Helvetica,sans-Serif" font-size="10.00" fill="#000000">double</text>
<polyline fill="none" stroke="#000000" points="0,-154.5 45,-154.5 "/>
<text text-anchor="middle" x="22.5" y="-142.5" font-family="Helvetica,sans-Serif" font-size="10.00" fill="#000000"> </text>
<polyline fill="none" stroke="#000000" points="0,-135.5 45,-135.5 "/>
<text text-anchor="middle" x="22.5" y="-123.5" font-family="Helvetica,sans-Serif" font-size="10.00" fill="#000000"> </text>
</a>
</g>
</g>
<!-- Node2&#45;&gt;Node1 -->
<g id="edge1" class="edge">
<title>Node2&#45;&gt;Node1</title>
<path fill="none" stroke="#404040" d="M18.4237,-116.2214C18.2239,-106.5498 19.3444,-95.952 23.5,-87 24.8996,-83.9849 26.5646,-81.0735 28.433,-78.2729"/>
<polygon fill="none" stroke="#404040" points="28.5833,-78.0807 29.1296,-70.8903 35.977,-68.629 35.4307,-75.8194 28.5833,-78.0807"/>
<text text-anchor="middle" x="73.5" y="-90" font-family="Helvetica,sans-Serif" font-size="10.00" fill="#000000"> +characteristic_length</text>
</g>
<!-- Node3 -->
<g id="node3" class="node">
<title>Node3</title>
<g id="a_node3"><a xlink:title="STL class. ">
<polygon fill="#ffffff" stroke="#bfbfbf" points="115.5,-116.5 115.5,-173.5 175.5,-173.5 175.5,-116.5 115.5,-116.5"/>
<text text-anchor="middle" x="145.5" y="-161.5" font-family="Helvetica,sans-Serif" font-size="10.00" fill="#000000">std::string</text>
<polyline fill="none" stroke="#bfbfbf" points="115.5,-154.5 175.5,-154.5 "/>
<text text-anchor="middle" x="145.5" y="-142.5" font-family="Helvetica,sans-Serif" font-size="10.00" fill="#000000"> </text>
<polyline fill="none" stroke="#bfbfbf" points="115.5,-135.5 175.5,-135.5 "/>
<text text-anchor="middle" x="145.5" y="-123.5" font-family="Helvetica,sans-Serif" font-size="10.00" fill="#000000"> </text>
</a>
</g>
</g>
<!-- Node3&#45;&gt;Node1 -->
<g id="edge2" class="edge">
<title>Node3&#45;&gt;Node1</title>
<path fill="none" stroke="#404040" d="M136.4501,-116.2405C132.9572,-106.6723 128.5706,-96.1333 123.5,-87 121.9374,-84.1855 120.2361,-81.3565 118.4453,-78.55"/>
<polygon fill="none" stroke="#404040" points="118.3978,-78.48 111.7181,-75.7632 111.6568,-68.5523 118.3366,-71.2692 118.3978,-78.48"/>
<text text-anchor="middle" x="175.5" y="-90" font-family="Helvetica,sans-Serif" font-size="10.00" fill="#000000"> +output_base_name</text>
</g>
<!-- Node4 -->
<g id="node4" class="node">
<title>Node4</title>
<g id="a_node4"><a xlink:title="STL class. ">
<polygon fill="#ffffff" stroke="#bfbfbf" points="98,-211.5 98,-279.5 193,-279.5 193,-211.5 98,-211.5"/>
<text text-anchor="start" x="106" y="-267.5" font-family="Helvetica,sans-Serif" font-size="10.00" fill="#000000">std::basic_string&lt;</text>
<text text-anchor="middle" x="145.5" y="-256.5" font-family="Helvetica,sans-Serif" font-size="10.00" fill="#000000"> char &gt;</text>
<polyline fill="none" stroke="#bfbfbf" points="98,-249.5 193,-249.5 "/>
<text text-anchor="middle" x="145.5" y="-237.5" font-family="Helvetica,sans-Serif" font-size="10.00" fill="#000000"> </text>
<polyline fill="none" stroke="#bfbfbf" points="98,-230.5 193,-230.5 "/>
<text text-anchor="middle" x="145.5" y="-218.5" font-family="Helvetica,sans-Serif" font-size="10.00" fill="#000000"> </text>
</a>
</g>
</g>
<!-- Node4&#45;&gt;Node3 -->
<g id="edge3" class="edge">
<title>Node4&#45;&gt;Node3</title>
<path fill="none" stroke="#191970" d="M145.5,-201.4301C145.5,-192.0073 145.5,-182.2901 145.5,-173.6312"/>
<polygon fill="none" stroke="#191970" points="142.0001,-201.4752 145.5,-211.4753 149.0001,-201.4753 142.0001,-201.4752"/>
</g>
</g>
</svg>
