<?xml version="1.0" encoding="UTF-8" standalone="no"?>
<!DOCTYPE svg PUBLIC "-//W3C//DTD SVG 1.1//EN"
 "http://www.w3.org/Graphics/SVG/1.1/DTD/svg11.dtd">
<!-- Generated by graphviz version 2.40.1 (20161225.0304)
 -->
<!-- Title: DerivativeForm&lt; order, dim, spacedim, Number &gt; Pages: 1 -->
<svg width="415pt" height="235pt"
 viewBox="0.00 0.00 415.00 235.00" xmlns="http://www.w3.org/2000/svg" xmlns:xlink="http://www.w3.org/1999/xlink">
<g id="graph0" class="graph" transform="scale(1 1) rotate(0) translate(4 231)">
<title>DerivativeForm&lt; order, dim, spacedim, Number &gt;</title>
<polygon fill="#ffffff" stroke="transparent" points="-4,4 -4,-231 411,-231 411,4 -4,4"/>
<!-- Node0 -->
<g id="node1" class="node">
<title>Node0</title>
<polygon fill="#bfbfbf" stroke="#000000" points="0,-98.5 0,-128.5 148,-128.5 148,-98.5 0,-98.5"/>
<text text-anchor="start" x="8" y="-116.5" font-family="Helvetica,sans-Serif" font-size="10.00" fill="#000000">DerivativeForm&lt; order,</text>
<text text-anchor="middle" x="74" y="-105.5" font-family="Helvetica,sans-Serif" font-size="10.00" fill="#000000"> dim, spacedim, Number &gt;</text>
</g>
<!-- Node1 -->
<g id="node2" class="node">
<title>Node1</title>
<g id="a_node2"><a xlink:href="classDerivativeForm.html" target="_top" xlink:title="DerivativeForm\&lt; 1,\l dim, spacedim \&gt;">
<polygon fill="#ffffff" stroke="#000000" points="294,-196.5 294,-226.5 407,-226.5 407,-196.5 294,-196.5"/>
<text text-anchor="start" x="302" y="-214.5" font-family="Helvetica,sans-Serif" font-size="10.00" fill="#000000">DerivativeForm&lt; 1,</text>
<text text-anchor="middle" x="350.5" y="-203.5" font-family="Helvetica,sans-Serif" font-size="10.00" fill="#000000"> dim, spacedim &gt;</text>
</a>
</g>
</g>
<!-- Node0&#45;&gt;Node1 -->
<g id="edge1" class="edge">
<title>Node0&#45;&gt;Node1</title>
<path fill="none" stroke="#ffa500" stroke-dasharray="5,2" d="M107.6372,-133.8193C124.6804,-143.4867 145.963,-154.6247 166,-162.5 207.6404,-178.8663 256.671,-191.5978 293.7177,-199.9767"/>
<polygon fill="#ffa500" stroke="#ffa500" points="109.0509,-130.5942 98.6397,-128.6299 105.5535,-136.658 109.0509,-130.5942"/>
<text text-anchor="middle" x="221" y="-197.5" font-family="Helvetica,sans-Serif" font-size="10.00" fill="#000000"> &lt; 1, dim, spacedim &gt;</text>
</g>
<!-- Node2 -->
<g id="node3" class="node">
<title>Node2</title>
<g id="a_node3"><a xlink:href="classDerivativeForm.html" target="_top" xlink:title="DerivativeForm\&lt; 4,\l dim, spacedim \&gt;">
<polygon fill="#ffffff" stroke="#000000" points="294,-147.5 294,-177.5 407,-177.5 407,-147.5 294,-147.5"/>
<text text-anchor="start" x="302" y="-165.5" font-family="Helvetica,sans-Serif" font-size="10.00" fill="#000000">DerivativeForm&lt; 4,</text>
<text text-anchor="middle" x="350.5" y="-154.5" font-family="Helvetica,sans-Serif" font-size="10.00" fill="#000000"> dim, spacedim &gt;</text>
</a>
</g>
</g>
<!-- Node0&#45;&gt;Node2 -->
<g id="edge2" class="edge">
<title>Node0&#45;&gt;Node2</title>
<path fill="none" stroke="#ffa500" stroke-dasharray="5,2" d="M158.1937,-128.4204C202.1183,-136.2045 254.684,-145.5199 293.7483,-152.4427"/>
<polygon fill="#ffa500" stroke="#ffa500" points="158.5543,-124.9298 148.0969,-126.6311 157.3327,-131.8224 158.5543,-124.9298"/>
<text text-anchor="middle" x="221" y="-150.5" font-family="Helvetica,sans-Serif" font-size="10.00" fill="#000000"> &lt; 4, dim, spacedim &gt;</text>
</g>
<!-- Node3 -->
<g id="node4" class="node">
<title>Node3</title>
<g id="a_node4"><a xlink:href="classDerivativeForm.html" target="_top" xlink:title="DerivativeForm\&lt; 1,\l spacedim, dim \&gt;">
<polygon fill="#ffffff" stroke="#000000" points="294,-98.5 294,-128.5 407,-128.5 407,-98.5 294,-98.5"/>
<text text-anchor="start" x="302" y="-116.5" font-family="Helvetica,sans-Serif" font-size="10.00" fill="#000000">DerivativeForm&lt; 1,</text>
<text text-anchor="middle" x="350.5" y="-105.5" font-family="Helvetica,sans-Serif" font-size="10.00" fill="#000000"> spacedim, dim &gt;</text>
</a>
</g>
</g>
<!-- Node0&#45;&gt;Node3 -->
<g id="edge3" class="edge">
<title>Node0&#45;&gt;Node3</title>
<path fill="none" stroke="#ffa500" stroke-dasharray="5,2" d="M158.1937,-113.5C202.1183,-113.5 254.684,-113.5 293.7483,-113.5"/>
<polygon fill="#ffa500" stroke="#ffa500" points="158.097,-110.0001 148.0969,-113.5 158.0969,-117.0001 158.097,-110.0001"/>
<text text-anchor="middle" x="221" y="-116.5" font-family="Helvetica,sans-Serif" font-size="10.00" fill="#000000"> &lt; 1, spacedim, dim &gt;</text>
</g>
<!-- Node4 -->
<g id="node5" class="node">
<title>Node4</title>
<g id="a_node5"><a xlink:href="classDerivativeForm.html" target="_top" xlink:title="DerivativeForm\&lt; 2,\l dim, spacedim \&gt;">
<polygon fill="#ffffff" stroke="#000000" points="294,-49.5 294,-79.5 407,-79.5 407,-49.5 294,-49.5"/>
<text text-anchor="start" x="302" y="-67.5" font-family="Helvetica,sans-Serif" font-size="10.00" fill="#000000">DerivativeForm&lt; 2,</text>
<text text-anchor="middle" x="350.5" y="-56.5" font-family="Helvetica,sans-Serif" font-size="10.00" fill="#000000"> dim, spacedim &gt;</text>
</a>
</g>
</g>
<!-- Node0&#45;&gt;Node4 -->
<g id="edge4" class="edge">
<title>Node0&#45;&gt;Node4</title>
<path fill="none" stroke="#ffa500" stroke-dasharray="5,2" d="M158.1937,-98.5796C202.1183,-90.7955 254.684,-81.4801 293.7483,-74.5573"/>
<polygon fill="#ffa500" stroke="#ffa500" points="157.3327,-95.1776 148.0969,-100.3689 158.5543,-102.0702 157.3327,-95.1776"/>
<text text-anchor="middle" x="221" y="-98.5" font-family="Helvetica,sans-Serif" font-size="10.00" fill="#000000"> &lt; 2, dim, spacedim &gt;</text>
</g>
<!-- Node5 -->
<g id="node6" class="node">
<title>Node5</title>
<g id="a_node6"><a xlink:href="classDerivativeForm.html" target="_top" xlink:title="DerivativeForm\&lt; 3,\l dim, spacedim \&gt;">
<polygon fill="#ffffff" stroke="#000000" points="294,-.5 294,-30.5 407,-30.5 407,-.5 294,-.5"/>
<text text-anchor="start" x="302" y="-18.5" font-family="Helvetica,sans-Serif" font-size="10.00" fill="#000000">DerivativeForm&lt; 3,</text>
<text text-anchor="middle" x="350.5" y="-7.5" font-family="Helvetica,sans-Serif" font-size="10.00" fill="#000000"> dim, spacedim &gt;</text>
</a>
</g>
</g>
<!-- Node0&#45;&gt;Node5 -->
<g id="edge5" class="edge">
<title>Node0&#45;&gt;Node5</title>
<path fill="none" stroke="#ffa500" stroke-dasharray="5,2" d="M106.8484,-93.1074C123.993,-83.1267 145.6,-71.5576 166,-63.5 207.5574,-47.0857 256.5926,-34.6349 293.6621,-26.5321"/>
<polygon fill="#ffa500" stroke="#ffa500" points="104.6386,-90.3484 97.8187,-98.4564 108.2063,-96.371 104.6386,-90.3484"/>
<text text-anchor="middle" x="221" y="-66.5" font-family="Helvetica,sans-Serif" font-size="10.00" fill="#000000"> &lt; 3, dim, spacedim &gt;</text>
</g>
</g>
</svg>
