<?xml version="1.0" encoding="UTF-8" standalone="no"?>
<!DOCTYPE svg PUBLIC "-//W3C//DTD SVG 1.1//EN"
 "http://www.w3.org/Graphics/SVG/1.1/DTD/svg11.dtd">
<!-- Generated by graphviz version 2.40.1 (20161225.0304)
 -->
<!-- Title: PreconditionBlockSSOR&lt; MatrixType, inverse_type &gt; Pages: 1 -->
<svg width="275pt" height="354pt"
 viewBox="0.00 0.00 275.00 354.00" xmlns="http://www.w3.org/2000/svg" xmlns:xlink="http://www.w3.org/1999/xlink">
<g id="graph0" class="graph" transform="scale(1 1) rotate(0) translate(4 350)">
<title>PreconditionBlockSSOR&lt; MatrixType, inverse_type &gt;</title>
<polygon fill="#ffffff" stroke="transparent" points="-4,4 -4,-350 271,-350 271,4 -4,4"/>
<!-- Node0 -->
<g id="node1" class="node">
<title>Node0</title>
<polygon fill="#bfbfbf" stroke="#000000" points="0,-.5 0,-41.5 124,-41.5 124,-.5 0,-.5"/>
<text text-anchor="start" x="8" y="-29.5" font-family="Helvetica,sans-Serif" font-size="10.00" fill="#000000">PreconditionBlockSSOR</text>
<text text-anchor="start" x="8" y="-18.5" font-family="Helvetica,sans-Serif" font-size="10.00" fill="#000000">&lt; MatrixType, inverse</text>
<text text-anchor="middle" x="62" y="-7.5" font-family="Helvetica,sans-Serif" font-size="10.00" fill="#000000">_type &gt;</text>
</g>
<!-- Node1 -->
<g id="node2" class="node">
<title>Node1</title>
<g id="a_node2"><a xlink:href="classSubscriptor.html" target="_top" xlink:title="Subscriptor">
<polygon fill="#ffffff" stroke="#000000" points="47,-243 47,-262 113,-262 113,-243 47,-243"/>
<text text-anchor="middle" x="80" y="-250" font-family="Helvetica,sans-Serif" font-size="10.00" fill="#000000">Subscriptor</text>
</a>
</g>
</g>
<!-- Node1&#45;&gt;Node0 -->
<g id="edge1" class="edge">
<title>Node1&#45;&gt;Node0</title>
<path fill="none" stroke="#191970" d="M78.2552,-232.6514C76.012,-206.9114 72.0434,-160.6171 69,-121 66.8938,-93.5831 64.721,-61.9169 63.3661,-41.6903"/>
<polygon fill="#191970" stroke="#191970" points="74.7965,-233.277 79.155,-242.9338 81.7699,-232.6667 74.7965,-233.277"/>
</g>
<!-- Node2 -->
<g id="node3" class="node">
<title>Node2</title>
<g id="a_node3"><a xlink:href="classPreconditionBlockSOR.html" target="_top" xlink:title="PreconditionBlockSOR\l\&lt; MatrixType, inverse\l_type \&gt;">
<polygon fill="#ffffff" stroke="#000000" points="78.5,-79.5 78.5,-120.5 195.5,-120.5 195.5,-79.5 78.5,-79.5"/>
<text text-anchor="start" x="86.5" y="-108.5" font-family="Helvetica,sans-Serif" font-size="10.00" fill="#000000">PreconditionBlockSOR</text>
<text text-anchor="start" x="86.5" y="-97.5" font-family="Helvetica,sans-Serif" font-size="10.00" fill="#000000">&lt; MatrixType, inverse</text>
<text text-anchor="middle" x="137" y="-86.5" font-family="Helvetica,sans-Serif" font-size="10.00" fill="#000000">_type &gt;</text>
</a>
</g>
</g>
<!-- Node1&#45;&gt;Node2 -->
<g id="edge3" class="edge">
<title>Node1&#45;&gt;Node2</title>
<path fill="none" stroke="#191970" d="M84.3314,-233.1484C88.943,-213.7811 96.956,-183.3068 107,-158 112.0603,-145.2501 119.0392,-131.5954 124.9924,-120.7396"/>
<polygon fill="#191970" stroke="#191970" points="80.9187,-232.3721 82.0738,-242.9038 87.7384,-233.9504 80.9187,-232.3721"/>
</g>
<!-- Node3 -->
<g id="node4" class="node">
<title>Node3</title>
<g id="a_node4"><a xlink:href="classPreconditionBlock.html" target="_top" xlink:title="PreconditionBlock\&lt;\l MatrixType, inverse\l_type \&gt;">
<polygon fill="#ffffff" stroke="#000000" points="116,-158.5 116,-199.5 222,-199.5 222,-158.5 116,-158.5"/>
<text text-anchor="start" x="124" y="-187.5" font-family="Helvetica,sans-Serif" font-size="10.00" fill="#000000">PreconditionBlock&lt;</text>
<text text-anchor="start" x="124" y="-176.5" font-family="Helvetica,sans-Serif" font-size="10.00" fill="#000000"> MatrixType, inverse</text>
<text text-anchor="middle" x="169" y="-165.5" font-family="Helvetica,sans-Serif" font-size="10.00" fill="#000000">_type &gt;</text>
</a>
</g>
</g>
<!-- Node1&#45;&gt;Node3 -->
<g id="edge5" class="edge">
<title>Node1&#45;&gt;Node3</title>
<path fill="none" stroke="#191970" d="M99.5124,-236.3858C112.5451,-225.6228 129.8087,-211.3658 143.8679,-199.7552"/>
<polygon fill="#191970" stroke="#191970" points="97.1171,-233.8247 91.6352,-242.8912 101.5745,-239.2221 97.1171,-233.8247"/>
</g>
<!-- Node2&#45;&gt;Node0 -->
<g id="edge2" class="edge">
<title>Node2&#45;&gt;Node0</title>
<path fill="none" stroke="#8b1a1a" d="M110.2914,-71.8669C100.8185,-61.8888 90.3413,-50.8529 81.5738,-41.6177"/>
<polygon fill="#8b1a1a" stroke="#8b1a1a" points="107.8712,-74.4012 117.2946,-79.2437 112.9478,-69.5816 107.8712,-74.4012"/>
</g>
<!-- Node3&#45;&gt;Node2 -->
<g id="edge4" class="edge">
<title>Node3&#45;&gt;Node2</title>
<path fill="none" stroke="#006400" d="M156.7665,-148.7986C152.9524,-139.3825 148.8356,-129.2191 145.3515,-120.6177"/>
<polygon fill="#006400" stroke="#006400" points="153.594,-150.2892 160.5924,-158.2437 160.082,-147.6611 153.594,-150.2892"/>
</g>
<!-- Node4 -->
<g id="node5" class="node">
<title>Node4</title>
<g id="a_node5"><a xlink:href="classPreconditionBlockBase.html" target="_top" xlink:title="PreconditionBlockBase\l\&lt; inverse_type \&gt;">
<polygon fill="#ffffff" stroke="#000000" points="131,-237.5 131,-267.5 249,-267.5 249,-237.5 131,-237.5"/>
<text text-anchor="start" x="139" y="-255.5" font-family="Helvetica,sans-Serif" font-size="10.00" fill="#000000">PreconditionBlockBase</text>
<text text-anchor="middle" x="190" y="-244.5" font-family="Helvetica,sans-Serif" font-size="10.00" fill="#000000">&lt; inverse_type &gt;</text>
</a>
</g>
</g>
<!-- Node4&#45;&gt;Node3 -->
<g id="edge6" class="edge">
<title>Node4&#45;&gt;Node3</title>
<path fill="none" stroke="#006400" d="M182.8748,-227.5618C180.2656,-218.4294 177.3452,-208.2081 174.8593,-199.5074"/>
<polygon fill="#006400" stroke="#006400" points="179.5362,-228.6171 185.6488,-237.2708 186.2668,-226.694 179.5362,-228.6171"/>
</g>
<!-- Node5 -->
<g id="node6" class="node">
<title>Node5</title>
<g id="a_node6"><a xlink:href="classPreconditionBlockBase.html" target="_top" xlink:title="PreconditionBlockBase\l\&lt; number \&gt;">
<polygon fill="#ffffff" stroke="#000000" points="131,-315.5 131,-345.5 249,-345.5 249,-315.5 131,-315.5"/>
<text text-anchor="start" x="139" y="-333.5" font-family="Helvetica,sans-Serif" font-size="10.00" fill="#000000">PreconditionBlockBase</text>
<text text-anchor="middle" x="190" y="-322.5" font-family="Helvetica,sans-Serif" font-size="10.00" fill="#000000">&lt; number &gt;</text>
</a>
</g>
</g>
<!-- Node5&#45;&gt;Node4 -->
<g id="edge7" class="edge">
<title>Node5&#45;&gt;Node4</title>
<path fill="none" stroke="#ffa500" stroke-dasharray="5,2" d="M190,-305.2875C190,-292.9187 190,-278.4264 190,-267.7592"/>
<polygon fill="#ffa500" stroke="#ffa500" points="186.5001,-305.4608 190,-315.4608 193.5001,-305.4608 186.5001,-305.4608"/>
<text text-anchor="middle" x="228.5" y="-289" font-family="Helvetica,sans-Serif" font-size="10.00" fill="#000000"> &lt; inverse_type &gt;</text>
</g>
</g>
</svg>
