<?xml version="1.0" encoding="UTF-8" standalone="no"?>
<!DOCTYPE svg PUBLIC "-//W3C//DTD SVG 1.1//EN"
 "http://www.w3.org/Graphics/SVG/1.1/DTD/svg11.dtd">
<!-- Generated by graphviz version 2.40.1 (20161225.0304)
 -->
<!-- Title: MappingQ&lt; dim, spacedim &gt; Pages: 1 -->
<svg width="298pt" height="207pt"
 viewBox="0.00 0.00 298.00 207.00" xmlns="http://www.w3.org/2000/svg" xmlns:xlink="http://www.w3.org/1999/xlink">
<g id="graph0" class="graph" transform="scale(1 1) rotate(0) translate(4 203)">
<title>MappingQ&lt; dim, spacedim &gt;</title>
<polygon fill="#ffffff" stroke="transparent" points="-4,4 -4,-203 294,-203 294,4 -4,4"/>
<!-- Node0 -->
<g id="node1" class="node">
<title>Node0</title>
<polygon fill="#bfbfbf" stroke="#000000" points="79.5,-67.5 79.5,-86.5 222.5,-86.5 222.5,-67.5 79.5,-67.5"/>
<text text-anchor="middle" x="151" y="-74.5" font-family="Helvetica,sans-Serif" font-size="10.00" fill="#000000">MappingQ&lt; dim, spacedim &gt;</text>
</g>
<!-- Node3 -->
<g id="node4" class="node">
<title>Node3</title>
<g id="a_node4"><a xlink:href="classMappingC1.html" target="_top" xlink:title="MappingC1\&lt; dim, spacedim \&gt;">
<polygon fill="#ffffff" stroke="#000000" points="0,-6 0,-25 148,-25 148,-6 0,-6"/>
<text text-anchor="middle" x="74" y="-13" font-family="Helvetica,sans-Serif" font-size="10.00" fill="#000000">MappingC1&lt; dim, spacedim &gt;</text>
</a>
</g>
</g>
<!-- Node0&#45;&gt;Node3 -->
<g id="edge3" class="edge">
<title>Node0&#45;&gt;Node3</title>
<path fill="none" stroke="#191970" d="M131.1542,-61.1491C116.847,-49.722 98.0076,-34.6749 85.9468,-25.0419"/>
<polygon fill="#191970" stroke="#191970" points="128.9708,-63.8846 138.9688,-67.3906 133.3394,-58.415 128.9708,-63.8846"/>
</g>
<!-- Node4 -->
<g id="node5" class="node">
<title>Node4</title>
<g id="a_node5"><a xlink:href="classMappingQEulerian.html" target="_top" xlink:title="MappingQEulerian\&lt; dim,\l spacedim \&gt;">
<polygon fill="#ffffff" stroke="#000000" points="166,-.5 166,-30.5 290,-30.5 290,-.5 166,-.5"/>
<text text-anchor="start" x="174" y="-18.5" font-family="Helvetica,sans-Serif" font-size="10.00" fill="#000000">MappingQEulerian&lt; dim,</text>
<text text-anchor="middle" x="228" y="-7.5" font-family="Helvetica,sans-Serif" font-size="10.00" fill="#000000"> spacedim &gt;</text>
</a>
</g>
</g>
<!-- Node0&#45;&gt;Node4 -->
<g id="edge4" class="edge">
<title>Node0&#45;&gt;Node4</title>
<path fill="none" stroke="#191970" d="M170.9844,-61.0385C182.7671,-51.6276 197.5867,-39.7911 209.1637,-30.5446"/>
<polygon fill="#191970" stroke="#191970" points="168.6606,-58.415 163.0313,-67.3906 173.0292,-63.8846 168.6606,-58.415"/>
</g>
<!-- Node1 -->
<g id="node2" class="node">
<title>Node1</title>
<g id="a_node2"><a xlink:href="classMapping.html" target="_top" xlink:title="Abstract base class for mapping classes. ">
<polygon fill="#ffffff" stroke="#000000" points="83.5,-123.5 83.5,-142.5 218.5,-142.5 218.5,-123.5 83.5,-123.5"/>
<text text-anchor="middle" x="151" y="-130.5" font-family="Helvetica,sans-Serif" font-size="10.00" fill="#000000">Mapping&lt; dim, spacedim &gt;</text>
</a>
</g>
</g>
<!-- Node1&#45;&gt;Node0 -->
<g id="edge1" class="edge">
<title>Node1&#45;&gt;Node0</title>
<path fill="none" stroke="#191970" d="M151,-113.1575C151,-104.155 151,-93.9199 151,-86.6427"/>
<polygon fill="#191970" stroke="#191970" points="147.5001,-113.2455 151,-123.2455 154.5001,-113.2456 147.5001,-113.2455"/>
</g>
<!-- Node2 -->
<g id="node3" class="node">
<title>Node2</title>
<g id="a_node3"><a xlink:href="classSubscriptor.html" target="_top" xlink:title="Subscriptor">
<polygon fill="#ffffff" stroke="#000000" points="118,-179.5 118,-198.5 184,-198.5 184,-179.5 118,-179.5"/>
<text text-anchor="middle" x="151" y="-186.5" font-family="Helvetica,sans-Serif" font-size="10.00" fill="#000000">Subscriptor</text>
</a>
</g>
</g>
<!-- Node2&#45;&gt;Node1 -->
<g id="edge2" class="edge">
<title>Node2&#45;&gt;Node1</title>
<path fill="none" stroke="#191970" d="M151,-169.1575C151,-160.155 151,-149.9199 151,-142.6427"/>
<polygon fill="#191970" stroke="#191970" points="147.5001,-169.2455 151,-179.2455 154.5001,-169.2456 147.5001,-169.2455"/>
</g>
</g>
</svg>
