<?xml version="1.0" encoding="UTF-8" standalone="no"?>
<!DOCTYPE svg PUBLIC "-//W3C//DTD SVG 1.1//EN"
 "http://www.w3.org/Graphics/SVG/1.1/DTD/svg11.dtd">
<!-- Generated by graphviz version 2.40.1 (20161225.0304)
 -->
<!-- Title: MeshWorker::Assembler::ResidualSimple&lt; VectorType &gt; Pages: 1 -->
<svg width="181pt" height="106pt"
 viewBox="0.00 0.00 181.00 106.00" xmlns="http://www.w3.org/2000/svg" xmlns:xlink="http://www.w3.org/1999/xlink">
<g id="graph0" class="graph" transform="scale(1 1) rotate(0) translate(4 102)">
<title>MeshWorker::Assembler::ResidualSimple&lt; VectorType &gt;</title>
<polygon fill="#ffffff" stroke="transparent" points="-4,4 -4,-102 177,-102 177,4 -4,4"/>
<!-- Node0 -->
<g id="node1" class="node">
<title>Node0</title>
<polygon fill="#bfbfbf" stroke="#000000" points="0,-67.5 0,-97.5 173,-97.5 173,-67.5 0,-67.5"/>
<text text-anchor="start" x="8" y="-85.5" font-family="Helvetica,sans-Serif" font-size="10.00" fill="#000000">MeshWorker::Assembler</text>
<text text-anchor="middle" x="86.5" y="-74.5" font-family="Helvetica,sans-Serif" font-size="10.00" fill="#000000">::ResidualSimple&lt; VectorType &gt;</text>
</g>
<!-- Node1 -->
<g id="node2" class="node">
<title>Node1</title>
<g id="a_node2"><a xlink:href="classMeshWorker_1_1Assembler_1_1SystemSimple.html" target="_top" xlink:title="MeshWorker::Assembler\l::SystemSimple\&lt; VectorType \&gt;">
<polygon fill="#ffffff" stroke="#000000" points="2,-.5 2,-30.5 171,-30.5 171,-.5 2,-.5"/>
<text text-anchor="start" x="10" y="-18.5" font-family="Helvetica,sans-Serif" font-size="10.00" fill="#000000">MeshWorker::Assembler</text>
<text text-anchor="middle" x="86.5" y="-7.5" font-family="Helvetica,sans-Serif" font-size="10.00" fill="#000000">::SystemSimple&lt; VectorType &gt;</text>
</a>
</g>
</g>
<!-- Node0&#45;&gt;Node1 -->
<g id="edge1" class="edge">
<title>Node0&#45;&gt;Node1</title>
<path fill="none" stroke="#8b1a1a" d="M86.5,-57.0249C86.5,-48.128 86.5,-38.4287 86.5,-30.6432"/>
<polygon fill="#8b1a1a" stroke="#8b1a1a" points="83.0001,-57.2966 86.5,-67.2967 90.0001,-57.2967 83.0001,-57.2966"/>
</g>
</g>
</svg>
