<?xml version="1.0" encoding="UTF-8" standalone="no"?>
<!DOCTYPE svg PUBLIC "-//W3C//DTD SVG 1.1//EN"
 "http://www.w3.org/Graphics/SVG/1.1/DTD/svg11.dtd">
<!-- Generated by graphviz version 2.40.1 (20161225.0304)
 -->
<!-- Title: TimeStepBase_Tria&lt; dim &gt; Pages: 1 -->
<svg width="117pt" height="151pt"
 viewBox="0.00 0.00 117.00 151.00" xmlns="http://www.w3.org/2000/svg" xmlns:xlink="http://www.w3.org/1999/xlink">
<g id="graph0" class="graph" transform="scale(1 1) rotate(0) translate(4 147)">
<title>TimeStepBase_Tria&lt; dim &gt;</title>
<polygon fill="#ffffff" stroke="transparent" points="-4,4 -4,-147 113,-147 113,4 -4,4"/>
<!-- Node0 -->
<g id="node1" class="node">
<title>Node0</title>
<polygon fill="#bfbfbf" stroke="#000000" points="0,-.5 0,-30.5 109,-30.5 109,-.5 0,-.5"/>
<text text-anchor="start" x="8" y="-18.5" font-family="Helvetica,sans-Serif" font-size="10.00" fill="#000000">TimeStepBase_Tria&lt;</text>
<text text-anchor="middle" x="54.5" y="-7.5" font-family="Helvetica,sans-Serif" font-size="10.00" fill="#000000"> dim &gt;</text>
</g>
<!-- Node1 -->
<g id="node2" class="node">
<title>Node1</title>
<g id="a_node2"><a xlink:href="classTimeStepBase.html" target="_top" xlink:title="TimeStepBase">
<polygon fill="#ffffff" stroke="#000000" points="14,-67.5 14,-86.5 95,-86.5 95,-67.5 14,-67.5"/>
<text text-anchor="middle" x="54.5" y="-74.5" font-family="Helvetica,sans-Serif" font-size="10.00" fill="#000000">TimeStepBase</text>
</a>
</g>
</g>
<!-- Node1&#45;&gt;Node0 -->
<g id="edge1" class="edge">
<title>Node1&#45;&gt;Node0</title>
<path fill="none" stroke="#191970" d="M54.5,-57.3693C54.5,-48.681 54.5,-38.6241 54.5,-30.5446"/>
<polygon fill="#191970" stroke="#191970" points="51.0001,-57.3906 54.5,-67.3906 58.0001,-57.3907 51.0001,-57.3906"/>
</g>
<!-- Node2 -->
<g id="node3" class="node">
<title>Node2</title>
<g id="a_node3"><a xlink:href="classSubscriptor.html" target="_top" xlink:title="Subscriptor">
<polygon fill="#ffffff" stroke="#000000" points="21.5,-123.5 21.5,-142.5 87.5,-142.5 87.5,-123.5 21.5,-123.5"/>
<text text-anchor="middle" x="54.5" y="-130.5" font-family="Helvetica,sans-Serif" font-size="10.00" fill="#000000">Subscriptor</text>
</a>
</g>
</g>
<!-- Node2&#45;&gt;Node1 -->
<g id="edge2" class="edge">
<title>Node2&#45;&gt;Node1</title>
<path fill="none" stroke="#191970" d="M54.5,-113.1575C54.5,-104.155 54.5,-93.9199 54.5,-86.6427"/>
<polygon fill="#191970" stroke="#191970" points="51.0001,-113.2455 54.5,-123.2455 58.0001,-113.2456 51.0001,-113.2455"/>
</g>
</g>
</svg>
