<?xml version="1.0" encoding="UTF-8" standalone="no"?>
<!DOCTYPE svg PUBLIC "-//W3C//DTD SVG 1.1//EN"
 "http://www.w3.org/Graphics/SVG/1.1/DTD/svg11.dtd">
<!-- Generated by graphviz version 2.40.1 (20161225.0304)
 -->
<!-- Title: MGTransferBlockMatrixFree&lt; dim, Number &gt; Pages: 1 -->
<svg width="302pt" height="253pt"
 viewBox="0.00 0.00 302.00 253.00" xmlns="http://www.w3.org/2000/svg" xmlns:xlink="http://www.w3.org/1999/xlink">
<g id="graph0" class="graph" transform="scale(1 1) rotate(0) translate(4 249)">
<title>MGTransferBlockMatrixFree&lt; dim, Number &gt;</title>
<polygon fill="#ffffff" stroke="transparent" points="-4,4 -4,-249 298,-249 298,4 -4,4"/>
<!-- Node0 -->
<g id="node1" class="node">
<title>Node0</title>
<polygon fill="#bfbfbf" stroke="#000000" points="12.5,-.5 12.5,-30.5 161.5,-30.5 161.5,-.5 12.5,-.5"/>
<text text-anchor="start" x="20.5" y="-18.5" font-family="Helvetica,sans-Serif" font-size="10.00" fill="#000000">MGTransferBlockMatrixFree</text>
<text text-anchor="middle" x="87" y="-7.5" font-family="Helvetica,sans-Serif" font-size="10.00" fill="#000000">&lt; dim, Number &gt;</text>
</g>
<!-- Node1 -->
<g id="node2" class="node">
<title>Node1</title>
<g id="a_node2"><a xlink:href="classMGTransferBase.html" target="_top" xlink:title="MGTransferBase\&lt; LinearAlgebra\l::distributed::BlockVector\l\&lt; Number \&gt; \&gt;">
<polygon fill="#ffffff" stroke="#000000" points="0,-68.5 0,-109.5 174,-109.5 174,-68.5 0,-68.5"/>
<text text-anchor="start" x="8" y="-97.5" font-family="Helvetica,sans-Serif" font-size="10.00" fill="#000000">MGTransferBase&lt; LinearAlgebra</text>
<text text-anchor="start" x="8" y="-86.5" font-family="Helvetica,sans-Serif" font-size="10.00" fill="#000000">::distributed::BlockVector</text>
<text text-anchor="middle" x="87" y="-75.5" font-family="Helvetica,sans-Serif" font-size="10.00" fill="#000000">&lt; Number &gt; &gt;</text>
</a>
</g>
</g>
<!-- Node1&#45;&gt;Node0 -->
<g id="edge1" class="edge">
<title>Node1&#45;&gt;Node0</title>
<path fill="none" stroke="#191970" d="M87,-57.9048C87,-48.5365 87,-38.666 87,-30.8074"/>
<polygon fill="#191970" stroke="#191970" points="83.5001,-58.1344 87,-68.1345 90.5001,-58.1345 83.5001,-58.1344"/>
</g>
<!-- Node2 -->
<g id="node3" class="node">
<title>Node2</title>
<g id="a_node3"><a xlink:href="classSubscriptor.html" target="_top" xlink:title="Subscriptor">
<polygon fill="#ffffff" stroke="#000000" points="47.5,-225.5 47.5,-244.5 118.5,-244.5 118.5,-225.5 47.5,-225.5"/>
<text text-anchor="middle" x="83" y="-232.5" font-family="Helvetica,sans-Serif" font-size="10.00" fill="#000000">Subscriptor</text>
</a>
</g>
</g>
<!-- Node2&#45;&gt;Node1 -->
<g id="edge2" class="edge">
<title>Node2&#45;&gt;Node1</title>
<path fill="none" stroke="#191970" d="M83.537,-215.4002C84.2939,-187.7713 85.6681,-137.6127 86.4383,-109.5025"/>
<polygon fill="#191970" stroke="#191970" points="80.0377,-215.3284 83.2625,-225.4205 87.0351,-215.5202 80.0377,-215.3284"/>
</g>
<!-- Node3 -->
<g id="node4" class="node">
<title>Node3</title>
<g id="a_node4"><a xlink:href="classMGTransferBase.html" target="_top" xlink:title="MGTransferBase\&lt; VectorType \&gt;">
<polygon fill="#ffffff" stroke="#000000" points="99.5,-168.5 99.5,-187.5 270.5,-187.5 270.5,-168.5 99.5,-168.5"/>
<text text-anchor="middle" x="185" y="-175.5" font-family="Helvetica,sans-Serif" font-size="10.00" fill="#000000">MGTransferBase&lt; VectorType &gt;</text>
</a>
</g>
</g>
<!-- Node2&#45;&gt;Node3 -->
<g id="edge4" class="edge">
<title>Node2&#45;&gt;Node3</title>
<path fill="none" stroke="#191970" d="M109.1155,-220.4061C127.6132,-210.0691 151.8964,-196.4991 167.9526,-187.5265"/>
<polygon fill="#191970" stroke="#191970" points="107.325,-217.3972 100.3029,-225.3307 110.7397,-223.5078 107.325,-217.3972"/>
</g>
<!-- Node3&#45;&gt;Node1 -->
<g id="edge3" class="edge">
<title>Node3&#45;&gt;Node1</title>
<path fill="none" stroke="#ffa500" stroke-dasharray="5,2" d="M166.8183,-161.4881C150.6517,-146.8061 126.9511,-125.2821 109.5754,-109.5022"/>
<polygon fill="#ffa500" stroke="#ffa500" points="164.7564,-164.3434 174.5123,-168.4754 169.4625,-159.1614 164.7564,-164.3434"/>
<text text-anchor="start" x="153" y="-142" font-family="Helvetica,sans-Serif" font-size="10.00" fill="#000000"> &lt; LinearAlgebra::distributed</text>
<text text-anchor="middle" x="223.5" y="-131" font-family="Helvetica,sans-Serif" font-size="10.00" fill="#000000">::BlockVector&lt; Number &gt; &gt;</text>
</g>
</g>
</svg>
