<?xml version="1.0" encoding="UTF-8" standalone="no"?>
<!DOCTYPE svg PUBLIC "-//W3C//DTD SVG 1.1//EN"
 "http://www.w3.org/Graphics/SVG/1.1/DTD/svg11.dtd">
<!-- Generated by graphviz version 2.40.1 (20161225.0304)
 -->
<!-- Title: ChartManifold&lt; dim, spacedim, chartdim &gt; Pages: 1 -->
<svg width="1298pt" height="634pt"
 viewBox="0.00 0.00 1298.00 634.00" xmlns="http://www.w3.org/2000/svg" xmlns:xlink="http://www.w3.org/1999/xlink">
<g id="graph0" class="graph" transform="scale(1 1) rotate(0) translate(4 630)">
<title>ChartManifold&lt; dim, spacedim, chartdim &gt;</title>
<polygon fill="#ffffff" stroke="transparent" points="-4,4 -4,-630 1294,-630 1294,4 -4,4"/>
<!-- Node0 -->
<g id="node1" class="node">
<title>Node0</title>
<polygon fill="#bfbfbf" stroke="#000000" points="275,-301.5 275,-331.5 389,-331.5 389,-301.5 275,-301.5"/>
<text text-anchor="start" x="283" y="-319.5" font-family="Helvetica,sans-Serif" font-size="10.00" fill="#000000">ChartManifold&lt; dim,</text>
<text text-anchor="middle" x="332" y="-308.5" font-family="Helvetica,sans-Serif" font-size="10.00" fill="#000000"> spacedim, chartdim &gt;</text>
</g>
<!-- Node3 -->
<g id="node4" class="node">
<title>Node3</title>
<g id="a_node4"><a xlink:href="classCompositionManifold.html" target="_top" xlink:title="CompositionManifold\l\&lt; dim, spacedim, chartdim \&gt;">
<polygon fill="#ffffff" stroke="#000000" points="571.5,-595.5 571.5,-625.5 713.5,-625.5 713.5,-595.5 571.5,-595.5"/>
<text text-anchor="start" x="579.5" y="-613.5" font-family="Helvetica,sans-Serif" font-size="10.00" fill="#000000">CompositionManifold</text>
<text text-anchor="middle" x="642.5" y="-602.5" font-family="Helvetica,sans-Serif" font-size="10.00" fill="#000000">&lt; dim, spacedim, chartdim &gt;</text>
</a>
</g>
</g>
<!-- Node0&#45;&gt;Node3 -->
<g id="edge3" class="edge">
<title>Node0&#45;&gt;Node3</title>
<path fill="none" stroke="#191970" d="M336.1079,-341.6162C345.9996,-398.9597 372.8689,-536.9236 407,-567.5 451.3446,-607.2262 519.8009,-615.9573 571.4993,-615.9422"/>
<polygon fill="#191970" stroke="#191970" points="339.5297,-340.8594 334.4096,-331.5839 332.6279,-342.0278 339.5297,-340.8594"/>
</g>
<!-- Node4 -->
<g id="node5" class="node">
<title>Node4</title>
<g id="a_node5"><a xlink:href="classFunctionManifold.html" target="_top" xlink:title="FunctionManifold\&lt; dim,\l spacedim, chartdim \&gt;">
<polygon fill="#ffffff" stroke="#000000" points="583,-546.5 583,-576.5 702,-576.5 702,-546.5 583,-546.5"/>
<text text-anchor="start" x="591" y="-564.5" font-family="Helvetica,sans-Serif" font-size="10.00" fill="#000000">FunctionManifold&lt; dim,</text>
<text text-anchor="middle" x="642.5" y="-553.5" font-family="Helvetica,sans-Serif" font-size="10.00" fill="#000000"> spacedim, chartdim &gt;</text>
</a>
</g>
</g>
<!-- Node0&#45;&gt;Node4 -->
<g id="edge4" class="edge">
<title>Node0&#45;&gt;Node4</title>
<path fill="none" stroke="#191970" d="M337.1148,-341.73C348.2178,-393.8669 376.0337,-510.6933 407,-535.5 456.198,-574.9119 530.887,-576.4547 582.9168,-571.344"/>
<polygon fill="#191970" stroke="#191970" points="340.4781,-340.714 335.0041,-331.6428 333.6264,-342.1477 340.4781,-340.714"/>
</g>
<!-- Node5 -->
<g id="node6" class="node">
<title>Node5</title>
<g id="a_node6"><a xlink:href="classChartManifold.html" target="_top" xlink:title="ChartManifold\&lt; dim,\l spacedim, 2 \&gt;">
<polygon fill="#ffffff" stroke="#000000" points="590,-497.5 590,-527.5 695,-527.5 695,-497.5 590,-497.5"/>
<text text-anchor="start" x="598" y="-515.5" font-family="Helvetica,sans-Serif" font-size="10.00" fill="#000000">ChartManifold&lt; dim,</text>
<text text-anchor="middle" x="642.5" y="-504.5" font-family="Helvetica,sans-Serif" font-size="10.00" fill="#000000"> spacedim, 2 &gt;</text>
</a>
</g>
</g>
<!-- Node0&#45;&gt;Node5 -->
<g id="edge5" class="edge">
<title>Node0&#45;&gt;Node5</title>
<path fill="none" stroke="#ffa500" stroke-dasharray="5,2" d="M335.6229,-341.7772C342.4208,-379.1416 360.8245,-448.3657 407,-482.5 459.8634,-521.5783 538.2722,-523.607 589.8735,-519.5836"/>
<polygon fill="#ffa500" stroke="#ffa500" points="339.04,-340.9909 333.9335,-331.708 332.1365,-342.1493 339.04,-340.9909"/>
<text text-anchor="middle" x="477.5" y="-523.5" font-family="Helvetica,sans-Serif" font-size="10.00" fill="#000000"> &lt; dim, spacedim, 2 &gt;</text>
</g>
<!-- Node7 -->
<g id="node8" class="node">
<title>Node7</title>
<g id="a_node8"><a xlink:href="classChartManifold.html" target="_top" xlink:title="ChartManifold\&lt; dim,\l spacedim, 3 \&gt;">
<polygon fill="#ffffff" stroke="#000000" points="590,-448.5 590,-478.5 695,-478.5 695,-448.5 590,-448.5"/>
<text text-anchor="start" x="598" y="-466.5" font-family="Helvetica,sans-Serif" font-size="10.00" fill="#000000">ChartManifold&lt; dim,</text>
<text text-anchor="middle" x="642.5" y="-455.5" font-family="Helvetica,sans-Serif" font-size="10.00" fill="#000000"> spacedim, 3 &gt;</text>
</a>
</g>
</g>
<!-- Node0&#45;&gt;Node7 -->
<g id="edge7" class="edge">
<title>Node0&#45;&gt;Node7</title>
<path fill="none" stroke="#ffa500" stroke-dasharray="5,2" d="M340.3815,-341.3C351.1439,-368.9989 372.6418,-412.7878 407,-434.5 462.0214,-469.2699 538.8325,-472.1674 589.5779,-469.2904"/>
<polygon fill="#ffa500" stroke="#ffa500" points="343.6532,-340.056 336.8983,-331.8938 337.0889,-342.4869 343.6532,-340.056"/>
<text text-anchor="middle" x="477.5" y="-472.5" font-family="Helvetica,sans-Serif" font-size="10.00" fill="#000000"> &lt; dim, spacedim, 3 &gt;</text>
</g>
<!-- Node9 -->
<g id="node10" class="node">
<title>Node9</title>
<g id="a_node10"><a xlink:href="classChartManifold.html" target="_top" xlink:title="ChartManifold\&lt; dim\l_B, spacedim_B, chartdim_B \&gt;">
<polygon fill="#ffffff" stroke="#000000" points="566,-399.5 566,-429.5 719,-429.5 719,-399.5 566,-399.5"/>
<text text-anchor="start" x="574" y="-417.5" font-family="Helvetica,sans-Serif" font-size="10.00" fill="#000000">ChartManifold&lt; dim</text>
<text text-anchor="middle" x="642.5" y="-406.5" font-family="Helvetica,sans-Serif" font-size="10.00" fill="#000000">_B, spacedim_B, chartdim_B &gt;</text>
</a>
</g>
</g>
<!-- Node0&#45;&gt;Node9 -->
<g id="edge9" class="edge">
<title>Node0&#45;&gt;Node9</title>
<path fill="none" stroke="#ffa500" stroke-dasharray="5,2" d="M354.5181,-338.6993C368.4947,-351.1821 387.468,-365.935 407,-374.5 457.2284,-396.5256 518.4102,-406.4694 565.8235,-410.9361"/>
<polygon fill="#ffa500" stroke="#ffa500" points="356.6246,-335.8808 346.8999,-331.6758 351.8798,-341.0274 356.6246,-335.8808"/>
<text text-anchor="start" x="426" y="-422.5" font-family="Helvetica,sans-Serif" font-size="10.00" fill="#000000"> &lt; dim_B, spacedim_B,</text>
<text text-anchor="middle" x="477.5" y="-411.5" font-family="Helvetica,sans-Serif" font-size="10.00" fill="#000000"> chartdim_B &gt;</text>
</g>
<!-- Node10 -->
<g id="node11" class="node">
<title>Node10</title>
<g id="a_node11"><a xlink:href="classChartManifold.html" target="_top" xlink:title="ChartManifold\&lt; dim,\l spacedim, 1 \&gt;">
<polygon fill="#ffffff" stroke="#000000" points="590,-350.5 590,-380.5 695,-380.5 695,-350.5 590,-350.5"/>
<text text-anchor="start" x="598" y="-368.5" font-family="Helvetica,sans-Serif" font-size="10.00" fill="#000000">ChartManifold&lt; dim,</text>
<text text-anchor="middle" x="642.5" y="-357.5" font-family="Helvetica,sans-Serif" font-size="10.00" fill="#000000"> spacedim, 1 &gt;</text>
</a>
</g>
</g>
<!-- Node0&#45;&gt;Node10 -->
<g id="edge10" class="edge">
<title>Node0&#45;&gt;Node10</title>
<path fill="none" stroke="#ffa500" stroke-dasharray="5,2" d="M381.3843,-334.6646C389.8424,-337.2832 398.609,-339.697 407,-341.5 468.8773,-354.7958 541.5306,-360.7802 589.6031,-363.4382"/>
<polygon fill="#ffa500" stroke="#ffa500" points="382.2296,-331.2597 371.638,-331.5208 380.0807,-337.9217 382.2296,-331.2597"/>
<text text-anchor="middle" x="477.5" y="-362.5" font-family="Helvetica,sans-Serif" font-size="10.00" fill="#000000"> &lt; dim, spacedim, 1 &gt;</text>
</g>
<!-- Node12 -->
<g id="node13" class="node">
<title>Node12</title>
<g id="a_node13"><a xlink:href="classChartManifold.html" target="_top" xlink:title="ChartManifold\&lt; dim\l_A, spacedim_A, chartdim_A \&gt;">
<polygon fill="#ffffff" stroke="#000000" points="566,-301.5 566,-331.5 719,-331.5 719,-301.5 566,-301.5"/>
<text text-anchor="start" x="574" y="-319.5" font-family="Helvetica,sans-Serif" font-size="10.00" fill="#000000">ChartManifold&lt; dim</text>
<text text-anchor="middle" x="642.5" y="-308.5" font-family="Helvetica,sans-Serif" font-size="10.00" fill="#000000">_A, spacedim_A, chartdim_A &gt;</text>
</a>
</g>
</g>
<!-- Node0&#45;&gt;Node12 -->
<g id="edge12" class="edge">
<title>Node0&#45;&gt;Node12</title>
<path fill="none" stroke="#ffa500" stroke-dasharray="5,2" d="M399.4964,-316.5C448.5128,-316.5 514.9073,-316.5 565.9094,-316.5"/>
<polygon fill="#ffa500" stroke="#ffa500" points="399.3124,-313.0001 389.3123,-316.5 399.3123,-320.0001 399.3124,-313.0001"/>
<text text-anchor="start" x="426" y="-330.5" font-family="Helvetica,sans-Serif" font-size="10.00" fill="#000000"> &lt; dim_A, spacedim_A,</text>
<text text-anchor="middle" x="477.5" y="-319.5" font-family="Helvetica,sans-Serif" font-size="10.00" fill="#000000"> chartdim_A &gt;</text>
</g>
<!-- Node13 -->
<g id="node14" class="node">
<title>Node13</title>
<g id="a_node14"><a xlink:href="classChartManifold.html" target="_top" xlink:title="ChartManifold\&lt; dim1,\l intermediate_dim, chartdim \&gt;">
<polygon fill="#ffffff" stroke="#000000" points="569.5,-252.5 569.5,-282.5 715.5,-282.5 715.5,-252.5 569.5,-252.5"/>
<text text-anchor="start" x="577.5" y="-270.5" font-family="Helvetica,sans-Serif" font-size="10.00" fill="#000000">ChartManifold&lt; dim1,</text>
<text text-anchor="middle" x="642.5" y="-259.5" font-family="Helvetica,sans-Serif" font-size="10.00" fill="#000000"> intermediate_dim, chartdim &gt;</text>
</a>
</g>
</g>
<!-- Node0&#45;&gt;Node13 -->
<g id="edge13" class="edge">
<title>Node0&#45;&gt;Node13</title>
<path fill="none" stroke="#ffa500" stroke-dasharray="5,2" d="M379.3015,-298.2137C388.3862,-295.2424 397.9046,-292.4913 407,-290.5 460.6732,-278.7494 522.5455,-272.999 569.3985,-270.1866"/>
<polygon fill="#ffa500" stroke="#ffa500" points="377.9925,-294.962 369.6545,-301.4986 380.2489,-301.5883 377.9925,-294.962"/>
<text text-anchor="start" x="431" y="-304.5" font-family="Helvetica,sans-Serif" font-size="10.00" fill="#000000"> &lt; dim1, intermediate</text>
<text text-anchor="middle" x="477.5" y="-293.5" font-family="Helvetica,sans-Serif" font-size="10.00" fill="#000000">_dim, chartdim &gt;</text>
</g>
<!-- Node14 -->
<g id="node15" class="node">
<title>Node14</title>
<g id="a_node15"><a xlink:href="classChartManifold.html" target="_top" xlink:title="ChartManifold\&lt; dim,\l spacedim, spacedim \&gt;">
<polygon fill="#ffffff" stroke="#000000" points="583,-203.5 583,-233.5 702,-233.5 702,-203.5 583,-203.5"/>
<text text-anchor="start" x="591" y="-221.5" font-family="Helvetica,sans-Serif" font-size="10.00" fill="#000000">ChartManifold&lt; dim,</text>
<text text-anchor="middle" x="642.5" y="-210.5" font-family="Helvetica,sans-Serif" font-size="10.00" fill="#000000"> spacedim, spacedim &gt;</text>
</a>
</g>
</g>
<!-- Node0&#45;&gt;Node14 -->
<g id="edge14" class="edge">
<title>Node0&#45;&gt;Node14</title>
<path fill="none" stroke="#ffa500" stroke-dasharray="5,2" d="M354.1692,-294.1262C368.1425,-281.3632 387.2325,-266.2173 407,-257.5 463.3095,-232.668 533.5347,-223.5219 582.5836,-220.2193"/>
<polygon fill="#ffa500" stroke="#ffa500" points="351.4386,-291.8906 346.5668,-301.2989 356.2424,-296.9822 351.4386,-291.8906"/>
<text text-anchor="middle" x="477.5" y="-260.5" font-family="Helvetica,sans-Serif" font-size="10.00" fill="#000000"> &lt; dim, spacedim, spacedim &gt;</text>
</g>
<!-- Node18 -->
<g id="node19" class="node">
<title>Node18</title>
<g id="a_node19"><a xlink:href="classChartManifold.html" target="_top" xlink:title="ChartManifold\&lt; dim2,\l spacedim, intermediate_dim \&gt;">
<polygon fill="#ffffff" stroke="#000000" points="567,-154.5 567,-184.5 718,-184.5 718,-154.5 567,-154.5"/>
<text text-anchor="start" x="575" y="-172.5" font-family="Helvetica,sans-Serif" font-size="10.00" fill="#000000">ChartManifold&lt; dim2,</text>
<text text-anchor="middle" x="642.5" y="-161.5" font-family="Helvetica,sans-Serif" font-size="10.00" fill="#000000"> spacedim, intermediate_dim &gt;</text>
</a>
</g>
</g>
<!-- Node0&#45;&gt;Node18 -->
<g id="edge18" class="edge">
<title>Node0&#45;&gt;Node18</title>
<path fill="none" stroke="#ffa500" stroke-dasharray="5,2" d="M340.3815,-291.7C351.1439,-264.0011 372.6418,-220.2122 407,-198.5 454.3602,-168.5714 517.8645,-162.2574 566.9936,-162.9141"/>
<polygon fill="#ffa500" stroke="#ffa500" points="337.0889,-290.5131 336.8983,-301.1062 343.6532,-292.944 337.0889,-290.5131"/>
<text text-anchor="start" x="407" y="-212.5" font-family="Helvetica,sans-Serif" font-size="10.00" fill="#000000"> &lt; dim2, spacedim, intermediate</text>
<text text-anchor="middle" x="477.5" y="-201.5" font-family="Helvetica,sans-Serif" font-size="10.00" fill="#000000">_dim &gt;</text>
</g>
<!-- Node19 -->
<g id="node20" class="node">
<title>Node19</title>
<g id="a_node20"><a xlink:href="classChartManifold.html" target="_top" xlink:title="ChartManifold\&lt; dim,\l dim, dim \&gt;">
<polygon fill="#ffffff" stroke="#000000" points="737,-110.5 737,-140.5 842,-140.5 842,-110.5 737,-110.5"/>
<text text-anchor="start" x="745" y="-128.5" font-family="Helvetica,sans-Serif" font-size="10.00" fill="#000000">ChartManifold&lt; dim,</text>
<text text-anchor="middle" x="789.5" y="-117.5" font-family="Helvetica,sans-Serif" font-size="10.00" fill="#000000"> dim, dim &gt;</text>
</a>
</g>
</g>
<!-- Node0&#45;&gt;Node19 -->
<g id="edge19" class="edge">
<title>Node0&#45;&gt;Node19</title>
<path fill="none" stroke="#ffa500" stroke-dasharray="5,2" d="M335.1457,-291.1026C341.3646,-252.9205 359.074,-181.6755 407,-148.5 458.9645,-112.529 644.4914,-117.2831 736.6997,-122.1253"/>
<polygon fill="#ffa500" stroke="#ffa500" points="331.6273,-290.9695 333.622,-301.3749 338.5515,-291.9967 331.6273,-290.9695"/>
<text text-anchor="middle" x="477.5" y="-151.5" font-family="Helvetica,sans-Serif" font-size="10.00" fill="#000000"> &lt; dim, dim, dim &gt;</text>
</g>
<!-- Node20 -->
<g id="node21" class="node">
<title>Node20</title>
<g id="a_node21"><a xlink:href="classChartManifold.html" target="_top" xlink:title="ChartManifold\&lt; dim,\l 3, 3 \&gt;">
<polygon fill="#ffffff" stroke="#000000" points="590,-66.5 590,-96.5 695,-96.5 695,-66.5 590,-66.5"/>
<text text-anchor="start" x="598" y="-84.5" font-family="Helvetica,sans-Serif" font-size="10.00" fill="#000000">ChartManifold&lt; dim,</text>
<text text-anchor="middle" x="642.5" y="-73.5" font-family="Helvetica,sans-Serif" font-size="10.00" fill="#000000"> 3, 3 &gt;</text>
</a>
</g>
</g>
<!-- Node0&#45;&gt;Node20 -->
<g id="edge21" class="edge">
<title>Node0&#45;&gt;Node20</title>
<path fill="none" stroke="#ffa500" stroke-dasharray="5,2" d="M336.7631,-291.2568C347.3655,-238.0001 374.5546,-117.0217 407,-92.5 459.0818,-53.1375 537.6829,-58.5543 589.5403,-68.2312"/>
<polygon fill="#ffa500" stroke="#ffa500" points="333.2939,-290.7604 334.8116,-301.246 340.1641,-292.1026 333.2939,-290.7604"/>
<text text-anchor="middle" x="477.5" y="-95.5" font-family="Helvetica,sans-Serif" font-size="10.00" fill="#000000"> &lt; dim, 3, 3 &gt;</text>
</g>
<!-- Node22 -->
<g id="node23" class="node">
<title>Node22</title>
<g id="a_node23"><a xlink:href="classChartManifold.html" target="_top" xlink:title="ChartManifold\&lt; dim,\l spacedim_A+spacedim\l_B, chartdim_A+chartdim_B \&gt;">
<polygon fill="#ffffff" stroke="#000000" points="568,-6 568,-47 717,-47 717,-6 568,-6"/>
<text text-anchor="start" x="576" y="-35" font-family="Helvetica,sans-Serif" font-size="10.00" fill="#000000">ChartManifold&lt; dim,</text>
<text text-anchor="start" x="576" y="-24" font-family="Helvetica,sans-Serif" font-size="10.00" fill="#000000"> spacedim_A+spacedim</text>
<text text-anchor="middle" x="642.5" y="-13" font-family="Helvetica,sans-Serif" font-size="10.00" fill="#000000">_B, chartdim_A+chartdim_B &gt;</text>
</a>
</g>
</g>
<!-- Node0&#45;&gt;Node22 -->
<g id="edge23" class="edge">
<title>Node0&#45;&gt;Node22</title>
<path fill="none" stroke="#ffa500" stroke-dasharray="5,2" d="M334.9631,-291.0648C342.8629,-228.1066 366.6225,-67.7586 407,-35.5 451.433,-.0013 517.0435,-.3987 567.7345,-8.1767"/>
<polygon fill="#ffa500" stroke="#ffa500" points="331.4509,-290.9522 333.7115,-301.3031 338.3991,-291.8017 331.4509,-290.9522"/>
<text text-anchor="start" x="409.5" y="-49.5" font-family="Helvetica,sans-Serif" font-size="10.00" fill="#000000"> &lt; dim, spacedim_A+spacedim</text>
<text text-anchor="middle" x="477.5" y="-38.5" font-family="Helvetica,sans-Serif" font-size="10.00" fill="#000000">_B, chartdim_A+chartdim_B &gt;</text>
</g>
<!-- Node1 -->
<g id="node2" class="node">
<title>Node1</title>
<g id="a_node2"><a xlink:href="classManifold.html" target="_top" xlink:title="Manifold\&lt; dim, spacedim \&gt;">
<polygon fill="#ffffff" stroke="#000000" points="103,-307 103,-326 238,-326 238,-307 103,-307"/>
<text text-anchor="middle" x="170.5" y="-314" font-family="Helvetica,sans-Serif" font-size="10.00" fill="#000000">Manifold&lt; dim, spacedim &gt;</text>
</a>
</g>
</g>
<!-- Node1&#45;&gt;Node0 -->
<g id="edge1" class="edge">
<title>Node1&#45;&gt;Node0</title>
<path fill="none" stroke="#191970" d="M248.1929,-316.5C257.2129,-316.5 266.2838,-316.5 274.9546,-316.5"/>
<polygon fill="#191970" stroke="#191970" points="248.0548,-313.0001 238.0548,-316.5 248.0547,-320.0001 248.0548,-313.0001"/>
</g>
<!-- Node2 -->
<g id="node3" class="node">
<title>Node2</title>
<g id="a_node3"><a xlink:href="classSubscriptor.html" target="_top" xlink:title="Subscriptor">
<polygon fill="#ffffff" stroke="#000000" points="0,-307 0,-326 66,-326 66,-307 0,-307"/>
<text text-anchor="middle" x="33" y="-314" font-family="Helvetica,sans-Serif" font-size="10.00" fill="#000000">Subscriptor</text>
</a>
</g>
</g>
<!-- Node2&#45;&gt;Node1 -->
<g id="edge2" class="edge">
<title>Node2&#45;&gt;Node1</title>
<path fill="none" stroke="#191970" d="M76.5239,-316.5C84.8871,-316.5 93.8286,-316.5 102.7476,-316.5"/>
<polygon fill="#191970" stroke="#191970" points="76.2849,-313.0001 66.2849,-316.5 76.2849,-320.0001 76.2849,-313.0001"/>
</g>
<!-- Node6 -->
<g id="node7" class="node">
<title>Node6</title>
<g id="a_node7"><a xlink:href="classOpenCASCADE_1_1NURBSPatchManifold.html" target="_top" xlink:title="OpenCASCADE::NURBSPatchManifold\l\&lt; dim, spacedim \&gt;">
<polygon fill="#ffffff" stroke="#000000" points="860,-497.5 860,-527.5 1054,-527.5 1054,-497.5 860,-497.5"/>
<text text-anchor="start" x="868" y="-515.5" font-family="Helvetica,sans-Serif" font-size="10.00" fill="#000000">OpenCASCADE::NURBSPatchManifold</text>
<text text-anchor="middle" x="957" y="-504.5" font-family="Helvetica,sans-Serif" font-size="10.00" fill="#000000">&lt; dim, spacedim &gt;</text>
</a>
</g>
</g>
<!-- Node5&#45;&gt;Node6 -->
<g id="edge6" class="edge">
<title>Node5&#45;&gt;Node6</title>
<path fill="none" stroke="#191970" d="M705.1776,-512.5C749.42,-512.5 809.5528,-512.5 859.9619,-512.5"/>
<polygon fill="#191970" stroke="#191970" points="705.1403,-509.0001 695.1402,-512.5 705.1402,-516.0001 705.1403,-509.0001"/>
</g>
<!-- Node8 -->
<g id="node9" class="node">
<title>Node8</title>
<g id="a_node9"><a xlink:href="classCylindricalManifold.html" target="_top" xlink:title="CylindricalManifold\l\&lt; dim, spacedim \&gt;">
<polygon fill="#ffffff" stroke="#000000" points="907.5,-448.5 907.5,-478.5 1006.5,-478.5 1006.5,-448.5 907.5,-448.5"/>
<text text-anchor="start" x="915.5" y="-466.5" font-family="Helvetica,sans-Serif" font-size="10.00" fill="#000000">CylindricalManifold</text>
<text text-anchor="middle" x="957" y="-455.5" font-family="Helvetica,sans-Serif" font-size="10.00" fill="#000000">&lt; dim, spacedim &gt;</text>
</a>
</g>
</g>
<!-- Node7&#45;&gt;Node8 -->
<g id="edge8" class="edge">
<title>Node7&#45;&gt;Node8</title>
<path fill="none" stroke="#191970" d="M705.1487,-463.5C764.5439,-463.5 852.5976,-463.5 907.3049,-463.5"/>
<polygon fill="#191970" stroke="#191970" points="705.1403,-460.0001 695.1402,-463.5 705.1402,-467.0001 705.1403,-460.0001"/>
</g>
<!-- Node11 -->
<g id="node12" class="node">
<title>Node11</title>
<g id="a_node12"><a xlink:href="classOpenCASCADE_1_1ArclengthProjectionLineManifold.html" target="_top" xlink:title="OpenCASCADE::ArclengthProjection\lLineManifold\&lt; dim, spacedim \&gt;">
<polygon fill="#ffffff" stroke="#000000" points="867,-350.5 867,-380.5 1047,-380.5 1047,-350.5 867,-350.5"/>
<text text-anchor="start" x="875" y="-368.5" font-family="Helvetica,sans-Serif" font-size="10.00" fill="#000000">OpenCASCADE::ArclengthProjection</text>
<text text-anchor="middle" x="957" y="-357.5" font-family="Helvetica,sans-Serif" font-size="10.00" fill="#000000">LineManifold&lt; dim, spacedim &gt;</text>
</a>
</g>
</g>
<!-- Node10&#45;&gt;Node11 -->
<g id="edge11" class="edge">
<title>Node10&#45;&gt;Node11</title>
<path fill="none" stroke="#191970" d="M705.3296,-365.5C751.6044,-365.5 815.2027,-365.5 866.8876,-365.5"/>
<polygon fill="#191970" stroke="#191970" points="705.1403,-362.0001 695.1402,-365.5 705.1402,-369.0001 705.1403,-362.0001"/>
</g>
<!-- Node15 -->
<g id="node16" class="node">
<title>Node15</title>
<g id="a_node16"><a xlink:href="classEllipticalManifold.html" target="_top" xlink:title="EllipticalManifold\l\&lt; dim, spacedim \&gt;">
<polygon fill="#ffffff" stroke="#000000" points="908,-203.5 908,-233.5 1006,-233.5 1006,-203.5 908,-203.5"/>
<text text-anchor="start" x="916" y="-221.5" font-family="Helvetica,sans-Serif" font-size="10.00" fill="#000000">EllipticalManifold</text>
<text text-anchor="middle" x="957" y="-210.5" font-family="Helvetica,sans-Serif" font-size="10.00" fill="#000000">&lt; dim, spacedim &gt;</text>
</a>
</g>
</g>
<!-- Node14&#45;&gt;Node15 -->
<g id="edge15" class="edge">
<title>Node14&#45;&gt;Node15</title>
<path fill="none" stroke="#191970" d="M712.0495,-218.5C771.2852,-218.5 854.93,-218.5 907.5418,-218.5"/>
<polygon fill="#191970" stroke="#191970" points="712.0248,-215.0001 702.0248,-218.5 712.0247,-222.0001 712.0248,-215.0001"/>
</g>
<!-- Node16 -->
<g id="node17" class="node">
<title>Node16</title>
<g id="a_node17"><a xlink:href="classPolarManifold.html" target="_top" xlink:title="PolarManifold\&lt; dim,\l spacedim \&gt;">
<polygon fill="#ffffff" stroke="#000000" points="905,-154.5 905,-184.5 1009,-184.5 1009,-154.5 905,-154.5"/>
<text text-anchor="start" x="913" y="-172.5" font-family="Helvetica,sans-Serif" font-size="10.00" fill="#000000">PolarManifold&lt; dim,</text>
<text text-anchor="middle" x="957" y="-161.5" font-family="Helvetica,sans-Serif" font-size="10.00" fill="#000000"> spacedim &gt;</text>
</a>
</g>
</g>
<!-- Node14&#45;&gt;Node16 -->
<g id="edge16" class="edge">
<title>Node14&#45;&gt;Node16</title>
<path fill="none" stroke="#191970" d="M712.2415,-207.6341C770.433,-198.5677 852.0812,-185.8466 904.7644,-177.6385"/>
<polygon fill="#191970" stroke="#191970" points="711.3667,-204.2281 702.0248,-209.2259 712.4444,-211.1446 711.3667,-204.2281"/>
</g>
<!-- Node17 -->
<g id="node18" class="node">
<title>Node17</title>
<g id="a_node18"><a xlink:href="classPolarManifold.html" target="_top" xlink:title="PolarManifold\&lt; spacedim \&gt;">
<polygon fill="#ffffff" stroke="#000000" points="1154,-132 1154,-151 1290,-151 1290,-132 1154,-132"/>
<text text-anchor="middle" x="1222" y="-139" font-family="Helvetica,sans-Serif" font-size="10.00" fill="#000000">PolarManifold&lt; spacedim &gt;</text>
</a>
</g>
</g>
<!-- Node16&#45;&gt;Node17 -->
<g id="edge17" class="edge">
<title>Node16&#45;&gt;Node17</title>
<path fill="none" stroke="#ffa500" stroke-dasharray="5,2" d="M1019.0497,-162.9438C1059.5288,-158.6668 1112.3776,-153.0827 1153.9973,-148.6852"/>
<polygon fill="#ffa500" stroke="#ffa500" points="1018.6161,-159.47 1009.0393,-164.0015 1019.3517,-166.4313 1018.6161,-159.47"/>
<text text-anchor="middle" x="1104" y="-160.5" font-family="Helvetica,sans-Serif" font-size="10.00" fill="#000000"> &lt; spacedim &gt;</text>
</g>
<!-- Node19&#45;&gt;Node17 -->
<g id="edge20" class="edge">
<title>Node19&#45;&gt;Node17</title>
<path fill="none" stroke="#191970" d="M852.5557,-127.8327C932.8544,-130.8033 1071.0822,-135.9169 1153.7781,-138.9762"/>
<polygon fill="#191970" stroke="#191970" points="852.2232,-124.3181 842.1006,-127.4459 851.9643,-131.3133 852.2232,-124.3181"/>
</g>
<!-- Node21 -->
<g id="node22" class="node">
<title>Node21</title>
<g id="a_node22"><a xlink:href="classTorusManifold.html" target="_top" xlink:title="TorusManifold\&lt; dim \&gt;">
<polygon fill="#ffffff" stroke="#000000" points="901,-72 901,-91 1013,-91 1013,-72 901,-72"/>
<text text-anchor="middle" x="957" y="-79" font-family="Helvetica,sans-Serif" font-size="10.00" fill="#000000">TorusManifold&lt; dim &gt;</text>
</a>
</g>
</g>
<!-- Node20&#45;&gt;Node21 -->
<g id="edge22" class="edge">
<title>Node20&#45;&gt;Node21</title>
<path fill="none" stroke="#191970" d="M705.4769,-81.5C762.5401,-81.5 845.8571,-81.5 900.7347,-81.5"/>
<polygon fill="#191970" stroke="#191970" points="705.1403,-78.0001 695.1402,-81.5 705.1402,-85.0001 705.1403,-78.0001"/>
</g>
<!-- Node23 -->
<g id="node24" class="node">
<title>Node23</title>
<g id="a_node24"><a xlink:href="classTensorProductManifold.html" target="_top" xlink:title="Tensor product manifold of two ChartManifolds. ">
<polygon fill="#ffffff" stroke="#000000" points="888,-.5 888,-52.5 1026,-52.5 1026,-.5 888,-.5"/>
<text text-anchor="start" x="896" y="-40.5" font-family="Helvetica,sans-Serif" font-size="10.00" fill="#000000">TensorProductManifold</text>
<text text-anchor="start" x="896" y="-29.5" font-family="Helvetica,sans-Serif" font-size="10.00" fill="#000000">&lt; dim, dim_A, spacedim</text>
<text text-anchor="start" x="896" y="-18.5" font-family="Helvetica,sans-Serif" font-size="10.00" fill="#000000">_A, chartdim_A, dim_B,</text>
<text text-anchor="middle" x="957" y="-7.5" font-family="Helvetica,sans-Serif" font-size="10.00" fill="#000000"> spacedim_B, chartdim_B &gt;</text>
</a>
</g>
</g>
<!-- Node22&#45;&gt;Node23 -->
<g id="edge24" class="edge">
<title>Node22&#45;&gt;Node23</title>
<path fill="none" stroke="#191970" d="M727.2412,-26.5C777.555,-26.5 840.5485,-26.5 887.8448,-26.5"/>
<polygon fill="#191970" stroke="#191970" points="727.0321,-23.0001 717.0321,-26.5 727.0321,-30.0001 727.0321,-23.0001"/>
</g>
</g>
</svg>
