<?xml version="1.0" encoding="UTF-8" standalone="no"?>
<!DOCTYPE svg PUBLIC "-//W3C//DTD SVG 1.1//EN"
 "http://www.w3.org/Graphics/SVG/1.1/DTD/svg11.dtd">
<!-- Generated by graphviz version 2.40.1 (20161225.0304)
 -->
<!-- Title: Functions::CutOffFunctionBase&lt; dim &gt; Pages: 1 -->
<svg width="1161pt" height="284pt"
 viewBox="0.00 0.00 1161.00 284.00" xmlns="http://www.w3.org/2000/svg" xmlns:xlink="http://www.w3.org/1999/xlink">
<g id="graph0" class="graph" transform="scale(1 1) rotate(0) translate(4 280)">
<title>Functions::CutOffFunctionBase&lt; dim &gt;</title>
<polygon fill="#ffffff" stroke="transparent" points="-4,4 -4,-280 1157,-280 1157,4 -4,4"/>
<!-- Node0 -->
<g id="node1" class="node">
<title>Node0</title>
<polygon fill="#bfbfbf" stroke="#000000" points="826,-122.5 826,-152.5 958,-152.5 958,-122.5 826,-122.5"/>
<text text-anchor="start" x="834" y="-140.5" font-family="Helvetica,sans-Serif" font-size="10.00" fill="#000000">Functions::CutOffFunction</text>
<text text-anchor="middle" x="892" y="-129.5" font-family="Helvetica,sans-Serif" font-size="10.00" fill="#000000">Base&lt; dim &gt;</text>
</g>
<!-- Node7 -->
<g id="node8" class="node">
<title>Node7</title>
<g id="a_node8"><a xlink:href="classFunctions_1_1CutOffFunctionC1.html" target="_top" xlink:title="Functions::CutOffFunction\lC1\&lt; dim \&gt;">
<polygon fill="#ffffff" stroke="#000000" points="1021,-245.5 1021,-275.5 1153,-275.5 1153,-245.5 1021,-245.5"/>
<text text-anchor="start" x="1029" y="-263.5" font-family="Helvetica,sans-Serif" font-size="10.00" fill="#000000">Functions::CutOffFunction</text>
<text text-anchor="middle" x="1087" y="-252.5" font-family="Helvetica,sans-Serif" font-size="10.00" fill="#000000">C1&lt; dim &gt;</text>
</a>
</g>
</g>
<!-- Node0&#45;&gt;Node7 -->
<g id="edge8" class="edge">
<title>Node0&#45;&gt;Node7</title>
<path fill="none" stroke="#191970" d="M915.8223,-159.4078C940.5942,-181.2803 981.2436,-214.6946 1021,-236.5 1026.9864,-239.7834 1033.512,-242.7788 1040.0544,-245.455"/>
<polygon fill="#191970" stroke="#191970" points="918.1484,-156.7925 908.3587,-152.7412 913.4852,-162.0132 918.1484,-156.7925"/>
</g>
<!-- Node8 -->
<g id="node9" class="node">
<title>Node8</title>
<g id="a_node9"><a xlink:href="classFunctions_1_1CutOffFunctionCinfty.html" target="_top" xlink:title="Functions::CutOffFunction\lCinfty\&lt; dim \&gt;">
<polygon fill="#ffffff" stroke="#000000" points="1021,-196.5 1021,-226.5 1153,-226.5 1153,-196.5 1021,-196.5"/>
<text text-anchor="start" x="1029" y="-214.5" font-family="Helvetica,sans-Serif" font-size="10.00" fill="#000000">Functions::CutOffFunction</text>
<text text-anchor="middle" x="1087" y="-203.5" font-family="Helvetica,sans-Serif" font-size="10.00" fill="#000000">Cinfty&lt; dim &gt;</text>
</a>
</g>
</g>
<!-- Node0&#45;&gt;Node8 -->
<g id="edge9" class="edge">
<title>Node0&#45;&gt;Node8</title>
<path fill="none" stroke="#191970" d="M939.6552,-156.2457C963.9547,-165.7343 994.0031,-177.3608 1021,-187.5 1028.7615,-190.415 1037.0564,-193.4747 1045.0538,-196.3967"/>
<polygon fill="#191970" stroke="#191970" points="940.8908,-152.9708 930.3029,-152.5885 938.3415,-159.4901 940.8908,-152.9708"/>
</g>
<!-- Node9 -->
<g id="node10" class="node">
<title>Node9</title>
<g id="a_node10"><a xlink:href="classFunctions_1_1CutOffFunctionLinfty.html" target="_top" xlink:title="Functions::CutOffFunction\lLinfty\&lt; dim \&gt;">
<polygon fill="#ffffff" stroke="#000000" points="1021,-147.5 1021,-177.5 1153,-177.5 1153,-147.5 1021,-147.5"/>
<text text-anchor="start" x="1029" y="-165.5" font-family="Helvetica,sans-Serif" font-size="10.00" fill="#000000">Functions::CutOffFunction</text>
<text text-anchor="middle" x="1087" y="-154.5" font-family="Helvetica,sans-Serif" font-size="10.00" fill="#000000">Linfty&lt; dim &gt;</text>
</a>
</g>
</g>
<!-- Node0&#45;&gt;Node9 -->
<g id="edge10" class="edge">
<title>Node0&#45;&gt;Node9</title>
<path fill="none" stroke="#191970" d="M968.1156,-147.2584C985.4824,-149.4849 1003.8013,-151.8335 1020.7183,-154.0023"/>
<polygon fill="#191970" stroke="#191970" points="968.382,-143.764 958.0181,-145.9639 967.4918,-150.7072 968.382,-143.764"/>
</g>
<!-- Node10 -->
<g id="node11" class="node">
<title>Node10</title>
<g id="a_node11"><a xlink:href="classFunctions_1_1CutOffFunctionTensorProduct.html" target="_top" xlink:title="Functions::CutOffFunction\lTensorProduct\&lt; dim \&gt;">
<polygon fill="#ffffff" stroke="#000000" points="1021,-98.5 1021,-128.5 1153,-128.5 1153,-98.5 1021,-98.5"/>
<text text-anchor="start" x="1029" y="-116.5" font-family="Helvetica,sans-Serif" font-size="10.00" fill="#000000">Functions::CutOffFunction</text>
<text text-anchor="middle" x="1087" y="-105.5" font-family="Helvetica,sans-Serif" font-size="10.00" fill="#000000">TensorProduct&lt; dim &gt;</text>
</a>
</g>
</g>
<!-- Node0&#45;&gt;Node10 -->
<g id="edge11" class="edge">
<title>Node0&#45;&gt;Node10</title>
<path fill="none" stroke="#191970" d="M968.1156,-128.1319C985.4824,-125.9945 1003.8013,-123.7398 1020.7183,-121.6577"/>
<polygon fill="#191970" stroke="#191970" points="967.5156,-124.6793 958.0181,-129.3747 968.3708,-131.6268 967.5156,-124.6793"/>
</g>
<!-- Node11 -->
<g id="node12" class="node">
<title>Node11</title>
<g id="a_node12"><a xlink:href="classFunctions_1_1CutOffFunctionW1.html" target="_top" xlink:title="Functions::CutOffFunction\lW1\&lt; dim \&gt;">
<polygon fill="#ffffff" stroke="#000000" points="1021,-49.5 1021,-79.5 1153,-79.5 1153,-49.5 1021,-49.5"/>
<text text-anchor="start" x="1029" y="-67.5" font-family="Helvetica,sans-Serif" font-size="10.00" fill="#000000">Functions::CutOffFunction</text>
<text text-anchor="middle" x="1087" y="-56.5" font-family="Helvetica,sans-Serif" font-size="10.00" fill="#000000">W1&lt; dim &gt;</text>
</a>
</g>
</g>
<!-- Node0&#45;&gt;Node11 -->
<g id="edge12" class="edge">
<title>Node0&#45;&gt;Node11</title>
<path fill="none" stroke="#191970" d="M940.813,-118.7712C964.9178,-109.5703 994.4543,-98.3675 1021,-88.5 1028.8856,-85.5688 1037.315,-82.4741 1045.4223,-79.5171"/>
<polygon fill="#191970" stroke="#191970" points="939.2731,-115.6127 931.181,-122.4514 941.7716,-122.1516 939.2731,-115.6127"/>
</g>
<!-- Node12 -->
<g id="node13" class="node">
<title>Node12</title>
<g id="a_node13"><a xlink:href="classFunctions_1_1CutOffFunctionBase.html" target="_top" xlink:title="Functions::CutOffFunction\lBase\&lt; 1 \&gt;">
<polygon fill="#ffffff" stroke="#000000" points="1021,-.5 1021,-30.5 1153,-30.5 1153,-.5 1021,-.5"/>
<text text-anchor="start" x="1029" y="-18.5" font-family="Helvetica,sans-Serif" font-size="10.00" fill="#000000">Functions::CutOffFunction</text>
<text text-anchor="middle" x="1087" y="-7.5" font-family="Helvetica,sans-Serif" font-size="10.00" fill="#000000">Base&lt; 1 &gt;</text>
</a>
</g>
</g>
<!-- Node0&#45;&gt;Node12 -->
<g id="edge13" class="edge">
<title>Node0&#45;&gt;Node12</title>
<path fill="none" stroke="#ffa500" stroke-dasharray="5,2" d="M916.185,-115.5493C941.0174,-93.907 981.5106,-61.0333 1021,-39.5 1026.9945,-36.2313 1033.5245,-33.2442 1040.0691,-30.5719"/>
<polygon fill="#ffa500" stroke="#ffa500" points="913.573,-113.1862 908.3881,-122.4257 918.2031,-118.4362 913.573,-113.1862"/>
<text text-anchor="middle" x="989.5" y="-68.5" font-family="Helvetica,sans-Serif" font-size="10.00" fill="#000000"> &lt; 1 &gt;</text>
</g>
<!-- Node1 -->
<g id="node2" class="node">
<title>Node1</title>
<g id="a_node2"><a xlink:href="classFunction.html" target="_top" xlink:title="Function\&lt; dim \&gt;">
<polygon fill="#ffffff" stroke="#000000" points="701,-128 701,-147 789,-147 789,-128 701,-128"/>
<text text-anchor="middle" x="745" y="-135" font-family="Helvetica,sans-Serif" font-size="10.00" fill="#000000">Function&lt; dim &gt;</text>
</a>
</g>
</g>
<!-- Node1&#45;&gt;Node0 -->
<g id="edge1" class="edge">
<title>Node1&#45;&gt;Node0</title>
<path fill="none" stroke="#191970" d="M799.1251,-137.5C807.8417,-137.5 816.9497,-137.5 825.9093,-137.5"/>
<polygon fill="#191970" stroke="#191970" points="799.1049,-134.0001 789.1048,-137.5 799.1048,-141.0001 799.1049,-134.0001"/>
</g>
<!-- Node2 -->
<g id="node3" class="node">
<title>Node2</title>
<g id="a_node3"><a xlink:href="classFunctionTime.html" target="_top" xlink:title="FunctionTime\&lt; numbers\l::NumberTraits\&lt; double\l \&gt;::real_type \&gt;">
<polygon fill="#ffffff" stroke="#000000" points="493,-166 493,-207 615,-207 615,-166 493,-166"/>
<text text-anchor="start" x="501" y="-195" font-family="Helvetica,sans-Serif" font-size="10.00" fill="#000000">FunctionTime&lt; numbers</text>
<text text-anchor="start" x="501" y="-184" font-family="Helvetica,sans-Serif" font-size="10.00" fill="#000000">::NumberTraits&lt; double</text>
<text text-anchor="middle" x="554" y="-173" font-family="Helvetica,sans-Serif" font-size="10.00" fill="#000000"> &gt;::real_type &gt;</text>
</a>
</g>
</g>
<!-- Node2&#45;&gt;Node1 -->
<g id="edge2" class="edge">
<title>Node2&#45;&gt;Node1</title>
<path fill="none" stroke="#191970" d="M625.0154,-168.2814C653.1106,-161.0737 684.2377,-153.0882 707.746,-147.0573"/>
<polygon fill="#191970" stroke="#191970" points="624.0383,-164.9186 615.2217,-170.7939 625.7778,-171.6991 624.0383,-164.9186"/>
</g>
<!-- Node3 -->
<g id="node4" class="node">
<title>Node3</title>
<g id="a_node4"><a xlink:href="classSubscriptor.html" target="_top" xlink:title="Subscriptor">
<polygon fill="#ffffff" stroke="#000000" points="333,-127 333,-146 399,-146 399,-127 333,-127"/>
<text text-anchor="middle" x="366" y="-134" font-family="Helvetica,sans-Serif" font-size="10.00" fill="#000000">Subscriptor</text>
</a>
</g>
</g>
<!-- Node3&#45;&gt;Node1 -->
<g id="edge3" class="edge">
<title>Node3&#45;&gt;Node1</title>
<path fill="none" stroke="#191970" d="M409.4919,-136.6148C482.2601,-136.8068 627.8881,-137.191 700.9963,-137.3839"/>
<polygon fill="#191970" stroke="#191970" points="409.3108,-133.1144 399.3016,-136.5879 409.2923,-140.1143 409.3108,-133.1144"/>
</g>
<!-- Node4 -->
<g id="node5" class="node">
<title>Node4</title>
<g id="a_node5"><a xlink:href="classFunction.html" target="_top" xlink:title="Function\&lt; dim, RangeNumber\lType \&gt;">
<polygon fill="#ffffff" stroke="#000000" points="480,-78.5 480,-108.5 628,-108.5 628,-78.5 480,-78.5"/>
<text text-anchor="start" x="488" y="-96.5" font-family="Helvetica,sans-Serif" font-size="10.00" fill="#000000">Function&lt; dim, RangeNumber</text>
<text text-anchor="middle" x="554" y="-85.5" font-family="Helvetica,sans-Serif" font-size="10.00" fill="#000000">Type &gt;</text>
</a>
</g>
</g>
<!-- Node3&#45;&gt;Node4 -->
<g id="edge7" class="edge">
<title>Node3&#45;&gt;Node4</title>
<path fill="none" stroke="#191970" d="M409.1302,-126.6351C432.5041,-121.289 461.883,-114.5693 488.0641,-108.5811"/>
<polygon fill="#191970" stroke="#191970" points="408.1457,-123.2698 399.1779,-128.9114 409.7065,-130.0936 408.1457,-123.2698"/>
</g>
<!-- Node4&#45;&gt;Node1 -->
<g id="edge4" class="edge">
<title>Node4&#45;&gt;Node1</title>
<path fill="none" stroke="#ffa500" stroke-dasharray="5,2" d="M638.5577,-103.0173C653.4921,-105.5296 668.7984,-108.6496 683,-112.5 697.338,-116.3874 712.838,-122.6374 724.7535,-127.9155"/>
<polygon fill="#ffa500" stroke="#ffa500" points="638.7237,-99.4993 628.296,-101.3736 637.6165,-106.4112 638.7237,-99.4993"/>
<text text-anchor="middle" x="664.5" y="-115.5" font-family="Helvetica,sans-Serif" font-size="10.00" fill="#000000"> &lt; dim &gt;</text>
</g>
<!-- Node5 -->
<g id="node6" class="node">
<title>Node5</title>
<g id="a_node6"><a xlink:href="classFunctionTime.html" target="_top" xlink:title="FunctionTime\&lt; numbers\l::NumberTraits\&lt; RangeNumber\lType \&gt;::real_type \&gt;">
<polygon fill="#ffffff" stroke="#000000" points="289,-67 289,-108 443,-108 443,-67 289,-67"/>
<text text-anchor="start" x="297" y="-96" font-family="Helvetica,sans-Serif" font-size="10.00" fill="#000000">FunctionTime&lt; numbers</text>
<text text-anchor="start" x="297" y="-85" font-family="Helvetica,sans-Serif" font-size="10.00" fill="#000000">::NumberTraits&lt; RangeNumber</text>
<text text-anchor="middle" x="366" y="-74" font-family="Helvetica,sans-Serif" font-size="10.00" fill="#000000">Type &gt;::real_type &gt;</text>
</a>
</g>
</g>
<!-- Node5&#45;&gt;Node4 -->
<g id="edge5" class="edge">
<title>Node5&#45;&gt;Node4</title>
<path fill="none" stroke="#191970" d="M453.0619,-90.2786C462.0128,-90.5642 471.0482,-90.8526 479.8408,-91.1332"/>
<polygon fill="#191970" stroke="#191970" points="453.1158,-86.7786 443.0092,-89.9577 452.8925,-93.775 453.1158,-86.7786"/>
</g>
<!-- Node6 -->
<g id="node7" class="node">
<title>Node6</title>
<g id="a_node7"><a xlink:href="classFunctionTime.html" target="_top" xlink:title="FunctionTime\&lt; Number \&gt;">
<polygon fill="#ffffff" stroke="#000000" points="0,-78 0,-97 128,-97 128,-78 0,-78"/>
<text text-anchor="middle" x="64" y="-85" font-family="Helvetica,sans-Serif" font-size="10.00" fill="#000000">FunctionTime&lt; Number &gt;</text>
</a>
</g>
</g>
<!-- Node6&#45;&gt;Node5 -->
<g id="edge6" class="edge">
<title>Node6&#45;&gt;Node5</title>
<path fill="none" stroke="#ffa500" stroke-dasharray="5,2" d="M138.2043,-87.5C183.9934,-87.5 242.6212,-87.5 288.9318,-87.5"/>
<polygon fill="#ffa500" stroke="#ffa500" points="138.0465,-84.0001 128.0464,-87.5 138.0464,-91.0001 138.0465,-84.0001"/>
<text text-anchor="start" x="146" y="-112.5" font-family="Helvetica,sans-Serif" font-size="10.00" fill="#000000"> &lt; numbers::NumberTraits</text>
<text text-anchor="start" x="146" y="-101.5" font-family="Helvetica,sans-Serif" font-size="10.00" fill="#000000">&lt; RangeNumberType &gt;::real</text>
<text text-anchor="middle" x="208.5" y="-90.5" font-family="Helvetica,sans-Serif" font-size="10.00" fill="#000000">_type &gt;</text>
</g>
</g>
</svg>
