<?xml version="1.0" encoding="UTF-8" standalone="no"?>
<!DOCTYPE svg PUBLIC "-//W3C//DTD SVG 1.1//EN"
 "http://www.w3.org/Graphics/SVG/1.1/DTD/svg11.dtd">
<!-- Generated by graphviz version 2.40.1 (20161225.0304)
 -->
<!-- Title: FunctionManifold&lt; dim, spacedim, chartdim &gt; Pages: 1 -->
<svg width="143pt" height="218pt"
 viewBox="0.00 0.00 143.00 218.00" xmlns="http://www.w3.org/2000/svg" xmlns:xlink="http://www.w3.org/1999/xlink">
<g id="graph0" class="graph" transform="scale(1 1) rotate(0) translate(4 214)">
<title>FunctionManifold&lt; dim, spacedim, chartdim &gt;</title>
<polygon fill="#ffffff" stroke="transparent" points="-4,4 -4,-214 139,-214 139,4 -4,4"/>
<!-- Node0 -->
<g id="node1" class="node">
<title>Node0</title>
<polygon fill="#bfbfbf" stroke="#000000" points="8,-.5 8,-30.5 127,-30.5 127,-.5 8,-.5"/>
<text text-anchor="start" x="16" y="-18.5" font-family="Helvetica,sans-Serif" font-size="10.00" fill="#000000">FunctionManifold&lt; dim,</text>
<text text-anchor="middle" x="67.5" y="-7.5" font-family="Helvetica,sans-Serif" font-size="10.00" fill="#000000"> spacedim, chartdim &gt;</text>
</g>
<!-- Node1 -->
<g id="node2" class="node">
<title>Node1</title>
<g id="a_node2"><a xlink:href="classChartManifold.html" target="_top" xlink:title="ChartManifold\&lt; dim,\l spacedim, chartdim \&gt;">
<polygon fill="#ffffff" stroke="#000000" points="10.5,-67.5 10.5,-97.5 124.5,-97.5 124.5,-67.5 10.5,-67.5"/>
<text text-anchor="start" x="18.5" y="-85.5" font-family="Helvetica,sans-Serif" font-size="10.00" fill="#000000">ChartManifold&lt; dim,</text>
<text text-anchor="middle" x="67.5" y="-74.5" font-family="Helvetica,sans-Serif" font-size="10.00" fill="#000000"> spacedim, chartdim &gt;</text>
</a>
</g>
</g>
<!-- Node1&#45;&gt;Node0 -->
<g id="edge1" class="edge">
<title>Node1&#45;&gt;Node0</title>
<path fill="none" stroke="#191970" d="M67.5,-57.0249C67.5,-48.128 67.5,-38.4287 67.5,-30.6432"/>
<polygon fill="#191970" stroke="#191970" points="64.0001,-57.2966 67.5,-67.2967 71.0001,-57.2967 64.0001,-57.2966"/>
</g>
<!-- Node2 -->
<g id="node3" class="node">
<title>Node2</title>
<g id="a_node3"><a xlink:href="classManifold.html" target="_top" xlink:title="Manifold\&lt; dim, spacedim \&gt;">
<polygon fill="#ffffff" stroke="#000000" points="0,-134.5 0,-153.5 135,-153.5 135,-134.5 0,-134.5"/>
<text text-anchor="middle" x="67.5" y="-141.5" font-family="Helvetica,sans-Serif" font-size="10.00" fill="#000000">Manifold&lt; dim, spacedim &gt;</text>
</a>
</g>
</g>
<!-- Node2&#45;&gt;Node1 -->
<g id="edge2" class="edge">
<title>Node2&#45;&gt;Node1</title>
<path fill="none" stroke="#191970" d="M67.5,-124.3693C67.5,-115.681 67.5,-105.6241 67.5,-97.5446"/>
<polygon fill="#191970" stroke="#191970" points="64.0001,-124.3906 67.5,-134.3906 71.0001,-124.3907 64.0001,-124.3906"/>
</g>
<!-- Node3 -->
<g id="node4" class="node">
<title>Node3</title>
<g id="a_node4"><a xlink:href="classSubscriptor.html" target="_top" xlink:title="Subscriptor">
<polygon fill="#ffffff" stroke="#000000" points="34.5,-190.5 34.5,-209.5 100.5,-209.5 100.5,-190.5 34.5,-190.5"/>
<text text-anchor="middle" x="67.5" y="-197.5" font-family="Helvetica,sans-Serif" font-size="10.00" fill="#000000">Subscriptor</text>
</a>
</g>
</g>
<!-- Node3&#45;&gt;Node2 -->
<g id="edge3" class="edge">
<title>Node3&#45;&gt;Node2</title>
<path fill="none" stroke="#191970" d="M67.5,-180.1575C67.5,-171.155 67.5,-160.9199 67.5,-153.6427"/>
<polygon fill="#191970" stroke="#191970" points="64.0001,-180.2455 67.5,-190.2455 71.0001,-180.2456 64.0001,-180.2455"/>
</g>
</g>
</svg>
