<?xml version="1.0" encoding="UTF-8" standalone="no"?>
<!DOCTYPE svg PUBLIC "-//W3C//DTD SVG 1.1//EN"
 "http://www.w3.org/Graphics/SVG/1.1/DTD/svg11.dtd">
<!-- Generated by graphviz version 2.40.1 (20161225.0304)
 -->
<!-- Title: SLEPcWrappers::TransformationBase Pages: 1 -->
<!--zoomable 204 -->
<svg id="main" version="1.1" xmlns="http://www.w3.org/2000/svg" xmlns:xlink="http://www.w3.org/1999/xlink" xml:space="preserve" onload="init(evt)">
<style type="text/css"><![CDATA[
.edge:hover path { stroke: red; }
.edge:hover polygon { stroke: red; fill: red; }
]]></style>
<script type="text/javascript"><![CDATA[
var edges = document.getElementsByTagName('g');
if (edges && edges.length) {
  for (var i=0;i<edges.length;i++) {
    if (edges[i].id.substr(0,4)=='edge') {
      edges[i].setAttribute('class','edge');
    }
  }
}
]]></script>
        <defs>
                <circle id="rim" cx="0" cy="0" r="7"/>
                <circle id="rim2" cx="0" cy="0" r="3.5"/>
                <g id="zoomPlus">
                        <use xlink:href="#rim" fill="#404040">
                                <set attributeName="fill" to="#808080" begin="zoomplus.mouseover" end="zoomplus.mouseout"/>
                        </use>
                        <path d="M-4,0h8M0,-4v8" fill="none" stroke="white" stroke-width="1.5" pointer-events="none"/>
                </g>
                <g id="zoomMin">
                        <use xlink:href="#rim" fill="#404040">
                                <set attributeName="fill" to="#808080" begin="zoomminus.mouseover" end="zoomminus.mouseout"/>
                        </use>
                        <path d="M-4,0h8" fill="none" stroke="white" stroke-width="1.5" pointer-events="none"/>
                </g>
                <g id="dirArrow">
                        <path fill="none" stroke="white" stroke-width="1.5" d="M0,-3.0v7 M-2.5,-0.5L0,-3.0L2.5,-0.5"/>
                </g>
               <g id="resetDef">
                       <use xlink:href="#rim2" fill="#404040">
                               <set attributeName="fill" to="#808080" begin="reset.mouseover" end="reset.mouseout"/>
                       </use>
               </g>
        </defs>

<script type="text/javascript">
var viewWidth = 716;
var viewHeight = 204;
var sectionId = 'dynsection-0';
</script>
<script xlink:href="svgpan.js"/>
<svg id="graph" class="graph">
<g id="viewport">
<title>SLEPcWrappers::TransformationBase</title>
<polygon fill="#ffffff" stroke="transparent" points="-4,4 -4,-200 711.5,-200 711.5,4 -4,4"/>
<!-- Node0 -->
<g id="node1" class="node">
<title>Node0</title>
<polygon fill="#bfbfbf" stroke="#000000" points="257,-105.5 257,-195.5 440,-195.5 440,-105.5 257,-105.5"/>
<text text-anchor="middle" x="348.5" y="-183.5" font-family="Helvetica,sans-Serif" font-size="10.00" fill="#000000">SLEPcWrappers::TransformationBase</text>
<polyline fill="none" stroke="#000000" points="257,-176.5 440,-176.5 "/>
<text text-anchor="start" x="265" y="-164.5" font-family="Helvetica,sans-Serif" font-size="10.00" fill="#000000"># st</text>
<polyline fill="none" stroke="#000000" points="257,-157.5 440,-157.5 "/>
<text text-anchor="start" x="265" y="-145.5" font-family="Helvetica,sans-Serif" font-size="10.00" fill="#000000">+ ~TransformationBase()</text>
<text text-anchor="start" x="265" y="-134.5" font-family="Helvetica,sans-Serif" font-size="10.00" fill="#000000">+ set_matrix_mode()</text>
<text text-anchor="start" x="265" y="-123.5" font-family="Helvetica,sans-Serif" font-size="10.00" fill="#000000">+ set_solver()</text>
<text text-anchor="start" x="265" y="-112.5" font-family="Helvetica,sans-Serif" font-size="10.00" fill="#000000"># TransformationBase()</text>
</g>
<!-- Node1 -->
<g id="node2" class="node">
<title>Node1</title>
<g id="a_node2"><a xlink:href="classSLEPcWrappers_1_1TransformationCayley.html" target="_top" xlink:title="{SLEPcWrappers::Transformation\lCayley\n|# additional_data\l|+ TransformationCayley()\l}">
<polygon fill="#ffffff" stroke="#000000" points="0,-.5 0,-68.5 161,-68.5 161,-.5 0,-.5"/>
<text text-anchor="start" x="8" y="-56.5" font-family="Helvetica,sans-Serif" font-size="10.00" fill="#000000">SLEPcWrappers::Transformation</text>
<text text-anchor="middle" x="80.5" y="-45.5" font-family="Helvetica,sans-Serif" font-size="10.00" fill="#000000">Cayley</text>
<polyline fill="none" stroke="#000000" points="0,-38.5 161,-38.5 "/>
<text text-anchor="start" x="8" y="-26.5" font-family="Helvetica,sans-Serif" font-size="10.00" fill="#000000"># additional_data</text>
<polyline fill="none" stroke="#000000" points="0,-19.5 161,-19.5 "/>
<text text-anchor="start" x="8" y="-7.5" font-family="Helvetica,sans-Serif" font-size="10.00" fill="#000000">+ TransformationCayley()</text>
</a>
</g>
</g>
<!-- Node0&#45;&gt;Node1 -->
<g id="edge1" class="edge">
<title>Node0&#45;&gt;Node1</title>
<path fill="none" stroke="#191970" d="M247.2742,-106.6858C218.1519,-94.0807 186.8294,-80.5232 159.2807,-68.5991"/>
<polygon fill="none" stroke="#191970" points="246.077,-109.9814 256.6446,-110.7417 248.8576,-103.5574 246.077,-109.9814"/>
</g>
<!-- Node2 -->
<g id="node3" class="node">
<title>Node2</title>
<g id="a_node3"><a xlink:href="classSLEPcWrappers_1_1TransformationShift.html" target="_top" xlink:title="{SLEPcWrappers::Transformation\lShift\n|# additional_data\l|+ TransformationShift()\l}">
<polygon fill="#ffffff" stroke="#000000" points="179,-.5 179,-68.5 340,-68.5 340,-.5 179,-.5"/>
<text text-anchor="start" x="187" y="-56.5" font-family="Helvetica,sans-Serif" font-size="10.00" fill="#000000">SLEPcWrappers::Transformation</text>
<text text-anchor="middle" x="259.5" y="-45.5" font-family="Helvetica,sans-Serif" font-size="10.00" fill="#000000">Shift</text>
<polyline fill="none" stroke="#000000" points="179,-38.5 340,-38.5 "/>
<text text-anchor="start" x="187" y="-26.5" font-family="Helvetica,sans-Serif" font-size="10.00" fill="#000000"># additional_data</text>
<polyline fill="none" stroke="#000000" points="179,-19.5 340,-19.5 "/>
<text text-anchor="start" x="187" y="-7.5" font-family="Helvetica,sans-Serif" font-size="10.00" fill="#000000">+ TransformationShift()</text>
</a>
</g>
</g>
<!-- Node0&#45;&gt;Node2 -->
<g id="edge2" class="edge">
<title>Node0&#45;&gt;Node2</title>
<path fill="none" stroke="#191970" d="M307.6163,-97.2134C300.1521,-87.4848 292.5514,-77.5783 285.6616,-68.5982"/>
<polygon fill="none" stroke="#191970" points="304.9713,-99.5159 313.8354,-105.3192 310.5251,-95.2548 304.9713,-99.5159"/>
</g>
<!-- Node3 -->
<g id="node4" class="node">
<title>Node3</title>
<g id="a_node4"><a xlink:href="classSLEPcWrappers_1_1TransformationShiftInvert.html" target="_top" xlink:title="{SLEPcWrappers::Transformation\lShiftInvert\n|# additional_data\l|+ TransformationShiftInvert()\l}">
<polygon fill="#ffffff" stroke="#000000" points="358,-.5 358,-68.5 519,-68.5 519,-.5 358,-.5"/>
<text text-anchor="start" x="366" y="-56.5" font-family="Helvetica,sans-Serif" font-size="10.00" fill="#000000">SLEPcWrappers::Transformation</text>
<text text-anchor="middle" x="438.5" y="-45.5" font-family="Helvetica,sans-Serif" font-size="10.00" fill="#000000">ShiftInvert</text>
<polyline fill="none" stroke="#000000" points="358,-38.5 519,-38.5 "/>
<text text-anchor="start" x="366" y="-26.5" font-family="Helvetica,sans-Serif" font-size="10.00" fill="#000000"># additional_data</text>
<polyline fill="none" stroke="#000000" points="358,-19.5 519,-19.5 "/>
<text text-anchor="start" x="366" y="-7.5" font-family="Helvetica,sans-Serif" font-size="10.00" fill="#000000">+ TransformationShiftInvert()</text>
</a>
</g>
</g>
<!-- Node0&#45;&gt;Node3 -->
<g id="edge3" class="edge">
<title>Node0&#45;&gt;Node3</title>
<path fill="none" stroke="#191970" d="M389.8431,-97.2134C397.3911,-87.4848 405.0772,-77.5783 412.0445,-68.5982"/>
<polygon fill="none" stroke="#191970" points="386.9188,-95.2728 383.5541,-105.3192 392.4494,-99.5638 386.9188,-95.2728"/>
</g>
<!-- Node4 -->
<g id="node5" class="node">
<title>Node4</title>
<g id="a_node5"><a xlink:href="classSLEPcWrappers_1_1TransformationSpectrumFolding.html" target="_top" xlink:title="{SLEPcWrappers::Transformation\lSpectrumFolding\n|# additional_data\l|+ TransformationSpectrumFolding()\l}">
<polygon fill="#ffffff" stroke="#000000" points="537.5,-.5 537.5,-68.5 707.5,-68.5 707.5,-.5 537.5,-.5"/>
<text text-anchor="start" x="545.5" y="-56.5" font-family="Helvetica,sans-Serif" font-size="10.00" fill="#000000">SLEPcWrappers::Transformation</text>
<text text-anchor="middle" x="622.5" y="-45.5" font-family="Helvetica,sans-Serif" font-size="10.00" fill="#000000">SpectrumFolding</text>
<polyline fill="none" stroke="#000000" points="537.5,-38.5 707.5,-38.5 "/>
<text text-anchor="start" x="545.5" y="-26.5" font-family="Helvetica,sans-Serif" font-size="10.00" fill="#000000"># additional_data</text>
<polyline fill="none" stroke="#000000" points="537.5,-19.5 707.5,-19.5 "/>
<text text-anchor="start" x="545.5" y="-7.5" font-family="Helvetica,sans-Serif" font-size="10.00" fill="#000000">+ TransformationSpectrumFolding()</text>
</a>
</g>
</g>
<!-- Node0&#45;&gt;Node4 -->
<g id="edge4" class="edge">
<title>Node0&#45;&gt;Node4</title>
<path fill="none" stroke="#191970" d="M449.492,-107.7443C479.9827,-94.8358 513.0347,-80.843 542.001,-68.5799"/>
<polygon fill="none" stroke="#191970" points="447.9632,-104.5907 440.119,-111.7124 450.6923,-111.0368 447.9632,-104.5907"/>
</g>
</g>
</svg>
        <g id="navigator" transform="translate(0 0)" fill="#404254">
                <rect fill="#f2f5e9" fill-opacity="0.5" stroke="#606060" stroke-width=".5" x="0" y="0" width="60" height="60"/>
                <use id="zoomplus" xlink:href="#zoomPlus" x="17" y="9" onmousedown="handleZoom(evt,'in')"/>
                <use id="zoomminus" xlink:href="#zoomMin" x="42" y="9" onmousedown="handleZoom(evt,'out')"/>
                <use id="reset" xlink:href="#resetDef" x="30" y="36" onmousedown="handleReset()"/>
                <g id="arrowUp" xlink:href="#dirArrow" transform="translate(30 24)" onmousedown="handlePan(0,-1)">
                  <use xlink:href="#rim" fill="#404040">
                        <set attributeName="fill" to="#808080" begin="arrowUp.mouseover" end="arrowUp.mouseout"/>
                  </use>
                  <path fill="none" stroke="white" stroke-width="1.5" d="M0,-3.0v7 M-2.5,-0.5L0,-3.0L2.5,-0.5"/>
                </g>
                <g id="arrowRight" xlink:href="#dirArrow" transform="rotate(90) translate(36 -43)" onmousedown="handlePan(1,0)">
                  <use xlink:href="#rim" fill="#404040">
                        <set attributeName="fill" to="#808080" begin="arrowRight.mouseover" end="arrowRight.mouseout"/>
                  </use>
                  <path fill="none" stroke="white" stroke-width="1.5" d="M0,-3.0v7 M-2.5,-0.5L0,-3.0L2.5,-0.5"/>
                </g>
                <g id="arrowDown" xlink:href="#dirArrow" transform="rotate(180) translate(-30 -48)" onmousedown="handlePan(0,1)">
                  <use xlink:href="#rim" fill="#404040">
                        <set attributeName="fill" to="#808080" begin="arrowDown.mouseover" end="arrowDown.mouseout"/>
                  </use>
                  <path fill="none" stroke="white" stroke-width="1.5" d="M0,-3.0v7 M-2.5,-0.5L0,-3.0L2.5,-0.5"/>
                </g>
                <g id="arrowLeft" xlink:href="#dirArrow" transform="rotate(270) translate(-36 17)" onmousedown="handlePan(-1,0)">
                  <use xlink:href="#rim" fill="#404040">
                        <set attributeName="fill" to="#808080" begin="arrowLeft.mouseover" end="arrowLeft.mouseout"/>
                  </use>
                  <path fill="none" stroke="white" stroke-width="1.5" d="M0,-3.0v7 M-2.5,-0.5L0,-3.0L2.5,-0.5"/>
                </g>
        </g>
        <svg viewBox="0 0 15 15" width="100%" height="30px" preserveAspectRatio="xMaxYMin meet">
         <g id="arrow_out" transform="scale(0.3 0.3)">
          <a xlink:href="classSLEPcWrappers_1_1TransformationBase__inherit__graph_org.svg" target="_base">
           <rect id="button" ry="5" rx="5" y="6" x="6" height="38" width="38"
                fill="#f2f5e9" fill-opacity="0.5" stroke="#606060" stroke-width="1.0"/>
           <path id="arrow"
             d="M 11.500037,31.436501 C 11.940474,20.09759 22.043105,11.32322 32.158766,21.979434 L 37.068811,17.246167 C 37.068811,17.246167 37.088388,32 37.088388,32 L 22.160133,31.978069 C 22.160133,31.978069 26.997745,27.140456 26.997745,27.140456 C 18.528582,18.264221 13.291696,25.230495 11.500037,31.436501 z"
             style="fill:#404040;"/>
          </a>
         </g>
        </svg>
</svg>
