<?xml version="1.0" encoding="UTF-8" standalone="no"?>
<!DOCTYPE svg PUBLIC "-//W3C//DTD SVG 1.1//EN"
 "http://www.w3.org/Graphics/SVG/1.1/DTD/svg11.dtd">
<!-- Generated by graphviz version 2.40.1 (20161225.0304)
 -->
<!-- Title: Algorithms::DoFOutputOperator&lt; VectorType, dim, spacedim &gt; Pages: 1 -->
<svg width="178pt" height="162pt"
 viewBox="0.00 0.00 178.00 162.00" xmlns="http://www.w3.org/2000/svg" xmlns:xlink="http://www.w3.org/1999/xlink">
<g id="graph0" class="graph" transform="scale(1 1) rotate(0) translate(4 158)">
<title>Algorithms::DoFOutputOperator&lt; VectorType, dim, spacedim &gt;</title>
<polygon fill="#ffffff" stroke="transparent" points="-4,4 -4,-158 174,-158 174,4 -4,4"/>
<!-- Node0 -->
<g id="node1" class="node">
<title>Node0</title>
<polygon fill="#bfbfbf" stroke="#000000" points="0,-.5 0,-30.5 170,-30.5 170,-.5 0,-.5"/>
<text text-anchor="start" x="8" y="-18.5" font-family="Helvetica,sans-Serif" font-size="10.00" fill="#000000">Algorithms::DoFOutputOperator</text>
<text text-anchor="middle" x="85" y="-7.5" font-family="Helvetica,sans-Serif" font-size="10.00" fill="#000000">&lt; VectorType, dim, spacedim &gt;</text>
</g>
<!-- Node1 -->
<g id="node2" class="node">
<title>Node1</title>
<g id="a_node2"><a xlink:href="classAlgorithms_1_1OutputOperator.html" target="_top" xlink:title="Algorithms::OutputOperator\l\&lt; VectorType \&gt;">
<polygon fill="#ffffff" stroke="#000000" points="9,-67.5 9,-97.5 161,-97.5 161,-67.5 9,-67.5"/>
<text text-anchor="start" x="17" y="-85.5" font-family="Helvetica,sans-Serif" font-size="10.00" fill="#000000">Algorithms::OutputOperator</text>
<text text-anchor="middle" x="85" y="-74.5" font-family="Helvetica,sans-Serif" font-size="10.00" fill="#000000">&lt; VectorType &gt;</text>
</a>
</g>
</g>
<!-- Node1&#45;&gt;Node0 -->
<g id="edge1" class="edge">
<title>Node1&#45;&gt;Node0</title>
<path fill="none" stroke="#191970" d="M85,-57.0249C85,-48.128 85,-38.4287 85,-30.6432"/>
<polygon fill="#191970" stroke="#191970" points="81.5001,-57.2966 85,-67.2967 88.5001,-57.2967 81.5001,-57.2966"/>
</g>
<!-- Node2 -->
<g id="node3" class="node">
<title>Node2</title>
<g id="a_node3"><a xlink:href="classSubscriptor.html" target="_top" xlink:title="Subscriptor">
<polygon fill="#ffffff" stroke="#000000" points="49.5,-134.5 49.5,-153.5 120.5,-153.5 120.5,-134.5 49.5,-134.5"/>
<text text-anchor="middle" x="85" y="-141.5" font-family="Helvetica,sans-Serif" font-size="10.00" fill="#000000">Subscriptor</text>
</a>
</g>
</g>
<!-- Node2&#45;&gt;Node1 -->
<g id="edge2" class="edge">
<title>Node2&#45;&gt;Node1</title>
<path fill="none" stroke="#191970" d="M85,-124.3693C85,-115.681 85,-105.6241 85,-97.5446"/>
<polygon fill="#191970" stroke="#191970" points="81.5001,-124.3906 85,-134.3906 88.5001,-124.3907 81.5001,-124.3906"/>
</g>
</g>
</svg>
