<?xml version="1.0" encoding="UTF-8" standalone="no"?>
<!DOCTYPE svg PUBLIC "-//W3C//DTD SVG 1.1//EN"
 "http://www.w3.org/Graphics/SVG/1.1/DTD/svg11.dtd">
<!-- Generated by graphviz version 2.40.1 (20161225.0304)
 -->
<!-- Title: ParameterAcceptorProxy&lt; SourceClass &gt; Pages: 1 -->
<svg width="200pt" height="151pt"
 viewBox="0.00 0.00 200.00 151.00" xmlns="http://www.w3.org/2000/svg" xmlns:xlink="http://www.w3.org/1999/xlink">
<g id="graph0" class="graph" transform="scale(1 1) rotate(0) translate(4 147)">
<title>ParameterAcceptorProxy&lt; SourceClass &gt;</title>
<polygon fill="#ffffff" stroke="transparent" points="-4,4 -4,-147 196,-147 196,4 -4,4"/>
<!-- Node0 -->
<g id="node1" class="node">
<title>Node0</title>
<polygon fill="#bfbfbf" stroke="#000000" points="25.5,-.5 25.5,-30.5 151.5,-30.5 151.5,-.5 25.5,-.5"/>
<text text-anchor="start" x="33.5" y="-18.5" font-family="Helvetica,sans-Serif" font-size="10.00" fill="#000000">ParameterAcceptorProxy</text>
<text text-anchor="middle" x="88.5" y="-7.5" font-family="Helvetica,sans-Serif" font-size="10.00" fill="#000000">&lt; SourceClass &gt;</text>
</g>
<!-- Node1 -->
<g id="node2" class="node">
<title>Node1</title>
<g id="a_node2"><a xlink:href="classSourceClass.html" target="_top" xlink:title="SourceClass">
<polygon fill="#ffffff" stroke="#000000" points="0,-67.5 0,-86.5 73,-86.5 73,-67.5 0,-67.5"/>
<text text-anchor="middle" x="36.5" y="-74.5" font-family="Helvetica,sans-Serif" font-size="10.00" fill="#000000">SourceClass</text>
</a>
</g>
</g>
<!-- Node1&#45;&gt;Node0 -->
<g id="edge1" class="edge">
<title>Node1&#45;&gt;Node0</title>
<path fill="none" stroke="#191970" d="M51.1688,-59.6514C58.9196,-50.4845 68.3407,-39.3423 75.7794,-30.5446"/>
<polygon fill="#191970" stroke="#191970" points="48.409,-57.4945 44.625,-67.3906 53.7544,-62.0142 48.409,-57.4945"/>
</g>
<!-- Node2 -->
<g id="node3" class="node">
<title>Node2</title>
<g id="a_node3"><a xlink:href="classParameterAcceptor.html" target="_top" xlink:title="ParameterAcceptor">
<polygon fill="#ffffff" stroke="#000000" points="91,-67.5 91,-86.5 192,-86.5 192,-67.5 91,-67.5"/>
<text text-anchor="middle" x="141.5" y="-74.5" font-family="Helvetica,sans-Serif" font-size="10.00" fill="#000000">ParameterAcceptor</text>
</a>
</g>
</g>
<!-- Node2&#45;&gt;Node0 -->
<g id="edge2" class="edge">
<title>Node2&#45;&gt;Node0</title>
<path fill="none" stroke="#191970" d="M126.5491,-59.6514C118.6493,-50.4845 109.047,-39.3423 101.4653,-30.5446"/>
<polygon fill="#191970" stroke="#191970" points="124.0392,-62.1003 133.2188,-67.3906 129.3418,-57.5306 124.0392,-62.1003"/>
</g>
<!-- Node3 -->
<g id="node4" class="node">
<title>Node3</title>
<g id="a_node4"><a xlink:href="classSubscriptor.html" target="_top" xlink:title="Subscriptor">
<polygon fill="#ffffff" stroke="#000000" points="108.5,-123.5 108.5,-142.5 174.5,-142.5 174.5,-123.5 108.5,-123.5"/>
<text text-anchor="middle" x="141.5" y="-130.5" font-family="Helvetica,sans-Serif" font-size="10.00" fill="#000000">Subscriptor</text>
</a>
</g>
</g>
<!-- Node3&#45;&gt;Node2 -->
<g id="edge3" class="edge">
<title>Node3&#45;&gt;Node2</title>
<path fill="none" stroke="#191970" d="M141.5,-113.1575C141.5,-104.155 141.5,-93.9199 141.5,-86.6427"/>
<polygon fill="#191970" stroke="#191970" points="138.0001,-113.2455 141.5,-123.2455 145.0001,-113.2456 138.0001,-113.2455"/>
</g>
</g>
</svg>
