<?xml version="1.0" encoding="UTF-8" standalone="no"?>
<!DOCTYPE svg PUBLIC "-//W3C//DTD SVG 1.1//EN"
 "http://www.w3.org/Graphics/SVG/1.1/DTD/svg11.dtd">
<!-- Generated by graphviz version 2.40.1 (20161225.0304)
 -->
<!-- Title: hp::MappingCollection&lt; dim, spacedim &gt; Pages: 1 -->
<svg width="1076pt" height="182pt"
 viewBox="0.00 0.00 1076.00 181.50" xmlns="http://www.w3.org/2000/svg" xmlns:xlink="http://www.w3.org/1999/xlink">
<g id="graph0" class="graph" transform="scale(1 1) rotate(0) translate(4 177.5)">
<title>hp::MappingCollection&lt; dim, spacedim &gt;</title>
<polygon fill="#ffffff" stroke="transparent" points="-4,4 -4,-177.5 1072,-177.5 1072,4 -4,4"/>
<!-- Node0 -->
<g id="node1" class="node">
<title>Node0</title>
<polygon fill="#bfbfbf" stroke="#000000" points="591,-77.5 591,-107.5 716,-107.5 716,-77.5 591,-77.5"/>
<text text-anchor="start" x="599" y="-95.5" font-family="Helvetica,sans-Serif" font-size="10.00" fill="#000000">hp::MappingCollection</text>
<text text-anchor="middle" x="653.5" y="-84.5" font-family="Helvetica,sans-Serif" font-size="10.00" fill="#000000">&lt; dim, spacedim &gt;</text>
</g>
<!-- Node4 -->
<g id="node5" class="node">
<title>Node4</title>
<g id="a_node5"><a xlink:href="classhp_1_1MappingCollection.html" target="_top" xlink:title="hp::MappingCollection\l\&lt; dim, ::FEValues\&lt; dim,\l spacedim \&gt; ::space_dimension \&gt;">
<polygon fill="#ffffff" stroke="#000000" points="885,-132 885,-173 1068,-173 1068,-132 885,-132"/>
<text text-anchor="start" x="893" y="-161" font-family="Helvetica,sans-Serif" font-size="10.00" fill="#000000">hp::MappingCollection</text>
<text text-anchor="start" x="893" y="-150" font-family="Helvetica,sans-Serif" font-size="10.00" fill="#000000">&lt; dim, ::FEValues&lt; dim,</text>
<text text-anchor="middle" x="976.5" y="-139" font-family="Helvetica,sans-Serif" font-size="10.00" fill="#000000"> spacedim &gt; ::space_dimension &gt;</text>
</a>
</g>
</g>
<!-- Node0&#45;&gt;Node4 -->
<g id="edge5" class="edge">
<title>Node0&#45;&gt;Node4</title>
<path fill="none" stroke="#ffa500" stroke-dasharray="5,2" d="M705.072,-110.6123C714.6101,-113.5452 724.5452,-116.3276 734,-118.5 783.3051,-129.8289 839.1712,-137.9722 884.8447,-143.4435"/>
<polygon fill="#ffa500" stroke="#ffa500" points="705.9029,-107.2042 695.3128,-107.5207 703.7889,-113.8773 705.9029,-107.2042"/>
<text text-anchor="start" x="738.5" y="-165.5" font-family="Helvetica,sans-Serif" font-size="10.00" fill="#000000"> &lt; dim, ::FEValues&lt;</text>
<text text-anchor="start" x="738.5" y="-154.5" font-family="Helvetica,sans-Serif" font-size="10.00" fill="#000000"> dim, spacedim &gt; ::space</text>
<text text-anchor="middle" x="800.5" y="-143.5" font-family="Helvetica,sans-Serif" font-size="10.00" fill="#000000">_dimension &gt;</text>
</g>
<!-- Node5 -->
<g id="node6" class="node">
<title>Node5</title>
<g id="a_node6"><a xlink:href="classhp_1_1MappingCollection.html" target="_top" xlink:title="hp::MappingCollection\l\&lt; dim, FEValuesType::\lspace_dimension \&gt;">
<polygon fill="#ffffff" stroke="#000000" points="914,-72 914,-113 1039,-113 1039,-72 914,-72"/>
<text text-anchor="start" x="922" y="-101" font-family="Helvetica,sans-Serif" font-size="10.00" fill="#000000">hp::MappingCollection</text>
<text text-anchor="start" x="922" y="-90" font-family="Helvetica,sans-Serif" font-size="10.00" fill="#000000">&lt; dim, FEValuesType::</text>
<text text-anchor="middle" x="976.5" y="-79" font-family="Helvetica,sans-Serif" font-size="10.00" fill="#000000">space_dimension &gt;</text>
</a>
</g>
</g>
<!-- Node0&#45;&gt;Node5 -->
<g id="edge6" class="edge">
<title>Node0&#45;&gt;Node5</title>
<path fill="none" stroke="#ffa500" stroke-dasharray="5,2" d="M726.4376,-92.5C782.8319,-92.5 860.0832,-92.5 913.7386,-92.5"/>
<polygon fill="#ffa500" stroke="#ffa500" points="726.1607,-89.0001 716.1606,-92.5 726.1606,-96.0001 726.1607,-89.0001"/>
<text text-anchor="start" x="747.5" y="-106.5" font-family="Helvetica,sans-Serif" font-size="10.00" fill="#000000"> &lt; dim, FEValuesType</text>
<text text-anchor="middle" x="800.5" y="-95.5" font-family="Helvetica,sans-Serif" font-size="10.00" fill="#000000">::space_dimension &gt;</text>
</g>
<!-- Node6 -->
<g id="node7" class="node">
<title>Node6</title>
<g id="a_node7"><a xlink:href="classhp_1_1MappingCollection.html" target="_top" xlink:title="hp::MappingCollection\l\&lt; dim, ::FEFaceValues\l\&lt; dim, spacedim \&gt; ::space\l_dimension \&gt;">
<polygon fill="#ffffff" stroke="#000000" points="902,-.5 902,-52.5 1051,-52.5 1051,-.5 902,-.5"/>
<text text-anchor="start" x="910" y="-40.5" font-family="Helvetica,sans-Serif" font-size="10.00" fill="#000000">hp::MappingCollection</text>
<text text-anchor="start" x="910" y="-29.5" font-family="Helvetica,sans-Serif" font-size="10.00" fill="#000000">&lt; dim, ::FEFaceValues</text>
<text text-anchor="start" x="910" y="-18.5" font-family="Helvetica,sans-Serif" font-size="10.00" fill="#000000">&lt; dim, spacedim &gt; ::space</text>
<text text-anchor="middle" x="976.5" y="-7.5" font-family="Helvetica,sans-Serif" font-size="10.00" fill="#000000">_dimension &gt;</text>
</a>
</g>
</g>
<!-- Node0&#45;&gt;Node6 -->
<g id="edge7" class="edge">
<title>Node0&#45;&gt;Node6</title>
<path fill="none" stroke="#ffa500" stroke-dasharray="5,2" d="M689.6274,-72.9802C703.1896,-66.4404 718.9651,-59.7409 734,-55.5 788.9892,-39.9892 853.277,-32.7724 901.839,-29.4156"/>
<polygon fill="#ffa500" stroke="#ffa500" points="688.0273,-69.8669 680.6282,-77.45 691.1413,-76.1362 688.0273,-69.8669"/>
<text text-anchor="start" x="734" y="-80.5" font-family="Helvetica,sans-Serif" font-size="10.00" fill="#000000"> &lt; dim, ::FEFaceValues</text>
<text text-anchor="start" x="734" y="-69.5" font-family="Helvetica,sans-Serif" font-size="10.00" fill="#000000">&lt; dim, spacedim &gt; ::space</text>
<text text-anchor="middle" x="800.5" y="-58.5" font-family="Helvetica,sans-Serif" font-size="10.00" fill="#000000">_dimension &gt;</text>
</g>
<!-- Node1 -->
<g id="node2" class="node">
<title>Node1</title>
<g id="a_node2"><a xlink:href="classhp_1_1Collection.html" target="_top" xlink:title="hp::Collection\&lt; Mapping\l\&lt; dim, spacedim \&gt; \&gt;">
<polygon fill="#ffffff" stroke="#000000" points="418,-77.5 418,-107.5 554,-107.5 554,-77.5 418,-77.5"/>
<text text-anchor="start" x="426" y="-95.5" font-family="Helvetica,sans-Serif" font-size="10.00" fill="#000000">hp::Collection&lt; Mapping</text>
<text text-anchor="middle" x="486" y="-84.5" font-family="Helvetica,sans-Serif" font-size="10.00" fill="#000000">&lt; dim, spacedim &gt; &gt;</text>
</a>
</g>
</g>
<!-- Node1&#45;&gt;Node0 -->
<g id="edge1" class="edge">
<title>Node1&#45;&gt;Node0</title>
<path fill="none" stroke="#191970" d="M564.1645,-92.5C573.1049,-92.5 582.1305,-92.5 590.8314,-92.5"/>
<polygon fill="#191970" stroke="#191970" points="564.1287,-89.0001 554.1287,-92.5 564.1286,-96.0001 564.1287,-89.0001"/>
</g>
<!-- Node2 -->
<g id="node3" class="node">
<title>Node2</title>
<g id="a_node3"><a xlink:href="classSubscriptor.html" target="_top" xlink:title="Subscriptor">
<polygon fill="#ffffff" stroke="#000000" points="0,-80 0,-99 71,-99 71,-80 0,-80"/>
<text text-anchor="middle" x="35.5" y="-87" font-family="Helvetica,sans-Serif" font-size="10.00" fill="#000000">Subscriptor</text>
</a>
</g>
</g>
<!-- Node2&#45;&gt;Node1 -->
<g id="edge2" class="edge">
<title>Node2&#45;&gt;Node1</title>
<path fill="none" stroke="#191970" d="M81.2642,-94.0609C83.8797,-94.2331 86.4723,-94.3821 89,-94.5 227.0722,-100.9379 261.7871,-96.1069 400,-94.5 405.8241,-94.4323 411.8696,-94.3388 417.9339,-94.2289"/>
<polygon fill="#191970" stroke="#191970" points="81.3872,-90.5603 71.1522,-93.2981 80.8606,-97.5405 81.3872,-90.5603"/>
</g>
<!-- Node3 -->
<g id="node4" class="node">
<title>Node3</title>
<g id="a_node4"><a xlink:href="classhp_1_1Collection.html" target="_top" xlink:title="hp::Collection\&lt; T \&gt;">
<polygon fill="#ffffff" stroke="#000000" points="108,-61 108,-80 220,-80 220,-61 108,-61"/>
<text text-anchor="middle" x="164" y="-68" font-family="Helvetica,sans-Serif" font-size="10.00" fill="#000000">hp::Collection&lt; T &gt;</text>
</a>
</g>
</g>
<!-- Node2&#45;&gt;Node3 -->
<g id="edge4" class="edge">
<title>Node2&#45;&gt;Node3</title>
<path fill="none" stroke="#191970" d="M81.4061,-82.7123C89.9237,-81.4529 98.9107,-80.1241 107.6965,-78.825"/>
<polygon fill="#191970" stroke="#191970" points="80.6749,-79.2823 71.2944,-84.2074 81.6988,-86.207 80.6749,-79.2823"/>
</g>
<!-- Node3&#45;&gt;Node1 -->
<g id="edge3" class="edge">
<title>Node3&#45;&gt;Node1</title>
<path fill="none" stroke="#ffa500" stroke-dasharray="5,2" d="M230.4387,-73.285C277.7582,-75.4822 342.8379,-78.9374 400,-83.5 405.8362,-83.9658 411.89,-84.4986 417.9599,-85.0671"/>
<polygon fill="#ffa500" stroke="#ffa500" points="230.4691,-69.7829 220.3195,-72.8218 230.1489,-76.7755 230.4691,-69.7829"/>
<text text-anchor="middle" x="319" y="-86.5" font-family="Helvetica,sans-Serif" font-size="10.00" fill="#000000"> &lt; Mapping&lt; dim, spacedim &gt; &gt;</text>
</g>
</g>
</svg>
