<?xml version="1.0" encoding="UTF-8" standalone="no"?>
<!DOCTYPE svg PUBLIC "-//W3C//DTD SVG 1.1//EN"
 "http://www.w3.org/Graphics/SVG/1.1/DTD/svg11.dtd">
<!-- Generated by graphviz version 2.40.1 (20161225.0304)
 -->
<!-- Title: Utilities::MPI::ConsensusAlgorithms::Serial&lt; T1, T2 &gt; Pages: 1 -->
<svg width="351pt" height="343pt"
 viewBox="0.00 0.00 350.50 343.00" xmlns="http://www.w3.org/2000/svg" xmlns:xlink="http://www.w3.org/1999/xlink">
<g id="graph0" class="graph" transform="scale(1 1) rotate(0) translate(4 339)">
<title>Utilities::MPI::ConsensusAlgorithms::Serial&lt; T1, T2 &gt;</title>
<polygon fill="#ffffff" stroke="transparent" points="-4,4 -4,-339 346.5,-339 346.5,4 -4,4"/>
<!-- Node2 -->
<g id="node1" class="node">
<title>Node2</title>
<polygon fill="#bfbfbf" stroke="#000000" points="99.5,-.5 99.5,-79.5 239.5,-79.5 239.5,-.5 99.5,-.5"/>
<text text-anchor="start" x="107.5" y="-67.5" font-family="Helvetica,sans-Serif" font-size="10.00" fill="#000000">Utilities::MPI::Consensus</text>
<text text-anchor="middle" x="169.5" y="-56.5" font-family="Helvetica,sans-Serif" font-size="10.00" fill="#000000">Algorithms::Serial&lt; T1, T2 &gt;</text>
<polyline fill="none" stroke="#000000" points="99.5,-49.5 239.5,-49.5 "/>
<text text-anchor="middle" x="169.5" y="-37.5" font-family="Helvetica,sans-Serif" font-size="10.00" fill="#000000"> </text>
<polyline fill="none" stroke="#000000" points="99.5,-30.5 239.5,-30.5 "/>
<text text-anchor="start" x="107.5" y="-18.5" font-family="Helvetica,sans-Serif" font-size="10.00" fill="#000000">+ Serial()</text>
<text text-anchor="start" x="107.5" y="-7.5" font-family="Helvetica,sans-Serif" font-size="10.00" fill="#000000">+ run()</text>
</g>
<!-- Node3 -->
<g id="node2" class="node">
<title>Node3</title>
<g id="a_node2"><a xlink:href="classUtilities_1_1MPI_1_1ConsensusAlgorithms_1_1Interface.html" target="_top" xlink:title="{Utilities::MPI::Consensus\lAlgorithms::Interface\&lt;\l T1, T2 \&gt;\n||+ Interface()\l+ ~Interface()\l+ run()\l}">
<polygon fill="#ffffff" stroke="#000000" points="105,-117.5 105,-218.5 234,-218.5 234,-117.5 105,-117.5"/>
<text text-anchor="start" x="113" y="-206.5" font-family="Helvetica,sans-Serif" font-size="10.00" fill="#000000">Utilities::MPI::Consensus</text>
<text text-anchor="start" x="113" y="-195.5" font-family="Helvetica,sans-Serif" font-size="10.00" fill="#000000">Algorithms::Interface&lt;</text>
<text text-anchor="middle" x="169.5" y="-184.5" font-family="Helvetica,sans-Serif" font-size="10.00" fill="#000000"> T1, T2 &gt;</text>
<polyline fill="none" stroke="#000000" points="105,-177.5 234,-177.5 "/>
<text text-anchor="middle" x="169.5" y="-165.5" font-family="Helvetica,sans-Serif" font-size="10.00" fill="#000000"> </text>
<polyline fill="none" stroke="#000000" points="105,-158.5 234,-158.5 "/>
<text text-anchor="start" x="113" y="-146.5" font-family="Helvetica,sans-Serif" font-size="10.00" fill="#000000">+ Interface()</text>
<text text-anchor="start" x="113" y="-135.5" font-family="Helvetica,sans-Serif" font-size="10.00" fill="#000000">+ ~Interface()</text>
<text text-anchor="start" x="113" y="-124.5" font-family="Helvetica,sans-Serif" font-size="10.00" fill="#000000">+ run()</text>
</a>
</g>
</g>
<!-- Node3&#45;&gt;Node2 -->
<g id="edge1" class="edge">
<title>Node3&#45;&gt;Node2</title>
<path fill="none" stroke="#191970" d="M169.5,-107.2732C169.5,-97.8606 169.5,-88.3534 169.5,-79.5688"/>
<polygon fill="none" stroke="#191970" points="166.0001,-107.411 169.5,-117.411 173.0001,-107.411 166.0001,-107.411"/>
</g>
<!-- Node4 -->
<g id="node3" class="node">
<title>Node4</title>
<g id="a_node3"><a xlink:href="classbool.html" target="_top" xlink:title="{bool\n||}">
<polygon fill="#ffffff" stroke="#000000" points="0,-277.5 0,-334.5 35,-334.5 35,-277.5 0,-277.5"/>
<text text-anchor="middle" x="17.5" y="-322.5" font-family="Helvetica,sans-Serif" font-size="10.00" fill="#000000">bool</text>
<polyline fill="none" stroke="#000000" points="0,-315.5 35,-315.5 "/>
<text text-anchor="middle" x="17.5" y="-303.5" font-family="Helvetica,sans-Serif" font-size="10.00" fill="#000000"> </text>
<polyline fill="none" stroke="#000000" points="0,-296.5 35,-296.5 "/>
<text text-anchor="middle" x="17.5" y="-284.5" font-family="Helvetica,sans-Serif" font-size="10.00" fill="#000000"> </text>
</a>
</g>
</g>
<!-- Node4&#45;&gt;Node3 -->
<g id="edge2" class="edge">
<title>Node4&#45;&gt;Node3</title>
<path fill="none" stroke="#404040" d="M21.4963,-277.3931C24.5733,-263.9379 29.9904,-248.3882 39.5,-237 53.9403,-219.7071 73.8549,-206.141 93.7598,-195.7861"/>
<polygon fill="none" stroke="#404040" points="94.016,-195.66 97.6326,-189.4214 104.7823,-190.3604 101.1657,-196.599 94.016,-195.66"/>
<text text-anchor="middle" x="82" y="-245.5" font-family="Helvetica,sans-Serif" font-size="10.00" fill="#000000"> #job_supports_mpi</text>
</g>
<!-- Node5 -->
<g id="node4" class="node">
<title>Node5</title>
<g id="a_node4"><a xlink:href="classMPI__Comm.html" target="_top" xlink:title="{MPI_Comm\n||}">
<polygon fill="#ffffff" stroke="#000000" points="72,-277.5 72,-334.5 141,-334.5 141,-277.5 72,-277.5"/>
<text text-anchor="middle" x="106.5" y="-322.5" font-family="Helvetica,sans-Serif" font-size="10.00" fill="#000000">MPI_Comm</text>
<polyline fill="none" stroke="#000000" points="72,-315.5 141,-315.5 "/>
<text text-anchor="middle" x="106.5" y="-303.5" font-family="Helvetica,sans-Serif" font-size="10.00" fill="#000000"> </text>
<polyline fill="none" stroke="#000000" points="72,-296.5 141,-296.5 "/>
<text text-anchor="middle" x="106.5" y="-284.5" font-family="Helvetica,sans-Serif" font-size="10.00" fill="#000000"> </text>
</a>
</g>
</g>
<!-- Node5&#45;&gt;Node3 -->
<g id="edge3" class="edge">
<title>Node5&#45;&gt;Node3</title>
<path fill="none" stroke="#404040" d="M119.5536,-277.4063C125.8496,-263.6152 133.6635,-246.499 141.2267,-229.932"/>
<polygon fill="none" stroke="#404040" points="141.4174,-229.5142 140.2704,-222.3949 146.401,-218.5979 147.5479,-225.7172 141.4174,-229.5142"/>
<text text-anchor="middle" x="155.5" y="-245.5" font-family="Helvetica,sans-Serif" font-size="10.00" fill="#000000"> #comm</text>
</g>
<!-- Node6 -->
<g id="node5" class="node">
<title>Node6</title>
<polygon fill="#ffffff" stroke="#bfbfbf" points="159,-277.5 159,-334.5 268,-334.5 268,-277.5 159,-277.5"/>
<text text-anchor="middle" x="213.5" y="-322.5" font-family="Helvetica,sans-Serif" font-size="10.00" fill="#000000">Process&lt; T1, T2 &gt; &amp;</text>
<polyline fill="none" stroke="#bfbfbf" points="159,-315.5 268,-315.5 "/>
<text text-anchor="middle" x="213.5" y="-303.5" font-family="Helvetica,sans-Serif" font-size="10.00" fill="#000000"> </text>
<polyline fill="none" stroke="#bfbfbf" points="159,-296.5 268,-296.5 "/>
<text text-anchor="middle" x="213.5" y="-284.5" font-family="Helvetica,sans-Serif" font-size="10.00" fill="#000000"> </text>
</g>
<!-- Node6&#45;&gt;Node3 -->
<g id="edge4" class="edge">
<title>Node6&#45;&gt;Node3</title>
<path fill="none" stroke="#404040" d="M204.3832,-277.4063C200.0283,-263.7478 194.6335,-246.8278 189.3989,-230.41"/>
<polygon fill="none" stroke="#404040" points="189.278,-230.0309 183.6444,-225.5295 185.6327,-218.5979 191.2663,-223.0993 189.278,-230.0309"/>
<text text-anchor="middle" x="219" y="-245.5" font-family="Helvetica,sans-Serif" font-size="10.00" fill="#000000"> #process</text>
</g>
<!-- Node7 -->
<g id="node6" class="node">
<title>Node7</title>
<polygon fill="#ffffff" stroke="#bfbfbf" points="286.5,-277.5 286.5,-334.5 342.5,-334.5 342.5,-277.5 286.5,-277.5"/>
<text text-anchor="middle" x="314.5" y="-322.5" font-family="Helvetica,sans-Serif" font-size="10.00" fill="#000000">unsigned</text>
<polyline fill="none" stroke="#bfbfbf" points="286.5,-315.5 342.5,-315.5 "/>
<text text-anchor="middle" x="314.5" y="-303.5" font-family="Helvetica,sans-Serif" font-size="10.00" fill="#000000"> </text>
<polyline fill="none" stroke="#bfbfbf" points="286.5,-296.5 342.5,-296.5 "/>
<text text-anchor="middle" x="314.5" y="-284.5" font-family="Helvetica,sans-Serif" font-size="10.00" fill="#000000"> </text>
</g>
<!-- Node7&#45;&gt;Node3 -->
<g id="edge5" class="edge">
<title>Node7&#45;&gt;Node3</title>
<path fill="none" stroke="#404040" d="M286.447,-277.9112C273.7389,-265.3002 258.4637,-250.2979 244.5,-237 241.0666,-233.7303 237.5303,-230.3892 233.9501,-227.0272"/>
<polygon fill="none" stroke="#404040" points="233.7612,-226.8507 226.6464,-225.676 224.9942,-218.6567 232.1091,-219.8314 233.7612,-226.8507"/>
<text text-anchor="middle" x="287" y="-251" font-family="Helvetica,sans-Serif" font-size="10.00" fill="#000000"> #n_procs</text>
<text text-anchor="middle" x="287" y="-240" font-family="Helvetica,sans-Serif" font-size="10.00" fill="#000000">#my_rank</text>
</g>
</g>
</svg>
