<?xml version="1.0" encoding="UTF-8" standalone="no"?>
<!DOCTYPE svg PUBLIC "-//W3C//DTD SVG 1.1//EN"
 "http://www.w3.org/Graphics/SVG/1.1/DTD/svg11.dtd">
<!-- Generated by graphviz version 2.40.1 (20161225.0304)
 -->
<!-- Title: TriaAccessorBase&lt; structdim, dim, spacedim &gt; Pages: 1 -->
<svg width="833pt" height="110pt"
 viewBox="0.00 0.00 833.00 110.00" xmlns="http://www.w3.org/2000/svg" xmlns:xlink="http://www.w3.org/1999/xlink">
<g id="graph0" class="graph" transform="scale(1 1) rotate(0) translate(4 106)">
<title>TriaAccessorBase&lt; structdim, dim, spacedim &gt;</title>
<polygon fill="#ffffff" stroke="transparent" points="-4,4 -4,-106 829,-106 829,4 -4,4"/>
<!-- Node0 -->
<g id="node1" class="node">
<title>Node0</title>
<polygon fill="#bfbfbf" stroke="#000000" points="0,-22.5 0,-52.5 162,-52.5 162,-22.5 0,-22.5"/>
<text text-anchor="start" x="8" y="-40.5" font-family="Helvetica,sans-Serif" font-size="10.00" fill="#000000">TriaAccessorBase&lt; structdim,</text>
<text text-anchor="middle" x="81" y="-29.5" font-family="Helvetica,sans-Serif" font-size="10.00" fill="#000000"> dim, spacedim &gt;</text>
</g>
<!-- Node1 -->
<g id="node2" class="node">
<title>Node1</title>
<g id="a_node2"><a xlink:href="classInvalidAccessor.html" target="_top" xlink:title="InvalidAccessor\&lt; structdim,\l dim, spacedim \&gt;">
<polygon fill="#ffffff" stroke="#000000" points="199,-71.5 199,-101.5 353,-101.5 353,-71.5 199,-71.5"/>
<text text-anchor="start" x="207" y="-89.5" font-family="Helvetica,sans-Serif" font-size="10.00" fill="#000000">InvalidAccessor&lt; structdim,</text>
<text text-anchor="middle" x="276" y="-78.5" font-family="Helvetica,sans-Serif" font-size="10.00" fill="#000000"> dim, spacedim &gt;</text>
</a>
</g>
</g>
<!-- Node0&#45;&gt;Node1 -->
<g id="edge1" class="edge">
<title>Node0&#45;&gt;Node1</title>
<path fill="none" stroke="#191970" d="M150.5505,-54.9768C172.0431,-60.3775 195.5149,-66.2755 216.2815,-71.4938"/>
<polygon fill="#191970" stroke="#191970" points="151.3831,-51.5773 140.8316,-52.5346 149.6771,-58.3662 151.3831,-51.5773"/>
</g>
<!-- Node3 -->
<g id="node4" class="node">
<title>Node3</title>
<g id="a_node4"><a xlink:href="classTriaAccessor.html" target="_top" xlink:title="TriaAccessor\&lt; structdim,\l dim, spacedim \&gt;">
<polygon fill="#ffffff" stroke="#000000" points="207,-22.5 207,-52.5 345,-52.5 345,-22.5 207,-22.5"/>
<text text-anchor="start" x="215" y="-40.5" font-family="Helvetica,sans-Serif" font-size="10.00" fill="#000000">TriaAccessor&lt; structdim,</text>
<text text-anchor="middle" x="276" y="-29.5" font-family="Helvetica,sans-Serif" font-size="10.00" fill="#000000"> dim, spacedim &gt;</text>
</a>
</g>
</g>
<!-- Node0&#45;&gt;Node3 -->
<g id="edge3" class="edge">
<title>Node0&#45;&gt;Node3</title>
<path fill="none" stroke="#191970" d="M172.1673,-37.5C183.7874,-37.5 195.5278,-37.5 206.7248,-37.5"/>
<polygon fill="#191970" stroke="#191970" points="172.0035,-34.0001 162.0035,-37.5 172.0035,-41.0001 172.0035,-34.0001"/>
</g>
<!-- Node4 -->
<g id="node5" class="node">
<title>Node4</title>
<g id="a_node5"><a xlink:href="classTriaAccessor.html" target="_top" xlink:title="TriaAccessor\&lt; dim,\l dim, spacedim \&gt;">
<polygon fill="#ffffff" stroke="#000000" points="539,-.5 539,-30.5 649,-30.5 649,-.5 539,-.5"/>
<text text-anchor="start" x="547" y="-18.5" font-family="Helvetica,sans-Serif" font-size="10.00" fill="#000000">TriaAccessor&lt; dim,</text>
<text text-anchor="middle" x="594" y="-7.5" font-family="Helvetica,sans-Serif" font-size="10.00" fill="#000000"> dim, spacedim &gt;</text>
</a>
</g>
</g>
<!-- Node0&#45;&gt;Node4 -->
<g id="edge6" class="edge">
<title>Node0&#45;&gt;Node4</title>
<path fill="none" stroke="#191970" d="M152.9201,-20.4865C168.0548,-17.5789 183.9847,-15.0115 199,-13.5 319.7714,-1.3426 462.3654,-6.9527 538.8716,-11.5729"/>
<polygon fill="#191970" stroke="#191970" points="152.2318,-17.0548 143.1069,-22.4387 153.5976,-23.9203 152.2318,-17.0548"/>
</g>
<!-- Node2 -->
<g id="node3" class="node">
<title>Node2</title>
<g id="a_node3"><a xlink:href="classDoFInvalidAccessor.html" target="_top" xlink:title="DoFInvalidAccessor\l\&lt; structdim, dim, spacedim \&gt;">
<polygon fill="#ffffff" stroke="#000000" points="512,-71.5 512,-101.5 676,-101.5 676,-71.5 512,-71.5"/>
<text text-anchor="start" x="520" y="-89.5" font-family="Helvetica,sans-Serif" font-size="10.00" fill="#000000">DoFInvalidAccessor</text>
<text text-anchor="middle" x="594" y="-78.5" font-family="Helvetica,sans-Serif" font-size="10.00" fill="#000000">&lt; structdim, dim, spacedim &gt;</text>
</a>
</g>
</g>
<!-- Node1&#45;&gt;Node2 -->
<g id="edge2" class="edge">
<title>Node1&#45;&gt;Node2</title>
<path fill="none" stroke="#191970" d="M363.4076,-86.5C409.7295,-86.5 466.2975,-86.5 511.8123,-86.5"/>
<polygon fill="#191970" stroke="#191970" points="363.385,-83.0001 353.3849,-86.5 363.3849,-90.0001 363.385,-83.0001"/>
</g>
<!-- Node3&#45;&gt;Node4 -->
<g id="edge4" class="edge">
<title>Node3&#45;&gt;Node4</title>
<path fill="none" stroke="#ffa500" stroke-dasharray="5,2" d="M355.0923,-32.0282C412.2868,-28.0714 488.1213,-22.8249 538.864,-19.3144"/>
<polygon fill="#ffa500" stroke="#ffa500" points="354.7358,-28.5444 345.0013,-32.7263 355.219,-35.5277 354.7358,-28.5444"/>
<text text-anchor="middle" x="432.5" y="-32.5" font-family="Helvetica,sans-Serif" font-size="10.00" fill="#000000"> &lt; dim, dim, spacedim &gt;</text>
</g>
<!-- Node5 -->
<g id="node6" class="node">
<title>Node5</title>
<g id="a_node6"><a xlink:href="classCellAccessor.html" target="_top" xlink:title="CellAccessor\&lt; dim,\l spacedim \&gt;">
<polygon fill="#ffffff" stroke="#000000" points="713,-.5 713,-30.5 825,-30.5 825,-.5 713,-.5"/>
<text text-anchor="start" x="721" y="-18.5" font-family="Helvetica,sans-Serif" font-size="10.00" fill="#000000">CellAccessor&lt; dim,</text>
<text text-anchor="middle" x="769" y="-7.5" font-family="Helvetica,sans-Serif" font-size="10.00" fill="#000000"> spacedim &gt;</text>
</a>
</g>
</g>
<!-- Node4&#45;&gt;Node5 -->
<g id="edge5" class="edge">
<title>Node4&#45;&gt;Node5</title>
<path fill="none" stroke="#191970" d="M659.5184,-15.5C677.0389,-15.5 695.8166,-15.5 712.7862,-15.5"/>
<polygon fill="#191970" stroke="#191970" points="659.3711,-12.0001 649.3711,-15.5 659.3711,-19.0001 659.3711,-12.0001"/>
</g>
</g>
</svg>
