<?xml version="1.0" encoding="UTF-8" standalone="no"?>
<!DOCTYPE svg PUBLIC "-//W3C//DTD SVG 1.1//EN"
 "http://www.w3.org/Graphics/SVG/1.1/DTD/svg11.dtd">
<!-- Generated by graphviz version 2.40.1 (20161225.0304)
 -->
<!-- Title: ArborXWrappers::BoundingBoxNearestPredicate Pages: 1 -->
<svg width="440pt" height="910pt"
 viewBox="0.00 0.00 440.00 910.00" xmlns="http://www.w3.org/2000/svg" xmlns:xlink="http://www.w3.org/1999/xlink">
<g id="graph0" class="graph" transform="scale(1 1) rotate(0) translate(4 906)">
<title>ArborXWrappers::BoundingBoxNearestPredicate</title>
<polygon fill="#ffffff" stroke="transparent" points="-4,4 -4,-906 436,-906 436,4 -4,4"/>
<!-- Node2 -->
<g id="node1" class="node">
<title>Node2</title>
<polygon fill="#bfbfbf" stroke="#000000" points="227.5,-.5 227.5,-79.5 392.5,-79.5 392.5,-.5 227.5,-.5"/>
<text text-anchor="start" x="235.5" y="-67.5" font-family="Helvetica,sans-Serif" font-size="10.00" fill="#000000">ArborXWrappers::Bounding</text>
<text text-anchor="middle" x="310" y="-56.5" font-family="Helvetica,sans-Serif" font-size="10.00" fill="#000000">BoxNearestPredicate</text>
<polyline fill="none" stroke="#000000" points="227.5,-49.5 392.5,-49.5 "/>
<text text-anchor="middle" x="310" y="-37.5" font-family="Helvetica,sans-Serif" font-size="10.00" fill="#000000"> </text>
<polyline fill="none" stroke="#000000" points="227.5,-30.5 392.5,-30.5 "/>
<text text-anchor="start" x="235.5" y="-18.5" font-family="Helvetica,sans-Serif" font-size="10.00" fill="#000000">+ BoundingBoxNearestPredicate()</text>
<text text-anchor="start" x="235.5" y="-7.5" font-family="Helvetica,sans-Serif" font-size="10.00" fill="#000000">+ get_n_nearest_neighbors()</text>
</g>
<!-- Node3 -->
<g id="node2" class="node">
<title>Node3</title>
<g id="a_node2"><a xlink:href="classArborXWrappers_1_1BoundingBoxPredicate.html" target="_top" xlink:title="{ArborXWrappers::Bounding\lBoxPredicate\n||# BoundingBoxPredicate()\l# size()\l# get()\l}">
<polygon fill="#ffffff" stroke="#000000" points="192.5,-127.5 192.5,-217.5 327.5,-217.5 327.5,-127.5 192.5,-127.5"/>
<text text-anchor="start" x="200.5" y="-205.5" font-family="Helvetica,sans-Serif" font-size="10.00" fill="#000000">ArborXWrappers::Bounding</text>
<text text-anchor="middle" x="260" y="-194.5" font-family="Helvetica,sans-Serif" font-size="10.00" fill="#000000">BoxPredicate</text>
<polyline fill="none" stroke="#000000" points="192.5,-187.5 327.5,-187.5 "/>
<text text-anchor="middle" x="260" y="-175.5" font-family="Helvetica,sans-Serif" font-size="10.00" fill="#000000"> </text>
<polyline fill="none" stroke="#000000" points="192.5,-168.5 327.5,-168.5 "/>
<text text-anchor="start" x="200.5" y="-156.5" font-family="Helvetica,sans-Serif" font-size="10.00" fill="#000000"># BoundingBoxPredicate()</text>
<text text-anchor="start" x="200.5" y="-145.5" font-family="Helvetica,sans-Serif" font-size="10.00" fill="#000000"># size()</text>
<text text-anchor="start" x="200.5" y="-134.5" font-family="Helvetica,sans-Serif" font-size="10.00" fill="#000000"># get()</text>
</a>
</g>
</g>
<!-- Node3&#45;&gt;Node2 -->
<g id="edge1" class="edge">
<title>Node3&#45;&gt;Node2</title>
<path fill="none" stroke="#8b1a1a" d="M280.6858,-117.6826C285.4896,-104.9527 290.5124,-91.642 295.0158,-79.7081"/>
<polygon fill="none" stroke="#8b1a1a" points="277.3233,-116.6799 277.0673,-127.2716 283.8726,-119.1513 277.3233,-116.6799"/>
</g>
<!-- Node4 -->
<g id="node3" class="node">
<title>Node4</title>
<polygon fill="#ffffff" stroke="#bfbfbf" points="195,-265.5 195,-333.5 325,-333.5 325,-265.5 195,-265.5"/>
<text text-anchor="start" x="203" y="-321.5" font-family="Helvetica,sans-Serif" font-size="10.00" fill="#000000">std::vector&lt; BoundingBox</text>
<text text-anchor="middle" x="260" y="-310.5" font-family="Helvetica,sans-Serif" font-size="10.00" fill="#000000">&lt; 3, float &gt; &gt;</text>
<polyline fill="none" stroke="#bfbfbf" points="195,-303.5 325,-303.5 "/>
<text text-anchor="middle" x="260" y="-291.5" font-family="Helvetica,sans-Serif" font-size="10.00" fill="#000000"> </text>
<polyline fill="none" stroke="#bfbfbf" points="195,-284.5 325,-284.5 "/>
<text text-anchor="middle" x="260" y="-272.5" font-family="Helvetica,sans-Serif" font-size="10.00" fill="#000000"> </text>
</g>
<!-- Node4&#45;&gt;Node3 -->
<g id="edge2" class="edge">
<title>Node4&#45;&gt;Node3</title>
<path fill="none" stroke="#404040" d="M260,-265.4663C260,-254.4452 260,-241.9023 260,-229.6754"/>
<polygon fill="none" stroke="#404040" points="260.0001,-229.6219 256,-223.6219 260,-217.6219 264,-223.6218 260.0001,-229.6219"/>
<text text-anchor="middle" x="298.5" y="-239" font-family="Helvetica,sans-Serif" font-size="10.00" fill="#000000"> &#45;bounding_boxes</text>
</g>
<!-- Node5 -->
<g id="node4" class="node">
<title>Node5</title>
<g id="a_node4"><a xlink:href="classBoundingBox.html" target="_top" xlink:title="{BoundingBox\&lt; 3, float \&gt;\n||+ BoundingBox()\l+ BoundingBox()\l+ BoundingBox()\l+ get_boundary_points()\l+ get_boundary_points()\l+ operator==()\l+ operator!=()\l+ get_neighbor_type()\l+ merge_with()\l+ point_inside()\land 13 more...\l}">
<polygon fill="#ffffff" stroke="#000000" points="138,-381.5 138,-548.5 260,-548.5 260,-381.5 138,-381.5"/>
<text text-anchor="middle" x="199" y="-536.5" font-family="Helvetica,sans-Serif" font-size="10.00" fill="#000000">BoundingBox&lt; 3, float &gt;</text>
<polyline fill="none" stroke="#000000" points="138,-529.5 260,-529.5 "/>
<text text-anchor="middle" x="199" y="-517.5" font-family="Helvetica,sans-Serif" font-size="10.00" fill="#000000"> </text>
<polyline fill="none" stroke="#000000" points="138,-510.5 260,-510.5 "/>
<text text-anchor="start" x="146" y="-498.5" font-family="Helvetica,sans-Serif" font-size="10.00" fill="#000000">+ BoundingBox()</text>
<text text-anchor="start" x="146" y="-487.5" font-family="Helvetica,sans-Serif" font-size="10.00" fill="#000000">+ BoundingBox()</text>
<text text-anchor="start" x="146" y="-476.5" font-family="Helvetica,sans-Serif" font-size="10.00" fill="#000000">+ BoundingBox()</text>
<text text-anchor="start" x="146" y="-465.5" font-family="Helvetica,sans-Serif" font-size="10.00" fill="#000000">+ get_boundary_points()</text>
<text text-anchor="start" x="146" y="-454.5" font-family="Helvetica,sans-Serif" font-size="10.00" fill="#000000">+ get_boundary_points()</text>
<text text-anchor="start" x="146" y="-443.5" font-family="Helvetica,sans-Serif" font-size="10.00" fill="#000000">+ operator==()</text>
<text text-anchor="start" x="146" y="-432.5" font-family="Helvetica,sans-Serif" font-size="10.00" fill="#000000">+ operator!=()</text>
<text text-anchor="start" x="146" y="-421.5" font-family="Helvetica,sans-Serif" font-size="10.00" fill="#000000">+ get_neighbor_type()</text>
<text text-anchor="start" x="146" y="-410.5" font-family="Helvetica,sans-Serif" font-size="10.00" fill="#000000">+ merge_with()</text>
<text text-anchor="start" x="146" y="-399.5" font-family="Helvetica,sans-Serif" font-size="10.00" fill="#000000">+ point_inside()</text>
<text text-anchor="start" x="146" y="-388.5" font-family="Helvetica,sans-Serif" font-size="10.00" fill="#000000">and 13 more...</text>
</a>
</g>
</g>
<!-- Node5&#45;&gt;Node4 -->
<g id="edge3" class="edge">
<title>Node5&#45;&gt;Node4</title>
<path fill="none" stroke="#404040" d="M227.1485,-381.4707C230.7075,-371.5046 234.3741,-361.5009 238,-352 238.8947,-349.6557 239.8283,-347.26 240.7843,-344.8461"/>
<polygon fill="none" stroke="#404040" points="240.8571,-344.6661 239.4005,-337.6036 245.3595,-333.5428 246.8161,-340.6052 240.8571,-344.6661"/>
<text text-anchor="middle" x="262.5" y="-355" font-family="Helvetica,sans-Serif" font-size="10.00" fill="#000000"> +elements</text>
</g>
<!-- Node6 -->
<g id="node5" class="node">
<title>Node6</title>
<polygon fill="#ffffff" stroke="#bfbfbf" points="0,-646 0,-725 130,-725 130,-646 0,-646"/>
<text text-anchor="start" x="8" y="-713" font-family="Helvetica,sans-Serif" font-size="10.00" fill="#000000">pair&lt; Point&lt; spacedim,</text>
<text text-anchor="start" x="8" y="-702" font-family="Helvetica,sans-Serif" font-size="10.00" fill="#000000"> float &gt;, Point&lt; spacedim,</text>
<text text-anchor="middle" x="65" y="-691" font-family="Helvetica,sans-Serif" font-size="10.00" fill="#000000"> float &gt; &gt;</text>
<polyline fill="none" stroke="#bfbfbf" points="0,-684 130,-684 "/>
<text text-anchor="middle" x="65" y="-672" font-family="Helvetica,sans-Serif" font-size="10.00" fill="#000000"> </text>
<polyline fill="none" stroke="#bfbfbf" points="0,-665 130,-665 "/>
<text text-anchor="middle" x="65" y="-653" font-family="Helvetica,sans-Serif" font-size="10.00" fill="#000000"> </text>
</g>
<!-- Node6&#45;&gt;Node5 -->
<g id="edge4" class="edge">
<title>Node6&#45;&gt;Node5</title>
<path fill="none" stroke="#404040" d="M82.6237,-645.9002C93.579,-622.4293 108.4951,-592.4036 124,-567 126.3117,-563.2125 128.7252,-559.388 131.21,-555.556"/>
<polygon fill="none" stroke="#404040" points="131.3024,-555.4166 131.284,-548.2055 137.9334,-545.415 137.9518,-552.6261 131.3024,-555.4166"/>
<text text-anchor="middle" x="163" y="-570" font-family="Helvetica,sans-Serif" font-size="10.00" fill="#000000"> &#45;boundary_points</text>
</g>
<!-- Node7 -->
<g id="node6" class="node">
<title>Node7</title>
<g id="a_node6"><a xlink:href="classBoundingBox.html" target="_top" xlink:title="{BoundingBox\&lt; spacedim,\l Number \&gt;\n||+ BoundingBox()\l+ BoundingBox()\l+ BoundingBox()\l+ get_boundary_points()\l+ get_boundary_points()\l+ operator==()\l+ operator!=()\l+ get_neighbor_type()\l+ merge_with()\l+ point_inside()\land 13 more...\l}">
<polygon fill="#ffffff" stroke="#000000" points="148,-596.5 148,-774.5 276,-774.5 276,-596.5 148,-596.5"/>
<text text-anchor="start" x="156" y="-762.5" font-family="Helvetica,sans-Serif" font-size="10.00" fill="#000000">BoundingBox&lt; spacedim,</text>
<text text-anchor="middle" x="212" y="-751.5" font-family="Helvetica,sans-Serif" font-size="10.00" fill="#000000"> Number &gt;</text>
<polyline fill="none" stroke="#000000" points="148,-744.5 276,-744.5 "/>
<text text-anchor="middle" x="212" y="-732.5" font-family="Helvetica,sans-Serif" font-size="10.00" fill="#000000"> </text>
<polyline fill="none" stroke="#000000" points="148,-725.5 276,-725.5 "/>
<text text-anchor="start" x="156" y="-713.5" font-family="Helvetica,sans-Serif" font-size="10.00" fill="#000000">+ BoundingBox()</text>
<text text-anchor="start" x="156" y="-702.5" font-family="Helvetica,sans-Serif" font-size="10.00" fill="#000000">+ BoundingBox()</text>
<text text-anchor="start" x="156" y="-691.5" font-family="Helvetica,sans-Serif" font-size="10.00" fill="#000000">+ BoundingBox()</text>
<text text-anchor="start" x="156" y="-680.5" font-family="Helvetica,sans-Serif" font-size="10.00" fill="#000000">+ get_boundary_points()</text>
<text text-anchor="start" x="156" y="-669.5" font-family="Helvetica,sans-Serif" font-size="10.00" fill="#000000">+ get_boundary_points()</text>
<text text-anchor="start" x="156" y="-658.5" font-family="Helvetica,sans-Serif" font-size="10.00" fill="#000000">+ operator==()</text>
<text text-anchor="start" x="156" y="-647.5" font-family="Helvetica,sans-Serif" font-size="10.00" fill="#000000">+ operator!=()</text>
<text text-anchor="start" x="156" y="-636.5" font-family="Helvetica,sans-Serif" font-size="10.00" fill="#000000">+ get_neighbor_type()</text>
<text text-anchor="start" x="156" y="-625.5" font-family="Helvetica,sans-Serif" font-size="10.00" fill="#000000">+ merge_with()</text>
<text text-anchor="start" x="156" y="-614.5" font-family="Helvetica,sans-Serif" font-size="10.00" fill="#000000">+ point_inside()</text>
<text text-anchor="start" x="156" y="-603.5" font-family="Helvetica,sans-Serif" font-size="10.00" fill="#000000">and 13 more...</text>
</a>
</g>
</g>
<!-- Node7&#45;&gt;Node5 -->
<g id="edge5" class="edge">
<title>Node7&#45;&gt;Node5</title>
<path fill="none" stroke="#ffa500" d="M206.1573,-586.3981C205.4143,-573.7962 204.6597,-560.9979 203.933,-548.6711"/>
<polygon fill="#ffa500" stroke="#ffa500" points="202.6673,-586.6732 206.7499,-596.4498 209.6552,-586.2611 202.6673,-586.6732"/>
<text text-anchor="middle" x="232" y="-570" font-family="Helvetica,sans-Serif" font-size="10.00" fill="#000000"> &lt; 3, float &gt;</text>
</g>
<!-- Node8 -->
<g id="node7" class="node">
<title>Node8</title>
<polygon fill="#ffffff" stroke="#bfbfbf" points="139,-822.5 139,-901.5 285,-901.5 285,-822.5 139,-822.5"/>
<text text-anchor="start" x="147" y="-889.5" font-family="Helvetica,sans-Serif" font-size="10.00" fill="#000000">pair&lt; Point&lt; spacedim,</text>
<text text-anchor="start" x="147" y="-878.5" font-family="Helvetica,sans-Serif" font-size="10.00" fill="#000000"> Number &gt;, Point&lt; spacedim,</text>
<text text-anchor="middle" x="212" y="-867.5" font-family="Helvetica,sans-Serif" font-size="10.00" fill="#000000"> Number &gt; &gt;</text>
<polyline fill="none" stroke="#bfbfbf" points="139,-860.5 285,-860.5 "/>
<text text-anchor="middle" x="212" y="-848.5" font-family="Helvetica,sans-Serif" font-size="10.00" fill="#000000"> </text>
<polyline fill="none" stroke="#bfbfbf" points="139,-841.5 285,-841.5 "/>
<text text-anchor="middle" x="212" y="-829.5" font-family="Helvetica,sans-Serif" font-size="10.00" fill="#000000"> </text>
</g>
<!-- Node8&#45;&gt;Node7 -->
<g id="edge6" class="edge">
<title>Node8&#45;&gt;Node7</title>
<path fill="none" stroke="#404040" d="M212,-822.39C212,-811.6069 212,-799.4149 212,-786.8609"/>
<polygon fill="none" stroke="#404040" points="212.0001,-786.7478 208,-780.7478 212,-774.7478 216,-780.7478 212.0001,-786.7478"/>
<text text-anchor="middle" x="251" y="-796" font-family="Helvetica,sans-Serif" font-size="10.00" fill="#000000"> &#45;boundary_points</text>
</g>
<!-- Node9 -->
<g id="node8" class="node">
<title>Node9</title>
<g id="a_node8"><a xlink:title="STL class. ">
<polygon fill="#ffffff" stroke="#bfbfbf" points="278.5,-436.5 278.5,-493.5 365.5,-493.5 365.5,-436.5 278.5,-436.5"/>
<text text-anchor="middle" x="322" y="-481.5" font-family="Helvetica,sans-Serif" font-size="10.00" fill="#000000">std::vector&lt; T &gt;</text>
<polyline fill="none" stroke="#bfbfbf" points="278.5,-474.5 365.5,-474.5 "/>
<text text-anchor="middle" x="322" y="-462.5" font-family="Helvetica,sans-Serif" font-size="10.00" fill="#000000"> </text>
<polyline fill="none" stroke="#bfbfbf" points="278.5,-455.5 365.5,-455.5 "/>
<text text-anchor="middle" x="322" y="-443.5" font-family="Helvetica,sans-Serif" font-size="10.00" fill="#000000"> </text>
</a>
</g>
</g>
<!-- Node9&#45;&gt;Node4 -->
<g id="edge7" class="edge">
<title>Node9&#45;&gt;Node4</title>
<path fill="none" stroke="#ffa500" d="M311.8766,-426.4806C305.6166,-404.3561 296.8975,-376.2376 287,-352 284.5202,-345.9273 281.5928,-339.6096 278.5965,-333.5491"/>
<polygon fill="#ffa500" stroke="#ffa500" points="308.5248,-427.4913 314.5752,-436.1886 315.2691,-425.6165 308.5248,-427.4913"/>
<text text-anchor="middle" x="354.5" y="-355" font-family="Helvetica,sans-Serif" font-size="10.00" fill="#000000"> &lt; BoundingBox&lt; 3, float &gt; &gt;</text>
</g>
<!-- Node10 -->
<g id="node9" class="node">
<title>Node10</title>
<polygon fill="#ffffff" stroke="#bfbfbf" points="307.5,-657 307.5,-714 336.5,-714 336.5,-657 307.5,-657"/>
<text text-anchor="middle" x="322" y="-702" font-family="Helvetica,sans-Serif" font-size="10.00" fill="#000000">T</text>
<polyline fill="none" stroke="#bfbfbf" points="307.5,-695 336.5,-695 "/>
<text text-anchor="middle" x="322" y="-683" font-family="Helvetica,sans-Serif" font-size="10.00" fill="#000000"> </text>
<polyline fill="none" stroke="#bfbfbf" points="307.5,-676 336.5,-676 "/>
<text text-anchor="middle" x="322" y="-664" font-family="Helvetica,sans-Serif" font-size="10.00" fill="#000000"> </text>
</g>
<!-- Node10&#45;&gt;Node9 -->
<g id="edge8" class="edge">
<title>Node10&#45;&gt;Node9</title>
<path fill="none" stroke="#404040" d="M322,-656.6735C322,-618.2115 322,-549.8781 322,-506.0455"/>
<polygon fill="none" stroke="#404040" points="322.0001,-505.8336 318,-499.8336 322,-493.8336 326,-499.8336 322.0001,-505.8336"/>
<text text-anchor="middle" x="346.5" y="-570" font-family="Helvetica,sans-Serif" font-size="10.00" fill="#000000"> +elements</text>
</g>
<!-- Node11 -->
<g id="node10" class="node">
<title>Node11</title>
<g id="a_node10"><a xlink:href="classint.html" target="_top" xlink:title="{int\n||}">
<polygon fill="#ffffff" stroke="#000000" points="345.5,-144 345.5,-201 374.5,-201 374.5,-144 345.5,-144"/>
<text text-anchor="middle" x="360" y="-189" font-family="Helvetica,sans-Serif" font-size="10.00" fill="#000000">int</text>
<polyline fill="none" stroke="#000000" points="345.5,-182 374.5,-182 "/>
<text text-anchor="middle" x="360" y="-170" font-family="Helvetica,sans-Serif" font-size="10.00" fill="#000000"> </text>
<polyline fill="none" stroke="#000000" points="345.5,-163 374.5,-163 "/>
<text text-anchor="middle" x="360" y="-151" font-family="Helvetica,sans-Serif" font-size="10.00" fill="#000000"> </text>
</a>
</g>
</g>
<!-- Node11&#45;&gt;Node2 -->
<g id="edge9" class="edge">
<title>Node11&#45;&gt;Node2</title>
<path fill="none" stroke="#404040" d="M349.1507,-143.7495C343.3313,-128.3279 335.9865,-108.8641 329.2349,-90.9726"/>
<polygon fill="none" stroke="#404040" points="329.1427,-90.7279 323.2819,-86.5265 324.9059,-79.5006 330.7667,-83.702 329.1427,-90.7279"/>
<text text-anchor="middle" x="383.5" y="-101" font-family="Helvetica,sans-Serif" font-size="10.00" fill="#000000"> &#45;n_nearest_neighbors</text>
</g>
</g>
</svg>
