<?xml version="1.0" encoding="UTF-8" standalone="no"?>
<!DOCTYPE svg PUBLIC "-//W3C//DTD SVG 1.1//EN"
 "http://www.w3.org/Graphics/SVG/1.1/DTD/svg11.dtd">
<!-- Generated by graphviz version 2.40.1 (20161225.0304)
 -->
<!-- Title: MeshWorker::DoFInfoBox&lt; dim, DOFINFO &gt; Pages: 1 -->
<svg width="206pt" height="248pt"
 viewBox="0.00 0.00 205.50 248.00" xmlns="http://www.w3.org/2000/svg" xmlns:xlink="http://www.w3.org/1999/xlink">
<g id="graph0" class="graph" transform="scale(1 1) rotate(0) translate(4 244)">
<title>MeshWorker::DoFInfoBox&lt; dim, DOFINFO &gt;</title>
<polygon fill="#ffffff" stroke="transparent" points="-4,4 -4,-244 201.5,-244 201.5,4 -4,4"/>
<!-- Node1 -->
<g id="node1" class="node">
<title>Node1</title>
<polygon fill="#bfbfbf" stroke="#000000" points="0,-.5 0,-112.5 131,-112.5 131,-.5 0,-.5"/>
<text text-anchor="start" x="8" y="-100.5" font-family="Helvetica,sans-Serif" font-size="10.00" fill="#000000">MeshWorker::DoFInfoBox</text>
<text text-anchor="middle" x="65.5" y="-89.5" font-family="Helvetica,sans-Serif" font-size="10.00" fill="#000000">&lt; dim, DOFINFO &gt;</text>
<polyline fill="none" stroke="#000000" points="0,-82.5 131,-82.5 "/>
<text text-anchor="middle" x="65.5" y="-70.5" font-family="Helvetica,sans-Serif" font-size="10.00" fill="#000000"> </text>
<polyline fill="none" stroke="#000000" points="0,-63.5 131,-63.5 "/>
<text text-anchor="start" x="8" y="-51.5" font-family="Helvetica,sans-Serif" font-size="10.00" fill="#000000">+ DoFInfoBox()</text>
<text text-anchor="start" x="8" y="-40.5" font-family="Helvetica,sans-Serif" font-size="10.00" fill="#000000">+ DoFInfoBox()</text>
<text text-anchor="start" x="8" y="-29.5" font-family="Helvetica,sans-Serif" font-size="10.00" fill="#000000">+ operator=()</text>
<text text-anchor="start" x="8" y="-18.5" font-family="Helvetica,sans-Serif" font-size="10.00" fill="#000000">+ reset()</text>
<text text-anchor="start" x="8" y="-7.5" font-family="Helvetica,sans-Serif" font-size="10.00" fill="#000000">+ assemble()</text>
</g>
<!-- Node2 -->
<g id="node2" class="node">
<title>Node2</title>
<polygon fill="#ffffff" stroke="#bfbfbf" points="1.5,-182.5 1.5,-239.5 63.5,-239.5 63.5,-182.5 1.5,-182.5"/>
<text text-anchor="middle" x="32.5" y="-227.5" font-family="Helvetica,sans-Serif" font-size="10.00" fill="#000000">DOFINFO</text>
<polyline fill="none" stroke="#bfbfbf" points="1.5,-220.5 63.5,-220.5 "/>
<text text-anchor="middle" x="32.5" y="-208.5" font-family="Helvetica,sans-Serif" font-size="10.00" fill="#000000"> </text>
<polyline fill="none" stroke="#bfbfbf" points="1.5,-201.5 63.5,-201.5 "/>
<text text-anchor="middle" x="32.5" y="-189.5" font-family="Helvetica,sans-Serif" font-size="10.00" fill="#000000"> </text>
</g>
<!-- Node2&#45;&gt;Node1 -->
<g id="edge1" class="edge">
<title>Node2&#45;&gt;Node1</title>
<path fill="none" stroke="#404040" d="M32.7666,-182.2209C33.382,-166.8727 34.9074,-147.7504 38.5,-131 38.9868,-128.7301 39.5268,-126.4357 40.1108,-124.13"/>
<polygon fill="none" stroke="#404040" points="40.1133,-124.1208 37.8831,-117.2633 43.3554,-112.5671 45.5856,-119.4246 40.1133,-124.1208"/>
<text text-anchor="middle" x="58" y="-156" font-family="Helvetica,sans-Serif" font-size="10.00" fill="#000000"> +interior</text>
<text text-anchor="middle" x="58" y="-145" font-family="Helvetica,sans-Serif" font-size="10.00" fill="#000000">+cell</text>
<text text-anchor="middle" x="58" y="-134" font-family="Helvetica,sans-Serif" font-size="10.00" fill="#000000">+exterior</text>
</g>
<!-- Node3 -->
<g id="node3" class="node">
<title>Node3</title>
<g id="a_node3"><a xlink:href="classbool.html" target="_top" xlink:title="{bool\n||}">
<polygon fill="#ffffff" stroke="#000000" points="82,-182.5 82,-239.5 117,-239.5 117,-182.5 82,-182.5"/>
<text text-anchor="middle" x="99.5" y="-227.5" font-family="Helvetica,sans-Serif" font-size="10.00" fill="#000000">bool</text>
<polyline fill="none" stroke="#000000" points="82,-220.5 117,-220.5 "/>
<text text-anchor="middle" x="99.5" y="-208.5" font-family="Helvetica,sans-Serif" font-size="10.00" fill="#000000"> </text>
<polyline fill="none" stroke="#000000" points="82,-201.5 117,-201.5 "/>
<text text-anchor="middle" x="99.5" y="-189.5" font-family="Helvetica,sans-Serif" font-size="10.00" fill="#000000"> </text>
</a>
</g>
</g>
<!-- Node3&#45;&gt;Node1 -->
<g id="edge2" class="edge">
<title>Node3&#45;&gt;Node1</title>
<path fill="none" stroke="#404040" d="M93.1845,-182.3018C89.5886,-165.9612 84.9199,-144.7465 80.4443,-124.4084"/>
<polygon fill="none" stroke="#404040" points="80.42,-124.298 75.2239,-119.298 77.8409,-112.5784 83.037,-117.5785 80.42,-124.298"/>
<text text-anchor="middle" x="143" y="-156" font-family="Helvetica,sans-Serif" font-size="10.00" fill="#000000"> +exterior_face_available</text>
<text text-anchor="middle" x="143" y="-145" font-family="Helvetica,sans-Serif" font-size="10.00" fill="#000000">+cell_valid</text>
<text text-anchor="middle" x="143" y="-134" font-family="Helvetica,sans-Serif" font-size="10.00" fill="#000000">+interior_face_available</text>
</g>
</g>
</svg>
