<?xml version="1.0" encoding="UTF-8" standalone="no"?>
<!DOCTYPE svg PUBLIC "-//W3C//DTD SVG 1.1//EN"
 "http://www.w3.org/Graphics/SVG/1.1/DTD/svg11.dtd">
<!-- Generated by graphviz version 2.40.1 (20161225.0304)
 -->
<!-- Title: TrilinosWrappers::PreconditionBase Pages: 1 -->
<svg width="2467pt" height="870pt"
 viewBox="0.00 0.00 2467.00 870.00" xmlns="http://www.w3.org/2000/svg" xmlns:xlink="http://www.w3.org/1999/xlink">
<g id="graph0" class="graph" transform="scale(1 1) rotate(0) translate(4 866)">
<title>TrilinosWrappers::PreconditionBase</title>
<polygon fill="#ffffff" stroke="transparent" points="-4,4 -4,-866 2463,-866 2463,4 -4,4"/>
<!-- Node0 -->
<g id="node1" class="node">
<title>Node0</title>
<polygon fill="#bfbfbf" stroke="#000000" points="1107,-193.5 1107,-514.5 1280,-514.5 1280,-193.5 1107,-193.5"/>
<text text-anchor="middle" x="1193.5" y="-502.5" font-family="Helvetica,sans-Serif" font-size="10.00" fill="#000000">TrilinosWrappers::PreconditionBase</text>
<polyline fill="none" stroke="#000000" points="1107,-495.5 1280,-495.5 "/>
<text text-anchor="start" x="1115" y="-483.5" font-family="Helvetica,sans-Serif" font-size="10.00" fill="#000000"># preconditioner</text>
<text text-anchor="start" x="1115" y="-472.5" font-family="Helvetica,sans-Serif" font-size="10.00" fill="#000000"># communicator</text>
<text text-anchor="start" x="1115" y="-461.5" font-family="Helvetica,sans-Serif" font-size="10.00" fill="#000000"># vector_distributor</text>
<polyline fill="none" stroke="#000000" points="1107,-454.5 1280,-454.5 "/>
<text text-anchor="start" x="1115" y="-442.5" font-family="Helvetica,sans-Serif" font-size="10.00" fill="#000000">+ PreconditionBase()</text>
<text text-anchor="start" x="1115" y="-431.5" font-family="Helvetica,sans-Serif" font-size="10.00" fill="#000000">+ PreconditionBase()</text>
<text text-anchor="start" x="1115" y="-420.5" font-family="Helvetica,sans-Serif" font-size="10.00" fill="#000000">+ ~PreconditionBase()</text>
<text text-anchor="start" x="1115" y="-409.5" font-family="Helvetica,sans-Serif" font-size="10.00" fill="#000000">+ clear()</text>
<text text-anchor="start" x="1115" y="-398.5" font-family="Helvetica,sans-Serif" font-size="10.00" fill="#000000">+ get_mpi_communicator()</text>
<text text-anchor="start" x="1115" y="-387.5" font-family="Helvetica,sans-Serif" font-size="10.00" fill="#000000">+ transpose()</text>
<text text-anchor="start" x="1115" y="-376.5" font-family="Helvetica,sans-Serif" font-size="10.00" fill="#000000">+ vmult()</text>
<text text-anchor="start" x="1115" y="-365.5" font-family="Helvetica,sans-Serif" font-size="10.00" fill="#000000">+ Tvmult()</text>
<text text-anchor="start" x="1115" y="-354.5" font-family="Helvetica,sans-Serif" font-size="10.00" fill="#000000">+ vmult()</text>
<text text-anchor="start" x="1115" y="-343.5" font-family="Helvetica,sans-Serif" font-size="10.00" fill="#000000">+ Tvmult()</text>
<text text-anchor="start" x="1115" y="-332.5" font-family="Helvetica,sans-Serif" font-size="10.00" fill="#000000">+ vmult()</text>
<text text-anchor="start" x="1115" y="-321.5" font-family="Helvetica,sans-Serif" font-size="10.00" fill="#000000">+ Tvmult()</text>
<text text-anchor="start" x="1115" y="-310.5" font-family="Helvetica,sans-Serif" font-size="10.00" fill="#000000">+ DeclException1()</text>
<text text-anchor="start" x="1115" y="-299.5" font-family="Helvetica,sans-Serif" font-size="10.00" fill="#000000">+ trilinos_operator()</text>
<text text-anchor="start" x="1115" y="-288.5" font-family="Helvetica,sans-Serif" font-size="10.00" fill="#000000">+ locally_owned_domain</text>
<text text-anchor="start" x="1115" y="-277.5" font-family="Helvetica,sans-Serif" font-size="10.00" fill="#000000">_indices()</text>
<text text-anchor="start" x="1115" y="-266.5" font-family="Helvetica,sans-Serif" font-size="10.00" fill="#000000">+ locally_owned_range</text>
<text text-anchor="start" x="1115" y="-255.5" font-family="Helvetica,sans-Serif" font-size="10.00" fill="#000000">_indices()</text>
<text text-anchor="start" x="1115" y="-244.5" font-family="Helvetica,sans-Serif" font-size="10.00" fill="#000000">* trilinos_operator()</text>
<text text-anchor="start" x="1115" y="-233.5" font-family="Helvetica,sans-Serif" font-size="10.00" fill="#000000">* locally_owned_domain</text>
<text text-anchor="start" x="1115" y="-222.5" font-family="Helvetica,sans-Serif" font-size="10.00" fill="#000000">_indices()</text>
<text text-anchor="start" x="1115" y="-211.5" font-family="Helvetica,sans-Serif" font-size="10.00" fill="#000000">* locally_owned_range</text>
<text text-anchor="start" x="1115" y="-200.5" font-family="Helvetica,sans-Serif" font-size="10.00" fill="#000000">_indices()</text>
</g>
<!-- Node2 -->
<g id="node3" class="node">
<title>Node2</title>
<g id="a_node3"><a xlink:href="classTrilinosWrappers_1_1PreconditionAMG.html" target="_top" xlink:title="{TrilinosWrappers::PreconditionAMG\n|&#45; trilinos_matrix\l|+ ~PreconditionAMG()\l+ initialize()\l+ initialize()\l+ initialize()\l+ initialize()\l+ initialize()\l+ reinit()\l+ clear()\l+ memory_consumption()\l}">
<polygon fill="#ffffff" stroke="#000000" points="0,-6 0,-151 173,-151 173,-6 0,-6"/>
<text text-anchor="middle" x="86.5" y="-139" font-family="Helvetica,sans-Serif" font-size="10.00" fill="#000000">TrilinosWrappers::PreconditionAMG</text>
<polyline fill="none" stroke="#000000" points="0,-132 173,-132 "/>
<text text-anchor="start" x="8" y="-120" font-family="Helvetica,sans-Serif" font-size="10.00" fill="#000000">&#45; trilinos_matrix</text>
<polyline fill="none" stroke="#000000" points="0,-113 173,-113 "/>
<text text-anchor="start" x="8" y="-101" font-family="Helvetica,sans-Serif" font-size="10.00" fill="#000000">+ ~PreconditionAMG()</text>
<text text-anchor="start" x="8" y="-90" font-family="Helvetica,sans-Serif" font-size="10.00" fill="#000000">+ initialize()</text>
<text text-anchor="start" x="8" y="-79" font-family="Helvetica,sans-Serif" font-size="10.00" fill="#000000">+ initialize()</text>
<text text-anchor="start" x="8" y="-68" font-family="Helvetica,sans-Serif" font-size="10.00" fill="#000000">+ initialize()</text>
<text text-anchor="start" x="8" y="-57" font-family="Helvetica,sans-Serif" font-size="10.00" fill="#000000">+ initialize()</text>
<text text-anchor="start" x="8" y="-46" font-family="Helvetica,sans-Serif" font-size="10.00" fill="#000000">+ initialize()</text>
<text text-anchor="start" x="8" y="-35" font-family="Helvetica,sans-Serif" font-size="10.00" fill="#000000">+ reinit()</text>
<text text-anchor="start" x="8" y="-24" font-family="Helvetica,sans-Serif" font-size="10.00" fill="#000000">+ clear()</text>
<text text-anchor="start" x="8" y="-13" font-family="Helvetica,sans-Serif" font-size="10.00" fill="#000000">+ memory_consumption()</text>
</a>
</g>
</g>
<!-- Node0&#45;&gt;Node2 -->
<g id="edge2" class="edge">
<title>Node0&#45;&gt;Node2</title>
<path fill="none" stroke="#191970" d="M1096.9211,-350.7393C911.2037,-341.1889 495.0262,-303.7288 182.5,-157 178.6998,-155.2158 174.9215,-153.248 171.1838,-151.1348"/>
<polygon fill="none" stroke="#191970" points="1096.774,-354.2363 1106.9359,-351.2386 1097.1226,-347.2449 1096.774,-354.2363"/>
</g>
<!-- Node3 -->
<g id="node4" class="node">
<title>Node3</title>
<g id="a_node4"><a xlink:href="classTrilinosWrappers_1_1PreconditionAMGMueLu.html" target="_top" xlink:title="{TrilinosWrappers::Precondition\lAMGMueLu\n|&#45; trilinos_matrix\l|+ PreconditionAMGMueLu()\l+ ~PreconditionAMGMueLu()\l+ initialize()\l+ initialize()\l+ initialize()\l+ initialize()\l+ initialize()\l+ clear()\l+ memory_consumption()\l}">
<polygon fill="#ffffff" stroke="#000000" points="191.5,-.5 191.5,-156.5 341.5,-156.5 341.5,-.5 191.5,-.5"/>
<text text-anchor="start" x="199.5" y="-144.5" font-family="Helvetica,sans-Serif" font-size="10.00" fill="#000000">TrilinosWrappers::Precondition</text>
<text text-anchor="middle" x="266.5" y="-133.5" font-family="Helvetica,sans-Serif" font-size="10.00" fill="#000000">AMGMueLu</text>
<polyline fill="none" stroke="#000000" points="191.5,-126.5 341.5,-126.5 "/>
<text text-anchor="start" x="199.5" y="-114.5" font-family="Helvetica,sans-Serif" font-size="10.00" fill="#000000">&#45; trilinos_matrix</text>
<polyline fill="none" stroke="#000000" points="191.5,-107.5 341.5,-107.5 "/>
<text text-anchor="start" x="199.5" y="-95.5" font-family="Helvetica,sans-Serif" font-size="10.00" fill="#000000">+ PreconditionAMGMueLu()</text>
<text text-anchor="start" x="199.5" y="-84.5" font-family="Helvetica,sans-Serif" font-size="10.00" fill="#000000">+ ~PreconditionAMGMueLu()</text>
<text text-anchor="start" x="199.5" y="-73.5" font-family="Helvetica,sans-Serif" font-size="10.00" fill="#000000">+ initialize()</text>
<text text-anchor="start" x="199.5" y="-62.5" font-family="Helvetica,sans-Serif" font-size="10.00" fill="#000000">+ initialize()</text>
<text text-anchor="start" x="199.5" y="-51.5" font-family="Helvetica,sans-Serif" font-size="10.00" fill="#000000">+ initialize()</text>
<text text-anchor="start" x="199.5" y="-40.5" font-family="Helvetica,sans-Serif" font-size="10.00" fill="#000000">+ initialize()</text>
<text text-anchor="start" x="199.5" y="-29.5" font-family="Helvetica,sans-Serif" font-size="10.00" fill="#000000">+ initialize()</text>
<text text-anchor="start" x="199.5" y="-18.5" font-family="Helvetica,sans-Serif" font-size="10.00" fill="#000000">+ clear()</text>
<text text-anchor="start" x="199.5" y="-7.5" font-family="Helvetica,sans-Serif" font-size="10.00" fill="#000000">+ memory_consumption()</text>
</a>
</g>
</g>
<!-- Node0&#45;&gt;Node3 -->
<g id="edge3" class="edge">
<title>Node0&#45;&gt;Node3</title>
<path fill="none" stroke="#191970" d="M1096.7152,-347.6296C933.8092,-333.4764 598.3576,-289.3849 350.5,-157 347.5069,-155.4014 344.541,-153.6689 341.6117,-151.8274"/>
<polygon fill="none" stroke="#191970" points="1096.4578,-351.1203 1106.7183,-348.4798 1097.0507,-344.1454 1096.4578,-351.1203"/>
</g>
<!-- Node4 -->
<g id="node5" class="node">
<title>Node4</title>
<g id="a_node5"><a xlink:href="classTrilinosWrappers_1_1PreconditionBlockJacobi.html" target="_top" xlink:title="{TrilinosWrappers::Precondition\lBlockJacobi\n||+ initialize()\l}">
<polygon fill="#ffffff" stroke="#000000" points="359.5,-44.5 359.5,-112.5 509.5,-112.5 509.5,-44.5 359.5,-44.5"/>
<text text-anchor="start" x="367.5" y="-100.5" font-family="Helvetica,sans-Serif" font-size="10.00" fill="#000000">TrilinosWrappers::Precondition</text>
<text text-anchor="middle" x="434.5" y="-89.5" font-family="Helvetica,sans-Serif" font-size="10.00" fill="#000000">BlockJacobi</text>
<polyline fill="none" stroke="#000000" points="359.5,-82.5 509.5,-82.5 "/>
<text text-anchor="middle" x="434.5" y="-70.5" font-family="Helvetica,sans-Serif" font-size="10.00" fill="#000000"> </text>
<polyline fill="none" stroke="#000000" points="359.5,-63.5 509.5,-63.5 "/>
<text text-anchor="start" x="367.5" y="-51.5" font-family="Helvetica,sans-Serif" font-size="10.00" fill="#000000">+ initialize()</text>
</a>
</g>
</g>
<!-- Node0&#45;&gt;Node4 -->
<g id="edge4" class="edge">
<title>Node0&#45;&gt;Node4</title>
<path fill="none" stroke="#191970" d="M1096.943,-340.3408C960.7124,-317.9511 707.6203,-264.7225 518.5,-157 498.2076,-145.4415 478.918,-128.0513 463.9532,-112.5742"/>
<polygon fill="none" stroke="#191970" points="1096.5166,-343.8173 1106.9481,-341.9641 1097.6377,-336.9076 1096.5166,-343.8173"/>
</g>
<!-- Node5 -->
<g id="node6" class="node">
<title>Node5</title>
<g id="a_node6"><a xlink:href="classTrilinosWrappers_1_1PreconditionBlockSOR.html" target="_top" xlink:title="{TrilinosWrappers::Precondition\lBlockSOR\n||+ initialize()\l}">
<polygon fill="#ffffff" stroke="#000000" points="527.5,-44.5 527.5,-112.5 677.5,-112.5 677.5,-44.5 527.5,-44.5"/>
<text text-anchor="start" x="535.5" y="-100.5" font-family="Helvetica,sans-Serif" font-size="10.00" fill="#000000">TrilinosWrappers::Precondition</text>
<text text-anchor="middle" x="602.5" y="-89.5" font-family="Helvetica,sans-Serif" font-size="10.00" fill="#000000">BlockSOR</text>
<polyline fill="none" stroke="#000000" points="527.5,-82.5 677.5,-82.5 "/>
<text text-anchor="middle" x="602.5" y="-70.5" font-family="Helvetica,sans-Serif" font-size="10.00" fill="#000000"> </text>
<polyline fill="none" stroke="#000000" points="527.5,-63.5 677.5,-63.5 "/>
<text text-anchor="start" x="535.5" y="-51.5" font-family="Helvetica,sans-Serif" font-size="10.00" fill="#000000">+ initialize()</text>
</a>
</g>
</g>
<!-- Node0&#45;&gt;Node5 -->
<g id="edge5" class="edge">
<title>Node0&#45;&gt;Node5</title>
<path fill="none" stroke="#191970" d="M1097.0481,-328.5015C991.108,-297.8481 818.5,-239.957 686.5,-157 667.0652,-144.7859 648.1403,-127.7043 633.1892,-112.5932"/>
<polygon fill="none" stroke="#191970" points="1096.1942,-331.8977 1106.7718,-331.2927 1098.1256,-325.1694 1096.1942,-331.8977"/>
</g>
<!-- Node6 -->
<g id="node7" class="node">
<title>Node6</title>
<g id="a_node7"><a xlink:href="classTrilinosWrappers_1_1PreconditionBlockSSOR.html" target="_top" xlink:title="{TrilinosWrappers::Precondition\lBlockSSOR\n||+ initialize()\l}">
<polygon fill="#ffffff" stroke="#000000" points="695.5,-44.5 695.5,-112.5 845.5,-112.5 845.5,-44.5 695.5,-44.5"/>
<text text-anchor="start" x="703.5" y="-100.5" font-family="Helvetica,sans-Serif" font-size="10.00" fill="#000000">TrilinosWrappers::Precondition</text>
<text text-anchor="middle" x="770.5" y="-89.5" font-family="Helvetica,sans-Serif" font-size="10.00" fill="#000000">BlockSSOR</text>
<polyline fill="none" stroke="#000000" points="695.5,-82.5 845.5,-82.5 "/>
<text text-anchor="middle" x="770.5" y="-70.5" font-family="Helvetica,sans-Serif" font-size="10.00" fill="#000000"> </text>
<polyline fill="none" stroke="#000000" points="695.5,-63.5 845.5,-63.5 "/>
<text text-anchor="start" x="703.5" y="-51.5" font-family="Helvetica,sans-Serif" font-size="10.00" fill="#000000">+ initialize()</text>
</a>
</g>
</g>
<!-- Node0&#45;&gt;Node6 -->
<g id="edge6" class="edge">
<title>Node0&#45;&gt;Node6</title>
<path fill="none" stroke="#191970" d="M1097.6782,-305.7965C1027.7429,-268.8623 932.0227,-214.5979 854.5,-157 836.7156,-143.7865 818.5613,-127.2734 803.7014,-112.8061"/>
<polygon fill="none" stroke="#191970" points="1096.4582,-309.1093 1106.9381,-310.6652 1099.7158,-302.9135 1096.4582,-309.1093"/>
</g>
<!-- Node7 -->
<g id="node8" class="node">
<title>Node7</title>
<g id="a_node8"><a xlink:href="classTrilinosWrappers_1_1PreconditionBlockwiseDirect.html" target="_top" xlink:title="{TrilinosWrappers::Precondition\lBlockwiseDirect\n||+ initialize()\l}">
<polygon fill="#ffffff" stroke="#000000" points="863.5,-44.5 863.5,-112.5 1013.5,-112.5 1013.5,-44.5 863.5,-44.5"/>
<text text-anchor="start" x="871.5" y="-100.5" font-family="Helvetica,sans-Serif" font-size="10.00" fill="#000000">TrilinosWrappers::Precondition</text>
<text text-anchor="middle" x="938.5" y="-89.5" font-family="Helvetica,sans-Serif" font-size="10.00" fill="#000000">BlockwiseDirect</text>
<polyline fill="none" stroke="#000000" points="863.5,-82.5 1013.5,-82.5 "/>
<text text-anchor="middle" x="938.5" y="-70.5" font-family="Helvetica,sans-Serif" font-size="10.00" fill="#000000"> </text>
<polyline fill="none" stroke="#000000" points="863.5,-63.5 1013.5,-63.5 "/>
<text text-anchor="start" x="871.5" y="-51.5" font-family="Helvetica,sans-Serif" font-size="10.00" fill="#000000">+ initialize()</text>
</a>
</g>
</g>
<!-- Node0&#45;&gt;Node7 -->
<g id="edge7" class="edge">
<title>Node0&#45;&gt;Node7</title>
<path fill="none" stroke="#191970" d="M1099.8405,-252.811C1054.2246,-203.528 1002.3789,-147.5142 970.0513,-112.5878"/>
<polygon fill="none" stroke="#191970" points="1097.4514,-255.3825 1106.8128,-260.3438 1102.5886,-250.6275 1097.4514,-255.3825"/>
</g>
<!-- Node8 -->
<g id="node9" class="node">
<title>Node8</title>
<g id="a_node9"><a xlink:href="classTrilinosWrappers_1_1PreconditionChebyshev.html" target="_top" xlink:title="{TrilinosWrappers::Precondition\lChebyshev\n||+ initialize()\l}">
<polygon fill="#ffffff" stroke="#000000" points="1031.5,-44.5 1031.5,-112.5 1181.5,-112.5 1181.5,-44.5 1031.5,-44.5"/>
<text text-anchor="start" x="1039.5" y="-100.5" font-family="Helvetica,sans-Serif" font-size="10.00" fill="#000000">TrilinosWrappers::Precondition</text>
<text text-anchor="middle" x="1106.5" y="-89.5" font-family="Helvetica,sans-Serif" font-size="10.00" fill="#000000">Chebyshev</text>
<polyline fill="none" stroke="#000000" points="1031.5,-82.5 1181.5,-82.5 "/>
<text text-anchor="middle" x="1106.5" y="-70.5" font-family="Helvetica,sans-Serif" font-size="10.00" fill="#000000"> </text>
<polyline fill="none" stroke="#000000" points="1031.5,-63.5 1181.5,-63.5 "/>
<text text-anchor="start" x="1039.5" y="-51.5" font-family="Helvetica,sans-Serif" font-size="10.00" fill="#000000">+ initialize()</text>
</a>
</g>
</g>
<!-- Node0&#45;&gt;Node8 -->
<g id="edge8" class="edge">
<title>Node0&#45;&gt;Node8</title>
<path fill="none" stroke="#191970" d="M1139.7408,-183.7625C1131.2473,-156.8664 1123.3071,-131.7226 1117.3184,-112.7583"/>
<polygon fill="none" stroke="#191970" points="1136.4169,-184.86 1142.7659,-193.3419 1143.092,-182.752 1136.4169,-184.86"/>
</g>
<!-- Node9 -->
<g id="node10" class="node">
<title>Node9</title>
<g id="a_node10"><a xlink:href="classTrilinosWrappers_1_1PreconditionIC.html" target="_top" xlink:title="{TrilinosWrappers::PreconditionIC\n||+ initialize()\l}">
<polygon fill="#ffffff" stroke="#000000" points="1200,-50 1200,-107 1361,-107 1361,-50 1200,-50"/>
<text text-anchor="middle" x="1280.5" y="-95" font-family="Helvetica,sans-Serif" font-size="10.00" fill="#000000">TrilinosWrappers::PreconditionIC</text>
<polyline fill="none" stroke="#000000" points="1200,-88 1361,-88 "/>
<text text-anchor="middle" x="1280.5" y="-76" font-family="Helvetica,sans-Serif" font-size="10.00" fill="#000000"> </text>
<polyline fill="none" stroke="#000000" points="1200,-69 1361,-69 "/>
<text text-anchor="start" x="1208" y="-57" font-family="Helvetica,sans-Serif" font-size="10.00" fill="#000000">+ initialize()</text>
</a>
</g>
</g>
<!-- Node0&#45;&gt;Node9 -->
<g id="edge9" class="edge">
<title>Node0&#45;&gt;Node9</title>
<path fill="none" stroke="#191970" d="M1247.2954,-183.6478C1256.6584,-153.9985 1265.3462,-126.487 1271.485,-107.0474"/>
<polygon fill="none" stroke="#191970" points="1243.908,-182.752 1244.2341,-193.3419 1250.5831,-184.86 1243.908,-182.752"/>
</g>
<!-- Node10 -->
<g id="node11" class="node">
<title>Node10</title>
<g id="a_node11"><a xlink:href="classTrilinosWrappers_1_1PreconditionIdentity.html" target="_top" xlink:title="{TrilinosWrappers::Precondition\lIdentity\n||+ initialize()\l+ vmult()\l+ Tvmult()\l+ vmult()\l+ Tvmult()\l+ vmult()\l+ Tvmult()\l}">
<polygon fill="#ffffff" stroke="#000000" points="1379.5,-11.5 1379.5,-145.5 1529.5,-145.5 1529.5,-11.5 1379.5,-11.5"/>
<text text-anchor="start" x="1387.5" y="-133.5" font-family="Helvetica,sans-Serif" font-size="10.00" fill="#000000">TrilinosWrappers::Precondition</text>
<text text-anchor="middle" x="1454.5" y="-122.5" font-family="Helvetica,sans-Serif" font-size="10.00" fill="#000000">Identity</text>
<polyline fill="none" stroke="#000000" points="1379.5,-115.5 1529.5,-115.5 "/>
<text text-anchor="middle" x="1454.5" y="-103.5" font-family="Helvetica,sans-Serif" font-size="10.00" fill="#000000"> </text>
<polyline fill="none" stroke="#000000" points="1379.5,-96.5 1529.5,-96.5 "/>
<text text-anchor="start" x="1387.5" y="-84.5" font-family="Helvetica,sans-Serif" font-size="10.00" fill="#000000">+ initialize()</text>
<text text-anchor="start" x="1387.5" y="-73.5" font-family="Helvetica,sans-Serif" font-size="10.00" fill="#000000">+ vmult()</text>
<text text-anchor="start" x="1387.5" y="-62.5" font-family="Helvetica,sans-Serif" font-size="10.00" fill="#000000">+ Tvmult()</text>
<text text-anchor="start" x="1387.5" y="-51.5" font-family="Helvetica,sans-Serif" font-size="10.00" fill="#000000">+ vmult()</text>
<text text-anchor="start" x="1387.5" y="-40.5" font-family="Helvetica,sans-Serif" font-size="10.00" fill="#000000">+ Tvmult()</text>
<text text-anchor="start" x="1387.5" y="-29.5" font-family="Helvetica,sans-Serif" font-size="10.00" fill="#000000">+ vmult()</text>
<text text-anchor="start" x="1387.5" y="-18.5" font-family="Helvetica,sans-Serif" font-size="10.00" fill="#000000">+ Tvmult()</text>
</a>
</g>
</g>
<!-- Node0&#45;&gt;Node10 -->
<g id="edge10" class="edge">
<title>Node0&#45;&gt;Node10</title>
<path fill="none" stroke="#191970" d="M1287.3235,-254.9641C1321.7057,-218.6718 1359.7846,-178.4774 1390.9052,-145.6279"/>
<polygon fill="none" stroke="#191970" points="1284.3833,-252.9785 1280.0467,-262.6452 1289.465,-257.7927 1284.3833,-252.9785"/>
</g>
<!-- Node11 -->
<g id="node12" class="node">
<title>Node11</title>
<g id="a_node12"><a xlink:href="classTrilinosWrappers_1_1PreconditionILU.html" target="_top" xlink:title="{TrilinosWrappers::PreconditionILU\n||+ initialize()\l}">
<polygon fill="#ffffff" stroke="#000000" points="1547.5,-50 1547.5,-107 1713.5,-107 1713.5,-50 1547.5,-50"/>
<text text-anchor="middle" x="1630.5" y="-95" font-family="Helvetica,sans-Serif" font-size="10.00" fill="#000000">TrilinosWrappers::PreconditionILU</text>
<polyline fill="none" stroke="#000000" points="1547.5,-88 1713.5,-88 "/>
<text text-anchor="middle" x="1630.5" y="-76" font-family="Helvetica,sans-Serif" font-size="10.00" fill="#000000"> </text>
<polyline fill="none" stroke="#000000" points="1547.5,-69 1713.5,-69 "/>
<text text-anchor="start" x="1555.5" y="-57" font-family="Helvetica,sans-Serif" font-size="10.00" fill="#000000">+ initialize()</text>
</a>
</g>
</g>
<!-- Node0&#45;&gt;Node11 -->
<g id="edge11" class="edge">
<title>Node0&#45;&gt;Node11</title>
<path fill="none" stroke="#191970" d="M1289.1719,-305.6097C1360.0941,-268.2673 1458.003,-213.574 1538.5,-157 1559.9727,-141.9088 1582.4105,-122.8392 1599.7514,-107.2744"/>
<polygon fill="none" stroke="#191970" points="1287.4526,-302.5593 1280.2235,-310.3047 1290.7048,-308.7579 1287.4526,-302.5593"/>
</g>
<!-- Node12 -->
<g id="node13" class="node">
<title>Node12</title>
<g id="a_node13"><a xlink:href="classTrilinosWrappers_1_1PreconditionILUT.html" target="_top" xlink:title="{TrilinosWrappers::PreconditionILUT\n||+ initialize()\l}">
<polygon fill="#ffffff" stroke="#000000" points="1731.5,-50 1731.5,-107 1903.5,-107 1903.5,-50 1731.5,-50"/>
<text text-anchor="middle" x="1817.5" y="-95" font-family="Helvetica,sans-Serif" font-size="10.00" fill="#000000">TrilinosWrappers::PreconditionILUT</text>
<polyline fill="none" stroke="#000000" points="1731.5,-88 1903.5,-88 "/>
<text text-anchor="middle" x="1817.5" y="-76" font-family="Helvetica,sans-Serif" font-size="10.00" fill="#000000"> </text>
<polyline fill="none" stroke="#000000" points="1731.5,-69 1903.5,-69 "/>
<text text-anchor="start" x="1739.5" y="-57" font-family="Helvetica,sans-Serif" font-size="10.00" fill="#000000">+ initialize()</text>
</a>
</g>
</g>
<!-- Node0&#45;&gt;Node12 -->
<g id="edge12" class="edge">
<title>Node0&#45;&gt;Node12</title>
<path fill="none" stroke="#191970" d="M1290.0154,-328.6355C1399.4418,-297.5274 1580.9975,-238.6847 1722.5,-157 1746.403,-143.2016 1770.3388,-123.3765 1788.2049,-107.1023"/>
<polygon fill="none" stroke="#191970" points="1288.9806,-325.2908 1280.3078,-331.3762 1290.8826,-332.0274 1288.9806,-325.2908"/>
</g>
<!-- Node13 -->
<g id="node14" class="node">
<title>Node13</title>
<g id="a_node14"><a xlink:href="classTrilinosWrappers_1_1PreconditionJacobi.html" target="_top" xlink:title="{TrilinosWrappers::Precondition\lJacobi\n||+ initialize()\l}">
<polygon fill="#ffffff" stroke="#000000" points="1921.5,-44.5 1921.5,-112.5 2071.5,-112.5 2071.5,-44.5 1921.5,-44.5"/>
<text text-anchor="start" x="1929.5" y="-100.5" font-family="Helvetica,sans-Serif" font-size="10.00" fill="#000000">TrilinosWrappers::Precondition</text>
<text text-anchor="middle" x="1996.5" y="-89.5" font-family="Helvetica,sans-Serif" font-size="10.00" fill="#000000">Jacobi</text>
<polyline fill="none" stroke="#000000" points="1921.5,-82.5 2071.5,-82.5 "/>
<text text-anchor="middle" x="1996.5" y="-70.5" font-family="Helvetica,sans-Serif" font-size="10.00" fill="#000000"> </text>
<polyline fill="none" stroke="#000000" points="1921.5,-63.5 2071.5,-63.5 "/>
<text text-anchor="start" x="1929.5" y="-51.5" font-family="Helvetica,sans-Serif" font-size="10.00" fill="#000000">+ initialize()</text>
</a>
</g>
</g>
<!-- Node0&#45;&gt;Node13 -->
<g id="edge13" class="edge">
<title>Node0&#45;&gt;Node13</title>
<path fill="none" stroke="#191970" d="M1290.3267,-342.5306C1433.8963,-322.3065 1708.2324,-271.1239 1912.5,-157 1932.8873,-145.6097 1952.185,-128.2339 1967.1307,-112.723"/>
<polygon fill="none" stroke="#191970" points="1289.6423,-339.092 1280.2185,-343.9337 1290.6047,-346.0255 1289.6423,-339.092"/>
</g>
<!-- Node14 -->
<g id="node15" class="node">
<title>Node14</title>
<g id="a_node15"><a xlink:href="classTrilinosWrappers_1_1PreconditionSOR.html" target="_top" xlink:title="{TrilinosWrappers::PreconditionSOR\n||+ initialize()\l}">
<polygon fill="#ffffff" stroke="#000000" points="2089.5,-50 2089.5,-107 2261.5,-107 2261.5,-50 2089.5,-50"/>
<text text-anchor="middle" x="2175.5" y="-95" font-family="Helvetica,sans-Serif" font-size="10.00" fill="#000000">TrilinosWrappers::PreconditionSOR</text>
<polyline fill="none" stroke="#000000" points="2089.5,-88 2261.5,-88 "/>
<text text-anchor="middle" x="2175.5" y="-76" font-family="Helvetica,sans-Serif" font-size="10.00" fill="#000000"> </text>
<polyline fill="none" stroke="#000000" points="2089.5,-69 2261.5,-69 "/>
<text text-anchor="start" x="2097.5" y="-57" font-family="Helvetica,sans-Serif" font-size="10.00" fill="#000000">+ initialize()</text>
</a>
</g>
</g>
<!-- Node0&#45;&gt;Node14 -->
<g id="edge14" class="edge">
<title>Node0&#45;&gt;Node14</title>
<path fill="none" stroke="#191970" d="M1290.197,-347.3704C1458.6155,-332.6697 1813.3118,-287.5746 2080.5,-157 2105.8738,-144.5998 2130.3384,-124.1166 2148.0854,-107.1828"/>
<polygon fill="none" stroke="#191970" points="1289.776,-343.8935 1280.111,-348.2337 1290.3731,-350.868 1289.776,-343.8935"/>
</g>
<!-- Node15 -->
<g id="node16" class="node">
<title>Node15</title>
<g id="a_node16"><a xlink:href="classTrilinosWrappers_1_1PreconditionSSOR.html" target="_top" xlink:title="{TrilinosWrappers::PreconditionSSOR\n||+ initialize()\l}">
<polygon fill="#ffffff" stroke="#000000" points="2280,-50 2280,-107 2459,-107 2459,-50 2280,-50"/>
<text text-anchor="middle" x="2369.5" y="-95" font-family="Helvetica,sans-Serif" font-size="10.00" fill="#000000">TrilinosWrappers::PreconditionSSOR</text>
<polyline fill="none" stroke="#000000" points="2280,-88 2459,-88 "/>
<text text-anchor="middle" x="2369.5" y="-76" font-family="Helvetica,sans-Serif" font-size="10.00" fill="#000000"> </text>
<polyline fill="none" stroke="#000000" points="2280,-69 2459,-69 "/>
<text text-anchor="start" x="2288" y="-57" font-family="Helvetica,sans-Serif" font-size="10.00" fill="#000000">+ initialize()</text>
</a>
</g>
</g>
<!-- Node0&#45;&gt;Node15 -->
<g id="edge15" class="edge">
<title>Node0&#45;&gt;Node15</title>
<path fill="none" stroke="#191970" d="M1290.3381,-342.4015C1520.625,-313.8472 2094.7991,-236.6601 2270.5,-157 2297.0703,-144.9535 2322.7537,-124.2359 2341.3002,-107.1085"/>
<polygon fill="none" stroke="#191970" points="1289.7931,-338.9421 1280.298,-343.6426 1290.6519,-345.8892 1289.7931,-338.9421"/>
</g>
<!-- Node1 -->
<g id="node2" class="node">
<title>Node1</title>
<g id="a_node2"><a xlink:href="classSubscriptor.html" target="_top" xlink:title="{Subscriptor\n|&#45; counter\l&#45; counter_map\l&#45; validity_pointers\l&#45; object_info\l&#45; mutex\l|+ Subscriptor()\l+ Subscriptor()\l+ Subscriptor()\l+ ~Subscriptor()\l+ operator=()\l+ operator=()\l+ serialize()\l+ subscribe()\l+ unsubscribe()\l+ n_subscriptions()\l+ list_subscribers()\l+ list_subscribers()\l+ ExcInUse()\l+ ExcNoSubscriber()\l&#45; check_no_subscribers()\l* subscribe()\l* unsubscribe()\l* n_subscriptions()\l* list_subscribers()\l* list_subscribers()\l}">
<polygon fill="#ffffff" stroke="#000000" points="1130.5,-551.5 1130.5,-861.5 1256.5,-861.5 1256.5,-551.5 1130.5,-551.5"/>
<text text-anchor="middle" x="1193.5" y="-849.5" font-family="Helvetica,sans-Serif" font-size="10.00" fill="#000000">Subscriptor</text>
<polyline fill="none" stroke="#000000" points="1130.5,-842.5 1256.5,-842.5 "/>
<text text-anchor="start" x="1138.5" y="-830.5" font-family="Helvetica,sans-Serif" font-size="10.00" fill="#000000">&#45; counter</text>
<text text-anchor="start" x="1138.5" y="-819.5" font-family="Helvetica,sans-Serif" font-size="10.00" fill="#000000">&#45; counter_map</text>
<text text-anchor="start" x="1138.5" y="-808.5" font-family="Helvetica,sans-Serif" font-size="10.00" fill="#000000">&#45; validity_pointers</text>
<text text-anchor="start" x="1138.5" y="-797.5" font-family="Helvetica,sans-Serif" font-size="10.00" fill="#000000">&#45; object_info</text>
<text text-anchor="start" x="1138.5" y="-786.5" font-family="Helvetica,sans-Serif" font-size="10.00" fill="#000000">&#45; mutex</text>
<polyline fill="none" stroke="#000000" points="1130.5,-779.5 1256.5,-779.5 "/>
<text text-anchor="start" x="1138.5" y="-767.5" font-family="Helvetica,sans-Serif" font-size="10.00" fill="#000000">+ Subscriptor()</text>
<text text-anchor="start" x="1138.5" y="-756.5" font-family="Helvetica,sans-Serif" font-size="10.00" fill="#000000">+ Subscriptor()</text>
<text text-anchor="start" x="1138.5" y="-745.5" font-family="Helvetica,sans-Serif" font-size="10.00" fill="#000000">+ Subscriptor()</text>
<text text-anchor="start" x="1138.5" y="-734.5" font-family="Helvetica,sans-Serif" font-size="10.00" fill="#000000">+ ~Subscriptor()</text>
<text text-anchor="start" x="1138.5" y="-723.5" font-family="Helvetica,sans-Serif" font-size="10.00" fill="#000000">+ operator=()</text>
<text text-anchor="start" x="1138.5" y="-712.5" font-family="Helvetica,sans-Serif" font-size="10.00" fill="#000000">+ operator=()</text>
<text text-anchor="start" x="1138.5" y="-701.5" font-family="Helvetica,sans-Serif" font-size="10.00" fill="#000000">+ serialize()</text>
<text text-anchor="start" x="1138.5" y="-690.5" font-family="Helvetica,sans-Serif" font-size="10.00" fill="#000000">+ subscribe()</text>
<text text-anchor="start" x="1138.5" y="-679.5" font-family="Helvetica,sans-Serif" font-size="10.00" fill="#000000">+ unsubscribe()</text>
<text text-anchor="start" x="1138.5" y="-668.5" font-family="Helvetica,sans-Serif" font-size="10.00" fill="#000000">+ n_subscriptions()</text>
<text text-anchor="start" x="1138.5" y="-657.5" font-family="Helvetica,sans-Serif" font-size="10.00" fill="#000000">+ list_subscribers()</text>
<text text-anchor="start" x="1138.5" y="-646.5" font-family="Helvetica,sans-Serif" font-size="10.00" fill="#000000">+ list_subscribers()</text>
<text text-anchor="start" x="1138.5" y="-635.5" font-family="Helvetica,sans-Serif" font-size="10.00" fill="#000000">+ ExcInUse()</text>
<text text-anchor="start" x="1138.5" y="-624.5" font-family="Helvetica,sans-Serif" font-size="10.00" fill="#000000">+ ExcNoSubscriber()</text>
<text text-anchor="start" x="1138.5" y="-613.5" font-family="Helvetica,sans-Serif" font-size="10.00" fill="#000000">&#45; check_no_subscribers()</text>
<text text-anchor="start" x="1138.5" y="-602.5" font-family="Helvetica,sans-Serif" font-size="10.00" fill="#000000">* subscribe()</text>
<text text-anchor="start" x="1138.5" y="-591.5" font-family="Helvetica,sans-Serif" font-size="10.00" fill="#000000">* unsubscribe()</text>
<text text-anchor="start" x="1138.5" y="-580.5" font-family="Helvetica,sans-Serif" font-size="10.00" fill="#000000">* n_subscriptions()</text>
<text text-anchor="start" x="1138.5" y="-569.5" font-family="Helvetica,sans-Serif" font-size="10.00" fill="#000000">* list_subscribers()</text>
<text text-anchor="start" x="1138.5" y="-558.5" font-family="Helvetica,sans-Serif" font-size="10.00" fill="#000000">* list_subscribers()</text>
</a>
</g>
</g>
<!-- Node1&#45;&gt;Node0 -->
<g id="edge1" class="edge">
<title>Node1&#45;&gt;Node0</title>
<path fill="none" stroke="#191970" d="M1193.5,-541.3493C1193.5,-532.4504 1193.5,-523.5137 1193.5,-514.6303"/>
<polygon fill="none" stroke="#191970" points="1190.0001,-541.3754 1193.5,-551.3754 1197.0001,-541.3754 1190.0001,-541.3754"/>
</g>
</g>
</svg>
