<?xml version="1.0" encoding="UTF-8" standalone="no"?>
<!DOCTYPE svg PUBLIC "-//W3C//DTD SVG 1.1//EN"
 "http://www.w3.org/Graphics/SVG/1.1/DTD/svg11.dtd">
<!-- Generated by graphviz version 2.40.1 (20161225.0304)
 -->
<!-- Title: VectorMemory&lt; VectorType &gt;::Pointer Pages: 1 -->
<svg width="187pt" height="226pt"
 viewBox="0.00 0.00 187.00 226.00" xmlns="http://www.w3.org/2000/svg" xmlns:xlink="http://www.w3.org/1999/xlink">
<g id="graph0" class="graph" transform="scale(1 1) rotate(0) translate(4 222)">
<title>VectorMemory&lt; VectorType &gt;::Pointer</title>
<polygon fill="#ffffff" stroke="transparent" points="-4,4 -4,-222 183,-222 183,4 -4,4"/>
<!-- Node0 -->
<g id="node1" class="node">
<title>Node0</title>
<polygon fill="#bfbfbf" stroke="#000000" points="19.5,-.5 19.5,-112.5 159.5,-112.5 159.5,-.5 19.5,-.5"/>
<text text-anchor="start" x="27.5" y="-100.5" font-family="Helvetica,sans-Serif" font-size="10.00" fill="#000000">VectorMemory&lt; VectorType</text>
<text text-anchor="middle" x="89.5" y="-89.5" font-family="Helvetica,sans-Serif" font-size="10.00" fill="#000000"> &gt;::Pointer</text>
<polyline fill="none" stroke="#000000" points="19.5,-82.5 159.5,-82.5 "/>
<text text-anchor="middle" x="89.5" y="-70.5" font-family="Helvetica,sans-Serif" font-size="10.00" fill="#000000"> </text>
<polyline fill="none" stroke="#000000" points="19.5,-63.5 159.5,-63.5 "/>
<text text-anchor="start" x="27.5" y="-51.5" font-family="Helvetica,sans-Serif" font-size="10.00" fill="#000000">+ Pointer()</text>
<text text-anchor="start" x="27.5" y="-40.5" font-family="Helvetica,sans-Serif" font-size="10.00" fill="#000000">+ Pointer()</text>
<text text-anchor="start" x="27.5" y="-29.5" font-family="Helvetica,sans-Serif" font-size="10.00" fill="#000000">+ operator=()</text>
<text text-anchor="start" x="27.5" y="-18.5" font-family="Helvetica,sans-Serif" font-size="10.00" fill="#000000">+ Pointer()</text>
<text text-anchor="start" x="27.5" y="-7.5" font-family="Helvetica,sans-Serif" font-size="10.00" fill="#000000">+ ~Pointer()</text>
</g>
<!-- Node1 -->
<g id="node2" class="node">
<title>Node1</title>
<g id="a_node2"><a xlink:title="STL class. ">
<polygon fill="#ffffff" stroke="#bfbfbf" points="0,-149.5 0,-217.5 179,-217.5 179,-149.5 0,-149.5"/>
<text text-anchor="start" x="8" y="-205.5" font-family="Helvetica,sans-Serif" font-size="10.00" fill="#000000">std::unique_ptr&lt; VectorType,</text>
<text text-anchor="middle" x="89.5" y="-194.5" font-family="Helvetica,sans-Serif" font-size="10.00" fill="#000000"> std::function&lt; void(VectorType *)&gt; &gt;</text>
<polyline fill="none" stroke="#bfbfbf" points="0,-187.5 179,-187.5 "/>
<text text-anchor="start" x="8" y="-175.5" font-family="Helvetica,sans-Serif" font-size="10.00" fill="#000000">+ ptr</text>
<polyline fill="none" stroke="#bfbfbf" points="0,-168.5 179,-168.5 "/>
<text text-anchor="start" x="8" y="-156.5" font-family="Helvetica,sans-Serif" font-size="10.00" fill="#000000">+ operator&#45;&gt;()</text>
</a>
</g>
</g>
<!-- Node1&#45;&gt;Node0 -->
<g id="edge1" class="edge">
<title>Node1&#45;&gt;Node0</title>
<path fill="none" stroke="#191970" d="M89.5,-139.3C89.5,-130.7146 89.5,-121.6091 89.5,-112.698"/>
<polygon fill="none" stroke="#191970" points="86.0001,-139.4663 89.5,-149.4663 93.0001,-139.4664 86.0001,-139.4663"/>
</g>
</g>
</svg>
