<?xml version="1.0" encoding="UTF-8" standalone="no"?>
<!DOCTYPE svg PUBLIC "-//W3C//DTD SVG 1.1//EN"
 "http://www.w3.org/Graphics/SVG/1.1/DTD/svg11.dtd">
<!-- Generated by graphviz version 2.40.1 (20161225.0304)
 -->
<!-- Title: DesignPattern::Visitor::Component Pages: 1 -->
<svg width="380pt" height="215pt"
 viewBox="0.00 0.00 380.00 215.00" xmlns="http://www.w3.org/2000/svg" xmlns:xlink="http://www.w3.org/1999/xlink">
<g id="graph0" class="graph" transform="scale(1 1) rotate(0) translate(4 211)">
<title>DesignPattern::Visitor::Component</title>
<polygon fill="#ffffff" stroke="transparent" points="-4,4 -4,-211 376,-211 376,4 -4,4"/>
<!-- Node0 -->
<g id="node1" class="node">
<title>Node0</title>
<polygon fill="#bfbfbf" stroke="#000000" points="116,-127.5 116,-206.5 229,-206.5 229,-127.5 116,-127.5"/>
<text text-anchor="start" x="124" y="-194.5" font-family="Helvetica,sans-Serif" font-size="10.00" fill="#000000">DesignPattern::Visitor</text>
<text text-anchor="middle" x="172.5" y="-183.5" font-family="Helvetica,sans-Serif" font-size="10.00" fill="#000000">::Component</text>
<polyline fill="none" stroke="#000000" points="116,-176.5 229,-176.5 "/>
<text text-anchor="middle" x="172.5" y="-164.5" font-family="Helvetica,sans-Serif" font-size="10.00" fill="#000000"> </text>
<polyline fill="none" stroke="#000000" points="116,-157.5 229,-157.5 "/>
<text text-anchor="start" x="124" y="-145.5" font-family="Helvetica,sans-Serif" font-size="10.00" fill="#000000">+ ~Component()</text>
<text text-anchor="start" x="124" y="-134.5" font-family="Helvetica,sans-Serif" font-size="10.00" fill="#000000">+ Accept()</text>
</g>
<!-- Node1 -->
<g id="node2" class="node">
<title>Node1</title>
<g id="a_node2"><a xlink:href="classDesignPattern_1_1Visitor_1_1ConcreteComponentA.html" target="_top" xlink:title="{DesignPattern::Visitor\l::ConcreteComponentA\n||+ Accept()\l+ ExclusiveMethodOfConcrete\lComponentA()\l}">
<polygon fill="#ffffff" stroke="#000000" points="0,-.5 0,-90.5 151,-90.5 151,-.5 0,-.5"/>
<text text-anchor="start" x="8" y="-78.5" font-family="Helvetica,sans-Serif" font-size="10.00" fill="#000000">DesignPattern::Visitor</text>
<text text-anchor="middle" x="75.5" y="-67.5" font-family="Helvetica,sans-Serif" font-size="10.00" fill="#000000">::ConcreteComponentA</text>
<polyline fill="none" stroke="#000000" points="0,-60.5 151,-60.5 "/>
<text text-anchor="middle" x="75.5" y="-48.5" font-family="Helvetica,sans-Serif" font-size="10.00" fill="#000000"> </text>
<polyline fill="none" stroke="#000000" points="0,-41.5 151,-41.5 "/>
<text text-anchor="start" x="8" y="-29.5" font-family="Helvetica,sans-Serif" font-size="10.00" fill="#000000">+ Accept()</text>
<text text-anchor="start" x="8" y="-18.5" font-family="Helvetica,sans-Serif" font-size="10.00" fill="#000000">+ ExclusiveMethodOfConcrete</text>
<text text-anchor="start" x="8" y="-7.5" font-family="Helvetica,sans-Serif" font-size="10.00" fill="#000000">ComponentA()</text>
</a>
</g>
</g>
<!-- Node0&#45;&gt;Node1 -->
<g id="edge1" class="edge">
<title>Node0&#45;&gt;Node1</title>
<path fill="none" stroke="#191970" d="M134.3046,-119.1573C126.8624,-109.8354 119.0809,-100.0884 111.7054,-90.8501"/>
<polygon fill="none" stroke="#191970" points="131.7642,-121.5851 140.7386,-127.2164 137.2347,-117.2177 131.7642,-121.5851"/>
</g>
<!-- Node2 -->
<g id="node3" class="node">
<title>Node2</title>
<g id="a_node3"><a xlink:href="classDesignPattern_1_1Visitor_1_1ConcreteComponentB.html" target="_top" xlink:title="{DesignPattern::Visitor\l::ConcreteComponentB\n||+ Accept()\l+ SpecialMethodOfConcreteComponentB()\l}">
<polygon fill="#ffffff" stroke="#000000" points="169,-6 169,-85 372,-85 372,-6 169,-6"/>
<text text-anchor="start" x="177" y="-73" font-family="Helvetica,sans-Serif" font-size="10.00" fill="#000000">DesignPattern::Visitor</text>
<text text-anchor="middle" x="270.5" y="-62" font-family="Helvetica,sans-Serif" font-size="10.00" fill="#000000">::ConcreteComponentB</text>
<polyline fill="none" stroke="#000000" points="169,-55 372,-55 "/>
<text text-anchor="middle" x="270.5" y="-43" font-family="Helvetica,sans-Serif" font-size="10.00" fill="#000000"> </text>
<polyline fill="none" stroke="#000000" points="169,-36 372,-36 "/>
<text text-anchor="start" x="177" y="-24" font-family="Helvetica,sans-Serif" font-size="10.00" fill="#000000">+ Accept()</text>
<text text-anchor="start" x="177" y="-13" font-family="Helvetica,sans-Serif" font-size="10.00" fill="#000000">+ SpecialMethodOfConcreteComponentB()</text>
</a>
</g>
</g>
<!-- Node0&#45;&gt;Node2 -->
<g id="edge2" class="edge">
<title>Node0&#45;&gt;Node2</title>
<path fill="none" stroke="#191970" d="M211.0593,-119.1943C220.0916,-107.9961 229.6202,-96.1826 238.339,-85.373"/>
<polygon fill="none" stroke="#191970" points="208.1428,-117.2353 204.5889,-127.2164 213.5913,-121.6301 208.1428,-117.2353"/>
</g>
</g>
</svg>
