<?xml version="1.0" encoding="UTF-8" standalone="no"?>
<!DOCTYPE svg PUBLIC "-//W3C//DTD SVG 1.1//EN"
 "http://www.w3.org/Graphics/SVG/1.1/DTD/svg11.dtd">
<!-- Generated by graphviz version 2.40.1 (20161225.0304)
 -->
<!-- Title: MatrixFreeOperators::MGInterfaceOperator&lt; OperatorType &gt; Pages: 1 -->
<!--zoomable 904 -->
<svg id="main" version="1.1" xmlns="http://www.w3.org/2000/svg" xmlns:xlink="http://www.w3.org/1999/xlink" xml:space="preserve" onload="init(evt)">
<style type="text/css"><![CDATA[
.edge:hover path { stroke: red; }
.edge:hover polygon { stroke: red; fill: red; }
]]></style>
<script type="text/javascript"><![CDATA[
var edges = document.getElementsByTagName('g');
if (edges && edges.length) {
  for (var i=0;i<edges.length;i++) {
    if (edges[i].id.substr(0,4)=='edge') {
      edges[i].setAttribute('class','edge');
    }
  }
}
]]></script>
        <defs>
                <circle id="rim" cx="0" cy="0" r="7"/>
                <circle id="rim2" cx="0" cy="0" r="3.5"/>
                <g id="zoomPlus">
                        <use xlink:href="#rim" fill="#404040">
                                <set attributeName="fill" to="#808080" begin="zoomplus.mouseover" end="zoomplus.mouseout"/>
                        </use>
                        <path d="M-4,0h8M0,-4v8" fill="none" stroke="white" stroke-width="1.5" pointer-events="none"/>
                </g>
                <g id="zoomMin">
                        <use xlink:href="#rim" fill="#404040">
                                <set attributeName="fill" to="#808080" begin="zoomminus.mouseover" end="zoomminus.mouseout"/>
                        </use>
                        <path d="M-4,0h8" fill="none" stroke="white" stroke-width="1.5" pointer-events="none"/>
                </g>
                <g id="dirArrow">
                        <path fill="none" stroke="white" stroke-width="1.5" d="M0,-3.0v7 M-2.5,-0.5L0,-3.0L2.5,-0.5"/>
                </g>
               <g id="resetDef">
                       <use xlink:href="#rim2" fill="#404040">
                               <set attributeName="fill" to="#808080" begin="reset.mouseover" end="reset.mouseout"/>
                       </use>
               </g>
        </defs>

<script type="text/javascript">
var viewWidth = 972;
var viewHeight = 904;
var sectionId = 'dynsection-1';
</script>
<script xlink:href="svgpan.js"/>
<svg id="graph" class="graph">
<g id="viewport">
<title>MatrixFreeOperators::MGInterfaceOperator&lt; OperatorType &gt;</title>
<polygon fill="#ffffff" stroke="transparent" points="-4,4 -4,-900 967.5,-900 967.5,4 -4,4"/>
<!-- Node2 -->
<g id="node1" class="node">
<title>Node2</title>
<polygon fill="#bfbfbf" stroke="#000000" points="441,-.5 441,-134.5 564,-134.5 564,-.5 441,-.5"/>
<text text-anchor="start" x="449" y="-122.5" font-family="Helvetica,sans-Serif" font-size="10.00" fill="#000000">MatrixFreeOperators</text>
<text text-anchor="start" x="449" y="-111.5" font-family="Helvetica,sans-Serif" font-size="10.00" fill="#000000">::MGInterfaceOperator</text>
<text text-anchor="middle" x="502.5" y="-100.5" font-family="Helvetica,sans-Serif" font-size="10.00" fill="#000000">&lt; OperatorType &gt;</text>
<polyline fill="none" stroke="#000000" points="441,-93.5 564,-93.5 "/>
<text text-anchor="middle" x="502.5" y="-81.5" font-family="Helvetica,sans-Serif" font-size="10.00" fill="#000000"> </text>
<polyline fill="none" stroke="#000000" points="441,-74.5 564,-74.5 "/>
<text text-anchor="start" x="449" y="-62.5" font-family="Helvetica,sans-Serif" font-size="10.00" fill="#000000">+ MGInterfaceOperator()</text>
<text text-anchor="start" x="449" y="-51.5" font-family="Helvetica,sans-Serif" font-size="10.00" fill="#000000">+ clear()</text>
<text text-anchor="start" x="449" y="-40.5" font-family="Helvetica,sans-Serif" font-size="10.00" fill="#000000">+ initialize()</text>
<text text-anchor="start" x="449" y="-29.5" font-family="Helvetica,sans-Serif" font-size="10.00" fill="#000000">+ vmult()</text>
<text text-anchor="start" x="449" y="-18.5" font-family="Helvetica,sans-Serif" font-size="10.00" fill="#000000">+ Tvmult()</text>
<text text-anchor="start" x="449" y="-7.5" font-family="Helvetica,sans-Serif" font-size="10.00" fill="#000000">+ initialize_dof_vector()</text>
</g>
<!-- Node3 -->
<g id="node2" class="node">
<title>Node3</title>
<g id="a_node2"><a xlink:href="classSubscriptor.html" target="_top" xlink:title="{Subscriptor\n||+ Subscriptor()\l+ Subscriptor()\l+ Subscriptor()\l+ ~Subscriptor()\l+ operator=()\l+ operator=()\l+ serialize()\l+ subscribe()\l+ unsubscribe()\l+ n_subscriptions()\l+ list_subscribers()\l+ list_subscribers()\l+ ExcInUse()\l+ ExcNoSubscriber()\l&#45; check_no_subscribers()\l* subscribe()\l* unsubscribe()\l* n_subscriptions()\l* list_subscribers()\l* list_subscribers()\l}">
<polygon fill="#ffffff" stroke="#000000" points="264.5,-182.5 264.5,-448.5 390.5,-448.5 390.5,-182.5 264.5,-182.5"/>
<text text-anchor="middle" x="327.5" y="-436.5" font-family="Helvetica,sans-Serif" font-size="10.00" fill="#000000">Subscriptor</text>
<polyline fill="none" stroke="#000000" points="264.5,-429.5 390.5,-429.5 "/>
<text text-anchor="middle" x="327.5" y="-417.5" font-family="Helvetica,sans-Serif" font-size="10.00" fill="#000000"> </text>
<polyline fill="none" stroke="#000000" points="264.5,-410.5 390.5,-410.5 "/>
<text text-anchor="start" x="272.5" y="-398.5" font-family="Helvetica,sans-Serif" font-size="10.00" fill="#000000">+ Subscriptor()</text>
<text text-anchor="start" x="272.5" y="-387.5" font-family="Helvetica,sans-Serif" font-size="10.00" fill="#000000">+ Subscriptor()</text>
<text text-anchor="start" x="272.5" y="-376.5" font-family="Helvetica,sans-Serif" font-size="10.00" fill="#000000">+ Subscriptor()</text>
<text text-anchor="start" x="272.5" y="-365.5" font-family="Helvetica,sans-Serif" font-size="10.00" fill="#000000">+ ~Subscriptor()</text>
<text text-anchor="start" x="272.5" y="-354.5" font-family="Helvetica,sans-Serif" font-size="10.00" fill="#000000">+ operator=()</text>
<text text-anchor="start" x="272.5" y="-343.5" font-family="Helvetica,sans-Serif" font-size="10.00" fill="#000000">+ operator=()</text>
<text text-anchor="start" x="272.5" y="-332.5" font-family="Helvetica,sans-Serif" font-size="10.00" fill="#000000">+ serialize()</text>
<text text-anchor="start" x="272.5" y="-321.5" font-family="Helvetica,sans-Serif" font-size="10.00" fill="#000000">+ subscribe()</text>
<text text-anchor="start" x="272.5" y="-310.5" font-family="Helvetica,sans-Serif" font-size="10.00" fill="#000000">+ unsubscribe()</text>
<text text-anchor="start" x="272.5" y="-299.5" font-family="Helvetica,sans-Serif" font-size="10.00" fill="#000000">+ n_subscriptions()</text>
<text text-anchor="start" x="272.5" y="-288.5" font-family="Helvetica,sans-Serif" font-size="10.00" fill="#000000">+ list_subscribers()</text>
<text text-anchor="start" x="272.5" y="-277.5" font-family="Helvetica,sans-Serif" font-size="10.00" fill="#000000">+ list_subscribers()</text>
<text text-anchor="start" x="272.5" y="-266.5" font-family="Helvetica,sans-Serif" font-size="10.00" fill="#000000">+ ExcInUse()</text>
<text text-anchor="start" x="272.5" y="-255.5" font-family="Helvetica,sans-Serif" font-size="10.00" fill="#000000">+ ExcNoSubscriber()</text>
<text text-anchor="start" x="272.5" y="-244.5" font-family="Helvetica,sans-Serif" font-size="10.00" fill="#000000">&#45; check_no_subscribers()</text>
<text text-anchor="start" x="272.5" y="-233.5" font-family="Helvetica,sans-Serif" font-size="10.00" fill="#000000">* subscribe()</text>
<text text-anchor="start" x="272.5" y="-222.5" font-family="Helvetica,sans-Serif" font-size="10.00" fill="#000000">* unsubscribe()</text>
<text text-anchor="start" x="272.5" y="-211.5" font-family="Helvetica,sans-Serif" font-size="10.00" fill="#000000">* n_subscriptions()</text>
<text text-anchor="start" x="272.5" y="-200.5" font-family="Helvetica,sans-Serif" font-size="10.00" fill="#000000">* list_subscribers()</text>
<text text-anchor="start" x="272.5" y="-189.5" font-family="Helvetica,sans-Serif" font-size="10.00" fill="#000000">* list_subscribers()</text>
</a>
</g>
</g>
<!-- Node3&#45;&gt;Node2 -->
<g id="edge1" class="edge">
<title>Node3&#45;&gt;Node2</title>
<path fill="none" stroke="#191970" d="M396.4515,-217.7859C416.0867,-189.96 437.0281,-160.2831 455.0704,-134.7146"/>
<polygon fill="none" stroke="#191970" points="393.5849,-215.7777 390.679,-225.9663 399.3043,-219.8137 393.5849,-215.7777"/>
</g>
<!-- Node4 -->
<g id="node3" class="node">
<title>Node4</title>
<polygon fill="#ffffff" stroke="#bfbfbf" points="417.5,-546 417.5,-614 527.5,-614 527.5,-546 417.5,-546"/>
<text text-anchor="start" x="425.5" y="-602" font-family="Helvetica,sans-Serif" font-size="10.00" fill="#000000">std::map&lt; std::string,</text>
<text text-anchor="middle" x="472.5" y="-591" font-family="Helvetica,sans-Serif" font-size="10.00" fill="#000000"> unsigned int &gt;</text>
<polyline fill="none" stroke="#bfbfbf" points="417.5,-584 527.5,-584 "/>
<text text-anchor="middle" x="472.5" y="-572" font-family="Helvetica,sans-Serif" font-size="10.00" fill="#000000"> </text>
<polyline fill="none" stroke="#bfbfbf" points="417.5,-565 527.5,-565 "/>
<text text-anchor="middle" x="472.5" y="-553" font-family="Helvetica,sans-Serif" font-size="10.00" fill="#000000"> </text>
</g>
<!-- Node4&#45;&gt;Node3 -->
<g id="edge2" class="edge">
<title>Node4&#45;&gt;Node3</title>
<path fill="none" stroke="#404040" d="M453.8406,-545.9627C439.1234,-519.1165 417.6251,-479.9006 396.5208,-441.4034"/>
<polygon fill="none" stroke="#404040" points="396.3532,-441.0977 389.9614,-437.7593 390.5847,-430.5751 396.9765,-433.9136 396.3532,-441.0977"/>
<text text-anchor="middle" x="444" y="-470" font-family="Helvetica,sans-Serif" font-size="10.00" fill="#000000"> &#45;counter_map</text>
</g>
<!-- Node5 -->
<g id="node4" class="node">
<title>Node5</title>
<g id="a_node4"><a xlink:href="classint.html" target="_top" xlink:title="{int\n||}">
<polygon fill="#ffffff" stroke="#000000" points="521,-722.5 521,-779.5 550,-779.5 550,-722.5 521,-722.5"/>
<text text-anchor="middle" x="535.5" y="-767.5" font-family="Helvetica,sans-Serif" font-size="10.00" fill="#000000">int</text>
<polyline fill="none" stroke="#000000" points="521,-760.5 550,-760.5 "/>
<text text-anchor="middle" x="535.5" y="-748.5" font-family="Helvetica,sans-Serif" font-size="10.00" fill="#000000"> </text>
<polyline fill="none" stroke="#000000" points="521,-741.5 550,-741.5 "/>
<text text-anchor="middle" x="535.5" y="-729.5" font-family="Helvetica,sans-Serif" font-size="10.00" fill="#000000"> </text>
</a>
</g>
</g>
<!-- Node5&#45;&gt;Node4 -->
<g id="edge3" class="edge">
<title>Node5&#45;&gt;Node4</title>
<path fill="none" stroke="#404040" d="M526.8696,-722.3063C522.9893,-709.8484 518.2256,-695.132 513.5,-682 506.7677,-663.2914 498.7248,-642.9175 491.553,-625.3322"/>
<polygon fill="none" stroke="#404040" points="491.5496,-625.3237 485.5692,-621.2944 486.9884,-614.2243 492.9688,-618.2536 491.5496,-625.3237"/>
<text text-anchor="middle" x="545" y="-690.5" font-family="Helvetica,sans-Serif" font-size="10.00" fill="#000000"> +elements</text>
</g>
<!-- Node6 -->
<g id="node5" class="node">
<title>Node6</title>
<g id="a_node5"><a xlink:title="STL class. ">
<polygon fill="#ffffff" stroke="#bfbfbf" points="656.5,-722.5 656.5,-779.5 716.5,-779.5 716.5,-722.5 656.5,-722.5"/>
<text text-anchor="middle" x="686.5" y="-767.5" font-family="Helvetica,sans-Serif" font-size="10.00" fill="#000000">std::string</text>
<polyline fill="none" stroke="#bfbfbf" points="656.5,-760.5 716.5,-760.5 "/>
<text text-anchor="middle" x="686.5" y="-748.5" font-family="Helvetica,sans-Serif" font-size="10.00" fill="#000000"> </text>
<polyline fill="none" stroke="#bfbfbf" points="656.5,-741.5 716.5,-741.5 "/>
<text text-anchor="middle" x="686.5" y="-729.5" font-family="Helvetica,sans-Serif" font-size="10.00" fill="#000000"> </text>
</a>
</g>
</g>
<!-- Node6&#45;&gt;Node4 -->
<g id="edge4" class="edge">
<title>Node6&#45;&gt;Node4</title>
<path fill="none" stroke="#404040" d="M656.2691,-731.4554C633.7726,-717.1793 602.1371,-697.6626 573.5,-682 557.4558,-673.2249 550.6475,-675.5875 536.5,-664 522.804,-652.7823 510.3344,-638.0758 500.1146,-624.1085"/>
<polygon fill="none" stroke="#404040" points="499.9958,-623.9398 493.2704,-621.338 493.0853,-614.1293 499.8108,-616.731 499.9958,-623.9398"/>
<text text-anchor="middle" x="626" y="-690.5" font-family="Helvetica,sans-Serif" font-size="10.00" fill="#000000"> +keys</text>
</g>
<!-- Node17 -->
<g id="node16" class="node">
<title>Node17</title>
<g id="a_node16"><a xlink:href="classSmartPointer.html" target="_top" xlink:title="{SmartPointer\&lt; const\l OperatorType \&gt;\n||+ SmartPointer()\l+ SmartPointer()\l+ SmartPointer()\l+ SmartPointer()\l+ SmartPointer()\l+ ~SmartPointer()\l+ operator=()\l+ operator=()\l+ operator=()\l+ clear()\land 6 more...\l}">
<polygon fill="#ffffff" stroke="#000000" points="676,-226.5 676,-404.5 783,-404.5 783,-226.5 676,-226.5"/>
<text text-anchor="start" x="684" y="-392.5" font-family="Helvetica,sans-Serif" font-size="10.00" fill="#000000">SmartPointer&lt; const</text>
<text text-anchor="middle" x="729.5" y="-381.5" font-family="Helvetica,sans-Serif" font-size="10.00" fill="#000000"> OperatorType &gt;</text>
<polyline fill="none" stroke="#000000" points="676,-374.5 783,-374.5 "/>
<text text-anchor="middle" x="729.5" y="-362.5" font-family="Helvetica,sans-Serif" font-size="10.00" fill="#000000"> </text>
<polyline fill="none" stroke="#000000" points="676,-355.5 783,-355.5 "/>
<text text-anchor="start" x="684" y="-343.5" font-family="Helvetica,sans-Serif" font-size="10.00" fill="#000000">+ SmartPointer()</text>
<text text-anchor="start" x="684" y="-332.5" font-family="Helvetica,sans-Serif" font-size="10.00" fill="#000000">+ SmartPointer()</text>
<text text-anchor="start" x="684" y="-321.5" font-family="Helvetica,sans-Serif" font-size="10.00" fill="#000000">+ SmartPointer()</text>
<text text-anchor="start" x="684" y="-310.5" font-family="Helvetica,sans-Serif" font-size="10.00" fill="#000000">+ SmartPointer()</text>
<text text-anchor="start" x="684" y="-299.5" font-family="Helvetica,sans-Serif" font-size="10.00" fill="#000000">+ SmartPointer()</text>
<text text-anchor="start" x="684" y="-288.5" font-family="Helvetica,sans-Serif" font-size="10.00" fill="#000000">+ ~SmartPointer()</text>
<text text-anchor="start" x="684" y="-277.5" font-family="Helvetica,sans-Serif" font-size="10.00" fill="#000000">+ operator=()</text>
<text text-anchor="start" x="684" y="-266.5" font-family="Helvetica,sans-Serif" font-size="10.00" fill="#000000">+ operator=()</text>
<text text-anchor="start" x="684" y="-255.5" font-family="Helvetica,sans-Serif" font-size="10.00" fill="#000000">+ operator=()</text>
<text text-anchor="start" x="684" y="-244.5" font-family="Helvetica,sans-Serif" font-size="10.00" fill="#000000">+ clear()</text>
<text text-anchor="start" x="684" y="-233.5" font-family="Helvetica,sans-Serif" font-size="10.00" fill="#000000">and 6 more...</text>
</a>
</g>
</g>
<!-- Node6&#45;&gt;Node17 -->
<g id="edge17" class="edge">
<title>Node6&#45;&gt;Node17</title>
<path fill="none" stroke="#404040" d="M716.6071,-736.0736C742.106,-721.573 776.9268,-696.9286 792.5,-664 829.5533,-585.6527 806.7014,-487.9253 778.6805,-415.9136"/>
<polygon fill="none" stroke="#404040" points="778.6051,-415.7251 772.6624,-411.6404 774.1473,-404.5839 780.09,-408.6685 778.6051,-415.7251"/>
<text text-anchor="middle" x="818.5" y="-577.5" font-family="Helvetica,sans-Serif" font-size="10.00" fill="#000000"> &#45;id</text>
</g>
<!-- Node20 -->
<g id="node19" class="node">
<title>Node20</title>
<g id="a_node19"><a xlink:href="classSmartPointer.html" target="_top" xlink:title="{SmartPointer\&lt; T, P \&gt;\n||+ SmartPointer()\l+ SmartPointer()\l+ SmartPointer()\l+ SmartPointer()\l+ SmartPointer()\l+ ~SmartPointer()\l+ operator=()\l+ operator=()\l+ operator=()\l+ clear()\land 6 more...\l}">
<polygon fill="#ffffff" stroke="#000000" points="545.5,-496.5 545.5,-663.5 655.5,-663.5 655.5,-496.5 545.5,-496.5"/>
<text text-anchor="middle" x="600.5" y="-651.5" font-family="Helvetica,sans-Serif" font-size="10.00" fill="#000000">SmartPointer&lt; T, P &gt;</text>
<polyline fill="none" stroke="#000000" points="545.5,-644.5 655.5,-644.5 "/>
<text text-anchor="middle" x="600.5" y="-632.5" font-family="Helvetica,sans-Serif" font-size="10.00" fill="#000000"> </text>
<polyline fill="none" stroke="#000000" points="545.5,-625.5 655.5,-625.5 "/>
<text text-anchor="start" x="553.5" y="-613.5" font-family="Helvetica,sans-Serif" font-size="10.00" fill="#000000">+ SmartPointer()</text>
<text text-anchor="start" x="553.5" y="-602.5" font-family="Helvetica,sans-Serif" font-size="10.00" fill="#000000">+ SmartPointer()</text>
<text text-anchor="start" x="553.5" y="-591.5" font-family="Helvetica,sans-Serif" font-size="10.00" fill="#000000">+ SmartPointer()</text>
<text text-anchor="start" x="553.5" y="-580.5" font-family="Helvetica,sans-Serif" font-size="10.00" fill="#000000">+ SmartPointer()</text>
<text text-anchor="start" x="553.5" y="-569.5" font-family="Helvetica,sans-Serif" font-size="10.00" fill="#000000">+ SmartPointer()</text>
<text text-anchor="start" x="553.5" y="-558.5" font-family="Helvetica,sans-Serif" font-size="10.00" fill="#000000">+ ~SmartPointer()</text>
<text text-anchor="start" x="553.5" y="-547.5" font-family="Helvetica,sans-Serif" font-size="10.00" fill="#000000">+ operator=()</text>
<text text-anchor="start" x="553.5" y="-536.5" font-family="Helvetica,sans-Serif" font-size="10.00" fill="#000000">+ operator=()</text>
<text text-anchor="start" x="553.5" y="-525.5" font-family="Helvetica,sans-Serif" font-size="10.00" fill="#000000">+ operator=()</text>
<text text-anchor="start" x="553.5" y="-514.5" font-family="Helvetica,sans-Serif" font-size="10.00" fill="#000000">+ clear()</text>
<text text-anchor="start" x="553.5" y="-503.5" font-family="Helvetica,sans-Serif" font-size="10.00" fill="#000000">and 6 more...</text>
</a>
</g>
</g>
<!-- Node6&#45;&gt;Node20 -->
<g id="edge21" class="edge">
<title>Node6&#45;&gt;Node20</title>
<path fill="none" stroke="#404040" d="M679.0752,-722.1899C675.38,-709.5773 670.428,-694.7736 664.5,-682 663.3559,-679.5348 662.163,-677.057 660.9292,-674.5741"/>
<polygon fill="none" stroke="#404040" points="660.8043,-674.3331 654.4918,-670.8471 655.2817,-663.6794 661.5942,-667.1654 660.8043,-674.3331"/>
<text text-anchor="middle" x="679.5" y="-690.5" font-family="Helvetica,sans-Serif" font-size="10.00" fill="#000000"> &#45;id</text>
</g>
<!-- Node7 -->
<g id="node6" class="node">
<title>Node7</title>
<g id="a_node6"><a xlink:title="STL class. ">
<polygon fill="#ffffff" stroke="#bfbfbf" points="639,-827.5 639,-895.5 734,-895.5 734,-827.5 639,-827.5"/>
<text text-anchor="start" x="647" y="-883.5" font-family="Helvetica,sans-Serif" font-size="10.00" fill="#000000">std::basic_string&lt;</text>
<text text-anchor="middle" x="686.5" y="-872.5" font-family="Helvetica,sans-Serif" font-size="10.00" fill="#000000"> char &gt;</text>
<polyline fill="none" stroke="#bfbfbf" points="639,-865.5 734,-865.5 "/>
<text text-anchor="middle" x="686.5" y="-853.5" font-family="Helvetica,sans-Serif" font-size="10.00" fill="#000000"> </text>
<polyline fill="none" stroke="#bfbfbf" points="639,-846.5 734,-846.5 "/>
<text text-anchor="middle" x="686.5" y="-834.5" font-family="Helvetica,sans-Serif" font-size="10.00" fill="#000000"> </text>
</a>
</g>
</g>
<!-- Node7&#45;&gt;Node6 -->
<g id="edge5" class="edge">
<title>Node7&#45;&gt;Node6</title>
<path fill="none" stroke="#191970" d="M686.5,-817.0661C686.5,-804.4172 686.5,-790.9812 686.5,-779.5519"/>
<polygon fill="none" stroke="#191970" points="683.0001,-817.4447 686.5,-827.4447 690.0001,-817.4447 683.0001,-817.4447"/>
</g>
<!-- Node8 -->
<g id="node7" class="node">
<title>Node8</title>
<g id="a_node7"><a xlink:title="STL class. ">
<polygon fill="#ffffff" stroke="#bfbfbf" points="369.5,-722.5 369.5,-779.5 461.5,-779.5 461.5,-722.5 369.5,-722.5"/>
<text text-anchor="middle" x="415.5" y="-767.5" font-family="Helvetica,sans-Serif" font-size="10.00" fill="#000000">std::map&lt; K, T &gt;</text>
<polyline fill="none" stroke="#bfbfbf" points="369.5,-760.5 461.5,-760.5 "/>
<text text-anchor="middle" x="415.5" y="-748.5" font-family="Helvetica,sans-Serif" font-size="10.00" fill="#000000"> </text>
<polyline fill="none" stroke="#bfbfbf" points="369.5,-741.5 461.5,-741.5 "/>
<text text-anchor="middle" x="415.5" y="-729.5" font-family="Helvetica,sans-Serif" font-size="10.00" fill="#000000"> </text>
</a>
</g>
</g>
<!-- Node8&#45;&gt;Node4 -->
<g id="edge6" class="edge">
<title>Node8&#45;&gt;Node4</title>
<path fill="none" stroke="#ffa500" d="M409.6609,-712.257C409.2794,-702.2635 409.8812,-691.6169 412.5,-682 419.1395,-657.6176 433.2499,-633.1185 446.1194,-614.2434"/>
<polygon fill="#ffa500" stroke="#ffa500" points="406.1787,-712.6344 410.371,-722.3645 413.1614,-712.1437 406.1787,-712.6344"/>
<text text-anchor="start" x="412.5" y="-696" font-family="Helvetica,sans-Serif" font-size="10.00" fill="#000000"> &lt; std::string, unsigned</text>
<text text-anchor="middle" x="463" y="-685" font-family="Helvetica,sans-Serif" font-size="10.00" fill="#000000"> int &gt;</text>
</g>
<!-- Node9 -->
<g id="node8" class="node">
<title>Node9</title>
<polygon fill="#ffffff" stroke="#bfbfbf" points="335,-833 335,-890 364,-890 364,-833 335,-833"/>
<text text-anchor="middle" x="349.5" y="-878" font-family="Helvetica,sans-Serif" font-size="10.00" fill="#000000">K</text>
<polyline fill="none" stroke="#bfbfbf" points="335,-871 364,-871 "/>
<text text-anchor="middle" x="349.5" y="-859" font-family="Helvetica,sans-Serif" font-size="10.00" fill="#000000"> </text>
<polyline fill="none" stroke="#bfbfbf" points="335,-852 364,-852 "/>
<text text-anchor="middle" x="349.5" y="-840" font-family="Helvetica,sans-Serif" font-size="10.00" fill="#000000"> </text>
</g>
<!-- Node9&#45;&gt;Node8 -->
<g id="edge7" class="edge">
<title>Node9&#45;&gt;Node8</title>
<path fill="none" stroke="#404040" d="M344.6001,-832.9582C343.9611,-821.5125 344.9986,-808.5607 350.5,-798 353.0664,-793.0733 356.4113,-788.5408 360.2297,-784.3993"/>
<polygon fill="none" stroke="#404040" points="360.4765,-784.1677 362.1144,-777.1451 369.2268,-775.956 367.5889,-782.9787 360.4765,-784.1677"/>
<text text-anchor="middle" x="366" y="-801" font-family="Helvetica,sans-Serif" font-size="10.00" fill="#000000"> +keys</text>
</g>
<!-- Node10 -->
<g id="node9" class="node">
<title>Node10</title>
<polygon fill="#ffffff" stroke="#bfbfbf" points="461,-833 461,-890 490,-890 490,-833 461,-833"/>
<text text-anchor="middle" x="475.5" y="-878" font-family="Helvetica,sans-Serif" font-size="10.00" fill="#000000">T</text>
<polyline fill="none" stroke="#bfbfbf" points="461,-871 490,-871 "/>
<text text-anchor="middle" x="475.5" y="-859" font-family="Helvetica,sans-Serif" font-size="10.00" fill="#000000"> </text>
<polyline fill="none" stroke="#bfbfbf" points="461,-852 490,-852 "/>
<text text-anchor="middle" x="475.5" y="-840" font-family="Helvetica,sans-Serif" font-size="10.00" fill="#000000"> </text>
</g>
<!-- Node10&#45;&gt;Node8 -->
<g id="edge8" class="edge">
<title>Node10&#45;&gt;Node8</title>
<path fill="none" stroke="#404040" d="M467.8737,-832.7823C464.3053,-821.5587 459.5019,-808.8132 453.5,-798 451.9309,-795.1731 450.1891,-792.3458 448.3387,-789.5592"/>
<polygon fill="none" stroke="#404040" points="448.2743,-789.4693 441.5264,-786.9264 441.2784,-779.7195 448.0263,-782.2624 448.2743,-789.4693"/>
<text text-anchor="middle" x="482" y="-801" font-family="Helvetica,sans-Serif" font-size="10.00" fill="#000000"> +elements</text>
</g>
<!-- Node15 -->
<g id="node14" class="node">
<title>Node15</title>
<g id="a_node14"><a xlink:title="STL class. ">
<polygon fill="#ffffff" stroke="#bfbfbf" points="264,-722.5 264,-779.5 351,-779.5 351,-722.5 264,-722.5"/>
<text text-anchor="middle" x="307.5" y="-767.5" font-family="Helvetica,sans-Serif" font-size="10.00" fill="#000000">std::vector&lt; T &gt;</text>
<polyline fill="none" stroke="#bfbfbf" points="264,-760.5 351,-760.5 "/>
<text text-anchor="middle" x="307.5" y="-748.5" font-family="Helvetica,sans-Serif" font-size="10.00" fill="#000000"> </text>
<polyline fill="none" stroke="#bfbfbf" points="264,-741.5 351,-741.5 "/>
<text text-anchor="middle" x="307.5" y="-729.5" font-family="Helvetica,sans-Serif" font-size="10.00" fill="#000000"> </text>
</a>
</g>
</g>
<!-- Node10&#45;&gt;Node15 -->
<g id="edge14" class="edge">
<title>Node10&#45;&gt;Node15</title>
<path fill="none" stroke="#404040" d="M460.9318,-851.4722C442.5277,-838.8471 409.8346,-816.5633 381.5,-798 375.067,-793.7855 368.2905,-789.4035 361.5566,-785.0845"/>
<polygon fill="none" stroke="#404040" points="361.178,-784.8426 353.9682,-784.9833 351.0654,-778.3822 358.2752,-778.2416 361.178,-784.8426"/>
<text text-anchor="middle" x="421" y="-801" font-family="Helvetica,sans-Serif" font-size="10.00" fill="#000000"> +elements</text>
</g>
<!-- Node10&#45;&gt;Node20 -->
<g id="edge23" class="edge">
<title>Node10&#45;&gt;Node20</title>
<path fill="none" stroke="#404040" d="M490.274,-851.551C509.432,-837.8179 542.41,-811.1828 559.5,-780 576.8716,-748.3033 586.9093,-710.1232 592.6993,-675.6546"/>
<polygon fill="none" stroke="#404040" points="592.7248,-675.4906 589.6979,-668.9456 594.5753,-663.6341 597.6022,-670.1792 592.7248,-675.4906"/>
<text text-anchor="middle" x="586.5" y="-748.5" font-family="Helvetica,sans-Serif" font-size="10.00" fill="#000000"> &#45;t</text>
</g>
<!-- Node11 -->
<g id="node10" class="node">
<title>Node11</title>
<polygon fill="#ffffff" stroke="#bfbfbf" points="81.5,-551.5 81.5,-608.5 197.5,-608.5 197.5,-551.5 81.5,-551.5"/>
<text text-anchor="middle" x="139.5" y="-596.5" font-family="Helvetica,sans-Serif" font-size="10.00" fill="#000000">atomic&lt; unsigned int &gt;</text>
<polyline fill="none" stroke="#bfbfbf" points="81.5,-589.5 197.5,-589.5 "/>
<text text-anchor="middle" x="139.5" y="-577.5" font-family="Helvetica,sans-Serif" font-size="10.00" fill="#000000"> </text>
<polyline fill="none" stroke="#bfbfbf" points="81.5,-570.5 197.5,-570.5 "/>
<text text-anchor="middle" x="139.5" y="-558.5" font-family="Helvetica,sans-Serif" font-size="10.00" fill="#000000"> </text>
</g>
<!-- Node11&#45;&gt;Node3 -->
<g id="edge9" class="edge">
<title>Node11&#45;&gt;Node3</title>
<path fill="none" stroke="#404040" d="M159.7979,-551.4426C183.0706,-518.6999 222.4958,-463.232 257.274,-414.302"/>
<polygon fill="none" stroke="#404040" points="257.4369,-414.0728 257.6526,-406.8649 264.389,-404.2918 264.1733,-411.4997 257.4369,-414.0728"/>
<text text-anchor="middle" x="237" y="-470" font-family="Helvetica,sans-Serif" font-size="10.00" fill="#000000"> &#45;counter</text>
</g>
<!-- Node12 -->
<g id="node11" class="node">
<title>Node12</title>
<polygon fill="#ffffff" stroke="#bfbfbf" points="355.5,-551.5 355.5,-608.5 399.5,-608.5 399.5,-551.5 355.5,-551.5"/>
<text text-anchor="middle" x="377.5" y="-596.5" font-family="Helvetica,sans-Serif" font-size="10.00" fill="#000000">mutex</text>
<polyline fill="none" stroke="#bfbfbf" points="355.5,-589.5 399.5,-589.5 "/>
<text text-anchor="middle" x="377.5" y="-577.5" font-family="Helvetica,sans-Serif" font-size="10.00" fill="#000000"> </text>
<polyline fill="none" stroke="#bfbfbf" points="355.5,-570.5 399.5,-570.5 "/>
<text text-anchor="middle" x="377.5" y="-558.5" font-family="Helvetica,sans-Serif" font-size="10.00" fill="#000000"> </text>
</g>
<!-- Node12&#45;&gt;Node3 -->
<g id="edge10" class="edge">
<title>Node12&#45;&gt;Node3</title>
<path fill="none" stroke="#404040" d="M372.1016,-551.4426C367.8138,-528.7597 361.4642,-495.1707 354.8922,-460.4045"/>
<polygon fill="none" stroke="#404040" points="354.8865,-460.3743 349.8416,-455.2218 352.6575,-448.5832 357.7024,-453.7357 354.8865,-460.3743"/>
<text text-anchor="middle" x="373.5" y="-470" font-family="Helvetica,sans-Serif" font-size="10.00" fill="#000000"> &#45;mutex</text>
</g>
<!-- Node13 -->
<g id="node12" class="node">
<title>Node13</title>
<polygon fill="#ffffff" stroke="#bfbfbf" points="216,-546 216,-614 337,-614 337,-546 216,-546"/>
<text text-anchor="start" x="224" y="-602" font-family="Helvetica,sans-Serif" font-size="10.00" fill="#000000">std::vector&lt; std::atomic</text>
<text text-anchor="middle" x="276.5" y="-591" font-family="Helvetica,sans-Serif" font-size="10.00" fill="#000000">&lt; bool &gt; *&gt;</text>
<polyline fill="none" stroke="#bfbfbf" points="216,-584 337,-584 "/>
<text text-anchor="middle" x="276.5" y="-572" font-family="Helvetica,sans-Serif" font-size="10.00" fill="#000000"> </text>
<polyline fill="none" stroke="#bfbfbf" points="216,-565 337,-565 "/>
<text text-anchor="middle" x="276.5" y="-553" font-family="Helvetica,sans-Serif" font-size="10.00" fill="#000000"> </text>
</g>
<!-- Node13&#45;&gt;Node3 -->
<g id="edge11" class="edge">
<title>Node13&#45;&gt;Node3</title>
<path fill="none" stroke="#404040" d="M276.0781,-545.5347C275.8572,-525.7692 275.6102,-500.4904 275.5,-478 275.476,-473.1112 274.6955,-471.8222 275.5,-467 275.8618,-464.8314 276.2509,-462.6522 276.6652,-460.4652"/>
<polygon fill="none" stroke="#404040" points="276.6664,-460.4589 273.9718,-453.7702 279.1096,-448.7103 281.8042,-455.399 276.6664,-460.4589"/>
<text text-anchor="middle" x="314" y="-470" font-family="Helvetica,sans-Serif" font-size="10.00" fill="#000000"> &#45;validity_pointers</text>
</g>
<!-- Node14 -->
<g id="node13" class="node">
<title>Node14</title>
<polygon fill="#ffffff" stroke="#bfbfbf" points="157,-722.5 157,-779.5 246,-779.5 246,-722.5 157,-722.5"/>
<text text-anchor="middle" x="201.5" y="-767.5" font-family="Helvetica,sans-Serif" font-size="10.00" fill="#000000">atomic&lt; bool &gt; *</text>
<polyline fill="none" stroke="#bfbfbf" points="157,-760.5 246,-760.5 "/>
<text text-anchor="middle" x="201.5" y="-748.5" font-family="Helvetica,sans-Serif" font-size="10.00" fill="#000000"> </text>
<polyline fill="none" stroke="#bfbfbf" points="157,-741.5 246,-741.5 "/>
<text text-anchor="middle" x="201.5" y="-729.5" font-family="Helvetica,sans-Serif" font-size="10.00" fill="#000000"> </text>
</g>
<!-- Node14&#45;&gt;Node13 -->
<g id="edge12" class="edge">
<title>Node14&#45;&gt;Node13</title>
<path fill="none" stroke="#404040" d="M208.3447,-722.3372C211.7216,-709.752 216.2108,-694.9288 221.5,-682 229.4486,-662.5704 240.0549,-642.0341 249.8318,-624.5211"/>
<polygon fill="none" stroke="#404040" points="249.8554,-624.4794 249.3399,-617.2867 255.781,-614.0444 256.2965,-621.2371 249.8554,-624.4794"/>
<text text-anchor="middle" x="246" y="-690.5" font-family="Helvetica,sans-Serif" font-size="10.00" fill="#000000"> +elements</text>
</g>
<!-- Node15&#45;&gt;Node13 -->
<g id="edge13" class="edge">
<title>Node15&#45;&gt;Node13</title>
<path fill="none" stroke="#ffa500" d="M282.9275,-713.402C281.5796,-710.302 280.4079,-707.1485 279.5,-704 270.998,-674.5153 271.0316,-639.4341 272.7326,-614.1227"/>
<polygon fill="#ffa500" stroke="#ffa500" points="279.846,-715.0665 287.4124,-722.4827 286.1222,-711.9667 279.846,-715.0665"/>
<text text-anchor="middle" x="334.5" y="-690.5" font-family="Helvetica,sans-Serif" font-size="10.00" fill="#000000"> &lt; std::atomic&lt; bool &gt; *&gt;</text>
</g>
<!-- Node16 -->
<g id="node15" class="node">
<title>Node16</title>
<polygon fill="#ffffff" stroke="#bfbfbf" points="0,-551.5 0,-608.5 63,-608.5 63,-551.5 0,-551.5"/>
<text text-anchor="middle" x="31.5" y="-596.5" font-family="Helvetica,sans-Serif" font-size="10.00" fill="#000000">type_info *</text>
<polyline fill="none" stroke="#bfbfbf" points="0,-589.5 63,-589.5 "/>
<text text-anchor="middle" x="31.5" y="-577.5" font-family="Helvetica,sans-Serif" font-size="10.00" fill="#000000"> </text>
<polyline fill="none" stroke="#bfbfbf" points="0,-570.5 63,-570.5 "/>
<text text-anchor="middle" x="31.5" y="-558.5" font-family="Helvetica,sans-Serif" font-size="10.00" fill="#000000"> </text>
</g>
<!-- Node16&#45;&gt;Node3 -->
<g id="edge15" class="edge">
<title>Node16&#45;&gt;Node3</title>
<path fill="none" stroke="#404040" d="M41.2752,-551.4563C48.1605,-534.1448 58.6276,-512.3218 72.5,-496 123.4017,-436.1106 198.3841,-386.1869 253.8752,-354.1364"/>
<polygon fill="none" stroke="#404040" points="253.925,-354.108 257.1562,-347.6613 264.3497,-348.1643 261.1186,-354.6111 253.925,-354.108"/>
<text text-anchor="middle" x="122.5" y="-470" font-family="Helvetica,sans-Serif" font-size="10.00" fill="#000000"> &#45;object_info</text>
</g>
<!-- Node17&#45;&gt;Node2 -->
<g id="edge16" class="edge">
<title>Node17&#45;&gt;Node2</title>
<path fill="none" stroke="#404040" d="M675.9916,-257.0415C645.0576,-223.2457 605.7802,-180.3348 572.4234,-143.8921"/>
<polygon fill="none" stroke="#404040" points="572.1814,-143.6277 565.1797,-141.9025 564.0791,-134.7759 571.0809,-136.501 572.1814,-143.6277"/>
<text text-anchor="middle" x="631" y="-156" font-family="Helvetica,sans-Serif" font-size="10.00" fill="#000000"> &#45;mf_base_operator</text>
</g>
<!-- Node18 -->
<g id="node17" class="node">
<title>Node18</title>
<polygon fill="#ffffff" stroke="#bfbfbf" points="860.5,-722.5 860.5,-779.5 942.5,-779.5 942.5,-722.5 860.5,-722.5"/>
<text text-anchor="middle" x="901.5" y="-767.5" font-family="Helvetica,sans-Serif" font-size="10.00" fill="#000000">atomic&lt; bool &gt;</text>
<polyline fill="none" stroke="#bfbfbf" points="860.5,-760.5 942.5,-760.5 "/>
<text text-anchor="middle" x="901.5" y="-748.5" font-family="Helvetica,sans-Serif" font-size="10.00" fill="#000000"> </text>
<polyline fill="none" stroke="#bfbfbf" points="860.5,-741.5 942.5,-741.5 "/>
<text text-anchor="middle" x="901.5" y="-729.5" font-family="Helvetica,sans-Serif" font-size="10.00" fill="#000000"> </text>
</g>
<!-- Node18&#45;&gt;Node17 -->
<g id="edge18" class="edge">
<title>Node18&#45;&gt;Node17</title>
<path fill="none" stroke="#404040" d="M895.6832,-722.3628C885.4472,-674.4126 862.1616,-575.3328 829.5,-496 818.1124,-468.3403 803.5152,-439.5221 789.0136,-413.2436"/>
<polygon fill="none" stroke="#404040" points="788.8848,-413.0129 782.4669,-409.7249 783.0337,-402.5361 789.4515,-405.8241 788.8848,-413.0129"/>
<text text-anchor="start" x="880.5" y="-583" font-family="Helvetica,sans-Serif" font-size="10.00" fill="#000000"> &#45;pointed_to_object</text>
<text text-anchor="middle" x="922" y="-572" font-family="Helvetica,sans-Serif" font-size="10.00" fill="#000000">_is_alive</text>
</g>
<!-- Node18&#45;&gt;Node20 -->
<g id="edge22" class="edge">
<title>Node18&#45;&gt;Node20</title>
<path fill="none" stroke="#404040" d="M860.4119,-743.3147C812.6416,-732.885 732.7427,-710.7142 665.6654,-664.0543"/>
<polygon fill="none" stroke="#404040" points="665.6014,-664.0082 658.3951,-663.7443 655.8671,-656.9908 663.0734,-657.2548 665.6014,-664.0082"/>
<text text-anchor="start" x="729.5" y="-696" font-family="Helvetica,sans-Serif" font-size="10.00" fill="#000000"> &#45;pointed_to_object</text>
<text text-anchor="middle" x="771" y="-685" font-family="Helvetica,sans-Serif" font-size="10.00" fill="#000000">_is_alive</text>
</g>
<!-- Node19 -->
<g id="node18" class="node">
<title>Node19</title>
<polygon fill="#ffffff" stroke="#bfbfbf" points="673.5,-551.5 673.5,-608.5 783.5,-608.5 783.5,-551.5 673.5,-551.5"/>
<text text-anchor="middle" x="728.5" y="-596.5" font-family="Helvetica,sans-Serif" font-size="10.00" fill="#000000">const OperatorType *</text>
<polyline fill="none" stroke="#bfbfbf" points="673.5,-589.5 783.5,-589.5 "/>
<text text-anchor="middle" x="728.5" y="-577.5" font-family="Helvetica,sans-Serif" font-size="10.00" fill="#000000"> </text>
<polyline fill="none" stroke="#bfbfbf" points="673.5,-570.5 783.5,-570.5 "/>
<text text-anchor="middle" x="728.5" y="-558.5" font-family="Helvetica,sans-Serif" font-size="10.00" fill="#000000"> </text>
</g>
<!-- Node19&#45;&gt;Node17 -->
<g id="edge19" class="edge">
<title>Node19&#45;&gt;Node17</title>
<path fill="none" stroke="#404040" d="M728.608,-551.4426C728.7297,-519.2399 728.9346,-465.0556 729.1173,-416.7284"/>
<polygon fill="none" stroke="#404040" points="729.1177,-416.5849 725.1405,-410.5698 729.1632,-404.585 733.1404,-410.6001 729.1177,-416.5849"/>
<text text-anchor="middle" x="733.5" y="-470" font-family="Helvetica,sans-Serif" font-size="10.00" fill="#000000"> &#45;t</text>
</g>
<!-- Node20&#45;&gt;Node17 -->
<g id="edge20" class="edge">
<title>Node20&#45;&gt;Node17</title>
<path fill="none" stroke="#ffa500" d="M609.9508,-486.4612C611.7765,-479.7693 613.9394,-473.216 616.5,-467 630.4977,-433.0201 653.8763,-399.7745 675.7483,-373.1248"/>
<polygon fill="#ffa500" stroke="#ffa500" points="606.5104,-485.7943 607.5103,-496.3418 613.3062,-487.4729 606.5104,-485.7943"/>
<text text-anchor="middle" x="670.5" y="-470" font-family="Helvetica,sans-Serif" font-size="10.00" fill="#000000"> &lt; const OperatorType &gt;</text>
</g>
</g>
</svg>
        <g id="navigator" transform="translate(0 0)" fill="#404254">
                <rect fill="#f2f5e9" fill-opacity="0.5" stroke="#606060" stroke-width=".5" x="0" y="0" width="60" height="60"/>
                <use id="zoomplus" xlink:href="#zoomPlus" x="17" y="9" onmousedown="handleZoom(evt,'in')"/>
                <use id="zoomminus" xlink:href="#zoomMin" x="42" y="9" onmousedown="handleZoom(evt,'out')"/>
                <use id="reset" xlink:href="#resetDef" x="30" y="36" onmousedown="handleReset()"/>
                <g id="arrowUp" xlink:href="#dirArrow" transform="translate(30 24)" onmousedown="handlePan(0,-1)">
                  <use xlink:href="#rim" fill="#404040">
                        <set attributeName="fill" to="#808080" begin="arrowUp.mouseover" end="arrowUp.mouseout"/>
                  </use>
                  <path fill="none" stroke="white" stroke-width="1.5" d="M0,-3.0v7 M-2.5,-0.5L0,-3.0L2.5,-0.5"/>
                </g>
                <g id="arrowRight" xlink:href="#dirArrow" transform="rotate(90) translate(36 -43)" onmousedown="handlePan(1,0)">
                  <use xlink:href="#rim" fill="#404040">
                        <set attributeName="fill" to="#808080" begin="arrowRight.mouseover" end="arrowRight.mouseout"/>
                  </use>
                  <path fill="none" stroke="white" stroke-width="1.5" d="M0,-3.0v7 M-2.5,-0.5L0,-3.0L2.5,-0.5"/>
                </g>
                <g id="arrowDown" xlink:href="#dirArrow" transform="rotate(180) translate(-30 -48)" onmousedown="handlePan(0,1)">
                  <use xlink:href="#rim" fill="#404040">
                        <set attributeName="fill" to="#808080" begin="arrowDown.mouseover" end="arrowDown.mouseout"/>
                  </use>
                  <path fill="none" stroke="white" stroke-width="1.5" d="M0,-3.0v7 M-2.5,-0.5L0,-3.0L2.5,-0.5"/>
                </g>
                <g id="arrowLeft" xlink:href="#dirArrow" transform="rotate(270) translate(-36 17)" onmousedown="handlePan(-1,0)">
                  <use xlink:href="#rim" fill="#404040">
                        <set attributeName="fill" to="#808080" begin="arrowLeft.mouseover" end="arrowLeft.mouseout"/>
                  </use>
                  <path fill="none" stroke="white" stroke-width="1.5" d="M0,-3.0v7 M-2.5,-0.5L0,-3.0L2.5,-0.5"/>
                </g>
        </g>
        <svg viewBox="0 0 15 15" width="100%" height="30px" preserveAspectRatio="xMaxYMin meet">
         <g id="arrow_out" transform="scale(0.3 0.3)">
          <a xlink:href="classMatrixFreeOperators_1_1MGInterfaceOperator__coll__graph_org.svg" target="_base">
           <rect id="button" ry="5" rx="5" y="6" x="6" height="38" width="38"
                fill="#f2f5e9" fill-opacity="0.5" stroke="#606060" stroke-width="1.0"/>
           <path id="arrow"
             d="M 11.500037,31.436501 C 11.940474,20.09759 22.043105,11.32322 32.158766,21.979434 L 37.068811,17.246167 C 37.068811,17.246167 37.088388,32 37.088388,32 L 22.160133,31.978069 C 22.160133,31.978069 26.997745,27.140456 26.997745,27.140456 C 18.528582,18.264221 13.291696,25.230495 11.500037,31.436501 z"
             style="fill:#404040;"/>
          </a>
         </g>
        </svg>
</svg>
