<?xml version="1.0" encoding="UTF-8" standalone="no"?>
<!DOCTYPE svg PUBLIC "-//W3C//DTD SVG 1.1//EN"
 "http://www.w3.org/Graphics/SVG/1.1/DTD/svg11.dtd">
<!-- Generated by graphviz version 2.40.1 (20161225.0304)
 -->
<!-- Title: Manifold&lt; dim, spacedim &gt; Pages: 1 -->
<svg width="1401pt" height="991pt"
 viewBox="0.00 0.00 1401.00 990.52" xmlns="http://www.w3.org/2000/svg" xmlns:xlink="http://www.w3.org/1999/xlink">
<g id="graph0" class="graph" transform="scale(1 1) rotate(0) translate(4 986.522)">
<title>Manifold&lt; dim, spacedim &gt;</title>
<polygon fill="#ffffff" stroke="transparent" points="-4,4 -4,-986.522 1397,-986.522 1397,4 -4,4"/>
<!-- Node0 -->
<g id="node1" class="node">
<title>Node0</title>
<polygon fill="#bfbfbf" stroke="#000000" points="108,-416.1095 108,-435.1095 261,-435.1095 261,-416.1095 108,-416.1095"/>
<text text-anchor="middle" x="184.5" y="-423.1095" font-family="Helvetica,sans-Serif" font-size="10.00" fill="#000000">Manifold&lt; dim, spacedim &gt;</text>
</g>
<!-- Node2 -->
<g id="node3" class="node">
<title>Node2</title>
<g id="a_node3"><a xlink:href="classChartManifold.html" target="_top" xlink:title="ChartManifold\&lt; dim,\l spacedim \&gt;">
<polygon fill="#ffffff" stroke="#000000" points="384.5,-625.6095 384.5,-655.6095 502.5,-655.6095 502.5,-625.6095 384.5,-625.6095"/>
<text text-anchor="start" x="392.5" y="-643.6095" font-family="Helvetica,sans-Serif" font-size="10.00" fill="#000000">ChartManifold&lt; dim,</text>
<text text-anchor="middle" x="443.5" y="-632.6095" font-family="Helvetica,sans-Serif" font-size="10.00" fill="#000000"> spacedim &gt;</text>
</a>
</g>
</g>
<!-- Node0&#45;&gt;Node2 -->
<g id="edge2" class="edge">
<title>Node0&#45;&gt;Node2</title>
<path fill="none" stroke="#191970" d="M192.7186,-444.6798C206.5282,-474.7274 237.0492,-533.296 279,-568.6095 311.0779,-595.6122 354.8567,-614.1155 389.1868,-625.5967"/>
<polygon fill="#191970" stroke="#191970" points="195.8143,-443.0284 188.5396,-435.3259 189.4232,-445.8838 195.8143,-443.0284"/>
</g>
<!-- Node5 -->
<g id="node6" class="node">
<title>Node5</title>
<g id="a_node6"><a xlink:href="classChartManifold.html" target="_top" xlink:title="ChartManifold\&lt; dim,\l spacedim, 2 \&gt;">
<polygon fill="#ffffff" stroke="#000000" points="748.5,-890.6095 748.5,-920.6095 866.5,-920.6095 866.5,-890.6095 748.5,-890.6095"/>
<text text-anchor="start" x="756.5" y="-908.6095" font-family="Helvetica,sans-Serif" font-size="10.00" fill="#000000">ChartManifold&lt; dim,</text>
<text text-anchor="middle" x="807.5" y="-897.6095" font-family="Helvetica,sans-Serif" font-size="10.00" fill="#000000"> spacedim, 2 &gt;</text>
</a>
</g>
</g>
<!-- Node0&#45;&gt;Node5 -->
<g id="edge28" class="edge">
<title>Node0&#45;&gt;Node5</title>
<path fill="none" stroke="#191970" d="M187.1777,-445.382C194.9553,-498.2774 220.7905,-646.3567 279,-754.6095 307.5151,-807.6394 320.2179,-819.7055 367,-857.6095 486.3932,-954.3448 557.2082,-1007.3805 700,-950.6095 710.2254,-946.5441 708.5058,-939.1726 718,-933.6095 727.2711,-928.1772 737.7106,-923.6849 748.0998,-920.0089"/>
<polygon fill="#191970" stroke="#191970" points="190.6215,-444.7384 185.7516,-435.3291 183.6909,-445.7216 190.6215,-444.7384"/>
</g>
<!-- Node7 -->
<g id="node8" class="node">
<title>Node7</title>
<g id="a_node8"><a xlink:href="classChartManifold.html" target="_top" xlink:title="ChartManifold\&lt; dim,\l spacedim, 3 \&gt;">
<polygon fill="#ffffff" stroke="#000000" points="748.5,-792.6095 748.5,-822.6095 866.5,-822.6095 866.5,-792.6095 748.5,-792.6095"/>
<text text-anchor="start" x="756.5" y="-810.6095" font-family="Helvetica,sans-Serif" font-size="10.00" fill="#000000">ChartManifold&lt; dim,</text>
<text text-anchor="middle" x="807.5" y="-799.6095" font-family="Helvetica,sans-Serif" font-size="10.00" fill="#000000"> spacedim, 3 &gt;</text>
</a>
</g>
</g>
<!-- Node0&#45;&gt;Node7 -->
<g id="edge29" class="edge">
<title>Node0&#45;&gt;Node7</title>
<path fill="none" stroke="#191970" d="M189.7556,-445.0792C201.3643,-485.8835 231.952,-582.316 279,-651.6095 309.7188,-696.853 323.1525,-704.929 367,-737.6095 436.7089,-789.5652 453.8388,-810.8012 538,-832.6095 607.698,-850.6701 628.4694,-840.8175 700,-832.6095 717.7038,-830.5781 736.7318,-826.7232 753.7854,-822.638"/>
<polygon fill="#191970" stroke="#191970" points="193.0938,-444.0195 187.0431,-435.3224 186.3496,-445.8945 193.0938,-444.0195"/>
</g>
<!-- Node9 -->
<g id="node10" class="node">
<title>Node9</title>
<g id="a_node10"><a xlink:href="classChartManifold.html" target="_top" xlink:title="ChartManifold\&lt; dim\l_B, spacedim_B, chartdim_B \&gt;">
<polygon fill="#ffffff" stroke="#000000" points="724,-572.6095 724,-602.6095 891,-602.6095 891,-572.6095 724,-572.6095"/>
<text text-anchor="start" x="732" y="-590.6095" font-family="Helvetica,sans-Serif" font-size="10.00" fill="#000000">ChartManifold&lt; dim</text>
<text text-anchor="middle" x="807.5" y="-579.6095" font-family="Helvetica,sans-Serif" font-size="10.00" fill="#000000">_B, spacedim_B, chartdim_B &gt;</text>
</a>
</g>
</g>
<!-- Node0&#45;&gt;Node9 -->
<g id="edge35" class="edge">
<title>Node0&#45;&gt;Node9</title>
<path fill="none" stroke="#191970" d="M218.6767,-438.7849C236.5618,-445.5481 258.8705,-453.7788 279,-460.6095 393.0876,-499.3237 420.8444,-512.5143 538,-540.6095 609.053,-557.6488 628.0237,-556.0287 700,-568.6095 707.7478,-569.9638 715.8087,-571.3783 723.8775,-572.7979"/>
<polygon fill="#191970" stroke="#191970" points="219.8286,-435.4784 209.2375,-435.1967 217.3413,-442.0216 219.8286,-435.4784"/>
</g>
<!-- Node10 -->
<g id="node11" class="node">
<title>Node10</title>
<g id="a_node11"><a xlink:href="classChartManifold.html" target="_top" xlink:title="ChartManifold\&lt; dim,\l spacedim, 1 \&gt;">
<polygon fill="#ffffff" stroke="#000000" points="748.5,-473.6095 748.5,-503.6095 866.5,-503.6095 866.5,-473.6095 748.5,-473.6095"/>
<text text-anchor="start" x="756.5" y="-491.6095" font-family="Helvetica,sans-Serif" font-size="10.00" fill="#000000">ChartManifold&lt; dim,</text>
<text text-anchor="middle" x="807.5" y="-480.6095" font-family="Helvetica,sans-Serif" font-size="10.00" fill="#000000"> spacedim, 1 &gt;</text>
</a>
</g>
</g>
<!-- Node0&#45;&gt;Node10 -->
<g id="edge27" class="edge">
<title>Node0&#45;&gt;Node10</title>
<path fill="none" stroke="#191970" d="M271.4369,-420.3015C397.8438,-413.8729 625.4318,-407.5296 700,-439.6095 710.3928,-444.0806 708.4109,-451.6054 718,-457.6095 728.1742,-463.98 739.8235,-469.238 751.2794,-473.5"/>
<polygon fill="#191970" stroke="#191970" points="271.1997,-416.809 261.3948,-420.8232 271.5629,-423.7996 271.1997,-416.809"/>
</g>
<!-- Node12 -->
<g id="node13" class="node">
<title>Node12</title>
<g id="a_node13"><a xlink:href="classChartManifold.html" target="_top" xlink:title="ChartManifold\&lt; dim\l_A, spacedim_A, chartdim_A \&gt;">
<polygon fill="#ffffff" stroke="#000000" points="724,-356.6095 724,-386.6095 891,-386.6095 891,-356.6095 724,-356.6095"/>
<text text-anchor="start" x="732" y="-374.6095" font-family="Helvetica,sans-Serif" font-size="10.00" fill="#000000">ChartManifold&lt; dim</text>
<text text-anchor="middle" x="807.5" y="-363.6095" font-family="Helvetica,sans-Serif" font-size="10.00" fill="#000000">_A, spacedim_A, chartdim_A &gt;</text>
</a>
</g>
</g>
<!-- Node0&#45;&gt;Node12 -->
<g id="edge34" class="edge">
<title>Node0&#45;&gt;Node12</title>
<path fill="none" stroke="#191970" d="M212.378,-411.6904C270.8943,-383.3816 411.5776,-320.0499 538,-299.6095 609.077,-288.1176 640.2219,-259.4774 700,-299.6095 717.5421,-311.3864 702.4377,-329.3185 718,-343.6095 723.6361,-348.7852 730.2194,-353.0042 737.2122,-356.4434"/>
<polygon fill="#191970" stroke="#191970" points="210.8374,-408.5477 203.3857,-416.0792 213.9077,-414.8384 210.8374,-408.5477"/>
</g>
<!-- Node13 -->
<g id="node14" class="node">
<title>Node13</title>
<g id="a_node14"><a xlink:href="classChartManifold.html" target="_top" xlink:title="ChartManifold\&lt; dim1,\l intermediate_dim, chartdim \&gt;">
<polygon fill="#ffffff" stroke="#000000" points="724,-304.6095 724,-334.6095 891,-334.6095 891,-304.6095 724,-304.6095"/>
<text text-anchor="start" x="732" y="-322.6095" font-family="Helvetica,sans-Serif" font-size="10.00" fill="#000000">ChartManifold&lt; dim1,</text>
<text text-anchor="middle" x="807.5" y="-311.6095" font-family="Helvetica,sans-Serif" font-size="10.00" fill="#000000"> intermediate_dim, chartdim &gt;</text>
</a>
</g>
</g>
<!-- Node0&#45;&gt;Node13 -->
<g id="edge32" class="edge">
<title>Node0&#45;&gt;Node13</title>
<path fill="none" stroke="#191970" d="M201.6411,-408.7343C231.9643,-380.1327 298.3687,-322.9694 367,-299.6095 437.235,-275.7038 631.8454,-246.2941 700,-275.6095 710.6857,-280.2058 708.0373,-288.605 718,-294.6095 724.356,-298.4403 731.3176,-301.7016 738.4619,-304.4743"/>
<polygon fill="#191970" stroke="#191970" points="198.868,-406.5443 194.0734,-415.9922 203.7133,-411.5964 198.868,-406.5443"/>
</g>
<!-- Node14 -->
<g id="node15" class="node">
<title>Node14</title>
<g id="a_node15"><a xlink:href="classChartManifold.html" target="_top" xlink:title="ChartManifold\&lt; dim,\l spacedim, spacedim \&gt;">
<polygon fill="#ffffff" stroke="#000000" points="742,-942.6095 742,-972.6095 873,-972.6095 873,-942.6095 742,-942.6095"/>
<text text-anchor="start" x="750" y="-960.6095" font-family="Helvetica,sans-Serif" font-size="10.00" fill="#000000">ChartManifold&lt; dim,</text>
<text text-anchor="middle" x="807.5" y="-949.6095" font-family="Helvetica,sans-Serif" font-size="10.00" fill="#000000"> spacedim, spacedim &gt;</text>
</a>
</g>
</g>
<!-- Node0&#45;&gt;Node14 -->
<g id="edge30" class="edge">
<title>Node0&#45;&gt;Node14</title>
<path fill="none" stroke="#191970" d="M186.3188,-445.5336C192.3141,-504.3619 214.871,-681.329 279,-811.6095 306.6499,-867.7814 315.3613,-886.2082 367,-921.6095 479.9666,-999.0546 649.5598,-986.0026 741.8899,-971.0023"/>
<polygon fill="#191970" stroke="#191970" points="189.7842,-445.0065 185.3332,-435.392 182.817,-445.6837 189.7842,-445.0065"/>
</g>
<!-- Node18 -->
<g id="node19" class="node">
<title>Node18</title>
<g id="a_node19"><a xlink:href="classChartManifold.html" target="_top" xlink:title="ChartManifold\&lt; dim2,\l spacedim, intermediate_dim \&gt;">
<polygon fill="#ffffff" stroke="#000000" points="722,-841.6095 722,-871.6095 893,-871.6095 893,-841.6095 722,-841.6095"/>
<text text-anchor="start" x="730" y="-859.6095" font-family="Helvetica,sans-Serif" font-size="10.00" fill="#000000">ChartManifold&lt; dim2,</text>
<text text-anchor="middle" x="807.5" y="-848.6095" font-family="Helvetica,sans-Serif" font-size="10.00" fill="#000000"> spacedim, intermediate_dim &gt;</text>
</a>
</g>
</g>
<!-- Node0&#45;&gt;Node18 -->
<g id="edge33" class="edge">
<title>Node0&#45;&gt;Node18</title>
<path fill="none" stroke="#191970" d="M188.2601,-445.3425C197.8394,-492.3906 226.2148,-613.782 279,-701.6095 308.4801,-750.6604 321.9646,-760.2984 367,-795.6095 488.2111,-890.6481 550.8971,-930.246 700,-891.6095 708.8591,-889.3139 709.5346,-885.0867 718,-881.6095 726.9539,-877.9317 736.627,-874.6045 746.1904,-871.6657"/>
<polygon fill="#191970" stroke="#191970" points="191.6441,-444.4127 186.2708,-435.2815 184.777,-445.7705 191.6441,-444.4127"/>
</g>
<!-- Node19 -->
<g id="node20" class="node">
<title>Node19</title>
<g id="a_node20"><a xlink:href="classChartManifold.html" target="_top" xlink:title="ChartManifold\&lt; dim,\l dim, dim \&gt;">
<polygon fill="#ffffff" stroke="#000000" points="748.5,-743.6095 748.5,-773.6095 866.5,-773.6095 866.5,-743.6095 748.5,-743.6095"/>
<text text-anchor="start" x="756.5" y="-761.6095" font-family="Helvetica,sans-Serif" font-size="10.00" fill="#000000">ChartManifold&lt; dim,</text>
<text text-anchor="middle" x="807.5" y="-750.6095" font-family="Helvetica,sans-Serif" font-size="10.00" fill="#000000"> dim, dim &gt;</text>
</a>
</g>
</g>
<!-- Node0&#45;&gt;Node19 -->
<g id="edge26" class="edge">
<title>Node0&#45;&gt;Node19</title>
<path fill="none" stroke="#191970" d="M191.5081,-445.1927C204.6096,-479.8443 235.4781,-552.9809 279,-602.6095 368.2112,-704.3382 407.1735,-728.0875 538,-762.6095 608.4685,-781.2045 692.9462,-775.6926 748.303,-768.5241"/>
<polygon fill="#191970" stroke="#191970" points="194.6303,-443.5433 187.8851,-435.373 188.063,-445.9664 194.6303,-443.5433"/>
</g>
<!-- Node20 -->
<g id="node21" class="node">
<title>Node20</title>
<g id="a_node21"><a xlink:href="classChartManifold.html" target="_top" xlink:title="ChartManifold\&lt; dim,\l 3, 3 \&gt;">
<polygon fill="#ffffff" stroke="#000000" points="748.5,-523.6095 748.5,-553.6095 866.5,-553.6095 866.5,-523.6095 748.5,-523.6095"/>
<text text-anchor="start" x="756.5" y="-541.6095" font-family="Helvetica,sans-Serif" font-size="10.00" fill="#000000">ChartManifold&lt; dim,</text>
<text text-anchor="middle" x="807.5" y="-530.6095" font-family="Helvetica,sans-Serif" font-size="10.00" fill="#000000"> 3, 3 &gt;</text>
</a>
</g>
</g>
<!-- Node0&#45;&gt;Node20 -->
<g id="edge25" class="edge">
<title>Node0&#45;&gt;Node20</title>
<path fill="none" stroke="#191970" d="M255.0788,-436.6995C386.0302,-457.3364 657.2387,-500.3829 700,-509.6095 718.4231,-513.5847 738.4063,-518.7385 756.0889,-523.5964"/>
<polygon fill="#191970" stroke="#191970" points="255.559,-433.2321 245.1362,-435.1332 254.4697,-440.1468 255.559,-433.2321"/>
</g>
<!-- Node22 -->
<g id="node23" class="node">
<title>Node22</title>
<g id="a_node23"><a xlink:href="classChartManifold.html" target="_top" xlink:title="ChartManifold\&lt; dim,\l spacedim_A+spacedim\l_B, chartdim_A+chartdim_B \&gt;">
<polygon fill="#ffffff" stroke="#000000" points="725,-407.1095 725,-448.1095 890,-448.1095 890,-407.1095 725,-407.1095"/>
<text text-anchor="start" x="733" y="-436.1095" font-family="Helvetica,sans-Serif" font-size="10.00" fill="#000000">ChartManifold&lt; dim,</text>
<text text-anchor="start" x="733" y="-425.1095" font-family="Helvetica,sans-Serif" font-size="10.00" fill="#000000"> spacedim_A+spacedim</text>
<text text-anchor="middle" x="807.5" y="-414.1095" font-family="Helvetica,sans-Serif" font-size="10.00" fill="#000000">_B, chartdim_A+chartdim_B &gt;</text>
</a>
</g>
</g>
<!-- Node0&#45;&gt;Node22 -->
<g id="edge31" class="edge">
<title>Node0&#45;&gt;Node22</title>
<path fill="none" stroke="#191970" d="M232.5711,-413.6278C344.5517,-386.7843 619.3871,-327.3721 700,-369.6095 712.4492,-376.1323 706.8482,-387.0557 718,-395.6095 723.6301,-399.928 729.894,-403.6986 736.4199,-406.9836"/>
<polygon fill="#191970" stroke="#191970" points="231.4696,-410.2931 222.5705,-416.0425 233.1127,-417.0976 231.4696,-410.2931"/>
</g>
<!-- Node24 -->
<g id="node25" class="node">
<title>Node24</title>
<g id="a_node25"><a xlink:href="classFlatManifold.html" target="_top" xlink:title="FlatManifold\&lt; dim,\l spacedim \&gt;">
<polygon fill="#ffffff" stroke="#000000" points="388.5,-201.6095 388.5,-231.6095 498.5,-231.6095 498.5,-201.6095 388.5,-201.6095"/>
<text text-anchor="start" x="396.5" y="-219.6095" font-family="Helvetica,sans-Serif" font-size="10.00" fill="#000000">FlatManifold&lt; dim,</text>
<text text-anchor="middle" x="443.5" y="-208.6095" font-family="Helvetica,sans-Serif" font-size="10.00" fill="#000000"> spacedim &gt;</text>
</a>
</g>
</g>
<!-- Node0&#45;&gt;Node24 -->
<g id="edge36" class="edge">
<title>Node0&#45;&gt;Node24</title>
<path fill="none" stroke="#191970" d="M188.9108,-405.7283C198.3607,-368.1147 224.2975,-286.7223 279,-246.6095 310.37,-223.6062 353.9704,-216.4649 388.4025,-214.8826"/>
<polygon fill="#191970" stroke="#191970" points="185.4001,-405.3636 186.4938,-415.9018 192.2106,-406.9816 185.4001,-405.3636"/>
</g>
<!-- Node28 -->
<g id="node29" class="node">
<title>Node28</title>
<g id="a_node29"><a xlink:href="classFlatManifold.html" target="_top" xlink:title="FlatManifold\&lt; chartdim,\l chartdim \&gt;">
<polygon fill="#ffffff" stroke="#000000" points="740.5,-33.6095 740.5,-63.6095 874.5,-63.6095 874.5,-33.6095 740.5,-33.6095"/>
<text text-anchor="start" x="748.5" y="-51.6095" font-family="Helvetica,sans-Serif" font-size="10.00" fill="#000000">FlatManifold&lt; chartdim,</text>
<text text-anchor="middle" x="807.5" y="-40.6095" font-family="Helvetica,sans-Serif" font-size="10.00" fill="#000000"> chartdim &gt;</text>
</a>
</g>
</g>
<!-- Node0&#45;&gt;Node28 -->
<g id="edge42" class="edge">
<title>Node0&#45;&gt;Node28</title>
<path fill="none" stroke="#191970" d="M187.7514,-406.0421C198.7313,-342.0077 236.1539,-140.0438 279,-91.6095 400.2269,45.4283 651.7719,-4.3991 758.2166,-33.5387"/>
<polygon fill="#191970" stroke="#191970" points="184.2803,-405.5779 186.0642,-416.0215 191.1823,-406.7449 184.2803,-405.5779"/>
</g>
<!-- Node30 -->
<g id="node31" class="node">
<title>Node30</title>
<g id="a_node31"><a xlink:href="classSphericalManifold.html" target="_top" xlink:title="SphericalManifold\&lt;\l dim, spacedim \&gt;">
<polygon fill="#ffffff" stroke="#000000" points="387.5,-113.6095 387.5,-143.6095 499.5,-143.6095 499.5,-113.6095 387.5,-113.6095"/>
<text text-anchor="start" x="395.5" y="-131.6095" font-family="Helvetica,sans-Serif" font-size="10.00" fill="#000000">SphericalManifold&lt;</text>
<text text-anchor="middle" x="443.5" y="-120.6095" font-family="Helvetica,sans-Serif" font-size="10.00" fill="#000000"> dim, spacedim &gt;</text>
</a>
</g>
</g>
<!-- Node0&#45;&gt;Node30 -->
<g id="edge43" class="edge">
<title>Node0&#45;&gt;Node30</title>
<path fill="none" stroke="#191970" d="M185.9288,-405.6412C190.4433,-357.9297 208.6171,-236.5332 279,-172.6095 308.4343,-145.8765 352.3474,-135.0884 387.4003,-130.87"/>
<polygon fill="#191970" stroke="#191970" points="182.4193,-405.6085 185.0691,-415.8666 189.3947,-406.195 182.4193,-405.6085"/>
</g>
<!-- Node31 -->
<g id="node32" class="node">
<title>Node31</title>
<g id="a_node32"><a xlink:href="classTransfiniteInterpolationManifold.html" target="_top" xlink:title="TransfiniteInterpolation\lManifold\&lt; dim, spacedim \&gt;">
<polygon fill="#ffffff" stroke="#000000" points="367,-64.6095 367,-94.6095 520,-94.6095 520,-64.6095 367,-64.6095"/>
<text text-anchor="start" x="375" y="-82.6095" font-family="Helvetica,sans-Serif" font-size="10.00" fill="#000000">TransfiniteInterpolation</text>
<text text-anchor="middle" x="443.5" y="-71.6095" font-family="Helvetica,sans-Serif" font-size="10.00" fill="#000000">Manifold&lt; dim, spacedim &gt;</text>
</a>
</g>
</g>
<!-- Node0&#45;&gt;Node31 -->
<g id="edge44" class="edge">
<title>Node0&#45;&gt;Node31</title>
<path fill="none" stroke="#191970" d="M188.4573,-406.2202C200.7333,-347.7783 239.7095,-174.8827 279,-134.6095 302.1314,-110.8996 335.7561,-97.4107 366.5857,-89.7367"/>
<polygon fill="#191970" stroke="#191970" points="185.0271,-405.5251 186.4236,-416.0275 191.8812,-406.9465 185.0271,-405.5251"/>
</g>
<!-- Node32 -->
<g id="node33" class="node">
<title>Node32</title>
<g id="a_node33"><a xlink:href="classManifold.html" target="_top" xlink:title="Manifold\&lt; dim, dim \&gt;">
<polygon fill="#ffffff" stroke="#000000" points="381,-163.1095 381,-182.1095 506,-182.1095 506,-163.1095 381,-163.1095"/>
<text text-anchor="middle" x="443.5" y="-170.1095" font-family="Helvetica,sans-Serif" font-size="10.00" fill="#000000">Manifold&lt; dim, dim &gt;</text>
</a>
</g>
</g>
<!-- Node0&#45;&gt;Node32 -->
<g id="edge45" class="edge">
<title>Node0&#45;&gt;Node32</title>
<path fill="none" stroke="#ffa500" stroke-dasharray="5,2" d="M186.8947,-405.6283C193.246,-361.9626 214.6928,-257.7753 279,-205.6095 307.3895,-182.5801 347.4782,-174.1994 380.9726,-171.6395"/>
<polygon fill="#ffa500" stroke="#ffa500" points="183.3904,-405.4285 185.5338,-415.8042 190.3286,-406.3564 183.3904,-405.4285"/>
<text text-anchor="middle" x="314" y="-208.6095" font-family="Helvetica,sans-Serif" font-size="10.00" fill="#000000"> &lt; dim, dim &gt;</text>
</g>
<!-- Node1 -->
<g id="node2" class="node">
<title>Node1</title>
<g id="a_node2"><a xlink:href="classSubscriptor.html" target="_top" xlink:title="Subscriptor">
<polygon fill="#ffffff" stroke="#000000" points="0,-416.1095 0,-435.1095 71,-435.1095 71,-416.1095 0,-416.1095"/>
<text text-anchor="middle" x="35.5" y="-423.1095" font-family="Helvetica,sans-Serif" font-size="10.00" fill="#000000">Subscriptor</text>
</a>
</g>
</g>
<!-- Node1&#45;&gt;Node0 -->
<g id="edge1" class="edge">
<title>Node1&#45;&gt;Node0</title>
<path fill="none" stroke="#191970" d="M81.4633,-425.6095C89.8453,-425.6095 98.7951,-425.6095 107.7878,-425.6095"/>
<polygon fill="#191970" stroke="#191970" points="81.1892,-422.1096 71.1892,-425.6095 81.1892,-429.1096 81.1892,-422.1096"/>
</g>
<!-- Node3 -->
<g id="node4" class="node">
<title>Node3</title>
<g id="a_node4"><a xlink:href="classCompositionManifold.html" target="_top" xlink:title="CompositionManifold\l\&lt; dim, spacedim, chartdim \&gt;">
<polygon fill="#ffffff" stroke="#000000" points="727,-670.6095 727,-700.6095 888,-700.6095 888,-670.6095 727,-670.6095"/>
<text text-anchor="start" x="735" y="-688.6095" font-family="Helvetica,sans-Serif" font-size="10.00" fill="#000000">CompositionManifold</text>
<text text-anchor="middle" x="807.5" y="-677.6095" font-family="Helvetica,sans-Serif" font-size="10.00" fill="#000000">&lt; dim, spacedim, chartdim &gt;</text>
</a>
</g>
</g>
<!-- Node2&#45;&gt;Node3 -->
<g id="edge3" class="edge">
<title>Node2&#45;&gt;Node3</title>
<path fill="none" stroke="#191970" d="M512.5639,-654.4936C521.1112,-655.9965 529.7436,-657.412 538,-658.6095 601.1719,-667.7721 673.1277,-674.8094 726.7884,-679.3991"/>
<polygon fill="#191970" stroke="#191970" points="513.0592,-651.0265 502.5969,-652.6971 511.8174,-657.9155 513.0592,-651.0265"/>
</g>
<!-- Node4 -->
<g id="node5" class="node">
<title>Node4</title>
<g id="a_node5"><a xlink:href="classFunctionManifold.html" target="_top" xlink:title="FunctionManifold\&lt; dim,\l spacedim, chartdim \&gt;">
<polygon fill="#ffffff" stroke="#000000" points="741.5,-621.6095 741.5,-651.6095 873.5,-651.6095 873.5,-621.6095 741.5,-621.6095"/>
<text text-anchor="start" x="749.5" y="-639.6095" font-family="Helvetica,sans-Serif" font-size="10.00" fill="#000000">FunctionManifold&lt; dim,</text>
<text text-anchor="middle" x="807.5" y="-628.6095" font-family="Helvetica,sans-Serif" font-size="10.00" fill="#000000"> spacedim, chartdim &gt;</text>
</a>
</g>
</g>
<!-- Node2&#45;&gt;Node4 -->
<g id="edge4" class="edge">
<title>Node2&#45;&gt;Node4</title>
<path fill="none" stroke="#191970" d="M512.9498,-643.8848C521.3874,-644.1836 529.8882,-644.4379 538,-644.6095 609.9839,-646.1323 628.0497,-647.283 700,-644.6095 713.3719,-644.1127 727.66,-643.2693 741.3095,-642.3117"/>
<polygon fill="#191970" stroke="#191970" points="512.844,-640.3784 502.7197,-643.5008 512.5814,-647.3735 512.844,-640.3784"/>
</g>
<!-- Node2&#45;&gt;Node5 -->
<g id="edge5" class="edge">
<title>Node2&#45;&gt;Node5</title>
<path fill="none" stroke="#ffa500" stroke-dasharray="5,2" d="M446.6951,-665.6112C453.9634,-711.4767 476.1883,-808.8228 538,-857.6095 569.8489,-882.7472 679.1066,-895.7058 748.3421,-901.5488"/>
<polygon fill="#ffa500" stroke="#ffa500" points="450.144,-665.007 445.2227,-655.6244 443.2188,-666.028 450.144,-665.007"/>
<text text-anchor="middle" x="619" y="-898.6095" font-family="Helvetica,sans-Serif" font-size="10.00" fill="#000000"> &lt; dim, spacedim, 2 &gt;</text>
</g>
<!-- Node2&#45;&gt;Node7 -->
<g id="edge7" class="edge">
<title>Node2&#45;&gt;Node7</title>
<path fill="none" stroke="#ffa500" stroke-dasharray="5,2" d="M462.3396,-663.3073C479.9829,-683.1906 508.0582,-711.5087 538,-728.6095 603.2081,-765.8522 628.9451,-752.3132 700,-776.6095 708.122,-779.3867 709.8425,-780.9384 718,-783.6095 727.7846,-786.8134 738.2706,-789.9154 748.4959,-792.7661"/>
<polygon fill="#ffa500" stroke="#ffa500" points="464.8634,-660.8755 455.6635,-655.6206 459.5784,-665.4657 464.8634,-660.8755"/>
<text text-anchor="middle" x="619" y="-779.6095" font-family="Helvetica,sans-Serif" font-size="10.00" fill="#000000"> &lt; dim, spacedim, 3 &gt;</text>
</g>
<!-- Node2&#45;&gt;Node9 -->
<g id="edge9" class="edge">
<title>Node2&#45;&gt;Node9</title>
<path fill="none" stroke="#ffa500" stroke-dasharray="5,2" d="M512.4967,-623.5885C521.0556,-621.7605 529.709,-620.0466 538,-618.6095 547.1794,-617.0184 647.9933,-605.5485 723.6436,-597.0212"/>
<polygon fill="#ffa500" stroke="#ffa500" points="511.538,-620.2155 502.5203,-625.7771 513.038,-627.0529 511.538,-620.2155"/>
<text text-anchor="start" x="562" y="-632.6095" font-family="Helvetica,sans-Serif" font-size="10.00" fill="#000000"> &lt; dim_B, spacedim_B,</text>
<text text-anchor="middle" x="619" y="-621.6095" font-family="Helvetica,sans-Serif" font-size="10.00" fill="#000000"> chartdim_B &gt;</text>
</g>
<!-- Node2&#45;&gt;Node10 -->
<g id="edge10" class="edge">
<title>Node2&#45;&gt;Node10</title>
<path fill="none" stroke="#ffa500" stroke-dasharray="5,2" d="M457.6753,-616.9139C473.8399,-592.1363 502.6583,-554.1872 538,-534.6095 603.7053,-498.2117 691.1605,-489.2357 748.3678,-487.6877"/>
<polygon fill="#ffa500" stroke="#ffa500" points="454.7014,-615.0681 452.3039,-625.3881 460.6138,-618.8157 454.7014,-615.0681"/>
<text text-anchor="middle" x="619" y="-537.6095" font-family="Helvetica,sans-Serif" font-size="10.00" fill="#000000"> &lt; dim, spacedim, 1 &gt;</text>
</g>
<!-- Node2&#45;&gt;Node12 -->
<g id="edge12" class="edge">
<title>Node2&#45;&gt;Node12</title>
<path fill="none" stroke="#ffa500" stroke-dasharray="5,2" d="M444.8204,-615.37C448.9866,-564.1971 466.2802,-448.5209 538,-394.6095 590.4567,-355.1782 665.9537,-351.9437 723.7033,-357.1373"/>
<polygon fill="#ffa500" stroke="#ffa500" points="441.3152,-615.3202 444.099,-625.5428 448.2977,-615.8155 441.3152,-615.3202"/>
<text text-anchor="start" x="562" y="-408.6095" font-family="Helvetica,sans-Serif" font-size="10.00" fill="#000000"> &lt; dim_A, spacedim_A,</text>
<text text-anchor="middle" x="619" y="-397.6095" font-family="Helvetica,sans-Serif" font-size="10.00" fill="#000000"> chartdim_A &gt;</text>
</g>
<!-- Node2&#45;&gt;Node13 -->
<g id="edge13" class="edge">
<title>Node2&#45;&gt;Node13</title>
<path fill="none" stroke="#ffa500" stroke-dasharray="5,2" d="M447.4041,-615.151C458.3573,-547.3854 491.6321,-365.3325 538,-329.6095 599.105,-282.5326 693.178,-291.9072 752.4782,-304.5716"/>
<polygon fill="#ffa500" stroke="#ffa500" points="443.8945,-614.9361 445.784,-625.361 450.808,-616.0332 443.8945,-614.9361"/>
<text text-anchor="start" x="564.5" y="-343.6095" font-family="Helvetica,sans-Serif" font-size="10.00" fill="#000000"> &lt; dim1, intermediate</text>
<text text-anchor="middle" x="619" y="-332.6095" font-family="Helvetica,sans-Serif" font-size="10.00" fill="#000000">_dim, chartdim &gt;</text>
</g>
<!-- Node2&#45;&gt;Node14 -->
<g id="edge14" class="edge">
<title>Node2&#45;&gt;Node14</title>
<path fill="none" stroke="#ffa500" stroke-dasharray="5,2" d="M448.8777,-665.6572C462.382,-726.1952 499.4111,-877.8822 538,-910.6095 594.4154,-958.4555 681.9398,-965.4796 741.8377,-963.6437"/>
<polygon fill="#ffa500" stroke="#ffa500" points="452.2724,-664.7978 446.7044,-655.784 445.436,-666.3027 452.2724,-664.7978"/>
<text text-anchor="middle" x="619" y="-965.6095" font-family="Helvetica,sans-Serif" font-size="10.00" fill="#000000"> &lt; dim, spacedim, spacedim &gt;</text>
</g>
<!-- Node2&#45;&gt;Node18 -->
<g id="edge18" class="edge">
<title>Node2&#45;&gt;Node18</title>
<path fill="none" stroke="#ffa500" stroke-dasharray="5,2" d="M456.3319,-665.0447C476.4267,-702.4426 515.3586,-771.2723 538,-787.6095 554.3273,-799.3907 663.7277,-825.0994 738.0244,-841.5933"/>
<polygon fill="#ffa500" stroke="#ffa500" points="459.2136,-663.01 451.4211,-655.8317 453.0363,-666.3027 459.2136,-663.01"/>
<text text-anchor="start" x="538" y="-845.6095" font-family="Helvetica,sans-Serif" font-size="10.00" fill="#000000"> &lt; dim2, spacedim, intermediate</text>
<text text-anchor="middle" x="619" y="-834.6095" font-family="Helvetica,sans-Serif" font-size="10.00" fill="#000000">_dim &gt;</text>
</g>
<!-- Node2&#45;&gt;Node19 -->
<g id="edge19" class="edge">
<title>Node2&#45;&gt;Node19</title>
<path fill="none" stroke="#ffa500" stroke-dasharray="5,2" d="M483.7773,-660.1024C500.3051,-667.5666 519.8,-675.699 538,-681.6095 608.1498,-704.3911 629.3555,-696.4115 700,-717.6095 724.2974,-724.9003 750.9439,-735.0478 771.629,-743.4232"/>
<polygon fill="#ffa500" stroke="#ffa500" points="484.9693,-656.7985 474.421,-655.8066 482.0485,-663.16 484.9693,-656.7985"/>
<text text-anchor="middle" x="619" y="-720.6095" font-family="Helvetica,sans-Serif" font-size="10.00" fill="#000000"> &lt; dim, dim, dim &gt;</text>
</g>
<!-- Node2&#45;&gt;Node20 -->
<g id="edge21" class="edge">
<title>Node2&#45;&gt;Node20</title>
<path fill="none" stroke="#ffa500" stroke-dasharray="5,2" d="M473.8072,-619.7193C491.7337,-608.2949 515.3078,-594.8338 538,-586.6095 607.8134,-561.3073 692.8019,-549.0102 748.4337,-543.2686"/>
<polygon fill="#ffa500" stroke="#ffa500" points="471.45,-617.0778 464.9822,-625.4694 475.2714,-622.9427 471.45,-617.0778"/>
<text text-anchor="middle" x="619" y="-589.6095" font-family="Helvetica,sans-Serif" font-size="10.00" fill="#000000"> &lt; dim, 3, 3 &gt;</text>
</g>
<!-- Node2&#45;&gt;Node22 -->
<g id="edge23" class="edge">
<title>Node2&#45;&gt;Node22</title>
<path fill="none" stroke="#ffa500" stroke-dasharray="5,2" d="M449.1869,-615.6846C459.5408,-576.4842 485.4299,-501.1362 538,-464.6095 592.2008,-426.9498 667.5377,-419.3807 724.7823,-420.2721"/>
<polygon fill="#ffa500" stroke="#ffa500" points="445.7637,-614.946 446.7221,-625.4974 452.5528,-616.6513 445.7637,-614.946"/>
<text text-anchor="start" x="542" y="-478.6095" font-family="Helvetica,sans-Serif" font-size="10.00" fill="#000000"> &lt; dim, spacedim_A+spacedim</text>
<text text-anchor="middle" x="619" y="-467.6095" font-family="Helvetica,sans-Serif" font-size="10.00" fill="#000000">_B, chartdim_A+chartdim_B &gt;</text>
</g>
<!-- Node6 -->
<g id="node7" class="node">
<title>Node6</title>
<g id="a_node7"><a xlink:href="classOpenCASCADE_1_1NURBSPatchManifold.html" target="_top" xlink:title="OpenCASCADE::NURBSPatchManifold\l\&lt; dim, spacedim \&gt;">
<polygon fill="#ffffff" stroke="#000000" points="934,-846.6095 934,-876.6095 1131,-876.6095 1131,-846.6095 934,-846.6095"/>
<text text-anchor="start" x="942" y="-864.6095" font-family="Helvetica,sans-Serif" font-size="10.00" fill="#000000">OpenCASCADE::NURBSPatchManifold</text>
<text text-anchor="middle" x="1032.5" y="-853.6095" font-family="Helvetica,sans-Serif" font-size="10.00" fill="#000000">&lt; dim, spacedim &gt;</text>
</a>
</g>
</g>
<!-- Node5&#45;&gt;Node6 -->
<g id="edge6" class="edge">
<title>Node5&#45;&gt;Node6</title>
<path fill="none" stroke="#191970" d="M876.7246,-892.0723C901.6808,-887.1919 929.9893,-881.6561 955.5644,-876.6547"/>
<polygon fill="#191970" stroke="#191970" points="875.7585,-888.6948 866.6161,-894.049 877.102,-895.5647 875.7585,-888.6948"/>
</g>
<!-- Node8 -->
<g id="node9" class="node">
<title>Node8</title>
<g id="a_node9"><a xlink:href="classCylindricalManifold.html" target="_top" xlink:title="CylindricalManifold\l\&lt; dim, spacedim \&gt;">
<polygon fill="#ffffff" stroke="#000000" points="977,-792.6095 977,-822.6095 1088,-822.6095 1088,-792.6095 977,-792.6095"/>
<text text-anchor="start" x="985" y="-810.6095" font-family="Helvetica,sans-Serif" font-size="10.00" fill="#000000">CylindricalManifold</text>
<text text-anchor="middle" x="1032.5" y="-799.6095" font-family="Helvetica,sans-Serif" font-size="10.00" fill="#000000">&lt; dim, spacedim &gt;</text>
</a>
</g>
</g>
<!-- Node7&#45;&gt;Node8 -->
<g id="edge8" class="edge">
<title>Node7&#45;&gt;Node8</title>
<path fill="none" stroke="#191970" d="M876.8376,-807.6095C908.9698,-807.6095 946.6393,-807.6095 976.873,-807.6095"/>
<polygon fill="#191970" stroke="#191970" points="876.6161,-804.1096 866.6161,-807.6095 876.6161,-811.1096 876.6161,-804.1096"/>
</g>
<!-- Node11 -->
<g id="node12" class="node">
<title>Node11</title>
<g id="a_node12"><a xlink:href="classOpenCASCADE_1_1ArclengthProjectionLineManifold.html" target="_top" xlink:title="OpenCASCADE::ArclengthProjection\lLineManifold\&lt; dim, spacedim \&gt;">
<polygon fill="#ffffff" stroke="#000000" points="937.5,-473.6095 937.5,-503.6095 1127.5,-503.6095 1127.5,-473.6095 937.5,-473.6095"/>
<text text-anchor="start" x="945.5" y="-491.6095" font-family="Helvetica,sans-Serif" font-size="10.00" fill="#000000">OpenCASCADE::ArclengthProjection</text>
<text text-anchor="middle" x="1032.5" y="-480.6095" font-family="Helvetica,sans-Serif" font-size="10.00" fill="#000000">LineManifold&lt; dim, spacedim &gt;</text>
</a>
</g>
</g>
<!-- Node10&#45;&gt;Node11 -->
<g id="edge11" class="edge">
<title>Node10&#45;&gt;Node11</title>
<path fill="none" stroke="#191970" d="M876.7166,-488.6095C895.833,-488.6095 916.9168,-488.6095 937.2326,-488.6095"/>
<polygon fill="#191970" stroke="#191970" points="876.6161,-485.1096 866.6161,-488.6095 876.6161,-492.1096 876.6161,-485.1096"/>
</g>
<!-- Node15 -->
<g id="node16" class="node">
<title>Node15</title>
<g id="a_node16"><a xlink:href="classEllipticalManifold.html" target="_top" xlink:title="EllipticalManifold\l\&lt; dim, spacedim \&gt;">
<polygon fill="#ffffff" stroke="#000000" points="977,-944.6095 977,-974.6095 1088,-974.6095 1088,-944.6095 977,-944.6095"/>
<text text-anchor="start" x="985" y="-962.6095" font-family="Helvetica,sans-Serif" font-size="10.00" fill="#000000">EllipticalManifold</text>
<text text-anchor="middle" x="1032.5" y="-951.6095" font-family="Helvetica,sans-Serif" font-size="10.00" fill="#000000">&lt; dim, spacedim &gt;</text>
</a>
</g>
</g>
<!-- Node14&#45;&gt;Node15 -->
<g id="edge15" class="edge">
<title>Node14&#45;&gt;Node15</title>
<path fill="none" stroke="#191970" d="M883.3681,-958.2839C913.8989,-958.5553 948.4703,-958.8626 976.6347,-959.1129"/>
<polygon fill="#191970" stroke="#191970" points="883.2149,-954.7825 873.1842,-958.1934 883.1526,-961.7822 883.2149,-954.7825"/>
</g>
<!-- Node16 -->
<g id="node17" class="node">
<title>Node16</title>
<g id="a_node17"><a xlink:href="classPolarManifold.html" target="_top" xlink:title="PolarManifold\&lt; dim,\l spacedim \&gt;">
<polygon fill="#ffffff" stroke="#000000" points="974.5,-895.6095 974.5,-925.6095 1090.5,-925.6095 1090.5,-895.6095 974.5,-895.6095"/>
<text text-anchor="start" x="982.5" y="-913.6095" font-family="Helvetica,sans-Serif" font-size="10.00" fill="#000000">PolarManifold&lt; dim,</text>
<text text-anchor="middle" x="1032.5" y="-902.6095" font-family="Helvetica,sans-Serif" font-size="10.00" fill="#000000"> spacedim &gt;</text>
</a>
</g>
</g>
<!-- Node14&#45;&gt;Node16 -->
<g id="edge16" class="edge">
<title>Node14&#45;&gt;Node16</title>
<path fill="none" stroke="#191970" d="M883.1227,-941.8128C912.9082,-935.5909 946.5716,-928.559 974.3912,-922.7478"/>
<polygon fill="#191970" stroke="#191970" points="882.2572,-938.4179 873.1842,-943.8888 883.6886,-945.2701 882.2572,-938.4179"/>
</g>
<!-- Node17 -->
<g id="node18" class="node">
<title>Node17</title>
<g id="a_node18"><a xlink:href="classPolarManifold.html" target="_top" xlink:title="PolarManifold\&lt; spacedim \&gt;">
<polygon fill="#ffffff" stroke="#000000" points="1240,-767.1095 1240,-786.1095 1393,-786.1095 1393,-767.1095 1240,-767.1095"/>
<text text-anchor="middle" x="1316.5" y="-774.1095" font-family="Helvetica,sans-Serif" font-size="10.00" fill="#000000">PolarManifold&lt; spacedim &gt;</text>
</a>
</g>
</g>
<!-- Node16&#45;&gt;Node17 -->
<g id="edge17" class="edge">
<title>Node16&#45;&gt;Node17</title>
<path fill="none" stroke="#ffa500" stroke-dasharray="5,2" d="M1100.575,-896.8272C1110.9297,-893.9307 1121.3661,-890.5373 1131,-886.6095 1199.9946,-858.4806 1273.815,-807.6144 1303.2677,-786.3576"/>
<polygon fill="#ffa500" stroke="#ffa500" points="1099.4657,-893.5005 1090.7013,-899.4532 1101.2649,-900.2653 1099.4657,-893.5005"/>
<text text-anchor="middle" x="1185.5" y="-879.6095" font-family="Helvetica,sans-Serif" font-size="10.00" fill="#000000"> &lt; spacedim &gt;</text>
</g>
<!-- Node19&#45;&gt;Node17 -->
<g id="edge20" class="edge">
<title>Node19&#45;&gt;Node17</title>
<path fill="none" stroke="#191970" d="M876.9458,-761.0654C971.7663,-764.4185 1141.1869,-770.4098 1239.6979,-773.8935"/>
<polygon fill="#191970" stroke="#191970" points="877.0024,-757.5653 866.8849,-760.7096 876.755,-764.5609 877.0024,-757.5653"/>
</g>
<!-- Node21 -->
<g id="node22" class="node">
<title>Node21</title>
<g id="a_node22"><a xlink:href="classTorusManifold.html" target="_top" xlink:title="TorusManifold\&lt; dim \&gt;">
<polygon fill="#ffffff" stroke="#000000" points="970,-529.1095 970,-548.1095 1095,-548.1095 1095,-529.1095 970,-529.1095"/>
<text text-anchor="middle" x="1032.5" y="-536.1095" font-family="Helvetica,sans-Serif" font-size="10.00" fill="#000000">TorusManifold&lt; dim &gt;</text>
</a>
</g>
</g>
<!-- Node20&#45;&gt;Node21 -->
<g id="edge22" class="edge">
<title>Node20&#45;&gt;Node21</title>
<path fill="none" stroke="#191970" d="M876.8981,-538.6095C906.5701,-538.6095 940.955,-538.6095 969.8436,-538.6095"/>
<polygon fill="#191970" stroke="#191970" points="876.6161,-535.1096 866.6161,-538.6095 876.6161,-542.1096 876.6161,-535.1096"/>
</g>
<!-- Node23 -->
<g id="node24" class="node">
<title>Node23</title>
<g id="a_node24"><a xlink:href="classTensorProductManifold.html" target="_top" xlink:title="Tensor product manifold of two ChartManifolds. è¿™ä¸ªæµå½¢å°†ç»“åˆæž„é€ å‡½æ•°ä¸­ç»™å‡ºçš„ChartManifold A å’Œ B ï¼ŒéÂ€...">
<polygon fill="#ffffff" stroke="#000000" points="956.5,-401.6095 956.5,-453.6095 1108.5,-453.6095 1108.5,-401.6095 956.5,-401.6095"/>
<text text-anchor="start" x="964.5" y="-441.6095" font-family="Helvetica,sans-Serif" font-size="10.00" fill="#000000">TensorProductManifold</text>
<text text-anchor="start" x="964.5" y="-430.6095" font-family="Helvetica,sans-Serif" font-size="10.00" fill="#000000">&lt; dim, dim_A, spacedim</text>
<text text-anchor="start" x="964.5" y="-419.6095" font-family="Helvetica,sans-Serif" font-size="10.00" fill="#000000">_A, chartdim_A, dim_B,</text>
<text text-anchor="middle" x="1032.5" y="-408.6095" font-family="Helvetica,sans-Serif" font-size="10.00" fill="#000000"> spacedim_B, chartdim_B &gt;</text>
</a>
</g>
</g>
<!-- Node22&#45;&gt;Node23 -->
<g id="edge24" class="edge">
<title>Node22&#45;&gt;Node23</title>
<path fill="none" stroke="#191970" d="M900.0198,-427.6095C918.7566,-427.6095 938.2573,-427.6095 956.3522,-427.6095"/>
<polygon fill="#191970" stroke="#191970" points="900.0041,-424.1096 890.0041,-427.6095 900.004,-431.1096 900.0041,-424.1096"/>
</g>
<!-- Node25 -->
<g id="node26" class="node">
<title>Node25</title>
<g id="a_node26"><a xlink:href="classOpenCASCADE_1_1DirectionalProjectionManifold.html" target="_top" xlink:title="OpenCASCADE::Directional\lProjectionManifold\&lt; dim,\l spacedim \&gt;">
<polygon fill="#ffffff" stroke="#000000" points="733.5,-244.1095 733.5,-285.1095 881.5,-285.1095 881.5,-244.1095 733.5,-244.1095"/>
<text text-anchor="start" x="741.5" y="-273.1095" font-family="Helvetica,sans-Serif" font-size="10.00" fill="#000000">OpenCASCADE::Directional</text>
<text text-anchor="start" x="741.5" y="-262.1095" font-family="Helvetica,sans-Serif" font-size="10.00" fill="#000000">ProjectionManifold&lt; dim,</text>
<text text-anchor="middle" x="807.5" y="-251.1095" font-family="Helvetica,sans-Serif" font-size="10.00" fill="#000000"> spacedim &gt;</text>
</a>
</g>
</g>
<!-- Node24&#45;&gt;Node25 -->
<g id="edge37" class="edge">
<title>Node24&#45;&gt;Node25</title>
<path fill="none" stroke="#191970" d="M508.6229,-224.7928C560.4837,-231.3567 634.9188,-240.8827 700,-249.6095 710.8326,-251.0621 722.2747,-252.6264 733.4941,-254.1773"/>
<polygon fill="#191970" stroke="#191970" points="508.9213,-221.3028 498.5612,-223.5207 508.0432,-228.2475 508.9213,-221.3028"/>
</g>
<!-- Node26 -->
<g id="node27" class="node">
<title>Node26</title>
<g id="a_node27"><a xlink:href="classOpenCASCADE_1_1NormalProjectionManifold.html" target="_top" xlink:title="OpenCASCADE::NormalProjection\lManifold\&lt; dim, spacedim \&gt;">
<polygon fill="#ffffff" stroke="#000000" points="718,-194.6095 718,-224.6095 897,-224.6095 897,-194.6095 718,-194.6095"/>
<text text-anchor="start" x="726" y="-212.6095" font-family="Helvetica,sans-Serif" font-size="10.00" fill="#000000">OpenCASCADE::NormalProjection</text>
<text text-anchor="middle" x="807.5" y="-201.6095" font-family="Helvetica,sans-Serif" font-size="10.00" fill="#000000">Manifold&lt; dim, spacedim &gt;</text>
</a>
</g>
</g>
<!-- Node24&#45;&gt;Node26 -->
<g id="edge38" class="edge">
<title>Node24&#45;&gt;Node26</title>
<path fill="none" stroke="#191970" d="M508.9701,-215.3505C567.2311,-214.2301 652.9855,-212.581 717.6538,-211.3373"/>
<polygon fill="#191970" stroke="#191970" points="508.7146,-211.8547 498.7838,-215.5464 508.8492,-218.8534 508.7146,-211.8547"/>
</g>
<!-- Node27 -->
<g id="node28" class="node">
<title>Node27</title>
<g id="a_node28"><a xlink:href="classOpenCASCADE_1_1NormalToMeshProjectionManifold.html" target="_top" xlink:title="OpenCASCADE::NormalToMesh\lProjectionManifold\&lt; dim,\l spacedim \&gt;">
<polygon fill="#ffffff" stroke="#000000" points="724,-134.1095 724,-175.1095 891,-175.1095 891,-134.1095 724,-134.1095"/>
<text text-anchor="start" x="732" y="-163.1095" font-family="Helvetica,sans-Serif" font-size="10.00" fill="#000000">OpenCASCADE::NormalToMesh</text>
<text text-anchor="start" x="732" y="-152.1095" font-family="Helvetica,sans-Serif" font-size="10.00" fill="#000000">ProjectionManifold&lt; dim,</text>
<text text-anchor="middle" x="807.5" y="-141.1095" font-family="Helvetica,sans-Serif" font-size="10.00" fill="#000000"> spacedim &gt;</text>
</a>
</g>
</g>
<!-- Node24&#45;&gt;Node27 -->
<g id="edge39" class="edge">
<title>Node24&#45;&gt;Node27</title>
<path fill="none" stroke="#191970" d="M508.9206,-205.4665C569.0855,-195.2186 658.6006,-179.9715 723.9233,-168.8451"/>
<polygon fill="#191970" stroke="#191970" points="508.0541,-202.0636 498.7838,-207.1931 509.2295,-208.9642 508.0541,-202.0636"/>
</g>
<!-- Node24&#45;&gt;Node28 -->
<g id="edge40" class="edge">
<title>Node24&#45;&gt;Node28</title>
<path fill="none" stroke="#ffa500" stroke-dasharray="5,2" d="M507.8122,-201.3147C512.2902,-198.5919 516.4337,-195.3854 520,-191.6095 541.4665,-168.8813 516.0339,-145.8553 538,-123.6095 591.1474,-69.7853 679.3803,-53.6931 740.3343,-49.3436"/>
<polygon fill="#ffa500" stroke="#ffa500" points="506.1077,-198.2561 498.8525,-205.9771 509.339,-204.4657 506.1077,-198.2561"/>
<text text-anchor="middle" x="619" y="-126.6095" font-family="Helvetica,sans-Serif" font-size="10.00" fill="#000000"> &lt; chartdim, chartdim &gt;</text>
</g>
<!-- Node29 -->
<g id="node30" class="node">
<title>Node29</title>
<g id="a_node30"><a xlink:href="classFlatManifold.html" target="_top" xlink:title="FlatManifold\&lt; dim \&gt;">
<polygon fill="#ffffff" stroke="#000000" points="748.5,-89.1095 748.5,-108.1095 866.5,-108.1095 866.5,-89.1095 748.5,-89.1095"/>
<text text-anchor="middle" x="807.5" y="-96.1095" font-family="Helvetica,sans-Serif" font-size="10.00" fill="#000000">FlatManifold&lt; dim &gt;</text>
</a>
</g>
</g>
<!-- Node24&#45;&gt;Node29 -->
<g id="edge41" class="edge">
<title>Node24&#45;&gt;Node29</title>
<path fill="none" stroke="#ffa500" stroke-dasharray="5,2" d="M507.9053,-199.7582C512.2114,-197.387 516.3002,-194.6859 520,-191.6095 532.846,-180.9281 524.2418,-168.087 538,-158.6095 597.8375,-117.3896 632.0351,-162.3074 700,-136.6095 708.9934,-133.2091 709.2821,-128.6645 718,-124.6095 732.6712,-117.7856 749.5371,-112.3255 764.6445,-108.2051"/>
<polygon fill="#ffa500" stroke="#ffa500" points="506.2798,-196.6567 498.8161,-204.1763 509.34,-202.9523 506.2798,-196.6567"/>
<text text-anchor="middle" x="619" y="-161.6095" font-family="Helvetica,sans-Serif" font-size="10.00" fill="#000000"> &lt; dim &gt;</text>
</g>
<!-- Node32&#45;&gt;Node29 -->
<g id="edge46" class="edge">
<title>Node32&#45;&gt;Node29</title>
<path fill="none" stroke="#191970" d="M512.4956,-158.2478C515.1531,-156.5668 517.672,-154.6945 520,-152.6095 536.6627,-137.6863 519.7366,-118.5245 538,-105.6095 609.8433,-54.8055 721.5099,-74.8448 775.7637,-89.0752"/>
<polygon fill="#191970" stroke="#191970" points="510.7775,-155.1974 503.6008,-162.9914 514.0715,-161.3739 510.7775,-155.1974"/>
</g>
</g>
</svg>
