<?xml version="1.0" encoding="UTF-8" standalone="no"?>
<!DOCTYPE svg PUBLIC "-//W3C//DTD SVG 1.1//EN"
 "http://www.w3.org/Graphics/SVG/1.1/DTD/svg11.dtd">
<!-- Generated by graphviz version 2.40.1 (20161225.0304)
 -->
<!-- Title: TensorProductMatrixSymmetricSumBase&lt; dim, Number, n_rows_1d &gt; Pages: 1 -->
<svg width="732pt" height="100pt"
 viewBox="0.00 0.00 732.00 99.50" xmlns="http://www.w3.org/2000/svg" xmlns:xlink="http://www.w3.org/1999/xlink">
<g id="graph0" class="graph" transform="scale(1 1) rotate(0) translate(4 95.5)">
<title>TensorProductMatrixSymmetricSumBase&lt; dim, Number, n_rows_1d &gt;</title>
<polygon fill="#ffffff" stroke="transparent" points="-4,4 -4,-95.5 728,-95.5 728,4 -4,4"/>
<!-- Node0 -->
<g id="node1" class="node">
<title>Node0</title>
<polygon fill="#bfbfbf" stroke="#000000" points="0,-27.5 0,-68.5 169,-68.5 169,-27.5 0,-27.5"/>
<text text-anchor="start" x="8" y="-56.5" font-family="Helvetica,sans-Serif" font-size="10.00" fill="#000000">TensorProductMatrixSymmetric</text>
<text text-anchor="start" x="8" y="-45.5" font-family="Helvetica,sans-Serif" font-size="10.00" fill="#000000">SumBase&lt; dim, Number, n</text>
<text text-anchor="middle" x="84.5" y="-34.5" font-family="Helvetica,sans-Serif" font-size="10.00" fill="#000000">_rows_1d &gt;</text>
</g>
<!-- Node1 -->
<g id="node2" class="node">
<title>Node1</title>
<g id="a_node2"><a xlink:href="classTensorProductMatrixSymmetricSum.html" target="_top" xlink:title="TensorProductMatrixSymmetric\lSum\&lt; dim, Number, n_rows_1d \&gt;">
<polygon fill="#ffffff" stroke="#000000" points="336,-61 336,-91 518,-91 518,-61 336,-61"/>
<text text-anchor="start" x="344" y="-79" font-family="Helvetica,sans-Serif" font-size="10.00" fill="#000000">TensorProductMatrixSymmetric</text>
<text text-anchor="middle" x="427" y="-68" font-family="Helvetica,sans-Serif" font-size="10.00" fill="#000000">Sum&lt; dim, Number, n_rows_1d &gt;</text>
</a>
</g>
</g>
<!-- Node0&#45;&gt;Node1 -->
<g id="edge1" class="edge">
<title>Node0&#45;&gt;Node1</title>
<path fill="none" stroke="#191970" d="M179.2848,-61.2133C181.8827,-61.4896 184.4583,-61.7527 187,-62 236.1226,-66.7802 291.0718,-70.1314 335.9839,-72.3539"/>
<polygon fill="#191970" stroke="#191970" points="179.5049,-57.7163 169.1789,-60.0876 178.7299,-64.6733 179.5049,-57.7163"/>
</g>
<!-- Node2 -->
<g id="node3" class="node">
<title>Node2</title>
<g id="a_node3"><a xlink:href="classTensorProductMatrixSymmetricSumBase.html" target="_top" xlink:title="TensorProductMatrixSymmetric\lSumBase\&lt; dim, VectorizedArray\l\&lt; Number \&gt;, n_rows_1d \&gt;">
<polygon fill="#ffffff" stroke="#000000" points="339,-.5 339,-41.5 515,-41.5 515,-.5 339,-.5"/>
<text text-anchor="start" x="347" y="-29.5" font-family="Helvetica,sans-Serif" font-size="10.00" fill="#000000">TensorProductMatrixSymmetric</text>
<text text-anchor="start" x="347" y="-18.5" font-family="Helvetica,sans-Serif" font-size="10.00" fill="#000000">SumBase&lt; dim, VectorizedArray</text>
<text text-anchor="middle" x="427" y="-7.5" font-family="Helvetica,sans-Serif" font-size="10.00" fill="#000000">&lt; Number &gt;, n_rows_1d &gt;</text>
</a>
</g>
</g>
<!-- Node0&#45;&gt;Node2 -->
<g id="edge2" class="edge">
<title>Node0&#45;&gt;Node2</title>
<path fill="none" stroke="#ffa500" stroke-dasharray="5,2" d="M179.3109,-40.5259C229.1968,-36.5932 289.971,-31.8023 338.8342,-27.9503"/>
<polygon fill="#ffa500" stroke="#ffa500" points="178.8569,-37.0507 169.1629,-41.3258 179.4071,-44.029 178.8569,-37.0507"/>
<text text-anchor="start" x="187" y="-54" font-family="Helvetica,sans-Serif" font-size="10.00" fill="#000000"> &lt; dim, VectorizedArray</text>
<text text-anchor="middle" x="252.5" y="-43" font-family="Helvetica,sans-Serif" font-size="10.00" fill="#000000">&lt; Number &gt;, n_rows_1d &gt;</text>
</g>
<!-- Node3 -->
<g id="node4" class="node">
<title>Node3</title>
<g id="a_node4"><a xlink:href="classTensorProductMatrixSymmetricSum_3_01dim_00_01VectorizedArray_3_01Number_01_4_00_01n__rows__1d_01_4.html" target="_top" xlink:title="TensorProductMatrixSymmetric\lSum\&lt; dim, VectorizedArray\l\&lt; Number \&gt;, n_rows_1d \&gt;">
<polygon fill="#ffffff" stroke="#000000" points="555,-.5 555,-41.5 724,-41.5 724,-.5 555,-.5"/>
<text text-anchor="start" x="563" y="-29.5" font-family="Helvetica,sans-Serif" font-size="10.00" fill="#000000">TensorProductMatrixSymmetric</text>
<text text-anchor="start" x="563" y="-18.5" font-family="Helvetica,sans-Serif" font-size="10.00" fill="#000000">Sum&lt; dim, VectorizedArray</text>
<text text-anchor="middle" x="639.5" y="-7.5" font-family="Helvetica,sans-Serif" font-size="10.00" fill="#000000">&lt; Number &gt;, n_rows_1d &gt;</text>
</a>
</g>
</g>
<!-- Node2&#45;&gt;Node3 -->
<g id="edge3" class="edge">
<title>Node2&#45;&gt;Node3</title>
<path fill="none" stroke="#191970" d="M525.4764,-21C535.3122,-21 545.2373,-21 554.9121,-21"/>
<polygon fill="#191970" stroke="#191970" points="525.2731,-17.5001 515.273,-21 525.273,-24.5001 525.2731,-17.5001"/>
</g>
</g>
</svg>
