<?xml version="1.0" encoding="UTF-8" standalone="no"?>
<!DOCTYPE svg PUBLIC "-//W3C//DTD SVG 1.1//EN"
 "http://www.w3.org/Graphics/SVG/1.1/DTD/svg11.dtd">
<!-- Generated by graphviz version 2.40.1 (20161225.0304)
 -->
<!-- Title: WorkStream::internal::tbb_no_coloring::TBBWorker&lt; Iterator, ScratchData, CopyData &gt; Pages: 1 -->
<svg width="238pt" height="226pt"
 viewBox="0.00 0.00 237.50 226.00" xmlns="http://www.w3.org/2000/svg" xmlns:xlink="http://www.w3.org/1999/xlink">
<g id="graph0" class="graph" transform="scale(1 1) rotate(0) translate(4 222)">
<title>WorkStream::internal::tbb_no_coloring::TBBWorker&lt; Iterator, ScratchData, CopyData &gt;</title>
<polygon fill="#ffffff" stroke="transparent" points="-4,4 -4,-222 233.5,-222 233.5,4 -4,4"/>
<!-- Node2 -->
<g id="node1" class="node">
<title>Node2</title>
<polygon fill="#bfbfbf" stroke="#000000" points="25.5,-.5 25.5,-90.5 201.5,-90.5 201.5,-.5 25.5,-.5"/>
<text text-anchor="start" x="33.5" y="-78.5" font-family="Helvetica,sans-Serif" font-size="10.00" fill="#000000">WorkStream::internal</text>
<text text-anchor="start" x="33.5" y="-67.5" font-family="Helvetica,sans-Serif" font-size="10.00" fill="#000000">::tbb_no_coloring::TBBWorker</text>
<text text-anchor="middle" x="113.5" y="-56.5" font-family="Helvetica,sans-Serif" font-size="10.00" fill="#000000">&lt; Iterator, ScratchData, CopyData &gt;</text>
<polyline fill="none" stroke="#000000" points="25.5,-49.5 201.5,-49.5 "/>
<text text-anchor="middle" x="113.5" y="-37.5" font-family="Helvetica,sans-Serif" font-size="10.00" fill="#000000"> </text>
<polyline fill="none" stroke="#000000" points="25.5,-30.5 201.5,-30.5 "/>
<text text-anchor="start" x="33.5" y="-18.5" font-family="Helvetica,sans-Serif" font-size="10.00" fill="#000000">+ TBBWorker()</text>
<text text-anchor="start" x="33.5" y="-7.5" font-family="Helvetica,sans-Serif" font-size="10.00" fill="#000000">+ operator()()</text>
</g>
<!-- Node3 -->
<g id="node2" class="node">
<title>Node3</title>
<polygon fill="#ffffff" stroke="#bfbfbf" points="0,-149.5 0,-206.5 35,-206.5 35,-149.5 0,-149.5"/>
<text text-anchor="middle" x="17.5" y="-194.5" font-family="Helvetica,sans-Serif" font-size="10.00" fill="#000000">filter</text>
<polyline fill="none" stroke="#bfbfbf" points="0,-187.5 35,-187.5 "/>
<text text-anchor="middle" x="17.5" y="-175.5" font-family="Helvetica,sans-Serif" font-size="10.00" fill="#000000"> </text>
<polyline fill="none" stroke="#bfbfbf" points="0,-168.5 35,-168.5 "/>
<text text-anchor="middle" x="17.5" y="-156.5" font-family="Helvetica,sans-Serif" font-size="10.00" fill="#000000"> </text>
</g>
<!-- Node3&#45;&gt;Node2 -->
<g id="edge1" class="edge">
<title>Node3&#45;&gt;Node2</title>
<path fill="none" stroke="#191970" d="M40.8932,-141.7557C41.7667,-140.4839 42.6374,-139.2287 43.5,-138 54.493,-122.3414 66.9668,-105.5662 78.3086,-90.6594"/>
<polygon fill="none" stroke="#191970" points="37.8316,-140.036 35.1474,-150.2852 43.6372,-143.9469 37.8316,-140.036"/>
</g>
<!-- Node4 -->
<g id="node3" class="node">
<title>Node4</title>
<polygon fill="#ffffff" stroke="#bfbfbf" points="53,-138.5 53,-217.5 174,-217.5 174,-138.5 53,-138.5"/>
<text text-anchor="start" x="61" y="-205.5" font-family="Helvetica,sans-Serif" font-size="10.00" fill="#000000">function&lt; void(const</text>
<text text-anchor="start" x="61" y="-194.5" font-family="Helvetica,sans-Serif" font-size="10.00" fill="#000000"> Iterator &amp;, ScratchData</text>
<text text-anchor="middle" x="113.5" y="-183.5" font-family="Helvetica,sans-Serif" font-size="10.00" fill="#000000"> &amp;, CopyData &amp;)&gt;</text>
<polyline fill="none" stroke="#bfbfbf" points="53,-176.5 174,-176.5 "/>
<text text-anchor="middle" x="113.5" y="-164.5" font-family="Helvetica,sans-Serif" font-size="10.00" fill="#000000"> </text>
<polyline fill="none" stroke="#bfbfbf" points="53,-157.5 174,-157.5 "/>
<text text-anchor="middle" x="113.5" y="-145.5" font-family="Helvetica,sans-Serif" font-size="10.00" fill="#000000"> </text>
</g>
<!-- Node4&#45;&gt;Node2 -->
<g id="edge2" class="edge">
<title>Node4&#45;&gt;Node2</title>
<path fill="none" stroke="#404040" d="M113.5,-138.2456C113.5,-127.1568 113.5,-114.8824 113.5,-102.9911"/>
<polygon fill="none" stroke="#404040" points="113.5001,-102.8036 109.5,-96.8037 113.5,-90.8036 117.5,-96.8036 113.5001,-102.8036"/>
<text text-anchor="middle" x="131.5" y="-112" font-family="Helvetica,sans-Serif" font-size="10.00" fill="#000000"> &#45;worker</text>
</g>
<!-- Node5 -->
<g id="node4" class="node">
<title>Node5</title>
<g id="a_node4"><a xlink:href="classbool.html" target="_top" xlink:title="{bool\n||}">
<polygon fill="#ffffff" stroke="#000000" points="192,-149.5 192,-206.5 227,-206.5 227,-149.5 192,-149.5"/>
<text text-anchor="middle" x="209.5" y="-194.5" font-family="Helvetica,sans-Serif" font-size="10.00" fill="#000000">bool</text>
<polyline fill="none" stroke="#000000" points="192,-187.5 227,-187.5 "/>
<text text-anchor="middle" x="209.5" y="-175.5" font-family="Helvetica,sans-Serif" font-size="10.00" fill="#000000"> </text>
<polyline fill="none" stroke="#000000" points="192,-168.5 227,-168.5 "/>
<text text-anchor="middle" x="209.5" y="-156.5" font-family="Helvetica,sans-Serif" font-size="10.00" fill="#000000"> </text>
</a>
</g>
</g>
<!-- Node5&#45;&gt;Node2 -->
<g id="edge3" class="edge">
<title>Node5&#45;&gt;Node2</title>
<path fill="none" stroke="#404040" d="M191.8526,-150.2852C189.1043,-146.1351 186.2602,-141.9317 183.5,-138 174.8259,-125.6444 165.2297,-112.5935 155.9952,-100.314"/>
<polygon fill="none" stroke="#404040" points="155.9312,-100.2294 149.1213,-97.8577 148.6914,-90.6594 155.5013,-93.0311 155.9312,-100.2294"/>
<text text-anchor="middle" x="200" y="-112" font-family="Helvetica,sans-Serif" font-size="10.00" fill="#000000"> &#45;copier_exist</text>
</g>
</g>
</svg>
