<?xml version="1.0" encoding="UTF-8" standalone="no"?>
<!DOCTYPE svg PUBLIC "-//W3C//DTD SVG 1.1//EN"
 "http://www.w3.org/Graphics/SVG/1.1/DTD/svg11.dtd">
<!-- Generated by graphviz version 2.40.1 (20161225.0304)
 -->
<!-- Title: FEInterfaceViews::Scalar&lt; dim, spacedim &gt; Pages: 1 -->
<svg width="261pt" height="419pt"
 viewBox="0.00 0.00 260.50 419.00" xmlns="http://www.w3.org/2000/svg" xmlns:xlink="http://www.w3.org/1999/xlink">
<g id="graph0" class="graph" transform="scale(1 1) rotate(0) translate(4 415)">
<title>FEInterfaceViews::Scalar&lt; dim, spacedim &gt;</title>
<polygon fill="#ffffff" stroke="transparent" points="-4,4 -4,-415 256.5,-415 256.5,4 -4,4"/>
<!-- Node2 -->
<g id="node1" class="node">
<title>Node2</title>
<polygon fill="#bfbfbf" stroke="#000000" points="63.5,-.5 63.5,-156.5 191.5,-156.5 191.5,-.5 63.5,-.5"/>
<text text-anchor="start" x="71.5" y="-144.5" font-family="Helvetica,sans-Serif" font-size="10.00" fill="#000000">FEInterfaceViews::Scalar</text>
<text text-anchor="middle" x="127.5" y="-133.5" font-family="Helvetica,sans-Serif" font-size="10.00" fill="#000000">&lt; dim, spacedim &gt;</text>
<polyline fill="none" stroke="#000000" points="63.5,-126.5 191.5,-126.5 "/>
<text text-anchor="middle" x="127.5" y="-114.5" font-family="Helvetica,sans-Serif" font-size="10.00" fill="#000000"> </text>
<polyline fill="none" stroke="#000000" points="63.5,-107.5 191.5,-107.5 "/>
<text text-anchor="start" x="71.5" y="-95.5" font-family="Helvetica,sans-Serif" font-size="10.00" fill="#000000">+ Scalar()</text>
<text text-anchor="start" x="71.5" y="-84.5" font-family="Helvetica,sans-Serif" font-size="10.00" fill="#000000">+ value()</text>
<text text-anchor="start" x="71.5" y="-73.5" font-family="Helvetica,sans-Serif" font-size="10.00" fill="#000000">+ jump()</text>
<text text-anchor="start" x="71.5" y="-62.5" font-family="Helvetica,sans-Serif" font-size="10.00" fill="#000000">+ average()</text>
<text text-anchor="start" x="71.5" y="-51.5" font-family="Helvetica,sans-Serif" font-size="10.00" fill="#000000">+ average_gradient()</text>
<text text-anchor="start" x="71.5" y="-40.5" font-family="Helvetica,sans-Serif" font-size="10.00" fill="#000000">+ jump_gradient()</text>
<text text-anchor="start" x="71.5" y="-29.5" font-family="Helvetica,sans-Serif" font-size="10.00" fill="#000000">+ average_hessian()</text>
<text text-anchor="start" x="71.5" y="-18.5" font-family="Helvetica,sans-Serif" font-size="10.00" fill="#000000">+ jump_hessian()</text>
<text text-anchor="start" x="71.5" y="-7.5" font-family="Helvetica,sans-Serif" font-size="10.00" fill="#000000">+ jump_3rd_derivative()</text>
</g>
<!-- Node3 -->
<g id="node2" class="node">
<title>Node3</title>
<g id="a_node2"><a xlink:href="classFEInterfaceViews_1_1Base.html" target="_top" xlink:title="{FEInterfaceViews::Base\l\&lt; dim, spacedim \&gt;\n||+ Base()\l}">
<polygon fill="#ffffff" stroke="#000000" points="1,-215.5 1,-283.5 124,-283.5 124,-215.5 1,-215.5"/>
<text text-anchor="start" x="9" y="-271.5" font-family="Helvetica,sans-Serif" font-size="10.00" fill="#000000">FEInterfaceViews::Base</text>
<text text-anchor="middle" x="62.5" y="-260.5" font-family="Helvetica,sans-Serif" font-size="10.00" fill="#000000">&lt; dim, spacedim &gt;</text>
<polyline fill="none" stroke="#000000" points="1,-253.5 124,-253.5 "/>
<text text-anchor="middle" x="62.5" y="-241.5" font-family="Helvetica,sans-Serif" font-size="10.00" fill="#000000"> </text>
<polyline fill="none" stroke="#000000" points="1,-234.5 124,-234.5 "/>
<text text-anchor="start" x="9" y="-222.5" font-family="Helvetica,sans-Serif" font-size="10.00" fill="#000000">+ Base()</text>
</a>
</g>
</g>
<!-- Node3&#45;&gt;Node2 -->
<g id="edge1" class="edge">
<title>Node3&#45;&gt;Node2</title>
<path fill="none" stroke="#191970" d="M79.0975,-205.8357C84.7805,-190.8853 91.3243,-173.67 97.726,-156.8285"/>
<polygon fill="none" stroke="#191970" points="75.7791,-204.7155 75.4975,-215.3066 82.3223,-207.2027 75.7791,-204.7155"/>
</g>
<!-- Node4 -->
<g id="node3" class="node">
<title>Node4</title>
<polygon fill="#ffffff" stroke="#bfbfbf" points="0,-342.5 0,-410.5 125,-410.5 125,-342.5 0,-342.5"/>
<text text-anchor="start" x="8" y="-398.5" font-family="Helvetica,sans-Serif" font-size="10.00" fill="#000000">const FEInterfaceValues</text>
<text text-anchor="middle" x="62.5" y="-387.5" font-family="Helvetica,sans-Serif" font-size="10.00" fill="#000000">&lt; dim, spacedim &gt; *</text>
<polyline fill="none" stroke="#bfbfbf" points="0,-380.5 125,-380.5 "/>
<text text-anchor="middle" x="62.5" y="-368.5" font-family="Helvetica,sans-Serif" font-size="10.00" fill="#000000"> </text>
<polyline fill="none" stroke="#bfbfbf" points="0,-361.5 125,-361.5 "/>
<text text-anchor="middle" x="62.5" y="-349.5" font-family="Helvetica,sans-Serif" font-size="10.00" fill="#000000"> </text>
</g>
<!-- Node4&#45;&gt;Node3 -->
<g id="edge2" class="edge">
<title>Node4&#45;&gt;Node3</title>
<path fill="none" stroke="#404040" d="M62.5,-342.4663C62.5,-328.0883 62.5,-311.1205 62.5,-295.6429"/>
<polygon fill="none" stroke="#404040" points="62.5001,-295.6276 58.5,-289.6276 62.5,-283.6276 66.5,-289.6276 62.5001,-295.6276"/>
<text text-anchor="middle" x="92.5" y="-316" font-family="Helvetica,sans-Serif" font-size="10.00" fill="#000000"> #fe_interface</text>
</g>
<!-- Node5 -->
<g id="node4" class="node">
<title>Node5</title>
<g id="a_node4"><a xlink:href="structFEValuesExtractors_1_1Scalar.html" target="_top" xlink:title="{FEValuesExtractors\l::Scalar\n||+ Scalar()\l+ Scalar()\l+ get_name()\l}">
<polygon fill="#ffffff" stroke="#000000" points="142.5,-204.5 142.5,-294.5 246.5,-294.5 246.5,-204.5 142.5,-204.5"/>
<text text-anchor="start" x="150.5" y="-282.5" font-family="Helvetica,sans-Serif" font-size="10.00" fill="#000000">FEValuesExtractors</text>
<text text-anchor="middle" x="194.5" y="-271.5" font-family="Helvetica,sans-Serif" font-size="10.00" fill="#000000">::Scalar</text>
<polyline fill="none" stroke="#000000" points="142.5,-264.5 246.5,-264.5 "/>
<text text-anchor="middle" x="194.5" y="-252.5" font-family="Helvetica,sans-Serif" font-size="10.00" fill="#000000"> </text>
<polyline fill="none" stroke="#000000" points="142.5,-245.5 246.5,-245.5 "/>
<text text-anchor="start" x="150.5" y="-233.5" font-family="Helvetica,sans-Serif" font-size="10.00" fill="#000000">+ Scalar()</text>
<text text-anchor="start" x="150.5" y="-222.5" font-family="Helvetica,sans-Serif" font-size="10.00" fill="#000000">+ Scalar()</text>
<text text-anchor="start" x="150.5" y="-211.5" font-family="Helvetica,sans-Serif" font-size="10.00" fill="#000000">+ get_name()</text>
</a>
</g>
</g>
<!-- Node5&#45;&gt;Node2 -->
<g id="edge3" class="edge">
<title>Node5&#45;&gt;Node2</title>
<path fill="none" stroke="#404040" d="M176.7211,-204.1241C172.3579,-192.9882 167.5346,-180.6779 162.6642,-168.2476"/>
<polygon fill="none" stroke="#404040" points="162.5679,-168.0015 156.6547,-163.8742 158.1901,-156.8285 164.1033,-160.9557 162.5679,-168.0015"/>
<text text-anchor="middle" x="192" y="-178" font-family="Helvetica,sans-Serif" font-size="10.00" fill="#000000"> &#45;extractor</text>
</g>
<!-- Node6 -->
<g id="node5" class="node">
<title>Node6</title>
<polygon fill="#ffffff" stroke="#bfbfbf" points="166.5,-348 166.5,-405 222.5,-405 222.5,-348 166.5,-348"/>
<text text-anchor="middle" x="194.5" y="-393" font-family="Helvetica,sans-Serif" font-size="10.00" fill="#000000">unsigned</text>
<polyline fill="none" stroke="#bfbfbf" points="166.5,-386 222.5,-386 "/>
<text text-anchor="middle" x="194.5" y="-374" font-family="Helvetica,sans-Serif" font-size="10.00" fill="#000000"> </text>
<polyline fill="none" stroke="#bfbfbf" points="166.5,-367 222.5,-367 "/>
<text text-anchor="middle" x="194.5" y="-355" font-family="Helvetica,sans-Serif" font-size="10.00" fill="#000000"> </text>
</g>
<!-- Node6&#45;&gt;Node5 -->
<g id="edge4" class="edge">
<title>Node6&#45;&gt;Node5</title>
<path fill="none" stroke="#404040" d="M194.5,-347.9987C194.5,-335.8942 194.5,-321.3221 194.5,-307.1429"/>
<polygon fill="none" stroke="#404040" points="194.5001,-306.8554 190.5,-300.8555 194.5,-294.8554 198.5,-300.8554 194.5001,-306.8554"/>
<text text-anchor="middle" x="223.5" y="-316" font-family="Helvetica,sans-Serif" font-size="10.00" fill="#000000"> +component</text>
</g>
</g>
</svg>
