<?xml version="1.0" encoding="UTF-8" standalone="no"?>
<!DOCTYPE svg PUBLIC "-//W3C//DTD SVG 1.1//EN"
 "http://www.w3.org/Graphics/SVG/1.1/DTD/svg11.dtd">
<!-- Generated by graphviz version 2.40.1 (20161225.0304)
 -->
<!-- Title: hp::FEValues&lt; dim, spacedim &gt; Pages: 1 -->
<svg width="190pt" height="207pt"
 viewBox="0.00 0.00 189.50 207.00" xmlns="http://www.w3.org/2000/svg" xmlns:xlink="http://www.w3.org/1999/xlink">
<g id="graph0" class="graph" transform="scale(1 1) rotate(0) translate(4 203)">
<title>hp::FEValues&lt; dim, spacedim &gt;</title>
<polygon fill="#ffffff" stroke="transparent" points="-4,4 -4,-203 185.5,-203 185.5,4 -4,4"/>
<!-- Node0 -->
<g id="node1" class="node">
<title>Node0</title>
<polygon fill="#bfbfbf" stroke="#000000" points="12,-.5 12,-30.5 123,-30.5 123,-.5 12,-.5"/>
<text text-anchor="start" x="20" y="-18.5" font-family="Helvetica,sans-Serif" font-size="10.00" fill="#000000">hp::FEValues&lt; dim,</text>
<text text-anchor="middle" x="67.5" y="-7.5" font-family="Helvetica,sans-Serif" font-size="10.00" fill="#000000"> spacedim &gt;</text>
</g>
<!-- Node1 -->
<g id="node2" class="node">
<title>Node1</title>
<g id="a_node2"><a xlink:href="classhp_1_1FEValuesBase.html" target="_top" xlink:title="hp::FEValuesBase\&lt; dim,\l dim, ::FEValues\&lt; dim,\l spacedim \&gt; \&gt;">
<polygon fill="#ffffff" stroke="#000000" points="0,-68.5 0,-109.5 135,-109.5 135,-68.5 0,-68.5"/>
<text text-anchor="start" x="8" y="-97.5" font-family="Helvetica,sans-Serif" font-size="10.00" fill="#000000">hp::FEValuesBase&lt; dim,</text>
<text text-anchor="start" x="8" y="-86.5" font-family="Helvetica,sans-Serif" font-size="10.00" fill="#000000"> dim, ::FEValues&lt; dim,</text>
<text text-anchor="middle" x="67.5" y="-75.5" font-family="Helvetica,sans-Serif" font-size="10.00" fill="#000000"> spacedim &gt; &gt;</text>
</a>
</g>
</g>
<!-- Node1&#45;&gt;Node0 -->
<g id="edge1" class="edge">
<title>Node1&#45;&gt;Node0</title>
<path fill="none" stroke="#191970" d="M67.5,-57.9048C67.5,-48.5365 67.5,-38.666 67.5,-30.8074"/>
<polygon fill="#191970" stroke="#191970" points="64.0001,-58.1344 67.5,-68.1345 71.0001,-58.1345 64.0001,-58.1344"/>
</g>
<!-- Node2 -->
<g id="node3" class="node">
<title>Node2</title>
<g id="a_node3"><a xlink:href="classhp_1_1FEValuesBase.html" target="_top" xlink:title="hp::FEValuesBase\&lt; dim,\l q_dim, FEValuesType \&gt;">
<polygon fill="#ffffff" stroke="#000000" points="0,-168.5 0,-198.5 135,-198.5 135,-168.5 0,-168.5"/>
<text text-anchor="start" x="8" y="-186.5" font-family="Helvetica,sans-Serif" font-size="10.00" fill="#000000">hp::FEValuesBase&lt; dim,</text>
<text text-anchor="middle" x="67.5" y="-175.5" font-family="Helvetica,sans-Serif" font-size="10.00" fill="#000000"> q_dim, FEValuesType &gt;</text>
</a>
</g>
</g>
<!-- Node2&#45;&gt;Node1 -->
<g id="edge2" class="edge">
<title>Node2&#45;&gt;Node1</title>
<path fill="none" stroke="#ffa500" stroke-dasharray="5,2" d="M67.5,-158.1013C67.5,-142.9736 67.5,-124.0135 67.5,-109.7823"/>
<polygon fill="#ffa500" stroke="#ffa500" points="64.0001,-158.3169 67.5,-168.3169 71.0001,-158.317 64.0001,-158.3169"/>
<text text-anchor="start" x="67.5" y="-142" font-family="Helvetica,sans-Serif" font-size="10.00" fill="#000000"> &lt; dim, dim, ::FEValues</text>
<text text-anchor="middle" x="124.5" y="-131" font-family="Helvetica,sans-Serif" font-size="10.00" fill="#000000">&lt; dim, spacedim &gt; &gt;</text>
</g>
</g>
</svg>
