<?xml version="1.0" encoding="UTF-8" standalone="no"?>
<!DOCTYPE svg PUBLIC "-//W3C//DTD SVG 1.1//EN"
 "http://www.w3.org/Graphics/SVG/1.1/DTD/svg11.dtd">
<!-- Generated by graphviz version 2.40.1 (20161225.0304)
 -->
<!-- Title: VectorFunctionFromScalarFunctionObject&lt; dim, RangeNumberType &gt; Pages: 1 -->
<svg width="1039pt" height="1098pt"
 viewBox="0.00 0.00 1039.00 1098.00" xmlns="http://www.w3.org/2000/svg" xmlns:xlink="http://www.w3.org/1999/xlink">
<g id="graph0" class="graph" transform="scale(1 1) rotate(0) translate(4 1094)">
<title>VectorFunctionFromScalarFunctionObject&lt; dim, RangeNumberType &gt;</title>
<polygon fill="#ffffff" stroke="transparent" points="-4,4 -4,-1094 1035,-1094 1035,4 -4,4"/>
<!-- Node5 -->
<g id="node1" class="node">
<title>Node5</title>
<polygon fill="#bfbfbf" stroke="#000000" points="497.5,-.5 497.5,-112.5 673.5,-112.5 673.5,-.5 497.5,-.5"/>
<text text-anchor="start" x="505.5" y="-100.5" font-family="Helvetica,sans-Serif" font-size="10.00" fill="#000000">VectorFunctionFromScalar</text>
<text text-anchor="start" x="505.5" y="-89.5" font-family="Helvetica,sans-Serif" font-size="10.00" fill="#000000">FunctionObject&lt; dim, RangeNumber</text>
<text text-anchor="middle" x="585.5" y="-78.5" font-family="Helvetica,sans-Serif" font-size="10.00" fill="#000000">Type &gt;</text>
<polyline fill="none" stroke="#000000" points="497.5,-71.5 673.5,-71.5 "/>
<text text-anchor="middle" x="585.5" y="-59.5" font-family="Helvetica,sans-Serif" font-size="10.00" fill="#000000"> </text>
<polyline fill="none" stroke="#000000" points="497.5,-52.5 673.5,-52.5 "/>
<text text-anchor="start" x="505.5" y="-40.5" font-family="Helvetica,sans-Serif" font-size="10.00" fill="#000000">+ VectorFunctionFromScalar</text>
<text text-anchor="start" x="505.5" y="-29.5" font-family="Helvetica,sans-Serif" font-size="10.00" fill="#000000">FunctionObject()</text>
<text text-anchor="start" x="505.5" y="-18.5" font-family="Helvetica,sans-Serif" font-size="10.00" fill="#000000">+ value()</text>
<text text-anchor="start" x="505.5" y="-7.5" font-family="Helvetica,sans-Serif" font-size="10.00" fill="#000000">+ vector_value()</text>
</g>
<!-- Node6 -->
<g id="node2" class="node">
<title>Node6</title>
<g id="a_node2"><a xlink:href="classFunction.html" target="_top" xlink:title="{Function\&lt; dim, RangeNumber\lType \&gt;\n||+ Function()\l+ Function()\l+ ~Function()\l+ operator=()\l+ value()\l+ vector_value()\l+ value_list()\l+ vector_value_list()\l+ vector_values()\l+ gradient()\land 13 more...\l}">
<polygon fill="#ffffff" stroke="#000000" points="346.5,-160.5 346.5,-338.5 494.5,-338.5 494.5,-160.5 346.5,-160.5"/>
<text text-anchor="start" x="354.5" y="-326.5" font-family="Helvetica,sans-Serif" font-size="10.00" fill="#000000">Function&lt; dim, RangeNumber</text>
<text text-anchor="middle" x="420.5" y="-315.5" font-family="Helvetica,sans-Serif" font-size="10.00" fill="#000000">Type &gt;</text>
<polyline fill="none" stroke="#000000" points="346.5,-308.5 494.5,-308.5 "/>
<text text-anchor="middle" x="420.5" y="-296.5" font-family="Helvetica,sans-Serif" font-size="10.00" fill="#000000"> </text>
<polyline fill="none" stroke="#000000" points="346.5,-289.5 494.5,-289.5 "/>
<text text-anchor="start" x="354.5" y="-277.5" font-family="Helvetica,sans-Serif" font-size="10.00" fill="#000000">+ Function()</text>
<text text-anchor="start" x="354.5" y="-266.5" font-family="Helvetica,sans-Serif" font-size="10.00" fill="#000000">+ Function()</text>
<text text-anchor="start" x="354.5" y="-255.5" font-family="Helvetica,sans-Serif" font-size="10.00" fill="#000000">+ ~Function()</text>
<text text-anchor="start" x="354.5" y="-244.5" font-family="Helvetica,sans-Serif" font-size="10.00" fill="#000000">+ operator=()</text>
<text text-anchor="start" x="354.5" y="-233.5" font-family="Helvetica,sans-Serif" font-size="10.00" fill="#000000">+ value()</text>
<text text-anchor="start" x="354.5" y="-222.5" font-family="Helvetica,sans-Serif" font-size="10.00" fill="#000000">+ vector_value()</text>
<text text-anchor="start" x="354.5" y="-211.5" font-family="Helvetica,sans-Serif" font-size="10.00" fill="#000000">+ value_list()</text>
<text text-anchor="start" x="354.5" y="-200.5" font-family="Helvetica,sans-Serif" font-size="10.00" fill="#000000">+ vector_value_list()</text>
<text text-anchor="start" x="354.5" y="-189.5" font-family="Helvetica,sans-Serif" font-size="10.00" fill="#000000">+ vector_values()</text>
<text text-anchor="start" x="354.5" y="-178.5" font-family="Helvetica,sans-Serif" font-size="10.00" fill="#000000">+ gradient()</text>
<text text-anchor="start" x="354.5" y="-167.5" font-family="Helvetica,sans-Serif" font-size="10.00" fill="#000000">and 13 more...</text>
</a>
</g>
</g>
<!-- Node6&#45;&gt;Node5 -->
<g id="edge1" class="edge">
<title>Node6&#45;&gt;Node5</title>
<path fill="none" stroke="#191970" d="M501.0567,-155.273C513.5142,-140.7016 526.0308,-126.061 537.4695,-112.6812"/>
<polygon fill="none" stroke="#191970" points="498.3916,-153.0043 494.5537,-162.8796 503.7122,-157.5531 498.3916,-153.0043"/>
</g>
<!-- Node7 -->
<g id="node3" class="node">
<title>Node7</title>
<g id="a_node3"><a xlink:href="classFunctionTime.html" target="_top" xlink:title="{FunctionTime\&lt; numbers\l::NumberTraits\&lt; RangeNumber\lType \&gt;::real_type \&gt;\n||+ FunctionTime()\l+ ~FunctionTime()\l+ get_time()\l+ set_time()\l+ advance_time()\l}">
<polygon fill="#ffffff" stroke="#000000" points="195.5,-448 195.5,-571 349.5,-571 349.5,-448 195.5,-448"/>
<text text-anchor="start" x="203.5" y="-559" font-family="Helvetica,sans-Serif" font-size="10.00" fill="#000000">FunctionTime&lt; numbers</text>
<text text-anchor="start" x="203.5" y="-548" font-family="Helvetica,sans-Serif" font-size="10.00" fill="#000000">::NumberTraits&lt; RangeNumber</text>
<text text-anchor="middle" x="272.5" y="-537" font-family="Helvetica,sans-Serif" font-size="10.00" fill="#000000">Type &gt;::real_type &gt;</text>
<polyline fill="none" stroke="#000000" points="195.5,-530 349.5,-530 "/>
<text text-anchor="middle" x="272.5" y="-518" font-family="Helvetica,sans-Serif" font-size="10.00" fill="#000000"> </text>
<polyline fill="none" stroke="#000000" points="195.5,-511 349.5,-511 "/>
<text text-anchor="start" x="203.5" y="-499" font-family="Helvetica,sans-Serif" font-size="10.00" fill="#000000">+ FunctionTime()</text>
<text text-anchor="start" x="203.5" y="-488" font-family="Helvetica,sans-Serif" font-size="10.00" fill="#000000">+ ~FunctionTime()</text>
<text text-anchor="start" x="203.5" y="-477" font-family="Helvetica,sans-Serif" font-size="10.00" fill="#000000">+ get_time()</text>
<text text-anchor="start" x="203.5" y="-466" font-family="Helvetica,sans-Serif" font-size="10.00" fill="#000000">+ set_time()</text>
<text text-anchor="start" x="203.5" y="-455" font-family="Helvetica,sans-Serif" font-size="10.00" fill="#000000">+ advance_time()</text>
</a>
</g>
</g>
<!-- Node7&#45;&gt;Node6 -->
<g id="edge2" class="edge">
<title>Node7&#45;&gt;Node6</title>
<path fill="none" stroke="#191970" d="M312.6787,-438.9157C330.2545,-408.0395 351.0732,-371.4659 369.7076,-338.73"/>
<polygon fill="none" stroke="#191970" points="309.4792,-437.4615 307.5739,-447.8836 315.5627,-440.9244 309.4792,-437.4615"/>
</g>
<!-- Node8 -->
<g id="node4" class="node">
<title>Node8</title>
<g id="a_node4"><a xlink:href="structnumbers_1_1NumberTraits.html" target="_top" xlink:title="{numbers::NumberTraits\l\&lt; RangeNumberType \&gt;\n||+ conjugate()\l+ abs_square()\l+ abs_square()\l+ abs()\l}">
<polygon fill="#ffffff" stroke="#000000" points="99,-712.5 99,-813.5 218,-813.5 218,-712.5 99,-712.5"/>
<text text-anchor="start" x="107" y="-801.5" font-family="Helvetica,sans-Serif" font-size="10.00" fill="#000000">numbers::NumberTraits</text>
<text text-anchor="middle" x="158.5" y="-790.5" font-family="Helvetica,sans-Serif" font-size="10.00" fill="#000000">&lt; RangeNumberType &gt;</text>
<polyline fill="none" stroke="#000000" points="99,-783.5 218,-783.5 "/>
<text text-anchor="middle" x="158.5" y="-771.5" font-family="Helvetica,sans-Serif" font-size="10.00" fill="#000000"> </text>
<polyline fill="none" stroke="#000000" points="99,-764.5 218,-764.5 "/>
<text text-anchor="start" x="107" y="-752.5" font-family="Helvetica,sans-Serif" font-size="10.00" fill="#000000">+ conjugate()</text>
<text text-anchor="start" x="107" y="-741.5" font-family="Helvetica,sans-Serif" font-size="10.00" fill="#000000">+ abs_square()</text>
<text text-anchor="start" x="107" y="-730.5" font-family="Helvetica,sans-Serif" font-size="10.00" fill="#000000">+ abs_square()</text>
<text text-anchor="start" x="107" y="-719.5" font-family="Helvetica,sans-Serif" font-size="10.00" fill="#000000">+ abs()</text>
</a>
</g>
</g>
<!-- Node8&#45;&gt;Node7 -->
<g id="edge3" class="edge">
<title>Node8&#45;&gt;Node7</title>
<path fill="none" stroke="#404040" d="M181.2956,-712.3098C198.0207,-675.1185 220.9804,-624.0633 239.6789,-582.4837"/>
<polygon fill="none" stroke="#404040" points="239.7847,-582.2484 238.5975,-575.1356 244.7064,-571.3041 245.8937,-578.4168 239.7847,-582.2484"/>
<text text-anchor="middle" x="215" y="-675" font-family="Helvetica,sans-Serif" font-size="10.00" fill="#000000"> &#45;time</text>
</g>
<!-- Node9 -->
<g id="node5" class="node">
<title>Node9</title>
<g id="a_node5"><a xlink:href="classstatic_01constexpr_01bool.html" target="_top" xlink:title="{static constexpr bool\n||}">
<polygon fill="#ffffff" stroke="#000000" points="0,-894.5 0,-951.5 107,-951.5 107,-894.5 0,-894.5"/>
<text text-anchor="middle" x="53.5" y="-939.5" font-family="Helvetica,sans-Serif" font-size="10.00" fill="#000000">static constexpr bool</text>
<polyline fill="none" stroke="#000000" points="0,-932.5 107,-932.5 "/>
<text text-anchor="middle" x="53.5" y="-920.5" font-family="Helvetica,sans-Serif" font-size="10.00" fill="#000000"> </text>
<polyline fill="none" stroke="#000000" points="0,-913.5 107,-913.5 "/>
<text text-anchor="middle" x="53.5" y="-901.5" font-family="Helvetica,sans-Serif" font-size="10.00" fill="#000000"> </text>
</a>
</g>
</g>
<!-- Node9&#45;&gt;Node8 -->
<g id="edge4" class="edge">
<title>Node9&#45;&gt;Node8</title>
<path fill="none" stroke="#404040" d="M69.5603,-894.2624C79.9395,-876.1232 93.987,-852.3563 107.5,-832 109.2919,-829.3007 111.1474,-826.562 113.0428,-823.8101"/>
<polygon fill="none" stroke="#404040" points="113.1484,-823.6595 113.3183,-816.4503 120.0383,-813.8345 119.8683,-821.0436 113.1484,-823.6595"/>
<text text-anchor="middle" x="137" y="-840.5" font-family="Helvetica,sans-Serif" font-size="10.00" fill="#000000"> +is_complex</text>
</g>
<!-- Node10 -->
<g id="node6" class="node">
<title>Node10</title>
<g id="a_node6"><a xlink:href="structnumbers_1_1NumberTraits.html" target="_top" xlink:title="{numbers::NumberTraits\l\&lt; number \&gt;\n||+ conjugate()\l+ abs_square()\l+ abs_square()\l+ abs()\l}">
<polygon fill="#ffffff" stroke="#000000" points="125,-872.5 125,-973.5 244,-973.5 244,-872.5 125,-872.5"/>
<text text-anchor="start" x="133" y="-961.5" font-family="Helvetica,sans-Serif" font-size="10.00" fill="#000000">numbers::NumberTraits</text>
<text text-anchor="middle" x="184.5" y="-950.5" font-family="Helvetica,sans-Serif" font-size="10.00" fill="#000000">&lt; number &gt;</text>
<polyline fill="none" stroke="#000000" points="125,-943.5 244,-943.5 "/>
<text text-anchor="middle" x="184.5" y="-931.5" font-family="Helvetica,sans-Serif" font-size="10.00" fill="#000000"> </text>
<polyline fill="none" stroke="#000000" points="125,-924.5 244,-924.5 "/>
<text text-anchor="start" x="133" y="-912.5" font-family="Helvetica,sans-Serif" font-size="10.00" fill="#000000">+ conjugate()</text>
<text text-anchor="start" x="133" y="-901.5" font-family="Helvetica,sans-Serif" font-size="10.00" fill="#000000">+ abs_square()</text>
<text text-anchor="start" x="133" y="-890.5" font-family="Helvetica,sans-Serif" font-size="10.00" fill="#000000">+ abs_square()</text>
<text text-anchor="start" x="133" y="-879.5" font-family="Helvetica,sans-Serif" font-size="10.00" fill="#000000">+ abs()</text>
</a>
</g>
</g>
<!-- Node10&#45;&gt;Node8 -->
<g id="edge5" class="edge">
<title>Node10&#45;&gt;Node8</title>
<path fill="none" stroke="#ffa500" d="M174.6689,-862.5011C172.0473,-846.3682 169.2426,-829.1085 166.7176,-813.5701"/>
<polygon fill="#ffa500" stroke="#ffa500" points="171.2147,-863.0659 176.2734,-872.375 178.1241,-861.9431 171.2147,-863.0659"/>
<text text-anchor="middle" x="226.5" y="-840.5" font-family="Helvetica,sans-Serif" font-size="10.00" fill="#000000"> &lt; RangeNumberType &gt;</text>
</g>
<!-- Node11 -->
<g id="node7" class="node">
<title>Node11</title>
<g id="a_node7"><a xlink:href="classbool.html" target="_top" xlink:title="{bool\n||}">
<polygon fill="#ffffff" stroke="#000000" points="167,-1027 167,-1084 202,-1084 202,-1027 167,-1027"/>
<text text-anchor="middle" x="184.5" y="-1072" font-family="Helvetica,sans-Serif" font-size="10.00" fill="#000000">bool</text>
<polyline fill="none" stroke="#000000" points="167,-1065 202,-1065 "/>
<text text-anchor="middle" x="184.5" y="-1053" font-family="Helvetica,sans-Serif" font-size="10.00" fill="#000000"> </text>
<polyline fill="none" stroke="#000000" points="167,-1046 202,-1046 "/>
<text text-anchor="middle" x="184.5" y="-1034" font-family="Helvetica,sans-Serif" font-size="10.00" fill="#000000"> </text>
</a>
</g>
</g>
<!-- Node11&#45;&gt;Node10 -->
<g id="edge6" class="edge">
<title>Node11&#45;&gt;Node10</title>
<path fill="none" stroke="#404040" d="M184.5,-1026.7495C184.5,-1014.7404 184.5,-1000.2802 184.5,-986.0201"/>
<polygon fill="none" stroke="#404040" points="184.5001,-985.6065 180.5,-979.6065 184.5,-973.6065 188.5,-979.6065 184.5001,-985.6065"/>
<text text-anchor="middle" x="214" y="-995" font-family="Helvetica,sans-Serif" font-size="10.00" fill="#000000"> +is_complex</text>
</g>
<!-- Node12 -->
<g id="node8" class="node">
<title>Node12</title>
<g id="a_node8"><a xlink:href="classFunctionTime.html" target="_top" xlink:title="{FunctionTime\&lt; Number \&gt;\n||+ FunctionTime()\l+ ~FunctionTime()\l+ get_time()\l+ set_time()\l+ advance_time()\l}">
<polygon fill="#ffffff" stroke="#000000" points="236.5,-712.5 236.5,-813.5 364.5,-813.5 364.5,-712.5 236.5,-712.5"/>
<text text-anchor="middle" x="300.5" y="-801.5" font-family="Helvetica,sans-Serif" font-size="10.00" fill="#000000">FunctionTime&lt; Number &gt;</text>
<polyline fill="none" stroke="#000000" points="236.5,-794.5 364.5,-794.5 "/>
<text text-anchor="middle" x="300.5" y="-782.5" font-family="Helvetica,sans-Serif" font-size="10.00" fill="#000000"> </text>
<polyline fill="none" stroke="#000000" points="236.5,-775.5 364.5,-775.5 "/>
<text text-anchor="start" x="244.5" y="-763.5" font-family="Helvetica,sans-Serif" font-size="10.00" fill="#000000">+ FunctionTime()</text>
<text text-anchor="start" x="244.5" y="-752.5" font-family="Helvetica,sans-Serif" font-size="10.00" fill="#000000">+ ~FunctionTime()</text>
<text text-anchor="start" x="244.5" y="-741.5" font-family="Helvetica,sans-Serif" font-size="10.00" fill="#000000">+ get_time()</text>
<text text-anchor="start" x="244.5" y="-730.5" font-family="Helvetica,sans-Serif" font-size="10.00" fill="#000000">+ set_time()</text>
<text text-anchor="start" x="244.5" y="-719.5" font-family="Helvetica,sans-Serif" font-size="10.00" fill="#000000">+ advance_time()</text>
</a>
</g>
</g>
<!-- Node12&#45;&gt;Node7 -->
<g id="edge7" class="edge">
<title>Node12&#45;&gt;Node7</title>
<path fill="none" stroke="#ffa500" d="M275.4477,-702.6001C274.7016,-699.7187 274.0444,-696.8427 273.5,-694 265.7586,-653.5738 265.5369,-607.2456 267.2363,-571.1262"/>
<polygon fill="#ffa500" stroke="#ffa500" points="272.138,-703.7534 278.2916,-712.3779 278.8594,-701.7983 272.138,-703.7534"/>
<text text-anchor="start" x="273.5" y="-686" font-family="Helvetica,sans-Serif" font-size="10.00" fill="#000000"> &lt; numbers::NumberTraits</text>
<text text-anchor="start" x="273.5" y="-675" font-family="Helvetica,sans-Serif" font-size="10.00" fill="#000000">&lt; RangeNumberType &gt;::real</text>
<text text-anchor="middle" x="336" y="-664" font-family="Helvetica,sans-Serif" font-size="10.00" fill="#000000">_type &gt;</text>
</g>
<!-- Node13 -->
<g id="node9" class="node">
<title>Node13</title>
<polygon fill="#ffffff" stroke="#bfbfbf" points="275,-894.5 275,-951.5 326,-951.5 326,-894.5 275,-894.5"/>
<text text-anchor="middle" x="300.5" y="-939.5" font-family="Helvetica,sans-Serif" font-size="10.00" fill="#000000">Number</text>
<polyline fill="none" stroke="#bfbfbf" points="275,-932.5 326,-932.5 "/>
<text text-anchor="middle" x="300.5" y="-920.5" font-family="Helvetica,sans-Serif" font-size="10.00" fill="#000000"> </text>
<polyline fill="none" stroke="#bfbfbf" points="275,-913.5 326,-913.5 "/>
<text text-anchor="middle" x="300.5" y="-901.5" font-family="Helvetica,sans-Serif" font-size="10.00" fill="#000000"> </text>
</g>
<!-- Node13&#45;&gt;Node12 -->
<g id="edge8" class="edge">
<title>Node13&#45;&gt;Node12</title>
<path fill="none" stroke="#404040" d="M300.5,-894.3952C300.5,-875.3358 300.5,-849.5272 300.5,-825.8285"/>
<polygon fill="none" stroke="#404040" points="300.5001,-825.6748 296.5,-819.6748 300.5,-813.6748 304.5,-819.6748 300.5001,-825.6748"/>
<text text-anchor="middle" x="313" y="-840.5" font-family="Helvetica,sans-Serif" font-size="10.00" fill="#000000"> &#45;time</text>
</g>
<!-- Node14 -->
<g id="node10" class="node">
<title>Node14</title>
<g id="a_node10"><a xlink:href="classSubscriptor.html" target="_top" xlink:title="{Subscriptor\n||+ Subscriptor()\l+ Subscriptor()\l+ Subscriptor()\l+ ~Subscriptor()\l+ operator=()\l+ operator=()\l+ serialize()\l+ subscribe()\l+ unsubscribe()\l+ n_subscriptions()\l+ list_subscribers()\l+ list_subscribers()\l+ ExcInUse()\l+ ExcNoSubscriber()\l&#45; check_no_subscribers()\l* subscribe()\l* unsubscribe()\l* n_subscriptions()\l* list_subscribers()\l* list_subscribers()\l}">
<polygon fill="#ffffff" stroke="#000000" points="706.5,-376.5 706.5,-642.5 832.5,-642.5 832.5,-376.5 706.5,-376.5"/>
<text text-anchor="middle" x="769.5" y="-630.5" font-family="Helvetica,sans-Serif" font-size="10.00" fill="#000000">Subscriptor</text>
<polyline fill="none" stroke="#000000" points="706.5,-623.5 832.5,-623.5 "/>
<text text-anchor="middle" x="769.5" y="-611.5" font-family="Helvetica,sans-Serif" font-size="10.00" fill="#000000"> </text>
<polyline fill="none" stroke="#000000" points="706.5,-604.5 832.5,-604.5 "/>
<text text-anchor="start" x="714.5" y="-592.5" font-family="Helvetica,sans-Serif" font-size="10.00" fill="#000000">+ Subscriptor()</text>
<text text-anchor="start" x="714.5" y="-581.5" font-family="Helvetica,sans-Serif" font-size="10.00" fill="#000000">+ Subscriptor()</text>
<text text-anchor="start" x="714.5" y="-570.5" font-family="Helvetica,sans-Serif" font-size="10.00" fill="#000000">+ Subscriptor()</text>
<text text-anchor="start" x="714.5" y="-559.5" font-family="Helvetica,sans-Serif" font-size="10.00" fill="#000000">+ ~Subscriptor()</text>
<text text-anchor="start" x="714.5" y="-548.5" font-family="Helvetica,sans-Serif" font-size="10.00" fill="#000000">+ operator=()</text>
<text text-anchor="start" x="714.5" y="-537.5" font-family="Helvetica,sans-Serif" font-size="10.00" fill="#000000">+ operator=()</text>
<text text-anchor="start" x="714.5" y="-526.5" font-family="Helvetica,sans-Serif" font-size="10.00" fill="#000000">+ serialize()</text>
<text text-anchor="start" x="714.5" y="-515.5" font-family="Helvetica,sans-Serif" font-size="10.00" fill="#000000">+ subscribe()</text>
<text text-anchor="start" x="714.5" y="-504.5" font-family="Helvetica,sans-Serif" font-size="10.00" fill="#000000">+ unsubscribe()</text>
<text text-anchor="start" x="714.5" y="-493.5" font-family="Helvetica,sans-Serif" font-size="10.00" fill="#000000">+ n_subscriptions()</text>
<text text-anchor="start" x="714.5" y="-482.5" font-family="Helvetica,sans-Serif" font-size="10.00" fill="#000000">+ list_subscribers()</text>
<text text-anchor="start" x="714.5" y="-471.5" font-family="Helvetica,sans-Serif" font-size="10.00" fill="#000000">+ list_subscribers()</text>
<text text-anchor="start" x="714.5" y="-460.5" font-family="Helvetica,sans-Serif" font-size="10.00" fill="#000000">+ ExcInUse()</text>
<text text-anchor="start" x="714.5" y="-449.5" font-family="Helvetica,sans-Serif" font-size="10.00" fill="#000000">+ ExcNoSubscriber()</text>
<text text-anchor="start" x="714.5" y="-438.5" font-family="Helvetica,sans-Serif" font-size="10.00" fill="#000000">&#45; check_no_subscribers()</text>
<text text-anchor="start" x="714.5" y="-427.5" font-family="Helvetica,sans-Serif" font-size="10.00" fill="#000000">* subscribe()</text>
<text text-anchor="start" x="714.5" y="-416.5" font-family="Helvetica,sans-Serif" font-size="10.00" fill="#000000">* unsubscribe()</text>
<text text-anchor="start" x="714.5" y="-405.5" font-family="Helvetica,sans-Serif" font-size="10.00" fill="#000000">* n_subscriptions()</text>
<text text-anchor="start" x="714.5" y="-394.5" font-family="Helvetica,sans-Serif" font-size="10.00" fill="#000000">* list_subscribers()</text>
<text text-anchor="start" x="714.5" y="-383.5" font-family="Helvetica,sans-Serif" font-size="10.00" fill="#000000">* list_subscribers()</text>
</a>
</g>
</g>
<!-- Node14&#45;&gt;Node6 -->
<g id="edge9" class="edge">
<title>Node14&#45;&gt;Node6</title>
<path fill="none" stroke="#191970" d="M697.5153,-470.0661C641.99,-438.1022 564.6073,-390.1089 503.5,-339 500.574,-336.5528 497.6492,-334.0072 494.7398,-331.3893"/>
<polygon fill="none" stroke="#191970" points="695.8157,-473.126 706.2332,-475.0565 699.2933,-467.0509 695.8157,-473.126"/>
</g>
<!-- Node15 -->
<g id="node11" class="node">
<title>Node15</title>
<polygon fill="#ffffff" stroke="#bfbfbf" points="481.5,-729 481.5,-797 591.5,-797 591.5,-729 481.5,-729"/>
<text text-anchor="start" x="489.5" y="-785" font-family="Helvetica,sans-Serif" font-size="10.00" fill="#000000">std::map&lt; std::string,</text>
<text text-anchor="middle" x="536.5" y="-774" font-family="Helvetica,sans-Serif" font-size="10.00" fill="#000000"> unsigned int &gt;</text>
<polyline fill="none" stroke="#bfbfbf" points="481.5,-767 591.5,-767 "/>
<text text-anchor="middle" x="536.5" y="-755" font-family="Helvetica,sans-Serif" font-size="10.00" fill="#000000"> </text>
<polyline fill="none" stroke="#bfbfbf" points="481.5,-748 591.5,-748 "/>
<text text-anchor="middle" x="536.5" y="-736" font-family="Helvetica,sans-Serif" font-size="10.00" fill="#000000"> </text>
</g>
<!-- Node15&#45;&gt;Node14 -->
<g id="edge10" class="edge">
<title>Node15&#45;&gt;Node14</title>
<path fill="none" stroke="#404040" d="M567.9234,-728.8119C601.1234,-692.6908 654.5919,-634.518 698.1206,-587.1595"/>
<polygon fill="none" stroke="#404040" points="698.2843,-586.9815 699.3996,-579.8571 706.4048,-578.1464 705.2896,-585.2708 698.2843,-586.9815"/>
<text text-anchor="middle" x="656" y="-675" font-family="Helvetica,sans-Serif" font-size="10.00" fill="#000000"> &#45;counter_map</text>
</g>
<!-- Node16 -->
<g id="node12" class="node">
<title>Node16</title>
<g id="a_node12"><a xlink:href="classint.html" target="_top" xlink:title="{int\n||}">
<polygon fill="#ffffff" stroke="#000000" points="410,-894.5 410,-951.5 439,-951.5 439,-894.5 410,-894.5"/>
<text text-anchor="middle" x="424.5" y="-939.5" font-family="Helvetica,sans-Serif" font-size="10.00" fill="#000000">int</text>
<polyline fill="none" stroke="#000000" points="410,-932.5 439,-932.5 "/>
<text text-anchor="middle" x="424.5" y="-920.5" font-family="Helvetica,sans-Serif" font-size="10.00" fill="#000000"> </text>
<polyline fill="none" stroke="#000000" points="410,-913.5 439,-913.5 "/>
<text text-anchor="middle" x="424.5" y="-901.5" font-family="Helvetica,sans-Serif" font-size="10.00" fill="#000000"> </text>
</a>
</g>
</g>
<!-- Node16&#45;&gt;Node6 -->
<g id="edge24" class="edge">
<title>Node16&#45;&gt;Node6</title>
<path fill="none" stroke="#404040" d="M424.3307,-894.4907C423.7823,-802.1626 422.0367,-508.2443 421.1029,-351.0179"/>
<polygon fill="none" stroke="#404040" points="421.1003,-350.5515 417.0646,-344.5754 421.0289,-338.5517 425.0645,-344.5278 421.1003,-350.5515"/>
<text text-anchor="middle" x="458.5" y="-680.5" font-family="Helvetica,sans-Serif" font-size="10.00" fill="#000000"> +dimension</text>
<text text-anchor="middle" x="458.5" y="-669.5" font-family="Helvetica,sans-Serif" font-size="10.00" fill="#000000">+n_components</text>
</g>
<!-- Node16&#45;&gt;Node15 -->
<g id="edge11" class="edge">
<title>Node16&#45;&gt;Node15</title>
<path fill="none" stroke="#404040" d="M432.1496,-894.2863C438.0161,-875.4977 447.3547,-851.0027 460.5,-832 466.9712,-822.6452 474.9401,-813.6659 483.2574,-805.4564"/>
<polygon fill="none" stroke="#404040" points="483.279,-805.436 484.8944,-798.4082 492.003,-797.1963 490.3876,-804.2242 483.279,-805.436"/>
<text text-anchor="middle" x="485" y="-840.5" font-family="Helvetica,sans-Serif" font-size="10.00" fill="#000000"> +elements</text>
</g>
<!-- Node17 -->
<g id="node13" class="node">
<title>Node17</title>
<g id="a_node13"><a xlink:title="STL class. ">
<polygon fill="#ffffff" stroke="#bfbfbf" points="464.5,-894.5 464.5,-951.5 524.5,-951.5 524.5,-894.5 464.5,-894.5"/>
<text text-anchor="middle" x="494.5" y="-939.5" font-family="Helvetica,sans-Serif" font-size="10.00" fill="#000000">std::string</text>
<polyline fill="none" stroke="#bfbfbf" points="464.5,-932.5 524.5,-932.5 "/>
<text text-anchor="middle" x="494.5" y="-920.5" font-family="Helvetica,sans-Serif" font-size="10.00" fill="#000000"> </text>
<polyline fill="none" stroke="#bfbfbf" points="464.5,-913.5 524.5,-913.5 "/>
<text text-anchor="middle" x="494.5" y="-901.5" font-family="Helvetica,sans-Serif" font-size="10.00" fill="#000000"> </text>
</a>
</g>
</g>
<!-- Node17&#45;&gt;Node15 -->
<g id="edge12" class="edge">
<title>Node17&#45;&gt;Node15</title>
<path fill="none" stroke="#404040" d="M502.0088,-894.3952C508.2365,-870.6705 517.2094,-836.4881 524.4421,-808.9349"/>
<polygon fill="none" stroke="#404040" points="524.4773,-808.8004 522.1318,-801.9814 527.5242,-797.1937 529.8697,-804.0127 524.4773,-808.8004"/>
<text text-anchor="middle" x="534" y="-840.5" font-family="Helvetica,sans-Serif" font-size="10.00" fill="#000000"> +keys</text>
</g>
<!-- Node18 -->
<g id="node14" class="node">
<title>Node18</title>
<g id="a_node14"><a xlink:title="STL class. ">
<polygon fill="#ffffff" stroke="#bfbfbf" points="447,-1021.5 447,-1089.5 542,-1089.5 542,-1021.5 447,-1021.5"/>
<text text-anchor="start" x="455" y="-1077.5" font-family="Helvetica,sans-Serif" font-size="10.00" fill="#000000">std::basic_string&lt;</text>
<text text-anchor="middle" x="494.5" y="-1066.5" font-family="Helvetica,sans-Serif" font-size="10.00" fill="#000000"> char &gt;</text>
<polyline fill="none" stroke="#bfbfbf" points="447,-1059.5 542,-1059.5 "/>
<text text-anchor="middle" x="494.5" y="-1047.5" font-family="Helvetica,sans-Serif" font-size="10.00" fill="#000000"> </text>
<polyline fill="none" stroke="#bfbfbf" points="447,-1040.5 542,-1040.5 "/>
<text text-anchor="middle" x="494.5" y="-1028.5" font-family="Helvetica,sans-Serif" font-size="10.00" fill="#000000"> </text>
</a>
</g>
</g>
<!-- Node18&#45;&gt;Node17 -->
<g id="edge13" class="edge">
<title>Node18&#45;&gt;Node17</title>
<path fill="none" stroke="#191970" d="M494.5,-1011.1227C494.5,-991.4974 494.5,-968.9876 494.5,-951.6307"/>
<polygon fill="none" stroke="#191970" points="491.0001,-1011.3779 494.5,-1021.378 498.0001,-1011.378 491.0001,-1011.3779"/>
</g>
<!-- Node19 -->
<g id="node15" class="node">
<title>Node19</title>
<g id="a_node15"><a xlink:title="STL class. ">
<polygon fill="#ffffff" stroke="#bfbfbf" points="542.5,-894.5 542.5,-951.5 634.5,-951.5 634.5,-894.5 542.5,-894.5"/>
<text text-anchor="middle" x="588.5" y="-939.5" font-family="Helvetica,sans-Serif" font-size="10.00" fill="#000000">std::map&lt; K, T &gt;</text>
<polyline fill="none" stroke="#bfbfbf" points="542.5,-932.5 634.5,-932.5 "/>
<text text-anchor="middle" x="588.5" y="-920.5" font-family="Helvetica,sans-Serif" font-size="10.00" fill="#000000"> </text>
<polyline fill="none" stroke="#bfbfbf" points="542.5,-913.5 634.5,-913.5 "/>
<text text-anchor="middle" x="588.5" y="-901.5" font-family="Helvetica,sans-Serif" font-size="10.00" fill="#000000"> </text>
</a>
</g>
</g>
<!-- Node19&#45;&gt;Node15 -->
<g id="edge14" class="edge">
<title>Node19&#45;&gt;Node15</title>
<path fill="none" stroke="#ffa500" d="M576.0351,-884.6464C567.382,-858.0216 555.9555,-822.863 547.6129,-797.1937"/>
<polygon fill="#ffa500" stroke="#ffa500" points="572.7839,-885.9667 579.2034,-894.3952 579.4411,-883.803 572.7839,-885.9667"/>
<text text-anchor="start" x="566.5" y="-846" font-family="Helvetica,sans-Serif" font-size="10.00" fill="#000000"> &lt; std::string, unsigned</text>
<text text-anchor="middle" x="617" y="-835" font-family="Helvetica,sans-Serif" font-size="10.00" fill="#000000"> int &gt;</text>
</g>
<!-- Node20 -->
<g id="node16" class="node">
<title>Node20</title>
<polygon fill="#ffffff" stroke="#bfbfbf" points="563,-1027 563,-1084 592,-1084 592,-1027 563,-1027"/>
<text text-anchor="middle" x="577.5" y="-1072" font-family="Helvetica,sans-Serif" font-size="10.00" fill="#000000">K</text>
<polyline fill="none" stroke="#bfbfbf" points="563,-1065 592,-1065 "/>
<text text-anchor="middle" x="577.5" y="-1053" font-family="Helvetica,sans-Serif" font-size="10.00" fill="#000000"> </text>
<polyline fill="none" stroke="#bfbfbf" points="563,-1046 592,-1046 "/>
<text text-anchor="middle" x="577.5" y="-1034" font-family="Helvetica,sans-Serif" font-size="10.00" fill="#000000"> </text>
</g>
<!-- Node20&#45;&gt;Node19 -->
<g id="edge15" class="edge">
<title>Node20&#45;&gt;Node19</title>
<path fill="none" stroke="#404040" d="M577.1741,-1026.6971C577.2555,-1015.8107 577.5943,-1003.3203 578.5,-992 579.23,-982.8753 580.4014,-973.1202 581.6897,-963.9034"/>
<polygon fill="none" stroke="#404040" points="581.7274,-963.6487 578.6512,-957.1267 583.4884,-951.7786 586.5646,-958.3007 581.7274,-963.6487"/>
<text text-anchor="middle" x="594" y="-995" font-family="Helvetica,sans-Serif" font-size="10.00" fill="#000000"> +keys</text>
</g>
<!-- Node21 -->
<g id="node17" class="node">
<title>Node21</title>
<polygon fill="#ffffff" stroke="#bfbfbf" points="653,-1027 653,-1084 682,-1084 682,-1027 653,-1027"/>
<text text-anchor="middle" x="667.5" y="-1072" font-family="Helvetica,sans-Serif" font-size="10.00" fill="#000000">T</text>
<polyline fill="none" stroke="#bfbfbf" points="653,-1065 682,-1065 "/>
<text text-anchor="middle" x="667.5" y="-1053" font-family="Helvetica,sans-Serif" font-size="10.00" fill="#000000"> </text>
<polyline fill="none" stroke="#bfbfbf" points="653,-1046 682,-1046 "/>
<text text-anchor="middle" x="667.5" y="-1034" font-family="Helvetica,sans-Serif" font-size="10.00" fill="#000000"> </text>
</g>
<!-- Node21&#45;&gt;Node19 -->
<g id="edge16" class="edge">
<title>Node21&#45;&gt;Node19</title>
<path fill="none" stroke="#404040" d="M652.9681,-1037.5861C645.255,-1027.6858 635.8744,-1014.9935 628.5,-1003 620.6996,-990.3137 613.1298,-975.9048 606.7125,-962.8445"/>
<polygon fill="none" stroke="#404040" points="606.5971,-962.6045 600.3908,-958.9328 601.393,-951.7916 607.5994,-955.4634 606.5971,-962.6045"/>
<text text-anchor="middle" x="653" y="-995" font-family="Helvetica,sans-Serif" font-size="10.00" fill="#000000"> +elements</text>
</g>
<!-- Node26 -->
<g id="node22" class="node">
<title>Node26</title>
<g id="a_node22"><a xlink:title="STL class. ">
<polygon fill="#ffffff" stroke="#bfbfbf" points="660,-894.5 660,-951.5 747,-951.5 747,-894.5 660,-894.5"/>
<text text-anchor="middle" x="703.5" y="-939.5" font-family="Helvetica,sans-Serif" font-size="10.00" fill="#000000">std::vector&lt; T &gt;</text>
<polyline fill="none" stroke="#bfbfbf" points="660,-932.5 747,-932.5 "/>
<text text-anchor="middle" x="703.5" y="-920.5" font-family="Helvetica,sans-Serif" font-size="10.00" fill="#000000"> </text>
<polyline fill="none" stroke="#bfbfbf" points="660,-913.5 747,-913.5 "/>
<text text-anchor="middle" x="703.5" y="-901.5" font-family="Helvetica,sans-Serif" font-size="10.00" fill="#000000"> </text>
</a>
</g>
</g>
<!-- Node21&#45;&gt;Node26 -->
<g id="edge22" class="edge">
<title>Node21&#45;&gt;Node26</title>
<path fill="none" stroke="#404040" d="M675.3115,-1026.7495C680.3356,-1008.2578 686.9388,-983.9545 692.4912,-963.5186"/>
<polygon fill="none" stroke="#404040" points="692.5574,-963.2746 690.2705,-956.4357 695.7038,-951.6944 697.9907,-958.5333 692.5574,-963.2746"/>
<text text-anchor="middle" x="708" y="-995" font-family="Helvetica,sans-Serif" font-size="10.00" fill="#000000"> +elements</text>
</g>
<!-- Node22 -->
<g id="node18" class="node">
<title>Node22</title>
<polygon fill="#ffffff" stroke="#bfbfbf" points="771.5,-734.5 771.5,-791.5 887.5,-791.5 887.5,-734.5 771.5,-734.5"/>
<text text-anchor="middle" x="829.5" y="-779.5" font-family="Helvetica,sans-Serif" font-size="10.00" fill="#000000">atomic&lt; unsigned int &gt;</text>
<polyline fill="none" stroke="#bfbfbf" points="771.5,-772.5 887.5,-772.5 "/>
<text text-anchor="middle" x="829.5" y="-760.5" font-family="Helvetica,sans-Serif" font-size="10.00" fill="#000000"> </text>
<polyline fill="none" stroke="#bfbfbf" points="771.5,-753.5 887.5,-753.5 "/>
<text text-anchor="middle" x="829.5" y="-741.5" font-family="Helvetica,sans-Serif" font-size="10.00" fill="#000000"> </text>
</g>
<!-- Node22&#45;&gt;Node14 -->
<g id="edge17" class="edge">
<title>Node22&#45;&gt;Node14</title>
<path fill="none" stroke="#404040" d="M822.7339,-734.4131C817.9102,-714.033 811.0216,-684.9288 803.7935,-654.39"/>
<polygon fill="none" stroke="#404040" points="803.7742,-654.3081 798.4997,-649.3907 801.0102,-642.6307 806.2847,-647.5481 803.7742,-654.3081"/>
<text text-anchor="middle" x="831" y="-675" font-family="Helvetica,sans-Serif" font-size="10.00" fill="#000000"> &#45;counter</text>
</g>
<!-- Node23 -->
<g id="node19" class="node">
<title>Node23</title>
<polygon fill="#ffffff" stroke="#bfbfbf" points="905.5,-734.5 905.5,-791.5 949.5,-791.5 949.5,-734.5 905.5,-734.5"/>
<text text-anchor="middle" x="927.5" y="-779.5" font-family="Helvetica,sans-Serif" font-size="10.00" fill="#000000">mutex</text>
<polyline fill="none" stroke="#bfbfbf" points="905.5,-772.5 949.5,-772.5 "/>
<text text-anchor="middle" x="927.5" y="-760.5" font-family="Helvetica,sans-Serif" font-size="10.00" fill="#000000"> </text>
<polyline fill="none" stroke="#bfbfbf" points="905.5,-753.5 949.5,-753.5 "/>
<text text-anchor="middle" x="927.5" y="-741.5" font-family="Helvetica,sans-Serif" font-size="10.00" fill="#000000"> </text>
</g>
<!-- Node23&#45;&gt;Node14 -->
<g id="edge18" class="edge">
<title>Node23&#45;&gt;Node14</title>
<path fill="none" stroke="#404040" d="M910.1908,-734.3651C905.7487,-727.06 900.9639,-719.2294 896.5,-712 878.0211,-682.0727 857.8572,-649.7652 839.1495,-619.9339"/>
<polygon fill="none" stroke="#404040" points="838.9765,-619.6581 832.3992,-616.7019 832.5983,-609.4935 839.1756,-612.4497 838.9765,-619.6581"/>
<text text-anchor="middle" x="899.5" y="-675" font-family="Helvetica,sans-Serif" font-size="10.00" fill="#000000"> &#45;mutex</text>
</g>
<!-- Node24 -->
<g id="node20" class="node">
<title>Node24</title>
<polygon fill="#ffffff" stroke="#bfbfbf" points="632,-729 632,-797 753,-797 753,-729 632,-729"/>
<text text-anchor="start" x="640" y="-785" font-family="Helvetica,sans-Serif" font-size="10.00" fill="#000000">std::vector&lt; std::atomic</text>
<text text-anchor="middle" x="692.5" y="-774" font-family="Helvetica,sans-Serif" font-size="10.00" fill="#000000">&lt; bool &gt; *&gt;</text>
<polyline fill="none" stroke="#bfbfbf" points="632,-767 753,-767 "/>
<text text-anchor="middle" x="692.5" y="-755" font-family="Helvetica,sans-Serif" font-size="10.00" fill="#000000"> </text>
<polyline fill="none" stroke="#bfbfbf" points="632,-748 753,-748 "/>
<text text-anchor="middle" x="692.5" y="-736" font-family="Helvetica,sans-Serif" font-size="10.00" fill="#000000"> </text>
</g>
<!-- Node24&#45;&gt;Node14 -->
<g id="edge19" class="edge">
<title>Node24&#45;&gt;Node14</title>
<path fill="none" stroke="#404040" d="M702.8846,-728.8119C708.9459,-708.8567 717.0515,-682.1713 725.5182,-654.2972"/>
<polygon fill="none" stroke="#404040" points="725.5462,-654.2047 723.4627,-647.3011 729.0339,-642.7227 731.1174,-649.6263 725.5462,-654.2047"/>
<text text-anchor="middle" x="760" y="-675" font-family="Helvetica,sans-Serif" font-size="10.00" fill="#000000"> &#45;validity_pointers</text>
</g>
<!-- Node25 -->
<g id="node21" class="node">
<title>Node25</title>
<polygon fill="#ffffff" stroke="#bfbfbf" points="792,-894.5 792,-951.5 881,-951.5 881,-894.5 792,-894.5"/>
<text text-anchor="middle" x="836.5" y="-939.5" font-family="Helvetica,sans-Serif" font-size="10.00" fill="#000000">atomic&lt; bool &gt; *</text>
<polyline fill="none" stroke="#bfbfbf" points="792,-932.5 881,-932.5 "/>
<text text-anchor="middle" x="836.5" y="-920.5" font-family="Helvetica,sans-Serif" font-size="10.00" fill="#000000"> </text>
<polyline fill="none" stroke="#bfbfbf" points="792,-913.5 881,-913.5 "/>
<text text-anchor="middle" x="836.5" y="-901.5" font-family="Helvetica,sans-Serif" font-size="10.00" fill="#000000"> </text>
</g>
<!-- Node25&#45;&gt;Node24 -->
<g id="edge20" class="edge">
<title>Node25&#45;&gt;Node24</title>
<path fill="none" stroke="#404040" d="M835.6993,-894.2698C833.6794,-874.5022 827.9501,-848.868 812.5,-832 796.5474,-814.5833 783.3659,-825.0654 762.5,-814 756.7713,-810.962 750.9863,-807.5003 745.3265,-803.8439"/>
<polygon fill="none" stroke="#404040" points="745.2669,-803.8038 738.0559,-803.7705 735.3131,-797.1014 742.5242,-797.1347 745.2669,-803.8038"/>
<text text-anchor="middle" x="850" y="-840.5" font-family="Helvetica,sans-Serif" font-size="10.00" fill="#000000"> +elements</text>
</g>
<!-- Node26&#45;&gt;Node24 -->
<g id="edge21" class="edge">
<title>Node26&#45;&gt;Node24</title>
<path fill="none" stroke="#ffa500" d="M700.839,-884.294C699.0115,-857.712 696.6078,-822.7499 694.8508,-797.1937"/>
<polygon fill="#ffa500" stroke="#ffa500" points="697.3557,-884.6588 701.5334,-894.3952 704.3392,-884.1787 697.3557,-884.6588"/>
<text text-anchor="middle" x="753.5" y="-840.5" font-family="Helvetica,sans-Serif" font-size="10.00" fill="#000000"> &lt; std::atomic&lt; bool &gt; *&gt;</text>
</g>
<!-- Node27 -->
<g id="node23" class="node">
<title>Node27</title>
<polygon fill="#ffffff" stroke="#bfbfbf" points="968,-734.5 968,-791.5 1031,-791.5 1031,-734.5 968,-734.5"/>
<text text-anchor="middle" x="999.5" y="-779.5" font-family="Helvetica,sans-Serif" font-size="10.00" fill="#000000">type_info *</text>
<polyline fill="none" stroke="#bfbfbf" points="968,-772.5 1031,-772.5 "/>
<text text-anchor="middle" x="999.5" y="-760.5" font-family="Helvetica,sans-Serif" font-size="10.00" fill="#000000"> </text>
<polyline fill="none" stroke="#bfbfbf" points="968,-753.5 1031,-753.5 "/>
<text text-anchor="middle" x="999.5" y="-741.5" font-family="Helvetica,sans-Serif" font-size="10.00" fill="#000000"> </text>
</g>
<!-- Node27&#45;&gt;Node14 -->
<g id="edge23" class="edge">
<title>Node27&#45;&gt;Node14</title>
<path fill="none" stroke="#404040" d="M978.6237,-734.0996C963.2044,-713.249 941.3572,-684.7148 920.5,-661 895.7117,-632.8155 866.9588,-603.2703 841.2361,-577.8323"/>
<polygon fill="none" stroke="#404040" points="841.1915,-577.7885 834.1094,-576.4305 832.639,-569.3709 839.7211,-570.7289 841.1915,-577.7885"/>
<text text-anchor="middle" x="974.5" y="-675" font-family="Helvetica,sans-Serif" font-size="10.00" fill="#000000"> &#45;object_info</text>
</g>
<!-- Node28 -->
<g id="node24" class="node">
<title>Node28</title>
<polygon fill="#ffffff" stroke="#bfbfbf" points="513,-215.5 513,-283.5 658,-283.5 658,-215.5 513,-215.5"/>
<text text-anchor="start" x="521" y="-271.5" font-family="Helvetica,sans-Serif" font-size="10.00" fill="#000000">function&lt; RangeNumberType</text>
<text text-anchor="middle" x="585.5" y="-260.5" font-family="Helvetica,sans-Serif" font-size="10.00" fill="#000000">(const Point&lt; dim &gt; &amp;)&gt;</text>
<polyline fill="none" stroke="#bfbfbf" points="513,-253.5 658,-253.5 "/>
<text text-anchor="middle" x="585.5" y="-241.5" font-family="Helvetica,sans-Serif" font-size="10.00" fill="#000000"> </text>
<polyline fill="none" stroke="#bfbfbf" points="513,-234.5 658,-234.5 "/>
<text text-anchor="middle" x="585.5" y="-222.5" font-family="Helvetica,sans-Serif" font-size="10.00" fill="#000000"> </text>
</g>
<!-- Node28&#45;&gt;Node5 -->
<g id="edge25" class="edge">
<title>Node28&#45;&gt;Node5</title>
<path fill="none" stroke="#404040" d="M585.5,-215.4397C585.5,-190.4254 585.5,-155.6017 585.5,-124.9243"/>
<polygon fill="none" stroke="#404040" points="585.5001,-124.517 581.5,-118.517 585.5,-112.517 589.5,-118.517 585.5001,-124.517"/>
<text text-anchor="middle" x="622" y="-134" font-family="Helvetica,sans-Serif" font-size="10.00" fill="#000000"> &#45;function_object</text>
</g>
<!-- Node29 -->
<g id="node25" class="node">
<title>Node29</title>
<polygon fill="#ffffff" stroke="#bfbfbf" points="676.5,-221 676.5,-278 732.5,-278 732.5,-221 676.5,-221"/>
<text text-anchor="middle" x="704.5" y="-266" font-family="Helvetica,sans-Serif" font-size="10.00" fill="#000000">unsigned</text>
<polyline fill="none" stroke="#bfbfbf" points="676.5,-259 732.5,-259 "/>
<text text-anchor="middle" x="704.5" y="-247" font-family="Helvetica,sans-Serif" font-size="10.00" fill="#000000"> </text>
<polyline fill="none" stroke="#bfbfbf" points="676.5,-240 732.5,-240 "/>
<text text-anchor="middle" x="704.5" y="-228" font-family="Helvetica,sans-Serif" font-size="10.00" fill="#000000"> </text>
</g>
<!-- Node29&#45;&gt;Node5 -->
<g id="edge26" class="edge">
<title>Node29&#45;&gt;Node5</title>
<path fill="none" stroke="#404040" d="M698.2187,-220.5371C691.8816,-195.452 680.4384,-158.9091 662.5,-131 660.6143,-128.0661 658.5917,-125.1623 656.4624,-122.3"/>
<polygon fill="none" stroke="#404040" points="656.3294,-122.1329 649.4631,-119.9298 648.8559,-112.7442 655.7222,-114.9474 656.3294,-122.1329"/>
<text text-anchor="middle" x="716" y="-134" font-family="Helvetica,sans-Serif" font-size="10.00" fill="#000000"> &#45;selected_component</text>
</g>
</g>
</svg>
