<?xml version="1.0" encoding="UTF-8" standalone="no"?>
<!DOCTYPE svg PUBLIC "-//W3C//DTD SVG 1.1//EN"
 "http://www.w3.org/Graphics/SVG/1.1/DTD/svg11.dtd">
<!-- Generated by graphviz version 2.40.1 (20161225.0304)
 -->
<!-- Title: WorkStream::internal::tbb_no_coloring::IteratorRangeToItemStream&lt; Iterator, ScratchData, CopyData &gt; Pages: 1 -->
<svg width="158pt" height="117pt"
 viewBox="0.00 0.00 158.00 117.00" xmlns="http://www.w3.org/2000/svg" xmlns:xlink="http://www.w3.org/1999/xlink">
<g id="graph0" class="graph" transform="scale(1 1) rotate(0) translate(4 113)">
<title>WorkStream::internal::tbb_no_coloring::IteratorRangeToItemStream&lt; Iterator, ScratchData, CopyData &gt;</title>
<polygon fill="#ffffff" stroke="transparent" points="-4,4 -4,-113 154,-113 154,4 -4,4"/>
<!-- Node0 -->
<g id="node1" class="node">
<title>Node0</title>
<polygon fill="#bfbfbf" stroke="#000000" points="0,-.5 0,-52.5 150,-52.5 150,-.5 0,-.5"/>
<text text-anchor="start" x="8" y="-40.5" font-family="Helvetica,sans-Serif" font-size="10.00" fill="#000000">WorkStream::internal</text>
<text text-anchor="start" x="8" y="-29.5" font-family="Helvetica,sans-Serif" font-size="10.00" fill="#000000">::tbb_no_coloring::Iterator</text>
<text text-anchor="start" x="8" y="-18.5" font-family="Helvetica,sans-Serif" font-size="10.00" fill="#000000">RangeToItemStream&lt; Iterator,</text>
<text text-anchor="middle" x="75" y="-7.5" font-family="Helvetica,sans-Serif" font-size="10.00" fill="#000000"> ScratchData, CopyData &gt;</text>
</g>
<!-- Node1 -->
<g id="node2" class="node">
<title>Node1</title>
<polygon fill="#ffffff" stroke="#bfbfbf" points="47.5,-89.5 47.5,-108.5 102.5,-108.5 102.5,-89.5 47.5,-89.5"/>
<text text-anchor="middle" x="75" y="-96.5" font-family="Helvetica,sans-Serif" font-size="10.00" fill="#000000">tbb::filter</text>
</g>
<!-- Node1&#45;&gt;Node0 -->
<g id="edge1" class="edge">
<title>Node1&#45;&gt;Node0</title>
<path fill="none" stroke="#191970" d="M75,-79.1515C75,-70.9677 75,-61.3707 75,-52.6277"/>
<polygon fill="#191970" stroke="#191970" points="71.5001,-79.2223 75,-89.2223 78.5001,-79.2224 71.5001,-79.2223"/>
</g>
</g>
</svg>
