<?xml version="1.0" encoding="UTF-8" standalone="no"?>
<!DOCTYPE svg PUBLIC "-//W3C//DTD SVG 1.1//EN"
 "http://www.w3.org/Graphics/SVG/1.1/DTD/svg11.dtd">
<!-- Generated by graphviz version 2.40.1 (20161225.0304)
 -->
<!-- Title: DesignPattern::Memento::ConcreteMemento Pages: 1 -->
<svg width="229pt" height="365pt"
 viewBox="0.00 0.00 229.00 365.00" xmlns="http://www.w3.org/2000/svg" xmlns:xlink="http://www.w3.org/1999/xlink">
<g id="graph0" class="graph" transform="scale(1 1) rotate(0) translate(4 361)">
<title>DesignPattern::Memento::ConcreteMemento</title>
<polygon fill="#ffffff" stroke="transparent" points="-4,4 -4,-361 225,-361 225,4 -4,4"/>
<!-- Node2 -->
<g id="node1" class="node">
<title>Node2</title>
<polygon fill="#bfbfbf" stroke="#000000" points="16,-.5 16,-101.5 141,-101.5 141,-.5 16,-.5"/>
<text text-anchor="start" x="24" y="-89.5" font-family="Helvetica,sans-Serif" font-size="10.00" fill="#000000">DesignPattern::Memento</text>
<text text-anchor="middle" x="78.5" y="-78.5" font-family="Helvetica,sans-Serif" font-size="10.00" fill="#000000">::ConcreteMemento</text>
<polyline fill="none" stroke="#000000" points="16,-71.5 141,-71.5 "/>
<text text-anchor="middle" x="78.5" y="-59.5" font-family="Helvetica,sans-Serif" font-size="10.00" fill="#000000"> </text>
<polyline fill="none" stroke="#000000" points="16,-52.5 141,-52.5 "/>
<text text-anchor="start" x="24" y="-40.5" font-family="Helvetica,sans-Serif" font-size="10.00" fill="#000000">+ ConcreteMemento()</text>
<text text-anchor="start" x="24" y="-29.5" font-family="Helvetica,sans-Serif" font-size="10.00" fill="#000000">+ state()</text>
<text text-anchor="start" x="24" y="-18.5" font-family="Helvetica,sans-Serif" font-size="10.00" fill="#000000">+ GetName()</text>
<text text-anchor="start" x="24" y="-7.5" font-family="Helvetica,sans-Serif" font-size="10.00" fill="#000000">+ date()</text>
</g>
<!-- Node3 -->
<g id="node2" class="node">
<title>Node3</title>
<g id="a_node2"><a xlink:href="classDesignPattern_1_1Memento_1_1Memento.html" target="_top" xlink:title="{DesignPattern::Memento\l::Memento\n||+ GetName()\l+ date()\l+ state()\l}">
<polygon fill="#ffffff" stroke="#000000" points="0,-160.5 0,-250.5 125,-250.5 125,-160.5 0,-160.5"/>
<text text-anchor="start" x="8" y="-238.5" font-family="Helvetica,sans-Serif" font-size="10.00" fill="#000000">DesignPattern::Memento</text>
<text text-anchor="middle" x="62.5" y="-227.5" font-family="Helvetica,sans-Serif" font-size="10.00" fill="#000000">::Memento</text>
<polyline fill="none" stroke="#000000" points="0,-220.5 125,-220.5 "/>
<text text-anchor="middle" x="62.5" y="-208.5" font-family="Helvetica,sans-Serif" font-size="10.00" fill="#000000"> </text>
<polyline fill="none" stroke="#000000" points="0,-201.5 125,-201.5 "/>
<text text-anchor="start" x="8" y="-189.5" font-family="Helvetica,sans-Serif" font-size="10.00" fill="#000000">+ GetName()</text>
<text text-anchor="start" x="8" y="-178.5" font-family="Helvetica,sans-Serif" font-size="10.00" fill="#000000">+ date()</text>
<text text-anchor="start" x="8" y="-167.5" font-family="Helvetica,sans-Serif" font-size="10.00" fill="#000000">+ state()</text>
</a>
</g>
</g>
<!-- Node3&#45;&gt;Node2 -->
<g id="edge1" class="edge">
<title>Node3&#45;&gt;Node2</title>
<path fill="none" stroke="#191970" d="M68.2267,-150.2016C69.8689,-134.3443 71.6504,-117.1413 73.2616,-101.5832"/>
<polygon fill="none" stroke="#191970" points="64.7197,-150.0895 67.1709,-160.3969 71.6824,-150.8106 64.7197,-150.0895"/>
</g>
<!-- Node4 -->
<g id="node3" class="node">
<title>Node4</title>
<g id="a_node3"><a xlink:title="STL class. ">
<polygon fill="#ffffff" stroke="#bfbfbf" points="143.5,-177 143.5,-234 203.5,-234 203.5,-177 143.5,-177"/>
<text text-anchor="middle" x="173.5" y="-222" font-family="Helvetica,sans-Serif" font-size="10.00" fill="#000000">std::string</text>
<polyline fill="none" stroke="#bfbfbf" points="143.5,-215 203.5,-215 "/>
<text text-anchor="middle" x="173.5" y="-203" font-family="Helvetica,sans-Serif" font-size="10.00" fill="#000000"> </text>
<polyline fill="none" stroke="#bfbfbf" points="143.5,-196 203.5,-196 "/>
<text text-anchor="middle" x="173.5" y="-184" font-family="Helvetica,sans-Serif" font-size="10.00" fill="#000000"> </text>
</a>
</g>
</g>
<!-- Node4&#45;&gt;Node2 -->
<g id="edge2" class="edge">
<title>Node4&#45;&gt;Node2</title>
<path fill="none" stroke="#404040" d="M155.8539,-176.8018C144.6901,-158.646 129.8265,-134.4731 116.1132,-112.171"/>
<polygon fill="none" stroke="#404040" points="115.9892,-111.9692 109.4391,-108.9533 109.7037,-101.747 116.2538,-104.763 115.9892,-111.9692"/>
<text text-anchor="middle" x="147" y="-134" font-family="Helvetica,sans-Serif" font-size="10.00" fill="#000000"> &#45;date_</text>
<text text-anchor="middle" x="147" y="-123" font-family="Helvetica,sans-Serif" font-size="10.00" fill="#000000">&#45;state_</text>
</g>
<!-- Node5 -->
<g id="node4" class="node">
<title>Node5</title>
<g id="a_node4"><a xlink:title="STL class. ">
<polygon fill="#ffffff" stroke="#bfbfbf" points="126,-288.5 126,-356.5 221,-356.5 221,-288.5 126,-288.5"/>
<text text-anchor="start" x="134" y="-344.5" font-family="Helvetica,sans-Serif" font-size="10.00" fill="#000000">std::basic_string&lt;</text>
<text text-anchor="middle" x="173.5" y="-333.5" font-family="Helvetica,sans-Serif" font-size="10.00" fill="#000000"> char &gt;</text>
<polyline fill="none" stroke="#bfbfbf" points="126,-326.5 221,-326.5 "/>
<text text-anchor="middle" x="173.5" y="-314.5" font-family="Helvetica,sans-Serif" font-size="10.00" fill="#000000"> </text>
<polyline fill="none" stroke="#bfbfbf" points="126,-307.5 221,-307.5 "/>
<text text-anchor="middle" x="173.5" y="-295.5" font-family="Helvetica,sans-Serif" font-size="10.00" fill="#000000"> </text>
</a>
</g>
</g>
<!-- Node5&#45;&gt;Node4 -->
<g id="edge3" class="edge">
<title>Node5&#45;&gt;Node4</title>
<path fill="none" stroke="#191970" d="M173.5,-277.9743C173.5,-263.3553 173.5,-247.4995 173.5,-234.3568"/>
<polygon fill="none" stroke="#191970" points="170.0001,-278.3442 173.5,-288.3442 177.0001,-278.3443 170.0001,-278.3442"/>
</g>
</g>
</svg>
