<?xml version="1.0" encoding="UTF-8" standalone="no"?>
<!DOCTYPE svg PUBLIC "-//W3C//DTD SVG 1.1//EN"
 "http://www.w3.org/Graphics/SVG/1.1/DTD/svg11.dtd">
<!-- Generated by graphviz version 2.40.1 (20161225.0304)
 -->
<!-- Title: TensorProductMatrixSymmetricSumBase&lt; dim, Number, n_rows_1d &gt; Pages: 1 -->
<svg width="670pt" height="100pt"
 viewBox="0.00 0.00 670.00 99.50" xmlns="http://www.w3.org/2000/svg" xmlns:xlink="http://www.w3.org/1999/xlink">
<g id="graph0" class="graph" transform="scale(1 1) rotate(0) translate(4 95.5)">
<title>TensorProductMatrixSymmetricSumBase&lt; dim, Number, n_rows_1d &gt;</title>
<polygon fill="#ffffff" stroke="transparent" points="-4,4 -4,-95.5 666,-95.5 666,4 -4,4"/>
<!-- Node0 -->
<g id="node1" class="node">
<title>Node0</title>
<polygon fill="#bfbfbf" stroke="#000000" points="0,-27.5 0,-68.5 155,-68.5 155,-27.5 0,-27.5"/>
<text text-anchor="start" x="8" y="-56.5" font-family="Helvetica,sans-Serif" font-size="10.00" fill="#000000">TensorProductMatrixSymmetric</text>
<text text-anchor="start" x="8" y="-45.5" font-family="Helvetica,sans-Serif" font-size="10.00" fill="#000000">SumBase&lt; dim, Number, n</text>
<text text-anchor="middle" x="77.5" y="-34.5" font-family="Helvetica,sans-Serif" font-size="10.00" fill="#000000">_rows_1d &gt;</text>
</g>
<!-- Node1 -->
<g id="node2" class="node">
<title>Node1</title>
<g id="a_node2"><a xlink:href="classTensorProductMatrixSymmetricSum.html" target="_top" xlink:title="TensorProductMatrixSymmetric\lSum\&lt; dim, Number, n_rows_1d \&gt;">
<polygon fill="#ffffff" stroke="#000000" points="306,-61 306,-91 470,-91 470,-61 306,-61"/>
<text text-anchor="start" x="314" y="-79" font-family="Helvetica,sans-Serif" font-size="10.00" fill="#000000">TensorProductMatrixSymmetric</text>
<text text-anchor="middle" x="388" y="-68" font-family="Helvetica,sans-Serif" font-size="10.00" fill="#000000">Sum&lt; dim, Number, n_rows_1d &gt;</text>
</a>
</g>
</g>
<!-- Node0&#45;&gt;Node1 -->
<g id="edge1" class="edge">
<title>Node0&#45;&gt;Node1</title>
<path fill="none" stroke="#191970" d="M165.2491,-61.1406C167.8602,-61.4428 170.4483,-61.7303 173,-62 216.801,-66.629 265.7948,-69.9616 305.9376,-72.211"/>
<polygon fill="#191970" stroke="#191970" points="165.4416,-57.6384 155.0928,-59.9084 164.5984,-64.5874 165.4416,-57.6384"/>
</g>
<!-- Node2 -->
<g id="node3" class="node">
<title>Node2</title>
<g id="a_node3"><a xlink:href="classTensorProductMatrixSymmetricSumBase.html" target="_top" xlink:title="TensorProductMatrixSymmetric\lSumBase\&lt; dim, VectorizedArray\l\&lt; Number \&gt;, n_rows_1d \&gt;">
<polygon fill="#ffffff" stroke="#000000" points="308,-.5 308,-41.5 468,-41.5 468,-.5 308,-.5"/>
<text text-anchor="start" x="316" y="-29.5" font-family="Helvetica,sans-Serif" font-size="10.00" fill="#000000">TensorProductMatrixSymmetric</text>
<text text-anchor="start" x="316" y="-18.5" font-family="Helvetica,sans-Serif" font-size="10.00" fill="#000000">SumBase&lt; dim, VectorizedArray</text>
<text text-anchor="middle" x="388" y="-7.5" font-family="Helvetica,sans-Serif" font-size="10.00" fill="#000000">&lt; Number &gt;, n_rows_1d &gt;</text>
</a>
</g>
</g>
<!-- Node0&#45;&gt;Node2 -->
<g id="edge2" class="edge">
<title>Node0&#45;&gt;Node2</title>
<path fill="none" stroke="#ffa500" stroke-dasharray="5,2" d="M165.0618,-40.3859C209.9294,-36.4844 264.1759,-31.7673 307.9242,-27.9631"/>
<polygon fill="#ffa500" stroke="#ffa500" points="164.7105,-36.9032 155.0513,-41.2564 165.317,-43.8769 164.7105,-36.9032"/>
<text text-anchor="start" x="173" y="-54" font-family="Helvetica,sans-Serif" font-size="10.00" fill="#000000"> &lt; dim, VectorizedArray</text>
<text text-anchor="middle" x="230.5" y="-43" font-family="Helvetica,sans-Serif" font-size="10.00" fill="#000000">&lt; Number &gt;, n_rows_1d &gt;</text>
</g>
<!-- Node3 -->
<g id="node4" class="node">
<title>Node3</title>
<g id="a_node4"><a xlink:href="classTensorProductMatrixSymmetricSum_3_01dim_00_01VectorizedArray_3_01Number_01_4_00_01n__rows__1d_01_4.html" target="_top" xlink:title="TensorProductMatrixSymmetric\lSum\&lt; dim, VectorizedArray\l\&lt; Number \&gt;, n_rows_1d \&gt;">
<polygon fill="#ffffff" stroke="#000000" points="507,-.5 507,-41.5 662,-41.5 662,-.5 507,-.5"/>
<text text-anchor="start" x="515" y="-29.5" font-family="Helvetica,sans-Serif" font-size="10.00" fill="#000000">TensorProductMatrixSymmetric</text>
<text text-anchor="start" x="515" y="-18.5" font-family="Helvetica,sans-Serif" font-size="10.00" fill="#000000">Sum&lt; dim, VectorizedArray</text>
<text text-anchor="middle" x="584.5" y="-7.5" font-family="Helvetica,sans-Serif" font-size="10.00" fill="#000000">&lt; Number &gt;, n_rows_1d &gt;</text>
</a>
</g>
</g>
<!-- Node2&#45;&gt;Node3 -->
<g id="edge3" class="edge">
<title>Node2&#45;&gt;Node3</title>
<path fill="none" stroke="#191970" d="M478.4272,-21C487.8962,-21 497.4627,-21 506.7719,-21"/>
<polygon fill="#191970" stroke="#191970" points="478.2075,-17.5001 468.2075,-21 478.2075,-24.5001 478.2075,-17.5001"/>
</g>
</g>
</svg>
