<?xml version="1.0" encoding="UTF-8" standalone="no"?>
<!DOCTYPE svg PUBLIC "-//W3C//DTD SVG 1.1//EN"
 "http://www.w3.org/Graphics/SVG/1.1/DTD/svg11.dtd">
<!-- Generated by graphviz version 2.40.1 (20161225.0304)
 -->
<!-- Title: Table&lt; 4, T &gt; Pages: 1 -->
<svg width="629pt" height="1269pt"
 viewBox="0.00 0.00 628.50 1269.00" xmlns="http://www.w3.org/2000/svg" xmlns:xlink="http://www.w3.org/1999/xlink">
<g id="graph0" class="graph" transform="scale(1 1) rotate(0) translate(4 1265)">
<title>Table&lt; 4, T &gt;</title>
<polygon fill="#ffffff" stroke="transparent" points="-4,4 -4,-1265 624.5,-1265 624.5,4 -4,4"/>
<!-- Node4 -->
<g id="node1" class="node">
<title>Node4</title>
<polygon fill="#bfbfbf" stroke="#000000" points="406.5,-.5 406.5,-112.5 482.5,-112.5 482.5,-.5 406.5,-.5"/>
<text text-anchor="middle" x="444.5" y="-100.5" font-family="Helvetica,sans-Serif" font-size="10.00" fill="#000000">Table&lt; 4, T &gt;</text>
<polyline fill="none" stroke="#000000" points="406.5,-93.5 482.5,-93.5 "/>
<text text-anchor="middle" x="444.5" y="-81.5" font-family="Helvetica,sans-Serif" font-size="10.00" fill="#000000"> </text>
<polyline fill="none" stroke="#000000" points="406.5,-74.5 482.5,-74.5 "/>
<text text-anchor="start" x="414.5" y="-62.5" font-family="Helvetica,sans-Serif" font-size="10.00" fill="#000000">+ Table()</text>
<text text-anchor="start" x="414.5" y="-51.5" font-family="Helvetica,sans-Serif" font-size="10.00" fill="#000000">+ Table()</text>
<text text-anchor="start" x="414.5" y="-40.5" font-family="Helvetica,sans-Serif" font-size="10.00" fill="#000000">+ operator[]()</text>
<text text-anchor="start" x="414.5" y="-29.5" font-family="Helvetica,sans-Serif" font-size="10.00" fill="#000000">+ operator[]()</text>
<text text-anchor="start" x="414.5" y="-18.5" font-family="Helvetica,sans-Serif" font-size="10.00" fill="#000000">+ operator()()</text>
<text text-anchor="start" x="414.5" y="-7.5" font-family="Helvetica,sans-Serif" font-size="10.00" fill="#000000">+ operator()()</text>
</g>
<!-- Node5 -->
<g id="node2" class="node">
<title>Node5</title>
<g id="a_node2"><a xlink:href="classTableBase.html" target="_top" xlink:title="{TableBase\&lt; 4, T \&gt;\n||+ TableBase()\l+ TableBase()\l+ TableBase()\l+ TableBase()\l+ TableBase()\l+ TableBase()\l+ ~TableBase()\l+ operator=()\l+ operator=()\l+ operator=()\land 15 more...\l# position()\l# el()\l# el()\l}">
<polygon fill="#ffffff" stroke="#000000" points="395.5,-150.5 395.5,-350.5 493.5,-350.5 493.5,-150.5 395.5,-150.5"/>
<text text-anchor="middle" x="444.5" y="-338.5" font-family="Helvetica,sans-Serif" font-size="10.00" fill="#000000">TableBase&lt; 4, T &gt;</text>
<polyline fill="none" stroke="#000000" points="395.5,-331.5 493.5,-331.5 "/>
<text text-anchor="middle" x="444.5" y="-319.5" font-family="Helvetica,sans-Serif" font-size="10.00" fill="#000000"> </text>
<polyline fill="none" stroke="#000000" points="395.5,-312.5 493.5,-312.5 "/>
<text text-anchor="start" x="403.5" y="-300.5" font-family="Helvetica,sans-Serif" font-size="10.00" fill="#000000">+ TableBase()</text>
<text text-anchor="start" x="403.5" y="-289.5" font-family="Helvetica,sans-Serif" font-size="10.00" fill="#000000">+ TableBase()</text>
<text text-anchor="start" x="403.5" y="-278.5" font-family="Helvetica,sans-Serif" font-size="10.00" fill="#000000">+ TableBase()</text>
<text text-anchor="start" x="403.5" y="-267.5" font-family="Helvetica,sans-Serif" font-size="10.00" fill="#000000">+ TableBase()</text>
<text text-anchor="start" x="403.5" y="-256.5" font-family="Helvetica,sans-Serif" font-size="10.00" fill="#000000">+ TableBase()</text>
<text text-anchor="start" x="403.5" y="-245.5" font-family="Helvetica,sans-Serif" font-size="10.00" fill="#000000">+ TableBase()</text>
<text text-anchor="start" x="403.5" y="-234.5" font-family="Helvetica,sans-Serif" font-size="10.00" fill="#000000">+ ~TableBase()</text>
<text text-anchor="start" x="403.5" y="-223.5" font-family="Helvetica,sans-Serif" font-size="10.00" fill="#000000">+ operator=()</text>
<text text-anchor="start" x="403.5" y="-212.5" font-family="Helvetica,sans-Serif" font-size="10.00" fill="#000000">+ operator=()</text>
<text text-anchor="start" x="403.5" y="-201.5" font-family="Helvetica,sans-Serif" font-size="10.00" fill="#000000">+ operator=()</text>
<text text-anchor="start" x="403.5" y="-190.5" font-family="Helvetica,sans-Serif" font-size="10.00" fill="#000000">and 15 more...</text>
<text text-anchor="start" x="403.5" y="-179.5" font-family="Helvetica,sans-Serif" font-size="10.00" fill="#000000"># position()</text>
<text text-anchor="start" x="403.5" y="-168.5" font-family="Helvetica,sans-Serif" font-size="10.00" fill="#000000"># el()</text>
<text text-anchor="start" x="403.5" y="-157.5" font-family="Helvetica,sans-Serif" font-size="10.00" fill="#000000"># el()</text>
</a>
</g>
</g>
<!-- Node5&#45;&gt;Node4 -->
<g id="edge1" class="edge">
<title>Node5&#45;&gt;Node4</title>
<path fill="none" stroke="#191970" d="M444.5,-140.3732C444.5,-130.8208 444.5,-121.4414 444.5,-112.6149"/>
<polygon fill="none" stroke="#191970" points="441.0001,-140.3745 444.5,-150.3745 448.0001,-140.3745 441.0001,-140.3745"/>
</g>
<!-- Node6 -->
<g id="node3" class="node">
<title>Node6</title>
<g id="a_node3"><a xlink:href="classSubscriptor.html" target="_top" xlink:title="{Subscriptor\n||+ Subscriptor()\l+ Subscriptor()\l+ Subscriptor()\l+ ~Subscriptor()\l+ operator=()\l+ operator=()\l+ serialize()\l+ subscribe()\l+ unsubscribe()\l+ n_subscriptions()\l+ list_subscribers()\l+ list_subscribers()\l+ ExcInUse()\l+ ExcNoSubscriber()\l&#45; check_no_subscribers()\l* subscribe()\l* unsubscribe()\l* n_subscriptions()\l* list_subscribers()\l* list_subscribers()\l}">
<polygon fill="#ffffff" stroke="#000000" points="246.5,-646.5 246.5,-912.5 372.5,-912.5 372.5,-646.5 246.5,-646.5"/>
<text text-anchor="middle" x="309.5" y="-900.5" font-family="Helvetica,sans-Serif" font-size="10.00" fill="#000000">Subscriptor</text>
<polyline fill="none" stroke="#000000" points="246.5,-893.5 372.5,-893.5 "/>
<text text-anchor="middle" x="309.5" y="-881.5" font-family="Helvetica,sans-Serif" font-size="10.00" fill="#000000"> </text>
<polyline fill="none" stroke="#000000" points="246.5,-874.5 372.5,-874.5 "/>
<text text-anchor="start" x="254.5" y="-862.5" font-family="Helvetica,sans-Serif" font-size="10.00" fill="#000000">+ Subscriptor()</text>
<text text-anchor="start" x="254.5" y="-851.5" font-family="Helvetica,sans-Serif" font-size="10.00" fill="#000000">+ Subscriptor()</text>
<text text-anchor="start" x="254.5" y="-840.5" font-family="Helvetica,sans-Serif" font-size="10.00" fill="#000000">+ Subscriptor()</text>
<text text-anchor="start" x="254.5" y="-829.5" font-family="Helvetica,sans-Serif" font-size="10.00" fill="#000000">+ ~Subscriptor()</text>
<text text-anchor="start" x="254.5" y="-818.5" font-family="Helvetica,sans-Serif" font-size="10.00" fill="#000000">+ operator=()</text>
<text text-anchor="start" x="254.5" y="-807.5" font-family="Helvetica,sans-Serif" font-size="10.00" fill="#000000">+ operator=()</text>
<text text-anchor="start" x="254.5" y="-796.5" font-family="Helvetica,sans-Serif" font-size="10.00" fill="#000000">+ serialize()</text>
<text text-anchor="start" x="254.5" y="-785.5" font-family="Helvetica,sans-Serif" font-size="10.00" fill="#000000">+ subscribe()</text>
<text text-anchor="start" x="254.5" y="-774.5" font-family="Helvetica,sans-Serif" font-size="10.00" fill="#000000">+ unsubscribe()</text>
<text text-anchor="start" x="254.5" y="-763.5" font-family="Helvetica,sans-Serif" font-size="10.00" fill="#000000">+ n_subscriptions()</text>
<text text-anchor="start" x="254.5" y="-752.5" font-family="Helvetica,sans-Serif" font-size="10.00" fill="#000000">+ list_subscribers()</text>
<text text-anchor="start" x="254.5" y="-741.5" font-family="Helvetica,sans-Serif" font-size="10.00" fill="#000000">+ list_subscribers()</text>
<text text-anchor="start" x="254.5" y="-730.5" font-family="Helvetica,sans-Serif" font-size="10.00" fill="#000000">+ ExcInUse()</text>
<text text-anchor="start" x="254.5" y="-719.5" font-family="Helvetica,sans-Serif" font-size="10.00" fill="#000000">+ ExcNoSubscriber()</text>
<text text-anchor="start" x="254.5" y="-708.5" font-family="Helvetica,sans-Serif" font-size="10.00" fill="#000000">&#45; check_no_subscribers()</text>
<text text-anchor="start" x="254.5" y="-697.5" font-family="Helvetica,sans-Serif" font-size="10.00" fill="#000000">* subscribe()</text>
<text text-anchor="start" x="254.5" y="-686.5" font-family="Helvetica,sans-Serif" font-size="10.00" fill="#000000">* unsubscribe()</text>
<text text-anchor="start" x="254.5" y="-675.5" font-family="Helvetica,sans-Serif" font-size="10.00" fill="#000000">* n_subscriptions()</text>
<text text-anchor="start" x="254.5" y="-664.5" font-family="Helvetica,sans-Serif" font-size="10.00" fill="#000000">* list_subscribers()</text>
<text text-anchor="start" x="254.5" y="-653.5" font-family="Helvetica,sans-Serif" font-size="10.00" fill="#000000">* list_subscribers()</text>
</a>
</g>
</g>
<!-- Node6&#45;&gt;Node5 -->
<g id="edge2" class="edge">
<title>Node6&#45;&gt;Node5</title>
<path fill="none" stroke="#191970" d="M295.146,-635.8649C292.9207,-562.5068 298.2544,-473.1237 326.5,-398 341.042,-359.3233 369.8545,-322.9873 395.3673,-296.0573"/>
<polygon fill="none" stroke="#191970" points="291.6569,-636.2367 295.5086,-646.1066 298.6525,-635.989 291.6569,-636.2367"/>
</g>
<!-- Node22 -->
<g id="node19" class="node">
<title>Node22</title>
<g id="a_node19"><a xlink:href="classTableBase.html" target="_top" xlink:title="{TableBase\&lt; N, T \&gt;\n||+ TableBase()\l+ TableBase()\l+ TableBase()\l+ TableBase()\l+ TableBase()\l+ TableBase()\l+ ~TableBase()\l+ operator=()\l+ operator=()\l+ operator=()\land 15 more...\l# position()\l# el()\l# el()\l}">
<polygon fill="#ffffff" stroke="#000000" points="335,-398.5 335,-598.5 436,-598.5 436,-398.5 335,-398.5"/>
<text text-anchor="middle" x="385.5" y="-586.5" font-family="Helvetica,sans-Serif" font-size="10.00" fill="#000000">TableBase&lt; N, T &gt;</text>
<polyline fill="none" stroke="#000000" points="335,-579.5 436,-579.5 "/>
<text text-anchor="middle" x="385.5" y="-567.5" font-family="Helvetica,sans-Serif" font-size="10.00" fill="#000000"> </text>
<polyline fill="none" stroke="#000000" points="335,-560.5 436,-560.5 "/>
<text text-anchor="start" x="343" y="-548.5" font-family="Helvetica,sans-Serif" font-size="10.00" fill="#000000">+ TableBase()</text>
<text text-anchor="start" x="343" y="-537.5" font-family="Helvetica,sans-Serif" font-size="10.00" fill="#000000">+ TableBase()</text>
<text text-anchor="start" x="343" y="-526.5" font-family="Helvetica,sans-Serif" font-size="10.00" fill="#000000">+ TableBase()</text>
<text text-anchor="start" x="343" y="-515.5" font-family="Helvetica,sans-Serif" font-size="10.00" fill="#000000">+ TableBase()</text>
<text text-anchor="start" x="343" y="-504.5" font-family="Helvetica,sans-Serif" font-size="10.00" fill="#000000">+ TableBase()</text>
<text text-anchor="start" x="343" y="-493.5" font-family="Helvetica,sans-Serif" font-size="10.00" fill="#000000">+ TableBase()</text>
<text text-anchor="start" x="343" y="-482.5" font-family="Helvetica,sans-Serif" font-size="10.00" fill="#000000">+ ~TableBase()</text>
<text text-anchor="start" x="343" y="-471.5" font-family="Helvetica,sans-Serif" font-size="10.00" fill="#000000">+ operator=()</text>
<text text-anchor="start" x="343" y="-460.5" font-family="Helvetica,sans-Serif" font-size="10.00" fill="#000000">+ operator=()</text>
<text text-anchor="start" x="343" y="-449.5" font-family="Helvetica,sans-Serif" font-size="10.00" fill="#000000">+ operator=()</text>
<text text-anchor="start" x="343" y="-438.5" font-family="Helvetica,sans-Serif" font-size="10.00" fill="#000000">and 15 more...</text>
<text text-anchor="start" x="343" y="-427.5" font-family="Helvetica,sans-Serif" font-size="10.00" fill="#000000"># position()</text>
<text text-anchor="start" x="343" y="-416.5" font-family="Helvetica,sans-Serif" font-size="10.00" fill="#000000"># el()</text>
<text text-anchor="start" x="343" y="-405.5" font-family="Helvetica,sans-Serif" font-size="10.00" fill="#000000"># el()</text>
</a>
</g>
</g>
<!-- Node6&#45;&gt;Node22 -->
<g id="edge20" class="edge">
<title>Node6&#45;&gt;Node22</title>
<path fill="none" stroke="#191970" d="M348.1412,-636.6291C351.5999,-623.8413 355.0514,-611.0797 358.3812,-598.7682"/>
<polygon fill="none" stroke="#191970" points="344.7292,-635.8391 345.4969,-646.4061 351.4864,-637.6668 344.7292,-635.8391"/>
</g>
<!-- Node7 -->
<g id="node4" class="node">
<title>Node7</title>
<polygon fill="#ffffff" stroke="#bfbfbf" points="25.5,-960.5 25.5,-1028.5 135.5,-1028.5 135.5,-960.5 25.5,-960.5"/>
<text text-anchor="start" x="33.5" y="-1016.5" font-family="Helvetica,sans-Serif" font-size="10.00" fill="#000000">std::map&lt; std::string,</text>
<text text-anchor="middle" x="80.5" y="-1005.5" font-family="Helvetica,sans-Serif" font-size="10.00" fill="#000000"> unsigned int &gt;</text>
<polyline fill="none" stroke="#bfbfbf" points="25.5,-998.5 135.5,-998.5 "/>
<text text-anchor="middle" x="80.5" y="-986.5" font-family="Helvetica,sans-Serif" font-size="10.00" fill="#000000"> </text>
<polyline fill="none" stroke="#bfbfbf" points="25.5,-979.5 135.5,-979.5 "/>
<text text-anchor="middle" x="80.5" y="-967.5" font-family="Helvetica,sans-Serif" font-size="10.00" fill="#000000"> </text>
</g>
<!-- Node7&#45;&gt;Node6 -->
<g id="edge3" class="edge">
<title>Node7&#45;&gt;Node6</title>
<path fill="none" stroke="#404040" d="M116.7857,-960.4326C149.0293,-930.1603 197.1238,-885.0061 237.1994,-847.3805"/>
<polygon fill="none" stroke="#404040" points="237.3957,-847.1962 239.0321,-840.1732 246.1442,-838.9825 244.5078,-846.0055 237.3957,-847.1962"/>
<text text-anchor="middle" x="174" y="-934" font-family="Helvetica,sans-Serif" font-size="10.00" fill="#000000"> &#45;counter_map</text>
</g>
<!-- Node8 -->
<g id="node5" class="node">
<title>Node8</title>
<g id="a_node5"><a xlink:href="classint.html" target="_top" xlink:title="{int\n||}">
<polygon fill="#ffffff" stroke="#000000" points="0,-1087.5 0,-1144.5 29,-1144.5 29,-1087.5 0,-1087.5"/>
<text text-anchor="middle" x="14.5" y="-1132.5" font-family="Helvetica,sans-Serif" font-size="10.00" fill="#000000">int</text>
<polyline fill="none" stroke="#000000" points="0,-1125.5 29,-1125.5 "/>
<text text-anchor="middle" x="14.5" y="-1113.5" font-family="Helvetica,sans-Serif" font-size="10.00" fill="#000000"> </text>
<polyline fill="none" stroke="#000000" points="0,-1106.5 29,-1106.5 "/>
<text text-anchor="middle" x="14.5" y="-1094.5" font-family="Helvetica,sans-Serif" font-size="10.00" fill="#000000"> </text>
</a>
</g>
</g>
<!-- Node8&#45;&gt;Node7 -->
<g id="edge4" class="edge">
<title>Node8&#45;&gt;Node7</title>
<path fill="none" stroke="#404040" d="M17.667,-1087.2524C19.9472,-1074.3723 23.8477,-1059.3397 30.5,-1047 32.0697,-1044.0882 33.8442,-1041.2209 35.7647,-1038.4198"/>
<polygon fill="none" stroke="#404040" points="35.9746,-1038.1445 36.4341,-1030.9481 43.2537,-1028.6043 42.7942,-1035.8007 35.9746,-1038.1445"/>
<text text-anchor="middle" x="55" y="-1055.5" font-family="Helvetica,sans-Serif" font-size="10.00" fill="#000000"> +elements</text>
</g>
<!-- Node9 -->
<g id="node6" class="node">
<title>Node9</title>
<g id="a_node6"><a xlink:title="STL class. ">
<polygon fill="#ffffff" stroke="#bfbfbf" points="56.5,-1087.5 56.5,-1144.5 116.5,-1144.5 116.5,-1087.5 56.5,-1087.5"/>
<text text-anchor="middle" x="86.5" y="-1132.5" font-family="Helvetica,sans-Serif" font-size="10.00" fill="#000000">std::string</text>
<polyline fill="none" stroke="#bfbfbf" points="56.5,-1125.5 116.5,-1125.5 "/>
<text text-anchor="middle" x="86.5" y="-1113.5" font-family="Helvetica,sans-Serif" font-size="10.00" fill="#000000"> </text>
<polyline fill="none" stroke="#bfbfbf" points="56.5,-1106.5 116.5,-1106.5 "/>
<text text-anchor="middle" x="86.5" y="-1094.5" font-family="Helvetica,sans-Serif" font-size="10.00" fill="#000000"> </text>
</a>
</g>
</g>
<!-- Node9&#45;&gt;Node7 -->
<g id="edge5" class="edge">
<title>Node9&#45;&gt;Node7</title>
<path fill="none" stroke="#404040" d="M85.0781,-1087.2062C84.3945,-1073.3632 83.5581,-1056.4255 82.788,-1040.8327"/>
<polygon fill="none" stroke="#404040" points="82.7809,-1040.6861 78.4898,-1034.8908 82.1889,-1028.7007 86.48,-1034.4961 82.7809,-1040.6861"/>
<text text-anchor="middle" x="100" y="-1055.5" font-family="Helvetica,sans-Serif" font-size="10.00" fill="#000000"> +keys</text>
</g>
<!-- Node10 -->
<g id="node7" class="node">
<title>Node10</title>
<g id="a_node7"><a xlink:title="STL class. ">
<polygon fill="#ffffff" stroke="#bfbfbf" points="39,-1192.5 39,-1260.5 134,-1260.5 134,-1192.5 39,-1192.5"/>
<text text-anchor="start" x="47" y="-1248.5" font-family="Helvetica,sans-Serif" font-size="10.00" fill="#000000">std::basic_string&lt;</text>
<text text-anchor="middle" x="86.5" y="-1237.5" font-family="Helvetica,sans-Serif" font-size="10.00" fill="#000000"> char &gt;</text>
<polyline fill="none" stroke="#bfbfbf" points="39,-1230.5 134,-1230.5 "/>
<text text-anchor="middle" x="86.5" y="-1218.5" font-family="Helvetica,sans-Serif" font-size="10.00" fill="#000000"> </text>
<polyline fill="none" stroke="#bfbfbf" points="39,-1211.5 134,-1211.5 "/>
<text text-anchor="middle" x="86.5" y="-1199.5" font-family="Helvetica,sans-Serif" font-size="10.00" fill="#000000"> </text>
</a>
</g>
</g>
<!-- Node10&#45;&gt;Node9 -->
<g id="edge6" class="edge">
<title>Node10&#45;&gt;Node9</title>
<path fill="none" stroke="#191970" d="M86.5,-1182.0661C86.5,-1169.4172 86.5,-1155.9812 86.5,-1144.5519"/>
<polygon fill="none" stroke="#191970" points="83.0001,-1182.4447 86.5,-1192.4447 90.0001,-1182.4447 83.0001,-1182.4447"/>
</g>
<!-- Node11 -->
<g id="node8" class="node">
<title>Node11</title>
<g id="a_node8"><a xlink:title="STL class. ">
<polygon fill="#ffffff" stroke="#bfbfbf" points="144.5,-1087.5 144.5,-1144.5 236.5,-1144.5 236.5,-1087.5 144.5,-1087.5"/>
<text text-anchor="middle" x="190.5" y="-1132.5" font-family="Helvetica,sans-Serif" font-size="10.00" fill="#000000">std::map&lt; K, T &gt;</text>
<polyline fill="none" stroke="#bfbfbf" points="144.5,-1125.5 236.5,-1125.5 "/>
<text text-anchor="middle" x="190.5" y="-1113.5" font-family="Helvetica,sans-Serif" font-size="10.00" fill="#000000"> </text>
<polyline fill="none" stroke="#bfbfbf" points="144.5,-1106.5 236.5,-1106.5 "/>
<text text-anchor="middle" x="190.5" y="-1094.5" font-family="Helvetica,sans-Serif" font-size="10.00" fill="#000000"> </text>
</a>
</g>
</g>
<!-- Node11&#45;&gt;Node7 -->
<g id="edge7" class="edge">
<title>Node11&#45;&gt;Node7</title>
<path fill="none" stroke="#ffa500" d="M157.4867,-1079.5353C142.8885,-1063.411 125.8167,-1044.5544 111.4636,-1028.7007"/>
<polygon fill="#ffa500" stroke="#ffa500" points="155.1253,-1082.142 164.4315,-1087.2062 160.3146,-1077.4439 155.1253,-1082.142"/>
<text text-anchor="start" x="145.5" y="-1061" font-family="Helvetica,sans-Serif" font-size="10.00" fill="#000000"> &lt; std::string, unsigned</text>
<text text-anchor="middle" x="196" y="-1050" font-family="Helvetica,sans-Serif" font-size="10.00" fill="#000000"> int &gt;</text>
</g>
<!-- Node12 -->
<g id="node9" class="node">
<title>Node12</title>
<polygon fill="#ffffff" stroke="#bfbfbf" points="176,-1198 176,-1255 205,-1255 205,-1198 176,-1198"/>
<text text-anchor="middle" x="190.5" y="-1243" font-family="Helvetica,sans-Serif" font-size="10.00" fill="#000000">K</text>
<polyline fill="none" stroke="#bfbfbf" points="176,-1236 205,-1236 "/>
<text text-anchor="middle" x="190.5" y="-1224" font-family="Helvetica,sans-Serif" font-size="10.00" fill="#000000"> </text>
<polyline fill="none" stroke="#bfbfbf" points="176,-1217 205,-1217 "/>
<text text-anchor="middle" x="190.5" y="-1205" font-family="Helvetica,sans-Serif" font-size="10.00" fill="#000000"> </text>
</g>
<!-- Node12&#45;&gt;Node11 -->
<g id="edge8" class="edge">
<title>Node12&#45;&gt;Node11</title>
<path fill="none" stroke="#404040" d="M190.5,-1197.7559C190.5,-1185.2224 190.5,-1170.3039 190.5,-1156.6631"/>
<polygon fill="none" stroke="#404040" points="190.5001,-1156.6002 186.5,-1150.6002 190.5,-1144.6002 194.5,-1150.6002 190.5001,-1156.6002"/>
<text text-anchor="middle" x="206" y="-1166" font-family="Helvetica,sans-Serif" font-size="10.00" fill="#000000"> +keys</text>
</g>
<!-- Node13 -->
<g id="node10" class="node">
<title>Node13</title>
<polygon fill="#ffffff" stroke="#bfbfbf" points="324,-1198 324,-1255 353,-1255 353,-1198 324,-1198"/>
<text text-anchor="middle" x="338.5" y="-1243" font-family="Helvetica,sans-Serif" font-size="10.00" fill="#000000">T</text>
<polyline fill="none" stroke="#bfbfbf" points="324,-1236 353,-1236 "/>
<text text-anchor="middle" x="338.5" y="-1224" font-family="Helvetica,sans-Serif" font-size="10.00" fill="#000000"> </text>
<polyline fill="none" stroke="#bfbfbf" points="324,-1217 353,-1217 "/>
<text text-anchor="middle" x="338.5" y="-1205" font-family="Helvetica,sans-Serif" font-size="10.00" fill="#000000"> </text>
</g>
<!-- Node13&#45;&gt;Node11 -->
<g id="edge9" class="edge">
<title>Node13&#45;&gt;Node11</title>
<path fill="none" stroke="#404040" d="M323.7681,-1215.5009C304.0613,-1200.7874 268.1708,-1173.9907 238.597,-1151.9103"/>
<polygon fill="none" stroke="#404040" points="238.4579,-1151.8064 231.257,-1151.422 228.8423,-1144.6272 236.0431,-1145.0116 238.4579,-1151.8064"/>
<text text-anchor="middle" x="289" y="-1166" font-family="Helvetica,sans-Serif" font-size="10.00" fill="#000000"> +elements</text>
</g>
<!-- Node18 -->
<g id="node15" class="node">
<title>Node18</title>
<g id="a_node15"><a xlink:title="STL class. ">
<polygon fill="#ffffff" stroke="#bfbfbf" points="367,-1087.5 367,-1144.5 454,-1144.5 454,-1087.5 367,-1087.5"/>
<text text-anchor="middle" x="410.5" y="-1132.5" font-family="Helvetica,sans-Serif" font-size="10.00" fill="#000000">std::vector&lt; T &gt;</text>
<polyline fill="none" stroke="#bfbfbf" points="367,-1125.5 454,-1125.5 "/>
<text text-anchor="middle" x="410.5" y="-1113.5" font-family="Helvetica,sans-Serif" font-size="10.00" fill="#000000"> </text>
<polyline fill="none" stroke="#bfbfbf" points="367,-1106.5 454,-1106.5 "/>
<text text-anchor="middle" x="410.5" y="-1094.5" font-family="Helvetica,sans-Serif" font-size="10.00" fill="#000000"> </text>
</a>
</g>
</g>
<!-- Node13&#45;&gt;Node18 -->
<g id="edge15" class="edge">
<title>Node13&#45;&gt;Node18</title>
<path fill="none" stroke="#404040" d="M353.0703,-1204.1387C362.2387,-1190.0677 374.3228,-1171.5219 385.0401,-1155.0739"/>
<polygon fill="none" stroke="#404040" points="385.2901,-1154.6902 385.2142,-1147.4795 391.8411,-1144.6362 391.917,-1151.8469 385.2901,-1154.6902"/>
<text text-anchor="middle" x="403" y="-1166" font-family="Helvetica,sans-Serif" font-size="10.00" fill="#000000"> +elements</text>
</g>
<!-- Node14 -->
<g id="node11" class="node">
<title>Node14</title>
<polygon fill="#ffffff" stroke="#bfbfbf" points="153.5,-966 153.5,-1023 269.5,-1023 269.5,-966 153.5,-966"/>
<text text-anchor="middle" x="211.5" y="-1011" font-family="Helvetica,sans-Serif" font-size="10.00" fill="#000000">atomic&lt; unsigned int &gt;</text>
<polyline fill="none" stroke="#bfbfbf" points="153.5,-1004 269.5,-1004 "/>
<text text-anchor="middle" x="211.5" y="-992" font-family="Helvetica,sans-Serif" font-size="10.00" fill="#000000"> </text>
<polyline fill="none" stroke="#bfbfbf" points="153.5,-985 269.5,-985 "/>
<text text-anchor="middle" x="211.5" y="-973" font-family="Helvetica,sans-Serif" font-size="10.00" fill="#000000"> </text>
</g>
<!-- Node14&#45;&gt;Node6 -->
<g id="edge10" class="edge">
<title>Node14&#45;&gt;Node6</title>
<path fill="none" stroke="#404040" d="M224.5136,-965.9497C229.8862,-954.1629 236.5452,-939.5539 243.7538,-923.7391"/>
<polygon fill="none" stroke="#404040" points="243.846,-923.5368 242.6948,-916.4181 248.8232,-912.6176 249.9743,-919.7362 243.846,-923.5368"/>
<text text-anchor="middle" x="257" y="-934" font-family="Helvetica,sans-Serif" font-size="10.00" fill="#000000"> &#45;counter</text>
</g>
<!-- Node15 -->
<g id="node12" class="node">
<title>Node15</title>
<polygon fill="#ffffff" stroke="#bfbfbf" points="287.5,-966 287.5,-1023 331.5,-1023 331.5,-966 287.5,-966"/>
<text text-anchor="middle" x="309.5" y="-1011" font-family="Helvetica,sans-Serif" font-size="10.00" fill="#000000">mutex</text>
<polyline fill="none" stroke="#bfbfbf" points="287.5,-1004 331.5,-1004 "/>
<text text-anchor="middle" x="309.5" y="-992" font-family="Helvetica,sans-Serif" font-size="10.00" fill="#000000"> </text>
<polyline fill="none" stroke="#bfbfbf" points="287.5,-985 331.5,-985 "/>
<text text-anchor="middle" x="309.5" y="-973" font-family="Helvetica,sans-Serif" font-size="10.00" fill="#000000"> </text>
</g>
<!-- Node15&#45;&gt;Node6 -->
<g id="edge11" class="edge">
<title>Node15&#45;&gt;Node6</title>
<path fill="none" stroke="#404040" d="M309.5,-965.9497C309.5,-954.3895 309.5,-940.1147 309.5,-924.6501"/>
<polygon fill="none" stroke="#404040" points="309.5001,-924.6176 305.5,-918.6176 309.5,-912.6176 313.5,-918.6175 309.5001,-924.6176"/>
<text text-anchor="middle" x="326.5" y="-934" font-family="Helvetica,sans-Serif" font-size="10.00" fill="#000000"> &#45;mutex</text>
</g>
<!-- Node16 -->
<g id="node13" class="node">
<title>Node16</title>
<polygon fill="#ffffff" stroke="#bfbfbf" points="350,-960.5 350,-1028.5 471,-1028.5 471,-960.5 350,-960.5"/>
<text text-anchor="start" x="358" y="-1016.5" font-family="Helvetica,sans-Serif" font-size="10.00" fill="#000000">std::vector&lt; std::atomic</text>
<text text-anchor="middle" x="410.5" y="-1005.5" font-family="Helvetica,sans-Serif" font-size="10.00" fill="#000000">&lt; bool &gt; *&gt;</text>
<polyline fill="none" stroke="#bfbfbf" points="350,-998.5 471,-998.5 "/>
<text text-anchor="middle" x="410.5" y="-986.5" font-family="Helvetica,sans-Serif" font-size="10.00" fill="#000000"> </text>
<polyline fill="none" stroke="#bfbfbf" points="350,-979.5 471,-979.5 "/>
<text text-anchor="middle" x="410.5" y="-967.5" font-family="Helvetica,sans-Serif" font-size="10.00" fill="#000000"> </text>
</g>
<!-- Node16&#45;&gt;Node6 -->
<g id="edge12" class="edge">
<title>Node16&#45;&gt;Node6</title>
<path fill="none" stroke="#404040" d="M394.4962,-960.4326C389.4488,-949.6881 383.5208,-937.0689 377.1827,-923.577"/>
<polygon fill="none" stroke="#404040" points="377.1231,-923.4501 370.9515,-919.7202 372.0208,-912.5888 378.1924,-916.3187 377.1231,-923.4501"/>
<text text-anchor="middle" x="421" y="-934" font-family="Helvetica,sans-Serif" font-size="10.00" fill="#000000"> &#45;validity_pointers</text>
</g>
<!-- Node17 -->
<g id="node14" class="node">
<title>Node17</title>
<polygon fill="#ffffff" stroke="#bfbfbf" points="260,-1087.5 260,-1144.5 349,-1144.5 349,-1087.5 260,-1087.5"/>
<text text-anchor="middle" x="304.5" y="-1132.5" font-family="Helvetica,sans-Serif" font-size="10.00" fill="#000000">atomic&lt; bool &gt; *</text>
<polyline fill="none" stroke="#bfbfbf" points="260,-1125.5 349,-1125.5 "/>
<text text-anchor="middle" x="304.5" y="-1113.5" font-family="Helvetica,sans-Serif" font-size="10.00" fill="#000000"> </text>
<polyline fill="none" stroke="#bfbfbf" points="260,-1106.5 349,-1106.5 "/>
<text text-anchor="middle" x="304.5" y="-1094.5" font-family="Helvetica,sans-Serif" font-size="10.00" fill="#000000"> </text>
</g>
<!-- Node17&#45;&gt;Node16 -->
<g id="edge13" class="edge">
<title>Node17&#45;&gt;Node16</title>
<path fill="none" stroke="#404040" d="M325.0706,-1087.4484C334.5629,-1074.7479 346.2122,-1059.8035 357.5,-1047 360.2823,-1043.8441 363.2118,-1040.6438 366.2065,-1037.4612"/>
<polygon fill="none" stroke="#404040" points="366.4259,-1037.2334 367.707,-1030.137 374.7503,-1028.5902 373.4692,-1035.6866 366.4259,-1037.2334"/>
<text text-anchor="middle" x="382" y="-1055.5" font-family="Helvetica,sans-Serif" font-size="10.00" fill="#000000"> +elements</text>
</g>
<!-- Node18&#45;&gt;Node16 -->
<g id="edge14" class="edge">
<title>Node18&#45;&gt;Node16</title>
<path fill="none" stroke="#ffa500" d="M410.5,-1076.8733C410.5,-1061.3628 410.5,-1043.6896 410.5,-1028.7007"/>
<polygon fill="#ffa500" stroke="#ffa500" points="407.0001,-1077.2062 410.5,-1087.2062 414.0001,-1077.2062 407.0001,-1077.2062"/>
<text text-anchor="middle" x="465.5" y="-1055.5" font-family="Helvetica,sans-Serif" font-size="10.00" fill="#000000"> &lt; std::atomic&lt; bool &gt; *&gt;</text>
</g>
<!-- Node19 -->
<g id="node16" class="node">
<title>Node19</title>
<polygon fill="#ffffff" stroke="#bfbfbf" points="489,-966 489,-1023 552,-1023 552,-966 489,-966"/>
<text text-anchor="middle" x="520.5" y="-1011" font-family="Helvetica,sans-Serif" font-size="10.00" fill="#000000">type_info *</text>
<polyline fill="none" stroke="#bfbfbf" points="489,-1004 552,-1004 "/>
<text text-anchor="middle" x="520.5" y="-992" font-family="Helvetica,sans-Serif" font-size="10.00" fill="#000000"> </text>
<polyline fill="none" stroke="#bfbfbf" points="489,-985 552,-985 "/>
<text text-anchor="middle" x="520.5" y="-973" font-family="Helvetica,sans-Serif" font-size="10.00" fill="#000000"> </text>
</g>
<!-- Node19&#45;&gt;Node6 -->
<g id="edge16" class="edge">
<title>Node19&#45;&gt;Node6</title>
<path fill="none" stroke="#404040" d="M500.9673,-965.9081C491.0938,-953.4711 478.1077,-939.7666 463.5,-931 434.8476,-913.8046 417.4303,-932.7839 390.5,-913 387.4311,-910.7455 384.4551,-908.3364 381.571,-905.7966"/>
<polygon fill="none" stroke="#404040" points="381.3365,-905.5719 374.2368,-904.3088 372.6721,-897.2695 379.7717,-898.5325 381.3365,-905.5719"/>
<text text-anchor="middle" x="504.5" y="-934" font-family="Helvetica,sans-Serif" font-size="10.00" fill="#000000"> &#45;object_info</text>
</g>
<!-- Node20 -->
<g id="node17" class="node">
<title>Node20</title>
<g id="a_node17"><a xlink:href="classAlignedVector_3_01T_01_4.html" target="_top" xlink:title="{AlignedVector\&lt; T \&gt;\n||}">
<polygon fill="#ffffff" stroke="#000000" points="399,-751 399,-808 500,-808 500,-751 399,-751"/>
<text text-anchor="middle" x="449.5" y="-796" font-family="Helvetica,sans-Serif" font-size="10.00" fill="#000000">AlignedVector&lt; T &gt;</text>
<polyline fill="none" stroke="#000000" points="399,-789 500,-789 "/>
<text text-anchor="middle" x="449.5" y="-777" font-family="Helvetica,sans-Serif" font-size="10.00" fill="#000000"> </text>
<polyline fill="none" stroke="#000000" points="399,-770 500,-770 "/>
<text text-anchor="middle" x="449.5" y="-758" font-family="Helvetica,sans-Serif" font-size="10.00" fill="#000000"> </text>
</a>
</g>
</g>
<!-- Node20&#45;&gt;Node5 -->
<g id="edge17" class="edge">
<title>Node20&#45;&gt;Node5</title>
<path fill="none" stroke="#404040" d="M451.5325,-750.6084C455.93,-683.5325 465.3237,-512.0608 457.5,-369 457.3873,-366.9399 457.2637,-364.8606 457.1302,-362.7666"/>
<polygon fill="none" stroke="#404040" points="457.1195,-362.6157 452.7021,-356.916 456.2642,-350.6462 460.6817,-356.3459 457.1195,-362.6157"/>
<text text-anchor="middle" x="479" y="-496" font-family="Helvetica,sans-Serif" font-size="10.00" fill="#000000"> #values</text>
</g>
<!-- Node20&#45;&gt;Node22 -->
<g id="edge21" class="edge">
<title>Node20&#45;&gt;Node22</title>
<path fill="none" stroke="#404040" d="M442.9516,-750.7486C435.4296,-717.7223 422.6276,-661.5133 411.0149,-610.5262"/>
<polygon fill="none" stroke="#404040" points="410.9908,-610.4202 405.7582,-605.4583 408.3259,-598.7198 413.5585,-603.6817 410.9908,-610.4202"/>
<text text-anchor="middle" x="432" y="-620" font-family="Helvetica,sans-Serif" font-size="10.00" fill="#000000"> #values</text>
</g>
<!-- Node21 -->
<g id="node18" class="node">
<title>Node21</title>
<g id="a_node18"><a xlink:href="classTableIndices_3_01N_01_4.html" target="_top" xlink:title="{TableIndices\&lt; N \&gt;\n||}">
<polygon fill="#ffffff" stroke="#000000" points="522.5,-751 522.5,-808 620.5,-808 620.5,-751 522.5,-751"/>
<text text-anchor="middle" x="571.5" y="-796" font-family="Helvetica,sans-Serif" font-size="10.00" fill="#000000">TableIndices&lt; N &gt;</text>
<polyline fill="none" stroke="#000000" points="522.5,-789 620.5,-789 "/>
<text text-anchor="middle" x="571.5" y="-777" font-family="Helvetica,sans-Serif" font-size="10.00" fill="#000000"> </text>
<polyline fill="none" stroke="#000000" points="522.5,-770 620.5,-770 "/>
<text text-anchor="middle" x="571.5" y="-758" font-family="Helvetica,sans-Serif" font-size="10.00" fill="#000000"> </text>
</a>
</g>
</g>
<!-- Node21&#45;&gt;Node5 -->
<g id="edge18" class="edge">
<title>Node21&#45;&gt;Node5</title>
<path fill="none" stroke="#404040" d="M568.3088,-750.7894C560.7239,-686.581 539.3623,-526.8941 501.5,-398 498.0699,-386.3228 494.1184,-374.2666 489.929,-362.3129"/>
<polygon fill="none" stroke="#404040" points="489.8883,-362.1989 484.1019,-357.8956 485.8487,-350.8992 491.635,-355.2025 489.8883,-362.1989"/>
<text text-anchor="middle" x="572" y="-496" font-family="Helvetica,sans-Serif" font-size="10.00" fill="#000000"> #table_size</text>
</g>
<!-- Node21&#45;&gt;Node22 -->
<g id="edge22" class="edge">
<title>Node21&#45;&gt;Node22</title>
<path fill="none" stroke="#404040" d="M562.5464,-750.8181C552.6762,-722.2521 534.7767,-678.1383 509.5,-646 488.7746,-619.6484 473.0093,-623.8451 450.5,-599 448.1784,-596.4375 445.884,-593.7835 443.623,-591.0607"/>
<polygon fill="none" stroke="#404040" points="443.5445,-590.962 436.6789,-588.7569 436.0737,-581.5712 442.9394,-583.7763 443.5445,-590.962"/>
<text text-anchor="middle" x="516" y="-620" font-family="Helvetica,sans-Serif" font-size="10.00" fill="#000000"> #table_size</text>
</g>
<!-- Node22&#45;&gt;Node5 -->
<g id="edge19" class="edge">
<title>Node22&#45;&gt;Node5</title>
<path fill="none" stroke="#ffa500" d="M411.7099,-388.3295C414.6957,-375.7791 417.727,-363.0372 420.6795,-350.6269"/>
<polygon fill="#ffa500" stroke="#ffa500" points="408.237,-387.8052 409.3275,-398.3438 415.047,-389.4254 408.237,-387.8052"/>
<text text-anchor="middle" x="434" y="-372" font-family="Helvetica,sans-Serif" font-size="10.00" fill="#000000"> &lt; 4, T &gt;</text>
</g>
</g>
</svg>
