<?xml version="1.0" encoding="UTF-8" standalone="no"?>
<!DOCTYPE svg PUBLIC "-//W3C//DTD SVG 1.1//EN"
 "http://www.w3.org/Graphics/SVG/1.1/DTD/svg11.dtd">
<!-- Generated by graphviz version 2.40.1 (20161225.0304)
 -->
<!-- Title: GinkgoWrappers::SolverFCG&lt; ValueType, IndexType &gt; Pages: 1 -->
<svg width="316pt" height="215pt"
 viewBox="0.00 0.00 316.00 215.00" xmlns="http://www.w3.org/2000/svg" xmlns:xlink="http://www.w3.org/1999/xlink">
<g id="graph0" class="graph" transform="scale(1 1) rotate(0) translate(4 211)">
<title>GinkgoWrappers::SolverFCG&lt; ValueType, IndexType &gt;</title>
<polygon fill="#ffffff" stroke="transparent" points="-4,4 -4,-211 312,-211 312,4 -4,4"/>
<!-- Node2 -->
<g id="node1" class="node">
<title>Node2</title>
<polygon fill="#bfbfbf" stroke="#000000" points="82,-.5 82,-79.5 226,-79.5 226,-.5 82,-.5"/>
<text text-anchor="start" x="90" y="-67.5" font-family="Helvetica,sans-Serif" font-size="10.00" fill="#000000">GinkgoWrappers::SolverFCG</text>
<text text-anchor="middle" x="154" y="-56.5" font-family="Helvetica,sans-Serif" font-size="10.00" fill="#000000">&lt; ValueType, IndexType &gt;</text>
<polyline fill="none" stroke="#000000" points="82,-49.5 226,-49.5 "/>
<text text-anchor="middle" x="154" y="-37.5" font-family="Helvetica,sans-Serif" font-size="10.00" fill="#000000"> </text>
<polyline fill="none" stroke="#000000" points="82,-30.5 226,-30.5 "/>
<text text-anchor="start" x="90" y="-18.5" font-family="Helvetica,sans-Serif" font-size="10.00" fill="#000000">+ SolverFCG()</text>
<text text-anchor="start" x="90" y="-7.5" font-family="Helvetica,sans-Serif" font-size="10.00" fill="#000000">+ SolverFCG()</text>
</g>
<!-- Node3 -->
<g id="node2" class="node">
<title>Node3</title>
<g id="a_node2"><a xlink:href="classGinkgoWrappers_1_1SolverBase.html" target="_top" xlink:title="{GinkgoWrappers::SolverBase\l\&lt; ValueType, IndexType \&gt;\n||}">
<polygon fill="#ffffff" stroke="#000000" points="0,-133 0,-201 146,-201 146,-133 0,-133"/>
<text text-anchor="start" x="8" y="-189" font-family="Helvetica,sans-Serif" font-size="10.00" fill="#000000">GinkgoWrappers::SolverBase</text>
<text text-anchor="middle" x="73" y="-178" font-family="Helvetica,sans-Serif" font-size="10.00" fill="#000000">&lt; ValueType, IndexType &gt;</text>
<polyline fill="none" stroke="#000000" points="0,-171 146,-171 "/>
<text text-anchor="middle" x="73" y="-159" font-family="Helvetica,sans-Serif" font-size="10.00" fill="#000000"> </text>
<polyline fill="none" stroke="#000000" points="0,-152 146,-152 "/>
<text text-anchor="middle" x="73" y="-140" font-family="Helvetica,sans-Serif" font-size="10.00" fill="#000000"> </text>
</a>
</g>
</g>
<!-- Node3&#45;&gt;Node2 -->
<g id="edge1" class="edge">
<title>Node3&#45;&gt;Node2</title>
<path fill="none" stroke="#191970" d="M100.291,-124.2104C109.5045,-109.7646 119.7421,-93.713 128.7874,-79.5309"/>
<polygon fill="none" stroke="#191970" points="97.133,-122.6531 94.7065,-132.9663 103.0348,-126.4173 97.133,-122.6531"/>
</g>
<!-- Node4 -->
<g id="node3" class="node">
<title>Node4</title>
<g id="a_node3"><a xlink:href="structGinkgoWrappers_1_1SolverFCG_1_1AdditionalData.html" target="_top" xlink:title="{GinkgoWrappers::SolverFCG\l\&lt; ValueType, IndexType\l \&gt;::AdditionalData\n||}">
<polygon fill="#ffffff" stroke="#000000" points="164,-127.5 164,-206.5 308,-206.5 308,-127.5 164,-127.5"/>
<text text-anchor="start" x="172" y="-194.5" font-family="Helvetica,sans-Serif" font-size="10.00" fill="#000000">GinkgoWrappers::SolverFCG</text>
<text text-anchor="start" x="172" y="-183.5" font-family="Helvetica,sans-Serif" font-size="10.00" fill="#000000">&lt; ValueType, IndexType</text>
<text text-anchor="middle" x="236" y="-172.5" font-family="Helvetica,sans-Serif" font-size="10.00" fill="#000000"> &gt;::AdditionalData</text>
<polyline fill="none" stroke="#000000" points="164,-165.5 308,-165.5 "/>
<text text-anchor="middle" x="236" y="-153.5" font-family="Helvetica,sans-Serif" font-size="10.00" fill="#000000"> </text>
<polyline fill="none" stroke="#000000" points="164,-146.5 308,-146.5 "/>
<text text-anchor="middle" x="236" y="-134.5" font-family="Helvetica,sans-Serif" font-size="10.00" fill="#000000"> </text>
</a>
</g>
</g>
<!-- Node4&#45;&gt;Node2 -->
<g id="edge2" class="edge">
<title>Node4&#45;&gt;Node2</title>
<path fill="none" stroke="#404040" d="M210.2797,-127.1649C202.6473,-115.344 194.1905,-102.2463 186.2015,-89.873"/>
<polygon fill="none" stroke="#404040" points="186.1382,-89.775 179.5232,-86.9041 179.6291,-79.6938 186.2441,-82.5647 186.1382,-89.775"/>
<text text-anchor="middle" x="235" y="-101" font-family="Helvetica,sans-Serif" font-size="10.00" fill="#000000"> #additional_data</text>
</g>
</g>
</svg>
