<?xml version="1.0" encoding="UTF-8" standalone="no"?>
<!DOCTYPE svg PUBLIC "-//W3C//DTD SVG 1.1//EN"
 "http://www.w3.org/Graphics/SVG/1.1/DTD/svg11.dtd">
<!-- Generated by graphviz version 2.40.1 (20161225.0304)
 -->
<!-- Title: FlatManifold&lt; dim, spacedim &gt; Pages: 1 -->
<svg width="750pt" height="248pt"
 viewBox="0.00 0.00 750.00 248.00" xmlns="http://www.w3.org/2000/svg" xmlns:xlink="http://www.w3.org/1999/xlink">
<g id="graph0" class="graph" transform="scale(1 1) rotate(0) translate(4 244)">
<title>FlatManifold&lt; dim, spacedim &gt;</title>
<polygon fill="#ffffff" stroke="transparent" points="-4,4 -4,-244 746,-244 746,4 -4,4"/>
<!-- Node0 -->
<g id="node1" class="node">
<title>Node0</title>
<polygon fill="#bfbfbf" stroke="#000000" points="298,-94 298,-124 408,-124 408,-94 298,-94"/>
<text text-anchor="start" x="306" y="-112" font-family="Helvetica,sans-Serif" font-size="10.00" fill="#000000">FlatManifold&lt; dim,</text>
<text text-anchor="middle" x="353" y="-101" font-family="Helvetica,sans-Serif" font-size="10.00" fill="#000000"> spacedim &gt;</text>
</g>
<!-- Node3 -->
<g id="node4" class="node">
<title>Node3</title>
<g id="a_node4"><a xlink:href="classOpenCASCADE_1_1DirectionalProjectionManifold.html" target="_top" xlink:title="OpenCASCADE::Directional\lProjectionManifold\&lt; dim,\l spacedim \&gt;">
<polygon fill="#ffffff" stroke="#000000" points="578.5,-198.5 578.5,-239.5 726.5,-239.5 726.5,-198.5 578.5,-198.5"/>
<text text-anchor="start" x="586.5" y="-227.5" font-family="Helvetica,sans-Serif" font-size="10.00" fill="#000000">OpenCASCADE::Directional</text>
<text text-anchor="start" x="586.5" y="-216.5" font-family="Helvetica,sans-Serif" font-size="10.00" fill="#000000">ProjectionManifold&lt; dim,</text>
<text text-anchor="middle" x="652.5" y="-205.5" font-family="Helvetica,sans-Serif" font-size="10.00" fill="#000000"> spacedim &gt;</text>
</a>
</g>
</g>
<!-- Node0&#45;&gt;Node3 -->
<g id="edge3" class="edge">
<title>Node0&#45;&gt;Node3</title>
<path fill="none" stroke="#191970" d="M387.2524,-129.0017C399.2693,-135.5583 413.0128,-142.5517 426,-148 475.5914,-168.8044 533.4814,-186.8482 578.3223,-199.5396"/>
<polygon fill="#191970" stroke="#191970" points="388.882,-125.9031 378.4407,-124.1057 385.4822,-132.0221 388.882,-125.9031"/>
</g>
<!-- Node4 -->
<g id="node5" class="node">
<title>Node4</title>
<g id="a_node5"><a xlink:href="classOpenCASCADE_1_1NormalProjectionManifold.html" target="_top" xlink:title="OpenCASCADE::NormalProjection\lManifold\&lt; dim, spacedim \&gt;">
<polygon fill="#ffffff" stroke="#000000" points="563,-149 563,-179 742,-179 742,-149 563,-149"/>
<text text-anchor="start" x="571" y="-167" font-family="Helvetica,sans-Serif" font-size="10.00" fill="#000000">OpenCASCADE::NormalProjection</text>
<text text-anchor="middle" x="652.5" y="-156" font-family="Helvetica,sans-Serif" font-size="10.00" fill="#000000">Manifold&lt; dim, spacedim &gt;</text>
</a>
</g>
</g>
<!-- Node0&#45;&gt;Node4 -->
<g id="edge4" class="edge">
<title>Node0&#45;&gt;Node4</title>
<path fill="none" stroke="#191970" d="M418.3866,-121.5743C420.9573,-122.0577 423.5024,-122.5345 426,-123 473.0442,-131.7687 525.6373,-141.3052 568.2941,-148.9724"/>
<polygon fill="#191970" stroke="#191970" points="418.8676,-118.1033 408.3916,-119.6857 417.5679,-124.9816 418.8676,-118.1033"/>
</g>
<!-- Node5 -->
<g id="node6" class="node">
<title>Node5</title>
<g id="a_node6"><a xlink:href="classOpenCASCADE_1_1NormalToMeshProjectionManifold.html" target="_top" xlink:title="OpenCASCADE::NormalToMesh\lProjectionManifold\&lt; dim,\l spacedim \&gt;">
<polygon fill="#ffffff" stroke="#000000" points="569,-88.5 569,-129.5 736,-129.5 736,-88.5 569,-88.5"/>
<text text-anchor="start" x="577" y="-117.5" font-family="Helvetica,sans-Serif" font-size="10.00" fill="#000000">OpenCASCADE::NormalToMesh</text>
<text text-anchor="start" x="577" y="-106.5" font-family="Helvetica,sans-Serif" font-size="10.00" fill="#000000">ProjectionManifold&lt; dim,</text>
<text text-anchor="middle" x="652.5" y="-95.5" font-family="Helvetica,sans-Serif" font-size="10.00" fill="#000000"> spacedim &gt;</text>
</a>
</g>
</g>
<!-- Node0&#45;&gt;Node5 -->
<g id="edge5" class="edge">
<title>Node0&#45;&gt;Node5</title>
<path fill="none" stroke="#191970" d="M418.3372,-109C462.5542,-109 521.3531,-109 568.968,-109"/>
<polygon fill="#191970" stroke="#191970" points="418.282,-105.5001 408.2819,-109 418.2819,-112.5001 418.282,-105.5001"/>
</g>
<!-- Node6 -->
<g id="node7" class="node">
<title>Node6</title>
<g id="a_node7"><a xlink:href="classFlatManifold.html" target="_top" xlink:title="FlatManifold\&lt; chartdim,\l chartdim \&gt;">
<polygon fill="#ffffff" stroke="#000000" points="585.5,-39 585.5,-69 719.5,-69 719.5,-39 585.5,-39"/>
<text text-anchor="start" x="593.5" y="-57" font-family="Helvetica,sans-Serif" font-size="10.00" fill="#000000">FlatManifold&lt; chartdim,</text>
<text text-anchor="middle" x="652.5" y="-46" font-family="Helvetica,sans-Serif" font-size="10.00" fill="#000000"> chartdim &gt;</text>
</a>
</g>
</g>
<!-- Node0&#45;&gt;Node6 -->
<g id="edge6" class="edge">
<title>Node0&#45;&gt;Node6</title>
<path fill="none" stroke="#ffa500" stroke-dasharray="5,2" d="M418.3752,-95.4741C420.9491,-94.971 423.498,-94.4779 426,-94 479.3424,-83.8115 539.9328,-73.1592 585.0156,-65.4114"/>
<polygon fill="#ffa500" stroke="#ffa500" points="417.5014,-92.0791 408.3709,-97.4537 418.8601,-98.946 417.5014,-92.0791"/>
<text text-anchor="middle" x="485.5" y="-97" font-family="Helvetica,sans-Serif" font-size="10.00" fill="#000000"> &lt; chartdim, chartdim &gt;</text>
</g>
<!-- Node7 -->
<g id="node8" class="node">
<title>Node7</title>
<g id="a_node8"><a xlink:href="classFlatManifold.html" target="_top" xlink:title="FlatManifold\&lt; dim \&gt;">
<polygon fill="#ffffff" stroke="#000000" points="593.5,-.5 593.5,-19.5 711.5,-19.5 711.5,-.5 593.5,-.5"/>
<text text-anchor="middle" x="652.5" y="-7.5" font-family="Helvetica,sans-Serif" font-size="10.00" fill="#000000">FlatManifold&lt; dim &gt;</text>
</a>
</g>
</g>
<!-- Node0&#45;&gt;Node7 -->
<g id="edge7" class="edge">
<title>Node0&#45;&gt;Node7</title>
<path fill="none" stroke="#ffa500" stroke-dasharray="5,2" d="M378.5856,-87.3035C391.9434,-77.0054 409.0136,-65.3691 426,-58 480.0229,-34.5637 546.3909,-22.2316 593.2828,-15.9696"/>
<polygon fill="#ffa500" stroke="#ffa500" points="376.0358,-84.859 370.3819,-93.8192 380.3894,-90.3405 376.0358,-84.859"/>
<text text-anchor="middle" x="485.5" y="-61" font-family="Helvetica,sans-Serif" font-size="10.00" fill="#000000"> &lt; dim &gt;</text>
</g>
<!-- Node1 -->
<g id="node2" class="node">
<title>Node1</title>
<g id="a_node2"><a xlink:href="classManifold.html" target="_top" xlink:title="Manifold\&lt; dim, spacedim \&gt;">
<polygon fill="#ffffff" stroke="#000000" points="108,-99.5 108,-118.5 261,-118.5 261,-99.5 108,-99.5"/>
<text text-anchor="middle" x="184.5" y="-106.5" font-family="Helvetica,sans-Serif" font-size="10.00" fill="#000000">Manifold&lt; dim, spacedim &gt;</text>
</a>
</g>
</g>
<!-- Node1&#45;&gt;Node0 -->
<g id="edge1" class="edge">
<title>Node1&#45;&gt;Node0</title>
<path fill="none" stroke="#191970" d="M271.4901,-109C280.4718,-109 289.4119,-109 297.9015,-109"/>
<polygon fill="#191970" stroke="#191970" points="271.3537,-105.5001 261.3537,-109 271.3537,-112.5001 271.3537,-105.5001"/>
</g>
<!-- Node2 -->
<g id="node3" class="node">
<title>Node2</title>
<g id="a_node3"><a xlink:href="classSubscriptor.html" target="_top" xlink:title="Subscriptor">
<polygon fill="#ffffff" stroke="#000000" points="0,-99.5 0,-118.5 71,-118.5 71,-99.5 0,-99.5"/>
<text text-anchor="middle" x="35.5" y="-106.5" font-family="Helvetica,sans-Serif" font-size="10.00" fill="#000000">Subscriptor</text>
</a>
</g>
</g>
<!-- Node2&#45;&gt;Node1 -->
<g id="edge2" class="edge">
<title>Node2&#45;&gt;Node1</title>
<path fill="none" stroke="#191970" d="M81.4633,-109C89.8453,-109 98.7951,-109 107.7878,-109"/>
<polygon fill="#191970" stroke="#191970" points="81.1892,-105.5001 71.1892,-109 81.1892,-112.5001 81.1892,-105.5001"/>
</g>
</g>
</svg>
