<?xml version="1.0" encoding="UTF-8" standalone="no"?>
<!DOCTYPE svg PUBLIC "-//W3C//DTD SVG 1.1//EN"
 "http://www.w3.org/Graphics/SVG/1.1/DTD/svg11.dtd">
<!-- Generated by graphviz version 2.40.1 (20161225.0304)
 -->
<!-- Title: BaseQR&lt; VectorType &gt; Pages: 1 -->
<svg width="276pt" height="84pt"
 viewBox="0.00 0.00 276.00 84.00" xmlns="http://www.w3.org/2000/svg" xmlns:xlink="http://www.w3.org/1999/xlink">
<g id="graph0" class="graph" transform="scale(1 1) rotate(0) translate(4 80)">
<title>BaseQR&lt; VectorType &gt;</title>
<polygon fill="#ffffff" stroke="transparent" points="-4,4 -4,-80 272,-80 272,4 -4,4"/>
<!-- Node0 -->
<g id="node1" class="node">
<title>Node0</title>
<polygon fill="#bfbfbf" stroke="#000000" points="77,-56.5 77,-75.5 208,-75.5 208,-56.5 77,-56.5"/>
<text text-anchor="middle" x="142.5" y="-63.5" font-family="Helvetica,sans-Serif" font-size="10.00" fill="#000000">BaseQR&lt; VectorType &gt;</text>
</g>
<!-- Node1 -->
<g id="node2" class="node">
<title>Node1</title>
<g id="a_node2"><a xlink:href="classImplicitQR.html" target="_top" xlink:title="ImplicitQR\&lt; VectorType \&gt;">
<polygon fill="#ffffff" stroke="#000000" points="0,-.5 0,-19.5 143,-19.5 143,-.5 0,-.5"/>
<text text-anchor="middle" x="71.5" y="-7.5" font-family="Helvetica,sans-Serif" font-size="10.00" fill="#000000">ImplicitQR&lt; VectorType &gt;</text>
</a>
</g>
</g>
<!-- Node0&#45;&gt;Node1 -->
<g id="edge1" class="edge">
<title>Node0&#45;&gt;Node1</title>
<path fill="none" stroke="#191970" d="M122.123,-49.928C109.7129,-40.1397 94.27,-27.9595 83.7255,-19.6427"/>
<polygon fill="#191970" stroke="#191970" points="120.1136,-52.8007 130.1327,-56.2455 124.4486,-47.3046 120.1136,-52.8007"/>
</g>
<!-- Node2 -->
<g id="node3" class="node">
<title>Node2</title>
<g id="a_node3"><a xlink:href="classQR.html" target="_top" xlink:title="QR\&lt; VectorType \&gt;">
<polygon fill="#ffffff" stroke="#000000" points="161,-.5 161,-19.5 268,-19.5 268,-.5 161,-.5"/>
<text text-anchor="middle" x="214.5" y="-7.5" font-family="Helvetica,sans-Serif" font-size="10.00" fill="#000000">QR&lt; VectorType &gt;</text>
</a>
</g>
</g>
<!-- Node0&#45;&gt;Node2 -->
<g id="edge2" class="edge">
<title>Node0&#45;&gt;Node2</title>
<path fill="none" stroke="#191970" d="M163.164,-49.928C175.7489,-40.1397 191.4092,-27.9595 202.1023,-19.6427"/>
<polygon fill="#191970" stroke="#191970" points="160.7862,-47.3434 155.0414,-56.2455 165.0838,-52.8688 160.7862,-47.3434"/>
</g>
</g>
</svg>
