<?xml version="1.0" encoding="UTF-8" standalone="no"?>
<!DOCTYPE svg PUBLIC "-//W3C//DTD SVG 1.1//EN"
 "http://www.w3.org/Graphics/SVG/1.1/DTD/svg11.dtd">
<!-- Generated by graphviz version 2.40.1 (20161225.0304)
 -->
<!-- Title: internal::MatrixFreeFunctions::partition::CellWork Pages: 1 -->
<!--zoomable 1130 -->
<svg id="main" version="1.1" xmlns="http://www.w3.org/2000/svg" xmlns:xlink="http://www.w3.org/1999/xlink" xml:space="preserve" onload="init(evt)">
<style type="text/css"><![CDATA[
.edge:hover path { stroke: red; }
.edge:hover polygon { stroke: red; fill: red; }
]]></style>
<script type="text/javascript"><![CDATA[
var edges = document.getElementsByTagName('g');
if (edges && edges.length) {
  for (var i=0;i<edges.length;i++) {
    if (edges[i].id.substr(0,4)=='edge') {
      edges[i].setAttribute('class','edge');
    }
  }
}
]]></script>
        <defs>
                <circle id="rim" cx="0" cy="0" r="7"/>
                <circle id="rim2" cx="0" cy="0" r="3.5"/>
                <g id="zoomPlus">
                        <use xlink:href="#rim" fill="#404040">
                                <set attributeName="fill" to="#808080" begin="zoomplus.mouseover" end="zoomplus.mouseout"/>
                        </use>
                        <path d="M-4,0h8M0,-4v8" fill="none" stroke="white" stroke-width="1.5" pointer-events="none"/>
                </g>
                <g id="zoomMin">
                        <use xlink:href="#rim" fill="#404040">
                                <set attributeName="fill" to="#808080" begin="zoomminus.mouseover" end="zoomminus.mouseout"/>
                        </use>
                        <path d="M-4,0h8" fill="none" stroke="white" stroke-width="1.5" pointer-events="none"/>
                </g>
                <g id="dirArrow">
                        <path fill="none" stroke="white" stroke-width="1.5" d="M0,-3.0v7 M-2.5,-0.5L0,-3.0L2.5,-0.5"/>
                </g>
               <g id="resetDef">
                       <use xlink:href="#rim2" fill="#404040">
                               <set attributeName="fill" to="#808080" begin="reset.mouseover" end="reset.mouseout"/>
                       </use>
               </g>
        </defs>

<script type="text/javascript">
var viewWidth = 800;
var viewHeight = 1130;
var sectionId = 'dynsection-1';
</script>
<script xlink:href="svgpan.js"/>
<svg id="graph" class="graph">
<g id="viewport">
<title>internal::MatrixFreeFunctions::partition::CellWork</title>
<polygon fill="#ffffff" stroke="transparent" points="-4,4 -4,-1126 796,-1126 796,4 -4,4"/>
<!-- Node2 -->
<g id="node1" class="node">
<title>Node2</title>
<polygon fill="#bfbfbf" stroke="#000000" points="598,-.5 598,-79.5 741,-79.5 741,-.5 598,-.5"/>
<text text-anchor="start" x="606" y="-67.5" font-family="Helvetica,sans-Serif" font-size="10.00" fill="#000000">internal::MatrixFreeFunctions</text>
<text text-anchor="middle" x="669.5" y="-56.5" font-family="Helvetica,sans-Serif" font-size="10.00" fill="#000000">::partition::CellWork</text>
<polyline fill="none" stroke="#000000" points="598,-49.5 741,-49.5 "/>
<text text-anchor="middle" x="669.5" y="-37.5" font-family="Helvetica,sans-Serif" font-size="10.00" fill="#000000"> </text>
<polyline fill="none" stroke="#000000" points="598,-30.5 741,-30.5 "/>
<text text-anchor="start" x="606" y="-18.5" font-family="Helvetica,sans-Serif" font-size="10.00" fill="#000000">+ CellWork()</text>
<text text-anchor="start" x="606" y="-7.5" font-family="Helvetica,sans-Serif" font-size="10.00" fill="#000000">+ execute()</text>
</g>
<!-- Node3 -->
<g id="node2" class="node">
<title>Node3</title>
<polygon fill="#ffffff" stroke="#bfbfbf" points="450,-144 450,-201 485,-201 485,-144 450,-144"/>
<text text-anchor="middle" x="467.5" y="-189" font-family="Helvetica,sans-Serif" font-size="10.00" fill="#000000">task</text>
<polyline fill="none" stroke="#bfbfbf" points="450,-182 485,-182 "/>
<text text-anchor="middle" x="467.5" y="-170" font-family="Helvetica,sans-Serif" font-size="10.00" fill="#000000"> </text>
<polyline fill="none" stroke="#bfbfbf" points="450,-163 485,-163 "/>
<text text-anchor="middle" x="467.5" y="-151" font-family="Helvetica,sans-Serif" font-size="10.00" fill="#000000"> </text>
</g>
<!-- Node3&#45;&gt;Node2 -->
<g id="edge1" class="edge">
<title>Node3&#45;&gt;Node2</title>
<path fill="none" stroke="#191970" d="M486.2735,-135.1317C488.4942,-132.2063 490.9044,-129.4442 493.5,-127 523.0291,-99.1931 563.1354,-78.4389 597.6048,-64.1893"/>
<polygon fill="none" stroke="#191970" points="483.2001,-133.4297 480.52,-143.68 489.0073,-137.3383 483.2001,-133.4297"/>
</g>
<!-- Node4 -->
<g id="node3" class="node">
<title>Node4</title>
<g id="a_node3"><a xlink:href="classinternal_1_1MatrixFreeFunctions_1_1partition_1_1ActualCellWork.html" target="_top" xlink:title="{internal::MatrixFreeFunctions\l::partition::ActualCellWork\n||+ ActualCellWork()\l+ ActualCellWork()\l+ operator()()\l}">
<polygon fill="#ffffff" stroke="#000000" points="503,-127.5 503,-217.5 646,-217.5 646,-127.5 503,-127.5"/>
<text text-anchor="start" x="511" y="-205.5" font-family="Helvetica,sans-Serif" font-size="10.00" fill="#000000">internal::MatrixFreeFunctions</text>
<text text-anchor="middle" x="574.5" y="-194.5" font-family="Helvetica,sans-Serif" font-size="10.00" fill="#000000">::partition::ActualCellWork</text>
<polyline fill="none" stroke="#000000" points="503,-187.5 646,-187.5 "/>
<text text-anchor="middle" x="574.5" y="-175.5" font-family="Helvetica,sans-Serif" font-size="10.00" fill="#000000"> </text>
<polyline fill="none" stroke="#000000" points="503,-168.5 646,-168.5 "/>
<text text-anchor="start" x="511" y="-156.5" font-family="Helvetica,sans-Serif" font-size="10.00" fill="#000000">+ ActualCellWork()</text>
<text text-anchor="start" x="511" y="-145.5" font-family="Helvetica,sans-Serif" font-size="10.00" fill="#000000">+ ActualCellWork()</text>
<text text-anchor="start" x="511" y="-134.5" font-family="Helvetica,sans-Serif" font-size="10.00" fill="#000000">+ operator()()</text>
</a>
</g>
</g>
<!-- Node4&#45;&gt;Node2 -->
<g id="edge2" class="edge">
<title>Node4&#45;&gt;Node2</title>
<path fill="none" stroke="#404040" d="M606.9279,-127.2716C615.5785,-115.2063 624.9732,-102.1031 633.7895,-89.8068"/>
<polygon fill="none" stroke="#404040" points="634.0378,-89.4604 634.2831,-82.2535 641.0301,-79.7081 640.7847,-86.915 634.0378,-89.4604"/>
<text text-anchor="middle" x="641.5" y="-101" font-family="Helvetica,sans-Serif" font-size="10.00" fill="#000000"> &#45;work</text>
</g>
<!-- Node5 -->
<g id="node4" class="node">
<title>Node5</title>
<g id="a_node4"><a xlink:href="structinternal_1_1MatrixFreeFunctions_1_1TaskInfo.html" target="_top" xlink:title="{internal::MatrixFreeFunctions\l::TaskInfo\n|+ block_size\l+ boundary_partition\l_data_hp\l+ ghost_face_partition_data\l+ refinement_edge_face\l_partition_data\l+ partition_odds\l+ partition_n_blocked\l_workers\l+ partition_n_workers\l|+ TaskInfo()\l+ clear()\l+ loop()\l+ make_boundary_cells\l_divisible()\l+ create_blocks_serial()\l+ initial_setup_blocks\l_tasks()\l+ guess_block_size()\l+ make_thread_graph_partition\l_color()\l+ make_thread_graph_partition\l_partition()\l+ make_thread_graph()\land 8 more...\l}">
<polygon fill="#ffffff" stroke="#000000" points="261,-276.5 261,-597.5 412,-597.5 412,-276.5 261,-276.5"/>
<text text-anchor="start" x="269" y="-585.5" font-family="Helvetica,sans-Serif" font-size="10.00" fill="#000000">internal::MatrixFreeFunctions</text>
<text text-anchor="middle" x="336.5" y="-574.5" font-family="Helvetica,sans-Serif" font-size="10.00" fill="#000000">::TaskInfo</text>
<polyline fill="none" stroke="#000000" points="261,-567.5 412,-567.5 "/>
<text text-anchor="start" x="269" y="-555.5" font-family="Helvetica,sans-Serif" font-size="10.00" fill="#000000">+ block_size</text>
<text text-anchor="start" x="269" y="-544.5" font-family="Helvetica,sans-Serif" font-size="10.00" fill="#000000">+ boundary_partition</text>
<text text-anchor="start" x="269" y="-533.5" font-family="Helvetica,sans-Serif" font-size="10.00" fill="#000000">_data_hp</text>
<text text-anchor="start" x="269" y="-522.5" font-family="Helvetica,sans-Serif" font-size="10.00" fill="#000000">+ ghost_face_partition_data</text>
<text text-anchor="start" x="269" y="-511.5" font-family="Helvetica,sans-Serif" font-size="10.00" fill="#000000">+ refinement_edge_face</text>
<text text-anchor="start" x="269" y="-500.5" font-family="Helvetica,sans-Serif" font-size="10.00" fill="#000000">_partition_data</text>
<text text-anchor="start" x="269" y="-489.5" font-family="Helvetica,sans-Serif" font-size="10.00" fill="#000000">+ partition_odds</text>
<text text-anchor="start" x="269" y="-478.5" font-family="Helvetica,sans-Serif" font-size="10.00" fill="#000000">+ partition_n_blocked</text>
<text text-anchor="start" x="269" y="-467.5" font-family="Helvetica,sans-Serif" font-size="10.00" fill="#000000">_workers</text>
<text text-anchor="start" x="269" y="-456.5" font-family="Helvetica,sans-Serif" font-size="10.00" fill="#000000">+ partition_n_workers</text>
<polyline fill="none" stroke="#000000" points="261,-449.5 412,-449.5 "/>
<text text-anchor="start" x="269" y="-437.5" font-family="Helvetica,sans-Serif" font-size="10.00" fill="#000000">+ TaskInfo()</text>
<text text-anchor="start" x="269" y="-426.5" font-family="Helvetica,sans-Serif" font-size="10.00" fill="#000000">+ clear()</text>
<text text-anchor="start" x="269" y="-415.5" font-family="Helvetica,sans-Serif" font-size="10.00" fill="#000000">+ loop()</text>
<text text-anchor="start" x="269" y="-404.5" font-family="Helvetica,sans-Serif" font-size="10.00" fill="#000000">+ make_boundary_cells</text>
<text text-anchor="start" x="269" y="-393.5" font-family="Helvetica,sans-Serif" font-size="10.00" fill="#000000">_divisible()</text>
<text text-anchor="start" x="269" y="-382.5" font-family="Helvetica,sans-Serif" font-size="10.00" fill="#000000">+ create_blocks_serial()</text>
<text text-anchor="start" x="269" y="-371.5" font-family="Helvetica,sans-Serif" font-size="10.00" fill="#000000">+ initial_setup_blocks</text>
<text text-anchor="start" x="269" y="-360.5" font-family="Helvetica,sans-Serif" font-size="10.00" fill="#000000">_tasks()</text>
<text text-anchor="start" x="269" y="-349.5" font-family="Helvetica,sans-Serif" font-size="10.00" fill="#000000">+ guess_block_size()</text>
<text text-anchor="start" x="269" y="-338.5" font-family="Helvetica,sans-Serif" font-size="10.00" fill="#000000">+ make_thread_graph_partition</text>
<text text-anchor="start" x="269" y="-327.5" font-family="Helvetica,sans-Serif" font-size="10.00" fill="#000000">_color()</text>
<text text-anchor="start" x="269" y="-316.5" font-family="Helvetica,sans-Serif" font-size="10.00" fill="#000000">+ make_thread_graph_partition</text>
<text text-anchor="start" x="269" y="-305.5" font-family="Helvetica,sans-Serif" font-size="10.00" fill="#000000">_partition()</text>
<text text-anchor="start" x="269" y="-294.5" font-family="Helvetica,sans-Serif" font-size="10.00" fill="#000000">+ make_thread_graph()</text>
<text text-anchor="start" x="269" y="-283.5" font-family="Helvetica,sans-Serif" font-size="10.00" fill="#000000">and 8 more...</text>
</a>
</g>
</g>
<!-- Node5&#45;&gt;Node4 -->
<g id="edge3" class="edge">
<title>Node5&#45;&gt;Node4</title>
<path fill="none" stroke="#404040" d="M412.1195,-350.3807C443.5317,-314.7214 480.5211,-273.144 514.5,-236 517.2977,-232.9417 520.1818,-229.8128 523.102,-226.663"/>
<polygon fill="none" stroke="#404040" points="523.205,-226.5526 524.3688,-219.436 531.3855,-217.7731 530.2217,-224.8897 523.205,-226.5526"/>
<text text-anchor="middle" x="537.5" y="-244.5" font-family="Helvetica,sans-Serif" font-size="10.00" fill="#000000"> &#45;task_info</text>
</g>
<!-- Node6 -->
<g id="node5" class="node">
<title>Node6</title>
<polygon fill="#ffffff" stroke="#bfbfbf" points="345.5,-849 345.5,-906 457.5,-906 457.5,-849 345.5,-849"/>
<text text-anchor="middle" x="401.5" y="-894" font-family="Helvetica,sans-Serif" font-size="10.00" fill="#000000">TasksParallelScheme</text>
<polyline fill="none" stroke="#bfbfbf" points="345.5,-887 457.5,-887 "/>
<text text-anchor="middle" x="401.5" y="-875" font-family="Helvetica,sans-Serif" font-size="10.00" fill="#000000"> </text>
<polyline fill="none" stroke="#bfbfbf" points="345.5,-868 457.5,-868 "/>
<text text-anchor="middle" x="401.5" y="-856" font-family="Helvetica,sans-Serif" font-size="10.00" fill="#000000"> </text>
</g>
<!-- Node6&#45;&gt;Node5 -->
<g id="edge4" class="edge">
<title>Node6&#45;&gt;Node5</title>
<path fill="none" stroke="#404040" d="M400.5063,-848.6924C398.5193,-800.3345 393.024,-699.8856 379.5,-616 379.1678,-613.9392 378.8245,-611.867 378.4709,-609.7854"/>
<polygon fill="none" stroke="#404040" points="378.4362,-609.5891 373.4493,-604.3803 376.3394,-597.7737 381.3263,-602.9825 378.4362,-609.5891"/>
<text text-anchor="middle" x="421.5" y="-718" font-family="Helvetica,sans-Serif" font-size="10.00" fill="#000000"> +scheme</text>
</g>
<!-- Node7 -->
<g id="node6" class="node">
<title>Node7</title>
<g id="a_node6"><a xlink:href="classMPI__Comm.html" target="_top" xlink:title="{MPI_Comm\n||}">
<polygon fill="#ffffff" stroke="#000000" points="0,-849 0,-906 69,-906 69,-849 0,-849"/>
<text text-anchor="middle" x="34.5" y="-894" font-family="Helvetica,sans-Serif" font-size="10.00" fill="#000000">MPI_Comm</text>
<polyline fill="none" stroke="#000000" points="0,-887 69,-887 "/>
<text text-anchor="middle" x="34.5" y="-875" font-family="Helvetica,sans-Serif" font-size="10.00" fill="#000000"> </text>
<polyline fill="none" stroke="#000000" points="0,-868 69,-868 "/>
<text text-anchor="middle" x="34.5" y="-856" font-family="Helvetica,sans-Serif" font-size="10.00" fill="#000000"> </text>
</a>
</g>
</g>
<!-- Node7&#45;&gt;Node5 -->
<g id="edge5" class="edge">
<title>Node7&#45;&gt;Node5</title>
<path fill="none" stroke="#404040" d="M26.9232,-848.797C15.2121,-797.9543 -1.7164,-690.4251 41.5,-616 86.523,-538.4636 179.7338,-490.406 249.3983,-463.8605"/>
<polygon fill="none" stroke="#404040" points="249.5523,-463.8034 253.7844,-457.9648 260.8016,-459.6258 256.5695,-465.4644 249.5523,-463.8034"/>
<text text-anchor="middle" x="86.5" y="-723.5" font-family="Helvetica,sans-Serif" font-size="10.00" fill="#000000"> +communicator_sm</text>
<text text-anchor="middle" x="86.5" y="-712.5" font-family="Helvetica,sans-Serif" font-size="10.00" fill="#000000">+communicator</text>
</g>
<!-- Node8 -->
<g id="node7" class="node">
<title>Node8</title>
<polygon fill="#ffffff" stroke="#bfbfbf" points="87,-843.5 87,-911.5 198,-911.5 198,-843.5 87,-843.5"/>
<text text-anchor="start" x="95" y="-899.5" font-family="Helvetica,sans-Serif" font-size="10.00" fill="#000000">std::vector&lt; unsigned</text>
<text text-anchor="middle" x="142.5" y="-888.5" font-family="Helvetica,sans-Serif" font-size="10.00" fill="#000000"> int &gt;</text>
<polyline fill="none" stroke="#bfbfbf" points="87,-881.5 198,-881.5 "/>
<text text-anchor="middle" x="142.5" y="-869.5" font-family="Helvetica,sans-Serif" font-size="10.00" fill="#000000"> </text>
<polyline fill="none" stroke="#bfbfbf" points="87,-862.5 198,-862.5 "/>
<text text-anchor="middle" x="142.5" y="-850.5" font-family="Helvetica,sans-Serif" font-size="10.00" fill="#000000"> </text>
</g>
<!-- Node8&#45;&gt;Node5 -->
<g id="edge6" class="edge">
<title>Node8&#45;&gt;Node5</title>
<path fill="none" stroke="#404040" d="M138.3484,-843.0935C133.6104,-791.2984 130.4278,-691.3449 164.5,-616 184.0597,-572.7471 218.6283,-533.5775 251.6697,-502.9845"/>
<polygon fill="none" stroke="#404040" points="252.0435,-502.6457 253.8029,-495.6525 260.9348,-494.5868 259.1755,-501.58 252.0435,-502.6457"/>
<text text-anchor="start" x="164.5" y="-817" font-family="Helvetica,sans-Serif" font-size="10.00" fill="#000000"> +boundary_partition</text>
<text text-anchor="middle" x="210" y="-806" font-family="Helvetica,sans-Serif" font-size="10.00" fill="#000000">_data_hp_ptr</text>
<text text-anchor="start" x="164.5" y="-795" font-family="Helvetica,sans-Serif" font-size="10.00" fill="#000000">+boundary_partition</text>
<text text-anchor="middle" x="210" y="-784" font-family="Helvetica,sans-Serif" font-size="10.00" fill="#000000">_data</text>
<text text-anchor="middle" x="210" y="-773" font-family="Helvetica,sans-Serif" font-size="10.00" fill="#000000">+partition_evens</text>
<text text-anchor="start" x="164.5" y="-762" font-family="Helvetica,sans-Serif" font-size="10.00" fill="#000000">+cell_partition_data</text>
<text text-anchor="middle" x="210" y="-751" font-family="Helvetica,sans-Serif" font-size="10.00" fill="#000000">_hp</text>
<text text-anchor="middle" x="210" y="-740" font-family="Helvetica,sans-Serif" font-size="10.00" fill="#000000">+partition_row_index</text>
<text text-anchor="start" x="164.5" y="-729" font-family="Helvetica,sans-Serif" font-size="10.00" fill="#000000">+face_partition_data</text>
<text text-anchor="middle" x="210" y="-718" font-family="Helvetica,sans-Serif" font-size="10.00" fill="#000000">_hp</text>
<text text-anchor="start" x="164.5" y="-707" font-family="Helvetica,sans-Serif" font-size="10.00" fill="#000000">+cell_partition</text>
<text text-anchor="middle" x="210" y="-696" font-family="Helvetica,sans-Serif" font-size="10.00" fill="#000000">_data_hp_ptr</text>
<text text-anchor="start" x="164.5" y="-685" font-family="Helvetica,sans-Serif" font-size="10.00" fill="#000000">+face_partition</text>
<text text-anchor="middle" x="210" y="-674" font-family="Helvetica,sans-Serif" font-size="10.00" fill="#000000">_data_hp_ptr</text>
<text text-anchor="start" x="164.5" y="-663" font-family="Helvetica,sans-Serif" font-size="10.00" fill="#000000">+face_partition</text>
<text text-anchor="middle" x="210" y="-652" font-family="Helvetica,sans-Serif" font-size="10.00" fill="#000000">_data</text>
<text text-anchor="start" x="164.5" y="-641" font-family="Helvetica,sans-Serif" font-size="10.00" fill="#000000">+cell_partition</text>
<text text-anchor="middle" x="210" y="-630" font-family="Helvetica,sans-Serif" font-size="10.00" fill="#000000">_data</text>
<text text-anchor="middle" x="210" y="-619" font-family="Helvetica,sans-Serif" font-size="10.00" fill="#000000">...</text>
</g>
<!-- Node9 -->
<g id="node8" class="node">
<title>Node9</title>
<g id="a_node8"><a xlink:href="classunsigned_01int.html" target="_top" xlink:title="{unsigned int\n||}">
<polygon fill="#ffffff" stroke="#000000" points="52,-959.5 52,-1016.5 121,-1016.5 121,-959.5 52,-959.5"/>
<text text-anchor="middle" x="86.5" y="-1004.5" font-family="Helvetica,sans-Serif" font-size="10.00" fill="#000000">unsigned int</text>
<polyline fill="none" stroke="#000000" points="52,-997.5 121,-997.5 "/>
<text text-anchor="middle" x="86.5" y="-985.5" font-family="Helvetica,sans-Serif" font-size="10.00" fill="#000000"> </text>
<polyline fill="none" stroke="#000000" points="52,-978.5 121,-978.5 "/>
<text text-anchor="middle" x="86.5" y="-966.5" font-family="Helvetica,sans-Serif" font-size="10.00" fill="#000000"> </text>
</a>
</g>
</g>
<!-- Node9&#45;&gt;Node8 -->
<g id="edge7" class="edge">
<title>Node9&#45;&gt;Node8</title>
<path fill="none" stroke="#404040" d="M82.6464,-959.3218C82.4644,-949.6583 83.5393,-939.0399 87.5,-930 88.7515,-927.1435 90.2405,-924.3672 91.9123,-921.6805"/>
<polygon fill="none" stroke="#404040" points="92.0679,-921.4678 92.3816,-914.2635 99.1524,-911.7822 98.8387,-918.9865 92.0679,-921.4678"/>
<text text-anchor="middle" x="112" y="-933" font-family="Helvetica,sans-Serif" font-size="10.00" fill="#000000"> +elements</text>
</g>
<!-- Node10 -->
<g id="node9" class="node">
<title>Node10</title>
<g id="a_node9"><a xlink:title="STL class. ">
<polygon fill="#ffffff" stroke="#bfbfbf" points="176,-959.5 176,-1016.5 263,-1016.5 263,-959.5 176,-959.5"/>
<text text-anchor="middle" x="219.5" y="-1004.5" font-family="Helvetica,sans-Serif" font-size="10.00" fill="#000000">std::vector&lt; T &gt;</text>
<polyline fill="none" stroke="#bfbfbf" points="176,-997.5 263,-997.5 "/>
<text text-anchor="middle" x="219.5" y="-985.5" font-family="Helvetica,sans-Serif" font-size="10.00" fill="#000000"> </text>
<polyline fill="none" stroke="#bfbfbf" points="176,-978.5 263,-978.5 "/>
<text text-anchor="middle" x="219.5" y="-966.5" font-family="Helvetica,sans-Serif" font-size="10.00" fill="#000000"> </text>
</a>
</g>
</g>
<!-- Node10&#45;&gt;Node8 -->
<g id="edge8" class="edge">
<title>Node10&#45;&gt;Node8</title>
<path fill="none" stroke="#ffa500" d="M173.2123,-951.9245C170.0352,-948.4345 167.0777,-944.7792 164.5,-941 158.5175,-932.2289 154.0082,-921.6697 150.6809,-911.702"/>
<polygon fill="#ffa500" stroke="#ffa500" points="170.9471,-954.6125 180.456,-959.2848 175.9362,-949.7024 170.9471,-954.6125"/>
<text text-anchor="middle" x="201.5" y="-933" font-family="Helvetica,sans-Serif" font-size="10.00" fill="#000000"> &lt; unsigned int &gt;</text>
</g>
<!-- Node13 -->
<g id="node12" class="node">
<title>Node13</title>
<polygon fill="#ffffff" stroke="#bfbfbf" points="216,-843.5 216,-911.5 327,-911.5 327,-843.5 216,-843.5"/>
<text text-anchor="start" x="224" y="-899.5" font-family="Helvetica,sans-Serif" font-size="10.00" fill="#000000">std::vector&lt; unsigned</text>
<text text-anchor="middle" x="271.5" y="-888.5" font-family="Helvetica,sans-Serif" font-size="10.00" fill="#000000"> char &gt;</text>
<polyline fill="none" stroke="#bfbfbf" points="216,-881.5 327,-881.5 "/>
<text text-anchor="middle" x="271.5" y="-869.5" font-family="Helvetica,sans-Serif" font-size="10.00" fill="#000000"> </text>
<polyline fill="none" stroke="#bfbfbf" points="216,-862.5 327,-862.5 "/>
<text text-anchor="middle" x="271.5" y="-850.5" font-family="Helvetica,sans-Serif" font-size="10.00" fill="#000000"> </text>
</g>
<!-- Node10&#45;&gt;Node13 -->
<g id="edge13" class="edge">
<title>Node10&#45;&gt;Node13</title>
<path fill="none" stroke="#ffa500" d="M237.3729,-950.0202C243.2428,-937.5466 249.7271,-923.7675 255.4529,-911.6001"/>
<polygon fill="#ffa500" stroke="#ffa500" points="234.1178,-948.7174 233.0266,-959.2559 240.4515,-951.698 234.1178,-948.7174"/>
<text text-anchor="middle" x="286.5" y="-933" font-family="Helvetica,sans-Serif" font-size="10.00" fill="#000000"> &lt; unsigned char &gt;</text>
</g>
<!-- Node11 -->
<g id="node10" class="node">
<title>Node11</title>
<polygon fill="#ffffff" stroke="#bfbfbf" points="205,-1064.5 205,-1121.5 234,-1121.5 234,-1064.5 205,-1064.5"/>
<text text-anchor="middle" x="219.5" y="-1109.5" font-family="Helvetica,sans-Serif" font-size="10.00" fill="#000000">T</text>
<polyline fill="none" stroke="#bfbfbf" points="205,-1102.5 234,-1102.5 "/>
<text text-anchor="middle" x="219.5" y="-1090.5" font-family="Helvetica,sans-Serif" font-size="10.00" fill="#000000"> </text>
<polyline fill="none" stroke="#bfbfbf" points="205,-1083.5 234,-1083.5 "/>
<text text-anchor="middle" x="219.5" y="-1071.5" font-family="Helvetica,sans-Serif" font-size="10.00" fill="#000000"> </text>
</g>
<!-- Node11&#45;&gt;Node10 -->
<g id="edge9" class="edge">
<title>Node11&#45;&gt;Node10</title>
<path fill="none" stroke="#404040" d="M219.5,-1064.3083C219.5,-1053.4281 219.5,-1040.817 219.5,-1029.0192"/>
<polygon fill="none" stroke="#404040" points="219.5001,-1028.657 215.5,-1022.6571 219.5,-1016.657 223.5,-1022.657 219.5001,-1028.657"/>
<text text-anchor="middle" x="244" y="-1038" font-family="Helvetica,sans-Serif" font-size="10.00" fill="#000000"> +elements</text>
</g>
<!-- Node12 -->
<g id="node11" class="node">
<title>Node12</title>
<polygon fill="#ffffff" stroke="#bfbfbf" points="510.5,-849 510.5,-906 566.5,-906 566.5,-849 510.5,-849"/>
<text text-anchor="middle" x="538.5" y="-894" font-family="Helvetica,sans-Serif" font-size="10.00" fill="#000000">unsigned</text>
<polyline fill="none" stroke="#bfbfbf" points="510.5,-887 566.5,-887 "/>
<text text-anchor="middle" x="538.5" y="-875" font-family="Helvetica,sans-Serif" font-size="10.00" fill="#000000"> </text>
<polyline fill="none" stroke="#bfbfbf" points="510.5,-868 566.5,-868 "/>
<text text-anchor="middle" x="538.5" y="-856" font-family="Helvetica,sans-Serif" font-size="10.00" fill="#000000"> </text>
</g>
<!-- Node12&#45;&gt;Node4 -->
<g id="edge15" class="edge">
<title>Node12&#45;&gt;Node4</title>
<path fill="none" stroke="#404040" d="M552.7287,-848.9704C555.8858,-841.3633 558.797,-833.0237 560.5,-825 584.3956,-712.4116 579.1817,-367.5907 576.0111,-230.0352"/>
<polygon fill="none" stroke="#404040" points="576.0049,-229.7684 571.8641,-223.8647 575.7211,-217.7718 579.8619,-223.6755 576.0049,-229.7684"/>
<text text-anchor="middle" x="600" y="-434.5" font-family="Helvetica,sans-Serif" font-size="10.00" fill="#000000"> &#45;partition</text>
</g>
<!-- Node12&#45;&gt;Node5 -->
<g id="edge10" class="edge">
<title>Node12&#45;&gt;Node5</title>
<path fill="none" stroke="#404040" d="M510.4181,-863.4043C495.7024,-854.4821 478.8413,-841.5061 469.5,-825 423.4735,-743.671 476.8099,-704.3977 446.5,-616 439.2797,-594.9422 429.25,-573.7512 418.161,-553.6873"/>
<polygon fill="none" stroke="#404040" points="418.0112,-553.4233 411.5714,-550.1786 412.0896,-542.9861 418.5295,-546.2308 418.0112,-553.4233"/>
<text text-anchor="middle" x="515" y="-778.5" font-family="Helvetica,sans-Serif" font-size="10.00" fill="#000000"> +n_blocks</text>
<text text-anchor="middle" x="515" y="-767.5" font-family="Helvetica,sans-Serif" font-size="10.00" fill="#000000">+my_pid</text>
<text text-anchor="middle" x="515" y="-756.5" font-family="Helvetica,sans-Serif" font-size="10.00" fill="#000000">+n_blocked_workers</text>
<text text-anchor="middle" x="515" y="-745.5" font-family="Helvetica,sans-Serif" font-size="10.00" fill="#000000">+n_active_cells</text>
<text text-anchor="middle" x="515" y="-734.5" font-family="Helvetica,sans-Serif" font-size="10.00" fill="#000000">+evens</text>
<text text-anchor="middle" x="515" y="-723.5" font-family="Helvetica,sans-Serif" font-size="10.00" fill="#000000">+n_workers</text>
<text text-anchor="middle" x="515" y="-712.5" font-family="Helvetica,sans-Serif" font-size="10.00" fill="#000000">+odds</text>
<text text-anchor="middle" x="515" y="-701.5" font-family="Helvetica,sans-Serif" font-size="10.00" fill="#000000">+n_ghost_cells</text>
<text text-anchor="middle" x="515" y="-690.5" font-family="Helvetica,sans-Serif" font-size="10.00" fill="#000000">+n_procs</text>
<text text-anchor="start" x="469.5" y="-679.5" font-family="Helvetica,sans-Serif" font-size="10.00" fill="#000000">+vectorization</text>
<text text-anchor="middle" x="515" y="-668.5" font-family="Helvetica,sans-Serif" font-size="10.00" fill="#000000">_length</text>
<text text-anchor="middle" x="515" y="-657.5" font-family="Helvetica,sans-Serif" font-size="10.00" fill="#000000">...</text>
</g>
<!-- Node13&#45;&gt;Node5 -->
<g id="edge11" class="edge">
<title>Node13&#45;&gt;Node5</title>
<path fill="none" stroke="#404040" d="M266.6988,-843.2873C260.6009,-792.989 252.5498,-696.3493 267.5,-616 267.905,-613.8231 268.3356,-611.6385 268.79,-609.4481"/>
<polygon fill="none" stroke="#404040" points="268.8016,-609.3963 266.2182,-602.6639 271.4392,-597.6898 274.0226,-604.4222 268.8016,-609.3963"/>
<text text-anchor="middle" x="321.5" y="-718" font-family="Helvetica,sans-Serif" font-size="10.00" fill="#000000"> +task_at_mpi_boundary</text>
</g>
<!-- Node14 -->
<g id="node13" class="node">
<title>Node14</title>
<polygon fill="#ffffff" stroke="#bfbfbf" points="322,-959.5 322,-1016.5 399,-1016.5 399,-959.5 322,-959.5"/>
<text text-anchor="middle" x="360.5" y="-1004.5" font-family="Helvetica,sans-Serif" font-size="10.00" fill="#000000">unsigned char</text>
<polyline fill="none" stroke="#bfbfbf" points="322,-997.5 399,-997.5 "/>
<text text-anchor="middle" x="360.5" y="-985.5" font-family="Helvetica,sans-Serif" font-size="10.00" fill="#000000"> </text>
<polyline fill="none" stroke="#bfbfbf" points="322,-978.5 399,-978.5 "/>
<text text-anchor="middle" x="360.5" y="-966.5" font-family="Helvetica,sans-Serif" font-size="10.00" fill="#000000"> </text>
</g>
<!-- Node14&#45;&gt;Node13 -->
<g id="edge12" class="edge">
<title>Node14&#45;&gt;Node13</title>
<path fill="none" stroke="#404040" d="M348.8452,-959.2648C344.1949,-949.4919 338.3141,-938.8197 331.5,-930 328.9692,-926.7243 326.2109,-923.4975 323.3128,-920.3528"/>
<polygon fill="none" stroke="#404040" points="323.2572,-920.2962 316.1989,-918.8191 314.8478,-911.7357 321.906,-913.2128 323.2572,-920.2962"/>
<text text-anchor="middle" x="364" y="-933" font-family="Helvetica,sans-Serif" font-size="10.00" fill="#000000"> +elements</text>
</g>
<!-- Node15 -->
<g id="node14" class="node">
<title>Node15</title>
<g id="a_node14"><a xlink:href="structinternal_1_1MFWorkerInterface.html" target="_top" xlink:title="{internal::MFWorkerInterface\n||+ ~MFWorkerInterface()\l+ vector_update_ghosts\l_start()\l+ vector_update_ghosts\l_finish()\l+ vector_compress_start()\l+ vector_compress_finish()\l+ zero_dst_vector_range()\l+ cell_loop_pre_range()\l+ cell_loop_post_range()\l+ cell()\l+ cell()\l+ face()\l+ boundary()\l}">
<polygon fill="#ffffff" stroke="#000000" points="633.5,-337 633.5,-537 771.5,-537 771.5,-337 633.5,-337"/>
<text text-anchor="middle" x="702.5" y="-525" font-family="Helvetica,sans-Serif" font-size="10.00" fill="#000000">internal::MFWorkerInterface</text>
<polyline fill="none" stroke="#000000" points="633.5,-518 771.5,-518 "/>
<text text-anchor="middle" x="702.5" y="-506" font-family="Helvetica,sans-Serif" font-size="10.00" fill="#000000"> </text>
<polyline fill="none" stroke="#000000" points="633.5,-499 771.5,-499 "/>
<text text-anchor="start" x="641.5" y="-487" font-family="Helvetica,sans-Serif" font-size="10.00" fill="#000000">+ ~MFWorkerInterface()</text>
<text text-anchor="start" x="641.5" y="-476" font-family="Helvetica,sans-Serif" font-size="10.00" fill="#000000">+ vector_update_ghosts</text>
<text text-anchor="start" x="641.5" y="-465" font-family="Helvetica,sans-Serif" font-size="10.00" fill="#000000">_start()</text>
<text text-anchor="start" x="641.5" y="-454" font-family="Helvetica,sans-Serif" font-size="10.00" fill="#000000">+ vector_update_ghosts</text>
<text text-anchor="start" x="641.5" y="-443" font-family="Helvetica,sans-Serif" font-size="10.00" fill="#000000">_finish()</text>
<text text-anchor="start" x="641.5" y="-432" font-family="Helvetica,sans-Serif" font-size="10.00" fill="#000000">+ vector_compress_start()</text>
<text text-anchor="start" x="641.5" y="-421" font-family="Helvetica,sans-Serif" font-size="10.00" fill="#000000">+ vector_compress_finish()</text>
<text text-anchor="start" x="641.5" y="-410" font-family="Helvetica,sans-Serif" font-size="10.00" fill="#000000">+ zero_dst_vector_range()</text>
<text text-anchor="start" x="641.5" y="-399" font-family="Helvetica,sans-Serif" font-size="10.00" fill="#000000">+ cell_loop_pre_range()</text>
<text text-anchor="start" x="641.5" y="-388" font-family="Helvetica,sans-Serif" font-size="10.00" fill="#000000">+ cell_loop_post_range()</text>
<text text-anchor="start" x="641.5" y="-377" font-family="Helvetica,sans-Serif" font-size="10.00" fill="#000000">+ cell()</text>
<text text-anchor="start" x="641.5" y="-366" font-family="Helvetica,sans-Serif" font-size="10.00" fill="#000000">+ cell()</text>
<text text-anchor="start" x="641.5" y="-355" font-family="Helvetica,sans-Serif" font-size="10.00" fill="#000000">+ face()</text>
<text text-anchor="start" x="641.5" y="-344" font-family="Helvetica,sans-Serif" font-size="10.00" fill="#000000">+ boundary()</text>
</a>
</g>
</g>
<!-- Node15&#45;&gt;Node4 -->
<g id="edge14" class="edge">
<title>Node15&#45;&gt;Node4</title>
<path fill="none" stroke="#404040" d="M653.9262,-336.6267C636.2266,-300.0523 616.8532,-260.0189 601.6712,-228.6467"/>
<polygon fill="none" stroke="#404040" points="601.5056,-228.3045 595.2914,-224.6461 596.2783,-217.5028 602.4925,-221.1612 601.5056,-228.3045"/>
<text text-anchor="middle" x="647.5" y="-250" font-family="Helvetica,sans-Serif" font-size="10.00" fill="#000000"> &#45;worker_pointer</text>
<text text-anchor="middle" x="647.5" y="-239" font-family="Helvetica,sans-Serif" font-size="10.00" fill="#000000">&#45;worker</text>
</g>
<!-- Node16 -->
<g id="node15" class="node">
<title>Node16</title>
<polygon fill="#ffffff" stroke="#bfbfbf" points="664.5,-144 664.5,-201 738.5,-201 738.5,-144 664.5,-144"/>
<text text-anchor="middle" x="701.5" y="-189" font-family="Helvetica,sans-Serif" font-size="10.00" fill="#000000">empty_task *</text>
<polyline fill="none" stroke="#bfbfbf" points="664.5,-182 738.5,-182 "/>
<text text-anchor="middle" x="701.5" y="-170" font-family="Helvetica,sans-Serif" font-size="10.00" fill="#000000"> </text>
<polyline fill="none" stroke="#bfbfbf" points="664.5,-163 738.5,-163 "/>
<text text-anchor="middle" x="701.5" y="-151" font-family="Helvetica,sans-Serif" font-size="10.00" fill="#000000"> </text>
</g>
<!-- Node16&#45;&gt;Node2 -->
<g id="edge16" class="edge">
<title>Node16&#45;&gt;Node2</title>
<path fill="none" stroke="#404040" d="M694.5565,-143.7495C690.8498,-128.4013 686.1761,-109.0494 681.8721,-91.2283"/>
<polygon fill="none" stroke="#404040" points="681.857,-91.1653 676.5602,-86.272 679.0398,-79.5006 684.3366,-84.3939 681.857,-91.1653"/>
<text text-anchor="middle" x="706.5" y="-101" font-family="Helvetica,sans-Serif" font-size="10.00" fill="#000000"> +dummy</text>
</g>
<!-- Node17 -->
<g id="node16" class="node">
<title>Node17</title>
<g id="a_node16"><a xlink:href="classbool.html" target="_top" xlink:title="{bool\n||}">
<polygon fill="#ffffff" stroke="#000000" points="757,-144 757,-201 792,-201 792,-144 757,-144"/>
<text text-anchor="middle" x="774.5" y="-189" font-family="Helvetica,sans-Serif" font-size="10.00" fill="#000000">bool</text>
<polyline fill="none" stroke="#000000" points="757,-182 792,-182 "/>
<text text-anchor="middle" x="774.5" y="-170" font-family="Helvetica,sans-Serif" font-size="10.00" fill="#000000"> </text>
<polyline fill="none" stroke="#000000" points="757,-163 792,-163 "/>
<text text-anchor="middle" x="774.5" y="-151" font-family="Helvetica,sans-Serif" font-size="10.00" fill="#000000"> </text>
</a>
</g>
</g>
<!-- Node17&#45;&gt;Node2 -->
<g id="edge17" class="edge">
<title>Node17&#45;&gt;Node2</title>
<path fill="none" stroke="#404040" d="M760.4223,-143.645C752.7886,-129.2811 742.6438,-112.0344 731.5,-98 729.0253,-94.8833 726.3829,-91.7789 723.6357,-88.7189"/>
<polygon fill="none" stroke="#404040" points="723.3714,-88.4383 716.3456,-86.8138 715.1429,-79.7037 722.1686,-81.3282 723.3714,-88.4383"/>
<text text-anchor="middle" x="764" y="-101" font-family="Helvetica,sans-Serif" font-size="10.00" fill="#000000"> &#45;is_blocked</text>
</g>
</g>
</svg>
        <g id="navigator" transform="translate(0 0)" fill="#404254">
                <rect fill="#f2f5e9" fill-opacity="0.5" stroke="#606060" stroke-width=".5" x="0" y="0" width="60" height="60"/>
                <use id="zoomplus" xlink:href="#zoomPlus" x="17" y="9" onmousedown="handleZoom(evt,'in')"/>
                <use id="zoomminus" xlink:href="#zoomMin" x="42" y="9" onmousedown="handleZoom(evt,'out')"/>
                <use id="reset" xlink:href="#resetDef" x="30" y="36" onmousedown="handleReset()"/>
                <g id="arrowUp" xlink:href="#dirArrow" transform="translate(30 24)" onmousedown="handlePan(0,-1)">
                  <use xlink:href="#rim" fill="#404040">
                        <set attributeName="fill" to="#808080" begin="arrowUp.mouseover" end="arrowUp.mouseout"/>
                  </use>
                  <path fill="none" stroke="white" stroke-width="1.5" d="M0,-3.0v7 M-2.5,-0.5L0,-3.0L2.5,-0.5"/>
                </g>
                <g id="arrowRight" xlink:href="#dirArrow" transform="rotate(90) translate(36 -43)" onmousedown="handlePan(1,0)">
                  <use xlink:href="#rim" fill="#404040">
                        <set attributeName="fill" to="#808080" begin="arrowRight.mouseover" end="arrowRight.mouseout"/>
                  </use>
                  <path fill="none" stroke="white" stroke-width="1.5" d="M0,-3.0v7 M-2.5,-0.5L0,-3.0L2.5,-0.5"/>
                </g>
                <g id="arrowDown" xlink:href="#dirArrow" transform="rotate(180) translate(-30 -48)" onmousedown="handlePan(0,1)">
                  <use xlink:href="#rim" fill="#404040">
                        <set attributeName="fill" to="#808080" begin="arrowDown.mouseover" end="arrowDown.mouseout"/>
                  </use>
                  <path fill="none" stroke="white" stroke-width="1.5" d="M0,-3.0v7 M-2.5,-0.5L0,-3.0L2.5,-0.5"/>
                </g>
                <g id="arrowLeft" xlink:href="#dirArrow" transform="rotate(270) translate(-36 17)" onmousedown="handlePan(-1,0)">
                  <use xlink:href="#rim" fill="#404040">
                        <set attributeName="fill" to="#808080" begin="arrowLeft.mouseover" end="arrowLeft.mouseout"/>
                  </use>
                  <path fill="none" stroke="white" stroke-width="1.5" d="M0,-3.0v7 M-2.5,-0.5L0,-3.0L2.5,-0.5"/>
                </g>
        </g>
        <svg viewBox="0 0 15 15" width="100%" height="30px" preserveAspectRatio="xMaxYMin meet">
         <g id="arrow_out" transform="scale(0.3 0.3)">
          <a xlink:href="classinternal_1_1MatrixFreeFunctions_1_1partition_1_1CellWork__coll__graph_org.svg" target="_base">
           <rect id="button" ry="5" rx="5" y="6" x="6" height="38" width="38"
                fill="#f2f5e9" fill-opacity="0.5" stroke="#606060" stroke-width="1.0"/>
           <path id="arrow"
             d="M 11.500037,31.436501 C 11.940474,20.09759 22.043105,11.32322 32.158766,21.979434 L 37.068811,17.246167 C 37.068811,17.246167 37.088388,32 37.088388,32 L 22.160133,31.978069 C 22.160133,31.978069 26.997745,27.140456 26.997745,27.140456 C 18.528582,18.264221 13.291696,25.230495 11.500037,31.436501 z"
             style="fill:#404040;"/>
          </a>
         </g>
        </svg>
</svg>
