<?xml version="1.0" encoding="UTF-8" standalone="no"?>
<!DOCTYPE svg PUBLIC "-//W3C//DTD SVG 1.1//EN"
 "http://www.w3.org/Graphics/SVG/1.1/DTD/svg11.dtd">
<!-- Generated by graphviz version 2.40.1 (20161225.0304)
 -->
<!-- Title: internal::DoFHandlerImplementation::DoFObjects&lt; dim &gt; Pages: 1 -->
<svg width="199pt" height="458pt"
 viewBox="0.00 0.00 198.50 458.00" xmlns="http://www.w3.org/2000/svg" xmlns:xlink="http://www.w3.org/1999/xlink">
<g id="graph0" class="graph" transform="scale(1 1) rotate(0) translate(4 454)">
<title>internal::DoFHandlerImplementation::DoFObjects&lt; dim &gt;</title>
<polygon fill="#ffffff" stroke="transparent" points="-4,4 -4,-454 194.5,-454 194.5,4 -4,4"/>
<!-- Node3 -->
<g id="node1" class="node">
<title>Node3</title>
<polygon fill="#bfbfbf" stroke="#000000" points="0,-.5 0,-123.5 173,-123.5 173,-.5 0,-.5"/>
<text text-anchor="start" x="8" y="-111.5" font-family="Helvetica,sans-Serif" font-size="10.00" fill="#000000">internal::DoFHandlerImplementation</text>
<text text-anchor="middle" x="86.5" y="-100.5" font-family="Helvetica,sans-Serif" font-size="10.00" fill="#000000">::DoFObjects&lt; dim &gt;</text>
<polyline fill="none" stroke="#000000" points="0,-93.5 173,-93.5 "/>
<text text-anchor="middle" x="86.5" y="-81.5" font-family="Helvetica,sans-Serif" font-size="10.00" fill="#000000"> </text>
<polyline fill="none" stroke="#000000" points="0,-74.5 173,-74.5 "/>
<text text-anchor="start" x="8" y="-62.5" font-family="Helvetica,sans-Serif" font-size="10.00" fill="#000000">+ set_dof_index()</text>
<text text-anchor="start" x="8" y="-51.5" font-family="Helvetica,sans-Serif" font-size="10.00" fill="#000000">+ get_dof_index()</text>
<text text-anchor="start" x="8" y="-40.5" font-family="Helvetica,sans-Serif" font-size="10.00" fill="#000000">+ n_active_fe_indices()</text>
<text text-anchor="start" x="8" y="-29.5" font-family="Helvetica,sans-Serif" font-size="10.00" fill="#000000">+ fe_index_is_active()</text>
<text text-anchor="start" x="8" y="-18.5" font-family="Helvetica,sans-Serif" font-size="10.00" fill="#000000">+ memory_consumption()</text>
<text text-anchor="start" x="8" y="-7.5" font-family="Helvetica,sans-Serif" font-size="10.00" fill="#000000">+ serialize()</text>
</g>
<!-- Node4 -->
<g id="node2" class="node">
<title>Node4</title>
<polygon fill="#ffffff" stroke="#bfbfbf" points="31,-171.5 31,-239.5 142,-239.5 142,-171.5 31,-171.5"/>
<text text-anchor="start" x="39" y="-227.5" font-family="Helvetica,sans-Serif" font-size="10.00" fill="#000000">std::vector&lt; unsigned</text>
<text text-anchor="middle" x="86.5" y="-216.5" font-family="Helvetica,sans-Serif" font-size="10.00" fill="#000000"> int &gt;</text>
<polyline fill="none" stroke="#bfbfbf" points="31,-209.5 142,-209.5 "/>
<text text-anchor="middle" x="86.5" y="-197.5" font-family="Helvetica,sans-Serif" font-size="10.00" fill="#000000"> </text>
<polyline fill="none" stroke="#bfbfbf" points="31,-190.5 142,-190.5 "/>
<text text-anchor="middle" x="86.5" y="-178.5" font-family="Helvetica,sans-Serif" font-size="10.00" fill="#000000"> </text>
</g>
<!-- Node4&#45;&gt;Node3 -->
<g id="edge1" class="edge">
<title>Node4&#45;&gt;Node3</title>
<path fill="none" stroke="#404040" d="M86.5,-171.4925C86.5,-160.6267 86.5,-148.1465 86.5,-135.5911"/>
<polygon fill="none" stroke="#404040" points="86.5001,-135.5807 82.5,-129.5807 86.5,-123.5807 90.5,-129.5806 86.5001,-135.5807"/>
<text text-anchor="middle" x="100.5" y="-145" font-family="Helvetica,sans-Serif" font-size="10.00" fill="#000000"> +dofs</text>
</g>
<!-- Node5 -->
<g id="node3" class="node">
<title>Node5</title>
<g id="a_node3"><a xlink:href="classunsigned_01int.html" target="_top" xlink:title="{unsigned int\n||}">
<polygon fill="#ffffff" stroke="#000000" points="10,-287.5 10,-344.5 79,-344.5 79,-287.5 10,-287.5"/>
<text text-anchor="middle" x="44.5" y="-332.5" font-family="Helvetica,sans-Serif" font-size="10.00" fill="#000000">unsigned int</text>
<polyline fill="none" stroke="#000000" points="10,-325.5 79,-325.5 "/>
<text text-anchor="middle" x="44.5" y="-313.5" font-family="Helvetica,sans-Serif" font-size="10.00" fill="#000000"> </text>
<polyline fill="none" stroke="#000000" points="10,-306.5 79,-306.5 "/>
<text text-anchor="middle" x="44.5" y="-294.5" font-family="Helvetica,sans-Serif" font-size="10.00" fill="#000000"> </text>
</a>
</g>
</g>
<!-- Node5&#45;&gt;Node4 -->
<g id="edge2" class="edge">
<title>Node5&#45;&gt;Node4</title>
<path fill="none" stroke="#404040" d="M49.2691,-287.206C51.2797,-277.7343 53.9863,-267.2624 57.5,-258 58.4452,-255.5083 59.4913,-252.99 60.6087,-250.4755"/>
<polygon fill="none" stroke="#404040" points="60.6568,-250.3756 59.6618,-243.2335 65.8719,-239.568 66.8669,-246.7102 60.6568,-250.3756"/>
<text text-anchor="middle" x="82" y="-261" font-family="Helvetica,sans-Serif" font-size="10.00" fill="#000000"> +elements</text>
</g>
<!-- Node6 -->
<g id="node4" class="node">
<title>Node6</title>
<g id="a_node4"><a xlink:title="STL class. ">
<polygon fill="#ffffff" stroke="#bfbfbf" points="97,-287.5 97,-344.5 184,-344.5 184,-287.5 97,-287.5"/>
<text text-anchor="middle" x="140.5" y="-332.5" font-family="Helvetica,sans-Serif" font-size="10.00" fill="#000000">std::vector&lt; T &gt;</text>
<polyline fill="none" stroke="#bfbfbf" points="97,-325.5 184,-325.5 "/>
<text text-anchor="middle" x="140.5" y="-313.5" font-family="Helvetica,sans-Serif" font-size="10.00" fill="#000000"> </text>
<polyline fill="none" stroke="#bfbfbf" points="97,-306.5 184,-306.5 "/>
<text text-anchor="middle" x="140.5" y="-294.5" font-family="Helvetica,sans-Serif" font-size="10.00" fill="#000000"> </text>
</a>
</g>
</g>
<!-- Node6&#45;&gt;Node4 -->
<g id="edge3" class="edge">
<title>Node6&#45;&gt;Node4</title>
<path fill="none" stroke="#ffa500" d="M121.9397,-278.0202C115.8441,-265.5466 109.1103,-251.7675 103.1643,-239.6001"/>
<polygon fill="#ffa500" stroke="#ffa500" points="118.9178,-279.8081 126.4531,-287.2559 125.207,-276.7346 118.9178,-279.8081"/>
<text text-anchor="middle" x="153.5" y="-261" font-family="Helvetica,sans-Serif" font-size="10.00" fill="#000000"> &lt; unsigned int &gt;</text>
</g>
<!-- Node7 -->
<g id="node5" class="node">
<title>Node7</title>
<polygon fill="#ffffff" stroke="#bfbfbf" points="126,-392.5 126,-449.5 155,-449.5 155,-392.5 126,-392.5"/>
<text text-anchor="middle" x="140.5" y="-437.5" font-family="Helvetica,sans-Serif" font-size="10.00" fill="#000000">T</text>
<polyline fill="none" stroke="#bfbfbf" points="126,-430.5 155,-430.5 "/>
<text text-anchor="middle" x="140.5" y="-418.5" font-family="Helvetica,sans-Serif" font-size="10.00" fill="#000000"> </text>
<polyline fill="none" stroke="#bfbfbf" points="126,-411.5 155,-411.5 "/>
<text text-anchor="middle" x="140.5" y="-399.5" font-family="Helvetica,sans-Serif" font-size="10.00" fill="#000000"> </text>
</g>
<!-- Node7&#45;&gt;Node6 -->
<g id="edge4" class="edge">
<title>Node7&#45;&gt;Node6</title>
<path fill="none" stroke="#404040" d="M140.5,-392.3083C140.5,-381.4281 140.5,-368.817 140.5,-357.0192"/>
<polygon fill="none" stroke="#404040" points="140.5001,-356.657 136.5,-350.6571 140.5,-344.657 144.5,-350.657 140.5001,-356.657"/>
<text text-anchor="middle" x="165" y="-366" font-family="Helvetica,sans-Serif" font-size="10.00" fill="#000000"> +elements</text>
</g>
</g>
</svg>
