<?xml version="1.0" encoding="UTF-8" standalone="no"?>
<!DOCTYPE svg PUBLIC "-//W3C//DTD SVG 1.1//EN"
 "http://www.w3.org/Graphics/SVG/1.1/DTD/svg11.dtd">
<!-- Generated by graphviz version 2.40.1 (20161225.0304)
 -->
<!-- Title: Utilities::MPI::CollectiveMutex::ScopedLock Pages: 1 -->
<svg width="218pt" height="342pt"
 viewBox="0.00 0.00 218.00 342.00" xmlns="http://www.w3.org/2000/svg" xmlns:xlink="http://www.w3.org/1999/xlink">
<g id="graph0" class="graph" transform="scale(1 1) rotate(0) translate(4 338)">
<title>Utilities::MPI::CollectiveMutex::ScopedLock</title>
<polygon fill="#ffffff" stroke="transparent" points="-4,4 -4,-338 214,-338 214,4 -4,4"/>
<!-- Node1 -->
<g id="node1" class="node">
<title>Node1</title>
<polygon fill="#bfbfbf" stroke="#000000" points="15,-.5 15,-79.5 138,-79.5 138,-.5 15,-.5"/>
<text text-anchor="start" x="23" y="-67.5" font-family="Helvetica,sans-Serif" font-size="10.00" fill="#000000">Utilities::MPI::Collective</text>
<text text-anchor="middle" x="76.5" y="-56.5" font-family="Helvetica,sans-Serif" font-size="10.00" fill="#000000">Mutex::ScopedLock</text>
<polyline fill="none" stroke="#000000" points="15,-49.5 138,-49.5 "/>
<text text-anchor="middle" x="76.5" y="-37.5" font-family="Helvetica,sans-Serif" font-size="10.00" fill="#000000"> </text>
<polyline fill="none" stroke="#000000" points="15,-30.5 138,-30.5 "/>
<text text-anchor="start" x="23" y="-18.5" font-family="Helvetica,sans-Serif" font-size="10.00" fill="#000000">+ ScopedLock()</text>
<text text-anchor="start" x="23" y="-7.5" font-family="Helvetica,sans-Serif" font-size="10.00" fill="#000000">+ ~ScopedLock()</text>
</g>
<!-- Node2 -->
<g id="node2" class="node">
<title>Node2</title>
<g id="a_node2"><a xlink:href="classMPI__Comm.html" target="_top" xlink:title="{MPI_Comm\n||}">
<polygon fill="#ffffff" stroke="#000000" points="0,-149.5 0,-206.5 69,-206.5 69,-149.5 0,-149.5"/>
<text text-anchor="middle" x="34.5" y="-194.5" font-family="Helvetica,sans-Serif" font-size="10.00" fill="#000000">MPI_Comm</text>
<polyline fill="none" stroke="#000000" points="0,-187.5 69,-187.5 "/>
<text text-anchor="middle" x="34.5" y="-175.5" font-family="Helvetica,sans-Serif" font-size="10.00" fill="#000000"> </text>
<polyline fill="none" stroke="#000000" points="0,-168.5 69,-168.5 "/>
<text text-anchor="middle" x="34.5" y="-156.5" font-family="Helvetica,sans-Serif" font-size="10.00" fill="#000000"> </text>
</a>
</g>
</g>
<!-- Node2&#45;&gt;Node1 -->
<g id="edge1" class="edge">
<title>Node2&#45;&gt;Node1</title>
<path fill="none" stroke="#404040" d="M43.2024,-149.4063C48.3203,-132.5905 54.9427,-110.8312 60.9321,-91.1517"/>
<polygon fill="none" stroke="#404040" points="60.9705,-91.0254 58.8908,-84.1206 64.4645,-79.5453 66.5442,-86.45 60.9705,-91.0254"/>
<text text-anchor="middle" x="75.5" y="-101" font-family="Helvetica,sans-Serif" font-size="10.00" fill="#000000"> &#45;comm</text>
</g>
<!-- Node3 -->
<g id="node3" class="node">
<title>Node3</title>
<g id="a_node3"><a xlink:href="classUtilities_1_1MPI_1_1CollectiveMutex.html" target="_top" xlink:title="{Utilities::MPI::Collective\lMutex\n||+ CollectiveMutex()\l+ ~CollectiveMutex()\l+ lock()\l+ unlock()\l}">
<polygon fill="#ffffff" stroke="#000000" points="87,-127.5 87,-228.5 210,-228.5 210,-127.5 87,-127.5"/>
<text text-anchor="start" x="95" y="-216.5" font-family="Helvetica,sans-Serif" font-size="10.00" fill="#000000">Utilities::MPI::Collective</text>
<text text-anchor="middle" x="148.5" y="-205.5" font-family="Helvetica,sans-Serif" font-size="10.00" fill="#000000">Mutex</text>
<polyline fill="none" stroke="#000000" points="87,-198.5 210,-198.5 "/>
<text text-anchor="middle" x="148.5" y="-186.5" font-family="Helvetica,sans-Serif" font-size="10.00" fill="#000000"> </text>
<polyline fill="none" stroke="#000000" points="87,-179.5 210,-179.5 "/>
<text text-anchor="start" x="95" y="-167.5" font-family="Helvetica,sans-Serif" font-size="10.00" fill="#000000">+ CollectiveMutex()</text>
<text text-anchor="start" x="95" y="-156.5" font-family="Helvetica,sans-Serif" font-size="10.00" fill="#000000">+ ~CollectiveMutex()</text>
<text text-anchor="start" x="95" y="-145.5" font-family="Helvetica,sans-Serif" font-size="10.00" fill="#000000">+ lock()</text>
<text text-anchor="start" x="95" y="-134.5" font-family="Helvetica,sans-Serif" font-size="10.00" fill="#000000">+ unlock()</text>
</a>
</g>
</g>
<!-- Node3&#45;&gt;Node1 -->
<g id="edge2" class="edge">
<title>Node3&#45;&gt;Node1</title>
<path fill="none" stroke="#404040" d="M122.0987,-127.3975C115.8302,-115.3829 109.1429,-102.5655 102.8755,-90.5531"/>
<polygon fill="none" stroke="#404040" points="102.8128,-90.4328 96.4911,-86.9636 97.262,-79.7938 103.5837,-83.263 102.8128,-90.4328"/>
<text text-anchor="middle" x="129.5" y="-101" font-family="Helvetica,sans-Serif" font-size="10.00" fill="#000000"> &#45;mutex</text>
</g>
<!-- Node4 -->
<g id="node4" class="node">
<title>Node4</title>
<g id="a_node4"><a xlink:href="classMPI__Request.html" target="_top" xlink:title="{MPI_Request\n||}">
<polygon fill="#ffffff" stroke="#000000" points="73,-276.5 73,-333.5 150,-333.5 150,-276.5 73,-276.5"/>
<text text-anchor="middle" x="111.5" y="-321.5" font-family="Helvetica,sans-Serif" font-size="10.00" fill="#000000">MPI_Request</text>
<polyline fill="none" stroke="#000000" points="73,-314.5 150,-314.5 "/>
<text text-anchor="middle" x="111.5" y="-302.5" font-family="Helvetica,sans-Serif" font-size="10.00" fill="#000000"> </text>
<polyline fill="none" stroke="#000000" points="73,-295.5 150,-295.5 "/>
<text text-anchor="middle" x="111.5" y="-283.5" font-family="Helvetica,sans-Serif" font-size="10.00" fill="#000000"> </text>
</a>
</g>
</g>
<!-- Node4&#45;&gt;Node3 -->
<g id="edge3" class="edge">
<title>Node4&#45;&gt;Node3</title>
<path fill="none" stroke="#404040" d="M117.27,-276.2206C119.3304,-266.8458 121.8133,-256.428 124.5,-247 125.1387,-244.7587 125.8094,-242.4837 126.5041,-240.1913"/>
<polygon fill="none" stroke="#404040" points="126.5314,-240.1047 124.5221,-233.1791 130.1421,-228.6607 132.1514,-235.5862 126.5314,-240.1047"/>
<text text-anchor="middle" x="144" y="-250" font-family="Helvetica,sans-Serif" font-size="10.00" fill="#000000"> &#45;request</text>
</g>
<!-- Node5 -->
<g id="node5" class="node">
<title>Node5</title>
<g id="a_node5"><a xlink:href="classbool.html" target="_top" xlink:title="{bool\n||}">
<polygon fill="#ffffff" stroke="#000000" points="168,-276.5 168,-333.5 203,-333.5 203,-276.5 168,-276.5"/>
<text text-anchor="middle" x="185.5" y="-321.5" font-family="Helvetica,sans-Serif" font-size="10.00" fill="#000000">bool</text>
<polyline fill="none" stroke="#000000" points="168,-314.5 203,-314.5 "/>
<text text-anchor="middle" x="185.5" y="-302.5" font-family="Helvetica,sans-Serif" font-size="10.00" fill="#000000"> </text>
<polyline fill="none" stroke="#000000" points="168,-295.5 203,-295.5 "/>
<text text-anchor="middle" x="185.5" y="-283.5" font-family="Helvetica,sans-Serif" font-size="10.00" fill="#000000"> </text>
</a>
</g>
</g>
<!-- Node5&#45;&gt;Node3 -->
<g id="edge4" class="edge">
<title>Node5&#45;&gt;Node3</title>
<path fill="none" stroke="#404040" d="M177.1965,-276.4987C174.0481,-265.6923 170.3268,-252.9192 166.6255,-240.2147"/>
<polygon fill="none" stroke="#404040" points="166.6056,-240.146 161.087,-235.5044 163.249,-228.625 168.7677,-233.2667 166.6056,-240.146"/>
<text text-anchor="middle" x="188" y="-250" font-family="Helvetica,sans-Serif" font-size="10.00" fill="#000000"> &#45;locked</text>
</g>
</g>
</svg>
