<?xml version="1.0" encoding="UTF-8" standalone="no"?>
<!DOCTYPE svg PUBLIC "-//W3C//DTD SVG 1.1//EN"
 "http://www.w3.org/Graphics/SVG/1.1/DTD/svg11.dtd">
<!-- Generated by graphviz version 2.40.1 (20161225.0304)
 -->
<!-- Title: Utilities::MPI::ConsensusAlgorithmsProcessTargets Pages: 1 -->
<svg width="371pt" height="623pt"
 viewBox="0.00 0.00 370.50 623.00" xmlns="http://www.w3.org/2000/svg" xmlns:xlink="http://www.w3.org/1999/xlink">
<g id="graph0" class="graph" transform="scale(1 1) rotate(0) translate(4 619)">
<title>Utilities::MPI::ConsensusAlgorithmsProcessTargets</title>
<polygon fill="#ffffff" stroke="transparent" points="-4,4 -4,-619 366.5,-619 366.5,4 -4,4"/>
<!-- Node3 -->
<g id="node1" class="node">
<title>Node3</title>
<polygon fill="#bfbfbf" stroke="#000000" points="71.5,-.5 71.5,-112.5 229.5,-112.5 229.5,-.5 71.5,-.5"/>
<text text-anchor="start" x="79.5" y="-100.5" font-family="Helvetica,sans-Serif" font-size="10.00" fill="#000000">Utilities::MPI::Consensus</text>
<text text-anchor="middle" x="150.5" y="-89.5" font-family="Helvetica,sans-Serif" font-size="10.00" fill="#000000">AlgorithmsProcessTargets</text>
<polyline fill="none" stroke="#000000" points="71.5,-82.5 229.5,-82.5 "/>
<text text-anchor="middle" x="150.5" y="-70.5" font-family="Helvetica,sans-Serif" font-size="10.00" fill="#000000"> </text>
<polyline fill="none" stroke="#000000" points="71.5,-63.5 229.5,-63.5 "/>
<text text-anchor="start" x="79.5" y="-51.5" font-family="Helvetica,sans-Serif" font-size="10.00" fill="#000000">+ ConsensusAlgorithmsProcess</text>
<text text-anchor="start" x="79.5" y="-40.5" font-family="Helvetica,sans-Serif" font-size="10.00" fill="#000000">Targets()</text>
<text text-anchor="start" x="79.5" y="-29.5" font-family="Helvetica,sans-Serif" font-size="10.00" fill="#000000">+ answer_request()</text>
<text text-anchor="start" x="79.5" y="-18.5" font-family="Helvetica,sans-Serif" font-size="10.00" fill="#000000">+ compute_targets()</text>
<text text-anchor="start" x="79.5" y="-7.5" font-family="Helvetica,sans-Serif" font-size="10.00" fill="#000000">+ get_result()</text>
</g>
<!-- Node4 -->
<g id="node2" class="node">
<title>Node4</title>
<g id="a_node2"><a xlink:href="classUtilities_1_1MPI_1_1ConsensusAlgorithms_1_1Process.html" target="_top" xlink:title="{Utilities::MPI::Consensus\lAlgorithms::Process\&lt; unsigned\l int, unsigned int \&gt;\n||+ ~Process()\l+ compute_targets()\l+ create_request()\l+ prepare_buffer_for\l_answer()\l+ answer_request()\l+ read_answer()\l}">
<polygon fill="#ffffff" stroke="#000000" points="0,-171.5 0,-316.5 153,-316.5 153,-171.5 0,-171.5"/>
<text text-anchor="start" x="8" y="-304.5" font-family="Helvetica,sans-Serif" font-size="10.00" fill="#000000">Utilities::MPI::Consensus</text>
<text text-anchor="start" x="8" y="-293.5" font-family="Helvetica,sans-Serif" font-size="10.00" fill="#000000">Algorithms::Process&lt; unsigned</text>
<text text-anchor="middle" x="76.5" y="-282.5" font-family="Helvetica,sans-Serif" font-size="10.00" fill="#000000"> int, unsigned int &gt;</text>
<polyline fill="none" stroke="#000000" points="0,-275.5 153,-275.5 "/>
<text text-anchor="middle" x="76.5" y="-263.5" font-family="Helvetica,sans-Serif" font-size="10.00" fill="#000000"> </text>
<polyline fill="none" stroke="#000000" points="0,-256.5 153,-256.5 "/>
<text text-anchor="start" x="8" y="-244.5" font-family="Helvetica,sans-Serif" font-size="10.00" fill="#000000">+ ~Process()</text>
<text text-anchor="start" x="8" y="-233.5" font-family="Helvetica,sans-Serif" font-size="10.00" fill="#000000">+ compute_targets()</text>
<text text-anchor="start" x="8" y="-222.5" font-family="Helvetica,sans-Serif" font-size="10.00" fill="#000000">+ create_request()</text>
<text text-anchor="start" x="8" y="-211.5" font-family="Helvetica,sans-Serif" font-size="10.00" fill="#000000">+ prepare_buffer_for</text>
<text text-anchor="start" x="8" y="-200.5" font-family="Helvetica,sans-Serif" font-size="10.00" fill="#000000">_answer()</text>
<text text-anchor="start" x="8" y="-189.5" font-family="Helvetica,sans-Serif" font-size="10.00" fill="#000000">+ answer_request()</text>
<text text-anchor="start" x="8" y="-178.5" font-family="Helvetica,sans-Serif" font-size="10.00" fill="#000000">+ read_answer()</text>
</a>
</g>
</g>
<!-- Node4&#45;&gt;Node3 -->
<g id="edge1" class="edge">
<title>Node4&#45;&gt;Node3</title>
<path fill="none" stroke="#191970" d="M109.0297,-161.5767C115.5542,-145.0451 122.2668,-128.0368 128.3401,-112.6485"/>
<polygon fill="none" stroke="#191970" points="105.6318,-160.6526 105.2162,-171.2392 112.143,-163.2224 105.6318,-160.6526"/>
</g>
<!-- Node5 -->
<g id="node3" class="node">
<title>Node5</title>
<g id="a_node3"><a xlink:href="classUtilities_1_1MPI_1_1ConsensusAlgorithms_1_1Process.html" target="_top" xlink:title="{Utilities::MPI::Consensus\lAlgorithms::Process\&lt; T1, T2 \&gt;\n||+ ~Process()\l+ compute_targets()\l+ create_request()\l+ prepare_buffer_for\l_answer()\l+ answer_request()\l+ read_answer()\l}">
<polygon fill="#ffffff" stroke="#000000" points=".5,-375.5 .5,-509.5 152.5,-509.5 152.5,-375.5 .5,-375.5"/>
<text text-anchor="start" x="8.5" y="-497.5" font-family="Helvetica,sans-Serif" font-size="10.00" fill="#000000">Utilities::MPI::Consensus</text>
<text text-anchor="middle" x="76.5" y="-486.5" font-family="Helvetica,sans-Serif" font-size="10.00" fill="#000000">Algorithms::Process&lt; T1, T2 &gt;</text>
<polyline fill="none" stroke="#000000" points=".5,-479.5 152.5,-479.5 "/>
<text text-anchor="middle" x="76.5" y="-467.5" font-family="Helvetica,sans-Serif" font-size="10.00" fill="#000000"> </text>
<polyline fill="none" stroke="#000000" points=".5,-460.5 152.5,-460.5 "/>
<text text-anchor="start" x="8.5" y="-448.5" font-family="Helvetica,sans-Serif" font-size="10.00" fill="#000000">+ ~Process()</text>
<text text-anchor="start" x="8.5" y="-437.5" font-family="Helvetica,sans-Serif" font-size="10.00" fill="#000000">+ compute_targets()</text>
<text text-anchor="start" x="8.5" y="-426.5" font-family="Helvetica,sans-Serif" font-size="10.00" fill="#000000">+ create_request()</text>
<text text-anchor="start" x="8.5" y="-415.5" font-family="Helvetica,sans-Serif" font-size="10.00" fill="#000000">+ prepare_buffer_for</text>
<text text-anchor="start" x="8.5" y="-404.5" font-family="Helvetica,sans-Serif" font-size="10.00" fill="#000000">_answer()</text>
<text text-anchor="start" x="8.5" y="-393.5" font-family="Helvetica,sans-Serif" font-size="10.00" fill="#000000">+ answer_request()</text>
<text text-anchor="start" x="8.5" y="-382.5" font-family="Helvetica,sans-Serif" font-size="10.00" fill="#000000">+ read_answer()</text>
</a>
</g>
</g>
<!-- Node5&#45;&gt;Node4 -->
<g id="edge2" class="edge">
<title>Node5&#45;&gt;Node4</title>
<path fill="none" stroke="#ffa500" d="M76.5,-364.9613C76.5,-349.0334 76.5,-332.321 76.5,-316.576"/>
<polygon fill="#ffa500" stroke="#ffa500" points="73.0001,-365.2969 76.5,-375.297 80.0001,-365.297 73.0001,-365.2969"/>
<text text-anchor="start" x="76.5" y="-349" font-family="Helvetica,sans-Serif" font-size="10.00" fill="#000000"> &lt; unsigned int, unsigned</text>
<text text-anchor="middle" x="131.5" y="-338" font-family="Helvetica,sans-Serif" font-size="10.00" fill="#000000"> int &gt;</text>
</g>
<!-- Node6 -->
<g id="node4" class="node">
<title>Node6</title>
<polygon fill="#ffffff" stroke="#bfbfbf" points="171,-210 171,-278 282,-278 282,-210 171,-210"/>
<text text-anchor="start" x="179" y="-266" font-family="Helvetica,sans-Serif" font-size="10.00" fill="#000000">std::vector&lt; unsigned</text>
<text text-anchor="middle" x="226.5" y="-255" font-family="Helvetica,sans-Serif" font-size="10.00" fill="#000000"> int &gt;</text>
<polyline fill="none" stroke="#bfbfbf" points="171,-248 282,-248 "/>
<text text-anchor="middle" x="226.5" y="-236" font-family="Helvetica,sans-Serif" font-size="10.00" fill="#000000"> </text>
<polyline fill="none" stroke="#bfbfbf" points="171,-229 282,-229 "/>
<text text-anchor="middle" x="226.5" y="-217" font-family="Helvetica,sans-Serif" font-size="10.00" fill="#000000"> </text>
</g>
<!-- Node6&#45;&gt;Node3 -->
<g id="edge3" class="edge">
<title>Node6&#45;&gt;Node3</title>
<path fill="none" stroke="#404040" d="M212.5604,-209.6096C202.8757,-185.7164 189.649,-153.0847 177.8941,-124.0842"/>
<polygon fill="none" stroke="#404040" points="177.8103,-123.8773 171.8494,-119.8194 173.3025,-112.7562 179.2635,-116.8141 177.8103,-123.8773"/>
<text text-anchor="middle" x="209" y="-145" font-family="Helvetica,sans-Serif" font-size="10.00" fill="#000000"> &#45;sources</text>
<text text-anchor="middle" x="209" y="-134" font-family="Helvetica,sans-Serif" font-size="10.00" fill="#000000">&#45;target</text>
</g>
<!-- Node7 -->
<g id="node5" class="node">
<title>Node7</title>
<g id="a_node5"><a xlink:href="classunsigned_01int.html" target="_top" xlink:title="{unsigned int\n||}">
<polygon fill="#ffffff" stroke="#000000" points="183,-414 183,-471 252,-471 252,-414 183,-414"/>
<text text-anchor="middle" x="217.5" y="-459" font-family="Helvetica,sans-Serif" font-size="10.00" fill="#000000">unsigned int</text>
<polyline fill="none" stroke="#000000" points="183,-452 252,-452 "/>
<text text-anchor="middle" x="217.5" y="-440" font-family="Helvetica,sans-Serif" font-size="10.00" fill="#000000"> </text>
<polyline fill="none" stroke="#000000" points="183,-433 252,-433 "/>
<text text-anchor="middle" x="217.5" y="-421" font-family="Helvetica,sans-Serif" font-size="10.00" fill="#000000"> </text>
</a>
</g>
</g>
<!-- Node7&#45;&gt;Node6 -->
<g id="edge4" class="edge">
<title>Node7&#45;&gt;Node6</title>
<path fill="none" stroke="#404040" d="M218.8087,-413.6364C220.2716,-381.3701 222.6617,-328.6553 224.3897,-290.5449"/>
<polygon fill="none" stroke="#404040" points="224.4043,-290.2187 220.6803,-284.0437 224.948,-278.231 228.6721,-284.4061 224.4043,-290.2187"/>
<text text-anchor="middle" x="247" y="-343.5" font-family="Helvetica,sans-Serif" font-size="10.00" fill="#000000"> +elements</text>
</g>
<!-- Node8 -->
<g id="node6" class="node">
<title>Node8</title>
<g id="a_node6"><a xlink:title="STL class. ">
<polygon fill="#ffffff" stroke="#bfbfbf" points="270,-414 270,-471 357,-471 357,-414 270,-414"/>
<text text-anchor="middle" x="313.5" y="-459" font-family="Helvetica,sans-Serif" font-size="10.00" fill="#000000">std::vector&lt; T &gt;</text>
<polyline fill="none" stroke="#bfbfbf" points="270,-452 357,-452 "/>
<text text-anchor="middle" x="313.5" y="-440" font-family="Helvetica,sans-Serif" font-size="10.00" fill="#000000"> </text>
<polyline fill="none" stroke="#bfbfbf" points="270,-433 357,-433 "/>
<text text-anchor="middle" x="313.5" y="-421" font-family="Helvetica,sans-Serif" font-size="10.00" fill="#000000"> </text>
</a>
</g>
</g>
<!-- Node8&#45;&gt;Node6 -->
<g id="edge5" class="edge">
<title>Node8&#45;&gt;Node6</title>
<path fill="none" stroke="#ffa500" d="M301.495,-404.0069C294.6272,-383.2621 285.4183,-357.3985 275.5,-335 266.9998,-315.8041 256.0343,-295.1466 246.6325,-278.373"/>
<polygon fill="#ffa500" stroke="#ffa500" points="298.242,-405.3207 304.6712,-413.7419 304.8967,-403.1494 298.242,-405.3207"/>
<text text-anchor="middle" x="321.5" y="-343.5" font-family="Helvetica,sans-Serif" font-size="10.00" fill="#000000"> &lt; unsigned int &gt;</text>
</g>
<!-- Node9 -->
<g id="node7" class="node">
<title>Node9</title>
<polygon fill="#ffffff" stroke="#bfbfbf" points="299,-557.5 299,-614.5 328,-614.5 328,-557.5 299,-557.5"/>
<text text-anchor="middle" x="313.5" y="-602.5" font-family="Helvetica,sans-Serif" font-size="10.00" fill="#000000">T</text>
<polyline fill="none" stroke="#bfbfbf" points="299,-595.5 328,-595.5 "/>
<text text-anchor="middle" x="313.5" y="-583.5" font-family="Helvetica,sans-Serif" font-size="10.00" fill="#000000"> </text>
<polyline fill="none" stroke="#bfbfbf" points="299,-576.5 328,-576.5 "/>
<text text-anchor="middle" x="313.5" y="-564.5" font-family="Helvetica,sans-Serif" font-size="10.00" fill="#000000"> </text>
</g>
<!-- Node9&#45;&gt;Node8 -->
<g id="edge6" class="edge">
<title>Node9&#45;&gt;Node8</title>
<path fill="none" stroke="#404040" d="M313.5,-557.3055C313.5,-536.0904 313.5,-506.9058 313.5,-483.2714"/>
<polygon fill="none" stroke="#404040" points="313.5001,-483.1447 309.5,-477.1448 313.5,-471.1447 317.5,-477.1447 313.5001,-483.1447"/>
<text text-anchor="middle" x="338" y="-531" font-family="Helvetica,sans-Serif" font-size="10.00" fill="#000000"> +elements</text>
</g>
</g>
</svg>
