<?xml version="1.0" encoding="UTF-8" standalone="no"?>
<!DOCTYPE svg PUBLIC "-//W3C//DTD SVG 1.1//EN"
 "http://www.w3.org/Graphics/SVG/1.1/DTD/svg11.dtd">
<!-- Generated by graphviz version 2.40.1 (20161225.0304)
 -->
<!-- Title: internal::MatrixFreeFunctions::color::CellWork Pages: 1 -->
<!--zoomable 981 -->
<svg id="main" version="1.1" xmlns="http://www.w3.org/2000/svg" xmlns:xlink="http://www.w3.org/1999/xlink" xml:space="preserve" onload="init(evt)">
<style type="text/css"><![CDATA[
.edge:hover path { stroke: red; }
.edge:hover polygon { stroke: red; fill: red; }
]]></style>
<script type="text/javascript"><![CDATA[
var edges = document.getElementsByTagName('g');
if (edges && edges.length) {
  for (var i=0;i<edges.length;i++) {
    if (edges[i].id.substr(0,4)=='edge') {
      edges[i].setAttribute('class','edge');
    }
  }
}
]]></script>
        <defs>
                <circle id="rim" cx="0" cy="0" r="7"/>
                <circle id="rim2" cx="0" cy="0" r="3.5"/>
                <g id="zoomPlus">
                        <use xlink:href="#rim" fill="#404040">
                                <set attributeName="fill" to="#808080" begin="zoomplus.mouseover" end="zoomplus.mouseout"/>
                        </use>
                        <path d="M-4,0h8M0,-4v8" fill="none" stroke="white" stroke-width="1.5" pointer-events="none"/>
                </g>
                <g id="zoomMin">
                        <use xlink:href="#rim" fill="#404040">
                                <set attributeName="fill" to="#808080" begin="zoomminus.mouseover" end="zoomminus.mouseout"/>
                        </use>
                        <path d="M-4,0h8" fill="none" stroke="white" stroke-width="1.5" pointer-events="none"/>
                </g>
                <g id="dirArrow">
                        <path fill="none" stroke="white" stroke-width="1.5" d="M0,-3.0v7 M-2.5,-0.5L0,-3.0L2.5,-0.5"/>
                </g>
               <g id="resetDef">
                       <use xlink:href="#rim2" fill="#404040">
                               <set attributeName="fill" to="#808080" begin="reset.mouseover" end="reset.mouseout"/>
                       </use>
               </g>
        </defs>

<script type="text/javascript">
var viewWidth = 642;
var viewHeight = 981;
var sectionId = 'dynsection-0';
</script>
<script xlink:href="svgpan.js"/>
<svg id="graph" class="graph">
<g id="viewport">
<title>internal::MatrixFreeFunctions::color::CellWork</title>
<polygon fill="#ffffff" stroke="transparent" points="-4,4 -4,-977 638,-977 638,4 -4,4"/>
<!-- Node1 -->
<g id="node1" class="node">
<title>Node1</title>
<polygon fill="#bfbfbf" stroke="#000000" points="314.5,-.5 314.5,-79.5 457.5,-79.5 457.5,-.5 314.5,-.5"/>
<text text-anchor="start" x="322.5" y="-67.5" font-family="Helvetica,sans-Serif" font-size="10.00" fill="#000000">internal::MatrixFreeFunctions</text>
<text text-anchor="middle" x="386" y="-56.5" font-family="Helvetica,sans-Serif" font-size="10.00" fill="#000000">::color::CellWork</text>
<polyline fill="none" stroke="#000000" points="314.5,-49.5 457.5,-49.5 "/>
<text text-anchor="middle" x="386" y="-37.5" font-family="Helvetica,sans-Serif" font-size="10.00" fill="#000000"> </text>
<polyline fill="none" stroke="#000000" points="314.5,-30.5 457.5,-30.5 "/>
<text text-anchor="start" x="322.5" y="-18.5" font-family="Helvetica,sans-Serif" font-size="10.00" fill="#000000">+ CellWork()</text>
<text text-anchor="start" x="322.5" y="-7.5" font-family="Helvetica,sans-Serif" font-size="10.00" fill="#000000">+ operator()()</text>
</g>
<!-- Node2 -->
<g id="node2" class="node">
<title>Node2</title>
<g id="a_node2"><a xlink:href="structinternal_1_1MatrixFreeFunctions_1_1TaskInfo.html" target="_top" xlink:title="{internal::MatrixFreeFunctions\l::TaskInfo\n|+ block_size\l+ boundary_partition\l_data_hp\l+ ghost_face_partition_data\l+ refinement_edge_face\l_partition_data\l+ partition_odds\l+ partition_n_blocked\l_workers\l+ partition_n_workers\l|+ TaskInfo()\l+ clear()\l+ loop()\l+ make_boundary_cells\l_divisible()\l+ create_blocks_serial()\l+ initial_setup_blocks\l_tasks()\l+ guess_block_size()\l+ make_thread_graph_partition\l_color()\l+ make_thread_graph_partition\l_partition()\l+ make_thread_graph()\land 8 more...\l}">
<polygon fill="#ffffff" stroke="#000000" points="202.5,-127.5 202.5,-448.5 353.5,-448.5 353.5,-127.5 202.5,-127.5"/>
<text text-anchor="start" x="210.5" y="-436.5" font-family="Helvetica,sans-Serif" font-size="10.00" fill="#000000">internal::MatrixFreeFunctions</text>
<text text-anchor="middle" x="278" y="-425.5" font-family="Helvetica,sans-Serif" font-size="10.00" fill="#000000">::TaskInfo</text>
<polyline fill="none" stroke="#000000" points="202.5,-418.5 353.5,-418.5 "/>
<text text-anchor="start" x="210.5" y="-406.5" font-family="Helvetica,sans-Serif" font-size="10.00" fill="#000000">+ block_size</text>
<text text-anchor="start" x="210.5" y="-395.5" font-family="Helvetica,sans-Serif" font-size="10.00" fill="#000000">+ boundary_partition</text>
<text text-anchor="start" x="210.5" y="-384.5" font-family="Helvetica,sans-Serif" font-size="10.00" fill="#000000">_data_hp</text>
<text text-anchor="start" x="210.5" y="-373.5" font-family="Helvetica,sans-Serif" font-size="10.00" fill="#000000">+ ghost_face_partition_data</text>
<text text-anchor="start" x="210.5" y="-362.5" font-family="Helvetica,sans-Serif" font-size="10.00" fill="#000000">+ refinement_edge_face</text>
<text text-anchor="start" x="210.5" y="-351.5" font-family="Helvetica,sans-Serif" font-size="10.00" fill="#000000">_partition_data</text>
<text text-anchor="start" x="210.5" y="-340.5" font-family="Helvetica,sans-Serif" font-size="10.00" fill="#000000">+ partition_odds</text>
<text text-anchor="start" x="210.5" y="-329.5" font-family="Helvetica,sans-Serif" font-size="10.00" fill="#000000">+ partition_n_blocked</text>
<text text-anchor="start" x="210.5" y="-318.5" font-family="Helvetica,sans-Serif" font-size="10.00" fill="#000000">_workers</text>
<text text-anchor="start" x="210.5" y="-307.5" font-family="Helvetica,sans-Serif" font-size="10.00" fill="#000000">+ partition_n_workers</text>
<polyline fill="none" stroke="#000000" points="202.5,-300.5 353.5,-300.5 "/>
<text text-anchor="start" x="210.5" y="-288.5" font-family="Helvetica,sans-Serif" font-size="10.00" fill="#000000">+ TaskInfo()</text>
<text text-anchor="start" x="210.5" y="-277.5" font-family="Helvetica,sans-Serif" font-size="10.00" fill="#000000">+ clear()</text>
<text text-anchor="start" x="210.5" y="-266.5" font-family="Helvetica,sans-Serif" font-size="10.00" fill="#000000">+ loop()</text>
<text text-anchor="start" x="210.5" y="-255.5" font-family="Helvetica,sans-Serif" font-size="10.00" fill="#000000">+ make_boundary_cells</text>
<text text-anchor="start" x="210.5" y="-244.5" font-family="Helvetica,sans-Serif" font-size="10.00" fill="#000000">_divisible()</text>
<text text-anchor="start" x="210.5" y="-233.5" font-family="Helvetica,sans-Serif" font-size="10.00" fill="#000000">+ create_blocks_serial()</text>
<text text-anchor="start" x="210.5" y="-222.5" font-family="Helvetica,sans-Serif" font-size="10.00" fill="#000000">+ initial_setup_blocks</text>
<text text-anchor="start" x="210.5" y="-211.5" font-family="Helvetica,sans-Serif" font-size="10.00" fill="#000000">_tasks()</text>
<text text-anchor="start" x="210.5" y="-200.5" font-family="Helvetica,sans-Serif" font-size="10.00" fill="#000000">+ guess_block_size()</text>
<text text-anchor="start" x="210.5" y="-189.5" font-family="Helvetica,sans-Serif" font-size="10.00" fill="#000000">+ make_thread_graph_partition</text>
<text text-anchor="start" x="210.5" y="-178.5" font-family="Helvetica,sans-Serif" font-size="10.00" fill="#000000">_color()</text>
<text text-anchor="start" x="210.5" y="-167.5" font-family="Helvetica,sans-Serif" font-size="10.00" fill="#000000">+ make_thread_graph_partition</text>
<text text-anchor="start" x="210.5" y="-156.5" font-family="Helvetica,sans-Serif" font-size="10.00" fill="#000000">_partition()</text>
<text text-anchor="start" x="210.5" y="-145.5" font-family="Helvetica,sans-Serif" font-size="10.00" fill="#000000">+ make_thread_graph()</text>
<text text-anchor="start" x="210.5" y="-134.5" font-family="Helvetica,sans-Serif" font-size="10.00" fill="#000000">and 8 more...</text>
</a>
</g>
</g>
<!-- Node2&#45;&gt;Node1 -->
<g id="edge1" class="edge">
<title>Node2&#45;&gt;Node1</title>
<path fill="none" stroke="#404040" d="M321.6918,-127.3812C326.0756,-117.2441 330.8379,-107.3628 336,-98 337.5706,-95.1513 339.2978,-92.3172 341.1372,-89.5211"/>
<polygon fill="none" stroke="#404040" points="341.2423,-89.3737 341.4695,-82.1661 348.21,-79.6037 347.9828,-86.8112 341.2423,-89.3737"/>
<text text-anchor="middle" x="359" y="-101" font-family="Helvetica,sans-Serif" font-size="10.00" fill="#000000"> &#45;task_info</text>
</g>
<!-- Node3 -->
<g id="node3" class="node">
<title>Node3</title>
<polygon fill="#ffffff" stroke="#bfbfbf" points="0,-700 0,-757 112,-757 112,-700 0,-700"/>
<text text-anchor="middle" x="56" y="-745" font-family="Helvetica,sans-Serif" font-size="10.00" fill="#000000">TasksParallelScheme</text>
<polyline fill="none" stroke="#bfbfbf" points="0,-738 112,-738 "/>
<text text-anchor="middle" x="56" y="-726" font-family="Helvetica,sans-Serif" font-size="10.00" fill="#000000"> </text>
<polyline fill="none" stroke="#bfbfbf" points="0,-719 112,-719 "/>
<text text-anchor="middle" x="56" y="-707" font-family="Helvetica,sans-Serif" font-size="10.00" fill="#000000"> </text>
</g>
<!-- Node3&#45;&gt;Node2 -->
<g id="edge2" class="edge">
<title>Node3&#45;&gt;Node2</title>
<path fill="none" stroke="#404040" d="M57.5284,-699.7633C61.2085,-649.7821 73.5233,-544.7525 114,-467 134.0163,-428.5504 164.4194,-392.104 193.633,-362.2571"/>
<polygon fill="none" stroke="#404040" points="193.7708,-362.1187 195.1702,-355.0446 202.2383,-353.6156 200.8389,-360.6897 193.7708,-362.1187"/>
<text text-anchor="middle" x="136" y="-569" font-family="Helvetica,sans-Serif" font-size="10.00" fill="#000000"> +scheme</text>
</g>
<!-- Node4 -->
<g id="node4" class="node">
<title>Node4</title>
<g id="a_node4"><a xlink:href="classMPI__Comm.html" target="_top" xlink:title="{MPI_Comm\n||}">
<polygon fill="#ffffff" stroke="#000000" points="130.5,-700 130.5,-757 199.5,-757 199.5,-700 130.5,-700"/>
<text text-anchor="middle" x="165" y="-745" font-family="Helvetica,sans-Serif" font-size="10.00" fill="#000000">MPI_Comm</text>
<polyline fill="none" stroke="#000000" points="130.5,-738 199.5,-738 "/>
<text text-anchor="middle" x="165" y="-726" font-family="Helvetica,sans-Serif" font-size="10.00" fill="#000000"> </text>
<polyline fill="none" stroke="#000000" points="130.5,-719 199.5,-719 "/>
<text text-anchor="middle" x="165" y="-707" font-family="Helvetica,sans-Serif" font-size="10.00" fill="#000000"> </text>
</a>
</g>
</g>
<!-- Node4&#45;&gt;Node2 -->
<g id="edge3" class="edge">
<title>Node4&#45;&gt;Node2</title>
<path fill="none" stroke="#404040" d="M163.1412,-699.973C160.7985,-651.1846 159.5573,-549.0415 183,-467 186.8513,-453.5217 191.8051,-439.9028 197.4248,-426.5137"/>
<polygon fill="none" stroke="#404040" points="197.5037,-426.3322 196.2303,-419.2344 202.2924,-415.329 203.5658,-422.4268 197.5037,-426.3322"/>
<text text-anchor="middle" x="228" y="-574.5" font-family="Helvetica,sans-Serif" font-size="10.00" fill="#000000"> +communicator_sm</text>
<text text-anchor="middle" x="228" y="-563.5" font-family="Helvetica,sans-Serif" font-size="10.00" fill="#000000">+communicator</text>
</g>
<!-- Node5 -->
<g id="node5" class="node">
<title>Node5</title>
<polygon fill="#ffffff" stroke="#bfbfbf" points="220.5,-694.5 220.5,-762.5 331.5,-762.5 331.5,-694.5 220.5,-694.5"/>
<text text-anchor="start" x="228.5" y="-750.5" font-family="Helvetica,sans-Serif" font-size="10.00" fill="#000000">std::vector&lt; unsigned</text>
<text text-anchor="middle" x="276" y="-739.5" font-family="Helvetica,sans-Serif" font-size="10.00" fill="#000000"> int &gt;</text>
<polyline fill="none" stroke="#bfbfbf" points="220.5,-732.5 331.5,-732.5 "/>
<text text-anchor="middle" x="276" y="-720.5" font-family="Helvetica,sans-Serif" font-size="10.00" fill="#000000"> </text>
<polyline fill="none" stroke="#bfbfbf" points="220.5,-713.5 331.5,-713.5 "/>
<text text-anchor="middle" x="276" y="-701.5" font-family="Helvetica,sans-Serif" font-size="10.00" fill="#000000"> </text>
</g>
<!-- Node5&#45;&gt;Node2 -->
<g id="edge4" class="edge">
<title>Node5&#45;&gt;Node2</title>
<path fill="none" stroke="#404040" d="M276.1553,-694.3012C276.3827,-644.2015 276.8222,-547.3999 277.2152,-460.8496"/>
<polygon fill="none" stroke="#404040" points="277.2157,-460.7108 273.2431,-454.6927 277.2703,-448.711 281.243,-454.7291 277.2157,-460.7108"/>
<text text-anchor="start" x="278" y="-668" font-family="Helvetica,sans-Serif" font-size="10.00" fill="#000000"> +boundary_partition</text>
<text text-anchor="middle" x="323.5" y="-657" font-family="Helvetica,sans-Serif" font-size="10.00" fill="#000000">_data_hp_ptr</text>
<text text-anchor="start" x="278" y="-646" font-family="Helvetica,sans-Serif" font-size="10.00" fill="#000000">+boundary_partition</text>
<text text-anchor="middle" x="323.5" y="-635" font-family="Helvetica,sans-Serif" font-size="10.00" fill="#000000">_data</text>
<text text-anchor="middle" x="323.5" y="-624" font-family="Helvetica,sans-Serif" font-size="10.00" fill="#000000">+partition_evens</text>
<text text-anchor="start" x="278" y="-613" font-family="Helvetica,sans-Serif" font-size="10.00" fill="#000000">+cell_partition_data</text>
<text text-anchor="middle" x="323.5" y="-602" font-family="Helvetica,sans-Serif" font-size="10.00" fill="#000000">_hp</text>
<text text-anchor="middle" x="323.5" y="-591" font-family="Helvetica,sans-Serif" font-size="10.00" fill="#000000">+partition_row_index</text>
<text text-anchor="start" x="278" y="-580" font-family="Helvetica,sans-Serif" font-size="10.00" fill="#000000">+face_partition_data</text>
<text text-anchor="middle" x="323.5" y="-569" font-family="Helvetica,sans-Serif" font-size="10.00" fill="#000000">_hp</text>
<text text-anchor="start" x="278" y="-558" font-family="Helvetica,sans-Serif" font-size="10.00" fill="#000000">+cell_partition</text>
<text text-anchor="middle" x="323.5" y="-547" font-family="Helvetica,sans-Serif" font-size="10.00" fill="#000000">_data_hp_ptr</text>
<text text-anchor="start" x="278" y="-536" font-family="Helvetica,sans-Serif" font-size="10.00" fill="#000000">+face_partition</text>
<text text-anchor="middle" x="323.5" y="-525" font-family="Helvetica,sans-Serif" font-size="10.00" fill="#000000">_data_hp_ptr</text>
<text text-anchor="start" x="278" y="-514" font-family="Helvetica,sans-Serif" font-size="10.00" fill="#000000">+face_partition</text>
<text text-anchor="middle" x="323.5" y="-503" font-family="Helvetica,sans-Serif" font-size="10.00" fill="#000000">_data</text>
<text text-anchor="start" x="278" y="-492" font-family="Helvetica,sans-Serif" font-size="10.00" fill="#000000">+cell_partition</text>
<text text-anchor="middle" x="323.5" y="-481" font-family="Helvetica,sans-Serif" font-size="10.00" fill="#000000">_data</text>
<text text-anchor="middle" x="323.5" y="-470" font-family="Helvetica,sans-Serif" font-size="10.00" fill="#000000">...</text>
</g>
<!-- Node6 -->
<g id="node6" class="node">
<title>Node6</title>
<g id="a_node6"><a xlink:href="classunsigned_01int.html" target="_top" xlink:title="{unsigned int\n||}">
<polygon fill="#ffffff" stroke="#000000" points="185.5,-810.5 185.5,-867.5 254.5,-867.5 254.5,-810.5 185.5,-810.5"/>
<text text-anchor="middle" x="220" y="-855.5" font-family="Helvetica,sans-Serif" font-size="10.00" fill="#000000">unsigned int</text>
<polyline fill="none" stroke="#000000" points="185.5,-848.5 254.5,-848.5 "/>
<text text-anchor="middle" x="220" y="-836.5" font-family="Helvetica,sans-Serif" font-size="10.00" fill="#000000"> </text>
<polyline fill="none" stroke="#000000" points="185.5,-829.5 254.5,-829.5 "/>
<text text-anchor="middle" x="220" y="-817.5" font-family="Helvetica,sans-Serif" font-size="10.00" fill="#000000"> </text>
</a>
</g>
</g>
<!-- Node6&#45;&gt;Node5 -->
<g id="edge5" class="edge">
<title>Node6&#45;&gt;Node5</title>
<path fill="none" stroke="#404040" d="M216.1464,-810.3218C215.9644,-800.6583 217.0393,-790.0399 221,-781 222.2515,-778.1435 223.7405,-775.3672 225.4123,-772.6805"/>
<polygon fill="none" stroke="#404040" points="225.5679,-772.4678 225.8816,-765.2635 232.6524,-762.7822 232.3387,-769.9865 225.5679,-772.4678"/>
<text text-anchor="middle" x="245.5" y="-784" font-family="Helvetica,sans-Serif" font-size="10.00" fill="#000000"> +elements</text>
</g>
<!-- Node7 -->
<g id="node7" class="node">
<title>Node7</title>
<g id="a_node7"><a xlink:title="STL class. ">
<polygon fill="#ffffff" stroke="#bfbfbf" points="309.5,-810.5 309.5,-867.5 396.5,-867.5 396.5,-810.5 309.5,-810.5"/>
<text text-anchor="middle" x="353" y="-855.5" font-family="Helvetica,sans-Serif" font-size="10.00" fill="#000000">std::vector&lt; T &gt;</text>
<polyline fill="none" stroke="#bfbfbf" points="309.5,-848.5 396.5,-848.5 "/>
<text text-anchor="middle" x="353" y="-836.5" font-family="Helvetica,sans-Serif" font-size="10.00" fill="#000000"> </text>
<polyline fill="none" stroke="#bfbfbf" points="309.5,-829.5 396.5,-829.5 "/>
<text text-anchor="middle" x="353" y="-817.5" font-family="Helvetica,sans-Serif" font-size="10.00" fill="#000000"> </text>
</a>
</g>
</g>
<!-- Node7&#45;&gt;Node5 -->
<g id="edge6" class="edge">
<title>Node7&#45;&gt;Node5</title>
<path fill="none" stroke="#ffa500" d="M306.0668,-803.312C302.7469,-799.7138 299.665,-795.9293 297,-792 291.0689,-783.2551 286.7009,-772.7036 283.5342,-762.7348"/>
<polygon fill="#ffa500" stroke="#ffa500" points="303.6187,-805.8137 313.1586,-810.4225 308.575,-800.8704 303.6187,-805.8137"/>
<text text-anchor="middle" x="334" y="-784" font-family="Helvetica,sans-Serif" font-size="10.00" fill="#000000"> &lt; unsigned int &gt;</text>
</g>
<!-- Node10 -->
<g id="node10" class="node">
<title>Node10</title>
<polygon fill="#ffffff" stroke="#bfbfbf" points="349.5,-694.5 349.5,-762.5 460.5,-762.5 460.5,-694.5 349.5,-694.5"/>
<text text-anchor="start" x="357.5" y="-750.5" font-family="Helvetica,sans-Serif" font-size="10.00" fill="#000000">std::vector&lt; unsigned</text>
<text text-anchor="middle" x="405" y="-739.5" font-family="Helvetica,sans-Serif" font-size="10.00" fill="#000000"> char &gt;</text>
<polyline fill="none" stroke="#bfbfbf" points="349.5,-732.5 460.5,-732.5 "/>
<text text-anchor="middle" x="405" y="-720.5" font-family="Helvetica,sans-Serif" font-size="10.00" fill="#000000"> </text>
<polyline fill="none" stroke="#bfbfbf" points="349.5,-713.5 460.5,-713.5 "/>
<text text-anchor="middle" x="405" y="-701.5" font-family="Helvetica,sans-Serif" font-size="10.00" fill="#000000"> </text>
</g>
<!-- Node7&#45;&gt;Node10 -->
<g id="edge11" class="edge">
<title>Node7&#45;&gt;Node10</title>
<path fill="none" stroke="#ffa500" d="M370.8729,-801.0202C376.7428,-788.5466 383.2271,-774.7675 388.9529,-762.6001"/>
<polygon fill="#ffa500" stroke="#ffa500" points="367.6178,-799.7174 366.5266,-810.2559 373.9515,-802.698 367.6178,-799.7174"/>
<text text-anchor="middle" x="420" y="-784" font-family="Helvetica,sans-Serif" font-size="10.00" fill="#000000"> &lt; unsigned char &gt;</text>
</g>
<!-- Node8 -->
<g id="node8" class="node">
<title>Node8</title>
<polygon fill="#ffffff" stroke="#bfbfbf" points="338.5,-915.5 338.5,-972.5 367.5,-972.5 367.5,-915.5 338.5,-915.5"/>
<text text-anchor="middle" x="353" y="-960.5" font-family="Helvetica,sans-Serif" font-size="10.00" fill="#000000">T</text>
<polyline fill="none" stroke="#bfbfbf" points="338.5,-953.5 367.5,-953.5 "/>
<text text-anchor="middle" x="353" y="-941.5" font-family="Helvetica,sans-Serif" font-size="10.00" fill="#000000"> </text>
<polyline fill="none" stroke="#bfbfbf" points="338.5,-934.5 367.5,-934.5 "/>
<text text-anchor="middle" x="353" y="-922.5" font-family="Helvetica,sans-Serif" font-size="10.00" fill="#000000"> </text>
</g>
<!-- Node8&#45;&gt;Node7 -->
<g id="edge7" class="edge">
<title>Node8&#45;&gt;Node7</title>
<path fill="none" stroke="#404040" d="M353,-915.3083C353,-904.4281 353,-891.817 353,-880.0192"/>
<polygon fill="none" stroke="#404040" points="353.0001,-879.657 349,-873.6571 353,-867.657 357,-873.657 353.0001,-879.657"/>
<text text-anchor="middle" x="377.5" y="-889" font-family="Helvetica,sans-Serif" font-size="10.00" fill="#000000"> +elements</text>
</g>
<!-- Node9 -->
<g id="node9" class="node">
<title>Node9</title>
<polygon fill="#ffffff" stroke="#bfbfbf" points="495,-700 495,-757 551,-757 551,-700 495,-700"/>
<text text-anchor="middle" x="523" y="-745" font-family="Helvetica,sans-Serif" font-size="10.00" fill="#000000">unsigned</text>
<polyline fill="none" stroke="#bfbfbf" points="495,-738 551,-738 "/>
<text text-anchor="middle" x="523" y="-726" font-family="Helvetica,sans-Serif" font-size="10.00" fill="#000000"> </text>
<polyline fill="none" stroke="#bfbfbf" points="495,-719 551,-719 "/>
<text text-anchor="middle" x="523" y="-707" font-family="Helvetica,sans-Serif" font-size="10.00" fill="#000000"> </text>
</g>
<!-- Node9&#45;&gt;Node2 -->
<g id="edge8" class="edge">
<title>Node9&#45;&gt;Node2</title>
<path fill="none" stroke="#404040" d="M530.7926,-699.9195C543.4927,-646.322 561.5796,-530.4178 501,-467 460.7791,-424.8947 418.9976,-477.3979 364.0265,-448.2081"/>
<polygon fill="none" stroke="#404040" points="363.813,-448.0762 356.6061,-448.3233 353.6061,-441.7658 360.813,-441.5187 363.813,-448.0762"/>
<text text-anchor="middle" x="588.5" y="-629.5" font-family="Helvetica,sans-Serif" font-size="10.00" fill="#000000"> +n_blocks</text>
<text text-anchor="middle" x="588.5" y="-618.5" font-family="Helvetica,sans-Serif" font-size="10.00" fill="#000000">+my_pid</text>
<text text-anchor="middle" x="588.5" y="-607.5" font-family="Helvetica,sans-Serif" font-size="10.00" fill="#000000">+n_blocked_workers</text>
<text text-anchor="middle" x="588.5" y="-596.5" font-family="Helvetica,sans-Serif" font-size="10.00" fill="#000000">+n_active_cells</text>
<text text-anchor="middle" x="588.5" y="-585.5" font-family="Helvetica,sans-Serif" font-size="10.00" fill="#000000">+evens</text>
<text text-anchor="middle" x="588.5" y="-574.5" font-family="Helvetica,sans-Serif" font-size="10.00" fill="#000000">+n_workers</text>
<text text-anchor="middle" x="588.5" y="-563.5" font-family="Helvetica,sans-Serif" font-size="10.00" fill="#000000">+odds</text>
<text text-anchor="middle" x="588.5" y="-552.5" font-family="Helvetica,sans-Serif" font-size="10.00" fill="#000000">+n_ghost_cells</text>
<text text-anchor="middle" x="588.5" y="-541.5" font-family="Helvetica,sans-Serif" font-size="10.00" fill="#000000">+n_procs</text>
<text text-anchor="start" x="543" y="-530.5" font-family="Helvetica,sans-Serif" font-size="10.00" fill="#000000">+vectorization</text>
<text text-anchor="middle" x="588.5" y="-519.5" font-family="Helvetica,sans-Serif" font-size="10.00" fill="#000000">_length</text>
<text text-anchor="middle" x="588.5" y="-508.5" font-family="Helvetica,sans-Serif" font-size="10.00" fill="#000000">...</text>
</g>
<!-- Node10&#45;&gt;Node2 -->
<g id="edge9" class="edge">
<title>Node10&#45;&gt;Node2</title>
<path fill="none" stroke="#404040" d="M396.6166,-694.4424C395.2824,-688.3266 394.0111,-681.9926 393,-676 377.4517,-583.8529 396.9175,-556.489 370,-467 368.7837,-462.9564 364.7464,-454.0575 358.9969,-442.2811"/>
<polygon fill="none" stroke="#404040" points="358.8555,-441.9954 352.6087,-438.3929 353.5313,-431.2411 359.7782,-434.8435 358.8555,-441.9954"/>
<text text-anchor="middle" x="447" y="-569" font-family="Helvetica,sans-Serif" font-size="10.00" fill="#000000"> +task_at_mpi_boundary</text>
</g>
<!-- Node11 -->
<g id="node11" class="node">
<title>Node11</title>
<polygon fill="#ffffff" stroke="#bfbfbf" points="455.5,-810.5 455.5,-867.5 532.5,-867.5 532.5,-810.5 455.5,-810.5"/>
<text text-anchor="middle" x="494" y="-855.5" font-family="Helvetica,sans-Serif" font-size="10.00" fill="#000000">unsigned char</text>
<polyline fill="none" stroke="#bfbfbf" points="455.5,-848.5 532.5,-848.5 "/>
<text text-anchor="middle" x="494" y="-836.5" font-family="Helvetica,sans-Serif" font-size="10.00" fill="#000000"> </text>
<polyline fill="none" stroke="#bfbfbf" points="455.5,-829.5 532.5,-829.5 "/>
<text text-anchor="middle" x="494" y="-817.5" font-family="Helvetica,sans-Serif" font-size="10.00" fill="#000000"> </text>
</g>
<!-- Node11&#45;&gt;Node10 -->
<g id="edge10" class="edge">
<title>Node11&#45;&gt;Node10</title>
<path fill="none" stroke="#404040" d="M482.3452,-810.2648C477.6949,-800.4919 471.8141,-789.8197 465,-781 462.4692,-777.7243 459.7109,-774.4975 456.8128,-771.3528"/>
<polygon fill="none" stroke="#404040" points="456.7572,-771.2962 449.6989,-769.8191 448.3478,-762.7357 455.406,-764.2128 456.7572,-771.2962"/>
<text text-anchor="middle" x="496.5" y="-784" font-family="Helvetica,sans-Serif" font-size="10.00" fill="#000000"> +elements</text>
</g>
<!-- Node12 -->
<g id="node12" class="node">
<title>Node12</title>
<g id="a_node12"><a xlink:href="classint.html" target="_top" xlink:title="{int\n||}">
<polygon fill="#ffffff" stroke="#000000" points="371.5,-259.5 371.5,-316.5 400.5,-316.5 400.5,-259.5 371.5,-259.5"/>
<text text-anchor="middle" x="386" y="-304.5" font-family="Helvetica,sans-Serif" font-size="10.00" fill="#000000">int</text>
<polyline fill="none" stroke="#000000" points="371.5,-297.5 400.5,-297.5 "/>
<text text-anchor="middle" x="386" y="-285.5" font-family="Helvetica,sans-Serif" font-size="10.00" fill="#000000"> </text>
<polyline fill="none" stroke="#000000" points="371.5,-278.5 400.5,-278.5 "/>
<text text-anchor="middle" x="386" y="-266.5" font-family="Helvetica,sans-Serif" font-size="10.00" fill="#000000"> </text>
</a>
</g>
</g>
<!-- Node12&#45;&gt;Node1 -->
<g id="edge12" class="edge">
<title>Node12&#45;&gt;Node1</title>
<path fill="none" stroke="#404040" d="M386,-259.0659C386,-218.106 386,-142.56 386,-91.7942"/>
<polygon fill="none" stroke="#404040" points="386.0001,-91.7756 382,-85.7757 386,-79.7756 390,-85.7756 386.0001,-91.7756"/>
<text text-anchor="middle" x="406.5" y="-101" font-family="Helvetica,sans-Serif" font-size="10.00" fill="#000000"> &#45;partition</text>
</g>
<!-- Node13 -->
<g id="node13" class="node">
<title>Node13</title>
<g id="a_node13"><a xlink:href="structinternal_1_1MFWorkerInterface.html" target="_top" xlink:title="{internal::MFWorkerInterface\n||+ ~MFWorkerInterface()\l+ vector_update_ghosts\l_start()\l+ vector_update_ghosts\l_finish()\l+ vector_compress_start()\l+ vector_compress_finish()\l+ zero_dst_vector_range()\l+ cell_loop_pre_range()\l+ cell_loop_post_range()\l+ cell()\l+ cell()\l+ face()\l+ boundary()\l}">
<polygon fill="#ffffff" stroke="#000000" points="419,-188 419,-388 557,-388 557,-188 419,-188"/>
<text text-anchor="middle" x="488" y="-376" font-family="Helvetica,sans-Serif" font-size="10.00" fill="#000000">internal::MFWorkerInterface</text>
<polyline fill="none" stroke="#000000" points="419,-369 557,-369 "/>
<text text-anchor="middle" x="488" y="-357" font-family="Helvetica,sans-Serif" font-size="10.00" fill="#000000"> </text>
<polyline fill="none" stroke="#000000" points="419,-350 557,-350 "/>
<text text-anchor="start" x="427" y="-338" font-family="Helvetica,sans-Serif" font-size="10.00" fill="#000000">+ ~MFWorkerInterface()</text>
<text text-anchor="start" x="427" y="-327" font-family="Helvetica,sans-Serif" font-size="10.00" fill="#000000">+ vector_update_ghosts</text>
<text text-anchor="start" x="427" y="-316" font-family="Helvetica,sans-Serif" font-size="10.00" fill="#000000">_start()</text>
<text text-anchor="start" x="427" y="-305" font-family="Helvetica,sans-Serif" font-size="10.00" fill="#000000">+ vector_update_ghosts</text>
<text text-anchor="start" x="427" y="-294" font-family="Helvetica,sans-Serif" font-size="10.00" fill="#000000">_finish()</text>
<text text-anchor="start" x="427" y="-283" font-family="Helvetica,sans-Serif" font-size="10.00" fill="#000000">+ vector_compress_start()</text>
<text text-anchor="start" x="427" y="-272" font-family="Helvetica,sans-Serif" font-size="10.00" fill="#000000">+ vector_compress_finish()</text>
<text text-anchor="start" x="427" y="-261" font-family="Helvetica,sans-Serif" font-size="10.00" fill="#000000">+ zero_dst_vector_range()</text>
<text text-anchor="start" x="427" y="-250" font-family="Helvetica,sans-Serif" font-size="10.00" fill="#000000">+ cell_loop_pre_range()</text>
<text text-anchor="start" x="427" y="-239" font-family="Helvetica,sans-Serif" font-size="10.00" fill="#000000">+ cell_loop_post_range()</text>
<text text-anchor="start" x="427" y="-228" font-family="Helvetica,sans-Serif" font-size="10.00" fill="#000000">+ cell()</text>
<text text-anchor="start" x="427" y="-217" font-family="Helvetica,sans-Serif" font-size="10.00" fill="#000000">+ cell()</text>
<text text-anchor="start" x="427" y="-206" font-family="Helvetica,sans-Serif" font-size="10.00" fill="#000000">+ face()</text>
<text text-anchor="start" x="427" y="-195" font-family="Helvetica,sans-Serif" font-size="10.00" fill="#000000">+ boundary()</text>
</a>
</g>
</g>
<!-- Node13&#45;&gt;Node1 -->
<g id="edge13" class="edge">
<title>Node13&#45;&gt;Node1</title>
<path fill="none" stroke="#404040" d="M465.3715,-187.677C456.7014,-157.9216 445.3507,-125.8602 431,-98 429.5957,-95.2737 428.0578,-92.5475 426.4239,-89.8455"/>
<polygon fill="none" stroke="#404040" points="426.2894,-89.6396 419.6587,-86.8051 419.7249,-79.5943 426.3556,-82.4288 426.2894,-89.6396"/>
<text text-anchor="middle" x="453" y="-101" font-family="Helvetica,sans-Serif" font-size="10.00" fill="#000000"> &#45;worker</text>
</g>
</g>
</svg>
        <g id="navigator" transform="translate(0 0)" fill="#404254">
                <rect fill="#f2f5e9" fill-opacity="0.5" stroke="#606060" stroke-width=".5" x="0" y="0" width="60" height="60"/>
                <use id="zoomplus" xlink:href="#zoomPlus" x="17" y="9" onmousedown="handleZoom(evt,'in')"/>
                <use id="zoomminus" xlink:href="#zoomMin" x="42" y="9" onmousedown="handleZoom(evt,'out')"/>
                <use id="reset" xlink:href="#resetDef" x="30" y="36" onmousedown="handleReset()"/>
                <g id="arrowUp" xlink:href="#dirArrow" transform="translate(30 24)" onmousedown="handlePan(0,-1)">
                  <use xlink:href="#rim" fill="#404040">
                        <set attributeName="fill" to="#808080" begin="arrowUp.mouseover" end="arrowUp.mouseout"/>
                  </use>
                  <path fill="none" stroke="white" stroke-width="1.5" d="M0,-3.0v7 M-2.5,-0.5L0,-3.0L2.5,-0.5"/>
                </g>
                <g id="arrowRight" xlink:href="#dirArrow" transform="rotate(90) translate(36 -43)" onmousedown="handlePan(1,0)">
                  <use xlink:href="#rim" fill="#404040">
                        <set attributeName="fill" to="#808080" begin="arrowRight.mouseover" end="arrowRight.mouseout"/>
                  </use>
                  <path fill="none" stroke="white" stroke-width="1.5" d="M0,-3.0v7 M-2.5,-0.5L0,-3.0L2.5,-0.5"/>
                </g>
                <g id="arrowDown" xlink:href="#dirArrow" transform="rotate(180) translate(-30 -48)" onmousedown="handlePan(0,1)">
                  <use xlink:href="#rim" fill="#404040">
                        <set attributeName="fill" to="#808080" begin="arrowDown.mouseover" end="arrowDown.mouseout"/>
                  </use>
                  <path fill="none" stroke="white" stroke-width="1.5" d="M0,-3.0v7 M-2.5,-0.5L0,-3.0L2.5,-0.5"/>
                </g>
                <g id="arrowLeft" xlink:href="#dirArrow" transform="rotate(270) translate(-36 17)" onmousedown="handlePan(-1,0)">
                  <use xlink:href="#rim" fill="#404040">
                        <set attributeName="fill" to="#808080" begin="arrowLeft.mouseover" end="arrowLeft.mouseout"/>
                  </use>
                  <path fill="none" stroke="white" stroke-width="1.5" d="M0,-3.0v7 M-2.5,-0.5L0,-3.0L2.5,-0.5"/>
                </g>
        </g>
        <svg viewBox="0 0 15 15" width="100%" height="30px" preserveAspectRatio="xMaxYMin meet">
         <g id="arrow_out" transform="scale(0.3 0.3)">
          <a xlink:href="classinternal_1_1MatrixFreeFunctions_1_1color_1_1CellWork__coll__graph_org.svg" target="_base">
           <rect id="button" ry="5" rx="5" y="6" x="6" height="38" width="38"
                fill="#f2f5e9" fill-opacity="0.5" stroke="#606060" stroke-width="1.0"/>
           <path id="arrow"
             d="M 11.500037,31.436501 C 11.940474,20.09759 22.043105,11.32322 32.158766,21.979434 L 37.068811,17.246167 C 37.068811,17.246167 37.088388,32 37.088388,32 L 22.160133,31.978069 C 22.160133,31.978069 26.997745,27.140456 26.997745,27.140456 C 18.528582,18.264221 13.291696,25.230495 11.500037,31.436501 z"
             style="fill:#404040;"/>
          </a>
         </g>
        </svg>
</svg>
