<?xml version="1.0" encoding="UTF-8" standalone="no"?>
<!DOCTYPE svg PUBLIC "-//W3C//DTD SVG 1.1//EN"
 "http://www.w3.org/Graphics/SVG/1.1/DTD/svg11.dtd">
<!-- Generated by graphviz version 2.40.1 (20161225.0304)
 -->
<!-- Title: mg::SmootherRelaxation&lt; RelaxationType, VectorType &gt; Pages: 1 -->
<svg width="363pt" height="231pt"
 viewBox="0.00 0.00 362.69 231.00" xmlns="http://www.w3.org/2000/svg" xmlns:xlink="http://www.w3.org/1999/xlink">
<g id="graph0" class="graph" transform="scale(1 1) rotate(0) translate(4 227)">
<title>mg::SmootherRelaxation&lt; RelaxationType, VectorType &gt;</title>
<polygon fill="#ffffff" stroke="transparent" points="-4,4 -4,-227 358.694,-227 358.694,4 -4,4"/>
<!-- Node0 -->
<g id="node1" class="node">
<title>Node0</title>
<polygon fill="#bfbfbf" stroke="#000000" points="83.694,-.5 83.694,-30.5 256.694,-30.5 256.694,-.5 83.694,-.5"/>
<text text-anchor="start" x="91.694" y="-18.5" font-family="Helvetica,sans-Serif" font-size="10.00" fill="#000000">mg::SmootherRelaxation</text>
<text text-anchor="middle" x="170.194" y="-7.5" font-family="Helvetica,sans-Serif" font-size="10.00" fill="#000000">&lt; RelaxationType, VectorType &gt;</text>
</g>
<!-- Node1 -->
<g id="node2" class="node">
<title>Node1</title>
<g id="a_node2"><a xlink:href="classMGLevelObject.html" target="_top" xlink:title="MGLevelObject\&lt; Relaxation\lType \&gt;">
<polygon fill="#ffffff" stroke="#000000" points="8.694,-68.5 8.694,-98.5 161.694,-98.5 161.694,-68.5 8.694,-68.5"/>
<text text-anchor="start" x="16.694" y="-86.5" font-family="Helvetica,sans-Serif" font-size="10.00" fill="#000000">MGLevelObject&lt; Relaxation</text>
<text text-anchor="middle" x="85.194" y="-75.5" font-family="Helvetica,sans-Serif" font-size="10.00" fill="#000000">Type &gt;</text>
</a>
</g>
</g>
<!-- Node1&#45;&gt;Node0 -->
<g id="edge1" class="edge">
<title>Node1&#45;&gt;Node0</title>
<path fill="none" stroke="#191970" d="M112.0845,-61.9877C124.8673,-51.7614 139.838,-39.7848 151.3825,-30.5492"/>
<polygon fill="#191970" stroke="#191970" points="109.6806,-59.4286 104.0583,-68.4086 114.0534,-64.8947 109.6806,-59.4286"/>
</g>
<!-- Node2 -->
<g id="node3" class="node">
<title>Node2</title>
<g id="a_node3"><a xlink:href="classSubscriptor.html" target="_top" xlink:title="Subscriptor">
<polygon fill="#ffffff" stroke="#000000" points="49.694,-203.5 49.694,-222.5 120.694,-222.5 120.694,-203.5 49.694,-203.5"/>
<text text-anchor="middle" x="85.194" y="-210.5" font-family="Helvetica,sans-Serif" font-size="10.00" fill="#000000">Subscriptor</text>
</a>
</g>
</g>
<!-- Node2&#45;&gt;Node1 -->
<g id="edge2" class="edge">
<title>Node2&#45;&gt;Node1</title>
<path fill="none" stroke="#191970" d="M43.9193,-199.2238C28.6421,-191.8902 12.9292,-181.1677 4.194,-166 -11.5832,-138.6044 22.7125,-113.6908 51.4399,-98.5749"/>
<polygon fill="#191970" stroke="#191970" points="42.7466,-202.5318 53.3089,-203.3616 45.5695,-196.1262 42.7466,-202.5318"/>
</g>
<!-- Node3 -->
<g id="node4" class="node">
<title>Node3</title>
<g id="a_node4"><a xlink:href="classMGLevelObject.html" target="_top" xlink:title="MGLevelObject\&lt; Object \&gt;">
<polygon fill="#ffffff" stroke="#000000" points="13.194,-146.5 13.194,-165.5 157.194,-165.5 157.194,-146.5 13.194,-146.5"/>
<text text-anchor="middle" x="85.194" y="-153.5" font-family="Helvetica,sans-Serif" font-size="10.00" fill="#000000">MGLevelObject&lt; Object &gt;</text>
</a>
</g>
</g>
<!-- Node2&#45;&gt;Node3 -->
<g id="edge4" class="edge">
<title>Node2&#45;&gt;Node3</title>
<path fill="none" stroke="#191970" d="M85.194,-193.2342C85.194,-183.8491 85.194,-173.0651 85.194,-165.5265"/>
<polygon fill="#191970" stroke="#191970" points="81.6941,-193.3307 85.194,-203.3307 88.6941,-193.3308 81.6941,-193.3307"/>
</g>
<!-- Node5 -->
<g id="node6" class="node">
<title>Node5</title>
<g id="a_node6"><a xlink:href="classMGSmootherBase.html" target="_top" xlink:title="MGSmootherBase\&lt; VectorType \&gt;">
<polygon fill="#ffffff" stroke="#000000" points="175.694,-146.5 175.694,-165.5 354.694,-165.5 354.694,-146.5 175.694,-146.5"/>
<text text-anchor="middle" x="265.194" y="-153.5" font-family="Helvetica,sans-Serif" font-size="10.00" fill="#000000">MGSmootherBase&lt; VectorType &gt;</text>
</a>
</g>
</g>
<!-- Node2&#45;&gt;Node5 -->
<g id="edge7" class="edge">
<title>Node2&#45;&gt;Node5</title>
<path fill="none" stroke="#191970" d="M125.1597,-200.3442C158.3403,-189.837 204.8203,-175.1184 234.9678,-165.5716"/>
<polygon fill="#191970" stroke="#191970" points="123.7988,-197.1038 115.322,-203.4595 125.9121,-203.7772 123.7988,-197.1038"/>
</g>
<!-- Node3&#45;&gt;Node1 -->
<g id="edge3" class="edge">
<title>Node3&#45;&gt;Node1</title>
<path fill="none" stroke="#ffa500" stroke-dasharray="5,2" d="M85.194,-136.0177C85.194,-124.2164 85.194,-109.513 85.194,-98.668"/>
<polygon fill="#ffa500" stroke="#ffa500" points="81.6941,-136.2223 85.194,-146.2223 88.6941,-136.2224 81.6941,-136.2223"/>
<text text-anchor="middle" x="135.194" y="-120" font-family="Helvetica,sans-Serif" font-size="10.00" fill="#000000"> &lt; RelaxationType &gt;</text>
</g>
<!-- Node4 -->
<g id="node5" class="node">
<title>Node4</title>
<g id="a_node5"><a xlink:href="classMGSmoother.html" target="_top" xlink:title="MGSmoother\&lt; VectorType \&gt;">
<polygon fill="#ffffff" stroke="#000000" points="183.694,-74 183.694,-93 338.694,-93 338.694,-74 183.694,-74"/>
<text text-anchor="middle" x="261.194" y="-81" font-family="Helvetica,sans-Serif" font-size="10.00" fill="#000000">MGSmoother&lt; VectorType &gt;</text>
</a>
</g>
</g>
<!-- Node4&#45;&gt;Node0 -->
<g id="edge5" class="edge">
<title>Node4&#45;&gt;Node0</title>
<path fill="none" stroke="#191970" d="M240.0329,-67.6873C225.1403,-56.5588 205.318,-41.7465 190.5967,-30.746"/>
<polygon fill="#191970" stroke="#191970" points="238.0503,-70.575 248.156,-73.7573 242.2405,-64.9676 238.0503,-70.575"/>
</g>
<!-- Node5&#45;&gt;Node4 -->
<g id="edge6" class="edge">
<title>Node5&#45;&gt;Node4</title>
<path fill="none" stroke="#191970" d="M264.0964,-136.1054C263.325,-122.1237 262.327,-104.0346 261.7249,-93.1228"/>
<polygon fill="#191970" stroke="#191970" points="260.6089,-136.4304 264.6546,-146.2223 267.5983,-136.0447 260.6089,-136.4304"/>
</g>
</g>
</svg>
