<?xml version="1.0" encoding="UTF-8" standalone="no"?>
<!DOCTYPE svg PUBLIC "-//W3C//DTD SVG 1.1//EN"
 "http://www.w3.org/Graphics/SVG/1.1/DTD/svg11.dtd">
<!-- Generated by graphviz version 2.40.1 (20161225.0304)
 -->
<!-- Title: SolverFIRE&lt; VectorType &gt; Pages: 1 -->
<svg width="1084pt" height="921pt"
 viewBox="0.00 0.00 1083.50 921.00" xmlns="http://www.w3.org/2000/svg" xmlns:xlink="http://www.w3.org/1999/xlink">
<g id="graph0" class="graph" transform="scale(1 1) rotate(0) translate(4 917)">
<title>SolverFIRE&lt; VectorType &gt;</title>
<polygon fill="#ffffff" stroke="transparent" points="-4,4 -4,-917 1079.5,-917 1079.5,4 -4,4"/>
<!-- Node3 -->
<g id="node1" class="node">
<title>Node3</title>
<polygon fill="#bfbfbf" stroke="#000000" points="738.5,-.5 738.5,-101.5 874.5,-101.5 874.5,-.5 738.5,-.5"/>
<text text-anchor="middle" x="806.5" y="-89.5" font-family="Helvetica,sans-Serif" font-size="10.00" fill="#000000">SolverFIRE&lt; VectorType &gt;</text>
<polyline fill="none" stroke="#000000" points="738.5,-82.5 874.5,-82.5 "/>
<text text-anchor="middle" x="806.5" y="-70.5" font-family="Helvetica,sans-Serif" font-size="10.00" fill="#000000"> </text>
<polyline fill="none" stroke="#000000" points="738.5,-63.5 874.5,-63.5 "/>
<text text-anchor="start" x="746.5" y="-51.5" font-family="Helvetica,sans-Serif" font-size="10.00" fill="#000000">+ SolverFIRE()</text>
<text text-anchor="start" x="746.5" y="-40.5" font-family="Helvetica,sans-Serif" font-size="10.00" fill="#000000">+ SolverFIRE()</text>
<text text-anchor="start" x="746.5" y="-29.5" font-family="Helvetica,sans-Serif" font-size="10.00" fill="#000000">+ solve()</text>
<text text-anchor="start" x="746.5" y="-18.5" font-family="Helvetica,sans-Serif" font-size="10.00" fill="#000000">+ solve()</text>
<text text-anchor="start" x="746.5" y="-7.5" font-family="Helvetica,sans-Serif" font-size="10.00" fill="#000000"># print_vectors()</text>
</g>
<!-- Node4 -->
<g id="node2" class="node">
<title>Node4</title>
<g id="a_node2"><a xlink:href="classSolverBase.html" target="_top" xlink:title="{SolverBase\&lt; VectorType \&gt;\n||+ SolverBase()\l+ SolverBase()\l+ connect()\l}">
<polygon fill="#ffffff" stroke="#000000" points="665,-149.5 665,-228.5 800,-228.5 800,-149.5 665,-149.5"/>
<text text-anchor="middle" x="732.5" y="-216.5" font-family="Helvetica,sans-Serif" font-size="10.00" fill="#000000">SolverBase&lt; VectorType &gt;</text>
<polyline fill="none" stroke="#000000" points="665,-209.5 800,-209.5 "/>
<text text-anchor="middle" x="732.5" y="-197.5" font-family="Helvetica,sans-Serif" font-size="10.00" fill="#000000"> </text>
<polyline fill="none" stroke="#000000" points="665,-190.5 800,-190.5 "/>
<text text-anchor="start" x="673" y="-178.5" font-family="Helvetica,sans-Serif" font-size="10.00" fill="#000000">+ SolverBase()</text>
<text text-anchor="start" x="673" y="-167.5" font-family="Helvetica,sans-Serif" font-size="10.00" fill="#000000">+ SolverBase()</text>
<text text-anchor="start" x="673" y="-156.5" font-family="Helvetica,sans-Serif" font-size="10.00" fill="#000000">+ connect()</text>
</a>
</g>
</g>
<!-- Node4&#45;&gt;Node3 -->
<g id="edge1" class="edge">
<title>Node4&#45;&gt;Node3</title>
<path fill="none" stroke="#191970" d="M758.5088,-140.497C765.2556,-127.9152 772.5387,-114.3333 779.3428,-101.6445"/>
<polygon fill="none" stroke="#191970" points="755.3467,-138.9878 753.7054,-149.4547 761.5158,-142.2959 755.3467,-138.9878"/>
</g>
<!-- Node5 -->
<g id="node3" class="node">
<title>Node5</title>
<g id="a_node3"><a xlink:href="classSubscriptor.html" target="_top" xlink:title="{Subscriptor\n||+ Subscriptor()\l+ Subscriptor()\l+ Subscriptor()\l+ ~Subscriptor()\l+ operator=()\l+ operator=()\l+ serialize()\l+ subscribe()\l+ unsubscribe()\l+ n_subscriptions()\l+ list_subscribers()\l+ list_subscribers()\l+ ExcInUse()\l+ ExcNoSubscriber()\l&#45; check_no_subscribers()\l* subscribe()\l* unsubscribe()\l* n_subscriptions()\l* list_subscribers()\l* list_subscribers()\l}">
<polygon fill="#ffffff" stroke="#000000" points="354.5,-298.5 354.5,-564.5 480.5,-564.5 480.5,-298.5 354.5,-298.5"/>
<text text-anchor="middle" x="417.5" y="-552.5" font-family="Helvetica,sans-Serif" font-size="10.00" fill="#000000">Subscriptor</text>
<polyline fill="none" stroke="#000000" points="354.5,-545.5 480.5,-545.5 "/>
<text text-anchor="middle" x="417.5" y="-533.5" font-family="Helvetica,sans-Serif" font-size="10.00" fill="#000000"> </text>
<polyline fill="none" stroke="#000000" points="354.5,-526.5 480.5,-526.5 "/>
<text text-anchor="start" x="362.5" y="-514.5" font-family="Helvetica,sans-Serif" font-size="10.00" fill="#000000">+ Subscriptor()</text>
<text text-anchor="start" x="362.5" y="-503.5" font-family="Helvetica,sans-Serif" font-size="10.00" fill="#000000">+ Subscriptor()</text>
<text text-anchor="start" x="362.5" y="-492.5" font-family="Helvetica,sans-Serif" font-size="10.00" fill="#000000">+ Subscriptor()</text>
<text text-anchor="start" x="362.5" y="-481.5" font-family="Helvetica,sans-Serif" font-size="10.00" fill="#000000">+ ~Subscriptor()</text>
<text text-anchor="start" x="362.5" y="-470.5" font-family="Helvetica,sans-Serif" font-size="10.00" fill="#000000">+ operator=()</text>
<text text-anchor="start" x="362.5" y="-459.5" font-family="Helvetica,sans-Serif" font-size="10.00" fill="#000000">+ operator=()</text>
<text text-anchor="start" x="362.5" y="-448.5" font-family="Helvetica,sans-Serif" font-size="10.00" fill="#000000">+ serialize()</text>
<text text-anchor="start" x="362.5" y="-437.5" font-family="Helvetica,sans-Serif" font-size="10.00" fill="#000000">+ subscribe()</text>
<text text-anchor="start" x="362.5" y="-426.5" font-family="Helvetica,sans-Serif" font-size="10.00" fill="#000000">+ unsubscribe()</text>
<text text-anchor="start" x="362.5" y="-415.5" font-family="Helvetica,sans-Serif" font-size="10.00" fill="#000000">+ n_subscriptions()</text>
<text text-anchor="start" x="362.5" y="-404.5" font-family="Helvetica,sans-Serif" font-size="10.00" fill="#000000">+ list_subscribers()</text>
<text text-anchor="start" x="362.5" y="-393.5" font-family="Helvetica,sans-Serif" font-size="10.00" fill="#000000">+ list_subscribers()</text>
<text text-anchor="start" x="362.5" y="-382.5" font-family="Helvetica,sans-Serif" font-size="10.00" fill="#000000">+ ExcInUse()</text>
<text text-anchor="start" x="362.5" y="-371.5" font-family="Helvetica,sans-Serif" font-size="10.00" fill="#000000">+ ExcNoSubscriber()</text>
<text text-anchor="start" x="362.5" y="-360.5" font-family="Helvetica,sans-Serif" font-size="10.00" fill="#000000">&#45; check_no_subscribers()</text>
<text text-anchor="start" x="362.5" y="-349.5" font-family="Helvetica,sans-Serif" font-size="10.00" fill="#000000">* subscribe()</text>
<text text-anchor="start" x="362.5" y="-338.5" font-family="Helvetica,sans-Serif" font-size="10.00" fill="#000000">* unsubscribe()</text>
<text text-anchor="start" x="362.5" y="-327.5" font-family="Helvetica,sans-Serif" font-size="10.00" fill="#000000">* n_subscriptions()</text>
<text text-anchor="start" x="362.5" y="-316.5" font-family="Helvetica,sans-Serif" font-size="10.00" fill="#000000">* list_subscribers()</text>
<text text-anchor="start" x="362.5" y="-305.5" font-family="Helvetica,sans-Serif" font-size="10.00" fill="#000000">* list_subscribers()</text>
</a>
</g>
</g>
<!-- Node5&#45;&gt;Node4 -->
<g id="edge2" class="edge">
<title>Node5&#45;&gt;Node4</title>
<path fill="none" stroke="#191970" d="M487.7752,-299.6306C488.3465,-299.0815 488.9214,-298.5379 489.5,-298 539.282,-251.7235 612.0162,-222.6524 664.9289,-206.286"/>
<polygon fill="none" stroke="#191970" points="485.0124,-297.4515 480.5547,-307.063 490.0332,-302.3292 485.0124,-297.4515"/>
</g>
<!-- Node6 -->
<g id="node4" class="node">
<title>Node6</title>
<polygon fill="#ffffff" stroke="#bfbfbf" points="66.5,-612.5 66.5,-680.5 176.5,-680.5 176.5,-612.5 66.5,-612.5"/>
<text text-anchor="start" x="74.5" y="-668.5" font-family="Helvetica,sans-Serif" font-size="10.00" fill="#000000">std::map&lt; std::string,</text>
<text text-anchor="middle" x="121.5" y="-657.5" font-family="Helvetica,sans-Serif" font-size="10.00" fill="#000000"> unsigned int &gt;</text>
<polyline fill="none" stroke="#bfbfbf" points="66.5,-650.5 176.5,-650.5 "/>
<text text-anchor="middle" x="121.5" y="-638.5" font-family="Helvetica,sans-Serif" font-size="10.00" fill="#000000"> </text>
<polyline fill="none" stroke="#bfbfbf" points="66.5,-631.5 176.5,-631.5 "/>
<text text-anchor="middle" x="121.5" y="-619.5" font-family="Helvetica,sans-Serif" font-size="10.00" fill="#000000"> </text>
</g>
<!-- Node6&#45;&gt;Node5 -->
<g id="edge3" class="edge">
<title>Node6&#45;&gt;Node5</title>
<path fill="none" stroke="#404040" d="M168.4021,-612.4326C215.669,-578.1003 289.2888,-524.6264 344.2543,-484.7021"/>
<polygon fill="none" stroke="#404040" points="344.5808,-484.465 347.0846,-477.7025 354.2899,-477.4127 351.7861,-484.1752 344.5808,-484.465"/>
<text text-anchor="middle" x="233" y="-586" font-family="Helvetica,sans-Serif" font-size="10.00" fill="#000000"> &#45;counter_map</text>
</g>
<!-- Node7 -->
<g id="node5" class="node">
<title>Node7</title>
<g id="a_node5"><a xlink:href="classint.html" target="_top" xlink:title="{int\n||}">
<polygon fill="#ffffff" stroke="#000000" points="0,-739.5 0,-796.5 29,-796.5 29,-739.5 0,-739.5"/>
<text text-anchor="middle" x="14.5" y="-784.5" font-family="Helvetica,sans-Serif" font-size="10.00" fill="#000000">int</text>
<polyline fill="none" stroke="#000000" points="0,-777.5 29,-777.5 "/>
<text text-anchor="middle" x="14.5" y="-765.5" font-family="Helvetica,sans-Serif" font-size="10.00" fill="#000000"> </text>
<polyline fill="none" stroke="#000000" points="0,-758.5 29,-758.5 "/>
<text text-anchor="middle" x="14.5" y="-746.5" font-family="Helvetica,sans-Serif" font-size="10.00" fill="#000000"> </text>
</a>
</g>
</g>
<!-- Node7&#45;&gt;Node6 -->
<g id="edge4" class="edge">
<title>Node7&#45;&gt;Node6</title>
<path fill="none" stroke="#404040" d="M21.3502,-739.4015C25.5642,-726.1055 32.0187,-710.6885 41.5,-699 45.9249,-693.545 51.0704,-688.4598 56.5778,-683.7711"/>
<polygon fill="none" stroke="#404040" points="56.694,-683.6797 58.9358,-676.826 66.1246,-676.2593 63.8828,-683.1131 56.694,-683.6797"/>
<text text-anchor="middle" x="66" y="-707.5" font-family="Helvetica,sans-Serif" font-size="10.00" fill="#000000"> +elements</text>
</g>
<!-- Node8 -->
<g id="node6" class="node">
<title>Node8</title>
<g id="a_node6"><a xlink:title="STL class. ">
<polygon fill="#ffffff" stroke="#bfbfbf" points="47.5,-739.5 47.5,-796.5 107.5,-796.5 107.5,-739.5 47.5,-739.5"/>
<text text-anchor="middle" x="77.5" y="-784.5" font-family="Helvetica,sans-Serif" font-size="10.00" fill="#000000">std::string</text>
<polyline fill="none" stroke="#bfbfbf" points="47.5,-777.5 107.5,-777.5 "/>
<text text-anchor="middle" x="77.5" y="-765.5" font-family="Helvetica,sans-Serif" font-size="10.00" fill="#000000"> </text>
<polyline fill="none" stroke="#bfbfbf" points="47.5,-758.5 107.5,-758.5 "/>
<text text-anchor="middle" x="77.5" y="-746.5" font-family="Helvetica,sans-Serif" font-size="10.00" fill="#000000"> </text>
</a>
</g>
</g>
<!-- Node8&#45;&gt;Node6 -->
<g id="edge5" class="edge">
<title>Node8&#45;&gt;Node6</title>
<path fill="none" stroke="#404040" d="M87.2386,-739.3985C91.529,-726.9569 96.6811,-712.2278 101.5,-699 102.3477,-696.6731 103.224,-694.2913 104.1148,-691.8885"/>
<polygon fill="none" stroke="#404040" points="104.1275,-691.8546 102.4866,-684.8326 108.3373,-680.6172 109.9782,-687.6392 104.1275,-691.8546"/>
<text text-anchor="middle" x="117" y="-707.5" font-family="Helvetica,sans-Serif" font-size="10.00" fill="#000000"> +keys</text>
</g>
<!-- Node9 -->
<g id="node7" class="node">
<title>Node9</title>
<g id="a_node7"><a xlink:title="STL class. ">
<polygon fill="#ffffff" stroke="#bfbfbf" points="29,-844.5 29,-912.5 124,-912.5 124,-844.5 29,-844.5"/>
<text text-anchor="start" x="37" y="-900.5" font-family="Helvetica,sans-Serif" font-size="10.00" fill="#000000">std::basic_string&lt;</text>
<text text-anchor="middle" x="76.5" y="-889.5" font-family="Helvetica,sans-Serif" font-size="10.00" fill="#000000"> char &gt;</text>
<polyline fill="none" stroke="#bfbfbf" points="29,-882.5 124,-882.5 "/>
<text text-anchor="middle" x="76.5" y="-870.5" font-family="Helvetica,sans-Serif" font-size="10.00" fill="#000000"> </text>
<polyline fill="none" stroke="#bfbfbf" points="29,-863.5 124,-863.5 "/>
<text text-anchor="middle" x="76.5" y="-851.5" font-family="Helvetica,sans-Serif" font-size="10.00" fill="#000000"> </text>
</a>
</g>
</g>
<!-- Node9&#45;&gt;Node8 -->
<g id="edge6" class="edge">
<title>Node9&#45;&gt;Node8</title>
<path fill="none" stroke="#191970" d="M76.9021,-834.0661C77.0166,-821.4172 77.1382,-807.9812 77.2416,-796.5519"/>
<polygon fill="none" stroke="#191970" points="73.3989,-834.4134 76.8082,-844.4447 80.3986,-834.4768 73.3989,-834.4134"/>
</g>
<!-- Node10 -->
<g id="node8" class="node">
<title>Node10</title>
<g id="a_node8"><a xlink:title="STL class. ">
<polygon fill="#ffffff" stroke="#bfbfbf" points="125.5,-739.5 125.5,-796.5 217.5,-796.5 217.5,-739.5 125.5,-739.5"/>
<text text-anchor="middle" x="171.5" y="-784.5" font-family="Helvetica,sans-Serif" font-size="10.00" fill="#000000">std::map&lt; K, T &gt;</text>
<polyline fill="none" stroke="#bfbfbf" points="125.5,-777.5 217.5,-777.5 "/>
<text text-anchor="middle" x="171.5" y="-765.5" font-family="Helvetica,sans-Serif" font-size="10.00" fill="#000000"> </text>
<polyline fill="none" stroke="#bfbfbf" points="125.5,-758.5 217.5,-758.5 "/>
<text text-anchor="middle" x="171.5" y="-746.5" font-family="Helvetica,sans-Serif" font-size="10.00" fill="#000000"> </text>
</a>
</g>
</g>
<!-- Node10&#45;&gt;Node6 -->
<g id="edge7" class="edge">
<title>Node10&#45;&gt;Node6</title>
<path fill="none" stroke="#ffa500" d="M155.7657,-729.7657C149.2957,-714.0436 141.8613,-695.9779 135.5744,-680.7007"/>
<polygon fill="#ffa500" stroke="#ffa500" points="152.6084,-731.2906 159.6507,-739.2062 159.0817,-728.6266 152.6084,-731.2906"/>
<text text-anchor="start" x="151.5" y="-713" font-family="Helvetica,sans-Serif" font-size="10.00" fill="#000000"> &lt; std::string, unsigned</text>
<text text-anchor="middle" x="202" y="-702" font-family="Helvetica,sans-Serif" font-size="10.00" fill="#000000"> int &gt;</text>
</g>
<!-- Node11 -->
<g id="node9" class="node">
<title>Node11</title>
<polygon fill="#ffffff" stroke="#bfbfbf" points="142,-850 142,-907 171,-907 171,-850 142,-850"/>
<text text-anchor="middle" x="156.5" y="-895" font-family="Helvetica,sans-Serif" font-size="10.00" fill="#000000">K</text>
<polyline fill="none" stroke="#bfbfbf" points="142,-888 171,-888 "/>
<text text-anchor="middle" x="156.5" y="-876" font-family="Helvetica,sans-Serif" font-size="10.00" fill="#000000"> </text>
<polyline fill="none" stroke="#bfbfbf" points="142,-869 171,-869 "/>
<text text-anchor="middle" x="156.5" y="-857" font-family="Helvetica,sans-Serif" font-size="10.00" fill="#000000"> </text>
</g>
<!-- Node11&#45;&gt;Node10 -->
<g id="edge8" class="edge">
<title>Node11&#45;&gt;Node10</title>
<path fill="none" stroke="#404040" d="M155.2952,-849.9114C155.2648,-838.9384 155.7567,-826.3334 157.5,-815 157.8349,-812.8226 158.2452,-810.6052 158.7121,-808.3782"/>
<polygon fill="none" stroke="#404040" points="158.7573,-808.1956 156.3179,-801.4096 161.6437,-796.5479 164.0831,-803.3339 158.7573,-808.1956"/>
<text text-anchor="middle" x="173" y="-818" font-family="Helvetica,sans-Serif" font-size="10.00" fill="#000000"> +keys</text>
</g>
<!-- Node12 -->
<g id="node10" class="node">
<title>Node12</title>
<polygon fill="#ffffff" stroke="#bfbfbf" points="232,-850 232,-907 261,-907 261,-850 232,-850"/>
<text text-anchor="middle" x="246.5" y="-895" font-family="Helvetica,sans-Serif" font-size="10.00" fill="#000000">T</text>
<polyline fill="none" stroke="#bfbfbf" points="232,-888 261,-888 "/>
<text text-anchor="middle" x="246.5" y="-876" font-family="Helvetica,sans-Serif" font-size="10.00" fill="#000000"> </text>
<polyline fill="none" stroke="#bfbfbf" points="232,-869 261,-869 "/>
<text text-anchor="middle" x="246.5" y="-857" font-family="Helvetica,sans-Serif" font-size="10.00" fill="#000000"> </text>
</g>
<!-- Node12&#45;&gt;Node10 -->
<g id="edge9" class="edge">
<title>Node12&#45;&gt;Node10</title>
<path fill="none" stroke="#404040" d="M231.8612,-856.9322C222.1883,-842.6807 209.2337,-823.5943 197.806,-806.7575"/>
<polygon fill="none" stroke="#404040" points="197.6701,-806.5573 190.9909,-803.8392 190.931,-796.6283 197.6102,-799.3464 197.6701,-806.5573"/>
<text text-anchor="middle" x="234" y="-818" font-family="Helvetica,sans-Serif" font-size="10.00" fill="#000000"> +elements</text>
</g>
<!-- Node17 -->
<g id="node15" class="node">
<title>Node17</title>
<g id="a_node15"><a xlink:title="STL class. ">
<polygon fill="#ffffff" stroke="#bfbfbf" points="238,-739.5 238,-796.5 325,-796.5 325,-739.5 238,-739.5"/>
<text text-anchor="middle" x="281.5" y="-784.5" font-family="Helvetica,sans-Serif" font-size="10.00" fill="#000000">std::vector&lt; T &gt;</text>
<polyline fill="none" stroke="#bfbfbf" points="238,-777.5 325,-777.5 "/>
<text text-anchor="middle" x="281.5" y="-765.5" font-family="Helvetica,sans-Serif" font-size="10.00" fill="#000000"> </text>
<polyline fill="none" stroke="#bfbfbf" points="238,-758.5 325,-758.5 "/>
<text text-anchor="middle" x="281.5" y="-746.5" font-family="Helvetica,sans-Serif" font-size="10.00" fill="#000000"> </text>
</a>
</g>
</g>
<!-- Node12&#45;&gt;Node17 -->
<g id="edge15" class="edge">
<title>Node12&#45;&gt;Node17</title>
<path fill="none" stroke="#404040" d="M255.6045,-849.7559C259.6149,-837.0945 264.3962,-821.9992 268.7524,-808.2459"/>
<polygon fill="none" stroke="#404040" points="268.8176,-808.0401 266.816,-801.1123 272.4411,-796.6002 274.4426,-803.528 268.8176,-808.0401"/>
<text text-anchor="middle" x="291" y="-818" font-family="Helvetica,sans-Serif" font-size="10.00" fill="#000000"> +elements</text>
</g>
<!-- Node13 -->
<g id="node11" class="node">
<title>Node13</title>
<polygon fill="#ffffff" stroke="#bfbfbf" points="359.5,-618 359.5,-675 475.5,-675 475.5,-618 359.5,-618"/>
<text text-anchor="middle" x="417.5" y="-663" font-family="Helvetica,sans-Serif" font-size="10.00" fill="#000000">atomic&lt; unsigned int &gt;</text>
<polyline fill="none" stroke="#bfbfbf" points="359.5,-656 475.5,-656 "/>
<text text-anchor="middle" x="417.5" y="-644" font-family="Helvetica,sans-Serif" font-size="10.00" fill="#000000"> </text>
<polyline fill="none" stroke="#bfbfbf" points="359.5,-637 475.5,-637 "/>
<text text-anchor="middle" x="417.5" y="-625" font-family="Helvetica,sans-Serif" font-size="10.00" fill="#000000"> </text>
</g>
<!-- Node13&#45;&gt;Node5 -->
<g id="edge10" class="edge">
<title>Node13&#45;&gt;Node5</title>
<path fill="none" stroke="#404040" d="M417.5,-617.9497C417.5,-606.3895 417.5,-592.1147 417.5,-576.6501"/>
<polygon fill="none" stroke="#404040" points="417.5001,-576.6176 413.5,-570.6176 417.5,-564.6176 421.5,-570.6175 417.5001,-576.6176"/>
<text text-anchor="middle" x="437" y="-586" font-family="Helvetica,sans-Serif" font-size="10.00" fill="#000000"> &#45;counter</text>
</g>
<!-- Node14 -->
<g id="node12" class="node">
<title>Node14</title>
<polygon fill="#ffffff" stroke="#bfbfbf" points="493.5,-618 493.5,-675 537.5,-675 537.5,-618 493.5,-618"/>
<text text-anchor="middle" x="515.5" y="-663" font-family="Helvetica,sans-Serif" font-size="10.00" fill="#000000">mutex</text>
<polyline fill="none" stroke="#bfbfbf" points="493.5,-656 537.5,-656 "/>
<text text-anchor="middle" x="515.5" y="-644" font-family="Helvetica,sans-Serif" font-size="10.00" fill="#000000"> </text>
<polyline fill="none" stroke="#bfbfbf" points="493.5,-637 537.5,-637 "/>
<text text-anchor="middle" x="515.5" y="-625" font-family="Helvetica,sans-Serif" font-size="10.00" fill="#000000"> </text>
</g>
<!-- Node14&#45;&gt;Node5 -->
<g id="edge11" class="edge">
<title>Node14&#45;&gt;Node5</title>
<path fill="none" stroke="#404040" d="M502.4864,-617.9497C497.1138,-606.1629 490.4548,-591.5539 483.2462,-575.7391"/>
<polygon fill="none" stroke="#404040" points="483.154,-575.5368 477.0257,-571.7362 478.1768,-564.6176 484.3052,-568.4181 483.154,-575.5368"/>
<text text-anchor="middle" x="506.5" y="-586" font-family="Helvetica,sans-Serif" font-size="10.00" fill="#000000"> &#45;mutex</text>
</g>
<!-- Node15 -->
<g id="node13" class="node">
<title>Node15</title>
<polygon fill="#ffffff" stroke="#bfbfbf" points="220,-612.5 220,-680.5 341,-680.5 341,-612.5 220,-612.5"/>
<text text-anchor="start" x="228" y="-668.5" font-family="Helvetica,sans-Serif" font-size="10.00" fill="#000000">std::vector&lt; std::atomic</text>
<text text-anchor="middle" x="280.5" y="-657.5" font-family="Helvetica,sans-Serif" font-size="10.00" fill="#000000">&lt; bool &gt; *&gt;</text>
<polyline fill="none" stroke="#bfbfbf" points="220,-650.5 341,-650.5 "/>
<text text-anchor="middle" x="280.5" y="-638.5" font-family="Helvetica,sans-Serif" font-size="10.00" fill="#000000"> </text>
<polyline fill="none" stroke="#bfbfbf" points="220,-631.5 341,-631.5 "/>
<text text-anchor="middle" x="280.5" y="-619.5" font-family="Helvetica,sans-Serif" font-size="10.00" fill="#000000"> </text>
</g>
<!-- Node15&#45;&gt;Node5 -->
<g id="edge12" class="edge">
<title>Node15&#45;&gt;Node5</title>
<path fill="none" stroke="#404040" d="M302.2081,-612.4326C314.7304,-592.7808 331.2489,-566.8575 347.8571,-540.7936"/>
<polygon fill="none" stroke="#404040" points="348.0179,-540.5411 347.8689,-533.3315 354.4666,-530.421 354.6156,-537.6306 348.0179,-540.5411"/>
<text text-anchor="middle" x="356" y="-586" font-family="Helvetica,sans-Serif" font-size="10.00" fill="#000000"> &#45;validity_pointers</text>
</g>
<!-- Node16 -->
<g id="node14" class="node">
<title>Node16</title>
<polygon fill="#ffffff" stroke="#bfbfbf" points="369,-739.5 369,-796.5 458,-796.5 458,-739.5 369,-739.5"/>
<text text-anchor="middle" x="413.5" y="-784.5" font-family="Helvetica,sans-Serif" font-size="10.00" fill="#000000">atomic&lt; bool &gt; *</text>
<polyline fill="none" stroke="#bfbfbf" points="369,-777.5 458,-777.5 "/>
<text text-anchor="middle" x="413.5" y="-765.5" font-family="Helvetica,sans-Serif" font-size="10.00" fill="#000000"> </text>
<polyline fill="none" stroke="#bfbfbf" points="369,-758.5 458,-758.5 "/>
<text text-anchor="middle" x="413.5" y="-746.5" font-family="Helvetica,sans-Serif" font-size="10.00" fill="#000000"> </text>
</g>
<!-- Node16&#45;&gt;Node15 -->
<g id="edge13" class="edge">
<title>Node16&#45;&gt;Node15</title>
<path fill="none" stroke="#404040" d="M409.9421,-739.422C406.9675,-725.8121 401.5099,-710.1207 391.5,-699 380.1623,-686.4042 371.4851,-688.2998 352.2305,-681.2257"/>
<polygon fill="none" stroke="#404040" points="352.199,-681.2126 345.1204,-682.5891 341.1273,-676.5846 348.2058,-675.208 352.199,-681.2126"/>
<text text-anchor="middle" x="429" y="-707.5" font-family="Helvetica,sans-Serif" font-size="10.00" fill="#000000"> +elements</text>
</g>
<!-- Node17&#45;&gt;Node15 -->
<g id="edge14" class="edge">
<title>Node17&#45;&gt;Node15</title>
<path fill="none" stroke="#ffa500" d="M281.178,-728.8733C281.0503,-713.3628 280.9049,-695.6896 280.7815,-680.7007"/>
<polygon fill="#ffa500" stroke="#ffa500" points="277.6807,-729.2354 281.263,-739.2062 284.6805,-729.1777 277.6807,-729.2354"/>
<text text-anchor="middle" x="336.5" y="-707.5" font-family="Helvetica,sans-Serif" font-size="10.00" fill="#000000"> &lt; std::atomic&lt; bool &gt; *&gt;</text>
</g>
<!-- Node18 -->
<g id="node16" class="node">
<title>Node18</title>
<polygon fill="#ffffff" stroke="#bfbfbf" points="556,-618 556,-675 619,-675 619,-618 556,-618"/>
<text text-anchor="middle" x="587.5" y="-663" font-family="Helvetica,sans-Serif" font-size="10.00" fill="#000000">type_info *</text>
<polyline fill="none" stroke="#bfbfbf" points="556,-656 619,-656 "/>
<text text-anchor="middle" x="587.5" y="-644" font-family="Helvetica,sans-Serif" font-size="10.00" fill="#000000"> </text>
<polyline fill="none" stroke="#bfbfbf" points="556,-637 619,-637 "/>
<text text-anchor="middle" x="587.5" y="-625" font-family="Helvetica,sans-Serif" font-size="10.00" fill="#000000"> </text>
</g>
<!-- Node18&#45;&gt;Node5 -->
<g id="edge16" class="edge">
<title>Node18&#45;&gt;Node5</title>
<path fill="none" stroke="#404040" d="M564.6699,-617.9826C554.2124,-606.1441 541.1229,-592.8921 527.5,-583 512.3783,-572.0196 503.0549,-577.8647 489.5,-565 489.4045,-564.9094 489.3091,-564.8186 489.2138,-564.7276"/>
<polygon fill="none" stroke="#404040" points="488.9746,-564.4802 481.9284,-562.9471 480.6335,-555.8531 487.6798,-557.3863 488.9746,-564.4802"/>
<text text-anchor="middle" x="567.5" y="-586" font-family="Helvetica,sans-Serif" font-size="10.00" fill="#000000"> &#45;object_info</text>
</g>
<!-- Node19 -->
<g id="node17" class="node">
<title>Node19</title>
<polygon fill="#ffffff" stroke="#bfbfbf" points="498.5,-375.5 498.5,-487.5 656.5,-487.5 656.5,-375.5 498.5,-375.5"/>
<text text-anchor="start" x="506.5" y="-475.5" font-family="Helvetica,sans-Serif" font-size="10.00" fill="#000000">signal&lt; SolverControl</text>
<text text-anchor="start" x="506.5" y="-464.5" font-family="Helvetica,sans-Serif" font-size="10.00" fill="#000000">::State(const unsigned</text>
<text text-anchor="start" x="506.5" y="-453.5" font-family="Helvetica,sans-Serif" font-size="10.00" fill="#000000"> int iteration, const double</text>
<text text-anchor="start" x="506.5" y="-442.5" font-family="Helvetica,sans-Serif" font-size="10.00" fill="#000000"> check_value, const VectorType</text>
<text text-anchor="start" x="506.5" y="-431.5" font-family="Helvetica,sans-Serif" font-size="10.00" fill="#000000"> &amp;current_iterate), SolverBase</text>
<text text-anchor="middle" x="577.5" y="-420.5" font-family="Helvetica,sans-Serif" font-size="10.00" fill="#000000">::StateCombiner &gt;</text>
<polyline fill="none" stroke="#bfbfbf" points="498.5,-413.5 656.5,-413.5 "/>
<text text-anchor="middle" x="577.5" y="-401.5" font-family="Helvetica,sans-Serif" font-size="10.00" fill="#000000"> </text>
<polyline fill="none" stroke="#bfbfbf" points="498.5,-394.5 656.5,-394.5 "/>
<text text-anchor="middle" x="577.5" y="-382.5" font-family="Helvetica,sans-Serif" font-size="10.00" fill="#000000"> </text>
</g>
<!-- Node19&#45;&gt;Node4 -->
<g id="edge17" class="edge">
<title>Node19&#45;&gt;Node4</title>
<path fill="none" stroke="#404040" d="M591.473,-375.2344C603.1472,-336.3373 622.7443,-284.9626 652.5,-247 655.1193,-243.6583 657.9798,-240.4207 661.0105,-237.2981"/>
<polygon fill="none" stroke="#404040" points="661.243,-237.0773 662.8381,-230.0448 669.9432,-228.8124 668.3481,-235.8449 661.243,-237.0773"/>
<text text-anchor="middle" x="690.5" y="-261" font-family="Helvetica,sans-Serif" font-size="10.00" fill="#000000"> #iteration_status</text>
</g>
<!-- Node20 -->
<g id="node18" class="node">
<title>Node20</title>
<polygon fill="#ffffff" stroke="#bfbfbf" points="674.5,-397.5 674.5,-465.5 790.5,-465.5 790.5,-397.5 674.5,-397.5"/>
<text text-anchor="start" x="682.5" y="-453.5" font-family="Helvetica,sans-Serif" font-size="10.00" fill="#000000">GrowingVectorMemory</text>
<text text-anchor="middle" x="732.5" y="-442.5" font-family="Helvetica,sans-Serif" font-size="10.00" fill="#000000">&lt; VectorType &gt;</text>
<polyline fill="none" stroke="#bfbfbf" points="674.5,-435.5 790.5,-435.5 "/>
<text text-anchor="middle" x="732.5" y="-423.5" font-family="Helvetica,sans-Serif" font-size="10.00" fill="#000000"> </text>
<polyline fill="none" stroke="#bfbfbf" points="674.5,-416.5 790.5,-416.5 "/>
<text text-anchor="middle" x="732.5" y="-404.5" font-family="Helvetica,sans-Serif" font-size="10.00" fill="#000000"> </text>
</g>
<!-- Node20&#45;&gt;Node4 -->
<g id="edge18" class="edge">
<title>Node20&#45;&gt;Node4</title>
<path fill="none" stroke="#404040" d="M732.5,-397.27C732.5,-356.5219 732.5,-288.0602 732.5,-240.8146"/>
<polygon fill="none" stroke="#404040" points="732.5001,-240.6919 728.5,-234.6919 732.5,-228.6919 736.5,-234.6919 732.5001,-240.6919"/>
<text text-anchor="middle" x="785.5" y="-261" font-family="Helvetica,sans-Serif" font-size="10.00" fill="#000000"> #static_vector_memory</text>
</g>
<!-- Node21 -->
<g id="node19" class="node">
<title>Node21</title>
<polygon fill="#ffffff" stroke="#bfbfbf" points="808.5,-403 808.5,-460 966.5,-460 966.5,-403 808.5,-403"/>
<text text-anchor="middle" x="887.5" y="-448" font-family="Helvetica,sans-Serif" font-size="10.00" fill="#000000">VectorMemory&lt; VectorType &gt; &amp;</text>
<polyline fill="none" stroke="#bfbfbf" points="808.5,-441 966.5,-441 "/>
<text text-anchor="middle" x="887.5" y="-429" font-family="Helvetica,sans-Serif" font-size="10.00" fill="#000000"> </text>
<polyline fill="none" stroke="#bfbfbf" points="808.5,-422 966.5,-422 "/>
<text text-anchor="middle" x="887.5" y="-410" font-family="Helvetica,sans-Serif" font-size="10.00" fill="#000000"> </text>
</g>
<!-- Node21&#45;&gt;Node4 -->
<g id="edge19" class="edge">
<title>Node21&#45;&gt;Node4</title>
<path fill="none" stroke="#404040" d="M887.5423,-402.7804C886.163,-363.5992 878.3904,-293.0158 842.5,-247 833.9764,-236.0717 822.8105,-226.977 810.8636,-219.4836"/>
<polygon fill="none" stroke="#404040" points="810.5909,-219.3255 803.3938,-219.7753 800.2105,-213.3049 807.4076,-212.855 810.5909,-219.3255"/>
<text text-anchor="middle" x="882.5" y="-261" font-family="Helvetica,sans-Serif" font-size="10.00" fill="#000000"> #memory</text>
</g>
<!-- Node22 -->
<g id="node20" class="node">
<title>Node22</title>
<g id="a_node20"><a xlink:href="structSolverFIRE_1_1AdditionalData.html" target="_top" xlink:title="{SolverFIRE\&lt; VectorType\l \&gt;::AdditionalData\n||+ AdditionalData()\l}">
<polygon fill="#ffffff" stroke="#000000" points="880,-155 880,-223 1007,-223 1007,-155 880,-155"/>
<text text-anchor="start" x="888" y="-211" font-family="Helvetica,sans-Serif" font-size="10.00" fill="#000000">SolverFIRE&lt; VectorType</text>
<text text-anchor="middle" x="943.5" y="-200" font-family="Helvetica,sans-Serif" font-size="10.00" fill="#000000"> &gt;::AdditionalData</text>
<polyline fill="none" stroke="#000000" points="880,-193 1007,-193 "/>
<text text-anchor="middle" x="943.5" y="-181" font-family="Helvetica,sans-Serif" font-size="10.00" fill="#000000"> </text>
<polyline fill="none" stroke="#000000" points="880,-174 1007,-174 "/>
<text text-anchor="start" x="888" y="-162" font-family="Helvetica,sans-Serif" font-size="10.00" fill="#000000">+ AdditionalData()</text>
</a>
</g>
</g>
<!-- Node22&#45;&gt;Node3 -->
<g id="edge20" class="edge">
<title>Node22&#45;&gt;Node3</title>
<path fill="none" stroke="#404040" d="M909.6348,-154.8876C896.3211,-141.4767 880.6385,-125.6796 865.5756,-110.5068"/>
<polygon fill="none" stroke="#404040" points="865.2555,-110.1843 858.1896,-108.7444 856.8011,-101.6682 863.867,-103.1081 865.2555,-110.1843"/>
<text text-anchor="middle" x="919.5" y="-123" font-family="Helvetica,sans-Serif" font-size="10.00" fill="#000000"> #additional_data</text>
</g>
<!-- Node23 -->
<g id="node21" class="node">
<title>Node23</title>
<g id="a_node21"><a xlink:href="classdouble.html" target="_top" xlink:title="{double\n||}">
<polygon fill="#ffffff" stroke="#000000" points="984,-403 984,-460 1029,-460 1029,-403 984,-403"/>
<text text-anchor="middle" x="1006.5" y="-448" font-family="Helvetica,sans-Serif" font-size="10.00" fill="#000000">double</text>
<polyline fill="none" stroke="#000000" points="984,-441 1029,-441 "/>
<text text-anchor="middle" x="1006.5" y="-429" font-family="Helvetica,sans-Serif" font-size="10.00" fill="#000000"> </text>
<polyline fill="none" stroke="#000000" points="984,-422 1029,-422 "/>
<text text-anchor="middle" x="1006.5" y="-410" font-family="Helvetica,sans-Serif" font-size="10.00" fill="#000000"> </text>
</a>
</g>
</g>
<!-- Node23&#45;&gt;Node22 -->
<g id="edge21" class="edge">
<title>Node23&#45;&gt;Node22</title>
<path fill="none" stroke="#404040" d="M1000.3784,-402.9972C994.439,-375.8884 984.9599,-334.0156 975.5,-298 970.0231,-277.1484 963.3889,-254.2301 957.5843,-234.812"/>
<polygon fill="none" stroke="#404040" points="957.5549,-234.714 951.9949,-230.122 954.0952,-223.2235 959.6552,-227.8155 957.5549,-234.714"/>
<text text-anchor="middle" x="1022.5" y="-272" font-family="Helvetica,sans-Serif" font-size="10.00" fill="#000000"> +maximum_linfty_norm</text>
<text text-anchor="middle" x="1022.5" y="-261" font-family="Helvetica,sans-Serif" font-size="10.00" fill="#000000">+maximum_timestep</text>
<text text-anchor="middle" x="1022.5" y="-250" font-family="Helvetica,sans-Serif" font-size="10.00" fill="#000000">+initial_timestep</text>
</g>
</g>
</svg>
