<?xml version="1.0" encoding="UTF-8" standalone="no"?>
<!DOCTYPE svg PUBLIC "-//W3C//DTD SVG 1.1//EN"
 "http://www.w3.org/Graphics/SVG/1.1/DTD/svg11.dtd">
<!-- Generated by graphviz version 2.40.1 (20161225.0304)
 -->
<!-- Title: TimeStepping::LowStorageRungeKutta&lt; VectorType &gt; Pages: 1 -->
<svg width="166pt" height="173pt"
 viewBox="0.00 0.00 166.00 173.00" xmlns="http://www.w3.org/2000/svg" xmlns:xlink="http://www.w3.org/1999/xlink">
<g id="graph0" class="graph" transform="scale(1 1) rotate(0) translate(4 169)">
<title>TimeStepping::LowStorageRungeKutta&lt; VectorType &gt;</title>
<polygon fill="#ffffff" stroke="transparent" points="-4,4 -4,-169 162,-169 162,4 -4,4"/>
<!-- Node0 -->
<g id="node1" class="node">
<title>Node0</title>
<polygon fill="#bfbfbf" stroke="#000000" points="5,-.5 5,-30.5 153,-30.5 153,-.5 5,-.5"/>
<text text-anchor="start" x="13" y="-18.5" font-family="Helvetica,sans-Serif" font-size="10.00" fill="#000000">TimeStepping::LowStorage</text>
<text text-anchor="middle" x="79" y="-7.5" font-family="Helvetica,sans-Serif" font-size="10.00" fill="#000000">RungeKutta&lt; VectorType &gt;</text>
</g>
<!-- Node1 -->
<g id="node2" class="node">
<title>Node1</title>
<g id="a_node2"><a xlink:href="classTimeStepping_1_1RungeKutta.html" target="_top" xlink:title="TimeStepping::RungeKutta\l\&lt; VectorType \&gt;">
<polygon fill="#ffffff" stroke="#000000" points="6,-67.5 6,-97.5 152,-97.5 152,-67.5 6,-67.5"/>
<text text-anchor="start" x="14" y="-85.5" font-family="Helvetica,sans-Serif" font-size="10.00" fill="#000000">TimeStepping::RungeKutta</text>
<text text-anchor="middle" x="79" y="-74.5" font-family="Helvetica,sans-Serif" font-size="10.00" fill="#000000">&lt; VectorType &gt;</text>
</a>
</g>
</g>
<!-- Node1&#45;&gt;Node0 -->
<g id="edge1" class="edge">
<title>Node1&#45;&gt;Node0</title>
<path fill="none" stroke="#191970" d="M79,-57.0249C79,-48.128 79,-38.4287 79,-30.6432"/>
<polygon fill="#191970" stroke="#191970" points="75.5001,-57.2966 79,-67.2967 82.5001,-57.2967 75.5001,-57.2966"/>
</g>
<!-- Node2 -->
<g id="node3" class="node">
<title>Node2</title>
<g id="a_node3"><a xlink:href="classTimeStepping_1_1TimeStepping.html" target="_top" xlink:title="TimeStepping::TimeStepping\l\&lt; VectorType \&gt;">
<polygon fill="#ffffff" stroke="#000000" points="0,-134.5 0,-164.5 158,-164.5 158,-134.5 0,-134.5"/>
<text text-anchor="start" x="8" y="-152.5" font-family="Helvetica,sans-Serif" font-size="10.00" fill="#000000">TimeStepping::TimeStepping</text>
<text text-anchor="middle" x="79" y="-141.5" font-family="Helvetica,sans-Serif" font-size="10.00" fill="#000000">&lt; VectorType &gt;</text>
</a>
</g>
</g>
<!-- Node2&#45;&gt;Node1 -->
<g id="edge2" class="edge">
<title>Node2&#45;&gt;Node1</title>
<path fill="none" stroke="#191970" d="M79,-124.0249C79,-115.128 79,-105.4287 79,-97.6432"/>
<polygon fill="#191970" stroke="#191970" points="75.5001,-124.2966 79,-134.2967 82.5001,-124.2967 75.5001,-124.2966"/>
</g>
</g>
</svg>
