<?xml version="1.0" encoding="UTF-8" standalone="no"?>
<!DOCTYPE svg PUBLIC "-//W3C//DTD SVG 1.1//EN"
 "http://www.w3.org/Graphics/SVG/1.1/DTD/svg11.dtd">
<!-- Generated by graphviz version 2.40.1 (20161225.0304)
 -->
<!-- Title: DesignPattern::Decorator::Decorator Pages: 1 -->
<svg width="136pt" height="215pt"
 viewBox="0.00 0.00 136.00 215.00" xmlns="http://www.w3.org/2000/svg" xmlns:xlink="http://www.w3.org/1999/xlink">
<g id="graph0" class="graph" transform="scale(1 1) rotate(0) translate(4 211)">
<title>DesignPattern::Decorator::Decorator</title>
<polygon fill="#ffffff" stroke="transparent" points="-4,4 -4,-211 132,-211 132,4 -4,4"/>
<!-- Node4 -->
<g id="node1" class="node">
<title>Node4</title>
<polygon fill="#bfbfbf" stroke="#000000" points="0,-.5 0,-79.5 128,-79.5 128,-.5 0,-.5"/>
<text text-anchor="start" x="8" y="-67.5" font-family="Helvetica,sans-Serif" font-size="10.00" fill="#000000">DesignPattern::Decorator</text>
<text text-anchor="middle" x="64" y="-56.5" font-family="Helvetica,sans-Serif" font-size="10.00" fill="#000000">::Decorator</text>
<polyline fill="none" stroke="#000000" points="0,-49.5 128,-49.5 "/>
<text text-anchor="middle" x="64" y="-37.5" font-family="Helvetica,sans-Serif" font-size="10.00" fill="#000000"> </text>
<polyline fill="none" stroke="#000000" points="0,-30.5 128,-30.5 "/>
<text text-anchor="start" x="8" y="-18.5" font-family="Helvetica,sans-Serif" font-size="10.00" fill="#000000">+ Decorator()</text>
<text text-anchor="start" x="8" y="-7.5" font-family="Helvetica,sans-Serif" font-size="10.00" fill="#000000">+ Operation()</text>
</g>
<!-- Node5 -->
<g id="node2" class="node">
<title>Node5</title>
<g id="a_node2"><a xlink:href="classDesignPattern_1_1Decorator_1_1Component.html" target="_top" xlink:title="{DesignPattern::Decorator\l::Component\n||+ ~Component()\l+ Operation()\l}">
<polygon fill="#ffffff" stroke="#000000" points="0,-127.5 0,-206.5 128,-206.5 128,-127.5 0,-127.5"/>
<text text-anchor="start" x="8" y="-194.5" font-family="Helvetica,sans-Serif" font-size="10.00" fill="#000000">DesignPattern::Decorator</text>
<text text-anchor="middle" x="64" y="-183.5" font-family="Helvetica,sans-Serif" font-size="10.00" fill="#000000">::Component</text>
<polyline fill="none" stroke="#000000" points="0,-176.5 128,-176.5 "/>
<text text-anchor="middle" x="64" y="-164.5" font-family="Helvetica,sans-Serif" font-size="10.00" fill="#000000"> </text>
<polyline fill="none" stroke="#000000" points="0,-157.5 128,-157.5 "/>
<text text-anchor="start" x="8" y="-145.5" font-family="Helvetica,sans-Serif" font-size="10.00" fill="#000000">+ ~Component()</text>
<text text-anchor="start" x="8" y="-134.5" font-family="Helvetica,sans-Serif" font-size="10.00" fill="#000000">+ Operation()</text>
</a>
</g>
</g>
<!-- Node5&#45;&gt;Node4 -->
<g id="edge1" class="edge">
<title>Node5&#45;&gt;Node4</title>
<path fill="none" stroke="#191970" d="M62.1726,-117.2457C62.105,-114.4564 62.0464,-111.6932 62,-109 61.8368,-99.5339 61.9648,-89.3393 62.2198,-79.7672"/>
<polygon fill="none" stroke="#191970" points="58.6776,-117.4814 62.4517,-127.3812 65.675,-117.2886 58.6776,-117.4814"/>
</g>
<!-- Node5&#45;&gt;Node4 -->
<g id="edge2" class="edge">
<title>Node5&#45;&gt;Node4</title>
<path fill="none" stroke="#404040" d="M64,-127.1649C64,-115.935 64,-103.5529 64,-91.7342"/>
<polygon fill="none" stroke="#404040" points="64.0001,-91.6938 60,-85.6938 64,-79.6938 68,-85.6938 64.0001,-91.6938"/>
<text text-anchor="middle" x="95" y="-101" font-family="Helvetica,sans-Serif" font-size="10.00" fill="#000000"> #component_</text>
</g>
</g>
</svg>
