<?xml version="1.0" encoding="UTF-8" standalone="no"?>
<!DOCTYPE svg PUBLIC "-//W3C//DTD SVG 1.1//EN"
 "http://www.w3.org/Graphics/SVG/1.1/DTD/svg11.dtd">
<!-- Generated by graphviz version 2.40.1 (20161225.0304)
 -->
<!-- Title: DesignPattern::Mediator::Mediator Pages: 1 -->
<svg width="130pt" height="204pt"
 viewBox="0.00 0.00 130.00 204.00" xmlns="http://www.w3.org/2000/svg" xmlns:xlink="http://www.w3.org/1999/xlink">
<g id="graph0" class="graph" transform="scale(1 1) rotate(0) translate(4 200)">
<title>DesignPattern::Mediator::Mediator</title>
<polygon fill="#ffffff" stroke="transparent" points="-4,4 -4,-200 126,-200 126,4 -4,4"/>
<!-- Node0 -->
<g id="node1" class="node">
<title>Node0</title>
<polygon fill="#bfbfbf" stroke="#000000" points="0,-127.5 0,-195.5 122,-195.5 122,-127.5 0,-127.5"/>
<text text-anchor="start" x="8" y="-183.5" font-family="Helvetica,sans-Serif" font-size="10.00" fill="#000000">DesignPattern::Mediator</text>
<text text-anchor="middle" x="61" y="-172.5" font-family="Helvetica,sans-Serif" font-size="10.00" fill="#000000">::Mediator</text>
<polyline fill="none" stroke="#000000" points="0,-165.5 122,-165.5 "/>
<text text-anchor="middle" x="61" y="-153.5" font-family="Helvetica,sans-Serif" font-size="10.00" fill="#000000"> </text>
<polyline fill="none" stroke="#000000" points="0,-146.5 122,-146.5 "/>
<text text-anchor="start" x="8" y="-134.5" font-family="Helvetica,sans-Serif" font-size="10.00" fill="#000000">+ Notify()</text>
</g>
<!-- Node1 -->
<g id="node2" class="node">
<title>Node1</title>
<g id="a_node2"><a xlink:href="classDesignPattern_1_1Mediator_1_1ConcreteMediator.html" target="_top" xlink:title="{DesignPattern::Mediator\l::ConcreteMediator\n|&#45; component1_\l&#45; component2_\l|+ ConcreteMediator()\l+ Notify()\l}">
<polygon fill="#ffffff" stroke="#000000" points="0,-.5 0,-90.5 122,-90.5 122,-.5 0,-.5"/>
<text text-anchor="start" x="8" y="-78.5" font-family="Helvetica,sans-Serif" font-size="10.00" fill="#000000">DesignPattern::Mediator</text>
<text text-anchor="middle" x="61" y="-67.5" font-family="Helvetica,sans-Serif" font-size="10.00" fill="#000000">::ConcreteMediator</text>
<polyline fill="none" stroke="#000000" points="0,-60.5 122,-60.5 "/>
<text text-anchor="start" x="8" y="-48.5" font-family="Helvetica,sans-Serif" font-size="10.00" fill="#000000">&#45; component1_</text>
<text text-anchor="start" x="8" y="-37.5" font-family="Helvetica,sans-Serif" font-size="10.00" fill="#000000">&#45; component2_</text>
<polyline fill="none" stroke="#000000" points="0,-30.5 122,-30.5 "/>
<text text-anchor="start" x="8" y="-18.5" font-family="Helvetica,sans-Serif" font-size="10.00" fill="#000000">+ ConcreteMediator()</text>
<text text-anchor="start" x="8" y="-7.5" font-family="Helvetica,sans-Serif" font-size="10.00" fill="#000000">+ Notify()</text>
</a>
</g>
</g>
<!-- Node0&#45;&gt;Node1 -->
<g id="edge1" class="edge">
<title>Node0&#45;&gt;Node1</title>
<path fill="none" stroke="#191970" d="M61,-117.3177C61,-108.5764 61,-99.3904 61,-90.6185"/>
<polygon fill="none" stroke="#191970" points="57.5001,-117.3235 61,-127.3236 64.5001,-117.3236 57.5001,-117.3235"/>
</g>
</g>
</svg>
