<?xml version="1.0" encoding="UTF-8" standalone="no"?>
<!DOCTYPE svg PUBLIC "-//W3C//DTD SVG 1.1//EN"
 "http://www.w3.org/Graphics/SVG/1.1/DTD/svg11.dtd">
<!-- Generated by graphviz version 2.40.1 (20161225.0304)
 -->
<!-- Title: LinearAlgebra::EpetraWrappers::CommunicationPattern Pages: 1 -->
<svg width="440pt" height="458pt"
 viewBox="0.00 0.00 440.00 458.00" xmlns="http://www.w3.org/2000/svg" xmlns:xlink="http://www.w3.org/1999/xlink">
<g id="graph0" class="graph" transform="scale(1 1) rotate(0) translate(4 454)">
<title>LinearAlgebra::EpetraWrappers::CommunicationPattern</title>
<polygon fill="#ffffff" stroke="transparent" points="-4,4 -4,-454 436,-454 436,4 -4,4"/>
<!-- Node2 -->
<g id="node1" class="node">
<title>Node2</title>
<polygon fill="#bfbfbf" stroke="#000000" points="162,-.5 162,-101.5 314,-101.5 314,-.5 162,-.5"/>
<text text-anchor="start" x="170" y="-89.5" font-family="Helvetica,sans-Serif" font-size="10.00" fill="#000000">LinearAlgebra::EpetraWrappers</text>
<text text-anchor="middle" x="238" y="-78.5" font-family="Helvetica,sans-Serif" font-size="10.00" fill="#000000">::CommunicationPattern</text>
<polyline fill="none" stroke="#000000" points="162,-71.5 314,-71.5 "/>
<text text-anchor="middle" x="238" y="-59.5" font-family="Helvetica,sans-Serif" font-size="10.00" fill="#000000"> </text>
<polyline fill="none" stroke="#000000" points="162,-52.5 314,-52.5 "/>
<text text-anchor="start" x="170" y="-40.5" font-family="Helvetica,sans-Serif" font-size="10.00" fill="#000000">+ CommunicationPattern()</text>
<text text-anchor="start" x="170" y="-29.5" font-family="Helvetica,sans-Serif" font-size="10.00" fill="#000000">+ reinit()</text>
<text text-anchor="start" x="170" y="-18.5" font-family="Helvetica,sans-Serif" font-size="10.00" fill="#000000">+ get_mpi_communicator()</text>
<text text-anchor="start" x="170" y="-7.5" font-family="Helvetica,sans-Serif" font-size="10.00" fill="#000000">+ get_epetra_import()</text>
</g>
<!-- Node3 -->
<g id="node2" class="node">
<title>Node3</title>
<g id="a_node2"><a xlink:href="classUtilities_1_1MPI_1_1CommunicationPatternBase.html" target="_top" xlink:title="{Utilities::MPI::Communication\lPatternBase\n||+ ~CommunicationPatternBase()\l+ reinit()\l+ get_mpi_communicator()\l}">
<polygon fill="#ffffff" stroke="#000000" points="0,-149.5 0,-239.5 160,-239.5 160,-149.5 0,-149.5"/>
<text text-anchor="start" x="8" y="-227.5" font-family="Helvetica,sans-Serif" font-size="10.00" fill="#000000">Utilities::MPI::Communication</text>
<text text-anchor="middle" x="80" y="-216.5" font-family="Helvetica,sans-Serif" font-size="10.00" fill="#000000">PatternBase</text>
<polyline fill="none" stroke="#000000" points="0,-209.5 160,-209.5 "/>
<text text-anchor="middle" x="80" y="-197.5" font-family="Helvetica,sans-Serif" font-size="10.00" fill="#000000"> </text>
<polyline fill="none" stroke="#000000" points="0,-190.5 160,-190.5 "/>
<text text-anchor="start" x="8" y="-178.5" font-family="Helvetica,sans-Serif" font-size="10.00" fill="#000000">+ ~CommunicationPatternBase()</text>
<text text-anchor="start" x="8" y="-167.5" font-family="Helvetica,sans-Serif" font-size="10.00" fill="#000000">+ reinit()</text>
<text text-anchor="start" x="8" y="-156.5" font-family="Helvetica,sans-Serif" font-size="10.00" fill="#000000">+ get_mpi_communicator()</text>
</a>
</g>
</g>
<!-- Node3&#45;&gt;Node2 -->
<g id="edge1" class="edge">
<title>Node3&#45;&gt;Node2</title>
<path fill="none" stroke="#191970" d="M137.1384,-142.6053C151.8473,-129.2463 167.6537,-114.8905 182.289,-101.5983"/>
<polygon fill="none" stroke="#191970" points="134.6081,-140.1753 129.5587,-149.4894 139.3144,-145.3571 134.6081,-140.1753"/>
</g>
<!-- Node4 -->
<g id="node3" class="node">
<title>Node4</title>
<polygon fill="#ffffff" stroke="#bfbfbf" points="178.5,-160.5 178.5,-228.5 297.5,-228.5 297.5,-160.5 178.5,-160.5"/>
<text text-anchor="start" x="186.5" y="-216.5" font-family="Helvetica,sans-Serif" font-size="10.00" fill="#000000">std::unique_ptr&lt; Epetra</text>
<text text-anchor="middle" x="238" y="-205.5" font-family="Helvetica,sans-Serif" font-size="10.00" fill="#000000">_Import &gt;</text>
<polyline fill="none" stroke="#bfbfbf" points="178.5,-198.5 297.5,-198.5 "/>
<text text-anchor="middle" x="238" y="-186.5" font-family="Helvetica,sans-Serif" font-size="10.00" fill="#000000"> </text>
<polyline fill="none" stroke="#bfbfbf" points="178.5,-179.5 297.5,-179.5 "/>
<text text-anchor="start" x="186.5" y="-167.5" font-family="Helvetica,sans-Serif" font-size="10.00" fill="#000000">+ operator&#45;&gt;()</text>
</g>
<!-- Node4&#45;&gt;Node2 -->
<g id="edge2" class="edge">
<title>Node4&#45;&gt;Node2</title>
<path fill="none" stroke="#404040" d="M238,-160.4925C238,-146.4909 238,-129.8085 238,-113.7389"/>
<polygon fill="none" stroke="#404040" points="238.0001,-113.6243 234,-107.6243 238,-101.6243 242,-107.6242 238.0001,-113.6243"/>
<text text-anchor="middle" x="259" y="-123" font-family="Helvetica,sans-Serif" font-size="10.00" fill="#000000"> &#45;importer</text>
</g>
<!-- Node5 -->
<g id="node4" class="node">
<title>Node5</title>
<polygon fill="#ffffff" stroke="#bfbfbf" points="160,-287.5 160,-344.5 238,-344.5 238,-287.5 160,-287.5"/>
<text text-anchor="middle" x="199" y="-332.5" font-family="Helvetica,sans-Serif" font-size="10.00" fill="#000000">Epetra_Import</text>
<polyline fill="none" stroke="#bfbfbf" points="160,-325.5 238,-325.5 "/>
<text text-anchor="middle" x="199" y="-313.5" font-family="Helvetica,sans-Serif" font-size="10.00" fill="#000000"> </text>
<polyline fill="none" stroke="#bfbfbf" points="160,-306.5 238,-306.5 "/>
<text text-anchor="middle" x="199" y="-294.5" font-family="Helvetica,sans-Serif" font-size="10.00" fill="#000000"> </text>
</g>
<!-- Node5&#45;&gt;Node4 -->
<g id="edge3" class="edge">
<title>Node5&#45;&gt;Node4</title>
<path fill="none" stroke="#404040" d="M208.2425,-287.2062C212.7299,-273.2262 218.2304,-256.0898 223.2763,-240.37"/>
<polygon fill="none" stroke="#404040" points="223.3544,-240.1266 221.3796,-233.1911 227.022,-228.7007 228.9968,-235.6362 223.3544,-240.1266"/>
<text text-anchor="middle" x="228.5" y="-261" font-family="Helvetica,sans-Serif" font-size="10.00" fill="#000000"> +ptr</text>
</g>
<!-- Node6 -->
<g id="node5" class="node">
<title>Node6</title>
<g id="a_node5"><a xlink:title="STL class. ">
<polygon fill="#ffffff" stroke="#bfbfbf" points="256.5,-287.5 256.5,-344.5 361.5,-344.5 361.5,-287.5 256.5,-287.5"/>
<text text-anchor="middle" x="309" y="-332.5" font-family="Helvetica,sans-Serif" font-size="10.00" fill="#000000">std::unique_ptr&lt; T &gt;</text>
<polyline fill="none" stroke="#bfbfbf" points="256.5,-325.5 361.5,-325.5 "/>
<text text-anchor="middle" x="309" y="-313.5" font-family="Helvetica,sans-Serif" font-size="10.00" fill="#000000"> </text>
<polyline fill="none" stroke="#bfbfbf" points="256.5,-306.5 361.5,-306.5 "/>
<text text-anchor="start" x="264.5" y="-294.5" font-family="Helvetica,sans-Serif" font-size="10.00" fill="#000000">+ operator&#45;&gt;()</text>
</a>
</g>
</g>
<!-- Node6&#45;&gt;Node4 -->
<g id="edge4" class="edge">
<title>Node6&#45;&gt;Node4</title>
<path fill="none" stroke="#ffa500" d="M286.917,-278.21C277.6692,-262.3847 266.9972,-244.122 257.9856,-228.7007"/>
<polygon fill="#ffa500" stroke="#ffa500" points="284.1067,-280.3381 292.174,-287.2062 290.1505,-276.8064 284.1067,-280.3381"/>
<text text-anchor="middle" x="320.5" y="-261" font-family="Helvetica,sans-Serif" font-size="10.00" fill="#000000"> &lt; Epetra_Import &gt;</text>
</g>
<!-- Node7 -->
<g id="node6" class="node">
<title>Node7</title>
<polygon fill="#ffffff" stroke="#bfbfbf" points="294.5,-392.5 294.5,-449.5 323.5,-449.5 323.5,-392.5 294.5,-392.5"/>
<text text-anchor="middle" x="309" y="-437.5" font-family="Helvetica,sans-Serif" font-size="10.00" fill="#000000">T</text>
<polyline fill="none" stroke="#bfbfbf" points="294.5,-430.5 323.5,-430.5 "/>
<text text-anchor="middle" x="309" y="-418.5" font-family="Helvetica,sans-Serif" font-size="10.00" fill="#000000"> </text>
<polyline fill="none" stroke="#bfbfbf" points="294.5,-411.5 323.5,-411.5 "/>
<text text-anchor="middle" x="309" y="-399.5" font-family="Helvetica,sans-Serif" font-size="10.00" fill="#000000"> </text>
</g>
<!-- Node7&#45;&gt;Node6 -->
<g id="edge5" class="edge">
<title>Node7&#45;&gt;Node6</title>
<path fill="none" stroke="#404040" d="M309,-392.3083C309,-381.4281 309,-368.817 309,-357.0192"/>
<polygon fill="none" stroke="#404040" points="309.0001,-356.657 305,-350.6571 309,-344.657 313,-350.657 309.0001,-356.657"/>
<text text-anchor="middle" x="319.5" y="-366" font-family="Helvetica,sans-Serif" font-size="10.00" fill="#000000"> +ptr</text>
</g>
<!-- Node8 -->
<g id="node7" class="node">
<title>Node8</title>
<polygon fill="#ffffff" stroke="#bfbfbf" points="316,-160.5 316,-228.5 432,-228.5 432,-160.5 316,-160.5"/>
<text text-anchor="start" x="324" y="-216.5" font-family="Helvetica,sans-Serif" font-size="10.00" fill="#000000">shared_ptr&lt; const MPI</text>
<text text-anchor="middle" x="374" y="-205.5" font-family="Helvetica,sans-Serif" font-size="10.00" fill="#000000">_Comm &gt;</text>
<polyline fill="none" stroke="#bfbfbf" points="316,-198.5 432,-198.5 "/>
<text text-anchor="middle" x="374" y="-186.5" font-family="Helvetica,sans-Serif" font-size="10.00" fill="#000000"> </text>
<polyline fill="none" stroke="#bfbfbf" points="316,-179.5 432,-179.5 "/>
<text text-anchor="middle" x="374" y="-167.5" font-family="Helvetica,sans-Serif" font-size="10.00" fill="#000000"> </text>
</g>
<!-- Node8&#45;&gt;Node2 -->
<g id="edge6" class="edge">
<title>Node8&#45;&gt;Node2</title>
<path fill="none" stroke="#404040" d="M341.7699,-160.4925C327.5894,-145.53 310.5076,-127.5061 294.3335,-110.4401"/>
<polygon fill="none" stroke="#404040" points="294.2331,-110.3341 287.2024,-108.7308 285.9784,-101.6243 293.009,-103.2277 294.2331,-110.3341"/>
<text text-anchor="middle" x="327" y="-123" font-family="Helvetica,sans-Serif" font-size="10.00" fill="#000000"> &#45;comm</text>
</g>
</g>
</svg>
