<?xml version="1.0" encoding="UTF-8" standalone="no"?>
<!DOCTYPE svg PUBLIC "-//W3C//DTD SVG 1.1//EN"
 "http://www.w3.org/Graphics/SVG/1.1/DTD/svg11.dtd">
<!-- Generated by graphviz version 2.40.1 (20161225.0304)
 -->
<!-- Title: MultipleParameterLoop::Entry Pages: 1 -->
<svg width="378pt" height="447pt"
 viewBox="0.00 0.00 378.00 447.00" xmlns="http://www.w3.org/2000/svg" xmlns:xlink="http://www.w3.org/1999/xlink">
<g id="graph0" class="graph" transform="scale(1 1) rotate(0) translate(4 443)">
<title>MultipleParameterLoop::Entry</title>
<polygon fill="#ffffff" stroke="transparent" points="-4,4 -4,-443 374,-443 374,4 -4,4"/>
<!-- Node1 -->
<g id="node1" class="node">
<title>Node1</title>
<polygon fill="#bfbfbf" stroke="#000000" points="131.5,-.5 131.5,-101.5 259.5,-101.5 259.5,-.5 131.5,-.5"/>
<text text-anchor="start" x="139.5" y="-89.5" font-family="Helvetica,sans-Serif" font-size="10.00" fill="#000000">MultipleParameterLoop</text>
<text text-anchor="middle" x="195.5" y="-78.5" font-family="Helvetica,sans-Serif" font-size="10.00" fill="#000000">::Entry</text>
<polyline fill="none" stroke="#000000" points="131.5,-71.5 259.5,-71.5 "/>
<text text-anchor="middle" x="195.5" y="-59.5" font-family="Helvetica,sans-Serif" font-size="10.00" fill="#000000"> </text>
<polyline fill="none" stroke="#000000" points="131.5,-52.5 259.5,-52.5 "/>
<text text-anchor="start" x="139.5" y="-40.5" font-family="Helvetica,sans-Serif" font-size="10.00" fill="#000000">+ Entry()</text>
<text text-anchor="start" x="139.5" y="-29.5" font-family="Helvetica,sans-Serif" font-size="10.00" fill="#000000">+ Entry()</text>
<text text-anchor="start" x="139.5" y="-18.5" font-family="Helvetica,sans-Serif" font-size="10.00" fill="#000000">+ split_different_values()</text>
<text text-anchor="start" x="139.5" y="-7.5" font-family="Helvetica,sans-Serif" font-size="10.00" fill="#000000">+ memory_consumption()</text>
</g>
<!-- Node2 -->
<g id="node2" class="node">
<title>Node2</title>
<g id="a_node2"><a xlink:title="STL class. ">
<polygon fill="#ffffff" stroke="#bfbfbf" points="135.5,-265.5 135.5,-322.5 195.5,-322.5 195.5,-265.5 135.5,-265.5"/>
<text text-anchor="middle" x="165.5" y="-310.5" font-family="Helvetica,sans-Serif" font-size="10.00" fill="#000000">std::string</text>
<polyline fill="none" stroke="#bfbfbf" points="135.5,-303.5 195.5,-303.5 "/>
<text text-anchor="middle" x="165.5" y="-291.5" font-family="Helvetica,sans-Serif" font-size="10.00" fill="#000000"> </text>
<polyline fill="none" stroke="#bfbfbf" points="135.5,-284.5 195.5,-284.5 "/>
<text text-anchor="middle" x="165.5" y="-272.5" font-family="Helvetica,sans-Serif" font-size="10.00" fill="#000000"> </text>
</a>
</g>
</g>
<!-- Node2&#45;&gt;Node1 -->
<g id="edge1" class="edge">
<title>Node2&#45;&gt;Node1</title>
<path fill="none" stroke="#404040" d="M176.5069,-265.4891C178.4645,-259.4617 180.2688,-253.0827 181.5,-247 190.3857,-203.101 193.8395,-152.6776 195.0959,-113.9683"/>
<polygon fill="none" stroke="#404040" points="195.0996,-113.8306 191.2667,-107.7225 195.4307,-101.8351 199.2636,-107.9432 195.0996,-113.8306"/>
<text text-anchor="middle" x="223" y="-192" font-family="Helvetica,sans-Serif" font-size="10.00" fill="#000000"> +entry_name</text>
<text text-anchor="middle" x="223" y="-181" font-family="Helvetica,sans-Serif" font-size="10.00" fill="#000000">+entry_value</text>
</g>
<!-- Node5 -->
<g id="node5" class="node">
<title>Node5</title>
<polygon fill="#ffffff" stroke="#bfbfbf" points="34,-160.5 34,-217.5 159,-217.5 159,-160.5 34,-160.5"/>
<text text-anchor="middle" x="96.5" y="-205.5" font-family="Helvetica,sans-Serif" font-size="10.00" fill="#000000">std::vector&lt; std::string &gt;</text>
<polyline fill="none" stroke="#bfbfbf" points="34,-198.5 159,-198.5 "/>
<text text-anchor="middle" x="96.5" y="-186.5" font-family="Helvetica,sans-Serif" font-size="10.00" fill="#000000"> </text>
<polyline fill="none" stroke="#bfbfbf" points="34,-179.5 159,-179.5 "/>
<text text-anchor="middle" x="96.5" y="-167.5" font-family="Helvetica,sans-Serif" font-size="10.00" fill="#000000"> </text>
</g>
<!-- Node2&#45;&gt;Node5 -->
<g id="edge5" class="edge">
<title>Node2&#45;&gt;Node5</title>
<path fill="none" stroke="#404040" d="M144.9952,-265.3446C140.7984,-259.3277 136.4569,-252.9895 132.5,-247 128.4824,-240.9187 124.3174,-234.4119 120.3079,-228.035"/>
<polygon fill="none" stroke="#404040" points="120.105,-227.7094 113.5374,-224.7317 113.7601,-217.524 120.3277,-220.5017 120.105,-227.7094"/>
<text text-anchor="middle" x="157" y="-239" font-family="Helvetica,sans-Serif" font-size="10.00" fill="#000000"> +elements</text>
</g>
<!-- Node3 -->
<g id="node3" class="node">
<title>Node3</title>
<g id="a_node3"><a xlink:title="STL class. ">
<polygon fill="#ffffff" stroke="#bfbfbf" points="118,-370.5 118,-438.5 213,-438.5 213,-370.5 118,-370.5"/>
<text text-anchor="start" x="126" y="-426.5" font-family="Helvetica,sans-Serif" font-size="10.00" fill="#000000">std::basic_string&lt;</text>
<text text-anchor="middle" x="165.5" y="-415.5" font-family="Helvetica,sans-Serif" font-size="10.00" fill="#000000"> char &gt;</text>
<polyline fill="none" stroke="#bfbfbf" points="118,-408.5 213,-408.5 "/>
<text text-anchor="middle" x="165.5" y="-396.5" font-family="Helvetica,sans-Serif" font-size="10.00" fill="#000000"> </text>
<polyline fill="none" stroke="#bfbfbf" points="118,-389.5 213,-389.5 "/>
<text text-anchor="middle" x="165.5" y="-377.5" font-family="Helvetica,sans-Serif" font-size="10.00" fill="#000000"> </text>
</a>
</g>
</g>
<!-- Node3&#45;&gt;Node2 -->
<g id="edge2" class="edge">
<title>Node3&#45;&gt;Node2</title>
<path fill="none" stroke="#191970" d="M165.5,-360.0661C165.5,-347.4172 165.5,-333.9812 165.5,-322.5519"/>
<polygon fill="none" stroke="#191970" points="162.0001,-360.4447 165.5,-370.4447 169.0001,-360.4447 162.0001,-360.4447"/>
</g>
<!-- Node4 -->
<g id="node4" class="node">
<title>Node4</title>
<polygon fill="#ffffff" stroke="#bfbfbf" points="275,-160.5 275,-217.5 370,-217.5 370,-160.5 275,-160.5"/>
<text text-anchor="middle" x="322.5" y="-205.5" font-family="Helvetica,sans-Serif" font-size="10.00" fill="#000000">MultipleEntryType</text>
<polyline fill="none" stroke="#bfbfbf" points="275,-198.5 370,-198.5 "/>
<text text-anchor="middle" x="322.5" y="-186.5" font-family="Helvetica,sans-Serif" font-size="10.00" fill="#000000"> </text>
<polyline fill="none" stroke="#bfbfbf" points="275,-179.5 370,-179.5 "/>
<text text-anchor="middle" x="322.5" y="-167.5" font-family="Helvetica,sans-Serif" font-size="10.00" fill="#000000"> </text>
</g>
<!-- Node4&#45;&gt;Node1 -->
<g id="edge3" class="edge">
<title>Node4&#45;&gt;Node1</title>
<path fill="none" stroke="#404040" d="M296.1855,-160.4063C282.8835,-145.9522 266.2201,-127.8455 250.3003,-110.5468"/>
<polygon fill="none" stroke="#404040" points="250.1908,-110.4278 243.1845,-108.7216 242.0647,-101.5979 249.0711,-103.3042 250.1908,-110.4278"/>
<text text-anchor="middle" x="291.5" y="-128.5" font-family="Helvetica,sans-Serif" font-size="10.00" fill="#000000"> +type</text>
</g>
<!-- Node5&#45;&gt;Node1 -->
<g id="edge4" class="edge">
<title>Node5&#45;&gt;Node1</title>
<path fill="none" stroke="#404040" d="M92.7799,-160.2816C92.4017,-147.2619 93.8811,-132.1081 100.5,-120 105.9426,-110.0437 113.5098,-101.1549 122.0205,-93.3401"/>
<polygon fill="none" stroke="#404040" points="122.0224,-93.3385 124.0175,-86.4089 131.1814,-85.5853 129.1863,-92.515 122.0224,-93.3385"/>
<text text-anchor="middle" x="141" y="-134" font-family="Helvetica,sans-Serif" font-size="10.00" fill="#000000"> +subsection_path</text>
<text text-anchor="middle" x="141" y="-123" font-family="Helvetica,sans-Serif" font-size="10.00" fill="#000000">+different_values</text>
</g>
<!-- Node6 -->
<g id="node6" class="node">
<title>Node6</title>
<g id="a_node6"><a xlink:title="STL class. ">
<polygon fill="#ffffff" stroke="#bfbfbf" points="0,-265.5 0,-322.5 87,-322.5 87,-265.5 0,-265.5"/>
<text text-anchor="middle" x="43.5" y="-310.5" font-family="Helvetica,sans-Serif" font-size="10.00" fill="#000000">std::vector&lt; T &gt;</text>
<polyline fill="none" stroke="#bfbfbf" points="0,-303.5 87,-303.5 "/>
<text text-anchor="middle" x="43.5" y="-291.5" font-family="Helvetica,sans-Serif" font-size="10.00" fill="#000000"> </text>
<polyline fill="none" stroke="#bfbfbf" points="0,-284.5 87,-284.5 "/>
<text text-anchor="middle" x="43.5" y="-272.5" font-family="Helvetica,sans-Serif" font-size="10.00" fill="#000000"> </text>
</a>
</g>
</g>
<!-- Node6&#45;&gt;Node5 -->
<g id="edge6" class="edge">
<title>Node6&#45;&gt;Node5</title>
<path fill="none" stroke="#ffa500" d="M39.8351,-255.0603C40.4239,-248.4909 41.8203,-241.8965 44.5,-236 47.5711,-229.2421 52.1312,-223.0362 57.2961,-217.5029"/>
<polygon fill="#ffa500" stroke="#ffa500" points="36.3304,-255.1517 39.5063,-265.2593 43.3268,-255.3773 36.3304,-255.1517"/>
<text text-anchor="middle" x="77" y="-239" font-family="Helvetica,sans-Serif" font-size="10.00" fill="#000000"> &lt; std::string &gt;</text>
</g>
<!-- Node7 -->
<g id="node7" class="node">
<title>Node7</title>
<polygon fill="#ffffff" stroke="#bfbfbf" points="29,-376 29,-433 58,-433 58,-376 29,-376"/>
<text text-anchor="middle" x="43.5" y="-421" font-family="Helvetica,sans-Serif" font-size="10.00" fill="#000000">T</text>
<polyline fill="none" stroke="#bfbfbf" points="29,-414 58,-414 "/>
<text text-anchor="middle" x="43.5" y="-402" font-family="Helvetica,sans-Serif" font-size="10.00" fill="#000000"> </text>
<polyline fill="none" stroke="#bfbfbf" points="29,-395 58,-395 "/>
<text text-anchor="middle" x="43.5" y="-383" font-family="Helvetica,sans-Serif" font-size="10.00" fill="#000000"> </text>
</g>
<!-- Node7&#45;&gt;Node6 -->
<g id="edge7" class="edge">
<title>Node7&#45;&gt;Node6</title>
<path fill="none" stroke="#404040" d="M43.5,-375.7559C43.5,-363.2224 43.5,-348.3039 43.5,-334.6631"/>
<polygon fill="none" stroke="#404040" points="43.5001,-334.6002 39.5,-328.6002 43.5,-322.6002 47.5,-328.6002 43.5001,-334.6002"/>
<text text-anchor="middle" x="68" y="-344" font-family="Helvetica,sans-Serif" font-size="10.00" fill="#000000"> +elements</text>
</g>
</g>
</svg>
