<?xml version="1.0" encoding="UTF-8" standalone="no"?>
<!DOCTYPE svg PUBLIC "-//W3C//DTD SVG 1.1//EN"
 "http://www.w3.org/Graphics/SVG/1.1/DTD/svg11.dtd">
<!-- Generated by graphviz version 2.40.1 (20161225.0304)
 -->
<!-- Title: internal::DoFHandlerImplementation::DoFFaces&lt; 2 &gt; Pages: 1 -->
<svg width="298pt" height="756pt"
 viewBox="0.00 0.00 298.00 756.00" xmlns="http://www.w3.org/2000/svg" xmlns:xlink="http://www.w3.org/1999/xlink">
<g id="graph0" class="graph" transform="scale(1 1) rotate(0) translate(4 752)">
<title>internal::DoFHandlerImplementation::DoFFaces&lt; 2 &gt;</title>
<polygon fill="#ffffff" stroke="transparent" points="-4,4 -4,-752 294,-752 294,4 -4,4"/>
<!-- Node1 -->
<g id="node1" class="node">
<title>Node1</title>
<polygon fill="#bfbfbf" stroke="#000000" points="0,-.5 0,-79.5 173,-79.5 173,-.5 0,-.5"/>
<text text-anchor="start" x="8" y="-67.5" font-family="Helvetica,sans-Serif" font-size="10.00" fill="#000000">internal::DoFHandlerImplementation</text>
<text text-anchor="middle" x="86.5" y="-56.5" font-family="Helvetica,sans-Serif" font-size="10.00" fill="#000000">::DoFFaces&lt; 2 &gt;</text>
<polyline fill="none" stroke="#000000" points="0,-49.5 173,-49.5 "/>
<text text-anchor="middle" x="86.5" y="-37.5" font-family="Helvetica,sans-Serif" font-size="10.00" fill="#000000"> </text>
<polyline fill="none" stroke="#000000" points="0,-30.5 173,-30.5 "/>
<text text-anchor="start" x="8" y="-18.5" font-family="Helvetica,sans-Serif" font-size="10.00" fill="#000000">+ memory_consumption()</text>
<text text-anchor="start" x="8" y="-7.5" font-family="Helvetica,sans-Serif" font-size="10.00" fill="#000000">+ serialize()</text>
</g>
<!-- Node2 -->
<g id="node2" class="node">
<title>Node2</title>
<g id="a_node2"><a xlink:href="classinternal_1_1DoFHandlerImplementation_1_1DoFObjects.html" target="_top" xlink:title="{internal::DoFHandlerImplementation\l::DoFObjects\&lt; 1 \&gt;\n||+ set_dof_index()\l+ get_dof_index()\l+ n_active_fe_indices()\l+ fe_index_is_active()\l+ memory_consumption()\l+ serialize()\l}">
<polygon fill="#ffffff" stroke="#000000" points="0,-127.5 0,-250.5 173,-250.5 173,-127.5 0,-127.5"/>
<text text-anchor="start" x="8" y="-238.5" font-family="Helvetica,sans-Serif" font-size="10.00" fill="#000000">internal::DoFHandlerImplementation</text>
<text text-anchor="middle" x="86.5" y="-227.5" font-family="Helvetica,sans-Serif" font-size="10.00" fill="#000000">::DoFObjects&lt; 1 &gt;</text>
<polyline fill="none" stroke="#000000" points="0,-220.5 173,-220.5 "/>
<text text-anchor="middle" x="86.5" y="-208.5" font-family="Helvetica,sans-Serif" font-size="10.00" fill="#000000"> </text>
<polyline fill="none" stroke="#000000" points="0,-201.5 173,-201.5 "/>
<text text-anchor="start" x="8" y="-189.5" font-family="Helvetica,sans-Serif" font-size="10.00" fill="#000000">+ set_dof_index()</text>
<text text-anchor="start" x="8" y="-178.5" font-family="Helvetica,sans-Serif" font-size="10.00" fill="#000000">+ get_dof_index()</text>
<text text-anchor="start" x="8" y="-167.5" font-family="Helvetica,sans-Serif" font-size="10.00" fill="#000000">+ n_active_fe_indices()</text>
<text text-anchor="start" x="8" y="-156.5" font-family="Helvetica,sans-Serif" font-size="10.00" fill="#000000">+ fe_index_is_active()</text>
<text text-anchor="start" x="8" y="-145.5" font-family="Helvetica,sans-Serif" font-size="10.00" fill="#000000">+ memory_consumption()</text>
<text text-anchor="start" x="8" y="-134.5" font-family="Helvetica,sans-Serif" font-size="10.00" fill="#000000">+ serialize()</text>
</a>
</g>
</g>
<!-- Node2&#45;&gt;Node1 -->
<g id="edge1" class="edge">
<title>Node2&#45;&gt;Node1</title>
<path fill="none" stroke="#404040" d="M86.5,-127.105C86.5,-115.4864 86.5,-103.4465 86.5,-92.1603"/>
<polygon fill="none" stroke="#404040" points="86.5001,-91.8008 82.5,-85.8008 86.5,-79.8008 90.5,-85.8008 86.5001,-91.8008"/>
<text text-anchor="middle" x="101.5" y="-101" font-family="Helvetica,sans-Serif" font-size="10.00" fill="#000000"> +lines</text>
</g>
<!-- Node3 -->
<g id="node3" class="node">
<title>Node3</title>
<polygon fill="#ffffff" stroke="#bfbfbf" points="31,-469.5 31,-537.5 142,-537.5 142,-469.5 31,-469.5"/>
<text text-anchor="start" x="39" y="-525.5" font-family="Helvetica,sans-Serif" font-size="10.00" fill="#000000">std::vector&lt; unsigned</text>
<text text-anchor="middle" x="86.5" y="-514.5" font-family="Helvetica,sans-Serif" font-size="10.00" fill="#000000"> int &gt;</text>
<polyline fill="none" stroke="#bfbfbf" points="31,-507.5 142,-507.5 "/>
<text text-anchor="middle" x="86.5" y="-495.5" font-family="Helvetica,sans-Serif" font-size="10.00" fill="#000000"> </text>
<polyline fill="none" stroke="#bfbfbf" points="31,-488.5 142,-488.5 "/>
<text text-anchor="middle" x="86.5" y="-476.5" font-family="Helvetica,sans-Serif" font-size="10.00" fill="#000000"> </text>
</g>
<!-- Node3&#45;&gt;Node2 -->
<g id="edge2" class="edge">
<title>Node3&#45;&gt;Node2</title>
<path fill="none" stroke="#404040" d="M82.9194,-469.44C81.5555,-454.8494 80.169,-437.6072 79.5,-422 77.1398,-366.9395 77.7331,-353.0828 79.5,-298 79.8655,-286.6061 80.4453,-274.5525 81.1187,-262.7775"/>
<polygon fill="none" stroke="#404040" points="81.1278,-262.6251 77.4958,-256.3955 81.8493,-250.6468 85.4813,-256.8764 81.1278,-262.6251"/>
<text text-anchor="middle" x="93.5" y="-357.5" font-family="Helvetica,sans-Serif" font-size="10.00" fill="#000000"> +dofs</text>
</g>
<!-- Node7 -->
<g id="node7" class="node">
<title>Node7</title>
<g id="a_node7"><a xlink:href="classinternal_1_1DoFHandlerImplementation_1_1DoFObjects.html" target="_top" xlink:title="{internal::DoFHandlerImplementation\l::DoFObjects\&lt; dim \&gt;\n||+ set_dof_index()\l+ get_dof_index()\l+ n_active_fe_indices()\l+ fe_index_is_active()\l+ memory_consumption()\l+ serialize()\l}">
<polygon fill="#ffffff" stroke="#000000" points="117,-298.5 117,-421.5 290,-421.5 290,-298.5 117,-298.5"/>
<text text-anchor="start" x="125" y="-409.5" font-family="Helvetica,sans-Serif" font-size="10.00" fill="#000000">internal::DoFHandlerImplementation</text>
<text text-anchor="middle" x="203.5" y="-398.5" font-family="Helvetica,sans-Serif" font-size="10.00" fill="#000000">::DoFObjects&lt; dim &gt;</text>
<polyline fill="none" stroke="#000000" points="117,-391.5 290,-391.5 "/>
<text text-anchor="middle" x="203.5" y="-379.5" font-family="Helvetica,sans-Serif" font-size="10.00" fill="#000000"> </text>
<polyline fill="none" stroke="#000000" points="117,-372.5 290,-372.5 "/>
<text text-anchor="start" x="125" y="-360.5" font-family="Helvetica,sans-Serif" font-size="10.00" fill="#000000">+ set_dof_index()</text>
<text text-anchor="start" x="125" y="-349.5" font-family="Helvetica,sans-Serif" font-size="10.00" fill="#000000">+ get_dof_index()</text>
<text text-anchor="start" x="125" y="-338.5" font-family="Helvetica,sans-Serif" font-size="10.00" fill="#000000">+ n_active_fe_indices()</text>
<text text-anchor="start" x="125" y="-327.5" font-family="Helvetica,sans-Serif" font-size="10.00" fill="#000000">+ fe_index_is_active()</text>
<text text-anchor="start" x="125" y="-316.5" font-family="Helvetica,sans-Serif" font-size="10.00" fill="#000000">+ memory_consumption()</text>
<text text-anchor="start" x="125" y="-305.5" font-family="Helvetica,sans-Serif" font-size="10.00" fill="#000000">+ serialize()</text>
</a>
</g>
</g>
<!-- Node3&#45;&gt;Node7 -->
<g id="edge7" class="edge">
<title>Node3&#45;&gt;Node7</title>
<path fill="none" stroke="#404040" d="M114.2274,-469.4925C123.6346,-457.9546 134.5259,-444.5964 145.3989,-431.2608"/>
<polygon fill="none" stroke="#404040" points="145.7084,-430.8812 146.3997,-423.7032 153.2914,-421.5807 152.6,-428.7586 145.7084,-430.8812"/>
<text text-anchor="middle" x="151.5" y="-443" font-family="Helvetica,sans-Serif" font-size="10.00" fill="#000000"> +dofs</text>
</g>
<!-- Node4 -->
<g id="node4" class="node">
<title>Node4</title>
<g id="a_node4"><a xlink:href="classunsigned_01int.html" target="_top" xlink:title="{unsigned int\n||}">
<polygon fill="#ffffff" stroke="#000000" points="16,-585.5 16,-642.5 85,-642.5 85,-585.5 16,-585.5"/>
<text text-anchor="middle" x="50.5" y="-630.5" font-family="Helvetica,sans-Serif" font-size="10.00" fill="#000000">unsigned int</text>
<polyline fill="none" stroke="#000000" points="16,-623.5 85,-623.5 "/>
<text text-anchor="middle" x="50.5" y="-611.5" font-family="Helvetica,sans-Serif" font-size="10.00" fill="#000000"> </text>
<polyline fill="none" stroke="#000000" points="16,-604.5 85,-604.5 "/>
<text text-anchor="middle" x="50.5" y="-592.5" font-family="Helvetica,sans-Serif" font-size="10.00" fill="#000000"> </text>
</a>
</g>
</g>
<!-- Node4&#45;&gt;Node3 -->
<g id="edge3" class="edge">
<title>Node4&#45;&gt;Node3</title>
<path fill="none" stroke="#404040" d="M55.7712,-585.3834C57.8153,-575.9235 60.4148,-565.4138 63.5,-556 64.2748,-553.636 65.1175,-551.233 66.0077,-548.8213"/>
<polygon fill="none" stroke="#404040" points="66.0369,-548.7471 64.5179,-541.6978 70.4407,-537.5844 71.9597,-544.6337 66.0369,-548.7471"/>
<text text-anchor="middle" x="88" y="-559" font-family="Helvetica,sans-Serif" font-size="10.00" fill="#000000"> +elements</text>
</g>
<!-- Node5 -->
<g id="node5" class="node">
<title>Node5</title>
<g id="a_node5"><a xlink:title="STL class. ">
<polygon fill="#ffffff" stroke="#bfbfbf" points="103,-585.5 103,-642.5 190,-642.5 190,-585.5 103,-585.5"/>
<text text-anchor="middle" x="146.5" y="-630.5" font-family="Helvetica,sans-Serif" font-size="10.00" fill="#000000">std::vector&lt; T &gt;</text>
<polyline fill="none" stroke="#bfbfbf" points="103,-623.5 190,-623.5 "/>
<text text-anchor="middle" x="146.5" y="-611.5" font-family="Helvetica,sans-Serif" font-size="10.00" fill="#000000"> </text>
<polyline fill="none" stroke="#bfbfbf" points="103,-604.5 190,-604.5 "/>
<text text-anchor="middle" x="146.5" y="-592.5" font-family="Helvetica,sans-Serif" font-size="10.00" fill="#000000"> </text>
</a>
</g>
</g>
<!-- Node5&#45;&gt;Node3 -->
<g id="edge4" class="edge">
<title>Node5&#45;&gt;Node3</title>
<path fill="none" stroke="#ffa500" d="M126.0765,-576.3866C119.2513,-563.817 111.6874,-549.8867 105.0159,-537.6001"/>
<polygon fill="#ffa500" stroke="#ffa500" points="123.0447,-578.138 130.8923,-585.2559 129.1963,-574.7977 123.0447,-578.138"/>
<text text-anchor="middle" x="157.5" y="-559" font-family="Helvetica,sans-Serif" font-size="10.00" fill="#000000"> &lt; unsigned int &gt;</text>
</g>
<!-- Node6 -->
<g id="node6" class="node">
<title>Node6</title>
<polygon fill="#ffffff" stroke="#bfbfbf" points="132,-690.5 132,-747.5 161,-747.5 161,-690.5 132,-690.5"/>
<text text-anchor="middle" x="146.5" y="-735.5" font-family="Helvetica,sans-Serif" font-size="10.00" fill="#000000">T</text>
<polyline fill="none" stroke="#bfbfbf" points="132,-728.5 161,-728.5 "/>
<text text-anchor="middle" x="146.5" y="-716.5" font-family="Helvetica,sans-Serif" font-size="10.00" fill="#000000"> </text>
<polyline fill="none" stroke="#bfbfbf" points="132,-709.5 161,-709.5 "/>
<text text-anchor="middle" x="146.5" y="-697.5" font-family="Helvetica,sans-Serif" font-size="10.00" fill="#000000"> </text>
</g>
<!-- Node6&#45;&gt;Node5 -->
<g id="edge5" class="edge">
<title>Node6&#45;&gt;Node5</title>
<path fill="none" stroke="#404040" d="M146.5,-690.3083C146.5,-679.4281 146.5,-666.817 146.5,-655.0192"/>
<polygon fill="none" stroke="#404040" points="146.5001,-654.657 142.5,-648.6571 146.5,-642.657 150.5,-648.657 146.5001,-654.657"/>
<text text-anchor="middle" x="171" y="-664" font-family="Helvetica,sans-Serif" font-size="10.00" fill="#000000"> +elements</text>
</g>
<!-- Node7&#45;&gt;Node2 -->
<g id="edge6" class="edge">
<title>Node7&#45;&gt;Node2</title>
<path fill="none" stroke="#ffa500" d="M155.4782,-289.8143C146.5926,-276.8277 137.3736,-263.3538 128.6777,-250.6443"/>
<polygon fill="#ffa500" stroke="#ffa500" points="152.7249,-291.9884 161.2603,-298.2651 158.502,-288.0356 152.7249,-291.9884"/>
<text text-anchor="middle" x="162" y="-272" font-family="Helvetica,sans-Serif" font-size="10.00" fill="#000000"> &lt; 1 &gt;</text>
</g>
</g>
</svg>
