<?xml version="1.0" encoding="UTF-8" standalone="no"?>
<!DOCTYPE svg PUBLIC "-//W3C//DTD SVG 1.1//EN"
 "http://www.w3.org/Graphics/SVG/1.1/DTD/svg11.dtd">
<!-- Generated by graphviz version 2.40.1 (20161225.0304)
 -->
<!-- Title: internal::AlignedVectorMoveConstruct&lt; T &gt; Pages: 1 -->
<svg width="167pt" height="226pt"
 viewBox="0.00 0.00 167.00 226.00" xmlns="http://www.w3.org/2000/svg" xmlns:xlink="http://www.w3.org/1999/xlink">
<g id="graph0" class="graph" transform="scale(1 1) rotate(0) translate(4 222)">
<title>internal::AlignedVectorMoveConstruct&lt; T &gt;</title>
<polygon fill="#ffffff" stroke="transparent" points="-4,4 -4,-222 163,-222 163,4 -4,4"/>
<!-- Node0 -->
<g id="node1" class="node">
<title>Node0</title>
<polygon fill="#bfbfbf" stroke="#000000" points="0,-.5 0,-101.5 159,-101.5 159,-.5 0,-.5"/>
<text text-anchor="start" x="8" y="-89.5" font-family="Helvetica,sans-Serif" font-size="10.00" fill="#000000">internal::AlignedVectorMove</text>
<text text-anchor="middle" x="79.5" y="-78.5" font-family="Helvetica,sans-Serif" font-size="10.00" fill="#000000">Construct&lt; T &gt;</text>
<polyline fill="none" stroke="#000000" points="0,-71.5 159,-71.5 "/>
<text text-anchor="start" x="8" y="-59.5" font-family="Helvetica,sans-Serif" font-size="10.00" fill="#000000">&#45; source_</text>
<text text-anchor="start" x="8" y="-48.5" font-family="Helvetica,sans-Serif" font-size="10.00" fill="#000000">&#45; destination_</text>
<text text-anchor="start" x="8" y="-37.5" font-family="Helvetica,sans-Serif" font-size="10.00" fill="#000000">&#45; minimum_parallel_grain_size</text>
<polyline fill="none" stroke="#000000" points="0,-30.5 159,-30.5 "/>
<text text-anchor="start" x="8" y="-18.5" font-family="Helvetica,sans-Serif" font-size="10.00" fill="#000000">+ AlignedVectorMoveConstruct()</text>
<text text-anchor="start" x="8" y="-7.5" font-family="Helvetica,sans-Serif" font-size="10.00" fill="#000000">+ apply_to_subrange()</text>
</g>
<!-- Node1 -->
<g id="node2" class="node">
<title>Node1</title>
<g id="a_node2"><a xlink:href="structparallel_1_1ParallelForInteger.html" target="_top" xlink:title="{parallel::ParallelForInteger\n||+ ~ParallelForInteger()\l+ apply_parallel()\l+ apply_to_subrange()\l}">
<polygon fill="#ffffff" stroke="#000000" points="14.5,-138.5 14.5,-217.5 144.5,-217.5 144.5,-138.5 14.5,-138.5"/>
<text text-anchor="middle" x="79.5" y="-205.5" font-family="Helvetica,sans-Serif" font-size="10.00" fill="#000000">parallel::ParallelForInteger</text>
<polyline fill="none" stroke="#000000" points="14.5,-198.5 144.5,-198.5 "/>
<text text-anchor="middle" x="79.5" y="-186.5" font-family="Helvetica,sans-Serif" font-size="10.00" fill="#000000"> </text>
<polyline fill="none" stroke="#000000" points="14.5,-179.5 144.5,-179.5 "/>
<text text-anchor="start" x="22.5" y="-167.5" font-family="Helvetica,sans-Serif" font-size="10.00" fill="#000000">+ ~ParallelForInteger()</text>
<text text-anchor="start" x="22.5" y="-156.5" font-family="Helvetica,sans-Serif" font-size="10.00" fill="#000000">+ apply_parallel()</text>
<text text-anchor="start" x="22.5" y="-145.5" font-family="Helvetica,sans-Serif" font-size="10.00" fill="#000000">+ apply_to_subrange()</text>
</a>
</g>
</g>
<!-- Node1&#45;&gt;Node0 -->
<g id="edge1" class="edge">
<title>Node1&#45;&gt;Node0</title>
<path fill="none" stroke="#8b1a1a" d="M79.5,-127.9396C79.5,-119.3816 79.5,-110.4823 79.5,-101.9026"/>
<polygon fill="none" stroke="#8b1a1a" points="76.0001,-128.1648 79.5,-138.1649 83.0001,-128.1649 76.0001,-128.1648"/>
</g>
</g>
</svg>
