<?xml version="1.0" encoding="UTF-8" standalone="no"?>
<!DOCTYPE svg PUBLIC "-//W3C//DTD SVG 1.1//EN"
 "http://www.w3.org/Graphics/SVG/1.1/DTD/svg11.dtd">
<!-- Generated by graphviz version 2.40.1 (20161225.0304)
 -->
<!-- Title: FE_Bernstein&lt; dim, spacedim &gt; Pages: 1 -->
<svg width="196pt" height="285pt"
 viewBox="0.00 0.00 196.00 285.00" xmlns="http://www.w3.org/2000/svg" xmlns:xlink="http://www.w3.org/1999/xlink">
<g id="graph0" class="graph" transform="scale(1 1) rotate(0) translate(4 281)">
<title>FE_Bernstein&lt; dim, spacedim &gt;</title>
<polygon fill="#ffffff" stroke="transparent" points="-4,4 -4,-281 192,-281 192,4 -4,4"/>
<!-- Node0 -->
<g id="node1" class="node">
<title>Node0</title>
<polygon fill="#bfbfbf" stroke="#000000" points="32,-.5 32,-30.5 136,-30.5 136,-.5 32,-.5"/>
<text text-anchor="start" x="40" y="-18.5" font-family="Helvetica,sans-Serif" font-size="10.00" fill="#000000">FE_Bernstein&lt; dim,</text>
<text text-anchor="middle" x="84" y="-7.5" font-family="Helvetica,sans-Serif" font-size="10.00" fill="#000000"> spacedim &gt;</text>
</g>
<!-- Node1 -->
<g id="node2" class="node">
<title>Node1</title>
<g id="a_node2"><a xlink:href="classFE__Q__Base.html" target="_top" xlink:title="FE_Q_Base\&lt; dim, spacedim \&gt;">
<polygon fill="#ffffff" stroke="#000000" points="8,-67.5 8,-86.5 160,-86.5 160,-67.5 8,-67.5"/>
<text text-anchor="middle" x="84" y="-74.5" font-family="Helvetica,sans-Serif" font-size="10.00" fill="#000000">FE_Q_Base&lt; dim, spacedim &gt;</text>
</a>
</g>
</g>
<!-- Node1&#45;&gt;Node0 -->
<g id="edge1" class="edge">
<title>Node1&#45;&gt;Node0</title>
<path fill="none" stroke="#191970" d="M84,-57.3693C84,-48.681 84,-38.6241 84,-30.5446"/>
<polygon fill="#191970" stroke="#191970" points="80.5001,-57.3906 84,-67.3906 87.5001,-57.3907 80.5001,-57.3906"/>
</g>
<!-- Node2 -->
<g id="node3" class="node">
<title>Node2</title>
<g id="a_node3"><a xlink:href="classFE__Poly.html" target="_top" xlink:title="FE_Poly\&lt; dim, spacedim \&gt;">
<polygon fill="#ffffff" stroke="#000000" points="16,-123.5 16,-142.5 152,-142.5 152,-123.5 16,-123.5"/>
<text text-anchor="middle" x="84" y="-130.5" font-family="Helvetica,sans-Serif" font-size="10.00" fill="#000000">FE_Poly&lt; dim, spacedim &gt;</text>
</a>
</g>
</g>
<!-- Node2&#45;&gt;Node1 -->
<g id="edge2" class="edge">
<title>Node2&#45;&gt;Node1</title>
<path fill="none" stroke="#191970" d="M84,-113.1575C84,-104.155 84,-93.9199 84,-86.6427"/>
<polygon fill="#191970" stroke="#191970" points="80.5001,-113.2455 84,-123.2455 87.5001,-113.2456 80.5001,-113.2455"/>
</g>
<!-- Node3 -->
<g id="node4" class="node">
<title>Node3</title>
<g id="a_node4"><a xlink:href="classFiniteElement.html" target="_top" xlink:title="FiniteElement\&lt; dim,\l spacedim \&gt;">
<polygon fill="#ffffff" stroke="#000000" points="32,-179.5 32,-209.5 136,-209.5 136,-179.5 32,-179.5"/>
<text text-anchor="start" x="40" y="-197.5" font-family="Helvetica,sans-Serif" font-size="10.00" fill="#000000">FiniteElement&lt; dim,</text>
<text text-anchor="middle" x="84" y="-186.5" font-family="Helvetica,sans-Serif" font-size="10.00" fill="#000000"> spacedim &gt;</text>
</a>
</g>
</g>
<!-- Node3&#45;&gt;Node2 -->
<g id="edge3" class="edge">
<title>Node3&#45;&gt;Node2</title>
<path fill="none" stroke="#191970" d="M84,-169.2849C84,-159.9858 84,-149.9883 84,-142.8469"/>
<polygon fill="#191970" stroke="#191970" points="80.5001,-169.2977 84,-179.2977 87.5001,-169.2978 80.5001,-169.2977"/>
</g>
<!-- Node4 -->
<g id="node5" class="node">
<title>Node4</title>
<g id="a_node5"><a xlink:href="classSubscriptor.html" target="_top" xlink:title="Subscriptor">
<polygon fill="#ffffff" stroke="#000000" points="0,-252 0,-271 66,-271 66,-252 0,-252"/>
<text text-anchor="middle" x="33" y="-259" font-family="Helvetica,sans-Serif" font-size="10.00" fill="#000000">Subscriptor</text>
</a>
</g>
</g>
<!-- Node4&#45;&gt;Node3 -->
<g id="edge4" class="edge">
<title>Node4&#45;&gt;Node3</title>
<path fill="none" stroke="#191970" d="M46.5315,-243.7233C54.6472,-233.0615 64.8549,-219.6515 72.5655,-209.5218"/>
<polygon fill="#191970" stroke="#191970" points="43.579,-241.8236 40.3071,-251.9005 49.1489,-246.0634 43.579,-241.8236"/>
</g>
<!-- Node5 -->
<g id="node6" class="node">
<title>Node5</title>
<g id="a_node6"><a xlink:href="classFiniteElementData.html" target="_top" xlink:title="FiniteElementData\&lt;\l dim \&gt;">
<polygon fill="#ffffff" stroke="#000000" points="84,-246.5 84,-276.5 188,-276.5 188,-246.5 84,-246.5"/>
<text text-anchor="start" x="92" y="-264.5" font-family="Helvetica,sans-Serif" font-size="10.00" fill="#000000">FiniteElementData&lt;</text>
<text text-anchor="middle" x="136" y="-253.5" font-family="Helvetica,sans-Serif" font-size="10.00" fill="#000000"> dim &gt;</text>
</a>
</g>
</g>
<!-- Node5&#45;&gt;Node3 -->
<g id="edge5" class="edge">
<title>Node5&#45;&gt;Node3</title>
<path fill="none" stroke="#191970" d="M118.0335,-238.3509C110.6583,-228.8482 102.3266,-218.1132 95.7529,-209.6432"/>
<polygon fill="#191970" stroke="#191970" points="115.3042,-240.5427 124.2004,-246.2967 120.8341,-236.2508 115.3042,-240.5427"/>
</g>
</g>
</svg>
