<?xml version="1.0" encoding="UTF-8" standalone="no"?>
<!DOCTYPE svg PUBLIC "-//W3C//DTD SVG 1.1//EN"
 "http://www.w3.org/Graphics/SVG/1.1/DTD/svg11.dtd">
<!-- Generated by graphviz version 2.40.1 (20161225.0304)
 -->
<!-- Title: FE_DGRaviartThomas&lt; dim, spacedim &gt; Pages: 1 -->
<svg width="312pt" height="411pt"
 viewBox="0.00 0.00 311.50 411.00" xmlns="http://www.w3.org/2000/svg" xmlns:xlink="http://www.w3.org/1999/xlink">
<g id="graph0" class="graph" transform="scale(1 1) rotate(0) translate(4 407)">
<title>FE_DGRaviartThomas&lt; dim, spacedim &gt;</title>
<polygon fill="#ffffff" stroke="transparent" points="-4,4 -4,-407 307.5,-407 307.5,4 -4,4"/>
<!-- Node0 -->
<g id="node1" class="node">
<title>Node0</title>
<polygon fill="#bfbfbf" stroke="#000000" points="33.5,-.5 33.5,-30.5 155.5,-30.5 155.5,-.5 33.5,-.5"/>
<text text-anchor="start" x="41.5" y="-18.5" font-family="Helvetica,sans-Serif" font-size="10.00" fill="#000000">FE_DGRaviartThomas</text>
<text text-anchor="middle" x="94.5" y="-7.5" font-family="Helvetica,sans-Serif" font-size="10.00" fill="#000000">&lt; dim, spacedim &gt;</text>
</g>
<!-- Node1 -->
<g id="node2" class="node">
<title>Node1</title>
<g id="a_node2"><a xlink:href="classFE__DGVector.html" target="_top" xlink:title="FE_DGVector\&lt; Polynomials\lRaviartThomas\&lt; dim \&gt;,\l dim, spacedim \&gt;">
<polygon fill="#ffffff" stroke="#000000" points="19.5,-68.5 19.5,-109.5 169.5,-109.5 169.5,-68.5 19.5,-68.5"/>
<text text-anchor="start" x="27.5" y="-97.5" font-family="Helvetica,sans-Serif" font-size="10.00" fill="#000000">FE_DGVector&lt; Polynomials</text>
<text text-anchor="start" x="27.5" y="-86.5" font-family="Helvetica,sans-Serif" font-size="10.00" fill="#000000">RaviartThomas&lt; dim &gt;,</text>
<text text-anchor="middle" x="94.5" y="-75.5" font-family="Helvetica,sans-Serif" font-size="10.00" fill="#000000"> dim, spacedim &gt;</text>
</a>
</g>
</g>
<!-- Node1&#45;&gt;Node0 -->
<g id="edge1" class="edge">
<title>Node1&#45;&gt;Node0</title>
<path fill="none" stroke="#191970" d="M94.5,-57.9048C94.5,-48.5365 94.5,-38.666 94.5,-30.8074"/>
<polygon fill="#191970" stroke="#191970" points="91.0001,-58.1344 94.5,-68.1345 98.0001,-58.1345 91.0001,-58.1344"/>
</g>
<!-- Node2 -->
<g id="node3" class="node">
<title>Node2</title>
<g id="a_node3"><a xlink:href="classFE__PolyTensor.html" target="_top" xlink:title="FE_PolyTensor\&lt; dim,\l spacedim \&gt;">
<polygon fill="#ffffff" stroke="#000000" points="31,-236.5 31,-266.5 150,-266.5 150,-236.5 31,-236.5"/>
<text text-anchor="start" x="39" y="-254.5" font-family="Helvetica,sans-Serif" font-size="10.00" fill="#000000">FE_PolyTensor&lt; dim,</text>
<text text-anchor="middle" x="90.5" y="-243.5" font-family="Helvetica,sans-Serif" font-size="10.00" fill="#000000"> spacedim &gt;</text>
</a>
</g>
</g>
<!-- Node2&#45;&gt;Node1 -->
<g id="edge2" class="edge">
<title>Node2&#45;&gt;Node1</title>
<path fill="none" stroke="#191970" d="M91.1313,-225.8533C91.9223,-193.7186 93.2623,-139.282 93.9911,-109.6755"/>
<polygon fill="#191970" stroke="#191970" points="87.6235,-226.1293 90.8763,-236.2124 94.6214,-226.3016 87.6235,-226.1293"/>
</g>
<!-- Node6 -->
<g id="node7" class="node">
<title>Node6</title>
<g id="a_node7"><a xlink:href="classFE__DGVector.html" target="_top" xlink:title="FE_DGVector\&lt; PolynomialType,\l dim, spacedim \&gt;">
<polygon fill="#ffffff" stroke="#000000" points="106.5,-168.5 106.5,-198.5 276.5,-198.5 276.5,-168.5 106.5,-168.5"/>
<text text-anchor="start" x="114.5" y="-186.5" font-family="Helvetica,sans-Serif" font-size="10.00" fill="#000000">FE_DGVector&lt; PolynomialType,</text>
<text text-anchor="middle" x="191.5" y="-175.5" font-family="Helvetica,sans-Serif" font-size="10.00" fill="#000000"> dim, spacedim &gt;</text>
</a>
</g>
</g>
<!-- Node2&#45;&gt;Node6 -->
<g id="edge7" class="edge">
<title>Node2&#45;&gt;Node6</title>
<path fill="none" stroke="#191970" d="M121.5871,-230.5701C136.962,-220.2187 155.1687,-207.9607 169.1475,-198.5492"/>
<polygon fill="#191970" stroke="#191970" points="119.2556,-227.9204 112.9152,-236.4086 123.165,-233.727 119.2556,-227.9204"/>
</g>
<!-- Node3 -->
<g id="node4" class="node">
<title>Node3</title>
<g id="a_node4"><a xlink:href="classFiniteElement.html" target="_top" xlink:title="FiniteElement\&lt; dim,\l spacedim \&gt;">
<polygon fill="#ffffff" stroke="#000000" points="32.5,-304.5 32.5,-334.5 148.5,-334.5 148.5,-304.5 32.5,-304.5"/>
<text text-anchor="start" x="40.5" y="-322.5" font-family="Helvetica,sans-Serif" font-size="10.00" fill="#000000">FiniteElement&lt; dim,</text>
<text text-anchor="middle" x="90.5" y="-311.5" font-family="Helvetica,sans-Serif" font-size="10.00" fill="#000000"> spacedim &gt;</text>
</a>
</g>
</g>
<!-- Node3&#45;&gt;Node2 -->
<g id="edge3" class="edge">
<title>Node3&#45;&gt;Node2</title>
<path fill="none" stroke="#191970" d="M90.5,-294.1174C90.5,-284.8378 90.5,-274.6413 90.5,-266.5492"/>
<polygon fill="#191970" stroke="#191970" points="87.0001,-294.4086 90.5,-304.4086 94.0001,-294.4086 87.0001,-294.4086"/>
</g>
<!-- Node4 -->
<g id="node5" class="node">
<title>Node4</title>
<g id="a_node5"><a xlink:href="classSubscriptor.html" target="_top" xlink:title="Subscriptor">
<polygon fill="#ffffff" stroke="#000000" points="0,-378 0,-397 71,-397 71,-378 0,-378"/>
<text text-anchor="middle" x="35.5" y="-385" font-family="Helvetica,sans-Serif" font-size="10.00" fill="#000000">Subscriptor</text>
</a>
</g>
</g>
<!-- Node4&#45;&gt;Node3 -->
<g id="edge4" class="edge">
<title>Node4&#45;&gt;Node3</title>
<path fill="none" stroke="#191970" d="M49.8309,-369.7818C58.6246,-358.9096 69.7701,-345.1297 78.1687,-334.746"/>
<polygon fill="#191970" stroke="#191970" points="46.9476,-367.7811 43.3802,-377.7573 52.3902,-372.1832 46.9476,-367.7811"/>
</g>
<!-- Node5 -->
<g id="node6" class="node">
<title>Node5</title>
<g id="a_node6"><a xlink:href="classFiniteElementData.html" target="_top" xlink:title="FiniteElementData\&lt;\l dim \&gt;">
<polygon fill="#ffffff" stroke="#000000" points="89,-372.5 89,-402.5 204,-402.5 204,-372.5 89,-372.5"/>
<text text-anchor="start" x="97" y="-390.5" font-family="Helvetica,sans-Serif" font-size="10.00" fill="#000000">FiniteElementData&lt;</text>
<text text-anchor="middle" x="146.5" y="-379.5" font-family="Helvetica,sans-Serif" font-size="10.00" fill="#000000"> dim &gt;</text>
</a>
</g>
</g>
<!-- Node5&#45;&gt;Node3 -->
<g id="edge5" class="edge">
<title>Node5&#45;&gt;Node3</title>
<path fill="none" stroke="#191970" d="M127.5715,-364.5153C119.4281,-354.627 110.1371,-343.345 102.8935,-334.5492"/>
<polygon fill="#191970" stroke="#191970" points="125.0129,-366.9143 134.0718,-372.4086 130.4164,-362.4643 125.0129,-366.9143"/>
</g>
<!-- Node6&#45;&gt;Node1 -->
<g id="edge6" class="edge">
<title>Node6&#45;&gt;Node1</title>
<path fill="none" stroke="#ffa500" stroke-dasharray="5,2" d="M168.538,-161.1298C152.5692,-145.5725 131.4326,-124.9807 115.8321,-109.7823"/>
<polygon fill="#ffa500" stroke="#ffa500" points="166.3101,-163.8457 175.9153,-168.3169 171.1948,-158.8318 166.3101,-163.8457"/>
<text text-anchor="start" x="154.5" y="-142" font-family="Helvetica,sans-Serif" font-size="10.00" fill="#000000"> &lt; PolynomialsRaviartThomas</text>
<text text-anchor="middle" x="229" y="-131" font-family="Helvetica,sans-Serif" font-size="10.00" fill="#000000">&lt; dim &gt;, dim, spacedim &gt;</text>
</g>
</g>
</svg>
