<?xml version="1.0" encoding="UTF-8" standalone="no"?>
<!DOCTYPE svg PUBLIC "-//W3C//DTD SVG 1.1//EN"
 "http://www.w3.org/Graphics/SVG/1.1/DTD/svg11.dtd">
<!-- Generated by graphviz version 2.40.1 (20161225.0304)
 -->
<!-- Title: FE_FaceQ&lt; dim, spacedim &gt; Pages: 1 -->
<svg width="308pt" height="332pt"
 viewBox="0.00 0.00 307.50 332.00" xmlns="http://www.w3.org/2000/svg" xmlns:xlink="http://www.w3.org/1999/xlink">
<g id="graph0" class="graph" transform="scale(1 1) rotate(0) translate(4 328)">
<title>FE_FaceQ&lt; dim, spacedim &gt;</title>
<polygon fill="#ffffff" stroke="transparent" points="-4,4 -4,-328 303.5,-328 303.5,4 -4,4"/>
<!-- Node0 -->
<g id="node1" class="node">
<title>Node0</title>
<polygon fill="#bfbfbf" stroke="#000000" points="16,-.5 16,-19.5 173,-19.5 173,-.5 16,-.5"/>
<text text-anchor="middle" x="94.5" y="-7.5" font-family="Helvetica,sans-Serif" font-size="10.00" fill="#000000">FE_FaceQ&lt; dim, spacedim &gt;</text>
</g>
<!-- Node1 -->
<g id="node2" class="node">
<title>Node1</title>
<g id="a_node2"><a xlink:href="classFE__PolyFace.html" target="_top" xlink:title="FE_PolyFace\&lt; TensorProduct\lPolynomials\&lt; dim &#45; 1 \&gt;,\l dim, spacedim \&gt;">
<polygon fill="#ffffff" stroke="#000000" points="17,-57.5 17,-98.5 172,-98.5 172,-57.5 17,-57.5"/>
<text text-anchor="start" x="25" y="-86.5" font-family="Helvetica,sans-Serif" font-size="10.00" fill="#000000">FE_PolyFace&lt; TensorProduct</text>
<text text-anchor="start" x="25" y="-75.5" font-family="Helvetica,sans-Serif" font-size="10.00" fill="#000000">Polynomials&lt; dim &#45; 1 &gt;,</text>
<text text-anchor="middle" x="94.5" y="-64.5" font-family="Helvetica,sans-Serif" font-size="10.00" fill="#000000"> dim, spacedim &gt;</text>
</a>
</g>
</g>
<!-- Node1&#45;&gt;Node0 -->
<g id="edge1" class="edge">
<title>Node1&#45;&gt;Node0</title>
<path fill="none" stroke="#191970" d="M94.5,-47.1423C94.5,-37.1999 94.5,-26.896 94.5,-19.6705"/>
<polygon fill="#191970" stroke="#191970" points="91.0001,-47.2282 94.5,-57.2283 98.0001,-47.2283 91.0001,-47.2282"/>
</g>
<!-- Node2 -->
<g id="node3" class="node">
<title>Node2</title>
<g id="a_node3"><a xlink:href="classFiniteElement.html" target="_top" xlink:title="FiniteElement\&lt; dim,\l spacedim \&gt;">
<polygon fill="#ffffff" stroke="#000000" points="32.5,-225.5 32.5,-255.5 148.5,-255.5 148.5,-225.5 32.5,-225.5"/>
<text text-anchor="start" x="40.5" y="-243.5" font-family="Helvetica,sans-Serif" font-size="10.00" fill="#000000">FiniteElement&lt; dim,</text>
<text text-anchor="middle" x="90.5" y="-232.5" font-family="Helvetica,sans-Serif" font-size="10.00" fill="#000000"> spacedim &gt;</text>
</a>
</g>
</g>
<!-- Node2&#45;&gt;Node1 -->
<g id="edge2" class="edge">
<title>Node2&#45;&gt;Node1</title>
<path fill="none" stroke="#191970" d="M91.1313,-214.8533C91.9223,-182.7186 93.2623,-128.282 93.9911,-98.6755"/>
<polygon fill="#191970" stroke="#191970" points="87.6235,-215.1293 90.8763,-225.2124 94.6214,-215.3016 87.6235,-215.1293"/>
</g>
<!-- Node5 -->
<g id="node6" class="node">
<title>Node5</title>
<g id="a_node6"><a xlink:href="classFE__PolyFace.html" target="_top" xlink:title="FE_PolyFace\&lt; PolynomialType,\l dim, spacedim \&gt;">
<polygon fill="#ffffff" stroke="#000000" points="106,-157.5 106,-187.5 273,-187.5 273,-157.5 106,-157.5"/>
<text text-anchor="start" x="114" y="-175.5" font-family="Helvetica,sans-Serif" font-size="10.00" fill="#000000">FE_PolyFace&lt; PolynomialType,</text>
<text text-anchor="middle" x="189.5" y="-164.5" font-family="Helvetica,sans-Serif" font-size="10.00" fill="#000000"> dim, spacedim &gt;</text>
</a>
</g>
</g>
<!-- Node2&#45;&gt;Node5 -->
<g id="edge6" class="edge">
<title>Node2&#45;&gt;Node5</title>
<path fill="none" stroke="#191970" d="M120.9715,-219.5701C136.042,-209.2187 153.8881,-196.9607 167.5901,-187.5492"/>
<polygon fill="#191970" stroke="#191970" points="118.7325,-216.8618 112.4713,-225.4086 122.6958,-222.6318 118.7325,-216.8618"/>
</g>
<!-- Node3 -->
<g id="node4" class="node">
<title>Node3</title>
<g id="a_node4"><a xlink:href="classSubscriptor.html" target="_top" xlink:title="Subscriptor">
<polygon fill="#ffffff" stroke="#000000" points="0,-299 0,-318 71,-318 71,-299 0,-299"/>
<text text-anchor="middle" x="35.5" y="-306" font-family="Helvetica,sans-Serif" font-size="10.00" fill="#000000">Subscriptor</text>
</a>
</g>
</g>
<!-- Node3&#45;&gt;Node2 -->
<g id="edge3" class="edge">
<title>Node3&#45;&gt;Node2</title>
<path fill="none" stroke="#191970" d="M49.8309,-290.7818C58.6246,-279.9096 69.7701,-266.1297 78.1687,-255.746"/>
<polygon fill="#191970" stroke="#191970" points="46.9476,-288.7811 43.3802,-298.7573 52.3902,-293.1832 46.9476,-288.7811"/>
</g>
<!-- Node4 -->
<g id="node5" class="node">
<title>Node4</title>
<g id="a_node5"><a xlink:href="classFiniteElementData.html" target="_top" xlink:title="FiniteElementData\&lt;\l dim \&gt;">
<polygon fill="#ffffff" stroke="#000000" points="89,-293.5 89,-323.5 204,-323.5 204,-293.5 89,-293.5"/>
<text text-anchor="start" x="97" y="-311.5" font-family="Helvetica,sans-Serif" font-size="10.00" fill="#000000">FiniteElementData&lt;</text>
<text text-anchor="middle" x="146.5" y="-300.5" font-family="Helvetica,sans-Serif" font-size="10.00" fill="#000000"> dim &gt;</text>
</a>
</g>
</g>
<!-- Node4&#45;&gt;Node2 -->
<g id="edge4" class="edge">
<title>Node4&#45;&gt;Node2</title>
<path fill="none" stroke="#191970" d="M127.5715,-285.5153C119.4281,-275.627 110.1371,-264.345 102.8935,-255.5492"/>
<polygon fill="#191970" stroke="#191970" points="125.0129,-287.9143 134.0718,-293.4086 130.4164,-283.4643 125.0129,-287.9143"/>
</g>
<!-- Node5&#45;&gt;Node1 -->
<g id="edge5" class="edge">
<title>Node5&#45;&gt;Node1</title>
<path fill="none" stroke="#ffa500" stroke-dasharray="5,2" d="M167.0115,-150.1298C151.3719,-134.5725 130.6711,-113.9807 115.3922,-98.7823"/>
<polygon fill="#ffa500" stroke="#ffa500" points="164.6785,-152.7459 174.2366,-157.3169 169.6152,-147.7831 164.6785,-152.7459"/>
<text text-anchor="start" x="152.5" y="-131" font-family="Helvetica,sans-Serif" font-size="10.00" fill="#000000"> &lt; TensorProductPolynomials</text>
<text text-anchor="middle" x="226" y="-120" font-family="Helvetica,sans-Serif" font-size="10.00" fill="#000000">&lt; dim &#45; 1 &gt;, dim, spacedim &gt;</text>
</g>
</g>
</svg>
