<?xml version="1.0" encoding="UTF-8" standalone="no"?>
<!DOCTYPE svg PUBLIC "-//W3C//DTD SVG 1.1//EN"
 "http://www.w3.org/Graphics/SVG/1.1/DTD/svg11.dtd">
<!-- Generated by graphviz version 2.40.1 (20161225.0304)
 -->
<!-- Title: mystl::deque&lt; T &gt; Pages: 1 -->
<!--zoomable 1069 -->
<svg id="main" version="1.1" xmlns="http://www.w3.org/2000/svg" xmlns:xlink="http://www.w3.org/1999/xlink" xml:space="preserve" onload="init(evt)">
<style type="text/css"><![CDATA[
.edge:hover path { stroke: red; }
.edge:hover polygon { stroke: red; fill: red; }
]]></style>
<script type="text/javascript"><![CDATA[
var edges = document.getElementsByTagName('g');
if (edges && edges.length) {
  for (var i=0;i<edges.length;i++) {
    if (edges[i].id.substr(0,4)=='edge') {
      edges[i].setAttribute('class','edge');
    }
  }
}
]]></script>
        <defs>
                <circle id="rim" cx="0" cy="0" r="7"/>
                <circle id="rim2" cx="0" cy="0" r="3.5"/>
                <g id="zoomPlus">
                        <use xlink:href="#rim" fill="#404040">
                                <set attributeName="fill" to="#808080" begin="zoomplus.mouseover" end="zoomplus.mouseout"/>
                        </use>
                        <path d="M-4,0h8M0,-4v8" fill="none" stroke="white" stroke-width="1.5" pointer-events="none"/>
                </g>
                <g id="zoomMin">
                        <use xlink:href="#rim" fill="#404040">
                                <set attributeName="fill" to="#808080" begin="zoomminus.mouseover" end="zoomminus.mouseout"/>
                        </use>
                        <path d="M-4,0h8" fill="none" stroke="white" stroke-width="1.5" pointer-events="none"/>
                </g>
                <g id="dirArrow">
                        <path fill="none" stroke="white" stroke-width="1.5" d="M0,-3.0v7 M-2.5,-0.5L0,-3.0L2.5,-0.5"/>
                </g>
               <g id="resetDef">
                       <use xlink:href="#rim2" fill="#404040">
                               <set attributeName="fill" to="#808080" begin="reset.mouseover" end="reset.mouseout"/>
                       </use>
               </g>
        </defs>

<script type="text/javascript">
var viewWidth = 539;
var viewHeight = 1069;
var sectionId = 'dynsection-0';
</script>
<script xlink:href="svgpan.js"/>
<svg id="graph" class="graph">
<g id="viewport">
<title>mystl::deque&lt; T &gt;</title>
<polygon fill="#ffffff" stroke="transparent" points="-4,4 -4,-1065 534.5,-1065 534.5,4 -4,4"/>
<!-- Node1 -->
<g id="node1" class="node">
<title>Node1</title>
<polygon fill="#bfbfbf" stroke="#000000" points="33,-.5 33,-288.5 130,-288.5 130,-.5 33,-.5"/>
<text text-anchor="middle" x="81.5" y="-276.5" font-family="Helvetica,sans-Serif" font-size="10.00" fill="#000000">mystl::deque&lt; T &gt;</text>
<polyline fill="none" stroke="#000000" points="33,-269.5 130,-269.5 "/>
<text text-anchor="middle" x="81.5" y="-257.5" font-family="Helvetica,sans-Serif" font-size="10.00" fill="#000000"> </text>
<polyline fill="none" stroke="#000000" points="33,-250.5 130,-250.5 "/>
<text text-anchor="start" x="41" y="-238.5" font-family="Helvetica,sans-Serif" font-size="10.00" fill="#000000">+ get_allocator()</text>
<text text-anchor="start" x="41" y="-227.5" font-family="Helvetica,sans-Serif" font-size="10.00" fill="#000000">+ deque()</text>
<text text-anchor="start" x="41" y="-216.5" font-family="Helvetica,sans-Serif" font-size="10.00" fill="#000000">+ deque()</text>
<text text-anchor="start" x="41" y="-205.5" font-family="Helvetica,sans-Serif" font-size="10.00" fill="#000000">+ deque()</text>
<text text-anchor="start" x="41" y="-194.5" font-family="Helvetica,sans-Serif" font-size="10.00" fill="#000000">+ deque()</text>
<text text-anchor="start" x="41" y="-183.5" font-family="Helvetica,sans-Serif" font-size="10.00" fill="#000000">+ deque()</text>
<text text-anchor="start" x="41" y="-172.5" font-family="Helvetica,sans-Serif" font-size="10.00" fill="#000000">+ deque()</text>
<text text-anchor="start" x="41" y="-161.5" font-family="Helvetica,sans-Serif" font-size="10.00" fill="#000000">+ deque()</text>
<text text-anchor="start" x="41" y="-150.5" font-family="Helvetica,sans-Serif" font-size="10.00" fill="#000000">+ operator=()</text>
<text text-anchor="start" x="41" y="-139.5" font-family="Helvetica,sans-Serif" font-size="10.00" fill="#000000">+ operator=()</text>
<text text-anchor="start" x="41" y="-128.5" font-family="Helvetica,sans-Serif" font-size="10.00" fill="#000000">and 48 more...</text>
<text text-anchor="start" x="41" y="-117.5" font-family="Helvetica,sans-Serif" font-size="10.00" fill="#000000">&#45; create_map()</text>
<text text-anchor="start" x="41" y="-106.5" font-family="Helvetica,sans-Serif" font-size="10.00" fill="#000000">&#45; create_buffer()</text>
<text text-anchor="start" x="41" y="-95.5" font-family="Helvetica,sans-Serif" font-size="10.00" fill="#000000">&#45; destroy_buffer()</text>
<text text-anchor="start" x="41" y="-84.5" font-family="Helvetica,sans-Serif" font-size="10.00" fill="#000000">&#45; map_init()</text>
<text text-anchor="start" x="41" y="-73.5" font-family="Helvetica,sans-Serif" font-size="10.00" fill="#000000">&#45; fill_init()</text>
<text text-anchor="start" x="41" y="-62.5" font-family="Helvetica,sans-Serif" font-size="10.00" fill="#000000">&#45; copy_init()</text>
<text text-anchor="start" x="41" y="-51.5" font-family="Helvetica,sans-Serif" font-size="10.00" fill="#000000">&#45; copy_init()</text>
<text text-anchor="start" x="41" y="-40.5" font-family="Helvetica,sans-Serif" font-size="10.00" fill="#000000">&#45; fill_assign()</text>
<text text-anchor="start" x="41" y="-29.5" font-family="Helvetica,sans-Serif" font-size="10.00" fill="#000000">&#45; copy_assign()</text>
<text text-anchor="start" x="41" y="-18.5" font-family="Helvetica,sans-Serif" font-size="10.00" fill="#000000">&#45; copy_assign()</text>
<text text-anchor="start" x="41" y="-7.5" font-family="Helvetica,sans-Serif" font-size="10.00" fill="#000000">and 8 more...</text>
</g>
<!-- Node2 -->
<g id="node2" class="node">
<title>Node2</title>
<polygon fill="#ffffff" stroke="#bfbfbf" points="0,-408 0,-465 53,-465 53,-408 0,-408"/>
<text text-anchor="middle" x="26.5" y="-453" font-family="Helvetica,sans-Serif" font-size="10.00" fill="#000000">pointer *</text>
<polyline fill="none" stroke="#bfbfbf" points="0,-446 53,-446 "/>
<text text-anchor="middle" x="26.5" y="-434" font-family="Helvetica,sans-Serif" font-size="10.00" fill="#000000"> </text>
<polyline fill="none" stroke="#bfbfbf" points="0,-427 53,-427 "/>
<text text-anchor="middle" x="26.5" y="-415" font-family="Helvetica,sans-Serif" font-size="10.00" fill="#000000"> </text>
</g>
<!-- Node2&#45;&gt;Node1 -->
<g id="edge1" class="edge">
<title>Node2&#45;&gt;Node1</title>
<path fill="none" stroke="#404040" d="M27.1313,-407.7537C28.0855,-381.3789 30.4819,-341.3154 36.5,-307 36.8816,-304.824 37.2799,-302.635 37.6934,-300.4358"/>
<polygon fill="none" stroke="#404040" points="37.7079,-300.3624 34.952,-293.6986 40.0433,-288.5918 42.7991,-295.2556 37.7079,-300.3624"/>
<text text-anchor="middle" x="52" y="-315.5" font-family="Helvetica,sans-Serif" font-size="10.00" fill="#000000"> &#45;map_</text>
</g>
<!-- Node3 -->
<g id="node3" class="node">
<title>Node3</title>
<g id="a_node3"><a xlink:href="structmystl_1_1deque__iterator.html" target="_top" xlink:title="{mystl::deque_iterator\l\&lt; T, T &amp;, T * \&gt;\n||+ deque_iterator()\l+ deque_iterator()\l+ deque_iterator()\l+ deque_iterator()\l+ deque_iterator()\l+ operator=()\l+ set_node()\l+ operator*()\l+ operator&#45;\&gt;()\l+ operator&#45;()\land 15 more...\l}">
<polygon fill="#ffffff" stroke="#000000" points="237.5,-347.5 237.5,-525.5 345.5,-525.5 345.5,-347.5 237.5,-347.5"/>
<text text-anchor="start" x="245.5" y="-513.5" font-family="Helvetica,sans-Serif" font-size="10.00" fill="#000000">mystl::deque_iterator</text>
<text text-anchor="middle" x="291.5" y="-502.5" font-family="Helvetica,sans-Serif" font-size="10.00" fill="#000000">&lt; T, T &amp;, T * &gt;</text>
<polyline fill="none" stroke="#000000" points="237.5,-495.5 345.5,-495.5 "/>
<text text-anchor="middle" x="291.5" y="-483.5" font-family="Helvetica,sans-Serif" font-size="10.00" fill="#000000"> </text>
<polyline fill="none" stroke="#000000" points="237.5,-476.5 345.5,-476.5 "/>
<text text-anchor="start" x="245.5" y="-464.5" font-family="Helvetica,sans-Serif" font-size="10.00" fill="#000000">+ deque_iterator()</text>
<text text-anchor="start" x="245.5" y="-453.5" font-family="Helvetica,sans-Serif" font-size="10.00" fill="#000000">+ deque_iterator()</text>
<text text-anchor="start" x="245.5" y="-442.5" font-family="Helvetica,sans-Serif" font-size="10.00" fill="#000000">+ deque_iterator()</text>
<text text-anchor="start" x="245.5" y="-431.5" font-family="Helvetica,sans-Serif" font-size="10.00" fill="#000000">+ deque_iterator()</text>
<text text-anchor="start" x="245.5" y="-420.5" font-family="Helvetica,sans-Serif" font-size="10.00" fill="#000000">+ deque_iterator()</text>
<text text-anchor="start" x="245.5" y="-409.5" font-family="Helvetica,sans-Serif" font-size="10.00" fill="#000000">+ operator=()</text>
<text text-anchor="start" x="245.5" y="-398.5" font-family="Helvetica,sans-Serif" font-size="10.00" fill="#000000">+ set_node()</text>
<text text-anchor="start" x="245.5" y="-387.5" font-family="Helvetica,sans-Serif" font-size="10.00" fill="#000000">+ operator*()</text>
<text text-anchor="start" x="245.5" y="-376.5" font-family="Helvetica,sans-Serif" font-size="10.00" fill="#000000">+ operator&#45;&gt;()</text>
<text text-anchor="start" x="245.5" y="-365.5" font-family="Helvetica,sans-Serif" font-size="10.00" fill="#000000">+ operator&#45;()</text>
<text text-anchor="start" x="245.5" y="-354.5" font-family="Helvetica,sans-Serif" font-size="10.00" fill="#000000">and 15 more...</text>
</a>
</g>
</g>
<!-- Node3&#45;&gt;Node1 -->
<g id="edge2" class="edge">
<title>Node3&#45;&gt;Node1</title>
<path fill="none" stroke="#404040" d="M237.4198,-361.3027C206.6406,-318.505 168.1591,-264.9974 137.1271,-221.8482"/>
<polygon fill="none" stroke="#404040" points="137.0246,-221.7057 130.274,-219.17 130.0182,-211.9634 136.7688,-214.4991 137.0246,-221.7057"/>
<text text-anchor="middle" x="229" y="-321" font-family="Helvetica,sans-Serif" font-size="10.00" fill="#000000"> &#45;begin_</text>
<text text-anchor="middle" x="229" y="-310" font-family="Helvetica,sans-Serif" font-size="10.00" fill="#000000">&#45;end_</text>
</g>
<!-- Node4 -->
<g id="node4" class="node">
<title>Node4</title>
<g id="a_node4"><a xlink:href="structmystl_1_1iterator.html" target="_top" xlink:title="{mystl::iterator\&lt; random\l_access_iterator_tag, T \&gt;\n||}">
<polygon fill="#ffffff" stroke="#000000" points="349.5,-854.5 349.5,-922.5 477.5,-922.5 477.5,-854.5 349.5,-854.5"/>
<text text-anchor="start" x="357.5" y="-910.5" font-family="Helvetica,sans-Serif" font-size="10.00" fill="#000000">mystl::iterator&lt; random</text>
<text text-anchor="middle" x="413.5" y="-899.5" font-family="Helvetica,sans-Serif" font-size="10.00" fill="#000000">_access_iterator_tag, T &gt;</text>
<polyline fill="none" stroke="#000000" points="349.5,-892.5 477.5,-892.5 "/>
<text text-anchor="middle" x="413.5" y="-880.5" font-family="Helvetica,sans-Serif" font-size="10.00" fill="#000000"> </text>
<polyline fill="none" stroke="#000000" points="349.5,-873.5 477.5,-873.5 "/>
<text text-anchor="middle" x="413.5" y="-861.5" font-family="Helvetica,sans-Serif" font-size="10.00" fill="#000000"> </text>
</a>
</g>
</g>
<!-- Node4&#45;&gt;Node3 -->
<g id="edge3" class="edge">
<title>Node4&#45;&gt;Node3</title>
<path fill="none" stroke="#191970" d="M409.5219,-844.081C401.9281,-763.8272 384.261,-597.9844 363.5,-544 358.7832,-531.7351 352.4624,-519.4621 345.5169,-507.8251"/>
<polygon fill="none" stroke="#191970" points="406.0668,-844.7247 410.4832,-854.3552 413.0363,-844.0726 406.0668,-844.7247"/>
</g>
<!-- Node8 -->
<g id="node8" class="node">
<title>Node8</title>
<g id="a_node8"><a xlink:href="structmystl_1_1deque__iterator.html" target="_top" xlink:title="{mystl::deque_iterator\l\&lt; T, Ref, Ptr \&gt;\n||+ deque_iterator()\l+ deque_iterator()\l+ deque_iterator()\l+ deque_iterator()\l+ deque_iterator()\l+ operator=()\l+ set_node()\l+ operator*()\l+ operator&#45;\&gt;()\l+ operator&#45;()\land 15 more...\l}">
<polygon fill="#ffffff" stroke="#000000" points="237.5,-606.5 237.5,-784.5 345.5,-784.5 345.5,-606.5 237.5,-606.5"/>
<text text-anchor="start" x="245.5" y="-772.5" font-family="Helvetica,sans-Serif" font-size="10.00" fill="#000000">mystl::deque_iterator</text>
<text text-anchor="middle" x="291.5" y="-761.5" font-family="Helvetica,sans-Serif" font-size="10.00" fill="#000000">&lt; T, Ref, Ptr &gt;</text>
<polyline fill="none" stroke="#000000" points="237.5,-754.5 345.5,-754.5 "/>
<text text-anchor="middle" x="291.5" y="-742.5" font-family="Helvetica,sans-Serif" font-size="10.00" fill="#000000"> </text>
<polyline fill="none" stroke="#000000" points="237.5,-735.5 345.5,-735.5 "/>
<text text-anchor="start" x="245.5" y="-723.5" font-family="Helvetica,sans-Serif" font-size="10.00" fill="#000000">+ deque_iterator()</text>
<text text-anchor="start" x="245.5" y="-712.5" font-family="Helvetica,sans-Serif" font-size="10.00" fill="#000000">+ deque_iterator()</text>
<text text-anchor="start" x="245.5" y="-701.5" font-family="Helvetica,sans-Serif" font-size="10.00" fill="#000000">+ deque_iterator()</text>
<text text-anchor="start" x="245.5" y="-690.5" font-family="Helvetica,sans-Serif" font-size="10.00" fill="#000000">+ deque_iterator()</text>
<text text-anchor="start" x="245.5" y="-679.5" font-family="Helvetica,sans-Serif" font-size="10.00" fill="#000000">+ deque_iterator()</text>
<text text-anchor="start" x="245.5" y="-668.5" font-family="Helvetica,sans-Serif" font-size="10.00" fill="#000000">+ operator=()</text>
<text text-anchor="start" x="245.5" y="-657.5" font-family="Helvetica,sans-Serif" font-size="10.00" fill="#000000">+ set_node()</text>
<text text-anchor="start" x="245.5" y="-646.5" font-family="Helvetica,sans-Serif" font-size="10.00" fill="#000000">+ operator*()</text>
<text text-anchor="start" x="245.5" y="-635.5" font-family="Helvetica,sans-Serif" font-size="10.00" fill="#000000">+ operator&#45;&gt;()</text>
<text text-anchor="start" x="245.5" y="-624.5" font-family="Helvetica,sans-Serif" font-size="10.00" fill="#000000">+ operator&#45;()</text>
<text text-anchor="start" x="245.5" y="-613.5" font-family="Helvetica,sans-Serif" font-size="10.00" fill="#000000">and 15 more...</text>
</a>
</g>
</g>
<!-- Node4&#45;&gt;Node8 -->
<g id="edge8" class="edge">
<title>Node4&#45;&gt;Node8</title>
<path fill="none" stroke="#191970" d="M381.4031,-846.077C379.025,-842.697 376.6986,-839.3104 374.5,-836 363.6851,-819.716 352.6704,-802.0031 342.3493,-784.8147"/>
<polygon fill="none" stroke="#191970" points="378.7093,-848.3267 387.378,-854.4181 384.4,-844.2504 378.7093,-848.3267"/>
</g>
<!-- Node5 -->
<g id="node5" class="node">
<title>Node5</title>
<g id="a_node5"><a xlink:href="structmystl_1_1iterator.html" target="_top" xlink:title="{mystl::iterator\&lt; Category,\l T, Distance, Pointer,\l Reference \&gt;\n||}">
<polygon fill="#ffffff" stroke="#000000" points="349.5,-981.5 349.5,-1060.5 477.5,-1060.5 477.5,-981.5 349.5,-981.5"/>
<text text-anchor="start" x="357.5" y="-1048.5" font-family="Helvetica,sans-Serif" font-size="10.00" fill="#000000">mystl::iterator&lt; Category,</text>
<text text-anchor="start" x="357.5" y="-1037.5" font-family="Helvetica,sans-Serif" font-size="10.00" fill="#000000"> T, Distance, Pointer,</text>
<text text-anchor="middle" x="413.5" y="-1026.5" font-family="Helvetica,sans-Serif" font-size="10.00" fill="#000000"> Reference &gt;</text>
<polyline fill="none" stroke="#000000" points="349.5,-1019.5 477.5,-1019.5 "/>
<text text-anchor="middle" x="413.5" y="-1007.5" font-family="Helvetica,sans-Serif" font-size="10.00" fill="#000000"> </text>
<polyline fill="none" stroke="#000000" points="349.5,-1000.5 477.5,-1000.5 "/>
<text text-anchor="middle" x="413.5" y="-988.5" font-family="Helvetica,sans-Serif" font-size="10.00" fill="#000000"> </text>
</a>
</g>
</g>
<!-- Node5&#45;&gt;Node4 -->
<g id="edge4" class="edge">
<title>Node5&#45;&gt;Node4</title>
<path fill="none" stroke="#ffa500" d="M413.5,-970.9391C413.5,-954.8943 413.5,-937.4999 413.5,-922.8429"/>
<polygon fill="#ffa500" stroke="#ffa500" points="410.0001,-971.2456 413.5,-981.2456 417.0001,-971.2457 410.0001,-971.2456"/>
<text text-anchor="start" x="413.5" y="-955" font-family="Helvetica,sans-Serif" font-size="10.00" fill="#000000"> &lt; random_access_iterator</text>
<text text-anchor="middle" x="472" y="-944" font-family="Helvetica,sans-Serif" font-size="10.00" fill="#000000">_tag, T &gt;</text>
</g>
<!-- Node6 -->
<g id="node6" class="node">
<title>Node6</title>
<polygon fill="#ffffff" stroke="#bfbfbf" points="130,-860 130,-917 173,-917 173,-860 130,-860"/>
<text text-anchor="middle" x="151.5" y="-905" font-family="Helvetica,sans-Serif" font-size="10.00" fill="#000000">size_t</text>
<polyline fill="none" stroke="#bfbfbf" points="130,-898 173,-898 "/>
<text text-anchor="middle" x="151.5" y="-886" font-family="Helvetica,sans-Serif" font-size="10.00" fill="#000000"> </text>
<polyline fill="none" stroke="#bfbfbf" points="130,-879 173,-879 "/>
<text text-anchor="middle" x="151.5" y="-867" font-family="Helvetica,sans-Serif" font-size="10.00" fill="#000000"> </text>
</g>
<!-- Node6&#45;&gt;Node1 -->
<g id="edge12" class="edge">
<title>Node6&#45;&gt;Node1</title>
<path fill="none" stroke="#404040" d="M145.521,-859.9773C144.0454,-852.2247 142.5801,-843.8124 141.5,-836 116.2031,-653.0303 99.6889,-441.2585 90.5093,-300.7727"/>
<polygon fill="none" stroke="#404040" points="90.5013,-300.6481 86.1217,-294.9193 89.7253,-288.6732 94.1049,-294.402 90.5013,-300.6481"/>
<text text-anchor="middle" x="141" y="-569" font-family="Helvetica,sans-Serif" font-size="10.00" fill="#000000"> &#45;map_size_</text>
<text text-anchor="middle" x="141" y="-558" font-family="Helvetica,sans-Serif" font-size="10.00" fill="#000000">+buffer_size</text>
</g>
<!-- Node6&#45;&gt;Node3 -->
<g id="edge5" class="edge">
<title>Node6&#45;&gt;Node3</title>
<path fill="none" stroke="#404040" d="M148.4002,-859.7986C143.8378,-807.5511 138.9572,-694.1697 170.5,-606 183.5756,-569.4504 206.966,-533.745 229.7195,-504.6043"/>
<polygon fill="none" stroke="#404040" points="229.9123,-504.3626 230.527,-497.1777 237.3956,-494.9817 236.7809,-502.1666 229.9123,-504.3626"/>
<text text-anchor="middle" x="199.5" y="-693" font-family="Helvetica,sans-Serif" font-size="10.00" fill="#000000"> +buffer_size</text>
</g>
<!-- Node6&#45;&gt;Node8 -->
<g id="edge9" class="edge">
<title>Node6&#45;&gt;Node8</title>
<path fill="none" stroke="#404040" d="M170.4411,-859.7259C181.5881,-843.0095 196.0881,-821.6345 209.5,-803 216.0641,-793.8798 223.0406,-784.4115 230.0458,-775.0441"/>
<polygon fill="none" stroke="#404040" points="230.1309,-774.9308 230.5379,-767.7312 237.3402,-765.3377 236.9332,-772.5374 230.1309,-774.9308"/>
<text text-anchor="middle" x="238.5" y="-817" font-family="Helvetica,sans-Serif" font-size="10.00" fill="#000000"> +buffer_size</text>
</g>
<!-- Node7 -->
<g id="node7" class="node">
<title>Node7</title>
<polygon fill="#ffffff" stroke="#bfbfbf" points="414,-667 414,-724 443,-724 443,-667 414,-667"/>
<text text-anchor="middle" x="428.5" y="-712" font-family="Helvetica,sans-Serif" font-size="10.00" fill="#000000">T</text>
<polyline fill="none" stroke="#bfbfbf" points="414,-705 443,-705 "/>
<text text-anchor="middle" x="428.5" y="-693" font-family="Helvetica,sans-Serif" font-size="10.00" fill="#000000"> </text>
<polyline fill="none" stroke="#bfbfbf" points="414,-686 443,-686 "/>
<text text-anchor="middle" x="428.5" y="-674" font-family="Helvetica,sans-Serif" font-size="10.00" fill="#000000"> </text>
</g>
<!-- Node7&#45;&gt;Node3 -->
<g id="edge6" class="edge">
<title>Node7&#45;&gt;Node3</title>
<path fill="none" stroke="#404040" d="M427.9868,-666.7598C426.3242,-634.99 420.2966,-583.138 399.5,-544 388.2947,-522.9123 371.5641,-503.3305 354.5977,-486.8144"/>
<polygon fill="none" stroke="#404040" points="354.4679,-486.6922 347.3576,-485.4907 345.7319,-478.4653 352.8422,-479.6667 354.4679,-486.6922"/>
<text text-anchor="middle" x="429.5" y="-580" font-family="Helvetica,sans-Serif" font-size="10.00" fill="#000000"> +first</text>
<text text-anchor="middle" x="429.5" y="-569" font-family="Helvetica,sans-Serif" font-size="10.00" fill="#000000">+cur</text>
<text text-anchor="middle" x="429.5" y="-558" font-family="Helvetica,sans-Serif" font-size="10.00" fill="#000000">+node</text>
<text text-anchor="middle" x="429.5" y="-547" font-family="Helvetica,sans-Serif" font-size="10.00" fill="#000000">+last</text>
</g>
<!-- Node8&#45;&gt;Node3 -->
<g id="edge7" class="edge">
<title>Node8&#45;&gt;Node3</title>
<path fill="none" stroke="#ffa500" d="M291.5,-596.184C291.5,-573.0216 291.5,-548.4949 291.5,-525.7974"/>
<polygon fill="#ffa500" stroke="#ffa500" points="288.0001,-596.3669 291.5,-606.3669 295.0001,-596.3669 288.0001,-596.3669"/>
<text text-anchor="middle" x="325.5" y="-563.5" font-family="Helvetica,sans-Serif" font-size="10.00" fill="#000000"> &lt; T, T &amp;, T * &gt;</text>
</g>
<!-- Node9 -->
<g id="node9" class="node">
<title>Node9</title>
<polygon fill="#ffffff" stroke="#bfbfbf" points="251,-860 251,-917 280,-917 280,-860 251,-860"/>
<text text-anchor="middle" x="265.5" y="-905" font-family="Helvetica,sans-Serif" font-size="10.00" fill="#000000">T *</text>
<polyline fill="none" stroke="#bfbfbf" points="251,-898 280,-898 "/>
<text text-anchor="middle" x="265.5" y="-886" font-family="Helvetica,sans-Serif" font-size="10.00" fill="#000000"> </text>
<polyline fill="none" stroke="#bfbfbf" points="251,-879 280,-879 "/>
<text text-anchor="middle" x="265.5" y="-867" font-family="Helvetica,sans-Serif" font-size="10.00" fill="#000000"> </text>
</g>
<!-- Node9&#45;&gt;Node8 -->
<g id="edge10" class="edge">
<title>Node9&#45;&gt;Node8</title>
<path fill="none" stroke="#404040" d="M268.1303,-859.9562C269.7571,-843.3166 272.0071,-821.9416 274.5,-803 274.7712,-800.9393 275.0505,-798.8572 275.3367,-796.7594"/>
<polygon fill="none" stroke="#404040" points="275.3737,-796.4951 272.247,-789.9971 277.0426,-784.6117 280.1693,-791.1097 275.3737,-796.4951"/>
<text text-anchor="middle" x="287.5" y="-828" font-family="Helvetica,sans-Serif" font-size="10.00" fill="#000000"> +first</text>
<text text-anchor="middle" x="287.5" y="-817" font-family="Helvetica,sans-Serif" font-size="10.00" fill="#000000">+cur</text>
<text text-anchor="middle" x="287.5" y="-806" font-family="Helvetica,sans-Serif" font-size="10.00" fill="#000000">+last</text>
</g>
<!-- Node10 -->
<g id="node10" class="node">
<title>Node10</title>
<polygon fill="#ffffff" stroke="#bfbfbf" points="298,-860 298,-917 331,-917 331,-860 298,-860"/>
<text text-anchor="middle" x="314.5" y="-905" font-family="Helvetica,sans-Serif" font-size="10.00" fill="#000000">T **</text>
<polyline fill="none" stroke="#bfbfbf" points="298,-898 331,-898 "/>
<text text-anchor="middle" x="314.5" y="-886" font-family="Helvetica,sans-Serif" font-size="10.00" fill="#000000"> </text>
<polyline fill="none" stroke="#bfbfbf" points="298,-879 331,-879 "/>
<text text-anchor="middle" x="314.5" y="-867" font-family="Helvetica,sans-Serif" font-size="10.00" fill="#000000"> </text>
</g>
<!-- Node10&#45;&gt;Node8 -->
<g id="edge11" class="edge">
<title>Node10&#45;&gt;Node8</title>
<path fill="none" stroke="#404040" d="M311.0567,-859.6059C309.0291,-842.5918 306.33,-819.943 303.5863,-796.9198"/>
<polygon fill="none" stroke="#404040" points="303.5709,-796.7895 298.8889,-791.3051 302.1508,-784.8738 306.8327,-790.3583 303.5709,-796.7895"/>
<text text-anchor="middle" x="324" y="-817" font-family="Helvetica,sans-Serif" font-size="10.00" fill="#000000"> +node</text>
</g>
</g>
</svg>
        <g id="navigator" transform="translate(0 0)" fill="#404254">
                <rect fill="#f2f5e9" fill-opacity="0.5" stroke="#606060" stroke-width=".5" x="0" y="0" width="60" height="60"/>
                <use id="zoomplus" xlink:href="#zoomPlus" x="17" y="9" onmousedown="handleZoom(evt,'in')"/>
                <use id="zoomminus" xlink:href="#zoomMin" x="42" y="9" onmousedown="handleZoom(evt,'out')"/>
                <use id="reset" xlink:href="#resetDef" x="30" y="36" onmousedown="handleReset()"/>
                <g id="arrowUp" xlink:href="#dirArrow" transform="translate(30 24)" onmousedown="handlePan(0,-1)">
                  <use xlink:href="#rim" fill="#404040">
                        <set attributeName="fill" to="#808080" begin="arrowUp.mouseover" end="arrowUp.mouseout"/>
                  </use>
                  <path fill="none" stroke="white" stroke-width="1.5" d="M0,-3.0v7 M-2.5,-0.5L0,-3.0L2.5,-0.5"/>
                </g>
                <g id="arrowRight" xlink:href="#dirArrow" transform="rotate(90) translate(36 -43)" onmousedown="handlePan(1,0)">
                  <use xlink:href="#rim" fill="#404040">
                        <set attributeName="fill" to="#808080" begin="arrowRight.mouseover" end="arrowRight.mouseout"/>
                  </use>
                  <path fill="none" stroke="white" stroke-width="1.5" d="M0,-3.0v7 M-2.5,-0.5L0,-3.0L2.5,-0.5"/>
                </g>
                <g id="arrowDown" xlink:href="#dirArrow" transform="rotate(180) translate(-30 -48)" onmousedown="handlePan(0,1)">
                  <use xlink:href="#rim" fill="#404040">
                        <set attributeName="fill" to="#808080" begin="arrowDown.mouseover" end="arrowDown.mouseout"/>
                  </use>
                  <path fill="none" stroke="white" stroke-width="1.5" d="M0,-3.0v7 M-2.5,-0.5L0,-3.0L2.5,-0.5"/>
                </g>
                <g id="arrowLeft" xlink:href="#dirArrow" transform="rotate(270) translate(-36 17)" onmousedown="handlePan(-1,0)">
                  <use xlink:href="#rim" fill="#404040">
                        <set attributeName="fill" to="#808080" begin="arrowLeft.mouseover" end="arrowLeft.mouseout"/>
                  </use>
                  <path fill="none" stroke="white" stroke-width="1.5" d="M0,-3.0v7 M-2.5,-0.5L0,-3.0L2.5,-0.5"/>
                </g>
        </g>
        <svg viewBox="0 0 15 15" width="100%" height="30px" preserveAspectRatio="xMaxYMin meet">
         <g id="arrow_out" transform="scale(0.3 0.3)">
          <a xlink:href="classmystl_1_1deque__coll__graph_org.svg" target="_base">
           <rect id="button" ry="5" rx="5" y="6" x="6" height="38" width="38"
                fill="#f2f5e9" fill-opacity="0.5" stroke="#606060" stroke-width="1.0"/>
           <path id="arrow"
             d="M 11.500037,31.436501 C 11.940474,20.09759 22.043105,11.32322 32.158766,21.979434 L 37.068811,17.246167 C 37.068811,17.246167 37.088388,32 37.088388,32 L 22.160133,31.978069 C 22.160133,31.978069 26.997745,27.140456 26.997745,27.140456 C 18.528582,18.264221 13.291696,25.230495 11.500037,31.436501 z"
             style="fill:#404040;"/>
          </a>
         </g>
        </svg>
</svg>
