<?xml version="1.0" encoding="UTF-8" standalone="no"?>
<!DOCTYPE svg PUBLIC "-//W3C//DTD SVG 1.1//EN"
 "http://www.w3.org/Graphics/SVG/1.1/DTD/svg11.dtd">
<!-- Generated by graphviz version 2.40.1 (20161225.0304)
 -->
<!-- Title: GinkgoWrappers::SolverIR&lt; ValueType, IndexType &gt; Pages: 1 -->
<svg width="154pt" height="193pt"
 viewBox="0.00 0.00 154.00 193.00" xmlns="http://www.w3.org/2000/svg" xmlns:xlink="http://www.w3.org/1999/xlink">
<g id="graph0" class="graph" transform="scale(1 1) rotate(0) translate(4 189)">
<title>GinkgoWrappers::SolverIR&lt; ValueType, IndexType &gt;</title>
<polygon fill="#ffffff" stroke="transparent" points="-4,4 -4,-189 150,-189 150,4 -4,4"/>
<!-- Node0 -->
<g id="node1" class="node">
<title>Node0</title>
<polygon fill="#bfbfbf" stroke="#000000" points="6,-.5 6,-79.5 140,-79.5 140,-.5 6,-.5"/>
<text text-anchor="start" x="14" y="-67.5" font-family="Helvetica,sans-Serif" font-size="10.00" fill="#000000">GinkgoWrappers::SolverIR</text>
<text text-anchor="middle" x="73" y="-56.5" font-family="Helvetica,sans-Serif" font-size="10.00" fill="#000000">&lt; ValueType, IndexType &gt;</text>
<polyline fill="none" stroke="#000000" points="6,-49.5 140,-49.5 "/>
<text text-anchor="start" x="14" y="-37.5" font-family="Helvetica,sans-Serif" font-size="10.00" fill="#000000"># additional_data</text>
<polyline fill="none" stroke="#000000" points="6,-30.5 140,-30.5 "/>
<text text-anchor="start" x="14" y="-18.5" font-family="Helvetica,sans-Serif" font-size="10.00" fill="#000000">+ SolverIR()</text>
<text text-anchor="start" x="14" y="-7.5" font-family="Helvetica,sans-Serif" font-size="10.00" fill="#000000">+ SolverIR()</text>
</g>
<!-- Node1 -->
<g id="node2" class="node">
<title>Node1</title>
<g id="a_node2"><a xlink:href="classGinkgoWrappers_1_1SolverBase.html" target="_top" xlink:title="{GinkgoWrappers::SolverBase\l\&lt; ValueType, IndexType \&gt;\n||}">
<polygon fill="#ffffff" stroke="#000000" points="0,-116.5 0,-184.5 146,-184.5 146,-116.5 0,-116.5"/>
<text text-anchor="start" x="8" y="-172.5" font-family="Helvetica,sans-Serif" font-size="10.00" fill="#000000">GinkgoWrappers::SolverBase</text>
<text text-anchor="middle" x="73" y="-161.5" font-family="Helvetica,sans-Serif" font-size="10.00" fill="#000000">&lt; ValueType, IndexType &gt;</text>
<polyline fill="none" stroke="#000000" points="0,-154.5 146,-154.5 "/>
<text text-anchor="middle" x="73" y="-142.5" font-family="Helvetica,sans-Serif" font-size="10.00" fill="#000000"> </text>
<polyline fill="none" stroke="#000000" points="0,-135.5 146,-135.5 "/>
<text text-anchor="middle" x="73" y="-123.5" font-family="Helvetica,sans-Serif" font-size="10.00" fill="#000000"> </text>
</a>
</g>
</g>
<!-- Node1&#45;&gt;Node0 -->
<g id="edge1" class="edge">
<title>Node1&#45;&gt;Node0</title>
<path fill="none" stroke="#191970" d="M73,-106.3044C73,-97.4634 73,-88.2287 73,-79.5566"/>
<polygon fill="none" stroke="#191970" points="69.5001,-106.4447 73,-116.4447 76.5001,-106.4447 69.5001,-106.4447"/>
</g>
</g>
</svg>
