<?xml version="1.0" encoding="UTF-8" standalone="no"?>
<!DOCTYPE svg PUBLIC "-//W3C//DTD SVG 1.1//EN"
 "http://www.w3.org/Graphics/SVG/1.1/DTD/svg11.dtd">
<!-- Generated by graphviz version 2.40.1 (20161225.0304)
 -->
<!-- Title: FE_DGPMonomial&lt; dim &gt; Pages: 1 -->
<svg width="287pt" height="309pt"
 viewBox="0.00 0.00 287.00 309.00" xmlns="http://www.w3.org/2000/svg" xmlns:xlink="http://www.w3.org/1999/xlink">
<g id="graph0" class="graph" transform="scale(1 1) rotate(0) translate(4 305)">
<title>FE_DGPMonomial&lt; dim &gt;</title>
<polygon fill="#ffffff" stroke="transparent" points="-4,4 -4,-305 283,-305 283,4 -4,4"/>
<!-- Node0 -->
<g id="node1" class="node">
<title>Node0</title>
<polygon fill="#bfbfbf" stroke="#000000" points="71,-.5 71,-19.5 203,-19.5 203,-.5 71,-.5"/>
<text text-anchor="middle" x="137" y="-7.5" font-family="Helvetica,sans-Serif" font-size="10.00" fill="#000000">FE_DGPMonomial&lt; dim &gt;</text>
</g>
<!-- Node1 -->
<g id="node2" class="node">
<title>Node1</title>
<g id="a_node2"><a xlink:href="classFE__Poly.html" target="_top" xlink:title="FE_Poly\&lt; dim \&gt;">
<polygon fill="#ffffff" stroke="#000000" points="93,-57.5 93,-76.5 181,-76.5 181,-57.5 93,-57.5"/>
<text text-anchor="middle" x="137" y="-64.5" font-family="Helvetica,sans-Serif" font-size="10.00" fill="#000000">FE_Poly&lt; dim &gt;</text>
</a>
</g>
</g>
<!-- Node1&#45;&gt;Node0 -->
<g id="edge1" class="edge">
<title>Node1&#45;&gt;Node0</title>
<path fill="none" stroke="#191970" d="M137,-47.2342C137,-37.8491 137,-27.0651 137,-19.5265"/>
<polygon fill="#191970" stroke="#191970" points="133.5001,-47.3307 137,-57.3307 140.5001,-47.3308 133.5001,-47.3307"/>
</g>
<!-- Node2 -->
<g id="node3" class="node">
<title>Node2</title>
<g id="a_node3"><a xlink:href="classFiniteElement.html" target="_top" xlink:title="FiniteElement\&lt; dim,\l dim \&gt;">
<polygon fill="#ffffff" stroke="#000000" points="154,-124.5 154,-154.5 258,-154.5 258,-124.5 154,-124.5"/>
<text text-anchor="start" x="162" y="-142.5" font-family="Helvetica,sans-Serif" font-size="10.00" fill="#000000">FiniteElement&lt; dim,</text>
<text text-anchor="middle" x="206" y="-131.5" font-family="Helvetica,sans-Serif" font-size="10.00" fill="#000000"> dim &gt;</text>
</a>
</g>
</g>
<!-- Node2&#45;&gt;Node1 -->
<g id="edge2" class="edge">
<title>Node2&#45;&gt;Node1</title>
<path fill="none" stroke="#191970" d="M184.5645,-116.9772C171.7778,-103.5419 156.1818,-87.1548 146.4179,-76.8957"/>
<polygon fill="#191970" stroke="#191970" points="182.2737,-119.6471 191.7032,-124.478 187.3444,-114.8212 182.2737,-119.6471"/>
</g>
<!-- Node3 -->
<g id="node4" class="node">
<title>Node3</title>
<g id="a_node4"><a xlink:href="classSubscriptor.html" target="_top" xlink:title="Subscriptor">
<polygon fill="#ffffff" stroke="#000000" points="213,-276 213,-295 279,-295 279,-276 213,-276"/>
<text text-anchor="middle" x="246" y="-283" font-family="Helvetica,sans-Serif" font-size="10.00" fill="#000000">Subscriptor</text>
</a>
</g>
</g>
<!-- Node3&#45;&gt;Node2 -->
<g id="edge3" class="edge">
<title>Node3&#45;&gt;Node2</title>
<path fill="none" stroke="#191970" d="M240.6654,-266.0288C232.6145,-236.6428 217.5237,-181.5615 210.2004,-154.8314"/>
<polygon fill="#191970" stroke="#191970" points="237.3575,-267.2008 243.3755,-275.9205 244.1087,-265.3511 237.3575,-267.2008"/>
</g>
<!-- Node5 -->
<g id="node6" class="node">
<title>Node5</title>
<g id="a_node6"><a xlink:href="classFiniteElement.html" target="_top" xlink:title="FiniteElement\&lt; dim,\l spacedim \&gt;">
<polygon fill="#ffffff" stroke="#000000" points="67,-202.5 67,-232.5 171,-232.5 171,-202.5 67,-202.5"/>
<text text-anchor="start" x="75" y="-220.5" font-family="Helvetica,sans-Serif" font-size="10.00" fill="#000000">FiniteElement&lt; dim,</text>
<text text-anchor="middle" x="119" y="-209.5" font-family="Helvetica,sans-Serif" font-size="10.00" fill="#000000"> spacedim &gt;</text>
</a>
</g>
</g>
<!-- Node3&#45;&gt;Node5 -->
<g id="edge6" class="edge">
<title>Node3&#45;&gt;Node5</title>
<path fill="none" stroke="#191970" d="M218.9923,-271.0392C197.8509,-259.7194 168.5399,-244.0253 147.1189,-232.5558"/>
<polygon fill="#191970" stroke="#191970" points="217.6054,-274.2667 228.0734,-275.9015 220.9096,-268.0956 217.6054,-274.2667"/>
</g>
<!-- Node4 -->
<g id="node5" class="node">
<title>Node4</title>
<g id="a_node5"><a xlink:href="classFiniteElementData.html" target="_top" xlink:title="FiniteElementData\&lt;\l dim \&gt;">
<polygon fill="#ffffff" stroke="#000000" points="84,-270.5 84,-300.5 188,-300.5 188,-270.5 84,-270.5"/>
<text text-anchor="start" x="92" y="-288.5" font-family="Helvetica,sans-Serif" font-size="10.00" fill="#000000">FiniteElementData&lt;</text>
<text text-anchor="middle" x="136" y="-277.5" font-family="Helvetica,sans-Serif" font-size="10.00" fill="#000000"> dim &gt;</text>
</a>
</g>
</g>
<!-- Node4&#45;&gt;Node2 -->
<g id="edge4" class="edge">
<title>Node4&#45;&gt;Node2</title>
<path fill="none" stroke="#191970" d="M158.6922,-262.7738C166.3682,-254.0565 174.4033,-243.6361 180,-233 193.4947,-207.3542 200.5927,-173.9626 203.7978,-154.8105"/>
<polygon fill="#191970" stroke="#191970" points="156.0066,-260.5238 151.8239,-270.2581 161.164,-265.2568 156.0066,-260.5238"/>
</g>
<!-- Node4&#45;&gt;Node5 -->
<g id="edge7" class="edge">
<title>Node4&#45;&gt;Node5</title>
<path fill="none" stroke="#191970" d="M129.7299,-260.4196C127.3899,-251.0597 124.8073,-240.7293 122.7623,-232.5492"/>
<polygon fill="#191970" stroke="#191970" points="126.4062,-261.5561 132.2271,-270.4086 133.1972,-259.8583 126.4062,-261.5561"/>
</g>
<!-- Node5&#45;&gt;Node2 -->
<g id="edge5" class="edge">
<title>Node5&#45;&gt;Node2</title>
<path fill="none" stroke="#ffa500" stroke-dasharray="5,2" d="M118.6017,-192.1417C119.6012,-185.3559 121.7556,-178.4113 126,-173 133.1555,-163.8772 143.2441,-157.2116 153.8539,-152.3504"/>
<polygon fill="#ffa500" stroke="#ffa500" points="115.088,-192.2023 117.8474,-202.4315 122.0692,-192.7142 115.088,-192.2023"/>
<text text-anchor="middle" x="155.5" y="-176" font-family="Helvetica,sans-Serif" font-size="10.00" fill="#000000"> &lt; dim, dim &gt;</text>
</g>
<!-- Node6 -->
<g id="node7" class="node">
<title>Node6</title>
<g id="a_node7"><a xlink:href="classFE__Poly.html" target="_top" xlink:title="FE_Poly\&lt; dim, spacedim \&gt;">
<polygon fill="#ffffff" stroke="#000000" points="0,-130 0,-149 136,-149 136,-130 0,-130"/>
<text text-anchor="middle" x="68" y="-137" font-family="Helvetica,sans-Serif" font-size="10.00" fill="#000000">FE_Poly&lt; dim, spacedim &gt;</text>
</a>
</g>
</g>
<!-- Node5&#45;&gt;Node6 -->
<g id="edge9" class="edge">
<title>Node5&#45;&gt;Node6</title>
<path fill="none" stroke="#191970" d="M103.4242,-193.6782C93.6158,-178.6772 81.4864,-160.1263 74.2664,-149.0839"/>
<polygon fill="#191970" stroke="#191970" points="100.7648,-196.0065 109.1667,-202.4608 106.6235,-192.1757 100.7648,-196.0065"/>
</g>
<!-- Node6&#45;&gt;Node1 -->
<g id="edge8" class="edge">
<title>Node6&#45;&gt;Node1</title>
<path fill="none" stroke="#ffa500" stroke-dasharray="5,2" d="M84.2273,-122.4495C97.8218,-108.1655 116.7369,-88.2909 127.8418,-76.6228"/>
<polygon fill="#ffa500" stroke="#ffa500" points="81.6644,-120.0656 77.3056,-129.7223 86.7351,-124.8915 81.6644,-120.0656"/>
<text text-anchor="middle" x="126.5" y="-98" font-family="Helvetica,sans-Serif" font-size="10.00" fill="#000000"> &lt; dim &gt;</text>
</g>
</g>
</svg>
