<?xml version="1.0" encoding="UTF-8" standalone="no"?>
<!DOCTYPE svg PUBLIC "-//W3C//DTD SVG 1.1//EN"
 "http://www.w3.org/Graphics/SVG/1.1/DTD/svg11.dtd">
<!-- Generated by graphviz version 2.40.1 (20161225.0304)
 -->
<!-- Title: TableBase&lt; N, T &gt; Pages: 1 -->
<svg width="1705pt" height="537pt"
 viewBox="0.00 0.00 1705.00 537.12" xmlns="http://www.w3.org/2000/svg" xmlns:xlink="http://www.w3.org/1999/xlink">
<g id="graph0" class="graph" transform="scale(1 1) rotate(0) translate(4 533.1218)">
<title>TableBase&lt; N, T &gt;</title>
<polygon fill="#ffffff" stroke="transparent" points="-4,4 -4,-533.1218 1701,-533.1218 1701,4 -4,4"/>
<!-- Node0 -->
<g id="node1" class="node">
<title>Node0</title>
<polygon fill="#bfbfbf" stroke="#000000" points="108,-217.6218 108,-236.6218 216,-236.6218 216,-217.6218 108,-217.6218"/>
<text text-anchor="middle" x="162" y="-224.6218" font-family="Helvetica,sans-Serif" font-size="10.00" fill="#000000">TableBase&lt; N, T &gt;</text>
</g>
<!-- Node2 -->
<g id="node3" class="node">
<title>Node2</title>
<g id="a_node3"><a xlink:href="classTableBase.html" target="_top" xlink:title="TableBase\&lt; 2, InverseNumber\lType \&gt;">
<polygon fill="#ffffff" stroke="#000000" points="513,-494.1218 513,-524.1218 677,-524.1218 677,-494.1218 513,-494.1218"/>
<text text-anchor="start" x="521" y="-512.1218" font-family="Helvetica,sans-Serif" font-size="10.00" fill="#000000">TableBase&lt; 2, InverseNumber</text>
<text text-anchor="middle" x="595" y="-501.1218" font-family="Helvetica,sans-Serif" font-size="10.00" fill="#000000">Type &gt;</text>
</a>
</g>
</g>
<!-- Node0&#45;&gt;Node2 -->
<g id="edge2" class="edge">
<title>Node0&#45;&gt;Node2</title>
<path fill="none" stroke="#ffa500" stroke-dasharray="5,2" d="M165.274,-246.975C174.1646,-298.3627 200.3629,-433.7045 234,-462.1218 311.1268,-527.2801 432.571,-529.4199 512.9889,-521.8182"/>
<polygon fill="#ffa500" stroke="#ffa500" points="168.6782,-246.1143 163.5581,-236.8388 161.7764,-247.2828 168.6782,-246.1143"/>
<text text-anchor="middle" x="302" y="-521.1218" font-family="Helvetica,sans-Serif" font-size="10.00" fill="#000000"> &lt; 2, InverseNumberType &gt;</text>
</g>
<!-- Node5 -->
<g id="node6" class="node">
<title>Node5</title>
<g id="a_node6"><a xlink:href="classTableBase.html" target="_top" xlink:title="TableBase\&lt; 2, Number \&gt;">
<polygon fill="#ffffff" stroke="#000000" points="525,-319.6218 525,-338.6218 665,-338.6218 665,-319.6218 525,-319.6218"/>
<text text-anchor="middle" x="595" y="-326.6218" font-family="Helvetica,sans-Serif" font-size="10.00" fill="#000000">TableBase&lt; 2, Number &gt;</text>
</a>
</g>
</g>
<!-- Node0&#45;&gt;Node5 -->
<g id="edge5" class="edge">
<title>Node0&#45;&gt;Node5</title>
<path fill="none" stroke="#ffa500" stroke-dasharray="5,2" d="M177.729,-244.2267C191.2492,-257.7431 211.9988,-275.8275 234,-285.1218 329.0928,-325.293 449.9719,-332.0995 524.9109,-331.7735"/>
<polygon fill="#ffa500" stroke="#ffa500" points="180.1141,-241.6582 170.6491,-236.8974 175.0794,-246.5215 180.1141,-241.6582"/>
<text text-anchor="middle" x="302" y="-323.1218" font-family="Helvetica,sans-Serif" font-size="10.00" fill="#000000"> &lt; 2, Number &gt;</text>
</g>
<!-- Node8 -->
<g id="node9" class="node">
<title>Node8</title>
<g id="a_node9"><a xlink:href="classTableBase.html" target="_top" xlink:title="TableBase\&lt; 2, inverse\l_type \&gt;">
<polygon fill="#ffffff" stroke="#000000" points="532.5,-268.1218 532.5,-298.1218 657.5,-298.1218 657.5,-268.1218 532.5,-268.1218"/>
<text text-anchor="start" x="540.5" y="-286.1218" font-family="Helvetica,sans-Serif" font-size="10.00" fill="#000000">TableBase&lt; 2, inverse</text>
<text text-anchor="middle" x="595" y="-275.1218" font-family="Helvetica,sans-Serif" font-size="10.00" fill="#000000">_type &gt;</text>
</a>
</g>
</g>
<!-- Node0&#45;&gt;Node8 -->
<g id="edge8" class="edge">
<title>Node0&#45;&gt;Node8</title>
<path fill="none" stroke="#ffa500" stroke-dasharray="5,2" d="M195.5357,-240.1053C207.5074,-244.2557 221.2007,-248.4595 234,-251.1218 337.1814,-272.5841 459.886,-279.6603 532.3934,-281.9879"/>
<polygon fill="#ffa500" stroke="#ffa500" points="196.5364,-236.746 185.9418,-236.6665 194.1744,-243.3355 196.5364,-236.746"/>
<text text-anchor="middle" x="302" y="-273.1218" font-family="Helvetica,sans-Serif" font-size="10.00" fill="#000000"> &lt; 2, inverse_type &gt;</text>
</g>
<!-- Node11 -->
<g id="node12" class="node">
<title>Node11</title>
<g id="a_node12"><a xlink:href="classTableBase.html" target="_top" xlink:title="TableBase\&lt; 7, T \&gt;">
<polygon fill="#ffffff" stroke="#000000" points="388,-197.6218 388,-216.6218 495,-216.6218 495,-197.6218 388,-197.6218"/>
<text text-anchor="middle" x="441.5" y="-204.6218" font-family="Helvetica,sans-Serif" font-size="10.00" fill="#000000">TableBase&lt; 7, T &gt;</text>
</a>
</g>
</g>
<!-- Node0&#45;&gt;Node11 -->
<g id="edge11" class="edge">
<title>Node0&#45;&gt;Node11</title>
<path fill="none" stroke="#ffa500" stroke-dasharray="5,2" d="M211.2259,-215.6339C218.8157,-214.2206 226.5915,-212.9756 234,-212.1218 285.9068,-206.1395 345.5823,-205.33 387.5734,-205.7526"/>
<polygon fill="#ffa500" stroke="#ffa500" points="210.5365,-212.2023 201.402,-217.5699 211.89,-219.0703 210.5365,-212.2023"/>
<text text-anchor="middle" x="302" y="-215.1218" font-family="Helvetica,sans-Serif" font-size="10.00" fill="#000000"> &lt; 7, T &gt;</text>
</g>
<!-- Node13 -->
<g id="node14" class="node">
<title>Node13</title>
<g id="a_node14"><a xlink:href="classTableBase.html" target="_top" xlink:title="TableBase\&lt; 6, T \&gt;">
<polygon fill="#ffffff" stroke="#000000" points="388,-159.6218 388,-178.6218 495,-178.6218 495,-159.6218 388,-159.6218"/>
<text text-anchor="middle" x="441.5" y="-166.6218" font-family="Helvetica,sans-Serif" font-size="10.00" fill="#000000">TableBase&lt; 6, T &gt;</text>
</a>
</g>
</g>
<!-- Node0&#45;&gt;Node13 -->
<g id="edge13" class="edge">
<title>Node0&#45;&gt;Node13</title>
<path fill="none" stroke="#ffa500" stroke-dasharray="5,2" d="M185.7894,-212.514C199.4111,-204.8561 217.1079,-196.0641 234,-191.1218 284.7621,-176.2696 345.1144,-171.2026 387.6074,-169.5903"/>
<polygon fill="#ffa500" stroke="#ffa500" points="183.9629,-209.5271 177.07,-217.5731 187.476,-215.5818 183.9629,-209.5271"/>
<text text-anchor="middle" x="302" y="-194.1218" font-family="Helvetica,sans-Serif" font-size="10.00" fill="#000000"> &lt; 6, T &gt;</text>
</g>
<!-- Node15 -->
<g id="node16" class="node">
<title>Node15</title>
<g id="a_node16"><a xlink:href="classTableBase.html" target="_top" xlink:title="TableBase\&lt; 5, T \&gt;">
<polygon fill="#ffffff" stroke="#000000" points="388,-121.6218 388,-140.6218 495,-140.6218 495,-121.6218 388,-121.6218"/>
<text text-anchor="middle" x="441.5" y="-128.6218" font-family="Helvetica,sans-Serif" font-size="10.00" fill="#000000">TableBase&lt; 5, T &gt;</text>
</a>
</g>
</g>
<!-- Node0&#45;&gt;Node15 -->
<g id="edge15" class="edge">
<title>Node0&#45;&gt;Node15</title>
<path fill="none" stroke="#ffa500" stroke-dasharray="5,2" d="M174.6441,-209.0988C187.5033,-192.3211 209.0483,-168.1488 234,-156.1218 282.3751,-132.8044 344.1689,-128.092 387.6977,-128.2659"/>
<polygon fill="#ffa500" stroke="#ffa500" points="171.5421,-207.4084 168.4271,-217.535 177.1772,-211.5612 171.5421,-207.4084"/>
<text text-anchor="middle" x="302" y="-159.1218" font-family="Helvetica,sans-Serif" font-size="10.00" fill="#000000"> &lt; 5, T &gt;</text>
</g>
<!-- Node17 -->
<g id="node18" class="node">
<title>Node17</title>
<g id="a_node18"><a xlink:href="classTableBase.html" target="_top" xlink:title="TableBase\&lt; 2, number \&gt;">
<polygon fill="#ffffff" stroke="#000000" points="526,-450.6218 526,-469.6218 664,-469.6218 664,-450.6218 526,-450.6218"/>
<text text-anchor="middle" x="595" y="-457.6218" font-family="Helvetica,sans-Serif" font-size="10.00" fill="#000000">TableBase&lt; 2, number &gt;</text>
</a>
</g>
</g>
<!-- Node0&#45;&gt;Node17 -->
<g id="edge17" class="edge">
<title>Node0&#45;&gt;Node17</title>
<path fill="none" stroke="#ffa500" stroke-dasharray="5,2" d="M165.0011,-247.0612C171.2675,-281.3543 189.0867,-351.2653 234,-387.1218 317.8258,-454.0441 446.8013,-464.6066 525.7623,-463.9361"/>
<polygon fill="#ffa500" stroke="#ffa500" points="168.4024,-246.1808 163.2965,-236.8975 161.4989,-247.3387 168.4024,-246.1808"/>
<text text-anchor="middle" x="302" y="-450.1218" font-family="Helvetica,sans-Serif" font-size="10.00" fill="#000000"> &lt; 2, number &gt;</text>
</g>
<!-- Node20 -->
<g id="node21" class="node">
<title>Node20</title>
<g id="a_node21"><a xlink:href="classTableBase.html" target="_top" xlink:title="TableBase\&lt; 2, NumberType \&gt;">
<polygon fill="#ffffff" stroke="#000000" points="514,-235.6218 514,-254.6218 676,-254.6218 676,-235.6218 514,-235.6218"/>
<text text-anchor="middle" x="595" y="-242.6218" font-family="Helvetica,sans-Serif" font-size="10.00" fill="#000000">TableBase&lt; 2, NumberType &gt;</text>
</a>
</g>
</g>
<!-- Node0&#45;&gt;Node20 -->
<g id="edge23" class="edge">
<title>Node0&#45;&gt;Node20</title>
<path fill="none" stroke="#ffa500" stroke-dasharray="5,2" d="M226.8601,-229.8181C303.4425,-233.0016 430.8733,-238.299 513.9073,-241.7507"/>
<polygon fill="#ffa500" stroke="#ffa500" points="226.5381,-226.3017 216.4013,-229.3833 226.2473,-233.2957 226.5381,-226.3017"/>
<text text-anchor="middle" x="302" y="-239.1218" font-family="Helvetica,sans-Serif" font-size="10.00" fill="#000000"> &lt; 2, NumberType &gt;</text>
</g>
<!-- Node23 -->
<g id="node24" class="node">
<title>Node23</title>
<g id="a_node24"><a xlink:href="classTableBase.html" target="_top" xlink:title="TableBase\&lt; 4, T \&gt;">
<polygon fill="#ffffff" stroke="#000000" points="388,-83.6218 388,-102.6218 495,-102.6218 495,-83.6218 388,-83.6218"/>
<text text-anchor="middle" x="441.5" y="-90.6218" font-family="Helvetica,sans-Serif" font-size="10.00" fill="#000000">TableBase&lt; 4, T &gt;</text>
</a>
</g>
</g>
<!-- Node0&#45;&gt;Node23 -->
<g id="edge26" class="edge">
<title>Node0&#45;&gt;Node23</title>
<path fill="none" stroke="#ffa500" stroke-dasharray="5,2" d="M168.2356,-207.8891C177.8179,-181.7491 198.8387,-135.7849 234,-114.1218 280.0866,-85.7275 343.1109,-83.3351 387.5728,-86.2587"/>
<polygon fill="#ffa500" stroke="#ffa500" points="164.8899,-206.8545 164.9192,-217.4493 171.5033,-209.1487 164.8899,-206.8545"/>
<text text-anchor="middle" x="302" y="-117.1218" font-family="Helvetica,sans-Serif" font-size="10.00" fill="#000000"> &lt; 4, T &gt;</text>
</g>
<!-- Node25 -->
<g id="node26" class="node">
<title>Node25</title>
<g id="a_node26"><a xlink:href="classTableBase.html" target="_top" xlink:title="TableBase\&lt; 3, T \&gt;">
<polygon fill="#ffffff" stroke="#000000" points="388,-45.6218 388,-64.6218 495,-64.6218 495,-45.6218 388,-45.6218"/>
<text text-anchor="middle" x="441.5" y="-52.6218" font-family="Helvetica,sans-Serif" font-size="10.00" fill="#000000">TableBase&lt; 3, T &gt;</text>
</a>
</g>
</g>
<!-- Node0&#45;&gt;Node25 -->
<g id="edge28" class="edge">
<title>Node0&#45;&gt;Node25</title>
<path fill="none" stroke="#ffa500" stroke-dasharray="5,2" d="M164.7334,-207.0941C170.5888,-172.7579 187.7965,-103.2545 234,-71.1218 279.681,-39.3525 345.4916,-40.0156 390.6825,-45.5874"/>
<polygon fill="#ffa500" stroke="#ffa500" points="161.2268,-206.8682 163.1574,-217.2856 168.1446,-207.938 161.2268,-206.8682"/>
<text text-anchor="middle" x="302" y="-74.1218" font-family="Helvetica,sans-Serif" font-size="10.00" fill="#000000"> &lt; 3, T &gt;</text>
</g>
<!-- Node27 -->
<g id="node28" class="node">
<title>Node27</title>
<g id="a_node28"><a xlink:href="classTableBase.html" target="_top" xlink:title="TableBase\&lt; 2, T \&gt;">
<polygon fill="#ffffff" stroke="#000000" points="388,-357.6218 388,-376.6218 495,-376.6218 495,-357.6218 388,-357.6218"/>
<text text-anchor="middle" x="441.5" y="-364.6218" font-family="Helvetica,sans-Serif" font-size="10.00" fill="#000000">TableBase&lt; 2, T &gt;</text>
</a>
</g>
</g>
<!-- Node0&#45;&gt;Node27 -->
<g id="edge30" class="edge">
<title>Node0&#45;&gt;Node27</title>
<path fill="none" stroke="#ffa500" stroke-dasharray="5,2" d="M168.3237,-246.2137C178.0095,-272.1884 199.1513,-317.9593 234,-340.1218 279.9811,-369.3641 343.3176,-373.6078 387.8847,-372.1086"/>
<polygon fill="#ffa500" stroke="#ffa500" points="171.5998,-244.9799 164.9667,-236.7184 165.0001,-247.3132 171.5998,-244.9799"/>
<text text-anchor="middle" x="302" y="-375.1218" font-family="Helvetica,sans-Serif" font-size="10.00" fill="#000000"> &lt; 2, T &gt;</text>
</g>
<!-- Node30 -->
<g id="node31" class="node">
<title>Node30</title>
<g id="a_node31"><a xlink:href="classTableBase.html" target="_top" xlink:title="TableBase\&lt; 1, T \&gt;">
<polygon fill="#ffffff" stroke="#000000" points="388,-7.6218 388,-26.6218 495,-26.6218 495,-7.6218 388,-7.6218"/>
<text text-anchor="middle" x="441.5" y="-14.6218" font-family="Helvetica,sans-Serif" font-size="10.00" fill="#000000">TableBase&lt; 1, T &gt;</text>
</a>
</g>
</g>
<!-- Node0&#45;&gt;Node30 -->
<g id="edge38" class="edge">
<title>Node0&#45;&gt;Node30</title>
<path fill="none" stroke="#ffa500" stroke-dasharray="5,2" d="M166.1625,-207.7742C176.3856,-162.2105 204.0833,-50.3172 234,-28.1218 283.1077,8.3115 358.1517,1.3214 403.2585,-7.5619"/>
<polygon fill="#ffa500" stroke="#ffa500" points="162.7303,-207.0858 163.9987,-217.6044 169.5666,-208.5907 162.7303,-207.0858"/>
<text text-anchor="middle" x="302" y="-31.1218" font-family="Helvetica,sans-Serif" font-size="10.00" fill="#000000"> &lt; 1, T &gt;</text>
</g>
<!-- Node1 -->
<g id="node2" class="node">
<title>Node1</title>
<g id="a_node2"><a xlink:href="classSubscriptor.html" target="_top" xlink:title="Subscriptor">
<polygon fill="#ffffff" stroke="#000000" points="0,-217.6218 0,-236.6218 71,-236.6218 71,-217.6218 0,-217.6218"/>
<text text-anchor="middle" x="35.5" y="-224.6218" font-family="Helvetica,sans-Serif" font-size="10.00" fill="#000000">Subscriptor</text>
</a>
</g>
</g>
<!-- Node1&#45;&gt;Node0 -->
<g id="edge1" class="edge">
<title>Node1&#45;&gt;Node0</title>
<path fill="none" stroke="#191970" d="M81.2869,-227.1218C89.8888,-227.1218 98.9582,-227.1218 107.7878,-227.1218"/>
<polygon fill="#191970" stroke="#191970" points="81.074,-223.6219 71.0739,-227.1218 81.0739,-230.6219 81.074,-223.6219"/>
</g>
<!-- Node3 -->
<g id="node4" class="node">
<title>Node3</title>
<g id="a_node4"><a xlink:href="classTransposeTable.html" target="_top" xlink:title="TransposeTable\&lt; InverseNumber\lType \&gt;">
<polygon fill="#ffffff" stroke="#000000" points="974,-490.1218 974,-520.1218 1151,-520.1218 1151,-490.1218 974,-490.1218"/>
<text text-anchor="start" x="982" y="-508.1218" font-family="Helvetica,sans-Serif" font-size="10.00" fill="#000000">TransposeTable&lt; InverseNumber</text>
<text text-anchor="middle" x="1062.5" y="-497.1218" font-family="Helvetica,sans-Serif" font-size="10.00" fill="#000000">Type &gt;</text>
</a>
</g>
</g>
<!-- Node2&#45;&gt;Node3 -->
<g id="edge3" class="edge">
<title>Node2&#45;&gt;Node3</title>
<path fill="none" stroke="#191970" d="M687.4378,-508.3309C770.6149,-507.6192 892.0062,-506.5806 973.9611,-505.8793"/>
<polygon fill="#191970" stroke="#191970" points="687.2049,-504.8326 677.2352,-508.4182 687.2648,-511.8324 687.2049,-504.8326"/>
</g>
<!-- Node4 -->
<g id="node5" class="node">
<title>Node4</title>
<g id="a_node5"><a xlink:href="classLAPACKFullMatrix.html" target="_top" xlink:title="LAPACKFullMatrix\&lt; Inverse\lNumberType \&gt;">
<polygon fill="#ffffff" stroke="#000000" points="1541,-475.1218 1541,-505.1218 1690,-505.1218 1690,-475.1218 1541,-475.1218"/>
<text text-anchor="start" x="1549" y="-493.1218" font-family="Helvetica,sans-Serif" font-size="10.00" fill="#000000">LAPACKFullMatrix&lt; Inverse</text>
<text text-anchor="middle" x="1615.5" y="-482.1218" font-family="Helvetica,sans-Serif" font-size="10.00" fill="#000000">NumberType &gt;</text>
</a>
</g>
</g>
<!-- Node3&#45;&gt;Node4 -->
<g id="edge4" class="edge">
<title>Node3&#45;&gt;Node4</title>
<path fill="none" stroke="#191970" d="M1161.0478,-502.4487C1269.9234,-499.4955 1442.8024,-494.8062 1540.966,-492.1435"/>
<polygon fill="#191970" stroke="#191970" points="1160.9437,-498.9501 1151.0423,-502.7201 1161.1336,-505.9476 1160.9437,-498.9501"/>
</g>
<!-- Node6 -->
<g id="node7" class="node">
<title>Node6</title>
<g id="a_node7"><a xlink:href="classTransposeTable.html" target="_top" xlink:title="TransposeTable\&lt; Number \&gt;">
<polygon fill="#ffffff" stroke="#000000" points="986.5,-371.6218 986.5,-390.6218 1138.5,-390.6218 1138.5,-371.6218 986.5,-371.6218"/>
<text text-anchor="middle" x="1062.5" y="-378.6218" font-family="Helvetica,sans-Serif" font-size="10.00" fill="#000000">TransposeTable&lt; Number &gt;</text>
</a>
</g>
</g>
<!-- Node5&#45;&gt;Node6 -->
<g id="edge6" class="edge">
<title>Node5&#45;&gt;Node6</title>
<path fill="none" stroke="#191970" d="M675.149,-325.2876C766.0027,-322.1473 907.7523,-321.2514 956,-343.1218 966.5946,-347.9243 963.8591,-356.4234 974,-362.1218 980.85,-365.9709 988.4002,-369.0413 996.1158,-371.4902"/>
<polygon fill="#191970" stroke="#191970" points="675.0205,-321.7898 665.1536,-325.6491 675.2736,-328.7852 675.0205,-321.7898"/>
</g>
<!-- Node7 -->
<g id="node8" class="node">
<title>Node7</title>
<g id="a_node8"><a xlink:href="classLAPACKFullMatrix.html" target="_top" xlink:title="LAPACKFullMatrix\&lt; Number \&gt;">
<polygon fill="#ffffff" stroke="#000000" points="1534,-423.6218 1534,-442.6218 1697,-442.6218 1697,-423.6218 1534,-423.6218"/>
<text text-anchor="middle" x="1615.5" y="-430.6218" font-family="Helvetica,sans-Serif" font-size="10.00" fill="#000000">LAPACKFullMatrix&lt; Number &gt;</text>
</a>
</g>
</g>
<!-- Node6&#45;&gt;Node7 -->
<g id="edge7" class="edge">
<title>Node6&#45;&gt;Node7</title>
<path fill="none" stroke="#191970" d="M1148.603,-373.9624C1240.631,-368.4468 1390.2796,-365.6466 1516,-392.1218 1545.9831,-398.4359 1578.3852,-413.4865 1597.8019,-423.4886"/>
<polygon fill="#191970" stroke="#191970" points="1148.2632,-370.4767 1138.5006,-374.5927 1148.6992,-377.4631 1148.2632,-370.4767"/>
</g>
<!-- Node9 -->
<g id="node10" class="node">
<title>Node9</title>
<g id="a_node10"><a xlink:href="classTransposeTable.html" target="_top" xlink:title="TransposeTable\&lt; inverse\l_type \&gt;">
<polygon fill="#ffffff" stroke="#000000" points="993.5,-322.1218 993.5,-352.1218 1131.5,-352.1218 1131.5,-322.1218 993.5,-322.1218"/>
<text text-anchor="start" x="1001.5" y="-340.1218" font-family="Helvetica,sans-Serif" font-size="10.00" fill="#000000">TransposeTable&lt; inverse</text>
<text text-anchor="middle" x="1062.5" y="-329.1218" font-family="Helvetica,sans-Serif" font-size="10.00" fill="#000000">_type &gt;</text>
</a>
</g>
</g>
<!-- Node8&#45;&gt;Node9 -->
<g id="edge9" class="edge">
<title>Node8&#45;&gt;Node9</title>
<path fill="none" stroke="#191970" d="M667.8097,-278.3241C741.337,-275.1574 857.7712,-274.7559 956,-295.1218 982.6623,-300.6497 1011.2884,-312.2895 1032.1405,-321.9164"/>
<polygon fill="#191970" stroke="#191970" points="667.5546,-274.832 657.7258,-278.7874 667.8759,-281.8246 667.5546,-274.832"/>
</g>
<!-- Node10 -->
<g id="node11" class="node">
<title>Node10</title>
<g id="a_node11"><a xlink:href="classLAPACKFullMatrix.html" target="_top" xlink:title="LAPACKFullMatrix\&lt; inverse\l_type \&gt;">
<polygon fill="#ffffff" stroke="#000000" points="1541,-349.1218 1541,-379.1218 1690,-379.1218 1690,-349.1218 1541,-349.1218"/>
<text text-anchor="start" x="1549" y="-367.1218" font-family="Helvetica,sans-Serif" font-size="10.00" fill="#000000">LAPACKFullMatrix&lt; inverse</text>
<text text-anchor="middle" x="1615.5" y="-356.1218" font-family="Helvetica,sans-Serif" font-size="10.00" fill="#000000">_type &gt;</text>
</a>
</g>
</g>
<!-- Node9&#45;&gt;Node10 -->
<g id="edge10" class="edge">
<title>Node9&#45;&gt;Node10</title>
<path fill="none" stroke="#191970" d="M1141.7594,-340.9916C1248.413,-346.1989 1436.7377,-355.3938 1540.932,-360.481"/>
<polygon fill="#191970" stroke="#191970" points="1141.8574,-337.4923 1131.6986,-340.5004 1141.516,-344.484 1141.8574,-337.4923"/>
</g>
<!-- Node12 -->
<g id="node13" class="node">
<title>Node12</title>
<g id="a_node13"><a xlink:href="classTable_3_017_00_01T_01_4.html" target="_top" xlink:title="Table\&lt; 7, T \&gt;">
<polygon fill="#ffffff" stroke="#000000" points="713,-197.6218 713,-216.6218 796,-216.6218 796,-197.6218 713,-197.6218"/>
<text text-anchor="middle" x="754.5" y="-204.6218" font-family="Helvetica,sans-Serif" font-size="10.00" fill="#000000">Table&lt; 7, T &gt;</text>
</a>
</g>
</g>
<!-- Node11&#45;&gt;Node12 -->
<g id="edge12" class="edge">
<title>Node11&#45;&gt;Node12</title>
<path fill="none" stroke="#191970" d="M505.3738,-207.1218C567.4137,-207.1218 659.7905,-207.1218 712.8867,-207.1218"/>
<polygon fill="#191970" stroke="#191970" points="505.3067,-203.6219 495.3066,-207.1218 505.3066,-210.6219 505.3067,-203.6219"/>
</g>
<!-- Node14 -->
<g id="node15" class="node">
<title>Node14</title>
<g id="a_node15"><a xlink:href="classTable_3_016_00_01T_01_4.html" target="_top" xlink:title="Table\&lt; 6, T \&gt;">
<polygon fill="#ffffff" stroke="#000000" points="713,-159.6218 713,-178.6218 796,-178.6218 796,-159.6218 713,-159.6218"/>
<text text-anchor="middle" x="754.5" y="-166.6218" font-family="Helvetica,sans-Serif" font-size="10.00" fill="#000000">Table&lt; 6, T &gt;</text>
</a>
</g>
</g>
<!-- Node13&#45;&gt;Node14 -->
<g id="edge14" class="edge">
<title>Node13&#45;&gt;Node14</title>
<path fill="none" stroke="#191970" d="M505.3738,-169.1218C567.4137,-169.1218 659.7905,-169.1218 712.8867,-169.1218"/>
<polygon fill="#191970" stroke="#191970" points="505.3067,-165.6219 495.3066,-169.1218 505.3066,-172.6219 505.3067,-165.6219"/>
</g>
<!-- Node16 -->
<g id="node17" class="node">
<title>Node16</title>
<g id="a_node17"><a xlink:href="classTable_3_015_00_01T_01_4.html" target="_top" xlink:title="Table\&lt; 5, T \&gt;">
<polygon fill="#ffffff" stroke="#000000" points="713,-121.6218 713,-140.6218 796,-140.6218 796,-121.6218 713,-121.6218"/>
<text text-anchor="middle" x="754.5" y="-128.6218" font-family="Helvetica,sans-Serif" font-size="10.00" fill="#000000">Table&lt; 5, T &gt;</text>
</a>
</g>
</g>
<!-- Node15&#45;&gt;Node16 -->
<g id="edge16" class="edge">
<title>Node15&#45;&gt;Node16</title>
<path fill="none" stroke="#191970" d="M505.3738,-131.1218C567.4137,-131.1218 659.7905,-131.1218 712.8867,-131.1218"/>
<polygon fill="#191970" stroke="#191970" points="505.3067,-127.6219 495.3066,-131.1218 505.3066,-134.6219 505.3067,-127.6219"/>
</g>
<!-- Node18 -->
<g id="node19" class="node">
<title>Node18</title>
<g id="a_node19"><a xlink:href="classTransposeTable.html" target="_top" xlink:title="TransposeTable\&lt; number \&gt;">
<polygon fill="#ffffff" stroke="#000000" points="987,-435.6218 987,-454.6218 1138,-454.6218 1138,-435.6218 987,-435.6218"/>
<text text-anchor="middle" x="1062.5" y="-442.6218" font-family="Helvetica,sans-Serif" font-size="10.00" fill="#000000">TransposeTable&lt; number &gt;</text>
</a>
</g>
</g>
<!-- Node17&#45;&gt;Node18 -->
<g id="edge18" class="edge">
<title>Node17&#45;&gt;Node18</title>
<path fill="none" stroke="#191970" d="M665.7033,-470.957C738.7569,-480.3537 855.9025,-490.3938 956,-476.1218 984.4056,-472.0717 1015.8233,-462.2346 1037.1241,-454.7189"/>
<polygon fill="#191970" stroke="#191970" points="666.0657,-467.4746 655.6941,-469.6379 665.151,-474.4146 666.0657,-467.4746"/>
</g>
<!-- Node19 -->
<g id="node20" class="node">
<title>Node19</title>
<g id="a_node20"><a xlink:href="classLAPACKFullMatrix.html" target="_top" xlink:title="LAPACKFullMatrix\&lt; number \&gt;">
<polygon fill="#ffffff" stroke="#000000" points="1200.5,-435.6218 1200.5,-454.6218 1361.5,-454.6218 1361.5,-435.6218 1200.5,-435.6218"/>
<text text-anchor="middle" x="1281" y="-442.6218" font-family="Helvetica,sans-Serif" font-size="10.00" fill="#000000">LAPACKFullMatrix&lt; number &gt;</text>
</a>
</g>
</g>
<!-- Node18&#45;&gt;Node19 -->
<g id="edge19" class="edge">
<title>Node18&#45;&gt;Node19</title>
<path fill="none" stroke="#191970" d="M1148.0202,-445.1218C1165.2217,-445.1218 1183.248,-445.1218 1200.2794,-445.1218"/>
<polygon fill="#191970" stroke="#191970" points="1148.0013,-441.6219 1138.0013,-445.1218 1148.0012,-448.6219 1148.0013,-441.6219"/>
</g>
<!-- Node19&#45;&gt;Node4 -->
<g id="edge20" class="edge">
<title>Node19&#45;&gt;Node4</title>
<path fill="none" stroke="#ffa500" stroke-dasharray="5,2" d="M1361.9109,-456.0067C1416.4107,-463.3385 1487.7631,-472.9375 1540.8935,-480.085"/>
<polygon fill="#ffa500" stroke="#ffa500" points="1362.3162,-452.5297 1351.9388,-454.6651 1361.3829,-459.4673 1362.3162,-452.5297"/>
<text text-anchor="middle" x="1454" y="-478.1218" font-family="Helvetica,sans-Serif" font-size="10.00" fill="#000000"> &lt; InverseNumberType &gt;</text>
</g>
<!-- Node19&#45;&gt;Node7 -->
<g id="edge22" class="edge">
<title>Node19&#45;&gt;Node7</title>
<path fill="none" stroke="#ffa500" stroke-dasharray="5,2" d="M1371.825,-441.8635C1422.4141,-440.0486 1484.8875,-437.8074 1533.9111,-436.0487"/>
<polygon fill="#ffa500" stroke="#ffa500" points="1371.4148,-438.3759 1361.5468,-442.2322 1371.6658,-445.3714 1371.4148,-438.3759"/>
<text text-anchor="middle" x="1454" y="-443.1218" font-family="Helvetica,sans-Serif" font-size="10.00" fill="#000000"> &lt; Number &gt;</text>
</g>
<!-- Node19&#45;&gt;Node10 -->
<g id="edge21" class="edge">
<title>Node19&#45;&gt;Node10</title>
<path fill="none" stroke="#ffa500" stroke-dasharray="5,2" d="M1330.209,-433.2057C1389.3983,-418.8729 1488.8213,-394.7974 1553.2803,-379.1884"/>
<polygon fill="#ffa500" stroke="#ffa500" points="1329.2504,-429.8366 1320.355,-435.5919 1330.8979,-436.64 1329.2504,-429.8366"/>
<text text-anchor="middle" x="1454" y="-419.1218" font-family="Helvetica,sans-Serif" font-size="10.00" fill="#000000"> &lt; inverse_type &gt;</text>
</g>
<!-- Node21 -->
<g id="node22" class="node">
<title>Node21</title>
<g id="a_node22"><a xlink:href="classTransposeTable.html" target="_top" xlink:title="TransposeTable\&lt; NumberType \&gt;">
<polygon fill="#ffffff" stroke="#000000" points="975,-267.6218 975,-286.6218 1150,-286.6218 1150,-267.6218 975,-267.6218"/>
<text text-anchor="middle" x="1062.5" y="-274.6218" font-family="Helvetica,sans-Serif" font-size="10.00" fill="#000000">TransposeTable&lt; NumberType &gt;</text>
</a>
</g>
</g>
<!-- Node20&#45;&gt;Node21 -->
<g id="edge24" class="edge">
<title>Node20&#45;&gt;Node21</title>
<path fill="none" stroke="#191970" d="M686.3186,-245.4223C759.4389,-246.4428 864.5368,-249.6587 956,-259.1218 975.1185,-261.0999 996.0006,-264.3796 1014.1691,-267.6015"/>
<polygon fill="#191970" stroke="#191970" points="686.2622,-241.9214 676.218,-245.2924 686.1722,-248.9208 686.2622,-241.9214"/>
</g>
<!-- Node22 -->
<g id="node23" class="node">
<title>Node22</title>
<g id="a_node23"><a xlink:href="classScaLAPACKMatrix.html" target="_top" xlink:title="ScaLAPACKMatrix\&lt; NumberType \&gt;">
<polygon fill="#ffffff" stroke="#000000" points="1188,-267.6218 1188,-286.6218 1374,-286.6218 1374,-267.6218 1188,-267.6218"/>
<text text-anchor="middle" x="1281" y="-274.6218" font-family="Helvetica,sans-Serif" font-size="10.00" fill="#000000">ScaLAPACKMatrix&lt; NumberType &gt;</text>
</a>
</g>
</g>
<!-- Node21&#45;&gt;Node22 -->
<g id="edge25" class="edge">
<title>Node21&#45;&gt;Node22</title>
<path fill="none" stroke="#006400" d="M1160.3148,-277.1218C1169.4026,-277.1218 1178.5971,-277.1218 1187.6431,-277.1218"/>
<polygon fill="#006400" stroke="#006400" points="1160.1134,-273.6219 1150.1133,-277.1218 1160.1133,-280.6219 1160.1134,-273.6219"/>
</g>
<!-- Node24 -->
<g id="node25" class="node">
<title>Node24</title>
<g id="a_node25"><a xlink:href="classTable_3_014_00_01T_01_4.html" target="_top" xlink:title="Table\&lt; 4, T \&gt;">
<polygon fill="#ffffff" stroke="#000000" points="713,-83.6218 713,-102.6218 796,-102.6218 796,-83.6218 713,-83.6218"/>
<text text-anchor="middle" x="754.5" y="-90.6218" font-family="Helvetica,sans-Serif" font-size="10.00" fill="#000000">Table&lt; 4, T &gt;</text>
</a>
</g>
</g>
<!-- Node23&#45;&gt;Node24 -->
<g id="edge27" class="edge">
<title>Node23&#45;&gt;Node24</title>
<path fill="none" stroke="#191970" d="M505.3738,-93.1218C567.4137,-93.1218 659.7905,-93.1218 712.8867,-93.1218"/>
<polygon fill="#191970" stroke="#191970" points="505.3067,-89.6219 495.3066,-93.1218 505.3066,-96.6219 505.3067,-89.6219"/>
</g>
<!-- Node26 -->
<g id="node27" class="node">
<title>Node26</title>
<g id="a_node27"><a xlink:href="classTable_3_013_00_01T_01_4.html" target="_top" xlink:title="Table\&lt; 3, T \&gt;">
<polygon fill="#ffffff" stroke="#000000" points="713,-45.6218 713,-64.6218 796,-64.6218 796,-45.6218 713,-45.6218"/>
<text text-anchor="middle" x="754.5" y="-52.6218" font-family="Helvetica,sans-Serif" font-size="10.00" fill="#000000">Table&lt; 3, T &gt;</text>
</a>
</g>
</g>
<!-- Node25&#45;&gt;Node26 -->
<g id="edge29" class="edge">
<title>Node25&#45;&gt;Node26</title>
<path fill="none" stroke="#191970" d="M505.3738,-55.1218C567.4137,-55.1218 659.7905,-55.1218 712.8867,-55.1218"/>
<polygon fill="#191970" stroke="#191970" points="505.3067,-51.6219 495.3066,-55.1218 505.3066,-58.6219 505.3067,-51.6219"/>
</g>
<!-- Node28 -->
<g id="node29" class="node">
<title>Node28</title>
<g id="a_node29"><a xlink:href="classTable_3_012_00_01T_01_4.html" target="_top" xlink:title="Table\&lt; 2, T \&gt;">
<polygon fill="#ffffff" stroke="#000000" points="713,-395.6218 713,-414.6218 796,-414.6218 796,-395.6218 713,-395.6218"/>
<text text-anchor="middle" x="754.5" y="-402.6218" font-family="Helvetica,sans-Serif" font-size="10.00" fill="#000000">Table&lt; 2, T &gt;</text>
</a>
</g>
</g>
<!-- Node27&#45;&gt;Node28 -->
<g id="edge31" class="edge">
<title>Node27&#45;&gt;Node28</title>
<path fill="none" stroke="#191970" d="M496.645,-378.4582C502.1584,-379.4296 507.6816,-380.3386 513,-381.1218 582.8208,-391.4034 664.6618,-398.505 712.9028,-402.1864"/>
<polygon fill="#191970" stroke="#191970" points="497.2442,-375.0098 486.778,-376.6558 495.9862,-381.8958 497.2442,-375.0098"/>
</g>
<!-- Node29 -->
<g id="node30" class="node">
<title>Node29</title>
<g id="a_node30"><a xlink:href="classTransposeTable.html" target="_top" xlink:title="TransposeTable\&lt; T \&gt;">
<polygon fill="#ffffff" stroke="#000000" points="695,-357.6218 695,-376.6218 814,-376.6218 814,-357.6218 695,-357.6218"/>
<text text-anchor="middle" x="754.5" y="-364.6218" font-family="Helvetica,sans-Serif" font-size="10.00" fill="#000000">TransposeTable&lt; T &gt;</text>
</a>
</g>
</g>
<!-- Node27&#45;&gt;Node29 -->
<g id="edge32" class="edge">
<title>Node27&#45;&gt;Node29</title>
<path fill="none" stroke="#191970" d="M505.3673,-367.1218C560.821,-367.1218 640.5159,-367.1218 694.7309,-367.1218"/>
<polygon fill="#191970" stroke="#191970" points="505.3067,-363.6219 495.3066,-367.1218 505.3066,-370.6219 505.3067,-363.6219"/>
</g>
<!-- Node29&#45;&gt;Node3 -->
<g id="edge33" class="edge">
<title>Node29&#45;&gt;Node3</title>
<path fill="none" stroke="#ffa500" stroke-dasharray="5,2" d="M809.2416,-382.0987C810.9216,-383.3349 812.516,-384.6732 814,-386.1218 831.501,-403.2051 814.2766,-421.2693 832,-438.1218 870.0525,-474.3044 926.4853,-491.1004 973.9872,-498.8283"/>
<polygon fill="#ffa500" stroke="#ffa500" points="810.6241,-378.8479 800.2434,-376.7285 807.0367,-384.8588 810.6241,-378.8479"/>
<text text-anchor="middle" x="894" y="-497.1218" font-family="Helvetica,sans-Serif" font-size="10.00" fill="#000000"> &lt; InverseNumberType &gt;</text>
</g>
<!-- Node29&#45;&gt;Node6 -->
<g id="edge36" class="edge">
<title>Node29&#45;&gt;Node6</title>
<path fill="none" stroke="#ffa500" stroke-dasharray="5,2" d="M824.2727,-373.62C826.8805,-373.8006 829.4631,-373.9688 832,-374.1218 883.4527,-377.224 941.4535,-378.9764 986.4015,-379.952"/>
<polygon fill="#ffa500" stroke="#ffa500" points="824.3633,-370.1173 814.1322,-372.8696 823.8466,-377.0982 824.3633,-370.1173"/>
<text text-anchor="middle" x="894" y="-381.1218" font-family="Helvetica,sans-Serif" font-size="10.00" fill="#000000"> &lt; Number &gt;</text>
</g>
<!-- Node29&#45;&gt;Node9 -->
<g id="edge35" class="edge">
<title>Node29&#45;&gt;Node9</title>
<path fill="none" stroke="#ffa500" stroke-dasharray="5,2" d="M824.4323,-360.3102C874.9491,-355.3897 942.8676,-348.7743 993.2311,-343.8688"/>
<polygon fill="#ffa500" stroke="#ffa500" points="823.8643,-356.8489 814.2507,-361.3019 824.5429,-363.8159 823.8643,-356.8489"/>
<text text-anchor="middle" x="894" y="-361.1218" font-family="Helvetica,sans-Serif" font-size="10.00" fill="#000000"> &lt; inverse_type &gt;</text>
</g>
<!-- Node29&#45;&gt;Node18 -->
<g id="edge37" class="edge">
<title>Node29&#45;&gt;Node18</title>
<path fill="none" stroke="#ffa500" stroke-dasharray="5,2" d="M795.2402,-379.7625C801.543,-381.8244 807.962,-383.986 814,-386.1218 822.0923,-388.9843 823.7906,-390.6148 832,-393.1218 892.0286,-411.4534 962.6372,-426.4471 1009.7377,-435.5447"/>
<polygon fill="#ffa500" stroke="#ffa500" points="796.0945,-376.3606 785.5029,-376.6226 793.9462,-383.0228 796.0945,-376.3606"/>
<text text-anchor="middle" x="894" y="-426.1218" font-family="Helvetica,sans-Serif" font-size="10.00" fill="#000000"> &lt; number &gt;</text>
</g>
<!-- Node29&#45;&gt;Node21 -->
<g id="edge34" class="edge">
<title>Node29&#45;&gt;Node21</title>
<path fill="none" stroke="#ffa500" stroke-dasharray="5,2" d="M781.8819,-353.2176C796.4876,-346.1972 814.9243,-337.9556 832,-332.1218 891.7597,-311.7051 962.7265,-295.9983 1009.975,-286.6936"/>
<polygon fill="#ffa500" stroke="#ffa500" points="780.3342,-350.0783 772.8899,-357.617 783.4106,-356.366 780.3342,-350.0783"/>
<text text-anchor="middle" x="894" y="-335.1218" font-family="Helvetica,sans-Serif" font-size="10.00" fill="#000000"> &lt; NumberType &gt;</text>
</g>
<!-- Node31 -->
<g id="node32" class="node">
<title>Node31</title>
<g id="a_node32"><a xlink:href="classTable_3_011_00_01T_01_4.html" target="_top" xlink:title="Table\&lt; 1, T \&gt;">
<polygon fill="#ffffff" stroke="#000000" points="713,-7.6218 713,-26.6218 796,-26.6218 796,-7.6218 713,-7.6218"/>
<text text-anchor="middle" x="754.5" y="-14.6218" font-family="Helvetica,sans-Serif" font-size="10.00" fill="#000000">Table&lt; 1, T &gt;</text>
</a>
</g>
</g>
<!-- Node30&#45;&gt;Node31 -->
<g id="edge39" class="edge">
<title>Node30&#45;&gt;Node31</title>
<path fill="none" stroke="#191970" d="M505.3738,-17.1218C567.4137,-17.1218 659.7905,-17.1218 712.8867,-17.1218"/>
<polygon fill="#191970" stroke="#191970" points="505.3067,-13.6219 495.3066,-17.1218 505.3066,-20.6219 505.3067,-13.6219"/>
</g>
</g>
</svg>
