<?xml version="1.0" encoding="UTF-8" standalone="no"?>
<!DOCTYPE svg PUBLIC "-//W3C//DTD SVG 1.1//EN"
 "http://www.w3.org/Graphics/SVG/1.1/DTD/svg11.dtd">
<!-- Generated by graphviz version 2.40.1 (20161225.0304)
 -->
<!-- Title: SparseMatrix&lt; number &gt; Pages: 1 -->
<svg width="280pt" height="207pt"
 viewBox="0.00 0.00 279.50 207.00" xmlns="http://www.w3.org/2000/svg" xmlns:xlink="http://www.w3.org/1999/xlink">
<g id="graph0" class="graph" transform="scale(1 1) rotate(0) translate(4 203)">
<title>SparseMatrix&lt; number &gt;</title>
<polygon fill="#ffffff" stroke="transparent" points="-4,4 -4,-203 275.5,-203 275.5,4 -4,4"/>
<!-- Node0 -->
<g id="node1" class="node">
<title>Node0</title>
<polygon fill="#bfbfbf" stroke="#000000" points="64.5,-123.5 64.5,-142.5 204.5,-142.5 204.5,-123.5 64.5,-123.5"/>
<text text-anchor="middle" x="134.5" y="-130.5" font-family="Helvetica,sans-Serif" font-size="10.00" fill="#000000">SparseMatrix&lt; number &gt;</text>
</g>
<!-- Node2 -->
<g id="node3" class="node">
<title>Node2</title>
<g id="a_node3"><a xlink:href="classSparseLUDecomposition.html" target="_top" xlink:title="SparseLUDecomposition\l\&lt; number \&gt;">
<polygon fill="#ffffff" stroke="#000000" points="67,-56.5 67,-86.5 202,-86.5 202,-56.5 67,-56.5"/>
<text text-anchor="start" x="75" y="-74.5" font-family="Helvetica,sans-Serif" font-size="10.00" fill="#000000">SparseLUDecomposition</text>
<text text-anchor="middle" x="134.5" y="-63.5" font-family="Helvetica,sans-Serif" font-size="10.00" fill="#000000">&lt; number &gt;</text>
</a>
</g>
</g>
<!-- Node0&#45;&gt;Node2 -->
<g id="edge2" class="edge">
<title>Node0&#45;&gt;Node2</title>
<path fill="none" stroke="#006400" d="M134.5,-113.3693C134.5,-104.681 134.5,-94.6241 134.5,-86.5446"/>
<polygon fill="#006400" stroke="#006400" points="131.0001,-113.3906 134.5,-123.3906 138.0001,-113.3907 131.0001,-113.3906"/>
</g>
<!-- Node1 -->
<g id="node2" class="node">
<title>Node1</title>
<g id="a_node2"><a xlink:href="classSubscriptor.html" target="_top" xlink:title="Subscriptor">
<polygon fill="#ffffff" stroke="#000000" points="99,-179.5 99,-198.5 170,-198.5 170,-179.5 99,-179.5"/>
<text text-anchor="middle" x="134.5" y="-186.5" font-family="Helvetica,sans-Serif" font-size="10.00" fill="#000000">Subscriptor</text>
</a>
</g>
</g>
<!-- Node1&#45;&gt;Node0 -->
<g id="edge1" class="edge">
<title>Node1&#45;&gt;Node0</title>
<path fill="none" stroke="#191970" d="M134.5,-169.1575C134.5,-160.155 134.5,-149.9199 134.5,-142.6427"/>
<polygon fill="#191970" stroke="#191970" points="131.0001,-169.2455 134.5,-179.2455 138.0001,-169.2456 131.0001,-169.2455"/>
</g>
<!-- Node3 -->
<g id="node4" class="node">
<title>Node3</title>
<g id="a_node4"><a xlink:href="classSparseILU.html" target="_top" xlink:title="SparseILU\&lt; number \&gt;">
<polygon fill="#ffffff" stroke="#000000" points="0,-.5 0,-19.5 125,-19.5 125,-.5 0,-.5"/>
<text text-anchor="middle" x="62.5" y="-7.5" font-family="Helvetica,sans-Serif" font-size="10.00" fill="#000000">SparseILU&lt; number &gt;</text>
</a>
</g>
</g>
<!-- Node2&#45;&gt;Node3 -->
<g id="edge3" class="edge">
<title>Node2&#45;&gt;Node3</title>
<path fill="none" stroke="#191970" d="M108.8018,-49.5494C96.9087,-39.3907 83.3776,-27.8329 74.0281,-19.8469"/>
<polygon fill="#191970" stroke="#191970" points="106.8253,-52.4642 116.7022,-56.2977 111.3717,-47.1415 106.8253,-52.4642"/>
</g>
<!-- Node4 -->
<g id="node5" class="node">
<title>Node4</title>
<g id="a_node5"><a xlink:href="classSparseMIC.html" target="_top" xlink:title="SparseMIC\&lt; number \&gt;">
<polygon fill="#ffffff" stroke="#000000" points="143.5,-.5 143.5,-19.5 271.5,-19.5 271.5,-.5 143.5,-.5"/>
<text text-anchor="middle" x="207.5" y="-7.5" font-family="Helvetica,sans-Serif" font-size="10.00" fill="#000000">SparseMIC&lt; number &gt;</text>
</a>
</g>
</g>
<!-- Node2&#45;&gt;Node4 -->
<g id="edge4" class="edge">
<title>Node2&#45;&gt;Node4</title>
<path fill="none" stroke="#191970" d="M160.2078,-49.8421C172.3492,-39.6133 186.2413,-27.9097 195.8118,-19.8469"/>
<polygon fill="#191970" stroke="#191970" points="157.9377,-47.178 152.5449,-56.2977 162.4478,-52.5315 157.9377,-47.178"/>
</g>
</g>
</svg>
