<?xml version="1.0" encoding="UTF-8" standalone="no"?>
<!DOCTYPE svg PUBLIC "-//W3C//DTD SVG 1.1//EN"
 "http://www.w3.org/Graphics/SVG/1.1/DTD/svg11.dtd">
<!-- Generated by graphviz version 2.40.1 (20161225.0304)
 -->
<!-- Title: Functions::IdentityFunction&lt; dim, RangeNumberType &gt; Pages: 1 -->
<svg width="277pt" height="275pt"
 viewBox="0.00 0.00 277.00 275.00" xmlns="http://www.w3.org/2000/svg" xmlns:xlink="http://www.w3.org/1999/xlink">
<g id="graph0" class="graph" transform="scale(1 1) rotate(0) translate(4 271)">
<title>Functions::IdentityFunction&lt; dim, RangeNumberType &gt;</title>
<polygon fill="#ffffff" stroke="transparent" points="-4,4 -4,-271 273,-271 273,4 -4,4"/>
<!-- Node0 -->
<g id="node1" class="node">
<title>Node0</title>
<polygon fill="#bfbfbf" stroke="#000000" points="109.5,-.5 109.5,-30.5 265.5,-30.5 265.5,-.5 109.5,-.5"/>
<text text-anchor="start" x="117.5" y="-18.5" font-family="Helvetica,sans-Serif" font-size="10.00" fill="#000000">Functions::IdentityFunction</text>
<text text-anchor="middle" x="187.5" y="-7.5" font-family="Helvetica,sans-Serif" font-size="10.00" fill="#000000">&lt; dim, RangeNumberType &gt;</text>
</g>
<!-- Node1 -->
<g id="node2" class="node">
<title>Node1</title>
<g id="a_node2"><a xlink:href="classFunction.html" target="_top" xlink:title="Function\&lt; dim, RangeNumber\lType \&gt;">
<polygon fill="#ffffff" stroke="#000000" points="106,-68.5 106,-98.5 269,-98.5 269,-68.5 106,-68.5"/>
<text text-anchor="start" x="114" y="-86.5" font-family="Helvetica,sans-Serif" font-size="10.00" fill="#000000">Function&lt; dim, RangeNumber</text>
<text text-anchor="middle" x="187.5" y="-75.5" font-family="Helvetica,sans-Serif" font-size="10.00" fill="#000000">Type &gt;</text>
</a>
</g>
</g>
<!-- Node1&#45;&gt;Node0 -->
<g id="edge1" class="edge">
<title>Node1&#45;&gt;Node0</title>
<path fill="none" stroke="#191970" d="M187.5,-58.1174C187.5,-48.8378 187.5,-38.6413 187.5,-30.5492"/>
<polygon fill="#191970" stroke="#191970" points="184.0001,-58.4086 187.5,-68.4086 191.0001,-58.4086 184.0001,-58.4086"/>
</g>
<!-- Node2 -->
<g id="node3" class="node">
<title>Node2</title>
<g id="a_node3"><a xlink:href="classFunctionTime.html" target="_top" xlink:title="FunctionTime\&lt; numbers\l::NumberTraits\&lt; RangeNumber\lType \&gt;::real_type \&gt;">
<polygon fill="#ffffff" stroke="#000000" points="0,-136.5 0,-177.5 169,-177.5 169,-136.5 0,-136.5"/>
<text text-anchor="start" x="8" y="-165.5" font-family="Helvetica,sans-Serif" font-size="10.00" fill="#000000">FunctionTime&lt; numbers</text>
<text text-anchor="start" x="8" y="-154.5" font-family="Helvetica,sans-Serif" font-size="10.00" fill="#000000">::NumberTraits&lt; RangeNumber</text>
<text text-anchor="middle" x="84.5" y="-143.5" font-family="Helvetica,sans-Serif" font-size="10.00" fill="#000000">Type &gt;::real_type &gt;</text>
</a>
</g>
</g>
<!-- Node2&#45;&gt;Node1 -->
<g id="edge2" class="edge">
<title>Node2&#45;&gt;Node1</title>
<path fill="none" stroke="#191970" d="M122.0032,-130.238C136.9072,-119.6027 153.5036,-107.7596 166.2608,-98.6561"/>
<polygon fill="#191970" stroke="#191970" points="119.5723,-127.6729 113.4653,-136.3306 123.6384,-133.3709 119.5723,-127.6729"/>
</g>
<!-- Node3 -->
<g id="node4" class="node">
<title>Node3</title>
<g id="a_node4"><a xlink:href="classFunctionTime.html" target="_top" xlink:title="FunctionTime\&lt; Number \&gt;">
<polygon fill="#ffffff" stroke="#000000" points="13,-247.5 13,-266.5 156,-266.5 156,-247.5 13,-247.5"/>
<text text-anchor="middle" x="84.5" y="-254.5" font-family="Helvetica,sans-Serif" font-size="10.00" fill="#000000">FunctionTime&lt; Number &gt;</text>
</a>
</g>
</g>
<!-- Node3&#45;&gt;Node2 -->
<g id="edge3" class="edge">
<title>Node3&#45;&gt;Node2</title>
<path fill="none" stroke="#ffa500" stroke-dasharray="5,2" d="M84.5,-237.3945C84.5,-220.2216 84.5,-195.3404 84.5,-177.8169"/>
<polygon fill="#ffa500" stroke="#ffa500" points="81.0001,-237.4115 84.5,-247.4116 88.0001,-237.4116 81.0001,-237.4115"/>
<text text-anchor="start" x="84.5" y="-221" font-family="Helvetica,sans-Serif" font-size="10.00" fill="#000000"> &lt; numbers::NumberTraits</text>
<text text-anchor="start" x="84.5" y="-210" font-family="Helvetica,sans-Serif" font-size="10.00" fill="#000000">&lt; RangeNumberType &gt;::real</text>
<text text-anchor="middle" x="154.5" y="-199" font-family="Helvetica,sans-Serif" font-size="10.00" fill="#000000">_type &gt;</text>
</g>
<!-- Node4 -->
<g id="node5" class="node">
<title>Node4</title>
<g id="a_node5"><a xlink:href="classSubscriptor.html" target="_top" xlink:title="Subscriptor">
<polygon fill="#ffffff" stroke="#000000" points="187,-147.5 187,-166.5 258,-166.5 258,-147.5 187,-147.5"/>
<text text-anchor="middle" x="222.5" y="-154.5" font-family="Helvetica,sans-Serif" font-size="10.00" fill="#000000">Subscriptor</text>
</a>
</g>
</g>
<!-- Node4&#45;&gt;Node1 -->
<g id="edge4" class="edge">
<title>Node4&#45;&gt;Node1</title>
<path fill="none" stroke="#191970" d="M213.5046,-138.1097C207.6816,-125.8813 200.1986,-110.1672 194.756,-98.7376"/>
<polygon fill="#191970" stroke="#191970" points="210.465,-139.8673 217.9244,-147.3912 216.785,-136.8578 210.465,-139.8673"/>
</g>
</g>
</svg>
