<?xml version="1.0" encoding="UTF-8" standalone="no"?>
<!DOCTYPE svg PUBLIC "-//W3C//DTD SVG 1.1//EN"
 "http://www.w3.org/Graphics/SVG/1.1/DTD/svg11.dtd">
<!-- Generated by graphviz version 2.40.1 (20161225.0304)
 -->
<!-- Title: FEValuesBase&lt; dim, spacedim &gt;::TriaCellIterator Pages: 1 -->
<svg width="171pt" height="106pt"
 viewBox="0.00 0.00 171.00 106.00" xmlns="http://www.w3.org/2000/svg" xmlns:xlink="http://www.w3.org/1999/xlink">
<g id="graph0" class="graph" transform="scale(1 1) rotate(0) translate(4 102)">
<title>FEValuesBase&lt; dim, spacedim &gt;::TriaCellIterator</title>
<polygon fill="#ffffff" stroke="transparent" points="-4,4 -4,-102 167,-102 167,4 -4,4"/>
<!-- Node0 -->
<g id="node1" class="node">
<title>Node0</title>
<polygon fill="#bfbfbf" stroke="#000000" points="3.5,-.5 3.5,-30.5 159.5,-30.5 159.5,-.5 3.5,-.5"/>
<text text-anchor="start" x="11.5" y="-18.5" font-family="Helvetica,sans-Serif" font-size="10.00" fill="#000000">FEValuesBase&lt; dim,</text>
<text text-anchor="middle" x="81.5" y="-7.5" font-family="Helvetica,sans-Serif" font-size="10.00" fill="#000000"> spacedim &gt;::TriaCellIterator</text>
</g>
<!-- Node1 -->
<g id="node2" class="node">
<title>Node1</title>
<g id="a_node2"><a xlink:href="classFEValuesBase_1_1CellIteratorBase.html" target="_top" xlink:title="FEValuesBase\&lt; dim,\l spacedim \&gt;::CellIteratorBase">
<polygon fill="#ffffff" stroke="#000000" points="0,-67.5 0,-97.5 163,-97.5 163,-67.5 0,-67.5"/>
<text text-anchor="start" x="8" y="-85.5" font-family="Helvetica,sans-Serif" font-size="10.00" fill="#000000">FEValuesBase&lt; dim,</text>
<text text-anchor="middle" x="81.5" y="-74.5" font-family="Helvetica,sans-Serif" font-size="10.00" fill="#000000"> spacedim &gt;::CellIteratorBase</text>
</a>
</g>
</g>
<!-- Node1&#45;&gt;Node0 -->
<g id="edge1" class="edge">
<title>Node1&#45;&gt;Node0</title>
<path fill="none" stroke="#191970" d="M81.5,-57.0249C81.5,-48.128 81.5,-38.4287 81.5,-30.6432"/>
<polygon fill="#191970" stroke="#191970" points="78.0001,-57.2966 81.5,-67.2967 85.0001,-57.2967 78.0001,-57.2966"/>
</g>
</g>
</svg>
