<?xml version="1.0" encoding="UTF-8" standalone="no"?>
<!DOCTYPE svg PUBLIC "-//W3C//DTD SVG 1.1//EN"
 "http://www.w3.org/Graphics/SVG/1.1/DTD/svg11.dtd">
<!-- Generated by graphviz version 2.40.1 (20161225.0304)
 -->
<!-- Title: FEEvaluation&lt; dim, fe_degree, n_q_points_1d, n_components_, Number, VectorizedArrayType &gt; Pages: 1 -->
<svg width="1081pt" height="89pt"
 viewBox="0.00 0.00 1081.00 89.00" xmlns="http://www.w3.org/2000/svg" xmlns:xlink="http://www.w3.org/1999/xlink">
<g id="graph0" class="graph" transform="scale(1 1) rotate(0) translate(4 85)">
<title>FEEvaluation&lt; dim, fe_degree, n_q_points_1d, n_components_, Number, VectorizedArrayType &gt;</title>
<polygon fill="#ffffff" stroke="transparent" points="-4,4 -4,-85 1077,-85 1077,4 -4,4"/>
<!-- Node0 -->
<g id="node1" class="node">
<title>Node0</title>
<polygon fill="#bfbfbf" stroke="#000000" points="909,-28.5 909,-80.5 1073,-80.5 1073,-28.5 909,-28.5"/>
<text text-anchor="start" x="917" y="-68.5" font-family="Helvetica,sans-Serif" font-size="10.00" fill="#000000">FEEvaluation&lt; dim,</text>
<text text-anchor="start" x="917" y="-57.5" font-family="Helvetica,sans-Serif" font-size="10.00" fill="#000000"> fe_degree, n_q_points</text>
<text text-anchor="start" x="917" y="-46.5" font-family="Helvetica,sans-Serif" font-size="10.00" fill="#000000">_1d, n_components_, Number,</text>
<text text-anchor="middle" x="991" y="-35.5" font-family="Helvetica,sans-Serif" font-size="10.00" fill="#000000"> VectorizedArrayType &gt;</text>
</g>
<!-- Node1 -->
<g id="node2" class="node">
<title>Node1</title>
<g id="a_node2"><a xlink:href="classFEEvaluationAccess.html" target="_top" xlink:title="FEEvaluationAccess\l\&lt; dim, n_components\l_, Number, false, Vectorized\lArrayType \&gt;">
<polygon fill="#ffffff" stroke="#000000" points="718,-28.5 718,-80.5 872,-80.5 872,-28.5 718,-28.5"/>
<text text-anchor="start" x="726" y="-68.5" font-family="Helvetica,sans-Serif" font-size="10.00" fill="#000000">FEEvaluationAccess</text>
<text text-anchor="start" x="726" y="-57.5" font-family="Helvetica,sans-Serif" font-size="10.00" fill="#000000">&lt; dim, n_components</text>
<text text-anchor="start" x="726" y="-46.5" font-family="Helvetica,sans-Serif" font-size="10.00" fill="#000000">_, Number, false, Vectorized</text>
<text text-anchor="middle" x="795" y="-35.5" font-family="Helvetica,sans-Serif" font-size="10.00" fill="#000000">ArrayType &gt;</text>
</a>
</g>
</g>
<!-- Node1&#45;&gt;Node0 -->
<g id="edge1" class="edge">
<title>Node1&#45;&gt;Node0</title>
<path fill="none" stroke="#191970" d="M882.3929,-54.5C891.1495,-54.5 900.0203,-54.5 908.7214,-54.5"/>
<polygon fill="#191970" stroke="#191970" points="882.1831,-51.0001 872.183,-54.5 882.183,-58.0001 882.1831,-51.0001"/>
</g>
<!-- Node2 -->
<g id="node3" class="node">
<title>Node2</title>
<g id="a_node3"><a xlink:href="classFEEvaluationBase.html" target="_top" xlink:title="FEEvaluationBase\&lt; dim,\l n_components_, Number,\l is_face, VectorizedArrayType \&gt;">
<polygon fill="#ffffff" stroke="#000000" points="172,-33 172,-74 343,-74 343,-33 172,-33"/>
<text text-anchor="start" x="180" y="-62" font-family="Helvetica,sans-Serif" font-size="10.00" fill="#000000">FEEvaluationBase&lt; dim,</text>
<text text-anchor="start" x="180" y="-51" font-family="Helvetica,sans-Serif" font-size="10.00" fill="#000000"> n_components_, Number,</text>
<text text-anchor="middle" x="257.5" y="-40" font-family="Helvetica,sans-Serif" font-size="10.00" fill="#000000"> is_face, VectorizedArrayType &gt;</text>
</a>
</g>
</g>
<!-- Node2&#45;&gt;Node1 -->
<g id="edge2" class="edge">
<title>Node2&#45;&gt;Node1</title>
<path fill="none" stroke="#191970" d="M353.32,-60.0551C362.3364,-60.5822 371.3389,-61.0745 380,-61.5 522.0759,-68.4793 558.0815,-77.1652 700,-67.5 705.8129,-67.1041 711.8121,-66.5735 717.8379,-65.9524"/>
<polygon fill="#191970" stroke="#191970" points="353.3428,-56.5503 343.1516,-59.4468 352.9247,-63.5378 353.3428,-56.5503"/>
</g>
<!-- Node4 -->
<g id="node5" class="node">
<title>Node4</title>
<g id="a_node5"><a xlink:href="classFEEvaluationAccess.html" target="_top" xlink:title="FEEvaluationAccess\l\&lt; dim, n_components\l_, Number, is_face, Vectorized\lArrayType \&gt;">
<polygon fill="#ffffff" stroke="#000000" points="380,-.5 380,-52.5 544,-52.5 544,-.5 380,-.5"/>
<text text-anchor="start" x="388" y="-40.5" font-family="Helvetica,sans-Serif" font-size="10.00" fill="#000000">FEEvaluationAccess</text>
<text text-anchor="start" x="388" y="-29.5" font-family="Helvetica,sans-Serif" font-size="10.00" fill="#000000">&lt; dim, n_components</text>
<text text-anchor="start" x="388" y="-18.5" font-family="Helvetica,sans-Serif" font-size="10.00" fill="#000000">_, Number, is_face, Vectorized</text>
<text text-anchor="middle" x="462" y="-7.5" font-family="Helvetica,sans-Serif" font-size="10.00" fill="#000000">ArrayType &gt;</text>
</a>
</g>
</g>
<!-- Node2&#45;&gt;Node4 -->
<g id="edge5" class="edge">
<title>Node2&#45;&gt;Node4</title>
<path fill="none" stroke="#191970" d="M353.0654,-40.8826C361.9823,-39.7053 370.9672,-38.519 379.7474,-37.3598"/>
<polygon fill="#191970" stroke="#191970" points="352.4973,-37.4271 343.0415,-42.206 353.4136,-44.3669 352.4973,-37.4271"/>
</g>
<!-- Node3 -->
<g id="node4" class="node">
<title>Node3</title>
<g id="a_node4"><a xlink:href="classFEEvaluationBaseData.html" target="_top" xlink:title="FEEvaluationBaseData\l\&lt; dim, Number, is_face,\l VectorizedArrayType \&gt;">
<polygon fill="#ffffff" stroke="#000000" points="0,-33 0,-74 135,-74 135,-33 0,-33"/>
<text text-anchor="start" x="8" y="-62" font-family="Helvetica,sans-Serif" font-size="10.00" fill="#000000">FEEvaluationBaseData</text>
<text text-anchor="start" x="8" y="-51" font-family="Helvetica,sans-Serif" font-size="10.00" fill="#000000">&lt; dim, Number, is_face,</text>
<text text-anchor="middle" x="67.5" y="-40" font-family="Helvetica,sans-Serif" font-size="10.00" fill="#000000"> VectorizedArrayType &gt;</text>
</a>
</g>
</g>
<!-- Node3&#45;&gt;Node2 -->
<g id="edge3" class="edge">
<title>Node3&#45;&gt;Node2</title>
<path fill="none" stroke="#191970" d="M145.2332,-53.5C154.0277,-53.5 163.0265,-53.5 171.9143,-53.5"/>
<polygon fill="#191970" stroke="#191970" points="145.0219,-50.0001 135.0219,-53.5 145.0218,-57.0001 145.0219,-50.0001"/>
</g>
<!-- Node4&#45;&gt;Node1 -->
<g id="edge4" class="edge">
<title>Node4&#45;&gt;Node1</title>
<path fill="none" stroke="#ffa500" stroke-dasharray="5,2" d="M554.2146,-25.8752C598.4509,-26.5247 652.1185,-28.6998 700,-34.5 705.8563,-35.2094 711.887,-36.0987 717.935,-37.1054"/>
<polygon fill="#ffa500" stroke="#ffa500" points="554.0985,-22.3736 544.0561,-25.7502 554.0123,-29.3731 554.0985,-22.3736"/>
<text text-anchor="start" x="562" y="-59.5" font-family="Helvetica,sans-Serif" font-size="10.00" fill="#000000"> &lt; dim, n_components</text>
<text text-anchor="start" x="562" y="-48.5" font-family="Helvetica,sans-Serif" font-size="10.00" fill="#000000">_, Number, false, Vectorized</text>
<text text-anchor="middle" x="631" y="-37.5" font-family="Helvetica,sans-Serif" font-size="10.00" fill="#000000">ArrayType &gt;</text>
</g>
</g>
</svg>
