<?xml version="1.0" encoding="UTF-8" standalone="no"?>
<!DOCTYPE svg PUBLIC "-//W3C//DTD SVG 1.1//EN"
 "http://www.w3.org/Graphics/SVG/1.1/DTD/svg11.dtd">
<!-- Generated by graphviz version 2.40.1 (20161225.0304)
 -->
<!-- Title: CellId Pages: 1 -->
<!--zoomable 535 -->
<svg id="main" version="1.1" xmlns="http://www.w3.org/2000/svg" xmlns:xlink="http://www.w3.org/1999/xlink" xml:space="preserve" onload="init(evt)">
<style type="text/css"><![CDATA[
.edge:hover path { stroke: red; }
.edge:hover polygon { stroke: red; fill: red; }
]]></style>
<script type="text/javascript"><![CDATA[
var edges = document.getElementsByTagName('g');
if (edges && edges.length) {
  for (var i=0;i<edges.length;i++) {
    if (edges[i].id.substr(0,4)=='edge') {
      edges[i].setAttribute('class','edge');
    }
  }
}
]]></script>
        <defs>
                <circle id="rim" cx="0" cy="0" r="7"/>
                <circle id="rim2" cx="0" cy="0" r="3.5"/>
                <g id="zoomPlus">
                        <use xlink:href="#rim" fill="#404040">
                                <set attributeName="fill" to="#808080" begin="zoomplus.mouseover" end="zoomplus.mouseout"/>
                        </use>
                        <path d="M-4,0h8M0,-4v8" fill="none" stroke="white" stroke-width="1.5" pointer-events="none"/>
                </g>
                <g id="zoomMin">
                        <use xlink:href="#rim" fill="#404040">
                                <set attributeName="fill" to="#808080" begin="zoomminus.mouseover" end="zoomminus.mouseout"/>
                        </use>
                        <path d="M-4,0h8" fill="none" stroke="white" stroke-width="1.5" pointer-events="none"/>
                </g>
                <g id="dirArrow">
                        <path fill="none" stroke="white" stroke-width="1.5" d="M0,-3.0v7 M-2.5,-0.5L0,-3.0L2.5,-0.5"/>
                </g>
               <g id="resetDef">
                       <use xlink:href="#rim2" fill="#404040">
                               <set attributeName="fill" to="#808080" begin="reset.mouseover" end="reset.mouseout"/>
                       </use>
               </g>
        </defs>

<script type="text/javascript">
var viewWidth = 303;
var viewHeight = 535;
var sectionId = 'dynsection-0';
</script>
<script xlink:href="svgpan.js"/>
<svg id="graph" class="graph">
<g id="viewport">
<title>CellId</title>
<polygon fill="#ffffff" stroke="transparent" points="-4,4 -4,-531 299,-531 299,4 -4,4"/>
<!-- Node1 -->
<g id="node1" class="node">
<title>Node1</title>
<polygon fill="#bfbfbf" stroke="#000000" points="77,-.5 77,-167.5 156,-167.5 156,-.5 77,-.5"/>
<text text-anchor="middle" x="116.5" y="-155.5" font-family="Helvetica,sans-Serif" font-size="10.00" fill="#000000">CellId</text>
<polyline fill="none" stroke="#000000" points="77,-148.5 156,-148.5 "/>
<text text-anchor="middle" x="116.5" y="-136.5" font-family="Helvetica,sans-Serif" font-size="10.00" fill="#000000"> </text>
<polyline fill="none" stroke="#000000" points="77,-129.5 156,-129.5 "/>
<text text-anchor="start" x="85" y="-117.5" font-family="Helvetica,sans-Serif" font-size="10.00" fill="#000000">+ CellId()</text>
<text text-anchor="start" x="85" y="-106.5" font-family="Helvetica,sans-Serif" font-size="10.00" fill="#000000">+ CellId()</text>
<text text-anchor="start" x="85" y="-95.5" font-family="Helvetica,sans-Serif" font-size="10.00" fill="#000000">+ CellId()</text>
<text text-anchor="start" x="85" y="-84.5" font-family="Helvetica,sans-Serif" font-size="10.00" fill="#000000">+ CellId()</text>
<text text-anchor="start" x="85" y="-73.5" font-family="Helvetica,sans-Serif" font-size="10.00" fill="#000000">+ CellId()</text>
<text text-anchor="start" x="85" y="-62.5" font-family="Helvetica,sans-Serif" font-size="10.00" fill="#000000">+ to_string()</text>
<text text-anchor="start" x="85" y="-51.5" font-family="Helvetica,sans-Serif" font-size="10.00" fill="#000000">+ to_binary()</text>
<text text-anchor="start" x="85" y="-40.5" font-family="Helvetica,sans-Serif" font-size="10.00" fill="#000000">+ to_cell()</text>
<text text-anchor="start" x="85" y="-29.5" font-family="Helvetica,sans-Serif" font-size="10.00" fill="#000000">+ operator==()</text>
<text text-anchor="start" x="85" y="-18.5" font-family="Helvetica,sans-Serif" font-size="10.00" fill="#000000">+ operator!=()</text>
<text text-anchor="start" x="85" y="-7.5" font-family="Helvetica,sans-Serif" font-size="10.00" fill="#000000">and 6 more...</text>
</g>
<!-- Node2 -->
<g id="node2" class="node">
<title>Node2</title>
<g id="a_node2"><a xlink:href="classint.html" target="_top" xlink:title="{int\n||}">
<polygon fill="#ffffff" stroke="#000000" points="0,-226.5 0,-283.5 29,-283.5 29,-226.5 0,-226.5"/>
<text text-anchor="middle" x="14.5" y="-271.5" font-family="Helvetica,sans-Serif" font-size="10.00" fill="#000000">int</text>
<polyline fill="none" stroke="#000000" points="0,-264.5 29,-264.5 "/>
<text text-anchor="middle" x="14.5" y="-252.5" font-family="Helvetica,sans-Serif" font-size="10.00" fill="#000000"> </text>
<polyline fill="none" stroke="#000000" points="0,-245.5 29,-245.5 "/>
<text text-anchor="middle" x="14.5" y="-233.5" font-family="Helvetica,sans-Serif" font-size="10.00" fill="#000000"> </text>
</a>
</g>
</g>
<!-- Node2&#45;&gt;Node1 -->
<g id="edge1" class="edge">
<title>Node2&#45;&gt;Node1</title>
<path fill="none" stroke="#404040" d="M22.76,-226.3093C26.9583,-213.5818 32.6339,-198.6549 39.5,-186 48.0112,-170.3131 58.7758,-154.4139 69.5375,-139.9846"/>
<polygon fill="none" stroke="#404040" points="69.6835,-139.793 70.1408,-132.5964 76.9597,-130.2506 76.5024,-137.4472 69.6835,-139.793"/>
<text text-anchor="middle" x="76" y="-189" font-family="Helvetica,sans-Serif" font-size="10.00" fill="#000000"> &#45;n_child_indices</text>
</g>
<!-- Node3 -->
<g id="node3" class="node">
<title>Node3</title>
<polygon fill="#ffffff" stroke="#bfbfbf" points="47.5,-215.5 47.5,-294.5 185.5,-294.5 185.5,-215.5 47.5,-215.5"/>
<text text-anchor="start" x="55.5" y="-282.5" font-family="Helvetica,sans-Serif" font-size="10.00" fill="#000000">std::array&lt; std::uint8</text>
<text text-anchor="start" x="55.5" y="-271.5" font-family="Helvetica,sans-Serif" font-size="10.00" fill="#000000">_t, internal::p4est::functions</text>
<text text-anchor="middle" x="116.5" y="-260.5" font-family="Helvetica,sans-Serif" font-size="10.00" fill="#000000">&lt; 2 &gt;::max_level &gt;</text>
<polyline fill="none" stroke="#bfbfbf" points="47.5,-253.5 185.5,-253.5 "/>
<text text-anchor="middle" x="116.5" y="-241.5" font-family="Helvetica,sans-Serif" font-size="10.00" fill="#000000"> </text>
<polyline fill="none" stroke="#bfbfbf" points="47.5,-234.5 185.5,-234.5 "/>
<text text-anchor="middle" x="116.5" y="-222.5" font-family="Helvetica,sans-Serif" font-size="10.00" fill="#000000"> </text>
</g>
<!-- Node3&#45;&gt;Node1 -->
<g id="edge2" class="edge">
<title>Node3&#45;&gt;Node1</title>
<path fill="none" stroke="#404040" d="M116.5,-215.3394C116.5,-204.4981 116.5,-192.2607 116.5,-179.7259"/>
<polygon fill="none" stroke="#404040" points="116.5001,-179.6528 112.5,-173.6528 116.5,-167.6528 120.5,-173.6527 116.5001,-179.6528"/>
<text text-anchor="middle" x="148" y="-189" font-family="Helvetica,sans-Serif" font-size="10.00" fill="#000000"> &#45;child_indices</text>
</g>
<!-- Node4 -->
<g id="node4" class="node">
<title>Node4</title>
<polygon fill="#ffffff" stroke="#bfbfbf" points="54.5,-364.5 54.5,-421.5 100.5,-421.5 100.5,-364.5 54.5,-364.5"/>
<text text-anchor="middle" x="77.5" y="-409.5" font-family="Helvetica,sans-Serif" font-size="10.00" fill="#000000">uint8_t</text>
<polyline fill="none" stroke="#bfbfbf" points="54.5,-402.5 100.5,-402.5 "/>
<text text-anchor="middle" x="77.5" y="-390.5" font-family="Helvetica,sans-Serif" font-size="10.00" fill="#000000"> </text>
<polyline fill="none" stroke="#bfbfbf" points="54.5,-383.5 100.5,-383.5 "/>
<text text-anchor="middle" x="77.5" y="-371.5" font-family="Helvetica,sans-Serif" font-size="10.00" fill="#000000"> </text>
</g>
<!-- Node4&#45;&gt;Node3 -->
<g id="edge3" class="edge">
<title>Node4&#45;&gt;Node3</title>
<path fill="none" stroke="#404040" d="M76.6214,-364.3014C76.8958,-348.8049 78.461,-329.5191 83.5,-313 84.2394,-310.576 85.0934,-308.1428 86.037,-305.7196"/>
<polygon fill="none" stroke="#404040" points="86.1385,-305.4912 84.9203,-298.3837 91.0125,-294.5256 92.2307,-301.6331 86.1385,-305.4912"/>
<text text-anchor="middle" x="108" y="-327" font-family="Helvetica,sans-Serif" font-size="10.00" fill="#000000"> +elements</text>
</g>
<!-- Node5 -->
<g id="node5" class="node">
<title>Node5</title>
<g id="a_node5"><a xlink:title="STL class. ">
<polygon fill="#ffffff" stroke="#bfbfbf" points="118.5,-364.5 118.5,-421.5 200.5,-421.5 200.5,-364.5 118.5,-364.5"/>
<text text-anchor="middle" x="159.5" y="-409.5" font-family="Helvetica,sans-Serif" font-size="10.00" fill="#000000">std::array&lt; T &gt;</text>
<polyline fill="none" stroke="#bfbfbf" points="118.5,-402.5 200.5,-402.5 "/>
<text text-anchor="middle" x="159.5" y="-390.5" font-family="Helvetica,sans-Serif" font-size="10.00" fill="#000000"> </text>
<polyline fill="none" stroke="#bfbfbf" points="118.5,-383.5 200.5,-383.5 "/>
<text text-anchor="middle" x="159.5" y="-371.5" font-family="Helvetica,sans-Serif" font-size="10.00" fill="#000000"> </text>
</a>
</g>
</g>
<!-- Node5&#45;&gt;Node3 -->
<g id="edge4" class="edge">
<title>Node5&#45;&gt;Node3</title>
<path fill="none" stroke="#ffa500" d="M147.5707,-354.7154C141.7327,-335.9794 134.7118,-313.4471 128.8221,-294.5453"/>
<polygon fill="#ffa500" stroke="#ffa500" points="144.2739,-355.9003 150.5904,-364.4063 150.957,-353.8178 144.2739,-355.9003"/>
<text text-anchor="start" x="143.5" y="-338" font-family="Helvetica,sans-Serif" font-size="10.00" fill="#000000"> &lt; std::uint8_t, internal</text>
<text text-anchor="start" x="143.5" y="-327" font-family="Helvetica,sans-Serif" font-size="10.00" fill="#000000">::p4est::functions&lt; 2 &gt;</text>
<text text-anchor="middle" x="193.5" y="-316" font-family="Helvetica,sans-Serif" font-size="10.00" fill="#000000">::max_level &gt;</text>
</g>
<!-- Node6 -->
<g id="node6" class="node">
<title>Node6</title>
<polygon fill="#ffffff" stroke="#bfbfbf" points="145,-469.5 145,-526.5 174,-526.5 174,-469.5 145,-469.5"/>
<text text-anchor="middle" x="159.5" y="-514.5" font-family="Helvetica,sans-Serif" font-size="10.00" fill="#000000">T</text>
<polyline fill="none" stroke="#bfbfbf" points="145,-507.5 174,-507.5 "/>
<text text-anchor="middle" x="159.5" y="-495.5" font-family="Helvetica,sans-Serif" font-size="10.00" fill="#000000"> </text>
<polyline fill="none" stroke="#bfbfbf" points="145,-488.5 174,-488.5 "/>
<text text-anchor="middle" x="159.5" y="-476.5" font-family="Helvetica,sans-Serif" font-size="10.00" fill="#000000"> </text>
</g>
<!-- Node6&#45;&gt;Node5 -->
<g id="edge5" class="edge">
<title>Node6&#45;&gt;Node5</title>
<path fill="none" stroke="#404040" d="M159.5,-469.3083C159.5,-458.4281 159.5,-445.817 159.5,-434.0192"/>
<polygon fill="none" stroke="#404040" points="159.5001,-433.657 155.5,-427.6571 159.5,-421.657 163.5,-427.657 159.5001,-433.657"/>
<text text-anchor="middle" x="184" y="-443" font-family="Helvetica,sans-Serif" font-size="10.00" fill="#000000"> +elements</text>
</g>
<!-- Node7 -->
<g id="node7" class="node">
<title>Node7</title>
<polygon fill="#ffffff" stroke="#bfbfbf" points="204,-226.5 204,-283.5 295,-283.5 295,-226.5 204,-226.5"/>
<text text-anchor="middle" x="249.5" y="-271.5" font-family="Helvetica,sans-Serif" font-size="10.00" fill="#000000">global_cell_index</text>
<polyline fill="none" stroke="#bfbfbf" points="204,-264.5 295,-264.5 "/>
<text text-anchor="middle" x="249.5" y="-252.5" font-family="Helvetica,sans-Serif" font-size="10.00" fill="#000000"> </text>
<polyline fill="none" stroke="#bfbfbf" points="204,-245.5 295,-245.5 "/>
<text text-anchor="middle" x="249.5" y="-233.5" font-family="Helvetica,sans-Serif" font-size="10.00" fill="#000000"> </text>
</g>
<!-- Node7&#45;&gt;Node1 -->
<g id="edge6" class="edge">
<title>Node7&#45;&gt;Node1</title>
<path fill="none" stroke="#404040" d="M227.2388,-226.3784C209.9076,-204.0955 185.2395,-172.3794 163.583,-144.5353"/>
<polygon fill="none" stroke="#404040" points="163.4327,-144.342 156.5916,-142.0617 156.0654,-134.8698 162.9064,-137.1501 163.4327,-144.342"/>
<text text-anchor="middle" x="237" y="-189" font-family="Helvetica,sans-Serif" font-size="10.00" fill="#000000"> &#45;coarse_cell_id</text>
</g>
</g>
</svg>
        <g id="navigator" transform="translate(0 0)" fill="#404254">
                <rect fill="#f2f5e9" fill-opacity="0.5" stroke="#606060" stroke-width=".5" x="0" y="0" width="60" height="60"/>
                <use id="zoomplus" xlink:href="#zoomPlus" x="17" y="9" onmousedown="handleZoom(evt,'in')"/>
                <use id="zoomminus" xlink:href="#zoomMin" x="42" y="9" onmousedown="handleZoom(evt,'out')"/>
                <use id="reset" xlink:href="#resetDef" x="30" y="36" onmousedown="handleReset()"/>
                <g id="arrowUp" xlink:href="#dirArrow" transform="translate(30 24)" onmousedown="handlePan(0,-1)">
                  <use xlink:href="#rim" fill="#404040">
                        <set attributeName="fill" to="#808080" begin="arrowUp.mouseover" end="arrowUp.mouseout"/>
                  </use>
                  <path fill="none" stroke="white" stroke-width="1.5" d="M0,-3.0v7 M-2.5,-0.5L0,-3.0L2.5,-0.5"/>
                </g>
                <g id="arrowRight" xlink:href="#dirArrow" transform="rotate(90) translate(36 -43)" onmousedown="handlePan(1,0)">
                  <use xlink:href="#rim" fill="#404040">
                        <set attributeName="fill" to="#808080" begin="arrowRight.mouseover" end="arrowRight.mouseout"/>
                  </use>
                  <path fill="none" stroke="white" stroke-width="1.5" d="M0,-3.0v7 M-2.5,-0.5L0,-3.0L2.5,-0.5"/>
                </g>
                <g id="arrowDown" xlink:href="#dirArrow" transform="rotate(180) translate(-30 -48)" onmousedown="handlePan(0,1)">
                  <use xlink:href="#rim" fill="#404040">
                        <set attributeName="fill" to="#808080" begin="arrowDown.mouseover" end="arrowDown.mouseout"/>
                  </use>
                  <path fill="none" stroke="white" stroke-width="1.5" d="M0,-3.0v7 M-2.5,-0.5L0,-3.0L2.5,-0.5"/>
                </g>
                <g id="arrowLeft" xlink:href="#dirArrow" transform="rotate(270) translate(-36 17)" onmousedown="handlePan(-1,0)">
                  <use xlink:href="#rim" fill="#404040">
                        <set attributeName="fill" to="#808080" begin="arrowLeft.mouseover" end="arrowLeft.mouseout"/>
                  </use>
                  <path fill="none" stroke="white" stroke-width="1.5" d="M0,-3.0v7 M-2.5,-0.5L0,-3.0L2.5,-0.5"/>
                </g>
        </g>
        <svg viewBox="0 0 15 15" width="100%" height="30px" preserveAspectRatio="xMaxYMin meet">
         <g id="arrow_out" transform="scale(0.3 0.3)">
          <a xlink:href="classCellId__coll__graph_org.svg" target="_base">
           <rect id="button" ry="5" rx="5" y="6" x="6" height="38" width="38"
                fill="#f2f5e9" fill-opacity="0.5" stroke="#606060" stroke-width="1.0"/>
           <path id="arrow"
             d="M 11.500037,31.436501 C 11.940474,20.09759 22.043105,11.32322 32.158766,21.979434 L 37.068811,17.246167 C 37.068811,17.246167 37.088388,32 37.088388,32 L 22.160133,31.978069 C 22.160133,31.978069 26.997745,27.140456 26.997745,27.140456 C 18.528582,18.264221 13.291696,25.230495 11.500037,31.436501 z"
             style="fill:#404040;"/>
          </a>
         </g>
        </svg>
</svg>
