<?xml version="1.0" encoding="UTF-8" standalone="no"?>
<!DOCTYPE svg PUBLIC "-//W3C//DTD SVG 1.1//EN"
 "http://www.w3.org/Graphics/SVG/1.1/DTD/svg11.dtd">
<!-- Generated by graphviz version 2.40.1 (20161225.0304)
 -->
<!-- Title: DesignPattern::Command::ComplexCommand Pages: 1 -->
<svg width="138pt" height="226pt"
 viewBox="0.00 0.00 138.00 226.00" xmlns="http://www.w3.org/2000/svg" xmlns:xlink="http://www.w3.org/1999/xlink">
<g id="graph0" class="graph" transform="scale(1 1) rotate(0) translate(4 222)">
<title>DesignPattern::Command::ComplexCommand</title>
<polygon fill="#ffffff" stroke="transparent" points="-4,4 -4,-222 134,-222 134,4 -4,4"/>
<!-- Node0 -->
<g id="node1" class="node">
<title>Node0</title>
<polygon fill="#bfbfbf" stroke="#000000" points="0,-.5 0,-101.5 130,-101.5 130,-.5 0,-.5"/>
<text text-anchor="start" x="8" y="-89.5" font-family="Helvetica,sans-Serif" font-size="10.00" fill="#000000">DesignPattern::Command</text>
<text text-anchor="middle" x="65" y="-78.5" font-family="Helvetica,sans-Serif" font-size="10.00" fill="#000000">::ComplexCommand</text>
<polyline fill="none" stroke="#000000" points="0,-71.5 130,-71.5 "/>
<text text-anchor="start" x="8" y="-59.5" font-family="Helvetica,sans-Serif" font-size="10.00" fill="#000000">&#45; receiver_</text>
<text text-anchor="start" x="8" y="-48.5" font-family="Helvetica,sans-Serif" font-size="10.00" fill="#000000">&#45; a_</text>
<text text-anchor="start" x="8" y="-37.5" font-family="Helvetica,sans-Serif" font-size="10.00" fill="#000000">&#45; b_</text>
<polyline fill="none" stroke="#000000" points="0,-30.5 130,-30.5 "/>
<text text-anchor="start" x="8" y="-18.5" font-family="Helvetica,sans-Serif" font-size="10.00" fill="#000000">+ ComplexCommand()</text>
<text text-anchor="start" x="8" y="-7.5" font-family="Helvetica,sans-Serif" font-size="10.00" fill="#000000">+ Execute()</text>
</g>
<!-- Node1 -->
<g id="node2" class="node">
<title>Node1</title>
<g id="a_node2"><a xlink:href="classDesignPattern_1_1Command_1_1Command.html" target="_top" xlink:title="{DesignPattern::Command\l::Command\n||+ ~Command()\l+ Execute()\l}">
<polygon fill="#ffffff" stroke="#000000" points="0,-138.5 0,-217.5 130,-217.5 130,-138.5 0,-138.5"/>
<text text-anchor="start" x="8" y="-205.5" font-family="Helvetica,sans-Serif" font-size="10.00" fill="#000000">DesignPattern::Command</text>
<text text-anchor="middle" x="65" y="-194.5" font-family="Helvetica,sans-Serif" font-size="10.00" fill="#000000">::Command</text>
<polyline fill="none" stroke="#000000" points="0,-187.5 130,-187.5 "/>
<text text-anchor="middle" x="65" y="-175.5" font-family="Helvetica,sans-Serif" font-size="10.00" fill="#000000"> </text>
<polyline fill="none" stroke="#000000" points="0,-168.5 130,-168.5 "/>
<text text-anchor="start" x="8" y="-156.5" font-family="Helvetica,sans-Serif" font-size="10.00" fill="#000000">+ ~Command()</text>
<text text-anchor="start" x="8" y="-145.5" font-family="Helvetica,sans-Serif" font-size="10.00" fill="#000000">+ Execute()</text>
</a>
</g>
</g>
<!-- Node1&#45;&gt;Node0 -->
<g id="edge1" class="edge">
<title>Node1&#45;&gt;Node0</title>
<path fill="none" stroke="#191970" d="M65,-127.9396C65,-119.3816 65,-110.4823 65,-101.9026"/>
<polygon fill="none" stroke="#191970" points="61.5001,-128.1648 65,-138.1649 68.5001,-128.1649 61.5001,-128.1648"/>
</g>
</g>
</svg>
