<?xml version="1.0" encoding="UTF-8" standalone="no"?>
<!DOCTYPE svg PUBLIC "-//W3C//DTD SVG 1.1//EN"
 "http://www.w3.org/Graphics/SVG/1.1/DTD/svg11.dtd">
<!-- Generated by graphviz version 2.40.1 (20161225.0304)
 -->
<!-- Title: TensorAccessors::internal::StoreIndex&lt; 1, S &gt; Pages: 1 -->
<svg width="139pt" height="193pt"
 viewBox="0.00 0.00 139.00 193.00" xmlns="http://www.w3.org/2000/svg" xmlns:xlink="http://www.w3.org/1999/xlink">
<g id="graph0" class="graph" transform="scale(1 1) rotate(0) translate(4 189)">
<title>TensorAccessors::internal::StoreIndex&lt; 1, S &gt;</title>
<polygon fill="#ffffff" stroke="transparent" points="-4,4 -4,-189 135,-189 135,4 -4,4"/>
<!-- Node1 -->
<g id="node1" class="node">
<title>Node1</title>
<polygon fill="#bfbfbf" stroke="#000000" points="0,-.5 0,-79.5 131,-79.5 131,-.5 0,-.5"/>
<text text-anchor="start" x="8" y="-67.5" font-family="Helvetica,sans-Serif" font-size="10.00" fill="#000000">TensorAccessors::internal</text>
<text text-anchor="middle" x="65.5" y="-56.5" font-family="Helvetica,sans-Serif" font-size="10.00" fill="#000000">::StoreIndex&lt; 1, S &gt;</text>
<polyline fill="none" stroke="#000000" points="0,-49.5 131,-49.5 "/>
<text text-anchor="middle" x="65.5" y="-37.5" font-family="Helvetica,sans-Serif" font-size="10.00" fill="#000000"> </text>
<polyline fill="none" stroke="#000000" points="0,-30.5 131,-30.5 "/>
<text text-anchor="start" x="8" y="-18.5" font-family="Helvetica,sans-Serif" font-size="10.00" fill="#000000">+ StoreIndex()</text>
<text text-anchor="start" x="8" y="-7.5" font-family="Helvetica,sans-Serif" font-size="10.00" fill="#000000">+ operator[]()</text>
</g>
<!-- Node2 -->
<g id="node2" class="node">
<title>Node2</title>
<polygon fill="#ffffff" stroke="#bfbfbf" points="11.5,-127.5 11.5,-184.5 61.5,-184.5 61.5,-127.5 11.5,-127.5"/>
<text text-anchor="middle" x="36.5" y="-172.5" font-family="Helvetica,sans-Serif" font-size="10.00" fill="#000000">const S</text>
<polyline fill="none" stroke="#bfbfbf" points="11.5,-165.5 61.5,-165.5 "/>
<text text-anchor="middle" x="36.5" y="-153.5" font-family="Helvetica,sans-Serif" font-size="10.00" fill="#000000"> </text>
<polyline fill="none" stroke="#bfbfbf" points="11.5,-146.5 61.5,-146.5 "/>
<text text-anchor="middle" x="36.5" y="-134.5" font-family="Helvetica,sans-Serif" font-size="10.00" fill="#000000"> </text>
</g>
<!-- Node2&#45;&gt;Node1 -->
<g id="edge1" class="edge">
<title>Node2&#45;&gt;Node1</title>
<path fill="none" stroke="#404040" d="M43.6685,-127.3258C46.3606,-116.5576 49.5102,-103.9593 52.5659,-91.7364"/>
<polygon fill="none" stroke="#404040" points="52.6594,-91.362 50.2341,-84.571 55.5699,-79.7203 57.9952,-86.5113 52.6594,-91.362"/>
<text text-anchor="middle" x="60" y="-101" font-family="Helvetica,sans-Serif" font-size="10.00" fill="#000000"> &#45;s_</text>
</g>
<!-- Node3 -->
<g id="node3" class="node">
<title>Node3</title>
<g id="a_node3"><a xlink:href="classint.html" target="_top" xlink:title="{int\n||}">
<polygon fill="#ffffff" stroke="#000000" points="80,-127.5 80,-184.5 109,-184.5 109,-127.5 80,-127.5"/>
<text text-anchor="middle" x="94.5" y="-172.5" font-family="Helvetica,sans-Serif" font-size="10.00" fill="#000000">int</text>
<polyline fill="none" stroke="#000000" points="80,-165.5 109,-165.5 "/>
<text text-anchor="middle" x="94.5" y="-153.5" font-family="Helvetica,sans-Serif" font-size="10.00" fill="#000000"> </text>
<polyline fill="none" stroke="#000000" points="80,-146.5 109,-146.5 "/>
<text text-anchor="middle" x="94.5" y="-134.5" font-family="Helvetica,sans-Serif" font-size="10.00" fill="#000000"> </text>
</a>
</g>
</g>
<!-- Node3&#45;&gt;Node1 -->
<g id="edge2" class="edge">
<title>Node3&#45;&gt;Node1</title>
<path fill="none" stroke="#404040" d="M87.3315,-127.3258C84.6394,-116.5576 81.4898,-103.9593 78.4341,-91.7364"/>
<polygon fill="none" stroke="#404040" points="78.3406,-91.362 73.0048,-86.5113 75.4301,-79.7203 80.7659,-84.571 78.3406,-91.362"/>
<text text-anchor="middle" x="89.5" y="-101" font-family="Helvetica,sans-Serif" font-size="10.00" fill="#000000"> &#45;i_</text>
</g>
</g>
</svg>
