<?xml version="1.0" encoding="UTF-8" standalone="no"?>
<!DOCTYPE svg PUBLIC "-//W3C//DTD SVG 1.1//EN"
 "http://www.w3.org/Graphics/SVG/1.1/DTD/svg11.dtd">
<!-- Generated by graphviz version 2.40.1 (20161225.0304)
 -->
<!-- Title: IntegratedLegendreSZ Pages: 1 -->
<svg width="226pt" height="231pt"
 viewBox="0.00 0.00 226.00 231.00" xmlns="http://www.w3.org/2000/svg" xmlns:xlink="http://www.w3.org/1999/xlink">
<g id="graph0" class="graph" transform="scale(1 1) rotate(0) translate(4 227)">
<title>IntegratedLegendreSZ</title>
<polygon fill="#ffffff" stroke="transparent" points="-4,4 -4,-227 222,-227 222,4 -4,4"/>
<!-- Node0 -->
<g id="node1" class="node">
<title>Node0</title>
<polygon fill="#bfbfbf" stroke="#000000" points="6,-.5 6,-19.5 131,-19.5 131,-.5 6,-.5"/>
<text text-anchor="middle" x="68.5" y="-7.5" font-family="Helvetica,sans-Serif" font-size="10.00" fill="#000000">IntegratedLegendreSZ</text>
</g>
<!-- Node1 -->
<g id="node2" class="node">
<title>Node1</title>
<g id="a_node2"><a xlink:href="classPolynomials_1_1Polynomial.html" target="_top" xlink:title="Polynomials::Polynomial\l\&lt; double \&gt;">
<polygon fill="#ffffff" stroke="#000000" points="0,-57.5 0,-87.5 137,-87.5 137,-57.5 0,-57.5"/>
<text text-anchor="start" x="8" y="-75.5" font-family="Helvetica,sans-Serif" font-size="10.00" fill="#000000">Polynomials::Polynomial</text>
<text text-anchor="middle" x="68.5" y="-64.5" font-family="Helvetica,sans-Serif" font-size="10.00" fill="#000000">&lt; double &gt;</text>
</a>
</g>
</g>
<!-- Node1&#45;&gt;Node0 -->
<g id="edge1" class="edge">
<title>Node1&#45;&gt;Node0</title>
<path fill="none" stroke="#191970" d="M68.5,-47.3498C68.5,-37.6481 68.5,-27.1303 68.5,-19.7356"/>
<polygon fill="#191970" stroke="#191970" points="65.0001,-47.3705 68.5,-57.3705 72.0001,-47.3705 65.0001,-47.3705"/>
</g>
<!-- Node2 -->
<g id="node3" class="node">
<title>Node2</title>
<g id="a_node3"><a xlink:href="classSubscriptor.html" target="_top" xlink:title="Subscriptor">
<polygon fill="#ffffff" stroke="#000000" points="29,-203.5 29,-222.5 100,-222.5 100,-203.5 29,-203.5"/>
<text text-anchor="middle" x="64.5" y="-210.5" font-family="Helvetica,sans-Serif" font-size="10.00" fill="#000000">Subscriptor</text>
</a>
</g>
</g>
<!-- Node2&#45;&gt;Node1 -->
<g id="edge2" class="edge">
<title>Node2&#45;&gt;Node1</title>
<path fill="none" stroke="#191970" d="M65.0685,-193.031C65.8783,-164.5886 67.3458,-113.0418 68.0709,-87.5735"/>
<polygon fill="#191970" stroke="#191970" points="61.561,-193.2473 64.7749,-203.3429 68.5582,-193.4466 61.561,-193.2473"/>
</g>
<!-- Node3 -->
<g id="node4" class="node">
<title>Node3</title>
<g id="a_node4"><a xlink:href="classPolynomials_1_1Polynomial.html" target="_top" xlink:title="Polynomials::Polynomial\l\&lt; number \&gt;">
<polygon fill="#ffffff" stroke="#000000" points="81,-135.5 81,-165.5 218,-165.5 218,-135.5 81,-135.5"/>
<text text-anchor="start" x="89" y="-153.5" font-family="Helvetica,sans-Serif" font-size="10.00" fill="#000000">Polynomials::Polynomial</text>
<text text-anchor="middle" x="149.5" y="-142.5" font-family="Helvetica,sans-Serif" font-size="10.00" fill="#000000">&lt; number &gt;</text>
</a>
</g>
</g>
<!-- Node2&#45;&gt;Node3 -->
<g id="edge4" class="edge">
<title>Node2&#45;&gt;Node3</title>
<path fill="none" stroke="#191970" d="M85.8659,-197.2898C99.0908,-187.5656 115.9781,-175.1485 129.0322,-165.5498"/>
<polygon fill="#191970" stroke="#191970" points="83.7644,-194.4906 77.7813,-203.2344 87.9112,-200.1302 83.7644,-194.4906"/>
</g>
<!-- Node3&#45;&gt;Node1 -->
<g id="edge3" class="edge">
<title>Node3&#45;&gt;Node1</title>
<path fill="none" stroke="#ffa500" stroke-dasharray="5,2" d="M126.3851,-128.2412C112.9315,-115.2859 96.3187,-99.2884 84.346,-87.7592"/>
<polygon fill="#ffa500" stroke="#ffa500" points="124.2514,-131.0455 133.8824,-135.4608 129.1069,-126.0032 124.2514,-131.0455"/>
<text text-anchor="middle" x="143" y="-109" font-family="Helvetica,sans-Serif" font-size="10.00" fill="#000000"> &lt; double &gt;</text>
</g>
</g>
</svg>
