<?xml version="1.0" encoding="UTF-8" standalone="no"?>
<!DOCTYPE svg PUBLIC "-//W3C//DTD SVG 1.1//EN"
 "http://www.w3.org/Graphics/SVG/1.1/DTD/svg11.dtd">
<!-- Generated by graphviz version 2.40.1 (20161225.0304)
 -->
<!-- Title: Threads::Task&lt; RT &gt;::TaskData Pages: 1 -->
<svg width="363pt" height="204pt"
 viewBox="0.00 0.00 362.50 204.00" xmlns="http://www.w3.org/2000/svg" xmlns:xlink="http://www.w3.org/1999/xlink">
<g id="graph0" class="graph" transform="scale(1 1) rotate(0) translate(4 200)">
<title>Threads::Task&lt; RT &gt;::TaskData</title>
<polygon fill="#ffffff" stroke="transparent" points="-4,4 -4,-200 358.5,-200 358.5,4 -4,4"/>
<!-- Node1 -->
<g id="node1" class="node">
<title>Node1</title>
<polygon fill="#bfbfbf" stroke="#000000" points="138,-.5 138,-90.5 249,-90.5 249,-.5 138,-.5"/>
<text text-anchor="start" x="146" y="-78.5" font-family="Helvetica,sans-Serif" font-size="10.00" fill="#000000">Threads::Task&lt; RT &gt;</text>
<text text-anchor="middle" x="193.5" y="-67.5" font-family="Helvetica,sans-Serif" font-size="10.00" fill="#000000">::TaskData</text>
<polyline fill="none" stroke="#000000" points="138,-60.5 249,-60.5 "/>
<text text-anchor="middle" x="193.5" y="-48.5" font-family="Helvetica,sans-Serif" font-size="10.00" fill="#000000"> </text>
<polyline fill="none" stroke="#000000" points="138,-41.5 249,-41.5 "/>
<text text-anchor="start" x="146" y="-29.5" font-family="Helvetica,sans-Serif" font-size="10.00" fill="#000000">+ TaskData()</text>
<text text-anchor="start" x="146" y="-18.5" font-family="Helvetica,sans-Serif" font-size="10.00" fill="#000000">+ wait()</text>
<text text-anchor="start" x="146" y="-7.5" font-family="Helvetica,sans-Serif" font-size="10.00" fill="#000000">+ get()</text>
</g>
<!-- Node2 -->
<g id="node2" class="node">
<title>Node2</title>
<polygon fill="#ffffff" stroke="#bfbfbf" points="0,-138.5 0,-195.5 101,-195.5 101,-138.5 0,-138.5"/>
<text text-anchor="middle" x="50.5" y="-183.5" font-family="Helvetica,sans-Serif" font-size="10.00" fill="#000000">return_value&lt; RT &gt;</text>
<polyline fill="none" stroke="#bfbfbf" points="0,-176.5 101,-176.5 "/>
<text text-anchor="middle" x="50.5" y="-164.5" font-family="Helvetica,sans-Serif" font-size="10.00" fill="#000000"> </text>
<polyline fill="none" stroke="#bfbfbf" points="0,-157.5 101,-157.5 "/>
<text text-anchor="middle" x="50.5" y="-145.5" font-family="Helvetica,sans-Serif" font-size="10.00" fill="#000000"> </text>
</g>
<!-- Node2&#45;&gt;Node1 -->
<g id="edge1" class="edge">
<title>Node2&#45;&gt;Node1</title>
<path fill="none" stroke="#404040" d="M68.5075,-138.4439C75.5821,-128.4702 84.2306,-117.6232 93.5,-109 103.852,-99.3697 115.856,-90.3322 127.8781,-82.2637"/>
<polygon fill="none" stroke="#404040" points="127.8828,-82.2607 130.7344,-75.6373 137.9451,-75.7222 135.0934,-82.3455 127.8828,-82.2607"/>
<text text-anchor="middle" x="130" y="-112" font-family="Helvetica,sans-Serif" font-size="10.00" fill="#000000"> &#45;returned_object</text>
</g>
<!-- Node3 -->
<g id="node3" class="node">
<title>Node3</title>
<polygon fill="#ffffff" stroke="#bfbfbf" points="119,-138.5 119,-195.5 192,-195.5 192,-138.5 119,-138.5"/>
<text text-anchor="middle" x="155.5" y="-183.5" font-family="Helvetica,sans-Serif" font-size="10.00" fill="#000000">future&lt; RT &gt;</text>
<polyline fill="none" stroke="#bfbfbf" points="119,-176.5 192,-176.5 "/>
<text text-anchor="middle" x="155.5" y="-164.5" font-family="Helvetica,sans-Serif" font-size="10.00" fill="#000000"> </text>
<polyline fill="none" stroke="#bfbfbf" points="119,-157.5 192,-157.5 "/>
<text text-anchor="middle" x="155.5" y="-145.5" font-family="Helvetica,sans-Serif" font-size="10.00" fill="#000000"> </text>
</g>
<!-- Node3&#45;&gt;Node1 -->
<g id="edge2" class="edge">
<title>Node3&#45;&gt;Node1</title>
<path fill="none" stroke="#404040" d="M164.5055,-138.2062C167.8652,-127.4641 171.8077,-114.8583 175.6842,-102.4636"/>
<polygon fill="none" stroke="#404040" points="175.7774,-102.1654 173.7508,-95.2449 179.3595,-90.7124 181.3861,-97.6329 175.7774,-102.1654"/>
<text text-anchor="middle" x="188" y="-112" font-family="Helvetica,sans-Serif" font-size="10.00" fill="#000000"> &#45;future</text>
</g>
<!-- Node4 -->
<g id="node4" class="node">
<title>Node4</title>
<polygon fill="#ffffff" stroke="#bfbfbf" points="210.5,-138.5 210.5,-195.5 254.5,-195.5 254.5,-138.5 210.5,-138.5"/>
<text text-anchor="middle" x="232.5" y="-183.5" font-family="Helvetica,sans-Serif" font-size="10.00" fill="#000000">mutex</text>
<polyline fill="none" stroke="#bfbfbf" points="210.5,-176.5 254.5,-176.5 "/>
<text text-anchor="middle" x="232.5" y="-164.5" font-family="Helvetica,sans-Serif" font-size="10.00" fill="#000000"> </text>
<polyline fill="none" stroke="#bfbfbf" points="210.5,-157.5 254.5,-157.5 "/>
<text text-anchor="middle" x="232.5" y="-145.5" font-family="Helvetica,sans-Serif" font-size="10.00" fill="#000000"> </text>
</g>
<!-- Node4&#45;&gt;Node1 -->
<g id="edge3" class="edge">
<title>Node4&#45;&gt;Node1</title>
<path fill="none" stroke="#404040" d="M223.2575,-138.2062C219.8095,-127.4641 215.7632,-114.8583 211.7846,-102.4636"/>
<polygon fill="none" stroke="#404040" points="211.6802,-102.1382 206.0378,-97.6479 208.0126,-90.7124 213.655,-95.2028 211.6802,-102.1382"/>
<text text-anchor="middle" x="232.5" y="-112" font-family="Helvetica,sans-Serif" font-size="10.00" fill="#000000"> &#45;mutex</text>
</g>
<!-- Node5 -->
<g id="node5" class="node">
<title>Node5</title>
<polygon fill="#ffffff" stroke="#bfbfbf" points="272.5,-138.5 272.5,-195.5 354.5,-195.5 354.5,-138.5 272.5,-138.5"/>
<text text-anchor="middle" x="313.5" y="-183.5" font-family="Helvetica,sans-Serif" font-size="10.00" fill="#000000">atomic&lt; bool &gt;</text>
<polyline fill="none" stroke="#bfbfbf" points="272.5,-176.5 354.5,-176.5 "/>
<text text-anchor="middle" x="313.5" y="-164.5" font-family="Helvetica,sans-Serif" font-size="10.00" fill="#000000"> </text>
<polyline fill="none" stroke="#bfbfbf" points="272.5,-157.5 354.5,-157.5 "/>
<text text-anchor="middle" x="313.5" y="-145.5" font-family="Helvetica,sans-Serif" font-size="10.00" fill="#000000"> </text>
</g>
<!-- Node5&#45;&gt;Node1 -->
<g id="edge4" class="edge">
<title>Node5&#45;&gt;Node1</title>
<path fill="none" stroke="#404040" d="M285.0617,-138.2062C273.5771,-126.5781 259.9359,-112.7664 246.7369,-99.4024"/>
<polygon fill="none" stroke="#404040" points="246.5867,-99.2503 239.5245,-97.7922 238.1543,-90.7124 245.2164,-92.1705 246.5867,-99.2503"/>
<text text-anchor="middle" x="306" y="-112" font-family="Helvetica,sans-Serif" font-size="10.00" fill="#000000"> &#45;task_has_finished</text>
</g>
</g>
</svg>
