<?xml version="1.0" encoding="UTF-8" standalone="no"?>
<!DOCTYPE svg PUBLIC "-//W3C//DTD SVG 1.1//EN"
 "http://www.w3.org/Graphics/SVG/1.1/DTD/svg11.dtd">
<!-- Generated by graphviz version 2.40.1 (20161225.0304)
 -->
<!-- Title: TrilinosWrappers::PreconditionAMGMueLu Pages: 1 -->
<svg width="885pt" height="1174pt"
 viewBox="0.00 0.00 885.00 1174.00" xmlns="http://www.w3.org/2000/svg" xmlns:xlink="http://www.w3.org/1999/xlink">
<g id="graph0" class="graph" transform="scale(1 1) rotate(0) translate(4 1170)">
<title>TrilinosWrappers::PreconditionAMGMueLu</title>
<polygon fill="#ffffff" stroke="transparent" points="-4,4 -4,-1170 881,-1170 881,4 -4,4"/>
<!-- Node3 -->
<g id="node1" class="node">
<title>Node3</title>
<polygon fill="#bfbfbf" stroke="#000000" points="640.5,-.5 640.5,-156.5 790.5,-156.5 790.5,-.5 640.5,-.5"/>
<text text-anchor="start" x="648.5" y="-144.5" font-family="Helvetica,sans-Serif" font-size="10.00" fill="#000000">TrilinosWrappers::Precondition</text>
<text text-anchor="middle" x="715.5" y="-133.5" font-family="Helvetica,sans-Serif" font-size="10.00" fill="#000000">AMGMueLu</text>
<polyline fill="none" stroke="#000000" points="640.5,-126.5 790.5,-126.5 "/>
<text text-anchor="middle" x="715.5" y="-114.5" font-family="Helvetica,sans-Serif" font-size="10.00" fill="#000000"> </text>
<polyline fill="none" stroke="#000000" points="640.5,-107.5 790.5,-107.5 "/>
<text text-anchor="start" x="648.5" y="-95.5" font-family="Helvetica,sans-Serif" font-size="10.00" fill="#000000">+ PreconditionAMGMueLu()</text>
<text text-anchor="start" x="648.5" y="-84.5" font-family="Helvetica,sans-Serif" font-size="10.00" fill="#000000">+ ~PreconditionAMGMueLu()</text>
<text text-anchor="start" x="648.5" y="-73.5" font-family="Helvetica,sans-Serif" font-size="10.00" fill="#000000">+ initialize()</text>
<text text-anchor="start" x="648.5" y="-62.5" font-family="Helvetica,sans-Serif" font-size="10.00" fill="#000000">+ initialize()</text>
<text text-anchor="start" x="648.5" y="-51.5" font-family="Helvetica,sans-Serif" font-size="10.00" fill="#000000">+ initialize()</text>
<text text-anchor="start" x="648.5" y="-40.5" font-family="Helvetica,sans-Serif" font-size="10.00" fill="#000000">+ initialize()</text>
<text text-anchor="start" x="648.5" y="-29.5" font-family="Helvetica,sans-Serif" font-size="10.00" fill="#000000">+ initialize()</text>
<text text-anchor="start" x="648.5" y="-18.5" font-family="Helvetica,sans-Serif" font-size="10.00" fill="#000000">+ clear()</text>
<text text-anchor="start" x="648.5" y="-7.5" font-family="Helvetica,sans-Serif" font-size="10.00" fill="#000000">+ memory_consumption()</text>
</g>
<!-- Node4 -->
<g id="node2" class="node">
<title>Node4</title>
<g id="a_node2"><a xlink:href="classTrilinosWrappers_1_1PreconditionBase.html" target="_top" xlink:title="{TrilinosWrappers::PreconditionBase\n||+ PreconditionBase()\l+ PreconditionBase()\l+ ~PreconditionBase()\l+ clear()\l+ get_mpi_communicator()\l+ transpose()\l+ vmult()\l+ Tvmult()\l+ vmult()\l+ Tvmult()\l+ vmult()\l+ Tvmult()\l+ DeclException1()\l+ trilinos_operator()\l+ locally_owned_domain\l_indices()\l+ locally_owned_range\l_indices()\l* trilinos_operator()\l* locally_owned_domain\l_indices()\l* locally_owned_range\l_indices()\l}">
<polygon fill="#ffffff" stroke="#000000" points="541,-204.5 541,-503.5 714,-503.5 714,-204.5 541,-204.5"/>
<text text-anchor="middle" x="627.5" y="-491.5" font-family="Helvetica,sans-Serif" font-size="10.00" fill="#000000">TrilinosWrappers::PreconditionBase</text>
<polyline fill="none" stroke="#000000" points="541,-484.5 714,-484.5 "/>
<text text-anchor="middle" x="627.5" y="-472.5" font-family="Helvetica,sans-Serif" font-size="10.00" fill="#000000"> </text>
<polyline fill="none" stroke="#000000" points="541,-465.5 714,-465.5 "/>
<text text-anchor="start" x="549" y="-453.5" font-family="Helvetica,sans-Serif" font-size="10.00" fill="#000000">+ PreconditionBase()</text>
<text text-anchor="start" x="549" y="-442.5" font-family="Helvetica,sans-Serif" font-size="10.00" fill="#000000">+ PreconditionBase()</text>
<text text-anchor="start" x="549" y="-431.5" font-family="Helvetica,sans-Serif" font-size="10.00" fill="#000000">+ ~PreconditionBase()</text>
<text text-anchor="start" x="549" y="-420.5" font-family="Helvetica,sans-Serif" font-size="10.00" fill="#000000">+ clear()</text>
<text text-anchor="start" x="549" y="-409.5" font-family="Helvetica,sans-Serif" font-size="10.00" fill="#000000">+ get_mpi_communicator()</text>
<text text-anchor="start" x="549" y="-398.5" font-family="Helvetica,sans-Serif" font-size="10.00" fill="#000000">+ transpose()</text>
<text text-anchor="start" x="549" y="-387.5" font-family="Helvetica,sans-Serif" font-size="10.00" fill="#000000">+ vmult()</text>
<text text-anchor="start" x="549" y="-376.5" font-family="Helvetica,sans-Serif" font-size="10.00" fill="#000000">+ Tvmult()</text>
<text text-anchor="start" x="549" y="-365.5" font-family="Helvetica,sans-Serif" font-size="10.00" fill="#000000">+ vmult()</text>
<text text-anchor="start" x="549" y="-354.5" font-family="Helvetica,sans-Serif" font-size="10.00" fill="#000000">+ Tvmult()</text>
<text text-anchor="start" x="549" y="-343.5" font-family="Helvetica,sans-Serif" font-size="10.00" fill="#000000">+ vmult()</text>
<text text-anchor="start" x="549" y="-332.5" font-family="Helvetica,sans-Serif" font-size="10.00" fill="#000000">+ Tvmult()</text>
<text text-anchor="start" x="549" y="-321.5" font-family="Helvetica,sans-Serif" font-size="10.00" fill="#000000">+ DeclException1()</text>
<text text-anchor="start" x="549" y="-310.5" font-family="Helvetica,sans-Serif" font-size="10.00" fill="#000000">+ trilinos_operator()</text>
<text text-anchor="start" x="549" y="-299.5" font-family="Helvetica,sans-Serif" font-size="10.00" fill="#000000">+ locally_owned_domain</text>
<text text-anchor="start" x="549" y="-288.5" font-family="Helvetica,sans-Serif" font-size="10.00" fill="#000000">_indices()</text>
<text text-anchor="start" x="549" y="-277.5" font-family="Helvetica,sans-Serif" font-size="10.00" fill="#000000">+ locally_owned_range</text>
<text text-anchor="start" x="549" y="-266.5" font-family="Helvetica,sans-Serif" font-size="10.00" fill="#000000">_indices()</text>
<text text-anchor="start" x="549" y="-255.5" font-family="Helvetica,sans-Serif" font-size="10.00" fill="#000000">* trilinos_operator()</text>
<text text-anchor="start" x="549" y="-244.5" font-family="Helvetica,sans-Serif" font-size="10.00" fill="#000000">* locally_owned_domain</text>
<text text-anchor="start" x="549" y="-233.5" font-family="Helvetica,sans-Serif" font-size="10.00" fill="#000000">_indices()</text>
<text text-anchor="start" x="549" y="-222.5" font-family="Helvetica,sans-Serif" font-size="10.00" fill="#000000">* locally_owned_range</text>
<text text-anchor="start" x="549" y="-211.5" font-family="Helvetica,sans-Serif" font-size="10.00" fill="#000000">_indices()</text>
</a>
</g>
</g>
<!-- Node4&#45;&gt;Node3 -->
<g id="edge1" class="edge">
<title>Node4&#45;&gt;Node3</title>
<path fill="none" stroke="#191970" d="M678.4227,-194.5771C682.6074,-181.4762 686.7064,-168.6437 690.5631,-156.5695"/>
<polygon fill="none" stroke="#191970" points="675.0715,-193.5661 675.3628,-204.1569 681.7396,-195.6961 675.0715,-193.5661"/>
</g>
<!-- Node5 -->
<g id="node3" class="node">
<title>Node5</title>
<g id="a_node3"><a xlink:href="classSubscriptor.html" target="_top" xlink:title="{Subscriptor\n||+ Subscriptor()\l+ Subscriptor()\l+ Subscriptor()\l+ ~Subscriptor()\l+ operator=()\l+ operator=()\l+ serialize()\l+ subscribe()\l+ unsubscribe()\l+ n_subscriptions()\l+ list_subscribers()\l+ list_subscribers()\l+ ExcInUse()\l+ ExcNoSubscriber()\l&#45; check_no_subscribers()\l* subscribe()\l* unsubscribe()\l* n_subscriptions()\l* list_subscribers()\l* list_subscribers()\l}">
<polygon fill="#ffffff" stroke="#000000" points="354.5,-551.5 354.5,-817.5 480.5,-817.5 480.5,-551.5 354.5,-551.5"/>
<text text-anchor="middle" x="417.5" y="-805.5" font-family="Helvetica,sans-Serif" font-size="10.00" fill="#000000">Subscriptor</text>
<polyline fill="none" stroke="#000000" points="354.5,-798.5 480.5,-798.5 "/>
<text text-anchor="middle" x="417.5" y="-786.5" font-family="Helvetica,sans-Serif" font-size="10.00" fill="#000000"> </text>
<polyline fill="none" stroke="#000000" points="354.5,-779.5 480.5,-779.5 "/>
<text text-anchor="start" x="362.5" y="-767.5" font-family="Helvetica,sans-Serif" font-size="10.00" fill="#000000">+ Subscriptor()</text>
<text text-anchor="start" x="362.5" y="-756.5" font-family="Helvetica,sans-Serif" font-size="10.00" fill="#000000">+ Subscriptor()</text>
<text text-anchor="start" x="362.5" y="-745.5" font-family="Helvetica,sans-Serif" font-size="10.00" fill="#000000">+ Subscriptor()</text>
<text text-anchor="start" x="362.5" y="-734.5" font-family="Helvetica,sans-Serif" font-size="10.00" fill="#000000">+ ~Subscriptor()</text>
<text text-anchor="start" x="362.5" y="-723.5" font-family="Helvetica,sans-Serif" font-size="10.00" fill="#000000">+ operator=()</text>
<text text-anchor="start" x="362.5" y="-712.5" font-family="Helvetica,sans-Serif" font-size="10.00" fill="#000000">+ operator=()</text>
<text text-anchor="start" x="362.5" y="-701.5" font-family="Helvetica,sans-Serif" font-size="10.00" fill="#000000">+ serialize()</text>
<text text-anchor="start" x="362.5" y="-690.5" font-family="Helvetica,sans-Serif" font-size="10.00" fill="#000000">+ subscribe()</text>
<text text-anchor="start" x="362.5" y="-679.5" font-family="Helvetica,sans-Serif" font-size="10.00" fill="#000000">+ unsubscribe()</text>
<text text-anchor="start" x="362.5" y="-668.5" font-family="Helvetica,sans-Serif" font-size="10.00" fill="#000000">+ n_subscriptions()</text>
<text text-anchor="start" x="362.5" y="-657.5" font-family="Helvetica,sans-Serif" font-size="10.00" fill="#000000">+ list_subscribers()</text>
<text text-anchor="start" x="362.5" y="-646.5" font-family="Helvetica,sans-Serif" font-size="10.00" fill="#000000">+ list_subscribers()</text>
<text text-anchor="start" x="362.5" y="-635.5" font-family="Helvetica,sans-Serif" font-size="10.00" fill="#000000">+ ExcInUse()</text>
<text text-anchor="start" x="362.5" y="-624.5" font-family="Helvetica,sans-Serif" font-size="10.00" fill="#000000">+ ExcNoSubscriber()</text>
<text text-anchor="start" x="362.5" y="-613.5" font-family="Helvetica,sans-Serif" font-size="10.00" fill="#000000">&#45; check_no_subscribers()</text>
<text text-anchor="start" x="362.5" y="-602.5" font-family="Helvetica,sans-Serif" font-size="10.00" fill="#000000">* subscribe()</text>
<text text-anchor="start" x="362.5" y="-591.5" font-family="Helvetica,sans-Serif" font-size="10.00" fill="#000000">* unsubscribe()</text>
<text text-anchor="start" x="362.5" y="-580.5" font-family="Helvetica,sans-Serif" font-size="10.00" fill="#000000">* n_subscriptions()</text>
<text text-anchor="start" x="362.5" y="-569.5" font-family="Helvetica,sans-Serif" font-size="10.00" fill="#000000">* list_subscribers()</text>
<text text-anchor="start" x="362.5" y="-558.5" font-family="Helvetica,sans-Serif" font-size="10.00" fill="#000000">* list_subscribers()</text>
</a>
</g>
</g>
<!-- Node5&#45;&gt;Node4 -->
<g id="edge2" class="edge">
<title>Node5&#45;&gt;Node4</title>
<path fill="none" stroke="#191970" d="M485.874,-556.934C487.0831,-554.9366 488.2922,-552.9574 489.5,-551 505.3974,-525.2352 523.3585,-498.2635 540.9395,-472.835"/>
<polygon fill="none" stroke="#191970" points="482.7038,-555.416 480.5781,-565.7954 488.7126,-559.007 482.7038,-555.416"/>
</g>
<!-- Node6 -->
<g id="node4" class="node">
<title>Node6</title>
<polygon fill="#ffffff" stroke="#bfbfbf" points="66.5,-865.5 66.5,-933.5 176.5,-933.5 176.5,-865.5 66.5,-865.5"/>
<text text-anchor="start" x="74.5" y="-921.5" font-family="Helvetica,sans-Serif" font-size="10.00" fill="#000000">std::map&lt; std::string,</text>
<text text-anchor="middle" x="121.5" y="-910.5" font-family="Helvetica,sans-Serif" font-size="10.00" fill="#000000"> unsigned int &gt;</text>
<polyline fill="none" stroke="#bfbfbf" points="66.5,-903.5 176.5,-903.5 "/>
<text text-anchor="middle" x="121.5" y="-891.5" font-family="Helvetica,sans-Serif" font-size="10.00" fill="#000000"> </text>
<polyline fill="none" stroke="#bfbfbf" points="66.5,-884.5 176.5,-884.5 "/>
<text text-anchor="middle" x="121.5" y="-872.5" font-family="Helvetica,sans-Serif" font-size="10.00" fill="#000000"> </text>
</g>
<!-- Node6&#45;&gt;Node5 -->
<g id="edge3" class="edge">
<title>Node6&#45;&gt;Node5</title>
<path fill="none" stroke="#404040" d="M168.4021,-865.4326C215.669,-831.1003 289.2888,-777.6264 344.2543,-737.7021"/>
<polygon fill="none" stroke="#404040" points="344.5808,-737.465 347.0846,-730.7025 354.2899,-730.4127 351.7861,-737.1752 344.5808,-737.465"/>
<text text-anchor="middle" x="233" y="-839" font-family="Helvetica,sans-Serif" font-size="10.00" fill="#000000"> &#45;counter_map</text>
</g>
<!-- Node7 -->
<g id="node5" class="node">
<title>Node7</title>
<g id="a_node5"><a xlink:href="classint.html" target="_top" xlink:title="{int\n||}">
<polygon fill="#ffffff" stroke="#000000" points="0,-992.5 0,-1049.5 29,-1049.5 29,-992.5 0,-992.5"/>
<text text-anchor="middle" x="14.5" y="-1037.5" font-family="Helvetica,sans-Serif" font-size="10.00" fill="#000000">int</text>
<polyline fill="none" stroke="#000000" points="0,-1030.5 29,-1030.5 "/>
<text text-anchor="middle" x="14.5" y="-1018.5" font-family="Helvetica,sans-Serif" font-size="10.00" fill="#000000"> </text>
<polyline fill="none" stroke="#000000" points="0,-1011.5 29,-1011.5 "/>
<text text-anchor="middle" x="14.5" y="-999.5" font-family="Helvetica,sans-Serif" font-size="10.00" fill="#000000"> </text>
</a>
</g>
</g>
<!-- Node7&#45;&gt;Node6 -->
<g id="edge4" class="edge">
<title>Node7&#45;&gt;Node6</title>
<path fill="none" stroke="#404040" d="M21.3502,-992.4015C25.5642,-979.1055 32.0187,-963.6885 41.5,-952 45.9249,-946.545 51.0704,-941.4598 56.5778,-936.7711"/>
<polygon fill="none" stroke="#404040" points="56.694,-936.6797 58.9358,-929.826 66.1246,-929.2593 63.8828,-936.1131 56.694,-936.6797"/>
<text text-anchor="middle" x="66" y="-960.5" font-family="Helvetica,sans-Serif" font-size="10.00" fill="#000000"> +elements</text>
</g>
<!-- Node8 -->
<g id="node6" class="node">
<title>Node8</title>
<g id="a_node6"><a xlink:title="STL class. ">
<polygon fill="#ffffff" stroke="#bfbfbf" points="47.5,-992.5 47.5,-1049.5 107.5,-1049.5 107.5,-992.5 47.5,-992.5"/>
<text text-anchor="middle" x="77.5" y="-1037.5" font-family="Helvetica,sans-Serif" font-size="10.00" fill="#000000">std::string</text>
<polyline fill="none" stroke="#bfbfbf" points="47.5,-1030.5 107.5,-1030.5 "/>
<text text-anchor="middle" x="77.5" y="-1018.5" font-family="Helvetica,sans-Serif" font-size="10.00" fill="#000000"> </text>
<polyline fill="none" stroke="#bfbfbf" points="47.5,-1011.5 107.5,-1011.5 "/>
<text text-anchor="middle" x="77.5" y="-999.5" font-family="Helvetica,sans-Serif" font-size="10.00" fill="#000000"> </text>
</a>
</g>
</g>
<!-- Node8&#45;&gt;Node6 -->
<g id="edge5" class="edge">
<title>Node8&#45;&gt;Node6</title>
<path fill="none" stroke="#404040" d="M87.2386,-992.3985C91.529,-979.9569 96.6811,-965.2278 101.5,-952 102.3477,-949.6731 103.224,-947.2913 104.1148,-944.8885"/>
<polygon fill="none" stroke="#404040" points="104.1275,-944.8546 102.4866,-937.8326 108.3373,-933.6172 109.9782,-940.6392 104.1275,-944.8546"/>
<text text-anchor="middle" x="117" y="-960.5" font-family="Helvetica,sans-Serif" font-size="10.00" fill="#000000"> +keys</text>
</g>
<!-- Node9 -->
<g id="node7" class="node">
<title>Node9</title>
<g id="a_node7"><a xlink:title="STL class. ">
<polygon fill="#ffffff" stroke="#bfbfbf" points="29,-1097.5 29,-1165.5 124,-1165.5 124,-1097.5 29,-1097.5"/>
<text text-anchor="start" x="37" y="-1153.5" font-family="Helvetica,sans-Serif" font-size="10.00" fill="#000000">std::basic_string&lt;</text>
<text text-anchor="middle" x="76.5" y="-1142.5" font-family="Helvetica,sans-Serif" font-size="10.00" fill="#000000"> char &gt;</text>
<polyline fill="none" stroke="#bfbfbf" points="29,-1135.5 124,-1135.5 "/>
<text text-anchor="middle" x="76.5" y="-1123.5" font-family="Helvetica,sans-Serif" font-size="10.00" fill="#000000"> </text>
<polyline fill="none" stroke="#bfbfbf" points="29,-1116.5 124,-1116.5 "/>
<text text-anchor="middle" x="76.5" y="-1104.5" font-family="Helvetica,sans-Serif" font-size="10.00" fill="#000000"> </text>
</a>
</g>
</g>
<!-- Node9&#45;&gt;Node8 -->
<g id="edge6" class="edge">
<title>Node9&#45;&gt;Node8</title>
<path fill="none" stroke="#191970" d="M76.9021,-1087.0661C77.0166,-1074.4172 77.1382,-1060.9812 77.2416,-1049.5519"/>
<polygon fill="none" stroke="#191970" points="73.3989,-1087.4134 76.8082,-1097.4447 80.3986,-1087.4768 73.3989,-1087.4134"/>
</g>
<!-- Node10 -->
<g id="node8" class="node">
<title>Node10</title>
<g id="a_node8"><a xlink:title="STL class. ">
<polygon fill="#ffffff" stroke="#bfbfbf" points="125.5,-992.5 125.5,-1049.5 217.5,-1049.5 217.5,-992.5 125.5,-992.5"/>
<text text-anchor="middle" x="171.5" y="-1037.5" font-family="Helvetica,sans-Serif" font-size="10.00" fill="#000000">std::map&lt; K, T &gt;</text>
<polyline fill="none" stroke="#bfbfbf" points="125.5,-1030.5 217.5,-1030.5 "/>
<text text-anchor="middle" x="171.5" y="-1018.5" font-family="Helvetica,sans-Serif" font-size="10.00" fill="#000000"> </text>
<polyline fill="none" stroke="#bfbfbf" points="125.5,-1011.5 217.5,-1011.5 "/>
<text text-anchor="middle" x="171.5" y="-999.5" font-family="Helvetica,sans-Serif" font-size="10.00" fill="#000000"> </text>
</a>
</g>
</g>
<!-- Node10&#45;&gt;Node6 -->
<g id="edge7" class="edge">
<title>Node10&#45;&gt;Node6</title>
<path fill="none" stroke="#ffa500" d="M155.7657,-982.7657C149.2957,-967.0436 141.8613,-948.9779 135.5744,-933.7007"/>
<polygon fill="#ffa500" stroke="#ffa500" points="152.6084,-984.2906 159.6507,-992.2062 159.0817,-981.6266 152.6084,-984.2906"/>
<text text-anchor="start" x="151.5" y="-966" font-family="Helvetica,sans-Serif" font-size="10.00" fill="#000000"> &lt; std::string, unsigned</text>
<text text-anchor="middle" x="202" y="-955" font-family="Helvetica,sans-Serif" font-size="10.00" fill="#000000"> int &gt;</text>
</g>
<!-- Node11 -->
<g id="node9" class="node">
<title>Node11</title>
<polygon fill="#ffffff" stroke="#bfbfbf" points="142,-1103 142,-1160 171,-1160 171,-1103 142,-1103"/>
<text text-anchor="middle" x="156.5" y="-1148" font-family="Helvetica,sans-Serif" font-size="10.00" fill="#000000">K</text>
<polyline fill="none" stroke="#bfbfbf" points="142,-1141 171,-1141 "/>
<text text-anchor="middle" x="156.5" y="-1129" font-family="Helvetica,sans-Serif" font-size="10.00" fill="#000000"> </text>
<polyline fill="none" stroke="#bfbfbf" points="142,-1122 171,-1122 "/>
<text text-anchor="middle" x="156.5" y="-1110" font-family="Helvetica,sans-Serif" font-size="10.00" fill="#000000"> </text>
</g>
<!-- Node11&#45;&gt;Node10 -->
<g id="edge8" class="edge">
<title>Node11&#45;&gt;Node10</title>
<path fill="none" stroke="#404040" d="M155.2952,-1102.9114C155.2648,-1091.9384 155.7567,-1079.3334 157.5,-1068 157.8349,-1065.8226 158.2452,-1063.6052 158.7121,-1061.3782"/>
<polygon fill="none" stroke="#404040" points="158.7573,-1061.1956 156.3179,-1054.4096 161.6437,-1049.5479 164.0831,-1056.3339 158.7573,-1061.1956"/>
<text text-anchor="middle" x="173" y="-1071" font-family="Helvetica,sans-Serif" font-size="10.00" fill="#000000"> +keys</text>
</g>
<!-- Node12 -->
<g id="node10" class="node">
<title>Node12</title>
<polygon fill="#ffffff" stroke="#bfbfbf" points="232,-1103 232,-1160 261,-1160 261,-1103 232,-1103"/>
<text text-anchor="middle" x="246.5" y="-1148" font-family="Helvetica,sans-Serif" font-size="10.00" fill="#000000">T</text>
<polyline fill="none" stroke="#bfbfbf" points="232,-1141 261,-1141 "/>
<text text-anchor="middle" x="246.5" y="-1129" font-family="Helvetica,sans-Serif" font-size="10.00" fill="#000000"> </text>
<polyline fill="none" stroke="#bfbfbf" points="232,-1122 261,-1122 "/>
<text text-anchor="middle" x="246.5" y="-1110" font-family="Helvetica,sans-Serif" font-size="10.00" fill="#000000"> </text>
</g>
<!-- Node12&#45;&gt;Node10 -->
<g id="edge9" class="edge">
<title>Node12&#45;&gt;Node10</title>
<path fill="none" stroke="#404040" d="M231.8612,-1109.9322C222.1883,-1095.6807 209.2337,-1076.5943 197.806,-1059.7575"/>
<polygon fill="none" stroke="#404040" points="197.6701,-1059.5573 190.9909,-1056.8392 190.931,-1049.6283 197.6102,-1052.3464 197.6701,-1059.5573"/>
<text text-anchor="middle" x="234" y="-1071" font-family="Helvetica,sans-Serif" font-size="10.00" fill="#000000"> +elements</text>
</g>
<!-- Node17 -->
<g id="node15" class="node">
<title>Node17</title>
<g id="a_node15"><a xlink:title="STL class. ">
<polygon fill="#ffffff" stroke="#bfbfbf" points="238,-992.5 238,-1049.5 325,-1049.5 325,-992.5 238,-992.5"/>
<text text-anchor="middle" x="281.5" y="-1037.5" font-family="Helvetica,sans-Serif" font-size="10.00" fill="#000000">std::vector&lt; T &gt;</text>
<polyline fill="none" stroke="#bfbfbf" points="238,-1030.5 325,-1030.5 "/>
<text text-anchor="middle" x="281.5" y="-1018.5" font-family="Helvetica,sans-Serif" font-size="10.00" fill="#000000"> </text>
<polyline fill="none" stroke="#bfbfbf" points="238,-1011.5 325,-1011.5 "/>
<text text-anchor="middle" x="281.5" y="-999.5" font-family="Helvetica,sans-Serif" font-size="10.00" fill="#000000"> </text>
</a>
</g>
</g>
<!-- Node12&#45;&gt;Node17 -->
<g id="edge15" class="edge">
<title>Node12&#45;&gt;Node17</title>
<path fill="none" stroke="#404040" d="M255.6045,-1102.7559C259.6149,-1090.0945 264.3962,-1074.9992 268.7524,-1061.2459"/>
<polygon fill="none" stroke="#404040" points="268.8176,-1061.0401 266.816,-1054.1123 272.4411,-1049.6002 274.4426,-1056.528 268.8176,-1061.0401"/>
<text text-anchor="middle" x="291" y="-1071" font-family="Helvetica,sans-Serif" font-size="10.00" fill="#000000"> +elements</text>
</g>
<!-- Node13 -->
<g id="node11" class="node">
<title>Node13</title>
<polygon fill="#ffffff" stroke="#bfbfbf" points="359.5,-871 359.5,-928 475.5,-928 475.5,-871 359.5,-871"/>
<text text-anchor="middle" x="417.5" y="-916" font-family="Helvetica,sans-Serif" font-size="10.00" fill="#000000">atomic&lt; unsigned int &gt;</text>
<polyline fill="none" stroke="#bfbfbf" points="359.5,-909 475.5,-909 "/>
<text text-anchor="middle" x="417.5" y="-897" font-family="Helvetica,sans-Serif" font-size="10.00" fill="#000000"> </text>
<polyline fill="none" stroke="#bfbfbf" points="359.5,-890 475.5,-890 "/>
<text text-anchor="middle" x="417.5" y="-878" font-family="Helvetica,sans-Serif" font-size="10.00" fill="#000000"> </text>
</g>
<!-- Node13&#45;&gt;Node5 -->
<g id="edge10" class="edge">
<title>Node13&#45;&gt;Node5</title>
<path fill="none" stroke="#404040" d="M417.5,-870.9497C417.5,-859.3895 417.5,-845.1147 417.5,-829.6501"/>
<polygon fill="none" stroke="#404040" points="417.5001,-829.6176 413.5,-823.6176 417.5,-817.6176 421.5,-823.6175 417.5001,-829.6176"/>
<text text-anchor="middle" x="437" y="-839" font-family="Helvetica,sans-Serif" font-size="10.00" fill="#000000"> &#45;counter</text>
</g>
<!-- Node14 -->
<g id="node12" class="node">
<title>Node14</title>
<polygon fill="#ffffff" stroke="#bfbfbf" points="493.5,-871 493.5,-928 537.5,-928 537.5,-871 493.5,-871"/>
<text text-anchor="middle" x="515.5" y="-916" font-family="Helvetica,sans-Serif" font-size="10.00" fill="#000000">mutex</text>
<polyline fill="none" stroke="#bfbfbf" points="493.5,-909 537.5,-909 "/>
<text text-anchor="middle" x="515.5" y="-897" font-family="Helvetica,sans-Serif" font-size="10.00" fill="#000000"> </text>
<polyline fill="none" stroke="#bfbfbf" points="493.5,-890 537.5,-890 "/>
<text text-anchor="middle" x="515.5" y="-878" font-family="Helvetica,sans-Serif" font-size="10.00" fill="#000000"> </text>
</g>
<!-- Node14&#45;&gt;Node5 -->
<g id="edge11" class="edge">
<title>Node14&#45;&gt;Node5</title>
<path fill="none" stroke="#404040" d="M502.4864,-870.9497C497.1138,-859.1629 490.4548,-844.5539 483.2462,-828.7391"/>
<polygon fill="none" stroke="#404040" points="483.154,-828.5368 477.0257,-824.7362 478.1768,-817.6176 484.3052,-821.4181 483.154,-828.5368"/>
<text text-anchor="middle" x="506.5" y="-839" font-family="Helvetica,sans-Serif" font-size="10.00" fill="#000000"> &#45;mutex</text>
</g>
<!-- Node15 -->
<g id="node13" class="node">
<title>Node15</title>
<polygon fill="#ffffff" stroke="#bfbfbf" points="220,-865.5 220,-933.5 341,-933.5 341,-865.5 220,-865.5"/>
<text text-anchor="start" x="228" y="-921.5" font-family="Helvetica,sans-Serif" font-size="10.00" fill="#000000">std::vector&lt; std::atomic</text>
<text text-anchor="middle" x="280.5" y="-910.5" font-family="Helvetica,sans-Serif" font-size="10.00" fill="#000000">&lt; bool &gt; *&gt;</text>
<polyline fill="none" stroke="#bfbfbf" points="220,-903.5 341,-903.5 "/>
<text text-anchor="middle" x="280.5" y="-891.5" font-family="Helvetica,sans-Serif" font-size="10.00" fill="#000000"> </text>
<polyline fill="none" stroke="#bfbfbf" points="220,-884.5 341,-884.5 "/>
<text text-anchor="middle" x="280.5" y="-872.5" font-family="Helvetica,sans-Serif" font-size="10.00" fill="#000000"> </text>
</g>
<!-- Node15&#45;&gt;Node5 -->
<g id="edge12" class="edge">
<title>Node15&#45;&gt;Node5</title>
<path fill="none" stroke="#404040" d="M302.2081,-865.4326C314.7304,-845.7808 331.2489,-819.8575 347.8571,-793.7936"/>
<polygon fill="none" stroke="#404040" points="348.0179,-793.5411 347.8689,-786.3315 354.4666,-783.421 354.6156,-790.6306 348.0179,-793.5411"/>
<text text-anchor="middle" x="356" y="-839" font-family="Helvetica,sans-Serif" font-size="10.00" fill="#000000"> &#45;validity_pointers</text>
</g>
<!-- Node16 -->
<g id="node14" class="node">
<title>Node16</title>
<polygon fill="#ffffff" stroke="#bfbfbf" points="369,-992.5 369,-1049.5 458,-1049.5 458,-992.5 369,-992.5"/>
<text text-anchor="middle" x="413.5" y="-1037.5" font-family="Helvetica,sans-Serif" font-size="10.00" fill="#000000">atomic&lt; bool &gt; *</text>
<polyline fill="none" stroke="#bfbfbf" points="369,-1030.5 458,-1030.5 "/>
<text text-anchor="middle" x="413.5" y="-1018.5" font-family="Helvetica,sans-Serif" font-size="10.00" fill="#000000"> </text>
<polyline fill="none" stroke="#bfbfbf" points="369,-1011.5 458,-1011.5 "/>
<text text-anchor="middle" x="413.5" y="-999.5" font-family="Helvetica,sans-Serif" font-size="10.00" fill="#000000"> </text>
</g>
<!-- Node16&#45;&gt;Node15 -->
<g id="edge13" class="edge">
<title>Node16&#45;&gt;Node15</title>
<path fill="none" stroke="#404040" d="M409.9421,-992.422C406.9675,-978.8121 401.5099,-963.1207 391.5,-952 380.1623,-939.4042 371.4851,-941.2998 352.2305,-934.2257"/>
<polygon fill="none" stroke="#404040" points="352.199,-934.2126 345.1204,-935.5891 341.1273,-929.5846 348.2058,-928.208 352.199,-934.2126"/>
<text text-anchor="middle" x="429" y="-960.5" font-family="Helvetica,sans-Serif" font-size="10.00" fill="#000000"> +elements</text>
</g>
<!-- Node17&#45;&gt;Node15 -->
<g id="edge14" class="edge">
<title>Node17&#45;&gt;Node15</title>
<path fill="none" stroke="#ffa500" d="M281.178,-981.8733C281.0503,-966.3628 280.9049,-948.6896 280.7815,-933.7007"/>
<polygon fill="#ffa500" stroke="#ffa500" points="277.6807,-982.2354 281.263,-992.2062 284.6805,-982.1777 277.6807,-982.2354"/>
<text text-anchor="middle" x="336.5" y="-960.5" font-family="Helvetica,sans-Serif" font-size="10.00" fill="#000000"> &lt; std::atomic&lt; bool &gt; *&gt;</text>
</g>
<!-- Node18 -->
<g id="node16" class="node">
<title>Node18</title>
<polygon fill="#ffffff" stroke="#bfbfbf" points="556,-871 556,-928 619,-928 619,-871 556,-871"/>
<text text-anchor="middle" x="587.5" y="-916" font-family="Helvetica,sans-Serif" font-size="10.00" fill="#000000">type_info *</text>
<polyline fill="none" stroke="#bfbfbf" points="556,-909 619,-909 "/>
<text text-anchor="middle" x="587.5" y="-897" font-family="Helvetica,sans-Serif" font-size="10.00" fill="#000000"> </text>
<polyline fill="none" stroke="#bfbfbf" points="556,-890 619,-890 "/>
<text text-anchor="middle" x="587.5" y="-878" font-family="Helvetica,sans-Serif" font-size="10.00" fill="#000000"> </text>
</g>
<!-- Node18&#45;&gt;Node5 -->
<g id="edge16" class="edge">
<title>Node18&#45;&gt;Node5</title>
<path fill="none" stroke="#404040" d="M564.6699,-870.9826C554.2124,-859.1441 541.1229,-845.8921 527.5,-836 512.3783,-825.0196 503.0549,-830.8647 489.5,-818 489.4045,-817.9094 489.3091,-817.8186 489.2138,-817.7276"/>
<polygon fill="none" stroke="#404040" points="488.9746,-817.4802 481.9284,-815.9471 480.6335,-808.8531 487.6798,-810.3863 488.9746,-817.4802"/>
<text text-anchor="middle" x="567.5" y="-839" font-family="Helvetica,sans-Serif" font-size="10.00" fill="#000000"> &#45;object_info</text>
</g>
<!-- Node19 -->
<g id="node17" class="node">
<title>Node19</title>
<polygon fill="#ffffff" stroke="#bfbfbf" points="498.5,-656 498.5,-713 626.5,-713 626.5,-656 498.5,-656"/>
<text text-anchor="middle" x="562.5" y="-701" font-family="Helvetica,sans-Serif" font-size="10.00" fill="#000000">RCP&lt; Epetra_Operator &gt;</text>
<polyline fill="none" stroke="#bfbfbf" points="498.5,-694 626.5,-694 "/>
<text text-anchor="middle" x="562.5" y="-682" font-family="Helvetica,sans-Serif" font-size="10.00" fill="#000000"> </text>
<polyline fill="none" stroke="#bfbfbf" points="498.5,-675 626.5,-675 "/>
<text text-anchor="middle" x="562.5" y="-663" font-family="Helvetica,sans-Serif" font-size="10.00" fill="#000000"> </text>
</g>
<!-- Node19&#45;&gt;Node4 -->
<g id="edge17" class="edge">
<title>Node19&#45;&gt;Node4</title>
<path fill="none" stroke="#404040" d="M568.1546,-655.7485C574.4565,-623.706 585.1597,-569.284 595.7558,-515.407"/>
<polygon fill="none" stroke="#404040" points="595.769,-515.3396 593.0021,-508.6804 598.0848,-503.5651 600.8517,-510.2243 595.769,-515.3396"/>
<text text-anchor="middle" x="628.5" y="-525" font-family="Helvetica,sans-Serif" font-size="10.00" fill="#000000"> #preconditioner</text>
</g>
<!-- Node20 -->
<g id="node18" class="node">
<title>Node20</title>
<polygon fill="#ffffff" stroke="#bfbfbf" points="645,-656 645,-713 740,-713 740,-656 645,-656"/>
<text text-anchor="middle" x="692.5" y="-701" font-family="Helvetica,sans-Serif" font-size="10.00" fill="#000000">Epetra_MpiComm</text>
<polyline fill="none" stroke="#bfbfbf" points="645,-694 740,-694 "/>
<text text-anchor="middle" x="692.5" y="-682" font-family="Helvetica,sans-Serif" font-size="10.00" fill="#000000"> </text>
<polyline fill="none" stroke="#bfbfbf" points="645,-675 740,-675 "/>
<text text-anchor="middle" x="692.5" y="-663" font-family="Helvetica,sans-Serif" font-size="10.00" fill="#000000"> </text>
</g>
<!-- Node20&#45;&gt;Node4 -->
<g id="edge18" class="edge">
<title>Node20&#45;&gt;Node4</title>
<path fill="none" stroke="#404040" d="M688.8154,-655.9046C684.4554,-623.3511 676.6247,-568.6411 667.5,-522 667.0759,-519.8323 666.6431,-517.6502 666.2024,-515.4563"/>
<polygon fill="none" stroke="#404040" points="666.1873,-515.3821 661.0631,-510.3084 663.7757,-503.6269 668.8999,-508.7006 666.1873,-515.3821"/>
<text text-anchor="middle" x="704.5" y="-525" font-family="Helvetica,sans-Serif" font-size="10.00" fill="#000000"> #communicator</text>
</g>
<!-- Node21 -->
<g id="node19" class="node">
<title>Node21</title>
<polygon fill="#ffffff" stroke="#bfbfbf" points="758.5,-650.5 758.5,-718.5 858.5,-718.5 858.5,-650.5 758.5,-650.5"/>
<text text-anchor="start" x="766.5" y="-706.5" font-family="Helvetica,sans-Serif" font-size="10.00" fill="#000000">shared_ptr&lt; Epetra</text>
<text text-anchor="middle" x="808.5" y="-695.5" font-family="Helvetica,sans-Serif" font-size="10.00" fill="#000000">_Map &gt;</text>
<polyline fill="none" stroke="#bfbfbf" points="758.5,-688.5 858.5,-688.5 "/>
<text text-anchor="middle" x="808.5" y="-676.5" font-family="Helvetica,sans-Serif" font-size="10.00" fill="#000000"> </text>
<polyline fill="none" stroke="#bfbfbf" points="758.5,-669.5 858.5,-669.5 "/>
<text text-anchor="middle" x="808.5" y="-657.5" font-family="Helvetica,sans-Serif" font-size="10.00" fill="#000000"> </text>
</g>
<!-- Node21&#45;&gt;Node4 -->
<g id="edge19" class="edge">
<title>Node21&#45;&gt;Node4</title>
<path fill="none" stroke="#404040" d="M800.0548,-650.4078C790.3446,-615.7943 771.9774,-561.7768 743.5,-522 736.3441,-512.0048 730.5442,-513.2953 722.5,-504 722.3235,-503.796 722.1471,-503.5917 721.9708,-503.3871"/>
<polygon fill="none" stroke="#404040" points="721.7918,-503.1724 714.8774,-501.125 714.108,-493.955 721.0223,-496.0024 721.7918,-503.1724"/>
<text text-anchor="middle" x="791.5" y="-525" font-family="Helvetica,sans-Serif" font-size="10.00" fill="#000000"> #vector_distributor</text>
</g>
<!-- Node22 -->
<g id="node20" class="node">
<title>Node22</title>
<polygon fill="#ffffff" stroke="#bfbfbf" points="732,-320 732,-388 877,-388 877,-320 732,-320"/>
<text text-anchor="start" x="740" y="-376" font-family="Helvetica,sans-Serif" font-size="10.00" fill="#000000">shared_ptr&lt; TrilinosWrappers</text>
<text text-anchor="middle" x="804.5" y="-365" font-family="Helvetica,sans-Serif" font-size="10.00" fill="#000000">::SparseMatrix &gt;</text>
<polyline fill="none" stroke="#bfbfbf" points="732,-358 877,-358 "/>
<text text-anchor="middle" x="804.5" y="-346" font-family="Helvetica,sans-Serif" font-size="10.00" fill="#000000"> </text>
<polyline fill="none" stroke="#bfbfbf" points="732,-339 877,-339 "/>
<text text-anchor="middle" x="804.5" y="-327" font-family="Helvetica,sans-Serif" font-size="10.00" fill="#000000"> </text>
</g>
<!-- Node22&#45;&gt;Node3 -->
<g id="edge20" class="edge">
<title>Node22&#45;&gt;Node3</title>
<path fill="none" stroke="#404040" d="M793.4976,-319.942C781.3262,-282.2652 761.219,-220.0234 744.4688,-168.1731"/>
<polygon fill="none" stroke="#404040" points="744.4198,-168.0211 738.769,-163.5413 740.7308,-156.6022 746.3816,-161.082 744.4198,-168.0211"/>
<text text-anchor="middle" x="783" y="-178" font-family="Helvetica,sans-Serif" font-size="10.00" fill="#000000"> &#45;trilinos_matrix</text>
</g>
</g>
</svg>
