<?xml version="1.0" encoding="UTF-8" standalone="no"?>
<!DOCTYPE svg PUBLIC "-//W3C//DTD SVG 1.1//EN"
 "http://www.w3.org/Graphics/SVG/1.1/DTD/svg11.dtd">
<!-- Generated by graphviz version 2.40.1 (20161225.0304)
 -->
<!-- Title: FEEvaluationBaseData&lt; dim, Number, is_face, VectorizedArrayType &gt; Pages: 1 -->
<svg width="1237pt" height="410pt"
 viewBox="0.00 0.00 1237.00 410.00" xmlns="http://www.w3.org/2000/svg" xmlns:xlink="http://www.w3.org/1999/xlink">
<g id="graph0" class="graph" transform="scale(1 1) rotate(0) translate(4 406)">
<title>FEEvaluationBaseData&lt; dim, Number, is_face, VectorizedArrayType &gt;</title>
<polygon fill="#ffffff" stroke="transparent" points="-4,4 -4,-406 1233,-406 1233,4 -4,4"/>
<!-- Node0 -->
<g id="node1" class="node">
<title>Node0</title>
<polygon fill="#bfbfbf" stroke="#000000" points="0,-176.5 0,-217.5 135,-217.5 135,-176.5 0,-176.5"/>
<text text-anchor="start" x="8" y="-205.5" font-family="Helvetica,sans-Serif" font-size="10.00" fill="#000000">FEEvaluationBaseData</text>
<text text-anchor="start" x="8" y="-194.5" font-family="Helvetica,sans-Serif" font-size="10.00" fill="#000000">&lt; dim, Number, is_face,</text>
<text text-anchor="middle" x="67.5" y="-183.5" font-family="Helvetica,sans-Serif" font-size="10.00" fill="#000000"> VectorizedArrayType &gt;</text>
</g>
<!-- Node1 -->
<g id="node2" class="node">
<title>Node1</title>
<g id="a_node2"><a xlink:href="classFEEvaluationBase.html" target="_top" xlink:title="FEEvaluationBase\&lt; dim,\l Number, is_face, Vectorized\lArrayType \&gt;">
<polygon fill="#ffffff" stroke="#000000" points="172,-176.5 172,-217.5 328,-217.5 328,-176.5 172,-176.5"/>
<text text-anchor="start" x="180" y="-205.5" font-family="Helvetica,sans-Serif" font-size="10.00" fill="#000000">FEEvaluationBase&lt; dim,</text>
<text text-anchor="start" x="180" y="-194.5" font-family="Helvetica,sans-Serif" font-size="10.00" fill="#000000"> Number, is_face, Vectorized</text>
<text text-anchor="middle" x="250" y="-183.5" font-family="Helvetica,sans-Serif" font-size="10.00" fill="#000000">ArrayType &gt;</text>
</a>
</g>
</g>
<!-- Node0&#45;&gt;Node1 -->
<g id="edge1" class="edge">
<title>Node0&#45;&gt;Node1</title>
<path fill="none" stroke="#191970" d="M145.4143,-197C154.201,-197 163.1564,-197 171.9449,-197"/>
<polygon fill="#191970" stroke="#191970" points="145.197,-193.5001 135.1969,-197 145.1969,-200.5001 145.197,-193.5001"/>
</g>
<!-- Node7 -->
<g id="node8" class="node">
<title>Node7</title>
<g id="a_node8"><a xlink:href="classFEEvaluationBase.html" target="_top" xlink:title="FEEvaluationBase\&lt; 1,\l 1, Number, is_face,\l VectorizedArrayType \&gt;">
<polygon fill="#ffffff" stroke="#000000" points="535.5,-360.5 535.5,-401.5 666.5,-401.5 666.5,-360.5 535.5,-360.5"/>
<text text-anchor="start" x="543.5" y="-389.5" font-family="Helvetica,sans-Serif" font-size="10.00" fill="#000000">FEEvaluationBase&lt; 1,</text>
<text text-anchor="start" x="543.5" y="-378.5" font-family="Helvetica,sans-Serif" font-size="10.00" fill="#000000"> 1, Number, is_face,</text>
<text text-anchor="middle" x="601" y="-367.5" font-family="Helvetica,sans-Serif" font-size="10.00" fill="#000000"> VectorizedArrayType &gt;</text>
</a>
</g>
</g>
<!-- Node0&#45;&gt;Node7 -->
<g id="edge16" class="edge">
<title>Node0&#45;&gt;Node7</title>
<path fill="none" stroke="#191970" d="M86.6268,-225.8846C105.3339,-251.83 136.1793,-288.9806 172,-310 286.7569,-377.3389 446.8449,-385.6093 535.4505,-384.2271"/>
<polygon fill="#191970" stroke="#191970" points="89.3789,-223.7139 80.7583,-217.5547 83.6565,-227.7455 89.3789,-223.7139"/>
</g>
<!-- Node9 -->
<g id="node10" class="node">
<title>Node9</title>
<g id="a_node10"><a xlink:href="classFEEvaluationBase.html" target="_top" xlink:title="FEEvaluationBase\&lt; dim,\l 1, Number, is_face,\l VectorizedArrayType \&gt;">
<polygon fill="#ffffff" stroke="#000000" points="532.5,-63.5 532.5,-104.5 669.5,-104.5 669.5,-63.5 532.5,-63.5"/>
<text text-anchor="start" x="540.5" y="-92.5" font-family="Helvetica,sans-Serif" font-size="10.00" fill="#000000">FEEvaluationBase&lt; dim,</text>
<text text-anchor="start" x="540.5" y="-81.5" font-family="Helvetica,sans-Serif" font-size="10.00" fill="#000000"> 1, Number, is_face,</text>
<text text-anchor="middle" x="601" y="-70.5" font-family="Helvetica,sans-Serif" font-size="10.00" fill="#000000"> VectorizedArrayType &gt;</text>
</a>
</g>
</g>
<!-- Node0&#45;&gt;Node9 -->
<g id="edge17" class="edge">
<title>Node0&#45;&gt;Node9</title>
<path fill="none" stroke="#191970" d="M109.35,-171.1911C162.1962,-140.2594 256.9943,-90.1975 346,-71 408.0729,-57.6116 480.5228,-63.2773 532.3002,-70.865"/>
<polygon fill="#191970" stroke="#191970" points="107.4366,-168.2563 100.6087,-176.3577 110.9984,-174.2824 107.4366,-168.2563"/>
</g>
<!-- Node11 -->
<g id="node12" class="node">
<title>Node11</title>
<g id="a_node12"><a xlink:href="classFEEvaluationBase.html" target="_top" xlink:title="FEEvaluationBase\&lt; dim,\l n_components, Number,\l false, VectorizedArrayType \&gt;">
<polygon fill="#ffffff" stroke="#000000" points="520.5,-296.5 520.5,-337.5 681.5,-337.5 681.5,-296.5 520.5,-296.5"/>
<text text-anchor="start" x="528.5" y="-325.5" font-family="Helvetica,sans-Serif" font-size="10.00" fill="#000000">FEEvaluationBase&lt; dim,</text>
<text text-anchor="start" x="528.5" y="-314.5" font-family="Helvetica,sans-Serif" font-size="10.00" fill="#000000"> n_components, Number,</text>
<text text-anchor="middle" x="601" y="-303.5" font-family="Helvetica,sans-Serif" font-size="10.00" fill="#000000"> false, VectorizedArrayType &gt;</text>
</a>
</g>
</g>
<!-- Node0&#45;&gt;Node11 -->
<g id="edge19" class="edge">
<title>Node0&#45;&gt;Node11</title>
<path fill="none" stroke="#191970" d="M106.0203,-223.1168C157.8656,-256.5335 254.217,-312.6469 346,-334 403.3679,-347.3465 469.8083,-342.28 520.4858,-334.3078"/>
<polygon fill="#191970" stroke="#191970" points="107.7689,-220.0788 97.4787,-217.5562 103.9498,-225.9452 107.7689,-220.0788"/>
</g>
<!-- Node12 -->
<g id="node13" class="node">
<title>Node12</title>
<g id="a_node13"><a xlink:href="classFEEvaluationBase.html" target="_top" xlink:title="FEEvaluationBase\&lt; dim,\l dim, Number, is_face,\l VectorizedArrayType \&gt;">
<polygon fill="#ffffff" stroke="#000000" points="532.5,-.5 532.5,-41.5 669.5,-41.5 669.5,-.5 532.5,-.5"/>
<text text-anchor="start" x="540.5" y="-29.5" font-family="Helvetica,sans-Serif" font-size="10.00" fill="#000000">FEEvaluationBase&lt; dim,</text>
<text text-anchor="start" x="540.5" y="-18.5" font-family="Helvetica,sans-Serif" font-size="10.00" fill="#000000"> dim, Number, is_face,</text>
<text text-anchor="middle" x="601" y="-7.5" font-family="Helvetica,sans-Serif" font-size="10.00" fill="#000000"> VectorizedArrayType &gt;</text>
</a>
</g>
</g>
<!-- Node0&#45;&gt;Node12 -->
<g id="edge18" class="edge">
<title>Node0&#45;&gt;Node12</title>
<path fill="none" stroke="#191970" d="M83.6442,-167.1409C101.2221,-137.8356 132.2215,-94.5032 172,-73 286.8373,-10.922 443.755,-9.2086 532.498,-14.4801"/>
<polygon fill="#191970" stroke="#191970" points="80.4244,-165.7148 78.4145,-176.1172 86.4728,-169.2386 80.4244,-165.7148"/>
</g>
<!-- Node2 -->
<g id="node3" class="node">
<title>Node2</title>
<g id="a_node3"><a xlink:href="classFEEvaluationAccess.html" target="_top" xlink:title="FEEvaluationAccess\l\&lt; dim, n_components\l_, Number, is_face, Vectorized\lArrayType \&gt;">
<polygon fill="#ffffff" stroke="#000000" points="519,-171 519,-223 683,-223 683,-171 519,-171"/>
<text text-anchor="start" x="527" y="-211" font-family="Helvetica,sans-Serif" font-size="10.00" fill="#000000">FEEvaluationAccess</text>
<text text-anchor="start" x="527" y="-200" font-family="Helvetica,sans-Serif" font-size="10.00" fill="#000000">&lt; dim, n_components</text>
<text text-anchor="start" x="527" y="-189" font-family="Helvetica,sans-Serif" font-size="10.00" fill="#000000">_, Number, is_face, Vectorized</text>
<text text-anchor="middle" x="601" y="-178" font-family="Helvetica,sans-Serif" font-size="10.00" fill="#000000">ArrayType &gt;</text>
</a>
</g>
</g>
<!-- Node1&#45;&gt;Node2 -->
<g id="edge2" class="edge">
<title>Node1&#45;&gt;Node2</title>
<path fill="none" stroke="#191970" d="M338.4921,-197C393.8983,-197 464.7927,-197 518.9376,-197"/>
<polygon fill="#191970" stroke="#191970" points="338.3344,-193.5001 328.3344,-197 338.3343,-200.5001 338.3344,-193.5001"/>
</g>
<!-- Node3 -->
<g id="node4" class="node">
<title>Node3</title>
<g id="a_node4"><a xlink:href="classFEEvaluationAccess.html" target="_top" xlink:title="FEEvaluationAccess\l\&lt; dim, n_components\l_, Number, false, Vectorized\lArrayType \&gt;">
<polygon fill="#ffffff" stroke="#000000" points="865.5,-217 865.5,-269 1019.5,-269 1019.5,-217 865.5,-217"/>
<text text-anchor="start" x="873.5" y="-257" font-family="Helvetica,sans-Serif" font-size="10.00" fill="#000000">FEEvaluationAccess</text>
<text text-anchor="start" x="873.5" y="-246" font-family="Helvetica,sans-Serif" font-size="10.00" fill="#000000">&lt; dim, n_components</text>
<text text-anchor="start" x="873.5" y="-235" font-family="Helvetica,sans-Serif" font-size="10.00" fill="#000000">_, Number, false, Vectorized</text>
<text text-anchor="middle" x="942.5" y="-224" font-family="Helvetica,sans-Serif" font-size="10.00" fill="#000000">ArrayType &gt;</text>
</a>
</g>
</g>
<!-- Node1&#45;&gt;Node3 -->
<g id="edge7" class="edge">
<title>Node1&#45;&gt;Node3</title>
<path fill="none" stroke="#191970" d="M338.1487,-209.4529C390.6274,-216.7028 458.5628,-225.8027 519,-233 660.4731,-249.8476 696.6613,-258.177 839,-252 847.5593,-251.6286 856.5056,-251.0851 865.4005,-250.4463"/>
<polygon fill="#191970" stroke="#191970" points="338.5865,-205.9802 328.2008,-208.0752 337.6261,-212.914 338.5865,-205.9802"/>
</g>
<!-- Node5 -->
<g id="node6" class="node">
<title>Node5</title>
<g id="a_node6"><a xlink:href="classFEEvaluationAccess.html" target="_top" xlink:title="FEEvaluationAccess\l\&lt; dim, n_components\l_, Number, true, Vectorized\lArrayType \&gt;">
<polygon fill="#ffffff" stroke="#000000" points="868,-130 868,-182 1017,-182 1017,-130 868,-130"/>
<text text-anchor="start" x="876" y="-170" font-family="Helvetica,sans-Serif" font-size="10.00" fill="#000000">FEEvaluationAccess</text>
<text text-anchor="start" x="876" y="-159" font-family="Helvetica,sans-Serif" font-size="10.00" fill="#000000">&lt; dim, n_components</text>
<text text-anchor="start" x="876" y="-148" font-family="Helvetica,sans-Serif" font-size="10.00" fill="#000000">_, Number, true, Vectorized</text>
<text text-anchor="middle" x="942.5" y="-137" font-family="Helvetica,sans-Serif" font-size="10.00" fill="#000000">ArrayType &gt;</text>
</a>
</g>
</g>
<!-- Node1&#45;&gt;Node5 -->
<g id="edge8" class="edge">
<title>Node1&#45;&gt;Node5</title>
<path fill="none" stroke="#191970" d="M338.0936,-184.3499C390.5532,-177.1136 458.488,-168.2597 519,-162 660.6026,-147.3519 696.7476,-142.5105 839,-148 848.3647,-148.3614 858.1953,-148.906 867.9162,-149.5446"/>
<polygon fill="#191970" stroke="#191970" points="337.5746,-180.8883 328.1496,-185.7277 338.5354,-187.822 337.5746,-180.8883"/>
</g>
<!-- Node1&#45;&gt;Node7 -->
<g id="edge9" class="edge">
<title>Node1&#45;&gt;Node7</title>
<path fill="none" stroke="#ffa500" stroke-dasharray="5,2" d="M273.5337,-225.1478C291.6038,-245.2557 318.1176,-271.7055 346,-289 378.246,-309.0011 471.0415,-340.3067 535.3146,-360.7403"/>
<polygon fill="#ffa500" stroke="#ffa500" points="276.0395,-222.6975 266.8006,-217.5117 270.7891,-227.3272 276.0395,-222.6975"/>
<text text-anchor="start" x="351.5" y="-363" font-family="Helvetica,sans-Serif" font-size="10.00" fill="#000000"> &lt; 1, 1, Number, is</text>
<text text-anchor="middle" x="423.5" y="-352" font-family="Helvetica,sans-Serif" font-size="10.00" fill="#000000">_face, VectorizedArrayType &gt;</text>
</g>
<!-- Node1&#45;&gt;Node9 -->
<g id="edge11" class="edge">
<title>Node1&#45;&gt;Node9</title>
<path fill="none" stroke="#ffa500" stroke-dasharray="5,2" d="M283.9352,-170.4793C301.5188,-158.0676 323.8966,-144.2362 346,-136 411.2598,-111.6828 432.9571,-127.8436 501,-113 512.0382,-110.592 523.6471,-107.6313 534.8901,-104.5312"/>
<polygon fill="#ffa500" stroke="#ffa500" points="281.7624,-167.7313 275.7105,-176.4276 285.8646,-173.4033 281.7624,-167.7313"/>
<text text-anchor="start" x="351.5" y="-150" font-family="Helvetica,sans-Serif" font-size="10.00" fill="#000000"> &lt; dim, 1, Number, is</text>
<text text-anchor="middle" x="423.5" y="-139" font-family="Helvetica,sans-Serif" font-size="10.00" fill="#000000">_face, VectorizedArrayType &gt;</text>
</g>
<!-- Node1&#45;&gt;Node11 -->
<g id="edge13" class="edge">
<title>Node1&#45;&gt;Node11</title>
<path fill="none" stroke="#ffa500" stroke-dasharray="5,2" d="M308.3606,-221.1226C320.6406,-225.5632 333.6258,-229.8002 346,-233 413.4254,-250.4351 438.3529,-225.5777 501,-256 510.8985,-260.8069 510.074,-266.5647 519,-273 530.9257,-281.5981 544.7344,-289.6432 557.5804,-296.4421"/>
<polygon fill="#ffa500" stroke="#ffa500" points="309.2817,-217.7312 298.6887,-217.5335 306.8464,-224.2939 309.2817,-217.7312"/>
<text text-anchor="start" x="358.5" y="-281" font-family="Helvetica,sans-Serif" font-size="10.00" fill="#000000"> &lt; dim, n_components,</text>
<text text-anchor="start" x="358.5" y="-270" font-family="Helvetica,sans-Serif" font-size="10.00" fill="#000000"> Number, false, Vectorized</text>
<text text-anchor="middle" x="423.5" y="-259" font-family="Helvetica,sans-Serif" font-size="10.00" fill="#000000">ArrayType &gt;</text>
</g>
<!-- Node1&#45;&gt;Node12 -->
<g id="edge14" class="edge">
<title>Node1&#45;&gt;Node12</title>
<path fill="none" stroke="#ffa500" stroke-dasharray="5,2" d="M268.104,-167.7876C285.171,-142.673 313.0119,-107.3735 346,-87 376.9315,-67.8967 467.8084,-47.0633 532.2352,-34.0181"/>
<polygon fill="#ffa500" stroke="#ffa500" points="265.1324,-165.9358 262.5257,-176.2049 270.9674,-169.8027 265.1324,-165.9358"/>
<text text-anchor="start" x="346" y="-101" font-family="Helvetica,sans-Serif" font-size="10.00" fill="#000000"> &lt; dim, dim, Number,</text>
<text text-anchor="middle" x="423.5" y="-90" font-family="Helvetica,sans-Serif" font-size="10.00" fill="#000000"> is_face, VectorizedArrayType &gt;</text>
</g>
<!-- Node2&#45;&gt;Node3 -->
<g id="edge3" class="edge">
<title>Node2&#45;&gt;Node3</title>
<path fill="none" stroke="#ffa500" stroke-dasharray="5,2" d="M693.2947,-202.6025C737.549,-206.0346 791.2086,-211.2867 839,-219 847.5586,-220.3813 856.4633,-222.0644 865.2984,-223.8919"/>
<polygon fill="#ffa500" stroke="#ffa500" points="693.3672,-199.098 683.1316,-201.8332 692.8389,-206.0781 693.3672,-199.098"/>
<text text-anchor="start" x="701" y="-244" font-family="Helvetica,sans-Serif" font-size="10.00" fill="#000000"> &lt; dim, n_components</text>
<text text-anchor="start" x="701" y="-233" font-family="Helvetica,sans-Serif" font-size="10.00" fill="#000000">_, Number, false, Vectorized</text>
<text text-anchor="middle" x="770" y="-222" font-family="Helvetica,sans-Serif" font-size="10.00" fill="#000000">ArrayType &gt;</text>
</g>
<!-- Node2&#45;&gt;Node5 -->
<g id="edge5" class="edge">
<title>Node2&#45;&gt;Node5</title>
<path fill="none" stroke="#ffa500" stroke-dasharray="5,2" d="M678.4574,-168.1629C685.9984,-166.1146 693.5968,-164.3346 701,-163 756.3143,-153.0283 819.8892,-151.5778 867.9216,-152.46"/>
<polygon fill="#ffa500" stroke="#ffa500" points="677.2431,-164.8701 668.5983,-170.9953 679.176,-171.598 677.2431,-164.8701"/>
<text text-anchor="start" x="703.5" y="-188" font-family="Helvetica,sans-Serif" font-size="10.00" fill="#000000"> &lt; dim, n_components</text>
<text text-anchor="start" x="703.5" y="-177" font-family="Helvetica,sans-Serif" font-size="10.00" fill="#000000">_, Number, true, Vectorized</text>
<text text-anchor="middle" x="770" y="-166" font-family="Helvetica,sans-Serif" font-size="10.00" fill="#000000">ArrayType &gt;</text>
</g>
<!-- Node4 -->
<g id="node5" class="node">
<title>Node4</title>
<g id="a_node5"><a xlink:href="classFEEvaluation.html" target="_top" xlink:title="FEEvaluation\&lt; dim,\l fe_degree, n_q_points\l_1d, n_components_, Number,\l VectorizedArrayType \&gt;">
<polygon fill="#ffffff" stroke="#000000" points="1065,-217 1065,-269 1229,-269 1229,-217 1065,-217"/>
<text text-anchor="start" x="1073" y="-257" font-family="Helvetica,sans-Serif" font-size="10.00" fill="#000000">FEEvaluation&lt; dim,</text>
<text text-anchor="start" x="1073" y="-246" font-family="Helvetica,sans-Serif" font-size="10.00" fill="#000000"> fe_degree, n_q_points</text>
<text text-anchor="start" x="1073" y="-235" font-family="Helvetica,sans-Serif" font-size="10.00" fill="#000000">_1d, n_components_, Number,</text>
<text text-anchor="middle" x="1147" y="-224" font-family="Helvetica,sans-Serif" font-size="10.00" fill="#000000"> VectorizedArrayType &gt;</text>
</a>
</g>
</g>
<!-- Node3&#45;&gt;Node4 -->
<g id="edge4" class="edge">
<title>Node3&#45;&gt;Node4</title>
<path fill="none" stroke="#191970" d="M1029.703,-243C1041.3855,-243 1053.3359,-243 1064.9262,-243"/>
<polygon fill="#191970" stroke="#191970" points="1029.5213,-239.5001 1019.5213,-243 1029.5212,-246.5001 1029.5213,-239.5001"/>
</g>
<!-- Node6 -->
<g id="node7" class="node">
<title>Node6</title>
<g id="a_node7"><a xlink:href="classFEFaceEvaluation.html" target="_top" xlink:title="FEFaceEvaluation\&lt; dim,\l fe_degree, n_q_points\l_1d, n_components_, Number,\l VectorizedArrayType \&gt;">
<polygon fill="#ffffff" stroke="#000000" points="1065,-130 1065,-182 1229,-182 1229,-130 1065,-130"/>
<text text-anchor="start" x="1073" y="-170" font-family="Helvetica,sans-Serif" font-size="10.00" fill="#000000">FEFaceEvaluation&lt; dim,</text>
<text text-anchor="start" x="1073" y="-159" font-family="Helvetica,sans-Serif" font-size="10.00" fill="#000000"> fe_degree, n_q_points</text>
<text text-anchor="start" x="1073" y="-148" font-family="Helvetica,sans-Serif" font-size="10.00" fill="#000000">_1d, n_components_, Number,</text>
<text text-anchor="middle" x="1147" y="-137" font-family="Helvetica,sans-Serif" font-size="10.00" fill="#000000"> VectorizedArrayType &gt;</text>
</a>
</g>
</g>
<!-- Node5&#45;&gt;Node6 -->
<g id="edge6" class="edge">
<title>Node5&#45;&gt;Node6</title>
<path fill="none" stroke="#191970" d="M1027.4953,-156C1039.8718,-156 1052.5956,-156 1064.913,-156"/>
<polygon fill="#191970" stroke="#191970" points="1027.1973,-152.5001 1017.1973,-156 1027.1972,-159.5001 1027.1973,-152.5001"/>
</g>
<!-- Node8 -->
<g id="node9" class="node">
<title>Node8</title>
<g id="a_node9"><a xlink:href="classFEEvaluationAccess_3_011_00_011_00_01Number_00_01is__face_00_01VectorizedArrayType_01_4.html" target="_top" xlink:title="FEEvaluationAccess\l\&lt; 1, 1, Number, is_face,\l VectorizedArrayType \&gt;">
<polygon fill="#ffffff" stroke="#000000" points="875.5,-360.5 875.5,-401.5 1009.5,-401.5 1009.5,-360.5 875.5,-360.5"/>
<text text-anchor="start" x="883.5" y="-389.5" font-family="Helvetica,sans-Serif" font-size="10.00" fill="#000000">FEEvaluationAccess</text>
<text text-anchor="start" x="883.5" y="-378.5" font-family="Helvetica,sans-Serif" font-size="10.00" fill="#000000">&lt; 1, 1, Number, is_face,</text>
<text text-anchor="middle" x="942.5" y="-367.5" font-family="Helvetica,sans-Serif" font-size="10.00" fill="#000000"> VectorizedArrayType &gt;</text>
</a>
</g>
</g>
<!-- Node7&#45;&gt;Node8 -->
<g id="edge10" class="edge">
<title>Node7&#45;&gt;Node8</title>
<path fill="none" stroke="#191970" d="M676.9302,-381C736.3947,-381 818.3249,-381 875.3999,-381"/>
<polygon fill="#191970" stroke="#191970" points="676.8447,-377.5001 666.8446,-381 676.8446,-384.5001 676.8447,-377.5001"/>
</g>
<!-- Node10 -->
<g id="node11" class="node">
<title>Node10</title>
<g id="a_node11"><a xlink:href="classFEEvaluationAccess_3_01dim_00_011_00_01Number_00_01is__face_00_01VectorizedArrayType_01_4.html" target="_top" xlink:title="FEEvaluationAccess\l\&lt; dim, 1, Number, is\l_face, VectorizedArrayType \&gt;">
<polygon fill="#ffffff" stroke="#000000" points="862.5,-63.5 862.5,-104.5 1022.5,-104.5 1022.5,-63.5 862.5,-63.5"/>
<text text-anchor="start" x="870.5" y="-92.5" font-family="Helvetica,sans-Serif" font-size="10.00" fill="#000000">FEEvaluationAccess</text>
<text text-anchor="start" x="870.5" y="-81.5" font-family="Helvetica,sans-Serif" font-size="10.00" fill="#000000">&lt; dim, 1, Number, is</text>
<text text-anchor="middle" x="942.5" y="-70.5" font-family="Helvetica,sans-Serif" font-size="10.00" fill="#000000">_face, VectorizedArrayType &gt;</text>
</a>
</g>
</g>
<!-- Node9&#45;&gt;Node10 -->
<g id="edge12" class="edge">
<title>Node9&#45;&gt;Node10</title>
<path fill="none" stroke="#191970" d="M679.6979,-84C734.4255,-84 807.1487,-84 862.2189,-84"/>
<polygon fill="#191970" stroke="#191970" points="679.6969,-80.5001 669.6968,-84 679.6968,-87.5001 679.6969,-80.5001"/>
</g>
<!-- Node13 -->
<g id="node14" class="node">
<title>Node13</title>
<g id="a_node14"><a xlink:href="classFEEvaluationAccess_3_01dim_00_01dim_00_01Number_00_01is__face_00_01VectorizedArrayType_01_4.html" target="_top" xlink:title="FEEvaluationAccess\l\&lt; dim, dim, Number,\l is_face, VectorizedArrayType \&gt;">
<polygon fill="#ffffff" stroke="#000000" points="857,-.5 857,-41.5 1028,-41.5 1028,-.5 857,-.5"/>
<text text-anchor="start" x="865" y="-29.5" font-family="Helvetica,sans-Serif" font-size="10.00" fill="#000000">FEEvaluationAccess</text>
<text text-anchor="start" x="865" y="-18.5" font-family="Helvetica,sans-Serif" font-size="10.00" fill="#000000">&lt; dim, dim, Number,</text>
<text text-anchor="middle" x="942.5" y="-7.5" font-family="Helvetica,sans-Serif" font-size="10.00" fill="#000000"> is_face, VectorizedArrayType &gt;</text>
</a>
</g>
</g>
<!-- Node12&#45;&gt;Node13 -->
<g id="edge15" class="edge">
<title>Node12&#45;&gt;Node13</title>
<path fill="none" stroke="#191970" d="M679.7242,-21C732.7178,-21 802.5759,-21 856.9422,-21"/>
<polygon fill="#191970" stroke="#191970" points="679.6969,-17.5001 669.6968,-21 679.6968,-24.5001 679.6969,-17.5001"/>
</g>
</g>
</svg>
