<?xml version="1.0" encoding="UTF-8" standalone="no"?>
<!DOCTYPE svg PUBLIC "-//W3C//DTD SVG 1.1//EN"
 "http://www.w3.org/Graphics/SVG/1.1/DTD/svg11.dtd">
<!-- Generated by graphviz version 2.40.1 (20161225.0304)
 -->
<!-- Title: Patterns::Anything Pages: 1 -->
<svg width="220pt" height="259pt"
 viewBox="0.00 0.00 220.00 259.00" xmlns="http://www.w3.org/2000/svg" xmlns:xlink="http://www.w3.org/1999/xlink">
<g id="graph0" class="graph" transform="scale(1 1) rotate(0) translate(4 255)">
<title>Patterns::Anything</title>
<polygon fill="#ffffff" stroke="transparent" points="-4,4 -4,-255 216,-255 216,4 -4,4"/>
<!-- Node2 -->
<g id="node1" class="node">
<title>Node2</title>
<polygon fill="#bfbfbf" stroke="#000000" points="65,-.5 65,-101.5 163,-101.5 163,-.5 65,-.5"/>
<text text-anchor="middle" x="114" y="-89.5" font-family="Helvetica,sans-Serif" font-size="10.00" fill="#000000">Patterns::Anything</text>
<polyline fill="none" stroke="#000000" points="65,-82.5 163,-82.5 "/>
<text text-anchor="middle" x="114" y="-70.5" font-family="Helvetica,sans-Serif" font-size="10.00" fill="#000000"> </text>
<polyline fill="none" stroke="#000000" points="65,-63.5 163,-63.5 "/>
<text text-anchor="start" x="73" y="-51.5" font-family="Helvetica,sans-Serif" font-size="10.00" fill="#000000">+ Anything()</text>
<text text-anchor="start" x="73" y="-40.5" font-family="Helvetica,sans-Serif" font-size="10.00" fill="#000000">+ match()</text>
<text text-anchor="start" x="73" y="-29.5" font-family="Helvetica,sans-Serif" font-size="10.00" fill="#000000">+ description()</text>
<text text-anchor="start" x="73" y="-18.5" font-family="Helvetica,sans-Serif" font-size="10.00" fill="#000000">+ clone()</text>
<text text-anchor="start" x="73" y="-7.5" font-family="Helvetica,sans-Serif" font-size="10.00" fill="#000000">+ create()</text>
</g>
<!-- Node3 -->
<g id="node2" class="node">
<title>Node3</title>
<g id="a_node2"><a xlink:href="classPatterns_1_1PatternBase.html" target="_top" xlink:title="{Patterns::PatternBase\n||+ ~PatternBase()\l+ match()\l+ description()\l+ clone()\l+ memory_consumption()\l}">
<polygon fill="#ffffff" stroke="#000000" points="0,-149.5 0,-250.5 128,-250.5 128,-149.5 0,-149.5"/>
<text text-anchor="middle" x="64" y="-238.5" font-family="Helvetica,sans-Serif" font-size="10.00" fill="#000000">Patterns::PatternBase</text>
<polyline fill="none" stroke="#000000" points="0,-231.5 128,-231.5 "/>
<text text-anchor="middle" x="64" y="-219.5" font-family="Helvetica,sans-Serif" font-size="10.00" fill="#000000"> </text>
<polyline fill="none" stroke="#000000" points="0,-212.5 128,-212.5 "/>
<text text-anchor="start" x="8" y="-200.5" font-family="Helvetica,sans-Serif" font-size="10.00" fill="#000000">+ ~PatternBase()</text>
<text text-anchor="start" x="8" y="-189.5" font-family="Helvetica,sans-Serif" font-size="10.00" fill="#000000">+ match()</text>
<text text-anchor="start" x="8" y="-178.5" font-family="Helvetica,sans-Serif" font-size="10.00" fill="#000000">+ description()</text>
<text text-anchor="start" x="8" y="-167.5" font-family="Helvetica,sans-Serif" font-size="10.00" fill="#000000">+ clone()</text>
<text text-anchor="start" x="8" y="-156.5" font-family="Helvetica,sans-Serif" font-size="10.00" fill="#000000">+ memory_consumption()</text>
</a>
</g>
</g>
<!-- Node3&#45;&gt;Node2 -->
<g id="edge1" class="edge">
<title>Node3&#45;&gt;Node2</title>
<path fill="none" stroke="#191970" d="M84.2584,-139.6299C88.4904,-127.0185 92.9106,-113.8463 97.0096,-101.6314"/>
<polygon fill="none" stroke="#191970" points="80.9306,-138.5454 81.0673,-149.1394 87.5669,-140.7724 80.9306,-138.5454"/>
</g>
<!-- Node4 -->
<g id="node3" class="node">
<title>Node4</title>
<polygon fill="#ffffff" stroke="#bfbfbf" points="146.5,-171.5 146.5,-228.5 181.5,-228.5 181.5,-171.5 146.5,-171.5"/>
<text text-anchor="middle" x="164" y="-216.5" font-family="Helvetica,sans-Serif" font-size="10.00" fill="#000000">char</text>
<polyline fill="none" stroke="#bfbfbf" points="146.5,-209.5 181.5,-209.5 "/>
<text text-anchor="middle" x="164" y="-197.5" font-family="Helvetica,sans-Serif" font-size="10.00" fill="#000000"> </text>
<polyline fill="none" stroke="#bfbfbf" points="146.5,-190.5 181.5,-190.5 "/>
<text text-anchor="middle" x="164" y="-178.5" font-family="Helvetica,sans-Serif" font-size="10.00" fill="#000000"> </text>
</g>
<!-- Node4&#45;&gt;Node2 -->
<g id="edge2" class="edge">
<title>Node4&#45;&gt;Node2</title>
<path fill="none" stroke="#404040" d="M154.3595,-171.2713C148.8064,-154.7232 141.6027,-133.2559 134.8211,-113.0469"/>
<polygon fill="none" stroke="#404040" points="134.8195,-113.0421 129.1185,-108.6264 131.0019,-101.6655 136.7029,-106.0812 134.8195,-113.0421"/>
<text text-anchor="middle" x="176" y="-123" font-family="Helvetica,sans-Serif" font-size="10.00" fill="#000000"> &#45;description_init</text>
</g>
</g>
</svg>
