<?xml version="1.0" encoding="UTF-8" standalone="no"?>
<!DOCTYPE svg PUBLIC "-//W3C//DTD SVG 1.1//EN"
 "http://www.w3.org/Graphics/SVG/1.1/DTD/svg11.dtd">
<!-- Generated by graphviz version 2.40.1 (20161225.0304)
 -->
<!-- Title: Utilities::MPI::ConsensusAlgorithms::Interface&lt; T1, T2 &gt; Pages: 1 -->
<svg width="325pt" height="186pt"
 viewBox="0.00 0.00 325.00 186.00" xmlns="http://www.w3.org/2000/svg" xmlns:xlink="http://www.w3.org/1999/xlink">
<g id="graph0" class="graph" transform="scale(1 1) rotate(0) translate(4 182)">
<title>Utilities::MPI::ConsensusAlgorithms::Interface&lt; T1, T2 &gt;</title>
<polygon fill="#ffffff" stroke="transparent" points="-4,4 -4,-182 321,-182 321,4 -4,4"/>
<!-- Node0 -->
<g id="node1" class="node">
<title>Node0</title>
<polygon fill="#bfbfbf" stroke="#000000" points="0,-68 0,-109 129,-109 129,-68 0,-68"/>
<text text-anchor="start" x="8" y="-97" font-family="Helvetica,sans-Serif" font-size="10.00" fill="#000000">Utilities::MPI::Consensus</text>
<text text-anchor="start" x="8" y="-86" font-family="Helvetica,sans-Serif" font-size="10.00" fill="#000000">Algorithms::Interface&lt;</text>
<text text-anchor="middle" x="64.5" y="-75" font-family="Helvetica,sans-Serif" font-size="10.00" fill="#000000"> T1, T2 &gt;</text>
</g>
<!-- Node1 -->
<g id="node2" class="node">
<title>Node1</title>
<g id="a_node2"><a xlink:href="classUtilities_1_1MPI_1_1ConsensusAlgorithms_1_1NBX.html" target="_top" xlink:title="Utilities::MPI::Consensus\lAlgorithms::NBX\&lt; T1, T2 \&gt;">
<polygon fill="#ffffff" stroke="#000000" points="172.5,-147.5 172.5,-177.5 309.5,-177.5 309.5,-147.5 172.5,-147.5"/>
<text text-anchor="start" x="180.5" y="-165.5" font-family="Helvetica,sans-Serif" font-size="10.00" fill="#000000">Utilities::MPI::Consensus</text>
<text text-anchor="middle" x="241" y="-154.5" font-family="Helvetica,sans-Serif" font-size="10.00" fill="#000000">Algorithms::NBX&lt; T1, T2 &gt;</text>
</a>
</g>
</g>
<!-- Node0&#45;&gt;Node1 -->
<g id="edge1" class="edge">
<title>Node0&#45;&gt;Node1</title>
<path fill="none" stroke="#191970" d="M111.4914,-113.7721C128.1356,-122.2139 147.1611,-131.2969 165,-138.5 172.8264,-141.6602 181.2382,-144.6771 189.512,-147.4394"/>
<polygon fill="#191970" stroke="#191970" points="113.0072,-110.616 102.5123,-109.1642 109.8111,-116.8439 113.0072,-110.616"/>
</g>
<!-- Node2 -->
<g id="node3" class="node">
<title>Node2</title>
<g id="a_node3"><a xlink:href="classUtilities_1_1MPI_1_1ConsensusAlgorithms_1_1PEX.html" target="_top" xlink:title="Utilities::MPI::Consensus\lAlgorithms::PEX\&lt; T1, T2 \&gt;">
<polygon fill="#ffffff" stroke="#000000" points="173,-98.5 173,-128.5 309,-128.5 309,-98.5 173,-98.5"/>
<text text-anchor="start" x="181" y="-116.5" font-family="Helvetica,sans-Serif" font-size="10.00" fill="#000000">Utilities::MPI::Consensus</text>
<text text-anchor="middle" x="241" y="-105.5" font-family="Helvetica,sans-Serif" font-size="10.00" fill="#000000">Algorithms::PEX&lt; T1, T2 &gt;</text>
</a>
</g>
</g>
<!-- Node0&#45;&gt;Node2 -->
<g id="edge2" class="edge">
<title>Node0&#45;&gt;Node2</title>
<path fill="none" stroke="#191970" d="M139.3044,-99.0955C150.3968,-100.6667 161.7794,-102.279 172.7289,-103.8299"/>
<polygon fill="#191970" stroke="#191970" points="139.6119,-95.6042 129.2199,-97.6671 138.6302,-102.535 139.6119,-95.6042"/>
</g>
<!-- Node3 -->
<g id="node4" class="node">
<title>Node3</title>
<g id="a_node4"><a xlink:href="classUtilities_1_1MPI_1_1ConsensusAlgorithms_1_1Selector.html" target="_top" xlink:title="Utilities::MPI::Consensus\lAlgorithms::Selector\&lt; T1, T2 \&gt;">
<polygon fill="#ffffff" stroke="#000000" points="165,-49.5 165,-79.5 317,-79.5 317,-49.5 165,-49.5"/>
<text text-anchor="start" x="173" y="-67.5" font-family="Helvetica,sans-Serif" font-size="10.00" fill="#000000">Utilities::MPI::Consensus</text>
<text text-anchor="middle" x="241" y="-56.5" font-family="Helvetica,sans-Serif" font-size="10.00" fill="#000000">Algorithms::Selector&lt; T1, T2 &gt;</text>
</a>
</g>
</g>
<!-- Node0&#45;&gt;Node3 -->
<g id="edge3" class="edge">
<title>Node0&#45;&gt;Node3</title>
<path fill="none" stroke="#191970" d="M139.1347,-78.3514C147.6655,-77.1914 156.3702,-76.0077 164.9196,-74.8452"/>
<polygon fill="#191970" stroke="#191970" points="138.6571,-74.884 129.2199,-79.6996 139.6003,-81.8202 138.6571,-74.884"/>
</g>
<!-- Node4 -->
<g id="node5" class="node">
<title>Node4</title>
<g id="a_node5"><a xlink:href="classUtilities_1_1MPI_1_1ConsensusAlgorithms_1_1Serial.html" target="_top" xlink:title="Utilities::MPI::Consensus\lAlgorithms::Serial\&lt; T1, T2 \&gt;">
<polygon fill="#ffffff" stroke="#000000" points="171,-.5 171,-30.5 311,-30.5 311,-.5 171,-.5"/>
<text text-anchor="start" x="179" y="-18.5" font-family="Helvetica,sans-Serif" font-size="10.00" fill="#000000">Utilities::MPI::Consensus</text>
<text text-anchor="middle" x="241" y="-7.5" font-family="Helvetica,sans-Serif" font-size="10.00" fill="#000000">Algorithms::Serial&lt; T1, T2 &gt;</text>
</a>
</g>
</g>
<!-- Node0&#45;&gt;Node4 -->
<g id="edge4" class="edge">
<title>Node0&#45;&gt;Node4</title>
<path fill="none" stroke="#191970" d="M113.8003,-63.4099C129.9249,-55.6214 148.0496,-47.3034 165,-40.5 173.6366,-37.0335 182.9582,-33.6691 192.0147,-30.5908"/>
<polygon fill="#191970" stroke="#191970" points="112.0131,-60.3874 104.5615,-67.919 115.0835,-66.6782 112.0131,-60.3874"/>
</g>
</g>
</svg>
