<?xml version="1.0" encoding="UTF-8" standalone="no"?>
<!DOCTYPE svg PUBLIC "-//W3C//DTD SVG 1.1//EN"
 "http://www.w3.org/Graphics/SVG/1.1/DTD/svg11.dtd">
<!-- Generated by graphviz version 2.40.1 (20161225.0304)
 -->
<!-- Title: Mapping&lt; dim, spacedim &gt;::InternalDataBase Pages: 1 -->
<svg width="337pt" height="296pt"
 viewBox="0.00 0.00 337.00 296.00" xmlns="http://www.w3.org/2000/svg" xmlns:xlink="http://www.w3.org/1999/xlink">
<g id="graph0" class="graph" transform="scale(1 1) rotate(0) translate(4 292)">
<title>Mapping&lt; dim, spacedim &gt;::InternalDataBase</title>
<polygon fill="#ffffff" stroke="transparent" points="-4,4 -4,-292 333,-292 333,4 -4,4"/>
<!-- Node0 -->
<g id="node1" class="node">
<title>Node0</title>
<polygon fill="#bfbfbf" stroke="#000000" points="0,-125.5 0,-155.5 141,-155.5 141,-125.5 0,-125.5"/>
<text text-anchor="start" x="8" y="-143.5" font-family="Helvetica,sans-Serif" font-size="10.00" fill="#000000">Mapping&lt; dim, spacedim</text>
<text text-anchor="middle" x="70.5" y="-132.5" font-family="Helvetica,sans-Serif" font-size="10.00" fill="#000000"> &gt;::InternalDataBase</text>
</g>
<!-- Node1 -->
<g id="node2" class="node">
<title>Node1</title>
<g id="a_node2"><a xlink:href="classMappingCartesian_1_1InternalData.html" target="_top" xlink:title="MappingCartesian\&lt; dim,\l spacedim \&gt;::InternalData">
<polygon fill="#ffffff" stroke="#000000" points="180.5,-257.5 180.5,-287.5 325.5,-287.5 325.5,-257.5 180.5,-257.5"/>
<text text-anchor="start" x="188.5" y="-275.5" font-family="Helvetica,sans-Serif" font-size="10.00" fill="#000000">MappingCartesian&lt; dim,</text>
<text text-anchor="middle" x="253" y="-264.5" font-family="Helvetica,sans-Serif" font-size="10.00" fill="#000000"> spacedim &gt;::InternalData</text>
</a>
</g>
</g>
<!-- Node0&#45;&gt;Node1 -->
<g id="edge1" class="edge">
<title>Node0&#45;&gt;Node1</title>
<path fill="none" stroke="#191970" d="M87.7109,-163.7202C106.9383,-188.1147 140.2308,-226.0004 177,-248.5 182.5471,-251.8944 188.6191,-254.8513 194.8363,-257.4171"/>
<polygon fill="#191970" stroke="#191970" points="90.3982,-161.4738 81.5139,-155.7016 84.8595,-165.7543 90.3982,-161.4738"/>
</g>
<!-- Node2 -->
<g id="node3" class="node">
<title>Node2</title>
<g id="a_node3"><a xlink:href="classMappingFE_1_1InternalData.html" target="_top" xlink:title="MappingFE\&lt; dim, spacedim\l \&gt;::InternalData">
<polygon fill="#ffffff" stroke="#000000" points="177,-208.5 177,-238.5 329,-238.5 329,-208.5 177,-208.5"/>
<text text-anchor="start" x="185" y="-226.5" font-family="Helvetica,sans-Serif" font-size="10.00" fill="#000000">MappingFE&lt; dim, spacedim</text>
<text text-anchor="middle" x="253" y="-215.5" font-family="Helvetica,sans-Serif" font-size="10.00" fill="#000000"> &gt;::InternalData</text>
</a>
</g>
</g>
<!-- Node0&#45;&gt;Node2 -->
<g id="edge2" class="edge">
<title>Node0&#45;&gt;Node2</title>
<path fill="none" stroke="#191970" d="M103.9312,-160.7412C124.5318,-172.6962 151.7511,-187.5787 177,-198.5 185.159,-202.0291 193.9886,-205.3562 202.6434,-208.3617"/>
<polygon fill="#191970" stroke="#191970" points="105.6449,-157.6888 95.2483,-155.6485 102.1034,-163.7268 105.6449,-157.6888"/>
</g>
<!-- Node3 -->
<g id="node4" class="node">
<title>Node3</title>
<g id="a_node4"><a xlink:href="classMappingFEField_3_01dim_00_01spacedim_00_01VectorType_00_01void_01_4_1_1InternalData.html" target="_top" xlink:title="MappingFEField\&lt; dim,\l spacedim, VectorType,\l void \&gt;::InternalData">
<polygon fill="#ffffff" stroke="#000000" points="188.5,-148 188.5,-189 317.5,-189 317.5,-148 188.5,-148"/>
<text text-anchor="start" x="196.5" y="-177" font-family="Helvetica,sans-Serif" font-size="10.00" fill="#000000">MappingFEField&lt; dim,</text>
<text text-anchor="start" x="196.5" y="-166" font-family="Helvetica,sans-Serif" font-size="10.00" fill="#000000"> spacedim, VectorType,</text>
<text text-anchor="middle" x="253" y="-155" font-family="Helvetica,sans-Serif" font-size="10.00" fill="#000000"> void &gt;::InternalData</text>
</a>
</g>
</g>
<!-- Node0&#45;&gt;Node3 -->
<g id="edge3" class="edge">
<title>Node0&#45;&gt;Node3</title>
<path fill="none" stroke="#191970" d="M150.9924,-152.8495C163.4736,-154.7644 176.227,-156.7211 188.3011,-158.5736"/>
<polygon fill="#191970" stroke="#191970" points="151.4744,-149.3826 141.0593,-151.3255 150.4128,-156.3016 151.4744,-149.3826"/>
</g>
<!-- Node4 -->
<g id="node5" class="node">
<title>Node4</title>
<g id="a_node5"><a xlink:href="classMappingManifold_1_1InternalData.html" target="_top" xlink:title="MappingManifold\&lt; dim,\l spacedim \&gt;::InternalData">
<polygon fill="#ffffff" stroke="#000000" points="180.5,-98.5 180.5,-128.5 325.5,-128.5 325.5,-98.5 180.5,-98.5"/>
<text text-anchor="start" x="188.5" y="-116.5" font-family="Helvetica,sans-Serif" font-size="10.00" fill="#000000">MappingManifold&lt; dim,</text>
<text text-anchor="middle" x="253" y="-105.5" font-family="Helvetica,sans-Serif" font-size="10.00" fill="#000000"> spacedim &gt;::InternalData</text>
</a>
</g>
</g>
<!-- Node0&#45;&gt;Node4 -->
<g id="edge4" class="edge">
<title>Node0&#45;&gt;Node4</title>
<path fill="none" stroke="#191970" d="M151.0857,-128.5777C160.7815,-127.1433 170.6401,-125.6848 180.2156,-124.2681"/>
<polygon fill="#191970" stroke="#191970" points="150.4393,-125.1352 141.0593,-130.0611 151.4639,-132.0598 150.4393,-125.1352"/>
</g>
<!-- Node5 -->
<g id="node6" class="node">
<title>Node5</title>
<g id="a_node6"><a xlink:href="classMappingQ_1_1InternalData.html" target="_top" xlink:title="MappingQ\&lt; dim, spacedim\l \&gt;::InternalData">
<polygon fill="#ffffff" stroke="#000000" points="178.5,-49.5 178.5,-79.5 327.5,-79.5 327.5,-49.5 178.5,-49.5"/>
<text text-anchor="start" x="186.5" y="-67.5" font-family="Helvetica,sans-Serif" font-size="10.00" fill="#000000">MappingQ&lt; dim, spacedim</text>
<text text-anchor="middle" x="253" y="-56.5" font-family="Helvetica,sans-Serif" font-size="10.00" fill="#000000"> &gt;::InternalData</text>
</a>
</g>
</g>
<!-- Node0&#45;&gt;Node5 -->
<g id="edge5" class="edge">
<title>Node0&#45;&gt;Node5</title>
<path fill="none" stroke="#191970" d="M108.5544,-120.8071C128.634,-110.7933 153.847,-98.8067 177,-89.5 185.6348,-86.0291 194.9556,-82.6626 204.0118,-79.5835"/>
<polygon fill="#191970" stroke="#191970" points="106.7894,-117.7771 99.4291,-125.3979 109.9353,-124.0303 106.7894,-117.7771"/>
</g>
<!-- Node6 -->
<g id="node7" class="node">
<title>Node6</title>
<g id="a_node7"><a xlink:href="classMappingQGeneric_1_1InternalData.html" target="_top" xlink:title="MappingQGeneric\&lt; dim,\l spacedim \&gt;::InternalData">
<polygon fill="#ffffff" stroke="#000000" points="180.5,-.5 180.5,-30.5 325.5,-30.5 325.5,-.5 180.5,-.5"/>
<text text-anchor="start" x="188.5" y="-18.5" font-family="Helvetica,sans-Serif" font-size="10.00" fill="#000000">MappingQGeneric&lt; dim,</text>
<text text-anchor="middle" x="253" y="-7.5" font-family="Helvetica,sans-Serif" font-size="10.00" fill="#000000"> spacedim &gt;::InternalData</text>
</a>
</g>
</g>
<!-- Node0&#45;&gt;Node6 -->
<g id="edge6" class="edge">
<title>Node0&#45;&gt;Node6</title>
<path fill="none" stroke="#191970" d="M89.3615,-117.7322C109.1008,-95.2348 142.0396,-61.2603 177,-40.5 183.3298,-36.7412 190.2961,-33.4673 197.3642,-30.6385"/>
<polygon fill="#191970" stroke="#191970" points="86.5828,-115.5953 82.707,-125.4558 91.8859,-120.1644 86.5828,-115.5953"/>
</g>
</g>
</svg>
