<?xml version="1.0" encoding="UTF-8" standalone="no"?>
<!DOCTYPE svg PUBLIC "-//W3C//DTD SVG 1.1//EN"
 "http://www.w3.org/Graphics/SVG/1.1/DTD/svg11.dtd">
<!-- Generated by graphviz version 2.40.1 (20161225.0304)
 -->
<!-- Title: NonMatching::internal::QuadratureGeneratorImplementation::QGenerator&lt; dim, spacedim &gt; Pages: 1 -->
<svg width="680pt" height="50pt"
 viewBox="0.00 0.00 680.00 50.00" xmlns="http://www.w3.org/2000/svg" xmlns:xlink="http://www.w3.org/1999/xlink">
<g id="graph0" class="graph" transform="scale(1 1) rotate(0) translate(4 46)">
<title>NonMatching::internal::QuadratureGeneratorImplementation::QGenerator&lt; dim, spacedim &gt;</title>
<polygon fill="#ffffff" stroke="transparent" points="-4,4 -4,-46 676,-46 676,4 -4,4"/>
<!-- Node0 -->
<g id="node1" class="node">
<title>Node0</title>
<polygon fill="#bfbfbf" stroke="#000000" points="217,-.5 217,-41.5 397,-41.5 397,-.5 217,-.5"/>
<text text-anchor="start" x="225" y="-29.5" font-family="Helvetica,sans-Serif" font-size="10.00" fill="#000000">NonMatching::internal</text>
<text text-anchor="start" x="225" y="-18.5" font-family="Helvetica,sans-Serif" font-size="10.00" fill="#000000">::QuadratureGeneratorImplementation</text>
<text text-anchor="middle" x="307" y="-7.5" font-family="Helvetica,sans-Serif" font-size="10.00" fill="#000000">::QGenerator&lt; dim, spacedim &gt;</text>
</g>
<!-- Node2 -->
<g id="node3" class="node">
<title>Node2</title>
<g id="a_node3"><a xlink:href="classNonMatching_1_1internal_1_1QuadratureGeneratorImplementation_1_1QGenerator.html" target="_top" xlink:title="NonMatching::internal\l::QuadratureGeneratorImplementation\l::QGenerator\&lt; dim, dim \&gt;">
<polygon fill="#ffffff" stroke="#000000" points="492,-.5 492,-41.5 672,-41.5 672,-.5 492,-.5"/>
<text text-anchor="start" x="500" y="-29.5" font-family="Helvetica,sans-Serif" font-size="10.00" fill="#000000">NonMatching::internal</text>
<text text-anchor="start" x="500" y="-18.5" font-family="Helvetica,sans-Serif" font-size="10.00" fill="#000000">::QuadratureGeneratorImplementation</text>
<text text-anchor="middle" x="582" y="-7.5" font-family="Helvetica,sans-Serif" font-size="10.00" fill="#000000">::QGenerator&lt; dim, dim &gt;</text>
</a>
</g>
</g>
<!-- Node0&#45;&gt;Node2 -->
<g id="edge2" class="edge">
<title>Node0&#45;&gt;Node2</title>
<path fill="none" stroke="#ffa500" stroke-dasharray="5,2" d="M407.1339,-21C434.8108,-21 464.6734,-21 491.7524,-21"/>
<polygon fill="#ffa500" stroke="#ffa500" points="407.0453,-17.5001 397.0453,-21 407.0453,-24.5001 407.0453,-17.5001"/>
<text text-anchor="middle" x="444.5" y="-24" font-family="Helvetica,sans-Serif" font-size="10.00" fill="#000000"> &lt; dim, dim &gt;</text>
</g>
<!-- Node1 -->
<g id="node2" class="node">
<title>Node1</title>
<g id="a_node2"><a xlink:href="classNonMatching_1_1internal_1_1QuadratureGeneratorImplementation_1_1QGeneratorBase.html" target="_top" xlink:title="NonMatching::internal\l::QuadratureGeneratorImplementation\l::QGeneratorBase\&lt; dim, spacedim \&gt;">
<polygon fill="#ffffff" stroke="#000000" points="0,-.5 0,-41.5 180,-41.5 180,-.5 0,-.5"/>
<text text-anchor="start" x="8" y="-29.5" font-family="Helvetica,sans-Serif" font-size="10.00" fill="#000000">NonMatching::internal</text>
<text text-anchor="start" x="8" y="-18.5" font-family="Helvetica,sans-Serif" font-size="10.00" fill="#000000">::QuadratureGeneratorImplementation</text>
<text text-anchor="middle" x="90" y="-7.5" font-family="Helvetica,sans-Serif" font-size="10.00" fill="#000000">::QGeneratorBase&lt; dim, spacedim &gt;</text>
</a>
</g>
</g>
<!-- Node1&#45;&gt;Node0 -->
<g id="edge1" class="edge">
<title>Node1&#45;&gt;Node0</title>
<path fill="none" stroke="#191970" d="M190.4211,-21C199.2169,-21 208.0838,-21 216.789,-21"/>
<polygon fill="#191970" stroke="#191970" points="190.1424,-17.5001 180.1423,-21 190.1423,-24.5001 190.1424,-17.5001"/>
</g>
</g>
</svg>
