<?xml version="1.0" encoding="UTF-8" standalone="no"?>
<!DOCTYPE svg PUBLIC "-//W3C//DTD SVG 1.1//EN"
 "http://www.w3.org/Graphics/SVG/1.1/DTD/svg11.dtd">
<!-- Generated by graphviz version 2.40.1 (20161225.0304)
 -->
<!-- Title: FEEvaluationAccess&lt; dim, 1, Number, is_face, VectorizedArrayType &gt; Pages: 1 -->
<svg width="865pt" height="77pt"
 viewBox="0.00 0.00 865.00 77.00" xmlns="http://www.w3.org/2000/svg" xmlns:xlink="http://www.w3.org/1999/xlink">
<g id="graph0" class="graph" transform="scale(1 1) rotate(0) translate(4 73)">
<title>FEEvaluationAccess&lt; dim, 1, Number, is_face, VectorizedArrayType &gt;</title>
<polygon fill="#ffffff" stroke="transparent" points="-4,4 -4,-73 861,-73 861,4 -4,4"/>
<!-- Node0 -->
<g id="node1" class="node">
<title>Node0</title>
<polygon fill="#bfbfbf" stroke="#000000" points="697,-27.5 697,-68.5 857,-68.5 857,-27.5 697,-27.5"/>
<text text-anchor="start" x="705" y="-56.5" font-family="Helvetica,sans-Serif" font-size="10.00" fill="#000000">FEEvaluationAccess</text>
<text text-anchor="start" x="705" y="-45.5" font-family="Helvetica,sans-Serif" font-size="10.00" fill="#000000">&lt; dim, 1, Number, is</text>
<text text-anchor="middle" x="777" y="-34.5" font-family="Helvetica,sans-Serif" font-size="10.00" fill="#000000">_face, VectorizedArrayType &gt;</text>
</g>
<!-- Node1 -->
<g id="node2" class="node">
<title>Node1</title>
<g id="a_node2"><a xlink:href="classFEEvaluationBase.html" target="_top" xlink:title="FEEvaluationBase\&lt; dim,\l 1, Number, is_face,\l VectorizedArrayType \&gt;">
<polygon fill="#ffffff" stroke="#000000" points="523,-27.5 523,-68.5 660,-68.5 660,-27.5 523,-27.5"/>
<text text-anchor="start" x="531" y="-56.5" font-family="Helvetica,sans-Serif" font-size="10.00" fill="#000000">FEEvaluationBase&lt; dim,</text>
<text text-anchor="start" x="531" y="-45.5" font-family="Helvetica,sans-Serif" font-size="10.00" fill="#000000"> 1, Number, is_face,</text>
<text text-anchor="middle" x="591.5" y="-34.5" font-family="Helvetica,sans-Serif" font-size="10.00" fill="#000000"> VectorizedArrayType &gt;</text>
</a>
</g>
</g>
<!-- Node1&#45;&gt;Node0 -->
<g id="edge1" class="edge">
<title>Node1&#45;&gt;Node0</title>
<path fill="none" stroke="#191970" d="M670.2655,-48C679.0544,-48 688.0148,-48 696.8212,-48"/>
<polygon fill="#191970" stroke="#191970" points="670.0464,-44.5001 660.0463,-48 670.0463,-51.5001 670.0464,-44.5001"/>
</g>
<!-- Node2 -->
<g id="node3" class="node">
<title>Node2</title>
<g id="a_node3"><a xlink:href="classFEEvaluationBaseData.html" target="_top" xlink:title="FEEvaluationBaseData\l\&lt; dim, Number, is_face,\l VectorizedArrayType \&gt;">
<polygon fill="#ffffff" stroke="#000000" points="0,-24.5 0,-65.5 135,-65.5 135,-24.5 0,-24.5"/>
<text text-anchor="start" x="8" y="-53.5" font-family="Helvetica,sans-Serif" font-size="10.00" fill="#000000">FEEvaluationBaseData</text>
<text text-anchor="start" x="8" y="-42.5" font-family="Helvetica,sans-Serif" font-size="10.00" fill="#000000">&lt; dim, Number, is_face,</text>
<text text-anchor="middle" x="67.5" y="-31.5" font-family="Helvetica,sans-Serif" font-size="10.00" fill="#000000"> VectorizedArrayType &gt;</text>
</a>
</g>
</g>
<!-- Node2&#45;&gt;Node1 -->
<g id="edge2" class="edge">
<title>Node2&#45;&gt;Node1</title>
<path fill="none" stroke="#191970" d="M145.3288,-49.7348C154.3201,-50.2028 163.3594,-50.6377 172,-51 319.8868,-57.2002 357.1407,-62.8229 505,-56 510.7249,-55.7358 516.6561,-55.3738 522.6062,-54.9488"/>
<polygon fill="#191970" stroke="#191970" points="145.3943,-46.2334 135.2217,-49.1944 145.0205,-53.2234 145.3943,-46.2334"/>
</g>
<!-- Node3 -->
<g id="node4" class="node">
<title>Node3</title>
<g id="a_node4"><a xlink:href="classFEEvaluationBase.html" target="_top" xlink:title="FEEvaluationBase\&lt; dim,\l n_components_, Number,\l is_face, VectorizedArrayType \&gt;">
<polygon fill="#ffffff" stroke="#000000" points="172,-.5 172,-41.5 343,-41.5 343,-.5 172,-.5"/>
<text text-anchor="start" x="180" y="-29.5" font-family="Helvetica,sans-Serif" font-size="10.00" fill="#000000">FEEvaluationBase&lt; dim,</text>
<text text-anchor="start" x="180" y="-18.5" font-family="Helvetica,sans-Serif" font-size="10.00" fill="#000000"> n_components_, Number,</text>
<text text-anchor="middle" x="257.5" y="-7.5" font-family="Helvetica,sans-Serif" font-size="10.00" fill="#000000"> is_face, VectorizedArrayType &gt;</text>
</a>
</g>
</g>
<!-- Node2&#45;&gt;Node3 -->
<g id="edge4" class="edge">
<title>Node2&#45;&gt;Node3</title>
<path fill="none" stroke="#191970" d="M144.9464,-35.2173C153.832,-34.0949 162.9299,-32.9457 171.9143,-31.8108"/>
<polygon fill="#191970" stroke="#191970" points="144.5044,-31.7452 135.0219,-36.4709 145.3817,-38.69 144.5044,-31.7452"/>
</g>
<!-- Node3&#45;&gt;Node1 -->
<g id="edge3" class="edge">
<title>Node3&#45;&gt;Node1</title>
<path fill="none" stroke="#ffa500" stroke-dasharray="5,2" d="M353.2727,-23.6198C399.2536,-25.4927 455.081,-28.6651 505,-34 510.7481,-34.6143 516.6957,-35.3547 522.6568,-36.1703"/>
<polygon fill="#ffa500" stroke="#ffa500" points="353.1456,-20.1122 343.0158,-23.2168 352.8707,-27.1068 353.1456,-20.1122"/>
<text text-anchor="start" x="361" y="-48" font-family="Helvetica,sans-Serif" font-size="10.00" fill="#000000"> &lt; dim, 1, Number, is</text>
<text text-anchor="middle" x="433" y="-37" font-family="Helvetica,sans-Serif" font-size="10.00" fill="#000000">_face, VectorizedArrayType &gt;</text>
</g>
</g>
</svg>
