<?xml version="1.0" encoding="UTF-8" standalone="no"?>
<!DOCTYPE svg PUBLIC "-//W3C//DTD SVG 1.1//EN"
 "http://www.w3.org/Graphics/SVG/1.1/DTD/svg11.dtd">
<!-- Generated by graphviz version 2.40.1 (20161225.0304)
 -->
<!-- Title: FEEvaluationBaseData&lt; dim, Number, is_face, VectorizedArrayType &gt; Pages: 1 -->
<svg width="1149pt" height="410pt"
 viewBox="0.00 0.00 1149.00 410.00" xmlns="http://www.w3.org/2000/svg" xmlns:xlink="http://www.w3.org/1999/xlink">
<g id="graph0" class="graph" transform="scale(1 1) rotate(0) translate(4 406)">
<title>FEEvaluationBaseData&lt; dim, Number, is_face, VectorizedArrayType &gt;</title>
<polygon fill="#ffffff" stroke="transparent" points="-4,4 -4,-406 1145,-406 1145,4 -4,4"/>
<!-- Node0 -->
<g id="node1" class="node">
<title>Node0</title>
<polygon fill="#bfbfbf" stroke="#000000" points="0,-176.5 0,-217.5 122,-217.5 122,-176.5 0,-176.5"/>
<text text-anchor="start" x="8" y="-205.5" font-family="Helvetica,sans-Serif" font-size="10.00" fill="#000000">FEEvaluationBaseData</text>
<text text-anchor="start" x="8" y="-194.5" font-family="Helvetica,sans-Serif" font-size="10.00" fill="#000000">&lt; dim, Number, is_face,</text>
<text text-anchor="middle" x="61" y="-183.5" font-family="Helvetica,sans-Serif" font-size="10.00" fill="#000000"> VectorizedArrayType &gt;</text>
</g>
<!-- Node1 -->
<g id="node2" class="node">
<title>Node1</title>
<g id="a_node2"><a xlink:href="classFEEvaluationBase.html" target="_top" xlink:title="FEEvaluationBase\&lt; dim,\l Number, is_face, Vectorized\lArrayType \&gt;">
<polygon fill="#ffffff" stroke="#000000" points="159,-176.5 159,-217.5 303,-217.5 303,-176.5 159,-176.5"/>
<text text-anchor="start" x="167" y="-205.5" font-family="Helvetica,sans-Serif" font-size="10.00" fill="#000000">FEEvaluationBase&lt; dim,</text>
<text text-anchor="start" x="167" y="-194.5" font-family="Helvetica,sans-Serif" font-size="10.00" fill="#000000"> Number, is_face, Vectorized</text>
<text text-anchor="middle" x="231" y="-183.5" font-family="Helvetica,sans-Serif" font-size="10.00" fill="#000000">ArrayType &gt;</text>
</a>
</g>
</g>
<!-- Node0&#45;&gt;Node1 -->
<g id="edge1" class="edge">
<title>Node0&#45;&gt;Node1</title>
<path fill="none" stroke="#191970" d="M132.4583,-197C141.1437,-197 150.0226,-197 158.7198,-197"/>
<polygon fill="#191970" stroke="#191970" points="132.3739,-193.5001 122.3739,-197 132.3739,-200.5001 132.3739,-193.5001"/>
</g>
<!-- Node7 -->
<g id="node8" class="node">
<title>Node7</title>
<g id="a_node8"><a xlink:href="classFEEvaluationBase.html" target="_top" xlink:title="FEEvaluationBase\&lt; 1,\l 1, Number, is_face,\l VectorizedArrayType \&gt;">
<polygon fill="#ffffff" stroke="#000000" points="497,-360.5 497,-401.5 617,-401.5 617,-360.5 497,-360.5"/>
<text text-anchor="start" x="505" y="-389.5" font-family="Helvetica,sans-Serif" font-size="10.00" fill="#000000">FEEvaluationBase&lt; 1,</text>
<text text-anchor="start" x="505" y="-378.5" font-family="Helvetica,sans-Serif" font-size="10.00" fill="#000000"> 1, Number, is_face,</text>
<text text-anchor="middle" x="557" y="-367.5" font-family="Helvetica,sans-Serif" font-size="10.00" fill="#000000"> VectorizedArrayType &gt;</text>
</a>
</g>
</g>
<!-- Node0&#45;&gt;Node7 -->
<g id="edge16" class="edge">
<title>Node0&#45;&gt;Node7</title>
<path fill="none" stroke="#191970" d="M79.1363,-226.5562C96.5042,-252.3817 125.0433,-288.9456 159,-310 264.5842,-375.466 414.4262,-384.3458 496.852,-383.592"/>
<polygon fill="#191970" stroke="#191970" points="81.8788,-224.3557 73.4684,-217.9123 76.025,-228.1941 81.8788,-224.3557"/>
</g>
<!-- Node9 -->
<g id="node10" class="node">
<title>Node9</title>
<g id="a_node10"><a xlink:href="classFEEvaluationBase.html" target="_top" xlink:title="FEEvaluationBase\&lt; dim,\l 1, Number, is_face,\l VectorizedArrayType \&gt;">
<polygon fill="#ffffff" stroke="#000000" points="494.5,-63.5 494.5,-104.5 619.5,-104.5 619.5,-63.5 494.5,-63.5"/>
<text text-anchor="start" x="502.5" y="-92.5" font-family="Helvetica,sans-Serif" font-size="10.00" fill="#000000">FEEvaluationBase&lt; dim,</text>
<text text-anchor="start" x="502.5" y="-81.5" font-family="Helvetica,sans-Serif" font-size="10.00" fill="#000000"> 1, Number, is_face,</text>
<text text-anchor="middle" x="557" y="-70.5" font-family="Helvetica,sans-Serif" font-size="10.00" fill="#000000"> VectorizedArrayType &gt;</text>
</a>
</g>
</g>
<!-- Node0&#45;&gt;Node9 -->
<g id="edge17" class="edge">
<title>Node0&#45;&gt;Node9</title>
<path fill="none" stroke="#191970" d="M100.4235,-170.8253C149.6158,-139.8836 237.4662,-90.1744 321,-71 378.5917,-57.7804 446.0646,-63.5461 494.08,-71.1214"/>
<polygon fill="#191970" stroke="#191970" points="98.2589,-168.054 91.6979,-176.3728 102.0146,-173.9612 98.2589,-168.054"/>
</g>
<!-- Node11 -->
<g id="node12" class="node">
<title>Node11</title>
<g id="a_node12"><a xlink:href="classFEEvaluationBase.html" target="_top" xlink:title="FEEvaluationBase\&lt; dim,\l n_components, Number,\l false, VectorizedArrayType \&gt;">
<polygon fill="#ffffff" stroke="#000000" points="483.5,-296.5 483.5,-337.5 630.5,-337.5 630.5,-296.5 483.5,-296.5"/>
<text text-anchor="start" x="491.5" y="-325.5" font-family="Helvetica,sans-Serif" font-size="10.00" fill="#000000">FEEvaluationBase&lt; dim,</text>
<text text-anchor="start" x="491.5" y="-314.5" font-family="Helvetica,sans-Serif" font-size="10.00" fill="#000000"> n_components, Number,</text>
<text text-anchor="middle" x="557" y="-303.5" font-family="Helvetica,sans-Serif" font-size="10.00" fill="#000000"> false, VectorizedArrayType &gt;</text>
</a>
</g>
</g>
<!-- Node0&#45;&gt;Node11 -->
<g id="edge19" class="edge">
<title>Node0&#45;&gt;Node11</title>
<path fill="none" stroke="#191970" d="M96.9794,-223.3026C145.1424,-256.7199 234.5607,-312.6198 321,-334 374.3351,-347.1921 436.359,-341.959 483.434,-333.9527"/>
<polygon fill="#191970" stroke="#191970" points="98.9569,-220.4145 88.7598,-217.5388 94.9379,-226.1458 98.9569,-220.4145"/>
</g>
<!-- Node12 -->
<g id="node13" class="node">
<title>Node12</title>
<g id="a_node13"><a xlink:href="classFEEvaluationBase.html" target="_top" xlink:title="FEEvaluationBase\&lt; dim,\l dim, Number, is_face,\l VectorizedArrayType \&gt;">
<polygon fill="#ffffff" stroke="#000000" points="494.5,-.5 494.5,-41.5 619.5,-41.5 619.5,-.5 494.5,-.5"/>
<text text-anchor="start" x="502.5" y="-29.5" font-family="Helvetica,sans-Serif" font-size="10.00" fill="#000000">FEEvaluationBase&lt; dim,</text>
<text text-anchor="start" x="502.5" y="-18.5" font-family="Helvetica,sans-Serif" font-size="10.00" fill="#000000"> dim, Number, is_face,</text>
<text text-anchor="middle" x="557" y="-7.5" font-family="Helvetica,sans-Serif" font-size="10.00" fill="#000000"> VectorizedArrayType &gt;</text>
</a>
</g>
</g>
<!-- Node0&#45;&gt;Node12 -->
<g id="edge18" class="edge">
<title>Node0&#45;&gt;Node12</title>
<path fill="none" stroke="#191970" d="M75.7106,-167.241C91.8563,-138.0148 120.6649,-94.7436 159,-73 264.9216,-12.9215 411.69,-10.634 494.1838,-15.2338"/>
<polygon fill="#191970" stroke="#191970" points="72.553,-165.7236 70.9174,-176.1914 78.7238,-169.0283 72.553,-165.7236"/>
</g>
<!-- Node2 -->
<g id="node3" class="node">
<title>Node2</title>
<g id="a_node3"><a xlink:href="classFEEvaluationAccess.html" target="_top" xlink:title="FEEvaluationAccess\l\&lt; dim, n_components\l_, Number, is_face, Vectorized\lArrayType \&gt;">
<polygon fill="#ffffff" stroke="#000000" points="481,-171 481,-223 633,-223 633,-171 481,-171"/>
<text text-anchor="start" x="489" y="-211" font-family="Helvetica,sans-Serif" font-size="10.00" fill="#000000">FEEvaluationAccess</text>
<text text-anchor="start" x="489" y="-200" font-family="Helvetica,sans-Serif" font-size="10.00" fill="#000000">&lt; dim, n_components</text>
<text text-anchor="start" x="489" y="-189" font-family="Helvetica,sans-Serif" font-size="10.00" fill="#000000">_, Number, is_face, Vectorized</text>
<text text-anchor="middle" x="557" y="-178" font-family="Helvetica,sans-Serif" font-size="10.00" fill="#000000">ArrayType &gt;</text>
</a>
</g>
</g>
<!-- Node1&#45;&gt;Node2 -->
<g id="edge2" class="edge">
<title>Node1&#45;&gt;Node2</title>
<path fill="none" stroke="#191970" d="M313.4417,-197C364.8984,-197 430.6636,-197 480.8825,-197"/>
<polygon fill="#191970" stroke="#191970" points="313.35,-193.5001 303.35,-197 313.3499,-200.5001 313.35,-193.5001"/>
</g>
<!-- Node3 -->
<g id="node4" class="node">
<title>Node3</title>
<g id="a_node4"><a xlink:href="classFEEvaluationAccess.html" target="_top" xlink:title="FEEvaluationAccess\l\&lt; dim, n_components\l_, Number, false, Vectorized\lArrayType \&gt;">
<polygon fill="#ffffff" stroke="#000000" points="803,-217 803,-269 945,-269 945,-217 803,-217"/>
<text text-anchor="start" x="811" y="-257" font-family="Helvetica,sans-Serif" font-size="10.00" fill="#000000">FEEvaluationAccess</text>
<text text-anchor="start" x="811" y="-246" font-family="Helvetica,sans-Serif" font-size="10.00" fill="#000000">&lt; dim, n_components</text>
<text text-anchor="start" x="811" y="-235" font-family="Helvetica,sans-Serif" font-size="10.00" fill="#000000">_, Number, false, Vectorized</text>
<text text-anchor="middle" x="874" y="-224" font-family="Helvetica,sans-Serif" font-size="10.00" fill="#000000">ArrayType &gt;</text>
</a>
</g>
</g>
<!-- Node1&#45;&gt;Node3 -->
<g id="edge7" class="edge">
<title>Node1&#45;&gt;Node3</title>
<path fill="none" stroke="#191970" d="M313.2934,-209.5202C362.0079,-216.7643 424.961,-225.8354 481,-233 611.7619,-249.7179 645.3147,-258.096 777,-252 785.3628,-251.6129 794.1181,-251.039 802.8016,-250.365"/>
<polygon fill="#191970" stroke="#191970" points="313.5289,-206.0167 303.122,-208.0035 312.4964,-212.9401 313.5289,-206.0167"/>
</g>
<!-- Node5 -->
<g id="node6" class="node">
<title>Node5</title>
<g id="a_node6"><a xlink:href="classFEEvaluationAccess.html" target="_top" xlink:title="FEEvaluationAccess\l\&lt; dim, n_components\l_, Number, true, Vectorized\lArrayType \&gt;">
<polygon fill="#ffffff" stroke="#000000" points="805.5,-130 805.5,-182 942.5,-182 942.5,-130 805.5,-130"/>
<text text-anchor="start" x="813.5" y="-170" font-family="Helvetica,sans-Serif" font-size="10.00" fill="#000000">FEEvaluationAccess</text>
<text text-anchor="start" x="813.5" y="-159" font-family="Helvetica,sans-Serif" font-size="10.00" fill="#000000">&lt; dim, n_components</text>
<text text-anchor="start" x="813.5" y="-148" font-family="Helvetica,sans-Serif" font-size="10.00" fill="#000000">_, Number, true, Vectorized</text>
<text text-anchor="middle" x="874" y="-137" font-family="Helvetica,sans-Serif" font-size="10.00" fill="#000000">ArrayType &gt;</text>
</a>
</g>
</g>
<!-- Node1&#45;&gt;Node5 -->
<g id="edge8" class="edge">
<title>Node1&#45;&gt;Node5</title>
<path fill="none" stroke="#191970" d="M313.2346,-184.286C361.929,-177.0579 424.8815,-168.2339 481,-162 611.8975,-147.4592 645.4088,-142.5828 777,-148 786.2013,-148.3788 795.8812,-148.9589 805.4188,-149.6374"/>
<polygon fill="#191970" stroke="#191970" points="312.4418,-180.8655 303.0677,-185.8027 313.4747,-187.7888 312.4418,-180.8655"/>
</g>
<!-- Node1&#45;&gt;Node7 -->
<g id="edge9" class="edge">
<title>Node1&#45;&gt;Node7</title>
<path fill="none" stroke="#ffa500" stroke-dasharray="5,2" d="M253.3912,-225.659C270.2153,-245.6222 294.7873,-271.6742 321,-289 350.7156,-308.6411 437.329,-340.2655 496.9292,-360.8415"/>
<polygon fill="#ffa500" stroke="#ffa500" points="255.9612,-223.2744 246.8944,-217.793 250.564,-227.7321 255.9612,-223.2744"/>
<text text-anchor="start" x="326.5" y="-362" font-family="Helvetica,sans-Serif" font-size="10.00" fill="#000000"> &lt; 1, 1, Number, is</text>
<text text-anchor="middle" x="392" y="-351" font-family="Helvetica,sans-Serif" font-size="10.00" fill="#000000">_face, VectorizedArrayType &gt;</text>
</g>
<!-- Node1&#45;&gt;Node9 -->
<g id="edge11" class="edge">
<title>Node1&#45;&gt;Node9</title>
<path fill="none" stroke="#ffa500" stroke-dasharray="5,2" d="M263.0647,-170.2159C279.432,-157.9101 300.2355,-144.2483 321,-136 380.4174,-112.3976 400.7487,-127.5699 463,-113 473.31,-110.5869 484.1396,-107.6417 494.6325,-104.5636"/>
<polygon fill="#ffa500" stroke="#ffa500" points="260.7115,-167.6108 254.9337,-176.4916 264.9886,-173.1522 260.7115,-167.6108"/>
<text text-anchor="start" x="326.5" y="-150" font-family="Helvetica,sans-Serif" font-size="10.00" fill="#000000"> &lt; dim, 1, Number, is</text>
<text text-anchor="middle" x="392" y="-139" font-family="Helvetica,sans-Serif" font-size="10.00" fill="#000000">_face, VectorizedArrayType &gt;</text>
</g>
<!-- Node1&#45;&gt;Node11 -->
<g id="edge13" class="edge">
<title>Node1&#45;&gt;Node11</title>
<path fill="none" stroke="#ffa500" stroke-dasharray="5,2" d="M286.3646,-221.3533C297.6696,-225.6967 309.5978,-229.8377 321,-233 382.6081,-250.0865 405.6754,-227.691 463,-256 472.8664,-260.8724 472.1792,-266.4213 481,-273 492.2438,-281.3857 505.2215,-289.4268 517.2348,-296.288"/>
<polygon fill="#ffa500" stroke="#ffa500" points="287.6269,-218.0888 277.0402,-217.6742 285.0577,-224.6003 287.6269,-218.0888"/>
<text text-anchor="start" x="333" y="-281" font-family="Helvetica,sans-Serif" font-size="10.00" fill="#000000"> &lt; dim, n_components,</text>
<text text-anchor="start" x="333" y="-270" font-family="Helvetica,sans-Serif" font-size="10.00" fill="#000000"> Number, false, Vectorized</text>
<text text-anchor="middle" x="392" y="-259" font-family="Helvetica,sans-Serif" font-size="10.00" fill="#000000">ArrayType &gt;</text>
</g>
<!-- Node1&#45;&gt;Node12 -->
<g id="edge14" class="edge">
<title>Node1&#45;&gt;Node12</title>
<path fill="none" stroke="#ffa500" stroke-dasharray="5,2" d="M247.8553,-167.5931C263.6621,-142.5874 289.5436,-107.5589 321,-87 373.6179,-52.6105 444.1108,-35.9321 494.3186,-27.9761"/>
<polygon fill="#ffa500" stroke="#ffa500" points="244.7536,-165.9553 242.4959,-176.3068 250.7161,-169.6226 244.7536,-165.9553"/>
<text text-anchor="start" x="321" y="-101" font-family="Helvetica,sans-Serif" font-size="10.00" fill="#000000"> &lt; dim, dim, Number,</text>
<text text-anchor="middle" x="392" y="-90" font-family="Helvetica,sans-Serif" font-size="10.00" fill="#000000"> is_face, VectorizedArrayType &gt;</text>
</g>
<!-- Node2&#45;&gt;Node3 -->
<g id="edge3" class="edge">
<title>Node2&#45;&gt;Node3</title>
<path fill="none" stroke="#ffa500" stroke-dasharray="5,2" d="M643.3784,-202.767C684.0983,-206.2178 733.239,-211.4381 777,-219 785.4619,-220.4622 794.278,-222.2563 802.9951,-224.1992"/>
<polygon fill="#ffa500" stroke="#ffa500" points="643.47,-199.2628 633.2158,-201.9275 642.8936,-206.239 643.47,-199.2628"/>
<text text-anchor="start" x="651" y="-244" font-family="Helvetica,sans-Serif" font-size="10.00" fill="#000000"> &lt; dim, n_components</text>
<text text-anchor="start" x="651" y="-233" font-family="Helvetica,sans-Serif" font-size="10.00" fill="#000000">_, Number, false, Vectorized</text>
<text text-anchor="middle" x="714" y="-222" font-family="Helvetica,sans-Serif" font-size="10.00" fill="#000000">ArrayType &gt;</text>
</g>
<!-- Node2&#45;&gt;Node5 -->
<g id="edge5" class="edge">
<title>Node2&#45;&gt;Node5</title>
<path fill="none" stroke="#ffa500" stroke-dasharray="5,2" d="M630.6328,-167.9161C637.4428,-165.9735 644.3007,-164.283 651,-163 701.9776,-153.2372 760.6871,-151.7769 805.0669,-152.6023"/>
<polygon fill="#ffa500" stroke="#ffa500" points="629.2673,-164.6727 620.7137,-170.9246 631.2991,-171.3714 629.2673,-164.6727"/>
<text text-anchor="start" x="653.5" y="-188" font-family="Helvetica,sans-Serif" font-size="10.00" fill="#000000"> &lt; dim, n_components</text>
<text text-anchor="start" x="653.5" y="-177" font-family="Helvetica,sans-Serif" font-size="10.00" fill="#000000">_, Number, true, Vectorized</text>
<text text-anchor="middle" x="714" y="-166" font-family="Helvetica,sans-Serif" font-size="10.00" fill="#000000">ArrayType &gt;</text>
</g>
<!-- Node4 -->
<g id="node5" class="node">
<title>Node4</title>
<g id="a_node5"><a xlink:href="classFEEvaluation.html" target="_top" xlink:title="FEEvaluation\&lt; dim,\l fe_degree, n_q_points\l_1d, n_components_, Number,\l VectorizedArrayType \&gt;">
<polygon fill="#ffffff" stroke="#000000" points="990,-217 990,-269 1141,-269 1141,-217 990,-217"/>
<text text-anchor="start" x="998" y="-257" font-family="Helvetica,sans-Serif" font-size="10.00" fill="#000000">FEEvaluation&lt; dim,</text>
<text text-anchor="start" x="998" y="-246" font-family="Helvetica,sans-Serif" font-size="10.00" fill="#000000"> fe_degree, n_q_points</text>
<text text-anchor="start" x="998" y="-235" font-family="Helvetica,sans-Serif" font-size="10.00" fill="#000000">_1d, n_components_, Number,</text>
<text text-anchor="middle" x="1065.5" y="-224" font-family="Helvetica,sans-Serif" font-size="10.00" fill="#000000"> VectorizedArrayType &gt;</text>
</a>
</g>
</g>
<!-- Node3&#45;&gt;Node4 -->
<g id="edge4" class="edge">
<title>Node3&#45;&gt;Node4</title>
<path fill="none" stroke="#191970" d="M955.0563,-243C966.5639,-243 978.3617,-243 989.7631,-243"/>
<polygon fill="#191970" stroke="#191970" points="955.0354,-239.5001 945.0354,-243 955.0354,-246.5001 955.0354,-239.5001"/>
</g>
<!-- Node6 -->
<g id="node7" class="node">
<title>Node6</title>
<g id="a_node7"><a xlink:href="classFEFaceEvaluation.html" target="_top" xlink:title="FEFaceEvaluation\&lt; dim,\l fe_degree, n_q_points\l_1d, n_components_, Number,\l VectorizedArrayType \&gt;">
<polygon fill="#ffffff" stroke="#000000" points="990,-130 990,-182 1141,-182 1141,-130 990,-130"/>
<text text-anchor="start" x="998" y="-170" font-family="Helvetica,sans-Serif" font-size="10.00" fill="#000000">FEFaceEvaluation&lt; dim,</text>
<text text-anchor="start" x="998" y="-159" font-family="Helvetica,sans-Serif" font-size="10.00" fill="#000000"> fe_degree, n_q_points</text>
<text text-anchor="start" x="998" y="-148" font-family="Helvetica,sans-Serif" font-size="10.00" fill="#000000">_1d, n_components_, Number,</text>
<text text-anchor="middle" x="1065.5" y="-137" font-family="Helvetica,sans-Serif" font-size="10.00" fill="#000000"> VectorizedArrayType &gt;</text>
</a>
</g>
</g>
<!-- Node5&#45;&gt;Node6 -->
<g id="edge6" class="edge">
<title>Node5&#45;&gt;Node6</title>
<path fill="none" stroke="#191970" d="M952.7937,-156C965.0644,-156 977.719,-156 989.9162,-156"/>
<polygon fill="#191970" stroke="#191970" points="952.595,-152.5001 942.595,-156 952.595,-159.5001 952.595,-152.5001"/>
</g>
<!-- Node8 -->
<g id="node9" class="node">
<title>Node8</title>
<g id="a_node9"><a xlink:href="classFEEvaluationAccess_3_011_00_011_00_01Number_00_01is__face_00_01VectorizedArrayType_01_4.html" target="_top" xlink:title="FEEvaluationAccess\l\&lt; 1, 1, Number, is_face,\l VectorizedArrayType \&gt;">
<polygon fill="#ffffff" stroke="#000000" points="812.5,-360.5 812.5,-401.5 935.5,-401.5 935.5,-360.5 812.5,-360.5"/>
<text text-anchor="start" x="820.5" y="-389.5" font-family="Helvetica,sans-Serif" font-size="10.00" fill="#000000">FEEvaluationAccess</text>
<text text-anchor="start" x="820.5" y="-378.5" font-family="Helvetica,sans-Serif" font-size="10.00" fill="#000000">&lt; 1, 1, Number, is_face,</text>
<text text-anchor="middle" x="874" y="-367.5" font-family="Helvetica,sans-Serif" font-size="10.00" fill="#000000"> VectorizedArrayType &gt;</text>
</a>
</g>
</g>
<!-- Node7&#45;&gt;Node8 -->
<g id="edge10" class="edge">
<title>Node7&#45;&gt;Node8</title>
<path fill="none" stroke="#191970" d="M627.4574,-381C682.8377,-381 759.2215,-381 812.2312,-381"/>
<polygon fill="#191970" stroke="#191970" points="627.3715,-377.5001 617.3714,-381 627.3714,-384.5001 627.3715,-377.5001"/>
</g>
<!-- Node10 -->
<g id="node11" class="node">
<title>Node10</title>
<g id="a_node11"><a xlink:href="classFEEvaluationAccess_3_01dim_00_011_00_01Number_00_01is__face_00_01VectorizedArrayType_01_4.html" target="_top" xlink:title="FEEvaluationAccess\l\&lt; dim, 1, Number, is\l_face, VectorizedArrayType \&gt;">
<polygon fill="#ffffff" stroke="#000000" points="800.5,-63.5 800.5,-104.5 947.5,-104.5 947.5,-63.5 800.5,-63.5"/>
<text text-anchor="start" x="808.5" y="-92.5" font-family="Helvetica,sans-Serif" font-size="10.00" fill="#000000">FEEvaluationAccess</text>
<text text-anchor="start" x="808.5" y="-81.5" font-family="Helvetica,sans-Serif" font-size="10.00" fill="#000000">&lt; dim, 1, Number, is</text>
<text text-anchor="middle" x="874" y="-70.5" font-family="Helvetica,sans-Serif" font-size="10.00" fill="#000000">_face, VectorizedArrayType &gt;</text>
</a>
</g>
</g>
<!-- Node9&#45;&gt;Node10 -->
<g id="edge12" class="edge">
<title>Node9&#45;&gt;Node10</title>
<path fill="none" stroke="#191970" d="M629.9405,-84C681.0526,-84 749.1152,-84 800.3773,-84"/>
<polygon fill="#191970" stroke="#191970" points="629.629,-80.5001 619.629,-84 629.629,-87.5001 629.629,-80.5001"/>
</g>
<!-- Node13 -->
<g id="node14" class="node">
<title>Node13</title>
<g id="a_node14"><a xlink:href="classFEEvaluationAccess_3_01dim_00_01dim_00_01Number_00_01is__face_00_01VectorizedArrayType_01_4.html" target="_top" xlink:title="FEEvaluationAccess\l\&lt; dim, dim, Number,\l is_face, VectorizedArrayType \&gt;">
<polygon fill="#ffffff" stroke="#000000" points="795,-.5 795,-41.5 953,-41.5 953,-.5 795,-.5"/>
<text text-anchor="start" x="803" y="-29.5" font-family="Helvetica,sans-Serif" font-size="10.00" fill="#000000">FEEvaluationAccess</text>
<text text-anchor="start" x="803" y="-18.5" font-family="Helvetica,sans-Serif" font-size="10.00" fill="#000000">&lt; dim, dim, Number,</text>
<text text-anchor="middle" x="874" y="-7.5" font-family="Helvetica,sans-Serif" font-size="10.00" fill="#000000"> is_face, VectorizedArrayType &gt;</text>
</a>
</g>
</g>
<!-- Node12&#45;&gt;Node13 -->
<g id="edge15" class="edge">
<title>Node12&#45;&gt;Node13</title>
<path fill="none" stroke="#191970" d="M629.9016,-21C679.2162,-21 744.3234,-21 794.8938,-21"/>
<polygon fill="#191970" stroke="#191970" points="629.629,-17.5001 619.629,-21 629.629,-24.5001 629.629,-17.5001"/>
</g>
</g>
</svg>
