<?xml version="1.0" encoding="UTF-8" standalone="no"?>
<!DOCTYPE svg PUBLIC "-//W3C//DTD SVG 1.1//EN"
 "http://www.w3.org/Graphics/SVG/1.1/DTD/svg11.dtd">
<!-- Generated by graphviz version 2.40.1 (20161225.0304)
 -->
<!-- Title: FEEvaluationBase&lt; dim, n_components_, Number, is_face, VectorizedArrayType &gt; Pages: 1 -->
<svg width="1252pt" height="397pt"
 viewBox="0.00 0.00 1252.00 396.50" xmlns="http://www.w3.org/2000/svg" xmlns:xlink="http://www.w3.org/1999/xlink">
<g id="graph0" class="graph" transform="scale(1 1) rotate(0) translate(4 392.5)">
<title>FEEvaluationBase&lt; dim, n_components_, Number, is_face, VectorizedArrayType &gt;</title>
<polygon fill="#ffffff" stroke="transparent" points="-4,4 -4,-392.5 1248,-392.5 1248,4 -4,4"/>
<!-- Node0 -->
<g id="node1" class="node">
<title>Node0</title>
<polygon fill="#bfbfbf" stroke="#000000" points="172,-180.5 172,-221.5 343,-221.5 343,-180.5 172,-180.5"/>
<text text-anchor="start" x="180" y="-209.5" font-family="Helvetica,sans-Serif" font-size="10.00" fill="#000000">FEEvaluationBase&lt; dim,</text>
<text text-anchor="start" x="180" y="-198.5" font-family="Helvetica,sans-Serif" font-size="10.00" fill="#000000"> n_components_, Number,</text>
<text text-anchor="middle" x="257.5" y="-187.5" font-family="Helvetica,sans-Serif" font-size="10.00" fill="#000000"> is_face, VectorizedArrayType &gt;</text>
</g>
<!-- Node2 -->
<g id="node3" class="node">
<title>Node2</title>
<g id="a_node3"><a xlink:href="classFEEvaluationAccess.html" target="_top" xlink:title="FEEvaluationAccess\l\&lt; dim, n_components\l_, Number, is_face, Vectorized\lArrayType \&gt;">
<polygon fill="#ffffff" stroke="#000000" points="534,-279 534,-331 698,-331 698,-279 534,-279"/>
<text text-anchor="start" x="542" y="-319" font-family="Helvetica,sans-Serif" font-size="10.00" fill="#000000">FEEvaluationAccess</text>
<text text-anchor="start" x="542" y="-308" font-family="Helvetica,sans-Serif" font-size="10.00" fill="#000000">&lt; dim, n_components</text>
<text text-anchor="start" x="542" y="-297" font-family="Helvetica,sans-Serif" font-size="10.00" fill="#000000">_, Number, is_face, Vectorized</text>
<text text-anchor="middle" x="616" y="-286" font-family="Helvetica,sans-Serif" font-size="10.00" fill="#000000">ArrayType &gt;</text>
</a>
</g>
</g>
<!-- Node0&#45;&gt;Node2 -->
<g id="edge2" class="edge">
<title>Node0&#45;&gt;Node2</title>
<path fill="none" stroke="#191970" d="M292.964,-227.3312C312.1744,-240.3351 336.8657,-255.1053 361,-264 416.6415,-284.5067 482.8477,-294.7678 533.8537,-299.8963"/>
<polygon fill="#191970" stroke="#191970" points="294.7604,-224.3181 284.5449,-221.5082 290.7784,-230.0752 294.7604,-224.3181"/>
</g>
<!-- Node3 -->
<g id="node4" class="node">
<title>Node3</title>
<g id="a_node4"><a xlink:href="classFEEvaluationAccess.html" target="_top" xlink:title="FEEvaluationAccess\l\&lt; dim, n_components\l_, Number, false, Vectorized\lArrayType \&gt;">
<polygon fill="#ffffff" stroke="#000000" points="880.5,-249 880.5,-301 1034.5,-301 1034.5,-249 880.5,-249"/>
<text text-anchor="start" x="888.5" y="-289" font-family="Helvetica,sans-Serif" font-size="10.00" fill="#000000">FEEvaluationAccess</text>
<text text-anchor="start" x="888.5" y="-278" font-family="Helvetica,sans-Serif" font-size="10.00" fill="#000000">&lt; dim, n_components</text>
<text text-anchor="start" x="888.5" y="-267" font-family="Helvetica,sans-Serif" font-size="10.00" fill="#000000">_, Number, false, Vectorized</text>
<text text-anchor="middle" x="957.5" y="-256" font-family="Helvetica,sans-Serif" font-size="10.00" fill="#000000">ArrayType &gt;</text>
</a>
</g>
</g>
<!-- Node0&#45;&gt;Node3 -->
<g id="edge7" class="edge">
<title>Node0&#45;&gt;Node3</title>
<path fill="none" stroke="#191970" d="M343.2797,-223.7037C349.254,-224.9284 355.203,-226.0454 361,-227 458.836,-243.1107 742.3887,-261.8815 880.3255,-270.3892"/>
<polygon fill="#191970" stroke="#191970" points="343.7349,-220.222 333.2238,-221.551 342.2695,-227.0669 343.7349,-220.222"/>
</g>
<!-- Node5 -->
<g id="node6" class="node">
<title>Node5</title>
<g id="a_node6"><a xlink:href="classFEEvaluationAccess.html" target="_top" xlink:title="FEEvaluationAccess\l\&lt; dim, n_components\l_, Number, true, Vectorized\lArrayType \&gt;">
<polygon fill="#ffffff" stroke="#000000" points="883,-336 883,-388 1032,-388 1032,-336 883,-336"/>
<text text-anchor="start" x="891" y="-376" font-family="Helvetica,sans-Serif" font-size="10.00" fill="#000000">FEEvaluationAccess</text>
<text text-anchor="start" x="891" y="-365" font-family="Helvetica,sans-Serif" font-size="10.00" fill="#000000">&lt; dim, n_components</text>
<text text-anchor="start" x="891" y="-354" font-family="Helvetica,sans-Serif" font-size="10.00" fill="#000000">_, Number, true, Vectorized</text>
<text text-anchor="middle" x="957.5" y="-343" font-family="Helvetica,sans-Serif" font-size="10.00" fill="#000000">ArrayType &gt;</text>
</a>
</g>
</g>
<!-- Node0&#45;&gt;Node5 -->
<g id="edge8" class="edge">
<title>Node0&#45;&gt;Node5</title>
<path fill="none" stroke="#191970" d="M282.1976,-229.426C301.6617,-250.1512 330.5243,-277.4047 361,-294 555.8853,-400.1234 632.4045,-384.7425 854,-373 863.3832,-372.5028 873.2249,-371.7537 882.9516,-370.8756"/>
<polygon fill="#191970" stroke="#191970" points="284.5615,-226.8262 275.2142,-221.8384 279.4109,-231.5666 284.5615,-226.8262"/>
</g>
<!-- Node7 -->
<g id="node8" class="node">
<title>Node7</title>
<g id="a_node8"><a xlink:href="classFEEvaluationBase.html" target="_top" xlink:title="FEEvaluationBase\&lt; 1,\l 1, Number, is_face,\l VectorizedArrayType \&gt;">
<polygon fill="#ffffff" stroke="#000000" points="550.5,-180.5 550.5,-221.5 681.5,-221.5 681.5,-180.5 550.5,-180.5"/>
<text text-anchor="start" x="558.5" y="-209.5" font-family="Helvetica,sans-Serif" font-size="10.00" fill="#000000">FEEvaluationBase&lt; 1,</text>
<text text-anchor="start" x="558.5" y="-198.5" font-family="Helvetica,sans-Serif" font-size="10.00" fill="#000000"> 1, Number, is_face,</text>
<text text-anchor="middle" x="616" y="-187.5" font-family="Helvetica,sans-Serif" font-size="10.00" fill="#000000"> VectorizedArrayType &gt;</text>
</a>
</g>
</g>
<!-- Node0&#45;&gt;Node7 -->
<g id="edge9" class="edge">
<title>Node0&#45;&gt;Node7</title>
<path fill="none" stroke="#ffa500" stroke-dasharray="5,2" d="M353.6048,-201C415.8898,-201 495.3803,-201 550.4655,-201"/>
<polygon fill="#ffa500" stroke="#ffa500" points="353.3697,-197.5001 343.3697,-201 353.3696,-204.5001 353.3697,-197.5001"/>
<text text-anchor="start" x="366.5" y="-215" font-family="Helvetica,sans-Serif" font-size="10.00" fill="#000000"> &lt; 1, 1, Number, is</text>
<text text-anchor="middle" x="438.5" y="-204" font-family="Helvetica,sans-Serif" font-size="10.00" fill="#000000">_face, VectorizedArrayType &gt;</text>
</g>
<!-- Node9 -->
<g id="node10" class="node">
<title>Node9</title>
<g id="a_node10"><a xlink:href="classFEEvaluationBase.html" target="_top" xlink:title="FEEvaluationBase\&lt; dim,\l 1, Number, is_face,\l VectorizedArrayType \&gt;">
<polygon fill="#ffffff" stroke="#000000" points="547.5,-120.5 547.5,-161.5 684.5,-161.5 684.5,-120.5 547.5,-120.5"/>
<text text-anchor="start" x="555.5" y="-149.5" font-family="Helvetica,sans-Serif" font-size="10.00" fill="#000000">FEEvaluationBase&lt; dim,</text>
<text text-anchor="start" x="555.5" y="-138.5" font-family="Helvetica,sans-Serif" font-size="10.00" fill="#000000"> 1, Number, is_face,</text>
<text text-anchor="middle" x="616" y="-127.5" font-family="Helvetica,sans-Serif" font-size="10.00" fill="#000000"> VectorizedArrayType &gt;</text>
</a>
</g>
</g>
<!-- Node0&#45;&gt;Node9 -->
<g id="edge11" class="edge">
<title>Node0&#45;&gt;Node9</title>
<path fill="none" stroke="#ffa500" stroke-dasharray="5,2" d="M345.4148,-178.1922C350.675,-177.0525 355.8994,-175.9774 361,-175 423.7262,-162.9799 495.9424,-153.7796 547.4742,-147.9994"/>
<polygon fill="#ffa500" stroke="#ffa500" points="344.2758,-174.8602 335.2785,-180.4547 345.8009,-181.6921 344.2758,-174.8602"/>
<text text-anchor="start" x="366.5" y="-189" font-family="Helvetica,sans-Serif" font-size="10.00" fill="#000000"> &lt; dim, 1, Number, is</text>
<text text-anchor="middle" x="438.5" y="-178" font-family="Helvetica,sans-Serif" font-size="10.00" fill="#000000">_face, VectorizedArrayType &gt;</text>
</g>
<!-- Node11 -->
<g id="node12" class="node">
<title>Node11</title>
<g id="a_node12"><a xlink:href="classFEEvaluationBase.html" target="_top" xlink:title="FEEvaluationBase\&lt; dim,\l n_components, Number,\l false, VectorizedArrayType \&gt;">
<polygon fill="#ffffff" stroke="#000000" points="535.5,-60.5 535.5,-101.5 696.5,-101.5 696.5,-60.5 535.5,-60.5"/>
<text text-anchor="start" x="543.5" y="-89.5" font-family="Helvetica,sans-Serif" font-size="10.00" fill="#000000">FEEvaluationBase&lt; dim,</text>
<text text-anchor="start" x="543.5" y="-78.5" font-family="Helvetica,sans-Serif" font-size="10.00" fill="#000000"> n_components, Number,</text>
<text text-anchor="middle" x="616" y="-67.5" font-family="Helvetica,sans-Serif" font-size="10.00" fill="#000000"> false, VectorizedArrayType &gt;</text>
</a>
</g>
</g>
<!-- Node0&#45;&gt;Node11 -->
<g id="edge13" class="edge">
<title>Node0&#45;&gt;Node11</title>
<path fill="none" stroke="#ffa500" stroke-dasharray="5,2" d="M283.1031,-173.0027C302.5111,-153.6671 330.905,-129.1513 361,-116 416.0736,-91.9332 483.6659,-83.4941 535.4202,-80.9047"/>
<polygon fill="#ffa500" stroke="#ffa500" points="280.364,-170.7973 275.8664,-180.3902 285.3645,-175.6958 280.364,-170.7973"/>
<text text-anchor="start" x="373.5" y="-141" font-family="Helvetica,sans-Serif" font-size="10.00" fill="#000000"> &lt; dim, n_components,</text>
<text text-anchor="start" x="373.5" y="-130" font-family="Helvetica,sans-Serif" font-size="10.00" fill="#000000"> Number, false, Vectorized</text>
<text text-anchor="middle" x="438.5" y="-119" font-family="Helvetica,sans-Serif" font-size="10.00" fill="#000000">ArrayType &gt;</text>
</g>
<!-- Node12 -->
<g id="node13" class="node">
<title>Node12</title>
<g id="a_node13"><a xlink:href="classFEEvaluationBase.html" target="_top" xlink:title="FEEvaluationBase\&lt; dim,\l dim, Number, is_face,\l VectorizedArrayType \&gt;">
<polygon fill="#ffffff" stroke="#000000" points="547.5,-.5 547.5,-41.5 684.5,-41.5 684.5,-.5 547.5,-.5"/>
<text text-anchor="start" x="555.5" y="-29.5" font-family="Helvetica,sans-Serif" font-size="10.00" fill="#000000">FEEvaluationBase&lt; dim,</text>
<text text-anchor="start" x="555.5" y="-18.5" font-family="Helvetica,sans-Serif" font-size="10.00" fill="#000000"> dim, Number, is_face,</text>
<text text-anchor="middle" x="616" y="-7.5" font-family="Helvetica,sans-Serif" font-size="10.00" fill="#000000"> VectorizedArrayType &gt;</text>
</a>
</g>
</g>
<!-- Node0&#45;&gt;Node12 -->
<g id="edge14" class="edge">
<title>Node0&#45;&gt;Node12</title>
<path fill="none" stroke="#ffa500" stroke-dasharray="5,2" d="M270.1141,-171.094C286.0263,-137.369 316.7613,-83.7544 361,-57 417.2386,-22.9883 492.9711,-16.1667 547.2666,-16.5237"/>
<polygon fill="#ffa500" stroke="#ffa500" points="266.8095,-169.9048 265.8365,-180.4549 273.1762,-172.8142 266.8095,-169.9048"/>
<text text-anchor="start" x="361" y="-71" font-family="Helvetica,sans-Serif" font-size="10.00" fill="#000000"> &lt; dim, dim, Number,</text>
<text text-anchor="middle" x="438.5" y="-60" font-family="Helvetica,sans-Serif" font-size="10.00" fill="#000000"> is_face, VectorizedArrayType &gt;</text>
</g>
<!-- Node1 -->
<g id="node2" class="node">
<title>Node1</title>
<g id="a_node2"><a xlink:href="classFEEvaluationBaseData.html" target="_top" xlink:title="FEEvaluationBaseData\l\&lt; dim, Number, is_face,\l VectorizedArrayType \&gt;">
<polygon fill="#ffffff" stroke="#000000" points="0,-180.5 0,-221.5 135,-221.5 135,-180.5 0,-180.5"/>
<text text-anchor="start" x="8" y="-209.5" font-family="Helvetica,sans-Serif" font-size="10.00" fill="#000000">FEEvaluationBaseData</text>
<text text-anchor="start" x="8" y="-198.5" font-family="Helvetica,sans-Serif" font-size="10.00" fill="#000000">&lt; dim, Number, is_face,</text>
<text text-anchor="middle" x="67.5" y="-187.5" font-family="Helvetica,sans-Serif" font-size="10.00" fill="#000000"> VectorizedArrayType &gt;</text>
</a>
</g>
</g>
<!-- Node1&#45;&gt;Node0 -->
<g id="edge1" class="edge">
<title>Node1&#45;&gt;Node0</title>
<path fill="none" stroke="#191970" d="M145.2332,-201C154.0277,-201 163.0265,-201 171.9143,-201"/>
<polygon fill="#191970" stroke="#191970" points="145.0219,-197.5001 135.0219,-201 145.0218,-204.5001 145.0219,-197.5001"/>
</g>
<!-- Node2&#45;&gt;Node3 -->
<g id="edge3" class="edge">
<title>Node2&#45;&gt;Node3</title>
<path fill="none" stroke="#ffa500" stroke-dasharray="5,2" d="M708.2913,-285.0262C710.8845,-284.6556 713.4579,-284.312 716,-284 770.6574,-277.2918 832.7494,-275.0964 880.2857,-274.5497"/>
<polygon fill="#ffa500" stroke="#ffa500" points="707.5657,-281.5967 698.2162,-286.5803 708.6329,-288.5149 707.5657,-281.5967"/>
<text text-anchor="start" x="716" y="-309" font-family="Helvetica,sans-Serif" font-size="10.00" fill="#000000"> &lt; dim, n_components</text>
<text text-anchor="start" x="716" y="-298" font-family="Helvetica,sans-Serif" font-size="10.00" fill="#000000">_, Number, false, Vectorized</text>
<text text-anchor="middle" x="785" y="-287" font-family="Helvetica,sans-Serif" font-size="10.00" fill="#000000">ArrayType &gt;</text>
</g>
<!-- Node2&#45;&gt;Node5 -->
<g id="edge5" class="edge">
<title>Node2&#45;&gt;Node5</title>
<path fill="none" stroke="#ffa500" stroke-dasharray="5,2" d="M708.4129,-317.2004C752.584,-323.3865 806.14,-331.4033 854,-340 863.402,-341.6888 873.2549,-343.5993 882.9875,-345.5716"/>
<polygon fill="#ffa500" stroke="#ffa500" points="708.6558,-313.7005 698.2688,-315.7887 707.6909,-320.6337 708.6558,-313.7005"/>
<text text-anchor="start" x="718.5" y="-365" font-family="Helvetica,sans-Serif" font-size="10.00" fill="#000000"> &lt; dim, n_components</text>
<text text-anchor="start" x="718.5" y="-354" font-family="Helvetica,sans-Serif" font-size="10.00" fill="#000000">_, Number, true, Vectorized</text>
<text text-anchor="middle" x="785" y="-343" font-family="Helvetica,sans-Serif" font-size="10.00" fill="#000000">ArrayType &gt;</text>
</g>
<!-- Node4 -->
<g id="node5" class="node">
<title>Node4</title>
<g id="a_node5"><a xlink:href="classFEEvaluation.html" target="_top" xlink:title="FEEvaluation\&lt; dim,\l fe_degree, n_q_points\l_1d, n_components_, Number,\l VectorizedArrayType \&gt;">
<polygon fill="#ffffff" stroke="#000000" points="1080,-249 1080,-301 1244,-301 1244,-249 1080,-249"/>
<text text-anchor="start" x="1088" y="-289" font-family="Helvetica,sans-Serif" font-size="10.00" fill="#000000">FEEvaluation&lt; dim,</text>
<text text-anchor="start" x="1088" y="-278" font-family="Helvetica,sans-Serif" font-size="10.00" fill="#000000"> fe_degree, n_q_points</text>
<text text-anchor="start" x="1088" y="-267" font-family="Helvetica,sans-Serif" font-size="10.00" fill="#000000">_1d, n_components_, Number,</text>
<text text-anchor="middle" x="1162" y="-256" font-family="Helvetica,sans-Serif" font-size="10.00" fill="#000000"> VectorizedArrayType &gt;</text>
</a>
</g>
</g>
<!-- Node3&#45;&gt;Node4 -->
<g id="edge4" class="edge">
<title>Node3&#45;&gt;Node4</title>
<path fill="none" stroke="#191970" d="M1044.703,-275C1056.3855,-275 1068.3359,-275 1079.9262,-275"/>
<polygon fill="#191970" stroke="#191970" points="1044.5213,-271.5001 1034.5213,-275 1044.5212,-278.5001 1044.5213,-271.5001"/>
</g>
<!-- Node6 -->
<g id="node7" class="node">
<title>Node6</title>
<g id="a_node7"><a xlink:href="classFEFaceEvaluation.html" target="_top" xlink:title="FEFaceEvaluation\&lt; dim,\l fe_degree, n_q_points\l_1d, n_components_, Number,\l VectorizedArrayType \&gt;">
<polygon fill="#ffffff" stroke="#000000" points="1080,-336 1080,-388 1244,-388 1244,-336 1080,-336"/>
<text text-anchor="start" x="1088" y="-376" font-family="Helvetica,sans-Serif" font-size="10.00" fill="#000000">FEFaceEvaluation&lt; dim,</text>
<text text-anchor="start" x="1088" y="-365" font-family="Helvetica,sans-Serif" font-size="10.00" fill="#000000"> fe_degree, n_q_points</text>
<text text-anchor="start" x="1088" y="-354" font-family="Helvetica,sans-Serif" font-size="10.00" fill="#000000">_1d, n_components_, Number,</text>
<text text-anchor="middle" x="1162" y="-343" font-family="Helvetica,sans-Serif" font-size="10.00" fill="#000000"> VectorizedArrayType &gt;</text>
</a>
</g>
</g>
<!-- Node5&#45;&gt;Node6 -->
<g id="edge6" class="edge">
<title>Node5&#45;&gt;Node6</title>
<path fill="none" stroke="#191970" d="M1042.4953,-362C1054.8718,-362 1067.5956,-362 1079.913,-362"/>
<polygon fill="#191970" stroke="#191970" points="1042.1973,-358.5001 1032.1973,-362 1042.1972,-365.5001 1042.1973,-358.5001"/>
</g>
<!-- Node8 -->
<g id="node9" class="node">
<title>Node8</title>
<g id="a_node9"><a xlink:href="classFEEvaluationAccess_3_011_00_011_00_01Number_00_01is__face_00_01VectorizedArrayType_01_4.html" target="_top" xlink:title="FEEvaluationAccess\l\&lt; 1, 1, Number, is_face,\l VectorizedArrayType \&gt;">
<polygon fill="#ffffff" stroke="#000000" points="890.5,-180.5 890.5,-221.5 1024.5,-221.5 1024.5,-180.5 890.5,-180.5"/>
<text text-anchor="start" x="898.5" y="-209.5" font-family="Helvetica,sans-Serif" font-size="10.00" fill="#000000">FEEvaluationAccess</text>
<text text-anchor="start" x="898.5" y="-198.5" font-family="Helvetica,sans-Serif" font-size="10.00" fill="#000000">&lt; 1, 1, Number, is_face,</text>
<text text-anchor="middle" x="957.5" y="-187.5" font-family="Helvetica,sans-Serif" font-size="10.00" fill="#000000"> VectorizedArrayType &gt;</text>
</a>
</g>
</g>
<!-- Node7&#45;&gt;Node8 -->
<g id="edge10" class="edge">
<title>Node7&#45;&gt;Node8</title>
<path fill="none" stroke="#191970" d="M691.9302,-201C751.3947,-201 833.3249,-201 890.3999,-201"/>
<polygon fill="#191970" stroke="#191970" points="691.8447,-197.5001 681.8446,-201 691.8446,-204.5001 691.8447,-197.5001"/>
</g>
<!-- Node10 -->
<g id="node11" class="node">
<title>Node10</title>
<g id="a_node11"><a xlink:href="classFEEvaluationAccess_3_01dim_00_011_00_01Number_00_01is__face_00_01VectorizedArrayType_01_4.html" target="_top" xlink:title="FEEvaluationAccess\l\&lt; dim, 1, Number, is\l_face, VectorizedArrayType \&gt;">
<polygon fill="#ffffff" stroke="#000000" points="877.5,-120.5 877.5,-161.5 1037.5,-161.5 1037.5,-120.5 877.5,-120.5"/>
<text text-anchor="start" x="885.5" y="-149.5" font-family="Helvetica,sans-Serif" font-size="10.00" fill="#000000">FEEvaluationAccess</text>
<text text-anchor="start" x="885.5" y="-138.5" font-family="Helvetica,sans-Serif" font-size="10.00" fill="#000000">&lt; dim, 1, Number, is</text>
<text text-anchor="middle" x="957.5" y="-127.5" font-family="Helvetica,sans-Serif" font-size="10.00" fill="#000000">_face, VectorizedArrayType &gt;</text>
</a>
</g>
</g>
<!-- Node9&#45;&gt;Node10 -->
<g id="edge12" class="edge">
<title>Node9&#45;&gt;Node10</title>
<path fill="none" stroke="#191970" d="M694.6979,-141C749.4255,-141 822.1487,-141 877.2189,-141"/>
<polygon fill="#191970" stroke="#191970" points="694.6969,-137.5001 684.6968,-141 694.6968,-144.5001 694.6969,-137.5001"/>
</g>
<!-- Node13 -->
<g id="node14" class="node">
<title>Node13</title>
<g id="a_node14"><a xlink:href="classFEEvaluationAccess_3_01dim_00_01dim_00_01Number_00_01is__face_00_01VectorizedArrayType_01_4.html" target="_top" xlink:title="FEEvaluationAccess\l\&lt; dim, dim, Number,\l is_face, VectorizedArrayType \&gt;">
<polygon fill="#ffffff" stroke="#000000" points="872,-.5 872,-41.5 1043,-41.5 1043,-.5 872,-.5"/>
<text text-anchor="start" x="880" y="-29.5" font-family="Helvetica,sans-Serif" font-size="10.00" fill="#000000">FEEvaluationAccess</text>
<text text-anchor="start" x="880" y="-18.5" font-family="Helvetica,sans-Serif" font-size="10.00" fill="#000000">&lt; dim, dim, Number,</text>
<text text-anchor="middle" x="957.5" y="-7.5" font-family="Helvetica,sans-Serif" font-size="10.00" fill="#000000"> is_face, VectorizedArrayType &gt;</text>
</a>
</g>
</g>
<!-- Node12&#45;&gt;Node13 -->
<g id="edge15" class="edge">
<title>Node12&#45;&gt;Node13</title>
<path fill="none" stroke="#191970" d="M694.7242,-21C747.7178,-21 817.5759,-21 871.9422,-21"/>
<polygon fill="#191970" stroke="#191970" points="694.6969,-17.5001 684.6968,-21 694.6968,-24.5001 694.6969,-17.5001"/>
</g>
</g>
</svg>
