<?xml version="1.0" encoding="UTF-8" standalone="no"?>
<!DOCTYPE svg PUBLIC "-//W3C//DTD SVG 1.1//EN"
 "http://www.w3.org/Graphics/SVG/1.1/DTD/svg11.dtd">
<!-- Generated by graphviz version 2.40.1 (20161225.0304)
 -->
<!-- Title: LinearAlgebra::distributed::Vector&lt; Number, MemorySpace &gt; Pages: 1 -->
<svg width="629pt" height="88pt"
 viewBox="0.00 0.00 629.00 88.00" xmlns="http://www.w3.org/2000/svg" xmlns:xlink="http://www.w3.org/1999/xlink">
<g id="graph0" class="graph" transform="scale(1 1) rotate(0) translate(4 84)">
<title>LinearAlgebra::distributed::Vector&lt; Number, MemorySpace &gt;</title>
<polygon fill="#ffffff" stroke="transparent" points="-4,4 -4,-84 625,-84 625,4 -4,4"/>
<!-- Node0 -->
<g id="node1" class="node">
<title>Node0</title>
<polygon fill="#bfbfbf" stroke="#000000" points="187,-24.5 187,-54.5 377,-54.5 377,-24.5 187,-24.5"/>
<text text-anchor="start" x="195" y="-42.5" font-family="Helvetica,sans-Serif" font-size="10.00" fill="#000000">LinearAlgebra::distributed</text>
<text text-anchor="middle" x="282" y="-31.5" font-family="Helvetica,sans-Serif" font-size="10.00" fill="#000000">::Vector&lt; Number, MemorySpace &gt;</text>
</g>
<!-- Node3 -->
<g id="node4" class="node">
<title>Node3</title>
<g id="a_node4"><a xlink:href="classLinearAlgebra_1_1distributed_1_1Vector.html" target="_top" xlink:title="LinearAlgebra::distributed\l::Vector\&lt; double \&gt;">
<polygon fill="#ffffff" stroke="#000000" points="478,-49.5 478,-79.5 621,-79.5 621,-49.5 478,-49.5"/>
<text text-anchor="start" x="486" y="-67.5" font-family="Helvetica,sans-Serif" font-size="10.00" fill="#000000">LinearAlgebra::distributed</text>
<text text-anchor="middle" x="549.5" y="-56.5" font-family="Helvetica,sans-Serif" font-size="10.00" fill="#000000">::Vector&lt; double &gt;</text>
</a>
</g>
</g>
<!-- Node0&#45;&gt;Node3 -->
<g id="edge3" class="edge">
<title>Node0&#45;&gt;Node3</title>
<path fill="none" stroke="#ffa500" stroke-dasharray="5,2" d="M387.2735,-49.3386C417.6399,-52.1766 450.06,-55.2065 477.8726,-57.8058"/>
<polygon fill="#ffa500" stroke="#ffa500" points="387.346,-45.8303 377.0637,-48.3845 386.6946,-52.7999 387.346,-45.8303"/>
<text text-anchor="middle" x="427.5" y="-58.5" font-family="Helvetica,sans-Serif" font-size="10.00" fill="#000000"> &lt; double &gt;</text>
</g>
<!-- Node4 -->
<g id="node5" class="node">
<title>Node4</title>
<g id="a_node5"><a xlink:href="classLinearAlgebra_1_1distributed_1_1Vector.html" target="_top" xlink:title="LinearAlgebra::distributed\l::Vector\&lt; Number \&gt;">
<polygon fill="#ffffff" stroke="#000000" points="478,-.5 478,-30.5 621,-30.5 621,-.5 478,-.5"/>
<text text-anchor="start" x="486" y="-18.5" font-family="Helvetica,sans-Serif" font-size="10.00" fill="#000000">LinearAlgebra::distributed</text>
<text text-anchor="middle" x="549.5" y="-7.5" font-family="Helvetica,sans-Serif" font-size="10.00" fill="#000000">::Vector&lt; Number &gt;</text>
</a>
</g>
</g>
<!-- Node0&#45;&gt;Node4 -->
<g id="edge4" class="edge">
<title>Node0&#45;&gt;Node4</title>
<path fill="none" stroke="#ffa500" stroke-dasharray="5,2" d="M387.2735,-30.0549C417.6399,-27.3304 450.06,-24.4217 477.8726,-21.9264"/>
<polygon fill="#ffa500" stroke="#ffa500" points="386.7109,-26.5912 377.0637,-30.9709 387.3365,-33.5632 386.7109,-26.5912"/>
<text text-anchor="middle" x="427.5" y="-32.5" font-family="Helvetica,sans-Serif" font-size="10.00" fill="#000000"> &lt; Number &gt;</text>
</g>
<!-- Node1 -->
<g id="node2" class="node">
<title>Node1</title>
<g id="a_node2"><a xlink:href="classLinearAlgebra_1_1VectorSpaceVector.html" target="_top" xlink:title="LinearAlgebra::VectorSpace\lVector\&lt; Number \&gt;">
<polygon fill="#ffffff" stroke="#000000" points="0,-46.5 0,-76.5 150,-76.5 150,-46.5 0,-46.5"/>
<text text-anchor="start" x="8" y="-64.5" font-family="Helvetica,sans-Serif" font-size="10.00" fill="#000000">LinearAlgebra::VectorSpace</text>
<text text-anchor="middle" x="75" y="-53.5" font-family="Helvetica,sans-Serif" font-size="10.00" fill="#000000">Vector&lt; Number &gt;</text>
</a>
</g>
</g>
<!-- Node1&#45;&gt;Node0 -->
<g id="edge1" class="edge">
<title>Node1&#45;&gt;Node0</title>
<path fill="none" stroke="#191970" d="M160.1937,-52.4456C168.9402,-51.516 177.8669,-50.5673 186.7131,-49.6271"/>
<polygon fill="#191970" stroke="#191970" points="159.5985,-48.9891 150.0244,-53.5264 160.3383,-55.9499 159.5985,-48.9891"/>
</g>
<!-- Node2 -->
<g id="node3" class="node">
<title>Node2</title>
<g id="a_node3"><a xlink:href="classSubscriptor.html" target="_top" xlink:title="Subscriptor">
<polygon fill="#ffffff" stroke="#000000" points="39.5,-8 39.5,-27 110.5,-27 110.5,-8 39.5,-8"/>
<text text-anchor="middle" x="75" y="-15" font-family="Helvetica,sans-Serif" font-size="10.00" fill="#000000">Subscriptor</text>
</a>
</g>
</g>
<!-- Node2&#45;&gt;Node0 -->
<g id="edge2" class="edge">
<title>Node2&#45;&gt;Node0</title>
<path fill="none" stroke="#191970" d="M120.6977,-22.3568C140.2306,-24.4327 163.8066,-26.9384 186.8294,-29.3853"/>
<polygon fill="#191970" stroke="#191970" points="120.8985,-18.8585 110.5846,-21.2819 120.1586,-25.8193 120.8985,-18.8585"/>
</g>
</g>
</svg>
