<?xml version="1.0" encoding="UTF-8" standalone="no"?>
<!DOCTYPE svg PUBLIC "-//W3C//DTD SVG 1.1//EN"
 "http://www.w3.org/Graphics/SVG/1.1/DTD/svg11.dtd">
<!-- Generated by graphviz version 2.40.1 (20161225.0304)
 -->
<!-- Title: CompositionManifold&lt; dim, spacedim, chartdim, intermediate_dim, dim1, dim2 &gt; Pages: 1 -->
<svg width="161pt" height="240pt"
 viewBox="0.00 0.00 161.00 240.00" xmlns="http://www.w3.org/2000/svg" xmlns:xlink="http://www.w3.org/1999/xlink">
<g id="graph0" class="graph" transform="scale(1 1) rotate(0) translate(4 236)">
<title>CompositionManifold&lt; dim, spacedim, chartdim, intermediate_dim, dim1, dim2 &gt;</title>
<polygon fill="#ffffff" stroke="transparent" points="-4,4 -4,-236 157,-236 157,4 -4,4"/>
<!-- Node0 -->
<g id="node1" class="node">
<title>Node0</title>
<polygon fill="#bfbfbf" stroke="#000000" points=".5,-.5 .5,-52.5 152.5,-52.5 152.5,-.5 .5,-.5"/>
<text text-anchor="start" x="8.5" y="-40.5" font-family="Helvetica,sans-Serif" font-size="10.00" fill="#000000">CompositionManifold</text>
<text text-anchor="start" x="8.5" y="-29.5" font-family="Helvetica,sans-Serif" font-size="10.00" fill="#000000">&lt; dim, spacedim, chartdim,</text>
<text text-anchor="start" x="8.5" y="-18.5" font-family="Helvetica,sans-Serif" font-size="10.00" fill="#000000"> intermediate_dim, dim1,</text>
<text text-anchor="middle" x="76.5" y="-7.5" font-family="Helvetica,sans-Serif" font-size="10.00" fill="#000000"> dim2 &gt;</text>
</g>
<!-- Node1 -->
<g id="node2" class="node">
<title>Node1</title>
<g id="a_node2"><a xlink:href="classChartManifold.html" target="_top" xlink:title="ChartManifold\&lt; dim,\l spacedim, chartdim \&gt;">
<polygon fill="#ffffff" stroke="#000000" points="12.5,-89.5 12.5,-119.5 140.5,-119.5 140.5,-89.5 12.5,-89.5"/>
<text text-anchor="start" x="20.5" y="-107.5" font-family="Helvetica,sans-Serif" font-size="10.00" fill="#000000">ChartManifold&lt; dim,</text>
<text text-anchor="middle" x="76.5" y="-96.5" font-family="Helvetica,sans-Serif" font-size="10.00" fill="#000000"> spacedim, chartdim &gt;</text>
</a>
</g>
</g>
<!-- Node1&#45;&gt;Node0 -->
<g id="edge1" class="edge">
<title>Node1&#45;&gt;Node0</title>
<path fill="none" stroke="#191970" d="M76.5,-79.314C76.5,-70.756 76.5,-61.1787 76.5,-52.5542"/>
<polygon fill="#191970" stroke="#191970" points="73.0001,-79.4608 76.5,-89.4608 80.0001,-79.4608 73.0001,-79.4608"/>
</g>
<!-- Node2 -->
<g id="node3" class="node">
<title>Node2</title>
<g id="a_node3"><a xlink:href="classManifold.html" target="_top" xlink:title="Manifold\&lt; dim, spacedim \&gt;">
<polygon fill="#ffffff" stroke="#000000" points="0,-156.5 0,-175.5 153,-175.5 153,-156.5 0,-156.5"/>
<text text-anchor="middle" x="76.5" y="-163.5" font-family="Helvetica,sans-Serif" font-size="10.00" fill="#000000">Manifold&lt; dim, spacedim &gt;</text>
</a>
</g>
</g>
<!-- Node2&#45;&gt;Node1 -->
<g id="edge2" class="edge">
<title>Node2&#45;&gt;Node1</title>
<path fill="none" stroke="#191970" d="M76.5,-146.3693C76.5,-137.681 76.5,-127.6241 76.5,-119.5446"/>
<polygon fill="#191970" stroke="#191970" points="73.0001,-146.3906 76.5,-156.3906 80.0001,-146.3907 73.0001,-146.3906"/>
</g>
<!-- Node3 -->
<g id="node4" class="node">
<title>Node3</title>
<g id="a_node4"><a xlink:href="classSubscriptor.html" target="_top" xlink:title="Subscriptor">
<polygon fill="#ffffff" stroke="#000000" points="41,-212.5 41,-231.5 112,-231.5 112,-212.5 41,-212.5"/>
<text text-anchor="middle" x="76.5" y="-219.5" font-family="Helvetica,sans-Serif" font-size="10.00" fill="#000000">Subscriptor</text>
</a>
</g>
</g>
<!-- Node3&#45;&gt;Node2 -->
<g id="edge3" class="edge">
<title>Node3&#45;&gt;Node2</title>
<path fill="none" stroke="#191970" d="M76.5,-202.1575C76.5,-193.155 76.5,-182.9199 76.5,-175.6427"/>
<polygon fill="#191970" stroke="#191970" points="73.0001,-202.2455 76.5,-212.2455 80.0001,-202.2456 73.0001,-202.2455"/>
</g>
</g>
</svg>
