<?xml version="1.0" encoding="UTF-8" standalone="no"?>
<!DOCTYPE svg PUBLIC "-//W3C//DTD SVG 1.1//EN"
 "http://www.w3.org/Graphics/SVG/1.1/DTD/svg11.dtd">
<!-- Generated by graphviz version 2.40.1 (20161225.0304)
 -->
<!-- Title: PathSearch Pages: 1 -->
<svg width="480pt" height="651pt"
 viewBox="0.00 0.00 480.00 651.00" xmlns="http://www.w3.org/2000/svg" xmlns:xlink="http://www.w3.org/1999/xlink">
<g id="graph0" class="graph" transform="scale(1 1) rotate(0) translate(4 647)">
<title>PathSearch</title>
<polygon fill="#ffffff" stroke="transparent" points="-4,4 -4,-647 476,-647 476,4 -4,4"/>
<!-- Node1 -->
<g id="node1" class="node">
<title>Node1</title>
<polygon fill="#bfbfbf" stroke="#000000" points="286.5,-.5 286.5,-178.5 393.5,-178.5 393.5,-.5 286.5,-.5"/>
<text text-anchor="middle" x="340" y="-166.5" font-family="Helvetica,sans-Serif" font-size="10.00" fill="#000000">PathSearch</text>
<polyline fill="none" stroke="#000000" points="286.5,-159.5 393.5,-159.5 "/>
<text text-anchor="middle" x="340" y="-147.5" font-family="Helvetica,sans-Serif" font-size="10.00" fill="#000000"> </text>
<polyline fill="none" stroke="#000000" points="286.5,-140.5 393.5,-140.5 "/>
<text text-anchor="start" x="294.5" y="-128.5" font-family="Helvetica,sans-Serif" font-size="10.00" fill="#000000">+ PathSearch()</text>
<text text-anchor="start" x="294.5" y="-117.5" font-family="Helvetica,sans-Serif" font-size="10.00" fill="#000000">+ find()</text>
<text text-anchor="start" x="294.5" y="-106.5" font-family="Helvetica,sans-Serif" font-size="10.00" fill="#000000">+ find()</text>
<text text-anchor="start" x="294.5" y="-95.5" font-family="Helvetica,sans-Serif" font-size="10.00" fill="#000000">+ show()</text>
<text text-anchor="start" x="294.5" y="-84.5" font-family="Helvetica,sans-Serif" font-size="10.00" fill="#000000">+ add_path()</text>
<text text-anchor="start" x="294.5" y="-73.5" font-family="Helvetica,sans-Serif" font-size="10.00" fill="#000000">+ add_suffix()</text>
<text text-anchor="start" x="294.5" y="-62.5" font-family="Helvetica,sans-Serif" font-size="10.00" fill="#000000">+ add_class()</text>
<text text-anchor="start" x="294.5" y="-51.5" font-family="Helvetica,sans-Serif" font-size="10.00" fill="#000000">+ ExcNoClass()</text>
<text text-anchor="start" x="294.5" y="-40.5" font-family="Helvetica,sans-Serif" font-size="10.00" fill="#000000">+ ExcFileNotFound()</text>
<text text-anchor="start" x="294.5" y="-29.5" font-family="Helvetica,sans-Serif" font-size="10.00" fill="#000000">&#45; initialize_classes()</text>
<text text-anchor="start" x="294.5" y="-18.5" font-family="Helvetica,sans-Serif" font-size="10.00" fill="#000000">&#45; get_path_list()</text>
<text text-anchor="start" x="294.5" y="-7.5" font-family="Helvetica,sans-Serif" font-size="10.00" fill="#000000">&#45; get_suffix_list()</text>
</g>
<!-- Node2 -->
<g id="node2" class="node">
<title>Node2</title>
<polygon fill="#ffffff" stroke="#bfbfbf" points="119.5,-237.5 119.5,-305.5 256.5,-305.5 256.5,-237.5 119.5,-237.5"/>
<text text-anchor="start" x="127.5" y="-293.5" font-family="Helvetica,sans-Serif" font-size="10.00" fill="#000000">std::map&lt; std::string,</text>
<text text-anchor="middle" x="188" y="-282.5" font-family="Helvetica,sans-Serif" font-size="10.00" fill="#000000"> std::vector&lt; std::string &gt; &gt;</text>
<polyline fill="none" stroke="#bfbfbf" points="119.5,-275.5 256.5,-275.5 "/>
<text text-anchor="middle" x="188" y="-263.5" font-family="Helvetica,sans-Serif" font-size="10.00" fill="#000000"> </text>
<polyline fill="none" stroke="#bfbfbf" points="119.5,-256.5 256.5,-256.5 "/>
<text text-anchor="middle" x="188" y="-244.5" font-family="Helvetica,sans-Serif" font-size="10.00" fill="#000000"> </text>
</g>
<!-- Node2&#45;&gt;Node1 -->
<g id="edge1" class="edge">
<title>Node2&#45;&gt;Node1</title>
<path fill="none" stroke="#404040" d="M201.8065,-237.3871C207.9431,-224.1612 215.8579,-209.2781 225,-197 239.8721,-177.0264 258.726,-157.6525 276.8433,-140.9819"/>
<polygon fill="none" stroke="#404040" points="277.3135,-140.5579 279.0907,-133.5692 286.2254,-132.5217 284.4482,-139.5104 277.3135,-140.5579"/>
<text text-anchor="middle" x="252" y="-211" font-family="Helvetica,sans-Serif" font-size="10.00" fill="#000000"> &#45;suffix_lists</text>
<text text-anchor="middle" x="252" y="-200" font-family="Helvetica,sans-Serif" font-size="10.00" fill="#000000">&#45;path_lists</text>
</g>
<!-- Node3 -->
<g id="node3" class="node">
<title>Node3</title>
<g id="a_node3"><a xlink:title="STL class. ">
<polygon fill="#ffffff" stroke="#bfbfbf" points="299,-469.5 299,-526.5 359,-526.5 359,-469.5 299,-469.5"/>
<text text-anchor="middle" x="329" y="-514.5" font-family="Helvetica,sans-Serif" font-size="10.00" fill="#000000">std::string</text>
<polyline fill="none" stroke="#bfbfbf" points="299,-507.5 359,-507.5 "/>
<text text-anchor="middle" x="329" y="-495.5" font-family="Helvetica,sans-Serif" font-size="10.00" fill="#000000"> </text>
<polyline fill="none" stroke="#bfbfbf" points="299,-488.5 359,-488.5 "/>
<text text-anchor="middle" x="329" y="-476.5" font-family="Helvetica,sans-Serif" font-size="10.00" fill="#000000"> </text>
</a>
</g>
</g>
<!-- Node3&#45;&gt;Node1 -->
<g id="edge11" class="edge">
<title>Node3&#45;&gt;Node1</title>
<path fill="none" stroke="#404040" d="M339.5644,-469.4345C344.4868,-455.3111 350.1028,-437.9201 354,-422 373.6532,-341.7158 382.078,-319.1547 373,-237 371.3235,-221.8276 368.7049,-205.9344 365.659,-190.4314"/>
<polygon fill="none" stroke="#404040" points="365.6583,-190.4275 360.5377,-185.3501 363.255,-178.6706 368.3756,-183.748 365.6583,-190.4275"/>
<text text-anchor="middle" x="390.5" y="-338" font-family="Helvetica,sans-Serif" font-size="10.00" fill="#000000"> &#45;cls</text>
<text text-anchor="middle" x="390.5" y="-327" font-family="Helvetica,sans-Serif" font-size="10.00" fill="#000000">&#45;empty</text>
</g>
<!-- Node3&#45;&gt;Node2 -->
<g id="edge2" class="edge">
<title>Node3&#45;&gt;Node2</title>
<path fill="none" stroke="#404040" d="M327.2473,-469.4305C324.5762,-441.3207 317.8577,-397.8199 301,-364 291.0755,-344.0894 274.6779,-326.9603 257.4109,-313.0452"/>
<polygon fill="none" stroke="#404040" points="257.2869,-312.9501 250.0915,-312.4732 247.7643,-305.648 254.9596,-306.1248 257.2869,-312.9501"/>
<text text-anchor="middle" x="334.5" y="-390.5" font-family="Helvetica,sans-Serif" font-size="10.00" fill="#000000"> +keys</text>
</g>
<!-- Node5 -->
<g id="node5" class="node">
<title>Node5</title>
<polygon fill="#ffffff" stroke="#bfbfbf" points="167.5,-364.5 167.5,-421.5 292.5,-421.5 292.5,-364.5 167.5,-364.5"/>
<text text-anchor="middle" x="230" y="-409.5" font-family="Helvetica,sans-Serif" font-size="10.00" fill="#000000">std::vector&lt; std::string &gt;</text>
<polyline fill="none" stroke="#bfbfbf" points="167.5,-402.5 292.5,-402.5 "/>
<text text-anchor="middle" x="230" y="-390.5" font-family="Helvetica,sans-Serif" font-size="10.00" fill="#000000"> </text>
<polyline fill="none" stroke="#bfbfbf" points="167.5,-383.5 292.5,-383.5 "/>
<text text-anchor="middle" x="230" y="-371.5" font-family="Helvetica,sans-Serif" font-size="10.00" fill="#000000"> </text>
</g>
<!-- Node3&#45;&gt;Node5 -->
<g id="edge5" class="edge">
<title>Node3&#45;&gt;Node5</title>
<path fill="none" stroke="#404040" d="M298.8946,-479.025C287.7942,-471.1716 275.5972,-461.4546 266,-451 260.7404,-445.2706 255.8117,-438.6672 251.3898,-432.0144"/>
<polygon fill="none" stroke="#404040" points="251.2584,-431.8047 244.6821,-428.8462 244.8837,-421.6379 251.46,-424.5964 251.2584,-431.8047"/>
<text text-anchor="middle" x="290.5" y="-443" font-family="Helvetica,sans-Serif" font-size="10.00" fill="#000000"> +elements</text>
</g>
<!-- Node4 -->
<g id="node4" class="node">
<title>Node4</title>
<g id="a_node4"><a xlink:title="STL class. ">
<polygon fill="#ffffff" stroke="#bfbfbf" points="281.5,-574.5 281.5,-642.5 376.5,-642.5 376.5,-574.5 281.5,-574.5"/>
<text text-anchor="start" x="289.5" y="-630.5" font-family="Helvetica,sans-Serif" font-size="10.00" fill="#000000">std::basic_string&lt;</text>
<text text-anchor="middle" x="329" y="-619.5" font-family="Helvetica,sans-Serif" font-size="10.00" fill="#000000"> char &gt;</text>
<polyline fill="none" stroke="#bfbfbf" points="281.5,-612.5 376.5,-612.5 "/>
<text text-anchor="middle" x="329" y="-600.5" font-family="Helvetica,sans-Serif" font-size="10.00" fill="#000000"> </text>
<polyline fill="none" stroke="#bfbfbf" points="281.5,-593.5 376.5,-593.5 "/>
<text text-anchor="middle" x="329" y="-581.5" font-family="Helvetica,sans-Serif" font-size="10.00" fill="#000000"> </text>
</a>
</g>
</g>
<!-- Node4&#45;&gt;Node3 -->
<g id="edge3" class="edge">
<title>Node4&#45;&gt;Node3</title>
<path fill="none" stroke="#191970" d="M329,-564.0661C329,-551.4172 329,-537.9812 329,-526.5519"/>
<polygon fill="none" stroke="#191970" points="325.5001,-564.4447 329,-574.4447 332.5001,-564.4447 325.5001,-564.4447"/>
</g>
<!-- Node5&#45;&gt;Node1 -->
<g id="edge13" class="edge">
<title>Node5&#45;&gt;Node1</title>
<path fill="none" stroke="#404040" d="M254.6357,-364.2827C258.836,-358.4813 262.8518,-352.2401 266,-346 279.9449,-318.3599 299.4878,-249.7156 314.9884,-190.3905"/>
<polygon fill="none" stroke="#404040" points="315.0171,-190.2798 312.6527,-183.4673 318.0318,-178.6647 320.3961,-185.4771 315.0171,-190.2798"/>
<text text-anchor="middle" x="335.5" y="-274.5" font-family="Helvetica,sans-Serif" font-size="10.00" fill="#000000"> &#45;my_suffix_list</text>
<text text-anchor="middle" x="335.5" y="-263.5" font-family="Helvetica,sans-Serif" font-size="10.00" fill="#000000">&#45;my_path_list</text>
</g>
<!-- Node5&#45;&gt;Node2 -->
<g id="edge4" class="edge">
<title>Node5&#45;&gt;Node2</title>
<path fill="none" stroke="#404040" d="M220.0466,-364.2062C215.214,-350.2262 209.2903,-333.0898 203.8563,-317.37"/>
<polygon fill="none" stroke="#404040" points="203.7431,-317.0422 198.0023,-312.6784 199.8225,-305.7007 205.5633,-310.0646 203.7431,-317.0422"/>
<text text-anchor="middle" x="237.5" y="-332.5" font-family="Helvetica,sans-Serif" font-size="10.00" fill="#000000"> +elements</text>
</g>
<!-- Node6 -->
<g id="node6" class="node">
<title>Node6</title>
<g id="a_node6"><a xlink:title="STL class. ">
<polygon fill="#ffffff" stroke="#bfbfbf" points="132.5,-469.5 132.5,-526.5 219.5,-526.5 219.5,-469.5 132.5,-469.5"/>
<text text-anchor="middle" x="176" y="-514.5" font-family="Helvetica,sans-Serif" font-size="10.00" fill="#000000">std::vector&lt; T &gt;</text>
<polyline fill="none" stroke="#bfbfbf" points="132.5,-507.5 219.5,-507.5 "/>
<text text-anchor="middle" x="176" y="-495.5" font-family="Helvetica,sans-Serif" font-size="10.00" fill="#000000"> </text>
<polyline fill="none" stroke="#bfbfbf" points="132.5,-488.5 219.5,-488.5 "/>
<text text-anchor="middle" x="176" y="-476.5" font-family="Helvetica,sans-Serif" font-size="10.00" fill="#000000"> </text>
</a>
</g>
</g>
<!-- Node6&#45;&gt;Node5 -->
<g id="edge6" class="edge">
<title>Node6&#45;&gt;Node5</title>
<path fill="none" stroke="#ffa500" d="M173.0902,-459.0255C173.783,-452.4599 175.2684,-445.8759 178,-440 181.1292,-433.2688 185.7197,-427.0769 190.8972,-421.5494"/>
<polygon fill="#ffa500" stroke="#ffa500" points="169.5842,-459.0633 172.5884,-469.2233 176.5757,-459.4074 169.5842,-459.0633"/>
<text text-anchor="middle" x="210.5" y="-443" font-family="Helvetica,sans-Serif" font-size="10.00" fill="#000000"> &lt; std::string &gt;</text>
</g>
<!-- Node7 -->
<g id="node7" class="node">
<title>Node7</title>
<polygon fill="#ffffff" stroke="#bfbfbf" points="124.5,-580 124.5,-637 153.5,-637 153.5,-580 124.5,-580"/>
<text text-anchor="middle" x="139" y="-625" font-family="Helvetica,sans-Serif" font-size="10.00" fill="#000000">T</text>
<polyline fill="none" stroke="#bfbfbf" points="124.5,-618 153.5,-618 "/>
<text text-anchor="middle" x="139" y="-606" font-family="Helvetica,sans-Serif" font-size="10.00" fill="#000000"> </text>
<polyline fill="none" stroke="#bfbfbf" points="124.5,-599 153.5,-599 "/>
<text text-anchor="middle" x="139" y="-587" font-family="Helvetica,sans-Serif" font-size="10.00" fill="#000000"> </text>
</g>
<!-- Node7&#45;&gt;Node6 -->
<g id="edge7" class="edge">
<title>Node7&#45;&gt;Node6</title>
<path fill="none" stroke="#404040" d="M148.6247,-579.7559C152.8643,-567.0945 157.9188,-551.9992 162.524,-538.2459"/>
<polygon fill="none" stroke="#404040" points="162.6132,-537.9792 160.7253,-531.0196 166.4235,-526.6002 168.3114,-533.5598 162.6132,-537.9792"/>
<text text-anchor="middle" x="184.5" y="-548" font-family="Helvetica,sans-Serif" font-size="10.00" fill="#000000"> +elements</text>
</g>
<!-- Node8 -->
<g id="node8" class="node">
<title>Node8</title>
<g id="a_node8"><a xlink:title="STL class. ">
<polygon fill="#ffffff" stroke="#bfbfbf" points="0,-469.5 0,-526.5 92,-526.5 92,-469.5 0,-469.5"/>
<text text-anchor="middle" x="46" y="-514.5" font-family="Helvetica,sans-Serif" font-size="10.00" fill="#000000">std::map&lt; K, T &gt;</text>
<polyline fill="none" stroke="#bfbfbf" points="0,-507.5 92,-507.5 "/>
<text text-anchor="middle" x="46" y="-495.5" font-family="Helvetica,sans-Serif" font-size="10.00" fill="#000000"> </text>
<polyline fill="none" stroke="#bfbfbf" points="0,-488.5 92,-488.5 "/>
<text text-anchor="middle" x="46" y="-476.5" font-family="Helvetica,sans-Serif" font-size="10.00" fill="#000000"> </text>
</a>
</g>
</g>
<!-- Node7&#45;&gt;Node8 -->
<g id="edge10" class="edge">
<title>Node7&#45;&gt;Node8</title>
<path fill="none" stroke="#404040" d="M124.4688,-591.2344C112.0571,-576.4873 93.756,-554.7424 77.9494,-535.9614"/>
<polygon fill="none" stroke="#404040" points="77.919,-535.9252 70.9951,-533.9104 70.1919,-526.7441 77.1158,-528.759 77.919,-535.9252"/>
<text text-anchor="middle" x="117.5" y="-548" font-family="Helvetica,sans-Serif" font-size="10.00" fill="#000000"> +elements</text>
</g>
<!-- Node8&#45;&gt;Node2 -->
<g id="edge8" class="edge">
<title>Node8&#45;&gt;Node2</title>
<path fill="none" stroke="#ffa500" d="M39.6748,-459.0261C37.0711,-430.84 37.7687,-392.8063 54,-364 68.7789,-337.7713 94.4525,-317.3568 119.3984,-302.4583"/>
<polygon fill="#ffa500" stroke="#ffa500" points="36.2335,-459.7508 40.8089,-469.3067 43.1912,-458.9833 36.2335,-459.7508"/>
<text text-anchor="start" x="54" y="-396" font-family="Helvetica,sans-Serif" font-size="10.00" fill="#000000"> &lt; std::string, std</text>
<text text-anchor="middle" x="106" y="-385" font-family="Helvetica,sans-Serif" font-size="10.00" fill="#000000">::vector&lt; std::string &gt; &gt;</text>
</g>
<!-- Node9 -->
<g id="node9" class="node">
<title>Node9</title>
<polygon fill="#ffffff" stroke="#bfbfbf" points="31.5,-580 31.5,-637 60.5,-637 60.5,-580 31.5,-580"/>
<text text-anchor="middle" x="46" y="-625" font-family="Helvetica,sans-Serif" font-size="10.00" fill="#000000">K</text>
<polyline fill="none" stroke="#bfbfbf" points="31.5,-618 60.5,-618 "/>
<text text-anchor="middle" x="46" y="-606" font-family="Helvetica,sans-Serif" font-size="10.00" fill="#000000"> </text>
<polyline fill="none" stroke="#bfbfbf" points="31.5,-599 60.5,-599 "/>
<text text-anchor="middle" x="46" y="-587" font-family="Helvetica,sans-Serif" font-size="10.00" fill="#000000"> </text>
</g>
<!-- Node9&#45;&gt;Node8 -->
<g id="edge9" class="edge">
<title>Node9&#45;&gt;Node8</title>
<path fill="none" stroke="#404040" d="M46,-579.7559C46,-567.2224 46,-552.3039 46,-538.6631"/>
<polygon fill="none" stroke="#404040" points="46.0001,-538.6002 42,-532.6002 46,-526.6002 50,-532.6002 46.0001,-538.6002"/>
<text text-anchor="middle" x="61.5" y="-548" font-family="Helvetica,sans-Serif" font-size="10.00" fill="#000000"> +keys</text>
</g>
<!-- Node10 -->
<g id="node10" class="node">
<title>Node10</title>
<polygon fill="#ffffff" stroke="#bfbfbf" points="416,-243 416,-300 472,-300 472,-243 416,-243"/>
<text text-anchor="middle" x="444" y="-288" font-family="Helvetica,sans-Serif" font-size="10.00" fill="#000000">unsigned</text>
<polyline fill="none" stroke="#bfbfbf" points="416,-281 472,-281 "/>
<text text-anchor="middle" x="444" y="-269" font-family="Helvetica,sans-Serif" font-size="10.00" fill="#000000"> </text>
<polyline fill="none" stroke="#bfbfbf" points="416,-262 472,-262 "/>
<text text-anchor="middle" x="444" y="-250" font-family="Helvetica,sans-Serif" font-size="10.00" fill="#000000"> </text>
</g>
<!-- Node10&#45;&gt;Node1 -->
<g id="edge12" class="edge">
<title>Node10&#45;&gt;Node1</title>
<path fill="none" stroke="#404040" d="M427.9105,-242.8071C420.1177,-228.9491 410.6053,-212.0908 402,-197 400.5059,-194.3798 398.9897,-191.7247 397.4585,-189.0463"/>
<polygon fill="none" stroke="#404040" points="397.4542,-189.0388 391.0017,-185.8193 391.4918,-178.6248 397.9443,-181.8443 397.4542,-189.0388"/>
<text text-anchor="middle" x="429.5" y="-205.5" font-family="Helvetica,sans-Serif" font-size="10.00" fill="#000000"> &#45;debug</text>
</g>
</g>
</svg>
