<?xml version="1.0" encoding="UTF-8" standalone="no"?>
<!DOCTYPE svg PUBLIC "-//W3C//DTD SVG 1.1//EN"
 "http://www.w3.org/Graphics/SVG/1.1/DTD/svg11.dtd">
<!-- Generated by graphviz version 2.40.1 (20161225.0304)
 -->
<!-- Title: MatrixTableIterators::Accessor&lt; TableType, false, storage_order &gt; Pages: 1 -->
<!--zoomable 701 -->
<svg id="main" version="1.1" xmlns="http://www.w3.org/2000/svg" xmlns:xlink="http://www.w3.org/1999/xlink" xml:space="preserve" onload="init(evt)">
<style type="text/css"><![CDATA[
.edge:hover path { stroke: red; }
.edge:hover polygon { stroke: red; fill: red; }
]]></style>
<script type="text/javascript"><![CDATA[
var edges = document.getElementsByTagName('g');
if (edges && edges.length) {
  for (var i=0;i<edges.length;i++) {
    if (edges[i].id.substr(0,4)=='edge') {
      edges[i].setAttribute('class','edge');
    }
  }
}
]]></script>
        <defs>
                <circle id="rim" cx="0" cy="0" r="7"/>
                <circle id="rim2" cx="0" cy="0" r="3.5"/>
                <g id="zoomPlus">
                        <use xlink:href="#rim" fill="#404040">
                                <set attributeName="fill" to="#808080" begin="zoomplus.mouseover" end="zoomplus.mouseout"/>
                        </use>
                        <path d="M-4,0h8M0,-4v8" fill="none" stroke="white" stroke-width="1.5" pointer-events="none"/>
                </g>
                <g id="zoomMin">
                        <use xlink:href="#rim" fill="#404040">
                                <set attributeName="fill" to="#808080" begin="zoomminus.mouseover" end="zoomminus.mouseout"/>
                        </use>
                        <path d="M-4,0h8" fill="none" stroke="white" stroke-width="1.5" pointer-events="none"/>
                </g>
                <g id="dirArrow">
                        <path fill="none" stroke="white" stroke-width="1.5" d="M0,-3.0v7 M-2.5,-0.5L0,-3.0L2.5,-0.5"/>
                </g>
               <g id="resetDef">
                       <use xlink:href="#rim2" fill="#404040">
                               <set attributeName="fill" to="#808080" begin="reset.mouseover" end="reset.mouseout"/>
                       </use>
               </g>
        </defs>

<script type="text/javascript">
var viewWidth = 326;
var viewHeight = 701;
var sectionId = 'dynsection-1';
</script>
<script xlink:href="svgpan.js"/>
<svg id="graph" class="graph">
<g id="viewport">
<title>MatrixTableIterators::Accessor&lt; TableType, false, storage_order &gt;</title>
<polygon fill="#ffffff" stroke="transparent" points="-4,4 -4,-697 321.763,-697 321.763,4 -4,4"/>
<!-- Node3 -->
<g id="node1" class="node">
<title>Node3</title>
<polygon fill="#bfbfbf" stroke="#000000" points="83.263,-.5 83.263,-112.5 210.263,-112.5 210.263,-.5 83.263,-.5"/>
<text text-anchor="start" x="91.263" y="-100.5" font-family="Helvetica,sans-Serif" font-size="10.00" fill="#000000">MatrixTableIterators</text>
<text text-anchor="start" x="91.263" y="-89.5" font-family="Helvetica,sans-Serif" font-size="10.00" fill="#000000">::Accessor&lt; TableType,</text>
<text text-anchor="middle" x="146.763" y="-78.5" font-family="Helvetica,sans-Serif" font-size="10.00" fill="#000000"> false, storage_order &gt;</text>
<polyline fill="none" stroke="#000000" points="83.263,-71.5 210.263,-71.5 "/>
<text text-anchor="middle" x="146.763" y="-59.5" font-family="Helvetica,sans-Serif" font-size="10.00" fill="#000000"> </text>
<polyline fill="none" stroke="#000000" points="83.263,-52.5 210.263,-52.5 "/>
<text text-anchor="start" x="91.263" y="-40.5" font-family="Helvetica,sans-Serif" font-size="10.00" fill="#000000">+ operator=()</text>
<text text-anchor="start" x="91.263" y="-29.5" font-family="Helvetica,sans-Serif" font-size="10.00" fill="#000000">+ operator=()</text>
<text text-anchor="start" x="91.263" y="-18.5" font-family="Helvetica,sans-Serif" font-size="10.00" fill="#000000">+ value()</text>
<text text-anchor="start" x="91.263" y="-7.5" font-family="Helvetica,sans-Serif" font-size="10.00" fill="#000000">+ operator value_type &amp;()</text>
</g>
<!-- Node4 -->
<g id="node2" class="node">
<title>Node4</title>
<g id="a_node2"><a xlink:href="classMatrixTableIterators_1_1AccessorBase.html" target="_top" xlink:title="{MatrixTableIterators\l::AccessorBase\&lt; TableType,\l false, storage_order \&gt;\n||+ AccessorBase()\l+ AccessorBase()\l+ AccessorBase()\l+ AccessorBase()\l+ value()\l+ operator const value\l_type &amp;()\l+ row()\l+ column()\l# assert_valid_linear\l_index()\l}">
<polygon fill="#ffffff" stroke="#000000" points="74.763,-150.5 74.763,-339.5 218.763,-339.5 218.763,-150.5 74.763,-150.5"/>
<text text-anchor="start" x="82.763" y="-327.5" font-family="Helvetica,sans-Serif" font-size="10.00" fill="#000000">MatrixTableIterators</text>
<text text-anchor="start" x="82.763" y="-316.5" font-family="Helvetica,sans-Serif" font-size="10.00" fill="#000000">::AccessorBase&lt; TableType,</text>
<text text-anchor="middle" x="146.763" y="-305.5" font-family="Helvetica,sans-Serif" font-size="10.00" fill="#000000"> false, storage_order &gt;</text>
<polyline fill="none" stroke="#000000" points="74.763,-298.5 218.763,-298.5 "/>
<text text-anchor="middle" x="146.763" y="-286.5" font-family="Helvetica,sans-Serif" font-size="10.00" fill="#000000"> </text>
<polyline fill="none" stroke="#000000" points="74.763,-279.5 218.763,-279.5 "/>
<text text-anchor="start" x="82.763" y="-267.5" font-family="Helvetica,sans-Serif" font-size="10.00" fill="#000000">+ AccessorBase()</text>
<text text-anchor="start" x="82.763" y="-256.5" font-family="Helvetica,sans-Serif" font-size="10.00" fill="#000000">+ AccessorBase()</text>
<text text-anchor="start" x="82.763" y="-245.5" font-family="Helvetica,sans-Serif" font-size="10.00" fill="#000000">+ AccessorBase()</text>
<text text-anchor="start" x="82.763" y="-234.5" font-family="Helvetica,sans-Serif" font-size="10.00" fill="#000000">+ AccessorBase()</text>
<text text-anchor="start" x="82.763" y="-223.5" font-family="Helvetica,sans-Serif" font-size="10.00" fill="#000000">+ value()</text>
<text text-anchor="start" x="82.763" y="-212.5" font-family="Helvetica,sans-Serif" font-size="10.00" fill="#000000">+ operator const value</text>
<text text-anchor="start" x="82.763" y="-201.5" font-family="Helvetica,sans-Serif" font-size="10.00" fill="#000000">_type &amp;()</text>
<text text-anchor="start" x="82.763" y="-190.5" font-family="Helvetica,sans-Serif" font-size="10.00" fill="#000000">+ row()</text>
<text text-anchor="start" x="82.763" y="-179.5" font-family="Helvetica,sans-Serif" font-size="10.00" fill="#000000">+ column()</text>
<text text-anchor="start" x="82.763" y="-168.5" font-family="Helvetica,sans-Serif" font-size="10.00" fill="#000000"># assert_valid_linear</text>
<text text-anchor="start" x="82.763" y="-157.5" font-family="Helvetica,sans-Serif" font-size="10.00" fill="#000000">_index()</text>
</a>
</g>
</g>
<!-- Node4&#45;&gt;Node3 -->
<g id="edge1" class="edge">
<title>Node4&#45;&gt;Node3</title>
<path fill="none" stroke="#191970" d="M146.763,-140.1723C146.763,-130.7138 146.763,-121.3992 146.763,-112.6161"/>
<polygon fill="none" stroke="#191970" points="143.2631,-140.4738 146.763,-150.4739 150.2631,-140.4739 143.2631,-140.4738"/>
</g>
<!-- Node5 -->
<g id="node3" class="node">
<title>Node5</title>
<polygon fill="#ffffff" stroke="#bfbfbf" points="23.263,-635.5 23.263,-692.5 58.263,-692.5 58.263,-635.5 23.263,-635.5"/>
<text text-anchor="middle" x="40.763" y="-680.5" font-family="Helvetica,sans-Serif" font-size="10.00" fill="#000000">type</text>
<polyline fill="none" stroke="#bfbfbf" points="23.263,-673.5 58.263,-673.5 "/>
<text text-anchor="middle" x="40.763" y="-661.5" font-family="Helvetica,sans-Serif" font-size="10.00" fill="#000000"> </text>
<polyline fill="none" stroke="#bfbfbf" points="23.263,-654.5 58.263,-654.5 "/>
<text text-anchor="middle" x="40.763" y="-642.5" font-family="Helvetica,sans-Serif" font-size="10.00" fill="#000000"> </text>
</g>
<!-- Node5&#45;&gt;Node4 -->
<g id="edge2" class="edge">
<title>Node5&#45;&gt;Node4</title>
<path fill="none" stroke="#404040" d="M29.4012,-635.2647C24.4543,-621.2497 19.2293,-604 16.763,-588 3.8984,-504.5412 -12.3635,-477.2623 16.763,-398 27.4297,-368.9726 46.3175,-341.6881 66.4467,-318.4251"/>
<polygon fill="none" stroke="#404040" points="66.5262,-318.3359 67.5335,-311.1955 74.5121,-309.379 73.5048,-316.5194 66.5262,-318.3359"/>
<text text-anchor="middle" x="41.263" y="-490.5" font-family="Helvetica,sans-Serif" font-size="10.00" fill="#000000"> #container</text>
</g>
<!-- Node7 -->
<g id="node5" class="node">
<title>Node7</title>
<g id="a_node5"><a xlink:href="classMatrixTableIterators_1_1AccessorBase.html" target="_top" xlink:title="Accessor base class for Table&lt;2, T&gt; and TransposeTable. 该类与LinearIndexIterator中描述的对Accessor的...">
<polygon fill="#ffffff" stroke="#000000" points="74.763,-398.5 74.763,-587.5 218.763,-587.5 218.763,-398.5 74.763,-398.5"/>
<text text-anchor="start" x="82.763" y="-575.5" font-family="Helvetica,sans-Serif" font-size="10.00" fill="#000000">MatrixTableIterators</text>
<text text-anchor="start" x="82.763" y="-564.5" font-family="Helvetica,sans-Serif" font-size="10.00" fill="#000000">::AccessorBase&lt; TableType,</text>
<text text-anchor="middle" x="146.763" y="-553.5" font-family="Helvetica,sans-Serif" font-size="10.00" fill="#000000"> Constness, storage_order &gt;</text>
<polyline fill="none" stroke="#000000" points="74.763,-546.5 218.763,-546.5 "/>
<text text-anchor="middle" x="146.763" y="-534.5" font-family="Helvetica,sans-Serif" font-size="10.00" fill="#000000"> </text>
<polyline fill="none" stroke="#000000" points="74.763,-527.5 218.763,-527.5 "/>
<text text-anchor="start" x="82.763" y="-515.5" font-family="Helvetica,sans-Serif" font-size="10.00" fill="#000000">+ AccessorBase()</text>
<text text-anchor="start" x="82.763" y="-504.5" font-family="Helvetica,sans-Serif" font-size="10.00" fill="#000000">+ AccessorBase()</text>
<text text-anchor="start" x="82.763" y="-493.5" font-family="Helvetica,sans-Serif" font-size="10.00" fill="#000000">+ AccessorBase()</text>
<text text-anchor="start" x="82.763" y="-482.5" font-family="Helvetica,sans-Serif" font-size="10.00" fill="#000000">+ AccessorBase()</text>
<text text-anchor="start" x="82.763" y="-471.5" font-family="Helvetica,sans-Serif" font-size="10.00" fill="#000000">+ value()</text>
<text text-anchor="start" x="82.763" y="-460.5" font-family="Helvetica,sans-Serif" font-size="10.00" fill="#000000">+ operator const value</text>
<text text-anchor="start" x="82.763" y="-449.5" font-family="Helvetica,sans-Serif" font-size="10.00" fill="#000000">_type &amp;()</text>
<text text-anchor="start" x="82.763" y="-438.5" font-family="Helvetica,sans-Serif" font-size="10.00" fill="#000000">+ row()</text>
<text text-anchor="start" x="82.763" y="-427.5" font-family="Helvetica,sans-Serif" font-size="10.00" fill="#000000">+ column()</text>
<text text-anchor="start" x="82.763" y="-416.5" font-family="Helvetica,sans-Serif" font-size="10.00" fill="#000000"># assert_valid_linear</text>
<text text-anchor="start" x="82.763" y="-405.5" font-family="Helvetica,sans-Serif" font-size="10.00" fill="#000000">_index()</text>
</a>
</g>
</g>
<!-- Node5&#45;&gt;Node7 -->
<g id="edge5" class="edge">
<title>Node5&#45;&gt;Node7</title>
<path fill="none" stroke="#404040" d="M58.2668,-635.7628C64.9207,-625.0287 72.956,-612.0661 81.4371,-598.3842"/>
<polygon fill="none" stroke="#404040" points="81.6717,-598.0058 81.4331,-590.7986 87.9941,-587.8064 88.2327,-595.0136 81.6717,-598.0058"/>
<text text-anchor="middle" x="100.263" y="-609" font-family="Helvetica,sans-Serif" font-size="10.00" fill="#000000"> #container</text>
</g>
<!-- Node6 -->
<g id="node4" class="node">
<title>Node6</title>
<polygon fill="#ffffff" stroke="#bfbfbf" points="183.763,-635.5 183.763,-692.5 233.763,-692.5 233.763,-635.5 183.763,-635.5"/>
<text text-anchor="middle" x="208.763" y="-680.5" font-family="Helvetica,sans-Serif" font-size="10.00" fill="#000000">ptrdiff_t</text>
<polyline fill="none" stroke="#bfbfbf" points="183.763,-673.5 233.763,-673.5 "/>
<text text-anchor="middle" x="208.763" y="-661.5" font-family="Helvetica,sans-Serif" font-size="10.00" fill="#000000"> </text>
<polyline fill="none" stroke="#bfbfbf" points="183.763,-654.5 233.763,-654.5 "/>
<text text-anchor="middle" x="208.763" y="-642.5" font-family="Helvetica,sans-Serif" font-size="10.00" fill="#000000"> </text>
</g>
<!-- Node6&#45;&gt;Node4 -->
<g id="edge3" class="edge">
<title>Node6&#45;&gt;Node4</title>
<path fill="none" stroke="#404040" d="M232.1502,-635.3083C235.6956,-629.5522 238.8156,-623.3207 240.763,-617 242.2025,-612.3278 240.7827,-610.8888 240.763,-606 240.3186,-495.7751 276.1126,-461.7051 238.763,-358 235.3436,-348.5055 230.7559,-339.2262 225.4472,-330.3256"/>
<polygon fill="none" stroke="#404040" points="225.3564,-330.1828 218.7596,-327.2703 218.9108,-320.0608 225.5076,-322.9733 225.3564,-330.1828"/>
<text text-anchor="middle" x="287.263" y="-490.5" font-family="Helvetica,sans-Serif" font-size="10.00" fill="#000000"> #linear_index</text>
</g>
<!-- Node6&#45;&gt;Node7 -->
<g id="edge6" class="edge">
<title>Node6&#45;&gt;Node7</title>
<path fill="none" stroke="#404040" d="M189.2845,-635.3835C185.7872,-629.4722 182.4166,-623.1647 179.763,-617 177.3209,-611.3266 175.0208,-605.4276 172.8604,-599.4183"/>
<polygon fill="none" stroke="#404040" points="172.756,-599.1126 167.0315,-594.7274 168.8776,-587.7566 174.6021,-592.1418 172.756,-599.1126"/>
<text text-anchor="middle" x="210.263" y="-609" font-family="Helvetica,sans-Serif" font-size="10.00" fill="#000000"> #linear_index</text>
</g>
<!-- Node7&#45;&gt;Node4 -->
<g id="edge4" class="edge">
<title>Node7&#45;&gt;Node4</title>
<path fill="none" stroke="#ffa500" d="M146.763,-387.7768C146.763,-371.8351 146.763,-355.4695 146.763,-339.7671"/>
<polygon fill="#ffa500" stroke="#ffa500" points="143.2631,-388.1803 146.763,-398.1803 150.2631,-388.1803 143.2631,-388.1803"/>
<text text-anchor="start" x="146.763" y="-372" font-family="Helvetica,sans-Serif" font-size="10.00" fill="#000000"> &lt; TableType, false,</text>
<text text-anchor="middle" x="190.763" y="-361" font-family="Helvetica,sans-Serif" font-size="10.00" fill="#000000"> storage_order &gt;</text>
</g>
</g>
</svg>
        <g id="navigator" transform="translate(0 0)" fill="#404254">
                <rect fill="#f2f5e9" fill-opacity="0.5" stroke="#606060" stroke-width=".5" x="0" y="0" width="60" height="60"/>
                <use id="zoomplus" xlink:href="#zoomPlus" x="17" y="9" onmousedown="handleZoom(evt,'in')"/>
                <use id="zoomminus" xlink:href="#zoomMin" x="42" y="9" onmousedown="handleZoom(evt,'out')"/>
                <use id="reset" xlink:href="#resetDef" x="30" y="36" onmousedown="handleReset()"/>
                <g id="arrowUp" xlink:href="#dirArrow" transform="translate(30 24)" onmousedown="handlePan(0,-1)">
                  <use xlink:href="#rim" fill="#404040">
                        <set attributeName="fill" to="#808080" begin="arrowUp.mouseover" end="arrowUp.mouseout"/>
                  </use>
                  <path fill="none" stroke="white" stroke-width="1.5" d="M0,-3.0v7 M-2.5,-0.5L0,-3.0L2.5,-0.5"/>
                </g>
                <g id="arrowRight" xlink:href="#dirArrow" transform="rotate(90) translate(36 -43)" onmousedown="handlePan(1,0)">
                  <use xlink:href="#rim" fill="#404040">
                        <set attributeName="fill" to="#808080" begin="arrowRight.mouseover" end="arrowRight.mouseout"/>
                  </use>
                  <path fill="none" stroke="white" stroke-width="1.5" d="M0,-3.0v7 M-2.5,-0.5L0,-3.0L2.5,-0.5"/>
                </g>
                <g id="arrowDown" xlink:href="#dirArrow" transform="rotate(180) translate(-30 -48)" onmousedown="handlePan(0,1)">
                  <use xlink:href="#rim" fill="#404040">
                        <set attributeName="fill" to="#808080" begin="arrowDown.mouseover" end="arrowDown.mouseout"/>
                  </use>
                  <path fill="none" stroke="white" stroke-width="1.5" d="M0,-3.0v7 M-2.5,-0.5L0,-3.0L2.5,-0.5"/>
                </g>
                <g id="arrowLeft" xlink:href="#dirArrow" transform="rotate(270) translate(-36 17)" onmousedown="handlePan(-1,0)">
                  <use xlink:href="#rim" fill="#404040">
                        <set attributeName="fill" to="#808080" begin="arrowLeft.mouseover" end="arrowLeft.mouseout"/>
                  </use>
                  <path fill="none" stroke="white" stroke-width="1.5" d="M0,-3.0v7 M-2.5,-0.5L0,-3.0L2.5,-0.5"/>
                </g>
        </g>
        <svg viewBox="0 0 15 15" width="100%" height="30px" preserveAspectRatio="xMaxYMin meet">
         <g id="arrow_out" transform="scale(0.3 0.3)">
          <a xlink:href="classMatrixTableIterators_1_1Accessor_3_01TableType_00_01false_00_01storage__order_01_4__coll__graph_org.svg" target="_base">
           <rect id="button" ry="5" rx="5" y="6" x="6" height="38" width="38"
                fill="#f2f5e9" fill-opacity="0.5" stroke="#606060" stroke-width="1.0"/>
           <path id="arrow"
             d="M 11.500037,31.436501 C 11.940474,20.09759 22.043105,11.32322 32.158766,21.979434 L 37.068811,17.246167 C 37.068811,17.246167 37.088388,32 37.088388,32 L 22.160133,31.978069 C 22.160133,31.978069 26.997745,27.140456 26.997745,27.140456 C 18.528582,18.264221 13.291696,25.230495 11.500037,31.436501 z"
             style="fill:#404040;"/>
          </a>
         </g>
        </svg>
</svg>
