<?xml version="1.0" encoding="UTF-8" standalone="no"?>
<!DOCTYPE svg PUBLIC "-//W3C//DTD SVG 1.1//EN"
 "http://www.w3.org/Graphics/SVG/1.1/DTD/svg11.dtd">
<!-- Generated by graphviz version 2.40.1 (20161225.0304)
 -->
<!-- Title: internal::DoFHandlerImplementation::Policy::Sequential&lt; dim, spacedim &gt; Pages: 1 -->
<!--zoomable 795 -->
<svg id="main" version="1.1" xmlns="http://www.w3.org/2000/svg" xmlns:xlink="http://www.w3.org/1999/xlink" xml:space="preserve" onload="init(evt)">
<style type="text/css"><![CDATA[
.edge:hover path { stroke: red; }
.edge:hover polygon { stroke: red; fill: red; }
]]></style>
<script type="text/javascript"><![CDATA[
var edges = document.getElementsByTagName('g');
if (edges && edges.length) {
  for (var i=0;i<edges.length;i++) {
    if (edges[i].id.substr(0,4)=='edge') {
      edges[i].setAttribute('class','edge');
    }
  }
}
]]></script>
        <defs>
                <circle id="rim" cx="0" cy="0" r="7"/>
                <circle id="rim2" cx="0" cy="0" r="3.5"/>
                <g id="zoomPlus">
                        <use xlink:href="#rim" fill="#404040">
                                <set attributeName="fill" to="#808080" begin="zoomplus.mouseover" end="zoomplus.mouseout"/>
                        </use>
                        <path d="M-4,0h8M0,-4v8" fill="none" stroke="white" stroke-width="1.5" pointer-events="none"/>
                </g>
                <g id="zoomMin">
                        <use xlink:href="#rim" fill="#404040">
                                <set attributeName="fill" to="#808080" begin="zoomminus.mouseover" end="zoomminus.mouseout"/>
                        </use>
                        <path d="M-4,0h8" fill="none" stroke="white" stroke-width="1.5" pointer-events="none"/>
                </g>
                <g id="dirArrow">
                        <path fill="none" stroke="white" stroke-width="1.5" d="M0,-3.0v7 M-2.5,-0.5L0,-3.0L2.5,-0.5"/>
                </g>
               <g id="resetDef">
                       <use xlink:href="#rim2" fill="#404040">
                               <set attributeName="fill" to="#808080" begin="reset.mouseover" end="reset.mouseout"/>
                       </use>
               </g>
        </defs>

<script type="text/javascript">
var viewWidth = 525;
var viewHeight = 795;
var sectionId = 'dynsection-1';
</script>
<script xlink:href="svgpan.js"/>
<svg id="graph" class="graph">
<g id="viewport">
<title>internal::DoFHandlerImplementation::Policy::Sequential&lt; dim, spacedim &gt;</title>
<polygon fill="#ffffff" stroke="transparent" points="-4,4 -4,-791 520.5,-791 520.5,4 -4,4"/>
<!-- Node2 -->
<g id="node1" class="node">
<title>Node2</title>
<polygon fill="#bfbfbf" stroke="#000000" points="18,-.5 18,-112.5 201,-112.5 201,-.5 18,-.5"/>
<text text-anchor="start" x="26" y="-100.5" font-family="Helvetica,sans-Serif" font-size="10.00" fill="#000000">internal::DoFHandlerImplementation</text>
<text text-anchor="middle" x="109.5" y="-89.5" font-family="Helvetica,sans-Serif" font-size="10.00" fill="#000000">::Policy::Sequential&lt; dim, spacedim &gt;</text>
<polyline fill="none" stroke="#000000" points="18,-82.5 201,-82.5 "/>
<text text-anchor="middle" x="109.5" y="-70.5" font-family="Helvetica,sans-Serif" font-size="10.00" fill="#000000"> </text>
<polyline fill="none" stroke="#000000" points="18,-63.5 201,-63.5 "/>
<text text-anchor="start" x="26" y="-51.5" font-family="Helvetica,sans-Serif" font-size="10.00" fill="#000000">+ Sequential()</text>
<text text-anchor="start" x="26" y="-40.5" font-family="Helvetica,sans-Serif" font-size="10.00" fill="#000000">+ distribute_dofs()</text>
<text text-anchor="start" x="26" y="-29.5" font-family="Helvetica,sans-Serif" font-size="10.00" fill="#000000">+ distribute_mg_dofs()</text>
<text text-anchor="start" x="26" y="-18.5" font-family="Helvetica,sans-Serif" font-size="10.00" fill="#000000">+ renumber_dofs()</text>
<text text-anchor="start" x="26" y="-7.5" font-family="Helvetica,sans-Serif" font-size="10.00" fill="#000000">+ renumber_mg_dofs()</text>
</g>
<!-- Node3 -->
<g id="node2" class="node">
<title>Node3</title>
<g id="a_node2"><a xlink:href="classinternal_1_1DoFHandlerImplementation_1_1Policy_1_1PolicyBase.html" target="_top" xlink:title="{internal::DoFHandlerImplementation\l::Policy::PolicyBase\&lt; dim, spacedim \&gt;\n||+ ~PolicyBase()\l+ distribute_dofs()\l+ distribute_mg_dofs()\l+ renumber_dofs()\l+ renumber_mg_dofs()\l}">
<polygon fill="#ffffff" stroke="#000000" points="0,-193.5 0,-305.5 187,-305.5 187,-193.5 0,-193.5"/>
<text text-anchor="start" x="8" y="-293.5" font-family="Helvetica,sans-Serif" font-size="10.00" fill="#000000">internal::DoFHandlerImplementation</text>
<text text-anchor="middle" x="93.5" y="-282.5" font-family="Helvetica,sans-Serif" font-size="10.00" fill="#000000">::Policy::PolicyBase&lt; dim, spacedim &gt;</text>
<polyline fill="none" stroke="#000000" points="0,-275.5 187,-275.5 "/>
<text text-anchor="middle" x="93.5" y="-263.5" font-family="Helvetica,sans-Serif" font-size="10.00" fill="#000000"> </text>
<polyline fill="none" stroke="#000000" points="0,-256.5 187,-256.5 "/>
<text text-anchor="start" x="8" y="-244.5" font-family="Helvetica,sans-Serif" font-size="10.00" fill="#000000">+ ~PolicyBase()</text>
<text text-anchor="start" x="8" y="-233.5" font-family="Helvetica,sans-Serif" font-size="10.00" fill="#000000">+ distribute_dofs()</text>
<text text-anchor="start" x="8" y="-222.5" font-family="Helvetica,sans-Serif" font-size="10.00" fill="#000000">+ distribute_mg_dofs()</text>
<text text-anchor="start" x="8" y="-211.5" font-family="Helvetica,sans-Serif" font-size="10.00" fill="#000000">+ renumber_dofs()</text>
<text text-anchor="start" x="8" y="-200.5" font-family="Helvetica,sans-Serif" font-size="10.00" fill="#000000">+ renumber_mg_dofs()</text>
</a>
</g>
</g>
<!-- Node3&#45;&gt;Node2 -->
<g id="edge1" class="edge">
<title>Node3&#45;&gt;Node2</title>
<path fill="none" stroke="#191970" d="M98.9801,-183.3965C100.8864,-160.4015 103.0053,-134.8418 104.839,-112.7227"/>
<polygon fill="none" stroke="#191970" points="95.4876,-183.1621 98.1494,-193.4172 102.4637,-183.7405 95.4876,-183.1621"/>
</g>
<!-- Node4 -->
<g id="node3" class="node">
<title>Node4</title>
<g id="a_node3"><a xlink:href="classSmartPointer.html" target="_top" xlink:title="{SmartPointer\&lt; DoFHandler\l\&lt; dim, spacedim \&gt; \&gt;\n||+ SmartPointer()\l+ SmartPointer()\l+ SmartPointer()\l+ SmartPointer()\l+ SmartPointer()\l+ ~SmartPointer()\l+ operator=()\l+ operator=()\l+ operator=()\l+ clear()\land 6 more...\l}">
<polygon fill="#ffffff" stroke="#000000" points="205,-160.5 205,-338.5 340,-338.5 340,-160.5 205,-160.5"/>
<text text-anchor="start" x="213" y="-326.5" font-family="Helvetica,sans-Serif" font-size="10.00" fill="#000000">SmartPointer&lt; DoFHandler</text>
<text text-anchor="middle" x="272.5" y="-315.5" font-family="Helvetica,sans-Serif" font-size="10.00" fill="#000000">&lt; dim, spacedim &gt; &gt;</text>
<polyline fill="none" stroke="#000000" points="205,-308.5 340,-308.5 "/>
<text text-anchor="middle" x="272.5" y="-296.5" font-family="Helvetica,sans-Serif" font-size="10.00" fill="#000000"> </text>
<polyline fill="none" stroke="#000000" points="205,-289.5 340,-289.5 "/>
<text text-anchor="start" x="213" y="-277.5" font-family="Helvetica,sans-Serif" font-size="10.00" fill="#000000">+ SmartPointer()</text>
<text text-anchor="start" x="213" y="-266.5" font-family="Helvetica,sans-Serif" font-size="10.00" fill="#000000">+ SmartPointer()</text>
<text text-anchor="start" x="213" y="-255.5" font-family="Helvetica,sans-Serif" font-size="10.00" fill="#000000">+ SmartPointer()</text>
<text text-anchor="start" x="213" y="-244.5" font-family="Helvetica,sans-Serif" font-size="10.00" fill="#000000">+ SmartPointer()</text>
<text text-anchor="start" x="213" y="-233.5" font-family="Helvetica,sans-Serif" font-size="10.00" fill="#000000">+ SmartPointer()</text>
<text text-anchor="start" x="213" y="-222.5" font-family="Helvetica,sans-Serif" font-size="10.00" fill="#000000">+ ~SmartPointer()</text>
<text text-anchor="start" x="213" y="-211.5" font-family="Helvetica,sans-Serif" font-size="10.00" fill="#000000">+ operator=()</text>
<text text-anchor="start" x="213" y="-200.5" font-family="Helvetica,sans-Serif" font-size="10.00" fill="#000000">+ operator=()</text>
<text text-anchor="start" x="213" y="-189.5" font-family="Helvetica,sans-Serif" font-size="10.00" fill="#000000">+ operator=()</text>
<text text-anchor="start" x="213" y="-178.5" font-family="Helvetica,sans-Serif" font-size="10.00" fill="#000000">+ clear()</text>
<text text-anchor="start" x="213" y="-167.5" font-family="Helvetica,sans-Serif" font-size="10.00" fill="#000000">and 6 more...</text>
</a>
</g>
</g>
<!-- Node4&#45;&gt;Node2 -->
<g id="edge2" class="edge">
<title>Node4&#45;&gt;Node2</title>
<path fill="none" stroke="#404040" d="M204.7894,-169.3273C191.4613,-153.5462 177.6265,-137.1652 164.7671,-121.9389"/>
<polygon fill="none" stroke="#404040" points="164.6424,-121.7912 157.715,-119.7883 156.8995,-112.6234 163.8269,-114.6264 164.6424,-121.7912"/>
<text text-anchor="middle" x="211" y="-134" font-family="Helvetica,sans-Serif" font-size="10.00" fill="#000000"> #dof_handler</text>
</g>
<!-- Node5 -->
<g id="node4" class="node">
<title>Node5</title>
<g id="a_node4"><a xlink:title="STL class. ">
<polygon fill="#ffffff" stroke="#bfbfbf" points="282.5,-623.5 282.5,-680.5 342.5,-680.5 342.5,-623.5 282.5,-623.5"/>
<text text-anchor="middle" x="312.5" y="-668.5" font-family="Helvetica,sans-Serif" font-size="10.00" fill="#000000">std::string</text>
<polyline fill="none" stroke="#bfbfbf" points="282.5,-661.5 342.5,-661.5 "/>
<text text-anchor="middle" x="312.5" y="-649.5" font-family="Helvetica,sans-Serif" font-size="10.00" fill="#000000"> </text>
<polyline fill="none" stroke="#bfbfbf" points="282.5,-642.5 342.5,-642.5 "/>
<text text-anchor="middle" x="312.5" y="-630.5" font-family="Helvetica,sans-Serif" font-size="10.00" fill="#000000"> </text>
</a>
</g>
</g>
<!-- Node5&#45;&gt;Node4 -->
<g id="edge3" class="edge">
<title>Node5&#45;&gt;Node4</title>
<path fill="none" stroke="#404040" d="M315.8519,-623.223C321.3009,-570.1025 329.8309,-453.2737 312.5,-357 312.107,-354.8166 311.6724,-352.6197 311.2006,-350.4145"/>
<polygon fill="none" stroke="#404040" points="311.1585,-350.2395 305.8644,-345.3433 308.3479,-338.5733 313.6419,-343.4695 311.1585,-350.2395"/>
<text text-anchor="middle" x="329.5" y="-478.5" font-family="Helvetica,sans-Serif" font-size="10.00" fill="#000000"> &#45;id</text>
</g>
<!-- Node9 -->
<g id="node8" class="node">
<title>Node9</title>
<g id="a_node8"><a xlink:href="classSmartPointer.html" target="_top" xlink:title="{SmartPointer\&lt; T, P \&gt;\n||+ SmartPointer()\l+ SmartPointer()\l+ SmartPointer()\l+ SmartPointer()\l+ SmartPointer()\l+ ~SmartPointer()\l+ operator=()\l+ operator=()\l+ operator=()\l+ clear()\land 6 more...\l}">
<polygon fill="#ffffff" stroke="#000000" points="180.5,-397.5 180.5,-564.5 290.5,-564.5 290.5,-397.5 180.5,-397.5"/>
<text text-anchor="middle" x="235.5" y="-552.5" font-family="Helvetica,sans-Serif" font-size="10.00" fill="#000000">SmartPointer&lt; T, P &gt;</text>
<polyline fill="none" stroke="#000000" points="180.5,-545.5 290.5,-545.5 "/>
<text text-anchor="middle" x="235.5" y="-533.5" font-family="Helvetica,sans-Serif" font-size="10.00" fill="#000000"> </text>
<polyline fill="none" stroke="#000000" points="180.5,-526.5 290.5,-526.5 "/>
<text text-anchor="start" x="188.5" y="-514.5" font-family="Helvetica,sans-Serif" font-size="10.00" fill="#000000">+ SmartPointer()</text>
<text text-anchor="start" x="188.5" y="-503.5" font-family="Helvetica,sans-Serif" font-size="10.00" fill="#000000">+ SmartPointer()</text>
<text text-anchor="start" x="188.5" y="-492.5" font-family="Helvetica,sans-Serif" font-size="10.00" fill="#000000">+ SmartPointer()</text>
<text text-anchor="start" x="188.5" y="-481.5" font-family="Helvetica,sans-Serif" font-size="10.00" fill="#000000">+ SmartPointer()</text>
<text text-anchor="start" x="188.5" y="-470.5" font-family="Helvetica,sans-Serif" font-size="10.00" fill="#000000">+ SmartPointer()</text>
<text text-anchor="start" x="188.5" y="-459.5" font-family="Helvetica,sans-Serif" font-size="10.00" fill="#000000">+ ~SmartPointer()</text>
<text text-anchor="start" x="188.5" y="-448.5" font-family="Helvetica,sans-Serif" font-size="10.00" fill="#000000">+ operator=()</text>
<text text-anchor="start" x="188.5" y="-437.5" font-family="Helvetica,sans-Serif" font-size="10.00" fill="#000000">+ operator=()</text>
<text text-anchor="start" x="188.5" y="-426.5" font-family="Helvetica,sans-Serif" font-size="10.00" fill="#000000">+ operator=()</text>
<text text-anchor="start" x="188.5" y="-415.5" font-family="Helvetica,sans-Serif" font-size="10.00" fill="#000000">+ clear()</text>
<text text-anchor="start" x="188.5" y="-404.5" font-family="Helvetica,sans-Serif" font-size="10.00" fill="#000000">and 6 more...</text>
</a>
</g>
</g>
<!-- Node5&#45;&gt;Node9 -->
<g id="edge8" class="edge">
<title>Node5&#45;&gt;Node9</title>
<path fill="none" stroke="#404040" d="M299.6119,-623.3784C293.6065,-610.0416 286.0794,-593.3257 278.3152,-576.0832"/>
<polygon fill="none" stroke="#404040" points="278.1195,-575.6485 272.0087,-571.8199 273.1924,-564.7066 279.3033,-568.5352 278.1195,-575.6485"/>
<text text-anchor="middle" x="296.5" y="-591.5" font-family="Helvetica,sans-Serif" font-size="10.00" fill="#000000"> &#45;id</text>
</g>
<!-- Node6 -->
<g id="node5" class="node">
<title>Node6</title>
<g id="a_node5"><a xlink:title="STL class. ">
<polygon fill="#ffffff" stroke="#bfbfbf" points="265,-718.5 265,-786.5 360,-786.5 360,-718.5 265,-718.5"/>
<text text-anchor="start" x="273" y="-774.5" font-family="Helvetica,sans-Serif" font-size="10.00" fill="#000000">std::basic_string&lt;</text>
<text text-anchor="middle" x="312.5" y="-763.5" font-family="Helvetica,sans-Serif" font-size="10.00" fill="#000000"> char &gt;</text>
<polyline fill="none" stroke="#bfbfbf" points="265,-756.5 360,-756.5 "/>
<text text-anchor="middle" x="312.5" y="-744.5" font-family="Helvetica,sans-Serif" font-size="10.00" fill="#000000"> </text>
<polyline fill="none" stroke="#bfbfbf" points="265,-737.5 360,-737.5 "/>
<text text-anchor="middle" x="312.5" y="-725.5" font-family="Helvetica,sans-Serif" font-size="10.00" fill="#000000"> </text>
</a>
</g>
</g>
<!-- Node6&#45;&gt;Node5 -->
<g id="edge4" class="edge">
<title>Node6&#45;&gt;Node5</title>
<path fill="none" stroke="#191970" d="M312.5,-708.4301C312.5,-699.0073 312.5,-689.2901 312.5,-680.6312"/>
<polygon fill="none" stroke="#191970" points="309.0001,-708.4752 312.5,-718.4753 316.0001,-708.4753 309.0001,-708.4752"/>
</g>
<!-- Node7 -->
<g id="node6" class="node">
<title>Node7</title>
<polygon fill="#ffffff" stroke="#bfbfbf" points="55.5,-623.5 55.5,-680.5 137.5,-680.5 137.5,-623.5 55.5,-623.5"/>
<text text-anchor="middle" x="96.5" y="-668.5" font-family="Helvetica,sans-Serif" font-size="10.00" fill="#000000">atomic&lt; bool &gt;</text>
<polyline fill="none" stroke="#bfbfbf" points="55.5,-661.5 137.5,-661.5 "/>
<text text-anchor="middle" x="96.5" y="-649.5" font-family="Helvetica,sans-Serif" font-size="10.00" fill="#000000"> </text>
<polyline fill="none" stroke="#bfbfbf" points="55.5,-642.5 137.5,-642.5 "/>
<text text-anchor="middle" x="96.5" y="-630.5" font-family="Helvetica,sans-Serif" font-size="10.00" fill="#000000"> </text>
</g>
<!-- Node7&#45;&gt;Node4 -->
<g id="edge5" class="edge">
<title>Node7&#45;&gt;Node4</title>
<path fill="none" stroke="#404040" d="M86.216,-623.1263C70.3127,-573.0864 45.7864,-468.7384 88.5,-397 116.1734,-350.522 153.3889,-372.9512 195.5,-339 195.5997,-338.9196 195.6994,-338.839 195.7991,-338.7584"/>
<polygon fill="none" stroke="#404040" points="195.8662,-338.7008 197.8149,-331.758 204.9732,-330.8865 203.0245,-337.8293 195.8662,-338.7008"/>
<text text-anchor="start" x="88.5" y="-484" font-family="Helvetica,sans-Serif" font-size="10.00" fill="#000000"> &#45;pointed_to_object</text>
<text text-anchor="middle" x="130" y="-473" font-family="Helvetica,sans-Serif" font-size="10.00" fill="#000000">_is_alive</text>
</g>
<!-- Node7&#45;&gt;Node9 -->
<g id="edge9" class="edge">
<title>Node7&#45;&gt;Node9</title>
<path fill="none" stroke="#404040" d="M116.6397,-623.4378C125.9446,-610.7351 137.3795,-595.7921 148.5,-583 155.9226,-574.4616 158.9003,-573.3812 166.5,-565 168.354,-562.9553 170.2214,-560.8701 172.0946,-558.7556"/>
<polygon fill="none" stroke="#404040" points="172.4292,-558.3724 173.3619,-551.2218 180.3212,-549.3326 179.3884,-556.4831 172.4292,-558.3724"/>
<text text-anchor="start" x="148.5" y="-597" font-family="Helvetica,sans-Serif" font-size="10.00" fill="#000000"> &#45;pointed_to_object</text>
<text text-anchor="middle" x="190" y="-586" font-family="Helvetica,sans-Serif" font-size="10.00" fill="#000000">_is_alive</text>
</g>
<!-- Node8 -->
<g id="node7" class="node">
<title>Node8</title>
<polygon fill="#ffffff" stroke="#bfbfbf" points="358.5,-452.5 358.5,-509.5 516.5,-509.5 516.5,-452.5 358.5,-452.5"/>
<text text-anchor="middle" x="437.5" y="-497.5" font-family="Helvetica,sans-Serif" font-size="10.00" fill="#000000">DoFHandler&lt; dim, spacedim &gt; *</text>
<polyline fill="none" stroke="#bfbfbf" points="358.5,-490.5 516.5,-490.5 "/>
<text text-anchor="middle" x="437.5" y="-478.5" font-family="Helvetica,sans-Serif" font-size="10.00" fill="#000000"> </text>
<polyline fill="none" stroke="#bfbfbf" points="358.5,-471.5 516.5,-471.5 "/>
<text text-anchor="middle" x="437.5" y="-459.5" font-family="Helvetica,sans-Serif" font-size="10.00" fill="#000000"> </text>
</g>
<!-- Node8&#45;&gt;Node4 -->
<g id="edge6" class="edge">
<title>Node8&#45;&gt;Node4</title>
<path fill="none" stroke="#404040" d="M416.9363,-452.1484C398.3398,-426.0571 369.8491,-386.0837 343.0711,-348.5134"/>
<polygon fill="none" stroke="#404040" points="342.9066,-348.2825 336.1668,-345.7182 335.9416,-338.5105 342.6814,-341.0749 342.9066,-348.2825"/>
<text text-anchor="middle" x="364.5" y="-365.5" font-family="Helvetica,sans-Serif" font-size="10.00" fill="#000000"> &#45;t</text>
</g>
<!-- Node9&#45;&gt;Node4 -->
<g id="edge7" class="edge">
<title>Node9&#45;&gt;Node4</title>
<path fill="none" stroke="#ffa500" d="M216.2882,-387.0356C216.3078,-376.8461 217.2455,-366.6713 219.5,-357 220.9172,-350.9205 222.7301,-344.7897 224.8265,-338.7029"/>
<polygon fill="#ffa500" stroke="#ffa500" points="212.7942,-387.309 216.56,-397.2119 219.7917,-387.122 212.7942,-387.309"/>
<text text-anchor="start" x="219.5" y="-371" font-family="Helvetica,sans-Serif" font-size="10.00" fill="#000000"> &lt; DoFHandler&lt; dim,</text>
<text text-anchor="middle" x="266" y="-360" font-family="Helvetica,sans-Serif" font-size="10.00" fill="#000000"> spacedim &gt; &gt;</text>
</g>
<!-- Node10 -->
<g id="node9" class="node">
<title>Node10</title>
<polygon fill="#ffffff" stroke="#bfbfbf" points="221,-623.5 221,-680.5 250,-680.5 250,-623.5 221,-623.5"/>
<text text-anchor="middle" x="235.5" y="-668.5" font-family="Helvetica,sans-Serif" font-size="10.00" fill="#000000">T</text>
<polyline fill="none" stroke="#bfbfbf" points="221,-661.5 250,-661.5 "/>
<text text-anchor="middle" x="235.5" y="-649.5" font-family="Helvetica,sans-Serif" font-size="10.00" fill="#000000"> </text>
<polyline fill="none" stroke="#bfbfbf" points="221,-642.5 250,-642.5 "/>
<text text-anchor="middle" x="235.5" y="-630.5" font-family="Helvetica,sans-Serif" font-size="10.00" fill="#000000"> </text>
</g>
<!-- Node10&#45;&gt;Node9 -->
<g id="edge10" class="edge">
<title>Node10&#45;&gt;Node9</title>
<path fill="none" stroke="#404040" d="M235.5,-623.3784C235.5,-610.2957 235.5,-593.9612 235.5,-577.0679"/>
<polygon fill="none" stroke="#404040" points="235.5001,-576.7066 231.5,-570.7066 235.5,-564.7066 239.5,-570.7065 235.5001,-576.7066"/>
<text text-anchor="middle" x="240.5" y="-591.5" font-family="Helvetica,sans-Serif" font-size="10.00" fill="#000000"> &#45;t</text>
</g>
</g>
</svg>
        <g id="navigator" transform="translate(0 0)" fill="#404254">
                <rect fill="#f2f5e9" fill-opacity="0.5" stroke="#606060" stroke-width=".5" x="0" y="0" width="60" height="60"/>
                <use id="zoomplus" xlink:href="#zoomPlus" x="17" y="9" onmousedown="handleZoom(evt,'in')"/>
                <use id="zoomminus" xlink:href="#zoomMin" x="42" y="9" onmousedown="handleZoom(evt,'out')"/>
                <use id="reset" xlink:href="#resetDef" x="30" y="36" onmousedown="handleReset()"/>
                <g id="arrowUp" xlink:href="#dirArrow" transform="translate(30 24)" onmousedown="handlePan(0,-1)">
                  <use xlink:href="#rim" fill="#404040">
                        <set attributeName="fill" to="#808080" begin="arrowUp.mouseover" end="arrowUp.mouseout"/>
                  </use>
                  <path fill="none" stroke="white" stroke-width="1.5" d="M0,-3.0v7 M-2.5,-0.5L0,-3.0L2.5,-0.5"/>
                </g>
                <g id="arrowRight" xlink:href="#dirArrow" transform="rotate(90) translate(36 -43)" onmousedown="handlePan(1,0)">
                  <use xlink:href="#rim" fill="#404040">
                        <set attributeName="fill" to="#808080" begin="arrowRight.mouseover" end="arrowRight.mouseout"/>
                  </use>
                  <path fill="none" stroke="white" stroke-width="1.5" d="M0,-3.0v7 M-2.5,-0.5L0,-3.0L2.5,-0.5"/>
                </g>
                <g id="arrowDown" xlink:href="#dirArrow" transform="rotate(180) translate(-30 -48)" onmousedown="handlePan(0,1)">
                  <use xlink:href="#rim" fill="#404040">
                        <set attributeName="fill" to="#808080" begin="arrowDown.mouseover" end="arrowDown.mouseout"/>
                  </use>
                  <path fill="none" stroke="white" stroke-width="1.5" d="M0,-3.0v7 M-2.5,-0.5L0,-3.0L2.5,-0.5"/>
                </g>
                <g id="arrowLeft" xlink:href="#dirArrow" transform="rotate(270) translate(-36 17)" onmousedown="handlePan(-1,0)">
                  <use xlink:href="#rim" fill="#404040">
                        <set attributeName="fill" to="#808080" begin="arrowLeft.mouseover" end="arrowLeft.mouseout"/>
                  </use>
                  <path fill="none" stroke="white" stroke-width="1.5" d="M0,-3.0v7 M-2.5,-0.5L0,-3.0L2.5,-0.5"/>
                </g>
        </g>
        <svg viewBox="0 0 15 15" width="100%" height="30px" preserveAspectRatio="xMaxYMin meet">
         <g id="arrow_out" transform="scale(0.3 0.3)">
          <a xlink:href="classinternal_1_1DoFHandlerImplementation_1_1Policy_1_1Sequential__coll__graph_org.svg" target="_base">
           <rect id="button" ry="5" rx="5" y="6" x="6" height="38" width="38"
                fill="#f2f5e9" fill-opacity="0.5" stroke="#606060" stroke-width="1.0"/>
           <path id="arrow"
             d="M 11.500037,31.436501 C 11.940474,20.09759 22.043105,11.32322 32.158766,21.979434 L 37.068811,17.246167 C 37.068811,17.246167 37.088388,32 37.088388,32 L 22.160133,31.978069 C 22.160133,31.978069 26.997745,27.140456 26.997745,27.140456 C 18.528582,18.264221 13.291696,25.230495 11.500037,31.436501 z"
             style="fill:#404040;"/>
          </a>
         </g>
        </svg>
</svg>
