<?xml version="1.0" encoding="UTF-8" standalone="no"?>
<!DOCTYPE svg PUBLIC "-//W3C//DTD SVG 1.1//EN"
 "http://www.w3.org/Graphics/SVG/1.1/DTD/svg11.dtd">
<!-- Generated by graphviz version 2.40.1 (20161225.0304)
 -->
<!-- Title: Functions::FlowFunction&lt; dim &gt; Pages: 1 -->
<svg width="1352pt" height="151pt"
 viewBox="0.00 0.00 1352.00 151.00" xmlns="http://www.w3.org/2000/svg" xmlns:xlink="http://www.w3.org/1999/xlink">
<g id="graph0" class="graph" transform="scale(1 1) rotate(0) translate(4 147)">
<title>Functions::FlowFunction&lt; dim &gt;</title>
<polygon fill="#ffffff" stroke="transparent" points="-4,4 -4,-147 1348,-147 1348,4 -4,4"/>
<!-- Node0 -->
<g id="node1" class="node">
<title>Node0</title>
<polygon fill="#bfbfbf" stroke="#000000" points="826,-58 826,-88 950,-88 950,-58 826,-58"/>
<text text-anchor="start" x="834" y="-76" font-family="Helvetica,sans-Serif" font-size="10.00" fill="#000000">Functions::FlowFunction</text>
<text text-anchor="middle" x="888" y="-65" font-family="Helvetica,sans-Serif" font-size="10.00" fill="#000000">&lt; dim &gt;</text>
</g>
<!-- Node7 -->
<g id="node8" class="node">
<title>Node7</title>
<g id="a_node8"><a xlink:href="classFunctions_1_1PoisseuilleFlow.html" target="_top" xlink:title="Functions::PoisseuilleFlow\l\&lt; dim \&gt;">
<polygon fill="#ffffff" stroke="#000000" points="1019.5,-107 1019.5,-137 1153.5,-137 1153.5,-107 1019.5,-107"/>
<text text-anchor="start" x="1027.5" y="-125" font-family="Helvetica,sans-Serif" font-size="10.00" fill="#000000">Functions::PoisseuilleFlow</text>
<text text-anchor="middle" x="1086.5" y="-114" font-family="Helvetica,sans-Serif" font-size="10.00" fill="#000000">&lt; dim &gt;</text>
</a>
</g>
</g>
<!-- Node0&#45;&gt;Node7 -->
<g id="edge8" class="edge">
<title>Node0&#45;&gt;Node7</title>
<path fill="none" stroke="#191970" d="M958.7988,-90.4768C980.6772,-95.8775 1004.5703,-101.7755 1025.7096,-106.9938"/>
<polygon fill="#191970" stroke="#191970" points="959.4529,-87.0333 948.9055,-88.0346 957.7753,-93.8293 959.4529,-87.0333"/>
</g>
<!-- Node8 -->
<g id="node9" class="node">
<title>Node8</title>
<g id="a_node9"><a xlink:href="classFunctions_1_1StokesCosine.html" target="_top" xlink:title="Functions::StokesCosine\l\&lt; dim \&gt;">
<polygon fill="#ffffff" stroke="#000000" points="1023,-58 1023,-88 1150,-88 1150,-58 1023,-58"/>
<text text-anchor="start" x="1031" y="-76" font-family="Helvetica,sans-Serif" font-size="10.00" fill="#000000">Functions::StokesCosine</text>
<text text-anchor="middle" x="1086.5" y="-65" font-family="Helvetica,sans-Serif" font-size="10.00" fill="#000000">&lt; dim &gt;</text>
</a>
</g>
</g>
<!-- Node0&#45;&gt;Node8 -->
<g id="edge9" class="edge">
<title>Node0&#45;&gt;Node8</title>
<path fill="none" stroke="#191970" d="M960.4464,-73C980.8525,-73 1002.8926,-73 1022.7493,-73"/>
<polygon fill="#191970" stroke="#191970" points="960.262,-69.5001 950.262,-73 960.262,-76.5001 960.262,-69.5001"/>
</g>
<!-- Node9 -->
<g id="node10" class="node">
<title>Node9</title>
<g id="a_node10"><a xlink:href="classFunctions_1_1FlowFunction.html" target="_top" xlink:title="Functions::FlowFunction\&lt; 2 \&gt;">
<polygon fill="#ffffff" stroke="#000000" points="1013,-19.5 1013,-38.5 1160,-38.5 1160,-19.5 1013,-19.5"/>
<text text-anchor="middle" x="1086.5" y="-26.5" font-family="Helvetica,sans-Serif" font-size="10.00" fill="#000000">Functions::FlowFunction&lt; 2 &gt;</text>
</a>
</g>
</g>
<!-- Node0&#45;&gt;Node9 -->
<g id="edge10" class="edge">
<title>Node0&#45;&gt;Node9</title>
<path fill="none" stroke="#ffa500" stroke-dasharray="5,2" d="M960.0308,-57.0335C988.065,-50.8193 1019.2393,-43.9092 1043.6223,-38.5044"/>
<polygon fill="#ffa500" stroke="#ffa500" points="959.2676,-53.6176 950.262,-59.1988 960.7825,-60.4517 959.2676,-53.6176"/>
<text text-anchor="middle" x="981.5" y="-57" font-family="Helvetica,sans-Serif" font-size="10.00" fill="#000000"> &lt; 2 &gt;</text>
</g>
<!-- Node1 -->
<g id="node2" class="node">
<title>Node1</title>
<g id="a_node2"><a xlink:href="classFunction.html" target="_top" xlink:title="Function\&lt; dim \&gt;">
<polygon fill="#ffffff" stroke="#000000" points="701,-63.5 701,-82.5 789,-82.5 789,-63.5 701,-63.5"/>
<text text-anchor="middle" x="745" y="-70.5" font-family="Helvetica,sans-Serif" font-size="10.00" fill="#000000">Function&lt; dim &gt;</text>
</a>
</g>
</g>
<!-- Node1&#45;&gt;Node0 -->
<g id="edge1" class="edge">
<title>Node1&#45;&gt;Node0</title>
<path fill="none" stroke="#191970" d="M799.1417,-73C807.8934,-73 817.0145,-73 825.9361,-73"/>
<polygon fill="#191970" stroke="#191970" points="799.0716,-69.5001 789.0715,-73 799.0715,-76.5001 799.0716,-69.5001"/>
</g>
<!-- Node2 -->
<g id="node3" class="node">
<title>Node2</title>
<g id="a_node3"><a xlink:href="classFunctionTime.html" target="_top" xlink:title="FunctionTime\&lt; numbers\l::NumberTraits\&lt; double\l \&gt;::real_type \&gt;">
<polygon fill="#ffffff" stroke="#000000" points="493,-101.5 493,-142.5 615,-142.5 615,-101.5 493,-101.5"/>
<text text-anchor="start" x="501" y="-130.5" font-family="Helvetica,sans-Serif" font-size="10.00" fill="#000000">FunctionTime&lt; numbers</text>
<text text-anchor="start" x="501" y="-119.5" font-family="Helvetica,sans-Serif" font-size="10.00" fill="#000000">::NumberTraits&lt; double</text>
<text text-anchor="middle" x="554" y="-108.5" font-family="Helvetica,sans-Serif" font-size="10.00" fill="#000000"> &gt;::real_type &gt;</text>
</a>
</g>
</g>
<!-- Node2&#45;&gt;Node1 -->
<g id="edge2" class="edge">
<title>Node2&#45;&gt;Node1</title>
<path fill="none" stroke="#191970" d="M625.0154,-103.7814C653.1106,-96.5737 684.2377,-88.5882 707.746,-82.5573"/>
<polygon fill="#191970" stroke="#191970" points="624.0383,-100.4186 615.2217,-106.2939 625.7778,-107.1991 624.0383,-100.4186"/>
</g>
<!-- Node3 -->
<g id="node4" class="node">
<title>Node3</title>
<g id="a_node4"><a xlink:href="classSubscriptor.html" target="_top" xlink:title="Subscriptor">
<polygon fill="#ffffff" stroke="#000000" points="333,-62.5 333,-81.5 399,-81.5 399,-62.5 333,-62.5"/>
<text text-anchor="middle" x="366" y="-69.5" font-family="Helvetica,sans-Serif" font-size="10.00" fill="#000000">Subscriptor</text>
</a>
</g>
</g>
<!-- Node3&#45;&gt;Node1 -->
<g id="edge3" class="edge">
<title>Node3&#45;&gt;Node1</title>
<path fill="none" stroke="#191970" d="M409.4919,-72.1148C482.2601,-72.3068 627.8881,-72.691 700.9963,-72.8839"/>
<polygon fill="#191970" stroke="#191970" points="409.3108,-68.6144 399.3016,-72.0879 409.2923,-75.6143 409.3108,-68.6144"/>
</g>
<!-- Node4 -->
<g id="node5" class="node">
<title>Node4</title>
<g id="a_node5"><a xlink:href="classFunction.html" target="_top" xlink:title="Function\&lt; dim, RangeNumber\lType \&gt;">
<polygon fill="#ffffff" stroke="#000000" points="480,-14 480,-44 628,-44 628,-14 480,-14"/>
<text text-anchor="start" x="488" y="-32" font-family="Helvetica,sans-Serif" font-size="10.00" fill="#000000">Function&lt; dim, RangeNumber</text>
<text text-anchor="middle" x="554" y="-21" font-family="Helvetica,sans-Serif" font-size="10.00" fill="#000000">Type &gt;</text>
</a>
</g>
</g>
<!-- Node3&#45;&gt;Node4 -->
<g id="edge7" class="edge">
<title>Node3&#45;&gt;Node4</title>
<path fill="none" stroke="#191970" d="M409.1302,-62.1351C432.5041,-56.789 461.883,-50.0693 488.0641,-44.0811"/>
<polygon fill="#191970" stroke="#191970" points="408.1457,-58.7698 399.1779,-64.4114 409.7065,-65.5936 408.1457,-58.7698"/>
</g>
<!-- Node4&#45;&gt;Node1 -->
<g id="edge4" class="edge">
<title>Node4&#45;&gt;Node1</title>
<path fill="none" stroke="#ffa500" stroke-dasharray="5,2" d="M638.5577,-38.5173C653.4921,-41.0296 668.7984,-44.1496 683,-48 697.338,-51.8874 712.838,-58.1374 724.7535,-63.4155"/>
<polygon fill="#ffa500" stroke="#ffa500" points="638.7237,-34.9993 628.296,-36.8736 637.6165,-41.9112 638.7237,-34.9993"/>
<text text-anchor="middle" x="664.5" y="-51" font-family="Helvetica,sans-Serif" font-size="10.00" fill="#000000"> &lt; dim &gt;</text>
</g>
<!-- Node5 -->
<g id="node6" class="node">
<title>Node5</title>
<g id="a_node6"><a xlink:href="classFunctionTime.html" target="_top" xlink:title="FunctionTime\&lt; numbers\l::NumberTraits\&lt; RangeNumber\lType \&gt;::real_type \&gt;">
<polygon fill="#ffffff" stroke="#000000" points="289,-2.5 289,-43.5 443,-43.5 443,-2.5 289,-2.5"/>
<text text-anchor="start" x="297" y="-31.5" font-family="Helvetica,sans-Serif" font-size="10.00" fill="#000000">FunctionTime&lt; numbers</text>
<text text-anchor="start" x="297" y="-20.5" font-family="Helvetica,sans-Serif" font-size="10.00" fill="#000000">::NumberTraits&lt; RangeNumber</text>
<text text-anchor="middle" x="366" y="-9.5" font-family="Helvetica,sans-Serif" font-size="10.00" fill="#000000">Type &gt;::real_type &gt;</text>
</a>
</g>
</g>
<!-- Node5&#45;&gt;Node4 -->
<g id="edge5" class="edge">
<title>Node5&#45;&gt;Node4</title>
<path fill="none" stroke="#191970" d="M453.0619,-25.7786C462.0128,-26.0642 471.0482,-26.3526 479.8408,-26.6332"/>
<polygon fill="#191970" stroke="#191970" points="453.1158,-22.2786 443.0092,-25.4577 452.8925,-29.275 453.1158,-22.2786"/>
</g>
<!-- Node6 -->
<g id="node7" class="node">
<title>Node6</title>
<g id="a_node7"><a xlink:href="classFunctionTime.html" target="_top" xlink:title="FunctionTime\&lt; Number \&gt;">
<polygon fill="#ffffff" stroke="#000000" points="0,-13.5 0,-32.5 128,-32.5 128,-13.5 0,-13.5"/>
<text text-anchor="middle" x="64" y="-20.5" font-family="Helvetica,sans-Serif" font-size="10.00" fill="#000000">FunctionTime&lt; Number &gt;</text>
</a>
</g>
</g>
<!-- Node6&#45;&gt;Node5 -->
<g id="edge6" class="edge">
<title>Node6&#45;&gt;Node5</title>
<path fill="none" stroke="#ffa500" stroke-dasharray="5,2" d="M138.2043,-23C183.9934,-23 242.6212,-23 288.9318,-23"/>
<polygon fill="#ffa500" stroke="#ffa500" points="138.0465,-19.5001 128.0464,-23 138.0464,-26.5001 138.0465,-19.5001"/>
<text text-anchor="start" x="146" y="-48" font-family="Helvetica,sans-Serif" font-size="10.00" fill="#000000"> &lt; numbers::NumberTraits</text>
<text text-anchor="start" x="146" y="-37" font-family="Helvetica,sans-Serif" font-size="10.00" fill="#000000">&lt; RangeNumberType &gt;::real</text>
<text text-anchor="middle" x="208.5" y="-26" font-family="Helvetica,sans-Serif" font-size="10.00" fill="#000000">_type &gt;</text>
</g>
<!-- Node10 -->
<g id="node11" class="node">
<title>Node10</title>
<g id="a_node11"><a xlink:href="classFunctions_1_1Kovasznay.html" target="_top" xlink:title="Functions::Kovasznay">
<polygon fill="#ffffff" stroke="#000000" points="1213.5,-38.5 1213.5,-57.5 1327.5,-57.5 1327.5,-38.5 1213.5,-38.5"/>
<text text-anchor="middle" x="1270.5" y="-45.5" font-family="Helvetica,sans-Serif" font-size="10.00" fill="#000000">Functions::Kovasznay</text>
</a>
</g>
</g>
<!-- Node9&#45;&gt;Node10 -->
<g id="edge11" class="edge">
<title>Node9&#45;&gt;Node10</title>
<path fill="none" stroke="#191970" d="M1170.0634,-37.6288C1184.6704,-39.1372 1199.5635,-40.675 1213.253,-42.0886"/>
<polygon fill="#191970" stroke="#191970" points="1170.3216,-34.137 1160.0149,-36.5912 1169.6025,-41.0999 1170.3216,-34.137"/>
</g>
<!-- Node11 -->
<g id="node12" class="node">
<title>Node11</title>
<g id="a_node12"><a xlink:href="classFunctions_1_1StokesLSingularity.html" target="_top" xlink:title="Functions::StokesLSingularity">
<polygon fill="#ffffff" stroke="#000000" points="1197,-.5 1197,-19.5 1344,-19.5 1344,-.5 1197,-.5"/>
<text text-anchor="middle" x="1270.5" y="-7.5" font-family="Helvetica,sans-Serif" font-size="10.00" fill="#000000">Functions::StokesLSingularity</text>
</a>
</g>
</g>
<!-- Node9&#45;&gt;Node11 -->
<g id="edge12" class="edge">
<title>Node9&#45;&gt;Node11</title>
<path fill="none" stroke="#191970" d="M1170.0325,-20.3744C1178.9617,-19.4523 1187.9981,-18.5192 1196.8015,-17.6102"/>
<polygon fill="#191970" stroke="#191970" points="1169.6025,-16.9001 1160.0149,-21.4088 1170.3216,-23.863 1169.6025,-16.9001"/>
</g>
</g>
</svg>
