<?xml version="1.0" encoding="UTF-8" standalone="no"?>
<!DOCTYPE svg PUBLIC "-//W3C//DTD SVG 1.1//EN"
 "http://www.w3.org/Graphics/SVG/1.1/DTD/svg11.dtd">
<!-- Generated by graphviz version 2.40.1 (20161225.0304)
 -->
<!-- Title: internal::DoFHandlerImplementation::Policy::Sequential&lt; dim, spacedim &gt; Pages: 1 -->
<svg width="213pt" height="106pt"
 viewBox="0.00 0.00 213.00 106.00" xmlns="http://www.w3.org/2000/svg" xmlns:xlink="http://www.w3.org/1999/xlink">
<g id="graph0" class="graph" transform="scale(1 1) rotate(0) translate(4 102)">
<title>internal::DoFHandlerImplementation::Policy::Sequential&lt; dim, spacedim &gt;</title>
<polygon fill="#ffffff" stroke="transparent" points="-4,4 -4,-102 209,-102 209,4 -4,4"/>
<!-- Node0 -->
<g id="node1" class="node">
<title>Node0</title>
<polygon fill="#bfbfbf" stroke="#000000" points="1,-.5 1,-30.5 204,-30.5 204,-.5 1,-.5"/>
<text text-anchor="start" x="9" y="-18.5" font-family="Helvetica,sans-Serif" font-size="10.00" fill="#000000">internal::DoFHandlerImplementation</text>
<text text-anchor="middle" x="102.5" y="-7.5" font-family="Helvetica,sans-Serif" font-size="10.00" fill="#000000">::Policy::Sequential&lt; dim, spacedim &gt;</text>
</g>
<!-- Node1 -->
<g id="node2" class="node">
<title>Node1</title>
<g id="a_node2"><a xlink:href="classinternal_1_1DoFHandlerImplementation_1_1Policy_1_1PolicyBase.html" target="_top" xlink:title="internal::DoFHandlerImplementation\l::Policy::PolicyBase\&lt; dim, spacedim \&gt;">
<polygon fill="#ffffff" stroke="#000000" points="0,-67.5 0,-97.5 205,-97.5 205,-67.5 0,-67.5"/>
<text text-anchor="start" x="8" y="-85.5" font-family="Helvetica,sans-Serif" font-size="10.00" fill="#000000">internal::DoFHandlerImplementation</text>
<text text-anchor="middle" x="102.5" y="-74.5" font-family="Helvetica,sans-Serif" font-size="10.00" fill="#000000">::Policy::PolicyBase&lt; dim, spacedim &gt;</text>
</a>
</g>
</g>
<!-- Node1&#45;&gt;Node0 -->
<g id="edge1" class="edge">
<title>Node1&#45;&gt;Node0</title>
<path fill="none" stroke="#191970" d="M102.5,-57.0249C102.5,-48.128 102.5,-38.4287 102.5,-30.6432"/>
<polygon fill="#191970" stroke="#191970" points="99.0001,-57.2966 102.5,-67.2967 106.0001,-57.2967 99.0001,-57.2966"/>
</g>
</g>
</svg>
