<?xml version="1.0" encoding="UTF-8" standalone="no"?>
<!DOCTYPE svg PUBLIC "-//W3C//DTD SVG 1.1//EN"
 "http://www.w3.org/Graphics/SVG/1.1/DTD/svg11.dtd">
<!-- Generated by graphviz version 2.40.1 (20161225.0304)
 -->
<!-- Title: DesignPattern::Flyweight::FlyweightFactory Pages: 1 -->
<svg width="336pt" height="757pt"
 viewBox="0.00 0.00 335.50 757.00" xmlns="http://www.w3.org/2000/svg" xmlns:xlink="http://www.w3.org/1999/xlink">
<g id="graph0" class="graph" transform="scale(1 1) rotate(0) translate(4 753)">
<title>DesignPattern::Flyweight::FlyweightFactory</title>
<polygon fill="#ffffff" stroke="transparent" points="-4,4 -4,-753 331.5,-753 331.5,4 -4,4"/>
<!-- Node1 -->
<g id="node1" class="node">
<title>Node1</title>
<polygon fill="#bfbfbf" stroke="#000000" points="60,-.5 60,-101.5 187,-101.5 187,-.5 60,-.5"/>
<text text-anchor="start" x="68" y="-89.5" font-family="Helvetica,sans-Serif" font-size="10.00" fill="#000000">DesignPattern::Flyweight</text>
<text text-anchor="middle" x="123.5" y="-78.5" font-family="Helvetica,sans-Serif" font-size="10.00" fill="#000000">::FlyweightFactory</text>
<polyline fill="none" stroke="#000000" points="60,-71.5 187,-71.5 "/>
<text text-anchor="middle" x="123.5" y="-59.5" font-family="Helvetica,sans-Serif" font-size="10.00" fill="#000000"> </text>
<polyline fill="none" stroke="#000000" points="60,-52.5 187,-52.5 "/>
<text text-anchor="start" x="68" y="-40.5" font-family="Helvetica,sans-Serif" font-size="10.00" fill="#000000">+ FlyweightFactory()</text>
<text text-anchor="start" x="68" y="-29.5" font-family="Helvetica,sans-Serif" font-size="10.00" fill="#000000">+ GetFlyweight()</text>
<text text-anchor="start" x="68" y="-18.5" font-family="Helvetica,sans-Serif" font-size="10.00" fill="#000000">+ ListFlyweights()</text>
<text text-anchor="start" x="68" y="-7.5" font-family="Helvetica,sans-Serif" font-size="10.00" fill="#000000">&#45; GetKey()</text>
</g>
<!-- Node2 -->
<g id="node2" class="node">
<title>Node2</title>
<polygon fill="#ffffff" stroke="#bfbfbf" points="55,-149.5 55,-228.5 192,-228.5 192,-149.5 55,-149.5"/>
<text text-anchor="start" x="63" y="-216.5" font-family="Helvetica,sans-Serif" font-size="10.00" fill="#000000">std::unordered_map</text>
<text text-anchor="start" x="63" y="-205.5" font-family="Helvetica,sans-Serif" font-size="10.00" fill="#000000">&lt; std::string, DesignPattern</text>
<text text-anchor="middle" x="123.5" y="-194.5" font-family="Helvetica,sans-Serif" font-size="10.00" fill="#000000">::Flyweight::Flyweight &gt;</text>
<polyline fill="none" stroke="#bfbfbf" points="55,-187.5 192,-187.5 "/>
<text text-anchor="middle" x="123.5" y="-175.5" font-family="Helvetica,sans-Serif" font-size="10.00" fill="#000000"> </text>
<polyline fill="none" stroke="#bfbfbf" points="55,-168.5 192,-168.5 "/>
<text text-anchor="middle" x="123.5" y="-156.5" font-family="Helvetica,sans-Serif" font-size="10.00" fill="#000000"> </text>
</g>
<!-- Node2&#45;&gt;Node1 -->
<g id="edge1" class="edge">
<title>Node2&#45;&gt;Node1</title>
<path fill="none" stroke="#404040" d="M123.5,-149.4547C123.5,-138.2844 123.5,-125.8462 123.5,-113.6728"/>
<polygon fill="none" stroke="#404040" points="123.5001,-113.6445 119.5,-107.6446 123.5,-101.6445 127.5,-107.6445 123.5001,-113.6445"/>
<text text-anchor="middle" x="151.5" y="-123" font-family="Helvetica,sans-Serif" font-size="10.00" fill="#000000"> &#45;flyweights_</text>
</g>
<!-- Node3 -->
<g id="node3" class="node">
<title>Node3</title>
<g id="a_node3"><a xlink:title="STL class. ">
<polygon fill="#ffffff" stroke="#bfbfbf" points="17.5,-585.5 17.5,-642.5 77.5,-642.5 77.5,-585.5 17.5,-585.5"/>
<text text-anchor="middle" x="47.5" y="-630.5" font-family="Helvetica,sans-Serif" font-size="10.00" fill="#000000">std::string</text>
<polyline fill="none" stroke="#bfbfbf" points="17.5,-623.5 77.5,-623.5 "/>
<text text-anchor="middle" x="47.5" y="-611.5" font-family="Helvetica,sans-Serif" font-size="10.00" fill="#000000"> </text>
<polyline fill="none" stroke="#bfbfbf" points="17.5,-604.5 77.5,-604.5 "/>
<text text-anchor="middle" x="47.5" y="-592.5" font-family="Helvetica,sans-Serif" font-size="10.00" fill="#000000"> </text>
</a>
</g>
</g>
<!-- Node3&#45;&gt;Node2 -->
<g id="edge2" class="edge">
<title>Node3&#45;&gt;Node2</title>
<path fill="none" stroke="#404040" d="M41.9906,-585.4677C32.0141,-527.4243 15.0908,-392.1919 50.5,-287 56.3292,-269.683 66.4985,-252.9259 77.4279,-238.312"/>
<polygon fill="none" stroke="#404040" points="77.6706,-238.0022 78.2226,-230.8123 85.0719,-228.5565 84.5198,-235.7464 77.6706,-238.0022"/>
<text text-anchor="middle" x="45" y="-421" font-family="Helvetica,sans-Serif" font-size="10.00" fill="#000000"> +keys</text>
</g>
<!-- Node6 -->
<g id="node6" class="node">
<title>Node6</title>
<g id="a_node6"><a xlink:href="structDesignPattern_1_1Flyweight_1_1SharedState.html" target="_top" xlink:title="{DesignPattern::Flyweight\l::SharedState\n||+ SharedState()\l}">
<polygon fill="#ffffff" stroke="#000000" points="60,-447.5 60,-515.5 187,-515.5 187,-447.5 60,-447.5"/>
<text text-anchor="start" x="68" y="-503.5" font-family="Helvetica,sans-Serif" font-size="10.00" fill="#000000">DesignPattern::Flyweight</text>
<text text-anchor="middle" x="123.5" y="-492.5" font-family="Helvetica,sans-Serif" font-size="10.00" fill="#000000">::SharedState</text>
<polyline fill="none" stroke="#000000" points="60,-485.5 187,-485.5 "/>
<text text-anchor="middle" x="123.5" y="-473.5" font-family="Helvetica,sans-Serif" font-size="10.00" fill="#000000"> </text>
<polyline fill="none" stroke="#000000" points="60,-466.5 187,-466.5 "/>
<text text-anchor="start" x="68" y="-454.5" font-family="Helvetica,sans-Serif" font-size="10.00" fill="#000000">+ SharedState()</text>
</a>
</g>
</g>
<!-- Node3&#45;&gt;Node6 -->
<g id="edge6" class="edge">
<title>Node3&#45;&gt;Node6</title>
<path fill="none" stroke="#404040" d="M63.9909,-585.2495C73.8627,-568.0387 86.6223,-545.7933 97.7934,-526.3175"/>
<polygon fill="none" stroke="#404040" points="97.837,-526.2413 97.3526,-519.0465 103.8076,-515.8321 104.2921,-523.0269 97.837,-526.2413"/>
<text text-anchor="middle" x="113" y="-559" font-family="Helvetica,sans-Serif" font-size="10.00" fill="#000000"> +model_</text>
<text text-anchor="middle" x="113" y="-548" font-family="Helvetica,sans-Serif" font-size="10.00" fill="#000000">+brand_</text>
<text text-anchor="middle" x="113" y="-537" font-family="Helvetica,sans-Serif" font-size="10.00" fill="#000000">+color_</text>
</g>
<!-- Node4 -->
<g id="node4" class="node">
<title>Node4</title>
<g id="a_node4"><a xlink:title="STL class. ">
<polygon fill="#ffffff" stroke="#bfbfbf" points="0,-680.5 0,-748.5 95,-748.5 95,-680.5 0,-680.5"/>
<text text-anchor="start" x="8" y="-736.5" font-family="Helvetica,sans-Serif" font-size="10.00" fill="#000000">std::basic_string&lt;</text>
<text text-anchor="middle" x="47.5" y="-725.5" font-family="Helvetica,sans-Serif" font-size="10.00" fill="#000000"> char &gt;</text>
<polyline fill="none" stroke="#bfbfbf" points="0,-718.5 95,-718.5 "/>
<text text-anchor="middle" x="47.5" y="-706.5" font-family="Helvetica,sans-Serif" font-size="10.00" fill="#000000"> </text>
<polyline fill="none" stroke="#bfbfbf" points="0,-699.5 95,-699.5 "/>
<text text-anchor="middle" x="47.5" y="-687.5" font-family="Helvetica,sans-Serif" font-size="10.00" fill="#000000"> </text>
</a>
</g>
</g>
<!-- Node4&#45;&gt;Node3 -->
<g id="edge3" class="edge">
<title>Node4&#45;&gt;Node3</title>
<path fill="none" stroke="#191970" d="M47.5,-670.4301C47.5,-661.0073 47.5,-651.2901 47.5,-642.6312"/>
<polygon fill="none" stroke="#191970" points="44.0001,-670.4752 47.5,-680.4753 51.0001,-670.4753 44.0001,-670.4752"/>
</g>
<!-- Node5 -->
<g id="node5" class="node">
<title>Node5</title>
<g id="a_node5"><a xlink:href="classDesignPattern_1_1Flyweight_1_1Flyweight.html" target="_top" xlink:title="{DesignPattern::Flyweight\l::Flyweight\n||+ Flyweight()\l+ Flyweight()\l+ ~Flyweight()\l+ shared_state()\l+ Operation()\l}">
<polygon fill="#ffffff" stroke="#000000" points="60,-287.5 60,-399.5 187,-399.5 187,-287.5 60,-287.5"/>
<text text-anchor="start" x="68" y="-387.5" font-family="Helvetica,sans-Serif" font-size="10.00" fill="#000000">DesignPattern::Flyweight</text>
<text text-anchor="middle" x="123.5" y="-376.5" font-family="Helvetica,sans-Serif" font-size="10.00" fill="#000000">::Flyweight</text>
<polyline fill="none" stroke="#000000" points="60,-369.5 187,-369.5 "/>
<text text-anchor="middle" x="123.5" y="-357.5" font-family="Helvetica,sans-Serif" font-size="10.00" fill="#000000"> </text>
<polyline fill="none" stroke="#000000" points="60,-350.5 187,-350.5 "/>
<text text-anchor="start" x="68" y="-338.5" font-family="Helvetica,sans-Serif" font-size="10.00" fill="#000000">+ Flyweight()</text>
<text text-anchor="start" x="68" y="-327.5" font-family="Helvetica,sans-Serif" font-size="10.00" fill="#000000">+ Flyweight()</text>
<text text-anchor="start" x="68" y="-316.5" font-family="Helvetica,sans-Serif" font-size="10.00" fill="#000000">+ ~Flyweight()</text>
<text text-anchor="start" x="68" y="-305.5" font-family="Helvetica,sans-Serif" font-size="10.00" fill="#000000">+ shared_state()</text>
<text text-anchor="start" x="68" y="-294.5" font-family="Helvetica,sans-Serif" font-size="10.00" fill="#000000">+ Operation()</text>
</a>
</g>
</g>
<!-- Node5&#45;&gt;Node2 -->
<g id="edge4" class="edge">
<title>Node5&#45;&gt;Node2</title>
<path fill="none" stroke="#404040" d="M123.5,-287.2849C123.5,-272.1859 123.5,-255.9263 123.5,-241.0635"/>
<polygon fill="none" stroke="#404040" points="123.5001,-240.9634 119.5,-234.9634 123.5,-228.9634 127.5,-234.9633 123.5001,-240.9634"/>
<text text-anchor="middle" x="148" y="-255.5" font-family="Helvetica,sans-Serif" font-size="10.00" fill="#000000"> +elements</text>
</g>
<!-- Node6&#45;&gt;Node5 -->
<g id="edge5" class="edge">
<title>Node6&#45;&gt;Node5</title>
<path fill="none" stroke="#404040" d="M123.5,-447.3876C123.5,-436.5526 123.5,-424.1601 123.5,-411.7976"/>
<polygon fill="none" stroke="#404040" points="123.5001,-411.504 119.5,-405.504 123.5,-399.504 127.5,-405.5039 123.5001,-411.504"/>
<text text-anchor="middle" x="157.5" y="-421" font-family="Helvetica,sans-Serif" font-size="10.00" fill="#000000"> &#45;shared_state_</text>
</g>
<!-- Node7 -->
<g id="node7" class="node">
<title>Node7</title>
<g id="a_node7"><a xlink:title="STL class. ">
<polygon fill="#ffffff" stroke="#bfbfbf" points="205,-309.5 205,-377.5 308,-377.5 308,-309.5 205,-309.5"/>
<text text-anchor="start" x="213" y="-365.5" font-family="Helvetica,sans-Serif" font-size="10.00" fill="#000000">std::unordered_map</text>
<text text-anchor="middle" x="256.5" y="-354.5" font-family="Helvetica,sans-Serif" font-size="10.00" fill="#000000">&lt; K, T &gt;</text>
<polyline fill="none" stroke="#bfbfbf" points="205,-347.5 308,-347.5 "/>
<text text-anchor="middle" x="256.5" y="-335.5" font-family="Helvetica,sans-Serif" font-size="10.00" fill="#000000"> </text>
<polyline fill="none" stroke="#bfbfbf" points="205,-328.5 308,-328.5 "/>
<text text-anchor="middle" x="256.5" y="-316.5" font-family="Helvetica,sans-Serif" font-size="10.00" fill="#000000"> </text>
</a>
</g>
</g>
<!-- Node7&#45;&gt;Node2 -->
<g id="edge7" class="edge">
<title>Node7&#45;&gt;Node2</title>
<path fill="none" stroke="#ffa500" d="M222.1103,-301.1223C208.1381,-284.1413 191.7263,-264.4911 176.5,-247 171.3055,-241.0328 165.7442,-234.7923 160.249,-228.7087"/>
<polygon fill="#ffa500" stroke="#ffa500" points="219.7083,-303.7127 228.7575,-309.2229 225.1196,-299.2722 219.7083,-303.7127"/>
<text text-anchor="start" x="194.5" y="-261" font-family="Helvetica,sans-Serif" font-size="10.00" fill="#000000"> &lt; std::string, DesignPattern</text>
<text text-anchor="middle" x="256.5" y="-250" font-family="Helvetica,sans-Serif" font-size="10.00" fill="#000000">::Flyweight::Flyweight &gt;</text>
</g>
<!-- Node8 -->
<g id="node8" class="node">
<title>Node8</title>
<polygon fill="#ffffff" stroke="#bfbfbf" points="223,-453 223,-510 252,-510 252,-453 223,-453"/>
<text text-anchor="middle" x="237.5" y="-498" font-family="Helvetica,sans-Serif" font-size="10.00" fill="#000000">K</text>
<polyline fill="none" stroke="#bfbfbf" points="223,-491 252,-491 "/>
<text text-anchor="middle" x="237.5" y="-479" font-family="Helvetica,sans-Serif" font-size="10.00" fill="#000000"> </text>
<polyline fill="none" stroke="#bfbfbf" points="223,-472 252,-472 "/>
<text text-anchor="middle" x="237.5" y="-460" font-family="Helvetica,sans-Serif" font-size="10.00" fill="#000000"> </text>
</g>
<!-- Node8&#45;&gt;Node7 -->
<g id="edge8" class="edge">
<title>Node8&#45;&gt;Node7</title>
<path fill="none" stroke="#404040" d="M236.6101,-452.9556C236.6183,-441.988 237.0544,-429.3752 238.5,-418 239.6781,-408.7301 241.5643,-398.9397 243.6816,-389.612"/>
<polygon fill="none" stroke="#404040" points="243.7415,-389.3639 241.2614,-382.5927 246.5579,-377.6991 249.038,-384.4703 243.7415,-389.3639"/>
<text text-anchor="middle" x="254" y="-421" font-family="Helvetica,sans-Serif" font-size="10.00" fill="#000000"> +keys</text>
</g>
<!-- Node9 -->
<g id="node9" class="node">
<title>Node9</title>
<polygon fill="#ffffff" stroke="#bfbfbf" points="277,-453 277,-510 306,-510 306,-453 277,-453"/>
<text text-anchor="middle" x="291.5" y="-498" font-family="Helvetica,sans-Serif" font-size="10.00" fill="#000000">T</text>
<polyline fill="none" stroke="#bfbfbf" points="277,-491 306,-491 "/>
<text text-anchor="middle" x="291.5" y="-479" font-family="Helvetica,sans-Serif" font-size="10.00" fill="#000000"> </text>
<polyline fill="none" stroke="#bfbfbf" points="277,-472 306,-472 "/>
<text text-anchor="middle" x="291.5" y="-460" font-family="Helvetica,sans-Serif" font-size="10.00" fill="#000000"> </text>
</g>
<!-- Node9&#45;&gt;Node7 -->
<g id="edge9" class="edge">
<title>Node9&#45;&gt;Node7</title>
<path fill="none" stroke="#404040" d="M284.248,-452.9063C279.6116,-434.6257 273.4934,-410.5027 268.1821,-389.5608"/>
<polygon fill="none" stroke="#404040" points="268.1155,-389.2981 262.7632,-384.4656 265.1654,-377.6664 270.5177,-382.4988 268.1155,-389.2981"/>
<text text-anchor="middle" x="303" y="-421" font-family="Helvetica,sans-Serif" font-size="10.00" fill="#000000"> +elements</text>
</g>
</g>
</svg>
