<?xml version="1.0" encoding="UTF-8" standalone="no"?>
<!DOCTYPE svg PUBLIC "-//W3C//DTD SVG 1.1//EN"
 "http://www.w3.org/Graphics/SVG/1.1/DTD/svg11.dtd">
<!-- Generated by graphviz version 2.40.1 (20161225.0304)
 -->
<!-- Title: RelaxationBlock&lt; MatrixType, InverseNumberType, VectorType &gt; Pages: 1 -->
<svg width="789pt" height="170pt"
 viewBox="0.00 0.00 789.00 170.00" xmlns="http://www.w3.org/2000/svg" xmlns:xlink="http://www.w3.org/1999/xlink">
<g id="graph0" class="graph" transform="scale(1 1) rotate(0) translate(4 166)">
<title>RelaxationBlock&lt; MatrixType, InverseNumberType, VectorType &gt;</title>
<polygon fill="#ffffff" stroke="transparent" points="-4,4 -4,-166 785,-166 785,4 -4,4"/>
<!-- Node0 -->
<g id="node1" class="node">
<title>Node0</title>
<polygon fill="#bfbfbf" stroke="#000000" points="424,-66 424,-96 597,-96 597,-66 424,-66"/>
<text text-anchor="start" x="432" y="-84" font-family="Helvetica,sans-Serif" font-size="10.00" fill="#000000">RelaxationBlock&lt; MatrixType,</text>
<text text-anchor="middle" x="510.5" y="-73" font-family="Helvetica,sans-Serif" font-size="10.00" fill="#000000"> InverseNumberType, VectorType &gt;</text>
</g>
<!-- Node3 -->
<g id="node4" class="node">
<title>Node3</title>
<g id="a_node4"><a xlink:href="classRelaxationBlockJacobi.html" target="_top" xlink:title="RelaxationBlockJacobi\l\&lt; MatrixType, InverseNumber\lType, VectorType \&gt;">
<polygon fill="#ffffff" stroke="#000000" points="634,-120.5 634,-161.5 781,-161.5 781,-120.5 634,-120.5"/>
<text text-anchor="start" x="642" y="-149.5" font-family="Helvetica,sans-Serif" font-size="10.00" fill="#000000">RelaxationBlockJacobi</text>
<text text-anchor="start" x="642" y="-138.5" font-family="Helvetica,sans-Serif" font-size="10.00" fill="#000000">&lt; MatrixType, InverseNumber</text>
<text text-anchor="middle" x="707.5" y="-127.5" font-family="Helvetica,sans-Serif" font-size="10.00" fill="#000000">Type, VectorType &gt;</text>
</a>
</g>
</g>
<!-- Node0&#45;&gt;Node3 -->
<g id="edge3" class="edge">
<title>Node0&#45;&gt;Node3</title>
<path fill="none" stroke="#006400" d="M569.5929,-98.9978C591.8134,-105.7655 617.2378,-113.509 640.1542,-120.4886"/>
<polygon fill="#006400" stroke="#006400" points="570.5431,-95.6286 559.9571,-96.0631 568.5035,-102.3249 570.5431,-95.6286"/>
</g>
<!-- Node4 -->
<g id="node5" class="node">
<title>Node4</title>
<g id="a_node5"><a xlink:href="classRelaxationBlockSOR.html" target="_top" xlink:title="RelaxationBlockSOR\l\&lt; MatrixType, InverseNumber\lType, VectorType \&gt;">
<polygon fill="#ffffff" stroke="#000000" points="634,-60.5 634,-101.5 781,-101.5 781,-60.5 634,-60.5"/>
<text text-anchor="start" x="642" y="-89.5" font-family="Helvetica,sans-Serif" font-size="10.00" fill="#000000">RelaxationBlockSOR</text>
<text text-anchor="start" x="642" y="-78.5" font-family="Helvetica,sans-Serif" font-size="10.00" fill="#000000">&lt; MatrixType, InverseNumber</text>
<text text-anchor="middle" x="707.5" y="-67.5" font-family="Helvetica,sans-Serif" font-size="10.00" fill="#000000">Type, VectorType &gt;</text>
</a>
</g>
</g>
<!-- Node0&#45;&gt;Node4 -->
<g id="edge4" class="edge">
<title>Node0&#45;&gt;Node4</title>
<path fill="none" stroke="#006400" d="M607.2252,-81C616.1312,-81 625.0566,-81 633.7099,-81"/>
<polygon fill="#006400" stroke="#006400" points="607.1938,-77.5001 597.1937,-81 607.1937,-84.5001 607.1938,-77.5001"/>
</g>
<!-- Node5 -->
<g id="node6" class="node">
<title>Node5</title>
<g id="a_node6"><a xlink:href="classRelaxationBlockSSOR.html" target="_top" xlink:title="RelaxationBlockSSOR\l\&lt; MatrixType, InverseNumber\lType, VectorType \&gt;">
<polygon fill="#ffffff" stroke="#000000" points="634,-.5 634,-41.5 781,-41.5 781,-.5 634,-.5"/>
<text text-anchor="start" x="642" y="-29.5" font-family="Helvetica,sans-Serif" font-size="10.00" fill="#000000">RelaxationBlockSSOR</text>
<text text-anchor="start" x="642" y="-18.5" font-family="Helvetica,sans-Serif" font-size="10.00" fill="#000000">&lt; MatrixType, InverseNumber</text>
<text text-anchor="middle" x="707.5" y="-7.5" font-family="Helvetica,sans-Serif" font-size="10.00" fill="#000000">Type, VectorType &gt;</text>
</a>
</g>
</g>
<!-- Node0&#45;&gt;Node5 -->
<g id="edge5" class="edge">
<title>Node0&#45;&gt;Node5</title>
<path fill="none" stroke="#006400" d="M569.5929,-63.0022C591.8134,-56.2345 617.2378,-48.491 640.1542,-41.5114"/>
<polygon fill="#006400" stroke="#006400" points="568.5035,-59.6751 559.9571,-65.9369 570.5431,-66.3714 568.5035,-59.6751"/>
</g>
<!-- Node1 -->
<g id="node2" class="node">
<title>Node1</title>
<g id="a_node2"><a xlink:href="classPreconditionBlockBase.html" target="_top" xlink:title="PreconditionBlockBase\l\&lt; InverseNumberType \&gt;">
<polygon fill="#ffffff" stroke="#000000" points="264,-66 264,-96 387,-96 387,-66 264,-66"/>
<text text-anchor="start" x="272" y="-84" font-family="Helvetica,sans-Serif" font-size="10.00" fill="#000000">PreconditionBlockBase</text>
<text text-anchor="middle" x="325.5" y="-73" font-family="Helvetica,sans-Serif" font-size="10.00" fill="#000000">&lt; InverseNumberType &gt;</text>
</a>
</g>
</g>
<!-- Node1&#45;&gt;Node0 -->
<g id="edge1" class="edge">
<title>Node1&#45;&gt;Node0</title>
<path fill="none" stroke="#006400" d="M397.1944,-81C405.91,-81 414.8855,-81 423.7892,-81"/>
<polygon fill="#006400" stroke="#006400" points="397.1024,-77.5001 387.1023,-81 397.1023,-84.5001 397.1024,-77.5001"/>
</g>
<!-- Node2 -->
<g id="node3" class="node">
<title>Node2</title>
<g id="a_node3"><a xlink:href="classPreconditionBlockBase.html" target="_top" xlink:title="PreconditionBlockBase\l\&lt; number \&gt;">
<polygon fill="#ffffff" stroke="#000000" points="0,-66 0,-96 118,-96 118,-66 0,-66"/>
<text text-anchor="start" x="8" y="-84" font-family="Helvetica,sans-Serif" font-size="10.00" fill="#000000">PreconditionBlockBase</text>
<text text-anchor="middle" x="59" y="-73" font-family="Helvetica,sans-Serif" font-size="10.00" fill="#000000">&lt; number &gt;</text>
</a>
</g>
</g>
<!-- Node2&#45;&gt;Node1 -->
<g id="edge2" class="edge">
<title>Node2&#45;&gt;Node1</title>
<path fill="none" stroke="#ffa500" stroke-dasharray="5,2" d="M128.2793,-81C170.2172,-81 223.2394,-81 263.7421,-81"/>
<polygon fill="#ffa500" stroke="#ffa500" points="128.145,-77.5001 118.145,-81 128.145,-84.5001 128.145,-77.5001"/>
<text text-anchor="middle" x="191" y="-84" font-family="Helvetica,sans-Serif" font-size="10.00" fill="#000000"> &lt; InverseNumberType &gt;</text>
</g>
</g>
</svg>
