<?xml version="1.0" encoding="UTF-8" standalone="no"?>
<!DOCTYPE svg PUBLIC "-//W3C//DTD SVG 1.1//EN"
 "http://www.w3.org/Graphics/SVG/1.1/DTD/svg11.dtd">
<!-- Generated by graphviz version 2.40.1 (20161225.0304)
 -->
<!-- Title: SolverControl::NoConvergence Pages: 1 -->
<svg width="638pt" height="558pt"
 viewBox="0.00 0.00 637.50 558.00" xmlns="http://www.w3.org/2000/svg" xmlns:xlink="http://www.w3.org/1999/xlink">
<g id="graph0" class="graph" transform="scale(1 1) rotate(0) translate(4 554)">
<title>SolverControl::NoConvergence</title>
<polygon fill="#ffffff" stroke="transparent" points="-4,4 -4,-554 633.5,-554 633.5,4 -4,4"/>
<!-- Node3 -->
<g id="node1" class="node">
<title>Node3</title>
<polygon fill="#bfbfbf" stroke="#000000" points="441,-.5 441,-79.5 593,-79.5 593,-.5 441,-.5"/>
<text text-anchor="middle" x="517" y="-67.5" font-family="Helvetica,sans-Serif" font-size="10.00" fill="#000000">SolverControl::NoConvergence</text>
<polyline fill="none" stroke="#000000" points="441,-60.5 593,-60.5 "/>
<text text-anchor="middle" x="517" y="-48.5" font-family="Helvetica,sans-Serif" font-size="10.00" fill="#000000"> </text>
<polyline fill="none" stroke="#000000" points="441,-41.5 593,-41.5 "/>
<text text-anchor="start" x="449" y="-29.5" font-family="Helvetica,sans-Serif" font-size="10.00" fill="#000000">+ NoConvergence()</text>
<text text-anchor="start" x="449" y="-18.5" font-family="Helvetica,sans-Serif" font-size="10.00" fill="#000000">+ ~NoConvergence()</text>
<text text-anchor="start" x="449" y="-7.5" font-family="Helvetica,sans-Serif" font-size="10.00" fill="#000000">+ print_info()</text>
</g>
<!-- Node4 -->
<g id="node2" class="node">
<title>Node4</title>
<g id="a_node2"><a xlink:href="classExceptionBase.html" target="_top" xlink:title="{ExceptionBase\n||+ ExceptionBase()\l+ ExceptionBase()\l+ ~ExceptionBase()\l+ operator=()\l+ set_fields()\l+ what()\l+ get_exc_name()\l+ print_exc_data()\l+ print_info()\l+ print_stack_trace()\l&#45; generate_message()\l}">
<polygon fill="#ffffff" stroke="#000000" points="232.5,-127.5 232.5,-294.5 343.5,-294.5 343.5,-127.5 232.5,-127.5"/>
<text text-anchor="middle" x="288" y="-282.5" font-family="Helvetica,sans-Serif" font-size="10.00" fill="#000000">ExceptionBase</text>
<polyline fill="none" stroke="#000000" points="232.5,-275.5 343.5,-275.5 "/>
<text text-anchor="middle" x="288" y="-263.5" font-family="Helvetica,sans-Serif" font-size="10.00" fill="#000000"> </text>
<polyline fill="none" stroke="#000000" points="232.5,-256.5 343.5,-256.5 "/>
<text text-anchor="start" x="240.5" y="-244.5" font-family="Helvetica,sans-Serif" font-size="10.00" fill="#000000">+ ExceptionBase()</text>
<text text-anchor="start" x="240.5" y="-233.5" font-family="Helvetica,sans-Serif" font-size="10.00" fill="#000000">+ ExceptionBase()</text>
<text text-anchor="start" x="240.5" y="-222.5" font-family="Helvetica,sans-Serif" font-size="10.00" fill="#000000">+ ~ExceptionBase()</text>
<text text-anchor="start" x="240.5" y="-211.5" font-family="Helvetica,sans-Serif" font-size="10.00" fill="#000000">+ operator=()</text>
<text text-anchor="start" x="240.5" y="-200.5" font-family="Helvetica,sans-Serif" font-size="10.00" fill="#000000">+ set_fields()</text>
<text text-anchor="start" x="240.5" y="-189.5" font-family="Helvetica,sans-Serif" font-size="10.00" fill="#000000">+ what()</text>
<text text-anchor="start" x="240.5" y="-178.5" font-family="Helvetica,sans-Serif" font-size="10.00" fill="#000000">+ get_exc_name()</text>
<text text-anchor="start" x="240.5" y="-167.5" font-family="Helvetica,sans-Serif" font-size="10.00" fill="#000000">+ print_exc_data()</text>
<text text-anchor="start" x="240.5" y="-156.5" font-family="Helvetica,sans-Serif" font-size="10.00" fill="#000000">+ print_info()</text>
<text text-anchor="start" x="240.5" y="-145.5" font-family="Helvetica,sans-Serif" font-size="10.00" fill="#000000">+ print_stack_trace()</text>
<text text-anchor="start" x="240.5" y="-134.5" font-family="Helvetica,sans-Serif" font-size="10.00" fill="#000000">&#45; generate_message()</text>
</a>
</g>
</g>
<!-- Node4&#45;&gt;Node3 -->
<g id="edge1" class="edge">
<title>Node4&#45;&gt;Node3</title>
<path fill="none" stroke="#191970" d="M352.0346,-163.1837C387.2541,-136.8845 430.437,-104.6387 463.7858,-79.7363"/>
<polygon fill="none" stroke="#191970" points="349.6453,-160.5997 343.7269,-169.3874 353.8336,-166.2085 349.6453,-160.5997"/>
</g>
<!-- Node5 -->
<g id="node3" class="node">
<title>Node5</title>
<g id="a_node3"><a xlink:title="STL class. ">
<polygon fill="#ffffff" stroke="#bfbfbf" points="0,-386.5 0,-443.5 78,-443.5 78,-386.5 0,-386.5"/>
<text text-anchor="middle" x="39" y="-431.5" font-family="Helvetica,sans-Serif" font-size="10.00" fill="#000000">std::exception</text>
<polyline fill="none" stroke="#bfbfbf" points="0,-424.5 78,-424.5 "/>
<text text-anchor="middle" x="39" y="-412.5" font-family="Helvetica,sans-Serif" font-size="10.00" fill="#000000"> </text>
<polyline fill="none" stroke="#bfbfbf" points="0,-405.5 78,-405.5 "/>
<text text-anchor="middle" x="39" y="-393.5" font-family="Helvetica,sans-Serif" font-size="10.00" fill="#000000"> </text>
</a>
</g>
</g>
<!-- Node5&#45;&gt;Node4 -->
<g id="edge2" class="edge">
<title>Node5&#45;&gt;Node4</title>
<path fill="none" stroke="#191970" d="M61.5882,-377.6138C75.3004,-356.9359 94.1511,-331.7177 115,-313 150.155,-281.4386 196.562,-254.712 232.4608,-236.5443"/>
<polygon fill="none" stroke="#191970" points="58.5458,-375.8724 56.0353,-386.1655 64.4168,-379.6846 58.5458,-375.8724"/>
</g>
<!-- Node6 -->
<g id="node4" class="node">
<title>Node6</title>
<polygon fill="#ffffff" stroke="#bfbfbf" points="96.5,-386.5 96.5,-443.5 131.5,-443.5 131.5,-386.5 96.5,-386.5"/>
<text text-anchor="middle" x="114" y="-431.5" font-family="Helvetica,sans-Serif" font-size="10.00" fill="#000000">void</text>
<polyline fill="none" stroke="#bfbfbf" points="96.5,-424.5 131.5,-424.5 "/>
<text text-anchor="middle" x="114" y="-412.5" font-family="Helvetica,sans-Serif" font-size="10.00" fill="#000000"> </text>
<polyline fill="none" stroke="#bfbfbf" points="96.5,-405.5 131.5,-405.5 "/>
<text text-anchor="middle" x="114" y="-393.5" font-family="Helvetica,sans-Serif" font-size="10.00" fill="#000000"> </text>
</g>
<!-- Node6&#45;&gt;Node4 -->
<g id="edge3" class="edge">
<title>Node6&#45;&gt;Node4</title>
<path fill="none" stroke="#404040" d="M115.5384,-386.3609C117.9321,-364.5742 123.9542,-334.7381 139,-313 159.7361,-283.0407 192.3561,-259.2603 221.7948,-242.2235"/>
<polygon fill="none" stroke="#404040" points="221.9959,-242.1111 225.2797,-235.6911 232.4689,-236.253 229.1851,-242.6731 221.9959,-242.1111"/>
<text text-anchor="middle" x="177" y="-338" font-family="Helvetica,sans-Serif" font-size="10.00" fill="#000000"> #raw_stacktrace</text>
</g>
<!-- Node7 -->
<g id="node5" class="node">
<title>Node7</title>
<polygon fill="#ffffff" stroke="#bfbfbf" points="195.5,-386.5 195.5,-443.5 230.5,-443.5 230.5,-386.5 195.5,-386.5"/>
<text text-anchor="middle" x="213" y="-431.5" font-family="Helvetica,sans-Serif" font-size="10.00" fill="#000000">char</text>
<polyline fill="none" stroke="#bfbfbf" points="195.5,-424.5 230.5,-424.5 "/>
<text text-anchor="middle" x="213" y="-412.5" font-family="Helvetica,sans-Serif" font-size="10.00" fill="#000000"> </text>
<polyline fill="none" stroke="#bfbfbf" points="195.5,-405.5 230.5,-405.5 "/>
<text text-anchor="middle" x="213" y="-393.5" font-family="Helvetica,sans-Serif" font-size="10.00" fill="#000000"> </text>
</g>
<!-- Node7&#45;&gt;Node4 -->
<g id="edge4" class="edge">
<title>Node7&#45;&gt;Node4</title>
<path fill="none" stroke="#404040" d="M215.8847,-386.2224C218.5592,-365.4313 223.4552,-336.9177 232,-313 232.8496,-310.622 233.7497,-308.233 234.6934,-305.8398"/>
<polygon fill="none" stroke="#404040" points="234.7531,-305.6976 233.3897,-298.6165 239.4017,-294.6345 240.7651,-301.7156 234.7531,-305.6976"/>
<text text-anchor="middle" x="258" y="-360" font-family="Helvetica,sans-Serif" font-size="10.00" fill="#000000"> #cond</text>
<text text-anchor="middle" x="258" y="-349" font-family="Helvetica,sans-Serif" font-size="10.00" fill="#000000">#function</text>
<text text-anchor="middle" x="258" y="-338" font-family="Helvetica,sans-Serif" font-size="10.00" fill="#000000">#exc</text>
<text text-anchor="middle" x="258" y="-327" font-family="Helvetica,sans-Serif" font-size="10.00" fill="#000000">#stacktrace</text>
<text text-anchor="middle" x="258" y="-316" font-family="Helvetica,sans-Serif" font-size="10.00" fill="#000000">#file</text>
</g>
<!-- Node8 -->
<g id="node6" class="node">
<title>Node8</title>
<g id="a_node6"><a xlink:href="classint.html" target="_top" xlink:title="{int\n||}">
<polygon fill="#ffffff" stroke="#000000" points="273.5,-386.5 273.5,-443.5 302.5,-443.5 302.5,-386.5 273.5,-386.5"/>
<text text-anchor="middle" x="288" y="-431.5" font-family="Helvetica,sans-Serif" font-size="10.00" fill="#000000">int</text>
<polyline fill="none" stroke="#000000" points="273.5,-424.5 302.5,-424.5 "/>
<text text-anchor="middle" x="288" y="-412.5" font-family="Helvetica,sans-Serif" font-size="10.00" fill="#000000"> </text>
<polyline fill="none" stroke="#000000" points="273.5,-405.5 302.5,-405.5 "/>
<text text-anchor="middle" x="288" y="-393.5" font-family="Helvetica,sans-Serif" font-size="10.00" fill="#000000"> </text>
</a>
</g>
</g>
<!-- Node8&#45;&gt;Node4 -->
<g id="edge5" class="edge">
<title>Node8&#45;&gt;Node4</title>
<path fill="none" stroke="#404040" d="M288,-386.2045C288,-365.3506 288,-335.8682 288,-307.0252"/>
<polygon fill="none" stroke="#404040" points="288.0001,-306.73 284,-300.73 288,-294.73 292,-300.73 288.0001,-306.73"/>
<text text-anchor="middle" x="338" y="-338" font-family="Helvetica,sans-Serif" font-size="10.00" fill="#000000"> #n_stacktrace_frames</text>
</g>
<!-- Node9 -->
<g id="node7" class="node">
<title>Node9</title>
<g id="a_node7"><a xlink:title="STL class. ">
<polygon fill="#ffffff" stroke="#bfbfbf" points="381,-386.5 381,-443.5 441,-443.5 441,-386.5 381,-386.5"/>
<text text-anchor="middle" x="411" y="-431.5" font-family="Helvetica,sans-Serif" font-size="10.00" fill="#000000">std::string</text>
<polyline fill="none" stroke="#bfbfbf" points="381,-424.5 441,-424.5 "/>
<text text-anchor="middle" x="411" y="-412.5" font-family="Helvetica,sans-Serif" font-size="10.00" fill="#000000"> </text>
<polyline fill="none" stroke="#bfbfbf" points="381,-405.5 441,-405.5 "/>
<text text-anchor="middle" x="411" y="-393.5" font-family="Helvetica,sans-Serif" font-size="10.00" fill="#000000"> </text>
</a>
</g>
</g>
<!-- Node9&#45;&gt;Node4 -->
<g id="edge6" class="edge">
<title>Node9&#45;&gt;Node4</title>
<path fill="none" stroke="#404040" d="M409.1371,-386.2379C406.7575,-364.9354 401.3389,-335.7779 389,-313 379.5633,-295.5796 366.2473,-279.1421 352.3715,-264.7571"/>
<polygon fill="none" stroke="#404040" points="352.1747,-264.5602 345.1035,-263.1462 343.6892,-256.0751 350.7603,-257.4892 352.1747,-264.5602"/>
<text text-anchor="middle" x="429" y="-338" font-family="Helvetica,sans-Serif" font-size="10.00" fill="#000000"> &#45;what_str</text>
</g>
<!-- Node10 -->
<g id="node8" class="node">
<title>Node10</title>
<g id="a_node8"><a xlink:title="STL class. ">
<polygon fill="#ffffff" stroke="#bfbfbf" points="363.5,-481.5 363.5,-549.5 458.5,-549.5 458.5,-481.5 363.5,-481.5"/>
<text text-anchor="start" x="371.5" y="-537.5" font-family="Helvetica,sans-Serif" font-size="10.00" fill="#000000">std::basic_string&lt;</text>
<text text-anchor="middle" x="411" y="-526.5" font-family="Helvetica,sans-Serif" font-size="10.00" fill="#000000"> char &gt;</text>
<polyline fill="none" stroke="#bfbfbf" points="363.5,-519.5 458.5,-519.5 "/>
<text text-anchor="middle" x="411" y="-507.5" font-family="Helvetica,sans-Serif" font-size="10.00" fill="#000000"> </text>
<polyline fill="none" stroke="#bfbfbf" points="363.5,-500.5 458.5,-500.5 "/>
<text text-anchor="middle" x="411" y="-488.5" font-family="Helvetica,sans-Serif" font-size="10.00" fill="#000000"> </text>
</a>
</g>
</g>
<!-- Node10&#45;&gt;Node9 -->
<g id="edge7" class="edge">
<title>Node10&#45;&gt;Node9</title>
<path fill="none" stroke="#191970" d="M411,-471.4301C411,-462.0073 411,-452.2901 411,-443.6312"/>
<polygon fill="none" stroke="#191970" points="407.5001,-471.4752 411,-481.4753 414.5001,-471.4753 407.5001,-471.4752"/>
</g>
<!-- Node11 -->
<g id="node9" class="node">
<title>Node11</title>
<polygon fill="#ffffff" stroke="#bfbfbf" points="474,-386.5 474,-443.5 530,-443.5 530,-386.5 474,-386.5"/>
<text text-anchor="middle" x="502" y="-431.5" font-family="Helvetica,sans-Serif" font-size="10.00" fill="#000000">unsigned</text>
<polyline fill="none" stroke="#bfbfbf" points="474,-424.5 530,-424.5 "/>
<text text-anchor="middle" x="502" y="-412.5" font-family="Helvetica,sans-Serif" font-size="10.00" fill="#000000"> </text>
<polyline fill="none" stroke="#bfbfbf" points="474,-405.5 530,-405.5 "/>
<text text-anchor="middle" x="502" y="-393.5" font-family="Helvetica,sans-Serif" font-size="10.00" fill="#000000"> </text>
</g>
<!-- Node11&#45;&gt;Node3 -->
<g id="edge10" class="edge">
<title>Node11&#45;&gt;Node3</title>
<path fill="none" stroke="#404040" d="M503.1521,-386.197C505.6755,-323.1134 511.7202,-171.9955 514.9244,-91.8891"/>
<polygon fill="none" stroke="#404040" points="514.9336,-91.657 511.1767,-85.5019 515.4133,-79.6666 519.1703,-85.8217 514.9336,-91.657"/>
<text text-anchor="middle" x="538.5" y="-208.5" font-family="Helvetica,sans-Serif" font-size="10.00" fill="#000000"> +last_step</text>
</g>
<!-- Node11&#45;&gt;Node4 -->
<g id="edge8" class="edge">
<title>Node11&#45;&gt;Node4</title>
<path fill="none" stroke="#404040" d="M487.6906,-386.2622C484.7669,-380.2513 481.7461,-373.9363 479,-368 467.8025,-343.7941 472.5253,-333.1041 455,-313 427.7228,-281.709 388.4398,-257.0514 354.8257,-239.8235"/>
<polygon fill="none" stroke="#404040" points="354.4105,-239.6167 347.2564,-240.5223 343.6689,-234.2669 350.823,-233.3613 354.4105,-239.6167"/>
<text text-anchor="middle" x="491" y="-338" font-family="Helvetica,sans-Serif" font-size="10.00" fill="#000000"> #line</text>
</g>
<!-- Node12 -->
<g id="node10" class="node">
<title>Node12</title>
<g id="a_node10"><a xlink:href="classdouble.html" target="_top" xlink:title="{double\n||}">
<polygon fill="#ffffff" stroke="#000000" points="584.5,-182.5 584.5,-239.5 629.5,-239.5 629.5,-182.5 584.5,-182.5"/>
<text text-anchor="middle" x="607" y="-227.5" font-family="Helvetica,sans-Serif" font-size="10.00" fill="#000000">double</text>
<polyline fill="none" stroke="#000000" points="584.5,-220.5 629.5,-220.5 "/>
<text text-anchor="middle" x="607" y="-208.5" font-family="Helvetica,sans-Serif" font-size="10.00" fill="#000000"> </text>
<polyline fill="none" stroke="#000000" points="584.5,-201.5 629.5,-201.5 "/>
<text text-anchor="middle" x="607" y="-189.5" font-family="Helvetica,sans-Serif" font-size="10.00" fill="#000000"> </text>
</a>
</g>
</g>
<!-- Node12&#45;&gt;Node3 -->
<g id="edge9" class="edge">
<title>Node12&#45;&gt;Node3</title>
<path fill="none" stroke="#404040" d="M595.4163,-182.1749C588.5431,-165.7546 579.3639,-144.9413 570,-127 563.6075,-114.7519 556.1812,-101.8778 548.9473,-89.9002"/>
<polygon fill="none" stroke="#404040" points="548.9344,-89.8791 542.3907,-86.8492 542.6706,-79.6435 549.2144,-82.6734 548.9344,-89.8791"/>
<text text-anchor="middle" x="591" y="-101" font-family="Helvetica,sans-Serif" font-size="10.00" fill="#000000"> +last_residual</text>
</g>
</g>
</svg>
