<?xml version="1.0" encoding="UTF-8" standalone="no"?>
<!DOCTYPE svg PUBLIC "-//W3C//DTD SVG 1.1//EN"
 "http://www.w3.org/Graphics/SVG/1.1/DTD/svg11.dtd">
<!-- Generated by graphviz version 2.40.1 (20161225.0304)
 -->
<!-- Title: BlockSparseMatrix&lt; number &gt; Pages: 1 -->
<svg width="303pt" height="231pt"
 viewBox="0.00 0.00 302.50 231.00" xmlns="http://www.w3.org/2000/svg" xmlns:xlink="http://www.w3.org/1999/xlink">
<g id="graph0" class="graph" transform="scale(1 1) rotate(0) translate(4 227)">
<title>BlockSparseMatrix&lt; number &gt;</title>
<polygon fill="#ffffff" stroke="transparent" points="-4,4 -4,-227 298.5,-227 298.5,4 -4,4"/>
<!-- Node0 -->
<g id="node1" class="node">
<title>Node0</title>
<polygon fill="#bfbfbf" stroke="#000000" points="28.5,-.5 28.5,-30.5 144.5,-30.5 144.5,-.5 28.5,-.5"/>
<text text-anchor="start" x="36.5" y="-18.5" font-family="Helvetica,sans-Serif" font-size="10.00" fill="#000000">BlockSparseMatrix&lt;</text>
<text text-anchor="middle" x="86.5" y="-7.5" font-family="Helvetica,sans-Serif" font-size="10.00" fill="#000000"> number &gt;</text>
</g>
<!-- Node1 -->
<g id="node2" class="node">
<title>Node1</title>
<g id="a_node2"><a xlink:href="classBlockMatrixBase.html" target="_top" xlink:title="BlockMatrixBase\&lt; SparseMatrix\l\&lt; number \&gt; \&gt;">
<polygon fill="#ffffff" stroke="#000000" points="0,-68.5 0,-98.5 173,-98.5 173,-68.5 0,-68.5"/>
<text text-anchor="start" x="8" y="-86.5" font-family="Helvetica,sans-Serif" font-size="10.00" fill="#000000">BlockMatrixBase&lt; SparseMatrix</text>
<text text-anchor="middle" x="86.5" y="-75.5" font-family="Helvetica,sans-Serif" font-size="10.00" fill="#000000">&lt; number &gt; &gt;</text>
</a>
</g>
</g>
<!-- Node1&#45;&gt;Node0 -->
<g id="edge1" class="edge">
<title>Node1&#45;&gt;Node0</title>
<path fill="none" stroke="#191970" d="M86.5,-58.1174C86.5,-48.8378 86.5,-38.6413 86.5,-30.5492"/>
<polygon fill="#191970" stroke="#191970" points="83.0001,-58.4086 86.5,-68.4086 90.0001,-58.4086 83.0001,-58.4086"/>
</g>
<!-- Node2 -->
<g id="node3" class="node">
<title>Node2</title>
<g id="a_node3"><a xlink:href="classSubscriptor.html" target="_top" xlink:title="Subscriptor">
<polygon fill="#ffffff" stroke="#000000" points="47,-203.5 47,-222.5 118,-222.5 118,-203.5 47,-203.5"/>
<text text-anchor="middle" x="82.5" y="-210.5" font-family="Helvetica,sans-Serif" font-size="10.00" fill="#000000">Subscriptor</text>
</a>
</g>
</g>
<!-- Node2&#45;&gt;Node1 -->
<g id="edge2" class="edge">
<title>Node2&#45;&gt;Node1</title>
<path fill="none" stroke="#191970" d="M83.1141,-193.1183C83.9157,-167.1655 85.3017,-122.2948 86.0268,-98.8199"/>
<polygon fill="#191970" stroke="#191970" points="79.6111,-193.1631 82.8007,-203.2665 86.6078,-193.3793 79.6111,-193.1631"/>
</g>
<!-- Node3 -->
<g id="node4" class="node">
<title>Node3</title>
<g id="a_node4"><a xlink:href="classBlockMatrixBase.html" target="_top" xlink:title="BlockMatrixBase\&lt; MatrixType \&gt;">
<polygon fill="#ffffff" stroke="#000000" points="98.5,-146.5 98.5,-165.5 272.5,-165.5 272.5,-146.5 98.5,-146.5"/>
<text text-anchor="middle" x="185.5" y="-153.5" font-family="Helvetica,sans-Serif" font-size="10.00" fill="#000000">BlockMatrixBase&lt; MatrixType &gt;</text>
</a>
</g>
</g>
<!-- Node2&#45;&gt;Node3 -->
<g id="edge4" class="edge">
<title>Node2&#45;&gt;Node3</title>
<path fill="none" stroke="#191970" d="M108.8715,-198.4061C127.5506,-188.0691 152.0719,-174.4991 168.2855,-165.5265"/>
<polygon fill="#191970" stroke="#191970" points="107.0274,-195.4263 99.9725,-203.3307 110.4168,-201.551 107.0274,-195.4263"/>
</g>
<!-- Node3&#45;&gt;Node1 -->
<g id="edge3" class="edge">
<title>Node3&#45;&gt;Node1</title>
<path fill="none" stroke="#ffa500" stroke-dasharray="5,2" d="M163.9951,-140.2515C147.1473,-127.9134 123.8533,-110.8547 107.2122,-98.668"/>
<polygon fill="#ffa500" stroke="#ffa500" points="162.0125,-143.1377 172.1484,-146.2223 166.1484,-137.4902 162.0125,-143.1377"/>
<text text-anchor="middle" x="219.5" y="-120" font-family="Helvetica,sans-Serif" font-size="10.00" fill="#000000"> &lt; SparseMatrix&lt; number &gt; &gt;</text>
</g>
</g>
</svg>
