<?xml version="1.0" encoding="UTF-8" standalone="no"?>
<!DOCTYPE svg PUBLIC "-//W3C//DTD SVG 1.1//EN"
 "http://www.w3.org/Graphics/SVG/1.1/DTD/svg11.dtd">
<!-- Generated by graphviz version 2.40.1 (20161225.0304)
 -->
<!-- Title: internal::AlignedVectorMoveConstruct&lt; T &gt; Pages: 1 -->
<svg width="379pt" height="226pt"
 viewBox="0.00 0.00 379.00 226.00" xmlns="http://www.w3.org/2000/svg" xmlns:xlink="http://www.w3.org/1999/xlink">
<g id="graph0" class="graph" transform="scale(1 1) rotate(0) translate(4 222)">
<title>internal::AlignedVectorMoveConstruct&lt; T &gt;</title>
<polygon fill="#ffffff" stroke="transparent" points="-4,4 -4,-222 375,-222 375,4 -4,4"/>
<!-- Node2 -->
<g id="node1" class="node">
<title>Node2</title>
<polygon fill="#bfbfbf" stroke="#000000" points="90.5,-.5 90.5,-79.5 249.5,-79.5 249.5,-.5 90.5,-.5"/>
<text text-anchor="start" x="98.5" y="-67.5" font-family="Helvetica,sans-Serif" font-size="10.00" fill="#000000">internal::AlignedVectorMove</text>
<text text-anchor="middle" x="170" y="-56.5" font-family="Helvetica,sans-Serif" font-size="10.00" fill="#000000">Construct&lt; T &gt;</text>
<polyline fill="none" stroke="#000000" points="90.5,-49.5 249.5,-49.5 "/>
<text text-anchor="middle" x="170" y="-37.5" font-family="Helvetica,sans-Serif" font-size="10.00" fill="#000000"> </text>
<polyline fill="none" stroke="#000000" points="90.5,-30.5 249.5,-30.5 "/>
<text text-anchor="start" x="98.5" y="-18.5" font-family="Helvetica,sans-Serif" font-size="10.00" fill="#000000">+ AlignedVectorMoveConstruct()</text>
<text text-anchor="start" x="98.5" y="-7.5" font-family="Helvetica,sans-Serif" font-size="10.00" fill="#000000">+ apply_to_subrange()</text>
</g>
<!-- Node3 -->
<g id="node2" class="node">
<title>Node3</title>
<g id="a_node2"><a xlink:href="structparallel_1_1ParallelForInteger.html" target="_top" xlink:title="{parallel::ParallelForInteger\n||+ ~ParallelForInteger()\l+ apply_parallel()\l+ apply_to_subrange()\l}">
<polygon fill="#ffffff" stroke="#000000" points="0,-138.5 0,-217.5 130,-217.5 130,-138.5 0,-138.5"/>
<text text-anchor="middle" x="65" y="-205.5" font-family="Helvetica,sans-Serif" font-size="10.00" fill="#000000">parallel::ParallelForInteger</text>
<polyline fill="none" stroke="#000000" points="0,-198.5 130,-198.5 "/>
<text text-anchor="middle" x="65" y="-186.5" font-family="Helvetica,sans-Serif" font-size="10.00" fill="#000000"> </text>
<polyline fill="none" stroke="#000000" points="0,-179.5 130,-179.5 "/>
<text text-anchor="start" x="8" y="-167.5" font-family="Helvetica,sans-Serif" font-size="10.00" fill="#000000">+ ~ParallelForInteger()</text>
<text text-anchor="start" x="8" y="-156.5" font-family="Helvetica,sans-Serif" font-size="10.00" fill="#000000">+ apply_parallel()</text>
<text text-anchor="start" x="8" y="-145.5" font-family="Helvetica,sans-Serif" font-size="10.00" fill="#000000">+ apply_to_subrange()</text>
</a>
</g>
</g>
<!-- Node3&#45;&gt;Node2 -->
<g id="edge1" class="edge">
<title>Node3&#45;&gt;Node2</title>
<path fill="none" stroke="#8b1a1a" d="M101.162,-130.4729C113.7924,-113.8728 127.8242,-95.4311 139.9068,-79.551"/>
<polygon fill="none" stroke="#8b1a1a" points="98.3586,-128.3771 95.0888,-138.4547 103.9295,-132.6158 98.3586,-128.3771"/>
</g>
<!-- Node4 -->
<g id="node3" class="node">
<title>Node4</title>
<polygon fill="#ffffff" stroke="#bfbfbf" points="148.5,-149.5 148.5,-206.5 191.5,-206.5 191.5,-149.5 148.5,-149.5"/>
<text text-anchor="middle" x="170" y="-194.5" font-family="Helvetica,sans-Serif" font-size="10.00" fill="#000000">size_t</text>
<polyline fill="none" stroke="#bfbfbf" points="148.5,-187.5 191.5,-187.5 "/>
<text text-anchor="middle" x="170" y="-175.5" font-family="Helvetica,sans-Serif" font-size="10.00" fill="#000000"> </text>
<polyline fill="none" stroke="#bfbfbf" points="148.5,-168.5 191.5,-168.5 "/>
<text text-anchor="middle" x="170" y="-156.5" font-family="Helvetica,sans-Serif" font-size="10.00" fill="#000000"> </text>
</g>
<!-- Node4&#45;&gt;Node2 -->
<g id="edge2" class="edge">
<title>Node4&#45;&gt;Node2</title>
<path fill="none" stroke="#404040" d="M170,-149.4063C170,-132.7484 170,-111.2393 170,-91.7066"/>
<polygon fill="none" stroke="#404040" points="170.0001,-91.5453 166,-85.5453 170,-79.5453 174,-85.5452 170.0001,-91.5453"/>
<text text-anchor="middle" x="236" y="-106.5" font-family="Helvetica,sans-Serif" font-size="10.00" fill="#000000"> &#45;minimum_parallel_grain_size</text>
</g>
<!-- Node5 -->
<g id="node4" class="node">
<title>Node5</title>
<polygon fill="#ffffff" stroke="#bfbfbf" points="298.5,-149.5 298.5,-206.5 351.5,-206.5 351.5,-149.5 298.5,-149.5"/>
<text text-anchor="middle" x="325" y="-194.5" font-family="Helvetica,sans-Serif" font-size="10.00" fill="#000000">T *const</text>
<polyline fill="none" stroke="#bfbfbf" points="298.5,-187.5 351.5,-187.5 "/>
<text text-anchor="middle" x="325" y="-175.5" font-family="Helvetica,sans-Serif" font-size="10.00" fill="#000000"> </text>
<polyline fill="none" stroke="#bfbfbf" points="298.5,-168.5 351.5,-168.5 "/>
<text text-anchor="middle" x="325" y="-156.5" font-family="Helvetica,sans-Serif" font-size="10.00" fill="#000000"> </text>
</g>
<!-- Node5&#45;&gt;Node2 -->
<g id="edge3" class="edge">
<title>Node5&#45;&gt;Node2</title>
<path fill="none" stroke="#404040" d="M323.1694,-149.2226C320.744,-132.5612 315.2624,-112.1524 303,-98 291.5407,-84.7745 276.5069,-74.4558 260.6823,-66.4402"/>
<polygon fill="none" stroke="#404040" points="260.4964,-66.353 253.3651,-67.4228 249.6347,-61.2515 256.7661,-60.1817 260.4964,-66.353"/>
<text text-anchor="middle" x="343" y="-112" font-family="Helvetica,sans-Serif" font-size="10.00" fill="#000000"> &#45;source_</text>
<text text-anchor="middle" x="343" y="-101" font-family="Helvetica,sans-Serif" font-size="10.00" fill="#000000">&#45;destination_</text>
</g>
</g>
</svg>
