<?xml version="1.0" encoding="UTF-8" standalone="no"?>
<!DOCTYPE svg PUBLIC "-//W3C//DTD SVG 1.1//EN"
 "http://www.w3.org/Graphics/SVG/1.1/DTD/svg11.dtd">
<!-- Generated by graphviz version 2.40.1 (20161225.0304)
 -->
<!-- Title: TimeStepping::ImplicitRungeKutta&lt; VectorType &gt; Pages: 1 -->
<svg width="846pt" height="767pt"
 viewBox="0.00 0.00 845.50 767.00" xmlns="http://www.w3.org/2000/svg" xmlns:xlink="http://www.w3.org/1999/xlink">
<g id="graph0" class="graph" transform="scale(1 1) rotate(0) translate(4 763)">
<title>TimeStepping::ImplicitRungeKutta&lt; VectorType &gt;</title>
<polygon fill="#ffffff" stroke="transparent" points="-4,4 -4,-763 841.5,-763 841.5,4 -4,4"/>
<!-- Node3 -->
<g id="node1" class="node">
<title>Node3</title>
<polygon fill="#bfbfbf" stroke="#000000" points="558,-.5 558,-156.5 725,-156.5 725,-.5 558,-.5"/>
<text text-anchor="start" x="566" y="-144.5" font-family="Helvetica,sans-Serif" font-size="10.00" fill="#000000">TimeStepping::ImplicitRunge</text>
<text text-anchor="middle" x="641.5" y="-133.5" font-family="Helvetica,sans-Serif" font-size="10.00" fill="#000000">Kutta&lt; VectorType &gt;</text>
<polyline fill="none" stroke="#000000" points="558,-126.5 725,-126.5 "/>
<text text-anchor="middle" x="641.5" y="-114.5" font-family="Helvetica,sans-Serif" font-size="10.00" fill="#000000"> </text>
<polyline fill="none" stroke="#000000" points="558,-107.5 725,-107.5 "/>
<text text-anchor="start" x="566" y="-95.5" font-family="Helvetica,sans-Serif" font-size="10.00" fill="#000000">+ ImplicitRungeKutta()</text>
<text text-anchor="start" x="566" y="-84.5" font-family="Helvetica,sans-Serif" font-size="10.00" fill="#000000">+ ImplicitRungeKutta()</text>
<text text-anchor="start" x="566" y="-73.5" font-family="Helvetica,sans-Serif" font-size="10.00" fill="#000000">+ initialize()</text>
<text text-anchor="start" x="566" y="-62.5" font-family="Helvetica,sans-Serif" font-size="10.00" fill="#000000">+ evolve_one_time_step()</text>
<text text-anchor="start" x="566" y="-51.5" font-family="Helvetica,sans-Serif" font-size="10.00" fill="#000000">+ set_newton_solver_parameters()</text>
<text text-anchor="start" x="566" y="-40.5" font-family="Helvetica,sans-Serif" font-size="10.00" fill="#000000">+ get_status()</text>
<text text-anchor="start" x="566" y="-29.5" font-family="Helvetica,sans-Serif" font-size="10.00" fill="#000000">&#45; compute_stages()</text>
<text text-anchor="start" x="566" y="-18.5" font-family="Helvetica,sans-Serif" font-size="10.00" fill="#000000">&#45; newton_solve()</text>
<text text-anchor="start" x="566" y="-7.5" font-family="Helvetica,sans-Serif" font-size="10.00" fill="#000000">&#45; compute_residual()</text>
</g>
<!-- Node4 -->
<g id="node2" class="node">
<title>Node4</title>
<g id="a_node2"><a xlink:href="classTimeStepping_1_1RungeKutta.html" target="_top" xlink:title="{TimeStepping::RungeKutta\l\&lt; VectorType \&gt;\n||+ ~RungeKutta()\l+ initialize()\l+ evolve_one_time_step()\l+ evolve_one_time_step()\l}">
<polygon fill="#ffffff" stroke="#000000" points="191.5,-204.5 191.5,-305.5 325.5,-305.5 325.5,-204.5 191.5,-204.5"/>
<text text-anchor="start" x="199.5" y="-293.5" font-family="Helvetica,sans-Serif" font-size="10.00" fill="#000000">TimeStepping::RungeKutta</text>
<text text-anchor="middle" x="258.5" y="-282.5" font-family="Helvetica,sans-Serif" font-size="10.00" fill="#000000">&lt; VectorType &gt;</text>
<polyline fill="none" stroke="#000000" points="191.5,-275.5 325.5,-275.5 "/>
<text text-anchor="middle" x="258.5" y="-263.5" font-family="Helvetica,sans-Serif" font-size="10.00" fill="#000000"> </text>
<polyline fill="none" stroke="#000000" points="191.5,-256.5 325.5,-256.5 "/>
<text text-anchor="start" x="199.5" y="-244.5" font-family="Helvetica,sans-Serif" font-size="10.00" fill="#000000">+ ~RungeKutta()</text>
<text text-anchor="start" x="199.5" y="-233.5" font-family="Helvetica,sans-Serif" font-size="10.00" fill="#000000">+ initialize()</text>
<text text-anchor="start" x="199.5" y="-222.5" font-family="Helvetica,sans-Serif" font-size="10.00" fill="#000000">+ evolve_one_time_step()</text>
<text text-anchor="start" x="199.5" y="-211.5" font-family="Helvetica,sans-Serif" font-size="10.00" fill="#000000">+ evolve_one_time_step()</text>
</a>
</g>
</g>
<!-- Node4&#45;&gt;Node3 -->
<g id="edge1" class="edge">
<title>Node4&#45;&gt;Node3</title>
<path fill="none" stroke="#191970" d="M334.9455,-219.7712C399.3352,-190.0981 491.303,-147.7161 557.6885,-117.1233"/>
<polygon fill="none" stroke="#191970" points="333.2689,-216.69 325.6518,-224.0541 336.1987,-223.0474 333.2689,-216.69"/>
</g>
<!-- Node5 -->
<g id="node3" class="node">
<title>Node5</title>
<g id="a_node3"><a xlink:href="classTimeStepping_1_1TimeStepping.html" target="_top" xlink:title="{TimeStepping::TimeStepping\l\&lt; VectorType \&gt;\n||+ ~TimeStepping()\l+ evolve_one_time_step()\l+ get_status()\l}">
<polygon fill="#ffffff" stroke="#000000" points="188,-353.5 188,-443.5 331,-443.5 331,-353.5 188,-353.5"/>
<text text-anchor="start" x="196" y="-431.5" font-family="Helvetica,sans-Serif" font-size="10.00" fill="#000000">TimeStepping::TimeStepping</text>
<text text-anchor="middle" x="259.5" y="-420.5" font-family="Helvetica,sans-Serif" font-size="10.00" fill="#000000">&lt; VectorType &gt;</text>
<polyline fill="none" stroke="#000000" points="188,-413.5 331,-413.5 "/>
<text text-anchor="middle" x="259.5" y="-401.5" font-family="Helvetica,sans-Serif" font-size="10.00" fill="#000000"> </text>
<polyline fill="none" stroke="#000000" points="188,-394.5 331,-394.5 "/>
<text text-anchor="start" x="196" y="-382.5" font-family="Helvetica,sans-Serif" font-size="10.00" fill="#000000">+ ~TimeStepping()</text>
<text text-anchor="start" x="196" y="-371.5" font-family="Helvetica,sans-Serif" font-size="10.00" fill="#000000">+ evolve_one_time_step()</text>
<text text-anchor="start" x="196" y="-360.5" font-family="Helvetica,sans-Serif" font-size="10.00" fill="#000000">+ get_status()</text>
</a>
</g>
</g>
<!-- Node5&#45;&gt;Node4 -->
<g id="edge2" class="edge">
<title>Node5&#45;&gt;Node4</title>
<path fill="none" stroke="#191970" d="M259.1152,-343.2769C259.0288,-330.8828 258.9376,-317.7929 258.8526,-305.5983"/>
<polygon fill="none" stroke="#191970" points="255.6166,-343.5141 259.1863,-353.4894 262.6165,-343.4652 255.6166,-343.5141"/>
</g>
<!-- Node6 -->
<g id="node4" class="node">
<title>Node6</title>
<polygon fill="#ffffff" stroke="#bfbfbf" points="0,-364.5 0,-432.5 119,-432.5 119,-364.5 0,-364.5"/>
<text text-anchor="start" x="8" y="-420.5" font-family="Helvetica,sans-Serif" font-size="10.00" fill="#000000">std::vector&lt; std::vector</text>
<text text-anchor="middle" x="59.5" y="-409.5" font-family="Helvetica,sans-Serif" font-size="10.00" fill="#000000">&lt; double &gt; &gt;</text>
<polyline fill="none" stroke="#bfbfbf" points="0,-402.5 119,-402.5 "/>
<text text-anchor="middle" x="59.5" y="-390.5" font-family="Helvetica,sans-Serif" font-size="10.00" fill="#000000"> </text>
<polyline fill="none" stroke="#bfbfbf" points="0,-383.5 119,-383.5 "/>
<text text-anchor="middle" x="59.5" y="-371.5" font-family="Helvetica,sans-Serif" font-size="10.00" fill="#000000"> </text>
</g>
<!-- Node6&#45;&gt;Node4 -->
<g id="edge3" class="edge">
<title>Node6&#45;&gt;Node4</title>
<path fill="none" stroke="#404040" d="M86.3984,-364.1857C98.0938,-350.6303 112.5347,-335.5641 127.5,-324 143.7378,-311.4526 162.5877,-300.0209 180.8413,-290.2291"/>
<polygon fill="none" stroke="#404040" points="180.8619,-290.2184 184.3251,-283.8933 191.4956,-284.6574 188.0324,-290.9825 180.8619,-290.2184"/>
<text text-anchor="middle" x="134.5" y="-327" font-family="Helvetica,sans-Serif" font-size="10.00" fill="#000000"> #a</text>
</g>
<!-- Node7 -->
<g id="node5" class="node">
<title>Node7</title>
<polygon fill="#ffffff" stroke="#bfbfbf" points="130.5,-491.5 130.5,-548.5 240.5,-548.5 240.5,-491.5 130.5,-491.5"/>
<text text-anchor="middle" x="185.5" y="-536.5" font-family="Helvetica,sans-Serif" font-size="10.00" fill="#000000">std::vector&lt; double &gt;</text>
<polyline fill="none" stroke="#bfbfbf" points="130.5,-529.5 240.5,-529.5 "/>
<text text-anchor="middle" x="185.5" y="-517.5" font-family="Helvetica,sans-Serif" font-size="10.00" fill="#000000"> </text>
<polyline fill="none" stroke="#bfbfbf" points="130.5,-510.5 240.5,-510.5 "/>
<text text-anchor="middle" x="185.5" y="-498.5" font-family="Helvetica,sans-Serif" font-size="10.00" fill="#000000"> </text>
</g>
<!-- Node7&#45;&gt;Node4 -->
<g id="edge10" class="edge">
<title>Node7&#45;&gt;Node4</title>
<path fill="none" stroke="#404040" d="M173.599,-491.4255C161.2199,-457.2664 146.0232,-398.9549 164.5,-353 170.0169,-339.2786 178.4743,-326.3974 188.0998,-314.7685"/>
<polygon fill="none" stroke="#404040" points="188.1239,-314.7411 189.0725,-307.5926 196.0359,-305.7188 195.0873,-312.8673 188.1239,-314.7411"/>
<text text-anchor="middle" x="171.5" y="-401.5" font-family="Helvetica,sans-Serif" font-size="10.00" fill="#000000"> #b</text>
<text text-anchor="middle" x="171.5" y="-390.5" font-family="Helvetica,sans-Serif" font-size="10.00" fill="#000000">#c</text>
</g>
<!-- Node7&#45;&gt;Node6 -->
<g id="edge4" class="edge">
<title>Node7&#45;&gt;Node6</title>
<path fill="none" stroke="#404040" d="M130.428,-495.9747C113.9745,-487.9909 98.6686,-479.4913 92.5,-473 84.6281,-464.7164 78.4383,-454.2424 73.6528,-443.7852"/>
<polygon fill="none" stroke="#404040" points="73.5908,-443.6355 67.599,-439.6232 68.9981,-432.5491 74.9899,-436.5614 73.5908,-443.6355"/>
<text text-anchor="middle" x="117" y="-465" font-family="Helvetica,sans-Serif" font-size="10.00" fill="#000000"> +elements</text>
</g>
<!-- Node8 -->
<g id="node6" class="node">
<title>Node8</title>
<g id="a_node6"><a xlink:href="classdouble.html" target="_top" xlink:title="{double\n||}">
<polygon fill="#ffffff" stroke="#000000" points="400,-596.5 400,-653.5 445,-653.5 445,-596.5 400,-596.5"/>
<text text-anchor="middle" x="422.5" y="-641.5" font-family="Helvetica,sans-Serif" font-size="10.00" fill="#000000">double</text>
<polyline fill="none" stroke="#000000" points="400,-634.5 445,-634.5 "/>
<text text-anchor="middle" x="422.5" y="-622.5" font-family="Helvetica,sans-Serif" font-size="10.00" fill="#000000"> </text>
<polyline fill="none" stroke="#000000" points="400,-615.5 445,-615.5 "/>
<text text-anchor="middle" x="422.5" y="-603.5" font-family="Helvetica,sans-Serif" font-size="10.00" fill="#000000"> </text>
</a>
</g>
</g>
<!-- Node8&#45;&gt;Node3 -->
<g id="edge11" class="edge">
<title>Node8&#45;&gt;Node3</title>
<path fill="none" stroke="#404040" d="M445.251,-622.77C520.0333,-614.8195 753.5,-584.8089 753.5,-520 753.5,-520 753.5,-520 753.5,-255 753.5,-218.0042 748.6402,-207.2432 730.5,-175 728.9049,-172.1649 727.2111,-169.3459 725.4344,-166.5501"/>
<polygon fill="none" stroke="#404040" points="725.3885,-166.4822 718.7143,-163.7519 718.6676,-156.5409 725.3419,-159.2713 725.3885,-166.4822"/>
<text text-anchor="middle" x="776.5" y="-396" font-family="Helvetica,sans-Serif" font-size="10.00" fill="#000000"> &#45;tolerance</text>
</g>
<!-- Node8&#45;&gt;Node7 -->
<g id="edge5" class="edge">
<title>Node8&#45;&gt;Node7</title>
<path fill="none" stroke="#404040" d="M399.7754,-614.9322C366.0251,-599.9795 301.3153,-571.3106 251.8011,-549.3739"/>
<polygon fill="none" stroke="#404040" points="251.5003,-549.2407 244.3943,-550.4675 240.5289,-544.3799 247.6349,-543.1531 251.5003,-549.2407"/>
<text text-anchor="middle" x="336" y="-570" font-family="Helvetica,sans-Serif" font-size="10.00" fill="#000000"> +elements</text>
</g>
<!-- Node13 -->
<g id="node11" class="node">
<title>Node13</title>
<g id="a_node11"><a xlink:href="structTimeStepping_1_1ImplicitRungeKutta_1_1Status.html" target="_top" xlink:title="{TimeStepping::ImplicitRunge\lKutta\&lt; VectorType \&gt;::Status\n||+ Status()\l}">
<polygon fill="#ffffff" stroke="#000000" points="451,-221 451,-289 594,-289 594,-221 451,-221"/>
<text text-anchor="start" x="459" y="-277" font-family="Helvetica,sans-Serif" font-size="10.00" fill="#000000">TimeStepping::ImplicitRunge</text>
<text text-anchor="middle" x="522.5" y="-266" font-family="Helvetica,sans-Serif" font-size="10.00" fill="#000000">Kutta&lt; VectorType &gt;::Status</text>
<polyline fill="none" stroke="#000000" points="451,-259 594,-259 "/>
<text text-anchor="middle" x="522.5" y="-247" font-family="Helvetica,sans-Serif" font-size="10.00" fill="#000000"> </text>
<polyline fill="none" stroke="#000000" points="451,-240 594,-240 "/>
<text text-anchor="start" x="459" y="-228" font-family="Helvetica,sans-Serif" font-size="10.00" fill="#000000">+ Status()</text>
</a>
</g>
</g>
<!-- Node8&#45;&gt;Node13 -->
<g id="edge15" class="edge">
<title>Node8&#45;&gt;Node13</title>
<path fill="none" stroke="#404040" d="M418.9408,-596.3356C413.7929,-545.3173 408.2082,-436.2976 441.5,-353 449.5122,-332.9532 463.2252,-313.9199 477.1135,-298.0517"/>
<polygon fill="none" stroke="#404040" points="477.192,-297.9654 478.2724,-290.8357 485.2693,-289.0908 484.1889,-296.2205 477.192,-297.9654"/>
<text text-anchor="middle" x="452.5" y="-465" font-family="Helvetica,sans-Serif" font-size="10.00" fill="#000000"> +norm_residual</text>
</g>
<!-- Node9 -->
<g id="node7" class="node">
<title>Node9</title>
<g id="a_node7"><a xlink:title="STL class. ">
<polygon fill="#ffffff" stroke="#bfbfbf" points="1,-596.5 1,-653.5 88,-653.5 88,-596.5 1,-596.5"/>
<text text-anchor="middle" x="44.5" y="-641.5" font-family="Helvetica,sans-Serif" font-size="10.00" fill="#000000">std::vector&lt; T &gt;</text>
<polyline fill="none" stroke="#bfbfbf" points="1,-634.5 88,-634.5 "/>
<text text-anchor="middle" x="44.5" y="-622.5" font-family="Helvetica,sans-Serif" font-size="10.00" fill="#000000"> </text>
<polyline fill="none" stroke="#bfbfbf" points="1,-615.5 88,-615.5 "/>
<text text-anchor="middle" x="44.5" y="-603.5" font-family="Helvetica,sans-Serif" font-size="10.00" fill="#000000"> </text>
</a>
</g>
</g>
<!-- Node9&#45;&gt;Node6 -->
<g id="edge8" class="edge">
<title>Node9&#45;&gt;Node6</title>
<path fill="none" stroke="#ffa500" d="M21.2835,-587.1643C15.2451,-575.3691 9.5755,-562.028 6.5,-549 .5775,-523.9118 -.1308,-515.9104 6.5,-491 12.0226,-470.2528 23.4225,-449.3154 34.2394,-432.6201"/>
<polygon fill="#ffa500" stroke="#ffa500" points="18.3502,-589.1004 26.1626,-596.257 24.5183,-585.7905 18.3502,-589.1004"/>
<text text-anchor="middle" x="64" y="-517.5" font-family="Helvetica,sans-Serif" font-size="10.00" fill="#000000"> &lt; std::vector&lt; double &gt; &gt;</text>
</g>
<!-- Node9&#45;&gt;Node7 -->
<g id="edge6" class="edge">
<title>Node9&#45;&gt;Node7</title>
<path fill="none" stroke="#ffa500" d="M91.1638,-590.2504C109.2775,-576.7615 129.7706,-561.5006 147.0177,-548.657"/>
<polygon fill="#ffa500" stroke="#ffa500" points="88.9589,-587.5284 83.0289,-596.3083 93.1398,-593.1427 88.9589,-587.5284"/>
<text text-anchor="middle" x="144.5" y="-570" font-family="Helvetica,sans-Serif" font-size="10.00" fill="#000000"> &lt; double &gt;</text>
</g>
<!-- Node10 -->
<g id="node8" class="node">
<title>Node10</title>
<polygon fill="#ffffff" stroke="#bfbfbf" points="30,-701.5 30,-758.5 59,-758.5 59,-701.5 30,-701.5"/>
<text text-anchor="middle" x="44.5" y="-746.5" font-family="Helvetica,sans-Serif" font-size="10.00" fill="#000000">T</text>
<polyline fill="none" stroke="#bfbfbf" points="30,-739.5 59,-739.5 "/>
<text text-anchor="middle" x="44.5" y="-727.5" font-family="Helvetica,sans-Serif" font-size="10.00" fill="#000000"> </text>
<polyline fill="none" stroke="#bfbfbf" points="30,-720.5 59,-720.5 "/>
<text text-anchor="middle" x="44.5" y="-708.5" font-family="Helvetica,sans-Serif" font-size="10.00" fill="#000000"> </text>
</g>
<!-- Node10&#45;&gt;Node9 -->
<g id="edge7" class="edge">
<title>Node10&#45;&gt;Node9</title>
<path fill="none" stroke="#404040" d="M44.5,-701.3083C44.5,-690.4281 44.5,-677.817 44.5,-666.0192"/>
<polygon fill="none" stroke="#404040" points="44.5001,-665.657 40.5,-659.6571 44.5,-653.657 48.5,-659.657 44.5001,-665.657"/>
<text text-anchor="middle" x="69" y="-675" font-family="Helvetica,sans-Serif" font-size="10.00" fill="#000000"> +elements</text>
</g>
<!-- Node11 -->
<g id="node9" class="node">
<title>Node11</title>
<g id="a_node9"><a xlink:href="classint.html" target="_top" xlink:title="{int\n||}">
<polygon fill="#ffffff" stroke="#000000" points="349,-370 349,-427 378,-427 378,-370 349,-370"/>
<text text-anchor="middle" x="363.5" y="-415" font-family="Helvetica,sans-Serif" font-size="10.00" fill="#000000">int</text>
<polyline fill="none" stroke="#000000" points="349,-408 378,-408 "/>
<text text-anchor="middle" x="363.5" y="-396" font-family="Helvetica,sans-Serif" font-size="10.00" fill="#000000"> </text>
<polyline fill="none" stroke="#000000" points="349,-389 378,-389 "/>
<text text-anchor="middle" x="363.5" y="-377" font-family="Helvetica,sans-Serif" font-size="10.00" fill="#000000"> </text>
</a>
</g>
</g>
<!-- Node11&#45;&gt;Node4 -->
<g id="edge9" class="edge">
<title>Node11&#45;&gt;Node4</title>
<path fill="none" stroke="#404040" d="M352.3849,-369.8023C348.9752,-363.6521 344.7114,-357.6225 339.5,-353 322.7659,-338.157 308.5999,-350.5286 292.5,-335 287.0113,-329.706 282.3646,-323.385 278.4415,-316.6487"/>
<polygon fill="none" stroke="#404040" points="278.3525,-316.4759 272.0483,-312.975 272.8552,-305.8092 279.1594,-309.3101 278.3525,-316.4759"/>
<text text-anchor="middle" x="317" y="-327" font-family="Helvetica,sans-Serif" font-size="10.00" fill="#000000"> #n_stages</text>
</g>
<!-- Node11&#45;&gt;Node13 -->
<g id="edge16" class="edge">
<title>Node11&#45;&gt;Node13</title>
<path fill="none" stroke="#404040" d="M356.9019,-369.8005C355.1233,-354.9698 355.698,-337.2537 364.5,-324 381.6011,-298.2499 410.617,-282.0465 439.1518,-271.8779"/>
<polygon fill="none" stroke="#404040" points="439.4897,-271.7665 443.9357,-266.089 450.8864,-268.0093 446.4405,-273.6868 439.4897,-271.7665"/>
<text text-anchor="middle" x="394.5" y="-327" font-family="Helvetica,sans-Serif" font-size="10.00" fill="#000000"> +n_iterations</text>
</g>
<!-- Node12 -->
<g id="node10" class="node">
<title>Node12</title>
<g id="a_node10"><a xlink:href="classbool.html" target="_top" xlink:title="{bool\n||}">
<polygon fill="#ffffff" stroke="#000000" points="624,-226.5 624,-283.5 659,-283.5 659,-226.5 624,-226.5"/>
<text text-anchor="middle" x="641.5" y="-271.5" font-family="Helvetica,sans-Serif" font-size="10.00" fill="#000000">bool</text>
<polyline fill="none" stroke="#000000" points="624,-264.5 659,-264.5 "/>
<text text-anchor="middle" x="641.5" y="-252.5" font-family="Helvetica,sans-Serif" font-size="10.00" fill="#000000"> </text>
<polyline fill="none" stroke="#000000" points="624,-245.5 659,-245.5 "/>
<text text-anchor="middle" x="641.5" y="-233.5" font-family="Helvetica,sans-Serif" font-size="10.00" fill="#000000"> </text>
</a>
</g>
</g>
<!-- Node12&#45;&gt;Node3 -->
<g id="edge12" class="edge">
<title>Node12&#45;&gt;Node3</title>
<path fill="none" stroke="#404040" d="M641.5,-226.2494C641.5,-210.4081 641.5,-189.7789 641.5,-168.9843"/>
<polygon fill="none" stroke="#404040" points="641.5001,-168.7565 637.5,-162.7566 641.5,-156.7565 645.5,-162.7565 641.5001,-168.7565"/>
<text text-anchor="middle" x="684" y="-178" font-family="Helvetica,sans-Serif" font-size="10.00" fill="#000000"> &#45;skip_linear_combi</text>
</g>
<!-- Node13&#45;&gt;Node3 -->
<g id="edge13" class="edge">
<title>Node13&#45;&gt;Node3</title>
<path fill="none" stroke="#404040" d="M545.4444,-220.969C555.9694,-205.3584 568.986,-186.0522 582.0025,-166.7463"/>
<polygon fill="none" stroke="#404040" points="582.0876,-166.62 582.1252,-159.409 588.796,-156.6702 588.7584,-163.8812 582.0876,-166.62"/>
<text text-anchor="middle" x="592.5" y="-178" font-family="Helvetica,sans-Serif" font-size="10.00" fill="#000000"> &#45;status</text>
</g>
<!-- Node14 -->
<g id="node12" class="node">
<title>Node14</title>
<g id="a_node12"><a xlink:href="structTimeStepping_1_1TimeStepping_1_1Status.html" target="_top" xlink:title="{TimeStepping::TimeStepping\l\&lt; VectorType \&gt;::Status\n||}">
<polygon fill="#ffffff" stroke="#000000" points="451,-364.5 451,-432.5 594,-432.5 594,-364.5 451,-364.5"/>
<text text-anchor="start" x="459" y="-420.5" font-family="Helvetica,sans-Serif" font-size="10.00" fill="#000000">TimeStepping::TimeStepping</text>
<text text-anchor="middle" x="522.5" y="-409.5" font-family="Helvetica,sans-Serif" font-size="10.00" fill="#000000">&lt; VectorType &gt;::Status</text>
<polyline fill="none" stroke="#000000" points="451,-402.5 594,-402.5 "/>
<text text-anchor="middle" x="522.5" y="-390.5" font-family="Helvetica,sans-Serif" font-size="10.00" fill="#000000"> </text>
<polyline fill="none" stroke="#000000" points="451,-383.5 594,-383.5 "/>
<text text-anchor="middle" x="522.5" y="-371.5" font-family="Helvetica,sans-Serif" font-size="10.00" fill="#000000"> </text>
</a>
</g>
</g>
<!-- Node14&#45;&gt;Node13 -->
<g id="edge14" class="edge">
<title>Node14&#45;&gt;Node13</title>
<path fill="none" stroke="#191970" d="M522.5,-354.2464C522.5,-333.3266 522.5,-308.7324 522.5,-289.2607"/>
<polygon fill="none" stroke="#191970" points="519.0001,-354.4925 522.5,-364.4925 526.0001,-354.4925 519.0001,-354.4925"/>
</g>
<!-- Node15 -->
<g id="node13" class="node">
<title>Node15</title>
<polygon fill="#ffffff" stroke="#bfbfbf" points="612,-370 612,-427 717,-427 717,-370 612,-370"/>
<text text-anchor="middle" x="664.5" y="-415" font-family="Helvetica,sans-Serif" font-size="10.00" fill="#000000">runge_kutta_method</text>
<polyline fill="none" stroke="#bfbfbf" points="612,-408 717,-408 "/>
<text text-anchor="middle" x="664.5" y="-396" font-family="Helvetica,sans-Serif" font-size="10.00" fill="#000000"> </text>
<polyline fill="none" stroke="#bfbfbf" points="612,-389 717,-389 "/>
<text text-anchor="middle" x="664.5" y="-377" font-family="Helvetica,sans-Serif" font-size="10.00" fill="#000000"> </text>
</g>
<!-- Node15&#45;&gt;Node13 -->
<g id="edge17" class="edge">
<title>Node15&#45;&gt;Node13</title>
<path fill="none" stroke="#404040" d="M636.1055,-369.8055C615.7235,-349.2083 587.9081,-321.0991 564.9024,-297.8503"/>
<polygon fill="none" stroke="#404040" points="564.7868,-297.7335 557.7233,-296.2822 556.3462,-289.2037 563.4098,-290.6551 564.7868,-297.7335"/>
<text text-anchor="middle" x="618.5" y="-327" font-family="Helvetica,sans-Serif" font-size="10.00" fill="#000000"> +method</text>
</g>
<!-- Node16 -->
<g id="node14" class="node">
<title>Node16</title>
<polygon fill="#ffffff" stroke="#bfbfbf" points="781.5,-226.5 781.5,-283.5 837.5,-283.5 837.5,-226.5 781.5,-226.5"/>
<text text-anchor="middle" x="809.5" y="-271.5" font-family="Helvetica,sans-Serif" font-size="10.00" fill="#000000">unsigned</text>
<polyline fill="none" stroke="#bfbfbf" points="781.5,-264.5 837.5,-264.5 "/>
<text text-anchor="middle" x="809.5" y="-252.5" font-family="Helvetica,sans-Serif" font-size="10.00" fill="#000000"> </text>
<polyline fill="none" stroke="#bfbfbf" points="781.5,-245.5 837.5,-245.5 "/>
<text text-anchor="middle" x="809.5" y="-233.5" font-family="Helvetica,sans-Serif" font-size="10.00" fill="#000000"> </text>
</g>
<!-- Node16&#45;&gt;Node3 -->
<g id="edge18" class="edge">
<title>Node16&#45;&gt;Node3</title>
<path fill="none" stroke="#404040" d="M798.0343,-226.1352C790.776,-210.0407 780.3391,-190.2329 767.5,-175 757.6655,-163.3318 746.189,-152.1958 734.2413,-141.9077"/>
<polygon fill="none" stroke="#404040" points="734.2398,-141.9065 727.0709,-141.1279 725.0323,-134.2109 732.2013,-134.9895 734.2398,-141.9065"/>
<text text-anchor="middle" x="792.5" y="-178" font-family="Helvetica,sans-Serif" font-size="10.00" fill="#000000"> &#45;max_it</text>
</g>
</g>
</svg>
