<?xml version="1.0" encoding="UTF-8" standalone="no"?>
<!DOCTYPE svg PUBLIC "-//W3C//DTD SVG 1.1//EN"
 "http://www.w3.org/Graphics/SVG/1.1/DTD/svg11.dtd">
<!-- Generated by graphviz version 2.40.1 (20161225.0304)
 -->
<!-- Title: TriaAccessor&lt; structdim, dim, spacedim &gt; Pages: 1 -->
<svg width="190pt" height="253pt"
 viewBox="0.00 0.00 189.50 253.00" xmlns="http://www.w3.org/2000/svg" xmlns:xlink="http://www.w3.org/1999/xlink">
<g id="graph0" class="graph" transform="scale(1 1) rotate(0) translate(4 249)">
<title>TriaAccessor&lt; structdim, dim, spacedim &gt;</title>
<polygon fill="#ffffff" stroke="transparent" points="-4,4 -4,-249 185.5,-249 185.5,4 -4,4"/>
<!-- Node0 -->
<g id="node1" class="node">
<title>Node0</title>
<polygon fill="#bfbfbf" stroke="#000000" points="11,-146.5 11,-176.5 138,-176.5 138,-146.5 11,-146.5"/>
<text text-anchor="start" x="19" y="-164.5" font-family="Helvetica,sans-Serif" font-size="10.00" fill="#000000">TriaAccessor&lt; structdim,</text>
<text text-anchor="middle" x="74.5" y="-153.5" font-family="Helvetica,sans-Serif" font-size="10.00" fill="#000000"> dim, spacedim &gt;</text>
</g>
<!-- Node2 -->
<g id="node3" class="node">
<title>Node2</title>
<g id="a_node3"><a xlink:href="classTriaAccessor.html" target="_top" xlink:title="TriaAccessor\&lt; dim,\l dim, spacedim \&gt;">
<polygon fill="#ffffff" stroke="#000000" points="23.5,-68.5 23.5,-98.5 125.5,-98.5 125.5,-68.5 23.5,-68.5"/>
<text text-anchor="start" x="31.5" y="-86.5" font-family="Helvetica,sans-Serif" font-size="10.00" fill="#000000">TriaAccessor&lt; dim,</text>
<text text-anchor="middle" x="74.5" y="-75.5" font-family="Helvetica,sans-Serif" font-size="10.00" fill="#000000"> dim, spacedim &gt;</text>
</a>
</g>
</g>
<!-- Node0&#45;&gt;Node2 -->
<g id="edge2" class="edge">
<title>Node0&#45;&gt;Node2</title>
<path fill="none" stroke="#ffa500" stroke-dasharray="5,2" d="M74.5,-136.2875C74.5,-123.9187 74.5,-109.4264 74.5,-98.7592"/>
<polygon fill="#ffa500" stroke="#ffa500" points="71.0001,-136.4608 74.5,-146.4608 78.0001,-136.4608 71.0001,-136.4608"/>
<text text-anchor="middle" x="128" y="-120" font-family="Helvetica,sans-Serif" font-size="10.00" fill="#000000"> &lt; dim, dim, spacedim &gt;</text>
</g>
<!-- Node1 -->
<g id="node2" class="node">
<title>Node1</title>
<g id="a_node2"><a xlink:href="classTriaAccessorBase.html" target="_top" xlink:title="TriaAccessorBase\&lt; structdim,\l dim, spacedim \&gt;">
<polygon fill="#ffffff" stroke="#000000" points="0,-214.5 0,-244.5 149,-244.5 149,-214.5 0,-214.5"/>
<text text-anchor="start" x="8" y="-232.5" font-family="Helvetica,sans-Serif" font-size="10.00" fill="#000000">TriaAccessorBase&lt; structdim,</text>
<text text-anchor="middle" x="74.5" y="-221.5" font-family="Helvetica,sans-Serif" font-size="10.00" fill="#000000"> dim, spacedim &gt;</text>
</a>
</g>
</g>
<!-- Node1&#45;&gt;Node0 -->
<g id="edge1" class="edge">
<title>Node1&#45;&gt;Node0</title>
<path fill="none" stroke="#191970" d="M74.5,-204.1174C74.5,-194.8378 74.5,-184.6413 74.5,-176.5492"/>
<polygon fill="#191970" stroke="#191970" points="71.0001,-204.4086 74.5,-214.4086 78.0001,-204.4086 71.0001,-204.4086"/>
</g>
<!-- Node3 -->
<g id="node4" class="node">
<title>Node3</title>
<g id="a_node4"><a xlink:href="classCellAccessor.html" target="_top" xlink:title="CellAccessor\&lt; dim,\l spacedim \&gt;">
<polygon fill="#ffffff" stroke="#000000" points="23,-.5 23,-30.5 126,-30.5 126,-.5 23,-.5"/>
<text text-anchor="start" x="31" y="-18.5" font-family="Helvetica,sans-Serif" font-size="10.00" fill="#000000">CellAccessor&lt; dim,</text>
<text text-anchor="middle" x="74.5" y="-7.5" font-family="Helvetica,sans-Serif" font-size="10.00" fill="#000000"> spacedim &gt;</text>
</a>
</g>
</g>
<!-- Node2&#45;&gt;Node3 -->
<g id="edge3" class="edge">
<title>Node2&#45;&gt;Node3</title>
<path fill="none" stroke="#191970" d="M74.5,-58.1174C74.5,-48.8378 74.5,-38.6413 74.5,-30.5492"/>
<polygon fill="#191970" stroke="#191970" points="71.0001,-58.4086 74.5,-68.4086 78.0001,-58.4086 71.0001,-58.4086"/>
</g>
</g>
</svg>
