<?xml version="1.0" encoding="UTF-8" standalone="no"?>
<!DOCTYPE svg PUBLIC "-//W3C//DTD SVG 1.1//EN"
 "http://www.w3.org/Graphics/SVG/1.1/DTD/svg11.dtd">
<!-- Generated by graphviz version 2.40.1 (20161225.0304)
 -->
<!-- Title: Patterns::MultipleSelection Pages: 1 -->
<svg width="315pt" height="387pt"
 viewBox="0.00 0.00 314.50 387.00" xmlns="http://www.w3.org/2000/svg" xmlns:xlink="http://www.w3.org/1999/xlink">
<g id="graph0" class="graph" transform="scale(1 1) rotate(0) translate(4 383)">
<title>Patterns::MultipleSelection</title>
<polygon fill="#ffffff" stroke="transparent" points="-4,4 -4,-383 310.5,-383 310.5,4 -4,4"/>
<!-- Node2 -->
<g id="node1" class="node">
<title>Node2</title>
<polygon fill="#bfbfbf" stroke="#000000" points="94.5,-.5 94.5,-123.5 233.5,-123.5 233.5,-.5 94.5,-.5"/>
<text text-anchor="middle" x="164" y="-111.5" font-family="Helvetica,sans-Serif" font-size="10.00" fill="#000000">Patterns::MultipleSelection</text>
<polyline fill="none" stroke="#000000" points="94.5,-104.5 233.5,-104.5 "/>
<text text-anchor="middle" x="164" y="-92.5" font-family="Helvetica,sans-Serif" font-size="10.00" fill="#000000"> </text>
<polyline fill="none" stroke="#000000" points="94.5,-85.5 233.5,-85.5 "/>
<text text-anchor="start" x="102.5" y="-73.5" font-family="Helvetica,sans-Serif" font-size="10.00" fill="#000000">+ MultipleSelection()</text>
<text text-anchor="start" x="102.5" y="-62.5" font-family="Helvetica,sans-Serif" font-size="10.00" fill="#000000">+ match()</text>
<text text-anchor="start" x="102.5" y="-51.5" font-family="Helvetica,sans-Serif" font-size="10.00" fill="#000000">+ description()</text>
<text text-anchor="start" x="102.5" y="-40.5" font-family="Helvetica,sans-Serif" font-size="10.00" fill="#000000">+ clone()</text>
<text text-anchor="start" x="102.5" y="-29.5" font-family="Helvetica,sans-Serif" font-size="10.00" fill="#000000">+ memory_consumption()</text>
<text text-anchor="start" x="102.5" y="-18.5" font-family="Helvetica,sans-Serif" font-size="10.00" fill="#000000">+ create()</text>
<text text-anchor="start" x="102.5" y="-7.5" font-family="Helvetica,sans-Serif" font-size="10.00" fill="#000000">+ ExcCommasNotAllowed()</text>
</g>
<!-- Node3 -->
<g id="node2" class="node">
<title>Node3</title>
<g id="a_node2"><a xlink:href="classPatterns_1_1PatternBase.html" target="_top" xlink:title="{Patterns::PatternBase\n||+ ~PatternBase()\l+ match()\l+ description()\l+ clone()\l+ memory_consumption()\l}">
<polygon fill="#ffffff" stroke="#000000" points="0,-171.5 0,-272.5 128,-272.5 128,-171.5 0,-171.5"/>
<text text-anchor="middle" x="64" y="-260.5" font-family="Helvetica,sans-Serif" font-size="10.00" fill="#000000">Patterns::PatternBase</text>
<polyline fill="none" stroke="#000000" points="0,-253.5 128,-253.5 "/>
<text text-anchor="middle" x="64" y="-241.5" font-family="Helvetica,sans-Serif" font-size="10.00" fill="#000000"> </text>
<polyline fill="none" stroke="#000000" points="0,-234.5 128,-234.5 "/>
<text text-anchor="start" x="8" y="-222.5" font-family="Helvetica,sans-Serif" font-size="10.00" fill="#000000">+ ~PatternBase()</text>
<text text-anchor="start" x="8" y="-211.5" font-family="Helvetica,sans-Serif" font-size="10.00" fill="#000000">+ match()</text>
<text text-anchor="start" x="8" y="-200.5" font-family="Helvetica,sans-Serif" font-size="10.00" fill="#000000">+ description()</text>
<text text-anchor="start" x="8" y="-189.5" font-family="Helvetica,sans-Serif" font-size="10.00" fill="#000000">+ clone()</text>
<text text-anchor="start" x="8" y="-178.5" font-family="Helvetica,sans-Serif" font-size="10.00" fill="#000000">+ memory_consumption()</text>
</a>
</g>
</g>
<!-- Node3&#45;&gt;Node2 -->
<g id="edge1" class="edge">
<title>Node3&#45;&gt;Node2</title>
<path fill="none" stroke="#191970" d="M101.0809,-162.6706C109.0637,-149.898 117.5183,-136.3708 125.5519,-123.5169"/>
<polygon fill="none" stroke="#191970" points="97.9727,-161.04 95.6406,-171.375 103.9087,-164.75 97.9727,-161.04"/>
</g>
<!-- Node4 -->
<g id="node3" class="node">
<title>Node4</title>
<polygon fill="#ffffff" stroke="#bfbfbf" points="146.5,-193.5 146.5,-250.5 181.5,-250.5 181.5,-193.5 146.5,-193.5"/>
<text text-anchor="middle" x="164" y="-238.5" font-family="Helvetica,sans-Serif" font-size="10.00" fill="#000000">char</text>
<polyline fill="none" stroke="#bfbfbf" points="146.5,-231.5 181.5,-231.5 "/>
<text text-anchor="middle" x="164" y="-219.5" font-family="Helvetica,sans-Serif" font-size="10.00" fill="#000000"> </text>
<polyline fill="none" stroke="#bfbfbf" points="146.5,-212.5 181.5,-212.5 "/>
<text text-anchor="middle" x="164" y="-200.5" font-family="Helvetica,sans-Serif" font-size="10.00" fill="#000000"> </text>
</g>
<!-- Node4&#45;&gt;Node2 -->
<g id="edge2" class="edge">
<title>Node4&#45;&gt;Node2</title>
<path fill="none" stroke="#404040" d="M164,-193.3952C164,-177.241 164,-156.2382 164,-135.7811"/>
<polygon fill="none" stroke="#404040" points="164.0001,-135.5026 160,-129.5027 164,-123.5026 168,-129.5026 164.0001,-135.5026"/>
<text text-anchor="middle" x="200" y="-145" font-family="Helvetica,sans-Serif" font-size="10.00" fill="#000000"> &#45;description_init</text>
</g>
<!-- Node5 -->
<g id="node4" class="node">
<title>Node5</title>
<g id="a_node4"><a xlink:title="STL class. ">
<polygon fill="#ffffff" stroke="#bfbfbf" points="229,-193.5 229,-250.5 289,-250.5 289,-193.5 229,-193.5"/>
<text text-anchor="middle" x="259" y="-238.5" font-family="Helvetica,sans-Serif" font-size="10.00" fill="#000000">std::string</text>
<polyline fill="none" stroke="#bfbfbf" points="229,-231.5 289,-231.5 "/>
<text text-anchor="middle" x="259" y="-219.5" font-family="Helvetica,sans-Serif" font-size="10.00" fill="#000000"> </text>
<polyline fill="none" stroke="#bfbfbf" points="229,-212.5 289,-212.5 "/>
<text text-anchor="middle" x="259" y="-200.5" font-family="Helvetica,sans-Serif" font-size="10.00" fill="#000000"> </text>
</a>
</g>
</g>
<!-- Node5&#45;&gt;Node2 -->
<g id="edge3" class="edge">
<title>Node5&#45;&gt;Node2</title>
<path fill="none" stroke="#404040" d="M254.5233,-193.3575C251.2318,-177.5209 245.7654,-157.8927 237,-142 235.4364,-139.1651 233.753,-136.3496 231.9728,-133.5638"/>
<polygon fill="none" stroke="#404040" points="231.9399,-133.5159 225.2456,-130.8351 225.1454,-123.6247 231.8397,-126.3055 231.9399,-133.5159"/>
<text text-anchor="middle" x="265.5" y="-145" font-family="Helvetica,sans-Serif" font-size="10.00" fill="#000000"> &#45;sequence</text>
</g>
<!-- Node6 -->
<g id="node5" class="node">
<title>Node6</title>
<g id="a_node5"><a xlink:title="STL class. ">
<polygon fill="#ffffff" stroke="#bfbfbf" points="211.5,-310.5 211.5,-378.5 306.5,-378.5 306.5,-310.5 211.5,-310.5"/>
<text text-anchor="start" x="219.5" y="-366.5" font-family="Helvetica,sans-Serif" font-size="10.00" fill="#000000">std::basic_string&lt;</text>
<text text-anchor="middle" x="259" y="-355.5" font-family="Helvetica,sans-Serif" font-size="10.00" fill="#000000"> char &gt;</text>
<polyline fill="none" stroke="#bfbfbf" points="211.5,-348.5 306.5,-348.5 "/>
<text text-anchor="middle" x="259" y="-336.5" font-family="Helvetica,sans-Serif" font-size="10.00" fill="#000000"> </text>
<polyline fill="none" stroke="#bfbfbf" points="211.5,-329.5 306.5,-329.5 "/>
<text text-anchor="middle" x="259" y="-317.5" font-family="Helvetica,sans-Serif" font-size="10.00" fill="#000000"> </text>
</a>
</g>
</g>
<!-- Node6&#45;&gt;Node5 -->
<g id="edge4" class="edge">
<title>Node6&#45;&gt;Node5</title>
<path fill="none" stroke="#191970" d="M259,-300.3355C259,-283.7537 259,-265.356 259,-250.559"/>
<polygon fill="none" stroke="#191970" points="255.5001,-300.3769 259,-310.3769 262.5001,-300.377 255.5001,-300.3769"/>
</g>
</g>
</svg>
