<?xml version="1.0" encoding="UTF-8" standalone="no"?>
<!DOCTYPE svg PUBLIC "-//W3C//DTD SVG 1.1//EN"
 "http://www.w3.org/Graphics/SVG/1.1/DTD/svg11.dtd">
<!-- Generated by graphviz version 2.40.1 (20161225.0304)
 -->
<!-- Title: DesignPattern::State::ConcreteStateB Pages: 1 -->
<svg width="116pt" height="226pt"
 viewBox="0.00 0.00 116.00 226.00" xmlns="http://www.w3.org/2000/svg" xmlns:xlink="http://www.w3.org/1999/xlink">
<g id="graph0" class="graph" transform="scale(1 1) rotate(0) translate(4 222)">
<title>DesignPattern::State::ConcreteStateB</title>
<polygon fill="#ffffff" stroke="transparent" points="-4,4 -4,-222 112,-222 112,4 -4,4"/>
<!-- Node0 -->
<g id="node1" class="node">
<title>Node0</title>
<polygon fill="#bfbfbf" stroke="#000000" points="0,-.5 0,-79.5 108,-79.5 108,-.5 0,-.5"/>
<text text-anchor="start" x="8" y="-67.5" font-family="Helvetica,sans-Serif" font-size="10.00" fill="#000000">DesignPattern::State</text>
<text text-anchor="middle" x="54" y="-56.5" font-family="Helvetica,sans-Serif" font-size="10.00" fill="#000000">::ConcreteStateB</text>
<polyline fill="none" stroke="#000000" points="0,-49.5 108,-49.5 "/>
<text text-anchor="middle" x="54" y="-37.5" font-family="Helvetica,sans-Serif" font-size="10.00" fill="#000000"> </text>
<polyline fill="none" stroke="#000000" points="0,-30.5 108,-30.5 "/>
<text text-anchor="start" x="8" y="-18.5" font-family="Helvetica,sans-Serif" font-size="10.00" fill="#000000">+ Handle1()</text>
<text text-anchor="start" x="8" y="-7.5" font-family="Helvetica,sans-Serif" font-size="10.00" fill="#000000">+ Handle2()</text>
</g>
<!-- Node1 -->
<g id="node2" class="node">
<title>Node1</title>
<g id="a_node2"><a xlink:href="classDesignPattern_1_1State_1_1State.html" target="_top" xlink:title="{DesignPattern::State\l::State\n|# context_\l|+ ~State()\l+ set_context()\l+ Handle1()\l+ Handle2()\l}">
<polygon fill="#ffffff" stroke="#000000" points="0,-116.5 0,-217.5 108,-217.5 108,-116.5 0,-116.5"/>
<text text-anchor="start" x="8" y="-205.5" font-family="Helvetica,sans-Serif" font-size="10.00" fill="#000000">DesignPattern::State</text>
<text text-anchor="middle" x="54" y="-194.5" font-family="Helvetica,sans-Serif" font-size="10.00" fill="#000000">::State</text>
<polyline fill="none" stroke="#000000" points="0,-187.5 108,-187.5 "/>
<text text-anchor="start" x="8" y="-175.5" font-family="Helvetica,sans-Serif" font-size="10.00" fill="#000000"># context_</text>
<polyline fill="none" stroke="#000000" points="0,-168.5 108,-168.5 "/>
<text text-anchor="start" x="8" y="-156.5" font-family="Helvetica,sans-Serif" font-size="10.00" fill="#000000">+ ~State()</text>
<text text-anchor="start" x="8" y="-145.5" font-family="Helvetica,sans-Serif" font-size="10.00" fill="#000000">+ set_context()</text>
<text text-anchor="start" x="8" y="-134.5" font-family="Helvetica,sans-Serif" font-size="10.00" fill="#000000">+ Handle1()</text>
<text text-anchor="start" x="8" y="-123.5" font-family="Helvetica,sans-Serif" font-size="10.00" fill="#000000">+ Handle2()</text>
</a>
</g>
</g>
<!-- Node1&#45;&gt;Node0 -->
<g id="edge1" class="edge">
<title>Node1&#45;&gt;Node0</title>
<path fill="none" stroke="#191970" d="M54,-106.3446C54,-97.3388 54,-88.2565 54,-79.8243"/>
<polygon fill="none" stroke="#191970" points="50.5001,-106.4413 54,-116.4413 57.5001,-106.4414 50.5001,-106.4413"/>
</g>
</g>
</svg>
