<?xml version="1.0" encoding="UTF-8" standalone="no"?>
<!DOCTYPE svg PUBLIC "-//W3C//DTD SVG 1.1//EN"
 "http://www.w3.org/Graphics/SVG/1.1/DTD/svg11.dtd">
<!-- Generated by graphviz version 2.40.1 (20161225.0304)
 -->
<!-- Title: TriaIterator&lt; Accessor &gt; Pages: 1 -->
<svg width="151pt" height="151pt"
 viewBox="0.00 0.00 151.00 151.00" xmlns="http://www.w3.org/2000/svg" xmlns:xlink="http://www.w3.org/1999/xlink">
<g id="graph0" class="graph" transform="scale(1 1) rotate(0) translate(4 147)">
<title>TriaIterator&lt; Accessor &gt;</title>
<polygon fill="#ffffff" stroke="transparent" points="-4,4 -4,-147 147,-147 147,4 -4,4"/>
<!-- Node0 -->
<g id="node1" class="node">
<title>Node0</title>
<polygon fill="#bfbfbf" stroke="#000000" points="10,-67.5 10,-86.5 133,-86.5 133,-67.5 10,-67.5"/>
<text text-anchor="middle" x="71.5" y="-74.5" font-family="Helvetica,sans-Serif" font-size="10.00" fill="#000000">TriaIterator&lt; Accessor &gt;</text>
</g>
<!-- Node2 -->
<g id="node3" class="node">
<title>Node2</title>
<g id="a_node3"><a xlink:href="classTriaActiveIterator.html" target="_top" xlink:title="TriaActiveIterator\l\&lt; Accessor \&gt;">
<polygon fill="#ffffff" stroke="#000000" points="25.5,-.5 25.5,-30.5 117.5,-30.5 117.5,-.5 25.5,-.5"/>
<text text-anchor="start" x="33.5" y="-18.5" font-family="Helvetica,sans-Serif" font-size="10.00" fill="#000000">TriaActiveIterator</text>
<text text-anchor="middle" x="71.5" y="-7.5" font-family="Helvetica,sans-Serif" font-size="10.00" fill="#000000">&lt; Accessor &gt;</text>
</a>
</g>
</g>
<!-- Node0&#45;&gt;Node2 -->
<g id="edge2" class="edge">
<title>Node0&#45;&gt;Node2</title>
<path fill="none" stroke="#191970" d="M71.5,-57.3693C71.5,-48.681 71.5,-38.6241 71.5,-30.5446"/>
<polygon fill="#191970" stroke="#191970" points="68.0001,-57.3906 71.5,-67.3906 75.0001,-57.3907 68.0001,-57.3906"/>
</g>
<!-- Node1 -->
<g id="node2" class="node">
<title>Node1</title>
<g id="a_node2"><a xlink:href="classTriaRawIterator.html" target="_top" xlink:title="TriaRawIterator\&lt; Accessor \&gt;">
<polygon fill="#ffffff" stroke="#000000" points="0,-123.5 0,-142.5 143,-142.5 143,-123.5 0,-123.5"/>
<text text-anchor="middle" x="71.5" y="-130.5" font-family="Helvetica,sans-Serif" font-size="10.00" fill="#000000">TriaRawIterator&lt; Accessor &gt;</text>
</a>
</g>
</g>
<!-- Node1&#45;&gt;Node0 -->
<g id="edge1" class="edge">
<title>Node1&#45;&gt;Node0</title>
<path fill="none" stroke="#191970" d="M71.5,-113.1575C71.5,-104.155 71.5,-93.9199 71.5,-86.6427"/>
<polygon fill="#191970" stroke="#191970" points="68.0001,-113.2455 71.5,-123.2455 75.0001,-113.2456 68.0001,-113.2455"/>
</g>
</g>
</svg>
