<?xml version="1.0" encoding="UTF-8" standalone="no"?>
<!DOCTYPE svg PUBLIC "-//W3C//DTD SVG 1.1//EN"
 "http://www.w3.org/Graphics/SVG/1.1/DTD/svg11.dtd">
<!-- Generated by graphviz version 2.40.1 (20161225.0304)
 -->
<!-- Title: internal::MatrixFreeFunctions::VectorDataExchange::PartitionerWrapper Pages: 1 -->
<svg width="174pt" height="117pt"
 viewBox="0.00 0.00 174.00 117.00" xmlns="http://www.w3.org/2000/svg" xmlns:xlink="http://www.w3.org/1999/xlink">
<g id="graph0" class="graph" transform="scale(1 1) rotate(0) translate(4 113)">
<title>internal::MatrixFreeFunctions::VectorDataExchange::PartitionerWrapper</title>
<polygon fill="#ffffff" stroke="transparent" points="-4,4 -4,-113 170,-113 170,4 -4,4"/>
<!-- Node0 -->
<g id="node1" class="node">
<title>Node0</title>
<polygon fill="#bfbfbf" stroke="#000000" points="0,-.5 0,-41.5 166,-41.5 166,-.5 0,-.5"/>
<text text-anchor="start" x="8" y="-29.5" font-family="Helvetica,sans-Serif" font-size="10.00" fill="#000000">internal::MatrixFreeFunctions</text>
<text text-anchor="start" x="8" y="-18.5" font-family="Helvetica,sans-Serif" font-size="10.00" fill="#000000">::VectorDataExchange::Partitioner</text>
<text text-anchor="middle" x="83" y="-7.5" font-family="Helvetica,sans-Serif" font-size="10.00" fill="#000000">Wrapper</text>
</g>
<!-- Node1 -->
<g id="node2" class="node">
<title>Node1</title>
<g id="a_node2"><a xlink:href="classinternal_1_1MatrixFreeFunctions_1_1VectorDataExchange_1_1Base.html" target="_top" xlink:title="internal::MatrixFreeFunctions\l::VectorDataExchange::Base">
<polygon fill="#ffffff" stroke="#000000" points="11,-78.5 11,-108.5 155,-108.5 155,-78.5 11,-78.5"/>
<text text-anchor="start" x="19" y="-96.5" font-family="Helvetica,sans-Serif" font-size="10.00" fill="#000000">internal::MatrixFreeFunctions</text>
<text text-anchor="middle" x="83" y="-85.5" font-family="Helvetica,sans-Serif" font-size="10.00" fill="#000000">::VectorDataExchange::Base</text>
</a>
</g>
</g>
<!-- Node1&#45;&gt;Node0 -->
<g id="edge1" class="edge">
<title>Node1&#45;&gt;Node0</title>
<path fill="none" stroke="#191970" d="M83,-68.4016C83,-59.6173 83,-49.8652 83,-41.5015"/>
<polygon fill="#191970" stroke="#191970" points="79.5001,-68.4779 83,-78.478 86.5001,-68.478 79.5001,-68.4779"/>
</g>
</g>
</svg>
