<?xml version="1.0" encoding="UTF-8" standalone="no"?>
<!DOCTYPE svg PUBLIC "-//W3C//DTD SVG 1.1//EN"
 "http://www.w3.org/Graphics/SVG/1.1/DTD/svg11.dtd">
<!-- Generated by graphviz version 2.40.1 (20161225.0304)
 -->
<!-- Title: MGTransferSelect&lt; number &gt; Pages: 1 -->
<svg width="296pt" height="220pt"
 viewBox="0.00 0.00 295.50 220.00" xmlns="http://www.w3.org/2000/svg" xmlns:xlink="http://www.w3.org/1999/xlink">
<g id="graph0" class="graph" transform="scale(1 1) rotate(0) translate(4 216)">
<title>MGTransferSelect&lt; number &gt;</title>
<polygon fill="#ffffff" stroke="transparent" points="-4,4 -4,-216 291.5,-216 291.5,4 -4,4"/>
<!-- Node0 -->
<g id="node1" class="node">
<title>Node0</title>
<polygon fill="#bfbfbf" stroke="#000000" points="67,-.5 67,-19.5 213,-19.5 213,-.5 67,-.5"/>
<text text-anchor="middle" x="140" y="-7.5" font-family="Helvetica,sans-Serif" font-size="10.00" fill="#000000">MGTransferSelect&lt; number &gt;</text>
</g>
<!-- Node1 -->
<g id="node2" class="node">
<title>Node1</title>
<g id="a_node2"><a xlink:href="classMGTransferBase.html" target="_top" xlink:title="MGTransferBase\&lt; Vector\l\&lt; number \&gt; \&gt;">
<polygon fill="#ffffff" stroke="#000000" points="0,-57.5 0,-87.5 128,-87.5 128,-57.5 0,-57.5"/>
<text text-anchor="start" x="8" y="-75.5" font-family="Helvetica,sans-Serif" font-size="10.00" fill="#000000">MGTransferBase&lt; Vector</text>
<text text-anchor="middle" x="64" y="-64.5" font-family="Helvetica,sans-Serif" font-size="10.00" fill="#000000">&lt; number &gt; &gt;</text>
</a>
</g>
</g>
<!-- Node1&#45;&gt;Node0 -->
<g id="edge1" class="edge">
<title>Node1&#45;&gt;Node0</title>
<path fill="none" stroke="#191970" d="M90.123,-51.0173C103.0526,-40.3844 118.0217,-28.0743 128.1615,-19.7356"/>
<polygon fill="#191970" stroke="#191970" points="87.8981,-48.3154 82.3975,-57.3705 92.3443,-53.722 87.8981,-48.3154"/>
</g>
<!-- Node2 -->
<g id="node3" class="node">
<title>Node2</title>
<g id="a_node3"><a xlink:href="classSubscriptor.html" target="_top" xlink:title="Subscriptor">
<polygon fill="#ffffff" stroke="#000000" points="27,-192.5 27,-211.5 93,-211.5 93,-192.5 27,-192.5"/>
<text text-anchor="middle" x="60" y="-199.5" font-family="Helvetica,sans-Serif" font-size="10.00" fill="#000000">Subscriptor</text>
</a>
</g>
</g>
<!-- Node2&#45;&gt;Node1 -->
<g id="edge2" class="edge">
<title>Node2&#45;&gt;Node1</title>
<path fill="none" stroke="#191970" d="M60.6141,-182.1183C61.4157,-156.1655 62.8017,-111.2948 63.5268,-87.8199"/>
<polygon fill="#191970" stroke="#191970" points="57.1111,-182.1631 60.3007,-192.2665 64.1078,-182.3793 57.1111,-182.1631"/>
</g>
<!-- Node3 -->
<g id="node4" class="node">
<title>Node3</title>
<g id="a_node4"><a xlink:href="classMGTransferBase.html" target="_top" xlink:title="MGTransferBase\&lt; VectorType \&gt;">
<polygon fill="#ffffff" stroke="#000000" points="75.5,-135.5 75.5,-154.5 234.5,-154.5 234.5,-135.5 75.5,-135.5"/>
<text text-anchor="middle" x="155" y="-142.5" font-family="Helvetica,sans-Serif" font-size="10.00" fill="#000000">MGTransferBase&lt; VectorType &gt;</text>
</a>
</g>
</g>
<!-- Node2&#45;&gt;Node3 -->
<g id="edge4" class="edge">
<title>Node2&#45;&gt;Node3</title>
<path fill="none" stroke="#191970" d="M85.0343,-186.9794C102.1697,-176.6982 124.3731,-163.3762 139.1225,-154.5265"/>
<polygon fill="#191970" stroke="#191970" points="82.8896,-184.1845 76.1155,-192.3307 86.4911,-190.187 82.8896,-184.1845"/>
</g>
<!-- Node3&#45;&gt;Node1 -->
<g id="edge3" class="edge">
<title>Node3&#45;&gt;Node1</title>
<path fill="none" stroke="#ffa500" stroke-dasharray="5,2" d="M134.8051,-128.9107C119.3542,-116.6008 98.1945,-99.7429 83.0385,-87.668"/>
<polygon fill="#ffa500" stroke="#ffa500" points="132.7251,-131.7285 142.7273,-135.2223 137.087,-126.2536 132.7251,-131.7285"/>
<text text-anchor="middle" x="168" y="-109" font-family="Helvetica,sans-Serif" font-size="10.00" fill="#000000"> &lt; Vector&lt; number &gt; &gt;</text>
</g>
<!-- Node4 -->
<g id="node5" class="node">
<title>Node4</title>
<g id="a_node5"><a xlink:href="classMGTransferComponentBase.html" target="_top" xlink:title="MGTransferComponentBase">
<polygon fill="#ffffff" stroke="#000000" points="146.5,-63 146.5,-82 287.5,-82 287.5,-63 146.5,-63"/>
<text text-anchor="middle" x="217" y="-70" font-family="Helvetica,sans-Serif" font-size="10.00" fill="#000000">MGTransferComponentBase</text>
</a>
</g>
</g>
<!-- Node4&#45;&gt;Node0 -->
<g id="edge5" class="edge">
<title>Node4&#45;&gt;Node0</title>
<path fill="none" stroke="#8b1a1a" d="M197.1542,-56.3914C182.847,-44.7784 164.0076,-29.4867 151.9468,-19.697"/>
<polygon fill="#8b1a1a" stroke="#8b1a1a" points="194.9987,-59.1497 204.9688,-62.7344 199.4103,-53.7147 194.9987,-59.1497"/>
</g>
</g>
</svg>
