<?xml version="1.0" encoding="UTF-8" standalone="no"?>
<!DOCTYPE svg PUBLIC "-//W3C//DTD SVG 1.1//EN"
 "http://www.w3.org/Graphics/SVG/1.1/DTD/svg11.dtd">
<!-- Generated by graphviz version 2.40.1 (20161225.0304)
 -->
<!-- Title: FE_SimplexP&lt; dim, spacedim &gt; Pages: 1 -->
<svg width="212pt" height="285pt"
 viewBox="0.00 0.00 212.00 285.00" xmlns="http://www.w3.org/2000/svg" xmlns:xlink="http://www.w3.org/1999/xlink">
<g id="graph0" class="graph" transform="scale(1 1) rotate(0) translate(4 281)">
<title>FE_SimplexP&lt; dim, spacedim &gt;</title>
<polygon fill="#ffffff" stroke="transparent" points="-4,4 -4,-281 208,-281 208,4 -4,4"/>
<!-- Node0 -->
<g id="node1" class="node">
<title>Node0</title>
<polygon fill="#bfbfbf" stroke="#000000" points="4,-.5 4,-19.5 177,-19.5 177,-.5 4,-.5"/>
<text text-anchor="middle" x="90.5" y="-7.5" font-family="Helvetica,sans-Serif" font-size="10.00" fill="#000000">FE_SimplexP&lt; dim, spacedim &gt;</text>
</g>
<!-- Node1 -->
<g id="node2" class="node">
<title>Node1</title>
<g id="a_node2"><a xlink:href="classFE__SimplexPoly.html" target="_top" xlink:title="FE_SimplexPoly\&lt; dim,\l spacedim \&gt;">
<polygon fill="#ffffff" stroke="#000000" points="27,-56.5 27,-86.5 154,-86.5 154,-56.5 27,-56.5"/>
<text text-anchor="start" x="35" y="-74.5" font-family="Helvetica,sans-Serif" font-size="10.00" fill="#000000">FE_SimplexPoly&lt; dim,</text>
<text text-anchor="middle" x="90.5" y="-63.5" font-family="Helvetica,sans-Serif" font-size="10.00" fill="#000000"> spacedim &gt;</text>
</a>
</g>
</g>
<!-- Node1&#45;&gt;Node0 -->
<g id="edge1" class="edge">
<title>Node1&#45;&gt;Node0</title>
<path fill="none" stroke="#191970" d="M90.5,-46.2849C90.5,-36.9858 90.5,-26.9883 90.5,-19.8469"/>
<polygon fill="#191970" stroke="#191970" points="87.0001,-46.2977 90.5,-56.2977 94.0001,-46.2978 87.0001,-46.2977"/>
</g>
<!-- Node2 -->
<g id="node3" class="node">
<title>Node2</title>
<g id="a_node3"><a xlink:href="classFE__Poly.html" target="_top" xlink:title="FE_Poly\&lt; dim, spacedim \&gt;">
<polygon fill="#ffffff" stroke="#000000" points="16,-123.5 16,-142.5 165,-142.5 165,-123.5 16,-123.5"/>
<text text-anchor="middle" x="90.5" y="-130.5" font-family="Helvetica,sans-Serif" font-size="10.00" fill="#000000">FE_Poly&lt; dim, spacedim &gt;</text>
</a>
</g>
</g>
<!-- Node2&#45;&gt;Node1 -->
<g id="edge2" class="edge">
<title>Node2&#45;&gt;Node1</title>
<path fill="none" stroke="#191970" d="M90.5,-113.3693C90.5,-104.681 90.5,-94.6241 90.5,-86.5446"/>
<polygon fill="#191970" stroke="#191970" points="87.0001,-113.3906 90.5,-123.3906 94.0001,-113.3907 87.0001,-113.3906"/>
</g>
<!-- Node3 -->
<g id="node4" class="node">
<title>Node3</title>
<g id="a_node4"><a xlink:href="classFiniteElement.html" target="_top" xlink:title="FiniteElement\&lt; dim,\l spacedim \&gt;">
<polygon fill="#ffffff" stroke="#000000" points="32.5,-179.5 32.5,-209.5 148.5,-209.5 148.5,-179.5 32.5,-179.5"/>
<text text-anchor="start" x="40.5" y="-197.5" font-family="Helvetica,sans-Serif" font-size="10.00" fill="#000000">FiniteElement&lt; dim,</text>
<text text-anchor="middle" x="90.5" y="-186.5" font-family="Helvetica,sans-Serif" font-size="10.00" fill="#000000"> spacedim &gt;</text>
</a>
</g>
</g>
<!-- Node3&#45;&gt;Node2 -->
<g id="edge3" class="edge">
<title>Node3&#45;&gt;Node2</title>
<path fill="none" stroke="#191970" d="M90.5,-169.2849C90.5,-159.9858 90.5,-149.9883 90.5,-142.8469"/>
<polygon fill="#191970" stroke="#191970" points="87.0001,-169.2977 90.5,-179.2977 94.0001,-169.2978 87.0001,-169.2977"/>
</g>
<!-- Node4 -->
<g id="node5" class="node">
<title>Node4</title>
<g id="a_node5"><a xlink:href="classSubscriptor.html" target="_top" xlink:title="Subscriptor">
<polygon fill="#ffffff" stroke="#000000" points="0,-252 0,-271 71,-271 71,-252 0,-252"/>
<text text-anchor="middle" x="35.5" y="-259" font-family="Helvetica,sans-Serif" font-size="10.00" fill="#000000">Subscriptor</text>
</a>
</g>
</g>
<!-- Node4&#45;&gt;Node3 -->
<g id="edge4" class="edge">
<title>Node4&#45;&gt;Node3</title>
<path fill="none" stroke="#191970" d="M49.8309,-244.0423C58.6246,-233.33 69.7701,-219.7528 78.1687,-209.5218"/>
<polygon fill="#191970" stroke="#191970" points="47.0199,-241.9505 43.3802,-251.9005 52.4304,-246.392 47.0199,-241.9505"/>
</g>
<!-- Node5 -->
<g id="node6" class="node">
<title>Node5</title>
<g id="a_node6"><a xlink:href="classFiniteElementData.html" target="_top" xlink:title="FiniteElementData\&lt;\l dim \&gt;">
<polygon fill="#ffffff" stroke="#000000" points="89,-246.5 89,-276.5 204,-276.5 204,-246.5 89,-246.5"/>
<text text-anchor="start" x="97" y="-264.5" font-family="Helvetica,sans-Serif" font-size="10.00" fill="#000000">FiniteElementData&lt;</text>
<text text-anchor="middle" x="146.5" y="-253.5" font-family="Helvetica,sans-Serif" font-size="10.00" fill="#000000"> dim &gt;</text>
</a>
</g>
</g>
<!-- Node5&#45;&gt;Node3 -->
<g id="edge5" class="edge">
<title>Node5&#45;&gt;Node3</title>
<path fill="none" stroke="#191970" d="M127.1515,-238.3509C119.2089,-228.8482 110.2364,-218.1132 103.157,-209.6432"/>
<polygon fill="#191970" stroke="#191970" points="124.6941,-240.8684 133.7927,-246.2967 130.0651,-236.3792 124.6941,-240.8684"/>
</g>
</g>
</svg>
