<?xml version="1.0" encoding="UTF-8" standalone="no"?>
<!DOCTYPE svg PUBLIC "-//W3C//DTD SVG 1.1//EN"
 "http://www.w3.org/Graphics/SVG/1.1/DTD/svg11.dtd">
<!-- Generated by graphviz version 2.40.1 (20161225.0304)
 -->
<!-- Title: MappingC1&lt; dim, spacedim &gt;::MappingC1Generic Pages: 1 -->
<svg width="162pt" height="218pt"
 viewBox="0.00 0.00 162.00 218.00" xmlns="http://www.w3.org/2000/svg" xmlns:xlink="http://www.w3.org/1999/xlink">
<g id="graph0" class="graph" transform="scale(1 1) rotate(0) translate(4 214)">
<title>MappingC1&lt; dim, spacedim &gt;::MappingC1Generic</title>
<polygon fill="#ffffff" stroke="transparent" points="-4,4 -4,-214 158,-214 158,4 -4,4"/>
<!-- Node0 -->
<g id="node1" class="node">
<title>Node0</title>
<polygon fill="#bfbfbf" stroke="#000000" points="0,-.5 0,-30.5 154,-30.5 154,-.5 0,-.5"/>
<text text-anchor="start" x="8" y="-18.5" font-family="Helvetica,sans-Serif" font-size="10.00" fill="#000000">MappingC1&lt; dim, spacedim</text>
<text text-anchor="middle" x="77" y="-7.5" font-family="Helvetica,sans-Serif" font-size="10.00" fill="#000000"> &gt;::MappingC1Generic</text>
</g>
<!-- Node1 -->
<g id="node2" class="node">
<title>Node1</title>
<g id="a_node2"><a xlink:href="classMappingQGeneric.html" target="_top" xlink:title="MappingQGeneric\&lt; dim,\l spacedim \&gt;">
<polygon fill="#ffffff" stroke="#000000" points="9,-67.5 9,-97.5 145,-97.5 145,-67.5 9,-67.5"/>
<text text-anchor="start" x="17" y="-85.5" font-family="Helvetica,sans-Serif" font-size="10.00" fill="#000000">MappingQGeneric&lt; dim,</text>
<text text-anchor="middle" x="77" y="-74.5" font-family="Helvetica,sans-Serif" font-size="10.00" fill="#000000"> spacedim &gt;</text>
</a>
</g>
</g>
<!-- Node1&#45;&gt;Node0 -->
<g id="edge1" class="edge">
<title>Node1&#45;&gt;Node0</title>
<path fill="none" stroke="#191970" d="M77,-57.0249C77,-48.128 77,-38.4287 77,-30.6432"/>
<polygon fill="#191970" stroke="#191970" points="73.5001,-57.2966 77,-67.2967 80.5001,-57.2967 73.5001,-57.2966"/>
</g>
<!-- Node2 -->
<g id="node3" class="node">
<title>Node2</title>
<g id="a_node3"><a xlink:href="classMapping.html" target="_top" xlink:title="映射类的抽象基类。 该类声明了用于描述从参考（单位）单元到实空间单元的映射功能的接口，以及用于填写使用...">
<polygon fill="#ffffff" stroke="#000000" points="1,-134.5 1,-153.5 153,-153.5 153,-134.5 1,-134.5"/>
<text text-anchor="middle" x="77" y="-141.5" font-family="Helvetica,sans-Serif" font-size="10.00" fill="#000000">Mapping&lt; dim, spacedim &gt;</text>
</a>
</g>
</g>
<!-- Node2&#45;&gt;Node1 -->
<g id="edge2" class="edge">
<title>Node2&#45;&gt;Node1</title>
<path fill="none" stroke="#191970" d="M77,-124.3693C77,-115.681 77,-105.6241 77,-97.5446"/>
<polygon fill="#191970" stroke="#191970" points="73.5001,-124.3906 77,-134.3906 80.5001,-124.3907 73.5001,-124.3906"/>
</g>
<!-- Node3 -->
<g id="node4" class="node">
<title>Node3</title>
<g id="a_node4"><a xlink:href="classSubscriptor.html" target="_top" xlink:title="Subscriptor">
<polygon fill="#ffffff" stroke="#000000" points="41.5,-190.5 41.5,-209.5 112.5,-209.5 112.5,-190.5 41.5,-190.5"/>
<text text-anchor="middle" x="77" y="-197.5" font-family="Helvetica,sans-Serif" font-size="10.00" fill="#000000">Subscriptor</text>
</a>
</g>
</g>
<!-- Node3&#45;&gt;Node2 -->
<g id="edge3" class="edge">
<title>Node3&#45;&gt;Node2</title>
<path fill="none" stroke="#191970" d="M77,-180.1575C77,-171.155 77,-160.9199 77,-153.6427"/>
<polygon fill="#191970" stroke="#191970" points="73.5001,-180.2455 77,-190.2455 80.5001,-180.2456 73.5001,-180.2455"/>
</g>
</g>
</svg>
