<?xml version="1.0" encoding="UTF-8" standalone="no"?>
<!DOCTYPE svg PUBLIC "-//W3C//DTD SVG 1.1//EN"
 "http://www.w3.org/Graphics/SVG/1.1/DTD/svg11.dtd">
<!-- Generated by graphviz version 2.40.1 (20161225.0304)
 -->
<!-- Title: FE_Q_iso_Q1&lt; dim, spacedim &gt; Pages: 1 -->
<svg width="212pt" height="274pt"
 viewBox="0.00 0.00 212.00 274.00" xmlns="http://www.w3.org/2000/svg" xmlns:xlink="http://www.w3.org/1999/xlink">
<g id="graph0" class="graph" transform="scale(1 1) rotate(0) translate(4 270)">
<title>FE_Q_iso_Q1&lt; dim, spacedim &gt;</title>
<polygon fill="#ffffff" stroke="transparent" points="-4,4 -4,-270 208,-270 208,4 -4,4"/>
<!-- Node0 -->
<g id="node1" class="node">
<title>Node0</title>
<polygon fill="#bfbfbf" stroke="#000000" points="4,-.5 4,-19.5 177,-19.5 177,-.5 4,-.5"/>
<text text-anchor="middle" x="90.5" y="-7.5" font-family="Helvetica,sans-Serif" font-size="10.00" fill="#000000">FE_Q_iso_Q1&lt; dim, spacedim &gt;</text>
</g>
<!-- Node1 -->
<g id="node2" class="node">
<title>Node1</title>
<g id="a_node2"><a xlink:href="classFE__Q__Base.html" target="_top" xlink:title="FE_Q_Base\&lt; dim, spacedim \&gt;">
<polygon fill="#ffffff" stroke="#000000" points="8.5,-56.5 8.5,-75.5 172.5,-75.5 172.5,-56.5 8.5,-56.5"/>
<text text-anchor="middle" x="90.5" y="-63.5" font-family="Helvetica,sans-Serif" font-size="10.00" fill="#000000">FE_Q_Base&lt; dim, spacedim &gt;</text>
</a>
</g>
</g>
<!-- Node1&#45;&gt;Node0 -->
<g id="edge1" class="edge">
<title>Node1&#45;&gt;Node0</title>
<path fill="none" stroke="#191970" d="M90.5,-46.1575C90.5,-37.155 90.5,-26.9199 90.5,-19.6427"/>
<polygon fill="#191970" stroke="#191970" points="87.0001,-46.2455 90.5,-56.2455 94.0001,-46.2456 87.0001,-46.2455"/>
</g>
<!-- Node2 -->
<g id="node3" class="node">
<title>Node2</title>
<g id="a_node3"><a xlink:href="classFE__Poly.html" target="_top" xlink:title="FE_Poly\&lt; dim, spacedim \&gt;">
<polygon fill="#ffffff" stroke="#000000" points="16,-112.5 16,-131.5 165,-131.5 165,-112.5 16,-112.5"/>
<text text-anchor="middle" x="90.5" y="-119.5" font-family="Helvetica,sans-Serif" font-size="10.00" fill="#000000">FE_Poly&lt; dim, spacedim &gt;</text>
</a>
</g>
</g>
<!-- Node2&#45;&gt;Node1 -->
<g id="edge2" class="edge">
<title>Node2&#45;&gt;Node1</title>
<path fill="none" stroke="#191970" d="M90.5,-102.1575C90.5,-93.155 90.5,-82.9199 90.5,-75.6427"/>
<polygon fill="#191970" stroke="#191970" points="87.0001,-102.2455 90.5,-112.2455 94.0001,-102.2456 87.0001,-102.2455"/>
</g>
<!-- Node3 -->
<g id="node4" class="node">
<title>Node3</title>
<g id="a_node4"><a xlink:href="classFiniteElement.html" target="_top" xlink:title="FiniteElement\&lt; dim,\l spacedim \&gt;">
<polygon fill="#ffffff" stroke="#000000" points="32.5,-168.5 32.5,-198.5 148.5,-198.5 148.5,-168.5 32.5,-168.5"/>
<text text-anchor="start" x="40.5" y="-186.5" font-family="Helvetica,sans-Serif" font-size="10.00" fill="#000000">FiniteElement&lt; dim,</text>
<text text-anchor="middle" x="90.5" y="-175.5" font-family="Helvetica,sans-Serif" font-size="10.00" fill="#000000"> spacedim &gt;</text>
</a>
</g>
</g>
<!-- Node3&#45;&gt;Node2 -->
<g id="edge3" class="edge">
<title>Node3&#45;&gt;Node2</title>
<path fill="none" stroke="#191970" d="M90.5,-158.2849C90.5,-148.9858 90.5,-138.9883 90.5,-131.8469"/>
<polygon fill="#191970" stroke="#191970" points="87.0001,-158.2977 90.5,-168.2977 94.0001,-158.2978 87.0001,-158.2977"/>
</g>
<!-- Node4 -->
<g id="node5" class="node">
<title>Node4</title>
<g id="a_node5"><a xlink:href="classSubscriptor.html" target="_top" xlink:title="Subscriptor">
<polygon fill="#ffffff" stroke="#000000" points="0,-241 0,-260 71,-260 71,-241 0,-241"/>
<text text-anchor="middle" x="35.5" y="-248" font-family="Helvetica,sans-Serif" font-size="10.00" fill="#000000">Subscriptor</text>
</a>
</g>
</g>
<!-- Node4&#45;&gt;Node3 -->
<g id="edge4" class="edge">
<title>Node4&#45;&gt;Node3</title>
<path fill="none" stroke="#191970" d="M49.8309,-233.0423C58.6246,-222.33 69.7701,-208.7528 78.1687,-198.5218"/>
<polygon fill="#191970" stroke="#191970" points="47.0199,-230.9505 43.3802,-240.9005 52.4304,-235.392 47.0199,-230.9505"/>
</g>
<!-- Node5 -->
<g id="node6" class="node">
<title>Node5</title>
<g id="a_node6"><a xlink:href="classFiniteElementData.html" target="_top" xlink:title="FiniteElementData\&lt;\l dim \&gt;">
<polygon fill="#ffffff" stroke="#000000" points="89,-235.5 89,-265.5 204,-265.5 204,-235.5 89,-235.5"/>
<text text-anchor="start" x="97" y="-253.5" font-family="Helvetica,sans-Serif" font-size="10.00" fill="#000000">FiniteElementData&lt;</text>
<text text-anchor="middle" x="146.5" y="-242.5" font-family="Helvetica,sans-Serif" font-size="10.00" fill="#000000"> dim &gt;</text>
</a>
</g>
</g>
<!-- Node5&#45;&gt;Node3 -->
<g id="edge5" class="edge">
<title>Node5&#45;&gt;Node3</title>
<path fill="none" stroke="#191970" d="M127.1515,-227.3509C119.2089,-217.8482 110.2364,-207.1132 103.157,-198.6432"/>
<polygon fill="#191970" stroke="#191970" points="124.6941,-229.8684 133.7927,-235.2967 130.0651,-225.3792 124.6941,-229.8684"/>
</g>
</g>
</svg>
