<?xml version="1.0" encoding="UTF-8" standalone="no"?>
<!DOCTYPE svg PUBLIC "-//W3C//DTD SVG 1.1//EN"
 "http://www.w3.org/Graphics/SVG/1.1/DTD/svg11.dtd">
<!-- Generated by graphviz version 2.40.1 (20161225.0304)
 -->
<!-- Title: DoFHandler&lt; dim, spacedim &gt;::MGVertexDoFs Pages: 1 -->
<!--zoomable 458 -->
<svg id="main" version="1.1" xmlns="http://www.w3.org/2000/svg" xmlns:xlink="http://www.w3.org/1999/xlink" xml:space="preserve" onload="init(evt)">
<style type="text/css"><![CDATA[
.edge:hover path { stroke: red; }
.edge:hover polygon { stroke: red; fill: red; }
]]></style>
<script type="text/javascript"><![CDATA[
var edges = document.getElementsByTagName('g');
if (edges && edges.length) {
  for (var i=0;i<edges.length;i++) {
    if (edges[i].id.substr(0,4)=='edge') {
      edges[i].setAttribute('class','edge');
    }
  }
}
]]></script>
        <defs>
                <circle id="rim" cx="0" cy="0" r="7"/>
                <circle id="rim2" cx="0" cy="0" r="3.5"/>
                <g id="zoomPlus">
                        <use xlink:href="#rim" fill="#404040">
                                <set attributeName="fill" to="#808080" begin="zoomplus.mouseover" end="zoomplus.mouseout"/>
                        </use>
                        <path d="M-4,0h8M0,-4v8" fill="none" stroke="white" stroke-width="1.5" pointer-events="none"/>
                </g>
                <g id="zoomMin">
                        <use xlink:href="#rim" fill="#404040">
                                <set attributeName="fill" to="#808080" begin="zoomminus.mouseover" end="zoomminus.mouseout"/>
                        </use>
                        <path d="M-4,0h8" fill="none" stroke="white" stroke-width="1.5" pointer-events="none"/>
                </g>
                <g id="dirArrow">
                        <path fill="none" stroke="white" stroke-width="1.5" d="M0,-3.0v7 M-2.5,-0.5L0,-3.0L2.5,-0.5"/>
                </g>
               <g id="resetDef">
                       <use xlink:href="#rim2" fill="#404040">
                               <set attributeName="fill" to="#808080" begin="reset.mouseover" end="reset.mouseout"/>
                       </use>
               </g>
        </defs>

<script type="text/javascript">
var viewWidth = 261;
var viewHeight = 458;
var sectionId = 'dynsection-0';
</script>
<script xlink:href="svgpan.js"/>
<svg id="graph" class="graph">
<g id="viewport">
<title>DoFHandler&lt; dim, spacedim &gt;::MGVertexDoFs</title>
<polygon fill="#ffffff" stroke="transparent" points="-4,4 -4,-454 257,-454 257,4 -4,4"/>
<!-- Node1 -->
<g id="node1" class="node">
<title>Node1</title>
<polygon fill="#bfbfbf" stroke="#000000" points="0,-.5 0,-123.5 142,-123.5 142,-.5 0,-.5"/>
<text text-anchor="start" x="8" y="-111.5" font-family="Helvetica,sans-Serif" font-size="10.00" fill="#000000">DoFHandler&lt; dim, spacedim</text>
<text text-anchor="middle" x="71" y="-100.5" font-family="Helvetica,sans-Serif" font-size="10.00" fill="#000000"> &gt;::MGVertexDoFs</text>
<polyline fill="none" stroke="#000000" points="0,-93.5 142,-93.5 "/>
<text text-anchor="middle" x="71" y="-81.5" font-family="Helvetica,sans-Serif" font-size="10.00" fill="#000000"> </text>
<polyline fill="none" stroke="#000000" points="0,-74.5 142,-74.5 "/>
<text text-anchor="start" x="8" y="-62.5" font-family="Helvetica,sans-Serif" font-size="10.00" fill="#000000">+ MGVertexDoFs()</text>
<text text-anchor="start" x="8" y="-51.5" font-family="Helvetica,sans-Serif" font-size="10.00" fill="#000000">+ init()</text>
<text text-anchor="start" x="8" y="-40.5" font-family="Helvetica,sans-Serif" font-size="10.00" fill="#000000">+ get_coarsest_level()</text>
<text text-anchor="start" x="8" y="-29.5" font-family="Helvetica,sans-Serif" font-size="10.00" fill="#000000">+ get_finest_level()</text>
<text text-anchor="start" x="8" y="-18.5" font-family="Helvetica,sans-Serif" font-size="10.00" fill="#000000">+ get_index()</text>
<text text-anchor="start" x="8" y="-7.5" font-family="Helvetica,sans-Serif" font-size="10.00" fill="#000000">+ set_index()</text>
</g>
<!-- Node2 -->
<g id="node2" class="node">
<title>Node2</title>
<polygon fill="#ffffff" stroke="#bfbfbf" points="111.5,-171.5 111.5,-239.5 240.5,-239.5 240.5,-171.5 111.5,-171.5"/>
<text text-anchor="start" x="119.5" y="-227.5" font-family="Helvetica,sans-Serif" font-size="10.00" fill="#000000">std::unique_ptr&lt; unsigned</text>
<text text-anchor="middle" x="176" y="-216.5" font-family="Helvetica,sans-Serif" font-size="10.00" fill="#000000"> int[]&gt;</text>
<polyline fill="none" stroke="#bfbfbf" points="111.5,-209.5 240.5,-209.5 "/>
<text text-anchor="middle" x="176" y="-197.5" font-family="Helvetica,sans-Serif" font-size="10.00" fill="#000000"> </text>
<polyline fill="none" stroke="#bfbfbf" points="111.5,-190.5 240.5,-190.5 "/>
<text text-anchor="start" x="119.5" y="-178.5" font-family="Helvetica,sans-Serif" font-size="10.00" fill="#000000">+ operator&#45;&gt;()</text>
</g>
<!-- Node2&#45;&gt;Node1 -->
<g id="edge1" class="edge">
<title>Node2&#45;&gt;Node1</title>
<path fill="none" stroke="#404040" d="M151.1165,-171.4925C142.7561,-160.0666 133.0895,-146.8556 123.4262,-133.6492"/>
<polygon fill="none" stroke="#404040" points="123.1452,-133.265 116.374,-130.7849 116.059,-123.5807 122.8302,-126.0608 123.1452,-133.265"/>
<text text-anchor="middle" x="154.5" y="-145" font-family="Helvetica,sans-Serif" font-size="10.00" fill="#000000"> &#45;indices</text>
</g>
<!-- Node3 -->
<g id="node3" class="node">
<title>Node3</title>
<g id="a_node3"><a xlink:href="classint.html" target="_top" xlink:title="{int\n||}">
<polygon fill="#ffffff" stroke="#000000" points="44.5,-287.5 44.5,-344.5 73.5,-344.5 73.5,-287.5 44.5,-287.5"/>
<text text-anchor="middle" x="59" y="-332.5" font-family="Helvetica,sans-Serif" font-size="10.00" fill="#000000">int</text>
<polyline fill="none" stroke="#000000" points="44.5,-325.5 73.5,-325.5 "/>
<text text-anchor="middle" x="59" y="-313.5" font-family="Helvetica,sans-Serif" font-size="10.00" fill="#000000"> </text>
<polyline fill="none" stroke="#000000" points="44.5,-306.5 73.5,-306.5 "/>
<text text-anchor="middle" x="59" y="-294.5" font-family="Helvetica,sans-Serif" font-size="10.00" fill="#000000"> </text>
</a>
</g>
</g>
<!-- Node3&#45;&gt;Node1 -->
<g id="edge5" class="edge">
<title>Node3&#45;&gt;Node1</title>
<path fill="none" stroke="#404040" d="M47.6382,-287.2647C42.6913,-273.2497 37.4663,-256 35,-240 30.3281,-209.6913 30.1294,-201.2774 35,-171 36.8872,-159.2682 39.8483,-147.0883 43.2805,-135.3055"/>
<polygon fill="none" stroke="#404040" points="43.3257,-135.1581 41.2627,-128.2483 46.8475,-123.6865 48.9105,-130.5962 43.3257,-135.1581"/>
<text text-anchor="middle" x="68.5" y="-208.5" font-family="Helvetica,sans-Serif" font-size="10.00" fill="#000000"> &#45;finest_level</text>
<text text-anchor="middle" x="68.5" y="-197.5" font-family="Helvetica,sans-Serif" font-size="10.00" fill="#000000">&#45;coarsest_level</text>
</g>
<!-- Node3&#45;&gt;Node2 -->
<g id="edge2" class="edge">
<title>Node3&#45;&gt;Node2</title>
<path fill="none" stroke="#404040" d="M73.8181,-302.0051C88.1732,-288.4475 110.6814,-267.1898 130.9232,-248.0726"/>
<polygon fill="none" stroke="#404040" points="131.0026,-247.9976 132.6182,-240.9697 139.7268,-239.758 138.1112,-246.7859 131.0026,-247.9976"/>
<text text-anchor="middle" x="128.5" y="-261" font-family="Helvetica,sans-Serif" font-size="10.00" fill="#000000"> +ptr</text>
</g>
<!-- Node4 -->
<g id="node4" class="node">
<title>Node4</title>
<g id="a_node4"><a xlink:title="STL class. ">
<polygon fill="#ffffff" stroke="#bfbfbf" points="123.5,-287.5 123.5,-344.5 228.5,-344.5 228.5,-287.5 123.5,-287.5"/>
<text text-anchor="middle" x="176" y="-332.5" font-family="Helvetica,sans-Serif" font-size="10.00" fill="#000000">std::unique_ptr&lt; T &gt;</text>
<polyline fill="none" stroke="#bfbfbf" points="123.5,-325.5 228.5,-325.5 "/>
<text text-anchor="middle" x="176" y="-313.5" font-family="Helvetica,sans-Serif" font-size="10.00" fill="#000000"> </text>
<polyline fill="none" stroke="#bfbfbf" points="123.5,-306.5 228.5,-306.5 "/>
<text text-anchor="start" x="131.5" y="-294.5" font-family="Helvetica,sans-Serif" font-size="10.00" fill="#000000">+ operator&#45;&gt;()</text>
</a>
</g>
</g>
<!-- Node4&#45;&gt;Node2 -->
<g id="edge3" class="edge">
<title>Node4&#45;&gt;Node2</title>
<path fill="none" stroke="#ffa500" d="M176,-276.9162C176,-264.7375 176,-251.4096 176,-239.6001"/>
<polygon fill="#ffa500" stroke="#ffa500" points="172.5001,-277.2559 176,-287.2559 179.5001,-277.2559 172.5001,-277.2559"/>
<text text-anchor="middle" x="214.5" y="-261" font-family="Helvetica,sans-Serif" font-size="10.00" fill="#000000"> &lt; unsigned int[]&gt;</text>
</g>
<!-- Node5 -->
<g id="node5" class="node">
<title>Node5</title>
<polygon fill="#ffffff" stroke="#bfbfbf" points="161.5,-392.5 161.5,-449.5 190.5,-449.5 190.5,-392.5 161.5,-392.5"/>
<text text-anchor="middle" x="176" y="-437.5" font-family="Helvetica,sans-Serif" font-size="10.00" fill="#000000">T</text>
<polyline fill="none" stroke="#bfbfbf" points="161.5,-430.5 190.5,-430.5 "/>
<text text-anchor="middle" x="176" y="-418.5" font-family="Helvetica,sans-Serif" font-size="10.00" fill="#000000"> </text>
<polyline fill="none" stroke="#bfbfbf" points="161.5,-411.5 190.5,-411.5 "/>
<text text-anchor="middle" x="176" y="-399.5" font-family="Helvetica,sans-Serif" font-size="10.00" fill="#000000"> </text>
</g>
<!-- Node5&#45;&gt;Node4 -->
<g id="edge4" class="edge">
<title>Node5&#45;&gt;Node4</title>
<path fill="none" stroke="#404040" d="M176,-392.3083C176,-381.4281 176,-368.817 176,-357.0192"/>
<polygon fill="none" stroke="#404040" points="176.0001,-356.657 172,-350.6571 176,-344.657 180,-350.657 176.0001,-356.657"/>
<text text-anchor="middle" x="186.5" y="-366" font-family="Helvetica,sans-Serif" font-size="10.00" fill="#000000"> +ptr</text>
</g>
</g>
</svg>
        <g id="navigator" transform="translate(0 0)" fill="#404254">
                <rect fill="#f2f5e9" fill-opacity="0.5" stroke="#606060" stroke-width=".5" x="0" y="0" width="60" height="60"/>
                <use id="zoomplus" xlink:href="#zoomPlus" x="17" y="9" onmousedown="handleZoom(evt,'in')"/>
                <use id="zoomminus" xlink:href="#zoomMin" x="42" y="9" onmousedown="handleZoom(evt,'out')"/>
                <use id="reset" xlink:href="#resetDef" x="30" y="36" onmousedown="handleReset()"/>
                <g id="arrowUp" xlink:href="#dirArrow" transform="translate(30 24)" onmousedown="handlePan(0,-1)">
                  <use xlink:href="#rim" fill="#404040">
                        <set attributeName="fill" to="#808080" begin="arrowUp.mouseover" end="arrowUp.mouseout"/>
                  </use>
                  <path fill="none" stroke="white" stroke-width="1.5" d="M0,-3.0v7 M-2.5,-0.5L0,-3.0L2.5,-0.5"/>
                </g>
                <g id="arrowRight" xlink:href="#dirArrow" transform="rotate(90) translate(36 -43)" onmousedown="handlePan(1,0)">
                  <use xlink:href="#rim" fill="#404040">
                        <set attributeName="fill" to="#808080" begin="arrowRight.mouseover" end="arrowRight.mouseout"/>
                  </use>
                  <path fill="none" stroke="white" stroke-width="1.5" d="M0,-3.0v7 M-2.5,-0.5L0,-3.0L2.5,-0.5"/>
                </g>
                <g id="arrowDown" xlink:href="#dirArrow" transform="rotate(180) translate(-30 -48)" onmousedown="handlePan(0,1)">
                  <use xlink:href="#rim" fill="#404040">
                        <set attributeName="fill" to="#808080" begin="arrowDown.mouseover" end="arrowDown.mouseout"/>
                  </use>
                  <path fill="none" stroke="white" stroke-width="1.5" d="M0,-3.0v7 M-2.5,-0.5L0,-3.0L2.5,-0.5"/>
                </g>
                <g id="arrowLeft" xlink:href="#dirArrow" transform="rotate(270) translate(-36 17)" onmousedown="handlePan(-1,0)">
                  <use xlink:href="#rim" fill="#404040">
                        <set attributeName="fill" to="#808080" begin="arrowLeft.mouseover" end="arrowLeft.mouseout"/>
                  </use>
                  <path fill="none" stroke="white" stroke-width="1.5" d="M0,-3.0v7 M-2.5,-0.5L0,-3.0L2.5,-0.5"/>
                </g>
        </g>
        <svg viewBox="0 0 15 15" width="100%" height="30px" preserveAspectRatio="xMaxYMin meet">
         <g id="arrow_out" transform="scale(0.3 0.3)">
          <a xlink:href="classDoFHandler_1_1MGVertexDoFs__coll__graph_org.svg" target="_base">
           <rect id="button" ry="5" rx="5" y="6" x="6" height="38" width="38"
                fill="#f2f5e9" fill-opacity="0.5" stroke="#606060" stroke-width="1.0"/>
           <path id="arrow"
             d="M 11.500037,31.436501 C 11.940474,20.09759 22.043105,11.32322 32.158766,21.979434 L 37.068811,17.246167 C 37.068811,17.246167 37.088388,32 37.088388,32 L 22.160133,31.978069 C 22.160133,31.978069 26.997745,27.140456 26.997745,27.140456 C 18.528582,18.264221 13.291696,25.230495 11.500037,31.436501 z"
             style="fill:#404040;"/>
          </a>
         </g>
        </svg>
</svg>
