<?xml version="1.0" encoding="UTF-8" standalone="no"?>
<!DOCTYPE svg PUBLIC "-//W3C//DTD SVG 1.1//EN"
 "http://www.w3.org/Graphics/SVG/1.1/DTD/svg11.dtd">
<!-- Generated by graphviz version 2.40.1 (20161225.0304)
 -->
<!-- Title: TensorProductManifold&lt; dim, dim_A, spacedim_A, chartdim_A, dim_B, spacedim_B, chartdim_B &gt; Pages: 1 -->
<svg width="292pt" height="343pt"
 viewBox="0.00 0.00 291.50 343.00" xmlns="http://www.w3.org/2000/svg" xmlns:xlink="http://www.w3.org/1999/xlink">
<g id="graph0" class="graph" transform="scale(1 1) rotate(0) translate(4 339)">
<title>TensorProductManifold&lt; dim, dim_A, spacedim_A, chartdim_A, dim_B, spacedim_B, chartdim_B &gt;</title>
<polygon fill="#ffffff" stroke="transparent" points="-4,4 -4,-339 287.5,-339 287.5,4 -4,4"/>
<!-- Node0 -->
<g id="node1" class="node">
<title>Node0</title>
<polygon fill="#bfbfbf" stroke="#000000" points="6.5,-.5 6.5,-52.5 158.5,-52.5 158.5,-.5 6.5,-.5"/>
<text text-anchor="start" x="14.5" y="-40.5" font-family="Helvetica,sans-Serif" font-size="10.00" fill="#000000">TensorProductManifold</text>
<text text-anchor="start" x="14.5" y="-29.5" font-family="Helvetica,sans-Serif" font-size="10.00" fill="#000000">&lt; dim, dim_A, spacedim</text>
<text text-anchor="start" x="14.5" y="-18.5" font-family="Helvetica,sans-Serif" font-size="10.00" fill="#000000">_A, chartdim_A, dim_B,</text>
<text text-anchor="middle" x="82.5" y="-7.5" font-family="Helvetica,sans-Serif" font-size="10.00" fill="#000000"> spacedim_B, chartdim_B &gt;</text>
</g>
<!-- Node1 -->
<g id="node2" class="node">
<title>Node1</title>
<g id="a_node2"><a xlink:href="classChartManifold.html" target="_top" xlink:title="ChartManifold\&lt; dim,\l spacedim_A+spacedim\l_B, chartdim_A+chartdim_B \&gt;">
<polygon fill="#ffffff" stroke="#000000" points="0,-90.5 0,-131.5 165,-131.5 165,-90.5 0,-90.5"/>
<text text-anchor="start" x="8" y="-119.5" font-family="Helvetica,sans-Serif" font-size="10.00" fill="#000000">ChartManifold&lt; dim,</text>
<text text-anchor="start" x="8" y="-108.5" font-family="Helvetica,sans-Serif" font-size="10.00" fill="#000000"> spacedim_A+spacedim</text>
<text text-anchor="middle" x="82.5" y="-97.5" font-family="Helvetica,sans-Serif" font-size="10.00" fill="#000000">_B, chartdim_A+chartdim_B &gt;</text>
</a>
</g>
</g>
<!-- Node1&#45;&gt;Node0 -->
<g id="edge1" class="edge">
<title>Node1&#45;&gt;Node0</title>
<path fill="none" stroke="#191970" d="M82.5,-79.9924C82.5,-70.9926 82.5,-61.2588 82.5,-52.5927"/>
<polygon fill="#191970" stroke="#191970" points="79.0001,-80.1123 82.5,-90.1124 86.0001,-80.1124 79.0001,-80.1123"/>
</g>
<!-- Node2 -->
<g id="node3" class="node">
<title>Node2</title>
<g id="a_node3"><a xlink:href="classManifold.html" target="_top" xlink:title="Manifold\&lt; dim, spacedim \&gt;">
<polygon fill="#ffffff" stroke="#000000" points="2,-258.5 2,-277.5 155,-277.5 155,-258.5 2,-258.5"/>
<text text-anchor="middle" x="78.5" y="-265.5" font-family="Helvetica,sans-Serif" font-size="10.00" fill="#000000">Manifold&lt; dim, spacedim &gt;</text>
</a>
</g>
</g>
<!-- Node2&#45;&gt;Node1 -->
<g id="edge2" class="edge">
<title>Node2&#45;&gt;Node1</title>
<path fill="none" stroke="#191970" d="M79.0067,-248.113C79.769,-218.1925 81.2037,-161.8811 81.976,-131.5666"/>
<polygon fill="#191970" stroke="#191970" points="75.5061,-248.093 78.7502,-258.1789 82.5039,-248.2714 75.5061,-248.093"/>
</g>
<!-- Node4 -->
<g id="node5" class="node">
<title>Node4</title>
<g id="a_node5"><a xlink:href="classChartManifold.html" target="_top" xlink:title="ChartManifold\&lt; dim,\l spacedim, chartdim \&gt;">
<polygon fill="#ffffff" stroke="#000000" points="94.5,-190.5 94.5,-220.5 222.5,-220.5 222.5,-190.5 94.5,-190.5"/>
<text text-anchor="start" x="102.5" y="-208.5" font-family="Helvetica,sans-Serif" font-size="10.00" fill="#000000">ChartManifold&lt; dim,</text>
<text text-anchor="middle" x="158.5" y="-197.5" font-family="Helvetica,sans-Serif" font-size="10.00" fill="#000000"> spacedim, chartdim &gt;</text>
</a>
</g>
</g>
<!-- Node2&#45;&gt;Node4 -->
<g id="edge5" class="edge">
<title>Node2&#45;&gt;Node4</title>
<path fill="none" stroke="#191970" d="M98.9657,-252.0112C111.3585,-242.3293 127.067,-230.057 139.2362,-220.5498"/>
<polygon fill="#191970" stroke="#191970" points="96.7255,-249.3198 91,-258.2344 101.035,-254.836 96.7255,-249.3198"/>
</g>
<!-- Node3 -->
<g id="node4" class="node">
<title>Node3</title>
<g id="a_node4"><a xlink:href="classSubscriptor.html" target="_top" xlink:title="Subscriptor">
<polygon fill="#ffffff" stroke="#000000" points="43,-315.5 43,-334.5 114,-334.5 114,-315.5 43,-315.5"/>
<text text-anchor="middle" x="78.5" y="-322.5" font-family="Helvetica,sans-Serif" font-size="10.00" fill="#000000">Subscriptor</text>
</a>
</g>
</g>
<!-- Node3&#45;&gt;Node2 -->
<g id="edge3" class="edge">
<title>Node3&#45;&gt;Node2</title>
<path fill="none" stroke="#191970" d="M78.5,-305.2342C78.5,-295.8491 78.5,-285.0651 78.5,-277.5265"/>
<polygon fill="#191970" stroke="#191970" points="75.0001,-305.3307 78.5,-315.3307 82.0001,-305.3308 75.0001,-305.3307"/>
</g>
<!-- Node4&#45;&gt;Node1 -->
<g id="edge4" class="edge">
<title>Node4&#45;&gt;Node1</title>
<path fill="none" stroke="#ffa500" stroke-dasharray="5,2" d="M139.8228,-182.2763C127.3967,-166.8255 111.2146,-146.7044 99.2138,-131.7823"/>
<polygon fill="#ffa500" stroke="#ffa500" points="137.2948,-184.7178 146.2893,-190.3169 142.7496,-180.3309 137.2948,-184.7178"/>
<text text-anchor="start" x="129.5" y="-164" font-family="Helvetica,sans-Serif" font-size="10.00" fill="#000000"> &lt; dim, spacedim_A+spacedim</text>
<text text-anchor="middle" x="206.5" y="-153" font-family="Helvetica,sans-Serif" font-size="10.00" fill="#000000">_B, chartdim_A+chartdim_B &gt;</text>
</g>
</g>
</svg>
