<?xml version="1.0" encoding="UTF-8" standalone="no"?>
<!DOCTYPE svg PUBLIC "-//W3C//DTD SVG 1.1//EN"
 "http://www.w3.org/Graphics/SVG/1.1/DTD/svg11.dtd">
<!-- Generated by graphviz version 2.40.1 (20161225.0304)
 -->
<!-- Title: internal::SolverIDRImplementation::TmpVectors&lt; VectorType &gt; Pages: 1 -->
<svg width="328pt" height="458pt"
 viewBox="0.00 0.00 327.50 458.00" xmlns="http://www.w3.org/2000/svg" xmlns:xlink="http://www.w3.org/1999/xlink">
<g id="graph0" class="graph" transform="scale(1 1) rotate(0) translate(4 454)">
<title>internal::SolverIDRImplementation::TmpVectors&lt; VectorType &gt;</title>
<polygon fill="#ffffff" stroke="transparent" points="-4,4 -4,-454 323.5,-454 323.5,4 -4,4"/>
<!-- Node1 -->
<g id="node1" class="node">
<title>Node1</title>
<polygon fill="#bfbfbf" stroke="#000000" points="73,-.5 73,-101.5 240,-101.5 240,-.5 73,-.5"/>
<text text-anchor="start" x="81" y="-89.5" font-family="Helvetica,sans-Serif" font-size="10.00" fill="#000000">internal::SolverIDRImplementation</text>
<text text-anchor="middle" x="156.5" y="-78.5" font-family="Helvetica,sans-Serif" font-size="10.00" fill="#000000">::TmpVectors&lt; VectorType &gt;</text>
<polyline fill="none" stroke="#000000" points="73,-71.5 240,-71.5 "/>
<text text-anchor="middle" x="156.5" y="-59.5" font-family="Helvetica,sans-Serif" font-size="10.00" fill="#000000"> </text>
<polyline fill="none" stroke="#000000" points="73,-52.5 240,-52.5 "/>
<text text-anchor="start" x="81" y="-40.5" font-family="Helvetica,sans-Serif" font-size="10.00" fill="#000000">+ TmpVectors()</text>
<text text-anchor="start" x="81" y="-29.5" font-family="Helvetica,sans-Serif" font-size="10.00" fill="#000000">+ ~TmpVectors()</text>
<text text-anchor="start" x="81" y="-18.5" font-family="Helvetica,sans-Serif" font-size="10.00" fill="#000000">+ operator[]()</text>
<text text-anchor="start" x="81" y="-7.5" font-family="Helvetica,sans-Serif" font-size="10.00" fill="#000000">+ operator()()</text>
</g>
<!-- Node2 -->
<g id="node2" class="node">
<title>Node2</title>
<polygon fill="#ffffff" stroke="#bfbfbf" points="0,-149.5 0,-228.5 143,-228.5 143,-149.5 0,-149.5"/>
<text text-anchor="start" x="8" y="-216.5" font-family="Helvetica,sans-Serif" font-size="10.00" fill="#000000">std::vector&lt; typename</text>
<text text-anchor="start" x="8" y="-205.5" font-family="Helvetica,sans-Serif" font-size="10.00" fill="#000000"> VectorMemory&lt; VectorType</text>
<text text-anchor="middle" x="71.5" y="-194.5" font-family="Helvetica,sans-Serif" font-size="10.00" fill="#000000"> &gt;::Pointer &gt;</text>
<polyline fill="none" stroke="#bfbfbf" points="0,-187.5 143,-187.5 "/>
<text text-anchor="middle" x="71.5" y="-175.5" font-family="Helvetica,sans-Serif" font-size="10.00" fill="#000000"> </text>
<polyline fill="none" stroke="#bfbfbf" points="0,-168.5 143,-168.5 "/>
<text text-anchor="middle" x="71.5" y="-156.5" font-family="Helvetica,sans-Serif" font-size="10.00" fill="#000000"> </text>
</g>
<!-- Node2&#45;&gt;Node1 -->
<g id="edge1" class="edge">
<title>Node2&#45;&gt;Node1</title>
<path fill="none" stroke="#404040" d="M95.8576,-149.4547C103.0246,-137.819 111.0389,-124.8074 118.8335,-112.1526"/>
<polygon fill="none" stroke="#404040" points="119.0126,-111.8619 118.7534,-104.6554 125.3059,-101.6445 125.565,-108.851 119.0126,-111.8619"/>
<text text-anchor="middle" x="127" y="-123" font-family="Helvetica,sans-Serif" font-size="10.00" fill="#000000"> &#45;data</text>
</g>
<!-- Node3 -->
<g id="node3" class="node">
<title>Node3</title>
<polygon fill="#ffffff" stroke="#bfbfbf" points="12,-287.5 12,-344.5 59,-344.5 59,-287.5 12,-287.5"/>
<text text-anchor="middle" x="35.5" y="-332.5" font-family="Helvetica,sans-Serif" font-size="10.00" fill="#000000">Pointer</text>
<polyline fill="none" stroke="#bfbfbf" points="12,-325.5 59,-325.5 "/>
<text text-anchor="middle" x="35.5" y="-313.5" font-family="Helvetica,sans-Serif" font-size="10.00" fill="#000000"> </text>
<polyline fill="none" stroke="#bfbfbf" points="12,-306.5 59,-306.5 "/>
<text text-anchor="middle" x="35.5" y="-294.5" font-family="Helvetica,sans-Serif" font-size="10.00" fill="#000000"> </text>
</g>
<!-- Node3&#45;&gt;Node2 -->
<g id="edge2" class="edge">
<title>Node3&#45;&gt;Node2</title>
<path fill="none" stroke="#404040" d="M36.0861,-287.3587C36.9329,-274.7774 38.7424,-259.9515 42.5,-247 43.1587,-244.7295 43.9046,-242.4411 44.7187,-240.1532"/>
<polygon fill="none" stroke="#404040" points="44.8047,-239.9387 43.3262,-232.8808 49.2725,-228.8014 50.7511,-235.8593 44.8047,-239.9387"/>
<text text-anchor="middle" x="67" y="-255.5" font-family="Helvetica,sans-Serif" font-size="10.00" fill="#000000"> +elements</text>
</g>
<!-- Node4 -->
<g id="node4" class="node">
<title>Node4</title>
<g id="a_node4"><a xlink:title="STL class. ">
<polygon fill="#ffffff" stroke="#bfbfbf" points="77,-287.5 77,-344.5 164,-344.5 164,-287.5 77,-287.5"/>
<text text-anchor="middle" x="120.5" y="-332.5" font-family="Helvetica,sans-Serif" font-size="10.00" fill="#000000">std::vector&lt; T &gt;</text>
<polyline fill="none" stroke="#bfbfbf" points="77,-325.5 164,-325.5 "/>
<text text-anchor="middle" x="120.5" y="-313.5" font-family="Helvetica,sans-Serif" font-size="10.00" fill="#000000"> </text>
<polyline fill="none" stroke="#bfbfbf" points="77,-306.5 164,-306.5 "/>
<text text-anchor="middle" x="120.5" y="-294.5" font-family="Helvetica,sans-Serif" font-size="10.00" fill="#000000"> </text>
</a>
</g>
</g>
<!-- Node4&#45;&gt;Node2 -->
<g id="edge3" class="edge">
<title>Node4&#45;&gt;Node2</title>
<path fill="none" stroke="#ffa500" d="M105.7449,-277.7571C99.7965,-262.3399 92.9325,-244.5495 86.9188,-228.963"/>
<polygon fill="#ffa500" stroke="#ffa500" points="102.6384,-279.4289 109.5034,-287.4987 109.1691,-276.9092 102.6384,-279.4289"/>
<text text-anchor="start" x="102.5" y="-261" font-family="Helvetica,sans-Serif" font-size="10.00" fill="#000000"> &lt; typename VectorMemory</text>
<text text-anchor="middle" x="163.5" y="-250" font-family="Helvetica,sans-Serif" font-size="10.00" fill="#000000">&lt; VectorType &gt;::Pointer &gt;</text>
</g>
<!-- Node5 -->
<g id="node5" class="node">
<title>Node5</title>
<polygon fill="#ffffff" stroke="#bfbfbf" points="106,-392.5 106,-449.5 135,-449.5 135,-392.5 106,-392.5"/>
<text text-anchor="middle" x="120.5" y="-437.5" font-family="Helvetica,sans-Serif" font-size="10.00" fill="#000000">T</text>
<polyline fill="none" stroke="#bfbfbf" points="106,-430.5 135,-430.5 "/>
<text text-anchor="middle" x="120.5" y="-418.5" font-family="Helvetica,sans-Serif" font-size="10.00" fill="#000000"> </text>
<polyline fill="none" stroke="#bfbfbf" points="106,-411.5 135,-411.5 "/>
<text text-anchor="middle" x="120.5" y="-399.5" font-family="Helvetica,sans-Serif" font-size="10.00" fill="#000000"> </text>
</g>
<!-- Node5&#45;&gt;Node4 -->
<g id="edge4" class="edge">
<title>Node5&#45;&gt;Node4</title>
<path fill="none" stroke="#404040" d="M120.5,-392.3083C120.5,-381.4281 120.5,-368.817 120.5,-357.0192"/>
<polygon fill="none" stroke="#404040" points="120.5001,-356.657 116.5,-350.6571 120.5,-344.657 124.5,-350.657 120.5001,-356.657"/>
<text text-anchor="middle" x="145" y="-366" font-family="Helvetica,sans-Serif" font-size="10.00" fill="#000000"> +elements</text>
</g>
<!-- Node6 -->
<g id="node6" class="node">
<title>Node6</title>
<polygon fill="#ffffff" stroke="#bfbfbf" points="161.5,-160.5 161.5,-217.5 319.5,-217.5 319.5,-160.5 161.5,-160.5"/>
<text text-anchor="middle" x="240.5" y="-205.5" font-family="Helvetica,sans-Serif" font-size="10.00" fill="#000000">VectorMemory&lt; VectorType &gt; &amp;</text>
<polyline fill="none" stroke="#bfbfbf" points="161.5,-198.5 319.5,-198.5 "/>
<text text-anchor="middle" x="240.5" y="-186.5" font-family="Helvetica,sans-Serif" font-size="10.00" fill="#000000"> </text>
<polyline fill="none" stroke="#bfbfbf" points="161.5,-179.5 319.5,-179.5 "/>
<text text-anchor="middle" x="240.5" y="-167.5" font-family="Helvetica,sans-Serif" font-size="10.00" fill="#000000"> </text>
</g>
<!-- Node6&#45;&gt;Node1 -->
<g id="edge5" class="edge">
<title>Node6&#45;&gt;Node1</title>
<path fill="none" stroke="#404040" d="M223.0951,-160.4063C214.5391,-146.35 203.8805,-128.8394 193.6163,-111.9768"/>
<polygon fill="none" stroke="#404040" points="193.5381,-111.8483 187.0016,-108.8029 187.2987,-101.5979 193.8352,-104.6433 193.5381,-111.8483"/>
<text text-anchor="middle" x="217.5" y="-123" font-family="Helvetica,sans-Serif" font-size="10.00" fill="#000000"> &#45;mem</text>
</g>
</g>
</svg>
