<?xml version="1.0" encoding="UTF-8" standalone="no"?>
<!DOCTYPE svg PUBLIC "-//W3C//DTD SVG 1.1//EN"
 "http://www.w3.org/Graphics/SVG/1.1/DTD/svg11.dtd">
<!-- Generated by graphviz version 2.40.1 (20161225.0304)
 -->
<!-- Title: Utilities::MPI::ConsensusAlgorithms::Selector&lt; T1, T2 &gt; Pages: 1 -->
<svg width="403pt" height="364pt"
 viewBox="0.00 0.00 403.00 364.00" xmlns="http://www.w3.org/2000/svg" xmlns:xlink="http://www.w3.org/1999/xlink">
<g id="graph0" class="graph" transform="scale(1 1) rotate(0) translate(4 360)">
<title>Utilities::MPI::ConsensusAlgorithms::Selector&lt; T1, T2 &gt;</title>
<polygon fill="#ffffff" stroke="transparent" points="-4,4 -4,-360 399,-360 399,4 -4,4"/>
<!-- Node2 -->
<g id="node1" class="node">
<title>Node2</title>
<polygon fill="#bfbfbf" stroke="#000000" points="170.5,-.5 170.5,-90.5 322.5,-90.5 322.5,-.5 170.5,-.5"/>
<text text-anchor="start" x="178.5" y="-78.5" font-family="Helvetica,sans-Serif" font-size="10.00" fill="#000000">Utilities::MPI::Consensus</text>
<text text-anchor="middle" x="246.5" y="-67.5" font-family="Helvetica,sans-Serif" font-size="10.00" fill="#000000">Algorithms::Selector&lt; T1, T2 &gt;</text>
<polyline fill="none" stroke="#000000" points="170.5,-60.5 322.5,-60.5 "/>
<text text-anchor="middle" x="246.5" y="-48.5" font-family="Helvetica,sans-Serif" font-size="10.00" fill="#000000"> </text>
<polyline fill="none" stroke="#000000" points="170.5,-41.5 322.5,-41.5 "/>
<text text-anchor="start" x="178.5" y="-29.5" font-family="Helvetica,sans-Serif" font-size="10.00" fill="#000000">+ Selector()</text>
<text text-anchor="start" x="178.5" y="-18.5" font-family="Helvetica,sans-Serif" font-size="10.00" fill="#000000">+ ~Selector()</text>
<text text-anchor="start" x="178.5" y="-7.5" font-family="Helvetica,sans-Serif" font-size="10.00" fill="#000000">+ run()</text>
</g>
<!-- Node3 -->
<g id="node2" class="node">
<title>Node3</title>
<g id="a_node2"><a xlink:href="classUtilities_1_1MPI_1_1ConsensusAlgorithms_1_1Interface.html" target="_top" xlink:title="{Utilities::MPI::Consensus\lAlgorithms::Interface\&lt;\l T1, T2 \&gt;\n||+ Interface()\l+ ~Interface()\l+ run()\l}">
<polygon fill="#ffffff" stroke="#000000" points="105,-138.5 105,-239.5 234,-239.5 234,-138.5 105,-138.5"/>
<text text-anchor="start" x="113" y="-227.5" font-family="Helvetica,sans-Serif" font-size="10.00" fill="#000000">Utilities::MPI::Consensus</text>
<text text-anchor="start" x="113" y="-216.5" font-family="Helvetica,sans-Serif" font-size="10.00" fill="#000000">Algorithms::Interface&lt;</text>
<text text-anchor="middle" x="169.5" y="-205.5" font-family="Helvetica,sans-Serif" font-size="10.00" fill="#000000"> T1, T2 &gt;</text>
<polyline fill="none" stroke="#000000" points="105,-198.5 234,-198.5 "/>
<text text-anchor="middle" x="169.5" y="-186.5" font-family="Helvetica,sans-Serif" font-size="10.00" fill="#000000"> </text>
<polyline fill="none" stroke="#000000" points="105,-179.5 234,-179.5 "/>
<text text-anchor="start" x="113" y="-167.5" font-family="Helvetica,sans-Serif" font-size="10.00" fill="#000000">+ Interface()</text>
<text text-anchor="start" x="113" y="-156.5" font-family="Helvetica,sans-Serif" font-size="10.00" fill="#000000">+ ~Interface()</text>
<text text-anchor="start" x="113" y="-145.5" font-family="Helvetica,sans-Serif" font-size="10.00" fill="#000000">+ run()</text>
</a>
</g>
</g>
<!-- Node3&#45;&gt;Node2 -->
<g id="edge1" class="edge">
<title>Node3&#45;&gt;Node2</title>
<path fill="none" stroke="#191970" d="M201.3938,-129.5616C208.3346,-116.6263 215.5708,-103.1408 222.1632,-90.855"/>
<polygon fill="none" stroke="#191970" points="198.2915,-127.9408 196.6473,-138.4073 204.4596,-131.2505 198.2915,-127.9408"/>
</g>
<!-- Node4 -->
<g id="node3" class="node">
<title>Node4</title>
<g id="a_node3"><a xlink:href="classbool.html" target="_top" xlink:title="{bool\n||}">
<polygon fill="#ffffff" stroke="#000000" points="0,-298.5 0,-355.5 35,-355.5 35,-298.5 0,-298.5"/>
<text text-anchor="middle" x="17.5" y="-343.5" font-family="Helvetica,sans-Serif" font-size="10.00" fill="#000000">bool</text>
<polyline fill="none" stroke="#000000" points="0,-336.5 35,-336.5 "/>
<text text-anchor="middle" x="17.5" y="-324.5" font-family="Helvetica,sans-Serif" font-size="10.00" fill="#000000"> </text>
<polyline fill="none" stroke="#000000" points="0,-317.5 35,-317.5 "/>
<text text-anchor="middle" x="17.5" y="-305.5" font-family="Helvetica,sans-Serif" font-size="10.00" fill="#000000"> </text>
</a>
</g>
</g>
<!-- Node4&#45;&gt;Node3 -->
<g id="edge2" class="edge">
<title>Node4&#45;&gt;Node3</title>
<path fill="none" stroke="#404040" d="M21.9701,-298.3943C25.2561,-284.9393 30.8933,-269.3895 40.5,-258 54.8004,-241.0458 74.3556,-227.6293 93.9165,-217.3099"/>
<polygon fill="none" stroke="#404040" points="94.0177,-217.2593 97.5954,-210.9982 104.7509,-211.8926 101.1732,-218.1537 94.0177,-217.2593"/>
<text text-anchor="middle" x="83" y="-266.5" font-family="Helvetica,sans-Serif" font-size="10.00" fill="#000000"> #job_supports_mpi</text>
</g>
<!-- Node5 -->
<g id="node4" class="node">
<title>Node5</title>
<g id="a_node4"><a xlink:href="classMPI__Comm.html" target="_top" xlink:title="{MPI_Comm\n||}">
<polygon fill="#ffffff" stroke="#000000" points="72,-298.5 72,-355.5 141,-355.5 141,-298.5 72,-298.5"/>
<text text-anchor="middle" x="106.5" y="-343.5" font-family="Helvetica,sans-Serif" font-size="10.00" fill="#000000">MPI_Comm</text>
<polyline fill="none" stroke="#000000" points="72,-336.5 141,-336.5 "/>
<text text-anchor="middle" x="106.5" y="-324.5" font-family="Helvetica,sans-Serif" font-size="10.00" fill="#000000"> </text>
<polyline fill="none" stroke="#000000" points="72,-317.5 141,-317.5 "/>
<text text-anchor="middle" x="106.5" y="-305.5" font-family="Helvetica,sans-Serif" font-size="10.00" fill="#000000"> </text>
</a>
</g>
</g>
<!-- Node5&#45;&gt;Node3 -->
<g id="edge3" class="edge">
<title>Node5&#45;&gt;Node3</title>
<path fill="none" stroke="#404040" d="M119.5536,-298.4063C125.8496,-284.6152 133.6635,-267.499 141.2267,-250.932"/>
<polygon fill="none" stroke="#404040" points="141.4174,-250.5142 140.2704,-243.3949 146.401,-239.5979 147.5479,-246.7172 141.4174,-250.5142"/>
<text text-anchor="middle" x="156.5" y="-266.5" font-family="Helvetica,sans-Serif" font-size="10.00" fill="#000000"> #comm</text>
</g>
<!-- Node6 -->
<g id="node5" class="node">
<title>Node6</title>
<polygon fill="#ffffff" stroke="#bfbfbf" points="159,-298.5 159,-355.5 268,-355.5 268,-298.5 159,-298.5"/>
<text text-anchor="middle" x="213.5" y="-343.5" font-family="Helvetica,sans-Serif" font-size="10.00" fill="#000000">Process&lt; T1, T2 &gt; &amp;</text>
<polyline fill="none" stroke="#bfbfbf" points="159,-336.5 268,-336.5 "/>
<text text-anchor="middle" x="213.5" y="-324.5" font-family="Helvetica,sans-Serif" font-size="10.00" fill="#000000"> </text>
<polyline fill="none" stroke="#bfbfbf" points="159,-317.5 268,-317.5 "/>
<text text-anchor="middle" x="213.5" y="-305.5" font-family="Helvetica,sans-Serif" font-size="10.00" fill="#000000"> </text>
</g>
<!-- Node6&#45;&gt;Node3 -->
<g id="edge4" class="edge">
<title>Node6&#45;&gt;Node3</title>
<path fill="none" stroke="#404040" d="M204.3832,-298.4063C200.0283,-284.7478 194.6335,-267.8278 189.3989,-251.41"/>
<polygon fill="none" stroke="#404040" points="189.278,-251.0309 183.6444,-246.5295 185.6327,-239.5979 191.2663,-244.0993 189.278,-251.0309"/>
<text text-anchor="middle" x="220" y="-266.5" font-family="Helvetica,sans-Serif" font-size="10.00" fill="#000000"> #process</text>
</g>
<!-- Node7 -->
<g id="node6" class="node">
<title>Node7</title>
<polygon fill="#ffffff" stroke="#bfbfbf" points="286.5,-298.5 286.5,-355.5 342.5,-355.5 342.5,-298.5 286.5,-298.5"/>
<text text-anchor="middle" x="314.5" y="-343.5" font-family="Helvetica,sans-Serif" font-size="10.00" fill="#000000">unsigned</text>
<polyline fill="none" stroke="#bfbfbf" points="286.5,-336.5 342.5,-336.5 "/>
<text text-anchor="middle" x="314.5" y="-324.5" font-family="Helvetica,sans-Serif" font-size="10.00" fill="#000000"> </text>
<polyline fill="none" stroke="#bfbfbf" points="286.5,-317.5 342.5,-317.5 "/>
<text text-anchor="middle" x="314.5" y="-305.5" font-family="Helvetica,sans-Serif" font-size="10.00" fill="#000000"> </text>
</g>
<!-- Node7&#45;&gt;Node3 -->
<g id="edge5" class="edge">
<title>Node7&#45;&gt;Node3</title>
<path fill="none" stroke="#404040" d="M286.6037,-298.4895C274.1604,-285.9324 259.2363,-271.0892 245.5,-258 242.0427,-254.7056 238.4765,-251.3449 234.8621,-247.9678"/>
<polygon fill="none" stroke="#404040" points="234.6078,-247.7318 227.489,-246.5817 225.8127,-239.5681 232.9315,-240.7182 234.6078,-247.7318"/>
<text text-anchor="middle" x="289" y="-272" font-family="Helvetica,sans-Serif" font-size="10.00" fill="#000000"> #n_procs</text>
<text text-anchor="middle" x="289" y="-261" font-family="Helvetica,sans-Serif" font-size="10.00" fill="#000000">#my_rank</text>
</g>
<!-- Node8 -->
<g id="node7" class="node">
<title>Node8</title>
<polygon fill="#ffffff" stroke="#bfbfbf" points="252,-149.5 252,-228.5 395,-228.5 395,-149.5 252,-149.5"/>
<text text-anchor="start" x="260" y="-216.5" font-family="Helvetica,sans-Serif" font-size="10.00" fill="#000000">shared_ptr&lt; Utilities</text>
<text text-anchor="start" x="260" y="-205.5" font-family="Helvetica,sans-Serif" font-size="10.00" fill="#000000">::MPI::ConsensusAlgorithms</text>
<text text-anchor="middle" x="323.5" y="-194.5" font-family="Helvetica,sans-Serif" font-size="10.00" fill="#000000">::Interface&lt; T1, T2 &gt; &gt;</text>
<polyline fill="none" stroke="#bfbfbf" points="252,-187.5 395,-187.5 "/>
<text text-anchor="middle" x="323.5" y="-175.5" font-family="Helvetica,sans-Serif" font-size="10.00" fill="#000000"> </text>
<polyline fill="none" stroke="#bfbfbf" points="252,-168.5 395,-168.5 "/>
<text text-anchor="middle" x="323.5" y="-156.5" font-family="Helvetica,sans-Serif" font-size="10.00" fill="#000000"> </text>
</g>
<!-- Node8&#45;&gt;Node2 -->
<g id="edge6" class="edge">
<title>Node8&#45;&gt;Node2</title>
<path fill="none" stroke="#404040" d="M302.2556,-149.4081C294.2986,-134.5792 285.1017,-117.4395 276.5005,-101.41"/>
<polygon fill="none" stroke="#404040" points="276.3374,-101.106 269.9758,-97.7103 270.6636,-90.5321 277.0251,-93.9278 276.3374,-101.106"/>
<text text-anchor="middle" x="324" y="-112" font-family="Helvetica,sans-Serif" font-size="10.00" fill="#000000"> &#45;consensus_algo</text>
</g>
</g>
</svg>
