<?xml version="1.0" encoding="UTF-8" standalone="no"?>
<!DOCTYPE svg PUBLIC "-//W3C//DTD SVG 1.1//EN"
 "http://www.w3.org/Graphics/SVG/1.1/DTD/svg11.dtd">
<!-- Generated by graphviz version 2.40.1 (20161225.0304)
 -->
<!-- Title: Algorithms::OutputOperator&lt; VectorType &gt; Pages: 1 -->
<!--zoomable 794 -->
<svg id="main" version="1.1" xmlns="http://www.w3.org/2000/svg" xmlns:xlink="http://www.w3.org/1999/xlink" xml:space="preserve" onload="init(evt)">
<style type="text/css"><![CDATA[
.edge:hover path { stroke: red; }
.edge:hover polygon { stroke: red; fill: red; }
]]></style>
<script type="text/javascript"><![CDATA[
var edges = document.getElementsByTagName('g');
if (edges && edges.length) {
  for (var i=0;i<edges.length;i++) {
    if (edges[i].id.substr(0,4)=='edge') {
      edges[i].setAttribute('class','edge');
    }
  }
}
]]></script>
        <defs>
                <circle id="rim" cx="0" cy="0" r="7"/>
                <circle id="rim2" cx="0" cy="0" r="3.5"/>
                <g id="zoomPlus">
                        <use xlink:href="#rim" fill="#404040">
                                <set attributeName="fill" to="#808080" begin="zoomplus.mouseover" end="zoomplus.mouseout"/>
                        </use>
                        <path d="M-4,0h8M0,-4v8" fill="none" stroke="white" stroke-width="1.5" pointer-events="none"/>
                </g>
                <g id="zoomMin">
                        <use xlink:href="#rim" fill="#404040">
                                <set attributeName="fill" to="#808080" begin="zoomminus.mouseover" end="zoomminus.mouseout"/>
                        </use>
                        <path d="M-4,0h8" fill="none" stroke="white" stroke-width="1.5" pointer-events="none"/>
                </g>
                <g id="dirArrow">
                        <path fill="none" stroke="white" stroke-width="1.5" d="M0,-3.0v7 M-2.5,-0.5L0,-3.0L2.5,-0.5"/>
                </g>
               <g id="resetDef">
                       <use xlink:href="#rim2" fill="#404040">
                               <set attributeName="fill" to="#808080" begin="reset.mouseover" end="reset.mouseout"/>
                       </use>
               </g>
        </defs>

<script type="text/javascript">
var viewWidth = 756;
var viewHeight = 794;
var sectionId = 'dynsection-1';
</script>
<script xlink:href="svgpan.js"/>
<svg id="graph" class="graph">
<g id="viewport">
<title>Algorithms::OutputOperator&lt; VectorType &gt;</title>
<polygon fill="#ffffff" stroke="transparent" points="-4,4 -4,-790 751.5,-790 751.5,4 -4,4"/>
<!-- Node3 -->
<g id="node1" class="node">
<title>Node3</title>
<polygon fill="#bfbfbf" stroke="#000000" points="351.5,-.5 351.5,-123.5 487.5,-123.5 487.5,-.5 351.5,-.5"/>
<text text-anchor="start" x="359.5" y="-111.5" font-family="Helvetica,sans-Serif" font-size="10.00" fill="#000000">Algorithms::OutputOperator</text>
<text text-anchor="middle" x="419.5" y="-100.5" font-family="Helvetica,sans-Serif" font-size="10.00" fill="#000000">&lt; VectorType &gt;</text>
<polyline fill="none" stroke="#000000" points="351.5,-93.5 487.5,-93.5 "/>
<text text-anchor="middle" x="419.5" y="-81.5" font-family="Helvetica,sans-Serif" font-size="10.00" fill="#000000"> </text>
<polyline fill="none" stroke="#000000" points="351.5,-74.5 487.5,-74.5 "/>
<text text-anchor="start" x="359.5" y="-62.5" font-family="Helvetica,sans-Serif" font-size="10.00" fill="#000000">+ OutputOperator()</text>
<text text-anchor="start" x="359.5" y="-51.5" font-family="Helvetica,sans-Serif" font-size="10.00" fill="#000000">+ OutputOperator()</text>
<text text-anchor="start" x="359.5" y="-40.5" font-family="Helvetica,sans-Serif" font-size="10.00" fill="#000000">+ ~OutputOperator()</text>
<text text-anchor="start" x="359.5" y="-29.5" font-family="Helvetica,sans-Serif" font-size="10.00" fill="#000000">+ initialize_stream()</text>
<text text-anchor="start" x="359.5" y="-18.5" font-family="Helvetica,sans-Serif" font-size="10.00" fill="#000000">+ set_step()</text>
<text text-anchor="start" x="359.5" y="-7.5" font-family="Helvetica,sans-Serif" font-size="10.00" fill="#000000">+ operator&lt;&lt;()</text>
</g>
<!-- Node4 -->
<g id="node2" class="node">
<title>Node4</title>
<g id="a_node2"><a xlink:href="classSubscriptor.html" target="_top" xlink:title="{Subscriptor\n||+ Subscriptor()\l+ Subscriptor()\l+ Subscriptor()\l+ ~Subscriptor()\l+ operator=()\l+ operator=()\l+ serialize()\l+ subscribe()\l+ unsubscribe()\l+ n_subscriptions()\l+ list_subscribers()\l+ list_subscribers()\l+ ExcInUse()\l+ ExcNoSubscriber()\l&#45; check_no_subscribers()\l* subscribe()\l* unsubscribe()\l* n_subscriptions()\l* list_subscribers()\l* list_subscribers()\l}">
<polygon fill="#ffffff" stroke="#000000" points="356.5,-171.5 356.5,-437.5 482.5,-437.5 482.5,-171.5 356.5,-171.5"/>
<text text-anchor="middle" x="419.5" y="-425.5" font-family="Helvetica,sans-Serif" font-size="10.00" fill="#000000">Subscriptor</text>
<polyline fill="none" stroke="#000000" points="356.5,-418.5 482.5,-418.5 "/>
<text text-anchor="middle" x="419.5" y="-406.5" font-family="Helvetica,sans-Serif" font-size="10.00" fill="#000000"> </text>
<polyline fill="none" stroke="#000000" points="356.5,-399.5 482.5,-399.5 "/>
<text text-anchor="start" x="364.5" y="-387.5" font-family="Helvetica,sans-Serif" font-size="10.00" fill="#000000">+ Subscriptor()</text>
<text text-anchor="start" x="364.5" y="-376.5" font-family="Helvetica,sans-Serif" font-size="10.00" fill="#000000">+ Subscriptor()</text>
<text text-anchor="start" x="364.5" y="-365.5" font-family="Helvetica,sans-Serif" font-size="10.00" fill="#000000">+ Subscriptor()</text>
<text text-anchor="start" x="364.5" y="-354.5" font-family="Helvetica,sans-Serif" font-size="10.00" fill="#000000">+ ~Subscriptor()</text>
<text text-anchor="start" x="364.5" y="-343.5" font-family="Helvetica,sans-Serif" font-size="10.00" fill="#000000">+ operator=()</text>
<text text-anchor="start" x="364.5" y="-332.5" font-family="Helvetica,sans-Serif" font-size="10.00" fill="#000000">+ operator=()</text>
<text text-anchor="start" x="364.5" y="-321.5" font-family="Helvetica,sans-Serif" font-size="10.00" fill="#000000">+ serialize()</text>
<text text-anchor="start" x="364.5" y="-310.5" font-family="Helvetica,sans-Serif" font-size="10.00" fill="#000000">+ subscribe()</text>
<text text-anchor="start" x="364.5" y="-299.5" font-family="Helvetica,sans-Serif" font-size="10.00" fill="#000000">+ unsubscribe()</text>
<text text-anchor="start" x="364.5" y="-288.5" font-family="Helvetica,sans-Serif" font-size="10.00" fill="#000000">+ n_subscriptions()</text>
<text text-anchor="start" x="364.5" y="-277.5" font-family="Helvetica,sans-Serif" font-size="10.00" fill="#000000">+ list_subscribers()</text>
<text text-anchor="start" x="364.5" y="-266.5" font-family="Helvetica,sans-Serif" font-size="10.00" fill="#000000">+ list_subscribers()</text>
<text text-anchor="start" x="364.5" y="-255.5" font-family="Helvetica,sans-Serif" font-size="10.00" fill="#000000">+ ExcInUse()</text>
<text text-anchor="start" x="364.5" y="-244.5" font-family="Helvetica,sans-Serif" font-size="10.00" fill="#000000">+ ExcNoSubscriber()</text>
<text text-anchor="start" x="364.5" y="-233.5" font-family="Helvetica,sans-Serif" font-size="10.00" fill="#000000">&#45; check_no_subscribers()</text>
<text text-anchor="start" x="364.5" y="-222.5" font-family="Helvetica,sans-Serif" font-size="10.00" fill="#000000">* subscribe()</text>
<text text-anchor="start" x="364.5" y="-211.5" font-family="Helvetica,sans-Serif" font-size="10.00" fill="#000000">* unsubscribe()</text>
<text text-anchor="start" x="364.5" y="-200.5" font-family="Helvetica,sans-Serif" font-size="10.00" fill="#000000">* n_subscriptions()</text>
<text text-anchor="start" x="364.5" y="-189.5" font-family="Helvetica,sans-Serif" font-size="10.00" fill="#000000">* list_subscribers()</text>
<text text-anchor="start" x="364.5" y="-178.5" font-family="Helvetica,sans-Serif" font-size="10.00" fill="#000000">* list_subscribers()</text>
</a>
</g>
</g>
<!-- Node4&#45;&gt;Node3 -->
<g id="edge1" class="edge">
<title>Node4&#45;&gt;Node3</title>
<path fill="none" stroke="#191970" d="M419.5,-161.1115C419.5,-148.0089 419.5,-135.2633 419.5,-123.5151"/>
<polygon fill="none" stroke="#191970" points="416.0001,-161.1901 419.5,-171.1901 423.0001,-161.1902 416.0001,-161.1901"/>
</g>
<!-- Node5 -->
<g id="node3" class="node">
<title>Node5</title>
<polygon fill="#ffffff" stroke="#bfbfbf" points="71.5,-485.5 71.5,-553.5 181.5,-553.5 181.5,-485.5 71.5,-485.5"/>
<text text-anchor="start" x="79.5" y="-541.5" font-family="Helvetica,sans-Serif" font-size="10.00" fill="#000000">std::map&lt; std::string,</text>
<text text-anchor="middle" x="126.5" y="-530.5" font-family="Helvetica,sans-Serif" font-size="10.00" fill="#000000"> unsigned int &gt;</text>
<polyline fill="none" stroke="#bfbfbf" points="71.5,-523.5 181.5,-523.5 "/>
<text text-anchor="middle" x="126.5" y="-511.5" font-family="Helvetica,sans-Serif" font-size="10.00" fill="#000000"> </text>
<polyline fill="none" stroke="#bfbfbf" points="71.5,-504.5 181.5,-504.5 "/>
<text text-anchor="middle" x="126.5" y="-492.5" font-family="Helvetica,sans-Serif" font-size="10.00" fill="#000000"> </text>
</g>
<!-- Node5&#45;&gt;Node4 -->
<g id="edge2" class="edge">
<title>Node5&#45;&gt;Node4</title>
<path fill="none" stroke="#404040" d="M172.9267,-485.4326C219.5626,-451.2117 292.1153,-397.9734 346.4661,-358.0914"/>
<polygon fill="none" stroke="#404040" points="346.7177,-357.9068 349.1886,-351.1323 356.3925,-350.8076 353.9215,-357.5821 346.7177,-357.9068"/>
<text text-anchor="middle" x="237" y="-459" font-family="Helvetica,sans-Serif" font-size="10.00" fill="#000000"> &#45;counter_map</text>
</g>
<!-- Node6 -->
<g id="node4" class="node">
<title>Node6</title>
<g id="a_node4"><a xlink:href="classint.html" target="_top" xlink:title="{int\n||}">
<polygon fill="#ffffff" stroke="#000000" points="0,-612.5 0,-669.5 29,-669.5 29,-612.5 0,-612.5"/>
<text text-anchor="middle" x="14.5" y="-657.5" font-family="Helvetica,sans-Serif" font-size="10.00" fill="#000000">int</text>
<polyline fill="none" stroke="#000000" points="0,-650.5 29,-650.5 "/>
<text text-anchor="middle" x="14.5" y="-638.5" font-family="Helvetica,sans-Serif" font-size="10.00" fill="#000000"> </text>
<polyline fill="none" stroke="#000000" points="0,-631.5 29,-631.5 "/>
<text text-anchor="middle" x="14.5" y="-619.5" font-family="Helvetica,sans-Serif" font-size="10.00" fill="#000000"> </text>
</a>
</g>
</g>
<!-- Node6&#45;&gt;Node3 -->
<g id="edge16" class="edge">
<title>Node6&#45;&gt;Node3</title>
<path fill="none" stroke="#404040" d="M19.3205,-612.4219C25.6776,-579.9135 38.9194,-526.0281 62.5,-485 141.3447,-347.8171 266.4509,-212.1137 345.693,-132.7367"/>
<polygon fill="none" stroke="#404040" points="346.1462,-132.2849 347.5719,-125.2161 354.6452,-123.8133 353.2196,-130.8821 346.1462,-132.2849"/>
<text text-anchor="middle" x="91.5" y="-459" font-family="Helvetica,sans-Serif" font-size="10.00" fill="#000000"> #step</text>
</g>
<!-- Node6&#45;&gt;Node5 -->
<g id="edge3" class="edge">
<title>Node6&#45;&gt;Node5</title>
<path fill="none" stroke="#404040" d="M25.2262,-612.1644C31.0649,-598.9694 39.2154,-583.7048 49.5,-572 53.3046,-567.67 57.5414,-563.5285 62.0166,-559.6068"/>
<polygon fill="none" stroke="#404040" points="62.1837,-559.4702 64.2978,-552.5759 71.4748,-551.8758 69.3607,-558.77 62.1837,-559.4702"/>
<text text-anchor="middle" x="74" y="-580.5" font-family="Helvetica,sans-Serif" font-size="10.00" fill="#000000"> +elements</text>
</g>
<!-- Node7 -->
<g id="node5" class="node">
<title>Node7</title>
<g id="a_node5"><a xlink:title="STL class. ">
<polygon fill="#ffffff" stroke="#bfbfbf" points="54.5,-612.5 54.5,-669.5 114.5,-669.5 114.5,-612.5 54.5,-612.5"/>
<text text-anchor="middle" x="84.5" y="-657.5" font-family="Helvetica,sans-Serif" font-size="10.00" fill="#000000">std::string</text>
<polyline fill="none" stroke="#bfbfbf" points="54.5,-650.5 114.5,-650.5 "/>
<text text-anchor="middle" x="84.5" y="-638.5" font-family="Helvetica,sans-Serif" font-size="10.00" fill="#000000"> </text>
<polyline fill="none" stroke="#bfbfbf" points="54.5,-631.5 114.5,-631.5 "/>
<text text-anchor="middle" x="84.5" y="-619.5" font-family="Helvetica,sans-Serif" font-size="10.00" fill="#000000"> </text>
</a>
</g>
</g>
<!-- Node7&#45;&gt;Node5 -->
<g id="edge4" class="edge">
<title>Node7&#45;&gt;Node5</title>
<path fill="none" stroke="#404040" d="M94.4534,-612.2062C99.286,-598.2262 105.2097,-581.0898 110.6437,-565.37"/>
<polygon fill="none" stroke="#404040" points="110.7569,-565.0422 108.9367,-558.0646 114.6775,-553.7007 116.4977,-560.6784 110.7569,-565.0422"/>
<text text-anchor="middle" x="124" y="-580.5" font-family="Helvetica,sans-Serif" font-size="10.00" fill="#000000"> +keys</text>
</g>
<!-- Node8 -->
<g id="node6" class="node">
<title>Node8</title>
<g id="a_node6"><a xlink:title="STL class. ">
<polygon fill="#ffffff" stroke="#bfbfbf" points="37,-717.5 37,-785.5 132,-785.5 132,-717.5 37,-717.5"/>
<text text-anchor="start" x="45" y="-773.5" font-family="Helvetica,sans-Serif" font-size="10.00" fill="#000000">std::basic_string&lt;</text>
<text text-anchor="middle" x="84.5" y="-762.5" font-family="Helvetica,sans-Serif" font-size="10.00" fill="#000000"> char &gt;</text>
<polyline fill="none" stroke="#bfbfbf" points="37,-755.5 132,-755.5 "/>
<text text-anchor="middle" x="84.5" y="-743.5" font-family="Helvetica,sans-Serif" font-size="10.00" fill="#000000"> </text>
<polyline fill="none" stroke="#bfbfbf" points="37,-736.5 132,-736.5 "/>
<text text-anchor="middle" x="84.5" y="-724.5" font-family="Helvetica,sans-Serif" font-size="10.00" fill="#000000"> </text>
</a>
</g>
</g>
<!-- Node8&#45;&gt;Node7 -->
<g id="edge5" class="edge">
<title>Node8&#45;&gt;Node7</title>
<path fill="none" stroke="#191970" d="M84.5,-707.0661C84.5,-694.4172 84.5,-680.9812 84.5,-669.5519"/>
<polygon fill="none" stroke="#191970" points="81.0001,-707.4447 84.5,-717.4447 88.0001,-707.4447 81.0001,-707.4447"/>
</g>
<!-- Node9 -->
<g id="node7" class="node">
<title>Node9</title>
<g id="a_node7"><a xlink:title="STL class. ">
<polygon fill="#ffffff" stroke="#bfbfbf" points="132.5,-612.5 132.5,-669.5 224.5,-669.5 224.5,-612.5 132.5,-612.5"/>
<text text-anchor="middle" x="178.5" y="-657.5" font-family="Helvetica,sans-Serif" font-size="10.00" fill="#000000">std::map&lt; K, T &gt;</text>
<polyline fill="none" stroke="#bfbfbf" points="132.5,-650.5 224.5,-650.5 "/>
<text text-anchor="middle" x="178.5" y="-638.5" font-family="Helvetica,sans-Serif" font-size="10.00" fill="#000000"> </text>
<polyline fill="none" stroke="#bfbfbf" points="132.5,-631.5 224.5,-631.5 "/>
<text text-anchor="middle" x="178.5" y="-619.5" font-family="Helvetica,sans-Serif" font-size="10.00" fill="#000000"> </text>
</a>
</g>
</g>
<!-- Node9&#45;&gt;Node5 -->
<g id="edge6" class="edge">
<title>Node9&#45;&gt;Node5</title>
<path fill="none" stroke="#ffa500" d="M162.1363,-602.7657C155.4075,-587.0436 147.6757,-568.9779 141.1374,-553.7007"/>
<polygon fill="#ffa500" stroke="#ffa500" points="159.0243,-604.3899 166.1767,-612.2062 165.4597,-601.6356 159.0243,-604.3899"/>
<text text-anchor="start" x="157.5" y="-586" font-family="Helvetica,sans-Serif" font-size="10.00" fill="#000000"> &lt; std::string, unsigned</text>
<text text-anchor="middle" x="208" y="-575" font-family="Helvetica,sans-Serif" font-size="10.00" fill="#000000"> int &gt;</text>
</g>
<!-- Node10 -->
<g id="node8" class="node">
<title>Node10</title>
<polygon fill="#ffffff" stroke="#bfbfbf" points="153,-723 153,-780 182,-780 182,-723 153,-723"/>
<text text-anchor="middle" x="167.5" y="-768" font-family="Helvetica,sans-Serif" font-size="10.00" fill="#000000">K</text>
<polyline fill="none" stroke="#bfbfbf" points="153,-761 182,-761 "/>
<text text-anchor="middle" x="167.5" y="-749" font-family="Helvetica,sans-Serif" font-size="10.00" fill="#000000"> </text>
<polyline fill="none" stroke="#bfbfbf" points="153,-742 182,-742 "/>
<text text-anchor="middle" x="167.5" y="-730" font-family="Helvetica,sans-Serif" font-size="10.00" fill="#000000"> </text>
</g>
<!-- Node10&#45;&gt;Node9 -->
<g id="edge7" class="edge">
<title>Node10&#45;&gt;Node9</title>
<path fill="none" stroke="#404040" d="M166.7752,-722.9754C166.8037,-712.0103 167.2105,-699.394 168.5,-688 168.7322,-685.9484 169.013,-683.8541 169.3307,-681.7447"/>
<polygon fill="none" stroke="#404040" points="169.3737,-681.5027 166.4861,-674.895 171.4749,-669.6881 174.3625,-676.2958 169.3737,-681.5027"/>
<text text-anchor="middle" x="184" y="-691" font-family="Helvetica,sans-Serif" font-size="10.00" fill="#000000"> +keys</text>
</g>
<!-- Node11 -->
<g id="node9" class="node">
<title>Node11</title>
<polygon fill="#ffffff" stroke="#bfbfbf" points="243,-723 243,-780 272,-780 272,-723 243,-723"/>
<text text-anchor="middle" x="257.5" y="-768" font-family="Helvetica,sans-Serif" font-size="10.00" fill="#000000">T</text>
<polyline fill="none" stroke="#bfbfbf" points="243,-761 272,-761 "/>
<text text-anchor="middle" x="257.5" y="-749" font-family="Helvetica,sans-Serif" font-size="10.00" fill="#000000"> </text>
<polyline fill="none" stroke="#bfbfbf" points="243,-742 272,-742 "/>
<text text-anchor="middle" x="257.5" y="-730" font-family="Helvetica,sans-Serif" font-size="10.00" fill="#000000"> </text>
</g>
<!-- Node11&#45;&gt;Node9 -->
<g id="edge8" class="edge">
<title>Node11&#45;&gt;Node9</title>
<path fill="none" stroke="#404040" d="M242.8258,-730.9748C232.5308,-716.5748 218.4521,-696.8824 206.0902,-679.5914"/>
<polygon fill="none" stroke="#404040" points="206.0308,-679.5082 199.2873,-676.9536 199.0517,-669.7464 205.7952,-672.3009 206.0308,-679.5082"/>
<text text-anchor="middle" x="243" y="-691" font-family="Helvetica,sans-Serif" font-size="10.00" fill="#000000"> +elements</text>
</g>
<!-- Node16 -->
<g id="node14" class="node">
<title>Node16</title>
<g id="a_node14"><a xlink:title="STL class. ">
<polygon fill="#ffffff" stroke="#bfbfbf" points="250,-612.5 250,-669.5 337,-669.5 337,-612.5 250,-612.5"/>
<text text-anchor="middle" x="293.5" y="-657.5" font-family="Helvetica,sans-Serif" font-size="10.00" fill="#000000">std::vector&lt; T &gt;</text>
<polyline fill="none" stroke="#bfbfbf" points="250,-650.5 337,-650.5 "/>
<text text-anchor="middle" x="293.5" y="-638.5" font-family="Helvetica,sans-Serif" font-size="10.00" fill="#000000"> </text>
<polyline fill="none" stroke="#bfbfbf" points="250,-631.5 337,-631.5 "/>
<text text-anchor="middle" x="293.5" y="-619.5" font-family="Helvetica,sans-Serif" font-size="10.00" fill="#000000"> </text>
</a>
</g>
</g>
<!-- Node11&#45;&gt;Node16 -->
<g id="edge14" class="edge">
<title>Node11&#45;&gt;Node16</title>
<path fill="none" stroke="#404040" d="M266.8646,-722.7559C270.9896,-710.0945 275.9075,-694.9992 280.3882,-681.2459"/>
<polygon fill="none" stroke="#404040" points="280.465,-681.01 278.5204,-674.066 284.1823,-669.6002 286.1269,-676.5442 280.465,-681.01"/>
<text text-anchor="middle" x="303" y="-691" font-family="Helvetica,sans-Serif" font-size="10.00" fill="#000000"> +elements</text>
</g>
<!-- Node12 -->
<g id="node10" class="node">
<title>Node12</title>
<polygon fill="#ffffff" stroke="#bfbfbf" points="361.5,-491 361.5,-548 477.5,-548 477.5,-491 361.5,-491"/>
<text text-anchor="middle" x="419.5" y="-536" font-family="Helvetica,sans-Serif" font-size="10.00" fill="#000000">atomic&lt; unsigned int &gt;</text>
<polyline fill="none" stroke="#bfbfbf" points="361.5,-529 477.5,-529 "/>
<text text-anchor="middle" x="419.5" y="-517" font-family="Helvetica,sans-Serif" font-size="10.00" fill="#000000"> </text>
<polyline fill="none" stroke="#bfbfbf" points="361.5,-510 477.5,-510 "/>
<text text-anchor="middle" x="419.5" y="-498" font-family="Helvetica,sans-Serif" font-size="10.00" fill="#000000"> </text>
</g>
<!-- Node12&#45;&gt;Node4 -->
<g id="edge9" class="edge">
<title>Node12&#45;&gt;Node4</title>
<path fill="none" stroke="#404040" d="M419.5,-490.9497C419.5,-479.3895 419.5,-465.1147 419.5,-449.6501"/>
<polygon fill="none" stroke="#404040" points="419.5001,-449.6176 415.5,-443.6176 419.5,-437.6176 423.5,-443.6175 419.5001,-449.6176"/>
<text text-anchor="middle" x="439" y="-459" font-family="Helvetica,sans-Serif" font-size="10.00" fill="#000000"> &#45;counter</text>
</g>
<!-- Node13 -->
<g id="node11" class="node">
<title>Node13</title>
<polygon fill="#ffffff" stroke="#bfbfbf" points="495.5,-491 495.5,-548 539.5,-548 539.5,-491 495.5,-491"/>
<text text-anchor="middle" x="517.5" y="-536" font-family="Helvetica,sans-Serif" font-size="10.00" fill="#000000">mutex</text>
<polyline fill="none" stroke="#bfbfbf" points="495.5,-529 539.5,-529 "/>
<text text-anchor="middle" x="517.5" y="-517" font-family="Helvetica,sans-Serif" font-size="10.00" fill="#000000"> </text>
<polyline fill="none" stroke="#bfbfbf" points="495.5,-510 539.5,-510 "/>
<text text-anchor="middle" x="517.5" y="-498" font-family="Helvetica,sans-Serif" font-size="10.00" fill="#000000"> </text>
</g>
<!-- Node13&#45;&gt;Node4 -->
<g id="edge10" class="edge">
<title>Node13&#45;&gt;Node4</title>
<path fill="none" stroke="#404040" d="M504.4864,-490.9497C499.1138,-479.1629 492.4548,-464.5539 485.2462,-448.7391"/>
<polygon fill="none" stroke="#404040" points="485.154,-448.5368 479.0257,-444.7362 480.1768,-437.6176 486.3052,-441.4181 485.154,-448.5368"/>
<text text-anchor="middle" x="508.5" y="-459" font-family="Helvetica,sans-Serif" font-size="10.00" fill="#000000"> &#45;mutex</text>
</g>
<!-- Node14 -->
<g id="node12" class="node">
<title>Node14</title>
<polygon fill="#ffffff" stroke="#bfbfbf" points="222,-485.5 222,-553.5 343,-553.5 343,-485.5 222,-485.5"/>
<text text-anchor="start" x="230" y="-541.5" font-family="Helvetica,sans-Serif" font-size="10.00" fill="#000000">std::vector&lt; std::atomic</text>
<text text-anchor="middle" x="282.5" y="-530.5" font-family="Helvetica,sans-Serif" font-size="10.00" fill="#000000">&lt; bool &gt; *&gt;</text>
<polyline fill="none" stroke="#bfbfbf" points="222,-523.5 343,-523.5 "/>
<text text-anchor="middle" x="282.5" y="-511.5" font-family="Helvetica,sans-Serif" font-size="10.00" fill="#000000"> </text>
<polyline fill="none" stroke="#bfbfbf" points="222,-504.5 343,-504.5 "/>
<text text-anchor="middle" x="282.5" y="-492.5" font-family="Helvetica,sans-Serif" font-size="10.00" fill="#000000"> </text>
</g>
<!-- Node14&#45;&gt;Node4 -->
<g id="edge11" class="edge">
<title>Node14&#45;&gt;Node4</title>
<path fill="none" stroke="#404040" d="M304.2081,-485.4326C316.7304,-465.7808 333.2489,-439.8575 349.8571,-413.7936"/>
<polygon fill="none" stroke="#404040" points="350.0179,-413.5411 349.8689,-406.3315 356.4666,-403.421 356.6156,-410.6306 350.0179,-413.5411"/>
<text text-anchor="middle" x="358" y="-459" font-family="Helvetica,sans-Serif" font-size="10.00" fill="#000000"> &#45;validity_pointers</text>
</g>
<!-- Node15 -->
<g id="node13" class="node">
<title>Node15</title>
<polygon fill="#ffffff" stroke="#bfbfbf" points="382,-612.5 382,-669.5 471,-669.5 471,-612.5 382,-612.5"/>
<text text-anchor="middle" x="426.5" y="-657.5" font-family="Helvetica,sans-Serif" font-size="10.00" fill="#000000">atomic&lt; bool &gt; *</text>
<polyline fill="none" stroke="#bfbfbf" points="382,-650.5 471,-650.5 "/>
<text text-anchor="middle" x="426.5" y="-638.5" font-family="Helvetica,sans-Serif" font-size="10.00" fill="#000000"> </text>
<polyline fill="none" stroke="#bfbfbf" points="382,-631.5 471,-631.5 "/>
<text text-anchor="middle" x="426.5" y="-619.5" font-family="Helvetica,sans-Serif" font-size="10.00" fill="#000000"> </text>
</g>
<!-- Node15&#45;&gt;Node14 -->
<g id="edge12" class="edge">
<title>Node15&#45;&gt;Node14</title>
<path fill="none" stroke="#404040" d="M422.9151,-612.4208C419.8376,-598.6447 414.1201,-582.8081 403.5,-572 388.8247,-557.065 377.827,-561.5704 354.3152,-554.0808"/>
<polygon fill="none" stroke="#404040" points="354.2475,-554.0556 347.2285,-555.7091 343.0026,-549.8659 350.0216,-548.2125 354.2475,-554.0556"/>
<text text-anchor="middle" x="442" y="-580.5" font-family="Helvetica,sans-Serif" font-size="10.00" fill="#000000"> +elements</text>
</g>
<!-- Node16&#45;&gt;Node14 -->
<g id="edge13" class="edge">
<title>Node16&#45;&gt;Node14</title>
<path fill="none" stroke="#ffa500" d="M289.9577,-601.8733C288.5534,-586.3628 286.9534,-568.6896 285.5964,-553.7007"/>
<polygon fill="#ffa500" stroke="#ffa500" points="286.5057,-602.5625 290.8932,-612.2062 293.4771,-601.9313 286.5057,-602.5625"/>
<text text-anchor="middle" x="344.5" y="-580.5" font-family="Helvetica,sans-Serif" font-size="10.00" fill="#000000"> &lt; std::atomic&lt; bool &gt; *&gt;</text>
</g>
<!-- Node17 -->
<g id="node15" class="node">
<title>Node17</title>
<polygon fill="#ffffff" stroke="#bfbfbf" points="558,-491 558,-548 621,-548 621,-491 558,-491"/>
<text text-anchor="middle" x="589.5" y="-536" font-family="Helvetica,sans-Serif" font-size="10.00" fill="#000000">type_info *</text>
<polyline fill="none" stroke="#bfbfbf" points="558,-529 621,-529 "/>
<text text-anchor="middle" x="589.5" y="-517" font-family="Helvetica,sans-Serif" font-size="10.00" fill="#000000"> </text>
<polyline fill="none" stroke="#bfbfbf" points="558,-510 621,-510 "/>
<text text-anchor="middle" x="589.5" y="-498" font-family="Helvetica,sans-Serif" font-size="10.00" fill="#000000"> </text>
</g>
<!-- Node17&#45;&gt;Node4 -->
<g id="edge15" class="edge">
<title>Node17&#45;&gt;Node4</title>
<path fill="none" stroke="#404040" d="M566.9253,-490.9497C547.2767,-466.0999 517.7096,-428.7063 490.2,-393.9148"/>
<polygon fill="none" stroke="#404040" points="489.9483,-393.5963 483.0892,-391.3708 482.5054,-384.1833 489.3645,-386.4089 489.9483,-393.5963"/>
<text text-anchor="middle" x="571.5" y="-459" font-family="Helvetica,sans-Serif" font-size="10.00" fill="#000000"> &#45;object_info</text>
</g>
<!-- Node18 -->
<g id="node16" class="node">
<title>Node18</title>
<g id="a_node16"><a xlink:title="STL class. ">
<polygon fill="#ffffff" stroke="#bfbfbf" points="569,-276 569,-333 640,-333 640,-276 569,-276"/>
<text text-anchor="middle" x="604.5" y="-321" font-family="Helvetica,sans-Serif" font-size="10.00" fill="#000000">std::ostream</text>
<polyline fill="none" stroke="#bfbfbf" points="569,-314 640,-314 "/>
<text text-anchor="middle" x="604.5" y="-302" font-family="Helvetica,sans-Serif" font-size="10.00" fill="#000000"> </text>
<polyline fill="none" stroke="#bfbfbf" points="569,-295 640,-295 "/>
<text text-anchor="middle" x="604.5" y="-283" font-family="Helvetica,sans-Serif" font-size="10.00" fill="#000000"> </text>
</a>
</g>
</g>
<!-- Node18&#45;&gt;Node3 -->
<g id="edge17" class="edge">
<title>Node18&#45;&gt;Node3</title>
<path fill="none" stroke="#404040" d="M582.5516,-275.7298C555.9573,-240.8697 510.2071,-180.8999 473.9249,-133.3408"/>
<polygon fill="none" stroke="#404040" points="473.8487,-133.2409 467.0293,-130.8967 466.5703,-123.7002 473.3897,-126.0444 473.8487,-133.2409"/>
<text text-anchor="middle" x="494" y="-145" font-family="Helvetica,sans-Serif" font-size="10.00" fill="#000000"> &#45;os</text>
</g>
<!-- Node19 -->
<g id="node17" class="node">
<title>Node19</title>
<g id="a_node17"><a xlink:title="STL class. ">
<polygon fill="#ffffff" stroke="#bfbfbf" points="639.5,-485.5 639.5,-553.5 739.5,-553.5 739.5,-485.5 639.5,-485.5"/>
<text text-anchor="start" x="647.5" y="-541.5" font-family="Helvetica,sans-Serif" font-size="10.00" fill="#000000">std::basic_ostream</text>
<text text-anchor="middle" x="689.5" y="-530.5" font-family="Helvetica,sans-Serif" font-size="10.00" fill="#000000">&lt; char &gt;</text>
<polyline fill="none" stroke="#bfbfbf" points="639.5,-523.5 739.5,-523.5 "/>
<text text-anchor="middle" x="689.5" y="-511.5" font-family="Helvetica,sans-Serif" font-size="10.00" fill="#000000"> </text>
<polyline fill="none" stroke="#bfbfbf" points="639.5,-504.5 739.5,-504.5 "/>
<text text-anchor="middle" x="689.5" y="-492.5" font-family="Helvetica,sans-Serif" font-size="10.00" fill="#000000"> </text>
</a>
</g>
</g>
<!-- Node19&#45;&gt;Node18 -->
<g id="edge18" class="edge">
<title>Node19&#45;&gt;Node18</title>
<path fill="none" stroke="#191970" d="M672.2599,-475.8928C655.4365,-433.3394 630.325,-369.8219 615.8653,-333.2475"/>
<polygon fill="none" stroke="#191970" points="669.1,-477.4198 676.0315,-485.4326 675.6097,-474.8462 669.1,-477.4198"/>
</g>
<!-- Node20 -->
<g id="node18" class="node">
<title>Node20</title>
<g id="a_node18"><a xlink:title="STL class. ">
<polygon fill="#ffffff" stroke="#bfbfbf" points="631.5,-612.5 631.5,-669.5 747.5,-669.5 747.5,-612.5 631.5,-612.5"/>
<text text-anchor="middle" x="689.5" y="-657.5" font-family="Helvetica,sans-Serif" font-size="10.00" fill="#000000">std::basic_ios&lt; Char &gt;</text>
<polyline fill="none" stroke="#bfbfbf" points="631.5,-650.5 747.5,-650.5 "/>
<text text-anchor="middle" x="689.5" y="-638.5" font-family="Helvetica,sans-Serif" font-size="10.00" fill="#000000"> </text>
<polyline fill="none" stroke="#bfbfbf" points="631.5,-631.5 747.5,-631.5 "/>
<text text-anchor="middle" x="689.5" y="-619.5" font-family="Helvetica,sans-Serif" font-size="10.00" fill="#000000"> </text>
</a>
</g>
</g>
<!-- Node20&#45;&gt;Node19 -->
<g id="edge19" class="edge">
<title>Node20&#45;&gt;Node19</title>
<path fill="none" stroke="#191970" d="M689.5,-601.8733C689.5,-586.3628 689.5,-568.6896 689.5,-553.7007"/>
<polygon fill="none" stroke="#191970" points="686.0001,-602.2062 689.5,-612.2062 693.0001,-602.2062 686.0001,-602.2062"/>
</g>
<!-- Node21 -->
<g id="node19" class="node">
<title>Node21</title>
<g id="a_node19"><a xlink:title="STL class. ">
<polygon fill="#ffffff" stroke="#bfbfbf" points="652,-723 652,-780 727,-780 727,-723 652,-723"/>
<text text-anchor="middle" x="689.5" y="-768" font-family="Helvetica,sans-Serif" font-size="10.00" fill="#000000">std::ios_base</text>
<polyline fill="none" stroke="#bfbfbf" points="652,-761 727,-761 "/>
<text text-anchor="middle" x="689.5" y="-749" font-family="Helvetica,sans-Serif" font-size="10.00" fill="#000000"> </text>
<polyline fill="none" stroke="#bfbfbf" points="652,-742 727,-742 "/>
<text text-anchor="middle" x="689.5" y="-730" font-family="Helvetica,sans-Serif" font-size="10.00" fill="#000000"> </text>
</a>
</g>
</g>
<!-- Node21&#45;&gt;Node20 -->
<g id="edge20" class="edge">
<title>Node21&#45;&gt;Node20</title>
<path fill="none" stroke="#191970" d="M689.5,-712.345C689.5,-698.2511 689.5,-682.6262 689.5,-669.6002"/>
<polygon fill="none" stroke="#191970" points="686.0001,-712.7559 689.5,-722.7559 693.0001,-712.7559 686.0001,-712.7559"/>
</g>
</g>
</svg>
        <g id="navigator" transform="translate(0 0)" fill="#404254">
                <rect fill="#f2f5e9" fill-opacity="0.5" stroke="#606060" stroke-width=".5" x="0" y="0" width="60" height="60"/>
                <use id="zoomplus" xlink:href="#zoomPlus" x="17" y="9" onmousedown="handleZoom(evt,'in')"/>
                <use id="zoomminus" xlink:href="#zoomMin" x="42" y="9" onmousedown="handleZoom(evt,'out')"/>
                <use id="reset" xlink:href="#resetDef" x="30" y="36" onmousedown="handleReset()"/>
                <g id="arrowUp" xlink:href="#dirArrow" transform="translate(30 24)" onmousedown="handlePan(0,-1)">
                  <use xlink:href="#rim" fill="#404040">
                        <set attributeName="fill" to="#808080" begin="arrowUp.mouseover" end="arrowUp.mouseout"/>
                  </use>
                  <path fill="none" stroke="white" stroke-width="1.5" d="M0,-3.0v7 M-2.5,-0.5L0,-3.0L2.5,-0.5"/>
                </g>
                <g id="arrowRight" xlink:href="#dirArrow" transform="rotate(90) translate(36 -43)" onmousedown="handlePan(1,0)">
                  <use xlink:href="#rim" fill="#404040">
                        <set attributeName="fill" to="#808080" begin="arrowRight.mouseover" end="arrowRight.mouseout"/>
                  </use>
                  <path fill="none" stroke="white" stroke-width="1.5" d="M0,-3.0v7 M-2.5,-0.5L0,-3.0L2.5,-0.5"/>
                </g>
                <g id="arrowDown" xlink:href="#dirArrow" transform="rotate(180) translate(-30 -48)" onmousedown="handlePan(0,1)">
                  <use xlink:href="#rim" fill="#404040">
                        <set attributeName="fill" to="#808080" begin="arrowDown.mouseover" end="arrowDown.mouseout"/>
                  </use>
                  <path fill="none" stroke="white" stroke-width="1.5" d="M0,-3.0v7 M-2.5,-0.5L0,-3.0L2.5,-0.5"/>
                </g>
                <g id="arrowLeft" xlink:href="#dirArrow" transform="rotate(270) translate(-36 17)" onmousedown="handlePan(-1,0)">
                  <use xlink:href="#rim" fill="#404040">
                        <set attributeName="fill" to="#808080" begin="arrowLeft.mouseover" end="arrowLeft.mouseout"/>
                  </use>
                  <path fill="none" stroke="white" stroke-width="1.5" d="M0,-3.0v7 M-2.5,-0.5L0,-3.0L2.5,-0.5"/>
                </g>
        </g>
        <svg viewBox="0 0 15 15" width="100%" height="30px" preserveAspectRatio="xMaxYMin meet">
         <g id="arrow_out" transform="scale(0.3 0.3)">
          <a xlink:href="classAlgorithms_1_1OutputOperator__coll__graph_org.svg" target="_base">
           <rect id="button" ry="5" rx="5" y="6" x="6" height="38" width="38"
                fill="#f2f5e9" fill-opacity="0.5" stroke="#606060" stroke-width="1.0"/>
           <path id="arrow"
             d="M 11.500037,31.436501 C 11.940474,20.09759 22.043105,11.32322 32.158766,21.979434 L 37.068811,17.246167 C 37.068811,17.246167 37.088388,32 37.088388,32 L 22.160133,31.978069 C 22.160133,31.978069 26.997745,27.140456 26.997745,27.140456 C 18.528582,18.264221 13.291696,25.230495 11.500037,31.436501 z"
             style="fill:#404040;"/>
          </a>
         </g>
        </svg>
</svg>
