<?xml version="1.0" encoding="UTF-8" standalone="no"?>
<!DOCTYPE svg PUBLIC "-//W3C//DTD SVG 1.1//EN"
 "http://www.w3.org/Graphics/SVG/1.1/DTD/svg11.dtd">
<!-- Generated by graphviz version 2.40.1 (20161225.0304)
 -->
<!-- Title: MeshWorker::VectorSelector Pages: 1 -->
<svg width="1224pt" height="73pt"
 viewBox="0.00 0.00 1224.00 72.50" xmlns="http://www.w3.org/2000/svg" xmlns:xlink="http://www.w3.org/1999/xlink">
<g id="graph0" class="graph" transform="scale(1 1) rotate(0) translate(4 68.5)">
<title>MeshWorker::VectorSelector</title>
<polygon fill="#ffffff" stroke="transparent" points="-4,4 -4,-68.5 1220,-68.5 1220,4 -4,4"/>
<!-- Node0 -->
<g id="node1" class="node">
<title>Node0</title>
<polygon fill="#bfbfbf" stroke="#000000" points="108,-7.5 108,-26.5 261,-26.5 261,-7.5 108,-7.5"/>
<text text-anchor="middle" x="184.5" y="-14.5" font-family="Helvetica,sans-Serif" font-size="10.00" fill="#000000">MeshWorker::VectorSelector</text>
</g>
<!-- Node2 -->
<g id="node3" class="node">
<title>Node2</title>
<g id="a_node3"><a xlink:href="classMeshWorker_1_1VectorDataBase.html" target="_top" xlink:title="MeshWorker::VectorDataBase\l\&lt; dim, spacedim, Number \&gt;">
<polygon fill="#ffffff" stroke="#000000" points="298,-34 298,-64 459,-64 459,-34 298,-34"/>
<text text-anchor="start" x="306" y="-52" font-family="Helvetica,sans-Serif" font-size="10.00" fill="#000000">MeshWorker::VectorDataBase</text>
<text text-anchor="middle" x="378.5" y="-41" font-family="Helvetica,sans-Serif" font-size="10.00" fill="#000000">&lt; dim, spacedim, Number &gt;</text>
</a>
</g>
</g>
<!-- Node0&#45;&gt;Node2 -->
<g id="edge2" class="edge">
<title>Node0&#45;&gt;Node2</title>
<path fill="none" stroke="#191970" d="M252.1781,-28.1634C266.8741,-30.5875 282.5612,-33.175 297.7059,-35.6731"/>
<polygon fill="#191970" stroke="#191970" points="252.6175,-24.6887 242.1811,-26.5144 251.4782,-31.5953 252.6175,-24.6887"/>
</g>
<!-- Node3 -->
<g id="node4" class="node">
<title>Node3</title>
<g id="a_node4"><a xlink:href="classMeshWorker_1_1VectorDataBase.html" target="_top" xlink:title="MeshWorker::VectorDataBase\l\&lt; dim, spacedim, VectorType\l::value_type \&gt;">
<polygon fill="#ffffff" stroke="#000000" points="641,-.5 641,-41.5 802,-41.5 802,-.5 641,-.5"/>
<text text-anchor="start" x="649" y="-29.5" font-family="Helvetica,sans-Serif" font-size="10.00" fill="#000000">MeshWorker::VectorDataBase</text>
<text text-anchor="start" x="649" y="-18.5" font-family="Helvetica,sans-Serif" font-size="10.00" fill="#000000">&lt; dim, spacedim, VectorType</text>
<text text-anchor="middle" x="721.5" y="-7.5" font-family="Helvetica,sans-Serif" font-size="10.00" fill="#000000">::value_type &gt;</text>
</a>
</g>
</g>
<!-- Node0&#45;&gt;Node3 -->
<g id="edge6" class="edge">
<title>Node0&#45;&gt;Node3</title>
<path fill="none" stroke="#191970" d="M271.4282,-17.6475C373.4657,-18.4076 541.3311,-19.658 640.6604,-20.3978"/>
<polygon fill="#191970" stroke="#191970" points="271.1795,-14.1457 261.1537,-17.571 271.1273,-21.1455 271.1795,-14.1457"/>
</g>
<!-- Node1 -->
<g id="node2" class="node">
<title>Node1</title>
<g id="a_node2"><a xlink:href="classSubscriptor.html" target="_top" xlink:title="Subscriptor">
<polygon fill="#ffffff" stroke="#000000" points="0,-7.5 0,-26.5 71,-26.5 71,-7.5 0,-7.5"/>
<text text-anchor="middle" x="35.5" y="-14.5" font-family="Helvetica,sans-Serif" font-size="10.00" fill="#000000">Subscriptor</text>
</a>
</g>
</g>
<!-- Node1&#45;&gt;Node0 -->
<g id="edge1" class="edge">
<title>Node1&#45;&gt;Node0</title>
<path fill="none" stroke="#191970" d="M81.4633,-17C89.8453,-17 98.7951,-17 107.7878,-17"/>
<polygon fill="#191970" stroke="#191970" points="81.1892,-13.5001 71.1892,-17 81.1892,-20.5001 81.1892,-13.5001"/>
</g>
<!-- Node2&#45;&gt;Node3 -->
<g id="edge3" class="edge">
<title>Node2&#45;&gt;Node3</title>
<path fill="none" stroke="#ffa500" stroke-dasharray="5,2" d="M469.4817,-41.5729C522.7783,-37.2222 589.4957,-31.7759 640.8942,-27.5801"/>
<polygon fill="#ffa500" stroke="#ffa500" points="469.0339,-38.0977 459.3519,-42.3998 469.6035,-45.0745 469.0339,-38.0977"/>
<text text-anchor="start" x="477" y="-55" font-family="Helvetica,sans-Serif" font-size="10.00" fill="#000000"> &lt; dim, spacedim, VectorType</text>
<text text-anchor="middle" x="550" y="-44" font-family="Helvetica,sans-Serif" font-size="10.00" fill="#000000">::value_type &gt;</text>
</g>
<!-- Node4 -->
<g id="node5" class="node">
<title>Node4</title>
<g id="a_node5"><a xlink:href="classMeshWorker_1_1VectorData.html" target="_top" xlink:title="MeshWorker::VectorData\l\&lt; VectorType, dim, spacedim \&gt;">
<polygon fill="#ffffff" stroke="#000000" points="839,-6 839,-36 1009,-36 1009,-6 839,-6"/>
<text text-anchor="start" x="847" y="-24" font-family="Helvetica,sans-Serif" font-size="10.00" fill="#000000">MeshWorker::VectorData</text>
<text text-anchor="middle" x="924" y="-13" font-family="Helvetica,sans-Serif" font-size="10.00" fill="#000000">&lt; VectorType, dim, spacedim &gt;</text>
</a>
</g>
</g>
<!-- Node3&#45;&gt;Node4 -->
<g id="edge4" class="edge">
<title>Node3&#45;&gt;Node4</title>
<path fill="none" stroke="#191970" d="M812.3391,-21C821.103,-21 829.9722,-21 838.68,-21"/>
<polygon fill="#191970" stroke="#191970" points="812.1152,-17.5001 802.1152,-21 812.1152,-24.5001 812.1152,-17.5001"/>
</g>
<!-- Node5 -->
<g id="node6" class="node">
<title>Node5</title>
<g id="a_node6"><a xlink:href="classMeshWorker_1_1MGVectorData.html" target="_top" xlink:title="MeshWorker::MGVectorData\l\&lt; VectorType, dim, spacedim \&gt;">
<polygon fill="#ffffff" stroke="#000000" points="1046,-6 1046,-36 1216,-36 1216,-6 1046,-6"/>
<text text-anchor="start" x="1054" y="-24" font-family="Helvetica,sans-Serif" font-size="10.00" fill="#000000">MeshWorker::MGVectorData</text>
<text text-anchor="middle" x="1131" y="-13" font-family="Helvetica,sans-Serif" font-size="10.00" fill="#000000">&lt; VectorType, dim, spacedim &gt;</text>
</a>
</g>
</g>
<!-- Node4&#45;&gt;Node5 -->
<g id="edge5" class="edge">
<title>Node4&#45;&gt;Node5</title>
<path fill="none" stroke="#191970" d="M1019.1257,-21C1028.0579,-21 1037.0738,-21 1045.905,-21"/>
<polygon fill="#191970" stroke="#191970" points="1019.091,-17.5001 1009.0909,-21 1019.0909,-24.5001 1019.091,-17.5001"/>
</g>
</g>
</svg>
