<?xml version="1.0" encoding="UTF-8" standalone="no"?>
<!DOCTYPE svg PUBLIC "-//W3C//DTD SVG 1.1//EN"
 "http://www.w3.org/Graphics/SVG/1.1/DTD/svg11.dtd">
<!-- Generated by graphviz version 2.40.1 (20161225.0304)
 -->
<!-- Title: Particles::Particle&lt; dim, spacedim &gt; Pages: 1 -->
<svg width="351pt" height="325pt"
 viewBox="0.00 0.00 350.50 325.00" xmlns="http://www.w3.org/2000/svg" xmlns:xlink="http://www.w3.org/1999/xlink">
<g id="graph0" class="graph" transform="scale(1 1) rotate(0) translate(4 321)">
<title>Particles::Particle&lt; dim, spacedim &gt;</title>
<polygon fill="#ffffff" stroke="transparent" points="-4,4 -4,-321 346.5,-321 346.5,4 -4,4"/>
<!-- Node1 -->
<g id="node1" class="node">
<title>Node1</title>
<polygon fill="#bfbfbf" stroke="#000000" points="89,-.5 89,-200.5 196,-200.5 196,-.5 89,-.5"/>
<text text-anchor="start" x="97" y="-188.5" font-family="Helvetica,sans-Serif" font-size="10.00" fill="#000000">Particles::Particle</text>
<text text-anchor="middle" x="142.5" y="-177.5" font-family="Helvetica,sans-Serif" font-size="10.00" fill="#000000">&lt; dim, spacedim &gt;</text>
<polyline fill="none" stroke="#000000" points="89,-170.5 196,-170.5 "/>
<text text-anchor="middle" x="142.5" y="-158.5" font-family="Helvetica,sans-Serif" font-size="10.00" fill="#000000"> </text>
<polyline fill="none" stroke="#000000" points="89,-151.5 196,-151.5 "/>
<text text-anchor="start" x="97" y="-139.5" font-family="Helvetica,sans-Serif" font-size="10.00" fill="#000000">+ Particle()</text>
<text text-anchor="start" x="97" y="-128.5" font-family="Helvetica,sans-Serif" font-size="10.00" fill="#000000">+ Particle()</text>
<text text-anchor="start" x="97" y="-117.5" font-family="Helvetica,sans-Serif" font-size="10.00" fill="#000000">+ Particle()</text>
<text text-anchor="start" x="97" y="-106.5" font-family="Helvetica,sans-Serif" font-size="10.00" fill="#000000">+ Particle()</text>
<text text-anchor="start" x="97" y="-95.5" font-family="Helvetica,sans-Serif" font-size="10.00" fill="#000000">+ Particle()</text>
<text text-anchor="start" x="97" y="-84.5" font-family="Helvetica,sans-Serif" font-size="10.00" fill="#000000">+ operator=()</text>
<text text-anchor="start" x="97" y="-73.5" font-family="Helvetica,sans-Serif" font-size="10.00" fill="#000000">+ operator=()</text>
<text text-anchor="start" x="97" y="-62.5" font-family="Helvetica,sans-Serif" font-size="10.00" fill="#000000">+ ~Particle()</text>
<text text-anchor="start" x="97" y="-51.5" font-family="Helvetica,sans-Serif" font-size="10.00" fill="#000000">+ write_particle_data</text>
<text text-anchor="start" x="97" y="-40.5" font-family="Helvetica,sans-Serif" font-size="10.00" fill="#000000">_to_memory()</text>
<text text-anchor="start" x="97" y="-29.5" font-family="Helvetica,sans-Serif" font-size="10.00" fill="#000000">+ read_particle_data</text>
<text text-anchor="start" x="97" y="-18.5" font-family="Helvetica,sans-Serif" font-size="10.00" fill="#000000">_from_memory()</text>
<text text-anchor="start" x="97" y="-7.5" font-family="Helvetica,sans-Serif" font-size="10.00" fill="#000000">and 16 more...</text>
</g>
<!-- Node2 -->
<g id="node2" class="node">
<title>Node2</title>
<polygon fill="#ffffff" stroke="#bfbfbf" points="0,-248.5 0,-316.5 101,-316.5 101,-248.5 0,-248.5"/>
<text text-anchor="start" x="8" y="-304.5" font-family="Helvetica,sans-Serif" font-size="10.00" fill="#000000">PropertyPool&lt; dim,</text>
<text text-anchor="middle" x="50.5" y="-293.5" font-family="Helvetica,sans-Serif" font-size="10.00" fill="#000000"> spacedim &gt; *</text>
<polyline fill="none" stroke="#bfbfbf" points="0,-286.5 101,-286.5 "/>
<text text-anchor="middle" x="50.5" y="-274.5" font-family="Helvetica,sans-Serif" font-size="10.00" fill="#000000"> </text>
<polyline fill="none" stroke="#bfbfbf" points="0,-267.5 101,-267.5 "/>
<text text-anchor="middle" x="50.5" y="-255.5" font-family="Helvetica,sans-Serif" font-size="10.00" fill="#000000"> </text>
</g>
<!-- Node2&#45;&gt;Node1 -->
<g id="edge1" class="edge">
<title>Node2&#45;&gt;Node1</title>
<path fill="none" stroke="#404040" d="M61.5684,-248.4276C65.0458,-238.7711 69.1294,-228.3468 73.5,-219 76.5039,-212.5759 79.743,-206.0424 83.122,-199.5118"/>
<polygon fill="none" stroke="#404040" points="83.3125,-199.1514 82.5822,-191.9773 88.9235,-188.5439 89.6539,-195.718 83.3125,-199.1514"/>
<text text-anchor="middle" x="106" y="-222" font-family="Helvetica,sans-Serif" font-size="10.00" fill="#000000"> &#45;property_pool</text>
</g>
<!-- Node3 -->
<g id="node3" class="node">
<title>Node3</title>
<polygon fill="#ffffff" stroke="#bfbfbf" points="119,-254 119,-311 166,-311 166,-254 119,-254"/>
<text text-anchor="middle" x="142.5" y="-299" font-family="Helvetica,sans-Serif" font-size="10.00" fill="#000000">Handle</text>
<polyline fill="none" stroke="#bfbfbf" points="119,-292 166,-292 "/>
<text text-anchor="middle" x="142.5" y="-280" font-family="Helvetica,sans-Serif" font-size="10.00" fill="#000000"> </text>
<polyline fill="none" stroke="#bfbfbf" points="119,-273 166,-273 "/>
<text text-anchor="middle" x="142.5" y="-261" font-family="Helvetica,sans-Serif" font-size="10.00" fill="#000000"> </text>
</g>
<!-- Node3&#45;&gt;Node1 -->
<g id="edge2" class="edge">
<title>Node3&#45;&gt;Node1</title>
<path fill="none" stroke="#404040" d="M142.5,-253.6616C142.5,-242.0354 142.5,-227.8161 142.5,-212.7754"/>
<polygon fill="none" stroke="#404040" points="142.5001,-212.5708 138.5,-206.5709 142.5,-200.5708 146.5,-206.5708 142.5001,-212.5708"/>
<text text-anchor="middle" x="192" y="-222" font-family="Helvetica,sans-Serif" font-size="10.00" fill="#000000"> &#45;property_pool_handle</text>
</g>
<!-- Node4 -->
<g id="node4" class="node">
<title>Node4</title>
<polygon fill="#ffffff" stroke="#bfbfbf" points="214.5,-248.5 214.5,-316.5 314.5,-316.5 314.5,-248.5 214.5,-248.5"/>
<text text-anchor="start" x="222.5" y="-304.5" font-family="Helvetica,sans-Serif" font-size="10.00" fill="#000000">static PropertyPool</text>
<text text-anchor="middle" x="264.5" y="-293.5" font-family="Helvetica,sans-Serif" font-size="10.00" fill="#000000">&lt; dim, spacedim &gt;</text>
<polyline fill="none" stroke="#bfbfbf" points="214.5,-286.5 314.5,-286.5 "/>
<text text-anchor="middle" x="264.5" y="-274.5" font-family="Helvetica,sans-Serif" font-size="10.00" fill="#000000"> </text>
<polyline fill="none" stroke="#bfbfbf" points="214.5,-267.5 314.5,-267.5 "/>
<text text-anchor="middle" x="264.5" y="-255.5" font-family="Helvetica,sans-Serif" font-size="10.00" fill="#000000"> </text>
</g>
<!-- Node4&#45;&gt;Node1 -->
<g id="edge3" class="edge">
<title>Node4&#45;&gt;Node1</title>
<path fill="none" stroke="#404040" d="M255.1832,-248.2108C251.8579,-238.4505 247.6345,-228.0256 242.5,-219 231.8737,-200.3207 218.1503,-181.7678 204.2947,-165.0788"/>
<polygon fill="none" stroke="#404040" points="203.9117,-164.6279 196.9789,-162.6438 196.1439,-155.4812 203.0767,-157.4652 203.9117,-164.6279"/>
<text text-anchor="middle" x="294.5" y="-222" font-family="Helvetica,sans-Serif" font-size="10.00" fill="#000000"> &#45;global_property_pool</text>
</g>
</g>
</svg>
