<?xml version="1.0" encoding="UTF-8" standalone="no"?>
<!DOCTYPE svg PUBLIC "-//W3C//DTD SVG 1.1//EN"
 "http://www.w3.org/Graphics/SVG/1.1/DTD/svg11.dtd">
<!-- Generated by graphviz version 2.40.1 (20161225.0304)
 -->
<!-- Title: mystl::hashtable&lt; T, Hash, KeyEqual &gt; Pages: 1 -->
<svg width="402pt" height="160pt"
 viewBox="0.00 0.00 402.00 160.00" xmlns="http://www.w3.org/2000/svg" xmlns:xlink="http://www.w3.org/1999/xlink">
<g id="graph0" class="graph" transform="scale(1 1) rotate(0) translate(4 156)">
<title>mystl::hashtable&lt; T, Hash, KeyEqual &gt;</title>
<polygon fill="#ffffff" stroke="transparent" points="-4,4 -4,-156 398,-156 398,4 -4,4"/>
<!-- Node0 -->
<g id="node1" class="node">
<title>Node0</title>
<polygon fill="#bfbfbf" stroke="#000000" points="0,-61 0,-91 107,-91 107,-61 0,-61"/>
<text text-anchor="start" x="8" y="-79" font-family="Helvetica,sans-Serif" font-size="10.00" fill="#000000">mystl::hashtable&lt; T,</text>
<text text-anchor="middle" x="53.5" y="-68" font-family="Helvetica,sans-Serif" font-size="10.00" fill="#000000"> Hash, KeyEqual &gt;</text>
</g>
<!-- Node1 -->
<g id="node2" class="node">
<title>Node1</title>
<g id="a_node2"><a xlink:href="classmystl_1_1hashtable.html" target="_top" xlink:title="mystl::hashtable\&lt; mystl\l::pair\&lt; const Key, T \&gt;\l, Hash, KeyEqual \&gt;">
<polygon fill="#ffffff" stroke="#000000" points="271.5,-110.5 271.5,-151.5 393.5,-151.5 393.5,-110.5 271.5,-110.5"/>
<text text-anchor="start" x="279.5" y="-139.5" font-family="Helvetica,sans-Serif" font-size="10.00" fill="#000000">mystl::hashtable&lt; mystl</text>
<text text-anchor="start" x="279.5" y="-128.5" font-family="Helvetica,sans-Serif" font-size="10.00" fill="#000000">::pair&lt; const Key, T &gt;</text>
<text text-anchor="middle" x="332.5" y="-117.5" font-family="Helvetica,sans-Serif" font-size="10.00" fill="#000000">, Hash, KeyEqual &gt;</text>
</a>
</g>
</g>
<!-- Node0&#45;&gt;Node1 -->
<g id="edge1" class="edge">
<title>Node0&#45;&gt;Node1</title>
<path fill="none" stroke="#ffa500" stroke-dasharray="5,2" d="M117.3707,-89.4538C119.9468,-89.9792 122.4976,-90.4964 125,-91 174.094,-100.881 229.8273,-111.5971 271.1619,-119.4484"/>
<polygon fill="#ffa500" stroke="#ffa500" points="117.8571,-85.9807 107.3574,-87.3972 116.4488,-92.8376 117.8571,-85.9807"/>
<text text-anchor="start" x="125" y="-129" font-family="Helvetica,sans-Serif" font-size="10.00" fill="#000000"> &lt; mystl::pair&lt; const</text>
<text text-anchor="middle" x="189" y="-118" font-family="Helvetica,sans-Serif" font-size="10.00" fill="#000000"> Key, T &gt;, Hash, KeyEqual &gt;</text>
</g>
<!-- Node2 -->
<g id="node3" class="node">
<title>Node2</title>
<g id="a_node3"><a xlink:href="classmystl_1_1hashtable.html" target="_top" xlink:title="mystl::hashtable\&lt; Key,\l Hash, KeyEqual \&gt;">
<polygon fill="#ffffff" stroke="#000000" points="273.5,-61 273.5,-91 391.5,-91 391.5,-61 273.5,-61"/>
<text text-anchor="start" x="281.5" y="-79" font-family="Helvetica,sans-Serif" font-size="10.00" fill="#000000">mystl::hashtable&lt; Key,</text>
<text text-anchor="middle" x="332.5" y="-68" font-family="Helvetica,sans-Serif" font-size="10.00" fill="#000000"> Hash, KeyEqual &gt;</text>
</a>
</g>
</g>
<!-- Node0&#45;&gt;Node2 -->
<g id="edge2" class="edge">
<title>Node0&#45;&gt;Node2</title>
<path fill="none" stroke="#ffa500" stroke-dasharray="5,2" d="M117.3263,-76C164.1594,-76 227.31,-76 273.0752,-76"/>
<polygon fill="#ffa500" stroke="#ffa500" points="117.294,-72.5001 107.294,-76 117.294,-79.5001 117.294,-72.5001"/>
<text text-anchor="middle" x="189" y="-79" font-family="Helvetica,sans-Serif" font-size="10.00" fill="#000000"> &lt; Key, Hash, KeyEqual &gt;</text>
</g>
<!-- Node3 -->
<g id="node4" class="node">
<title>Node3</title>
<g id="a_node4"><a xlink:href="classmystl_1_1hashtable.html" target="_top" xlink:title="mystl::hashtable\&lt; pair\l\&lt; const Key, T \&gt;, Hash,\l KeyEqual \&gt;">
<polygon fill="#ffffff" stroke="#000000" points="271,-.5 271,-41.5 394,-41.5 394,-.5 271,-.5"/>
<text text-anchor="start" x="279" y="-29.5" font-family="Helvetica,sans-Serif" font-size="10.00" fill="#000000">mystl::hashtable&lt; pair</text>
<text text-anchor="start" x="279" y="-18.5" font-family="Helvetica,sans-Serif" font-size="10.00" fill="#000000">&lt; const Key, T &gt;, Hash,</text>
<text text-anchor="middle" x="332.5" y="-7.5" font-family="Helvetica,sans-Serif" font-size="10.00" fill="#000000"> KeyEqual &gt;</text>
</a>
</g>
</g>
<!-- Node0&#45;&gt;Node3 -->
<g id="edge3" class="edge">
<title>Node0&#45;&gt;Node3</title>
<path fill="none" stroke="#ffa500" stroke-dasharray="5,2" d="M99.997,-57.5021C108.2346,-54.6835 116.8006,-52.0397 125,-50 173.1826,-38.0139 228.9764,-30.565 270.5662,-26.2225"/>
<polygon fill="#ffa500" stroke="#ffa500" points="98.773,-54.2225 90.5194,-60.8654 101.1141,-60.8194 98.773,-54.2225"/>
<text text-anchor="start" x="136.5" y="-64" font-family="Helvetica,sans-Serif" font-size="10.00" fill="#000000"> &lt; pair&lt; const Key,</text>
<text text-anchor="middle" x="189" y="-53" font-family="Helvetica,sans-Serif" font-size="10.00" fill="#000000"> T &gt;, Hash, KeyEqual &gt;</text>
</g>
</g>
</svg>
