<?xml version="1.0" encoding="UTF-8" standalone="no"?>
<!DOCTYPE svg PUBLIC "-//W3C//DTD SVG 1.1//EN"
 "http://www.w3.org/Graphics/SVG/1.1/DTD/svg11.dtd">
<!-- Generated by graphviz version 2.40.1 (20161225.0304)
 -->
<!-- Title: internal::parallel::shared::TemporarilyRestoreSubdomainIds&lt; dim, spacedim &gt; Pages: 1 -->
<svg width="1087pt" height="871pt"
 viewBox="0.00 0.00 1086.50 871.00" xmlns="http://www.w3.org/2000/svg" xmlns:xlink="http://www.w3.org/1999/xlink">
<g id="graph0" class="graph" transform="scale(1 1) rotate(0) translate(4 867)">
<title>internal::parallel::shared::TemporarilyRestoreSubdomainIds&lt; dim, spacedim &gt;</title>
<polygon fill="#ffffff" stroke="transparent" points="-4,4 -4,-867 1082.5,-867 1082.5,4 -4,4"/>
<!-- Node2 -->
<g id="node1" class="node">
<title>Node2</title>
<polygon fill="#bfbfbf" stroke="#000000" points="384.5,-.5 384.5,-90.5 569.5,-90.5 569.5,-.5 384.5,-.5"/>
<text text-anchor="start" x="392.5" y="-78.5" font-family="Helvetica,sans-Serif" font-size="10.00" fill="#000000">internal::parallel</text>
<text text-anchor="start" x="392.5" y="-67.5" font-family="Helvetica,sans-Serif" font-size="10.00" fill="#000000">::shared::TemporarilyRestore</text>
<text text-anchor="middle" x="477" y="-56.5" font-family="Helvetica,sans-Serif" font-size="10.00" fill="#000000">SubdomainIds&lt; dim, spacedim &gt;</text>
<polyline fill="none" stroke="#000000" points="384.5,-49.5 569.5,-49.5 "/>
<text text-anchor="middle" x="477" y="-37.5" font-family="Helvetica,sans-Serif" font-size="10.00" fill="#000000"> </text>
<polyline fill="none" stroke="#000000" points="384.5,-30.5 569.5,-30.5 "/>
<text text-anchor="start" x="392.5" y="-18.5" font-family="Helvetica,sans-Serif" font-size="10.00" fill="#000000">+ TemporarilyRestoreSubdomainIds()</text>
<text text-anchor="start" x="392.5" y="-7.5" font-family="Helvetica,sans-Serif" font-size="10.00" fill="#000000">+ ~TemporarilyRestoreSubdomainIds()</text>
</g>
<!-- Node3 -->
<g id="node2" class="node">
<title>Node3</title>
<g id="a_node2"><a xlink:href="classSubscriptor.html" target="_top" xlink:title="{Subscriptor\n||+ Subscriptor()\l+ Subscriptor()\l+ Subscriptor()\l+ ~Subscriptor()\l+ operator=()\l+ operator=()\l+ serialize()\l+ subscribe()\l+ unsubscribe()\l+ n_subscriptions()\l+ list_subscribers()\l+ list_subscribers()\l+ ExcInUse()\l+ ExcNoSubscriber()\l&#45; check_no_subscribers()\l* subscribe()\l* unsubscribe()\l* n_subscriptions()\l* list_subscribers()\l* list_subscribers()\l}">
<polygon fill="#ffffff" stroke="#000000" points="755,-138.5 755,-404.5 881,-404.5 881,-138.5 755,-138.5"/>
<text text-anchor="middle" x="818" y="-392.5" font-family="Helvetica,sans-Serif" font-size="10.00" fill="#000000">Subscriptor</text>
<polyline fill="none" stroke="#000000" points="755,-385.5 881,-385.5 "/>
<text text-anchor="middle" x="818" y="-373.5" font-family="Helvetica,sans-Serif" font-size="10.00" fill="#000000"> </text>
<polyline fill="none" stroke="#000000" points="755,-366.5 881,-366.5 "/>
<text text-anchor="start" x="763" y="-354.5" font-family="Helvetica,sans-Serif" font-size="10.00" fill="#000000">+ Subscriptor()</text>
<text text-anchor="start" x="763" y="-343.5" font-family="Helvetica,sans-Serif" font-size="10.00" fill="#000000">+ Subscriptor()</text>
<text text-anchor="start" x="763" y="-332.5" font-family="Helvetica,sans-Serif" font-size="10.00" fill="#000000">+ Subscriptor()</text>
<text text-anchor="start" x="763" y="-321.5" font-family="Helvetica,sans-Serif" font-size="10.00" fill="#000000">+ ~Subscriptor()</text>
<text text-anchor="start" x="763" y="-310.5" font-family="Helvetica,sans-Serif" font-size="10.00" fill="#000000">+ operator=()</text>
<text text-anchor="start" x="763" y="-299.5" font-family="Helvetica,sans-Serif" font-size="10.00" fill="#000000">+ operator=()</text>
<text text-anchor="start" x="763" y="-288.5" font-family="Helvetica,sans-Serif" font-size="10.00" fill="#000000">+ serialize()</text>
<text text-anchor="start" x="763" y="-277.5" font-family="Helvetica,sans-Serif" font-size="10.00" fill="#000000">+ subscribe()</text>
<text text-anchor="start" x="763" y="-266.5" font-family="Helvetica,sans-Serif" font-size="10.00" fill="#000000">+ unsubscribe()</text>
<text text-anchor="start" x="763" y="-255.5" font-family="Helvetica,sans-Serif" font-size="10.00" fill="#000000">+ n_subscriptions()</text>
<text text-anchor="start" x="763" y="-244.5" font-family="Helvetica,sans-Serif" font-size="10.00" fill="#000000">+ list_subscribers()</text>
<text text-anchor="start" x="763" y="-233.5" font-family="Helvetica,sans-Serif" font-size="10.00" fill="#000000">+ list_subscribers()</text>
<text text-anchor="start" x="763" y="-222.5" font-family="Helvetica,sans-Serif" font-size="10.00" fill="#000000">+ ExcInUse()</text>
<text text-anchor="start" x="763" y="-211.5" font-family="Helvetica,sans-Serif" font-size="10.00" fill="#000000">+ ExcNoSubscriber()</text>
<text text-anchor="start" x="763" y="-200.5" font-family="Helvetica,sans-Serif" font-size="10.00" fill="#000000">&#45; check_no_subscribers()</text>
<text text-anchor="start" x="763" y="-189.5" font-family="Helvetica,sans-Serif" font-size="10.00" fill="#000000">* subscribe()</text>
<text text-anchor="start" x="763" y="-178.5" font-family="Helvetica,sans-Serif" font-size="10.00" fill="#000000">* unsubscribe()</text>
<text text-anchor="start" x="763" y="-167.5" font-family="Helvetica,sans-Serif" font-size="10.00" fill="#000000">* n_subscriptions()</text>
<text text-anchor="start" x="763" y="-156.5" font-family="Helvetica,sans-Serif" font-size="10.00" fill="#000000">* list_subscribers()</text>
<text text-anchor="start" x="763" y="-145.5" font-family="Helvetica,sans-Serif" font-size="10.00" fill="#000000">* list_subscribers()</text>
</a>
</g>
</g>
<!-- Node3&#45;&gt;Node2 -->
<g id="edge1" class="edge">
<title>Node3&#45;&gt;Node2</title>
<path fill="none" stroke="#191970" d="M746.0889,-223.8405C686.7653,-184.5234 603.183,-129.1286 544.9689,-90.5469"/>
<polygon fill="none" stroke="#191970" points="744.3906,-226.9138 754.6597,-229.5208 748.2577,-221.0789 744.3906,-226.9138"/>
</g>
<!-- Node4 -->
<g id="node3" class="node">
<title>Node4</title>
<polygon fill="#ffffff" stroke="#bfbfbf" points="551,-513 551,-581 661,-581 661,-513 551,-513"/>
<text text-anchor="start" x="559" y="-569" font-family="Helvetica,sans-Serif" font-size="10.00" fill="#000000">std::map&lt; std::string,</text>
<text text-anchor="middle" x="606" y="-558" font-family="Helvetica,sans-Serif" font-size="10.00" fill="#000000"> unsigned int &gt;</text>
<polyline fill="none" stroke="#bfbfbf" points="551,-551 661,-551 "/>
<text text-anchor="middle" x="606" y="-539" font-family="Helvetica,sans-Serif" font-size="10.00" fill="#000000"> </text>
<polyline fill="none" stroke="#bfbfbf" points="551,-532 661,-532 "/>
<text text-anchor="middle" x="606" y="-520" font-family="Helvetica,sans-Serif" font-size="10.00" fill="#000000"> </text>
</g>
<!-- Node4&#45;&gt;Node3 -->
<g id="edge2" class="edge">
<title>Node4&#45;&gt;Node3</title>
<path fill="none" stroke="#404040" d="M630.5419,-512.7758C648.6487,-487.719 674.0277,-452.999 697,-423 713.0615,-402.0257 730.647,-379.6731 747.3126,-358.7585"/>
<polygon fill="none" stroke="#404040" points="747.4088,-358.638 748.0267,-351.4534 754.8963,-349.2604 754.2784,-356.445 747.4088,-358.638"/>
<text text-anchor="middle" x="728.5" y="-431.5" font-family="Helvetica,sans-Serif" font-size="10.00" fill="#000000"> &#45;counter_map</text>
</g>
<!-- Node5 -->
<g id="node4" class="node">
<title>Node5</title>
<g id="a_node4"><a xlink:href="classint.html" target="_top" xlink:title="{int\n||}">
<polygon fill="#ffffff" stroke="#000000" points="535.5,-689.5 535.5,-746.5 564.5,-746.5 564.5,-689.5 535.5,-689.5"/>
<text text-anchor="middle" x="550" y="-734.5" font-family="Helvetica,sans-Serif" font-size="10.00" fill="#000000">int</text>
<polyline fill="none" stroke="#000000" points="535.5,-727.5 564.5,-727.5 "/>
<text text-anchor="middle" x="550" y="-715.5" font-family="Helvetica,sans-Serif" font-size="10.00" fill="#000000"> </text>
<polyline fill="none" stroke="#000000" points="535.5,-708.5 564.5,-708.5 "/>
<text text-anchor="middle" x="550" y="-696.5" font-family="Helvetica,sans-Serif" font-size="10.00" fill="#000000"> </text>
</a>
</g>
</g>
<!-- Node5&#45;&gt;Node4 -->
<g id="edge3" class="edge">
<title>Node5&#45;&gt;Node4</title>
<path fill="none" stroke="#404040" d="M547.3865,-689.3913C547.008,-676.8161 547.6217,-661.9858 551,-649 556.1523,-629.1948 565.8935,-609.0247 575.7635,-591.9066"/>
<polygon fill="none" stroke="#404040" points="576.0518,-591.4255 575.7055,-584.2227 582.2211,-581.1328 582.5673,-588.3356 576.0518,-591.4255"/>
<text text-anchor="middle" x="575.5" y="-657.5" font-family="Helvetica,sans-Serif" font-size="10.00" fill="#000000"> +elements</text>
</g>
<!-- Node6 -->
<g id="node5" class="node">
<title>Node6</title>
<g id="a_node5"><a xlink:title="STL class. ">
<polygon fill="#ffffff" stroke="#bfbfbf" points="265,-689.5 265,-746.5 325,-746.5 325,-689.5 265,-689.5"/>
<text text-anchor="middle" x="295" y="-734.5" font-family="Helvetica,sans-Serif" font-size="10.00" fill="#000000">std::string</text>
<polyline fill="none" stroke="#bfbfbf" points="265,-727.5 325,-727.5 "/>
<text text-anchor="middle" x="295" y="-715.5" font-family="Helvetica,sans-Serif" font-size="10.00" fill="#000000"> </text>
<polyline fill="none" stroke="#bfbfbf" points="265,-708.5 325,-708.5 "/>
<text text-anchor="middle" x="295" y="-696.5" font-family="Helvetica,sans-Serif" font-size="10.00" fill="#000000"> </text>
</a>
</g>
</g>
<!-- Node6&#45;&gt;Node4 -->
<g id="edge4" class="edge">
<title>Node6&#45;&gt;Node4</title>
<path fill="none" stroke="#404040" d="M325.3086,-695.5571C329.7391,-693.0197 334.3722,-690.7295 339,-689 395.7008,-667.8099 416.8416,-690.9228 474,-671 478.0936,-669.5732 537.7558,-633.8755 541,-631 554.1028,-619.3862 566.4281,-604.8315 576.7499,-591.1153"/>
<polygon fill="none" stroke="#404040" points="576.8182,-591.0217 577.1256,-583.8172 583.8942,-581.33 583.5868,-588.5345 576.8182,-591.0217"/>
<text text-anchor="middle" x="527.5" y="-657.5" font-family="Helvetica,sans-Serif" font-size="10.00" fill="#000000"> +keys</text>
</g>
<!-- Node17 -->
<g id="node16" class="node">
<title>Node17</title>
<g id="a_node16"><a xlink:href="classSmartPointer.html" target="_top" xlink:title="{SmartPointer\&lt; const\l parallel::shared::Triangulation\l\&lt; dim, spacedim \&gt; \&gt;\n||+ SmartPointer()\l+ SmartPointer()\l+ SmartPointer()\l+ SmartPointer()\l+ SmartPointer()\l+ ~SmartPointer()\l+ operator=()\l+ operator=()\l+ operator=()\l+ clear()\land 6 more...\l}">
<polygon fill="#ffffff" stroke="#000000" points="187.5,-177 187.5,-366 334.5,-366 334.5,-177 187.5,-177"/>
<text text-anchor="start" x="195.5" y="-354" font-family="Helvetica,sans-Serif" font-size="10.00" fill="#000000">SmartPointer&lt; const</text>
<text text-anchor="start" x="195.5" y="-343" font-family="Helvetica,sans-Serif" font-size="10.00" fill="#000000"> parallel::shared::Triangulation</text>
<text text-anchor="middle" x="261" y="-332" font-family="Helvetica,sans-Serif" font-size="10.00" fill="#000000">&lt; dim, spacedim &gt; &gt;</text>
<polyline fill="none" stroke="#000000" points="187.5,-325 334.5,-325 "/>
<text text-anchor="middle" x="261" y="-313" font-family="Helvetica,sans-Serif" font-size="10.00" fill="#000000"> </text>
<polyline fill="none" stroke="#000000" points="187.5,-306 334.5,-306 "/>
<text text-anchor="start" x="195.5" y="-294" font-family="Helvetica,sans-Serif" font-size="10.00" fill="#000000">+ SmartPointer()</text>
<text text-anchor="start" x="195.5" y="-283" font-family="Helvetica,sans-Serif" font-size="10.00" fill="#000000">+ SmartPointer()</text>
<text text-anchor="start" x="195.5" y="-272" font-family="Helvetica,sans-Serif" font-size="10.00" fill="#000000">+ SmartPointer()</text>
<text text-anchor="start" x="195.5" y="-261" font-family="Helvetica,sans-Serif" font-size="10.00" fill="#000000">+ SmartPointer()</text>
<text text-anchor="start" x="195.5" y="-250" font-family="Helvetica,sans-Serif" font-size="10.00" fill="#000000">+ SmartPointer()</text>
<text text-anchor="start" x="195.5" y="-239" font-family="Helvetica,sans-Serif" font-size="10.00" fill="#000000">+ ~SmartPointer()</text>
<text text-anchor="start" x="195.5" y="-228" font-family="Helvetica,sans-Serif" font-size="10.00" fill="#000000">+ operator=()</text>
<text text-anchor="start" x="195.5" y="-217" font-family="Helvetica,sans-Serif" font-size="10.00" fill="#000000">+ operator=()</text>
<text text-anchor="start" x="195.5" y="-206" font-family="Helvetica,sans-Serif" font-size="10.00" fill="#000000">+ operator=()</text>
<text text-anchor="start" x="195.5" y="-195" font-family="Helvetica,sans-Serif" font-size="10.00" fill="#000000">+ clear()</text>
<text text-anchor="start" x="195.5" y="-184" font-family="Helvetica,sans-Serif" font-size="10.00" fill="#000000">and 6 more...</text>
</a>
</g>
</g>
<!-- Node6&#45;&gt;Node17 -->
<g id="edge17" class="edge">
<title>Node6&#45;&gt;Node17</title>
<path fill="none" stroke="#404040" d="M284.7907,-689.4119C279.3042,-672.6325 273.0542,-650.8825 270,-631 257.0738,-546.8529 255.3646,-450.3494 256.5902,-378.5279"/>
<polygon fill="none" stroke="#404040" points="256.5943,-378.3156 252.7133,-372.238 256.8308,-366.318 260.7118,-372.3956 256.5943,-378.3156"/>
<text text-anchor="middle" x="277" y="-544.5" font-family="Helvetica,sans-Serif" font-size="10.00" fill="#000000"> &#45;id</text>
</g>
<!-- Node20 -->
<g id="node19" class="node">
<title>Node20</title>
<g id="a_node19"><a xlink:href="classSmartPointer.html" target="_top" xlink:title="{SmartPointer\&lt; T, P \&gt;\n||+ SmartPointer()\l+ SmartPointer()\l+ SmartPointer()\l+ SmartPointer()\l+ SmartPointer()\l+ ~SmartPointer()\l+ operator=()\l+ operator=()\l+ operator=()\l+ clear()\land 6 more...\l}">
<polygon fill="#ffffff" stroke="#000000" points="293,-463.5 293,-630.5 403,-630.5 403,-463.5 293,-463.5"/>
<text text-anchor="middle" x="348" y="-618.5" font-family="Helvetica,sans-Serif" font-size="10.00" fill="#000000">SmartPointer&lt; T, P &gt;</text>
<polyline fill="none" stroke="#000000" points="293,-611.5 403,-611.5 "/>
<text text-anchor="middle" x="348" y="-599.5" font-family="Helvetica,sans-Serif" font-size="10.00" fill="#000000"> </text>
<polyline fill="none" stroke="#000000" points="293,-592.5 403,-592.5 "/>
<text text-anchor="start" x="301" y="-580.5" font-family="Helvetica,sans-Serif" font-size="10.00" fill="#000000">+ SmartPointer()</text>
<text text-anchor="start" x="301" y="-569.5" font-family="Helvetica,sans-Serif" font-size="10.00" fill="#000000">+ SmartPointer()</text>
<text text-anchor="start" x="301" y="-558.5" font-family="Helvetica,sans-Serif" font-size="10.00" fill="#000000">+ SmartPointer()</text>
<text text-anchor="start" x="301" y="-547.5" font-family="Helvetica,sans-Serif" font-size="10.00" fill="#000000">+ SmartPointer()</text>
<text text-anchor="start" x="301" y="-536.5" font-family="Helvetica,sans-Serif" font-size="10.00" fill="#000000">+ SmartPointer()</text>
<text text-anchor="start" x="301" y="-525.5" font-family="Helvetica,sans-Serif" font-size="10.00" fill="#000000">+ ~SmartPointer()</text>
<text text-anchor="start" x="301" y="-514.5" font-family="Helvetica,sans-Serif" font-size="10.00" fill="#000000">+ operator=()</text>
<text text-anchor="start" x="301" y="-503.5" font-family="Helvetica,sans-Serif" font-size="10.00" fill="#000000">+ operator=()</text>
<text text-anchor="start" x="301" y="-492.5" font-family="Helvetica,sans-Serif" font-size="10.00" fill="#000000">+ operator=()</text>
<text text-anchor="start" x="301" y="-481.5" font-family="Helvetica,sans-Serif" font-size="10.00" fill="#000000">+ clear()</text>
<text text-anchor="start" x="301" y="-470.5" font-family="Helvetica,sans-Serif" font-size="10.00" fill="#000000">and 6 more...</text>
</a>
</g>
</g>
<!-- Node6&#45;&gt;Node20 -->
<g id="edge21" class="edge">
<title>Node6&#45;&gt;Node20</title>
<path fill="none" stroke="#404040" d="M303.871,-689.3784C307.9653,-676.1687 313.087,-659.6438 318.3771,-642.5757"/>
<polygon fill="none" stroke="#404040" points="318.5032,-642.1687 316.4588,-635.2534 322.0559,-630.7066 324.1002,-637.6218 318.5032,-642.1687"/>
<text text-anchor="middle" x="323" y="-657.5" font-family="Helvetica,sans-Serif" font-size="10.00" fill="#000000"> &#45;id</text>
</g>
<!-- Node7 -->
<g id="node6" class="node">
<title>Node7</title>
<g id="a_node6"><a xlink:title="STL class. ">
<polygon fill="#ffffff" stroke="#bfbfbf" points="247.5,-794.5 247.5,-862.5 342.5,-862.5 342.5,-794.5 247.5,-794.5"/>
<text text-anchor="start" x="255.5" y="-850.5" font-family="Helvetica,sans-Serif" font-size="10.00" fill="#000000">std::basic_string&lt;</text>
<text text-anchor="middle" x="295" y="-839.5" font-family="Helvetica,sans-Serif" font-size="10.00" fill="#000000"> char &gt;</text>
<polyline fill="none" stroke="#bfbfbf" points="247.5,-832.5 342.5,-832.5 "/>
<text text-anchor="middle" x="295" y="-820.5" font-family="Helvetica,sans-Serif" font-size="10.00" fill="#000000"> </text>
<polyline fill="none" stroke="#bfbfbf" points="247.5,-813.5 342.5,-813.5 "/>
<text text-anchor="middle" x="295" y="-801.5" font-family="Helvetica,sans-Serif" font-size="10.00" fill="#000000"> </text>
</a>
</g>
</g>
<!-- Node7&#45;&gt;Node6 -->
<g id="edge5" class="edge">
<title>Node7&#45;&gt;Node6</title>
<path fill="none" stroke="#191970" d="M295,-784.0661C295,-771.4172 295,-757.9812 295,-746.5519"/>
<polygon fill="none" stroke="#191970" points="291.5001,-784.4447 295,-794.4447 298.5001,-784.4447 291.5001,-784.4447"/>
</g>
<!-- Node8 -->
<g id="node7" class="node">
<title>Node8</title>
<g id="a_node7"><a xlink:title="STL class. ">
<polygon fill="#ffffff" stroke="#bfbfbf" points="795,-689.5 795,-746.5 887,-746.5 887,-689.5 795,-689.5"/>
<text text-anchor="middle" x="841" y="-734.5" font-family="Helvetica,sans-Serif" font-size="10.00" fill="#000000">std::map&lt; K, T &gt;</text>
<polyline fill="none" stroke="#bfbfbf" points="795,-727.5 887,-727.5 "/>
<text text-anchor="middle" x="841" y="-715.5" font-family="Helvetica,sans-Serif" font-size="10.00" fill="#000000"> </text>
<polyline fill="none" stroke="#bfbfbf" points="795,-708.5 887,-708.5 "/>
<text text-anchor="middle" x="841" y="-696.5" font-family="Helvetica,sans-Serif" font-size="10.00" fill="#000000"> </text>
</a>
</g>
</g>
<!-- Node8&#45;&gt;Node4 -->
<g id="edge6" class="edge">
<title>Node8&#45;&gt;Node4</title>
<path fill="none" stroke="#ffa500" d="M839.597,-679.0794C837.2414,-667.8689 832.6425,-656.6228 824,-649 772.3199,-603.417 729.8688,-665.1228 670,-631 649.9303,-619.5611 634.1128,-599.0335 623.2236,-581.1349"/>
<polygon fill="#ffa500" stroke="#ffa500" points="836.1851,-679.9169 841.1812,-689.2597 843.1018,-678.8405 836.1851,-679.9169"/>
<text text-anchor="start" x="836" y="-663" font-family="Helvetica,sans-Serif" font-size="10.00" fill="#000000"> &lt; std::string, unsigned</text>
<text text-anchor="middle" x="886.5" y="-652" font-family="Helvetica,sans-Serif" font-size="10.00" fill="#000000"> int &gt;</text>
</g>
<!-- Node9 -->
<g id="node8" class="node">
<title>Node9</title>
<polygon fill="#ffffff" stroke="#bfbfbf" points="826.5,-800 826.5,-857 855.5,-857 855.5,-800 826.5,-800"/>
<text text-anchor="middle" x="841" y="-845" font-family="Helvetica,sans-Serif" font-size="10.00" fill="#000000">K</text>
<polyline fill="none" stroke="#bfbfbf" points="826.5,-838 855.5,-838 "/>
<text text-anchor="middle" x="841" y="-826" font-family="Helvetica,sans-Serif" font-size="10.00" fill="#000000"> </text>
<polyline fill="none" stroke="#bfbfbf" points="826.5,-819 855.5,-819 "/>
<text text-anchor="middle" x="841" y="-807" font-family="Helvetica,sans-Serif" font-size="10.00" fill="#000000"> </text>
</g>
<!-- Node9&#45;&gt;Node8 -->
<g id="edge7" class="edge">
<title>Node9&#45;&gt;Node8</title>
<path fill="none" stroke="#404040" d="M841,-799.7559C841,-787.2224 841,-772.3039 841,-758.6631"/>
<polygon fill="none" stroke="#404040" points="841.0001,-758.6002 837,-752.6002 841,-746.6002 845,-752.6002 841.0001,-758.6002"/>
<text text-anchor="middle" x="856.5" y="-768" font-family="Helvetica,sans-Serif" font-size="10.00" fill="#000000"> +keys</text>
</g>
<!-- Node10 -->
<g id="node9" class="node">
<title>Node10</title>
<polygon fill="#ffffff" stroke="#bfbfbf" points="621.5,-800 621.5,-857 650.5,-857 650.5,-800 621.5,-800"/>
<text text-anchor="middle" x="636" y="-845" font-family="Helvetica,sans-Serif" font-size="10.00" fill="#000000">T</text>
<polyline fill="none" stroke="#bfbfbf" points="621.5,-838 650.5,-838 "/>
<text text-anchor="middle" x="636" y="-826" font-family="Helvetica,sans-Serif" font-size="10.00" fill="#000000"> </text>
<polyline fill="none" stroke="#bfbfbf" points="621.5,-819 650.5,-819 "/>
<text text-anchor="middle" x="636" y="-807" font-family="Helvetica,sans-Serif" font-size="10.00" fill="#000000"> </text>
</g>
<!-- Node10&#45;&gt;Node8 -->
<g id="edge8" class="edge">
<title>Node10&#45;&gt;Node8</title>
<path fill="none" stroke="#404040" d="M650.7431,-820.5531C678.2806,-805.7097 738.8517,-773.0604 784.3,-748.5627"/>
<polygon fill="none" stroke="#404040" points="784.351,-748.5352 787.7346,-742.1673 794.9142,-742.8414 791.5305,-749.2094 784.351,-748.5352"/>
<text text-anchor="middle" x="775.5" y="-768" font-family="Helvetica,sans-Serif" font-size="10.00" fill="#000000"> +elements</text>
</g>
<!-- Node15 -->
<g id="node14" class="node">
<title>Node15</title>
<g id="a_node14"><a xlink:title="STL class. ">
<polygon fill="#ffffff" stroke="#bfbfbf" points="592.5,-689.5 592.5,-746.5 679.5,-746.5 679.5,-689.5 592.5,-689.5"/>
<text text-anchor="middle" x="636" y="-734.5" font-family="Helvetica,sans-Serif" font-size="10.00" fill="#000000">std::vector&lt; T &gt;</text>
<polyline fill="none" stroke="#bfbfbf" points="592.5,-727.5 679.5,-727.5 "/>
<text text-anchor="middle" x="636" y="-715.5" font-family="Helvetica,sans-Serif" font-size="10.00" fill="#000000"> </text>
<polyline fill="none" stroke="#bfbfbf" points="592.5,-708.5 679.5,-708.5 "/>
<text text-anchor="middle" x="636" y="-696.5" font-family="Helvetica,sans-Serif" font-size="10.00" fill="#000000"> </text>
</a>
</g>
</g>
<!-- Node10&#45;&gt;Node15 -->
<g id="edge14" class="edge">
<title>Node10&#45;&gt;Node15</title>
<path fill="none" stroke="#404040" d="M636,-799.7559C636,-787.2224 636,-772.3039 636,-758.6631"/>
<polygon fill="none" stroke="#404040" points="636.0001,-758.6002 632,-752.6002 636,-746.6002 640,-752.6002 636.0001,-758.6002"/>
<text text-anchor="middle" x="660.5" y="-768" font-family="Helvetica,sans-Serif" font-size="10.00" fill="#000000"> +elements</text>
</g>
<!-- Node10&#45;&gt;Node20 -->
<g id="edge23" class="edge">
<title>Node10&#45;&gt;Node20</title>
<path fill="none" stroke="#404040" d="M621.3372,-826.1543C570.5361,-817.718 403.3423,-787.2733 370,-747 346.2836,-718.3535 338.4884,-678.943 337.4738,-642.676"/>
<polygon fill="none" stroke="#404040" points="337.4726,-642.517 333.4247,-636.5492 337.3765,-630.5174 341.4244,-636.4851 337.4726,-642.517"/>
<text text-anchor="middle" x="375" y="-715.5" font-family="Helvetica,sans-Serif" font-size="10.00" fill="#000000"> &#45;t</text>
</g>
<!-- Node11 -->
<g id="node10" class="node">
<title>Node11</title>
<polygon fill="#ffffff" stroke="#bfbfbf" points="819,-518.5 819,-575.5 935,-575.5 935,-518.5 819,-518.5"/>
<text text-anchor="middle" x="877" y="-563.5" font-family="Helvetica,sans-Serif" font-size="10.00" fill="#000000">atomic&lt; unsigned int &gt;</text>
<polyline fill="none" stroke="#bfbfbf" points="819,-556.5 935,-556.5 "/>
<text text-anchor="middle" x="877" y="-544.5" font-family="Helvetica,sans-Serif" font-size="10.00" fill="#000000"> </text>
<polyline fill="none" stroke="#bfbfbf" points="819,-537.5 935,-537.5 "/>
<text text-anchor="middle" x="877" y="-525.5" font-family="Helvetica,sans-Serif" font-size="10.00" fill="#000000"> </text>
</g>
<!-- Node11&#45;&gt;Node3 -->
<g id="edge9" class="edge">
<title>Node11&#45;&gt;Node3</title>
<path fill="none" stroke="#404040" d="M870.8529,-518.2963C865.5187,-493.3883 857.3647,-455.3132 849.0463,-416.4703"/>
<polygon fill="none" stroke="#404040" points="849.0346,-416.4154 843.8668,-411.3861 846.5216,-404.6815 851.6894,-409.7108 849.0346,-416.4154"/>
<text text-anchor="middle" x="873.5" y="-431.5" font-family="Helvetica,sans-Serif" font-size="10.00" fill="#000000"> &#45;counter</text>
</g>
<!-- Node12 -->
<g id="node11" class="node">
<title>Node12</title>
<polygon fill="#ffffff" stroke="#bfbfbf" points="953,-518.5 953,-575.5 997,-575.5 997,-518.5 953,-518.5"/>
<text text-anchor="middle" x="975" y="-563.5" font-family="Helvetica,sans-Serif" font-size="10.00" fill="#000000">mutex</text>
<polyline fill="none" stroke="#bfbfbf" points="953,-556.5 997,-556.5 "/>
<text text-anchor="middle" x="975" y="-544.5" font-family="Helvetica,sans-Serif" font-size="10.00" fill="#000000"> </text>
<polyline fill="none" stroke="#bfbfbf" points="953,-537.5 997,-537.5 "/>
<text text-anchor="middle" x="975" y="-525.5" font-family="Helvetica,sans-Serif" font-size="10.00" fill="#000000"> </text>
</g>
<!-- Node12&#45;&gt;Node3 -->
<g id="edge10" class="edge">
<title>Node12&#45;&gt;Node3</title>
<path fill="none" stroke="#404040" d="M966.2284,-518.32C960.7212,-501.76 952.9712,-480.76 944,-463 927.8684,-431.0649 907.5282,-397.943 887.9245,-368.4062"/>
<polygon fill="none" stroke="#404040" points="887.7093,-368.0849 881.0463,-365.3271 881.0293,-358.116 887.6923,-360.8738 887.7093,-368.0849"/>
<text text-anchor="middle" x="949" y="-431.5" font-family="Helvetica,sans-Serif" font-size="10.00" fill="#000000"> &#45;mutex</text>
</g>
<!-- Node13 -->
<g id="node12" class="node">
<title>Node13</title>
<polygon fill="#ffffff" stroke="#bfbfbf" points="679.5,-513 679.5,-581 800.5,-581 800.5,-513 679.5,-513"/>
<text text-anchor="start" x="687.5" y="-569" font-family="Helvetica,sans-Serif" font-size="10.00" fill="#000000">std::vector&lt; std::atomic</text>
<text text-anchor="middle" x="740" y="-558" font-family="Helvetica,sans-Serif" font-size="10.00" fill="#000000">&lt; bool &gt; *&gt;</text>
<polyline fill="none" stroke="#bfbfbf" points="679.5,-551 800.5,-551 "/>
<text text-anchor="middle" x="740" y="-539" font-family="Helvetica,sans-Serif" font-size="10.00" fill="#000000"> </text>
<polyline fill="none" stroke="#bfbfbf" points="679.5,-532 800.5,-532 "/>
<text text-anchor="middle" x="740" y="-520" font-family="Helvetica,sans-Serif" font-size="10.00" fill="#000000"> </text>
</g>
<!-- Node13&#45;&gt;Node3 -->
<g id="edge11" class="edge">
<title>Node13&#45;&gt;Node3</title>
<path fill="none" stroke="#404040" d="M747.5808,-512.889C753.2999,-487.8876 761.577,-453.1876 770,-423 770.5996,-420.8511 771.2092,-418.6868 771.8275,-416.5103"/>
<polygon fill="none" stroke="#404040" points="771.8876,-416.3016 769.7059,-409.4284 775.2112,-404.771 777.393,-411.6442 771.8876,-416.3016"/>
<text text-anchor="middle" x="808.5" y="-431.5" font-family="Helvetica,sans-Serif" font-size="10.00" fill="#000000"> &#45;validity_pointers</text>
</g>
<!-- Node14 -->
<g id="node13" class="node">
<title>Node14</title>
<polygon fill="#ffffff" stroke="#bfbfbf" points="931.5,-689.5 931.5,-746.5 1020.5,-746.5 1020.5,-689.5 931.5,-689.5"/>
<text text-anchor="middle" x="976" y="-734.5" font-family="Helvetica,sans-Serif" font-size="10.00" fill="#000000">atomic&lt; bool &gt; *</text>
<polyline fill="none" stroke="#bfbfbf" points="931.5,-727.5 1020.5,-727.5 "/>
<text text-anchor="middle" x="976" y="-715.5" font-family="Helvetica,sans-Serif" font-size="10.00" fill="#000000"> </text>
<polyline fill="none" stroke="#bfbfbf" points="931.5,-708.5 1020.5,-708.5 "/>
<text text-anchor="middle" x="976" y="-696.5" font-family="Helvetica,sans-Serif" font-size="10.00" fill="#000000"> </text>
</g>
<!-- Node14&#45;&gt;Node13 -->
<g id="edge12" class="edge">
<title>Node14&#45;&gt;Node13</title>
<path fill="none" stroke="#404040" d="M968.3714,-689.2414C963.0619,-674.8887 954.4565,-658.5856 941,-649 893.1334,-614.9028 861.3963,-659.5 810,-631 792.8406,-621.4849 778.1265,-605.9601 766.6803,-590.8296"/>
<polygon fill="none" stroke="#404040" points="766.6317,-590.7618 759.8843,-588.2176 759.6376,-581.0107 766.385,-583.5549 766.6317,-590.7618"/>
<text text-anchor="middle" x="983.5" y="-657.5" font-family="Helvetica,sans-Serif" font-size="10.00" fill="#000000"> +elements</text>
</g>
<!-- Node15&#45;&gt;Node13 -->
<g id="edge13" class="edge">
<title>Node15&#45;&gt;Node13</title>
<path fill="none" stroke="#ffa500" d="M686.9725,-682.7041C690.6396,-679.0118 694.0485,-675.099 697,-671 716.4387,-644.0035 727.6912,-607.4681 733.7723,-581.0549"/>
<polygon fill="#ffa500" stroke="#ffa500" points="684.5842,-680.1456 679.6548,-689.5238 689.3567,-685.2666 684.5842,-680.1456"/>
<text text-anchor="middle" x="765" y="-657.5" font-family="Helvetica,sans-Serif" font-size="10.00" fill="#000000"> &lt; std::atomic&lt; bool &gt; *&gt;</text>
</g>
<!-- Node21 -->
<g id="node20" class="node">
<title>Node21</title>
<polygon fill="#ffffff" stroke="#bfbfbf" points="421.5,-513 421.5,-581 532.5,-581 532.5,-513 421.5,-513"/>
<text text-anchor="start" x="429.5" y="-569" font-family="Helvetica,sans-Serif" font-size="10.00" fill="#000000">std::vector&lt; unsigned</text>
<text text-anchor="middle" x="477" y="-558" font-family="Helvetica,sans-Serif" font-size="10.00" fill="#000000"> int &gt;</text>
<polyline fill="none" stroke="#bfbfbf" points="421.5,-551 532.5,-551 "/>
<text text-anchor="middle" x="477" y="-539" font-family="Helvetica,sans-Serif" font-size="10.00" fill="#000000"> </text>
<polyline fill="none" stroke="#bfbfbf" points="421.5,-532 532.5,-532 "/>
<text text-anchor="middle" x="477" y="-520" font-family="Helvetica,sans-Serif" font-size="10.00" fill="#000000"> </text>
</g>
<!-- Node15&#45;&gt;Node21 -->
<g id="edge26" class="edge">
<title>Node15&#45;&gt;Node21</title>
<path fill="none" stroke="#ffa500" d="M622.8053,-680.044C617.2797,-668.7318 609.8067,-657.1835 600,-649 579.2769,-631.707 564.1756,-646.3862 542,-631 523.5169,-618.1758 507.8883,-598.4973 496.5911,-581.41"/>
<polygon fill="#ffa500" stroke="#ffa500" points="619.7178,-681.7135 626.9972,-689.4117 626.1073,-678.8543 619.7178,-681.7135"/>
<text text-anchor="middle" x="655" y="-657.5" font-family="Helvetica,sans-Serif" font-size="10.00" fill="#000000"> &lt; unsigned int &gt;</text>
</g>
<!-- Node16 -->
<g id="node15" class="node">
<title>Node16</title>
<polygon fill="#ffffff" stroke="#bfbfbf" points="1015.5,-518.5 1015.5,-575.5 1078.5,-575.5 1078.5,-518.5 1015.5,-518.5"/>
<text text-anchor="middle" x="1047" y="-563.5" font-family="Helvetica,sans-Serif" font-size="10.00" fill="#000000">type_info *</text>
<polyline fill="none" stroke="#bfbfbf" points="1015.5,-556.5 1078.5,-556.5 "/>
<text text-anchor="middle" x="1047" y="-544.5" font-family="Helvetica,sans-Serif" font-size="10.00" fill="#000000"> </text>
<polyline fill="none" stroke="#bfbfbf" points="1015.5,-537.5 1078.5,-537.5 "/>
<text text-anchor="middle" x="1047" y="-525.5" font-family="Helvetica,sans-Serif" font-size="10.00" fill="#000000"> </text>
</g>
<!-- Node16&#45;&gt;Node3 -->
<g id="edge15" class="edge">
<title>Node16&#45;&gt;Node3</title>
<path fill="none" stroke="#404040" d="M1035.3836,-518.3055C1028.026,-501.5483 1017.7066,-480.3545 1006,-463 973.558,-414.9064 928.198,-368.2925 890.1617,-333.097"/>
<polygon fill="none" stroke="#404040" points="890.0148,-332.9624 882.8884,-331.8597 881.1654,-324.8575 888.2917,-325.9601 890.0148,-332.9624"/>
<text text-anchor="middle" x="1016" y="-431.5" font-family="Helvetica,sans-Serif" font-size="10.00" fill="#000000"> &#45;object_info</text>
</g>
<!-- Node17&#45;&gt;Node2 -->
<g id="edge16" class="edge">
<title>Node17&#45;&gt;Node2</title>
<path fill="none" stroke="#404040" d="M334.7278,-187.0579C357.7241,-161.5266 383.492,-133.7185 408,-109 411.1665,-105.8063 414.453,-102.5625 417.7969,-99.3165"/>
<polygon fill="none" stroke="#404040" points="418.0726,-99.0524 419.639,-92.0135 426.7389,-90.7521 425.1725,-97.7911 418.0726,-99.0524"/>
<text text-anchor="middle" x="435.5" y="-112" font-family="Helvetica,sans-Serif" font-size="10.00" fill="#000000"> &#45;shared_tria</text>
</g>
<!-- Node18 -->
<g id="node17" class="node">
<title>Node18</title>
<polygon fill="#ffffff" stroke="#bfbfbf" points="112,-689.5 112,-746.5 194,-746.5 194,-689.5 112,-689.5"/>
<text text-anchor="middle" x="153" y="-734.5" font-family="Helvetica,sans-Serif" font-size="10.00" fill="#000000">atomic&lt; bool &gt;</text>
<polyline fill="none" stroke="#bfbfbf" points="112,-727.5 194,-727.5 "/>
<text text-anchor="middle" x="153" y="-715.5" font-family="Helvetica,sans-Serif" font-size="10.00" fill="#000000"> </text>
<polyline fill="none" stroke="#bfbfbf" points="112,-708.5 194,-708.5 "/>
<text text-anchor="middle" x="153" y="-696.5" font-family="Helvetica,sans-Serif" font-size="10.00" fill="#000000"> </text>
</g>
<!-- Node18&#45;&gt;Node17 -->
<g id="edge18" class="edge">
<title>Node18&#45;&gt;Node17</title>
<path fill="none" stroke="#404040" d="M151.4472,-689.1411C149.6377,-641.284 149.176,-542.8561 170,-463 177.5103,-434.1993 189.3549,-404.4873 202.0465,-377.313"/>
<polygon fill="none" stroke="#404040" points="202.1647,-377.0652 201.1379,-369.9276 207.3315,-366.2345 208.3584,-373.3721 202.1647,-377.0652"/>
<text text-anchor="start" x="170" y="-550" font-family="Helvetica,sans-Serif" font-size="10.00" fill="#000000"> &#45;pointed_to_object</text>
<text text-anchor="middle" x="211.5" y="-539" font-family="Helvetica,sans-Serif" font-size="10.00" fill="#000000">_is_alive</text>
</g>
<!-- Node18&#45;&gt;Node20 -->
<g id="edge22" class="edge">
<title>Node18&#45;&gt;Node20</title>
<path fill="none" stroke="#404040" d="M176.8784,-689.3039C189.6444,-675.498 206.3482,-659.67 224,-649 246.0114,-635.6948 257.7679,-645.5165 279,-631 280.5092,-629.9681 282.0031,-628.894 283.4805,-627.7825"/>
<polygon fill="none" stroke="#404040" points="283.7224,-627.5831 285.8084,-620.6803 292.9826,-619.9509 290.8966,-626.8537 283.7224,-627.5831"/>
<text text-anchor="start" x="224" y="-663" font-family="Helvetica,sans-Serif" font-size="10.00" fill="#000000"> &#45;pointed_to_object</text>
<text text-anchor="middle" x="265.5" y="-652" font-family="Helvetica,sans-Serif" font-size="10.00" fill="#000000">_is_alive</text>
</g>
<!-- Node19 -->
<g id="node18" class="node">
<title>Node19</title>
<polygon fill="#ffffff" stroke="#bfbfbf" points="0,-513 0,-581 100,-581 100,-513 0,-513"/>
<text text-anchor="start" x="8" y="-569" font-family="Helvetica,sans-Serif" font-size="10.00" fill="#000000">Triangulation&lt; dim,</text>
<text text-anchor="middle" x="50" y="-558" font-family="Helvetica,sans-Serif" font-size="10.00" fill="#000000"> spacedim &gt; *</text>
<polyline fill="none" stroke="#bfbfbf" points="0,-551 100,-551 "/>
<text text-anchor="middle" x="50" y="-539" font-family="Helvetica,sans-Serif" font-size="10.00" fill="#000000"> </text>
<polyline fill="none" stroke="#bfbfbf" points="0,-532 100,-532 "/>
<text text-anchor="middle" x="50" y="-520" font-family="Helvetica,sans-Serif" font-size="10.00" fill="#000000"> </text>
</g>
<!-- Node19&#45;&gt;Node17 -->
<g id="edge19" class="edge">
<title>Node19&#45;&gt;Node17</title>
<path fill="none" stroke="#404040" d="M63.6482,-512.758C74.753,-486.9102 91.8516,-451.2009 112,-423 131.3868,-395.865 155.6612,-369.0028 178.9539,-345.6042"/>
<polygon fill="none" stroke="#404040" points="178.9608,-345.5974 180.4034,-338.5321 187.4802,-337.1463 186.0375,-344.2117 178.9608,-345.5974"/>
<text text-anchor="middle" x="117" y="-431.5" font-family="Helvetica,sans-Serif" font-size="10.00" fill="#000000"> &#45;t</text>
</g>
<!-- Node20&#45;&gt;Node17 -->
<g id="edge20" class="edge">
<title>Node20&#45;&gt;Node17</title>
<path fill="none" stroke="#ffa500" d="M312.946,-453.848C311.9374,-450.8695 310.9527,-447.9146 310,-445 301.6851,-419.5632 293.4586,-391.7643 286.1888,-366.0184"/>
<polygon fill="#ffa500" stroke="#ffa500" points="309.6761,-455.1022 316.2394,-463.4193 316.2953,-452.8246 309.6761,-455.1022"/>
<text text-anchor="start" x="310" y="-437" font-family="Helvetica,sans-Serif" font-size="10.00" fill="#000000"> &lt; const parallel::shared</text>
<text text-anchor="middle" x="386.5" y="-426" font-family="Helvetica,sans-Serif" font-size="10.00" fill="#000000">::Triangulation&lt; dim, spacedim &gt; &gt;</text>
</g>
<!-- Node21&#45;&gt;Node2 -->
<g id="edge24" class="edge">
<title>Node21&#45;&gt;Node2</title>
<path fill="none" stroke="#404040" d="M477,-512.9241C477,-428.2917 477,-207.7914 477,-102.7486"/>
<polygon fill="none" stroke="#404040" points="477.0001,-102.5278 473,-96.5278 477,-90.5278 481,-96.5278 477.0001,-102.5278"/>
<text text-anchor="middle" x="528.5" y="-269" font-family="Helvetica,sans-Serif" font-size="10.00" fill="#000000"> &#45;saved_subdomain_ids</text>
</g>
<!-- Node22 -->
<g id="node21" class="node">
<title>Node22</title>
<g id="a_node21"><a xlink:href="classunsigned_01int.html" target="_top" xlink:title="{unsigned int\n||}">
<polygon fill="#ffffff" stroke="#000000" points="389.5,-689.5 389.5,-746.5 458.5,-746.5 458.5,-689.5 389.5,-689.5"/>
<text text-anchor="middle" x="424" y="-734.5" font-family="Helvetica,sans-Serif" font-size="10.00" fill="#000000">unsigned int</text>
<polyline fill="none" stroke="#000000" points="389.5,-727.5 458.5,-727.5 "/>
<text text-anchor="middle" x="424" y="-715.5" font-family="Helvetica,sans-Serif" font-size="10.00" fill="#000000"> </text>
<polyline fill="none" stroke="#000000" points="389.5,-708.5 458.5,-708.5 "/>
<text text-anchor="middle" x="424" y="-696.5" font-family="Helvetica,sans-Serif" font-size="10.00" fill="#000000"> </text>
</a>
</g>
</g>
<!-- Node22&#45;&gt;Node21 -->
<g id="edge25" class="edge">
<title>Node22&#45;&gt;Node21</title>
<path fill="none" stroke="#404040" d="M421.5289,-689.4275C421.1768,-676.859 421.7717,-662.0239 425,-649 429.8644,-629.3755 439.0728,-609.2426 448.4052,-592.1035"/>
<polygon fill="none" stroke="#404040" points="448.6032,-591.7534 448.0757,-584.5615 454.5114,-581.3085 455.0389,-588.5003 448.6032,-591.7534"/>
<text text-anchor="middle" x="449.5" y="-657.5" font-family="Helvetica,sans-Serif" font-size="10.00" fill="#000000"> +elements</text>
</g>
</g>
</svg>
