<?xml version="1.0" encoding="UTF-8" standalone="no"?>
<!DOCTYPE svg PUBLIC "-//W3C//DTD SVG 1.1//EN"
 "http://www.w3.org/Graphics/SVG/1.1/DTD/svg11.dtd">
<!-- Generated by graphviz version 2.40.1 (20161225.0304)
 -->
<!-- Title: PETScWrappers::PreconditionBase Pages: 1 -->
<svg width="518pt" height="466pt"
 viewBox="0.00 0.00 518.00 465.50" xmlns="http://www.w3.org/2000/svg" xmlns:xlink="http://www.w3.org/1999/xlink">
<g id="graph0" class="graph" transform="scale(1 1) rotate(0) translate(4 461.5)">
<title>PETScWrappers::PreconditionBase</title>
<polygon fill="#ffffff" stroke="transparent" points="-4,4 -4,-461.5 514,-461.5 514,4 -4,4"/>
<!-- Node0 -->
<g id="node1" class="node">
<title>Node0</title>
<polygon fill="#bfbfbf" stroke="#000000" points="107,-208.5 107,-227.5 289,-227.5 289,-208.5 107,-208.5"/>
<text text-anchor="middle" x="198" y="-215.5" font-family="Helvetica,sans-Serif" font-size="10.00" fill="#000000">PETScWrappers::PreconditionBase</text>
</g>
<!-- Node2 -->
<g id="node3" class="node">
<title>Node2</title>
<g id="a_node3"><a xlink:href="classPETScWrappers_1_1PreconditionBlockJacobi.html" target="_top" xlink:title="PETScWrappers::Precondition\lBlockJacobi">
<polygon fill="#ffffff" stroke="#000000" points="338.5,-427 338.5,-457 496.5,-457 496.5,-427 338.5,-427"/>
<text text-anchor="start" x="346.5" y="-445" font-family="Helvetica,sans-Serif" font-size="10.00" fill="#000000">PETScWrappers::Precondition</text>
<text text-anchor="middle" x="417.5" y="-434" font-family="Helvetica,sans-Serif" font-size="10.00" fill="#000000">BlockJacobi</text>
</a>
</g>
</g>
<!-- Node0&#45;&gt;Node2 -->
<g id="edge2" class="edge">
<title>Node0&#45;&gt;Node2</title>
<path fill="none" stroke="#191970" d="M204.7035,-237.4065C219.6251,-277.6303 259.5194,-370.3123 325,-418 329.6939,-421.4184 334.8333,-424.3508 340.2087,-426.866"/>
<polygon fill="#191970" stroke="#191970" points="207.9054,-235.967 201.2285,-227.7408 201.3181,-238.3353 207.9054,-235.967"/>
</g>
<!-- Node3 -->
<g id="node4" class="node">
<title>Node3</title>
<g id="a_node4"><a xlink:href="classPETScWrappers_1_1PreconditionBoomerAMG.html" target="_top" xlink:title="PETScWrappers::Precondition\lBoomerAMG">
<polygon fill="#ffffff" stroke="#000000" points="338.5,-378 338.5,-408 496.5,-408 496.5,-378 338.5,-378"/>
<text text-anchor="start" x="346.5" y="-396" font-family="Helvetica,sans-Serif" font-size="10.00" fill="#000000">PETScWrappers::Precondition</text>
<text text-anchor="middle" x="417.5" y="-385" font-family="Helvetica,sans-Serif" font-size="10.00" fill="#000000">BoomerAMG</text>
</a>
</g>
</g>
<!-- Node0&#45;&gt;Node3 -->
<g id="edge3" class="edge">
<title>Node0&#45;&gt;Node3</title>
<path fill="none" stroke="#191970" d="M208.1702,-236.3115C226.9288,-268.3349 270.1225,-334.3887 325,-369 330.4728,-372.4517 336.4249,-375.4087 342.5833,-377.9417"/>
<polygon fill="#191970" stroke="#191970" points="211.1533,-234.4775 203.1471,-227.5383 205.0785,-237.9556 211.1533,-234.4775"/>
</g>
<!-- Node4 -->
<g id="node5" class="node">
<title>Node4</title>
<g id="a_node5"><a xlink:href="classPETScWrappers_1_1PreconditionEisenstat.html" target="_top" xlink:title="PETScWrappers::Precondition\lEisenstat">
<polygon fill="#ffffff" stroke="#000000" points="338.5,-329 338.5,-359 496.5,-359 496.5,-329 338.5,-329"/>
<text text-anchor="start" x="346.5" y="-347" font-family="Helvetica,sans-Serif" font-size="10.00" fill="#000000">PETScWrappers::Precondition</text>
<text text-anchor="middle" x="417.5" y="-336" font-family="Helvetica,sans-Serif" font-size="10.00" fill="#000000">Eisenstat</text>
</a>
</g>
</g>
<!-- Node0&#45;&gt;Node4 -->
<g id="edge4" class="edge">
<title>Node0&#45;&gt;Node4</title>
<path fill="none" stroke="#191970" d="M214.4047,-234.7889C237.2054,-257.1858 280.6923,-296.6096 325,-319 332.572,-322.8264 340.7983,-326.1205 349.1175,-328.9424"/>
<polygon fill="#191970" stroke="#191970" points="216.7853,-232.22 207.235,-227.6328 211.8402,-237.1744 216.7853,-232.22"/>
</g>
<!-- Node5 -->
<g id="node6" class="node">
<title>Node5</title>
<g id="a_node6"><a xlink:href="classPETScWrappers_1_1PreconditionICC.html" target="_top" xlink:title="PETScWrappers::PreconditionICC">
<polygon fill="#ffffff" stroke="#000000" points="330,-290.5 330,-309.5 505,-309.5 505,-290.5 330,-290.5"/>
<text text-anchor="middle" x="417.5" y="-297.5" font-family="Helvetica,sans-Serif" font-size="10.00" fill="#000000">PETScWrappers::PreconditionICC</text>
</a>
</g>
</g>
<!-- Node0&#45;&gt;Node5 -->
<g id="edge5" class="edge">
<title>Node0&#45;&gt;Node5</title>
<path fill="none" stroke="#191970" d="M222.6583,-232.6305C247.6609,-246.8815 287.8556,-268.2132 325,-281 335.8511,-284.7354 347.684,-287.8487 359.1505,-290.4006"/>
<polygon fill="#191970" stroke="#191970" points="224.2676,-229.5182 213.8576,-227.5479 220.7668,-235.5799 224.2676,-229.5182"/>
</g>
<!-- Node6 -->
<g id="node7" class="node">
<title>Node6</title>
<g id="a_node7"><a xlink:href="classPETScWrappers_1_1PreconditionILU.html" target="_top" xlink:title="PETScWrappers::PreconditionILU">
<polygon fill="#ffffff" stroke="#000000" points="331,-252.5 331,-271.5 504,-271.5 504,-252.5 331,-252.5"/>
<text text-anchor="middle" x="417.5" y="-259.5" font-family="Helvetica,sans-Serif" font-size="10.00" fill="#000000">PETScWrappers::PreconditionILU</text>
</a>
</g>
</g>
<!-- Node0&#45;&gt;Node6 -->
<g id="edge6" class="edge">
<title>Node0&#45;&gt;Node6</title>
<path fill="none" stroke="#191970" d="M255.8683,-229.6C291.4479,-236.7322 336.4764,-245.7584 369.9647,-252.4713"/>
<polygon fill="#191970" stroke="#191970" points="256.1211,-226.0811 245.6282,-227.5473 254.7452,-232.9446 256.1211,-226.0811"/>
</g>
<!-- Node7 -->
<g id="node8" class="node">
<title>Node7</title>
<g id="a_node8"><a xlink:href="classPETScWrappers_1_1PreconditionJacobi.html" target="_top" xlink:title="PETScWrappers::Precondition\lJacobi">
<polygon fill="#ffffff" stroke="#000000" points="338.5,-203 338.5,-233 496.5,-233 496.5,-203 338.5,-203"/>
<text text-anchor="start" x="346.5" y="-221" font-family="Helvetica,sans-Serif" font-size="10.00" fill="#000000">PETScWrappers::Precondition</text>
<text text-anchor="middle" x="417.5" y="-210" font-family="Helvetica,sans-Serif" font-size="10.00" fill="#000000">Jacobi</text>
</a>
</g>
</g>
<!-- Node0&#45;&gt;Node7 -->
<g id="edge7" class="edge">
<title>Node0&#45;&gt;Node7</title>
<path fill="none" stroke="#191970" d="M299.2154,-218C312.3963,-218 325.7423,-218 338.4869,-218"/>
<polygon fill="#191970" stroke="#191970" points="299.1809,-214.5001 289.1808,-218 299.1808,-221.5001 299.1809,-214.5001"/>
</g>
<!-- Node8 -->
<g id="node9" class="node">
<title>Node8</title>
<g id="a_node9"><a xlink:href="classPETScWrappers_1_1PreconditionLU.html" target="_top" xlink:title="PETScWrappers::PreconditionLU">
<polygon fill="#ffffff" stroke="#000000" points="332.5,-164.5 332.5,-183.5 502.5,-183.5 502.5,-164.5 332.5,-164.5"/>
<text text-anchor="middle" x="417.5" y="-171.5" font-family="Helvetica,sans-Serif" font-size="10.00" fill="#000000">PETScWrappers::PreconditionLU</text>
</a>
</g>
</g>
<!-- Node0&#45;&gt;Node8 -->
<g id="edge8" class="edge">
<title>Node0&#45;&gt;Node8</title>
<path fill="none" stroke="#191970" d="M255.8683,-206.4C291.4479,-199.2678 336.4764,-190.2416 369.9647,-183.5287"/>
<polygon fill="#191970" stroke="#191970" points="254.7452,-203.0554 245.6282,-208.4527 256.1211,-209.9189 254.7452,-203.0554"/>
</g>
<!-- Node9 -->
<g id="node10" class="node">
<title>Node9</title>
<g id="a_node10"><a xlink:href="classPETScWrappers_1_1PreconditionNone.html" target="_top" xlink:title="PETScWrappers::PreconditionNone">
<polygon fill="#ffffff" stroke="#000000" points="325.5,-126.5 325.5,-145.5 509.5,-145.5 509.5,-126.5 325.5,-126.5"/>
<text text-anchor="middle" x="417.5" y="-133.5" font-family="Helvetica,sans-Serif" font-size="10.00" fill="#000000">PETScWrappers::PreconditionNone</text>
</a>
</g>
</g>
<!-- Node0&#45;&gt;Node9 -->
<g id="edge9" class="edge">
<title>Node0&#45;&gt;Node9</title>
<path fill="none" stroke="#191970" d="M222.6583,-203.3695C247.6609,-189.1185 287.8556,-167.7868 325,-155 335.8511,-151.2646 347.684,-148.1513 359.1505,-145.5994"/>
<polygon fill="#191970" stroke="#191970" points="220.7668,-200.4201 213.8576,-208.4521 224.2676,-206.4818 220.7668,-200.4201"/>
</g>
<!-- Node10 -->
<g id="node11" class="node">
<title>Node10</title>
<g id="a_node11"><a xlink:href="classPETScWrappers_1_1PreconditionParaSails.html" target="_top" xlink:title="PETScWrappers::Precondition\lParaSails">
<polygon fill="#ffffff" stroke="#000000" points="338.5,-77 338.5,-107 496.5,-107 496.5,-77 338.5,-77"/>
<text text-anchor="start" x="346.5" y="-95" font-family="Helvetica,sans-Serif" font-size="10.00" fill="#000000">PETScWrappers::Precondition</text>
<text text-anchor="middle" x="417.5" y="-84" font-family="Helvetica,sans-Serif" font-size="10.00" fill="#000000">ParaSails</text>
</a>
</g>
</g>
<!-- Node0&#45;&gt;Node10 -->
<g id="edge10" class="edge">
<title>Node0&#45;&gt;Node10</title>
<path fill="none" stroke="#191970" d="M214.4047,-201.2111C237.2054,-178.8142 280.6923,-139.3904 325,-117 332.572,-113.1736 340.7983,-109.8795 349.1175,-107.0576"/>
<polygon fill="#191970" stroke="#191970" points="211.8402,-198.8256 207.235,-208.3672 216.7853,-203.78 211.8402,-198.8256"/>
</g>
<!-- Node11 -->
<g id="node12" class="node">
<title>Node11</title>
<g id="a_node12"><a xlink:href="classPETScWrappers_1_1PreconditionSOR.html" target="_top" xlink:title="PETScWrappers::PreconditionSOR">
<polygon fill="#ffffff" stroke="#000000" points="328,-38.5 328,-57.5 507,-57.5 507,-38.5 328,-38.5"/>
<text text-anchor="middle" x="417.5" y="-45.5" font-family="Helvetica,sans-Serif" font-size="10.00" fill="#000000">PETScWrappers::PreconditionSOR</text>
</a>
</g>
</g>
<!-- Node0&#45;&gt;Node11 -->
<g id="edge11" class="edge">
<title>Node0&#45;&gt;Node11</title>
<path fill="none" stroke="#191970" d="M207.9937,-199.4006C226.4766,-166.9273 269.2533,-100.1932 325,-67 331.4797,-63.1418 338.6174,-60.0567 345.9673,-57.5914"/>
<polygon fill="#191970" stroke="#191970" points="204.8449,-197.8617 203.0502,-208.3035 210.9647,-201.26 204.8449,-197.8617"/>
</g>
<!-- Node12 -->
<g id="node13" class="node">
<title>Node12</title>
<g id="a_node13"><a xlink:href="classPETScWrappers_1_1PreconditionSSOR.html" target="_top" xlink:title="PETScWrappers::PreconditionSSOR">
<polygon fill="#ffffff" stroke="#000000" points="325,-.5 325,-19.5 510,-19.5 510,-.5 325,-.5"/>
<text text-anchor="middle" x="417.5" y="-7.5" font-family="Helvetica,sans-Serif" font-size="10.00" fill="#000000">PETScWrappers::PreconditionSSOR</text>
</a>
</g>
</g>
<!-- Node0&#45;&gt;Node12 -->
<g id="edge12" class="edge">
<title>Node0&#45;&gt;Node12</title>
<path fill="none" stroke="#191970" d="M205.1468,-198.601C220.553,-159.6716 260.7815,-72.0782 325,-29 330.7182,-25.1642 337.0499,-22.0756 343.6399,-19.5922"/>
<polygon fill="#191970" stroke="#191970" points="201.7734,-197.623 201.4604,-208.2132 208.3092,-200.1296 201.7734,-197.623"/>
</g>
<!-- Node1 -->
<g id="node2" class="node">
<title>Node1</title>
<g id="a_node2"><a xlink:href="classSubscriptor.html" target="_top" xlink:title="Subscriptor">
<polygon fill="#ffffff" stroke="#000000" points="0,-208.5 0,-227.5 71,-227.5 71,-208.5 0,-208.5"/>
<text text-anchor="middle" x="35.5" y="-215.5" font-family="Helvetica,sans-Serif" font-size="10.00" fill="#000000">Subscriptor</text>
</a>
</g>
</g>
<!-- Node1&#45;&gt;Node0 -->
<g id="edge1" class="edge">
<title>Node1&#45;&gt;Node0</title>
<path fill="none" stroke="#191970" d="M81.3847,-218C89.4409,-218 98.0734,-218 106.8626,-218"/>
<polygon fill="#191970" stroke="#191970" points="81.1613,-214.5001 71.1613,-218 81.1613,-221.5001 81.1613,-214.5001"/>
</g>
</g>
</svg>
