<?xml version="1.0" encoding="UTF-8" standalone="no"?>
<!DOCTYPE svg PUBLIC "-//W3C//DTD SVG 1.1//EN"
 "http://www.w3.org/Graphics/SVG/1.1/DTD/svg11.dtd">
<!-- Generated by graphviz version 2.40.1 (20161225.0304)
 -->
<!-- Title: MappingC1&lt; dim, spacedim &gt; Pages: 1 -->
<svg width="573pt" height="1693pt"
 viewBox="0.00 0.00 572.50 1693.00" xmlns="http://www.w3.org/2000/svg" xmlns:xlink="http://www.w3.org/1999/xlink">
<g id="graph0" class="graph" transform="scale(1 1) rotate(0) translate(4 1689)">
<title>MappingC1&lt; dim, spacedim &gt;</title>
<polygon fill="#ffffff" stroke="transparent" points="-4,4 -4,-1689 568.5,-1689 568.5,4 -4,4"/>
<!-- Node4 -->
<g id="node1" class="node">
<title>Node4</title>
<polygon fill="#bfbfbf" stroke="#000000" points="191,-.5 191,-68.5 339,-68.5 339,-.5 191,-.5"/>
<text text-anchor="middle" x="265" y="-56.5" font-family="Helvetica,sans-Serif" font-size="10.00" fill="#000000">MappingC1&lt; dim, spacedim &gt;</text>
<polyline fill="none" stroke="#000000" points="191,-49.5 339,-49.5 "/>
<text text-anchor="middle" x="265" y="-37.5" font-family="Helvetica,sans-Serif" font-size="10.00" fill="#000000"> </text>
<polyline fill="none" stroke="#000000" points="191,-30.5 339,-30.5 "/>
<text text-anchor="start" x="199" y="-18.5" font-family="Helvetica,sans-Serif" font-size="10.00" fill="#000000">+ MappingC1()</text>
<text text-anchor="start" x="199" y="-7.5" font-family="Helvetica,sans-Serif" font-size="10.00" fill="#000000">+ clone()</text>
</g>
<!-- Node5 -->
<g id="node2" class="node">
<title>Node5</title>
<g id="a_node2"><a xlink:href="classMappingQ.html" target="_top" xlink:title="{MappingQ\&lt; dim, spacedim \&gt;\n||+ MappingQ()\l+ MappingQ()\l+ get_degree()\l+ preserves_vertex_locations()\l+ get_bounding_box()\l+ is_compatible_with()\l+ transform_unit_to_real_cell()\l+ transform_real_to_unit_cell()\l+ transform()\l+ transform()\l+ transform()\l+ transform()\l+ transform()\l+ clone()\l# requires_update_flags()\l# get_data()\l# get_face_data()\l# get_subface_data()\l# fill_fe_values()\l# fill_fe_face_values()\l# fill_fe_subface_values()\l* requires_update_flags()\l* get_data()\l* get_face_data()\l* get_subface_data()\l* fill_fe_values()\l* fill_fe_face_values()\l* fill_fe_subface_values()\l}">
<polygon fill="#ffffff" stroke="#000000" points="189.5,-106.5 189.5,-460.5 340.5,-460.5 340.5,-106.5 189.5,-106.5"/>
<text text-anchor="middle" x="265" y="-448.5" font-family="Helvetica,sans-Serif" font-size="10.00" fill="#000000">MappingQ&lt; dim, spacedim &gt;</text>
<polyline fill="none" stroke="#000000" points="189.5,-441.5 340.5,-441.5 "/>
<text text-anchor="middle" x="265" y="-429.5" font-family="Helvetica,sans-Serif" font-size="10.00" fill="#000000"> </text>
<polyline fill="none" stroke="#000000" points="189.5,-422.5 340.5,-422.5 "/>
<text text-anchor="start" x="197.5" y="-410.5" font-family="Helvetica,sans-Serif" font-size="10.00" fill="#000000">+ MappingQ()</text>
<text text-anchor="start" x="197.5" y="-399.5" font-family="Helvetica,sans-Serif" font-size="10.00" fill="#000000">+ MappingQ()</text>
<text text-anchor="start" x="197.5" y="-388.5" font-family="Helvetica,sans-Serif" font-size="10.00" fill="#000000">+ get_degree()</text>
<text text-anchor="start" x="197.5" y="-377.5" font-family="Helvetica,sans-Serif" font-size="10.00" fill="#000000">+ preserves_vertex_locations()</text>
<text text-anchor="start" x="197.5" y="-366.5" font-family="Helvetica,sans-Serif" font-size="10.00" fill="#000000">+ get_bounding_box()</text>
<text text-anchor="start" x="197.5" y="-355.5" font-family="Helvetica,sans-Serif" font-size="10.00" fill="#000000">+ is_compatible_with()</text>
<text text-anchor="start" x="197.5" y="-344.5" font-family="Helvetica,sans-Serif" font-size="10.00" fill="#000000">+ transform_unit_to_real_cell()</text>
<text text-anchor="start" x="197.5" y="-333.5" font-family="Helvetica,sans-Serif" font-size="10.00" fill="#000000">+ transform_real_to_unit_cell()</text>
<text text-anchor="start" x="197.5" y="-322.5" font-family="Helvetica,sans-Serif" font-size="10.00" fill="#000000">+ transform()</text>
<text text-anchor="start" x="197.5" y="-311.5" font-family="Helvetica,sans-Serif" font-size="10.00" fill="#000000">+ transform()</text>
<text text-anchor="start" x="197.5" y="-300.5" font-family="Helvetica,sans-Serif" font-size="10.00" fill="#000000">+ transform()</text>
<text text-anchor="start" x="197.5" y="-289.5" font-family="Helvetica,sans-Serif" font-size="10.00" fill="#000000">+ transform()</text>
<text text-anchor="start" x="197.5" y="-278.5" font-family="Helvetica,sans-Serif" font-size="10.00" fill="#000000">+ transform()</text>
<text text-anchor="start" x="197.5" y="-267.5" font-family="Helvetica,sans-Serif" font-size="10.00" fill="#000000">+ clone()</text>
<text text-anchor="start" x="197.5" y="-256.5" font-family="Helvetica,sans-Serif" font-size="10.00" fill="#000000"># requires_update_flags()</text>
<text text-anchor="start" x="197.5" y="-245.5" font-family="Helvetica,sans-Serif" font-size="10.00" fill="#000000"># get_data()</text>
<text text-anchor="start" x="197.5" y="-234.5" font-family="Helvetica,sans-Serif" font-size="10.00" fill="#000000"># get_face_data()</text>
<text text-anchor="start" x="197.5" y="-223.5" font-family="Helvetica,sans-Serif" font-size="10.00" fill="#000000"># get_subface_data()</text>
<text text-anchor="start" x="197.5" y="-212.5" font-family="Helvetica,sans-Serif" font-size="10.00" fill="#000000"># fill_fe_values()</text>
<text text-anchor="start" x="197.5" y="-201.5" font-family="Helvetica,sans-Serif" font-size="10.00" fill="#000000"># fill_fe_face_values()</text>
<text text-anchor="start" x="197.5" y="-190.5" font-family="Helvetica,sans-Serif" font-size="10.00" fill="#000000"># fill_fe_subface_values()</text>
<text text-anchor="start" x="197.5" y="-179.5" font-family="Helvetica,sans-Serif" font-size="10.00" fill="#000000">* requires_update_flags()</text>
<text text-anchor="start" x="197.5" y="-168.5" font-family="Helvetica,sans-Serif" font-size="10.00" fill="#000000">* get_data()</text>
<text text-anchor="start" x="197.5" y="-157.5" font-family="Helvetica,sans-Serif" font-size="10.00" fill="#000000">* get_face_data()</text>
<text text-anchor="start" x="197.5" y="-146.5" font-family="Helvetica,sans-Serif" font-size="10.00" fill="#000000">* get_subface_data()</text>
<text text-anchor="start" x="197.5" y="-135.5" font-family="Helvetica,sans-Serif" font-size="10.00" fill="#000000">* fill_fe_values()</text>
<text text-anchor="start" x="197.5" y="-124.5" font-family="Helvetica,sans-Serif" font-size="10.00" fill="#000000">* fill_fe_face_values()</text>
<text text-anchor="start" x="197.5" y="-113.5" font-family="Helvetica,sans-Serif" font-size="10.00" fill="#000000">* fill_fe_subface_values()</text>
</a>
</g>
</g>
<!-- Node5&#45;&gt;Node4 -->
<g id="edge1" class="edge">
<title>Node5&#45;&gt;Node4</title>
<path fill="none" stroke="#191970" d="M265,-95.9882C265,-86.0192 265,-76.7821 265,-68.6572"/>
<polygon fill="none" stroke="#191970" points="261.5001,-96.187 265,-106.1871 268.5001,-96.1871 261.5001,-96.187"/>
</g>
<!-- Node6 -->
<g id="node3" class="node">
<title>Node6</title>
<g id="a_node3"><a xlink:href="classMapping.html" target="_top" xlink:title="映射类的抽象基类。 该类声明了用于描述从参考（单位）单元到实空间单元的映射功能的接口，以及用于填写使用...">
<polygon fill="#ffffff" stroke="#000000" points="117.5,-519.5 117.5,-1148.5 268.5,-1148.5 268.5,-519.5 117.5,-519.5"/>
<text text-anchor="middle" x="193" y="-1136.5" font-family="Helvetica,sans-Serif" font-size="10.00" fill="#000000">Mapping&lt; dim, spacedim &gt;</text>
<polyline fill="none" stroke="#000000" points="117.5,-1129.5 268.5,-1129.5 "/>
<text text-anchor="middle" x="193" y="-1117.5" font-family="Helvetica,sans-Serif" font-size="10.00" fill="#000000"> </text>
<polyline fill="none" stroke="#000000" points="117.5,-1110.5 268.5,-1110.5 "/>
<text text-anchor="start" x="125.5" y="-1098.5" font-family="Helvetica,sans-Serif" font-size="10.00" fill="#000000">+ ~Mapping()</text>
<text text-anchor="start" x="125.5" y="-1087.5" font-family="Helvetica,sans-Serif" font-size="10.00" fill="#000000">+ clone()</text>
<text text-anchor="start" x="125.5" y="-1076.5" font-family="Helvetica,sans-Serif" font-size="10.00" fill="#000000">+ get_vertices()</text>
<text text-anchor="start" x="125.5" y="-1065.5" font-family="Helvetica,sans-Serif" font-size="10.00" fill="#000000">+ get_center()</text>
<text text-anchor="start" x="125.5" y="-1054.5" font-family="Helvetica,sans-Serif" font-size="10.00" fill="#000000">+ get_bounding_box()</text>
<text text-anchor="start" x="125.5" y="-1043.5" font-family="Helvetica,sans-Serif" font-size="10.00" fill="#000000">+ preserves_vertex_locations()</text>
<text text-anchor="start" x="125.5" y="-1032.5" font-family="Helvetica,sans-Serif" font-size="10.00" fill="#000000">+ is_compatible_with()</text>
<text text-anchor="start" x="125.5" y="-1021.5" font-family="Helvetica,sans-Serif" font-size="10.00" fill="#000000">+ transform_unit_to_real_cell()</text>
<text text-anchor="start" x="125.5" y="-1010.5" font-family="Helvetica,sans-Serif" font-size="10.00" fill="#000000">+ transform_real_to_unit_cell()</text>
<text text-anchor="start" x="125.5" y="-999.5" font-family="Helvetica,sans-Serif" font-size="10.00" fill="#000000">+ transform_points_real</text>
<text text-anchor="start" x="125.5" y="-988.5" font-family="Helvetica,sans-Serif" font-size="10.00" fill="#000000">_to_unit_cell()</text>
<text text-anchor="start" x="125.5" y="-977.5" font-family="Helvetica,sans-Serif" font-size="10.00" fill="#000000">+ project_real_point</text>
<text text-anchor="start" x="125.5" y="-966.5" font-family="Helvetica,sans-Serif" font-size="10.00" fill="#000000">_to_unit_point_on_face()</text>
<text text-anchor="start" x="125.5" y="-955.5" font-family="Helvetica,sans-Serif" font-size="10.00" fill="#000000">+ DeclException0()</text>
<text text-anchor="start" x="125.5" y="-944.5" font-family="Helvetica,sans-Serif" font-size="10.00" fill="#000000">+ DeclExceptionMsg()</text>
<text text-anchor="start" x="125.5" y="-933.5" font-family="Helvetica,sans-Serif" font-size="10.00" fill="#000000">+ DeclException3()</text>
<text text-anchor="start" x="125.5" y="-922.5" font-family="Helvetica,sans-Serif" font-size="10.00" fill="#000000">+ transform()</text>
<text text-anchor="start" x="125.5" y="-911.5" font-family="Helvetica,sans-Serif" font-size="10.00" fill="#000000">+ transform()</text>
<text text-anchor="start" x="125.5" y="-900.5" font-family="Helvetica,sans-Serif" font-size="10.00" fill="#000000">+ transform()</text>
<text text-anchor="start" x="125.5" y="-889.5" font-family="Helvetica,sans-Serif" font-size="10.00" fill="#000000">+ transform()</text>
<text text-anchor="start" x="125.5" y="-878.5" font-family="Helvetica,sans-Serif" font-size="10.00" fill="#000000">+ transform()</text>
<text text-anchor="start" x="125.5" y="-867.5" font-family="Helvetica,sans-Serif" font-size="10.00" fill="#000000"># requires_update_flags()</text>
<text text-anchor="start" x="125.5" y="-856.5" font-family="Helvetica,sans-Serif" font-size="10.00" fill="#000000"># get_data()</text>
<text text-anchor="start" x="125.5" y="-845.5" font-family="Helvetica,sans-Serif" font-size="10.00" fill="#000000"># get_face_data()</text>
<text text-anchor="start" x="125.5" y="-834.5" font-family="Helvetica,sans-Serif" font-size="10.00" fill="#000000"># get_face_data()</text>
<text text-anchor="start" x="125.5" y="-823.5" font-family="Helvetica,sans-Serif" font-size="10.00" fill="#000000"># get_subface_data()</text>
<text text-anchor="start" x="125.5" y="-812.5" font-family="Helvetica,sans-Serif" font-size="10.00" fill="#000000"># fill_fe_values()</text>
<text text-anchor="start" x="125.5" y="-801.5" font-family="Helvetica,sans-Serif" font-size="10.00" fill="#000000"># fill_fe_face_values()</text>
<text text-anchor="start" x="125.5" y="-790.5" font-family="Helvetica,sans-Serif" font-size="10.00" fill="#000000"># fill_fe_face_values()</text>
<text text-anchor="start" x="125.5" y="-779.5" font-family="Helvetica,sans-Serif" font-size="10.00" fill="#000000"># fill_fe_subface_values()</text>
<text text-anchor="start" x="125.5" y="-768.5" font-family="Helvetica,sans-Serif" font-size="10.00" fill="#000000">* transform_unit_to_real_cell()</text>
<text text-anchor="start" x="125.5" y="-757.5" font-family="Helvetica,sans-Serif" font-size="10.00" fill="#000000">* transform_real_to_unit_cell()</text>
<text text-anchor="start" x="125.5" y="-746.5" font-family="Helvetica,sans-Serif" font-size="10.00" fill="#000000">* transform_points_real</text>
<text text-anchor="start" x="125.5" y="-735.5" font-family="Helvetica,sans-Serif" font-size="10.00" fill="#000000">_to_unit_cell()</text>
<text text-anchor="start" x="125.5" y="-724.5" font-family="Helvetica,sans-Serif" font-size="10.00" fill="#000000">* project_real_point</text>
<text text-anchor="start" x="125.5" y="-713.5" font-family="Helvetica,sans-Serif" font-size="10.00" fill="#000000">_to_unit_point_on_face()</text>
<text text-anchor="start" x="125.5" y="-702.5" font-family="Helvetica,sans-Serif" font-size="10.00" fill="#000000">* DeclException0()</text>
<text text-anchor="start" x="125.5" y="-691.5" font-family="Helvetica,sans-Serif" font-size="10.00" fill="#000000">* DeclExceptionMsg()</text>
<text text-anchor="start" x="125.5" y="-680.5" font-family="Helvetica,sans-Serif" font-size="10.00" fill="#000000">* DeclException3()</text>
<text text-anchor="start" x="125.5" y="-669.5" font-family="Helvetica,sans-Serif" font-size="10.00" fill="#000000">* requires_update_flags()</text>
<text text-anchor="start" x="125.5" y="-658.5" font-family="Helvetica,sans-Serif" font-size="10.00" fill="#000000">* get_data()</text>
<text text-anchor="start" x="125.5" y="-647.5" font-family="Helvetica,sans-Serif" font-size="10.00" fill="#000000">* get_face_data()</text>
<text text-anchor="start" x="125.5" y="-636.5" font-family="Helvetica,sans-Serif" font-size="10.00" fill="#000000">* get_face_data()</text>
<text text-anchor="start" x="125.5" y="-625.5" font-family="Helvetica,sans-Serif" font-size="10.00" fill="#000000">* get_subface_data()</text>
<text text-anchor="start" x="125.5" y="-614.5" font-family="Helvetica,sans-Serif" font-size="10.00" fill="#000000">* fill_fe_values()</text>
<text text-anchor="start" x="125.5" y="-603.5" font-family="Helvetica,sans-Serif" font-size="10.00" fill="#000000">* fill_fe_face_values()</text>
<text text-anchor="start" x="125.5" y="-592.5" font-family="Helvetica,sans-Serif" font-size="10.00" fill="#000000">* fill_fe_face_values()</text>
<text text-anchor="start" x="125.5" y="-581.5" font-family="Helvetica,sans-Serif" font-size="10.00" fill="#000000">* fill_fe_subface_values()</text>
<text text-anchor="start" x="125.5" y="-570.5" font-family="Helvetica,sans-Serif" font-size="10.00" fill="#000000">* transform()</text>
<text text-anchor="start" x="125.5" y="-559.5" font-family="Helvetica,sans-Serif" font-size="10.00" fill="#000000">* transform()</text>
<text text-anchor="start" x="125.5" y="-548.5" font-family="Helvetica,sans-Serif" font-size="10.00" fill="#000000">* transform()</text>
<text text-anchor="start" x="125.5" y="-537.5" font-family="Helvetica,sans-Serif" font-size="10.00" fill="#000000">* transform()</text>
<text text-anchor="start" x="125.5" y="-526.5" font-family="Helvetica,sans-Serif" font-size="10.00" fill="#000000">* transform()</text>
</a>
</g>
</g>
<!-- Node6&#45;&gt;Node5 -->
<g id="edge2" class="edge">
<title>Node6&#45;&gt;Node5</title>
<path fill="none" stroke="#191970" d="M235.4967,-509.077C237.65,-492.6136 239.7712,-476.3955 241.8281,-460.6689"/>
<polygon fill="none" stroke="#191970" points="231.9787,-508.9877 234.1522,-519.3572 238.9196,-509.8956 231.9787,-508.9877"/>
</g>
<!-- Node7 -->
<g id="node4" class="node">
<title>Node7</title>
<g id="a_node4"><a xlink:href="classSubscriptor.html" target="_top" xlink:title="{Subscriptor\n||+ Subscriptor()\l+ Subscriptor()\l+ Subscriptor()\l+ ~Subscriptor()\l+ operator=()\l+ operator=()\l+ serialize()\l+ subscribe()\l+ unsubscribe()\l+ n_subscriptions()\l+ list_subscribers()\l+ list_subscribers()\l+ ExcInUse()\l+ ExcNoSubscriber()\l&#45; check_no_subscribers()\l* subscribe()\l* unsubscribe()\l* n_subscriptions()\l* list_subscribers()\l* list_subscribers()\l}">
<polygon fill="#ffffff" stroke="#000000" points="210,-1186.5 210,-1452.5 336,-1452.5 336,-1186.5 210,-1186.5"/>
<text text-anchor="middle" x="273" y="-1440.5" font-family="Helvetica,sans-Serif" font-size="10.00" fill="#000000">Subscriptor</text>
<polyline fill="none" stroke="#000000" points="210,-1433.5 336,-1433.5 "/>
<text text-anchor="middle" x="273" y="-1421.5" font-family="Helvetica,sans-Serif" font-size="10.00" fill="#000000"> </text>
<polyline fill="none" stroke="#000000" points="210,-1414.5 336,-1414.5 "/>
<text text-anchor="start" x="218" y="-1402.5" font-family="Helvetica,sans-Serif" font-size="10.00" fill="#000000">+ Subscriptor()</text>
<text text-anchor="start" x="218" y="-1391.5" font-family="Helvetica,sans-Serif" font-size="10.00" fill="#000000">+ Subscriptor()</text>
<text text-anchor="start" x="218" y="-1380.5" font-family="Helvetica,sans-Serif" font-size="10.00" fill="#000000">+ Subscriptor()</text>
<text text-anchor="start" x="218" y="-1369.5" font-family="Helvetica,sans-Serif" font-size="10.00" fill="#000000">+ ~Subscriptor()</text>
<text text-anchor="start" x="218" y="-1358.5" font-family="Helvetica,sans-Serif" font-size="10.00" fill="#000000">+ operator=()</text>
<text text-anchor="start" x="218" y="-1347.5" font-family="Helvetica,sans-Serif" font-size="10.00" fill="#000000">+ operator=()</text>
<text text-anchor="start" x="218" y="-1336.5" font-family="Helvetica,sans-Serif" font-size="10.00" fill="#000000">+ serialize()</text>
<text text-anchor="start" x="218" y="-1325.5" font-family="Helvetica,sans-Serif" font-size="10.00" fill="#000000">+ subscribe()</text>
<text text-anchor="start" x="218" y="-1314.5" font-family="Helvetica,sans-Serif" font-size="10.00" fill="#000000">+ unsubscribe()</text>
<text text-anchor="start" x="218" y="-1303.5" font-family="Helvetica,sans-Serif" font-size="10.00" fill="#000000">+ n_subscriptions()</text>
<text text-anchor="start" x="218" y="-1292.5" font-family="Helvetica,sans-Serif" font-size="10.00" fill="#000000">+ list_subscribers()</text>
<text text-anchor="start" x="218" y="-1281.5" font-family="Helvetica,sans-Serif" font-size="10.00" fill="#000000">+ list_subscribers()</text>
<text text-anchor="start" x="218" y="-1270.5" font-family="Helvetica,sans-Serif" font-size="10.00" fill="#000000">+ ExcInUse()</text>
<text text-anchor="start" x="218" y="-1259.5" font-family="Helvetica,sans-Serif" font-size="10.00" fill="#000000">+ ExcNoSubscriber()</text>
<text text-anchor="start" x="218" y="-1248.5" font-family="Helvetica,sans-Serif" font-size="10.00" fill="#000000">&#45; check_no_subscribers()</text>
<text text-anchor="start" x="218" y="-1237.5" font-family="Helvetica,sans-Serif" font-size="10.00" fill="#000000">* subscribe()</text>
<text text-anchor="start" x="218" y="-1226.5" font-family="Helvetica,sans-Serif" font-size="10.00" fill="#000000">* unsubscribe()</text>
<text text-anchor="start" x="218" y="-1215.5" font-family="Helvetica,sans-Serif" font-size="10.00" fill="#000000">* n_subscriptions()</text>
<text text-anchor="start" x="218" y="-1204.5" font-family="Helvetica,sans-Serif" font-size="10.00" fill="#000000">* list_subscribers()</text>
<text text-anchor="start" x="218" y="-1193.5" font-family="Helvetica,sans-Serif" font-size="10.00" fill="#000000">* list_subscribers()</text>
</a>
</g>
</g>
<!-- Node7&#45;&gt;Node6 -->
<g id="edge3" class="edge">
<title>Node7&#45;&gt;Node6</title>
<path fill="none" stroke="#191970" d="M249.3859,-1176.1919C247.9123,-1167.249 246.4028,-1158.0884 244.8677,-1148.7723"/>
<polygon fill="none" stroke="#191970" points="245.9545,-1176.895 251.0338,-1186.1928 252.8613,-1175.7568 245.9545,-1176.895"/>
</g>
<!-- Node8 -->
<g id="node5" class="node">
<title>Node8</title>
<polygon fill="#ffffff" stroke="#bfbfbf" points="38,-1500.5 38,-1568.5 148,-1568.5 148,-1500.5 38,-1500.5"/>
<text text-anchor="start" x="46" y="-1556.5" font-family="Helvetica,sans-Serif" font-size="10.00" fill="#000000">std::map&lt; std::string,</text>
<text text-anchor="middle" x="93" y="-1545.5" font-family="Helvetica,sans-Serif" font-size="10.00" fill="#000000"> unsigned int &gt;</text>
<polyline fill="none" stroke="#bfbfbf" points="38,-1538.5 148,-1538.5 "/>
<text text-anchor="middle" x="93" y="-1526.5" font-family="Helvetica,sans-Serif" font-size="10.00" fill="#000000"> </text>
<polyline fill="none" stroke="#bfbfbf" points="38,-1519.5 148,-1519.5 "/>
<text text-anchor="middle" x="93" y="-1507.5" font-family="Helvetica,sans-Serif" font-size="10.00" fill="#000000"> </text>
</g>
<!-- Node8&#45;&gt;Node7 -->
<g id="edge4" class="edge">
<title>Node8&#45;&gt;Node7</title>
<path fill="none" stroke="#404040" d="M121.5215,-1500.4326C143.1778,-1474.5654 173.9312,-1437.8322 202.0758,-1404.215"/>
<polygon fill="none" stroke="#404040" points="202.2318,-1404.0286 203.0164,-1396.8603 209.9351,-1394.8275 209.1505,-1401.9958 202.2318,-1404.0286"/>
<text text-anchor="middle" x="173.5" y="-1474" font-family="Helvetica,sans-Serif" font-size="10.00" fill="#000000"> &#45;counter_map</text>
</g>
<!-- Node9 -->
<g id="node6" class="node">
<title>Node9</title>
<g id="a_node6"><a xlink:href="classint.html" target="_top" xlink:title="{int\n||}">
<polygon fill="#ffffff" stroke="#000000" points="2.5,-1627.5 2.5,-1684.5 31.5,-1684.5 31.5,-1627.5 2.5,-1627.5"/>
<text text-anchor="middle" x="17" y="-1672.5" font-family="Helvetica,sans-Serif" font-size="10.00" fill="#000000">int</text>
<polyline fill="none" stroke="#000000" points="2.5,-1665.5 31.5,-1665.5 "/>
<text text-anchor="middle" x="17" y="-1653.5" font-family="Helvetica,sans-Serif" font-size="10.00" fill="#000000"> </text>
<polyline fill="none" stroke="#000000" points="2.5,-1646.5 31.5,-1646.5 "/>
<text text-anchor="middle" x="17" y="-1634.5" font-family="Helvetica,sans-Serif" font-size="10.00" fill="#000000"> </text>
</a>
</g>
</g>
<!-- Node9&#45;&gt;Node5 -->
<g id="edge14" class="edge">
<title>Node9&#45;&gt;Node5</title>
<path fill="none" stroke="#404040" d="M10.6698,-1627.1906C5.8365,-1602.6713 0,-1566.4488 0,-1534.5 0,-1534.5 0,-1534.5 0,-834 0,-663.5116 104.4652,-490.0972 182.2165,-384.6391"/>
<polygon fill="none" stroke="#404040" points="182.2527,-384.5904 182.6254,-377.3889 189.4163,-374.9632 189.0436,-382.1647 182.2527,-384.5904"/>
<text text-anchor="middle" x="45" y="-1317" font-family="Helvetica,sans-Serif" font-size="10.00" fill="#000000"> #polynomial_degree</text>
</g>
<!-- Node9&#45;&gt;Node8 -->
<g id="edge5" class="edge">
<title>Node9&#45;&gt;Node8</title>
<path fill="none" stroke="#404040" d="M26.5598,-1627.4178C31.4639,-1614.5711 38.0809,-1599.5189 46,-1587 47.87,-1584.0438 49.9086,-1581.093 52.0549,-1578.1833"/>
<polygon fill="none" stroke="#404040" points="52.2549,-1577.9292 52.8236,-1570.7405 59.678,-1568.5006 59.1093,-1575.6892 52.2549,-1577.9292"/>
<text text-anchor="middle" x="70.5" y="-1595.5" font-family="Helvetica,sans-Serif" font-size="10.00" fill="#000000"> +elements</text>
</g>
<!-- Node10 -->
<g id="node7" class="node">
<title>Node10</title>
<g id="a_node7"><a xlink:title="STL class. ">
<polygon fill="#ffffff" stroke="#bfbfbf" points="75,-1627.5 75,-1684.5 135,-1684.5 135,-1627.5 75,-1627.5"/>
<text text-anchor="middle" x="105" y="-1672.5" font-family="Helvetica,sans-Serif" font-size="10.00" fill="#000000">std::string</text>
<polyline fill="none" stroke="#bfbfbf" points="75,-1665.5 135,-1665.5 "/>
<text text-anchor="middle" x="105" y="-1653.5" font-family="Helvetica,sans-Serif" font-size="10.00" fill="#000000"> </text>
<polyline fill="none" stroke="#bfbfbf" points="75,-1646.5 135,-1646.5 "/>
<text text-anchor="middle" x="105" y="-1634.5" font-family="Helvetica,sans-Serif" font-size="10.00" fill="#000000"> </text>
</a>
</g>
</g>
<!-- Node10&#45;&gt;Node8 -->
<g id="edge6" class="edge">
<title>Node10&#45;&gt;Node8</title>
<path fill="none" stroke="#404040" d="M102.1562,-1627.2062C100.789,-1613.3632 99.1161,-1596.4255 97.5761,-1580.8327"/>
<polygon fill="none" stroke="#404040" points="97.5574,-1580.6426 92.987,-1575.0649 96.3779,-1568.7007 100.9483,-1574.2785 97.5574,-1580.6426"/>
<text text-anchor="middle" x="116.5" y="-1595.5" font-family="Helvetica,sans-Serif" font-size="10.00" fill="#000000"> +keys</text>
</g>
<!-- Node12 -->
<g id="node8" class="node">
<title>Node12</title>
<g id="a_node8"><a xlink:title="STL class. ">
<polygon fill="#ffffff" stroke="#bfbfbf" points="153,-1627.5 153,-1684.5 245,-1684.5 245,-1627.5 153,-1627.5"/>
<text text-anchor="middle" x="199" y="-1672.5" font-family="Helvetica,sans-Serif" font-size="10.00" fill="#000000">std::map&lt; K, T &gt;</text>
<polyline fill="none" stroke="#bfbfbf" points="153,-1665.5 245,-1665.5 "/>
<text text-anchor="middle" x="199" y="-1653.5" font-family="Helvetica,sans-Serif" font-size="10.00" fill="#000000"> </text>
<polyline fill="none" stroke="#bfbfbf" points="153,-1646.5 245,-1646.5 "/>
<text text-anchor="middle" x="199" y="-1634.5" font-family="Helvetica,sans-Serif" font-size="10.00" fill="#000000"> </text>
</a>
</g>
</g>
<!-- Node12&#45;&gt;Node8 -->
<g id="edge7" class="edge">
<title>Node12&#45;&gt;Node8</title>
<path fill="none" stroke="#ffa500" d="M167.1871,-1619.5353C153.1199,-1603.411 136.6688,-1584.5544 122.8377,-1568.7007"/>
<polygon fill="#ffa500" stroke="#ffa500" points="164.668,-1621.9717 173.8795,-1627.2062 169.9428,-1617.3699 164.668,-1621.9717"/>
<text text-anchor="start" x="156" y="-1601" font-family="Helvetica,sans-Serif" font-size="10.00" fill="#000000"> &lt; std::string, unsigned</text>
<text text-anchor="middle" x="206.5" y="-1590" font-family="Helvetica,sans-Serif" font-size="10.00" fill="#000000"> int &gt;</text>
</g>
<!-- Node15 -->
<g id="node9" class="node">
<title>Node15</title>
<polygon fill="#ffffff" stroke="#bfbfbf" points="166,-1506 166,-1563 282,-1563 282,-1506 166,-1506"/>
<text text-anchor="middle" x="224" y="-1551" font-family="Helvetica,sans-Serif" font-size="10.00" fill="#000000">atomic&lt; unsigned int &gt;</text>
<polyline fill="none" stroke="#bfbfbf" points="166,-1544 282,-1544 "/>
<text text-anchor="middle" x="224" y="-1532" font-family="Helvetica,sans-Serif" font-size="10.00" fill="#000000"> </text>
<polyline fill="none" stroke="#bfbfbf" points="166,-1525 282,-1525 "/>
<text text-anchor="middle" x="224" y="-1513" font-family="Helvetica,sans-Serif" font-size="10.00" fill="#000000"> </text>
</g>
<!-- Node15&#45;&gt;Node7 -->
<g id="edge8" class="edge">
<title>Node15&#45;&gt;Node7</title>
<path fill="none" stroke="#404040" d="M230.5068,-1505.9497C233.1415,-1494.3895 236.3948,-1480.1147 239.9193,-1464.6501"/>
<polygon fill="none" stroke="#404040" points="239.995,-1464.3176 237.4283,-1457.5787 242.6616,-1452.6176 245.2283,-1459.3564 239.995,-1464.3176"/>
<text text-anchor="middle" x="256.5" y="-1474" font-family="Helvetica,sans-Serif" font-size="10.00" fill="#000000"> &#45;counter</text>
</g>
<!-- Node16 -->
<g id="node10" class="node">
<title>Node16</title>
<polygon fill="#ffffff" stroke="#bfbfbf" points="300,-1506 300,-1563 344,-1563 344,-1506 300,-1506"/>
<text text-anchor="middle" x="322" y="-1551" font-family="Helvetica,sans-Serif" font-size="10.00" fill="#000000">mutex</text>
<polyline fill="none" stroke="#bfbfbf" points="300,-1544 344,-1544 "/>
<text text-anchor="middle" x="322" y="-1532" font-family="Helvetica,sans-Serif" font-size="10.00" fill="#000000"> </text>
<polyline fill="none" stroke="#bfbfbf" points="300,-1525 344,-1525 "/>
<text text-anchor="middle" x="322" y="-1513" font-family="Helvetica,sans-Serif" font-size="10.00" fill="#000000"> </text>
</g>
<!-- Node16&#45;&gt;Node7 -->
<g id="edge9" class="edge">
<title>Node16&#45;&gt;Node7</title>
<path fill="none" stroke="#404040" d="M315.4932,-1505.9497C312.8585,-1494.3895 309.6052,-1480.1147 306.0807,-1464.6501"/>
<polygon fill="none" stroke="#404040" points="306.005,-1464.3176 300.7717,-1459.3564 303.3384,-1452.6176 308.5717,-1457.5787 306.005,-1464.3176"/>
<text text-anchor="middle" x="325" y="-1474" font-family="Helvetica,sans-Serif" font-size="10.00" fill="#000000"> &#45;mutex</text>
</g>
<!-- Node17 -->
<g id="node11" class="node">
<title>Node17</title>
<polygon fill="#ffffff" stroke="#bfbfbf" points="362.5,-1500.5 362.5,-1568.5 483.5,-1568.5 483.5,-1500.5 362.5,-1500.5"/>
<text text-anchor="start" x="370.5" y="-1556.5" font-family="Helvetica,sans-Serif" font-size="10.00" fill="#000000">std::vector&lt; std::atomic</text>
<text text-anchor="middle" x="423" y="-1545.5" font-family="Helvetica,sans-Serif" font-size="10.00" fill="#000000">&lt; bool &gt; *&gt;</text>
<polyline fill="none" stroke="#bfbfbf" points="362.5,-1538.5 483.5,-1538.5 "/>
<text text-anchor="middle" x="423" y="-1526.5" font-family="Helvetica,sans-Serif" font-size="10.00" fill="#000000"> </text>
<polyline fill="none" stroke="#bfbfbf" points="362.5,-1519.5 483.5,-1519.5 "/>
<text text-anchor="middle" x="423" y="-1507.5" font-family="Helvetica,sans-Serif" font-size="10.00" fill="#000000"> </text>
</g>
<!-- Node17&#45;&gt;Node7 -->
<g id="edge10" class="edge">
<title>Node17&#45;&gt;Node7</title>
<path fill="none" stroke="#404040" d="M399.2321,-1500.4326C384.0094,-1478.6134 363.3928,-1449.0631 343.2369,-1420.1729"/>
<polygon fill="none" stroke="#404040" points="343.0025,-1419.8369 336.2889,-1417.2049 336.1363,-1409.9954 342.8499,-1412.6274 343.0025,-1419.8369"/>
<text text-anchor="middle" x="420.5" y="-1474" font-family="Helvetica,sans-Serif" font-size="10.00" fill="#000000"> &#45;validity_pointers</text>
</g>
<!-- Node18 -->
<g id="node12" class="node">
<title>Node18</title>
<polygon fill="#ffffff" stroke="#bfbfbf" points="281.5,-1627.5 281.5,-1684.5 370.5,-1684.5 370.5,-1627.5 281.5,-1627.5"/>
<text text-anchor="middle" x="326" y="-1672.5" font-family="Helvetica,sans-Serif" font-size="10.00" fill="#000000">atomic&lt; bool &gt; *</text>
<polyline fill="none" stroke="#bfbfbf" points="281.5,-1665.5 370.5,-1665.5 "/>
<text text-anchor="middle" x="326" y="-1653.5" font-family="Helvetica,sans-Serif" font-size="10.00" fill="#000000"> </text>
<polyline fill="none" stroke="#bfbfbf" points="281.5,-1646.5 370.5,-1646.5 "/>
<text text-anchor="middle" x="326" y="-1634.5" font-family="Helvetica,sans-Serif" font-size="10.00" fill="#000000"> </text>
</g>
<!-- Node18&#45;&gt;Node17 -->
<g id="edge11" class="edge">
<title>Node18&#45;&gt;Node17</title>
<path fill="none" stroke="#404040" d="M343.9777,-1627.3896C352.3443,-1614.6776 362.7078,-1599.7407 373,-1587 375.4915,-1583.9158 378.1269,-1580.7957 380.833,-1577.6952"/>
<polygon fill="none" stroke="#404040" points="381.0686,-1577.4331 382.1047,-1570.2968 389.0905,-1568.5084 388.0545,-1575.6447 381.0686,-1577.4331"/>
<text text-anchor="middle" x="397.5" y="-1595.5" font-family="Helvetica,sans-Serif" font-size="10.00" fill="#000000"> +elements</text>
</g>
<!-- Node19 -->
<g id="node13" class="node">
<title>Node19</title>
<g id="a_node13"><a xlink:title="STL class. ">
<polygon fill="#ffffff" stroke="#bfbfbf" points="388.5,-1627.5 388.5,-1684.5 475.5,-1684.5 475.5,-1627.5 388.5,-1627.5"/>
<text text-anchor="middle" x="432" y="-1672.5" font-family="Helvetica,sans-Serif" font-size="10.00" fill="#000000">std::vector&lt; T &gt;</text>
<polyline fill="none" stroke="#bfbfbf" points="388.5,-1665.5 475.5,-1665.5 "/>
<text text-anchor="middle" x="432" y="-1653.5" font-family="Helvetica,sans-Serif" font-size="10.00" fill="#000000"> </text>
<polyline fill="none" stroke="#bfbfbf" points="388.5,-1646.5 475.5,-1646.5 "/>
<text text-anchor="middle" x="432" y="-1634.5" font-family="Helvetica,sans-Serif" font-size="10.00" fill="#000000"> </text>
</a>
</g>
</g>
<!-- Node19&#45;&gt;Node17 -->
<g id="edge12" class="edge">
<title>Node19&#45;&gt;Node17</title>
<path fill="none" stroke="#ffa500" d="M429.1017,-1616.8733C427.9528,-1601.3628 426.6437,-1583.6896 425.5334,-1568.7007"/>
<polygon fill="#ffa500" stroke="#ffa500" points="425.6379,-1617.4921 429.8671,-1627.2062 432.6188,-1616.9749 425.6379,-1617.4921"/>
<text text-anchor="middle" x="483" y="-1595.5" font-family="Helvetica,sans-Serif" font-size="10.00" fill="#000000"> &lt; std::atomic&lt; bool &gt; *&gt;</text>
</g>
<!-- Node20 -->
<g id="node14" class="node">
<title>Node20</title>
<polygon fill="#ffffff" stroke="#bfbfbf" points="501.5,-1506 501.5,-1563 564.5,-1563 564.5,-1506 501.5,-1506"/>
<text text-anchor="middle" x="533" y="-1551" font-family="Helvetica,sans-Serif" font-size="10.00" fill="#000000">type_info *</text>
<polyline fill="none" stroke="#bfbfbf" points="501.5,-1544 564.5,-1544 "/>
<text text-anchor="middle" x="533" y="-1532" font-family="Helvetica,sans-Serif" font-size="10.00" fill="#000000"> </text>
<polyline fill="none" stroke="#bfbfbf" points="501.5,-1525 564.5,-1525 "/>
<text text-anchor="middle" x="533" y="-1513" font-family="Helvetica,sans-Serif" font-size="10.00" fill="#000000"> </text>
</g>
<!-- Node20&#45;&gt;Node7 -->
<g id="edge13" class="edge">
<title>Node20&#45;&gt;Node7</title>
<path fill="none" stroke="#404040" d="M502.3641,-1505.9367C490.2559,-1494.8524 476.1221,-1482.1639 463,-1471 425.1107,-1438.7649 381.8159,-1404.0836 346.1335,-1376.0483"/>
<polygon fill="none" stroke="#404040" points="345.7257,-1375.7285 338.5358,-1375.1745 336.2819,-1368.3247 343.4717,-1368.8787 345.7257,-1375.7285"/>
<text text-anchor="middle" x="501" y="-1474" font-family="Helvetica,sans-Serif" font-size="10.00" fill="#000000"> &#45;object_info</text>
</g>
<!-- Node21 -->
<g id="node15" class="node">
<title>Node21</title>
<g id="a_node15"><a xlink:href="classbool.html" target="_top" xlink:title="{bool\n||}">
<polygon fill="#ffffff" stroke="#000000" points="286.5,-805.5 286.5,-862.5 321.5,-862.5 321.5,-805.5 286.5,-805.5"/>
<text text-anchor="middle" x="304" y="-850.5" font-family="Helvetica,sans-Serif" font-size="10.00" fill="#000000">bool</text>
<polyline fill="none" stroke="#000000" points="286.5,-843.5 321.5,-843.5 "/>
<text text-anchor="middle" x="304" y="-831.5" font-family="Helvetica,sans-Serif" font-size="10.00" fill="#000000"> </text>
<polyline fill="none" stroke="#000000" points="286.5,-824.5 321.5,-824.5 "/>
<text text-anchor="middle" x="304" y="-812.5" font-family="Helvetica,sans-Serif" font-size="10.00" fill="#000000"> </text>
</a>
</g>
</g>
<!-- Node21&#45;&gt;Node5 -->
<g id="edge15" class="edge">
<title>Node21&#45;&gt;Node5</title>
<path fill="none" stroke="#404040" d="M301.9581,-805.1778C297.6087,-743.7846 287.1168,-595.6871 278.4187,-472.9103"/>
<polygon fill="none" stroke="#404040" points="278.4041,-472.7034 273.9901,-467.0011 277.556,-460.7334 281.9701,-466.4357 278.4041,-472.7034"/>
<text text-anchor="start" x="279" y="-493" font-family="Helvetica,sans-Serif" font-size="10.00" fill="#000000"> #use_mapping_q_on_all</text>
<text text-anchor="middle" x="333" y="-482" font-family="Helvetica,sans-Serif" font-size="10.00" fill="#000000">_cells</text>
</g>
<!-- Node22 -->
<g id="node16" class="node">
<title>Node22</title>
<polygon fill="#ffffff" stroke="#bfbfbf" points="349.5,-800 349.5,-868 498.5,-868 498.5,-800 349.5,-800"/>
<text text-anchor="start" x="357.5" y="-856" font-family="Helvetica,sans-Serif" font-size="10.00" fill="#000000">shared_ptr&lt; const Mapping</text>
<text text-anchor="middle" x="424" y="-845" font-family="Helvetica,sans-Serif" font-size="10.00" fill="#000000">QGeneric&lt; dim, spacedim &gt; &gt;</text>
<polyline fill="none" stroke="#bfbfbf" points="349.5,-838 498.5,-838 "/>
<text text-anchor="middle" x="424" y="-826" font-family="Helvetica,sans-Serif" font-size="10.00" fill="#000000"> </text>
<polyline fill="none" stroke="#bfbfbf" points="349.5,-819 498.5,-819 "/>
<text text-anchor="middle" x="424" y="-807" font-family="Helvetica,sans-Serif" font-size="10.00" fill="#000000"> </text>
</g>
<!-- Node22&#45;&gt;Node5 -->
<g id="edge16" class="edge">
<title>Node22&#45;&gt;Node5</title>
<path fill="none" stroke="#404040" d="M426.108,-799.8457C428.9613,-735.2266 429.8526,-591.4769 391,-479 380.5372,-448.7104 364.4524,-418.4126 347.2368,-391.0224"/>
<polygon fill="none" stroke="#404040" points="347.0758,-390.7715 340.4682,-387.8834 340.5928,-380.6733 347.2003,-383.5614 347.0758,-390.7715"/>
<text text-anchor="middle" x="426.5" y="-493" font-family="Helvetica,sans-Serif" font-size="10.00" fill="#000000"> #q1_mapping</text>
<text text-anchor="middle" x="426.5" y="-482" font-family="Helvetica,sans-Serif" font-size="10.00" fill="#000000">#qp_mapping</text>
</g>
</g>
</svg>
