<?xml version="1.0" encoding="UTF-8" standalone="no"?>
<!DOCTYPE svg PUBLIC "-//W3C//DTD SVG 1.1//EN"
 "http://www.w3.org/Graphics/SVG/1.1/DTD/svg11.dtd">
<!-- Generated by graphviz version 2.40.1 (20161225.0304)
 -->
<!-- Title: FE_Q_Base&lt; dim, spacedim &gt; Pages: 1 -->
<svg width="869pt" height="204pt"
 viewBox="0.00 0.00 869.00 203.50" xmlns="http://www.w3.org/2000/svg" xmlns:xlink="http://www.w3.org/1999/xlink">
<g id="graph0" class="graph" transform="scale(1 1) rotate(0) translate(4 199.5)">
<title>FE_Q_Base&lt; dim, spacedim &gt;</title>
<polygon fill="#ffffff" stroke="transparent" points="-4,4 -4,-199.5 865,-199.5 865,4 -4,4"/>
<!-- Node0 -->
<g id="node1" class="node">
<title>Node0</title>
<polygon fill="#bfbfbf" stroke="#000000" points="488,-82.5 488,-101.5 652,-101.5 652,-82.5 488,-82.5"/>
<text text-anchor="middle" x="570" y="-89.5" font-family="Helvetica,sans-Serif" font-size="10.00" fill="#000000">FE_Q_Base&lt; dim, spacedim &gt;</text>
</g>
<!-- Node5 -->
<g id="node6" class="node">
<title>Node5</title>
<g id="a_node6"><a xlink:href="classFE__Bernstein.html" target="_top" xlink:title="FE_Bernstein\&lt; dim,\l spacedim \&gt;">
<polygon fill="#ffffff" stroke="#000000" points="718,-165 718,-195 831,-195 831,-165 718,-165"/>
<text text-anchor="start" x="726" y="-183" font-family="Helvetica,sans-Serif" font-size="10.00" fill="#000000">FE_Bernstein&lt; dim,</text>
<text text-anchor="middle" x="774.5" y="-172" font-family="Helvetica,sans-Serif" font-size="10.00" fill="#000000"> spacedim &gt;</text>
</a>
</g>
</g>
<!-- Node0&#45;&gt;Node5 -->
<g id="edge5" class="edge">
<title>Node0&#45;&gt;Node5</title>
<path fill="none" stroke="#191970" d="M594.3851,-106.9687C617.7519,-120.8367 654.3401,-141.326 688,-155 697.4137,-158.8242 707.6235,-162.3181 717.6182,-165.403"/>
<polygon fill="#191970" stroke="#191970" points="595.8974,-103.7943 585.522,-101.6488 592.2948,-109.7962 595.8974,-103.7943"/>
</g>
<!-- Node6 -->
<g id="node7" class="node">
<title>Node6</title>
<g id="a_node7"><a xlink:href="classFE__Q.html" target="_top" xlink:title="FE_Q\&lt; dim, spacedim \&gt;">
<polygon fill="#ffffff" stroke="#000000" points="707,-126.5 707,-145.5 842,-145.5 842,-126.5 707,-126.5"/>
<text text-anchor="middle" x="774.5" y="-133.5" font-family="Helvetica,sans-Serif" font-size="10.00" fill="#000000">FE_Q&lt; dim, spacedim &gt;</text>
</a>
</g>
</g>
<!-- Node0&#45;&gt;Node6 -->
<g id="edge6" class="edge">
<title>Node0&#45;&gt;Node6</title>
<path fill="none" stroke="#191970" d="M624.341,-103.692C657.4219,-110.8096 699.1472,-119.7872 730.2131,-126.4713"/>
<polygon fill="#191970" stroke="#191970" points="624.886,-100.2292 614.3735,-101.5473 623.4135,-107.0726 624.886,-100.2292"/>
</g>
<!-- Node7 -->
<g id="node8" class="node">
<title>Node7</title>
<g id="a_node8"><a xlink:href="classFE__Q__Bubbles.html" target="_top" xlink:title="FE_Q_Bubbles\&lt; dim,\l spacedim \&gt;">
<polygon fill="#ffffff" stroke="#000000" points="715.5,-77 715.5,-107 833.5,-107 833.5,-77 715.5,-77"/>
<text text-anchor="start" x="723.5" y="-95" font-family="Helvetica,sans-Serif" font-size="10.00" fill="#000000">FE_Q_Bubbles&lt; dim,</text>
<text text-anchor="middle" x="774.5" y="-84" font-family="Helvetica,sans-Serif" font-size="10.00" fill="#000000"> spacedim &gt;</text>
</a>
</g>
</g>
<!-- Node0&#45;&gt;Node7 -->
<g id="edge7" class="edge">
<title>Node0&#45;&gt;Node7</title>
<path fill="none" stroke="#191970" d="M662.501,-92C680.4467,-92 698.7967,-92 715.3126,-92"/>
<polygon fill="#191970" stroke="#191970" points="662.294,-88.5001 652.294,-92 662.294,-95.5001 662.294,-88.5001"/>
</g>
<!-- Node8 -->
<g id="node9" class="node">
<title>Node8</title>
<g id="a_node9"><a xlink:href="classFE__Q__DG0.html" target="_top" xlink:title="FE_Q_DG0\&lt; dim, spacedim \&gt;">
<polygon fill="#ffffff" stroke="#000000" points="694,-38.5 694,-57.5 855,-57.5 855,-38.5 694,-38.5"/>
<text text-anchor="middle" x="774.5" y="-45.5" font-family="Helvetica,sans-Serif" font-size="10.00" fill="#000000">FE_Q_DG0&lt; dim, spacedim &gt;</text>
</a>
</g>
</g>
<!-- Node0&#45;&gt;Node8 -->
<g id="edge8" class="edge">
<title>Node0&#45;&gt;Node8</title>
<path fill="none" stroke="#191970" d="M624.341,-80.308C657.4219,-73.1904 699.1472,-64.2128 730.2131,-57.5287"/>
<polygon fill="#191970" stroke="#191970" points="623.4135,-76.9274 614.3735,-82.4527 624.886,-83.7708 623.4135,-76.9274"/>
</g>
<!-- Node9 -->
<g id="node10" class="node">
<title>Node9</title>
<g id="a_node10"><a xlink:href="classFE__Q__iso__Q1.html" target="_top" xlink:title="FE_Q_iso_Q1\&lt; dim, spacedim \&gt;">
<polygon fill="#ffffff" stroke="#000000" points="688,-.5 688,-19.5 861,-19.5 861,-.5 688,-.5"/>
<text text-anchor="middle" x="774.5" y="-7.5" font-family="Helvetica,sans-Serif" font-size="10.00" fill="#000000">FE_Q_iso_Q1&lt; dim, spacedim &gt;</text>
</a>
</g>
</g>
<!-- Node0&#45;&gt;Node9 -->
<g id="edge9" class="edge">
<title>Node0&#45;&gt;Node9</title>
<path fill="none" stroke="#191970" d="M593.4133,-77.0078C616.5991,-62.7722 653.5297,-41.712 688,-29 698.2422,-25.2228 709.4568,-22.0794 720.3165,-19.5086"/>
<polygon fill="#191970" stroke="#191970" points="591.2923,-74.2054 584.655,-82.4635 594.9934,-80.147 591.2923,-74.2054"/>
</g>
<!-- Node1 -->
<g id="node2" class="node">
<title>Node1</title>
<g id="a_node2"><a xlink:href="classFE__Poly.html" target="_top" xlink:title="FE_Poly\&lt; dim, spacedim \&gt;">
<polygon fill="#ffffff" stroke="#000000" points="303,-82.5 303,-101.5 452,-101.5 452,-82.5 303,-82.5"/>
<text text-anchor="middle" x="377.5" y="-89.5" font-family="Helvetica,sans-Serif" font-size="10.00" fill="#000000">FE_Poly&lt; dim, spacedim &gt;</text>
</a>
</g>
</g>
<!-- Node1&#45;&gt;Node0 -->
<g id="edge1" class="edge">
<title>Node1&#45;&gt;Node0</title>
<path fill="none" stroke="#191970" d="M462.4688,-92C470.9495,-92 479.5486,-92 487.9979,-92"/>
<polygon fill="#191970" stroke="#191970" points="462.2011,-88.5001 452.201,-92 462.201,-95.5001 462.2011,-88.5001"/>
</g>
<!-- Node2 -->
<g id="node3" class="node">
<title>Node2</title>
<g id="a_node3"><a xlink:href="classFiniteElement.html" target="_top" xlink:title="FiniteElement\&lt; dim,\l spacedim \&gt;">
<polygon fill="#ffffff" stroke="#000000" points="151,-77 151,-107 267,-107 267,-77 151,-77"/>
<text text-anchor="start" x="159" y="-95" font-family="Helvetica,sans-Serif" font-size="10.00" fill="#000000">FiniteElement&lt; dim,</text>
<text text-anchor="middle" x="209" y="-84" font-family="Helvetica,sans-Serif" font-size="10.00" fill="#000000"> spacedim &gt;</text>
</a>
</g>
</g>
<!-- Node2&#45;&gt;Node1 -->
<g id="edge2" class="edge">
<title>Node2&#45;&gt;Node1</title>
<path fill="none" stroke="#191970" d="M277.5035,-92C285.8429,-92 294.3957,-92 302.8193,-92"/>
<polygon fill="#191970" stroke="#191970" points="277.4603,-88.5001 267.4602,-92 277.4602,-95.5001 277.4603,-88.5001"/>
</g>
<!-- Node3 -->
<g id="node4" class="node">
<title>Node3</title>
<g id="a_node4"><a xlink:href="classSubscriptor.html" target="_top" xlink:title="Subscriptor">
<polygon fill="#ffffff" stroke="#000000" points="22,-104.5 22,-123.5 93,-123.5 93,-104.5 22,-104.5"/>
<text text-anchor="middle" x="57.5" y="-111.5" font-family="Helvetica,sans-Serif" font-size="10.00" fill="#000000">Subscriptor</text>
</a>
</g>
</g>
<!-- Node3&#45;&gt;Node2 -->
<g id="edge3" class="edge">
<title>Node3&#45;&gt;Node2</title>
<path fill="none" stroke="#191970" d="M103.0874,-107.38C118.1193,-105.1972 135.0451,-102.7393 150.8823,-100.4395"/>
<polygon fill="#191970" stroke="#191970" points="102.4132,-103.9411 93.02,-108.842 103.4192,-110.8685 102.4132,-103.9411"/>
</g>
<!-- Node4 -->
<g id="node5" class="node">
<title>Node4</title>
<g id="a_node5"><a xlink:href="classFiniteElementData.html" target="_top" xlink:title="FiniteElementData\&lt;\l dim \&gt;">
<polygon fill="#ffffff" stroke="#000000" points="0,-55 0,-85 115,-85 115,-55 0,-55"/>
<text text-anchor="start" x="8" y="-73" font-family="Helvetica,sans-Serif" font-size="10.00" fill="#000000">FiniteElementData&lt;</text>
<text text-anchor="middle" x="57.5" y="-62" font-family="Helvetica,sans-Serif" font-size="10.00" fill="#000000"> dim &gt;</text>
</a>
</g>
</g>
<!-- Node4&#45;&gt;Node2 -->
<g id="edge4" class="edge">
<title>Node4&#45;&gt;Node2</title>
<path fill="none" stroke="#191970" d="M125.2035,-79.8315C133.7959,-81.0793 142.528,-82.3473 150.9508,-83.5704"/>
<polygon fill="#191970" stroke="#191970" points="125.607,-76.3535 115.2078,-78.38 124.601,-83.2808 125.607,-76.3535"/>
</g>
</g>
</svg>
