<?xml version="1.0" encoding="UTF-8" standalone="no"?>
<!DOCTYPE svg PUBLIC "-//W3C//DTD SVG 1.1//EN"
 "http://www.w3.org/Graphics/SVG/1.1/DTD/svg11.dtd">
<!-- Generated by graphviz version 2.40.1 (20161225.0304)
 -->
<!-- Title: TensorFunction&lt; rank, dim, Number &gt; Pages: 1 -->
<!--zoomable 872 -->
<svg id="main" version="1.1" xmlns="http://www.w3.org/2000/svg" xmlns:xlink="http://www.w3.org/1999/xlink" xml:space="preserve" onload="init(evt)">
<style type="text/css"><![CDATA[
.edge:hover path { stroke: red; }
.edge:hover polygon { stroke: red; fill: red; }
]]></style>
<script type="text/javascript"><![CDATA[
var edges = document.getElementsByTagName('g');
if (edges && edges.length) {
  for (var i=0;i<edges.length;i++) {
    if (edges[i].id.substr(0,4)=='edge') {
      edges[i].setAttribute('class','edge');
    }
  }
}
]]></script>
        <defs>
                <circle id="rim" cx="0" cy="0" r="7"/>
                <circle id="rim2" cx="0" cy="0" r="3.5"/>
                <g id="zoomPlus">
                        <use xlink:href="#rim" fill="#404040">
                                <set attributeName="fill" to="#808080" begin="zoomplus.mouseover" end="zoomplus.mouseout"/>
                        </use>
                        <path d="M-4,0h8M0,-4v8" fill="none" stroke="white" stroke-width="1.5" pointer-events="none"/>
                </g>
                <g id="zoomMin">
                        <use xlink:href="#rim" fill="#404040">
                                <set attributeName="fill" to="#808080" begin="zoomminus.mouseover" end="zoomminus.mouseout"/>
                        </use>
                        <path d="M-4,0h8" fill="none" stroke="white" stroke-width="1.5" pointer-events="none"/>
                </g>
                <g id="dirArrow">
                        <path fill="none" stroke="white" stroke-width="1.5" d="M0,-3.0v7 M-2.5,-0.5L0,-3.0L2.5,-0.5"/>
                </g>
               <g id="resetDef">
                       <use xlink:href="#rim2" fill="#404040">
                               <set attributeName="fill" to="#808080" begin="reset.mouseover" end="reset.mouseout"/>
                       </use>
               </g>
        </defs>

<script type="text/javascript">
var viewWidth = 890;
var viewHeight = 872;
var sectionId = 'dynsection-1';
</script>
<script xlink:href="svgpan.js"/>
<svg id="graph" class="graph">
<g id="viewport">
<title>TensorFunction&lt; rank, dim, Number &gt;</title>
<polygon fill="#ffffff" stroke="transparent" points="-4,4 -4,-868 886.1905,-868 886.1905,4 -4,4"/>
<!-- Node8 -->
<g id="node1" class="node">
<title>Node8</title>
<polygon fill="#bfbfbf" stroke="#000000" points="323.1905,-.5 323.1905,-123.5 438.1905,-123.5 438.1905,-.5 323.1905,-.5"/>
<text text-anchor="start" x="331.1905" y="-111.5" font-family="Helvetica,sans-Serif" font-size="10.00" fill="#000000">TensorFunction&lt; rank,</text>
<text text-anchor="middle" x="380.6905" y="-100.5" font-family="Helvetica,sans-Serif" font-size="10.00" fill="#000000"> dim, Number &gt;</text>
<polyline fill="none" stroke="#000000" points="323.1905,-93.5 438.1905,-93.5 "/>
<text text-anchor="middle" x="380.6905" y="-81.5" font-family="Helvetica,sans-Serif" font-size="10.00" fill="#000000"> </text>
<polyline fill="none" stroke="#000000" points="323.1905,-74.5 438.1905,-74.5 "/>
<text text-anchor="start" x="331.1905" y="-62.5" font-family="Helvetica,sans-Serif" font-size="10.00" fill="#000000">+ TensorFunction()</text>
<text text-anchor="start" x="331.1905" y="-51.5" font-family="Helvetica,sans-Serif" font-size="10.00" fill="#000000">+ ~TensorFunction()</text>
<text text-anchor="start" x="331.1905" y="-40.5" font-family="Helvetica,sans-Serif" font-size="10.00" fill="#000000">+ value()</text>
<text text-anchor="start" x="331.1905" y="-29.5" font-family="Helvetica,sans-Serif" font-size="10.00" fill="#000000">+ value_list()</text>
<text text-anchor="start" x="331.1905" y="-18.5" font-family="Helvetica,sans-Serif" font-size="10.00" fill="#000000">+ gradient()</text>
<text text-anchor="start" x="331.1905" y="-7.5" font-family="Helvetica,sans-Serif" font-size="10.00" fill="#000000">+ gradient_list()</text>
</g>
<!-- Node9 -->
<g id="node2" class="node">
<title>Node9</title>
<g id="a_node2"><a xlink:href="classFunctionTime.html" target="_top" xlink:title="{FunctionTime\&lt; numbers\l::NumberTraits\&lt; Number\l \&gt;::real_type \&gt;\n||+ FunctionTime()\l+ ~FunctionTime()\l+ get_time()\l+ set_time()\l+ advance_time()\l}">
<polygon fill="#ffffff" stroke="#000000" points="183.1905,-233 183.1905,-356 308.1905,-356 308.1905,-233 183.1905,-233"/>
<text text-anchor="start" x="191.1905" y="-344" font-family="Helvetica,sans-Serif" font-size="10.00" fill="#000000">FunctionTime&lt; numbers</text>
<text text-anchor="start" x="191.1905" y="-333" font-family="Helvetica,sans-Serif" font-size="10.00" fill="#000000">::NumberTraits&lt; Number</text>
<text text-anchor="middle" x="245.6905" y="-322" font-family="Helvetica,sans-Serif" font-size="10.00" fill="#000000"> &gt;::real_type &gt;</text>
<polyline fill="none" stroke="#000000" points="183.1905,-315 308.1905,-315 "/>
<text text-anchor="middle" x="245.6905" y="-303" font-family="Helvetica,sans-Serif" font-size="10.00" fill="#000000"> </text>
<polyline fill="none" stroke="#000000" points="183.1905,-296 308.1905,-296 "/>
<text text-anchor="start" x="191.1905" y="-284" font-family="Helvetica,sans-Serif" font-size="10.00" fill="#000000">+ FunctionTime()</text>
<text text-anchor="start" x="191.1905" y="-273" font-family="Helvetica,sans-Serif" font-size="10.00" fill="#000000">+ ~FunctionTime()</text>
<text text-anchor="start" x="191.1905" y="-262" font-family="Helvetica,sans-Serif" font-size="10.00" fill="#000000">+ get_time()</text>
<text text-anchor="start" x="191.1905" y="-251" font-family="Helvetica,sans-Serif" font-size="10.00" fill="#000000">+ set_time()</text>
<text text-anchor="start" x="191.1905" y="-240" font-family="Helvetica,sans-Serif" font-size="10.00" fill="#000000">+ advance_time()</text>
</a>
</g>
</g>
<!-- Node9&#45;&gt;Node8 -->
<g id="edge1" class="edge">
<title>Node9&#45;&gt;Node8</title>
<path fill="none" stroke="#191970" d="M286.6647,-223.9333C305.2485,-191.9277 327.0223,-154.4284 344.9344,-123.5799"/>
<polygon fill="none" stroke="#191970" points="283.5082,-222.3993 281.5136,-232.8047 289.5617,-225.9143 283.5082,-222.3993"/>
</g>
<!-- Node10 -->
<g id="node3" class="node">
<title>Node10</title>
<g id="a_node3"><a xlink:href="structnumbers_1_1NumberTraits.html" target="_top" xlink:title="{numbers::NumberTraits\l\&lt; Number \&gt;\n||+ conjugate()\l+ abs_square()\l+ abs_square()\l+ abs()\l}">
<polygon fill="#ffffff" stroke="#000000" points="44.1905,-486.5 44.1905,-587.5 163.1905,-587.5 163.1905,-486.5 44.1905,-486.5"/>
<text text-anchor="start" x="52.1905" y="-575.5" font-family="Helvetica,sans-Serif" font-size="10.00" fill="#000000">numbers::NumberTraits</text>
<text text-anchor="middle" x="103.6905" y="-564.5" font-family="Helvetica,sans-Serif" font-size="10.00" fill="#000000">&lt; Number &gt;</text>
<polyline fill="none" stroke="#000000" points="44.1905,-557.5 163.1905,-557.5 "/>
<text text-anchor="middle" x="103.6905" y="-545.5" font-family="Helvetica,sans-Serif" font-size="10.00" fill="#000000"> </text>
<polyline fill="none" stroke="#000000" points="44.1905,-538.5 163.1905,-538.5 "/>
<text text-anchor="start" x="52.1905" y="-526.5" font-family="Helvetica,sans-Serif" font-size="10.00" fill="#000000">+ conjugate()</text>
<text text-anchor="start" x="52.1905" y="-515.5" font-family="Helvetica,sans-Serif" font-size="10.00" fill="#000000">+ abs_square()</text>
<text text-anchor="start" x="52.1905" y="-504.5" font-family="Helvetica,sans-Serif" font-size="10.00" fill="#000000">+ abs_square()</text>
<text text-anchor="start" x="52.1905" y="-493.5" font-family="Helvetica,sans-Serif" font-size="10.00" fill="#000000">+ abs()</text>
</a>
</g>
</g>
<!-- Node10&#45;&gt;Node9 -->
<g id="edge2" class="edge">
<title>Node10&#45;&gt;Node9</title>
<path fill="none" stroke="#404040" d="M133.2855,-486.4592C153.5684,-451.8212 180.781,-405.3489 203.3505,-366.806"/>
<polygon fill="none" stroke="#404040" points="203.5197,-366.5168 203.0999,-359.3179 209.5835,-356.1616 210.0034,-363.3604 203.5197,-366.5168"/>
<text text-anchor="middle" x="166.1905" y="-454.5" font-family="Helvetica,sans-Serif" font-size="10.00" fill="#000000"> &#45;time</text>
</g>
<!-- Node11 -->
<g id="node4" class="node">
<title>Node11</title>
<g id="a_node4"><a xlink:href="classbool.html" target="_top" xlink:title="{bool\n||}">
<polygon fill="#ffffff" stroke="#000000" points="26.1905,-801 26.1905,-858 61.1905,-858 61.1905,-801 26.1905,-801"/>
<text text-anchor="middle" x="43.6905" y="-846" font-family="Helvetica,sans-Serif" font-size="10.00" fill="#000000">bool</text>
<polyline fill="none" stroke="#000000" points="26.1905,-839 61.1905,-839 "/>
<text text-anchor="middle" x="43.6905" y="-827" font-family="Helvetica,sans-Serif" font-size="10.00" fill="#000000"> </text>
<polyline fill="none" stroke="#000000" points="26.1905,-820 61.1905,-820 "/>
<text text-anchor="middle" x="43.6905" y="-808" font-family="Helvetica,sans-Serif" font-size="10.00" fill="#000000"> </text>
</a>
</g>
</g>
<!-- Node11&#45;&gt;Node10 -->
<g id="edge3" class="edge">
<title>Node11&#45;&gt;Node10</title>
<path fill="none" stroke="#404040" d="M28.5144,-800.9617C21.2566,-785.7093 13.3626,-766.34 9.6905,-748 .7902,-703.5489 -6.1018,-688.4937 9.6905,-646 16.2243,-628.4188 27.0074,-611.777 38.9864,-597.035"/>
<polygon fill="none" stroke="#404040" points="39.2161,-596.7654 40.0624,-589.6042 46.9983,-587.631 46.152,-594.7923 39.2161,-596.7654"/>
<text text-anchor="middle" x="39.1905" y="-694.5" font-family="Helvetica,sans-Serif" font-size="10.00" fill="#000000"> +is_complex</text>
</g>
<!-- Node12 -->
<g id="node5" class="node">
<title>Node12</title>
<g id="a_node5"><a xlink:href="structnumbers_1_1NumberTraits.html" target="_top" xlink:title="{numbers::NumberTraits\l\&lt; number \&gt;\n||+ conjugate()\l+ abs_square()\l+ abs_square()\l+ abs()\l}">
<polygon fill="#ffffff" stroke="#000000" points="78.1905,-646.5 78.1905,-747.5 197.1905,-747.5 197.1905,-646.5 78.1905,-646.5"/>
<text text-anchor="start" x="86.1905" y="-735.5" font-family="Helvetica,sans-Serif" font-size="10.00" fill="#000000">numbers::NumberTraits</text>
<text text-anchor="middle" x="137.6905" y="-724.5" font-family="Helvetica,sans-Serif" font-size="10.00" fill="#000000">&lt; number &gt;</text>
<polyline fill="none" stroke="#000000" points="78.1905,-717.5 197.1905,-717.5 "/>
<text text-anchor="middle" x="137.6905" y="-705.5" font-family="Helvetica,sans-Serif" font-size="10.00" fill="#000000"> </text>
<polyline fill="none" stroke="#000000" points="78.1905,-698.5 197.1905,-698.5 "/>
<text text-anchor="start" x="86.1905" y="-686.5" font-family="Helvetica,sans-Serif" font-size="10.00" fill="#000000">+ conjugate()</text>
<text text-anchor="start" x="86.1905" y="-675.5" font-family="Helvetica,sans-Serif" font-size="10.00" fill="#000000">+ abs_square()</text>
<text text-anchor="start" x="86.1905" y="-664.5" font-family="Helvetica,sans-Serif" font-size="10.00" fill="#000000">+ abs_square()</text>
<text text-anchor="start" x="86.1905" y="-653.5" font-family="Helvetica,sans-Serif" font-size="10.00" fill="#000000">+ abs()</text>
</a>
</g>
</g>
<!-- Node11&#45;&gt;Node12 -->
<g id="edge5" class="edge">
<title>Node11&#45;&gt;Node12</title>
<path fill="none" stroke="#404040" d="M61.3711,-804.5778C70.7961,-791.2926 82.8401,-774.3157 94.5608,-757.7944"/>
<polygon fill="none" stroke="#404040" points="94.8472,-757.3908 95.0565,-750.1827 101.7906,-747.6036 101.5813,-754.8116 94.8472,-757.3908"/>
<text text-anchor="middle" x="118.1905" y="-769" font-family="Helvetica,sans-Serif" font-size="10.00" fill="#000000"> +is_complex</text>
</g>
<!-- Node12&#45;&gt;Node10 -->
<g id="edge4" class="edge">
<title>Node12&#45;&gt;Node10</title>
<path fill="none" stroke="#ffa500" d="M124.8344,-636.5011C121.4062,-620.3682 117.7385,-603.1085 114.4366,-587.5701"/>
<polygon fill="#ffa500" stroke="#ffa500" points="121.4304,-637.3209 126.9327,-646.375 128.2775,-635.8659 121.4304,-637.3209"/>
<text text-anchor="middle" x="151.6905" y="-614.5" font-family="Helvetica,sans-Serif" font-size="10.00" fill="#000000"> &lt; Number &gt;</text>
</g>
<!-- Node13 -->
<g id="node6" class="node">
<title>Node13</title>
<g id="a_node6"><a xlink:href="classFunctionTime.html" target="_top" xlink:title="{FunctionTime\&lt; Number \&gt;\n||+ FunctionTime()\l+ ~FunctionTime()\l+ get_time()\l+ set_time()\l+ advance_time()\l}">
<polygon fill="#ffffff" stroke="#000000" points="181.6905,-486.5 181.6905,-587.5 309.6905,-587.5 309.6905,-486.5 181.6905,-486.5"/>
<text text-anchor="middle" x="245.6905" y="-575.5" font-family="Helvetica,sans-Serif" font-size="10.00" fill="#000000">FunctionTime&lt; Number &gt;</text>
<polyline fill="none" stroke="#000000" points="181.6905,-568.5 309.6905,-568.5 "/>
<text text-anchor="middle" x="245.6905" y="-556.5" font-family="Helvetica,sans-Serif" font-size="10.00" fill="#000000"> </text>
<polyline fill="none" stroke="#000000" points="181.6905,-549.5 309.6905,-549.5 "/>
<text text-anchor="start" x="189.6905" y="-537.5" font-family="Helvetica,sans-Serif" font-size="10.00" fill="#000000">+ FunctionTime()</text>
<text text-anchor="start" x="189.6905" y="-526.5" font-family="Helvetica,sans-Serif" font-size="10.00" fill="#000000">+ ~FunctionTime()</text>
<text text-anchor="start" x="189.6905" y="-515.5" font-family="Helvetica,sans-Serif" font-size="10.00" fill="#000000">+ get_time()</text>
<text text-anchor="start" x="189.6905" y="-504.5" font-family="Helvetica,sans-Serif" font-size="10.00" fill="#000000">+ set_time()</text>
<text text-anchor="start" x="189.6905" y="-493.5" font-family="Helvetica,sans-Serif" font-size="10.00" fill="#000000">+ advance_time()</text>
</a>
</g>
</g>
<!-- Node13&#45;&gt;Node9 -->
<g id="edge6" class="edge">
<title>Node13&#45;&gt;Node9</title>
<path fill="none" stroke="#ffa500" d="M245.6905,-476.3921C245.6905,-439.7035 245.6905,-393.0389 245.6905,-356.1616"/>
<polygon fill="#ffa500" stroke="#ffa500" points="242.1906,-476.4592 245.6905,-486.4592 249.1906,-476.4593 242.1906,-476.4592"/>
<text text-anchor="start" x="245.6905" y="-460" font-family="Helvetica,sans-Serif" font-size="10.00" fill="#000000"> &lt; numbers::NumberTraits</text>
<text text-anchor="middle" x="303.1905" y="-449" font-family="Helvetica,sans-Serif" font-size="10.00" fill="#000000">&lt; Number &gt;::real_type &gt;</text>
</g>
<!-- Node14 -->
<g id="node7" class="node">
<title>Node14</title>
<polygon fill="#ffffff" stroke="#bfbfbf" points="215.1905,-668.5 215.1905,-725.5 266.1905,-725.5 266.1905,-668.5 215.1905,-668.5"/>
<text text-anchor="middle" x="240.6905" y="-713.5" font-family="Helvetica,sans-Serif" font-size="10.00" fill="#000000">Number</text>
<polyline fill="none" stroke="#bfbfbf" points="215.1905,-706.5 266.1905,-706.5 "/>
<text text-anchor="middle" x="240.6905" y="-694.5" font-family="Helvetica,sans-Serif" font-size="10.00" fill="#000000"> </text>
<polyline fill="none" stroke="#bfbfbf" points="215.1905,-687.5 266.1905,-687.5 "/>
<text text-anchor="middle" x="240.6905" y="-675.5" font-family="Helvetica,sans-Serif" font-size="10.00" fill="#000000"> </text>
</g>
<!-- Node14&#45;&gt;Node13 -->
<g id="edge7" class="edge">
<title>Node14&#45;&gt;Node13</title>
<path fill="none" stroke="#404040" d="M241.5844,-668.3952C242.18,-649.3358 242.9865,-623.5272 243.7271,-599.8285"/>
<polygon fill="none" stroke="#404040" points="243.732,-599.6689 239.9214,-593.5469 244.1069,-587.6748 247.9175,-593.7968 243.732,-599.6689"/>
<text text-anchor="middle" x="256.1905" y="-614.5" font-family="Helvetica,sans-Serif" font-size="10.00" fill="#000000"> &#45;time</text>
</g>
<!-- Node15 -->
<g id="node8" class="node">
<title>Node15</title>
<g id="a_node8"><a xlink:href="classSubscriptor.html" target="_top" xlink:title="{Subscriptor\n||+ Subscriptor()\l+ Subscriptor()\l+ Subscriptor()\l+ ~Subscriptor()\l+ operator=()\l+ operator=()\l+ serialize()\l+ subscribe()\l+ unsubscribe()\l+ n_subscriptions()\l+ list_subscribers()\l+ list_subscribers()\l+ ExcInUse()\l+ ExcNoSubscriber()\l&#45; check_no_subscribers()\l* subscribe()\l* unsubscribe()\l* n_subscriptions()\l* list_subscribers()\l* list_subscribers()\l}">
<polygon fill="#ffffff" stroke="#000000" points="566.6905,-161.5 566.6905,-427.5 692.6905,-427.5 692.6905,-161.5 566.6905,-161.5"/>
<text text-anchor="middle" x="629.6905" y="-415.5" font-family="Helvetica,sans-Serif" font-size="10.00" fill="#000000">Subscriptor</text>
<polyline fill="none" stroke="#000000" points="566.6905,-408.5 692.6905,-408.5 "/>
<text text-anchor="middle" x="629.6905" y="-396.5" font-family="Helvetica,sans-Serif" font-size="10.00" fill="#000000"> </text>
<polyline fill="none" stroke="#000000" points="566.6905,-389.5 692.6905,-389.5 "/>
<text text-anchor="start" x="574.6905" y="-377.5" font-family="Helvetica,sans-Serif" font-size="10.00" fill="#000000">+ Subscriptor()</text>
<text text-anchor="start" x="574.6905" y="-366.5" font-family="Helvetica,sans-Serif" font-size="10.00" fill="#000000">+ Subscriptor()</text>
<text text-anchor="start" x="574.6905" y="-355.5" font-family="Helvetica,sans-Serif" font-size="10.00" fill="#000000">+ Subscriptor()</text>
<text text-anchor="start" x="574.6905" y="-344.5" font-family="Helvetica,sans-Serif" font-size="10.00" fill="#000000">+ ~Subscriptor()</text>
<text text-anchor="start" x="574.6905" y="-333.5" font-family="Helvetica,sans-Serif" font-size="10.00" fill="#000000">+ operator=()</text>
<text text-anchor="start" x="574.6905" y="-322.5" font-family="Helvetica,sans-Serif" font-size="10.00" fill="#000000">+ operator=()</text>
<text text-anchor="start" x="574.6905" y="-311.5" font-family="Helvetica,sans-Serif" font-size="10.00" fill="#000000">+ serialize()</text>
<text text-anchor="start" x="574.6905" y="-300.5" font-family="Helvetica,sans-Serif" font-size="10.00" fill="#000000">+ subscribe()</text>
<text text-anchor="start" x="574.6905" y="-289.5" font-family="Helvetica,sans-Serif" font-size="10.00" fill="#000000">+ unsubscribe()</text>
<text text-anchor="start" x="574.6905" y="-278.5" font-family="Helvetica,sans-Serif" font-size="10.00" fill="#000000">+ n_subscriptions()</text>
<text text-anchor="start" x="574.6905" y="-267.5" font-family="Helvetica,sans-Serif" font-size="10.00" fill="#000000">+ list_subscribers()</text>
<text text-anchor="start" x="574.6905" y="-256.5" font-family="Helvetica,sans-Serif" font-size="10.00" fill="#000000">+ list_subscribers()</text>
<text text-anchor="start" x="574.6905" y="-245.5" font-family="Helvetica,sans-Serif" font-size="10.00" fill="#000000">+ ExcInUse()</text>
<text text-anchor="start" x="574.6905" y="-234.5" font-family="Helvetica,sans-Serif" font-size="10.00" fill="#000000">+ ExcNoSubscriber()</text>
<text text-anchor="start" x="574.6905" y="-223.5" font-family="Helvetica,sans-Serif" font-size="10.00" fill="#000000">&#45; check_no_subscribers()</text>
<text text-anchor="start" x="574.6905" y="-212.5" font-family="Helvetica,sans-Serif" font-size="10.00" fill="#000000">* subscribe()</text>
<text text-anchor="start" x="574.6905" y="-201.5" font-family="Helvetica,sans-Serif" font-size="10.00" fill="#000000">* unsubscribe()</text>
<text text-anchor="start" x="574.6905" y="-190.5" font-family="Helvetica,sans-Serif" font-size="10.00" fill="#000000">* n_subscriptions()</text>
<text text-anchor="start" x="574.6905" y="-179.5" font-family="Helvetica,sans-Serif" font-size="10.00" fill="#000000">* list_subscribers()</text>
<text text-anchor="start" x="574.6905" y="-168.5" font-family="Helvetica,sans-Serif" font-size="10.00" fill="#000000">* list_subscribers()</text>
</a>
</g>
</g>
<!-- Node15&#45;&gt;Node8 -->
<g id="edge8" class="edge">
<title>Node15&#45;&gt;Node8</title>
<path fill="none" stroke="#191970" d="M559.0103,-228.5035C520.7986,-192.8239 474.2106,-149.323 438.2376,-115.7337"/>
<polygon fill="none" stroke="#191970" points="556.8376,-231.2633 566.5354,-235.5299 561.6149,-226.1469 556.8376,-231.2633"/>
</g>
<!-- Node16 -->
<g id="node9" class="node">
<title>Node16</title>
<polygon fill="#ffffff" stroke="#bfbfbf" points="345.6905,-503 345.6905,-571 455.6905,-571 455.6905,-503 345.6905,-503"/>
<text text-anchor="start" x="353.6905" y="-559" font-family="Helvetica,sans-Serif" font-size="10.00" fill="#000000">std::map&lt; std::string,</text>
<text text-anchor="middle" x="400.6905" y="-548" font-family="Helvetica,sans-Serif" font-size="10.00" fill="#000000"> unsigned int &gt;</text>
<polyline fill="none" stroke="#bfbfbf" points="345.6905,-541 455.6905,-541 "/>
<text text-anchor="middle" x="400.6905" y="-529" font-family="Helvetica,sans-Serif" font-size="10.00" fill="#000000"> </text>
<polyline fill="none" stroke="#bfbfbf" points="345.6905,-522 455.6905,-522 "/>
<text text-anchor="middle" x="400.6905" y="-510" font-family="Helvetica,sans-Serif" font-size="10.00" fill="#000000"> </text>
</g>
<!-- Node16&#45;&gt;Node15 -->
<g id="edge9" class="edge">
<title>Node16&#45;&gt;Node15</title>
<path fill="none" stroke="#404040" d="M433.0149,-502.77C465.3783,-468.4987 516.254,-414.6238 558.1527,-370.255"/>
<polygon fill="none" stroke="#404040" points="558.1657,-370.2413 559.3769,-363.1326 566.4047,-361.5166 565.1934,-368.6253 558.1657,-370.2413"/>
<text text-anchor="middle" x="513.1905" y="-454.5" font-family="Helvetica,sans-Serif" font-size="10.00" fill="#000000"> &#45;counter_map</text>
</g>
<!-- Node17 -->
<g id="node10" class="node">
<title>Node17</title>
<g id="a_node10"><a xlink:href="classint.html" target="_top" xlink:title="{int\n||}">
<polygon fill="#ffffff" stroke="#000000" points="284.1905,-668.5 284.1905,-725.5 313.1905,-725.5 313.1905,-668.5 284.1905,-668.5"/>
<text text-anchor="middle" x="298.6905" y="-713.5" font-family="Helvetica,sans-Serif" font-size="10.00" fill="#000000">int</text>
<polyline fill="none" stroke="#000000" points="284.1905,-706.5 313.1905,-706.5 "/>
<text text-anchor="middle" x="298.6905" y="-694.5" font-family="Helvetica,sans-Serif" font-size="10.00" fill="#000000"> </text>
<polyline fill="none" stroke="#000000" points="284.1905,-687.5 313.1905,-687.5 "/>
<text text-anchor="middle" x="298.6905" y="-675.5" font-family="Helvetica,sans-Serif" font-size="10.00" fill="#000000"> </text>
</a>
</g>
</g>
<!-- Node17&#45;&gt;Node16 -->
<g id="edge10" class="edge">
<title>Node17&#45;&gt;Node16</title>
<path fill="none" stroke="#404040" d="M298.6178,-668.136C299.759,-649.2839 303.5803,-624.7747 314.6905,-606 320.4787,-596.2187 328.2082,-587.2629 336.6671,-579.2758"/>
<polygon fill="none" stroke="#404040" points="336.6975,-579.2489 338.5498,-572.2797 345.6953,-571.3091 343.843,-578.2783 336.6975,-579.2489"/>
<text text-anchor="middle" x="339.1905" y="-614.5" font-family="Helvetica,sans-Serif" font-size="10.00" fill="#000000"> +elements</text>
</g>
<!-- Node18 -->
<g id="node11" class="node">
<title>Node18</title>
<g id="a_node11"><a xlink:title="STL class. ">
<polygon fill="#ffffff" stroke="#bfbfbf" points="331.6905,-668.5 331.6905,-725.5 391.6905,-725.5 391.6905,-668.5 331.6905,-668.5"/>
<text text-anchor="middle" x="361.6905" y="-713.5" font-family="Helvetica,sans-Serif" font-size="10.00" fill="#000000">std::string</text>
<polyline fill="none" stroke="#bfbfbf" points="331.6905,-706.5 391.6905,-706.5 "/>
<text text-anchor="middle" x="361.6905" y="-694.5" font-family="Helvetica,sans-Serif" font-size="10.00" fill="#000000"> </text>
<polyline fill="none" stroke="#bfbfbf" points="331.6905,-687.5 391.6905,-687.5 "/>
<text text-anchor="middle" x="361.6905" y="-675.5" font-family="Helvetica,sans-Serif" font-size="10.00" fill="#000000"> </text>
</a>
</g>
</g>
<!-- Node18&#45;&gt;Node16 -->
<g id="edge11" class="edge">
<title>Node18&#45;&gt;Node16</title>
<path fill="none" stroke="#404040" d="M362.7238,-668.3358C363.8938,-650.225 366.3857,-626.4622 371.6905,-606 373.728,-598.1405 376.4986,-590.007 379.523,-582.2015"/>
<polygon fill="none" stroke="#404040" points="379.5334,-582.1758 378.1048,-575.1076 384.0798,-571.0704 385.5084,-578.1386 379.5334,-582.1758"/>
<text text-anchor="middle" x="387.1905" y="-614.5" font-family="Helvetica,sans-Serif" font-size="10.00" fill="#000000"> +keys</text>
</g>
<!-- Node19 -->
<g id="node12" class="node">
<title>Node19</title>
<g id="a_node12"><a xlink:title="STL class. ">
<polygon fill="#ffffff" stroke="#bfbfbf" points="313.1905,-795.5 313.1905,-863.5 408.1905,-863.5 408.1905,-795.5 313.1905,-795.5"/>
<text text-anchor="start" x="321.1905" y="-851.5" font-family="Helvetica,sans-Serif" font-size="10.00" fill="#000000">std::basic_string&lt;</text>
<text text-anchor="middle" x="360.6905" y="-840.5" font-family="Helvetica,sans-Serif" font-size="10.00" fill="#000000"> char &gt;</text>
<polyline fill="none" stroke="#bfbfbf" points="313.1905,-833.5 408.1905,-833.5 "/>
<text text-anchor="middle" x="360.6905" y="-821.5" font-family="Helvetica,sans-Serif" font-size="10.00" fill="#000000"> </text>
<polyline fill="none" stroke="#bfbfbf" points="313.1905,-814.5 408.1905,-814.5 "/>
<text text-anchor="middle" x="360.6905" y="-802.5" font-family="Helvetica,sans-Serif" font-size="10.00" fill="#000000"> </text>
</a>
</g>
</g>
<!-- Node19&#45;&gt;Node18 -->
<g id="edge12" class="edge">
<title>Node19&#45;&gt;Node18</title>
<path fill="none" stroke="#191970" d="M361.0254,-785.1227C361.1735,-765.4974 361.3434,-742.9876 361.4744,-725.6307"/>
<polygon fill="none" stroke="#191970" points="357.5237,-785.3518 360.948,-795.378 364.5235,-785.4047 357.5237,-785.3518"/>
</g>
<!-- Node20 -->
<g id="node13" class="node">
<title>Node20</title>
<g id="a_node13"><a xlink:title="STL class. ">
<polygon fill="#ffffff" stroke="#bfbfbf" points="409.6905,-668.5 409.6905,-725.5 501.6905,-725.5 501.6905,-668.5 409.6905,-668.5"/>
<text text-anchor="middle" x="455.6905" y="-713.5" font-family="Helvetica,sans-Serif" font-size="10.00" fill="#000000">std::map&lt; K, T &gt;</text>
<polyline fill="none" stroke="#bfbfbf" points="409.6905,-706.5 501.6905,-706.5 "/>
<text text-anchor="middle" x="455.6905" y="-694.5" font-family="Helvetica,sans-Serif" font-size="10.00" fill="#000000"> </text>
<polyline fill="none" stroke="#bfbfbf" points="409.6905,-687.5 501.6905,-687.5 "/>
<text text-anchor="middle" x="455.6905" y="-675.5" font-family="Helvetica,sans-Serif" font-size="10.00" fill="#000000"> </text>
</a>
</g>
</g>
<!-- Node20&#45;&gt;Node16 -->
<g id="edge13" class="edge">
<title>Node20&#45;&gt;Node16</title>
<path fill="none" stroke="#ffa500" d="M442.5064,-658.6464C433.3541,-632.0216 421.2684,-596.863 412.4445,-571.1937"/>
<polygon fill="#ffa500" stroke="#ffa500" points="439.2968,-660.0761 445.8576,-668.3952 445.9166,-657.8005 439.2968,-660.0761"/>
<text text-anchor="start" x="431.6905" y="-620" font-family="Helvetica,sans-Serif" font-size="10.00" fill="#000000"> &lt; std::string, unsigned</text>
<text text-anchor="middle" x="482.1905" y="-609" font-family="Helvetica,sans-Serif" font-size="10.00" fill="#000000"> int &gt;</text>
</g>
<!-- Node21 -->
<g id="node14" class="node">
<title>Node21</title>
<polygon fill="#ffffff" stroke="#bfbfbf" points="426.1905,-801 426.1905,-858 455.1905,-858 455.1905,-801 426.1905,-801"/>
<text text-anchor="middle" x="440.6905" y="-846" font-family="Helvetica,sans-Serif" font-size="10.00" fill="#000000">K</text>
<polyline fill="none" stroke="#bfbfbf" points="426.1905,-839 455.1905,-839 "/>
<text text-anchor="middle" x="440.6905" y="-827" font-family="Helvetica,sans-Serif" font-size="10.00" fill="#000000"> </text>
<polyline fill="none" stroke="#bfbfbf" points="426.1905,-820 455.1905,-820 "/>
<text text-anchor="middle" x="440.6905" y="-808" font-family="Helvetica,sans-Serif" font-size="10.00" fill="#000000"> </text>
</g>
<!-- Node21&#45;&gt;Node20 -->
<g id="edge14" class="edge">
<title>Node21&#45;&gt;Node20</title>
<path fill="none" stroke="#404040" d="M440.0227,-800.9817C440.0582,-790.0174 440.4549,-777.3999 441.6905,-766 442.6978,-756.7056 444.3529,-746.8058 446.1788,-737.4921"/>
<polygon fill="none" stroke="#404040" points="446.1908,-737.434 443.4981,-730.7445 448.6373,-725.686 451.3301,-732.3755 446.1908,-737.434"/>
<text text-anchor="middle" x="457.1905" y="-769" font-family="Helvetica,sans-Serif" font-size="10.00" fill="#000000"> +keys</text>
</g>
<!-- Node22 -->
<g id="node15" class="node">
<title>Node22</title>
<polygon fill="#ffffff" stroke="#bfbfbf" points="516.1905,-801 516.1905,-858 545.1905,-858 545.1905,-801 516.1905,-801"/>
<text text-anchor="middle" x="530.6905" y="-846" font-family="Helvetica,sans-Serif" font-size="10.00" fill="#000000">T</text>
<polyline fill="none" stroke="#bfbfbf" points="516.1905,-839 545.1905,-839 "/>
<text text-anchor="middle" x="530.6905" y="-827" font-family="Helvetica,sans-Serif" font-size="10.00" fill="#000000"> </text>
<polyline fill="none" stroke="#bfbfbf" points="516.1905,-820 545.1905,-820 "/>
<text text-anchor="middle" x="530.6905" y="-808" font-family="Helvetica,sans-Serif" font-size="10.00" fill="#000000"> </text>
</g>
<!-- Node22&#45;&gt;Node20 -->
<g id="edge15" class="edge">
<title>Node22&#45;&gt;Node20</title>
<path fill="none" stroke="#404040" d="M515.9623,-811.704C508.1917,-801.8384 498.8188,-789.1414 491.6905,-777 484.2354,-764.302 477.2768,-749.7851 471.5029,-736.6341"/>
<polygon fill="none" stroke="#404040" points="471.4647,-736.5444 465.4294,-732.5978 466.7512,-725.5089 472.7865,-729.4555 471.4647,-736.5444"/>
<text text-anchor="middle" x="516.1905" y="-769" font-family="Helvetica,sans-Serif" font-size="10.00" fill="#000000"> +elements</text>
</g>
<!-- Node27 -->
<g id="node20" class="node">
<title>Node27</title>
<g id="a_node20"><a xlink:title="STL class. ">
<polygon fill="#ffffff" stroke="#bfbfbf" points="522.1905,-668.5 522.1905,-725.5 609.1905,-725.5 609.1905,-668.5 522.1905,-668.5"/>
<text text-anchor="middle" x="565.6905" y="-713.5" font-family="Helvetica,sans-Serif" font-size="10.00" fill="#000000">std::vector&lt; T &gt;</text>
<polyline fill="none" stroke="#bfbfbf" points="522.1905,-706.5 609.1905,-706.5 "/>
<text text-anchor="middle" x="565.6905" y="-694.5" font-family="Helvetica,sans-Serif" font-size="10.00" fill="#000000"> </text>
<polyline fill="none" stroke="#bfbfbf" points="522.1905,-687.5 609.1905,-687.5 "/>
<text text-anchor="middle" x="565.6905" y="-675.5" font-family="Helvetica,sans-Serif" font-size="10.00" fill="#000000"> </text>
</a>
</g>
</g>
<!-- Node22&#45;&gt;Node27 -->
<g id="edge21" class="edge">
<title>Node22&#45;&gt;Node27</title>
<path fill="none" stroke="#404040" d="M538.3399,-800.8957C540.4072,-793.1432 542.6396,-784.7514 544.6905,-777 548.114,-764.0607 551.8285,-749.9381 555.1682,-737.2093"/>
<polygon fill="none" stroke="#404040" points="555.1904,-737.1244 552.8428,-730.3061 558.2336,-725.5166 560.5813,-732.3349 555.1904,-737.1244"/>
<text text-anchor="middle" x="571.1905" y="-769" font-family="Helvetica,sans-Serif" font-size="10.00" fill="#000000"> +elements</text>
</g>
<!-- Node23 -->
<g id="node16" class="node">
<title>Node23</title>
<polygon fill="#ffffff" stroke="#bfbfbf" points="622.6905,-508.5 622.6905,-565.5 738.6905,-565.5 738.6905,-508.5 622.6905,-508.5"/>
<text text-anchor="middle" x="680.6905" y="-553.5" font-family="Helvetica,sans-Serif" font-size="10.00" fill="#000000">atomic&lt; unsigned int &gt;</text>
<polyline fill="none" stroke="#bfbfbf" points="622.6905,-546.5 738.6905,-546.5 "/>
<text text-anchor="middle" x="680.6905" y="-534.5" font-family="Helvetica,sans-Serif" font-size="10.00" fill="#000000"> </text>
<polyline fill="none" stroke="#bfbfbf" points="622.6905,-527.5 738.6905,-527.5 "/>
<text text-anchor="middle" x="680.6905" y="-515.5" font-family="Helvetica,sans-Serif" font-size="10.00" fill="#000000"> </text>
</g>
<!-- Node23&#45;&gt;Node15 -->
<g id="edge16" class="edge">
<title>Node23&#45;&gt;Node15</title>
<path fill="none" stroke="#404040" d="M674.6398,-508.2298C670.8759,-490.3326 665.72,-465.8169 660.24,-439.7602"/>
<polygon fill="none" stroke="#404040" points="660.173,-439.4411 655.0237,-434.3928 657.7032,-427.698 662.8525,-432.7463 660.173,-439.4411"/>
<text text-anchor="middle" x="684.1905" y="-454.5" font-family="Helvetica,sans-Serif" font-size="10.00" fill="#000000"> &#45;counter</text>
</g>
<!-- Node24 -->
<g id="node17" class="node">
<title>Node24</title>
<polygon fill="#ffffff" stroke="#bfbfbf" points="756.6905,-508.5 756.6905,-565.5 800.6905,-565.5 800.6905,-508.5 756.6905,-508.5"/>
<text text-anchor="middle" x="778.6905" y="-553.5" font-family="Helvetica,sans-Serif" font-size="10.00" fill="#000000">mutex</text>
<polyline fill="none" stroke="#bfbfbf" points="756.6905,-546.5 800.6905,-546.5 "/>
<text text-anchor="middle" x="778.6905" y="-534.5" font-family="Helvetica,sans-Serif" font-size="10.00" fill="#000000"> </text>
<polyline fill="none" stroke="#bfbfbf" points="756.6905,-527.5 800.6905,-527.5 "/>
<text text-anchor="middle" x="778.6905" y="-515.5" font-family="Helvetica,sans-Serif" font-size="10.00" fill="#000000"> </text>
</g>
<!-- Node24&#45;&gt;Node15 -->
<g id="edge17" class="edge">
<title>Node24&#45;&gt;Node15</title>
<path fill="none" stroke="#404040" d="M761.3416,-508.3895C756.9002,-501.084 752.1257,-493.247 747.6905,-486 732.0338,-460.4175 715.1503,-432.9483 699.1856,-407.0272"/>
<polygon fill="none" stroke="#404040" points="699.1758,-407.0113 692.6231,-404.001 692.8815,-396.7945 699.4343,-399.8048 699.1758,-407.0113"/>
<text text-anchor="middle" x="751.6905" y="-454.5" font-family="Helvetica,sans-Serif" font-size="10.00" fill="#000000"> &#45;mutex</text>
</g>
<!-- Node25 -->
<g id="node18" class="node">
<title>Node25</title>
<polygon fill="#ffffff" stroke="#bfbfbf" points="483.1905,-503 483.1905,-571 604.1905,-571 604.1905,-503 483.1905,-503"/>
<text text-anchor="start" x="491.1905" y="-559" font-family="Helvetica,sans-Serif" font-size="10.00" fill="#000000">std::vector&lt; std::atomic</text>
<text text-anchor="middle" x="543.6905" y="-548" font-family="Helvetica,sans-Serif" font-size="10.00" fill="#000000">&lt; bool &gt; *&gt;</text>
<polyline fill="none" stroke="#bfbfbf" points="483.1905,-541 604.1905,-541 "/>
<text text-anchor="middle" x="543.6905" y="-529" font-family="Helvetica,sans-Serif" font-size="10.00" fill="#000000"> </text>
<polyline fill="none" stroke="#bfbfbf" points="483.1905,-522 604.1905,-522 "/>
<text text-anchor="middle" x="543.6905" y="-510" font-family="Helvetica,sans-Serif" font-size="10.00" fill="#000000"> </text>
</g>
<!-- Node25&#45;&gt;Node15 -->
<g id="edge18" class="edge">
<title>Node25&#45;&gt;Node15</title>
<path fill="none" stroke="#404040" d="M555.8298,-502.77C562.0252,-485.3003 570.0271,-462.7368 578.4681,-438.9351"/>
<polygon fill="none" stroke="#404040" points="578.4952,-438.8586 576.7307,-431.8667 582.5062,-427.5488 584.2706,-434.5407 578.4952,-438.8586"/>
<text text-anchor="middle" x="612.1905" y="-454.5" font-family="Helvetica,sans-Serif" font-size="10.00" fill="#000000"> &#45;validity_pointers</text>
</g>
<!-- Node26 -->
<g id="node19" class="node">
<title>Node26</title>
<polygon fill="#ffffff" stroke="#bfbfbf" points="637.1905,-668.5 637.1905,-725.5 726.1905,-725.5 726.1905,-668.5 637.1905,-668.5"/>
<text text-anchor="middle" x="681.6905" y="-713.5" font-family="Helvetica,sans-Serif" font-size="10.00" fill="#000000">atomic&lt; bool &gt; *</text>
<polyline fill="none" stroke="#bfbfbf" points="637.1905,-706.5 726.1905,-706.5 "/>
<text text-anchor="middle" x="681.6905" y="-694.5" font-family="Helvetica,sans-Serif" font-size="10.00" fill="#000000"> </text>
<polyline fill="none" stroke="#bfbfbf" points="637.1905,-687.5 726.1905,-687.5 "/>
<text text-anchor="middle" x="681.6905" y="-675.5" font-family="Helvetica,sans-Serif" font-size="10.00" fill="#000000"> </text>
</g>
<!-- Node26&#45;&gt;Node25 -->
<g id="edge19" class="edge">
<title>Node26&#45;&gt;Node25</title>
<path fill="none" stroke="#404040" d="M681.4488,-668.4404C679.8292,-648.7531 674.6522,-623.1449 659.6905,-606 645.2556,-589.4589 632.943,-598.5506 613.6905,-588 608.2265,-585.0057 602.6974,-581.6445 597.2674,-578.1137"/>
<polygon fill="none" stroke="#404040" points="596.932,-577.887 589.721,-577.8406 586.9904,-571.1664 594.2014,-571.2129 596.932,-577.887"/>
<text text-anchor="middle" x="696.1905" y="-614.5" font-family="Helvetica,sans-Serif" font-size="10.00" fill="#000000"> +elements</text>
</g>
<!-- Node27&#45;&gt;Node25 -->
<g id="edge20" class="edge">
<title>Node27&#45;&gt;Node25</title>
<path fill="none" stroke="#ffa500" d="M555.5786,-658.3976C553.3187,-648.5457 551.1594,-637.9313 549.6905,-628 546.9336,-609.3616 545.4433,-588.3879 544.6377,-571.2773"/>
<polygon fill="#ffa500" stroke="#ffa500" points="552.2222,-659.4115 557.9454,-668.3275 559.0314,-657.7885 552.2222,-659.4115"/>
<text text-anchor="middle" x="604.6905" y="-614.5" font-family="Helvetica,sans-Serif" font-size="10.00" fill="#000000"> &lt; std::atomic&lt; bool &gt; *&gt;</text>
</g>
<!-- Node28 -->
<g id="node21" class="node">
<title>Node28</title>
<polygon fill="#ffffff" stroke="#bfbfbf" points="819.1905,-508.5 819.1905,-565.5 882.1905,-565.5 882.1905,-508.5 819.1905,-508.5"/>
<text text-anchor="middle" x="850.6905" y="-553.5" font-family="Helvetica,sans-Serif" font-size="10.00" fill="#000000">type_info *</text>
<polyline fill="none" stroke="#bfbfbf" points="819.1905,-546.5 882.1905,-546.5 "/>
<text text-anchor="middle" x="850.6905" y="-534.5" font-family="Helvetica,sans-Serif" font-size="10.00" fill="#000000"> </text>
<polyline fill="none" stroke="#bfbfbf" points="819.1905,-527.5 882.1905,-527.5 "/>
<text text-anchor="middle" x="850.6905" y="-515.5" font-family="Helvetica,sans-Serif" font-size="10.00" fill="#000000"> </text>
</g>
<!-- Node28&#45;&gt;Node15 -->
<g id="edge22" class="edge">
<title>Node28&#45;&gt;Node15</title>
<path fill="none" stroke="#404040" d="M828.2636,-508.3885C822.3248,-501.0109 815.8496,-493.1398 809.6905,-486 775.0716,-445.8692 734.8107,-402.7307 701.1549,-367.5759"/>
<polygon fill="none" stroke="#404040" points="701.0576,-367.4745 694.017,-365.9155 692.7482,-358.8169 699.7888,-360.3759 701.0576,-367.4745"/>
<text text-anchor="middle" x="817.6905" y="-454.5" font-family="Helvetica,sans-Serif" font-size="10.00" fill="#000000"> &#45;object_info</text>
</g>
</g>
</svg>
        <g id="navigator" transform="translate(0 0)" fill="#404254">
                <rect fill="#f2f5e9" fill-opacity="0.5" stroke="#606060" stroke-width=".5" x="0" y="0" width="60" height="60"/>
                <use id="zoomplus" xlink:href="#zoomPlus" x="17" y="9" onmousedown="handleZoom(evt,'in')"/>
                <use id="zoomminus" xlink:href="#zoomMin" x="42" y="9" onmousedown="handleZoom(evt,'out')"/>
                <use id="reset" xlink:href="#resetDef" x="30" y="36" onmousedown="handleReset()"/>
                <g id="arrowUp" xlink:href="#dirArrow" transform="translate(30 24)" onmousedown="handlePan(0,-1)">
                  <use xlink:href="#rim" fill="#404040">
                        <set attributeName="fill" to="#808080" begin="arrowUp.mouseover" end="arrowUp.mouseout"/>
                  </use>
                  <path fill="none" stroke="white" stroke-width="1.5" d="M0,-3.0v7 M-2.5,-0.5L0,-3.0L2.5,-0.5"/>
                </g>
                <g id="arrowRight" xlink:href="#dirArrow" transform="rotate(90) translate(36 -43)" onmousedown="handlePan(1,0)">
                  <use xlink:href="#rim" fill="#404040">
                        <set attributeName="fill" to="#808080" begin="arrowRight.mouseover" end="arrowRight.mouseout"/>
                  </use>
                  <path fill="none" stroke="white" stroke-width="1.5" d="M0,-3.0v7 M-2.5,-0.5L0,-3.0L2.5,-0.5"/>
                </g>
                <g id="arrowDown" xlink:href="#dirArrow" transform="rotate(180) translate(-30 -48)" onmousedown="handlePan(0,1)">
                  <use xlink:href="#rim" fill="#404040">
                        <set attributeName="fill" to="#808080" begin="arrowDown.mouseover" end="arrowDown.mouseout"/>
                  </use>
                  <path fill="none" stroke="white" stroke-width="1.5" d="M0,-3.0v7 M-2.5,-0.5L0,-3.0L2.5,-0.5"/>
                </g>
                <g id="arrowLeft" xlink:href="#dirArrow" transform="rotate(270) translate(-36 17)" onmousedown="handlePan(-1,0)">
                  <use xlink:href="#rim" fill="#404040">
                        <set attributeName="fill" to="#808080" begin="arrowLeft.mouseover" end="arrowLeft.mouseout"/>
                  </use>
                  <path fill="none" stroke="white" stroke-width="1.5" d="M0,-3.0v7 M-2.5,-0.5L0,-3.0L2.5,-0.5"/>
                </g>
        </g>
        <svg viewBox="0 0 15 15" width="100%" height="30px" preserveAspectRatio="xMaxYMin meet">
         <g id="arrow_out" transform="scale(0.3 0.3)">
          <a xlink:href="classTensorFunction__coll__graph_org.svg" target="_base">
           <rect id="button" ry="5" rx="5" y="6" x="6" height="38" width="38"
                fill="#f2f5e9" fill-opacity="0.5" stroke="#606060" stroke-width="1.0"/>
           <path id="arrow"
             d="M 11.500037,31.436501 C 11.940474,20.09759 22.043105,11.32322 32.158766,21.979434 L 37.068811,17.246167 C 37.068811,17.246167 37.088388,32 37.088388,32 L 22.160133,31.978069 C 22.160133,31.978069 26.997745,27.140456 26.997745,27.140456 C 18.528582,18.264221 13.291696,25.230495 11.500037,31.436501 z"
             style="fill:#404040;"/>
          </a>
         </g>
        </svg>
</svg>
