<?xml version="1.0" encoding="UTF-8" standalone="no"?>
<!DOCTYPE svg PUBLIC "-//W3C//DTD SVG 1.1//EN"
 "http://www.w3.org/Graphics/SVG/1.1/DTD/svg11.dtd">
<!-- Generated by graphviz version 2.40.1 (20161225.0304)
 -->
<!-- Title: ArborXWrappers::PointPredicate Pages: 1 -->
<svg width="334pt" height="204pt"
 viewBox="0.00 0.00 333.50 204.00" xmlns="http://www.w3.org/2000/svg" xmlns:xlink="http://www.w3.org/1999/xlink">
<g id="graph0" class="graph" transform="scale(1 1) rotate(0) translate(4 200)">
<title>ArborXWrappers::PointPredicate</title>
<polygon fill="#ffffff" stroke="transparent" points="-4,4 -4,-200 329.5,-200 329.5,4 -4,4"/>
<!-- Node0 -->
<g id="node1" class="node">
<title>Node0</title>
<polygon fill="#bfbfbf" stroke="#000000" points="84.5,-116.5 84.5,-195.5 242.5,-195.5 242.5,-116.5 84.5,-116.5"/>
<text text-anchor="middle" x="163.5" y="-183.5" font-family="Helvetica,sans-Serif" font-size="10.00" fill="#000000">ArborXWrappers::PointPredicate</text>
<polyline fill="none" stroke="#000000" points="84.5,-176.5 242.5,-176.5 "/>
<text text-anchor="start" x="92.5" y="-164.5" font-family="Helvetica,sans-Serif" font-size="10.00" fill="#000000">&#45; points</text>
<polyline fill="none" stroke="#000000" points="84.5,-157.5 242.5,-157.5 "/>
<text text-anchor="start" x="92.5" y="-145.5" font-family="Helvetica,sans-Serif" font-size="10.00" fill="#000000"># PointPredicate()</text>
<text text-anchor="start" x="92.5" y="-134.5" font-family="Helvetica,sans-Serif" font-size="10.00" fill="#000000"># size()</text>
<text text-anchor="start" x="92.5" y="-123.5" font-family="Helvetica,sans-Serif" font-size="10.00" fill="#000000"># get()</text>
</g>
<!-- Node1 -->
<g id="node2" class="node">
<title>Node1</title>
<g id="a_node2"><a xlink:href="classArborXWrappers_1_1PointIntersectPredicate.html" target="_top" xlink:title="{ArborXWrappers::PointIntersect\lPredicate\n||+ PointIntersectPredicate()\l}">
<polygon fill="#ffffff" stroke="#000000" points="0,-6 0,-74 155,-74 155,-6 0,-6"/>
<text text-anchor="start" x="8" y="-62" font-family="Helvetica,sans-Serif" font-size="10.00" fill="#000000">ArborXWrappers::PointIntersect</text>
<text text-anchor="middle" x="77.5" y="-51" font-family="Helvetica,sans-Serif" font-size="10.00" fill="#000000">Predicate</text>
<polyline fill="none" stroke="#000000" points="0,-44 155,-44 "/>
<text text-anchor="middle" x="77.5" y="-32" font-family="Helvetica,sans-Serif" font-size="10.00" fill="#000000"> </text>
<polyline fill="none" stroke="#000000" points="0,-25 155,-25 "/>
<text text-anchor="start" x="8" y="-13" font-family="Helvetica,sans-Serif" font-size="10.00" fill="#000000">+ PointIntersectPredicate()</text>
</a>
</g>
</g>
<!-- Node0&#45;&gt;Node1 -->
<g id="edge1" class="edge">
<title>Node0&#45;&gt;Node1</title>
<path fill="none" stroke="#8b1a1a" d="M128.0454,-108.1775C119.5439,-96.7104 110.6362,-84.6954 102.7082,-74.0017"/>
<polygon fill="none" stroke="#8b1a1a" points="125.377,-110.4552 134.1442,-116.4038 131.0002,-106.2862 125.377,-110.4552"/>
</g>
<!-- Node2 -->
<g id="node3" class="node">
<title>Node2</title>
<g id="a_node3"><a xlink:href="classArborXWrappers_1_1PointNearestPredicate.html" target="_top" xlink:title="{ArborXWrappers::PointNearest\lPredicate\n|&#45; n_nearest_neighbors\l|+ PointNearestPredicate()\l+ get_n_nearest_neighbors()\l}">
<polygon fill="#ffffff" stroke="#000000" points="173.5,-.5 173.5,-79.5 325.5,-79.5 325.5,-.5 173.5,-.5"/>
<text text-anchor="start" x="181.5" y="-67.5" font-family="Helvetica,sans-Serif" font-size="10.00" fill="#000000">ArborXWrappers::PointNearest</text>
<text text-anchor="middle" x="249.5" y="-56.5" font-family="Helvetica,sans-Serif" font-size="10.00" fill="#000000">Predicate</text>
<polyline fill="none" stroke="#000000" points="173.5,-49.5 325.5,-49.5 "/>
<text text-anchor="start" x="181.5" y="-37.5" font-family="Helvetica,sans-Serif" font-size="10.00" fill="#000000">&#45; n_nearest_neighbors</text>
<polyline fill="none" stroke="#000000" points="173.5,-30.5 325.5,-30.5 "/>
<text text-anchor="start" x="181.5" y="-18.5" font-family="Helvetica,sans-Serif" font-size="10.00" fill="#000000">+ PointNearestPredicate()</text>
<text text-anchor="start" x="181.5" y="-7.5" font-family="Helvetica,sans-Serif" font-size="10.00" fill="#000000">+ get_n_nearest_neighbors()</text>
</a>
</g>
</g>
<!-- Node0&#45;&gt;Node2 -->
<g id="edge2" class="edge">
<title>Node0&#45;&gt;Node2</title>
<path fill="none" stroke="#8b1a1a" d="M198.9192,-108.2252C205.9223,-98.7792 213.2024,-88.9596 219.9845,-79.8116"/>
<polygon fill="none" stroke="#8b1a1a" points="195.9998,-106.2862 192.8558,-116.4038 201.623,-110.4552 195.9998,-106.2862"/>
</g>
</g>
</svg>
