<?xml version="1.0" encoding="UTF-8" standalone="no"?>
<!DOCTYPE svg PUBLIC "-//W3C//DTD SVG 1.1//EN"
 "http://www.w3.org/Graphics/SVG/1.1/DTD/svg11.dtd">
<!-- Generated by graphviz version 2.40.1 (20161225.0304)
 -->
<!-- Title: PETScWrappers::SolverBase Pages: 1 -->
<!--zoomable 358 -->
<svg id="main" version="1.1" xmlns="http://www.w3.org/2000/svg" xmlns:xlink="http://www.w3.org/1999/xlink" xml:space="preserve" onload="init(evt)">
<style type="text/css"><![CDATA[
.edge:hover path { stroke: red; }
.edge:hover polygon { stroke: red; fill: red; }
]]></style>
<script type="text/javascript"><![CDATA[
var edges = document.getElementsByTagName('g');
if (edges && edges.length) {
  for (var i=0;i<edges.length;i++) {
    if (edges[i].id.substr(0,4)=='edge') {
      edges[i].setAttribute('class','edge');
    }
  }
}
]]></script>
        <defs>
                <circle id="rim" cx="0" cy="0" r="7"/>
                <circle id="rim2" cx="0" cy="0" r="3.5"/>
                <g id="zoomPlus">
                        <use xlink:href="#rim" fill="#404040">
                                <set attributeName="fill" to="#808080" begin="zoomplus.mouseover" end="zoomplus.mouseout"/>
                        </use>
                        <path d="M-4,0h8M0,-4v8" fill="none" stroke="white" stroke-width="1.5" pointer-events="none"/>
                </g>
                <g id="zoomMin">
                        <use xlink:href="#rim" fill="#404040">
                                <set attributeName="fill" to="#808080" begin="zoomminus.mouseover" end="zoomminus.mouseout"/>
                        </use>
                        <path d="M-4,0h8" fill="none" stroke="white" stroke-width="1.5" pointer-events="none"/>
                </g>
                <g id="dirArrow">
                        <path fill="none" stroke="white" stroke-width="1.5" d="M0,-3.0v7 M-2.5,-0.5L0,-3.0L2.5,-0.5"/>
                </g>
               <g id="resetDef">
                       <use xlink:href="#rim2" fill="#404040">
                               <set attributeName="fill" to="#808080" begin="reset.mouseover" end="reset.mouseout"/>
                       </use>
               </g>
        </defs>

<script type="text/javascript">
var viewWidth = 2250;
var viewHeight = 358;
var sectionId = 'dynsection-0';
</script>
<script xlink:href="svgpan.js"/>
<svg id="graph" class="graph">
<g id="viewport">
<title>PETScWrappers::SolverBase</title>
<polygon fill="#ffffff" stroke="transparent" points="-4,4 -4,-354 2245.5,-354 2245.5,4 -4,4"/>
<!-- Node0 -->
<g id="node1" class="node">
<title>Node0</title>
<polygon fill="#bfbfbf" stroke="#000000" points="1024,-171.5 1024,-349.5 1170,-349.5 1170,-171.5 1024,-171.5"/>
<text text-anchor="middle" x="1097" y="-337.5" font-family="Helvetica,sans-Serif" font-size="10.00" fill="#000000">PETScWrappers::SolverBase</text>
<polyline fill="none" stroke="#000000" points="1024,-330.5 1170,-330.5 "/>
<text text-anchor="start" x="1032" y="-318.5" font-family="Helvetica,sans-Serif" font-size="10.00" fill="#000000"># solver_control</text>
<text text-anchor="start" x="1032" y="-307.5" font-family="Helvetica,sans-Serif" font-size="10.00" fill="#000000"># mpi_communicator</text>
<text text-anchor="start" x="1032" y="-296.5" font-family="Helvetica,sans-Serif" font-size="10.00" fill="#000000"># prefix_name</text>
<text text-anchor="start" x="1032" y="-285.5" font-family="Helvetica,sans-Serif" font-size="10.00" fill="#000000">&#45; solver_data</text>
<polyline fill="none" stroke="#000000" points="1024,-278.5 1170,-278.5 "/>
<text text-anchor="start" x="1032" y="-266.5" font-family="Helvetica,sans-Serif" font-size="10.00" fill="#000000">+ SolverBase()</text>
<text text-anchor="start" x="1032" y="-255.5" font-family="Helvetica,sans-Serif" font-size="10.00" fill="#000000">+ ~SolverBase()</text>
<text text-anchor="start" x="1032" y="-244.5" font-family="Helvetica,sans-Serif" font-size="10.00" fill="#000000">+ solve()</text>
<text text-anchor="start" x="1032" y="-233.5" font-family="Helvetica,sans-Serif" font-size="10.00" fill="#000000">+ reset()</text>
<text text-anchor="start" x="1032" y="-222.5" font-family="Helvetica,sans-Serif" font-size="10.00" fill="#000000">+ set_prefix()</text>
<text text-anchor="start" x="1032" y="-211.5" font-family="Helvetica,sans-Serif" font-size="10.00" fill="#000000">+ control()</text>
<text text-anchor="start" x="1032" y="-200.5" font-family="Helvetica,sans-Serif" font-size="10.00" fill="#000000">+ initialize()</text>
<text text-anchor="start" x="1032" y="-189.5" font-family="Helvetica,sans-Serif" font-size="10.00" fill="#000000"># set_solver_type()</text>
<text text-anchor="start" x="1032" y="-178.5" font-family="Helvetica,sans-Serif" font-size="10.00" fill="#000000">&#45; convergence_test()</text>
</g>
<!-- Node1 -->
<g id="node2" class="node">
<title>Node1</title>
<g id="a_node2"><a xlink:href="classPETScWrappers_1_1SolverBiCG.html" target="_top" xlink:title="{PETScWrappers::SolverBiCG\n|# additional_data\l|+ SolverBiCG()\l# set_solver_type()\l}">
<polygon fill="#ffffff" stroke="#000000" points="0,-33.5 0,-101.5 148,-101.5 148,-33.5 0,-33.5"/>
<text text-anchor="middle" x="74" y="-89.5" font-family="Helvetica,sans-Serif" font-size="10.00" fill="#000000">PETScWrappers::SolverBiCG</text>
<polyline fill="none" stroke="#000000" points="0,-82.5 148,-82.5 "/>
<text text-anchor="start" x="8" y="-70.5" font-family="Helvetica,sans-Serif" font-size="10.00" fill="#000000"># additional_data</text>
<polyline fill="none" stroke="#000000" points="0,-63.5 148,-63.5 "/>
<text text-anchor="start" x="8" y="-51.5" font-family="Helvetica,sans-Serif" font-size="10.00" fill="#000000">+ SolverBiCG()</text>
<text text-anchor="start" x="8" y="-40.5" font-family="Helvetica,sans-Serif" font-size="10.00" fill="#000000"># set_solver_type()</text>
</a>
</g>
</g>
<!-- Node0&#45;&gt;Node1 -->
<g id="edge1" class="edge">
<title>Node0&#45;&gt;Node1</title>
<path fill="none" stroke="#191970" d="M1013.5443,-255.1796C813.271,-241.4871 310.6682,-201.378 157,-135 138.9263,-127.193 121.5898,-114.2784 107.4786,-101.8245"/>
<polygon fill="none" stroke="#191970" points="1013.4991,-258.6845 1023.7132,-255.8699 1013.9732,-251.7006 1013.4991,-258.6845"/>
</g>
<!-- Node2 -->
<g id="node3" class="node">
<title>Node2</title>
<g id="a_node3"><a xlink:href="classPETScWrappers_1_1SolverBicgstab.html" target="_top" xlink:title="{PETScWrappers::SolverBicgstab\n|# additional_data\l|+ SolverBicgstab()\l# set_solver_type()\l}">
<polygon fill="#ffffff" stroke="#000000" points="166,-33.5 166,-101.5 328,-101.5 328,-33.5 166,-33.5"/>
<text text-anchor="middle" x="247" y="-89.5" font-family="Helvetica,sans-Serif" font-size="10.00" fill="#000000">PETScWrappers::SolverBicgstab</text>
<polyline fill="none" stroke="#000000" points="166,-82.5 328,-82.5 "/>
<text text-anchor="start" x="174" y="-70.5" font-family="Helvetica,sans-Serif" font-size="10.00" fill="#000000"># additional_data</text>
<polyline fill="none" stroke="#000000" points="166,-63.5 328,-63.5 "/>
<text text-anchor="start" x="174" y="-51.5" font-family="Helvetica,sans-Serif" font-size="10.00" fill="#000000">+ SolverBicgstab()</text>
<text text-anchor="start" x="174" y="-40.5" font-family="Helvetica,sans-Serif" font-size="10.00" fill="#000000"># set_solver_type()</text>
</a>
</g>
</g>
<!-- Node0&#45;&gt;Node2 -->
<g id="edge2" class="edge">
<title>Node0&#45;&gt;Node2</title>
<path fill="none" stroke="#191970" d="M1013.9999,-251.8386C843.1847,-233.1977 458.1884,-186.7495 337,-135 318.1397,-126.9463 299.6103,-114.1438 284.313,-101.8428"/>
<polygon fill="none" stroke="#191970" points="1013.6297,-255.3189 1023.9492,-252.9194 1014.3857,-248.3599 1013.6297,-255.3189"/>
</g>
<!-- Node3 -->
<g id="node4" class="node">
<title>Node3</title>
<g id="a_node4"><a xlink:href="classPETScWrappers_1_1SolverCG.html" target="_top" xlink:title="{PETScWrappers::SolverCG\n|# additional_data\l|+ SolverCG()\l# set_solver_type()\l}">
<polygon fill="#ffffff" stroke="#000000" points="346.5,-33.5 346.5,-101.5 485.5,-101.5 485.5,-33.5 346.5,-33.5"/>
<text text-anchor="middle" x="416" y="-89.5" font-family="Helvetica,sans-Serif" font-size="10.00" fill="#000000">PETScWrappers::SolverCG</text>
<polyline fill="none" stroke="#000000" points="346.5,-82.5 485.5,-82.5 "/>
<text text-anchor="start" x="354.5" y="-70.5" font-family="Helvetica,sans-Serif" font-size="10.00" fill="#000000"># additional_data</text>
<polyline fill="none" stroke="#000000" points="346.5,-63.5 485.5,-63.5 "/>
<text text-anchor="start" x="354.5" y="-51.5" font-family="Helvetica,sans-Serif" font-size="10.00" fill="#000000">+ SolverCG()</text>
<text text-anchor="start" x="354.5" y="-40.5" font-family="Helvetica,sans-Serif" font-size="10.00" fill="#000000"># set_solver_type()</text>
</a>
</g>
</g>
<!-- Node0&#45;&gt;Node3 -->
<g id="edge3" class="edge">
<title>Node0&#45;&gt;Node3</title>
<path fill="none" stroke="#191970" d="M1013.4892,-256.1639C893.2145,-247.0972 666.814,-219.3335 495,-135 477.996,-126.6537 461.6506,-113.7986 448.2841,-101.5374"/>
<polygon fill="none" stroke="#191970" points="1013.5034,-259.6741 1023.7313,-256.91 1014.012,-252.6926 1013.5034,-259.6741"/>
</g>
<!-- Node4 -->
<g id="node5" class="node">
<title>Node4</title>
<g id="a_node5"><a xlink:href="classPETScWrappers_1_1SolverCGS.html" target="_top" xlink:title="{PETScWrappers::SolverCGS\n|# additional_data\l|+ SolverCGS()\l# set_solver_type()\l}">
<polygon fill="#ffffff" stroke="#000000" points="504,-33.5 504,-101.5 650,-101.5 650,-33.5 504,-33.5"/>
<text text-anchor="middle" x="577" y="-89.5" font-family="Helvetica,sans-Serif" font-size="10.00" fill="#000000">PETScWrappers::SolverCGS</text>
<polyline fill="none" stroke="#000000" points="504,-82.5 650,-82.5 "/>
<text text-anchor="start" x="512" y="-70.5" font-family="Helvetica,sans-Serif" font-size="10.00" fill="#000000"># additional_data</text>
<polyline fill="none" stroke="#000000" points="504,-63.5 650,-63.5 "/>
<text text-anchor="start" x="512" y="-51.5" font-family="Helvetica,sans-Serif" font-size="10.00" fill="#000000">+ SolverCGS()</text>
<text text-anchor="start" x="512" y="-40.5" font-family="Helvetica,sans-Serif" font-size="10.00" fill="#000000"># set_solver_type()</text>
</a>
</g>
</g>
<!-- Node0&#45;&gt;Node4 -->
<g id="edge4" class="edge">
<title>Node0&#45;&gt;Node4</title>
<path fill="none" stroke="#191970" d="M1013.8121,-247.1623C922.7696,-230.2279 774.4085,-195.6535 659,-135 642.1882,-126.1645 625.6305,-113.5119 611.8438,-101.544"/>
<polygon fill="none" stroke="#191970" points="1013.3375,-250.6335 1023.8045,-248.9928 1014.5989,-243.7481 1013.3375,-250.6335"/>
</g>
<!-- Node5 -->
<g id="node6" class="node">
<title>Node5</title>
<g id="a_node6"><a xlink:href="classPETScWrappers_1_1SolverChebychev.html" target="_top" xlink:title="{PETScWrappers::SolverChebychev\n|# additional_data\l|+ SolverChebychev()\l# set_solver_type()\l}">
<polygon fill="#ffffff" stroke="#000000" points="668.5,-33.5 668.5,-101.5 841.5,-101.5 841.5,-33.5 668.5,-33.5"/>
<text text-anchor="middle" x="755" y="-89.5" font-family="Helvetica,sans-Serif" font-size="10.00" fill="#000000">PETScWrappers::SolverChebychev</text>
<polyline fill="none" stroke="#000000" points="668.5,-82.5 841.5,-82.5 "/>
<text text-anchor="start" x="676.5" y="-70.5" font-family="Helvetica,sans-Serif" font-size="10.00" fill="#000000"># additional_data</text>
<polyline fill="none" stroke="#000000" points="668.5,-63.5 841.5,-63.5 "/>
<text text-anchor="start" x="676.5" y="-51.5" font-family="Helvetica,sans-Serif" font-size="10.00" fill="#000000">+ SolverChebychev()</text>
<text text-anchor="start" x="676.5" y="-40.5" font-family="Helvetica,sans-Serif" font-size="10.00" fill="#000000"># set_solver_type()</text>
</a>
</g>
</g>
<!-- Node0&#45;&gt;Node5 -->
<g id="edge5" class="edge">
<title>Node0&#45;&gt;Node5</title>
<path fill="none" stroke="#191970" d="M1014.6119,-222.4166C965.7935,-198.9275 903.2625,-167.2123 850,-135 833.2069,-124.8438 815.5007,-112.6931 799.9843,-101.5175"/>
<polygon fill="none" stroke="#191970" points="1013.3431,-225.6896 1023.8738,-226.8536 1016.3674,-219.3766 1013.3431,-225.6896"/>
</g>
<!-- Node6 -->
<g id="node7" class="node">
<title>Node6</title>
<g id="a_node7"><a xlink:href="classPETScWrappers_1_1SolverCR.html" target="_top" xlink:title="{PETScWrappers::SolverCR\n|# additional_data\l|+ SolverCR()\l# set_solver_type()\l}">
<polygon fill="#ffffff" stroke="#000000" points="859.5,-33.5 859.5,-101.5 998.5,-101.5 998.5,-33.5 859.5,-33.5"/>
<text text-anchor="middle" x="929" y="-89.5" font-family="Helvetica,sans-Serif" font-size="10.00" fill="#000000">PETScWrappers::SolverCR</text>
<polyline fill="none" stroke="#000000" points="859.5,-82.5 998.5,-82.5 "/>
<text text-anchor="start" x="867.5" y="-70.5" font-family="Helvetica,sans-Serif" font-size="10.00" fill="#000000"># additional_data</text>
<polyline fill="none" stroke="#000000" points="859.5,-63.5 998.5,-63.5 "/>
<text text-anchor="start" x="867.5" y="-51.5" font-family="Helvetica,sans-Serif" font-size="10.00" fill="#000000">+ SolverCR()</text>
<text text-anchor="start" x="867.5" y="-40.5" font-family="Helvetica,sans-Serif" font-size="10.00" fill="#000000"># set_solver_type()</text>
</a>
</g>
</g>
<!-- Node0&#45;&gt;Node6 -->
<g id="edge6" class="edge">
<title>Node0&#45;&gt;Node6</title>
<path fill="none" stroke="#191970" d="M1017.0934,-168.7026C996.3769,-144.9032 975.3276,-120.7216 959.0017,-101.9663"/>
<polygon fill="none" stroke="#191970" points="1014.5958,-171.1641 1023.8015,-176.4088 1019.8757,-166.5681 1014.5958,-171.1641"/>
</g>
<!-- Node7 -->
<g id="node8" class="node">
<title>Node7</title>
<g id="a_node8"><a xlink:href="classPETScWrappers_1_1SolverGMRES.html" target="_top" xlink:title="{PETScWrappers::SolverGMRES\n|# additional_data\l|+ SolverGMRES()\l# set_solver_type()\l}">
<polygon fill="#ffffff" stroke="#000000" points="1016.5,-33.5 1016.5,-101.5 1177.5,-101.5 1177.5,-33.5 1016.5,-33.5"/>
<text text-anchor="middle" x="1097" y="-89.5" font-family="Helvetica,sans-Serif" font-size="10.00" fill="#000000">PETScWrappers::SolverGMRES</text>
<polyline fill="none" stroke="#000000" points="1016.5,-82.5 1177.5,-82.5 "/>
<text text-anchor="start" x="1024.5" y="-70.5" font-family="Helvetica,sans-Serif" font-size="10.00" fill="#000000"># additional_data</text>
<polyline fill="none" stroke="#000000" points="1016.5,-63.5 1177.5,-63.5 "/>
<text text-anchor="start" x="1024.5" y="-51.5" font-family="Helvetica,sans-Serif" font-size="10.00" fill="#000000">+ SolverGMRES()</text>
<text text-anchor="start" x="1024.5" y="-40.5" font-family="Helvetica,sans-Serif" font-size="10.00" fill="#000000"># set_solver_type()</text>
</a>
</g>
</g>
<!-- Node0&#45;&gt;Node7 -->
<g id="edge7" class="edge">
<title>Node0&#45;&gt;Node7</title>
<path fill="none" stroke="#191970" d="M1097,-161.1971C1097,-139.8338 1097,-118.6538 1097,-101.8498"/>
<polygon fill="none" stroke="#191970" points="1093.5001,-161.3442 1097,-171.3443 1100.5001,-161.3443 1093.5001,-161.3442"/>
</g>
<!-- Node8 -->
<g id="node9" class="node">
<title>Node8</title>
<g id="a_node9"><a xlink:href="classPETScWrappers_1_1SolverLSQR.html" target="_top" xlink:title="{PETScWrappers::SolverLSQR\n|# additional_data\l|+ SolverLSQR()\l# set_solver_type()\l}">
<polygon fill="#ffffff" stroke="#000000" points="1195.5,-33.5 1195.5,-101.5 1346.5,-101.5 1346.5,-33.5 1195.5,-33.5"/>
<text text-anchor="middle" x="1271" y="-89.5" font-family="Helvetica,sans-Serif" font-size="10.00" fill="#000000">PETScWrappers::SolverLSQR</text>
<polyline fill="none" stroke="#000000" points="1195.5,-82.5 1346.5,-82.5 "/>
<text text-anchor="start" x="1203.5" y="-70.5" font-family="Helvetica,sans-Serif" font-size="10.00" fill="#000000"># additional_data</text>
<polyline fill="none" stroke="#000000" points="1195.5,-63.5 1346.5,-63.5 "/>
<text text-anchor="start" x="1203.5" y="-51.5" font-family="Helvetica,sans-Serif" font-size="10.00" fill="#000000">+ SolverLSQR()</text>
<text text-anchor="start" x="1203.5" y="-40.5" font-family="Helvetica,sans-Serif" font-size="10.00" fill="#000000"># set_solver_type()</text>
</a>
</g>
</g>
<!-- Node0&#45;&gt;Node8 -->
<g id="edge8" class="edge">
<title>Node0&#45;&gt;Node8</title>
<path fill="none" stroke="#191970" d="M1176.9743,-171.7929C1199.4193,-146.8969 1222.4922,-121.3047 1240.1647,-101.7023"/>
<polygon fill="none" stroke="#191970" points="1174.1319,-169.7187 1170.0354,-179.4895 1179.331,-174.4059 1174.1319,-169.7187"/>
</g>
<!-- Node9 -->
<g id="node10" class="node">
<title>Node9</title>
<g id="a_node10"><a xlink:href="classPETScWrappers_1_1SolverPreOnly.html" target="_top" xlink:title="{PETScWrappers::SolverPreOnly\n|# additional_data\l|+ SolverPreOnly()\l# set_solver_type()\l}">
<polygon fill="#ffffff" stroke="#000000" points="1364.5,-33.5 1364.5,-101.5 1523.5,-101.5 1523.5,-33.5 1364.5,-33.5"/>
<text text-anchor="middle" x="1444" y="-89.5" font-family="Helvetica,sans-Serif" font-size="10.00" fill="#000000">PETScWrappers::SolverPreOnly</text>
<polyline fill="none" stroke="#000000" points="1364.5,-82.5 1523.5,-82.5 "/>
<text text-anchor="start" x="1372.5" y="-70.5" font-family="Helvetica,sans-Serif" font-size="10.00" fill="#000000"># additional_data</text>
<polyline fill="none" stroke="#000000" points="1364.5,-63.5 1523.5,-63.5 "/>
<text text-anchor="start" x="1372.5" y="-51.5" font-family="Helvetica,sans-Serif" font-size="10.00" fill="#000000">+ SolverPreOnly()</text>
<text text-anchor="start" x="1372.5" y="-40.5" font-family="Helvetica,sans-Serif" font-size="10.00" fill="#000000"># set_solver_type()</text>
</a>
</g>
</g>
<!-- Node0&#45;&gt;Node9 -->
<g id="edge9" class="edge">
<title>Node0&#45;&gt;Node9</title>
<path fill="none" stroke="#191970" d="M1179.4542,-225.7196C1231.4899,-202.5249 1299.336,-169.9573 1356,-135 1372.0593,-125.0926 1388.7193,-112.8788 1403.1665,-101.5762"/>
<polygon fill="none" stroke="#191970" points="1177.9828,-222.5434 1170.2582,-229.7947 1180.8188,-228.9432 1177.9828,-222.5434"/>
</g>
<!-- Node10 -->
<g id="node11" class="node">
<title>Node10</title>
<g id="a_node11"><a xlink:href="classPETScWrappers_1_1SolverRichardson.html" target="_top" xlink:title="{PETScWrappers::SolverRichardson\n|# additional_data\l|+ SolverRichardson()\l# set_solver_type()\l}">
<polygon fill="#ffffff" stroke="#000000" points="1541.5,-33.5 1541.5,-101.5 1714.5,-101.5 1714.5,-33.5 1541.5,-33.5"/>
<text text-anchor="middle" x="1628" y="-89.5" font-family="Helvetica,sans-Serif" font-size="10.00" fill="#000000">PETScWrappers::SolverRichardson</text>
<polyline fill="none" stroke="#000000" points="1541.5,-82.5 1714.5,-82.5 "/>
<text text-anchor="start" x="1549.5" y="-70.5" font-family="Helvetica,sans-Serif" font-size="10.00" fill="#000000"># additional_data</text>
<polyline fill="none" stroke="#000000" points="1541.5,-63.5 1714.5,-63.5 "/>
<text text-anchor="start" x="1549.5" y="-51.5" font-family="Helvetica,sans-Serif" font-size="10.00" fill="#000000">+ SolverRichardson()</text>
<text text-anchor="start" x="1549.5" y="-40.5" font-family="Helvetica,sans-Serif" font-size="10.00" fill="#000000"># set_solver_type()</text>
</a>
</g>
</g>
<!-- Node0&#45;&gt;Node10 -->
<g id="edge10" class="edge">
<title>Node0&#45;&gt;Node10</title>
<path fill="none" stroke="#191970" d="M1180.2047,-245.2836C1270.2458,-226.851 1416.5556,-191.1072 1533,-135 1551.5914,-126.042 1570.4493,-113.5066 1586.4098,-101.6666"/>
<polygon fill="none" stroke="#191970" points="1179.4274,-241.8698 1170.3203,-247.2837 1180.8158,-248.7308 1179.4274,-241.8698"/>
</g>
<!-- Node11 -->
<g id="node12" class="node">
<title>Node11</title>
<g id="a_node12"><a xlink:href="classPETScWrappers_1_1SolverTCQMR.html" target="_top" xlink:title="{PETScWrappers::SolverTCQMR\n|# additional_data\l|+ SolverTCQMR()\l# set_solver_type()\l}">
<polygon fill="#ffffff" stroke="#000000" points="1732.5,-33.5 1732.5,-101.5 1893.5,-101.5 1893.5,-33.5 1732.5,-33.5"/>
<text text-anchor="middle" x="1813" y="-89.5" font-family="Helvetica,sans-Serif" font-size="10.00" fill="#000000">PETScWrappers::SolverTCQMR</text>
<polyline fill="none" stroke="#000000" points="1732.5,-82.5 1893.5,-82.5 "/>
<text text-anchor="start" x="1740.5" y="-70.5" font-family="Helvetica,sans-Serif" font-size="10.00" fill="#000000"># additional_data</text>
<polyline fill="none" stroke="#000000" points="1732.5,-63.5 1893.5,-63.5 "/>
<text text-anchor="start" x="1740.5" y="-51.5" font-family="Helvetica,sans-Serif" font-size="10.00" fill="#000000">+ SolverTCQMR()</text>
<text text-anchor="start" x="1740.5" y="-40.5" font-family="Helvetica,sans-Serif" font-size="10.00" fill="#000000"># set_solver_type()</text>
</a>
</g>
</g>
<!-- Node0&#45;&gt;Node11 -->
<g id="edge11" class="edge">
<title>Node0&#45;&gt;Node11</title>
<path fill="none" stroke="#191970" d="M1180.4152,-255.6921C1304.0831,-245.985 1541.1264,-217.3716 1724,-135 1742.5658,-126.6374 1760.8742,-113.7794 1776.013,-101.5204"/>
<polygon fill="none" stroke="#191970" points="1179.9628,-252.2164 1170.2579,-256.4667 1180.4951,-259.1961 1179.9628,-252.2164"/>
</g>
<!-- Node12 -->
<g id="node13" class="node">
<title>Node12</title>
<g id="a_node13"><a xlink:href="classPETScWrappers_1_1SolverTFQMR.html" target="_top" xlink:title="{PETScWrappers::SolverTFQMR\n|# additional_data\l|+ SolverTFQMR()\l# set_solver_type()\l}">
<polygon fill="#ffffff" stroke="#000000" points="1911.5,-33.5 1911.5,-101.5 2070.5,-101.5 2070.5,-33.5 1911.5,-33.5"/>
<text text-anchor="middle" x="1991" y="-89.5" font-family="Helvetica,sans-Serif" font-size="10.00" fill="#000000">PETScWrappers::SolverTFQMR</text>
<polyline fill="none" stroke="#000000" points="1911.5,-82.5 2070.5,-82.5 "/>
<text text-anchor="start" x="1919.5" y="-70.5" font-family="Helvetica,sans-Serif" font-size="10.00" fill="#000000"># additional_data</text>
<polyline fill="none" stroke="#000000" points="1911.5,-63.5 2070.5,-63.5 "/>
<text text-anchor="start" x="1919.5" y="-51.5" font-family="Helvetica,sans-Serif" font-size="10.00" fill="#000000">+ SolverTFQMR()</text>
<text text-anchor="start" x="1919.5" y="-40.5" font-family="Helvetica,sans-Serif" font-size="10.00" fill="#000000"># set_solver_type()</text>
</a>
</g>
</g>
<!-- Node0&#45;&gt;Node12 -->
<g id="edge12" class="edge">
<title>Node0&#45;&gt;Node12</title>
<path fill="none" stroke="#191970" d="M1180.4433,-252.79C1359.2509,-235.4183 1773.609,-190.3771 1903,-135 1921.7636,-126.9695 1940.076,-114.0165 1955.0939,-101.5943"/>
<polygon fill="none" stroke="#191970" points="1179.9169,-249.3244 1170.3,-253.7703 1180.5903,-256.292 1179.9169,-249.3244"/>
</g>
<!-- Node13 -->
<g id="node14" class="node">
<title>Node13</title>
<g id="a_node14"><a xlink:href="classPETScWrappers_1_1SparseDirectMUMPS.html" target="_top" xlink:title="{PETScWrappers::SparseDirect\lMUMPS\n|# additional_data\l&#45; solver_data\l&#45; symmetric_mode\l|+ SparseDirectMUMPS()\l+ solve()\l+ set_symmetric_mode()\l# set_solver_type()\l&#45; convergence_test()\l}">
<polygon fill="#ffffff" stroke="#000000" points="2088.5,-.5 2088.5,-134.5 2241.5,-134.5 2241.5,-.5 2088.5,-.5"/>
<text text-anchor="start" x="2096.5" y="-122.5" font-family="Helvetica,sans-Serif" font-size="10.00" fill="#000000">PETScWrappers::SparseDirect</text>
<text text-anchor="middle" x="2165" y="-111.5" font-family="Helvetica,sans-Serif" font-size="10.00" fill="#000000">MUMPS</text>
<polyline fill="none" stroke="#000000" points="2088.5,-104.5 2241.5,-104.5 "/>
<text text-anchor="start" x="2096.5" y="-92.5" font-family="Helvetica,sans-Serif" font-size="10.00" fill="#000000"># additional_data</text>
<text text-anchor="start" x="2096.5" y="-81.5" font-family="Helvetica,sans-Serif" font-size="10.00" fill="#000000">&#45; solver_data</text>
<text text-anchor="start" x="2096.5" y="-70.5" font-family="Helvetica,sans-Serif" font-size="10.00" fill="#000000">&#45; symmetric_mode</text>
<polyline fill="none" stroke="#000000" points="2088.5,-63.5 2241.5,-63.5 "/>
<text text-anchor="start" x="2096.5" y="-51.5" font-family="Helvetica,sans-Serif" font-size="10.00" fill="#000000">+ SparseDirectMUMPS()</text>
<text text-anchor="start" x="2096.5" y="-40.5" font-family="Helvetica,sans-Serif" font-size="10.00" fill="#000000">+ solve()</text>
<text text-anchor="start" x="2096.5" y="-29.5" font-family="Helvetica,sans-Serif" font-size="10.00" fill="#000000">+ set_symmetric_mode()</text>
<text text-anchor="start" x="2096.5" y="-18.5" font-family="Helvetica,sans-Serif" font-size="10.00" fill="#000000"># set_solver_type()</text>
<text text-anchor="start" x="2096.5" y="-7.5" font-family="Helvetica,sans-Serif" font-size="10.00" fill="#000000">&#45; convergence_test()</text>
</a>
</g>
</g>
<!-- Node0&#45;&gt;Node13 -->
<g id="edge13" class="edge">
<title>Node0&#45;&gt;Node13</title>
<path fill="none" stroke="#191970" d="M1180.5183,-255.6142C1387.2613,-242.6043 1917.8694,-203.3688 2080,-135 2082.7781,-133.8285 2085.541,-132.5397 2088.2797,-131.153"/>
<polygon fill="none" stroke="#191970" points="1180.0903,-252.1341 1170.3279,-256.2507 1180.5267,-259.1204 1180.0903,-252.1341"/>
</g>
</g>
</svg>
        <g id="navigator" transform="translate(0 0)" fill="#404254">
                <rect fill="#f2f5e9" fill-opacity="0.5" stroke="#606060" stroke-width=".5" x="0" y="0" width="60" height="60"/>
                <use id="zoomplus" xlink:href="#zoomPlus" x="17" y="9" onmousedown="handleZoom(evt,'in')"/>
                <use id="zoomminus" xlink:href="#zoomMin" x="42" y="9" onmousedown="handleZoom(evt,'out')"/>
                <use id="reset" xlink:href="#resetDef" x="30" y="36" onmousedown="handleReset()"/>
                <g id="arrowUp" xlink:href="#dirArrow" transform="translate(30 24)" onmousedown="handlePan(0,-1)">
                  <use xlink:href="#rim" fill="#404040">
                        <set attributeName="fill" to="#808080" begin="arrowUp.mouseover" end="arrowUp.mouseout"/>
                  </use>
                  <path fill="none" stroke="white" stroke-width="1.5" d="M0,-3.0v7 M-2.5,-0.5L0,-3.0L2.5,-0.5"/>
                </g>
                <g id="arrowRight" xlink:href="#dirArrow" transform="rotate(90) translate(36 -43)" onmousedown="handlePan(1,0)">
                  <use xlink:href="#rim" fill="#404040">
                        <set attributeName="fill" to="#808080" begin="arrowRight.mouseover" end="arrowRight.mouseout"/>
                  </use>
                  <path fill="none" stroke="white" stroke-width="1.5" d="M0,-3.0v7 M-2.5,-0.5L0,-3.0L2.5,-0.5"/>
                </g>
                <g id="arrowDown" xlink:href="#dirArrow" transform="rotate(180) translate(-30 -48)" onmousedown="handlePan(0,1)">
                  <use xlink:href="#rim" fill="#404040">
                        <set attributeName="fill" to="#808080" begin="arrowDown.mouseover" end="arrowDown.mouseout"/>
                  </use>
                  <path fill="none" stroke="white" stroke-width="1.5" d="M0,-3.0v7 M-2.5,-0.5L0,-3.0L2.5,-0.5"/>
                </g>
                <g id="arrowLeft" xlink:href="#dirArrow" transform="rotate(270) translate(-36 17)" onmousedown="handlePan(-1,0)">
                  <use xlink:href="#rim" fill="#404040">
                        <set attributeName="fill" to="#808080" begin="arrowLeft.mouseover" end="arrowLeft.mouseout"/>
                  </use>
                  <path fill="none" stroke="white" stroke-width="1.5" d="M0,-3.0v7 M-2.5,-0.5L0,-3.0L2.5,-0.5"/>
                </g>
        </g>
        <svg viewBox="0 0 15 15" width="100%" height="30px" preserveAspectRatio="xMaxYMin meet">
         <g id="arrow_out" transform="scale(0.3 0.3)">
          <a xlink:href="classPETScWrappers_1_1SolverBase__inherit__graph_org.svg" target="_base">
           <rect id="button" ry="5" rx="5" y="6" x="6" height="38" width="38"
                fill="#f2f5e9" fill-opacity="0.5" stroke="#606060" stroke-width="1.0"/>
           <path id="arrow"
             d="M 11.500037,31.436501 C 11.940474,20.09759 22.043105,11.32322 32.158766,21.979434 L 37.068811,17.246167 C 37.068811,17.246167 37.088388,32 37.088388,32 L 22.160133,31.978069 C 22.160133,31.978069 26.997745,27.140456 26.997745,27.140456 C 18.528582,18.264221 13.291696,25.230495 11.500037,31.436501 z"
             style="fill:#404040;"/>
          </a>
         </g>
        </svg>
</svg>
