<?xml version="1.0" encoding="UTF-8" standalone="no"?>
<!DOCTYPE svg PUBLIC "-//W3C//DTD SVG 1.1//EN"
 "http://www.w3.org/Graphics/SVG/1.1/DTD/svg11.dtd">
<!-- Generated by graphviz version 2.40.1 (20161225.0304)
 -->
<!-- Title: internal::MatrixFreeFunctions::VectorDataExchange::Base Pages: 1 -->
<svg width="381pt" height="100pt"
 viewBox="0.00 0.00 381.00 99.50" xmlns="http://www.w3.org/2000/svg" xmlns:xlink="http://www.w3.org/1999/xlink">
<g id="graph0" class="graph" transform="scale(1 1) rotate(0) translate(4 95.5)">
<title>internal::MatrixFreeFunctions::VectorDataExchange::Base</title>
<polygon fill="#ffffff" stroke="transparent" points="-4,4 -4,-95.5 377,-95.5 377,4 -4,4"/>
<!-- Node0 -->
<g id="node1" class="node">
<title>Node0</title>
<polygon fill="#bfbfbf" stroke="#000000" points="0,-33 0,-63 157,-63 157,-33 0,-33"/>
<text text-anchor="start" x="8" y="-51" font-family="Helvetica,sans-Serif" font-size="10.00" fill="#000000">internal::MatrixFreeFunctions</text>
<text text-anchor="middle" x="78.5" y="-40" font-family="Helvetica,sans-Serif" font-size="10.00" fill="#000000">::VectorDataExchange::Base</text>
</g>
<!-- Node1 -->
<g id="node2" class="node">
<title>Node1</title>
<g id="a_node2"><a xlink:href="classinternal_1_1MatrixFreeFunctions_1_1VectorDataExchange_1_1Full.html" target="_top" xlink:title="internal::MatrixFreeFunctions\l::VectorDataExchange::Full">
<polygon fill="#ffffff" stroke="#000000" points="204.5,-61 204.5,-91 361.5,-91 361.5,-61 204.5,-61"/>
<text text-anchor="start" x="212.5" y="-79" font-family="Helvetica,sans-Serif" font-size="10.00" fill="#000000">internal::MatrixFreeFunctions</text>
<text text-anchor="middle" x="283" y="-68" font-family="Helvetica,sans-Serif" font-size="10.00" fill="#000000">::VectorDataExchange::Full</text>
</a>
</g>
</g>
<!-- Node0&#45;&gt;Node1 -->
<g id="edge1" class="edge">
<title>Node0&#45;&gt;Node1</title>
<path fill="none" stroke="#191970" d="M167.4807,-60.1832C179.7244,-61.8596 192.2263,-63.5713 204.268,-65.2201"/>
<polygon fill="#191970" stroke="#191970" points="167.6549,-56.6745 157.2725,-58.7855 166.7053,-63.6097 167.6549,-56.6745"/>
</g>
<!-- Node2 -->
<g id="node3" class="node">
<title>Node2</title>
<g id="a_node3"><a xlink:href="classinternal_1_1MatrixFreeFunctions_1_1VectorDataExchange_1_1PartitionerWrapper.html" target="_top" xlink:title="internal::MatrixFreeFunctions\l::VectorDataExchange::Partitioner\lWrapper">
<polygon fill="#ffffff" stroke="#000000" points="193,-.5 193,-41.5 373,-41.5 373,-.5 193,-.5"/>
<text text-anchor="start" x="201" y="-29.5" font-family="Helvetica,sans-Serif" font-size="10.00" fill="#000000">internal::MatrixFreeFunctions</text>
<text text-anchor="start" x="201" y="-18.5" font-family="Helvetica,sans-Serif" font-size="10.00" fill="#000000">::VectorDataExchange::Partitioner</text>
<text text-anchor="middle" x="283" y="-7.5" font-family="Helvetica,sans-Serif" font-size="10.00" fill="#000000">Wrapper</text>
</a>
</g>
</g>
<!-- Node0&#45;&gt;Node2 -->
<g id="edge2" class="edge">
<title>Node0&#45;&gt;Node2</title>
<path fill="none" stroke="#191970" d="M167.4137,-36.2608C175.7897,-35.1549 184.2872,-34.033 192.6761,-32.9254"/>
<polygon fill="#191970" stroke="#191970" points="166.7283,-32.8208 157.2725,-37.5997 167.6446,-39.7606 166.7283,-32.8208"/>
</g>
</g>
</svg>
