<?xml version="1.0" encoding="UTF-8" standalone="no"?>
<!DOCTYPE svg PUBLIC "-//W3C//DTD SVG 1.1//EN"
 "http://www.w3.org/Graphics/SVG/1.1/DTD/svg11.dtd">
<!-- Generated by graphviz version 2.40.1 (20161225.0304)
 -->
<!-- Title: Table&lt; 2, T &gt; Pages: 1 -->
<!--zoomable 1379 -->
<svg id="main" version="1.1" xmlns="http://www.w3.org/2000/svg" xmlns:xlink="http://www.w3.org/1999/xlink" xml:space="preserve" onload="init(evt)">
<style type="text/css"><![CDATA[
.edge:hover path { stroke: red; }
.edge:hover polygon { stroke: red; fill: red; }
]]></style>
<script type="text/javascript"><![CDATA[
var edges = document.getElementsByTagName('g');
if (edges && edges.length) {
  for (var i=0;i<edges.length;i++) {
    if (edges[i].id.substr(0,4)=='edge') {
      edges[i].setAttribute('class','edge');
    }
  }
}
]]></script>
        <defs>
                <circle id="rim" cx="0" cy="0" r="7"/>
                <circle id="rim2" cx="0" cy="0" r="3.5"/>
                <g id="zoomPlus">
                        <use xlink:href="#rim" fill="#404040">
                                <set attributeName="fill" to="#808080" begin="zoomplus.mouseover" end="zoomplus.mouseout"/>
                        </use>
                        <path d="M-4,0h8M0,-4v8" fill="none" stroke="white" stroke-width="1.5" pointer-events="none"/>
                </g>
                <g id="zoomMin">
                        <use xlink:href="#rim" fill="#404040">
                                <set attributeName="fill" to="#808080" begin="zoomminus.mouseover" end="zoomminus.mouseout"/>
                        </use>
                        <path d="M-4,0h8" fill="none" stroke="white" stroke-width="1.5" pointer-events="none"/>
                </g>
                <g id="dirArrow">
                        <path fill="none" stroke="white" stroke-width="1.5" d="M0,-3.0v7 M-2.5,-0.5L0,-3.0L2.5,-0.5"/>
                </g>
               <g id="resetDef">
                       <use xlink:href="#rim2" fill="#404040">
                               <set attributeName="fill" to="#808080" begin="reset.mouseover" end="reset.mouseout"/>
                       </use>
               </g>
        </defs>

<script type="text/javascript">
var viewWidth = 629;
var viewHeight = 1379;
var sectionId = 'dynsection-1';
</script>
<script xlink:href="svgpan.js"/>
<svg id="graph" class="graph">
<g id="viewport">
<title>Table&lt; 2, T &gt;</title>
<polygon fill="#ffffff" stroke="transparent" points="-4,4 -4,-1375 624.5,-1375 624.5,4 -4,4"/>
<!-- Node4 -->
<g id="node1" class="node">
<title>Node4</title>
<polygon fill="#bfbfbf" stroke="#000000" points="406.5,-.5 406.5,-222.5 482.5,-222.5 482.5,-.5 406.5,-.5"/>
<text text-anchor="middle" x="444.5" y="-210.5" font-family="Helvetica,sans-Serif" font-size="10.00" fill="#000000">Table&lt; 2, T &gt;</text>
<polyline fill="none" stroke="#000000" points="406.5,-203.5 482.5,-203.5 "/>
<text text-anchor="middle" x="444.5" y="-191.5" font-family="Helvetica,sans-Serif" font-size="10.00" fill="#000000"> </text>
<polyline fill="none" stroke="#000000" points="406.5,-184.5 482.5,-184.5 "/>
<text text-anchor="start" x="414.5" y="-172.5" font-family="Helvetica,sans-Serif" font-size="10.00" fill="#000000">+ Table()</text>
<text text-anchor="start" x="414.5" y="-161.5" font-family="Helvetica,sans-Serif" font-size="10.00" fill="#000000">+ Table()</text>
<text text-anchor="start" x="414.5" y="-150.5" font-family="Helvetica,sans-Serif" font-size="10.00" fill="#000000">+ Table()</text>
<text text-anchor="start" x="414.5" y="-139.5" font-family="Helvetica,sans-Serif" font-size="10.00" fill="#000000">+ reinit()</text>
<text text-anchor="start" x="414.5" y="-128.5" font-family="Helvetica,sans-Serif" font-size="10.00" fill="#000000">+ operator[]()</text>
<text text-anchor="start" x="414.5" y="-117.5" font-family="Helvetica,sans-Serif" font-size="10.00" fill="#000000">+ operator[]()</text>
<text text-anchor="start" x="414.5" y="-106.5" font-family="Helvetica,sans-Serif" font-size="10.00" fill="#000000">+ operator()()</text>
<text text-anchor="start" x="414.5" y="-95.5" font-family="Helvetica,sans-Serif" font-size="10.00" fill="#000000">+ operator()()</text>
<text text-anchor="start" x="414.5" y="-84.5" font-family="Helvetica,sans-Serif" font-size="10.00" fill="#000000">+ n_rows()</text>
<text text-anchor="start" x="414.5" y="-73.5" font-family="Helvetica,sans-Serif" font-size="10.00" fill="#000000">+ n_cols()</text>
<text text-anchor="start" x="414.5" y="-62.5" font-family="Helvetica,sans-Serif" font-size="10.00" fill="#000000">+ begin()</text>
<text text-anchor="start" x="414.5" y="-51.5" font-family="Helvetica,sans-Serif" font-size="10.00" fill="#000000">+ begin()</text>
<text text-anchor="start" x="414.5" y="-40.5" font-family="Helvetica,sans-Serif" font-size="10.00" fill="#000000">+ end()</text>
<text text-anchor="start" x="414.5" y="-29.5" font-family="Helvetica,sans-Serif" font-size="10.00" fill="#000000">+ end()</text>
<text text-anchor="start" x="414.5" y="-18.5" font-family="Helvetica,sans-Serif" font-size="10.00" fill="#000000"># el()</text>
<text text-anchor="start" x="414.5" y="-7.5" font-family="Helvetica,sans-Serif" font-size="10.00" fill="#000000"># el()</text>
</g>
<!-- Node5 -->
<g id="node2" class="node">
<title>Node5</title>
<g id="a_node2"><a xlink:href="classTableBase.html" target="_top" xlink:title="{TableBase\&lt; 2, T \&gt;\n||+ TableBase()\l+ TableBase()\l+ TableBase()\l+ TableBase()\l+ TableBase()\l+ TableBase()\l+ ~TableBase()\l+ operator=()\l+ operator=()\l+ operator=()\land 15 more...\l# position()\l# el()\l# el()\l}">
<polygon fill="#ffffff" stroke="#000000" points="395.5,-260.5 395.5,-460.5 493.5,-460.5 493.5,-260.5 395.5,-260.5"/>
<text text-anchor="middle" x="444.5" y="-448.5" font-family="Helvetica,sans-Serif" font-size="10.00" fill="#000000">TableBase&lt; 2, T &gt;</text>
<polyline fill="none" stroke="#000000" points="395.5,-441.5 493.5,-441.5 "/>
<text text-anchor="middle" x="444.5" y="-429.5" font-family="Helvetica,sans-Serif" font-size="10.00" fill="#000000"> </text>
<polyline fill="none" stroke="#000000" points="395.5,-422.5 493.5,-422.5 "/>
<text text-anchor="start" x="403.5" y="-410.5" font-family="Helvetica,sans-Serif" font-size="10.00" fill="#000000">+ TableBase()</text>
<text text-anchor="start" x="403.5" y="-399.5" font-family="Helvetica,sans-Serif" font-size="10.00" fill="#000000">+ TableBase()</text>
<text text-anchor="start" x="403.5" y="-388.5" font-family="Helvetica,sans-Serif" font-size="10.00" fill="#000000">+ TableBase()</text>
<text text-anchor="start" x="403.5" y="-377.5" font-family="Helvetica,sans-Serif" font-size="10.00" fill="#000000">+ TableBase()</text>
<text text-anchor="start" x="403.5" y="-366.5" font-family="Helvetica,sans-Serif" font-size="10.00" fill="#000000">+ TableBase()</text>
<text text-anchor="start" x="403.5" y="-355.5" font-family="Helvetica,sans-Serif" font-size="10.00" fill="#000000">+ TableBase()</text>
<text text-anchor="start" x="403.5" y="-344.5" font-family="Helvetica,sans-Serif" font-size="10.00" fill="#000000">+ ~TableBase()</text>
<text text-anchor="start" x="403.5" y="-333.5" font-family="Helvetica,sans-Serif" font-size="10.00" fill="#000000">+ operator=()</text>
<text text-anchor="start" x="403.5" y="-322.5" font-family="Helvetica,sans-Serif" font-size="10.00" fill="#000000">+ operator=()</text>
<text text-anchor="start" x="403.5" y="-311.5" font-family="Helvetica,sans-Serif" font-size="10.00" fill="#000000">+ operator=()</text>
<text text-anchor="start" x="403.5" y="-300.5" font-family="Helvetica,sans-Serif" font-size="10.00" fill="#000000">and 15 more...</text>
<text text-anchor="start" x="403.5" y="-289.5" font-family="Helvetica,sans-Serif" font-size="10.00" fill="#000000"># position()</text>
<text text-anchor="start" x="403.5" y="-278.5" font-family="Helvetica,sans-Serif" font-size="10.00" fill="#000000"># el()</text>
<text text-anchor="start" x="403.5" y="-267.5" font-family="Helvetica,sans-Serif" font-size="10.00" fill="#000000"># el()</text>
</a>
</g>
</g>
<!-- Node5&#45;&gt;Node4 -->
<g id="edge1" class="edge">
<title>Node5&#45;&gt;Node4</title>
<path fill="none" stroke="#191970" d="M444.5,-250.0351C444.5,-240.8967 444.5,-231.6561 444.5,-222.5137"/>
<polygon fill="none" stroke="#191970" points="441.0001,-250.2985 444.5,-260.2985 448.0001,-250.2985 441.0001,-250.2985"/>
</g>
<!-- Node6 -->
<g id="node3" class="node">
<title>Node6</title>
<g id="a_node3"><a xlink:href="classSubscriptor.html" target="_top" xlink:title="{Subscriptor\n||+ Subscriptor()\l+ Subscriptor()\l+ Subscriptor()\l+ ~Subscriptor()\l+ operator=()\l+ operator=()\l+ serialize()\l+ subscribe()\l+ unsubscribe()\l+ n_subscriptions()\l+ list_subscribers()\l+ list_subscribers()\l+ ExcInUse()\l+ ExcNoSubscriber()\l&#45; check_no_subscribers()\l* subscribe()\l* unsubscribe()\l* n_subscriptions()\l* list_subscribers()\l* list_subscribers()\l}">
<polygon fill="#ffffff" stroke="#000000" points="246.5,-756.5 246.5,-1022.5 372.5,-1022.5 372.5,-756.5 246.5,-756.5"/>
<text text-anchor="middle" x="309.5" y="-1010.5" font-family="Helvetica,sans-Serif" font-size="10.00" fill="#000000">Subscriptor</text>
<polyline fill="none" stroke="#000000" points="246.5,-1003.5 372.5,-1003.5 "/>
<text text-anchor="middle" x="309.5" y="-991.5" font-family="Helvetica,sans-Serif" font-size="10.00" fill="#000000"> </text>
<polyline fill="none" stroke="#000000" points="246.5,-984.5 372.5,-984.5 "/>
<text text-anchor="start" x="254.5" y="-972.5" font-family="Helvetica,sans-Serif" font-size="10.00" fill="#000000">+ Subscriptor()</text>
<text text-anchor="start" x="254.5" y="-961.5" font-family="Helvetica,sans-Serif" font-size="10.00" fill="#000000">+ Subscriptor()</text>
<text text-anchor="start" x="254.5" y="-950.5" font-family="Helvetica,sans-Serif" font-size="10.00" fill="#000000">+ Subscriptor()</text>
<text text-anchor="start" x="254.5" y="-939.5" font-family="Helvetica,sans-Serif" font-size="10.00" fill="#000000">+ ~Subscriptor()</text>
<text text-anchor="start" x="254.5" y="-928.5" font-family="Helvetica,sans-Serif" font-size="10.00" fill="#000000">+ operator=()</text>
<text text-anchor="start" x="254.5" y="-917.5" font-family="Helvetica,sans-Serif" font-size="10.00" fill="#000000">+ operator=()</text>
<text text-anchor="start" x="254.5" y="-906.5" font-family="Helvetica,sans-Serif" font-size="10.00" fill="#000000">+ serialize()</text>
<text text-anchor="start" x="254.5" y="-895.5" font-family="Helvetica,sans-Serif" font-size="10.00" fill="#000000">+ subscribe()</text>
<text text-anchor="start" x="254.5" y="-884.5" font-family="Helvetica,sans-Serif" font-size="10.00" fill="#000000">+ unsubscribe()</text>
<text text-anchor="start" x="254.5" y="-873.5" font-family="Helvetica,sans-Serif" font-size="10.00" fill="#000000">+ n_subscriptions()</text>
<text text-anchor="start" x="254.5" y="-862.5" font-family="Helvetica,sans-Serif" font-size="10.00" fill="#000000">+ list_subscribers()</text>
<text text-anchor="start" x="254.5" y="-851.5" font-family="Helvetica,sans-Serif" font-size="10.00" fill="#000000">+ list_subscribers()</text>
<text text-anchor="start" x="254.5" y="-840.5" font-family="Helvetica,sans-Serif" font-size="10.00" fill="#000000">+ ExcInUse()</text>
<text text-anchor="start" x="254.5" y="-829.5" font-family="Helvetica,sans-Serif" font-size="10.00" fill="#000000">+ ExcNoSubscriber()</text>
<text text-anchor="start" x="254.5" y="-818.5" font-family="Helvetica,sans-Serif" font-size="10.00" fill="#000000">&#45; check_no_subscribers()</text>
<text text-anchor="start" x="254.5" y="-807.5" font-family="Helvetica,sans-Serif" font-size="10.00" fill="#000000">* subscribe()</text>
<text text-anchor="start" x="254.5" y="-796.5" font-family="Helvetica,sans-Serif" font-size="10.00" fill="#000000">* unsubscribe()</text>
<text text-anchor="start" x="254.5" y="-785.5" font-family="Helvetica,sans-Serif" font-size="10.00" fill="#000000">* n_subscriptions()</text>
<text text-anchor="start" x="254.5" y="-774.5" font-family="Helvetica,sans-Serif" font-size="10.00" fill="#000000">* list_subscribers()</text>
<text text-anchor="start" x="254.5" y="-763.5" font-family="Helvetica,sans-Serif" font-size="10.00" fill="#000000">* list_subscribers()</text>
</a>
</g>
</g>
<!-- Node6&#45;&gt;Node5 -->
<g id="edge2" class="edge">
<title>Node6&#45;&gt;Node5</title>
<path fill="none" stroke="#191970" d="M295.146,-745.8649C292.9207,-672.5068 298.2544,-583.1237 326.5,-508 341.042,-469.3233 369.8545,-432.9873 395.3673,-406.0573"/>
<polygon fill="none" stroke="#191970" points="291.6569,-746.2367 295.5086,-756.1066 298.6525,-745.989 291.6569,-746.2367"/>
</g>
<!-- Node22 -->
<g id="node19" class="node">
<title>Node22</title>
<g id="a_node19"><a xlink:href="classTableBase.html" target="_top" xlink:title="{TableBase\&lt; N, T \&gt;\n||+ TableBase()\l+ TableBase()\l+ TableBase()\l+ TableBase()\l+ TableBase()\l+ TableBase()\l+ ~TableBase()\l+ operator=()\l+ operator=()\l+ operator=()\land 15 more...\l# position()\l# el()\l# el()\l}">
<polygon fill="#ffffff" stroke="#000000" points="335,-508.5 335,-708.5 436,-708.5 436,-508.5 335,-508.5"/>
<text text-anchor="middle" x="385.5" y="-696.5" font-family="Helvetica,sans-Serif" font-size="10.00" fill="#000000">TableBase&lt; N, T &gt;</text>
<polyline fill="none" stroke="#000000" points="335,-689.5 436,-689.5 "/>
<text text-anchor="middle" x="385.5" y="-677.5" font-family="Helvetica,sans-Serif" font-size="10.00" fill="#000000"> </text>
<polyline fill="none" stroke="#000000" points="335,-670.5 436,-670.5 "/>
<text text-anchor="start" x="343" y="-658.5" font-family="Helvetica,sans-Serif" font-size="10.00" fill="#000000">+ TableBase()</text>
<text text-anchor="start" x="343" y="-647.5" font-family="Helvetica,sans-Serif" font-size="10.00" fill="#000000">+ TableBase()</text>
<text text-anchor="start" x="343" y="-636.5" font-family="Helvetica,sans-Serif" font-size="10.00" fill="#000000">+ TableBase()</text>
<text text-anchor="start" x="343" y="-625.5" font-family="Helvetica,sans-Serif" font-size="10.00" fill="#000000">+ TableBase()</text>
<text text-anchor="start" x="343" y="-614.5" font-family="Helvetica,sans-Serif" font-size="10.00" fill="#000000">+ TableBase()</text>
<text text-anchor="start" x="343" y="-603.5" font-family="Helvetica,sans-Serif" font-size="10.00" fill="#000000">+ TableBase()</text>
<text text-anchor="start" x="343" y="-592.5" font-family="Helvetica,sans-Serif" font-size="10.00" fill="#000000">+ ~TableBase()</text>
<text text-anchor="start" x="343" y="-581.5" font-family="Helvetica,sans-Serif" font-size="10.00" fill="#000000">+ operator=()</text>
<text text-anchor="start" x="343" y="-570.5" font-family="Helvetica,sans-Serif" font-size="10.00" fill="#000000">+ operator=()</text>
<text text-anchor="start" x="343" y="-559.5" font-family="Helvetica,sans-Serif" font-size="10.00" fill="#000000">+ operator=()</text>
<text text-anchor="start" x="343" y="-548.5" font-family="Helvetica,sans-Serif" font-size="10.00" fill="#000000">and 15 more...</text>
<text text-anchor="start" x="343" y="-537.5" font-family="Helvetica,sans-Serif" font-size="10.00" fill="#000000"># position()</text>
<text text-anchor="start" x="343" y="-526.5" font-family="Helvetica,sans-Serif" font-size="10.00" fill="#000000"># el()</text>
<text text-anchor="start" x="343" y="-515.5" font-family="Helvetica,sans-Serif" font-size="10.00" fill="#000000"># el()</text>
</a>
</g>
</g>
<!-- Node6&#45;&gt;Node22 -->
<g id="edge20" class="edge">
<title>Node6&#45;&gt;Node22</title>
<path fill="none" stroke="#191970" d="M348.1412,-746.6291C351.5999,-733.8413 355.0514,-721.0797 358.3812,-708.7682"/>
<polygon fill="none" stroke="#191970" points="344.7292,-745.8391 345.4969,-756.4061 351.4864,-747.6668 344.7292,-745.8391"/>
</g>
<!-- Node7 -->
<g id="node4" class="node">
<title>Node7</title>
<polygon fill="#ffffff" stroke="#bfbfbf" points="25.5,-1070.5 25.5,-1138.5 135.5,-1138.5 135.5,-1070.5 25.5,-1070.5"/>
<text text-anchor="start" x="33.5" y="-1126.5" font-family="Helvetica,sans-Serif" font-size="10.00" fill="#000000">std::map&lt; std::string,</text>
<text text-anchor="middle" x="80.5" y="-1115.5" font-family="Helvetica,sans-Serif" font-size="10.00" fill="#000000"> unsigned int &gt;</text>
<polyline fill="none" stroke="#bfbfbf" points="25.5,-1108.5 135.5,-1108.5 "/>
<text text-anchor="middle" x="80.5" y="-1096.5" font-family="Helvetica,sans-Serif" font-size="10.00" fill="#000000"> </text>
<polyline fill="none" stroke="#bfbfbf" points="25.5,-1089.5 135.5,-1089.5 "/>
<text text-anchor="middle" x="80.5" y="-1077.5" font-family="Helvetica,sans-Serif" font-size="10.00" fill="#000000"> </text>
</g>
<!-- Node7&#45;&gt;Node6 -->
<g id="edge3" class="edge">
<title>Node7&#45;&gt;Node6</title>
<path fill="none" stroke="#404040" d="M116.7857,-1070.4326C149.0293,-1040.1603 197.1238,-995.0061 237.1994,-957.3805"/>
<polygon fill="none" stroke="#404040" points="237.3957,-957.1962 239.0321,-950.1732 246.1442,-948.9825 244.5078,-956.0055 237.3957,-957.1962"/>
<text text-anchor="middle" x="174" y="-1044" font-family="Helvetica,sans-Serif" font-size="10.00" fill="#000000"> &#45;counter_map</text>
</g>
<!-- Node8 -->
<g id="node5" class="node">
<title>Node8</title>
<g id="a_node5"><a xlink:href="classint.html" target="_top" xlink:title="{int\n||}">
<polygon fill="#ffffff" stroke="#000000" points="0,-1197.5 0,-1254.5 29,-1254.5 29,-1197.5 0,-1197.5"/>
<text text-anchor="middle" x="14.5" y="-1242.5" font-family="Helvetica,sans-Serif" font-size="10.00" fill="#000000">int</text>
<polyline fill="none" stroke="#000000" points="0,-1235.5 29,-1235.5 "/>
<text text-anchor="middle" x="14.5" y="-1223.5" font-family="Helvetica,sans-Serif" font-size="10.00" fill="#000000"> </text>
<polyline fill="none" stroke="#000000" points="0,-1216.5 29,-1216.5 "/>
<text text-anchor="middle" x="14.5" y="-1204.5" font-family="Helvetica,sans-Serif" font-size="10.00" fill="#000000"> </text>
</a>
</g>
</g>
<!-- Node8&#45;&gt;Node7 -->
<g id="edge4" class="edge">
<title>Node8&#45;&gt;Node7</title>
<path fill="none" stroke="#404040" d="M17.667,-1197.2524C19.9472,-1184.3723 23.8477,-1169.3397 30.5,-1157 32.0697,-1154.0882 33.8442,-1151.2209 35.7647,-1148.4198"/>
<polygon fill="none" stroke="#404040" points="35.9746,-1148.1445 36.4341,-1140.9481 43.2537,-1138.6043 42.7942,-1145.8007 35.9746,-1148.1445"/>
<text text-anchor="middle" x="55" y="-1165.5" font-family="Helvetica,sans-Serif" font-size="10.00" fill="#000000"> +elements</text>
</g>
<!-- Node9 -->
<g id="node6" class="node">
<title>Node9</title>
<g id="a_node6"><a xlink:title="STL class. ">
<polygon fill="#ffffff" stroke="#bfbfbf" points="56.5,-1197.5 56.5,-1254.5 116.5,-1254.5 116.5,-1197.5 56.5,-1197.5"/>
<text text-anchor="middle" x="86.5" y="-1242.5" font-family="Helvetica,sans-Serif" font-size="10.00" fill="#000000">std::string</text>
<polyline fill="none" stroke="#bfbfbf" points="56.5,-1235.5 116.5,-1235.5 "/>
<text text-anchor="middle" x="86.5" y="-1223.5" font-family="Helvetica,sans-Serif" font-size="10.00" fill="#000000"> </text>
<polyline fill="none" stroke="#bfbfbf" points="56.5,-1216.5 116.5,-1216.5 "/>
<text text-anchor="middle" x="86.5" y="-1204.5" font-family="Helvetica,sans-Serif" font-size="10.00" fill="#000000"> </text>
</a>
</g>
</g>
<!-- Node9&#45;&gt;Node7 -->
<g id="edge5" class="edge">
<title>Node9&#45;&gt;Node7</title>
<path fill="none" stroke="#404040" d="M85.0781,-1197.2062C84.3945,-1183.3632 83.5581,-1166.4255 82.788,-1150.8327"/>
<polygon fill="none" stroke="#404040" points="82.7809,-1150.6861 78.4898,-1144.8908 82.1889,-1138.7007 86.48,-1144.4961 82.7809,-1150.6861"/>
<text text-anchor="middle" x="100" y="-1165.5" font-family="Helvetica,sans-Serif" font-size="10.00" fill="#000000"> +keys</text>
</g>
<!-- Node10 -->
<g id="node7" class="node">
<title>Node10</title>
<g id="a_node7"><a xlink:title="STL class. ">
<polygon fill="#ffffff" stroke="#bfbfbf" points="39,-1302.5 39,-1370.5 134,-1370.5 134,-1302.5 39,-1302.5"/>
<text text-anchor="start" x="47" y="-1358.5" font-family="Helvetica,sans-Serif" font-size="10.00" fill="#000000">std::basic_string&lt;</text>
<text text-anchor="middle" x="86.5" y="-1347.5" font-family="Helvetica,sans-Serif" font-size="10.00" fill="#000000"> char &gt;</text>
<polyline fill="none" stroke="#bfbfbf" points="39,-1340.5 134,-1340.5 "/>
<text text-anchor="middle" x="86.5" y="-1328.5" font-family="Helvetica,sans-Serif" font-size="10.00" fill="#000000"> </text>
<polyline fill="none" stroke="#bfbfbf" points="39,-1321.5 134,-1321.5 "/>
<text text-anchor="middle" x="86.5" y="-1309.5" font-family="Helvetica,sans-Serif" font-size="10.00" fill="#000000"> </text>
</a>
</g>
</g>
<!-- Node10&#45;&gt;Node9 -->
<g id="edge6" class="edge">
<title>Node10&#45;&gt;Node9</title>
<path fill="none" stroke="#191970" d="M86.5,-1292.0661C86.5,-1279.4172 86.5,-1265.9812 86.5,-1254.5519"/>
<polygon fill="none" stroke="#191970" points="83.0001,-1292.4447 86.5,-1302.4447 90.0001,-1292.4447 83.0001,-1292.4447"/>
</g>
<!-- Node11 -->
<g id="node8" class="node">
<title>Node11</title>
<g id="a_node8"><a xlink:title="STL class. ">
<polygon fill="#ffffff" stroke="#bfbfbf" points="144.5,-1197.5 144.5,-1254.5 236.5,-1254.5 236.5,-1197.5 144.5,-1197.5"/>
<text text-anchor="middle" x="190.5" y="-1242.5" font-family="Helvetica,sans-Serif" font-size="10.00" fill="#000000">std::map&lt; K, T &gt;</text>
<polyline fill="none" stroke="#bfbfbf" points="144.5,-1235.5 236.5,-1235.5 "/>
<text text-anchor="middle" x="190.5" y="-1223.5" font-family="Helvetica,sans-Serif" font-size="10.00" fill="#000000"> </text>
<polyline fill="none" stroke="#bfbfbf" points="144.5,-1216.5 236.5,-1216.5 "/>
<text text-anchor="middle" x="190.5" y="-1204.5" font-family="Helvetica,sans-Serif" font-size="10.00" fill="#000000"> </text>
</a>
</g>
</g>
<!-- Node11&#45;&gt;Node7 -->
<g id="edge7" class="edge">
<title>Node11&#45;&gt;Node7</title>
<path fill="none" stroke="#ffa500" d="M157.4867,-1189.5353C142.8885,-1173.411 125.8167,-1154.5544 111.4636,-1138.7007"/>
<polygon fill="#ffa500" stroke="#ffa500" points="155.1253,-1192.142 164.4315,-1197.2062 160.3146,-1187.4439 155.1253,-1192.142"/>
<text text-anchor="start" x="145.5" y="-1171" font-family="Helvetica,sans-Serif" font-size="10.00" fill="#000000"> &lt; std::string, unsigned</text>
<text text-anchor="middle" x="196" y="-1160" font-family="Helvetica,sans-Serif" font-size="10.00" fill="#000000"> int &gt;</text>
</g>
<!-- Node12 -->
<g id="node9" class="node">
<title>Node12</title>
<polygon fill="#ffffff" stroke="#bfbfbf" points="176,-1308 176,-1365 205,-1365 205,-1308 176,-1308"/>
<text text-anchor="middle" x="190.5" y="-1353" font-family="Helvetica,sans-Serif" font-size="10.00" fill="#000000">K</text>
<polyline fill="none" stroke="#bfbfbf" points="176,-1346 205,-1346 "/>
<text text-anchor="middle" x="190.5" y="-1334" font-family="Helvetica,sans-Serif" font-size="10.00" fill="#000000"> </text>
<polyline fill="none" stroke="#bfbfbf" points="176,-1327 205,-1327 "/>
<text text-anchor="middle" x="190.5" y="-1315" font-family="Helvetica,sans-Serif" font-size="10.00" fill="#000000"> </text>
</g>
<!-- Node12&#45;&gt;Node11 -->
<g id="edge8" class="edge">
<title>Node12&#45;&gt;Node11</title>
<path fill="none" stroke="#404040" d="M190.5,-1307.7559C190.5,-1295.2224 190.5,-1280.3039 190.5,-1266.6631"/>
<polygon fill="none" stroke="#404040" points="190.5001,-1266.6002 186.5,-1260.6002 190.5,-1254.6002 194.5,-1260.6002 190.5001,-1266.6002"/>
<text text-anchor="middle" x="206" y="-1276" font-family="Helvetica,sans-Serif" font-size="10.00" fill="#000000"> +keys</text>
</g>
<!-- Node13 -->
<g id="node10" class="node">
<title>Node13</title>
<polygon fill="#ffffff" stroke="#bfbfbf" points="324,-1308 324,-1365 353,-1365 353,-1308 324,-1308"/>
<text text-anchor="middle" x="338.5" y="-1353" font-family="Helvetica,sans-Serif" font-size="10.00" fill="#000000">T</text>
<polyline fill="none" stroke="#bfbfbf" points="324,-1346 353,-1346 "/>
<text text-anchor="middle" x="338.5" y="-1334" font-family="Helvetica,sans-Serif" font-size="10.00" fill="#000000"> </text>
<polyline fill="none" stroke="#bfbfbf" points="324,-1327 353,-1327 "/>
<text text-anchor="middle" x="338.5" y="-1315" font-family="Helvetica,sans-Serif" font-size="10.00" fill="#000000"> </text>
</g>
<!-- Node13&#45;&gt;Node11 -->
<g id="edge9" class="edge">
<title>Node13&#45;&gt;Node11</title>
<path fill="none" stroke="#404040" d="M323.7681,-1325.5009C304.0613,-1310.7874 268.1708,-1283.9907 238.597,-1261.9103"/>
<polygon fill="none" stroke="#404040" points="238.4579,-1261.8064 231.257,-1261.422 228.8423,-1254.6272 236.0431,-1255.0116 238.4579,-1261.8064"/>
<text text-anchor="middle" x="289" y="-1276" font-family="Helvetica,sans-Serif" font-size="10.00" fill="#000000"> +elements</text>
</g>
<!-- Node18 -->
<g id="node15" class="node">
<title>Node18</title>
<g id="a_node15"><a xlink:title="STL class. ">
<polygon fill="#ffffff" stroke="#bfbfbf" points="367,-1197.5 367,-1254.5 454,-1254.5 454,-1197.5 367,-1197.5"/>
<text text-anchor="middle" x="410.5" y="-1242.5" font-family="Helvetica,sans-Serif" font-size="10.00" fill="#000000">std::vector&lt; T &gt;</text>
<polyline fill="none" stroke="#bfbfbf" points="367,-1235.5 454,-1235.5 "/>
<text text-anchor="middle" x="410.5" y="-1223.5" font-family="Helvetica,sans-Serif" font-size="10.00" fill="#000000"> </text>
<polyline fill="none" stroke="#bfbfbf" points="367,-1216.5 454,-1216.5 "/>
<text text-anchor="middle" x="410.5" y="-1204.5" font-family="Helvetica,sans-Serif" font-size="10.00" fill="#000000"> </text>
</a>
</g>
</g>
<!-- Node13&#45;&gt;Node18 -->
<g id="edge15" class="edge">
<title>Node13&#45;&gt;Node18</title>
<path fill="none" stroke="#404040" d="M353.0703,-1314.1387C362.2387,-1300.0677 374.3228,-1281.5219 385.0401,-1265.0739"/>
<polygon fill="none" stroke="#404040" points="385.2901,-1264.6902 385.2142,-1257.4795 391.8411,-1254.6362 391.917,-1261.8469 385.2901,-1264.6902"/>
<text text-anchor="middle" x="403" y="-1276" font-family="Helvetica,sans-Serif" font-size="10.00" fill="#000000"> +elements</text>
</g>
<!-- Node14 -->
<g id="node11" class="node">
<title>Node14</title>
<polygon fill="#ffffff" stroke="#bfbfbf" points="153.5,-1076 153.5,-1133 269.5,-1133 269.5,-1076 153.5,-1076"/>
<text text-anchor="middle" x="211.5" y="-1121" font-family="Helvetica,sans-Serif" font-size="10.00" fill="#000000">atomic&lt; unsigned int &gt;</text>
<polyline fill="none" stroke="#bfbfbf" points="153.5,-1114 269.5,-1114 "/>
<text text-anchor="middle" x="211.5" y="-1102" font-family="Helvetica,sans-Serif" font-size="10.00" fill="#000000"> </text>
<polyline fill="none" stroke="#bfbfbf" points="153.5,-1095 269.5,-1095 "/>
<text text-anchor="middle" x="211.5" y="-1083" font-family="Helvetica,sans-Serif" font-size="10.00" fill="#000000"> </text>
</g>
<!-- Node14&#45;&gt;Node6 -->
<g id="edge10" class="edge">
<title>Node14&#45;&gt;Node6</title>
<path fill="none" stroke="#404040" d="M224.5136,-1075.9497C229.8862,-1064.1629 236.5452,-1049.5539 243.7538,-1033.7391"/>
<polygon fill="none" stroke="#404040" points="243.846,-1033.5368 242.6948,-1026.4181 248.8232,-1022.6176 249.9743,-1029.7362 243.846,-1033.5368"/>
<text text-anchor="middle" x="257" y="-1044" font-family="Helvetica,sans-Serif" font-size="10.00" fill="#000000"> &#45;counter</text>
</g>
<!-- Node15 -->
<g id="node12" class="node">
<title>Node15</title>
<polygon fill="#ffffff" stroke="#bfbfbf" points="287.5,-1076 287.5,-1133 331.5,-1133 331.5,-1076 287.5,-1076"/>
<text text-anchor="middle" x="309.5" y="-1121" font-family="Helvetica,sans-Serif" font-size="10.00" fill="#000000">mutex</text>
<polyline fill="none" stroke="#bfbfbf" points="287.5,-1114 331.5,-1114 "/>
<text text-anchor="middle" x="309.5" y="-1102" font-family="Helvetica,sans-Serif" font-size="10.00" fill="#000000"> </text>
<polyline fill="none" stroke="#bfbfbf" points="287.5,-1095 331.5,-1095 "/>
<text text-anchor="middle" x="309.5" y="-1083" font-family="Helvetica,sans-Serif" font-size="10.00" fill="#000000"> </text>
</g>
<!-- Node15&#45;&gt;Node6 -->
<g id="edge11" class="edge">
<title>Node15&#45;&gt;Node6</title>
<path fill="none" stroke="#404040" d="M309.5,-1075.9497C309.5,-1064.3895 309.5,-1050.1147 309.5,-1034.6501"/>
<polygon fill="none" stroke="#404040" points="309.5001,-1034.6176 305.5,-1028.6176 309.5,-1022.6176 313.5,-1028.6175 309.5001,-1034.6176"/>
<text text-anchor="middle" x="326.5" y="-1044" font-family="Helvetica,sans-Serif" font-size="10.00" fill="#000000"> &#45;mutex</text>
</g>
<!-- Node16 -->
<g id="node13" class="node">
<title>Node16</title>
<polygon fill="#ffffff" stroke="#bfbfbf" points="350,-1070.5 350,-1138.5 471,-1138.5 471,-1070.5 350,-1070.5"/>
<text text-anchor="start" x="358" y="-1126.5" font-family="Helvetica,sans-Serif" font-size="10.00" fill="#000000">std::vector&lt; std::atomic</text>
<text text-anchor="middle" x="410.5" y="-1115.5" font-family="Helvetica,sans-Serif" font-size="10.00" fill="#000000">&lt; bool &gt; *&gt;</text>
<polyline fill="none" stroke="#bfbfbf" points="350,-1108.5 471,-1108.5 "/>
<text text-anchor="middle" x="410.5" y="-1096.5" font-family="Helvetica,sans-Serif" font-size="10.00" fill="#000000"> </text>
<polyline fill="none" stroke="#bfbfbf" points="350,-1089.5 471,-1089.5 "/>
<text text-anchor="middle" x="410.5" y="-1077.5" font-family="Helvetica,sans-Serif" font-size="10.00" fill="#000000"> </text>
</g>
<!-- Node16&#45;&gt;Node6 -->
<g id="edge12" class="edge">
<title>Node16&#45;&gt;Node6</title>
<path fill="none" stroke="#404040" d="M394.4962,-1070.4326C389.4488,-1059.6881 383.5208,-1047.0689 377.1827,-1033.577"/>
<polygon fill="none" stroke="#404040" points="377.1231,-1033.4501 370.9515,-1029.7202 372.0208,-1022.5888 378.1924,-1026.3187 377.1231,-1033.4501"/>
<text text-anchor="middle" x="421" y="-1044" font-family="Helvetica,sans-Serif" font-size="10.00" fill="#000000"> &#45;validity_pointers</text>
</g>
<!-- Node17 -->
<g id="node14" class="node">
<title>Node17</title>
<polygon fill="#ffffff" stroke="#bfbfbf" points="260,-1197.5 260,-1254.5 349,-1254.5 349,-1197.5 260,-1197.5"/>
<text text-anchor="middle" x="304.5" y="-1242.5" font-family="Helvetica,sans-Serif" font-size="10.00" fill="#000000">atomic&lt; bool &gt; *</text>
<polyline fill="none" stroke="#bfbfbf" points="260,-1235.5 349,-1235.5 "/>
<text text-anchor="middle" x="304.5" y="-1223.5" font-family="Helvetica,sans-Serif" font-size="10.00" fill="#000000"> </text>
<polyline fill="none" stroke="#bfbfbf" points="260,-1216.5 349,-1216.5 "/>
<text text-anchor="middle" x="304.5" y="-1204.5" font-family="Helvetica,sans-Serif" font-size="10.00" fill="#000000"> </text>
</g>
<!-- Node17&#45;&gt;Node16 -->
<g id="edge13" class="edge">
<title>Node17&#45;&gt;Node16</title>
<path fill="none" stroke="#404040" d="M325.0706,-1197.4484C334.5629,-1184.7479 346.2122,-1169.8035 357.5,-1157 360.2823,-1153.8441 363.2118,-1150.6438 366.2065,-1147.4612"/>
<polygon fill="none" stroke="#404040" points="366.4259,-1147.2334 367.707,-1140.137 374.7503,-1138.5902 373.4692,-1145.6866 366.4259,-1147.2334"/>
<text text-anchor="middle" x="382" y="-1165.5" font-family="Helvetica,sans-Serif" font-size="10.00" fill="#000000"> +elements</text>
</g>
<!-- Node18&#45;&gt;Node16 -->
<g id="edge14" class="edge">
<title>Node18&#45;&gt;Node16</title>
<path fill="none" stroke="#ffa500" d="M410.5,-1186.8733C410.5,-1171.3628 410.5,-1153.6896 410.5,-1138.7007"/>
<polygon fill="#ffa500" stroke="#ffa500" points="407.0001,-1187.2062 410.5,-1197.2062 414.0001,-1187.2062 407.0001,-1187.2062"/>
<text text-anchor="middle" x="465.5" y="-1165.5" font-family="Helvetica,sans-Serif" font-size="10.00" fill="#000000"> &lt; std::atomic&lt; bool &gt; *&gt;</text>
</g>
<!-- Node19 -->
<g id="node16" class="node">
<title>Node19</title>
<polygon fill="#ffffff" stroke="#bfbfbf" points="489,-1076 489,-1133 552,-1133 552,-1076 489,-1076"/>
<text text-anchor="middle" x="520.5" y="-1121" font-family="Helvetica,sans-Serif" font-size="10.00" fill="#000000">type_info *</text>
<polyline fill="none" stroke="#bfbfbf" points="489,-1114 552,-1114 "/>
<text text-anchor="middle" x="520.5" y="-1102" font-family="Helvetica,sans-Serif" font-size="10.00" fill="#000000"> </text>
<polyline fill="none" stroke="#bfbfbf" points="489,-1095 552,-1095 "/>
<text text-anchor="middle" x="520.5" y="-1083" font-family="Helvetica,sans-Serif" font-size="10.00" fill="#000000"> </text>
</g>
<!-- Node19&#45;&gt;Node6 -->
<g id="edge16" class="edge">
<title>Node19&#45;&gt;Node6</title>
<path fill="none" stroke="#404040" d="M500.9673,-1075.9081C491.0938,-1063.4711 478.1077,-1049.7666 463.5,-1041 434.8476,-1023.8046 417.4303,-1042.7839 390.5,-1023 387.4311,-1020.7455 384.4551,-1018.3364 381.571,-1015.7966"/>
<polygon fill="none" stroke="#404040" points="381.3365,-1015.5719 374.2368,-1014.3088 372.6721,-1007.2695 379.7717,-1008.5325 381.3365,-1015.5719"/>
<text text-anchor="middle" x="504.5" y="-1044" font-family="Helvetica,sans-Serif" font-size="10.00" fill="#000000"> &#45;object_info</text>
</g>
<!-- Node20 -->
<g id="node17" class="node">
<title>Node20</title>
<g id="a_node17"><a xlink:href="classAlignedVector_3_01T_01_4.html" target="_top" xlink:title="{AlignedVector\&lt; T \&gt;\n||}">
<polygon fill="#ffffff" stroke="#000000" points="399,-861 399,-918 500,-918 500,-861 399,-861"/>
<text text-anchor="middle" x="449.5" y="-906" font-family="Helvetica,sans-Serif" font-size="10.00" fill="#000000">AlignedVector&lt; T &gt;</text>
<polyline fill="none" stroke="#000000" points="399,-899 500,-899 "/>
<text text-anchor="middle" x="449.5" y="-887" font-family="Helvetica,sans-Serif" font-size="10.00" fill="#000000"> </text>
<polyline fill="none" stroke="#000000" points="399,-880 500,-880 "/>
<text text-anchor="middle" x="449.5" y="-868" font-family="Helvetica,sans-Serif" font-size="10.00" fill="#000000"> </text>
</a>
</g>
</g>
<!-- Node20&#45;&gt;Node5 -->
<g id="edge17" class="edge">
<title>Node20&#45;&gt;Node5</title>
<path fill="none" stroke="#404040" d="M451.5325,-860.6084C455.93,-793.5325 465.3237,-622.0608 457.5,-479 457.3873,-476.9399 457.2637,-474.8606 457.1302,-472.7666"/>
<polygon fill="none" stroke="#404040" points="457.1195,-472.6157 452.7021,-466.916 456.2642,-460.6462 460.6817,-466.3459 457.1195,-472.6157"/>
<text text-anchor="middle" x="479" y="-606" font-family="Helvetica,sans-Serif" font-size="10.00" fill="#000000"> #values</text>
</g>
<!-- Node20&#45;&gt;Node22 -->
<g id="edge21" class="edge">
<title>Node20&#45;&gt;Node22</title>
<path fill="none" stroke="#404040" d="M442.9516,-860.7486C435.4296,-827.7223 422.6276,-771.5133 411.0149,-720.5262"/>
<polygon fill="none" stroke="#404040" points="410.9908,-720.4202 405.7582,-715.4583 408.3259,-708.7198 413.5585,-713.6817 410.9908,-720.4202"/>
<text text-anchor="middle" x="432" y="-730" font-family="Helvetica,sans-Serif" font-size="10.00" fill="#000000"> #values</text>
</g>
<!-- Node21 -->
<g id="node18" class="node">
<title>Node21</title>
<g id="a_node18"><a xlink:href="classTableIndices_3_01N_01_4.html" target="_top" xlink:title="{TableIndices\&lt; N \&gt;\n||}">
<polygon fill="#ffffff" stroke="#000000" points="522.5,-861 522.5,-918 620.5,-918 620.5,-861 522.5,-861"/>
<text text-anchor="middle" x="571.5" y="-906" font-family="Helvetica,sans-Serif" font-size="10.00" fill="#000000">TableIndices&lt; N &gt;</text>
<polyline fill="none" stroke="#000000" points="522.5,-899 620.5,-899 "/>
<text text-anchor="middle" x="571.5" y="-887" font-family="Helvetica,sans-Serif" font-size="10.00" fill="#000000"> </text>
<polyline fill="none" stroke="#000000" points="522.5,-880 620.5,-880 "/>
<text text-anchor="middle" x="571.5" y="-868" font-family="Helvetica,sans-Serif" font-size="10.00" fill="#000000"> </text>
</a>
</g>
</g>
<!-- Node21&#45;&gt;Node5 -->
<g id="edge18" class="edge">
<title>Node21&#45;&gt;Node5</title>
<path fill="none" stroke="#404040" d="M568.3088,-860.7894C560.7239,-796.581 539.3623,-636.8941 501.5,-508 498.0699,-496.3228 494.1184,-484.2666 489.929,-472.3129"/>
<polygon fill="none" stroke="#404040" points="489.8883,-472.1989 484.1019,-467.8956 485.8487,-460.8992 491.635,-465.2025 489.8883,-472.1989"/>
<text text-anchor="middle" x="572" y="-606" font-family="Helvetica,sans-Serif" font-size="10.00" fill="#000000"> #table_size</text>
</g>
<!-- Node21&#45;&gt;Node22 -->
<g id="edge22" class="edge">
<title>Node21&#45;&gt;Node22</title>
<path fill="none" stroke="#404040" d="M562.5464,-860.8181C552.6762,-832.2521 534.7767,-788.1383 509.5,-756 488.7746,-729.6484 473.0093,-733.8451 450.5,-709 448.1784,-706.4375 445.884,-703.7835 443.623,-701.0607"/>
<polygon fill="none" stroke="#404040" points="443.5445,-700.962 436.6789,-698.7569 436.0737,-691.5712 442.9394,-693.7763 443.5445,-700.962"/>
<text text-anchor="middle" x="516" y="-730" font-family="Helvetica,sans-Serif" font-size="10.00" fill="#000000"> #table_size</text>
</g>
<!-- Node22&#45;&gt;Node5 -->
<g id="edge19" class="edge">
<title>Node22&#45;&gt;Node5</title>
<path fill="none" stroke="#ffa500" d="M411.7099,-498.3295C414.6957,-485.7791 417.727,-473.0372 420.6795,-460.6269"/>
<polygon fill="#ffa500" stroke="#ffa500" points="408.237,-497.8052 409.3275,-508.3438 415.047,-499.4254 408.237,-497.8052"/>
<text text-anchor="middle" x="434" y="-482" font-family="Helvetica,sans-Serif" font-size="10.00" fill="#000000"> &lt; 2, T &gt;</text>
</g>
</g>
</svg>
        <g id="navigator" transform="translate(0 0)" fill="#404254">
                <rect fill="#f2f5e9" fill-opacity="0.5" stroke="#606060" stroke-width=".5" x="0" y="0" width="60" height="60"/>
                <use id="zoomplus" xlink:href="#zoomPlus" x="17" y="9" onmousedown="handleZoom(evt,'in')"/>
                <use id="zoomminus" xlink:href="#zoomMin" x="42" y="9" onmousedown="handleZoom(evt,'out')"/>
                <use id="reset" xlink:href="#resetDef" x="30" y="36" onmousedown="handleReset()"/>
                <g id="arrowUp" xlink:href="#dirArrow" transform="translate(30 24)" onmousedown="handlePan(0,-1)">
                  <use xlink:href="#rim" fill="#404040">
                        <set attributeName="fill" to="#808080" begin="arrowUp.mouseover" end="arrowUp.mouseout"/>
                  </use>
                  <path fill="none" stroke="white" stroke-width="1.5" d="M0,-3.0v7 M-2.5,-0.5L0,-3.0L2.5,-0.5"/>
                </g>
                <g id="arrowRight" xlink:href="#dirArrow" transform="rotate(90) translate(36 -43)" onmousedown="handlePan(1,0)">
                  <use xlink:href="#rim" fill="#404040">
                        <set attributeName="fill" to="#808080" begin="arrowRight.mouseover" end="arrowRight.mouseout"/>
                  </use>
                  <path fill="none" stroke="white" stroke-width="1.5" d="M0,-3.0v7 M-2.5,-0.5L0,-3.0L2.5,-0.5"/>
                </g>
                <g id="arrowDown" xlink:href="#dirArrow" transform="rotate(180) translate(-30 -48)" onmousedown="handlePan(0,1)">
                  <use xlink:href="#rim" fill="#404040">
                        <set attributeName="fill" to="#808080" begin="arrowDown.mouseover" end="arrowDown.mouseout"/>
                  </use>
                  <path fill="none" stroke="white" stroke-width="1.5" d="M0,-3.0v7 M-2.5,-0.5L0,-3.0L2.5,-0.5"/>
                </g>
                <g id="arrowLeft" xlink:href="#dirArrow" transform="rotate(270) translate(-36 17)" onmousedown="handlePan(-1,0)">
                  <use xlink:href="#rim" fill="#404040">
                        <set attributeName="fill" to="#808080" begin="arrowLeft.mouseover" end="arrowLeft.mouseout"/>
                  </use>
                  <path fill="none" stroke="white" stroke-width="1.5" d="M0,-3.0v7 M-2.5,-0.5L0,-3.0L2.5,-0.5"/>
                </g>
        </g>
        <svg viewBox="0 0 15 15" width="100%" height="30px" preserveAspectRatio="xMaxYMin meet">
         <g id="arrow_out" transform="scale(0.3 0.3)">
          <a xlink:href="classTable_3_012_00_01T_01_4__coll__graph_org.svg" target="_base">
           <rect id="button" ry="5" rx="5" y="6" x="6" height="38" width="38"
                fill="#f2f5e9" fill-opacity="0.5" stroke="#606060" stroke-width="1.0"/>
           <path id="arrow"
             d="M 11.500037,31.436501 C 11.940474,20.09759 22.043105,11.32322 32.158766,21.979434 L 37.068811,17.246167 C 37.068811,17.246167 37.088388,32 37.088388,32 L 22.160133,31.978069 C 22.160133,31.978069 26.997745,27.140456 26.997745,27.140456 C 18.528582,18.264221 13.291696,25.230495 11.500037,31.436501 z"
             style="fill:#404040;"/>
          </a>
         </g>
        </svg>
</svg>
