<?xml version="1.0" encoding="UTF-8" standalone="no"?>
<!DOCTYPE svg PUBLIC "-//W3C//DTD SVG 1.1//EN"
 "http://www.w3.org/Graphics/SVG/1.1/DTD/svg11.dtd">
<!-- Generated by graphviz version 2.40.1 (20161225.0304)
 -->
<!-- Title: PreconditionBlockJacobi&lt; MatrixType, inverse_type &gt; Pages: 1 -->
<svg width="245pt" height="275pt"
 viewBox="0.00 0.00 245.00 275.00" xmlns="http://www.w3.org/2000/svg" xmlns:xlink="http://www.w3.org/1999/xlink">
<g id="graph0" class="graph" transform="scale(1 1) rotate(0) translate(4 271)">
<title>PreconditionBlockJacobi&lt; MatrixType, inverse_type &gt;</title>
<polygon fill="#ffffff" stroke="transparent" points="-4,4 -4,-271 241,-271 241,4 -4,4"/>
<!-- Node0 -->
<g id="node1" class="node">
<title>Node0</title>
<polygon fill="#bfbfbf" stroke="#000000" points="0,-.5 0,-41.5 124,-41.5 124,-.5 0,-.5"/>
<text text-anchor="start" x="8" y="-29.5" font-family="Helvetica,sans-Serif" font-size="10.00" fill="#000000">PreconditionBlockJacobi</text>
<text text-anchor="start" x="8" y="-18.5" font-family="Helvetica,sans-Serif" font-size="10.00" fill="#000000">&lt; MatrixType, inverse</text>
<text text-anchor="middle" x="62" y="-7.5" font-family="Helvetica,sans-Serif" font-size="10.00" fill="#000000">_type &gt;</text>
</g>
<!-- Node1 -->
<g id="node2" class="node">
<title>Node1</title>
<g id="a_node2"><a xlink:href="classSubscriptor.html" target="_top" xlink:title="Subscriptor">
<polygon fill="#ffffff" stroke="#000000" points="17,-164 17,-183 83,-183 83,-164 17,-164"/>
<text text-anchor="middle" x="50" y="-171" font-family="Helvetica,sans-Serif" font-size="10.00" fill="#000000">Subscriptor</text>
</a>
</g>
</g>
<!-- Node1&#45;&gt;Node0 -->
<g id="edge1" class="edge">
<title>Node1&#45;&gt;Node0</title>
<path fill="none" stroke="#191970" d="M51.5455,-153.8593C53.8249,-124.8916 58.068,-70.9697 60.386,-41.5111"/>
<polygon fill="#191970" stroke="#191970" points="48.046,-153.7167 50.7507,-163.9604 55.0244,-154.2659 48.046,-153.7167"/>
</g>
<!-- Node2 -->
<g id="node3" class="node">
<title>Node2</title>
<g id="a_node3"><a xlink:href="classPreconditionBlock.html" target="_top" xlink:title="PreconditionBlock\&lt;\l MatrixType, inverse\l_type \&gt;">
<polygon fill="#ffffff" stroke="#000000" points="78,-79.5 78,-120.5 184,-120.5 184,-79.5 78,-79.5"/>
<text text-anchor="start" x="86" y="-108.5" font-family="Helvetica,sans-Serif" font-size="10.00" fill="#000000">PreconditionBlock&lt;</text>
<text text-anchor="start" x="86" y="-97.5" font-family="Helvetica,sans-Serif" font-size="10.00" fill="#000000"> MatrixType, inverse</text>
<text text-anchor="middle" x="131" y="-86.5" font-family="Helvetica,sans-Serif" font-size="10.00" fill="#000000">_type &gt;</text>
</a>
</g>
</g>
<!-- Node1&#45;&gt;Node2 -->
<g id="edge3" class="edge">
<title>Node1&#45;&gt;Node2</title>
<path fill="none" stroke="#191970" d="M68.0984,-157.0774C79.9187,-146.3515 95.4534,-132.2552 108.1269,-120.7552"/>
<polygon fill="#191970" stroke="#191970" points="65.643,-154.5793 60.5893,-163.8912 70.3469,-159.7632 65.643,-154.5793"/>
</g>
<!-- Node2&#45;&gt;Node0 -->
<g id="edge2" class="edge">
<title>Node2&#45;&gt;Node0</title>
<path fill="none" stroke="#8b1a1a" d="M106.1715,-71.5731C97.5241,-61.6726 87.9949,-50.7623 80.0079,-41.6177"/>
<polygon fill="#8b1a1a" stroke="#8b1a1a" points="103.6566,-74.0144 112.8711,-79.2437 108.9288,-69.4096 103.6566,-74.0144"/>
</g>
<!-- Node3 -->
<g id="node4" class="node">
<title>Node3</title>
<g id="a_node4"><a xlink:href="classPreconditionBlockBase.html" target="_top" xlink:title="PreconditionBlockBase\l\&lt; inverse_type \&gt;">
<polygon fill="#ffffff" stroke="#000000" points="101,-158.5 101,-188.5 219,-188.5 219,-158.5 101,-158.5"/>
<text text-anchor="start" x="109" y="-176.5" font-family="Helvetica,sans-Serif" font-size="10.00" fill="#000000">PreconditionBlockBase</text>
<text text-anchor="middle" x="160" y="-165.5" font-family="Helvetica,sans-Serif" font-size="10.00" fill="#000000">&lt; inverse_type &gt;</text>
</a>
</g>
</g>
<!-- Node3&#45;&gt;Node2 -->
<g id="edge4" class="edge">
<title>Node3&#45;&gt;Node2</title>
<path fill="none" stroke="#006400" d="M150.2765,-148.856C146.644,-139.6494 142.5612,-129.3017 139.0914,-120.5074"/>
<polygon fill="#006400" stroke="#006400" points="147.0651,-150.2532 153.9912,-158.2708 153.5766,-147.684 147.0651,-150.2532"/>
</g>
<!-- Node4 -->
<g id="node5" class="node">
<title>Node4</title>
<g id="a_node5"><a xlink:href="classPreconditionBlockBase.html" target="_top" xlink:title="PreconditionBlockBase\l\&lt; number \&gt;">
<polygon fill="#ffffff" stroke="#000000" points="101,-236.5 101,-266.5 219,-266.5 219,-236.5 101,-236.5"/>
<text text-anchor="start" x="109" y="-254.5" font-family="Helvetica,sans-Serif" font-size="10.00" fill="#000000">PreconditionBlockBase</text>
<text text-anchor="middle" x="160" y="-243.5" font-family="Helvetica,sans-Serif" font-size="10.00" fill="#000000">&lt; number &gt;</text>
</a>
</g>
</g>
<!-- Node4&#45;&gt;Node3 -->
<g id="edge5" class="edge">
<title>Node4&#45;&gt;Node3</title>
<path fill="none" stroke="#ffa500" stroke-dasharray="5,2" d="M160,-226.2875C160,-213.9187 160,-199.4264 160,-188.7592"/>
<polygon fill="#ffa500" stroke="#ffa500" points="156.5001,-226.4608 160,-236.4608 163.5001,-226.4608 156.5001,-226.4608"/>
<text text-anchor="middle" x="198.5" y="-210" font-family="Helvetica,sans-Serif" font-size="10.00" fill="#000000"> &lt; inverse_type &gt;</text>
</g>
</g>
</svg>
