<?xml version="1.0" encoding="UTF-8" standalone="no"?>
<!DOCTYPE svg PUBLIC "-//W3C//DTD SVG 1.1//EN"
 "http://www.w3.org/Graphics/SVG/1.1/DTD/svg11.dtd">
<!-- Generated by graphviz version 2.40.1 (20161225.0304)
 -->
<!-- Title: MappingCartesian&lt; dim, spacedim &gt;::InternalData Pages: 1 -->
<svg width="138pt" height="248pt"
 viewBox="0.00 0.00 138.00 248.00" xmlns="http://www.w3.org/2000/svg" xmlns:xlink="http://www.w3.org/1999/xlink">
<g id="graph0" class="graph" transform="scale(1 1) rotate(0) translate(4 244)">
<title>MappingCartesian&lt; dim, spacedim &gt;::InternalData</title>
<polygon fill="#ffffff" stroke="transparent" points="-4,4 -4,-244 134,-244 134,4 -4,4"/>
<!-- Node0 -->
<g id="node1" class="node">
<title>Node0</title>
<polygon fill="#bfbfbf" stroke="#000000" points="0,-.5 0,-101.5 130,-101.5 130,-.5 0,-.5"/>
<text text-anchor="start" x="8" y="-89.5" font-family="Helvetica,sans-Serif" font-size="10.00" fill="#000000">MappingCartesian&lt; dim,</text>
<text text-anchor="middle" x="65" y="-78.5" font-family="Helvetica,sans-Serif" font-size="10.00" fill="#000000"> spacedim &gt;::InternalData</text>
<polyline fill="none" stroke="#000000" points="0,-71.5 130,-71.5 "/>
<text text-anchor="start" x="8" y="-59.5" font-family="Helvetica,sans-Serif" font-size="10.00" fill="#000000">+ cell_extents</text>
<text text-anchor="start" x="8" y="-48.5" font-family="Helvetica,sans-Serif" font-size="10.00" fill="#000000">+ volume_element</text>
<text text-anchor="start" x="8" y="-37.5" font-family="Helvetica,sans-Serif" font-size="10.00" fill="#000000">+ quadrature_points</text>
<polyline fill="none" stroke="#000000" points="0,-30.5 130,-30.5 "/>
<text text-anchor="start" x="8" y="-18.5" font-family="Helvetica,sans-Serif" font-size="10.00" fill="#000000">+ InternalData()</text>
<text text-anchor="start" x="8" y="-7.5" font-family="Helvetica,sans-Serif" font-size="10.00" fill="#000000">+ memory_consumption()</text>
</g>
<!-- Node1 -->
<g id="node2" class="node">
<title>Node1</title>
<g id="a_node2"><a xlink:href="classMapping_1_1InternalDataBase.html" target="_top" xlink:title="{Mapping\&lt; dim, spacedim\l \&gt;::InternalDataBase\n|+ update_each\l|+ InternalDataBase()\l+ InternalDataBase()\l+ ~InternalDataBase()\l+ memory_consumption()\l}">
<polygon fill="#ffffff" stroke="#000000" points="1,-138.5 1,-239.5 129,-239.5 129,-138.5 1,-138.5"/>
<text text-anchor="start" x="9" y="-227.5" font-family="Helvetica,sans-Serif" font-size="10.00" fill="#000000">Mapping&lt; dim, spacedim</text>
<text text-anchor="middle" x="65" y="-216.5" font-family="Helvetica,sans-Serif" font-size="10.00" fill="#000000"> &gt;::InternalDataBase</text>
<polyline fill="none" stroke="#000000" points="1,-209.5 129,-209.5 "/>
<text text-anchor="start" x="9" y="-197.5" font-family="Helvetica,sans-Serif" font-size="10.00" fill="#000000">+ update_each</text>
<polyline fill="none" stroke="#000000" points="1,-190.5 129,-190.5 "/>
<text text-anchor="start" x="9" y="-178.5" font-family="Helvetica,sans-Serif" font-size="10.00" fill="#000000">+ InternalDataBase()</text>
<text text-anchor="start" x="9" y="-167.5" font-family="Helvetica,sans-Serif" font-size="10.00" fill="#000000">+ InternalDataBase()</text>
<text text-anchor="start" x="9" y="-156.5" font-family="Helvetica,sans-Serif" font-size="10.00" fill="#000000">+ ~InternalDataBase()</text>
<text text-anchor="start" x="9" y="-145.5" font-family="Helvetica,sans-Serif" font-size="10.00" fill="#000000">+ memory_consumption()</text>
</a>
</g>
</g>
<!-- Node1&#45;&gt;Node0 -->
<g id="edge1" class="edge">
<title>Node1&#45;&gt;Node0</title>
<path fill="none" stroke="#191970" d="M65,-128.1179C65,-119.2601 65,-110.2213 65,-101.5964"/>
<polygon fill="none" stroke="#191970" points="61.5001,-128.3975 65,-138.3975 68.5001,-128.3975 61.5001,-128.3975"/>
</g>
</g>
</svg>
