<?xml version="1.0" encoding="UTF-8" standalone="no"?>
<!DOCTYPE svg PUBLIC "-//W3C//DTD SVG 1.1//EN"
 "http://www.w3.org/Graphics/SVG/1.1/DTD/svg11.dtd">
<!-- Generated by graphviz version 2.40.1 (20161225.0304)
 -->
<!-- Title: FEInterfaceViews::Vector&lt; dim, spacedim &gt; Pages: 1 -->
<svg width="137pt" height="270pt"
 viewBox="0.00 0.00 137.00 270.00" xmlns="http://www.w3.org/2000/svg" xmlns:xlink="http://www.w3.org/1999/xlink">
<g id="graph0" class="graph" transform="scale(1 1) rotate(0) translate(4 266)">
<title>FEInterfaceViews::Vector&lt; dim, spacedim &gt;</title>
<polygon fill="#ffffff" stroke="transparent" points="-4,4 -4,-266 133,-266 133,4 -4,4"/>
<!-- Node0 -->
<g id="node1" class="node">
<title>Node0</title>
<polygon fill="#bfbfbf" stroke="#000000" points="0,-.5 0,-156.5 129,-156.5 129,-.5 0,-.5"/>
<text text-anchor="start" x="8" y="-144.5" font-family="Helvetica,sans-Serif" font-size="10.00" fill="#000000">FEInterfaceViews::Vector</text>
<text text-anchor="middle" x="64.5" y="-133.5" font-family="Helvetica,sans-Serif" font-size="10.00" fill="#000000">&lt; dim, spacedim &gt;</text>
<polyline fill="none" stroke="#000000" points="0,-126.5 129,-126.5 "/>
<text text-anchor="start" x="8" y="-114.5" font-family="Helvetica,sans-Serif" font-size="10.00" fill="#000000">&#45; extractor</text>
<polyline fill="none" stroke="#000000" points="0,-107.5 129,-107.5 "/>
<text text-anchor="start" x="8" y="-95.5" font-family="Helvetica,sans-Serif" font-size="10.00" fill="#000000">+ Vector()</text>
<text text-anchor="start" x="8" y="-84.5" font-family="Helvetica,sans-Serif" font-size="10.00" fill="#000000">+ value()</text>
<text text-anchor="start" x="8" y="-73.5" font-family="Helvetica,sans-Serif" font-size="10.00" fill="#000000">+ jump()</text>
<text text-anchor="start" x="8" y="-62.5" font-family="Helvetica,sans-Serif" font-size="10.00" fill="#000000">+ average()</text>
<text text-anchor="start" x="8" y="-51.5" font-family="Helvetica,sans-Serif" font-size="10.00" fill="#000000">+ average_gradient()</text>
<text text-anchor="start" x="8" y="-40.5" font-family="Helvetica,sans-Serif" font-size="10.00" fill="#000000">+ jump_gradient()</text>
<text text-anchor="start" x="8" y="-29.5" font-family="Helvetica,sans-Serif" font-size="10.00" fill="#000000">+ average_hessian()</text>
<text text-anchor="start" x="8" y="-18.5" font-family="Helvetica,sans-Serif" font-size="10.00" fill="#000000">+ jump_hessian()</text>
<text text-anchor="start" x="8" y="-7.5" font-family="Helvetica,sans-Serif" font-size="10.00" fill="#000000">+ jump_3rd_derivative()</text>
</g>
<!-- Node1 -->
<g id="node2" class="node">
<title>Node1</title>
<g id="a_node2"><a xlink:href="classFEInterfaceViews_1_1Base.html" target="_top" xlink:title="{FEInterfaceViews::Base\l\&lt; dim, spacedim \&gt;\n|# fe_interface\l|+ Base()\l}">
<polygon fill="#ffffff" stroke="#000000" points="3,-193.5 3,-261.5 126,-261.5 126,-193.5 3,-193.5"/>
<text text-anchor="start" x="11" y="-249.5" font-family="Helvetica,sans-Serif" font-size="10.00" fill="#000000">FEInterfaceViews::Base</text>
<text text-anchor="middle" x="64.5" y="-238.5" font-family="Helvetica,sans-Serif" font-size="10.00" fill="#000000">&lt; dim, spacedim &gt;</text>
<polyline fill="none" stroke="#000000" points="3,-231.5 126,-231.5 "/>
<text text-anchor="start" x="11" y="-219.5" font-family="Helvetica,sans-Serif" font-size="10.00" fill="#000000"># fe_interface</text>
<polyline fill="none" stroke="#000000" points="3,-212.5 126,-212.5 "/>
<text text-anchor="start" x="11" y="-200.5" font-family="Helvetica,sans-Serif" font-size="10.00" fill="#000000">+ Base()</text>
</a>
</g>
</g>
<!-- Node1&#45;&gt;Node0 -->
<g id="edge1" class="edge">
<title>Node1&#45;&gt;Node0</title>
<path fill="none" stroke="#191970" d="M64.5,-183.3157C64.5,-174.8287 64.5,-165.7088 64.5,-156.5175"/>
<polygon fill="none" stroke="#191970" points="61.0001,-183.3164 64.5,-193.3164 68.0001,-183.3164 61.0001,-183.3164"/>
</g>
</g>
</svg>
