<?xml version="1.0" encoding="UTF-8" standalone="no"?>
<!DOCTYPE svg PUBLIC "-//W3C//DTD SVG 1.1//EN"
 "http://www.w3.org/Graphics/SVG/1.1/DTD/svg11.dtd">
<!-- Generated by graphviz version 2.40.1 (20161225.0304)
 -->
<!-- Title: AlignedVector&lt; T &gt; Pages: 1 -->
<!--zoomable 535 -->
<svg id="main" version="1.1" xmlns="http://www.w3.org/2000/svg" xmlns:xlink="http://www.w3.org/1999/xlink" xml:space="preserve" onload="init(evt)">
<style type="text/css"><![CDATA[
.edge:hover path { stroke: red; }
.edge:hover polygon { stroke: red; fill: red; }
]]></style>
<script type="text/javascript"><![CDATA[
var edges = document.getElementsByTagName('g');
if (edges && edges.length) {
  for (var i=0;i<edges.length;i++) {
    if (edges[i].id.substr(0,4)=='edge') {
      edges[i].setAttribute('class','edge');
    }
  }
}
]]></script>
        <defs>
                <circle id="rim" cx="0" cy="0" r="7"/>
                <circle id="rim2" cx="0" cy="0" r="3.5"/>
                <g id="zoomPlus">
                        <use xlink:href="#rim" fill="#404040">
                                <set attributeName="fill" to="#808080" begin="zoomplus.mouseover" end="zoomplus.mouseout"/>
                        </use>
                        <path d="M-4,0h8M0,-4v8" fill="none" stroke="white" stroke-width="1.5" pointer-events="none"/>
                </g>
                <g id="zoomMin">
                        <use xlink:href="#rim" fill="#404040">
                                <set attributeName="fill" to="#808080" begin="zoomminus.mouseover" end="zoomminus.mouseout"/>
                        </use>
                        <path d="M-4,0h8" fill="none" stroke="white" stroke-width="1.5" pointer-events="none"/>
                </g>
                <g id="dirArrow">
                        <path fill="none" stroke="white" stroke-width="1.5" d="M0,-3.0v7 M-2.5,-0.5L0,-3.0L2.5,-0.5"/>
                </g>
               <g id="resetDef">
                       <use xlink:href="#rim2" fill="#404040">
                               <set attributeName="fill" to="#808080" begin="reset.mouseover" end="reset.mouseout"/>
                       </use>
               </g>
        </defs>

<script type="text/javascript">
var viewWidth = 275;
var viewHeight = 535;
var sectionId = 'dynsection-1';
</script>
<script xlink:href="svgpan.js"/>
<svg id="graph" class="graph">
<g id="viewport">
<title>AlignedVector&lt; T &gt;</title>
<polygon fill="#ffffff" stroke="transparent" points="-4,4 -4,-531 271,-531 271,4 -4,4"/>
<!-- Node17 -->
<g id="node1" class="node">
<title>Node17</title>
<polygon fill="#bfbfbf" stroke="#000000" points="0,-.5 0,-167.5 101,-167.5 101,-.5 0,-.5"/>
<text text-anchor="middle" x="50.5" y="-155.5" font-family="Helvetica,sans-Serif" font-size="10.00" fill="#000000">AlignedVector&lt; T &gt;</text>
<polyline fill="none" stroke="#000000" points="0,-148.5 101,-148.5 "/>
<text text-anchor="middle" x="50.5" y="-136.5" font-family="Helvetica,sans-Serif" font-size="10.00" fill="#000000"> </text>
<polyline fill="none" stroke="#000000" points="0,-129.5 101,-129.5 "/>
<text text-anchor="start" x="8" y="-117.5" font-family="Helvetica,sans-Serif" font-size="10.00" fill="#000000">+ AlignedVector()</text>
<text text-anchor="start" x="8" y="-106.5" font-family="Helvetica,sans-Serif" font-size="10.00" fill="#000000">+ AlignedVector()</text>
<text text-anchor="start" x="8" y="-95.5" font-family="Helvetica,sans-Serif" font-size="10.00" fill="#000000">+ ~AlignedVector()</text>
<text text-anchor="start" x="8" y="-84.5" font-family="Helvetica,sans-Serif" font-size="10.00" fill="#000000">+ AlignedVector()</text>
<text text-anchor="start" x="8" y="-73.5" font-family="Helvetica,sans-Serif" font-size="10.00" fill="#000000">+ AlignedVector()</text>
<text text-anchor="start" x="8" y="-62.5" font-family="Helvetica,sans-Serif" font-size="10.00" fill="#000000">+ operator=()</text>
<text text-anchor="start" x="8" y="-51.5" font-family="Helvetica,sans-Serif" font-size="10.00" fill="#000000">+ operator=()</text>
<text text-anchor="start" x="8" y="-40.5" font-family="Helvetica,sans-Serif" font-size="10.00" fill="#000000">+ resize_fast()</text>
<text text-anchor="start" x="8" y="-29.5" font-family="Helvetica,sans-Serif" font-size="10.00" fill="#000000">+ resize()</text>
<text text-anchor="start" x="8" y="-18.5" font-family="Helvetica,sans-Serif" font-size="10.00" fill="#000000">+ resize()</text>
<text text-anchor="start" x="8" y="-7.5" font-family="Helvetica,sans-Serif" font-size="10.00" fill="#000000">and 25 more...</text>
</g>
<!-- Node18 -->
<g id="node2" class="node">
<title>Node18</title>
<polygon fill="#ffffff" stroke="#bfbfbf" points="67.5,-215.5 67.5,-294.5 177.5,-294.5 177.5,-215.5 67.5,-215.5"/>
<text text-anchor="start" x="75.5" y="-282.5" font-family="Helvetica,sans-Serif" font-size="10.00" fill="#000000">std::unique_ptr&lt; T</text>
<text text-anchor="start" x="75.5" y="-271.5" font-family="Helvetica,sans-Serif" font-size="10.00" fill="#000000">[], std::function&lt; void</text>
<text text-anchor="middle" x="122.5" y="-260.5" font-family="Helvetica,sans-Serif" font-size="10.00" fill="#000000">(T *)&gt; &gt;</text>
<polyline fill="none" stroke="#bfbfbf" points="67.5,-253.5 177.5,-253.5 "/>
<text text-anchor="middle" x="122.5" y="-241.5" font-family="Helvetica,sans-Serif" font-size="10.00" fill="#000000"> </text>
<polyline fill="none" stroke="#bfbfbf" points="67.5,-234.5 177.5,-234.5 "/>
<text text-anchor="start" x="75.5" y="-222.5" font-family="Helvetica,sans-Serif" font-size="10.00" fill="#000000">+ operator&#45;&gt;()</text>
</g>
<!-- Node18&#45;&gt;Node17 -->
<g id="edge1" class="edge">
<title>Node18&#45;&gt;Node17</title>
<path fill="none" stroke="#404040" d="M105.8008,-215.3394C101.1419,-204.2745 95.8707,-191.7555 90.479,-178.9502"/>
<polygon fill="none" stroke="#404040" points="90.379,-178.7124 84.364,-174.7348 85.7222,-167.6528 91.7371,-171.6303 90.379,-178.7124"/>
<text text-anchor="middle" x="120.5" y="-189" font-family="Helvetica,sans-Serif" font-size="10.00" fill="#000000"> &#45;elements</text>
</g>
<!-- Node19 -->
<g id="node3" class="node">
<title>Node19</title>
<polygon fill="#ffffff" stroke="#bfbfbf" points="108,-469.5 108,-526.5 137,-526.5 137,-469.5 108,-469.5"/>
<text text-anchor="middle" x="122.5" y="-514.5" font-family="Helvetica,sans-Serif" font-size="10.00" fill="#000000">T</text>
<polyline fill="none" stroke="#bfbfbf" points="108,-507.5 137,-507.5 "/>
<text text-anchor="middle" x="122.5" y="-495.5" font-family="Helvetica,sans-Serif" font-size="10.00" fill="#000000"> </text>
<polyline fill="none" stroke="#bfbfbf" points="108,-488.5 137,-488.5 "/>
<text text-anchor="middle" x="122.5" y="-476.5" font-family="Helvetica,sans-Serif" font-size="10.00" fill="#000000"> </text>
</g>
<!-- Node19&#45;&gt;Node17 -->
<g id="edge5" class="edge">
<title>Node19&#45;&gt;Node17</title>
<path fill="none" stroke="#404040" d="M107.929,-481.7542C85.4564,-455.4835 43.2853,-401.0402 27.5,-346 12.088,-292.2615 16.6787,-229.997 25.6644,-179.6535"/>
<polygon fill="none" stroke="#404040" points="25.6785,-179.5782 22.8597,-172.9408 27.9022,-167.786 30.7211,-174.4233 25.6785,-179.5782"/>
<text text-anchor="start" x="27.5" y="-338" font-family="Helvetica,sans-Serif" font-size="10.00" fill="#000000"> &#45;allocated_elements</text>
<text text-anchor="middle" x="73" y="-327" font-family="Helvetica,sans-Serif" font-size="10.00" fill="#000000">_end</text>
<text text-anchor="middle" x="73" y="-316" font-family="Helvetica,sans-Serif" font-size="10.00" fill="#000000">&#45;used_elements_end</text>
</g>
<!-- Node19&#45;&gt;Node18 -->
<g id="edge2" class="edge">
<title>Node19&#45;&gt;Node18</title>
<path fill="none" stroke="#404040" d="M122.5,-469.1705C122.5,-429.1859 122.5,-356.2348 122.5,-306.7027"/>
<polygon fill="none" stroke="#404040" points="122.5001,-306.6486 118.5,-300.6487 122.5,-294.6486 126.5,-300.6486 122.5001,-306.6486"/>
<text text-anchor="middle" x="133" y="-390.5" font-family="Helvetica,sans-Serif" font-size="10.00" fill="#000000"> +ptr</text>
</g>
<!-- Node20 -->
<g id="node4" class="node">
<title>Node20</title>
<g id="a_node4"><a xlink:title="STL class. ">
<polygon fill="#ffffff" stroke="#bfbfbf" points="162,-364.5 162,-421.5 267,-421.5 267,-364.5 162,-364.5"/>
<text text-anchor="middle" x="214.5" y="-409.5" font-family="Helvetica,sans-Serif" font-size="10.00" fill="#000000">std::unique_ptr&lt; T &gt;</text>
<polyline fill="none" stroke="#bfbfbf" points="162,-402.5 267,-402.5 "/>
<text text-anchor="middle" x="214.5" y="-390.5" font-family="Helvetica,sans-Serif" font-size="10.00" fill="#000000"> </text>
<polyline fill="none" stroke="#bfbfbf" points="162,-383.5 267,-383.5 "/>
<text text-anchor="start" x="170" y="-371.5" font-family="Helvetica,sans-Serif" font-size="10.00" fill="#000000">+ operator&#45;&gt;()</text>
</a>
</g>
</g>
<!-- Node19&#45;&gt;Node20 -->
<g id="edge4" class="edge">
<title>Node19&#45;&gt;Node20</title>
<path fill="none" stroke="#404040" d="M137.2814,-481.1299C149.1099,-467.63 166.1529,-448.1787 181.22,-430.9826"/>
<polygon fill="none" stroke="#404040" points="181.4334,-430.739 182.379,-423.5902 189.3416,-421.7134 188.396,-428.8623 181.4334,-430.739"/>
<text text-anchor="middle" x="182" y="-443" font-family="Helvetica,sans-Serif" font-size="10.00" fill="#000000"> +ptr</text>
</g>
<!-- Node20&#45;&gt;Node18 -->
<g id="edge3" class="edge">
<title>Node20&#45;&gt;Node18</title>
<path fill="none" stroke="#ffa500" d="M189.8362,-356.0044C177.1798,-337.0196 161.7551,-313.8826 148.8635,-294.5453"/>
<polygon fill="#ffa500" stroke="#ffa500" points="186.9783,-358.0273 195.4375,-364.4063 192.8027,-354.1443 186.9783,-358.0273"/>
<text text-anchor="start" x="181.5" y="-332.5" font-family="Helvetica,sans-Serif" font-size="10.00" fill="#000000"> &lt; T[], std::function</text>
<text text-anchor="middle" x="224" y="-321.5" font-family="Helvetica,sans-Serif" font-size="10.00" fill="#000000">&lt; void(T *)&gt; &gt;</text>
</g>
</g>
</svg>
        <g id="navigator" transform="translate(0 0)" fill="#404254">
                <rect fill="#f2f5e9" fill-opacity="0.5" stroke="#606060" stroke-width=".5" x="0" y="0" width="60" height="60"/>
                <use id="zoomplus" xlink:href="#zoomPlus" x="17" y="9" onmousedown="handleZoom(evt,'in')"/>
                <use id="zoomminus" xlink:href="#zoomMin" x="42" y="9" onmousedown="handleZoom(evt,'out')"/>
                <use id="reset" xlink:href="#resetDef" x="30" y="36" onmousedown="handleReset()"/>
                <g id="arrowUp" xlink:href="#dirArrow" transform="translate(30 24)" onmousedown="handlePan(0,-1)">
                  <use xlink:href="#rim" fill="#404040">
                        <set attributeName="fill" to="#808080" begin="arrowUp.mouseover" end="arrowUp.mouseout"/>
                  </use>
                  <path fill="none" stroke="white" stroke-width="1.5" d="M0,-3.0v7 M-2.5,-0.5L0,-3.0L2.5,-0.5"/>
                </g>
                <g id="arrowRight" xlink:href="#dirArrow" transform="rotate(90) translate(36 -43)" onmousedown="handlePan(1,0)">
                  <use xlink:href="#rim" fill="#404040">
                        <set attributeName="fill" to="#808080" begin="arrowRight.mouseover" end="arrowRight.mouseout"/>
                  </use>
                  <path fill="none" stroke="white" stroke-width="1.5" d="M0,-3.0v7 M-2.5,-0.5L0,-3.0L2.5,-0.5"/>
                </g>
                <g id="arrowDown" xlink:href="#dirArrow" transform="rotate(180) translate(-30 -48)" onmousedown="handlePan(0,1)">
                  <use xlink:href="#rim" fill="#404040">
                        <set attributeName="fill" to="#808080" begin="arrowDown.mouseover" end="arrowDown.mouseout"/>
                  </use>
                  <path fill="none" stroke="white" stroke-width="1.5" d="M0,-3.0v7 M-2.5,-0.5L0,-3.0L2.5,-0.5"/>
                </g>
                <g id="arrowLeft" xlink:href="#dirArrow" transform="rotate(270) translate(-36 17)" onmousedown="handlePan(-1,0)">
                  <use xlink:href="#rim" fill="#404040">
                        <set attributeName="fill" to="#808080" begin="arrowLeft.mouseover" end="arrowLeft.mouseout"/>
                  </use>
                  <path fill="none" stroke="white" stroke-width="1.5" d="M0,-3.0v7 M-2.5,-0.5L0,-3.0L2.5,-0.5"/>
                </g>
        </g>
        <svg viewBox="0 0 15 15" width="100%" height="30px" preserveAspectRatio="xMaxYMin meet">
         <g id="arrow_out" transform="scale(0.3 0.3)">
          <a xlink:href="classAlignedVector__coll__graph_org.svg" target="_base">
           <rect id="button" ry="5" rx="5" y="6" x="6" height="38" width="38"
                fill="#f2f5e9" fill-opacity="0.5" stroke="#606060" stroke-width="1.0"/>
           <path id="arrow"
             d="M 11.500037,31.436501 C 11.940474,20.09759 22.043105,11.32322 32.158766,21.979434 L 37.068811,17.246167 C 37.068811,17.246167 37.088388,32 37.088388,32 L 22.160133,31.978069 C 22.160133,31.978069 26.997745,27.140456 26.997745,27.140456 C 18.528582,18.264221 13.291696,25.230495 11.500037,31.436501 z"
             style="fill:#404040;"/>
          </a>
         </g>
        </svg>
</svg>
