<?xml version="1.0" encoding="UTF-8" standalone="no"?>
<!DOCTYPE svg PUBLIC "-//W3C//DTD SVG 1.1//EN"
 "http://www.w3.org/Graphics/SVG/1.1/DTD/svg11.dtd">
<!-- Generated by graphviz version 2.40.1 (20161225.0304)
 -->
<!-- Title: GeneralDataStorage Pages: 1 -->
<svg width="777pt" height="1103pt"
 viewBox="0.00 0.00 777.00 1103.00" xmlns="http://www.w3.org/2000/svg" xmlns:xlink="http://www.w3.org/1999/xlink">
<g id="graph0" class="graph" transform="scale(1 1) rotate(0) translate(4 1099)">
<title>GeneralDataStorage</title>
<polygon fill="#ffffff" stroke="transparent" points="-4,4 -4,-1099 773,-1099 773,4 -4,4"/>
<!-- Node2 -->
<g id="node1" class="node">
<title>Node2</title>
<polygon fill="#bfbfbf" stroke="#000000" points="306,-.5 306,-442.5 470,-442.5 470,-.5 306,-.5"/>
<text text-anchor="middle" x="388" y="-430.5" font-family="Helvetica,sans-Serif" font-size="10.00" fill="#000000">GeneralDataStorage</text>
<polyline fill="none" stroke="#000000" points="306,-423.5 470,-423.5 "/>
<text text-anchor="middle" x="388" y="-411.5" font-family="Helvetica,sans-Serif" font-size="10.00" fill="#000000"> </text>
<polyline fill="none" stroke="#000000" points="306,-404.5 470,-404.5 "/>
<text text-anchor="start" x="314" y="-392.5" font-family="Helvetica,sans-Serif" font-size="10.00" fill="#000000">+ GeneralDataStorage()</text>
<text text-anchor="start" x="314" y="-381.5" font-family="Helvetica,sans-Serif" font-size="10.00" fill="#000000">+ GeneralDataStorage()</text>
<text text-anchor="start" x="314" y="-370.5" font-family="Helvetica,sans-Serif" font-size="10.00" fill="#000000">+ GeneralDataStorage()</text>
<text text-anchor="start" x="314" y="-359.5" font-family="Helvetica,sans-Serif" font-size="10.00" fill="#000000">+ size()</text>
<text text-anchor="start" x="314" y="-348.5" font-family="Helvetica,sans-Serif" font-size="10.00" fill="#000000">+ merge()</text>
<text text-anchor="start" x="314" y="-337.5" font-family="Helvetica,sans-Serif" font-size="10.00" fill="#000000">+ print_info()</text>
<text text-anchor="start" x="314" y="-326.5" font-family="Helvetica,sans-Serif" font-size="10.00" fill="#000000">+ reset()</text>
<text text-anchor="start" x="314" y="-315.5" font-family="Helvetica,sans-Serif" font-size="10.00" fill="#000000">+ add_unique_copy()</text>
<text text-anchor="start" x="314" y="-304.5" font-family="Helvetica,sans-Serif" font-size="10.00" fill="#000000">+ add_or_overwrite_copy()</text>
<text text-anchor="start" x="314" y="-293.5" font-family="Helvetica,sans-Serif" font-size="10.00" fill="#000000">+ add_unique_reference()</text>
<text text-anchor="start" x="314" y="-282.5" font-family="Helvetica,sans-Serif" font-size="10.00" fill="#000000">+ add_or_overwrite_reference()</text>
<text text-anchor="start" x="314" y="-271.5" font-family="Helvetica,sans-Serif" font-size="10.00" fill="#000000">+ get_or_add_object_with_name()</text>
<text text-anchor="start" x="314" y="-260.5" font-family="Helvetica,sans-Serif" font-size="10.00" fill="#000000">+ get_or_add_object_with_name()</text>
<text text-anchor="start" x="314" y="-249.5" font-family="Helvetica,sans-Serif" font-size="10.00" fill="#000000">+ get_or_add_object_with_name()</text>
<text text-anchor="start" x="314" y="-238.5" font-family="Helvetica,sans-Serif" font-size="10.00" fill="#000000">+ get_or_add_object_with_name()</text>
<text text-anchor="start" x="314" y="-227.5" font-family="Helvetica,sans-Serif" font-size="10.00" fill="#000000">+ get_or_add_object_with_name()</text>
<text text-anchor="start" x="314" y="-216.5" font-family="Helvetica,sans-Serif" font-size="10.00" fill="#000000">+ get_object_with_name()</text>
<text text-anchor="start" x="314" y="-205.5" font-family="Helvetica,sans-Serif" font-size="10.00" fill="#000000">+ get_object_with_name()</text>
<text text-anchor="start" x="314" y="-194.5" font-family="Helvetica,sans-Serif" font-size="10.00" fill="#000000">+ stores_object_with_name()</text>
<text text-anchor="start" x="314" y="-183.5" font-family="Helvetica,sans-Serif" font-size="10.00" fill="#000000">+ remove_object_with_name()</text>
<text text-anchor="start" x="314" y="-172.5" font-family="Helvetica,sans-Serif" font-size="10.00" fill="#000000">+ ExcNameNotFound()</text>
<text text-anchor="start" x="314" y="-161.5" font-family="Helvetica,sans-Serif" font-size="10.00" fill="#000000">+ ExcNameHasBeenFound()</text>
<text text-anchor="start" x="314" y="-150.5" font-family="Helvetica,sans-Serif" font-size="10.00" fill="#000000">+ ExcTypeMismatch()</text>
<text text-anchor="start" x="314" y="-139.5" font-family="Helvetica,sans-Serif" font-size="10.00" fill="#000000">* add_unique_copy()</text>
<text text-anchor="start" x="314" y="-128.5" font-family="Helvetica,sans-Serif" font-size="10.00" fill="#000000">* add_or_overwrite_copy()</text>
<text text-anchor="start" x="314" y="-117.5" font-family="Helvetica,sans-Serif" font-size="10.00" fill="#000000">* add_unique_reference()</text>
<text text-anchor="start" x="314" y="-106.5" font-family="Helvetica,sans-Serif" font-size="10.00" fill="#000000">* add_or_overwrite_reference()</text>
<text text-anchor="start" x="314" y="-95.5" font-family="Helvetica,sans-Serif" font-size="10.00" fill="#000000">* get_or_add_object_with_name()</text>
<text text-anchor="start" x="314" y="-84.5" font-family="Helvetica,sans-Serif" font-size="10.00" fill="#000000">* get_or_add_object_with_name()</text>
<text text-anchor="start" x="314" y="-73.5" font-family="Helvetica,sans-Serif" font-size="10.00" fill="#000000">* get_or_add_object_with_name()</text>
<text text-anchor="start" x="314" y="-62.5" font-family="Helvetica,sans-Serif" font-size="10.00" fill="#000000">* get_or_add_object_with_name()</text>
<text text-anchor="start" x="314" y="-51.5" font-family="Helvetica,sans-Serif" font-size="10.00" fill="#000000">* get_or_add_object_with_name()</text>
<text text-anchor="start" x="314" y="-40.5" font-family="Helvetica,sans-Serif" font-size="10.00" fill="#000000">* get_object_with_name()</text>
<text text-anchor="start" x="314" y="-29.5" font-family="Helvetica,sans-Serif" font-size="10.00" fill="#000000">* get_object_with_name()</text>
<text text-anchor="start" x="314" y="-18.5" font-family="Helvetica,sans-Serif" font-size="10.00" fill="#000000">* stores_object_with_name()</text>
<text text-anchor="start" x="314" y="-7.5" font-family="Helvetica,sans-Serif" font-size="10.00" fill="#000000">* remove_object_with_name()</text>
</g>
<!-- Node3 -->
<g id="node2" class="node">
<title>Node3</title>
<g id="a_node2"><a xlink:href="classSubscriptor.html" target="_top" xlink:title="{Subscriptor\n||+ Subscriptor()\l+ Subscriptor()\l+ Subscriptor()\l+ ~Subscriptor()\l+ operator=()\l+ operator=()\l+ serialize()\l+ subscribe()\l+ unsubscribe()\l+ n_subscriptions()\l+ list_subscribers()\l+ list_subscribers()\l+ ExcInUse()\l+ ExcNoSubscriber()\l&#45; check_no_subscribers()\l* subscribe()\l* unsubscribe()\l* n_subscriptions()\l* list_subscribers()\l* list_subscribers()\l}">
<polygon fill="#ffffff" stroke="#000000" points="241,-480.5 241,-746.5 367,-746.5 367,-480.5 241,-480.5"/>
<text text-anchor="middle" x="304" y="-734.5" font-family="Helvetica,sans-Serif" font-size="10.00" fill="#000000">Subscriptor</text>
<polyline fill="none" stroke="#000000" points="241,-727.5 367,-727.5 "/>
<text text-anchor="middle" x="304" y="-715.5" font-family="Helvetica,sans-Serif" font-size="10.00" fill="#000000"> </text>
<polyline fill="none" stroke="#000000" points="241,-708.5 367,-708.5 "/>
<text text-anchor="start" x="249" y="-696.5" font-family="Helvetica,sans-Serif" font-size="10.00" fill="#000000">+ Subscriptor()</text>
<text text-anchor="start" x="249" y="-685.5" font-family="Helvetica,sans-Serif" font-size="10.00" fill="#000000">+ Subscriptor()</text>
<text text-anchor="start" x="249" y="-674.5" font-family="Helvetica,sans-Serif" font-size="10.00" fill="#000000">+ Subscriptor()</text>
<text text-anchor="start" x="249" y="-663.5" font-family="Helvetica,sans-Serif" font-size="10.00" fill="#000000">+ ~Subscriptor()</text>
<text text-anchor="start" x="249" y="-652.5" font-family="Helvetica,sans-Serif" font-size="10.00" fill="#000000">+ operator=()</text>
<text text-anchor="start" x="249" y="-641.5" font-family="Helvetica,sans-Serif" font-size="10.00" fill="#000000">+ operator=()</text>
<text text-anchor="start" x="249" y="-630.5" font-family="Helvetica,sans-Serif" font-size="10.00" fill="#000000">+ serialize()</text>
<text text-anchor="start" x="249" y="-619.5" font-family="Helvetica,sans-Serif" font-size="10.00" fill="#000000">+ subscribe()</text>
<text text-anchor="start" x="249" y="-608.5" font-family="Helvetica,sans-Serif" font-size="10.00" fill="#000000">+ unsubscribe()</text>
<text text-anchor="start" x="249" y="-597.5" font-family="Helvetica,sans-Serif" font-size="10.00" fill="#000000">+ n_subscriptions()</text>
<text text-anchor="start" x="249" y="-586.5" font-family="Helvetica,sans-Serif" font-size="10.00" fill="#000000">+ list_subscribers()</text>
<text text-anchor="start" x="249" y="-575.5" font-family="Helvetica,sans-Serif" font-size="10.00" fill="#000000">+ list_subscribers()</text>
<text text-anchor="start" x="249" y="-564.5" font-family="Helvetica,sans-Serif" font-size="10.00" fill="#000000">+ ExcInUse()</text>
<text text-anchor="start" x="249" y="-553.5" font-family="Helvetica,sans-Serif" font-size="10.00" fill="#000000">+ ExcNoSubscriber()</text>
<text text-anchor="start" x="249" y="-542.5" font-family="Helvetica,sans-Serif" font-size="10.00" fill="#000000">&#45; check_no_subscribers()</text>
<text text-anchor="start" x="249" y="-531.5" font-family="Helvetica,sans-Serif" font-size="10.00" fill="#000000">* subscribe()</text>
<text text-anchor="start" x="249" y="-520.5" font-family="Helvetica,sans-Serif" font-size="10.00" fill="#000000">* unsubscribe()</text>
<text text-anchor="start" x="249" y="-509.5" font-family="Helvetica,sans-Serif" font-size="10.00" fill="#000000">* n_subscriptions()</text>
<text text-anchor="start" x="249" y="-498.5" font-family="Helvetica,sans-Serif" font-size="10.00" fill="#000000">* list_subscribers()</text>
<text text-anchor="start" x="249" y="-487.5" font-family="Helvetica,sans-Serif" font-size="10.00" fill="#000000">* list_subscribers()</text>
</a>
</g>
</g>
<!-- Node3&#45;&gt;Node2 -->
<g id="edge1" class="edge">
<title>Node3&#45;&gt;Node2</title>
<path fill="none" stroke="#191970" d="M334.6559,-470.4391C336.6049,-461.3438 338.5891,-452.0842 340.59,-442.7468"/>
<polygon fill="none" stroke="#191970" points="331.2288,-469.7283 332.5558,-480.2397 338.0735,-471.195 331.2288,-469.7283"/>
</g>
<!-- Node4 -->
<g id="node3" class="node">
<title>Node4</title>
<polygon fill="#ffffff" stroke="#bfbfbf" points="0,-794.5 0,-862.5 110,-862.5 110,-794.5 0,-794.5"/>
<text text-anchor="start" x="8" y="-850.5" font-family="Helvetica,sans-Serif" font-size="10.00" fill="#000000">std::map&lt; std::string,</text>
<text text-anchor="middle" x="55" y="-839.5" font-family="Helvetica,sans-Serif" font-size="10.00" fill="#000000"> unsigned int &gt;</text>
<polyline fill="none" stroke="#bfbfbf" points="0,-832.5 110,-832.5 "/>
<text text-anchor="middle" x="55" y="-820.5" font-family="Helvetica,sans-Serif" font-size="10.00" fill="#000000"> </text>
<polyline fill="none" stroke="#bfbfbf" points="0,-813.5 110,-813.5 "/>
<text text-anchor="middle" x="55" y="-801.5" font-family="Helvetica,sans-Serif" font-size="10.00" fill="#000000"> </text>
</g>
<!-- Node4&#45;&gt;Node3 -->
<g id="edge2" class="edge">
<title>Node4&#45;&gt;Node3</title>
<path fill="none" stroke="#404040" d="M94.4548,-794.4326C131.2748,-762.6402 187.1046,-714.4338 231.88,-675.7723"/>
<polygon fill="none" stroke="#404040" points="231.8842,-675.7687 233.8114,-668.8198 240.9669,-667.9262 239.0397,-674.875 231.8842,-675.7687"/>
<text text-anchor="middle" x="152.5" y="-768" font-family="Helvetica,sans-Serif" font-size="10.00" fill="#000000"> &#45;counter_map</text>
</g>
<!-- Node5 -->
<g id="node4" class="node">
<title>Node5</title>
<g id="a_node4"><a xlink:href="classint.html" target="_top" xlink:title="{int\n||}">
<polygon fill="#ffffff" stroke="#000000" points="40.5,-921.5 40.5,-978.5 69.5,-978.5 69.5,-921.5 40.5,-921.5"/>
<text text-anchor="middle" x="55" y="-966.5" font-family="Helvetica,sans-Serif" font-size="10.00" fill="#000000">int</text>
<polyline fill="none" stroke="#000000" points="40.5,-959.5 69.5,-959.5 "/>
<text text-anchor="middle" x="55" y="-947.5" font-family="Helvetica,sans-Serif" font-size="10.00" fill="#000000"> </text>
<polyline fill="none" stroke="#000000" points="40.5,-940.5 69.5,-940.5 "/>
<text text-anchor="middle" x="55" y="-928.5" font-family="Helvetica,sans-Serif" font-size="10.00" fill="#000000"> </text>
</a>
</g>
</g>
<!-- Node5&#45;&gt;Node4 -->
<g id="edge3" class="edge">
<title>Node5&#45;&gt;Node4</title>
<path fill="none" stroke="#404040" d="M55,-921.2062C55,-907.3632 55,-890.4255 55,-874.8327"/>
<polygon fill="none" stroke="#404040" points="55.0001,-874.7007 51,-868.7008 55,-862.7007 59,-868.7007 55.0001,-874.7007"/>
<text text-anchor="middle" x="79.5" y="-889.5" font-family="Helvetica,sans-Serif" font-size="10.00" fill="#000000"> +elements</text>
</g>
<!-- Node6 -->
<g id="node5" class="node">
<title>Node6</title>
<g id="a_node5"><a xlink:title="STL class. ">
<polygon fill="#ffffff" stroke="#bfbfbf" points="142,-921.5 142,-978.5 202,-978.5 202,-921.5 142,-921.5"/>
<text text-anchor="middle" x="172" y="-966.5" font-family="Helvetica,sans-Serif" font-size="10.00" fill="#000000">std::string</text>
<polyline fill="none" stroke="#bfbfbf" points="142,-959.5 202,-959.5 "/>
<text text-anchor="middle" x="172" y="-947.5" font-family="Helvetica,sans-Serif" font-size="10.00" fill="#000000"> </text>
<polyline fill="none" stroke="#bfbfbf" points="142,-940.5 202,-940.5 "/>
<text text-anchor="middle" x="172" y="-928.5" font-family="Helvetica,sans-Serif" font-size="10.00" fill="#000000"> </text>
</a>
</g>
</g>
<!-- Node6&#45;&gt;Node4 -->
<g id="edge4" class="edge">
<title>Node6&#45;&gt;Node4</title>
<path fill="none" stroke="#404040" d="M145.8008,-921.2109C134.3191,-908.7362 120.6119,-894.033 108,-881 104.9378,-877.8355 101.7541,-874.5856 98.5352,-871.3287"/>
<polygon fill="none" stroke="#404040" points="98.4572,-871.2502 91.3894,-869.8195 89.9917,-862.7451 97.0595,-864.1759 98.4572,-871.2502"/>
<text text-anchor="middle" x="142.5" y="-889.5" font-family="Helvetica,sans-Serif" font-size="10.00" fill="#000000"> +keys</text>
</g>
<!-- Node17 -->
<g id="node16" class="node">
<title>Node17</title>
<polygon fill="#ffffff" stroke="#bfbfbf" points="406,-794.5 406,-862.5 516,-862.5 516,-794.5 406,-794.5"/>
<text text-anchor="start" x="414" y="-850.5" font-family="Helvetica,sans-Serif" font-size="10.00" fill="#000000">std::map&lt; std::string,</text>
<text text-anchor="middle" x="461" y="-839.5" font-family="Helvetica,sans-Serif" font-size="10.00" fill="#000000"> boost::any &gt;</text>
<polyline fill="none" stroke="#bfbfbf" points="406,-832.5 516,-832.5 "/>
<text text-anchor="middle" x="461" y="-820.5" font-family="Helvetica,sans-Serif" font-size="10.00" fill="#000000"> </text>
<polyline fill="none" stroke="#bfbfbf" points="406,-813.5 516,-813.5 "/>
<text text-anchor="middle" x="461" y="-801.5" font-family="Helvetica,sans-Serif" font-size="10.00" fill="#000000"> </text>
</g>
<!-- Node6&#45;&gt;Node17 -->
<g id="edge17" class="edge">
<title>Node6&#45;&gt;Node17</title>
<path fill="none" stroke="#404040" d="M187.5043,-921.1692C196.9203,-906.6088 210.3448,-890.1347 227,-881 290.3637,-846.2478 321.3214,-881.6316 394.1551,-863.2194"/>
<polygon fill="none" stroke="#404040" points="394.1682,-863.2157 398.8492,-857.7305 405.7129,-859.9418 401.0319,-865.427 394.1682,-863.2157"/>
<text text-anchor="middle" x="242.5" y="-889.5" font-family="Helvetica,sans-Serif" font-size="10.00" fill="#000000"> +keys</text>
</g>
<!-- Node7 -->
<g id="node6" class="node">
<title>Node7</title>
<g id="a_node6"><a xlink:title="STL class. ">
<polygon fill="#ffffff" stroke="#bfbfbf" points="124.5,-1026.5 124.5,-1094.5 219.5,-1094.5 219.5,-1026.5 124.5,-1026.5"/>
<text text-anchor="start" x="132.5" y="-1082.5" font-family="Helvetica,sans-Serif" font-size="10.00" fill="#000000">std::basic_string&lt;</text>
<text text-anchor="middle" x="172" y="-1071.5" font-family="Helvetica,sans-Serif" font-size="10.00" fill="#000000"> char &gt;</text>
<polyline fill="none" stroke="#bfbfbf" points="124.5,-1064.5 219.5,-1064.5 "/>
<text text-anchor="middle" x="172" y="-1052.5" font-family="Helvetica,sans-Serif" font-size="10.00" fill="#000000"> </text>
<polyline fill="none" stroke="#bfbfbf" points="124.5,-1045.5 219.5,-1045.5 "/>
<text text-anchor="middle" x="172" y="-1033.5" font-family="Helvetica,sans-Serif" font-size="10.00" fill="#000000"> </text>
</a>
</g>
</g>
<!-- Node7&#45;&gt;Node6 -->
<g id="edge5" class="edge">
<title>Node7&#45;&gt;Node6</title>
<path fill="none" stroke="#191970" d="M172,-1016.0661C172,-1003.4172 172,-989.9812 172,-978.5519"/>
<polygon fill="none" stroke="#191970" points="168.5001,-1016.4447 172,-1026.4447 175.5001,-1016.4447 168.5001,-1016.4447"/>
</g>
<!-- Node8 -->
<g id="node7" class="node">
<title>Node8</title>
<g id="a_node7"><a xlink:title="STL class. ">
<polygon fill="#ffffff" stroke="#bfbfbf" points="365,-921.5 365,-978.5 457,-978.5 457,-921.5 365,-921.5"/>
<text text-anchor="middle" x="411" y="-966.5" font-family="Helvetica,sans-Serif" font-size="10.00" fill="#000000">std::map&lt; K, T &gt;</text>
<polyline fill="none" stroke="#bfbfbf" points="365,-959.5 457,-959.5 "/>
<text text-anchor="middle" x="411" y="-947.5" font-family="Helvetica,sans-Serif" font-size="10.00" fill="#000000"> </text>
<polyline fill="none" stroke="#bfbfbf" points="365,-940.5 457,-940.5 "/>
<text text-anchor="middle" x="411" y="-928.5" font-family="Helvetica,sans-Serif" font-size="10.00" fill="#000000"> </text>
</a>
</g>
</g>
<!-- Node8&#45;&gt;Node4 -->
<g id="edge6" class="edge">
<title>Node8&#45;&gt;Node4</title>
<path fill="none" stroke="#ffa500" d="M355.4978,-926.786C338.2634,-919.3857 319.2635,-911.03 302,-903 282.1759,-893.7789 278.9086,-887.3917 258,-881 198.8492,-862.9178 178.9266,-881.7999 120,-863 116.7137,-861.9516 113.3976,-860.7405 110.0945,-859.4128"/>
<polygon fill="#ffa500" stroke="#ffa500" points="354.2976,-930.0793 364.8685,-930.7909 357.0486,-923.6425 354.2976,-930.0793"/>
<text text-anchor="start" x="302" y="-895" font-family="Helvetica,sans-Serif" font-size="10.00" fill="#000000"> &lt; std::string, unsigned</text>
<text text-anchor="middle" x="352.5" y="-884" font-family="Helvetica,sans-Serif" font-size="10.00" fill="#000000"> int &gt;</text>
</g>
<!-- Node8&#45;&gt;Node17 -->
<g id="edge19" class="edge">
<title>Node8&#45;&gt;Node17</title>
<path fill="none" stroke="#ffa500" d="M406.6591,-911.0064C406.8468,-900.9399 408.2478,-890.3208 412,-881 414.6073,-874.5232 418.4186,-868.3678 422.7825,-862.7031"/>
<polygon fill="#ffa500" stroke="#ffa500" points="403.1638,-911.2881 406.8551,-921.2191 410.1625,-911.1537 403.1638,-911.2881"/>
<text text-anchor="start" x="412" y="-895" font-family="Helvetica,sans-Serif" font-size="10.00" fill="#000000"> &lt; std::string, boost</text>
<text text-anchor="middle" x="455" y="-884" font-family="Helvetica,sans-Serif" font-size="10.00" fill="#000000">::any &gt;</text>
</g>
<!-- Node9 -->
<g id="node8" class="node">
<title>Node9</title>
<polygon fill="#ffffff" stroke="#bfbfbf" points="396.5,-1032 396.5,-1089 425.5,-1089 425.5,-1032 396.5,-1032"/>
<text text-anchor="middle" x="411" y="-1077" font-family="Helvetica,sans-Serif" font-size="10.00" fill="#000000">K</text>
<polyline fill="none" stroke="#bfbfbf" points="396.5,-1070 425.5,-1070 "/>
<text text-anchor="middle" x="411" y="-1058" font-family="Helvetica,sans-Serif" font-size="10.00" fill="#000000"> </text>
<polyline fill="none" stroke="#bfbfbf" points="396.5,-1051 425.5,-1051 "/>
<text text-anchor="middle" x="411" y="-1039" font-family="Helvetica,sans-Serif" font-size="10.00" fill="#000000"> </text>
</g>
<!-- Node9&#45;&gt;Node8 -->
<g id="edge7" class="edge">
<title>Node9&#45;&gt;Node8</title>
<path fill="none" stroke="#404040" d="M411,-1031.7559C411,-1019.2224 411,-1004.3039 411,-990.6631"/>
<polygon fill="none" stroke="#404040" points="411.0001,-990.6002 407,-984.6002 411,-978.6002 415,-984.6002 411.0001,-990.6002"/>
<text text-anchor="middle" x="426.5" y="-1000" font-family="Helvetica,sans-Serif" font-size="10.00" fill="#000000"> +keys</text>
</g>
<!-- Node10 -->
<g id="node9" class="node">
<title>Node10</title>
<polygon fill="#ffffff" stroke="#bfbfbf" points="530.5,-1032 530.5,-1089 559.5,-1089 559.5,-1032 530.5,-1032"/>
<text text-anchor="middle" x="545" y="-1077" font-family="Helvetica,sans-Serif" font-size="10.00" fill="#000000">T</text>
<polyline fill="none" stroke="#bfbfbf" points="530.5,-1070 559.5,-1070 "/>
<text text-anchor="middle" x="545" y="-1058" font-family="Helvetica,sans-Serif" font-size="10.00" fill="#000000"> </text>
<polyline fill="none" stroke="#bfbfbf" points="530.5,-1051 559.5,-1051 "/>
<text text-anchor="middle" x="545" y="-1039" font-family="Helvetica,sans-Serif" font-size="10.00" fill="#000000"> </text>
</g>
<!-- Node10&#45;&gt;Node8 -->
<g id="edge8" class="edge">
<title>Node10&#45;&gt;Node8</title>
<path fill="none" stroke="#404040" d="M530.4046,-1048.4642C512.462,-1033.6683 481.1887,-1007.8795 455.1479,-986.4056"/>
<polygon fill="none" stroke="#404040" points="455.0833,-986.3523 447.9093,-985.621 445.8251,-978.7177 452.999,-979.4489 455.0833,-986.3523"/>
<text text-anchor="middle" x="502.5" y="-1000" font-family="Helvetica,sans-Serif" font-size="10.00" fill="#000000"> +elements</text>
</g>
<!-- Node15 -->
<g id="node14" class="node">
<title>Node15</title>
<g id="a_node14"><a xlink:title="STL class. ">
<polygon fill="#ffffff" stroke="#bfbfbf" points="582.5,-921.5 582.5,-978.5 669.5,-978.5 669.5,-921.5 582.5,-921.5"/>
<text text-anchor="middle" x="626" y="-966.5" font-family="Helvetica,sans-Serif" font-size="10.00" fill="#000000">std::vector&lt; T &gt;</text>
<polyline fill="none" stroke="#bfbfbf" points="582.5,-959.5 669.5,-959.5 "/>
<text text-anchor="middle" x="626" y="-947.5" font-family="Helvetica,sans-Serif" font-size="10.00" fill="#000000"> </text>
<polyline fill="none" stroke="#bfbfbf" points="582.5,-940.5 669.5,-940.5 "/>
<text text-anchor="middle" x="626" y="-928.5" font-family="Helvetica,sans-Serif" font-size="10.00" fill="#000000"> </text>
</a>
</g>
</g>
<!-- Node10&#45;&gt;Node15 -->
<g id="edge14" class="edge">
<title>Node10&#45;&gt;Node15</title>
<path fill="none" stroke="#404040" d="M559.6685,-1040.4893C570.2631,-1026.0361 584.9054,-1006.0611 597.7384,-988.5544"/>
<polygon fill="none" stroke="#404040" points="597.9464,-988.2706 598.2676,-981.0666 605.0409,-978.5923 604.7198,-985.7963 597.9464,-988.2706"/>
<text text-anchor="middle" x="614.5" y="-1000" font-family="Helvetica,sans-Serif" font-size="10.00" fill="#000000"> +elements</text>
</g>
<!-- Node11 -->
<g id="node10" class="node">
<title>Node11</title>
<polygon fill="#ffffff" stroke="#bfbfbf" points="210,-800 210,-857 326,-857 326,-800 210,-800"/>
<text text-anchor="middle" x="268" y="-845" font-family="Helvetica,sans-Serif" font-size="10.00" fill="#000000">atomic&lt; unsigned int &gt;</text>
<polyline fill="none" stroke="#bfbfbf" points="210,-838 326,-838 "/>
<text text-anchor="middle" x="268" y="-826" font-family="Helvetica,sans-Serif" font-size="10.00" fill="#000000"> </text>
<polyline fill="none" stroke="#bfbfbf" points="210,-819 326,-819 "/>
<text text-anchor="middle" x="268" y="-807" font-family="Helvetica,sans-Serif" font-size="10.00" fill="#000000"> </text>
</g>
<!-- Node11&#45;&gt;Node3 -->
<g id="edge9" class="edge">
<title>Node11&#45;&gt;Node3</title>
<path fill="none" stroke="#404040" d="M272.7805,-799.9497C274.7162,-788.3895 277.1064,-774.1147 279.6958,-758.6501"/>
<polygon fill="none" stroke="#404040" points="279.7287,-758.4528 276.7746,-751.8746 281.7105,-746.6176 284.6647,-753.1958 279.7287,-758.4528"/>
<text text-anchor="middle" x="296.5" y="-768" font-family="Helvetica,sans-Serif" font-size="10.00" fill="#000000"> &#45;counter</text>
</g>
<!-- Node12 -->
<g id="node11" class="node">
<title>Node12</title>
<polygon fill="#ffffff" stroke="#bfbfbf" points="344,-800 344,-857 388,-857 388,-800 344,-800"/>
<text text-anchor="middle" x="366" y="-845" font-family="Helvetica,sans-Serif" font-size="10.00" fill="#000000">mutex</text>
<polyline fill="none" stroke="#bfbfbf" points="344,-838 388,-838 "/>
<text text-anchor="middle" x="366" y="-826" font-family="Helvetica,sans-Serif" font-size="10.00" fill="#000000"> </text>
<polyline fill="none" stroke="#bfbfbf" points="344,-819 388,-819 "/>
<text text-anchor="middle" x="366" y="-807" font-family="Helvetica,sans-Serif" font-size="10.00" fill="#000000"> </text>
</g>
<!-- Node12&#45;&gt;Node3 -->
<g id="edge10" class="edge">
<title>Node12&#45;&gt;Node3</title>
<path fill="none" stroke="#404040" d="M357.7669,-799.9497C354.4006,-788.2762 350.236,-773.8346 345.726,-758.1949"/>
<polygon fill="none" stroke="#404040" points="345.7124,-758.1477 340.2065,-753.491 342.3874,-746.6176 347.8933,-751.2743 345.7124,-758.1477"/>
<text text-anchor="middle" x="366" y="-768" font-family="Helvetica,sans-Serif" font-size="10.00" fill="#000000"> &#45;mutex</text>
</g>
<!-- Node13 -->
<g id="node12" class="node">
<title>Node13</title>
<polygon fill="#ffffff" stroke="#bfbfbf" points="534.5,-794.5 534.5,-862.5 655.5,-862.5 655.5,-794.5 534.5,-794.5"/>
<text text-anchor="start" x="542.5" y="-850.5" font-family="Helvetica,sans-Serif" font-size="10.00" fill="#000000">std::vector&lt; std::atomic</text>
<text text-anchor="middle" x="595" y="-839.5" font-family="Helvetica,sans-Serif" font-size="10.00" fill="#000000">&lt; bool &gt; *&gt;</text>
<polyline fill="none" stroke="#bfbfbf" points="534.5,-832.5 655.5,-832.5 "/>
<text text-anchor="middle" x="595" y="-820.5" font-family="Helvetica,sans-Serif" font-size="10.00" fill="#000000"> </text>
<polyline fill="none" stroke="#bfbfbf" points="534.5,-813.5 655.5,-813.5 "/>
<text text-anchor="middle" x="595" y="-801.5" font-family="Helvetica,sans-Serif" font-size="10.00" fill="#000000"> </text>
</g>
<!-- Node13&#45;&gt;Node3 -->
<g id="edge11" class="edge">
<title>Node13&#45;&gt;Node3</title>
<path fill="none" stroke="#404040" d="M534.3842,-798.3907C531.2174,-796.8912 528.0753,-795.4197 525,-794 477.1018,-771.8872 458.3177,-778.5027 416,-747 401.5676,-736.256 387.7962,-723.299 375.1577,-709.737"/>
<polygon fill="none" stroke="#404040" points="375.077,-709.648 368.0843,-707.8869 367.0204,-700.7547 374.0131,-702.5158 375.077,-709.648"/>
<text text-anchor="middle" x="512.5" y="-768" font-family="Helvetica,sans-Serif" font-size="10.00" fill="#000000"> &#45;validity_pointers</text>
</g>
<!-- Node14 -->
<g id="node13" class="node">
<title>Node14</title>
<polygon fill="#ffffff" stroke="#bfbfbf" points="475.5,-921.5 475.5,-978.5 564.5,-978.5 564.5,-921.5 475.5,-921.5"/>
<text text-anchor="middle" x="520" y="-966.5" font-family="Helvetica,sans-Serif" font-size="10.00" fill="#000000">atomic&lt; bool &gt; *</text>
<polyline fill="none" stroke="#bfbfbf" points="475.5,-959.5 564.5,-959.5 "/>
<text text-anchor="middle" x="520" y="-947.5" font-family="Helvetica,sans-Serif" font-size="10.00" fill="#000000"> </text>
<polyline fill="none" stroke="#bfbfbf" points="475.5,-940.5 564.5,-940.5 "/>
<text text-anchor="middle" x="520" y="-928.5" font-family="Helvetica,sans-Serif" font-size="10.00" fill="#000000"> </text>
</g>
<!-- Node14&#45;&gt;Node13 -->
<g id="edge12" class="edge">
<title>Node14&#45;&gt;Node13</title>
<path fill="none" stroke="#404040" d="M524.2211,-921.3945C527.0305,-908.3986 531.6148,-893.2322 539,-881 540.9017,-877.8502 543.0446,-874.7691 545.3545,-871.7786"/>
<polygon fill="none" stroke="#404040" points="545.4255,-871.6953 546.2733,-864.5342 553.2096,-862.5625 552.3618,-869.7237 545.4255,-871.6953"/>
<text text-anchor="middle" x="563.5" y="-889.5" font-family="Helvetica,sans-Serif" font-size="10.00" fill="#000000"> +elements</text>
</g>
<!-- Node15&#45;&gt;Node13 -->
<g id="edge13" class="edge">
<title>Node15&#45;&gt;Node13</title>
<path fill="none" stroke="#ffa500" d="M599.5757,-912.3805C598.1657,-909.2978 596.9436,-906.1531 596,-903 592.1804,-890.236 591.2726,-875.6829 591.5517,-862.8467"/>
<polygon fill="#ffa500" stroke="#ffa500" points="596.5484,-914.1448 604.2788,-921.3898 602.7537,-910.9053 596.5484,-914.1448"/>
<text text-anchor="middle" x="651" y="-889.5" font-family="Helvetica,sans-Serif" font-size="10.00" fill="#000000"> &lt; std::atomic&lt; bool &gt; *&gt;</text>
</g>
<!-- Node16 -->
<g id="node15" class="node">
<title>Node16</title>
<polygon fill="#ffffff" stroke="#bfbfbf" points="128.5,-800 128.5,-857 191.5,-857 191.5,-800 128.5,-800"/>
<text text-anchor="middle" x="160" y="-845" font-family="Helvetica,sans-Serif" font-size="10.00" fill="#000000">type_info *</text>
<polyline fill="none" stroke="#bfbfbf" points="128.5,-838 191.5,-838 "/>
<text text-anchor="middle" x="160" y="-826" font-family="Helvetica,sans-Serif" font-size="10.00" fill="#000000"> </text>
<polyline fill="none" stroke="#bfbfbf" points="128.5,-819 191.5,-819 "/>
<text text-anchor="middle" x="160" y="-807" font-family="Helvetica,sans-Serif" font-size="10.00" fill="#000000"> </text>
</g>
<!-- Node16&#45;&gt;Node3 -->
<g id="edge15" class="edge">
<title>Node16&#45;&gt;Node3</title>
<path fill="none" stroke="#404040" d="M179.1221,-799.9497C193.3503,-778.7061 213.7185,-748.2952 233.889,-718.1797"/>
<polygon fill="none" stroke="#404040" points="234.0348,-717.9619 234.0503,-710.7508 240.7126,-707.9916 240.6972,-715.2027 234.0348,-717.9619"/>
<text text-anchor="middle" x="225" y="-768" font-family="Helvetica,sans-Serif" font-size="10.00" fill="#000000"> &#45;object_info</text>
</g>
<!-- Node17&#45;&gt;Node2 -->
<g id="edge16" class="edge">
<title>Node17&#45;&gt;Node2</title>
<path fill="none" stroke="#404040" d="M454.87,-794.3715C453.8527,-788.2633 452.8527,-781.9501 452,-776 436.9235,-670.8004 423.0191,-553.9739 412.0495,-454.7878"/>
<polygon fill="none" stroke="#404040" points="412.0409,-454.7092 407.4077,-449.1834 410.7264,-442.7814 415.3595,-448.3071 412.0409,-454.7092"/>
<text text-anchor="middle" x="470" y="-611" font-family="Helvetica,sans-Serif" font-size="10.00" fill="#000000"> &#45;any_data</text>
</g>
<!-- Node18 -->
<g id="node17" class="node">
<title>Node18</title>
<polygon fill="#ffffff" stroke="#bfbfbf" points="712,-921.5 712,-978.5 744,-978.5 744,-921.5 712,-921.5"/>
<text text-anchor="middle" x="728" y="-966.5" font-family="Helvetica,sans-Serif" font-size="10.00" fill="#000000">any</text>
<polyline fill="none" stroke="#bfbfbf" points="712,-959.5 744,-959.5 "/>
<text text-anchor="middle" x="728" y="-947.5" font-family="Helvetica,sans-Serif" font-size="10.00" fill="#000000"> </text>
<polyline fill="none" stroke="#bfbfbf" points="712,-940.5 744,-940.5 "/>
<text text-anchor="middle" x="728" y="-928.5" font-family="Helvetica,sans-Serif" font-size="10.00" fill="#000000"> </text>
</g>
<!-- Node18&#45;&gt;Node17 -->
<g id="edge18" class="edge">
<title>Node18&#45;&gt;Node17</title>
<path fill="none" stroke="#404040" d="M726.086,-921.3626C723.5646,-907.0443 718.0165,-890.7353 706,-881 677.0831,-857.5726 580.4122,-872.0732 527.8033,-862.3652"/>
<polygon fill="none" stroke="#404040" points="527.723,-862.3459 520.9522,-864.8272 516.0576,-859.5315 522.8284,-857.0503 527.723,-862.3459"/>
<text text-anchor="middle" x="744.5" y="-889.5" font-family="Helvetica,sans-Serif" font-size="10.00" fill="#000000"> +elements</text>
</g>
</g>
</svg>
