<?xml version="1.0" encoding="UTF-8" standalone="no"?>
<!DOCTYPE svg PUBLIC "-//W3C//DTD SVG 1.1//EN"
 "http://www.w3.org/Graphics/SVG/1.1/DTD/svg11.dtd">
<!-- Generated by graphviz version 2.40.1 (20161225.0304)
 -->
<!-- Title: TrilinosWrappers::PreconditionSSOR Pages: 1 -->
<svg width="198pt" height="140pt"
 viewBox="0.00 0.00 198.00 140.00" xmlns="http://www.w3.org/2000/svg" xmlns:xlink="http://www.w3.org/1999/xlink">
<g id="graph0" class="graph" transform="scale(1 1) rotate(0) translate(4 136)">
<title>TrilinosWrappers::PreconditionSSOR</title>
<polygon fill="#ffffff" stroke="transparent" points="-4,4 -4,-136 194,-136 194,4 -4,4"/>
<!-- Node0 -->
<g id="node1" class="node">
<title>Node0</title>
<polygon fill="#bfbfbf" stroke="#000000" points="0,-.5 0,-19.5 190,-19.5 190,-.5 0,-.5"/>
<text text-anchor="middle" x="95" y="-7.5" font-family="Helvetica,sans-Serif" font-size="10.00" fill="#000000">TrilinosWrappers::PreconditionSSOR</text>
</g>
<!-- Node1 -->
<g id="node2" class="node">
<title>Node1</title>
<g id="a_node2"><a xlink:href="classTrilinosWrappers_1_1PreconditionBase.html" target="_top" xlink:title="TrilinosWrappers::PreconditionBase">
<polygon fill="#ffffff" stroke="#000000" points="1,-56.5 1,-75.5 189,-75.5 189,-56.5 1,-56.5"/>
<text text-anchor="middle" x="95" y="-63.5" font-family="Helvetica,sans-Serif" font-size="10.00" fill="#000000">TrilinosWrappers::PreconditionBase</text>
</a>
</g>
</g>
<!-- Node1&#45;&gt;Node0 -->
<g id="edge1" class="edge">
<title>Node1&#45;&gt;Node0</title>
<path fill="none" stroke="#191970" d="M95,-46.1575C95,-37.155 95,-26.9199 95,-19.6427"/>
<polygon fill="#191970" stroke="#191970" points="91.5001,-46.2455 95,-56.2455 98.5001,-46.2456 91.5001,-46.2455"/>
</g>
<!-- Node2 -->
<g id="node3" class="node">
<title>Node2</title>
<g id="a_node3"><a xlink:href="classSubscriptor.html" target="_top" xlink:title="Subscriptor">
<polygon fill="#ffffff" stroke="#000000" points="59.5,-112.5 59.5,-131.5 130.5,-131.5 130.5,-112.5 59.5,-112.5"/>
<text text-anchor="middle" x="95" y="-119.5" font-family="Helvetica,sans-Serif" font-size="10.00" fill="#000000">Subscriptor</text>
</a>
</g>
</g>
<!-- Node2&#45;&gt;Node1 -->
<g id="edge2" class="edge">
<title>Node2&#45;&gt;Node1</title>
<path fill="none" stroke="#191970" d="M95,-102.1575C95,-93.155 95,-82.9199 95,-75.6427"/>
<polygon fill="#191970" stroke="#191970" points="91.5001,-102.2455 95,-112.2455 98.5001,-102.2456 91.5001,-102.2455"/>
</g>
</g>
</svg>
