<?xml version="1.0" encoding="UTF-8" standalone="no"?>
<!DOCTYPE svg PUBLIC "-//W3C//DTD SVG 1.1//EN"
 "http://www.w3.org/Graphics/SVG/1.1/DTD/svg11.dtd">
<!-- Generated by graphviz version 2.40.1 (20161225.0304)
 -->
<!-- Title: PolynomialsRaviartThomas&lt; dim &gt; Pages: 1 -->
<svg width="316pt" height="452pt"
 viewBox="0.00 0.00 315.50 452.00" xmlns="http://www.w3.org/2000/svg" xmlns:xlink="http://www.w3.org/1999/xlink">
<g id="graph0" class="graph" transform="scale(1 1) rotate(0) translate(4 448)">
<title>PolynomialsRaviartThomas&lt; dim &gt;</title>
<polygon fill="#ffffff" stroke="transparent" points="-4,4 -4,-448 311.5,-448 311.5,4 -4,4"/>
<!-- Node2 -->
<g id="node1" class="node">
<title>Node2</title>
<polygon fill="#bfbfbf" stroke="#000000" points="76.5,-.5 76.5,-123.5 228.5,-123.5 228.5,-.5 76.5,-.5"/>
<text text-anchor="start" x="84.5" y="-111.5" font-family="Helvetica,sans-Serif" font-size="10.00" fill="#000000">PolynomialsRaviartThomas</text>
<text text-anchor="middle" x="152.5" y="-100.5" font-family="Helvetica,sans-Serif" font-size="10.00" fill="#000000">&lt; dim &gt;</text>
<polyline fill="none" stroke="#000000" points="76.5,-93.5 228.5,-93.5 "/>
<text text-anchor="middle" x="152.5" y="-81.5" font-family="Helvetica,sans-Serif" font-size="10.00" fill="#000000"> </text>
<polyline fill="none" stroke="#000000" points="76.5,-74.5 228.5,-74.5 "/>
<text text-anchor="start" x="84.5" y="-62.5" font-family="Helvetica,sans-Serif" font-size="10.00" fill="#000000">+ PolynomialsRaviartThomas()</text>
<text text-anchor="start" x="84.5" y="-51.5" font-family="Helvetica,sans-Serif" font-size="10.00" fill="#000000">+ evaluate()</text>
<text text-anchor="start" x="84.5" y="-40.5" font-family="Helvetica,sans-Serif" font-size="10.00" fill="#000000">+ name()</text>
<text text-anchor="start" x="84.5" y="-29.5" font-family="Helvetica,sans-Serif" font-size="10.00" fill="#000000">+ clone()</text>
<text text-anchor="start" x="84.5" y="-18.5" font-family="Helvetica,sans-Serif" font-size="10.00" fill="#000000">+ n_polynomials()</text>
<text text-anchor="start" x="84.5" y="-7.5" font-family="Helvetica,sans-Serif" font-size="10.00" fill="#000000">&#45; create_polynomials()</text>
</g>
<!-- Node3 -->
<g id="node2" class="node">
<title>Node3</title>
<g id="a_node2"><a xlink:href="classTensorPolynomialsBase.html" target="_top" xlink:title="{TensorPolynomialsBase\l\&lt; dim \&gt;\n||+ TensorPolynomialsBase()\l+ TensorPolynomialsBase()\l+ TensorPolynomialsBase()\l+ ~TensorPolynomialsBase()\l+ evaluate()\l+ n()\l+ degree()\l+ clone()\l+ name()\l}">
<polygon fill="#ffffff" stroke="#000000" points="0,-171.5 0,-327.5 143,-327.5 143,-171.5 0,-171.5"/>
<text text-anchor="start" x="8" y="-315.5" font-family="Helvetica,sans-Serif" font-size="10.00" fill="#000000">TensorPolynomialsBase</text>
<text text-anchor="middle" x="71.5" y="-304.5" font-family="Helvetica,sans-Serif" font-size="10.00" fill="#000000">&lt; dim &gt;</text>
<polyline fill="none" stroke="#000000" points="0,-297.5 143,-297.5 "/>
<text text-anchor="middle" x="71.5" y="-285.5" font-family="Helvetica,sans-Serif" font-size="10.00" fill="#000000"> </text>
<polyline fill="none" stroke="#000000" points="0,-278.5 143,-278.5 "/>
<text text-anchor="start" x="8" y="-266.5" font-family="Helvetica,sans-Serif" font-size="10.00" fill="#000000">+ TensorPolynomialsBase()</text>
<text text-anchor="start" x="8" y="-255.5" font-family="Helvetica,sans-Serif" font-size="10.00" fill="#000000">+ TensorPolynomialsBase()</text>
<text text-anchor="start" x="8" y="-244.5" font-family="Helvetica,sans-Serif" font-size="10.00" fill="#000000">+ TensorPolynomialsBase()</text>
<text text-anchor="start" x="8" y="-233.5" font-family="Helvetica,sans-Serif" font-size="10.00" fill="#000000">+ ~TensorPolynomialsBase()</text>
<text text-anchor="start" x="8" y="-222.5" font-family="Helvetica,sans-Serif" font-size="10.00" fill="#000000">+ evaluate()</text>
<text text-anchor="start" x="8" y="-211.5" font-family="Helvetica,sans-Serif" font-size="10.00" fill="#000000">+ n()</text>
<text text-anchor="start" x="8" y="-200.5" font-family="Helvetica,sans-Serif" font-size="10.00" fill="#000000">+ degree()</text>
<text text-anchor="start" x="8" y="-189.5" font-family="Helvetica,sans-Serif" font-size="10.00" fill="#000000">+ clone()</text>
<text text-anchor="start" x="8" y="-178.5" font-family="Helvetica,sans-Serif" font-size="10.00" fill="#000000">+ name()</text>
</a>
</g>
</g>
<!-- Node3&#45;&gt;Node2 -->
<g id="edge1" class="edge">
<title>Node3&#45;&gt;Node2</title>
<path fill="none" stroke="#191970" d="M109.3078,-161.9821C114.8851,-149.0716 120.5308,-136.0027 125.8193,-123.7608"/>
<polygon fill="none" stroke="#191970" points="106.0176,-160.7728 105.2648,-171.3408 112.4436,-163.5489 106.0176,-160.7728"/>
</g>
<!-- Node4 -->
<g id="node3" class="node">
<title>Node4</title>
<polygon fill="#ffffff" stroke="#bfbfbf" points="43.5,-386.5 43.5,-443.5 99.5,-443.5 99.5,-386.5 43.5,-386.5"/>
<text text-anchor="middle" x="71.5" y="-431.5" font-family="Helvetica,sans-Serif" font-size="10.00" fill="#000000">unsigned</text>
<polyline fill="none" stroke="#bfbfbf" points="43.5,-424.5 99.5,-424.5 "/>
<text text-anchor="middle" x="71.5" y="-412.5" font-family="Helvetica,sans-Serif" font-size="10.00" fill="#000000"> </text>
<polyline fill="none" stroke="#bfbfbf" points="43.5,-405.5 99.5,-405.5 "/>
<text text-anchor="middle" x="71.5" y="-393.5" font-family="Helvetica,sans-Serif" font-size="10.00" fill="#000000"> </text>
</g>
<!-- Node4&#45;&gt;Node3 -->
<g id="edge2" class="edge">
<title>Node4&#45;&gt;Node3</title>
<path fill="none" stroke="#404040" d="M71.5,-386.1721C71.5,-373.0561 71.5,-356.7388 71.5,-339.9949"/>
<polygon fill="none" stroke="#404040" points="71.5001,-339.767 67.5,-333.767 71.5,-327.767 75.5,-333.7669 71.5001,-339.767"/>
<text text-anchor="middle" x="115.5" y="-360" font-family="Helvetica,sans-Serif" font-size="10.00" fill="#000000"> &#45;polynomial_degree</text>
<text text-anchor="middle" x="115.5" y="-349" font-family="Helvetica,sans-Serif" font-size="10.00" fill="#000000">&#45;n_pols</text>
</g>
<!-- Node5 -->
<g id="node4" class="node">
<title>Node5</title>
<polygon fill="#ffffff" stroke="#bfbfbf" points="161.5,-215.5 161.5,-283.5 307.5,-283.5 307.5,-215.5 161.5,-215.5"/>
<text text-anchor="start" x="169.5" y="-271.5" font-family="Helvetica,sans-Serif" font-size="10.00" fill="#000000">const AnisotropicPolynomials</text>
<text text-anchor="middle" x="234.5" y="-260.5" font-family="Helvetica,sans-Serif" font-size="10.00" fill="#000000">&lt; dim &gt;</text>
<polyline fill="none" stroke="#bfbfbf" points="161.5,-253.5 307.5,-253.5 "/>
<text text-anchor="middle" x="234.5" y="-241.5" font-family="Helvetica,sans-Serif" font-size="10.00" fill="#000000"> </text>
<polyline fill="none" stroke="#bfbfbf" points="161.5,-234.5 307.5,-234.5 "/>
<text text-anchor="middle" x="234.5" y="-222.5" font-family="Helvetica,sans-Serif" font-size="10.00" fill="#000000"> </text>
</g>
<!-- Node5&#45;&gt;Node2 -->
<g id="edge3" class="edge">
<title>Node5&#45;&gt;Node2</title>
<path fill="none" stroke="#404040" d="M219.4599,-215.1096C209.6664,-192.716 196.5159,-162.6461 184.4621,-135.0842"/>
<polygon fill="none" stroke="#404040" points="184.3624,-134.8559 178.2933,-130.9614 179.554,-123.8613 185.6231,-127.7558 184.3624,-134.8559"/>
<text text-anchor="middle" x="234" y="-145" font-family="Helvetica,sans-Serif" font-size="10.00" fill="#000000"> &#45;polynomial_space</text>
</g>
</g>
</svg>
