<?xml version="1.0" encoding="UTF-8" standalone="no"?>
<!DOCTYPE svg PUBLIC "-//W3C//DTD SVG 1.1//EN"
 "http://www.w3.org/Graphics/SVG/1.1/DTD/svg11.dtd">
<!-- Generated by graphviz version 2.40.1 (20161225.0304)
 -->
<!-- Title: Differentiation::AD::HelperBase&lt; ADNumberTypeCode, ScalarType &gt; Pages: 1 -->
<svg width="642pt" height="230pt"
 viewBox="0.00 0.00 642.00 230.00" xmlns="http://www.w3.org/2000/svg" xmlns:xlink="http://www.w3.org/1999/xlink">
<g id="graph0" class="graph" transform="scale(1 1) rotate(0) translate(4 226)">
<title>Differentiation::AD::HelperBase&lt; ADNumberTypeCode, ScalarType &gt;</title>
<polygon fill="#ffffff" stroke="transparent" points="-4,4 -4,-226 638,-226 638,4 -4,4"/>
<!-- Node0 -->
<g id="node1" class="node">
<title>Node0</title>
<polygon fill="#bfbfbf" stroke="#000000" points="0,-90.5 0,-131.5 166,-131.5 166,-90.5 0,-90.5"/>
<text text-anchor="start" x="8" y="-119.5" font-family="Helvetica,sans-Serif" font-size="10.00" fill="#000000">Differentiation::AD</text>
<text text-anchor="start" x="8" y="-108.5" font-family="Helvetica,sans-Serif" font-size="10.00" fill="#000000">::HelperBase&lt; ADNumberType</text>
<text text-anchor="middle" x="83" y="-97.5" font-family="Helvetica,sans-Serif" font-size="10.00" fill="#000000">Code, ScalarType &gt;</text>
</g>
<!-- Node1 -->
<g id="node2" class="node">
<title>Node1</title>
<g id="a_node2"><a xlink:href="classDifferentiation_1_1AD_1_1CellLevelBase.html" target="_top" xlink:title="Differentiation::AD\l::CellLevelBase\&lt; ADNumberType\lCode, ScalarType \&gt;">
<polygon fill="#ffffff" stroke="#000000" points="211.5,-120.5 211.5,-161.5 390.5,-161.5 390.5,-120.5 211.5,-120.5"/>
<text text-anchor="start" x="219.5" y="-149.5" font-family="Helvetica,sans-Serif" font-size="10.00" fill="#000000">Differentiation::AD</text>
<text text-anchor="start" x="219.5" y="-138.5" font-family="Helvetica,sans-Serif" font-size="10.00" fill="#000000">::CellLevelBase&lt; ADNumberType</text>
<text text-anchor="middle" x="301" y="-127.5" font-family="Helvetica,sans-Serif" font-size="10.00" fill="#000000">Code, ScalarType &gt;</text>
</a>
</g>
</g>
<!-- Node0&#45;&gt;Node1 -->
<g id="edge1" class="edge">
<title>Node0&#45;&gt;Node1</title>
<path fill="none" stroke="#191970" d="M176.1884,-123.8241C187.8261,-125.4256 199.7095,-127.0609 211.2926,-128.6549"/>
<polygon fill="#191970" stroke="#191970" points="176.4222,-120.3234 166.0383,-122.4273 175.4678,-127.258 176.4222,-120.3234"/>
</g>
<!-- Node4 -->
<g id="node5" class="node">
<title>Node4</title>
<g id="a_node5"><a xlink:href="classDifferentiation_1_1AD_1_1PointLevelFunctionsBase.html" target="_top" xlink:title="Differentiation::AD\l::PointLevelFunctionsBase\l\&lt; ADNumberTypeCode, ScalarType \&gt;">
<polygon fill="#ffffff" stroke="#000000" points="202,-60.5 202,-101.5 400,-101.5 400,-60.5 202,-60.5"/>
<text text-anchor="start" x="210" y="-89.5" font-family="Helvetica,sans-Serif" font-size="10.00" fill="#000000">Differentiation::AD</text>
<text text-anchor="start" x="210" y="-78.5" font-family="Helvetica,sans-Serif" font-size="10.00" fill="#000000">::PointLevelFunctionsBase</text>
<text text-anchor="middle" x="301" y="-67.5" font-family="Helvetica,sans-Serif" font-size="10.00" fill="#000000">&lt; ADNumberTypeCode, ScalarType &gt;</text>
</a>
</g>
</g>
<!-- Node0&#45;&gt;Node4 -->
<g id="edge4" class="edge">
<title>Node0&#45;&gt;Node4</title>
<path fill="none" stroke="#191970" d="M175.9734,-98.2055C184.5,-97.0321 193.1602,-95.8403 201.7394,-94.6597"/>
<polygon fill="#191970" stroke="#191970" points="175.4678,-94.742 166.0383,-99.5727 176.4222,-101.6766 175.4678,-94.742"/>
</g>
<!-- Node2 -->
<g id="node3" class="node">
<title>Node2</title>
<g id="a_node3"><a xlink:href="classDifferentiation_1_1AD_1_1EnergyFunctional.html" target="_top" xlink:title="Differentiation::AD\l::EnergyFunctional\&lt;\l ADNumberTypeCode, ScalarType \&gt;">
<polygon fill="#ffffff" stroke="#000000" points="440,-180.5 440,-221.5 630,-221.5 630,-180.5 440,-180.5"/>
<text text-anchor="start" x="448" y="-209.5" font-family="Helvetica,sans-Serif" font-size="10.00" fill="#000000">Differentiation::AD</text>
<text text-anchor="start" x="448" y="-198.5" font-family="Helvetica,sans-Serif" font-size="10.00" fill="#000000">::EnergyFunctional&lt;</text>
<text text-anchor="middle" x="535" y="-187.5" font-family="Helvetica,sans-Serif" font-size="10.00" fill="#000000"> ADNumberTypeCode, ScalarType &gt;</text>
</a>
</g>
</g>
<!-- Node1&#45;&gt;Node2 -->
<g id="edge2" class="edge">
<title>Node1&#45;&gt;Node2</title>
<path fill="none" stroke="#191970" d="M391.0851,-164.0987C412.1048,-169.4884 434.35,-175.1923 454.9027,-180.4622"/>
<polygon fill="#191970" stroke="#191970" points="391.7581,-160.6582 381.2021,-161.5647 390.0194,-167.4388 391.7581,-160.6582"/>
</g>
<!-- Node3 -->
<g id="node4" class="node">
<title>Node3</title>
<g id="a_node4"><a xlink:href="classDifferentiation_1_1AD_1_1ResidualLinearization.html" target="_top" xlink:title="Differentiation::AD\l::ResidualLinearization\l\&lt; ADNumberTypeCode, ScalarType \&gt;">
<polygon fill="#ffffff" stroke="#000000" points="436,-120.5 436,-161.5 634,-161.5 634,-120.5 436,-120.5"/>
<text text-anchor="start" x="444" y="-149.5" font-family="Helvetica,sans-Serif" font-size="10.00" fill="#000000">Differentiation::AD</text>
<text text-anchor="start" x="444" y="-138.5" font-family="Helvetica,sans-Serif" font-size="10.00" fill="#000000">::ResidualLinearization</text>
<text text-anchor="middle" x="535" y="-127.5" font-family="Helvetica,sans-Serif" font-size="10.00" fill="#000000">&lt; ADNumberTypeCode, ScalarType &gt;</text>
</a>
</g>
</g>
<!-- Node1&#45;&gt;Node3 -->
<g id="edge3" class="edge">
<title>Node1&#45;&gt;Node3</title>
<path fill="none" stroke="#191970" d="M400.8696,-141C412.4063,-141 424.1702,-141 435.6993,-141"/>
<polygon fill="#191970" stroke="#191970" points="400.8013,-137.5001 390.8013,-141 400.8013,-144.5001 400.8013,-137.5001"/>
</g>
<!-- Node5 -->
<g id="node6" class="node">
<title>Node5</title>
<g id="a_node6"><a xlink:href="classDifferentiation_1_1AD_1_1ScalarFunction.html" target="_top" xlink:title="Differentiation::AD\l::ScalarFunction\&lt; dim,\l ADNumberTypeCode, ScalarType \&gt;">
<polygon fill="#ffffff" stroke="#000000" points="440,-60.5 440,-101.5 630,-101.5 630,-60.5 440,-60.5"/>
<text text-anchor="start" x="448" y="-89.5" font-family="Helvetica,sans-Serif" font-size="10.00" fill="#000000">Differentiation::AD</text>
<text text-anchor="start" x="448" y="-78.5" font-family="Helvetica,sans-Serif" font-size="10.00" fill="#000000">::ScalarFunction&lt; dim,</text>
<text text-anchor="middle" x="535" y="-67.5" font-family="Helvetica,sans-Serif" font-size="10.00" fill="#000000"> ADNumberTypeCode, ScalarType &gt;</text>
</a>
</g>
</g>
<!-- Node4&#45;&gt;Node5 -->
<g id="edge5" class="edge">
<title>Node4&#45;&gt;Node5</title>
<path fill="none" stroke="#191970" d="M410.4019,-81C420.1919,-81 430.0531,-81 439.7099,-81"/>
<polygon fill="#191970" stroke="#191970" points="410.2371,-77.5001 400.2371,-81 410.237,-84.5001 410.2371,-77.5001"/>
</g>
<!-- Node6 -->
<g id="node7" class="node">
<title>Node6</title>
<g id="a_node7"><a xlink:href="classDifferentiation_1_1AD_1_1VectorFunction.html" target="_top" xlink:title="Differentiation::AD\l::VectorFunction\&lt; dim,\l ADNumberTypeCode, ScalarType \&gt;">
<polygon fill="#ffffff" stroke="#000000" points="440,-.5 440,-41.5 630,-41.5 630,-.5 440,-.5"/>
<text text-anchor="start" x="448" y="-29.5" font-family="Helvetica,sans-Serif" font-size="10.00" fill="#000000">Differentiation::AD</text>
<text text-anchor="start" x="448" y="-18.5" font-family="Helvetica,sans-Serif" font-size="10.00" fill="#000000">::VectorFunction&lt; dim,</text>
<text text-anchor="middle" x="535" y="-7.5" font-family="Helvetica,sans-Serif" font-size="10.00" fill="#000000"> ADNumberTypeCode, ScalarType &gt;</text>
</a>
</g>
</g>
<!-- Node4&#45;&gt;Node6 -->
<g id="edge6" class="edge">
<title>Node4&#45;&gt;Node6</title>
<path fill="none" stroke="#191970" d="M391.0851,-57.9013C412.1048,-52.5116 434.35,-46.8077 454.9027,-41.5378"/>
<polygon fill="#191970" stroke="#191970" points="390.0194,-54.5612 381.2021,-60.4353 391.7581,-61.3418 390.0194,-54.5612"/>
</g>
</g>
</svg>
