<?xml version="1.0" encoding="UTF-8" standalone="no"?>
<!DOCTYPE svg PUBLIC "-//W3C//DTD SVG 1.1//EN"
 "http://www.w3.org/Graphics/SVG/1.1/DTD/svg11.dtd">
<!-- Generated by graphviz version 2.40.1 (20161225.0304)
 -->
<!-- Title: MatrixBlock&lt; MatrixType &gt; Pages: 1 -->
<svg width="191pt" height="163pt"
 viewBox="0.00 0.00 190.50 163.00" xmlns="http://www.w3.org/2000/svg" xmlns:xlink="http://www.w3.org/1999/xlink">
<g id="graph0" class="graph" transform="scale(1 1) rotate(0) translate(4 159)">
<title>MatrixBlock&lt; MatrixType &gt;</title>
<polygon fill="#ffffff" stroke="transparent" points="-4,4 -4,-159 186.5,-159 186.5,4 -4,4"/>
<!-- Node0 -->
<g id="node1" class="node">
<title>Node0</title>
<polygon fill="#bfbfbf" stroke="#000000" points="0,-78.5 0,-97.5 135,-97.5 135,-78.5 0,-78.5"/>
<text text-anchor="middle" x="67.5" y="-85.5" font-family="Helvetica,sans-Serif" font-size="10.00" fill="#000000">MatrixBlock&lt; MatrixType &gt;</text>
</g>
<!-- Node2 -->
<g id="node3" class="node">
<title>Node2</title>
<g id="a_node3"><a xlink:href="classMatrixBlock.html" target="_top" xlink:title="MatrixBlock\&lt; FullMatrix\l\&lt; number \&gt; \&gt;">
<polygon fill="#ffffff" stroke="#000000" points="7.5,-.5 7.5,-30.5 127.5,-30.5 127.5,-.5 7.5,-.5"/>
<text text-anchor="start" x="15.5" y="-18.5" font-family="Helvetica,sans-Serif" font-size="10.00" fill="#000000">MatrixBlock&lt; FullMatrix</text>
<text text-anchor="middle" x="67.5" y="-7.5" font-family="Helvetica,sans-Serif" font-size="10.00" fill="#000000">&lt; number &gt; &gt;</text>
</a>
</g>
</g>
<!-- Node0&#45;&gt;Node2 -->
<g id="edge2" class="edge">
<title>Node0&#45;&gt;Node2</title>
<path fill="none" stroke="#ffa500" stroke-dasharray="5,2" d="M67.5,-68.0177C67.5,-56.2164 67.5,-41.513 67.5,-30.668"/>
<polygon fill="#ffa500" stroke="#ffa500" points="64.0001,-68.2223 67.5,-78.2223 71.0001,-68.2224 64.0001,-68.2223"/>
<text text-anchor="middle" x="125" y="-52" font-family="Helvetica,sans-Serif" font-size="10.00" fill="#000000"> &lt; FullMatrix&lt; number &gt; &gt;</text>
</g>
<!-- Node1 -->
<g id="node2" class="node">
<title>Node1</title>
<g id="a_node2"><a xlink:href="classSubscriptor.html" target="_top" xlink:title="Subscriptor">
<polygon fill="#ffffff" stroke="#000000" points="34.5,-135.5 34.5,-154.5 100.5,-154.5 100.5,-135.5 34.5,-135.5"/>
<text text-anchor="middle" x="67.5" y="-142.5" font-family="Helvetica,sans-Serif" font-size="10.00" fill="#000000">Subscriptor</text>
</a>
</g>
</g>
<!-- Node1&#45;&gt;Node0 -->
<g id="edge1" class="edge">
<title>Node1&#45;&gt;Node0</title>
<path fill="none" stroke="#191970" d="M67.5,-125.2342C67.5,-115.8491 67.5,-105.0651 67.5,-97.5265"/>
<polygon fill="#191970" stroke="#191970" points="64.0001,-125.3307 67.5,-135.3307 71.0001,-125.3308 64.0001,-125.3307"/>
</g>
</g>
</svg>
