<?xml version="1.0" encoding="UTF-8" standalone="no"?>
<!DOCTYPE svg PUBLIC "-//W3C//DTD SVG 1.1//EN"
 "http://www.w3.org/Graphics/SVG/1.1/DTD/svg11.dtd">
<!-- Generated by graphviz version 2.40.1 (20161225.0304)
 -->
<!-- Title: Tensor&lt; rank_, dim, Number &gt; Pages: 1 -->
<svg width="1020pt" height="1335pt"
 viewBox="0.00 0.00 1020.00 1335.27" xmlns="http://www.w3.org/2000/svg" xmlns:xlink="http://www.w3.org/1999/xlink">
<g id="graph0" class="graph" transform="scale(1 1) rotate(0) translate(4 1331.2683)">
<title>Tensor&lt; rank_, dim, Number &gt;</title>
<polygon fill="#ffffff" stroke="transparent" points="-4,4 -4,-1331.2683 1016,-1331.2683 1016,4 -4,4"/>
<!-- Node0 -->
<g id="node1" class="node">
<title>Node0</title>
<polygon fill="#bfbfbf" stroke="#000000" points="0,-595.5 0,-625.5 104,-625.5 104,-595.5 0,-595.5"/>
<text text-anchor="start" x="8" y="-613.5" font-family="Helvetica,sans-Serif" font-size="10.00" fill="#000000">Tensor&lt; rank_, dim,</text>
<text text-anchor="middle" x="52" y="-602.5" font-family="Helvetica,sans-Serif" font-size="10.00" fill="#000000"> Number &gt;</text>
</g>
<!-- Node1 -->
<g id="node2" class="node">
<title>Node1</title>
<g id="a_node2"><a xlink:href="classPoint.html" target="_top" xlink:title="Point\&lt; 0 \&gt;">
<polygon fill="#ffffff" stroke="#000000" points="909.5,-1158 909.5,-1177 971.5,-1177 971.5,-1158 909.5,-1158"/>
<text text-anchor="middle" x="940.5" y="-1165" font-family="Helvetica,sans-Serif" font-size="10.00" fill="#000000">Point&lt; 0 &gt;</text>
</a>
</g>
</g>
<!-- Node0&#45;&gt;Node1 -->
<g id="edge1" class="edge">
<title>Node0&#45;&gt;Node1</title>
<path fill="none" stroke="#191970" d="M53.7572,-635.6261C60.945,-735.4144 89.2812,-1100.2217 122,-1139.5 205.0926,-1239.2512 472.8399,-1216.8508 721,-1228.5 778.7142,-1231.2092 795.7878,-1245.5261 851,-1228.5 883.8833,-1218.3596 915.4884,-1191.5457 930.8393,-1177.078"/>
<polygon fill="#191970" stroke="#191970" points="57.2414,-635.2778 53.0389,-625.5521 50.2591,-635.7757 57.2414,-635.2778"/>
</g>
<!-- Node2 -->
<g id="node3" class="node">
<title>Node2</title>
<g id="a_node3"><a xlink:href="classPoint.html" target="_top" xlink:title="Point\&lt; 1 \&gt;">
<polygon fill="#ffffff" stroke="#000000" points="909.5,-1112 909.5,-1131 971.5,-1131 971.5,-1112 909.5,-1112"/>
<text text-anchor="middle" x="940.5" y="-1119" font-family="Helvetica,sans-Serif" font-size="10.00" fill="#000000">Point&lt; 1 &gt;</text>
</a>
</g>
</g>
<!-- Node0&#45;&gt;Node2 -->
<g id="edge2" class="edge">
<title>Node0&#45;&gt;Node2</title>
<path fill="none" stroke="#191970" d="M52.3899,-635.9989C54.2434,-725.0996 64.6814,-1021.0088 122,-1092.5 227.6263,-1224.2435 573.1135,-1165.7809 721,-1169.5 778.7595,-1170.9525 798.5081,-1193.6428 851,-1169.5 862.1681,-1164.3634 858.9357,-1155.5584 869,-1148.5 881.0584,-1140.0431 896.1021,-1133.8438 909.2754,-1129.5343"/>
<polygon fill="#191970" stroke="#191970" points="55.8843,-635.6672 52.1962,-625.7351 48.8856,-635.7994 55.8843,-635.6672"/>
</g>
<!-- Node3 -->
<g id="node4" class="node">
<title>Node3</title>
<g id="a_node4"><a xlink:href="classPoint.html" target="_top" xlink:title="Point\&lt; 2 \&gt;">
<polygon fill="#ffffff" stroke="#000000" points="909.5,-1239 909.5,-1258 971.5,-1258 971.5,-1239 909.5,-1239"/>
<text text-anchor="middle" x="940.5" y="-1246" font-family="Helvetica,sans-Serif" font-size="10.00" fill="#000000">Point&lt; 2 &gt;</text>
</a>
</g>
</g>
<!-- Node0&#45;&gt;Node3 -->
<g id="edge3" class="edge">
<title>Node0&#45;&gt;Node3</title>
<path fill="none" stroke="#191970" d="M53.4701,-635.687C59.8176,-740.7884 86.1811,-1140.9017 122,-1183.5 325.8929,-1425.9835 792.6715,-1296.4271 912.2041,-1258.0523"/>
<polygon fill="#191970" stroke="#191970" points="56.9616,-635.4396 52.8718,-625.666 49.9741,-635.8568 56.9616,-635.4396"/>
</g>
<!-- Node4 -->
<g id="node5" class="node">
<title>Node4</title>
<g id="a_node5"><a xlink:href="classPoint.html" target="_top" xlink:title="Point\&lt; 2, double \&gt;">
<polygon fill="#ffffff" stroke="#000000" points="892,-1064 892,-1083 989,-1083 989,-1064 892,-1064"/>
<text text-anchor="middle" x="940.5" y="-1071" font-family="Helvetica,sans-Serif" font-size="10.00" fill="#000000">Point&lt; 2, double &gt;</text>
</a>
</g>
</g>
<!-- Node0&#45;&gt;Node4 -->
<g id="edge4" class="edge">
<title>Node0&#45;&gt;Node4</title>
<path fill="none" stroke="#191970" d="M52.3311,-635.7165C53.9759,-718.7695 63.7723,-981.6241 122,-1037.5 315.508,-1223.1921 453.3009,-1094.2479 721,-1110.5 778.6716,-1114.0013 794.4809,-1122.4942 851,-1110.5 859.5638,-1108.6826 860.9426,-1105.9235 869,-1102.5 884.6574,-1095.8474 902.3765,-1088.6583 916.2583,-1083.1022"/>
<polygon fill="#191970" stroke="#191970" points="55.8295,-635.5894 52.1552,-625.6521 48.8305,-635.7118 55.8295,-635.5894"/>
</g>
<!-- Node5 -->
<g id="node6" class="node">
<title>Node5</title>
<g id="a_node6"><a xlink:href="classPoint.html" target="_top" xlink:title="Point\&lt; 3 \&gt;">
<polygon fill="#ffffff" stroke="#000000" points="909.5,-940 909.5,-959 971.5,-959 971.5,-940 909.5,-940"/>
<text text-anchor="middle" x="940.5" y="-947" font-family="Helvetica,sans-Serif" font-size="10.00" fill="#000000">Point&lt; 3 &gt;</text>
</a>
</g>
</g>
<!-- Node0&#45;&gt;Node5 -->
<g id="edge5" class="edge">
<title>Node0&#45;&gt;Node5</title>
<path fill="none" stroke="#191970" d="M54.9725,-635.8919C62.554,-695.8452 84.6914,-843.414 122,-873.5 248.2426,-975.3031 700.7946,-846.3493 851,-907.5 860.9136,-911.536 859.8068,-918.0179 869,-923.5 881.479,-930.9414 896.435,-936.7883 909.4353,-941.037"/>
<polygon fill="#191970" stroke="#191970" points="58.4216,-635.2624 53.7259,-625.765 51.474,-636.1177 58.4216,-635.2624"/>
</g>
<!-- Node6 -->
<g id="node7" class="node">
<title>Node6</title>
<g id="a_node7"><a xlink:href="classPoint.html" target="_top" xlink:title="Point\&lt; dim \&gt;">
<polygon fill="#ffffff" stroke="#000000" points="904,-831 904,-850 977,-850 977,-831 904,-831"/>
<text text-anchor="middle" x="940.5" y="-838" font-family="Helvetica,sans-Serif" font-size="10.00" fill="#000000">Point&lt; dim &gt;</text>
</a>
</g>
</g>
<!-- Node0&#45;&gt;Node6 -->
<g id="edge6" class="edge">
<title>Node0&#45;&gt;Node6</title>
<path fill="none" stroke="#191970" d="M57.5431,-635.5596C68.5138,-682.6587 94.3379,-781.4625 122,-801.5 154.8184,-825.2725 810.6579,-822.6672 851,-826.5 868.3789,-828.1511 887.5133,-831.0025 903.6136,-833.7028"/>
<polygon fill="#191970" stroke="#191970" points="60.8968,-634.5244 55.2559,-625.5561 54.0729,-636.0847 60.8968,-634.5244"/>
</g>
<!-- Node7 -->
<g id="node8" class="node">
<title>Node7</title>
<g id="a_node8"><a xlink:href="classPoint.html" target="_top" xlink:title="Point\&lt; spacedim \&gt;">
<polygon fill="#ffffff" stroke="#000000" points="891,-981 891,-1000 990,-1000 990,-981 891,-981"/>
<text text-anchor="middle" x="940.5" y="-988" font-family="Helvetica,sans-Serif" font-size="10.00" fill="#000000">Point&lt; spacedim &gt;</text>
</a>
</g>
</g>
<!-- Node0&#45;&gt;Node7 -->
<g id="edge7" class="edge">
<title>Node0&#45;&gt;Node7</title>
<path fill="none" stroke="#191970" d="M54.3736,-635.6123C61.002,-700.0904 81.9064,-868.9738 122,-905.5 169.1141,-948.4219 200.6807,-918.2412 264,-925.5 524.2063,-955.3296 590.8587,-947.1087 851,-977.5 863.944,-979.0122 877.9027,-980.9104 890.8574,-982.7853"/>
<polygon fill="#191970" stroke="#191970" points="57.8418,-635.1189 53.3656,-625.5161 50.8765,-635.8143 57.8418,-635.1189"/>
</g>
<!-- Node8 -->
<g id="node9" class="node">
<title>Node8</title>
<g id="a_node9"><a xlink:href="classTensor.html" target="_top" xlink:title="Tensor\&lt; 2, dim \&gt;">
<polygon fill="#ffffff" stroke="#000000" points="295.5,-770 295.5,-789 387.5,-789 387.5,-770 295.5,-770"/>
<text text-anchor="middle" x="341.5" y="-777" font-family="Helvetica,sans-Serif" font-size="10.00" fill="#000000">Tensor&lt; 2, dim &gt;</text>
</a>
</g>
</g>
<!-- Node0&#45;&gt;Node8 -->
<g id="edge8" class="edge">
<title>Node0&#45;&gt;Node8</title>
<path fill="none" stroke="#ffa500" stroke-dasharray="5,2" d="M56.979,-635.9797C64.7771,-668.511 83.1876,-723.8831 122,-751.5 172.8645,-787.6925 247.5975,-789.2194 295.4025,-785.5069"/>
<polygon fill="#ffa500" stroke="#ffa500" points="60.3225,-634.8928 54.7271,-625.8961 53.4908,-636.4186 60.3225,-634.8928"/>
<text text-anchor="middle" x="184" y="-789.5" font-family="Helvetica,sans-Serif" font-size="10.00" fill="#000000"> &lt; 2, dim &gt;</text>
</g>
<!-- Node9 -->
<g id="node10" class="node">
<title>Node9</title>
<g id="a_node10"><a xlink:href="classTensor.html" target="_top" xlink:title="Tensor\&lt; 3, dim \&gt;">
<polygon fill="#ffffff" stroke="#000000" points="295.5,-732 295.5,-751 387.5,-751 387.5,-732 295.5,-732"/>
<text text-anchor="middle" x="341.5" y="-739" font-family="Helvetica,sans-Serif" font-size="10.00" fill="#000000">Tensor&lt; 3, dim &gt;</text>
</a>
</g>
</g>
<!-- Node0&#45;&gt;Node9 -->
<g id="edge9" class="edge">
<title>Node0&#45;&gt;Node9</title>
<path fill="none" stroke="#ffa500" stroke-dasharray="5,2" d="M61.283,-634.9374C71.9688,-659.4383 92.0005,-696.0914 122,-714.5 150.1434,-731.7696 239.5549,-738.0214 295.2012,-740.2648"/>
<polygon fill="#ffa500" stroke="#ffa500" points="64.4652,-633.4742 57.3968,-625.5819 58.0008,-636.1595 64.4652,-633.4742"/>
<text text-anchor="middle" x="184" y="-739.5" font-family="Helvetica,sans-Serif" font-size="10.00" fill="#000000"> &lt; 3, dim &gt;</text>
</g>
<!-- Node10 -->
<g id="node11" class="node">
<title>Node10</title>
<g id="a_node11"><a xlink:href="classTensor.html" target="_top" xlink:title="Tensor\&lt; 4, dim \&gt;">
<polygon fill="#ffffff" stroke="#000000" points="295.5,-694 295.5,-713 387.5,-713 387.5,-694 295.5,-694"/>
<text text-anchor="middle" x="341.5" y="-701" font-family="Helvetica,sans-Serif" font-size="10.00" fill="#000000">Tensor&lt; 4, dim &gt;</text>
</a>
</g>
</g>
<!-- Node0&#45;&gt;Node10 -->
<g id="edge10" class="edge">
<title>Node0&#45;&gt;Node10</title>
<path fill="none" stroke="#ffa500" stroke-dasharray="5,2" d="M71.8129,-632.8861C84.7541,-646.0168 102.7744,-661.7077 122,-670.5 177.8969,-696.0628 249.3481,-702.5821 295.2731,-703.8648"/>
<polygon fill="#ffa500" stroke="#ffa500" points="74.2372,-630.3564 64.8095,-625.5222 69.1648,-635.1805 74.2372,-630.3564"/>
<text text-anchor="middle" x="184" y="-702.5" font-family="Helvetica,sans-Serif" font-size="10.00" fill="#000000"> &lt; 4, dim &gt;</text>
</g>
<!-- Node11 -->
<g id="node12" class="node">
<title>Node11</title>
<g id="a_node12"><a xlink:href="classTensor.html" target="_top" xlink:title="Tensor\&lt; 1, dim, Differentiation\l::SD::Expression \&gt;">
<polygon fill="#ffffff" stroke="#000000" points="267,-644.5 267,-674.5 416,-674.5 416,-644.5 267,-644.5"/>
<text text-anchor="start" x="275" y="-662.5" font-family="Helvetica,sans-Serif" font-size="10.00" fill="#000000">Tensor&lt; 1, dim, Differentiation</text>
<text text-anchor="middle" x="341.5" y="-651.5" font-family="Helvetica,sans-Serif" font-size="10.00" fill="#000000">::SD::Expression &gt;</text>
</a>
</g>
</g>
<!-- Node0&#45;&gt;Node11 -->
<g id="edge11" class="edge">
<title>Node0&#45;&gt;Node11</title>
<path fill="none" stroke="#ffa500" stroke-dasharray="5,2" d="M114.3405,-624.049C116.9256,-624.5506 119.4867,-625.0365 122,-625.5 170.0668,-634.3652 224.3446,-642.7865 266.9,-649.0304"/>
<polygon fill="#ffa500" stroke="#ffa500" points="114.7923,-620.5704 104.3013,-622.0503 113.4254,-627.4356 114.7923,-620.5704"/>
<text text-anchor="start" x="131" y="-658.5" font-family="Helvetica,sans-Serif" font-size="10.00" fill="#000000"> &lt; 1, dim, Differentiation</text>
<text text-anchor="middle" x="184" y="-647.5" font-family="Helvetica,sans-Serif" font-size="10.00" fill="#000000">::SD::Expression &gt;</text>
</g>
<!-- Node12 -->
<g id="node13" class="node">
<title>Node12</title>
<g id="a_node13"><a xlink:href="classTensor.html" target="_top" xlink:title="Tensor\&lt; order, dim,\l Number \&gt;">
<polygon fill="#ffffff" stroke="#000000" points="290.5,-595.5 290.5,-625.5 392.5,-625.5 392.5,-595.5 290.5,-595.5"/>
<text text-anchor="start" x="298.5" y="-613.5" font-family="Helvetica,sans-Serif" font-size="10.00" fill="#000000">Tensor&lt; order, dim,</text>
<text text-anchor="middle" x="341.5" y="-602.5" font-family="Helvetica,sans-Serif" font-size="10.00" fill="#000000"> Number &gt;</text>
</a>
</g>
</g>
<!-- Node0&#45;&gt;Node12 -->
<g id="edge12" class="edge">
<title>Node0&#45;&gt;Node12</title>
<path fill="none" stroke="#ffa500" stroke-dasharray="5,2" d="M114.2986,-610.5C166.856,-610.5 241.172,-610.5 290.3135,-610.5"/>
<polygon fill="#ffa500" stroke="#ffa500" points="114.0912,-607.0001 104.0912,-610.5 114.0911,-614.0001 114.0912,-607.0001"/>
<text text-anchor="middle" x="184" y="-613.5" font-family="Helvetica,sans-Serif" font-size="10.00" fill="#000000"> &lt; order, dim, Number &gt;</text>
</g>
<!-- Node13 -->
<g id="node14" class="node">
<title>Node13</title>
<g id="a_node14"><a xlink:href="classTensor.html" target="_top" xlink:title="Tensor\&lt; rank, dim,\l Number \&gt;">
<polygon fill="#ffffff" stroke="#000000" points="292,-546.5 292,-576.5 391,-576.5 391,-546.5 292,-546.5"/>
<text text-anchor="start" x="300" y="-564.5" font-family="Helvetica,sans-Serif" font-size="10.00" fill="#000000">Tensor&lt; rank, dim,</text>
<text text-anchor="middle" x="341.5" y="-553.5" font-family="Helvetica,sans-Serif" font-size="10.00" fill="#000000"> Number &gt;</text>
</a>
</g>
</g>
<!-- Node0&#45;&gt;Node13 -->
<g id="edge13" class="edge">
<title>Node0&#45;&gt;Node13</title>
<path fill="none" stroke="#ffa500" stroke-dasharray="5,2" d="M114.3405,-596.951C116.9256,-596.4494 119.4867,-595.9635 122,-595.5 180.0214,-584.7989 247.093,-574.7444 291.6721,-568.3859"/>
<polygon fill="#ffa500" stroke="#ffa500" points="113.4254,-593.5644 104.3013,-598.9497 114.7923,-600.4296 113.4254,-593.5644"/>
<text text-anchor="middle" x="184" y="-598.5" font-family="Helvetica,sans-Serif" font-size="10.00" fill="#000000"> &lt; rank, dim, Number &gt;</text>
</g>
<!-- Node14 -->
<g id="node15" class="node">
<title>Node14</title>
<g id="a_node15"><a xlink:href="classTensor.html" target="_top" xlink:title="Tensor\&lt; order, dim,\l double \&gt;">
<polygon fill="#ffffff" stroke="#000000" points="290.5,-497.5 290.5,-527.5 392.5,-527.5 392.5,-497.5 290.5,-497.5"/>
<text text-anchor="start" x="298.5" y="-515.5" font-family="Helvetica,sans-Serif" font-size="10.00" fill="#000000">Tensor&lt; order, dim,</text>
<text text-anchor="middle" x="341.5" y="-504.5" font-family="Helvetica,sans-Serif" font-size="10.00" fill="#000000"> double &gt;</text>
</a>
</g>
</g>
<!-- Node0&#45;&gt;Node14 -->
<g id="edge14" class="edge">
<title>Node0&#45;&gt;Node14</title>
<path fill="none" stroke="#ffa500" stroke-dasharray="5,2" d="M76.7467,-589.0489C89.5035,-579.0112 105.7638,-567.7073 122,-560.5 176.7278,-536.2063 244.7422,-523.7886 290.4332,-517.7392"/>
<polygon fill="#ffa500" stroke="#ffa500" points="74.4686,-586.3901 68.905,-595.4066 78.8771,-591.8275 74.4686,-586.3901"/>
<text text-anchor="middle" x="184" y="-563.5" font-family="Helvetica,sans-Serif" font-size="10.00" fill="#000000"> &lt; order, dim, double &gt;</text>
</g>
<!-- Node15 -->
<g id="node16" class="node">
<title>Node15</title>
<g id="a_node16"><a xlink:href="classTensor.html" target="_top" xlink:title="Tensor\&lt; 2, spacedim,\l VectorizedArrayType \&gt;">
<polygon fill="#ffffff" stroke="#000000" points="281.5,-448.5 281.5,-478.5 401.5,-478.5 401.5,-448.5 281.5,-448.5"/>
<text text-anchor="start" x="289.5" y="-466.5" font-family="Helvetica,sans-Serif" font-size="10.00" fill="#000000">Tensor&lt; 2, spacedim,</text>
<text text-anchor="middle" x="341.5" y="-455.5" font-family="Helvetica,sans-Serif" font-size="10.00" fill="#000000"> VectorizedArrayType &gt;</text>
</a>
</g>
</g>
<!-- Node0&#45;&gt;Node15 -->
<g id="edge15" class="edge">
<title>Node0&#45;&gt;Node15</title>
<path fill="none" stroke="#ffa500" stroke-dasharray="5,2" d="M60.4397,-585.6467C70.691,-559.493 90.6128,-519.2961 122,-498.5 169.1272,-467.275 234.1995,-460.3259 281.2445,-460.094"/>
<polygon fill="#ffa500" stroke="#ffa500" points="57.0765,-584.6486 56.8643,-595.2413 63.6359,-587.093 57.0765,-584.6486"/>
<text text-anchor="start" x="125" y="-512.5" font-family="Helvetica,sans-Serif" font-size="10.00" fill="#000000"> &lt; 2, spacedim, Vectorized</text>
<text text-anchor="middle" x="184" y="-501.5" font-family="Helvetica,sans-Serif" font-size="10.00" fill="#000000">ArrayType &gt;</text>
</g>
<!-- Node16 -->
<g id="node17" class="node">
<title>Node16</title>
<g id="a_node17"><a xlink:href="classTensor.html" target="_top" xlink:title="Tensor\&lt; 1, dim \&gt;">
<polygon fill="#ffffff" stroke="#000000" points="295.5,-410 295.5,-429 387.5,-429 387.5,-410 295.5,-410"/>
<text text-anchor="middle" x="341.5" y="-417" font-family="Helvetica,sans-Serif" font-size="10.00" fill="#000000">Tensor&lt; 1, dim &gt;</text>
</a>
</g>
</g>
<!-- Node0&#45;&gt;Node16 -->
<g id="edge16" class="edge">
<title>Node0&#45;&gt;Node16</title>
<path fill="none" stroke="#ffa500" stroke-dasharray="5,2" d="M54.9186,-585.544C60.6649,-548.6513 77.0778,-480.2889 122,-446.5 172.0149,-408.8806 247.3266,-408.2211 295.4446,-412.7066"/>
<polygon fill="#ffa500" stroke="#ffa500" points="51.4475,-585.094 53.5116,-595.4858 58.3784,-586.075 51.4475,-585.094"/>
<text text-anchor="middle" x="184" y="-449.5" font-family="Helvetica,sans-Serif" font-size="10.00" fill="#000000"> &lt; 1, dim &gt;</text>
</g>
<!-- Node17 -->
<g id="node18" class="node">
<title>Node17</title>
<g id="a_node18"><a xlink:href="classTensor.html" target="_top" xlink:title="Tensor\&lt; 1, spacedim \&gt;">
<polygon fill="#ffffff" stroke="#000000" points="282.5,-372 282.5,-391 400.5,-391 400.5,-372 282.5,-372"/>
<text text-anchor="middle" x="341.5" y="-379" font-family="Helvetica,sans-Serif" font-size="10.00" fill="#000000">Tensor&lt; 1, spacedim &gt;</text>
</a>
</g>
</g>
<!-- Node0&#45;&gt;Node17 -->
<g id="edge17" class="edge">
<title>Node0&#45;&gt;Node17</title>
<path fill="none" stroke="#ffa500" stroke-dasharray="5,2" d="M56.5744,-585.2719C66.4693,-533.7302 91.4527,-419.2014 122,-395.5 173.7399,-355.3555 254.667,-362.7152 302.4544,-371.9476"/>
<polygon fill="#ffa500" stroke="#ffa500" points="53.1048,-584.7842 54.6953,-595.259 59.9841,-586.0786 53.1048,-584.7842"/>
<text text-anchor="middle" x="184" y="-398.5" font-family="Helvetica,sans-Serif" font-size="10.00" fill="#000000"> &lt; 1, spacedim &gt;</text>
</g>
<!-- Node18 -->
<g id="node19" class="node">
<title>Node18</title>
<g id="a_node19"><a xlink:href="classTensor.html" target="_top" xlink:title="Tensor\&lt; 1, dim, Vectorized\lArrayType \&gt;">
<polygon fill="#ffffff" stroke="#000000" points="437,-834.5 437,-864.5 572,-864.5 572,-834.5 437,-834.5"/>
<text text-anchor="start" x="445" y="-852.5" font-family="Helvetica,sans-Serif" font-size="10.00" fill="#000000">Tensor&lt; 1, dim, Vectorized</text>
<text text-anchor="middle" x="504.5" y="-841.5" font-family="Helvetica,sans-Serif" font-size="10.00" fill="#000000">ArrayType &gt;</text>
</a>
</g>
</g>
<!-- Node0&#45;&gt;Node18 -->
<g id="edge18" class="edge">
<title>Node0&#45;&gt;Node18</title>
<path fill="none" stroke="#ffa500" stroke-dasharray="5,2" d="M56.239,-635.3843C65.73,-687.887 90.3611,-807.1703 122,-831.5 146.2749,-850.1669 333.7446,-851.2878 436.9233,-850.4497"/>
<polygon fill="#ffa500" stroke="#ffa500" points="59.6854,-634.7735 54.4957,-625.5368 52.7926,-635.9938 59.6854,-634.7735"/>
<text text-anchor="start" x="126.5" y="-861.5" font-family="Helvetica,sans-Serif" font-size="10.00" fill="#000000"> &lt; 1, dim, VectorizedArray</text>
<text text-anchor="middle" x="184" y="-850.5" font-family="Helvetica,sans-Serif" font-size="10.00" fill="#000000">Type &gt;</text>
</g>
<!-- Node20 -->
<g id="node21" class="node">
<title>Node20</title>
<g id="a_node21"><a xlink:href="classTensor.html" target="_top" xlink:title="Tensor\&lt; 2, dim, Vectorized\lArrayType \&gt;">
<polygon fill="#ffffff" stroke="#000000" points="274,-322.5 274,-352.5 409,-352.5 409,-322.5 274,-322.5"/>
<text text-anchor="start" x="282" y="-340.5" font-family="Helvetica,sans-Serif" font-size="10.00" fill="#000000">Tensor&lt; 2, dim, Vectorized</text>
<text text-anchor="middle" x="341.5" y="-329.5" font-family="Helvetica,sans-Serif" font-size="10.00" fill="#000000">ArrayType &gt;</text>
</a>
</g>
</g>
<!-- Node0&#45;&gt;Node20 -->
<g id="edge20" class="edge">
<title>Node0&#45;&gt;Node20</title>
<path fill="none" stroke="#ffa500" stroke-dasharray="5,2" d="M54.6101,-585.3886C61.5596,-523.9983 82.7161,-369.0977 122,-338.5 170.7045,-300.5648 245.6665,-310.2409 294.1501,-322.4614"/>
<polygon fill="#ffa500" stroke="#ffa500" points="51.1246,-585.0654 53.5111,-595.388 58.0827,-585.8302 51.1246,-585.0654"/>
<text text-anchor="start" x="126.5" y="-352.5" font-family="Helvetica,sans-Serif" font-size="10.00" fill="#000000"> &lt; 2, dim, VectorizedArray</text>
<text text-anchor="middle" x="184" y="-341.5" font-family="Helvetica,sans-Serif" font-size="10.00" fill="#000000">Type &gt;</text>
</g>
<!-- Node21 -->
<g id="node22" class="node">
<title>Node21</title>
<g id="a_node22"><a xlink:href="classTensor.html" target="_top" xlink:title="Tensor\&lt; 3, spacedim \&gt;">
<polygon fill="#ffffff" stroke="#000000" points="282.5,-284 282.5,-303 400.5,-303 400.5,-284 282.5,-284"/>
<text text-anchor="middle" x="341.5" y="-291" font-family="Helvetica,sans-Serif" font-size="10.00" fill="#000000">Tensor&lt; 3, spacedim &gt;</text>
</a>
</g>
</g>
<!-- Node0&#45;&gt;Node21 -->
<g id="edge21" class="edge">
<title>Node0&#45;&gt;Node21</title>
<path fill="none" stroke="#ffa500" stroke-dasharray="5,2" d="M53.7475,-584.8472C58.9822,-516.5569 77.0464,-333.043 122,-296.5 145.6952,-277.2381 225.7355,-280.9156 282.2945,-286.3612"/>
<polygon fill="#ffa500" stroke="#ffa500" points="50.2338,-584.9059 52.9901,-595.1359 57.2149,-585.4199 50.2338,-584.9059"/>
<text text-anchor="middle" x="184" y="-299.5" font-family="Helvetica,sans-Serif" font-size="10.00" fill="#000000"> &lt; 3, spacedim &gt;</text>
</g>
<!-- Node22 -->
<g id="node23" class="node">
<title>Node22</title>
<g id="a_node23"><a xlink:href="classTensor.html" target="_top" xlink:title="Tensor\&lt; 2, spacedim \&gt;">
<polygon fill="#ffffff" stroke="#000000" points="282.5,-246 282.5,-265 400.5,-265 400.5,-246 282.5,-246"/>
<text text-anchor="middle" x="341.5" y="-253" font-family="Helvetica,sans-Serif" font-size="10.00" fill="#000000">Tensor&lt; 2, spacedim &gt;</text>
</a>
</g>
</g>
<!-- Node0&#45;&gt;Node22 -->
<g id="edge22" class="edge">
<title>Node0&#45;&gt;Node22</title>
<path fill="none" stroke="#ffa500" stroke-dasharray="5,2" d="M53.2552,-585.4268C57.4246,-513.3813 73.424,-308.2575 122,-266.5 174.0815,-221.729 261.4408,-234.479 308.7203,-245.9952"/>
<polygon fill="#ffa500" stroke="#ffa500" points="49.7596,-585.2523 52.7038,-595.4299 56.7489,-585.6377 49.7596,-585.2523"/>
<text text-anchor="middle" x="184" y="-269.5" font-family="Helvetica,sans-Serif" font-size="10.00" fill="#000000"> &lt; 2, spacedim &gt;</text>
</g>
<!-- Node23 -->
<g id="node24" class="node">
<title>Node23</title>
<g id="a_node24"><a xlink:href="classTensor.html" target="_top" xlink:title="Tensor\&lt; 5, spacedim \&gt;">
<polygon fill="#ffffff" stroke="#000000" points="282.5,-208 282.5,-227 400.5,-227 400.5,-208 282.5,-208"/>
<text text-anchor="middle" x="341.5" y="-215" font-family="Helvetica,sans-Serif" font-size="10.00" fill="#000000">Tensor&lt; 5, spacedim &gt;</text>
</a>
</g>
</g>
<!-- Node0&#45;&gt;Node23 -->
<g id="edge23" class="edge">
<title>Node0&#45;&gt;Node23</title>
<path fill="none" stroke="#ffa500" stroke-dasharray="5,2" d="M52.5129,-585.1031C54.6939,-506.0609 65.8971,-266.8872 122,-219.5 145.3637,-199.7659 225.7104,-203.9904 282.4052,-209.8885"/>
<polygon fill="#ffa500" stroke="#ffa500" points="49.0127,-585.0724 52.2613,-595.1569 56.0105,-585.2476 49.0127,-585.0724"/>
<text text-anchor="middle" x="184" y="-222.5" font-family="Helvetica,sans-Serif" font-size="10.00" fill="#000000"> &lt; 5, spacedim &gt;</text>
</g>
<!-- Node24 -->
<g id="node25" class="node">
<title>Node24</title>
<g id="a_node25"><a xlink:href="classTensor.html" target="_top" xlink:title="Tensor\&lt; 4, spacedim \&gt;">
<polygon fill="#ffffff" stroke="#000000" points="282.5,-170 282.5,-189 400.5,-189 400.5,-170 282.5,-170"/>
<text text-anchor="middle" x="341.5" y="-177" font-family="Helvetica,sans-Serif" font-size="10.00" fill="#000000">Tensor&lt; 4, spacedim &gt;</text>
</a>
</g>
</g>
<!-- Node0&#45;&gt;Node24 -->
<g id="edge24" class="edge">
<title>Node0&#45;&gt;Node24</title>
<path fill="none" stroke="#ffa500" stroke-dasharray="5,2" d="M54.3717,-585.1256C62.7458,-498.1689 92.038,-216.0867 122,-189.5 144.9337,-169.1499 225.6138,-170.4137 282.4763,-174.1713"/>
<polygon fill="#ffa500" stroke="#ffa500" points="50.8784,-584.8899 53.4136,-595.1769 57.8468,-585.5541 50.8784,-584.8899"/>
<text text-anchor="middle" x="184" y="-192.5" font-family="Helvetica,sans-Serif" font-size="10.00" fill="#000000"> &lt; 4, spacedim &gt;</text>
</g>
<!-- Node25 -->
<g id="node26" class="node">
<title>Node25</title>
<g id="a_node26"><a xlink:href="classTensor.html" target="_top" xlink:title="Tensor\&lt; 1, spacedim,\l VectorizedArrayType \&gt;">
<polygon fill="#ffffff" stroke="#000000" points="281.5,-120.5 281.5,-150.5 401.5,-150.5 401.5,-120.5 281.5,-120.5"/>
<text text-anchor="start" x="289.5" y="-138.5" font-family="Helvetica,sans-Serif" font-size="10.00" fill="#000000">Tensor&lt; 1, spacedim,</text>
<text text-anchor="middle" x="341.5" y="-127.5" font-family="Helvetica,sans-Serif" font-size="10.00" fill="#000000"> VectorizedArrayType &gt;</text>
</a>
</g>
</g>
<!-- Node0&#45;&gt;Node25 -->
<g id="edge25" class="edge">
<title>Node0&#45;&gt;Node25</title>
<path fill="none" stroke="#ffa500" stroke-dasharray="5,2" d="M53.9464,-585.2502C61.3323,-492.6246 88.891,-175.3364 122,-145.5 165.9243,-105.9173 237.1261,-110.6009 286.4717,-120.4577"/>
<polygon fill="#ffa500" stroke="#ffa500" points="50.4432,-585.1538 53.1466,-595.3979 57.4216,-585.7038 50.4432,-585.1538"/>
<text text-anchor="start" x="125" y="-159.5" font-family="Helvetica,sans-Serif" font-size="10.00" fill="#000000"> &lt; 1, spacedim, Vectorized</text>
<text text-anchor="middle" x="184" y="-148.5" font-family="Helvetica,sans-Serif" font-size="10.00" fill="#000000">ArrayType &gt;</text>
</g>
<!-- Node26 -->
<g id="node27" class="node">
<title>Node26</title>
<g id="a_node27"><a xlink:href="classTensor.html" target="_top" xlink:title="Tensor\&lt; 2, dim, Differentiation\l::SD::Expression \&gt;">
<polygon fill="#ffffff" stroke="#000000" points="267,-71.5 267,-101.5 416,-101.5 416,-71.5 267,-71.5"/>
<text text-anchor="start" x="275" y="-89.5" font-family="Helvetica,sans-Serif" font-size="10.00" fill="#000000">Tensor&lt; 2, dim, Differentiation</text>
<text text-anchor="middle" x="341.5" y="-78.5" font-family="Helvetica,sans-Serif" font-size="10.00" fill="#000000">::SD::Expression &gt;</text>
</a>
</g>
</g>
<!-- Node0&#45;&gt;Node26 -->
<g id="edge26" class="edge">
<title>Node0&#45;&gt;Node26</title>
<path fill="none" stroke="#ffa500" stroke-dasharray="5,2" d="M53.4584,-585.3481C59.4989,-485.4986 84.034,-120.8761 122,-87.5 142.9648,-69.0697 211.8184,-71.406 266.8847,-76.7765"/>
<polygon fill="#ffa500" stroke="#ffa500" points="49.9587,-585.2391 52.8573,-595.4297 56.9463,-585.6558 49.9587,-585.2391"/>
<text text-anchor="start" x="131" y="-101.5" font-family="Helvetica,sans-Serif" font-size="10.00" fill="#000000"> &lt; 2, dim, Differentiation</text>
<text text-anchor="middle" x="184" y="-90.5" font-family="Helvetica,sans-Serif" font-size="10.00" fill="#000000">::SD::Expression &gt;</text>
</g>
<!-- Node27 -->
<g id="node28" class="node">
<title>Node27</title>
<g id="a_node28"><a xlink:href="classTensor.html" target="_top" xlink:title="Tensor\&lt; 1, spacedim\l *(spacedim+1)/2, Tensor\l\&lt; 1, spacedim, VectorizedArray\lType \&gt; \&gt;">
<polygon fill="#ffffff" stroke="#000000" points="264,-.5 264,-52.5 419,-52.5 419,-.5 264,-.5"/>
<text text-anchor="start" x="272" y="-40.5" font-family="Helvetica,sans-Serif" font-size="10.00" fill="#000000">Tensor&lt; 1, spacedim</text>
<text text-anchor="start" x="272" y="-29.5" font-family="Helvetica,sans-Serif" font-size="10.00" fill="#000000"> *(spacedim+1)/2, Tensor</text>
<text text-anchor="start" x="272" y="-18.5" font-family="Helvetica,sans-Serif" font-size="10.00" fill="#000000">&lt; 1, spacedim, VectorizedArray</text>
<text text-anchor="middle" x="341.5" y="-7.5" font-family="Helvetica,sans-Serif" font-size="10.00" fill="#000000">Type &gt; &gt;</text>
</a>
</g>
</g>
<!-- Node0&#45;&gt;Node27 -->
<g id="edge27" class="edge">
<title>Node0&#45;&gt;Node27</title>
<path fill="none" stroke="#ffa500" stroke-dasharray="5,2" d="M53.1869,-585.3641C58.4273,-479.6011 81.0671,-74.4411 122,-36.5 159.2096,-2.01 217.002,-.6582 263.9469,-7.3211"/>
<polygon fill="#ffa500" stroke="#ffa500" points="49.6869,-585.2797 52.6958,-595.4383 56.6786,-585.6206 49.6869,-585.2797"/>
<text text-anchor="start" x="122" y="-61.5" font-family="Helvetica,sans-Serif" font-size="10.00" fill="#000000"> &lt; 1, spacedim *(spacedim</text>
<text text-anchor="start" x="122" y="-50.5" font-family="Helvetica,sans-Serif" font-size="10.00" fill="#000000">+1)/2, Tensor&lt; 1, spacedim,</text>
<text text-anchor="middle" x="184" y="-39.5" font-family="Helvetica,sans-Serif" font-size="10.00" fill="#000000"> VectorizedArrayType &gt; &gt;</text>
</g>
<!-- Node28 -->
<g id="node29" class="node">
<title>Node28</title>
<g id="a_node29"><a xlink:href="classTensor.html" target="_top" xlink:title="Tensor\&lt; 1, dim, Number \&gt;">
<polygon fill="#ffffff" stroke="#000000" points="275.5,-1009 275.5,-1028 407.5,-1028 407.5,-1009 275.5,-1009"/>
<text text-anchor="middle" x="341.5" y="-1016" font-family="Helvetica,sans-Serif" font-size="10.00" fill="#000000">Tensor&lt; 1, dim, Number &gt;</text>
</a>
</g>
</g>
<!-- Node0&#45;&gt;Node28 -->
<g id="edge28" class="edge">
<title>Node0&#45;&gt;Node28</title>
<path fill="none" stroke="#ffa500" stroke-dasharray="5,2" d="M53.2249,-635.8854C57.3781,-710.8734 73.4827,-929.1673 122,-977.5 161.6861,-1017.0351 226.5046,-1025.0017 275.4391,-1024.4415"/>
<polygon fill="#ffa500" stroke="#ffa500" points="56.6997,-635.3137 52.677,-625.5122 49.7094,-635.683 56.6997,-635.3137"/>
<text text-anchor="middle" x="184" y="-1025.5" font-family="Helvetica,sans-Serif" font-size="10.00" fill="#000000"> &lt; 1, dim, Number &gt;</text>
</g>
<!-- Node19 -->
<g id="node20" class="node">
<title>Node19</title>
<g id="a_node20"><a xlink:href="classPoint.html" target="_top" xlink:title="Point\&lt; spacedim, Vectorized\lArrayType \&gt;">
<polygon fill="#ffffff" stroke="#000000" points="869,-883.5 869,-913.5 1012,-913.5 1012,-883.5 869,-883.5"/>
<text text-anchor="start" x="877" y="-901.5" font-family="Helvetica,sans-Serif" font-size="10.00" fill="#000000">Point&lt; spacedim, Vectorized</text>
<text text-anchor="middle" x="940.5" y="-890.5" font-family="Helvetica,sans-Serif" font-size="10.00" fill="#000000">ArrayType &gt;</text>
</a>
</g>
</g>
<!-- Node18&#45;&gt;Node19 -->
<g id="edge19" class="edge">
<title>Node18&#45;&gt;Node19</title>
<path fill="none" stroke="#191970" d="M582.3234,-837.3049C653.6473,-828.9131 761.4485,-823.3033 851,-848.5 860.0251,-851.0394 860.8822,-854.8094 869,-859.5 883.0793,-867.6353 898.9378,-876.3316 912.1357,-883.4432"/>
<polygon fill="#191970" stroke="#191970" points="581.572,-833.8707 572.0714,-838.5599 582.4226,-840.8188 581.572,-833.8707"/>
</g>
<!-- Node29 -->
<g id="node30" class="node">
<title>Node29</title>
<g id="a_node30"><a xlink:href="classPoint.html" target="_top" xlink:title="Point\&lt; dim, Number \&gt;">
<polygon fill="#ffffff" stroke="#000000" points="590,-1021 590,-1040 703,-1040 703,-1021 590,-1021"/>
<text text-anchor="middle" x="646.5" y="-1028" font-family="Helvetica,sans-Serif" font-size="10.00" fill="#000000">Point&lt; dim, Number &gt;</text>
</a>
</g>
</g>
<!-- Node28&#45;&gt;Node29 -->
<g id="edge29" class="edge">
<title>Node28&#45;&gt;Node29</title>
<path fill="none" stroke="#191970" d="M417.775,-1021.501C471.1173,-1023.5997 541.2092,-1026.3574 589.6738,-1028.2642"/>
<polygon fill="#191970" stroke="#191970" points="417.8104,-1017.9998 407.6805,-1021.1038 417.5351,-1024.9943 417.8104,-1017.9998"/>
</g>
<!-- Node29&#45;&gt;Node1 -->
<g id="edge30" class="edge">
<title>Node29&#45;&gt;Node1</title>
<path fill="none" stroke="#ffa500" stroke-dasharray="5,2" d="M656.0942,-1049.0869C668.2042,-1070.5761 691.1144,-1105.3158 721,-1123.5 780.5985,-1159.7633 864.5349,-1166.8052 909.3779,-1167.7756"/>
<polygon fill="#ffa500" stroke="#ffa500" points="659.1476,-1047.3752 651.3039,-1040.2529 652.994,-1050.712 659.1476,-1047.3752"/>
<text text-anchor="middle" x="786" y="-1165.5" font-family="Helvetica,sans-Serif" font-size="10.00" fill="#000000"> &lt; 0 &gt;</text>
</g>
<!-- Node29&#45;&gt;Node2 -->
<g id="edge31" class="edge">
<title>Node29&#45;&gt;Node2</title>
<path fill="none" stroke="#ffa500" stroke-dasharray="5,2" d="M668.4505,-1046.0282C682.8008,-1055.5179 702.2901,-1067.1955 721,-1074.5 785.4377,-1099.657 866.0424,-1112.5234 909.4168,-1118.0487"/>
<polygon fill="#ffa500" stroke="#ffa500" points="670.0628,-1042.8927 659.8222,-1040.176 666.1335,-1048.6859 670.0628,-1042.8927"/>
<text text-anchor="middle" x="786" y="-1111.5" font-family="Helvetica,sans-Serif" font-size="10.00" fill="#000000"> &lt; 1 &gt;</text>
</g>
<!-- Node29&#45;&gt;Node3 -->
<g id="edge32" class="edge">
<title>Node29&#45;&gt;Node3</title>
<path fill="none" stroke="#ffa500" stroke-dasharray="5,2" d="M651.2052,-1050.1276C659.7381,-1081.543 680.7291,-1143.076 721,-1177.5 776.1045,-1224.604 863.0144,-1240.5924 909.2084,-1245.9177"/>
<polygon fill="#ffa500" stroke="#ffa500" points="654.5752,-1049.1789 648.6954,-1040.3654 647.7957,-1050.9219 654.5752,-1049.1789"/>
<text text-anchor="middle" x="786" y="-1238.5" font-family="Helvetica,sans-Serif" font-size="10.00" fill="#000000"> &lt; 2 &gt;</text>
</g>
<!-- Node29&#45;&gt;Node4 -->
<g id="edge34" class="edge">
<title>Node29&#45;&gt;Node4</title>
<path fill="none" stroke="#ffa500" stroke-dasharray="5,2" d="M713.4146,-1040.2868C767.736,-1048.2318 843.0579,-1059.2483 891.787,-1066.3753"/>
<polygon fill="#ffa500" stroke="#ffa500" points="713.5874,-1036.7749 703.1862,-1038.7908 712.5743,-1043.7013 713.5874,-1036.7749"/>
<text text-anchor="middle" x="786" y="-1062.5" font-family="Helvetica,sans-Serif" font-size="10.00" fill="#000000"> &lt; 2, double &gt;</text>
</g>
<!-- Node29&#45;&gt;Node5 -->
<g id="edge33" class="edge">
<title>Node29&#45;&gt;Node5</title>
<path fill="none" stroke="#ffa500" stroke-dasharray="5,2" d="M672.8206,-1016.2957C686.8083,-1009.2233 704.4838,-1001.0263 721,-995.5 786.3544,-973.6326 866.2663,-960.0138 909.3632,-953.6908"/>
<polygon fill="#ffa500" stroke="#ffa500" points="671.0621,-1013.2647 663.7856,-1020.9656 674.2763,-1019.4832 671.0621,-1013.2647"/>
<text text-anchor="middle" x="786" y="-998.5" font-family="Helvetica,sans-Serif" font-size="10.00" fill="#000000"> &lt; 3 &gt;</text>
</g>
<!-- Node29&#45;&gt;Node6 -->
<g id="edge37" class="edge">
<title>Node29&#45;&gt;Node6</title>
<path fill="none" stroke="#ffa500" stroke-dasharray="5,2" d="M650.7507,-1011.0749C658.7263,-979.4901 679.0531,-917.3348 721,-885.5 774.9171,-844.5807 856.9442,-838.4972 903.9609,-838.7983"/>
<polygon fill="#ffa500" stroke="#ffa500" points="647.3293,-1010.3346 648.4295,-1020.8721 654.1407,-1011.9484 647.3293,-1010.3346"/>
<text text-anchor="middle" x="786" y="-888.5" font-family="Helvetica,sans-Serif" font-size="10.00" fill="#000000"> &lt; dim &gt;</text>
</g>
<!-- Node29&#45;&gt;Node7 -->
<g id="edge36" class="edge">
<title>Node29&#45;&gt;Node7</title>
<path fill="none" stroke="#ffa500" stroke-dasharray="5,2" d="M713.2802,-1024.8679C753.3348,-1021.1043 805.2229,-1015.5506 851,-1008.5 866.038,-1006.1839 882.3835,-1003.0736 896.9411,-1000.0905"/>
<polygon fill="#ffa500" stroke="#ffa500" points="712.7358,-1021.4033 703.1009,-1025.8099 713.3809,-1028.3735 712.7358,-1021.4033"/>
<text text-anchor="middle" x="786" y="-1026.5" font-family="Helvetica,sans-Serif" font-size="10.00" fill="#000000"> &lt; spacedim &gt;</text>
</g>
<!-- Node29&#45;&gt;Node19 -->
<g id="edge35" class="edge">
<title>Node29&#45;&gt;Node19</title>
<path fill="none" stroke="#ffa500" stroke-dasharray="5,2" d="M655.8413,-1012.1304C667.8356,-990.5578 690.762,-955.446 721,-937.5 765.6005,-911.0299 823.65,-901.5852 868.8491,-898.5949"/>
<polygon fill="#ffa500" stroke="#ffa500" points="652.7389,-1010.5098 651.1127,-1020.9791 658.9127,-1013.809 652.7389,-1010.5098"/>
<text text-anchor="start" x="721" y="-951.5" font-family="Helvetica,sans-Serif" font-size="10.00" fill="#000000"> &lt; spacedim, VectorizedArray</text>
<text text-anchor="middle" x="786" y="-940.5" font-family="Helvetica,sans-Serif" font-size="10.00" fill="#000000">Type &gt;</text>
</g>
</g>
</svg>
