<?xml version="1.0" encoding="UTF-8" standalone="no"?>
<!DOCTYPE svg PUBLIC "-//W3C//DTD SVG 1.1//EN"
 "http://www.w3.org/Graphics/SVG/1.1/DTD/svg11.dtd">
<!-- Generated by graphviz version 2.40.1 (20161225.0304)
 -->
<!-- Title: PETScWrappers::MatrixFree Pages: 1 -->
<svg width="154pt" height="140pt"
 viewBox="0.00 0.00 154.00 140.00" xmlns="http://www.w3.org/2000/svg" xmlns:xlink="http://www.w3.org/1999/xlink">
<g id="graph0" class="graph" transform="scale(1 1) rotate(0) translate(4 136)">
<title>PETScWrappers::MatrixFree</title>
<polygon fill="#ffffff" stroke="transparent" points="-4,4 -4,-136 150,-136 150,4 -4,4"/>
<!-- Node0 -->
<g id="node1" class="node">
<title>Node0</title>
<polygon fill="#bfbfbf" stroke="#000000" points="1.5,-.5 1.5,-19.5 144.5,-19.5 144.5,-.5 1.5,-.5"/>
<text text-anchor="middle" x="73" y="-7.5" font-family="Helvetica,sans-Serif" font-size="10.00" fill="#000000">PETScWrappers::MatrixFree</text>
</g>
<!-- Node1 -->
<g id="node2" class="node">
<title>Node1</title>
<g id="a_node2"><a xlink:href="classPETScWrappers_1_1MatrixBase.html" target="_top" xlink:title="PETScWrappers::MatrixBase">
<polygon fill="#ffffff" stroke="#000000" points="0,-56.5 0,-75.5 146,-75.5 146,-56.5 0,-56.5"/>
<text text-anchor="middle" x="73" y="-63.5" font-family="Helvetica,sans-Serif" font-size="10.00" fill="#000000">PETScWrappers::MatrixBase</text>
</a>
</g>
</g>
<!-- Node1&#45;&gt;Node0 -->
<g id="edge1" class="edge">
<title>Node1&#45;&gt;Node0</title>
<path fill="none" stroke="#191970" d="M73,-46.1575C73,-37.155 73,-26.9199 73,-19.6427"/>
<polygon fill="#191970" stroke="#191970" points="69.5001,-46.2455 73,-56.2455 76.5001,-46.2456 69.5001,-46.2455"/>
</g>
<!-- Node2 -->
<g id="node3" class="node">
<title>Node2</title>
<g id="a_node3"><a xlink:href="classSubscriptor.html" target="_top" xlink:title="Subscriptor">
<polygon fill="#ffffff" stroke="#000000" points="40,-112.5 40,-131.5 106,-131.5 106,-112.5 40,-112.5"/>
<text text-anchor="middle" x="73" y="-119.5" font-family="Helvetica,sans-Serif" font-size="10.00" fill="#000000">Subscriptor</text>
</a>
</g>
</g>
<!-- Node2&#45;&gt;Node1 -->
<g id="edge2" class="edge">
<title>Node2&#45;&gt;Node1</title>
<path fill="none" stroke="#191970" d="M73,-102.1575C73,-93.155 73,-82.9199 73,-75.6427"/>
<polygon fill="#191970" stroke="#191970" points="69.5001,-102.2455 73,-112.2455 76.5001,-102.2456 69.5001,-102.2455"/>
</g>
</g>
</svg>
