<?xml version="1.0" encoding="UTF-8" standalone="no"?>
<!DOCTYPE svg PUBLIC "-//W3C//DTD SVG 1.1//EN"
 "http://www.w3.org/Graphics/SVG/1.1/DTD/svg11.dtd">
<!-- Generated by graphviz version 2.40.1 (20161225.0304)
 -->
<!-- Title: MatrixTableIterators::Accessor&lt; TableType, true, storage_order &gt; Pages: 1 -->
<!--zoomable 668 -->
<svg id="main" version="1.1" xmlns="http://www.w3.org/2000/svg" xmlns:xlink="http://www.w3.org/1999/xlink" xml:space="preserve" onload="init(evt)">
<style type="text/css"><![CDATA[
.edge:hover path { stroke: red; }
.edge:hover polygon { stroke: red; fill: red; }
]]></style>
<script type="text/javascript"><![CDATA[
var edges = document.getElementsByTagName('g');
if (edges && edges.length) {
  for (var i=0;i<edges.length;i++) {
    if (edges[i].id.substr(0,4)=='edge') {
      edges[i].setAttribute('class','edge');
    }
  }
}
]]></script>
        <defs>
                <circle id="rim" cx="0" cy="0" r="7"/>
                <circle id="rim2" cx="0" cy="0" r="3.5"/>
                <g id="zoomPlus">
                        <use xlink:href="#rim" fill="#404040">
                                <set attributeName="fill" to="#808080" begin="zoomplus.mouseover" end="zoomplus.mouseout"/>
                        </use>
                        <path d="M-4,0h8M0,-4v8" fill="none" stroke="white" stroke-width="1.5" pointer-events="none"/>
                </g>
                <g id="zoomMin">
                        <use xlink:href="#rim" fill="#404040">
                                <set attributeName="fill" to="#808080" begin="zoomminus.mouseover" end="zoomminus.mouseout"/>
                        </use>
                        <path d="M-4,0h8" fill="none" stroke="white" stroke-width="1.5" pointer-events="none"/>
                </g>
                <g id="dirArrow">
                        <path fill="none" stroke="white" stroke-width="1.5" d="M0,-3.0v7 M-2.5,-0.5L0,-3.0L2.5,-0.5"/>
                </g>
               <g id="resetDef">
                       <use xlink:href="#rim2" fill="#404040">
                               <set attributeName="fill" to="#808080" begin="reset.mouseover" end="reset.mouseout"/>
                       </use>
               </g>
        </defs>

<script type="text/javascript">
var viewWidth = 322;
var viewHeight = 668;
var sectionId = 'dynsection-1';
</script>
<script xlink:href="svgpan.js"/>
<svg id="graph" class="graph">
<g id="viewport">
<title>MatrixTableIterators::Accessor&lt; TableType, true, storage_order &gt;</title>
<polygon fill="#ffffff" stroke="transparent" points="-4,4 -4,-664 317.763,-664 317.763,4 -4,4"/>
<!-- Node3 -->
<g id="node1" class="node">
<title>Node3</title>
<polygon fill="#bfbfbf" stroke="#000000" points="85.763,-.5 85.763,-79.5 207.763,-79.5 207.763,-.5 85.763,-.5"/>
<text text-anchor="start" x="93.763" y="-67.5" font-family="Helvetica,sans-Serif" font-size="10.00" fill="#000000">MatrixTableIterators</text>
<text text-anchor="start" x="93.763" y="-56.5" font-family="Helvetica,sans-Serif" font-size="10.00" fill="#000000">::Accessor&lt; TableType,</text>
<text text-anchor="middle" x="146.763" y="-45.5" font-family="Helvetica,sans-Serif" font-size="10.00" fill="#000000"> true, storage_order &gt;</text>
<polyline fill="none" stroke="#000000" points="85.763,-38.5 207.763,-38.5 "/>
<text text-anchor="middle" x="146.763" y="-26.5" font-family="Helvetica,sans-Serif" font-size="10.00" fill="#000000"> </text>
<polyline fill="none" stroke="#000000" points="85.763,-19.5 207.763,-19.5 "/>
<text text-anchor="middle" x="146.763" y="-7.5" font-family="Helvetica,sans-Serif" font-size="10.00" fill="#000000"> </text>
</g>
<!-- Node4 -->
<g id="node2" class="node">
<title>Node4</title>
<g id="a_node2"><a xlink:href="classMatrixTableIterators_1_1AccessorBase.html" target="_top" xlink:title="{MatrixTableIterators\l::AccessorBase\&lt; TableType,\l true, storage_order \&gt;\n||+ AccessorBase()\l+ AccessorBase()\l+ AccessorBase()\l+ AccessorBase()\l+ value()\l+ operator const value\l_type &amp;()\l+ row()\l+ column()\l# assert_valid_linear\l_index()\l}">
<polygon fill="#ffffff" stroke="#000000" points="74.763,-117.5 74.763,-306.5 218.763,-306.5 218.763,-117.5 74.763,-117.5"/>
<text text-anchor="start" x="82.763" y="-294.5" font-family="Helvetica,sans-Serif" font-size="10.00" fill="#000000">MatrixTableIterators</text>
<text text-anchor="start" x="82.763" y="-283.5" font-family="Helvetica,sans-Serif" font-size="10.00" fill="#000000">::AccessorBase&lt; TableType,</text>
<text text-anchor="middle" x="146.763" y="-272.5" font-family="Helvetica,sans-Serif" font-size="10.00" fill="#000000"> true, storage_order &gt;</text>
<polyline fill="none" stroke="#000000" points="74.763,-265.5 218.763,-265.5 "/>
<text text-anchor="middle" x="146.763" y="-253.5" font-family="Helvetica,sans-Serif" font-size="10.00" fill="#000000"> </text>
<polyline fill="none" stroke="#000000" points="74.763,-246.5 218.763,-246.5 "/>
<text text-anchor="start" x="82.763" y="-234.5" font-family="Helvetica,sans-Serif" font-size="10.00" fill="#000000">+ AccessorBase()</text>
<text text-anchor="start" x="82.763" y="-223.5" font-family="Helvetica,sans-Serif" font-size="10.00" fill="#000000">+ AccessorBase()</text>
<text text-anchor="start" x="82.763" y="-212.5" font-family="Helvetica,sans-Serif" font-size="10.00" fill="#000000">+ AccessorBase()</text>
<text text-anchor="start" x="82.763" y="-201.5" font-family="Helvetica,sans-Serif" font-size="10.00" fill="#000000">+ AccessorBase()</text>
<text text-anchor="start" x="82.763" y="-190.5" font-family="Helvetica,sans-Serif" font-size="10.00" fill="#000000">+ value()</text>
<text text-anchor="start" x="82.763" y="-179.5" font-family="Helvetica,sans-Serif" font-size="10.00" fill="#000000">+ operator const value</text>
<text text-anchor="start" x="82.763" y="-168.5" font-family="Helvetica,sans-Serif" font-size="10.00" fill="#000000">_type &amp;()</text>
<text text-anchor="start" x="82.763" y="-157.5" font-family="Helvetica,sans-Serif" font-size="10.00" fill="#000000">+ row()</text>
<text text-anchor="start" x="82.763" y="-146.5" font-family="Helvetica,sans-Serif" font-size="10.00" fill="#000000">+ column()</text>
<text text-anchor="start" x="82.763" y="-135.5" font-family="Helvetica,sans-Serif" font-size="10.00" fill="#000000"># assert_valid_linear</text>
<text text-anchor="start" x="82.763" y="-124.5" font-family="Helvetica,sans-Serif" font-size="10.00" fill="#000000">_index()</text>
</a>
</g>
</g>
<!-- Node4&#45;&gt;Node3 -->
<g id="edge1" class="edge">
<title>Node4&#45;&gt;Node3</title>
<path fill="none" stroke="#191970" d="M146.763,-107.259C146.763,-97.578 146.763,-88.23 146.763,-79.7387"/>
<polygon fill="none" stroke="#191970" points="143.2631,-107.4462 146.763,-117.4462 150.2631,-107.4462 143.2631,-107.4462"/>
</g>
<!-- Node5 -->
<g id="node3" class="node">
<title>Node5</title>
<polygon fill="#ffffff" stroke="#bfbfbf" points="23.263,-602.5 23.263,-659.5 58.263,-659.5 58.263,-602.5 23.263,-602.5"/>
<text text-anchor="middle" x="40.763" y="-647.5" font-family="Helvetica,sans-Serif" font-size="10.00" fill="#000000">type</text>
<polyline fill="none" stroke="#bfbfbf" points="23.263,-640.5 58.263,-640.5 "/>
<text text-anchor="middle" x="40.763" y="-628.5" font-family="Helvetica,sans-Serif" font-size="10.00" fill="#000000"> </text>
<polyline fill="none" stroke="#bfbfbf" points="23.263,-621.5 58.263,-621.5 "/>
<text text-anchor="middle" x="40.763" y="-609.5" font-family="Helvetica,sans-Serif" font-size="10.00" fill="#000000"> </text>
</g>
<!-- Node5&#45;&gt;Node4 -->
<g id="edge2" class="edge">
<title>Node5&#45;&gt;Node4</title>
<path fill="none" stroke="#404040" d="M29.4012,-602.2647C24.4543,-588.2497 19.2293,-571 16.763,-555 3.8984,-471.5412 -12.3635,-444.2623 16.763,-365 27.4297,-335.9726 46.3175,-308.6881 66.4467,-285.4251"/>
<polygon fill="none" stroke="#404040" points="66.5262,-285.3359 67.5335,-278.1955 74.5121,-276.379 73.5048,-283.5194 66.5262,-285.3359"/>
<text text-anchor="middle" x="41.263" y="-457.5" font-family="Helvetica,sans-Serif" font-size="10.00" fill="#000000"> #container</text>
</g>
<!-- Node7 -->
<g id="node5" class="node">
<title>Node7</title>
<g id="a_node5"><a xlink:href="classMatrixTableIterators_1_1AccessorBase.html" target="_top" xlink:title="Accessor base class for Table&lt;2, T&gt; and TransposeTable. 该类与LinearIndexIterator中描述的对Accessor的...">
<polygon fill="#ffffff" stroke="#000000" points="74.763,-365.5 74.763,-554.5 218.763,-554.5 218.763,-365.5 74.763,-365.5"/>
<text text-anchor="start" x="82.763" y="-542.5" font-family="Helvetica,sans-Serif" font-size="10.00" fill="#000000">MatrixTableIterators</text>
<text text-anchor="start" x="82.763" y="-531.5" font-family="Helvetica,sans-Serif" font-size="10.00" fill="#000000">::AccessorBase&lt; TableType,</text>
<text text-anchor="middle" x="146.763" y="-520.5" font-family="Helvetica,sans-Serif" font-size="10.00" fill="#000000"> Constness, storage_order &gt;</text>
<polyline fill="none" stroke="#000000" points="74.763,-513.5 218.763,-513.5 "/>
<text text-anchor="middle" x="146.763" y="-501.5" font-family="Helvetica,sans-Serif" font-size="10.00" fill="#000000"> </text>
<polyline fill="none" stroke="#000000" points="74.763,-494.5 218.763,-494.5 "/>
<text text-anchor="start" x="82.763" y="-482.5" font-family="Helvetica,sans-Serif" font-size="10.00" fill="#000000">+ AccessorBase()</text>
<text text-anchor="start" x="82.763" y="-471.5" font-family="Helvetica,sans-Serif" font-size="10.00" fill="#000000">+ AccessorBase()</text>
<text text-anchor="start" x="82.763" y="-460.5" font-family="Helvetica,sans-Serif" font-size="10.00" fill="#000000">+ AccessorBase()</text>
<text text-anchor="start" x="82.763" y="-449.5" font-family="Helvetica,sans-Serif" font-size="10.00" fill="#000000">+ AccessorBase()</text>
<text text-anchor="start" x="82.763" y="-438.5" font-family="Helvetica,sans-Serif" font-size="10.00" fill="#000000">+ value()</text>
<text text-anchor="start" x="82.763" y="-427.5" font-family="Helvetica,sans-Serif" font-size="10.00" fill="#000000">+ operator const value</text>
<text text-anchor="start" x="82.763" y="-416.5" font-family="Helvetica,sans-Serif" font-size="10.00" fill="#000000">_type &amp;()</text>
<text text-anchor="start" x="82.763" y="-405.5" font-family="Helvetica,sans-Serif" font-size="10.00" fill="#000000">+ row()</text>
<text text-anchor="start" x="82.763" y="-394.5" font-family="Helvetica,sans-Serif" font-size="10.00" fill="#000000">+ column()</text>
<text text-anchor="start" x="82.763" y="-383.5" font-family="Helvetica,sans-Serif" font-size="10.00" fill="#000000"># assert_valid_linear</text>
<text text-anchor="start" x="82.763" y="-372.5" font-family="Helvetica,sans-Serif" font-size="10.00" fill="#000000">_index()</text>
</a>
</g>
</g>
<!-- Node5&#45;&gt;Node7 -->
<g id="edge5" class="edge">
<title>Node5&#45;&gt;Node7</title>
<path fill="none" stroke="#404040" d="M58.2668,-602.7628C64.9207,-592.0287 72.956,-579.0661 81.4371,-565.3842"/>
<polygon fill="none" stroke="#404040" points="81.6717,-565.0058 81.4331,-557.7986 87.9941,-554.8064 88.2327,-562.0136 81.6717,-565.0058"/>
<text text-anchor="middle" x="100.263" y="-576" font-family="Helvetica,sans-Serif" font-size="10.00" fill="#000000"> #container</text>
</g>
<!-- Node6 -->
<g id="node4" class="node">
<title>Node6</title>
<polygon fill="#ffffff" stroke="#bfbfbf" points="183.763,-602.5 183.763,-659.5 233.763,-659.5 233.763,-602.5 183.763,-602.5"/>
<text text-anchor="middle" x="208.763" y="-647.5" font-family="Helvetica,sans-Serif" font-size="10.00" fill="#000000">ptrdiff_t</text>
<polyline fill="none" stroke="#bfbfbf" points="183.763,-640.5 233.763,-640.5 "/>
<text text-anchor="middle" x="208.763" y="-628.5" font-family="Helvetica,sans-Serif" font-size="10.00" fill="#000000"> </text>
<polyline fill="none" stroke="#bfbfbf" points="183.763,-621.5 233.763,-621.5 "/>
<text text-anchor="middle" x="208.763" y="-609.5" font-family="Helvetica,sans-Serif" font-size="10.00" fill="#000000"> </text>
</g>
<!-- Node6&#45;&gt;Node4 -->
<g id="edge3" class="edge">
<title>Node6&#45;&gt;Node4</title>
<path fill="none" stroke="#404040" d="M232.1502,-602.3083C235.6956,-596.5522 238.8156,-590.3207 240.763,-584 242.2025,-579.3278 240.8221,-577.8885 240.763,-573 239.4296,-462.7536 271.835,-428.835 234.763,-325 232.1258,-317.6134 228.8025,-310.3316 225.0021,-303.2408"/>
<polygon fill="none" stroke="#404040" points="224.8843,-303.0361 218.4236,-299.833 218.8954,-292.6373 225.3561,-295.8404 224.8843,-303.0361"/>
<text text-anchor="middle" x="283.263" y="-457.5" font-family="Helvetica,sans-Serif" font-size="10.00" fill="#000000"> #linear_index</text>
</g>
<!-- Node6&#45;&gt;Node7 -->
<g id="edge6" class="edge">
<title>Node6&#45;&gt;Node7</title>
<path fill="none" stroke="#404040" d="M189.2845,-602.3835C185.7872,-596.4722 182.4166,-590.1647 179.763,-584 177.3209,-578.3266 175.0208,-572.4276 172.8604,-566.4183"/>
<polygon fill="none" stroke="#404040" points="172.756,-566.1126 167.0315,-561.7274 168.8776,-554.7566 174.6021,-559.1418 172.756,-566.1126"/>
<text text-anchor="middle" x="210.263" y="-576" font-family="Helvetica,sans-Serif" font-size="10.00" fill="#000000"> #linear_index</text>
</g>
<!-- Node7&#45;&gt;Node4 -->
<g id="edge4" class="edge">
<title>Node7&#45;&gt;Node4</title>
<path fill="none" stroke="#ffa500" d="M146.763,-354.7768C146.763,-338.8351 146.763,-322.4695 146.763,-306.7671"/>
<polygon fill="#ffa500" stroke="#ffa500" points="143.2631,-355.1803 146.763,-365.1803 150.2631,-355.1803 143.2631,-355.1803"/>
<text text-anchor="start" x="146.763" y="-339" font-family="Helvetica,sans-Serif" font-size="10.00" fill="#000000"> &lt; TableType, true,</text>
<text text-anchor="middle" x="188.763" y="-328" font-family="Helvetica,sans-Serif" font-size="10.00" fill="#000000"> storage_order &gt;</text>
</g>
</g>
</svg>
        <g id="navigator" transform="translate(0 0)" fill="#404254">
                <rect fill="#f2f5e9" fill-opacity="0.5" stroke="#606060" stroke-width=".5" x="0" y="0" width="60" height="60"/>
                <use id="zoomplus" xlink:href="#zoomPlus" x="17" y="9" onmousedown="handleZoom(evt,'in')"/>
                <use id="zoomminus" xlink:href="#zoomMin" x="42" y="9" onmousedown="handleZoom(evt,'out')"/>
                <use id="reset" xlink:href="#resetDef" x="30" y="36" onmousedown="handleReset()"/>
                <g id="arrowUp" xlink:href="#dirArrow" transform="translate(30 24)" onmousedown="handlePan(0,-1)">
                  <use xlink:href="#rim" fill="#404040">
                        <set attributeName="fill" to="#808080" begin="arrowUp.mouseover" end="arrowUp.mouseout"/>
                  </use>
                  <path fill="none" stroke="white" stroke-width="1.5" d="M0,-3.0v7 M-2.5,-0.5L0,-3.0L2.5,-0.5"/>
                </g>
                <g id="arrowRight" xlink:href="#dirArrow" transform="rotate(90) translate(36 -43)" onmousedown="handlePan(1,0)">
                  <use xlink:href="#rim" fill="#404040">
                        <set attributeName="fill" to="#808080" begin="arrowRight.mouseover" end="arrowRight.mouseout"/>
                  </use>
                  <path fill="none" stroke="white" stroke-width="1.5" d="M0,-3.0v7 M-2.5,-0.5L0,-3.0L2.5,-0.5"/>
                </g>
                <g id="arrowDown" xlink:href="#dirArrow" transform="rotate(180) translate(-30 -48)" onmousedown="handlePan(0,1)">
                  <use xlink:href="#rim" fill="#404040">
                        <set attributeName="fill" to="#808080" begin="arrowDown.mouseover" end="arrowDown.mouseout"/>
                  </use>
                  <path fill="none" stroke="white" stroke-width="1.5" d="M0,-3.0v7 M-2.5,-0.5L0,-3.0L2.5,-0.5"/>
                </g>
                <g id="arrowLeft" xlink:href="#dirArrow" transform="rotate(270) translate(-36 17)" onmousedown="handlePan(-1,0)">
                  <use xlink:href="#rim" fill="#404040">
                        <set attributeName="fill" to="#808080" begin="arrowLeft.mouseover" end="arrowLeft.mouseout"/>
                  </use>
                  <path fill="none" stroke="white" stroke-width="1.5" d="M0,-3.0v7 M-2.5,-0.5L0,-3.0L2.5,-0.5"/>
                </g>
        </g>
        <svg viewBox="0 0 15 15" width="100%" height="30px" preserveAspectRatio="xMaxYMin meet">
         <g id="arrow_out" transform="scale(0.3 0.3)">
          <a xlink:href="classMatrixTableIterators_1_1Accessor_3_01TableType_00_01true_00_01storage__order_01_4__coll__graph_org.svg" target="_base">
           <rect id="button" ry="5" rx="5" y="6" x="6" height="38" width="38"
                fill="#f2f5e9" fill-opacity="0.5" stroke="#606060" stroke-width="1.0"/>
           <path id="arrow"
             d="M 11.500037,31.436501 C 11.940474,20.09759 22.043105,11.32322 32.158766,21.979434 L 37.068811,17.246167 C 37.068811,17.246167 37.088388,32 37.088388,32 L 22.160133,31.978069 C 22.160133,31.978069 26.997745,27.140456 26.997745,27.140456 C 18.528582,18.264221 13.291696,25.230495 11.500037,31.436501 z"
             style="fill:#404040;"/>
          </a>
         </g>
        </svg>
</svg>
