<?xml version="1.0" encoding="UTF-8" standalone="no"?>
<!DOCTYPE svg PUBLIC "-//W3C//DTD SVG 1.1//EN"
 "http://www.w3.org/Graphics/SVG/1.1/DTD/svg11.dtd">
<!-- Generated by graphviz version 2.40.1 (20161225.0304)
 -->
<!-- Title: ArborXWrappers::BVH Pages: 1 -->
<svg width="151pt" height="193pt"
 viewBox="0.00 0.00 151.00 193.00" xmlns="http://www.w3.org/2000/svg" xmlns:xlink="http://www.w3.org/1999/xlink">
<g id="graph0" class="graph" transform="scale(1 1) rotate(0) translate(4 189)">
<title>ArborXWrappers::BVH</title>
<polygon fill="#ffffff" stroke="transparent" points="-4,4 -4,-189 147,-189 147,4 -4,4"/>
<!-- Node1 -->
<g id="node1" class="node">
<title>Node1</title>
<polygon fill="#bfbfbf" stroke="#000000" points="13.5,-.5 13.5,-79.5 129.5,-79.5 129.5,-.5 13.5,-.5"/>
<text text-anchor="middle" x="71.5" y="-67.5" font-family="Helvetica,sans-Serif" font-size="10.00" fill="#000000">ArborXWrappers::BVH</text>
<polyline fill="none" stroke="#000000" points="13.5,-60.5 129.5,-60.5 "/>
<text text-anchor="middle" x="71.5" y="-48.5" font-family="Helvetica,sans-Serif" font-size="10.00" fill="#000000"> </text>
<polyline fill="none" stroke="#000000" points="13.5,-41.5 129.5,-41.5 "/>
<text text-anchor="start" x="21.5" y="-29.5" font-family="Helvetica,sans-Serif" font-size="10.00" fill="#000000">+ BVH()</text>
<text text-anchor="start" x="21.5" y="-18.5" font-family="Helvetica,sans-Serif" font-size="10.00" fill="#000000">+ BVH()</text>
<text text-anchor="start" x="21.5" y="-7.5" font-family="Helvetica,sans-Serif" font-size="10.00" fill="#000000">+ query()</text>
</g>
<!-- Node2 -->
<g id="node2" class="node">
<title>Node2</title>
<polygon fill="#ffffff" stroke="#bfbfbf" points="0,-127.5 0,-184.5 143,-184.5 143,-127.5 0,-127.5"/>
<text text-anchor="middle" x="71.5" y="-172.5" font-family="Helvetica,sans-Serif" font-size="10.00" fill="#000000">BVH&lt; Kokkos::HostSpace &gt;</text>
<polyline fill="none" stroke="#bfbfbf" points="0,-165.5 143,-165.5 "/>
<text text-anchor="middle" x="71.5" y="-153.5" font-family="Helvetica,sans-Serif" font-size="10.00" fill="#000000"> </text>
<polyline fill="none" stroke="#bfbfbf" points="0,-146.5 143,-146.5 "/>
<text text-anchor="middle" x="71.5" y="-134.5" font-family="Helvetica,sans-Serif" font-size="10.00" fill="#000000"> </text>
</g>
<!-- Node2&#45;&gt;Node1 -->
<g id="edge1" class="edge">
<title>Node2&#45;&gt;Node1</title>
<path fill="none" stroke="#404040" d="M71.5,-127.3258C71.5,-116.5576 71.5,-103.9593 71.5,-91.7364"/>
<polygon fill="none" stroke="#404040" points="71.5001,-91.7203 67.5,-85.7203 71.5,-79.7203 75.5,-85.7203 71.5001,-91.7203"/>
<text text-anchor="middle" x="82.5" y="-101" font-family="Helvetica,sans-Serif" font-size="10.00" fill="#000000"> &#45;bvh</text>
</g>
</g>
</svg>
