<?xml version="1.0" encoding="UTF-8" standalone="no"?>
<!DOCTYPE svg PUBLIC "-//W3C//DTD SVG 1.1//EN"
 "http://www.w3.org/Graphics/SVG/1.1/DTD/svg11.dtd">
<!-- Generated by graphviz version 2.40.1 (20161225.0304)
 -->
<!-- Title: MeshWorker::VectorDataBase&lt; dim, spacedim, Number &gt; Pages: 1 -->
<svg width="219pt" height="389pt"
 viewBox="0.00 0.00 218.50 389.00" xmlns="http://www.w3.org/2000/svg" xmlns:xlink="http://www.w3.org/1999/xlink">
<g id="graph0" class="graph" transform="scale(1 1) rotate(0) translate(4 385)">
<title>MeshWorker::VectorDataBase&lt; dim, spacedim, Number &gt;</title>
<polygon fill="#ffffff" stroke="transparent" points="-4,4 -4,-385 214.5,-385 214.5,4 -4,4"/>
<!-- Node0 -->
<g id="node1" class="node">
<title>Node0</title>
<polygon fill="#bfbfbf" stroke="#000000" points="2.5,-236.5 2.5,-266.5 152.5,-266.5 152.5,-236.5 2.5,-236.5"/>
<text text-anchor="start" x="10.5" y="-254.5" font-family="Helvetica,sans-Serif" font-size="10.00" fill="#000000">MeshWorker::VectorDataBase</text>
<text text-anchor="middle" x="77.5" y="-243.5" font-family="Helvetica,sans-Serif" font-size="10.00" fill="#000000">&lt; dim, spacedim, Number &gt;</text>
</g>
<!-- Node3 -->
<g id="node4" class="node">
<title>Node3</title>
<g id="a_node4"><a xlink:href="classMeshWorker_1_1VectorDataBase.html" target="_top" xlink:title="MeshWorker::VectorDataBase\l\&lt; dim, spacedim, VectorType\l::value_type \&gt;">
<polygon fill="#ffffff" stroke="#000000" points="2.5,-136.5 2.5,-177.5 152.5,-177.5 152.5,-136.5 2.5,-136.5"/>
<text text-anchor="start" x="10.5" y="-165.5" font-family="Helvetica,sans-Serif" font-size="10.00" fill="#000000">MeshWorker::VectorDataBase</text>
<text text-anchor="start" x="10.5" y="-154.5" font-family="Helvetica,sans-Serif" font-size="10.00" fill="#000000">&lt; dim, spacedim, VectorType</text>
<text text-anchor="middle" x="77.5" y="-143.5" font-family="Helvetica,sans-Serif" font-size="10.00" fill="#000000">::value_type &gt;</text>
</a>
</g>
</g>
<!-- Node0&#45;&gt;Node3 -->
<g id="edge3" class="edge">
<title>Node0&#45;&gt;Node3</title>
<path fill="none" stroke="#ffa500" stroke-dasharray="5,2" d="M77.5,-226.1013C77.5,-210.9736 77.5,-192.0135 77.5,-177.7823"/>
<polygon fill="#ffa500" stroke="#ffa500" points="74.0001,-226.3169 77.5,-236.3169 81.0001,-226.317 74.0001,-226.3169"/>
<text text-anchor="start" x="77.5" y="-210" font-family="Helvetica,sans-Serif" font-size="10.00" fill="#000000"> &lt; dim, spacedim, VectorType</text>
<text text-anchor="middle" x="144" y="-199" font-family="Helvetica,sans-Serif" font-size="10.00" fill="#000000">::value_type &gt;</text>
</g>
<!-- Node1 -->
<g id="node2" class="node">
<title>Node1</title>
<g id="a_node2"><a xlink:href="classMeshWorker_1_1VectorSelector.html" target="_top" xlink:title="MeshWorker::VectorSelector">
<polygon fill="#ffffff" stroke="#000000" points="6,-304.5 6,-323.5 149,-323.5 149,-304.5 6,-304.5"/>
<text text-anchor="middle" x="77.5" y="-311.5" font-family="Helvetica,sans-Serif" font-size="10.00" fill="#000000">MeshWorker::VectorSelector</text>
</a>
</g>
</g>
<!-- Node1&#45;&gt;Node0 -->
<g id="edge1" class="edge">
<title>Node1&#45;&gt;Node0</title>
<path fill="none" stroke="#191970" d="M77.5,-294.0501C77.5,-285.2205 77.5,-275.0001 77.5,-266.7892"/>
<polygon fill="#191970" stroke="#191970" points="74.0001,-294.2343 77.5,-304.2344 81.0001,-294.2344 74.0001,-294.2343"/>
</g>
<!-- Node2 -->
<g id="node3" class="node">
<title>Node2</title>
<g id="a_node3"><a xlink:href="classSubscriptor.html" target="_top" xlink:title="Subscriptor">
<polygon fill="#ffffff" stroke="#000000" points="44.5,-361.5 44.5,-380.5 110.5,-380.5 110.5,-361.5 44.5,-361.5"/>
<text text-anchor="middle" x="77.5" y="-368.5" font-family="Helvetica,sans-Serif" font-size="10.00" fill="#000000">Subscriptor</text>
</a>
</g>
</g>
<!-- Node2&#45;&gt;Node1 -->
<g id="edge2" class="edge">
<title>Node2&#45;&gt;Node1</title>
<path fill="none" stroke="#191970" d="M77.5,-351.2342C77.5,-341.8491 77.5,-331.0651 77.5,-323.5265"/>
<polygon fill="#191970" stroke="#191970" points="74.0001,-351.3307 77.5,-361.3307 81.0001,-351.3308 74.0001,-351.3307"/>
</g>
<!-- Node4 -->
<g id="node5" class="node">
<title>Node4</title>
<g id="a_node5"><a xlink:href="classMeshWorker_1_1VectorData.html" target="_top" xlink:title="MeshWorker::VectorData\l\&lt; VectorType, dim, spacedim \&gt;">
<polygon fill="#ffffff" stroke="#000000" points="0,-68.5 0,-98.5 155,-98.5 155,-68.5 0,-68.5"/>
<text text-anchor="start" x="8" y="-86.5" font-family="Helvetica,sans-Serif" font-size="10.00" fill="#000000">MeshWorker::VectorData</text>
<text text-anchor="middle" x="77.5" y="-75.5" font-family="Helvetica,sans-Serif" font-size="10.00" fill="#000000">&lt; VectorType, dim, spacedim &gt;</text>
</a>
</g>
</g>
<!-- Node3&#45;&gt;Node4 -->
<g id="edge4" class="edge">
<title>Node3&#45;&gt;Node4</title>
<path fill="none" stroke="#191970" d="M77.5,-125.9048C77.5,-116.5365 77.5,-106.666 77.5,-98.8074"/>
<polygon fill="#191970" stroke="#191970" points="74.0001,-126.1344 77.5,-136.1345 81.0001,-126.1345 74.0001,-126.1344"/>
</g>
<!-- Node5 -->
<g id="node6" class="node">
<title>Node5</title>
<g id="a_node6"><a xlink:href="classMeshWorker_1_1MGVectorData.html" target="_top" xlink:title="MeshWorker::MGVectorData\l\&lt; VectorType, dim, spacedim \&gt;">
<polygon fill="#ffffff" stroke="#000000" points="0,-.5 0,-30.5 155,-30.5 155,-.5 0,-.5"/>
<text text-anchor="start" x="8" y="-18.5" font-family="Helvetica,sans-Serif" font-size="10.00" fill="#000000">MeshWorker::MGVectorData</text>
<text text-anchor="middle" x="77.5" y="-7.5" font-family="Helvetica,sans-Serif" font-size="10.00" fill="#000000">&lt; VectorType, dim, spacedim &gt;</text>
</a>
</g>
</g>
<!-- Node4&#45;&gt;Node5 -->
<g id="edge5" class="edge">
<title>Node4&#45;&gt;Node5</title>
<path fill="none" stroke="#191970" d="M77.5,-58.1174C77.5,-48.8378 77.5,-38.6413 77.5,-30.5492"/>
<polygon fill="#191970" stroke="#191970" points="74.0001,-58.4086 77.5,-68.4086 81.0001,-58.4086 74.0001,-58.4086"/>
</g>
</g>
</svg>
