<?xml version="1.0" encoding="UTF-8" standalone="no"?>
<!DOCTYPE svg PUBLIC "-//W3C//DTD SVG 1.1//EN"
 "http://www.w3.org/Graphics/SVG/1.1/DTD/svg11.dtd">
<!-- Generated by graphviz version 2.40.1 (20161225.0304)
 -->
<!-- Title: DesignPattern::AbstractFactory::AbstractProductB Pages: 1 -->
<svg width="336pt" height="215pt"
 viewBox="0.00 0.00 336.00 215.00" xmlns="http://www.w3.org/2000/svg" xmlns:xlink="http://www.w3.org/1999/xlink">
<g id="graph0" class="graph" transform="scale(1 1) rotate(0) translate(4 211)">
<title>DesignPattern::AbstractFactory::AbstractProductB</title>
<polygon fill="#ffffff" stroke="transparent" points="-4,4 -4,-211 332,-211 332,4 -4,4"/>
<!-- Node0 -->
<g id="node1" class="node">
<title>Node0</title>
<polygon fill="#bfbfbf" stroke="#000000" points="86,-116.5 86,-206.5 241,-206.5 241,-116.5 86,-116.5"/>
<text text-anchor="start" x="94" y="-194.5" font-family="Helvetica,sans-Serif" font-size="10.00" fill="#000000">DesignPattern::AbstractFactory</text>
<text text-anchor="middle" x="163.5" y="-183.5" font-family="Helvetica,sans-Serif" font-size="10.00" fill="#000000">::AbstractProductB</text>
<polyline fill="none" stroke="#000000" points="86,-176.5 241,-176.5 "/>
<text text-anchor="middle" x="163.5" y="-164.5" font-family="Helvetica,sans-Serif" font-size="10.00" fill="#000000"> </text>
<polyline fill="none" stroke="#000000" points="86,-157.5 241,-157.5 "/>
<text text-anchor="start" x="94" y="-145.5" font-family="Helvetica,sans-Serif" font-size="10.00" fill="#000000">+ ~AbstractProductB()</text>
<text text-anchor="start" x="94" y="-134.5" font-family="Helvetica,sans-Serif" font-size="10.00" fill="#000000">+ UsefulFunctionB()</text>
<text text-anchor="start" x="94" y="-123.5" font-family="Helvetica,sans-Serif" font-size="10.00" fill="#000000">+ AnotherUsefulFunctionB()</text>
</g>
<!-- Node1 -->
<g id="node2" class="node">
<title>Node1</title>
<g id="a_node2"><a xlink:href="classDesignPattern_1_1AbstractFactory_1_1ConcreteProductB1.html" target="_top" xlink:title="{DesignPattern::AbstractFactory\l::ConcreteProductB1\n||+ UsefulFunctionB()\l+ AnotherUsefulFunctionB()\l}">
<polygon fill="#ffffff" stroke="#000000" points="0,-.5 0,-79.5 155,-79.5 155,-.5 0,-.5"/>
<text text-anchor="start" x="8" y="-67.5" font-family="Helvetica,sans-Serif" font-size="10.00" fill="#000000">DesignPattern::AbstractFactory</text>
<text text-anchor="middle" x="77.5" y="-56.5" font-family="Helvetica,sans-Serif" font-size="10.00" fill="#000000">::ConcreteProductB1</text>
<polyline fill="none" stroke="#000000" points="0,-49.5 155,-49.5 "/>
<text text-anchor="middle" x="77.5" y="-37.5" font-family="Helvetica,sans-Serif" font-size="10.00" fill="#000000"> </text>
<polyline fill="none" stroke="#000000" points="0,-30.5 155,-30.5 "/>
<text text-anchor="start" x="8" y="-18.5" font-family="Helvetica,sans-Serif" font-size="10.00" fill="#000000">+ UsefulFunctionB()</text>
<text text-anchor="start" x="8" y="-7.5" font-family="Helvetica,sans-Serif" font-size="10.00" fill="#000000">+ AnotherUsefulFunctionB()</text>
</a>
</g>
</g>
<!-- Node0&#45;&gt;Node1 -->
<g id="edge1" class="edge">
<title>Node0&#45;&gt;Node1</title>
<path fill="none" stroke="#191970" d="M125.6215,-107.9856C118.8896,-98.4749 111.9879,-88.7242 105.5889,-79.6838"/>
<polygon fill="none" stroke="#191970" points="122.8426,-110.1177 131.4768,-116.2579 128.5561,-106.0735 122.8426,-110.1177"/>
</g>
<!-- Node2 -->
<g id="node3" class="node">
<title>Node2</title>
<g id="a_node3"><a xlink:href="classDesignPattern_1_1AbstractFactory_1_1ConcreteProductB2.html" target="_top" xlink:title="{DesignPattern::AbstractFactory\l::ConcreteProductB2\n||+ UsefulFunctionB()\l+ AnotherUsefulFunctionB()\l}">
<polygon fill="#ffffff" stroke="#000000" points="173,-.5 173,-79.5 328,-79.5 328,-.5 173,-.5"/>
<text text-anchor="start" x="181" y="-67.5" font-family="Helvetica,sans-Serif" font-size="10.00" fill="#000000">DesignPattern::AbstractFactory</text>
<text text-anchor="middle" x="250.5" y="-56.5" font-family="Helvetica,sans-Serif" font-size="10.00" fill="#000000">::ConcreteProductB2</text>
<polyline fill="none" stroke="#000000" points="173,-49.5 328,-49.5 "/>
<text text-anchor="middle" x="250.5" y="-37.5" font-family="Helvetica,sans-Serif" font-size="10.00" fill="#000000"> </text>
<polyline fill="none" stroke="#000000" points="173,-30.5 328,-30.5 "/>
<text text-anchor="start" x="181" y="-18.5" font-family="Helvetica,sans-Serif" font-size="10.00" fill="#000000">+ UsefulFunctionB()</text>
<text text-anchor="start" x="181" y="-7.5" font-family="Helvetica,sans-Serif" font-size="10.00" fill="#000000">+ AnotherUsefulFunctionB()</text>
</a>
</g>
</g>
<!-- Node0&#45;&gt;Node2 -->
<g id="edge2" class="edge">
<title>Node0&#45;&gt;Node2</title>
<path fill="none" stroke="#191970" d="M201.8189,-107.9856C208.6291,-98.4749 215.6111,-88.7242 222.0844,-79.6838"/>
<polygon fill="none" stroke="#191970" points="198.8718,-106.0896 195.8956,-116.2579 204.5632,-110.165 198.8718,-106.0896"/>
</g>
</g>
</svg>
