<?xml version="1.0" encoding="UTF-8" standalone="no"?>
<!DOCTYPE svg PUBLIC "-//W3C//DTD SVG 1.1//EN"
 "http://www.w3.org/Graphics/SVG/1.1/DTD/svg11.dtd">
<!-- Generated by graphviz version 2.40.1 (20161225.0304)
 -->
<!-- Title: DesignPattern::Builder::Director Pages: 1 -->
<svg width="156pt" height="248pt"
 viewBox="0.00 0.00 156.00 248.00" xmlns="http://www.w3.org/2000/svg" xmlns:xlink="http://www.w3.org/1999/xlink">
<g id="graph0" class="graph" transform="scale(1 1) rotate(0) translate(4 244)">
<title>DesignPattern::Builder::Director</title>
<polygon fill="#ffffff" stroke="transparent" points="-4,4 -4,-244 152,-244 152,4 -4,4"/>
<!-- Node1 -->
<g id="node1" class="node">
<title>Node1</title>
<polygon fill="#bfbfbf" stroke="#000000" points="0,-.5 0,-90.5 148,-90.5 148,-.5 0,-.5"/>
<text text-anchor="start" x="8" y="-78.5" font-family="Helvetica,sans-Serif" font-size="10.00" fill="#000000">DesignPattern::Builder</text>
<text text-anchor="middle" x="74" y="-67.5" font-family="Helvetica,sans-Serif" font-size="10.00" fill="#000000">::Director</text>
<polyline fill="none" stroke="#000000" points="0,-60.5 148,-60.5 "/>
<text text-anchor="middle" x="74" y="-48.5" font-family="Helvetica,sans-Serif" font-size="10.00" fill="#000000"> </text>
<polyline fill="none" stroke="#000000" points="0,-41.5 148,-41.5 "/>
<text text-anchor="start" x="8" y="-29.5" font-family="Helvetica,sans-Serif" font-size="10.00" fill="#000000">+ set_builder()</text>
<text text-anchor="start" x="8" y="-18.5" font-family="Helvetica,sans-Serif" font-size="10.00" fill="#000000">+ BuildMinimalViableProduct()</text>
<text text-anchor="start" x="8" y="-7.5" font-family="Helvetica,sans-Serif" font-size="10.00" fill="#000000">+ BuildFullFeaturedProduct()</text>
</g>
<!-- Node2 -->
<g id="node2" class="node">
<title>Node2</title>
<g id="a_node2"><a xlink:href="classDesignPattern_1_1Builder_1_1Builder.html" target="_top" xlink:title="{DesignPattern::Builder\l::Builder\n||+ ~Builder()\l+ ProducePartA()\l+ ProducePartB()\l+ ProducePartC()\l}">
<polygon fill="#ffffff" stroke="#000000" points="16.5,-138.5 16.5,-239.5 131.5,-239.5 131.5,-138.5 16.5,-138.5"/>
<text text-anchor="start" x="24.5" y="-227.5" font-family="Helvetica,sans-Serif" font-size="10.00" fill="#000000">DesignPattern::Builder</text>
<text text-anchor="middle" x="74" y="-216.5" font-family="Helvetica,sans-Serif" font-size="10.00" fill="#000000">::Builder</text>
<polyline fill="none" stroke="#000000" points="16.5,-209.5 131.5,-209.5 "/>
<text text-anchor="middle" x="74" y="-197.5" font-family="Helvetica,sans-Serif" font-size="10.00" fill="#000000"> </text>
<polyline fill="none" stroke="#000000" points="16.5,-190.5 131.5,-190.5 "/>
<text text-anchor="start" x="24.5" y="-178.5" font-family="Helvetica,sans-Serif" font-size="10.00" fill="#000000">+ ~Builder()</text>
<text text-anchor="start" x="24.5" y="-167.5" font-family="Helvetica,sans-Serif" font-size="10.00" fill="#000000">+ ProducePartA()</text>
<text text-anchor="start" x="24.5" y="-156.5" font-family="Helvetica,sans-Serif" font-size="10.00" fill="#000000">+ ProducePartB()</text>
<text text-anchor="start" x="24.5" y="-145.5" font-family="Helvetica,sans-Serif" font-size="10.00" fill="#000000">+ ProducePartC()</text>
</a>
</g>
</g>
<!-- Node2&#45;&gt;Node1 -->
<g id="edge1" class="edge">
<title>Node2&#45;&gt;Node1</title>
<path fill="none" stroke="#404040" d="M74,-138.4073C74,-126.9086 74,-114.6138 74,-102.8566"/>
<polygon fill="none" stroke="#404040" points="74.0001,-102.855 70,-96.8551 74,-90.855 78,-96.855 74.0001,-102.855"/>
<text text-anchor="middle" x="91.5" y="-112" font-family="Helvetica,sans-Serif" font-size="10.00" fill="#000000"> &#45;builder</text>
</g>
</g>
</svg>
