<?xml version="1.0" encoding="UTF-8" standalone="no"?>
<!DOCTYPE svg PUBLIC "-//W3C//DTD SVG 1.1//EN"
 "http://www.w3.org/Graphics/SVG/1.1/DTD/svg11.dtd">
<!-- Generated by graphviz version 2.40.1 (20161225.0304)
 -->
<!-- Title: MatrixFreeOperators::Base&lt; dim, VectorType, VectorizedArrayType &gt; Pages: 1 -->
<svg width="421pt" height="132pt"
 viewBox="0.00 0.00 421.00 132.00" xmlns="http://www.w3.org/2000/svg" xmlns:xlink="http://www.w3.org/1999/xlink">
<g id="graph0" class="graph" transform="scale(1 1) rotate(0) translate(4 128)">
<title>MatrixFreeOperators::Base&lt; dim, VectorType, VectorizedArrayType &gt;</title>
<polygon fill="#ffffff" stroke="transparent" points="-4,4 -4,-128 417,-128 417,4 -4,4"/>
<!-- Node0 -->
<g id="node1" class="node">
<title>Node0</title>
<polygon fill="#bfbfbf" stroke="#000000" points="102,-41 102,-82 231,-82 231,-41 102,-41"/>
<text text-anchor="start" x="110" y="-70" font-family="Helvetica,sans-Serif" font-size="10.00" fill="#000000">MatrixFreeOperators</text>
<text text-anchor="start" x="110" y="-59" font-family="Helvetica,sans-Serif" font-size="10.00" fill="#000000">::Base&lt; dim, VectorType,</text>
<text text-anchor="middle" x="166.5" y="-48" font-family="Helvetica,sans-Serif" font-size="10.00" fill="#000000"> VectorizedArrayType &gt;</text>
</g>
<!-- Node2 -->
<g id="node3" class="node">
<title>Node2</title>
<g id="a_node3"><a xlink:href="classMatrixFreeOperators_1_1LaplaceOperator.html" target="_top" xlink:title="MatrixFreeOperators\l::LaplaceOperator\&lt; dim,\l VectorType, VectorizedArray\lType \&gt;">
<polygon fill="#ffffff" stroke="#000000" points="267,-71.5 267,-123.5 413,-123.5 413,-71.5 267,-71.5"/>
<text text-anchor="start" x="275" y="-111.5" font-family="Helvetica,sans-Serif" font-size="10.00" fill="#000000">MatrixFreeOperators</text>
<text text-anchor="start" x="275" y="-100.5" font-family="Helvetica,sans-Serif" font-size="10.00" fill="#000000">::LaplaceOperator&lt; dim,</text>
<text text-anchor="start" x="275" y="-89.5" font-family="Helvetica,sans-Serif" font-size="10.00" fill="#000000"> VectorType, VectorizedArray</text>
<text text-anchor="middle" x="340" y="-78.5" font-family="Helvetica,sans-Serif" font-size="10.00" fill="#000000">Type &gt;</text>
</a>
</g>
</g>
<!-- Node0&#45;&gt;Node2 -->
<g id="edge2" class="edge">
<title>Node0&#45;&gt;Node2</title>
<path fill="none" stroke="#191970" d="M241.0564,-76.9699C249.6142,-78.7456 258.3335,-80.5548 266.8722,-82.3265"/>
<polygon fill="#191970" stroke="#191970" points="241.6075,-73.5098 231.105,-74.9051 240.1853,-80.3638 241.6075,-73.5098"/>
</g>
<!-- Node3 -->
<g id="node4" class="node">
<title>Node3</title>
<g id="a_node4"><a xlink:href="classMatrixFreeOperators_1_1MassOperator.html" target="_top" xlink:title="MatrixFreeOperators\l::MassOperator\&lt; dim,\l VectorType, VectorizedArray\lType \&gt;">
<polygon fill="#ffffff" stroke="#000000" points="267,-.5 267,-52.5 413,-52.5 413,-.5 267,-.5"/>
<text text-anchor="start" x="275" y="-40.5" font-family="Helvetica,sans-Serif" font-size="10.00" fill="#000000">MatrixFreeOperators</text>
<text text-anchor="start" x="275" y="-29.5" font-family="Helvetica,sans-Serif" font-size="10.00" fill="#000000">::MassOperator&lt; dim,</text>
<text text-anchor="start" x="275" y="-18.5" font-family="Helvetica,sans-Serif" font-size="10.00" fill="#000000"> VectorType, VectorizedArray</text>
<text text-anchor="middle" x="340" y="-7.5" font-family="Helvetica,sans-Serif" font-size="10.00" fill="#000000">Type &gt;</text>
</a>
</g>
</g>
<!-- Node0&#45;&gt;Node3 -->
<g id="edge3" class="edge">
<title>Node0&#45;&gt;Node3</title>
<path fill="none" stroke="#191970" d="M241.0564,-46.4598C249.6142,-44.7335 258.3335,-42.9745 266.8722,-41.252"/>
<polygon fill="#191970" stroke="#191970" points="240.2154,-43.0589 231.105,-48.4673 241.5997,-49.9206 240.2154,-43.0589"/>
</g>
<!-- Node1 -->
<g id="node2" class="node">
<title>Node1</title>
<g id="a_node2"><a xlink:href="classSubscriptor.html" target="_top" xlink:title="Subscriptor">
<polygon fill="#ffffff" stroke="#000000" points="0,-52 0,-71 66,-71 66,-52 0,-52"/>
<text text-anchor="middle" x="33" y="-59" font-family="Helvetica,sans-Serif" font-size="10.00" fill="#000000">Subscriptor</text>
</a>
</g>
</g>
<!-- Node1&#45;&gt;Node0 -->
<g id="edge1" class="edge">
<title>Node1&#45;&gt;Node0</title>
<path fill="none" stroke="#191970" d="M76.0811,-61.5C84.308,-61.5 93.086,-61.5 101.8168,-61.5"/>
<polygon fill="#191970" stroke="#191970" points="76,-58.0001 66,-61.5 76,-65.0001 76,-58.0001"/>
</g>
</g>
</svg>
