<?xml version="1.0" encoding="UTF-8" standalone="no"?>
<!DOCTYPE svg PUBLIC "-//W3C//DTD SVG 1.1//EN"
 "http://www.w3.org/Graphics/SVG/1.1/DTD/svg11.dtd">
<!-- Generated by graphviz version 2.40.1 (20161225.0304)
 -->
<!-- Title: MappingQGeneric&lt; dim, spacedim &gt; Pages: 1 -->
<svg width="648pt" height="237pt"
 viewBox="0.00 0.00 648.00 236.50" xmlns="http://www.w3.org/2000/svg" xmlns:xlink="http://www.w3.org/1999/xlink">
<g id="graph0" class="graph" transform="scale(1 1) rotate(0) translate(4 232.5)">
<title>MappingQGeneric&lt; dim, spacedim &gt;</title>
<polygon fill="#ffffff" stroke="transparent" points="-4,4 -4,-232.5 644,-232.5 644,4 -4,4"/>
<!-- Node0 -->
<g id="node1" class="node">
<title>Node0</title>
<polygon fill="#bfbfbf" stroke="#000000" points="295,-110 295,-140 431,-140 431,-110 295,-110"/>
<text text-anchor="start" x="303" y="-128" font-family="Helvetica,sans-Serif" font-size="10.00" fill="#000000">MappingQGeneric&lt; dim,</text>
<text text-anchor="middle" x="363" y="-117" font-family="Helvetica,sans-Serif" font-size="10.00" fill="#000000"> spacedim &gt;</text>
</g>
<!-- Node3 -->
<g id="node4" class="node">
<title>Node3</title>
<g id="a_node4"><a xlink:href="classMappingC1_1_1MappingC1Generic.html" target="_top" xlink:title="MappingC1\&lt; dim, spacedim\l \&gt;::MappingC1Generic">
<polygon fill="#ffffff" stroke="#000000" points="476.5,-198 476.5,-228 630.5,-228 630.5,-198 476.5,-198"/>
<text text-anchor="start" x="484.5" y="-216" font-family="Helvetica,sans-Serif" font-size="10.00" fill="#000000">MappingC1&lt; dim, spacedim</text>
<text text-anchor="middle" x="553.5" y="-205" font-family="Helvetica,sans-Serif" font-size="10.00" fill="#000000"> &gt;::MappingC1Generic</text>
</a>
</g>
</g>
<!-- Node0&#45;&gt;Node3 -->
<g id="edge3" class="edge">
<title>Node0&#45;&gt;Node3</title>
<path fill="none" stroke="#191970" d="M392.4591,-145.7292C412.6858,-159.2258 440.557,-176.4126 467,-188 475.4474,-191.7017 484.5956,-195.025 493.6729,-197.9478"/>
<polygon fill="#191970" stroke="#191970" points="394.2541,-142.7178 384.0111,-140.01 390.3298,-148.5144 394.2541,-142.7178"/>
</g>
<!-- Node4 -->
<g id="node5" class="node">
<title>Node4</title>
<g id="a_node5"><a xlink:href="classMappingQ1.html" target="_top" xlink:title="MappingQ1\&lt; dim, spacedim \&gt;">
<polygon fill="#ffffff" stroke="#000000" points="470.5,-159.5 470.5,-178.5 636.5,-178.5 636.5,-159.5 470.5,-159.5"/>
<text text-anchor="middle" x="553.5" y="-166.5" font-family="Helvetica,sans-Serif" font-size="10.00" fill="#000000">MappingQ1&lt; dim, spacedim &gt;</text>
</a>
</g>
</g>
<!-- Node0&#45;&gt;Node4 -->
<g id="edge4" class="edge">
<title>Node0&#45;&gt;Node4</title>
<path fill="none" stroke="#191970" d="M434.4613,-142.3742C445.3532,-144.9655 456.4696,-147.578 467,-150 480.6356,-153.1361 495.5071,-156.4435 509.0129,-159.404"/>
<polygon fill="#191970" stroke="#191970" points="435.0844,-138.9246 424.5449,-140.0064 433.4586,-145.7332 435.0844,-138.9246"/>
</g>
<!-- Node5 -->
<g id="node6" class="node">
<title>Node5</title>
<g id="a_node6"><a xlink:href="classMappingQ1Eulerian.html" target="_top" xlink:title="MappingQ1Eulerian\&lt;\l dim, spacedim \&gt;">
<polygon fill="#ffffff" stroke="#000000" points="494,-110 494,-140 613,-140 613,-110 494,-110"/>
<text text-anchor="start" x="502" y="-128" font-family="Helvetica,sans-Serif" font-size="10.00" fill="#000000">MappingQ1Eulerian&lt;</text>
<text text-anchor="middle" x="553.5" y="-117" font-family="Helvetica,sans-Serif" font-size="10.00" fill="#000000"> dim, spacedim &gt;</text>
</a>
</g>
</g>
<!-- Node0&#45;&gt;Node5 -->
<g id="edge5" class="edge">
<title>Node0&#45;&gt;Node5</title>
<path fill="none" stroke="#191970" d="M441.4539,-125C458.9927,-125 477.3161,-125 493.943,-125"/>
<polygon fill="#191970" stroke="#191970" points="441.2368,-121.5001 431.2368,-125 441.2368,-128.5001 441.2368,-121.5001"/>
</g>
<!-- Node6 -->
<g id="node7" class="node">
<title>Node6</title>
<g id="a_node7"><a xlink:href="classMappingQCache.html" target="_top" xlink:title="MappingQCache\&lt; dim,\l spacedim \&gt;">
<polygon fill="#ffffff" stroke="#000000" points="489.5,-61 489.5,-91 617.5,-91 617.5,-61 489.5,-61"/>
<text text-anchor="start" x="497.5" y="-79" font-family="Helvetica,sans-Serif" font-size="10.00" fill="#000000">MappingQCache&lt; dim,</text>
<text text-anchor="middle" x="553.5" y="-68" font-family="Helvetica,sans-Serif" font-size="10.00" fill="#000000"> spacedim &gt;</text>
</a>
</g>
</g>
<!-- Node0&#45;&gt;Node6 -->
<g id="edge6" class="edge">
<title>Node0&#45;&gt;Node6</title>
<path fill="none" stroke="#191970" d="M431.2293,-107.4502C452.1486,-102.0694 474.9636,-96.201 495.1596,-91.0062"/>
<polygon fill="#191970" stroke="#191970" points="430.2638,-104.0846 421.4509,-109.9654 432.0076,-110.8639 430.2638,-104.0846"/>
</g>
<!-- Node7 -->
<g id="node8" class="node">
<title>Node7</title>
<g id="a_node8"><a xlink:href="classMappingQEulerian_1_1MappingQEulerianGeneric.html" target="_top" xlink:title="MappingQEulerian\&lt; dim,\l spacedim \&gt;::MappingQEulerian\lGeneric">
<polygon fill="#ffffff" stroke="#000000" points="467,-.5 467,-41.5 640,-41.5 640,-.5 467,-.5"/>
<text text-anchor="start" x="475" y="-29.5" font-family="Helvetica,sans-Serif" font-size="10.00" fill="#000000">MappingQEulerian&lt; dim,</text>
<text text-anchor="start" x="475" y="-18.5" font-family="Helvetica,sans-Serif" font-size="10.00" fill="#000000"> spacedim &gt;::MappingQEulerian</text>
<text text-anchor="middle" x="553.5" y="-7.5" font-family="Helvetica,sans-Serif" font-size="10.00" fill="#000000">Generic</text>
</a>
</g>
</g>
<!-- Node0&#45;&gt;Node7 -->
<g id="edge7" class="edge">
<title>Node0&#45;&gt;Node7</title>
<path fill="none" stroke="#191970" d="M388.5865,-103.6407C408.8622,-87.5177 438.4384,-65.7294 467,-51 473.4984,-47.6487 480.4543,-44.5332 487.4935,-41.6769"/>
<polygon fill="#191970" stroke="#191970" points="386.3504,-100.9476 380.7624,-109.949 390.7441,-106.397 386.3504,-100.9476"/>
</g>
<!-- Node1 -->
<g id="node2" class="node">
<title>Node1</title>
<g id="a_node2"><a xlink:href="classMapping.html" target="_top" xlink:title="映射类的抽象基类。 该类声明了用于描述从参考（单位）单元到实空间单元的映射功能的接口，以及用于填写使用...">
<polygon fill="#ffffff" stroke="#000000" points="107,-115.5 107,-134.5 259,-134.5 259,-115.5 107,-115.5"/>
<text text-anchor="middle" x="183" y="-122.5" font-family="Helvetica,sans-Serif" font-size="10.00" fill="#000000">Mapping&lt; dim, spacedim &gt;</text>
</a>
</g>
</g>
<!-- Node1&#45;&gt;Node0 -->
<g id="edge1" class="edge">
<title>Node1&#45;&gt;Node0</title>
<path fill="none" stroke="#191970" d="M269.1739,-125C277.811,-125 286.4953,-125 294.9076,-125"/>
<polygon fill="#191970" stroke="#191970" points="269.0753,-121.5001 259.0753,-125 269.0753,-128.5001 269.0753,-121.5001"/>
</g>
<!-- Node2 -->
<g id="node3" class="node">
<title>Node2</title>
<g id="a_node3"><a xlink:href="classSubscriptor.html" target="_top" xlink:title="Subscriptor">
<polygon fill="#ffffff" stroke="#000000" points="0,-115.5 0,-134.5 71,-134.5 71,-115.5 0,-115.5"/>
<text text-anchor="middle" x="35.5" y="-122.5" font-family="Helvetica,sans-Serif" font-size="10.00" fill="#000000">Subscriptor</text>
</a>
</g>
</g>
<!-- Node2&#45;&gt;Node1 -->
<g id="edge2" class="edge">
<title>Node2&#45;&gt;Node1</title>
<path fill="none" stroke="#191970" d="M81.2107,-125C89.3656,-125 98.0578,-125 106.796,-125"/>
<polygon fill="#191970" stroke="#191970" points="81.2057,-121.5001 71.2056,-125 81.2056,-128.5001 81.2057,-121.5001"/>
</g>
</g>
</svg>
