<?xml version="1.0" encoding="UTF-8" standalone="no"?>
<!DOCTYPE svg PUBLIC "-//W3C//DTD SVG 1.1//EN"
 "http://www.w3.org/Graphics/SVG/1.1/DTD/svg11.dtd">
<!-- Generated by graphviz version 2.40.1 (20161225.0304)
 -->
<!-- Title: Table&lt; 3, T &gt; Pages: 1 -->
<svg width="629pt" height="1280pt"
 viewBox="0.00 0.00 628.50 1280.00" xmlns="http://www.w3.org/2000/svg" xmlns:xlink="http://www.w3.org/1999/xlink">
<g id="graph0" class="graph" transform="scale(1 1) rotate(0) translate(4 1276)">
<title>Table&lt; 3, T &gt;</title>
<polygon fill="#ffffff" stroke="transparent" points="-4,4 -4,-1276 624.5,-1276 624.5,4 -4,4"/>
<!-- Node4 -->
<g id="node1" class="node">
<title>Node4</title>
<polygon fill="#bfbfbf" stroke="#000000" points="406.5,-.5 406.5,-123.5 482.5,-123.5 482.5,-.5 406.5,-.5"/>
<text text-anchor="middle" x="444.5" y="-111.5" font-family="Helvetica,sans-Serif" font-size="10.00" fill="#000000">Table&lt; 3, T &gt;</text>
<polyline fill="none" stroke="#000000" points="406.5,-104.5 482.5,-104.5 "/>
<text text-anchor="middle" x="444.5" y="-92.5" font-family="Helvetica,sans-Serif" font-size="10.00" fill="#000000"> </text>
<polyline fill="none" stroke="#000000" points="406.5,-85.5 482.5,-85.5 "/>
<text text-anchor="start" x="414.5" y="-73.5" font-family="Helvetica,sans-Serif" font-size="10.00" fill="#000000">+ Table()</text>
<text text-anchor="start" x="414.5" y="-62.5" font-family="Helvetica,sans-Serif" font-size="10.00" fill="#000000">+ Table()</text>
<text text-anchor="start" x="414.5" y="-51.5" font-family="Helvetica,sans-Serif" font-size="10.00" fill="#000000">+ Table()</text>
<text text-anchor="start" x="414.5" y="-40.5" font-family="Helvetica,sans-Serif" font-size="10.00" fill="#000000">+ operator[]()</text>
<text text-anchor="start" x="414.5" y="-29.5" font-family="Helvetica,sans-Serif" font-size="10.00" fill="#000000">+ operator[]()</text>
<text text-anchor="start" x="414.5" y="-18.5" font-family="Helvetica,sans-Serif" font-size="10.00" fill="#000000">+ operator()()</text>
<text text-anchor="start" x="414.5" y="-7.5" font-family="Helvetica,sans-Serif" font-size="10.00" fill="#000000">+ operator()()</text>
</g>
<!-- Node5 -->
<g id="node2" class="node">
<title>Node5</title>
<g id="a_node2"><a xlink:href="classTableBase.html" target="_top" xlink:title="{TableBase\&lt; 3, T \&gt;\n||+ TableBase()\l+ TableBase()\l+ TableBase()\l+ TableBase()\l+ TableBase()\l+ TableBase()\l+ ~TableBase()\l+ operator=()\l+ operator=()\l+ operator=()\land 15 more...\l# position()\l# el()\l# el()\l}">
<polygon fill="#ffffff" stroke="#000000" points="395.5,-161.5 395.5,-361.5 493.5,-361.5 493.5,-161.5 395.5,-161.5"/>
<text text-anchor="middle" x="444.5" y="-349.5" font-family="Helvetica,sans-Serif" font-size="10.00" fill="#000000">TableBase&lt; 3, T &gt;</text>
<polyline fill="none" stroke="#000000" points="395.5,-342.5 493.5,-342.5 "/>
<text text-anchor="middle" x="444.5" y="-330.5" font-family="Helvetica,sans-Serif" font-size="10.00" fill="#000000"> </text>
<polyline fill="none" stroke="#000000" points="395.5,-323.5 493.5,-323.5 "/>
<text text-anchor="start" x="403.5" y="-311.5" font-family="Helvetica,sans-Serif" font-size="10.00" fill="#000000">+ TableBase()</text>
<text text-anchor="start" x="403.5" y="-300.5" font-family="Helvetica,sans-Serif" font-size="10.00" fill="#000000">+ TableBase()</text>
<text text-anchor="start" x="403.5" y="-289.5" font-family="Helvetica,sans-Serif" font-size="10.00" fill="#000000">+ TableBase()</text>
<text text-anchor="start" x="403.5" y="-278.5" font-family="Helvetica,sans-Serif" font-size="10.00" fill="#000000">+ TableBase()</text>
<text text-anchor="start" x="403.5" y="-267.5" font-family="Helvetica,sans-Serif" font-size="10.00" fill="#000000">+ TableBase()</text>
<text text-anchor="start" x="403.5" y="-256.5" font-family="Helvetica,sans-Serif" font-size="10.00" fill="#000000">+ TableBase()</text>
<text text-anchor="start" x="403.5" y="-245.5" font-family="Helvetica,sans-Serif" font-size="10.00" fill="#000000">+ ~TableBase()</text>
<text text-anchor="start" x="403.5" y="-234.5" font-family="Helvetica,sans-Serif" font-size="10.00" fill="#000000">+ operator=()</text>
<text text-anchor="start" x="403.5" y="-223.5" font-family="Helvetica,sans-Serif" font-size="10.00" fill="#000000">+ operator=()</text>
<text text-anchor="start" x="403.5" y="-212.5" font-family="Helvetica,sans-Serif" font-size="10.00" fill="#000000">+ operator=()</text>
<text text-anchor="start" x="403.5" y="-201.5" font-family="Helvetica,sans-Serif" font-size="10.00" fill="#000000">and 15 more...</text>
<text text-anchor="start" x="403.5" y="-190.5" font-family="Helvetica,sans-Serif" font-size="10.00" fill="#000000"># position()</text>
<text text-anchor="start" x="403.5" y="-179.5" font-family="Helvetica,sans-Serif" font-size="10.00" fill="#000000"># el()</text>
<text text-anchor="start" x="403.5" y="-168.5" font-family="Helvetica,sans-Serif" font-size="10.00" fill="#000000"># el()</text>
</a>
</g>
</g>
<!-- Node5&#45;&gt;Node4 -->
<g id="edge1" class="edge">
<title>Node5&#45;&gt;Node4</title>
<path fill="none" stroke="#191970" d="M444.5,-151.1715C444.5,-141.7233 444.5,-132.4031 444.5,-123.5552"/>
<polygon fill="none" stroke="#191970" points="441.0001,-151.4577 444.5,-161.4578 448.0001,-151.4578 441.0001,-151.4577"/>
</g>
<!-- Node6 -->
<g id="node3" class="node">
<title>Node6</title>
<g id="a_node3"><a xlink:href="classSubscriptor.html" target="_top" xlink:title="{Subscriptor\n||+ Subscriptor()\l+ Subscriptor()\l+ Subscriptor()\l+ ~Subscriptor()\l+ operator=()\l+ operator=()\l+ serialize()\l+ subscribe()\l+ unsubscribe()\l+ n_subscriptions()\l+ list_subscribers()\l+ list_subscribers()\l+ ExcInUse()\l+ ExcNoSubscriber()\l&#45; check_no_subscribers()\l* subscribe()\l* unsubscribe()\l* n_subscriptions()\l* list_subscribers()\l* list_subscribers()\l}">
<polygon fill="#ffffff" stroke="#000000" points="246.5,-657.5 246.5,-923.5 372.5,-923.5 372.5,-657.5 246.5,-657.5"/>
<text text-anchor="middle" x="309.5" y="-911.5" font-family="Helvetica,sans-Serif" font-size="10.00" fill="#000000">Subscriptor</text>
<polyline fill="none" stroke="#000000" points="246.5,-904.5 372.5,-904.5 "/>
<text text-anchor="middle" x="309.5" y="-892.5" font-family="Helvetica,sans-Serif" font-size="10.00" fill="#000000"> </text>
<polyline fill="none" stroke="#000000" points="246.5,-885.5 372.5,-885.5 "/>
<text text-anchor="start" x="254.5" y="-873.5" font-family="Helvetica,sans-Serif" font-size="10.00" fill="#000000">+ Subscriptor()</text>
<text text-anchor="start" x="254.5" y="-862.5" font-family="Helvetica,sans-Serif" font-size="10.00" fill="#000000">+ Subscriptor()</text>
<text text-anchor="start" x="254.5" y="-851.5" font-family="Helvetica,sans-Serif" font-size="10.00" fill="#000000">+ Subscriptor()</text>
<text text-anchor="start" x="254.5" y="-840.5" font-family="Helvetica,sans-Serif" font-size="10.00" fill="#000000">+ ~Subscriptor()</text>
<text text-anchor="start" x="254.5" y="-829.5" font-family="Helvetica,sans-Serif" font-size="10.00" fill="#000000">+ operator=()</text>
<text text-anchor="start" x="254.5" y="-818.5" font-family="Helvetica,sans-Serif" font-size="10.00" fill="#000000">+ operator=()</text>
<text text-anchor="start" x="254.5" y="-807.5" font-family="Helvetica,sans-Serif" font-size="10.00" fill="#000000">+ serialize()</text>
<text text-anchor="start" x="254.5" y="-796.5" font-family="Helvetica,sans-Serif" font-size="10.00" fill="#000000">+ subscribe()</text>
<text text-anchor="start" x="254.5" y="-785.5" font-family="Helvetica,sans-Serif" font-size="10.00" fill="#000000">+ unsubscribe()</text>
<text text-anchor="start" x="254.5" y="-774.5" font-family="Helvetica,sans-Serif" font-size="10.00" fill="#000000">+ n_subscriptions()</text>
<text text-anchor="start" x="254.5" y="-763.5" font-family="Helvetica,sans-Serif" font-size="10.00" fill="#000000">+ list_subscribers()</text>
<text text-anchor="start" x="254.5" y="-752.5" font-family="Helvetica,sans-Serif" font-size="10.00" fill="#000000">+ list_subscribers()</text>
<text text-anchor="start" x="254.5" y="-741.5" font-family="Helvetica,sans-Serif" font-size="10.00" fill="#000000">+ ExcInUse()</text>
<text text-anchor="start" x="254.5" y="-730.5" font-family="Helvetica,sans-Serif" font-size="10.00" fill="#000000">+ ExcNoSubscriber()</text>
<text text-anchor="start" x="254.5" y="-719.5" font-family="Helvetica,sans-Serif" font-size="10.00" fill="#000000">&#45; check_no_subscribers()</text>
<text text-anchor="start" x="254.5" y="-708.5" font-family="Helvetica,sans-Serif" font-size="10.00" fill="#000000">* subscribe()</text>
<text text-anchor="start" x="254.5" y="-697.5" font-family="Helvetica,sans-Serif" font-size="10.00" fill="#000000">* unsubscribe()</text>
<text text-anchor="start" x="254.5" y="-686.5" font-family="Helvetica,sans-Serif" font-size="10.00" fill="#000000">* n_subscriptions()</text>
<text text-anchor="start" x="254.5" y="-675.5" font-family="Helvetica,sans-Serif" font-size="10.00" fill="#000000">* list_subscribers()</text>
<text text-anchor="start" x="254.5" y="-664.5" font-family="Helvetica,sans-Serif" font-size="10.00" fill="#000000">* list_subscribers()</text>
</a>
</g>
</g>
<!-- Node6&#45;&gt;Node5 -->
<g id="edge2" class="edge">
<title>Node6&#45;&gt;Node5</title>
<path fill="none" stroke="#191970" d="M295.146,-646.8649C292.9207,-573.5068 298.2544,-484.1237 326.5,-409 341.042,-370.3233 369.8545,-333.9873 395.3673,-307.0573"/>
<polygon fill="none" stroke="#191970" points="291.6569,-647.2367 295.5086,-657.1066 298.6525,-646.989 291.6569,-647.2367"/>
</g>
<!-- Node22 -->
<g id="node19" class="node">
<title>Node22</title>
<g id="a_node19"><a xlink:href="classTableBase.html" target="_top" xlink:title="{TableBase\&lt; N, T \&gt;\n||+ TableBase()\l+ TableBase()\l+ TableBase()\l+ TableBase()\l+ TableBase()\l+ TableBase()\l+ ~TableBase()\l+ operator=()\l+ operator=()\l+ operator=()\land 15 more...\l# position()\l# el()\l# el()\l}">
<polygon fill="#ffffff" stroke="#000000" points="335,-409.5 335,-609.5 436,-609.5 436,-409.5 335,-409.5"/>
<text text-anchor="middle" x="385.5" y="-597.5" font-family="Helvetica,sans-Serif" font-size="10.00" fill="#000000">TableBase&lt; N, T &gt;</text>
<polyline fill="none" stroke="#000000" points="335,-590.5 436,-590.5 "/>
<text text-anchor="middle" x="385.5" y="-578.5" font-family="Helvetica,sans-Serif" font-size="10.00" fill="#000000"> </text>
<polyline fill="none" stroke="#000000" points="335,-571.5 436,-571.5 "/>
<text text-anchor="start" x="343" y="-559.5" font-family="Helvetica,sans-Serif" font-size="10.00" fill="#000000">+ TableBase()</text>
<text text-anchor="start" x="343" y="-548.5" font-family="Helvetica,sans-Serif" font-size="10.00" fill="#000000">+ TableBase()</text>
<text text-anchor="start" x="343" y="-537.5" font-family="Helvetica,sans-Serif" font-size="10.00" fill="#000000">+ TableBase()</text>
<text text-anchor="start" x="343" y="-526.5" font-family="Helvetica,sans-Serif" font-size="10.00" fill="#000000">+ TableBase()</text>
<text text-anchor="start" x="343" y="-515.5" font-family="Helvetica,sans-Serif" font-size="10.00" fill="#000000">+ TableBase()</text>
<text text-anchor="start" x="343" y="-504.5" font-family="Helvetica,sans-Serif" font-size="10.00" fill="#000000">+ TableBase()</text>
<text text-anchor="start" x="343" y="-493.5" font-family="Helvetica,sans-Serif" font-size="10.00" fill="#000000">+ ~TableBase()</text>
<text text-anchor="start" x="343" y="-482.5" font-family="Helvetica,sans-Serif" font-size="10.00" fill="#000000">+ operator=()</text>
<text text-anchor="start" x="343" y="-471.5" font-family="Helvetica,sans-Serif" font-size="10.00" fill="#000000">+ operator=()</text>
<text text-anchor="start" x="343" y="-460.5" font-family="Helvetica,sans-Serif" font-size="10.00" fill="#000000">+ operator=()</text>
<text text-anchor="start" x="343" y="-449.5" font-family="Helvetica,sans-Serif" font-size="10.00" fill="#000000">and 15 more...</text>
<text text-anchor="start" x="343" y="-438.5" font-family="Helvetica,sans-Serif" font-size="10.00" fill="#000000"># position()</text>
<text text-anchor="start" x="343" y="-427.5" font-family="Helvetica,sans-Serif" font-size="10.00" fill="#000000"># el()</text>
<text text-anchor="start" x="343" y="-416.5" font-family="Helvetica,sans-Serif" font-size="10.00" fill="#000000"># el()</text>
</a>
</g>
</g>
<!-- Node6&#45;&gt;Node22 -->
<g id="edge20" class="edge">
<title>Node6&#45;&gt;Node22</title>
<path fill="none" stroke="#191970" d="M348.1412,-647.6291C351.5999,-634.8413 355.0514,-622.0797 358.3812,-609.7682"/>
<polygon fill="none" stroke="#191970" points="344.7292,-646.8391 345.4969,-657.4061 351.4864,-648.6668 344.7292,-646.8391"/>
</g>
<!-- Node7 -->
<g id="node4" class="node">
<title>Node7</title>
<polygon fill="#ffffff" stroke="#bfbfbf" points="25.5,-971.5 25.5,-1039.5 135.5,-1039.5 135.5,-971.5 25.5,-971.5"/>
<text text-anchor="start" x="33.5" y="-1027.5" font-family="Helvetica,sans-Serif" font-size="10.00" fill="#000000">std::map&lt; std::string,</text>
<text text-anchor="middle" x="80.5" y="-1016.5" font-family="Helvetica,sans-Serif" font-size="10.00" fill="#000000"> unsigned int &gt;</text>
<polyline fill="none" stroke="#bfbfbf" points="25.5,-1009.5 135.5,-1009.5 "/>
<text text-anchor="middle" x="80.5" y="-997.5" font-family="Helvetica,sans-Serif" font-size="10.00" fill="#000000"> </text>
<polyline fill="none" stroke="#bfbfbf" points="25.5,-990.5 135.5,-990.5 "/>
<text text-anchor="middle" x="80.5" y="-978.5" font-family="Helvetica,sans-Serif" font-size="10.00" fill="#000000"> </text>
</g>
<!-- Node7&#45;&gt;Node6 -->
<g id="edge3" class="edge">
<title>Node7&#45;&gt;Node6</title>
<path fill="none" stroke="#404040" d="M116.7857,-971.4326C149.0293,-941.1603 197.1238,-896.0061 237.1994,-858.3805"/>
<polygon fill="none" stroke="#404040" points="237.3957,-858.1962 239.0321,-851.1732 246.1442,-849.9825 244.5078,-857.0055 237.3957,-858.1962"/>
<text text-anchor="middle" x="174" y="-945" font-family="Helvetica,sans-Serif" font-size="10.00" fill="#000000"> &#45;counter_map</text>
</g>
<!-- Node8 -->
<g id="node5" class="node">
<title>Node8</title>
<g id="a_node5"><a xlink:href="classint.html" target="_top" xlink:title="{int\n||}">
<polygon fill="#ffffff" stroke="#000000" points="0,-1098.5 0,-1155.5 29,-1155.5 29,-1098.5 0,-1098.5"/>
<text text-anchor="middle" x="14.5" y="-1143.5" font-family="Helvetica,sans-Serif" font-size="10.00" fill="#000000">int</text>
<polyline fill="none" stroke="#000000" points="0,-1136.5 29,-1136.5 "/>
<text text-anchor="middle" x="14.5" y="-1124.5" font-family="Helvetica,sans-Serif" font-size="10.00" fill="#000000"> </text>
<polyline fill="none" stroke="#000000" points="0,-1117.5 29,-1117.5 "/>
<text text-anchor="middle" x="14.5" y="-1105.5" font-family="Helvetica,sans-Serif" font-size="10.00" fill="#000000"> </text>
</a>
</g>
</g>
<!-- Node8&#45;&gt;Node7 -->
<g id="edge4" class="edge">
<title>Node8&#45;&gt;Node7</title>
<path fill="none" stroke="#404040" d="M17.667,-1098.2524C19.9472,-1085.3723 23.8477,-1070.3397 30.5,-1058 32.0697,-1055.0882 33.8442,-1052.2209 35.7647,-1049.4198"/>
<polygon fill="none" stroke="#404040" points="35.9746,-1049.1445 36.4341,-1041.9481 43.2537,-1039.6043 42.7942,-1046.8007 35.9746,-1049.1445"/>
<text text-anchor="middle" x="55" y="-1066.5" font-family="Helvetica,sans-Serif" font-size="10.00" fill="#000000"> +elements</text>
</g>
<!-- Node9 -->
<g id="node6" class="node">
<title>Node9</title>
<g id="a_node6"><a xlink:title="STL class. ">
<polygon fill="#ffffff" stroke="#bfbfbf" points="56.5,-1098.5 56.5,-1155.5 116.5,-1155.5 116.5,-1098.5 56.5,-1098.5"/>
<text text-anchor="middle" x="86.5" y="-1143.5" font-family="Helvetica,sans-Serif" font-size="10.00" fill="#000000">std::string</text>
<polyline fill="none" stroke="#bfbfbf" points="56.5,-1136.5 116.5,-1136.5 "/>
<text text-anchor="middle" x="86.5" y="-1124.5" font-family="Helvetica,sans-Serif" font-size="10.00" fill="#000000"> </text>
<polyline fill="none" stroke="#bfbfbf" points="56.5,-1117.5 116.5,-1117.5 "/>
<text text-anchor="middle" x="86.5" y="-1105.5" font-family="Helvetica,sans-Serif" font-size="10.00" fill="#000000"> </text>
</a>
</g>
</g>
<!-- Node9&#45;&gt;Node7 -->
<g id="edge5" class="edge">
<title>Node9&#45;&gt;Node7</title>
<path fill="none" stroke="#404040" d="M85.0781,-1098.2062C84.3945,-1084.3632 83.5581,-1067.4255 82.788,-1051.8327"/>
<polygon fill="none" stroke="#404040" points="82.7809,-1051.6861 78.4898,-1045.8908 82.1889,-1039.7007 86.48,-1045.4961 82.7809,-1051.6861"/>
<text text-anchor="middle" x="100" y="-1066.5" font-family="Helvetica,sans-Serif" font-size="10.00" fill="#000000"> +keys</text>
</g>
<!-- Node10 -->
<g id="node7" class="node">
<title>Node10</title>
<g id="a_node7"><a xlink:title="STL class. ">
<polygon fill="#ffffff" stroke="#bfbfbf" points="39,-1203.5 39,-1271.5 134,-1271.5 134,-1203.5 39,-1203.5"/>
<text text-anchor="start" x="47" y="-1259.5" font-family="Helvetica,sans-Serif" font-size="10.00" fill="#000000">std::basic_string&lt;</text>
<text text-anchor="middle" x="86.5" y="-1248.5" font-family="Helvetica,sans-Serif" font-size="10.00" fill="#000000"> char &gt;</text>
<polyline fill="none" stroke="#bfbfbf" points="39,-1241.5 134,-1241.5 "/>
<text text-anchor="middle" x="86.5" y="-1229.5" font-family="Helvetica,sans-Serif" font-size="10.00" fill="#000000"> </text>
<polyline fill="none" stroke="#bfbfbf" points="39,-1222.5 134,-1222.5 "/>
<text text-anchor="middle" x="86.5" y="-1210.5" font-family="Helvetica,sans-Serif" font-size="10.00" fill="#000000"> </text>
</a>
</g>
</g>
<!-- Node10&#45;&gt;Node9 -->
<g id="edge6" class="edge">
<title>Node10&#45;&gt;Node9</title>
<path fill="none" stroke="#191970" d="M86.5,-1193.0661C86.5,-1180.4172 86.5,-1166.9812 86.5,-1155.5519"/>
<polygon fill="none" stroke="#191970" points="83.0001,-1193.4447 86.5,-1203.4447 90.0001,-1193.4447 83.0001,-1193.4447"/>
</g>
<!-- Node11 -->
<g id="node8" class="node">
<title>Node11</title>
<g id="a_node8"><a xlink:title="STL class. ">
<polygon fill="#ffffff" stroke="#bfbfbf" points="144.5,-1098.5 144.5,-1155.5 236.5,-1155.5 236.5,-1098.5 144.5,-1098.5"/>
<text text-anchor="middle" x="190.5" y="-1143.5" font-family="Helvetica,sans-Serif" font-size="10.00" fill="#000000">std::map&lt; K, T &gt;</text>
<polyline fill="none" stroke="#bfbfbf" points="144.5,-1136.5 236.5,-1136.5 "/>
<text text-anchor="middle" x="190.5" y="-1124.5" font-family="Helvetica,sans-Serif" font-size="10.00" fill="#000000"> </text>
<polyline fill="none" stroke="#bfbfbf" points="144.5,-1117.5 236.5,-1117.5 "/>
<text text-anchor="middle" x="190.5" y="-1105.5" font-family="Helvetica,sans-Serif" font-size="10.00" fill="#000000"> </text>
</a>
</g>
</g>
<!-- Node11&#45;&gt;Node7 -->
<g id="edge7" class="edge">
<title>Node11&#45;&gt;Node7</title>
<path fill="none" stroke="#ffa500" d="M157.4867,-1090.5353C142.8885,-1074.411 125.8167,-1055.5544 111.4636,-1039.7007"/>
<polygon fill="#ffa500" stroke="#ffa500" points="155.1253,-1093.142 164.4315,-1098.2062 160.3146,-1088.4439 155.1253,-1093.142"/>
<text text-anchor="start" x="145.5" y="-1072" font-family="Helvetica,sans-Serif" font-size="10.00" fill="#000000"> &lt; std::string, unsigned</text>
<text text-anchor="middle" x="196" y="-1061" font-family="Helvetica,sans-Serif" font-size="10.00" fill="#000000"> int &gt;</text>
</g>
<!-- Node12 -->
<g id="node9" class="node">
<title>Node12</title>
<polygon fill="#ffffff" stroke="#bfbfbf" points="176,-1209 176,-1266 205,-1266 205,-1209 176,-1209"/>
<text text-anchor="middle" x="190.5" y="-1254" font-family="Helvetica,sans-Serif" font-size="10.00" fill="#000000">K</text>
<polyline fill="none" stroke="#bfbfbf" points="176,-1247 205,-1247 "/>
<text text-anchor="middle" x="190.5" y="-1235" font-family="Helvetica,sans-Serif" font-size="10.00" fill="#000000"> </text>
<polyline fill="none" stroke="#bfbfbf" points="176,-1228 205,-1228 "/>
<text text-anchor="middle" x="190.5" y="-1216" font-family="Helvetica,sans-Serif" font-size="10.00" fill="#000000"> </text>
</g>
<!-- Node12&#45;&gt;Node11 -->
<g id="edge8" class="edge">
<title>Node12&#45;&gt;Node11</title>
<path fill="none" stroke="#404040" d="M190.5,-1208.7559C190.5,-1196.2224 190.5,-1181.3039 190.5,-1167.6631"/>
<polygon fill="none" stroke="#404040" points="190.5001,-1167.6002 186.5,-1161.6002 190.5,-1155.6002 194.5,-1161.6002 190.5001,-1167.6002"/>
<text text-anchor="middle" x="206" y="-1177" font-family="Helvetica,sans-Serif" font-size="10.00" fill="#000000"> +keys</text>
</g>
<!-- Node13 -->
<g id="node10" class="node">
<title>Node13</title>
<polygon fill="#ffffff" stroke="#bfbfbf" points="324,-1209 324,-1266 353,-1266 353,-1209 324,-1209"/>
<text text-anchor="middle" x="338.5" y="-1254" font-family="Helvetica,sans-Serif" font-size="10.00" fill="#000000">T</text>
<polyline fill="none" stroke="#bfbfbf" points="324,-1247 353,-1247 "/>
<text text-anchor="middle" x="338.5" y="-1235" font-family="Helvetica,sans-Serif" font-size="10.00" fill="#000000"> </text>
<polyline fill="none" stroke="#bfbfbf" points="324,-1228 353,-1228 "/>
<text text-anchor="middle" x="338.5" y="-1216" font-family="Helvetica,sans-Serif" font-size="10.00" fill="#000000"> </text>
</g>
<!-- Node13&#45;&gt;Node11 -->
<g id="edge9" class="edge">
<title>Node13&#45;&gt;Node11</title>
<path fill="none" stroke="#404040" d="M323.7681,-1226.5009C304.0613,-1211.7874 268.1708,-1184.9907 238.597,-1162.9103"/>
<polygon fill="none" stroke="#404040" points="238.4579,-1162.8064 231.257,-1162.422 228.8423,-1155.6272 236.0431,-1156.0116 238.4579,-1162.8064"/>
<text text-anchor="middle" x="289" y="-1177" font-family="Helvetica,sans-Serif" font-size="10.00" fill="#000000"> +elements</text>
</g>
<!-- Node18 -->
<g id="node15" class="node">
<title>Node18</title>
<g id="a_node15"><a xlink:title="STL class. ">
<polygon fill="#ffffff" stroke="#bfbfbf" points="367,-1098.5 367,-1155.5 454,-1155.5 454,-1098.5 367,-1098.5"/>
<text text-anchor="middle" x="410.5" y="-1143.5" font-family="Helvetica,sans-Serif" font-size="10.00" fill="#000000">std::vector&lt; T &gt;</text>
<polyline fill="none" stroke="#bfbfbf" points="367,-1136.5 454,-1136.5 "/>
<text text-anchor="middle" x="410.5" y="-1124.5" font-family="Helvetica,sans-Serif" font-size="10.00" fill="#000000"> </text>
<polyline fill="none" stroke="#bfbfbf" points="367,-1117.5 454,-1117.5 "/>
<text text-anchor="middle" x="410.5" y="-1105.5" font-family="Helvetica,sans-Serif" font-size="10.00" fill="#000000"> </text>
</a>
</g>
</g>
<!-- Node13&#45;&gt;Node18 -->
<g id="edge15" class="edge">
<title>Node13&#45;&gt;Node18</title>
<path fill="none" stroke="#404040" d="M353.0703,-1215.1387C362.2387,-1201.0677 374.3228,-1182.5219 385.0401,-1166.0739"/>
<polygon fill="none" stroke="#404040" points="385.2901,-1165.6902 385.2142,-1158.4795 391.8411,-1155.6362 391.917,-1162.8469 385.2901,-1165.6902"/>
<text text-anchor="middle" x="403" y="-1177" font-family="Helvetica,sans-Serif" font-size="10.00" fill="#000000"> +elements</text>
</g>
<!-- Node14 -->
<g id="node11" class="node">
<title>Node14</title>
<polygon fill="#ffffff" stroke="#bfbfbf" points="153.5,-977 153.5,-1034 269.5,-1034 269.5,-977 153.5,-977"/>
<text text-anchor="middle" x="211.5" y="-1022" font-family="Helvetica,sans-Serif" font-size="10.00" fill="#000000">atomic&lt; unsigned int &gt;</text>
<polyline fill="none" stroke="#bfbfbf" points="153.5,-1015 269.5,-1015 "/>
<text text-anchor="middle" x="211.5" y="-1003" font-family="Helvetica,sans-Serif" font-size="10.00" fill="#000000"> </text>
<polyline fill="none" stroke="#bfbfbf" points="153.5,-996 269.5,-996 "/>
<text text-anchor="middle" x="211.5" y="-984" font-family="Helvetica,sans-Serif" font-size="10.00" fill="#000000"> </text>
</g>
<!-- Node14&#45;&gt;Node6 -->
<g id="edge10" class="edge">
<title>Node14&#45;&gt;Node6</title>
<path fill="none" stroke="#404040" d="M224.5136,-976.9497C229.8862,-965.1629 236.5452,-950.5539 243.7538,-934.7391"/>
<polygon fill="none" stroke="#404040" points="243.846,-934.5368 242.6948,-927.4181 248.8232,-923.6176 249.9743,-930.7362 243.846,-934.5368"/>
<text text-anchor="middle" x="257" y="-945" font-family="Helvetica,sans-Serif" font-size="10.00" fill="#000000"> &#45;counter</text>
</g>
<!-- Node15 -->
<g id="node12" class="node">
<title>Node15</title>
<polygon fill="#ffffff" stroke="#bfbfbf" points="287.5,-977 287.5,-1034 331.5,-1034 331.5,-977 287.5,-977"/>
<text text-anchor="middle" x="309.5" y="-1022" font-family="Helvetica,sans-Serif" font-size="10.00" fill="#000000">mutex</text>
<polyline fill="none" stroke="#bfbfbf" points="287.5,-1015 331.5,-1015 "/>
<text text-anchor="middle" x="309.5" y="-1003" font-family="Helvetica,sans-Serif" font-size="10.00" fill="#000000"> </text>
<polyline fill="none" stroke="#bfbfbf" points="287.5,-996 331.5,-996 "/>
<text text-anchor="middle" x="309.5" y="-984" font-family="Helvetica,sans-Serif" font-size="10.00" fill="#000000"> </text>
</g>
<!-- Node15&#45;&gt;Node6 -->
<g id="edge11" class="edge">
<title>Node15&#45;&gt;Node6</title>
<path fill="none" stroke="#404040" d="M309.5,-976.9497C309.5,-965.3895 309.5,-951.1147 309.5,-935.6501"/>
<polygon fill="none" stroke="#404040" points="309.5001,-935.6176 305.5,-929.6176 309.5,-923.6176 313.5,-929.6175 309.5001,-935.6176"/>
<text text-anchor="middle" x="326.5" y="-945" font-family="Helvetica,sans-Serif" font-size="10.00" fill="#000000"> &#45;mutex</text>
</g>
<!-- Node16 -->
<g id="node13" class="node">
<title>Node16</title>
<polygon fill="#ffffff" stroke="#bfbfbf" points="350,-971.5 350,-1039.5 471,-1039.5 471,-971.5 350,-971.5"/>
<text text-anchor="start" x="358" y="-1027.5" font-family="Helvetica,sans-Serif" font-size="10.00" fill="#000000">std::vector&lt; std::atomic</text>
<text text-anchor="middle" x="410.5" y="-1016.5" font-family="Helvetica,sans-Serif" font-size="10.00" fill="#000000">&lt; bool &gt; *&gt;</text>
<polyline fill="none" stroke="#bfbfbf" points="350,-1009.5 471,-1009.5 "/>
<text text-anchor="middle" x="410.5" y="-997.5" font-family="Helvetica,sans-Serif" font-size="10.00" fill="#000000"> </text>
<polyline fill="none" stroke="#bfbfbf" points="350,-990.5 471,-990.5 "/>
<text text-anchor="middle" x="410.5" y="-978.5" font-family="Helvetica,sans-Serif" font-size="10.00" fill="#000000"> </text>
</g>
<!-- Node16&#45;&gt;Node6 -->
<g id="edge12" class="edge">
<title>Node16&#45;&gt;Node6</title>
<path fill="none" stroke="#404040" d="M394.4962,-971.4326C389.4488,-960.6881 383.5208,-948.0689 377.1827,-934.577"/>
<polygon fill="none" stroke="#404040" points="377.1231,-934.4501 370.9515,-930.7202 372.0208,-923.5888 378.1924,-927.3187 377.1231,-934.4501"/>
<text text-anchor="middle" x="421" y="-945" font-family="Helvetica,sans-Serif" font-size="10.00" fill="#000000"> &#45;validity_pointers</text>
</g>
<!-- Node17 -->
<g id="node14" class="node">
<title>Node17</title>
<polygon fill="#ffffff" stroke="#bfbfbf" points="260,-1098.5 260,-1155.5 349,-1155.5 349,-1098.5 260,-1098.5"/>
<text text-anchor="middle" x="304.5" y="-1143.5" font-family="Helvetica,sans-Serif" font-size="10.00" fill="#000000">atomic&lt; bool &gt; *</text>
<polyline fill="none" stroke="#bfbfbf" points="260,-1136.5 349,-1136.5 "/>
<text text-anchor="middle" x="304.5" y="-1124.5" font-family="Helvetica,sans-Serif" font-size="10.00" fill="#000000"> </text>
<polyline fill="none" stroke="#bfbfbf" points="260,-1117.5 349,-1117.5 "/>
<text text-anchor="middle" x="304.5" y="-1105.5" font-family="Helvetica,sans-Serif" font-size="10.00" fill="#000000"> </text>
</g>
<!-- Node17&#45;&gt;Node16 -->
<g id="edge13" class="edge">
<title>Node17&#45;&gt;Node16</title>
<path fill="none" stroke="#404040" d="M325.0706,-1098.4484C334.5629,-1085.7479 346.2122,-1070.8035 357.5,-1058 360.2823,-1054.8441 363.2118,-1051.6438 366.2065,-1048.4612"/>
<polygon fill="none" stroke="#404040" points="366.4259,-1048.2334 367.707,-1041.137 374.7503,-1039.5902 373.4692,-1046.6866 366.4259,-1048.2334"/>
<text text-anchor="middle" x="382" y="-1066.5" font-family="Helvetica,sans-Serif" font-size="10.00" fill="#000000"> +elements</text>
</g>
<!-- Node18&#45;&gt;Node16 -->
<g id="edge14" class="edge">
<title>Node18&#45;&gt;Node16</title>
<path fill="none" stroke="#ffa500" d="M410.5,-1087.8733C410.5,-1072.3628 410.5,-1054.6896 410.5,-1039.7007"/>
<polygon fill="#ffa500" stroke="#ffa500" points="407.0001,-1088.2062 410.5,-1098.2062 414.0001,-1088.2062 407.0001,-1088.2062"/>
<text text-anchor="middle" x="465.5" y="-1066.5" font-family="Helvetica,sans-Serif" font-size="10.00" fill="#000000"> &lt; std::atomic&lt; bool &gt; *&gt;</text>
</g>
<!-- Node19 -->
<g id="node16" class="node">
<title>Node19</title>
<polygon fill="#ffffff" stroke="#bfbfbf" points="489,-977 489,-1034 552,-1034 552,-977 489,-977"/>
<text text-anchor="middle" x="520.5" y="-1022" font-family="Helvetica,sans-Serif" font-size="10.00" fill="#000000">type_info *</text>
<polyline fill="none" stroke="#bfbfbf" points="489,-1015 552,-1015 "/>
<text text-anchor="middle" x="520.5" y="-1003" font-family="Helvetica,sans-Serif" font-size="10.00" fill="#000000"> </text>
<polyline fill="none" stroke="#bfbfbf" points="489,-996 552,-996 "/>
<text text-anchor="middle" x="520.5" y="-984" font-family="Helvetica,sans-Serif" font-size="10.00" fill="#000000"> </text>
</g>
<!-- Node19&#45;&gt;Node6 -->
<g id="edge16" class="edge">
<title>Node19&#45;&gt;Node6</title>
<path fill="none" stroke="#404040" d="M500.9673,-976.9081C491.0938,-964.4711 478.1077,-950.7666 463.5,-942 434.8476,-924.8046 417.4303,-943.7839 390.5,-924 387.4311,-921.7455 384.4551,-919.3364 381.571,-916.7966"/>
<polygon fill="none" stroke="#404040" points="381.3365,-916.5719 374.2368,-915.3088 372.6721,-908.2695 379.7717,-909.5325 381.3365,-916.5719"/>
<text text-anchor="middle" x="504.5" y="-945" font-family="Helvetica,sans-Serif" font-size="10.00" fill="#000000"> &#45;object_info</text>
</g>
<!-- Node20 -->
<g id="node17" class="node">
<title>Node20</title>
<g id="a_node17"><a xlink:href="classAlignedVector_3_01T_01_4.html" target="_top" xlink:title="{AlignedVector\&lt; T \&gt;\n||}">
<polygon fill="#ffffff" stroke="#000000" points="399,-762 399,-819 500,-819 500,-762 399,-762"/>
<text text-anchor="middle" x="449.5" y="-807" font-family="Helvetica,sans-Serif" font-size="10.00" fill="#000000">AlignedVector&lt; T &gt;</text>
<polyline fill="none" stroke="#000000" points="399,-800 500,-800 "/>
<text text-anchor="middle" x="449.5" y="-788" font-family="Helvetica,sans-Serif" font-size="10.00" fill="#000000"> </text>
<polyline fill="none" stroke="#000000" points="399,-781 500,-781 "/>
<text text-anchor="middle" x="449.5" y="-769" font-family="Helvetica,sans-Serif" font-size="10.00" fill="#000000"> </text>
</a>
</g>
</g>
<!-- Node20&#45;&gt;Node5 -->
<g id="edge17" class="edge">
<title>Node20&#45;&gt;Node5</title>
<path fill="none" stroke="#404040" d="M451.5325,-761.6084C455.93,-694.5325 465.3237,-523.0608 457.5,-380 457.3873,-377.9399 457.2637,-375.8606 457.1302,-373.7666"/>
<polygon fill="none" stroke="#404040" points="457.1195,-373.6157 452.7021,-367.916 456.2642,-361.6462 460.6817,-367.3459 457.1195,-373.6157"/>
<text text-anchor="middle" x="479" y="-507" font-family="Helvetica,sans-Serif" font-size="10.00" fill="#000000"> #values</text>
</g>
<!-- Node20&#45;&gt;Node22 -->
<g id="edge21" class="edge">
<title>Node20&#45;&gt;Node22</title>
<path fill="none" stroke="#404040" d="M442.9516,-761.7486C435.4296,-728.7223 422.6276,-672.5133 411.0149,-621.5262"/>
<polygon fill="none" stroke="#404040" points="410.9908,-621.4202 405.7582,-616.4583 408.3259,-609.7198 413.5585,-614.6817 410.9908,-621.4202"/>
<text text-anchor="middle" x="432" y="-631" font-family="Helvetica,sans-Serif" font-size="10.00" fill="#000000"> #values</text>
</g>
<!-- Node21 -->
<g id="node18" class="node">
<title>Node21</title>
<g id="a_node18"><a xlink:href="classTableIndices_3_01N_01_4.html" target="_top" xlink:title="{TableIndices\&lt; N \&gt;\n||}">
<polygon fill="#ffffff" stroke="#000000" points="522.5,-762 522.5,-819 620.5,-819 620.5,-762 522.5,-762"/>
<text text-anchor="middle" x="571.5" y="-807" font-family="Helvetica,sans-Serif" font-size="10.00" fill="#000000">TableIndices&lt; N &gt;</text>
<polyline fill="none" stroke="#000000" points="522.5,-800 620.5,-800 "/>
<text text-anchor="middle" x="571.5" y="-788" font-family="Helvetica,sans-Serif" font-size="10.00" fill="#000000"> </text>
<polyline fill="none" stroke="#000000" points="522.5,-781 620.5,-781 "/>
<text text-anchor="middle" x="571.5" y="-769" font-family="Helvetica,sans-Serif" font-size="10.00" fill="#000000"> </text>
</a>
</g>
</g>
<!-- Node21&#45;&gt;Node5 -->
<g id="edge18" class="edge">
<title>Node21&#45;&gt;Node5</title>
<path fill="none" stroke="#404040" d="M568.3088,-761.7894C560.7239,-697.581 539.3623,-537.8941 501.5,-409 498.0699,-397.3228 494.1184,-385.2666 489.929,-373.3129"/>
<polygon fill="none" stroke="#404040" points="489.8883,-373.1989 484.1019,-368.8956 485.8487,-361.8992 491.635,-366.2025 489.8883,-373.1989"/>
<text text-anchor="middle" x="572" y="-507" font-family="Helvetica,sans-Serif" font-size="10.00" fill="#000000"> #table_size</text>
</g>
<!-- Node21&#45;&gt;Node22 -->
<g id="edge22" class="edge">
<title>Node21&#45;&gt;Node22</title>
<path fill="none" stroke="#404040" d="M562.5464,-761.8181C552.6762,-733.2521 534.7767,-689.1383 509.5,-657 488.7746,-630.6484 473.0093,-634.8451 450.5,-610 448.1784,-607.4375 445.884,-604.7835 443.623,-602.0607"/>
<polygon fill="none" stroke="#404040" points="443.5445,-601.962 436.6789,-599.7569 436.0737,-592.5712 442.9394,-594.7763 443.5445,-601.962"/>
<text text-anchor="middle" x="516" y="-631" font-family="Helvetica,sans-Serif" font-size="10.00" fill="#000000"> #table_size</text>
</g>
<!-- Node22&#45;&gt;Node5 -->
<g id="edge19" class="edge">
<title>Node22&#45;&gt;Node5</title>
<path fill="none" stroke="#ffa500" d="M411.7099,-399.3295C414.6957,-386.7791 417.727,-374.0372 420.6795,-361.6269"/>
<polygon fill="#ffa500" stroke="#ffa500" points="408.237,-398.8052 409.3275,-409.3438 415.047,-400.4254 408.237,-398.8052"/>
<text text-anchor="middle" x="434" y="-383" font-family="Helvetica,sans-Serif" font-size="10.00" fill="#000000"> &lt; 3, T &gt;</text>
</g>
</g>
</svg>
