<?xml version="1.0" encoding="UTF-8" standalone="no"?>
<!DOCTYPE svg PUBLIC "-//W3C//DTD SVG 1.1//EN"
 "http://www.w3.org/Graphics/SVG/1.1/DTD/svg11.dtd">
<!-- Generated by graphviz version 2.40.1 (20161225.0304)
 -->
<!-- Title: parallel::internal::TBBPartitioner Pages: 1 -->
<svg width="244pt" height="226pt"
 viewBox="0.00 0.00 243.50 226.00" xmlns="http://www.w3.org/2000/svg" xmlns:xlink="http://www.w3.org/1999/xlink">
<g id="graph0" class="graph" transform="scale(1 1) rotate(0) translate(4 222)">
<title>parallel::internal::TBBPartitioner</title>
<polygon fill="#ffffff" stroke="transparent" points="-4,4 -4,-222 239.5,-222 239.5,4 -4,4"/>
<!-- Node1 -->
<g id="node1" class="node">
<title>Node1</title>
<polygon fill="#bfbfbf" stroke="#000000" points="56,-.5 56,-101.5 188,-101.5 188,-.5 56,-.5"/>
<text text-anchor="start" x="64" y="-89.5" font-family="Helvetica,sans-Serif" font-size="10.00" fill="#000000">parallel::internal</text>
<text text-anchor="middle" x="122" y="-78.5" font-family="Helvetica,sans-Serif" font-size="10.00" fill="#000000">::TBBPartitioner</text>
<polyline fill="none" stroke="#000000" points="56,-71.5 188,-71.5 "/>
<text text-anchor="middle" x="122" y="-59.5" font-family="Helvetica,sans-Serif" font-size="10.00" fill="#000000"> </text>
<polyline fill="none" stroke="#000000" points="56,-52.5 188,-52.5 "/>
<text text-anchor="start" x="64" y="-40.5" font-family="Helvetica,sans-Serif" font-size="10.00" fill="#000000">+ TBBPartitioner()</text>
<text text-anchor="start" x="64" y="-29.5" font-family="Helvetica,sans-Serif" font-size="10.00" fill="#000000">+ ~TBBPartitioner()</text>
<text text-anchor="start" x="64" y="-18.5" font-family="Helvetica,sans-Serif" font-size="10.00" fill="#000000">+ acquire_one_partitioner()</text>
<text text-anchor="start" x="64" y="-7.5" font-family="Helvetica,sans-Serif" font-size="10.00" fill="#000000">+ release_one_partitioner()</text>
</g>
<!-- Node2 -->
<g id="node2" class="node">
<title>Node2</title>
<polygon fill="#ffffff" stroke="#bfbfbf" points="0,-155 0,-212 44,-212 44,-155 0,-155"/>
<text text-anchor="middle" x="22" y="-200" font-family="Helvetica,sans-Serif" font-size="10.00" fill="#000000">mutex</text>
<polyline fill="none" stroke="#bfbfbf" points="0,-193 44,-193 "/>
<text text-anchor="middle" x="22" y="-181" font-family="Helvetica,sans-Serif" font-size="10.00" fill="#000000"> </text>
<polyline fill="none" stroke="#bfbfbf" points="0,-174 44,-174 "/>
<text text-anchor="middle" x="22" y="-162" font-family="Helvetica,sans-Serif" font-size="10.00" fill="#000000"> </text>
</g>
<!-- Node2&#45;&gt;Node1 -->
<g id="edge1" class="edge">
<title>Node2&#45;&gt;Node1</title>
<path fill="none" stroke="#404040" d="M43.6985,-154.7495C53.3112,-142.0126 65.0049,-126.5185 76.3924,-111.4301"/>
<polygon fill="none" stroke="#404040" points="76.5775,-111.1848 76.9992,-103.986 83.8064,-101.6065 83.3847,-108.8053 76.5775,-111.1848"/>
<text text-anchor="middle" x="86" y="-123" font-family="Helvetica,sans-Serif" font-size="10.00" fill="#000000"> &#45;mutex</text>
</g>
<!-- Node3 -->
<g id="node3" class="node">
<title>Node3</title>
<polygon fill="#ffffff" stroke="#bfbfbf" points="62,-149.5 62,-217.5 182,-217.5 182,-149.5 62,-149.5"/>
<text text-anchor="start" x="70" y="-205.5" font-family="Helvetica,sans-Serif" font-size="10.00" fill="#000000">shared_ptr&lt; tbb::affinity</text>
<text text-anchor="middle" x="122" y="-194.5" font-family="Helvetica,sans-Serif" font-size="10.00" fill="#000000">_partitioner &gt;</text>
<polyline fill="none" stroke="#bfbfbf" points="62,-187.5 182,-187.5 "/>
<text text-anchor="middle" x="122" y="-175.5" font-family="Helvetica,sans-Serif" font-size="10.00" fill="#000000"> </text>
<polyline fill="none" stroke="#bfbfbf" points="62,-168.5 182,-168.5 "/>
<text text-anchor="middle" x="122" y="-156.5" font-family="Helvetica,sans-Serif" font-size="10.00" fill="#000000"> </text>
</g>
<!-- Node3&#45;&gt;Node1 -->
<g id="edge2" class="edge">
<title>Node3&#45;&gt;Node1</title>
<path fill="none" stroke="#404040" d="M122,-149.378C122,-138.4514 122,-125.9865 122,-113.6859"/>
<polygon fill="none" stroke="#404040" points="122.0001,-113.5031 118,-107.5031 122,-101.5031 126,-107.503 122.0001,-113.5031"/>
<text text-anchor="middle" x="156" y="-123" font-family="Helvetica,sans-Serif" font-size="10.00" fill="#000000"> &#45;my_partitioner</text>
</g>
<!-- Node4 -->
<g id="node4" class="node">
<title>Node4</title>
<g id="a_node4"><a xlink:href="classbool.html" target="_top" xlink:title="{bool\n||}">
<polygon fill="#ffffff" stroke="#000000" points="200.5,-155 200.5,-212 235.5,-212 235.5,-155 200.5,-155"/>
<text text-anchor="middle" x="218" y="-200" font-family="Helvetica,sans-Serif" font-size="10.00" fill="#000000">bool</text>
<polyline fill="none" stroke="#000000" points="200.5,-193 235.5,-193 "/>
<text text-anchor="middle" x="218" y="-181" font-family="Helvetica,sans-Serif" font-size="10.00" fill="#000000"> </text>
<polyline fill="none" stroke="#000000" points="200.5,-174 235.5,-174 "/>
<text text-anchor="middle" x="218" y="-162" font-family="Helvetica,sans-Serif" font-size="10.00" fill="#000000"> </text>
</a>
</g>
</g>
<!-- Node4&#45;&gt;Node1 -->
<g id="edge3" class="edge">
<title>Node4&#45;&gt;Node1</title>
<path fill="none" stroke="#404040" d="M210.1397,-154.6982C206.2866,-143.3396 200.9531,-130.5203 194,-120 191.9655,-116.9217 189.7707,-113.8777 187.4564,-110.8836"/>
<polygon fill="none" stroke="#404040" points="187.3541,-110.7598 180.4483,-108.6837 179.7087,-101.5106 186.6145,-103.5867 187.3541,-110.7598"/>
<text text-anchor="middle" x="216.5" y="-123" font-family="Helvetica,sans-Serif" font-size="10.00" fill="#000000"> &#45;in_use</text>
</g>
</g>
</svg>
