<?xml version="1.0" encoding="UTF-8" standalone="no"?>
<!DOCTYPE svg PUBLIC "-//W3C//DTD SVG 1.1//EN"
 "http://www.w3.org/Graphics/SVG/1.1/DTD/svg11.dtd">
<!-- Generated by graphviz version 2.40.1 (20161225.0304)
 -->
<!-- Title: AffineConstraints&lt; number &gt; Pages: 1 -->
<svg width="507pt" height="160pt"
 viewBox="0.00 0.00 507.00 159.50" xmlns="http://www.w3.org/2000/svg" xmlns:xlink="http://www.w3.org/1999/xlink">
<g id="graph0" class="graph" transform="scale(1 1) rotate(0) translate(4 155.5)">
<title>AffineConstraints&lt; number &gt;</title>
<polygon fill="#ffffff" stroke="transparent" points="-4,4 -4,-155.5 503,-155.5 503,4 -4,4"/>
<!-- Node0 -->
<g id="node1" class="node">
<title>Node0</title>
<polygon fill="#bfbfbf" stroke="#000000" points="108,-66 108,-96 217,-96 217,-66 108,-66"/>
<text text-anchor="start" x="116" y="-84" font-family="Helvetica,sans-Serif" font-size="10.00" fill="#000000">AffineConstraints&lt;</text>
<text text-anchor="middle" x="162.5" y="-73" font-family="Helvetica,sans-Serif" font-size="10.00" fill="#000000"> number &gt;</text>
</g>
<!-- Node2 -->
<g id="node3" class="node">
<title>Node2</title>
<g id="a_node3"><a xlink:href="classAffineConstraints.html" target="_top" xlink:title="AffineConstraints\&lt;\l double \&gt;">
<polygon fill="#ffffff" stroke="#000000" points="382,-121 382,-151 491,-151 491,-121 382,-121"/>
<text text-anchor="start" x="390" y="-139" font-family="Helvetica,sans-Serif" font-size="10.00" fill="#000000">AffineConstraints&lt;</text>
<text text-anchor="middle" x="436.5" y="-128" font-family="Helvetica,sans-Serif" font-size="10.00" fill="#000000"> double &gt;</text>
</a>
</g>
</g>
<!-- Node0&#45;&gt;Node2 -->
<g id="edge2" class="edge">
<title>Node0&#45;&gt;Node2</title>
<path fill="none" stroke="#ffa500" stroke-dasharray="5,2" d="M209.6692,-99.4579C218.0195,-102.2809 226.6989,-104.9366 235,-107 283.8765,-119.1495 340.7742,-126.7588 381.619,-131.1179"/>
<polygon fill="#ffa500" stroke="#ffa500" points="210.655,-96.0947 200.0601,-96.0924 208.3411,-102.7013 210.655,-96.0947"/>
<text text-anchor="middle" x="295.5" y="-130" font-family="Helvetica,sans-Serif" font-size="10.00" fill="#000000"> &lt; double &gt;</text>
</g>
<!-- Node3 -->
<g id="node4" class="node">
<title>Node3</title>
<g id="a_node4"><a xlink:href="classAffineConstraints.html" target="_top" xlink:title="AffineConstraints\&lt;\l typename MatrixType\l::value_type \&gt;">
<polygon fill="#ffffff" stroke="#000000" points="374,-60.5 374,-101.5 499,-101.5 499,-60.5 374,-60.5"/>
<text text-anchor="start" x="382" y="-89.5" font-family="Helvetica,sans-Serif" font-size="10.00" fill="#000000">AffineConstraints&lt;</text>
<text text-anchor="start" x="382" y="-78.5" font-family="Helvetica,sans-Serif" font-size="10.00" fill="#000000"> typename MatrixType</text>
<text text-anchor="middle" x="436.5" y="-67.5" font-family="Helvetica,sans-Serif" font-size="10.00" fill="#000000">::value_type &gt;</text>
</a>
</g>
</g>
<!-- Node0&#45;&gt;Node3 -->
<g id="edge3" class="edge">
<title>Node0&#45;&gt;Node3</title>
<path fill="none" stroke="#ffa500" stroke-dasharray="5,2" d="M227.3568,-81C271.5889,-81 329.8589,-81 373.6563,-81"/>
<polygon fill="#ffa500" stroke="#ffa500" points="227.2895,-77.5001 217.2895,-81 227.2894,-84.5001 227.2895,-77.5001"/>
<text text-anchor="start" x="235" y="-95" font-family="Helvetica,sans-Serif" font-size="10.00" fill="#000000"> &lt; typename MatrixType</text>
<text text-anchor="middle" x="295.5" y="-84" font-family="Helvetica,sans-Serif" font-size="10.00" fill="#000000">::value_type &gt;</text>
</g>
<!-- Node4 -->
<g id="node5" class="node">
<title>Node4</title>
<g id="a_node5"><a xlink:href="classAffineConstraints.html" target="_top" xlink:title="AffineConstraints\&lt;\l typename VectorType\l::value_type \&gt;">
<polygon fill="#ffffff" stroke="#000000" points="374,-.5 374,-41.5 499,-41.5 499,-.5 374,-.5"/>
<text text-anchor="start" x="382" y="-29.5" font-family="Helvetica,sans-Serif" font-size="10.00" fill="#000000">AffineConstraints&lt;</text>
<text text-anchor="start" x="382" y="-18.5" font-family="Helvetica,sans-Serif" font-size="10.00" fill="#000000"> typename VectorType</text>
<text text-anchor="middle" x="436.5" y="-7.5" font-family="Helvetica,sans-Serif" font-size="10.00" fill="#000000">::value_type &gt;</text>
</a>
</g>
</g>
<!-- Node0&#45;&gt;Node4 -->
<g id="edge4" class="edge">
<title>Node0&#45;&gt;Node4</title>
<path fill="none" stroke="#ffa500" stroke-dasharray="5,2" d="M209.9938,-62.6158C218.2526,-59.8089 226.8175,-57.1395 235,-55 280.8215,-43.0189 333.6497,-34.2876 373.7159,-28.6748"/>
<polygon fill="#ffa500" stroke="#ffa500" points="208.7598,-59.3395 200.4805,-65.9505 211.0754,-65.9454 208.7598,-59.3395"/>
<text text-anchor="start" x="235" y="-69" font-family="Helvetica,sans-Serif" font-size="10.00" fill="#000000"> &lt; typename VectorType</text>
<text text-anchor="middle" x="295.5" y="-58" font-family="Helvetica,sans-Serif" font-size="10.00" fill="#000000">::value_type &gt;</text>
</g>
<!-- Node1 -->
<g id="node2" class="node">
<title>Node1</title>
<g id="a_node2"><a xlink:href="classSubscriptor.html" target="_top" xlink:title="Subscriptor">
<polygon fill="#ffffff" stroke="#000000" points="0,-71.5 0,-90.5 71,-90.5 71,-71.5 0,-71.5"/>
<text text-anchor="middle" x="35.5" y="-78.5" font-family="Helvetica,sans-Serif" font-size="10.00" fill="#000000">Subscriptor</text>
</a>
</g>
</g>
<!-- Node1&#45;&gt;Node0 -->
<g id="edge1" class="edge">
<title>Node1&#45;&gt;Node0</title>
<path fill="none" stroke="#191970" d="M81.3329,-81C89.8532,-81 98.8346,-81 107.5937,-81"/>
<polygon fill="#191970" stroke="#191970" points="81.2146,-77.5001 71.2146,-81 81.2145,-84.5001 81.2146,-77.5001"/>
</g>
</g>
</svg>
