<?xml version="1.0" encoding="UTF-8" standalone="no"?>
<!DOCTYPE svg PUBLIC "-//W3C//DTD SVG 1.1//EN"
 "http://www.w3.org/Graphics/SVG/1.1/DTD/svg11.dtd">
<!-- Generated by graphviz version 2.40.1 (20161225.0304)
 -->
<!-- Title: Patterns::Integer Pages: 1 -->
<svg width="329pt" height="292pt"
 viewBox="0.00 0.00 329.00 292.00" xmlns="http://www.w3.org/2000/svg" xmlns:xlink="http://www.w3.org/1999/xlink">
<g id="graph0" class="graph" transform="scale(1 1) rotate(0) translate(4 288)">
<title>Patterns::Integer</title>
<polygon fill="#ffffff" stroke="transparent" points="-4,4 -4,-288 325,-288 325,4 -4,4"/>
<!-- Node2 -->
<g id="node1" class="node">
<title>Node2</title>
<polygon fill="#bfbfbf" stroke="#000000" points="119.5,-.5 119.5,-101.5 208.5,-101.5 208.5,-.5 119.5,-.5"/>
<text text-anchor="middle" x="164" y="-89.5" font-family="Helvetica,sans-Serif" font-size="10.00" fill="#000000">Patterns::Integer</text>
<polyline fill="none" stroke="#000000" points="119.5,-82.5 208.5,-82.5 "/>
<text text-anchor="middle" x="164" y="-70.5" font-family="Helvetica,sans-Serif" font-size="10.00" fill="#000000"> </text>
<polyline fill="none" stroke="#000000" points="119.5,-63.5 208.5,-63.5 "/>
<text text-anchor="start" x="127.5" y="-51.5" font-family="Helvetica,sans-Serif" font-size="10.00" fill="#000000">+ Integer()</text>
<text text-anchor="start" x="127.5" y="-40.5" font-family="Helvetica,sans-Serif" font-size="10.00" fill="#000000">+ match()</text>
<text text-anchor="start" x="127.5" y="-29.5" font-family="Helvetica,sans-Serif" font-size="10.00" fill="#000000">+ description()</text>
<text text-anchor="start" x="127.5" y="-18.5" font-family="Helvetica,sans-Serif" font-size="10.00" fill="#000000">+ clone()</text>
<text text-anchor="start" x="127.5" y="-7.5" font-family="Helvetica,sans-Serif" font-size="10.00" fill="#000000">+ create()</text>
</g>
<!-- Node3 -->
<g id="node2" class="node">
<title>Node3</title>
<g id="a_node2"><a xlink:href="classPatterns_1_1PatternBase.html" target="_top" xlink:title="{Patterns::PatternBase\n||+ ~PatternBase()\l+ match()\l+ description()\l+ clone()\l+ memory_consumption()\l}">
<polygon fill="#ffffff" stroke="#000000" points="0,-182.5 0,-283.5 128,-283.5 128,-182.5 0,-182.5"/>
<text text-anchor="middle" x="64" y="-271.5" font-family="Helvetica,sans-Serif" font-size="10.00" fill="#000000">Patterns::PatternBase</text>
<polyline fill="none" stroke="#000000" points="0,-264.5 128,-264.5 "/>
<text text-anchor="middle" x="64" y="-252.5" font-family="Helvetica,sans-Serif" font-size="10.00" fill="#000000"> </text>
<polyline fill="none" stroke="#000000" points="0,-245.5 128,-245.5 "/>
<text text-anchor="start" x="8" y="-233.5" font-family="Helvetica,sans-Serif" font-size="10.00" fill="#000000">+ ~PatternBase()</text>
<text text-anchor="start" x="8" y="-222.5" font-family="Helvetica,sans-Serif" font-size="10.00" fill="#000000">+ match()</text>
<text text-anchor="start" x="8" y="-211.5" font-family="Helvetica,sans-Serif" font-size="10.00" fill="#000000">+ description()</text>
<text text-anchor="start" x="8" y="-200.5" font-family="Helvetica,sans-Serif" font-size="10.00" fill="#000000">+ clone()</text>
<text text-anchor="start" x="8" y="-189.5" font-family="Helvetica,sans-Serif" font-size="10.00" fill="#000000">+ memory_consumption()</text>
</a>
</g>
</g>
<!-- Node3&#45;&gt;Node2 -->
<g id="edge1" class="edge">
<title>Node3&#45;&gt;Node2</title>
<path fill="none" stroke="#191970" d="M96.8187,-173.2699C109.5284,-150.1384 123.9241,-123.9381 136.1205,-101.7406"/>
<polygon fill="none" stroke="#191970" points="93.6036,-171.8532 91.8556,-182.3029 99.7386,-175.2241 93.6036,-171.8532"/>
</g>
<!-- Node4 -->
<g id="node3" class="node">
<title>Node4</title>
<polygon fill="#ffffff" stroke="#bfbfbf" points="146.5,-204.5 146.5,-261.5 181.5,-261.5 181.5,-204.5 146.5,-204.5"/>
<text text-anchor="middle" x="164" y="-249.5" font-family="Helvetica,sans-Serif" font-size="10.00" fill="#000000">char</text>
<polyline fill="none" stroke="#bfbfbf" points="146.5,-242.5 181.5,-242.5 "/>
<text text-anchor="middle" x="164" y="-230.5" font-family="Helvetica,sans-Serif" font-size="10.00" fill="#000000"> </text>
<polyline fill="none" stroke="#bfbfbf" points="146.5,-223.5 181.5,-223.5 "/>
<text text-anchor="middle" x="164" y="-211.5" font-family="Helvetica,sans-Serif" font-size="10.00" fill="#000000"> </text>
</g>
<!-- Node4&#45;&gt;Node2 -->
<g id="edge2" class="edge">
<title>Node4&#45;&gt;Node2</title>
<path fill="none" stroke="#404040" d="M164,-204.1616C164,-180.0235 164,-144.7081 164,-114.0701"/>
<polygon fill="none" stroke="#404040" points="164.0001,-113.7142 160,-107.7142 164,-101.7142 168,-107.7141 164.0001,-113.7142"/>
<text text-anchor="middle" x="200" y="-139.5" font-family="Helvetica,sans-Serif" font-size="10.00" fill="#000000"> &#45;description_init</text>
</g>
<!-- Node5 -->
<g id="node4" class="node">
<title>Node5</title>
<g id="a_node4"><a xlink:href="classint.html" target="_top" xlink:title="{int\n||}">
<polygon fill="#ffffff" stroke="#000000" points="244.5,-204.5 244.5,-261.5 273.5,-261.5 273.5,-204.5 244.5,-204.5"/>
<text text-anchor="middle" x="259" y="-249.5" font-family="Helvetica,sans-Serif" font-size="10.00" fill="#000000">int</text>
<polyline fill="none" stroke="#000000" points="244.5,-242.5 273.5,-242.5 "/>
<text text-anchor="middle" x="259" y="-230.5" font-family="Helvetica,sans-Serif" font-size="10.00" fill="#000000"> </text>
<polyline fill="none" stroke="#000000" points="244.5,-223.5 273.5,-223.5 "/>
<text text-anchor="middle" x="259" y="-211.5" font-family="Helvetica,sans-Serif" font-size="10.00" fill="#000000"> </text>
</a>
</g>
</g>
<!-- Node5&#45;&gt;Node2 -->
<g id="edge3" class="edge">
<title>Node5&#45;&gt;Node2</title>
<path fill="none" stroke="#404040" d="M258.2402,-204.4335C256.5193,-180.5482 251.4498,-146.2675 237,-120 231.809,-110.5636 224.8742,-101.6644 217.3389,-93.5925"/>
<polygon fill="none" stroke="#404040" points="217.1008,-93.3532 210.0333,-91.9208 208.6373,-84.8461 215.7047,-86.2784 217.1008,-93.3532"/>
<text text-anchor="middle" x="286" y="-156" font-family="Helvetica,sans-Serif" font-size="10.00" fill="#000000"> &#45;upper_bound</text>
<text text-anchor="middle" x="286" y="-145" font-family="Helvetica,sans-Serif" font-size="10.00" fill="#000000">&#45;lower_bound</text>
<text text-anchor="middle" x="286" y="-134" font-family="Helvetica,sans-Serif" font-size="10.00" fill="#000000">+max_int_value</text>
<text text-anchor="middle" x="286" y="-123" font-family="Helvetica,sans-Serif" font-size="10.00" fill="#000000">+min_int_value</text>
</g>
</g>
</svg>
