<?xml version="1.0" encoding="UTF-8" standalone="no"?>
<!DOCTYPE svg PUBLIC "-//W3C//DTD SVG 1.1//EN"
 "http://www.w3.org/Graphics/SVG/1.1/DTD/svg11.dtd">
<!-- Generated by graphviz version 2.40.1 (20161225.0304)
 -->
<!-- Title: RefinementCase&lt; dim &gt; Pages: 1 -->
<svg width="193pt" height="292pt"
 viewBox="0.00 0.00 193.00 292.00" xmlns="http://www.w3.org/2000/svg" xmlns:xlink="http://www.w3.org/1999/xlink">
<g id="graph0" class="graph" transform="scale(1 1) rotate(0) translate(4 288)">
<title>RefinementCase&lt; dim &gt;</title>
<polygon fill="#ffffff" stroke="transparent" points="-4,4 -4,-288 189,-288 189,4 -4,4"/>
<!-- Node2 -->
<g id="node1" class="node">
<title>Node2</title>
<polygon fill="#bfbfbf" stroke="#000000" points="34,-.5 34,-167.5 185,-167.5 185,-.5 34,-.5"/>
<text text-anchor="middle" x="109.5" y="-155.5" font-family="Helvetica,sans-Serif" font-size="10.00" fill="#000000">RefinementCase&lt; dim &gt;</text>
<polyline fill="none" stroke="#000000" points="34,-148.5 185,-148.5 "/>
<text text-anchor="middle" x="109.5" y="-136.5" font-family="Helvetica,sans-Serif" font-size="10.00" fill="#000000"> </text>
<polyline fill="none" stroke="#000000" points="34,-129.5 185,-129.5 "/>
<text text-anchor="start" x="42" y="-117.5" font-family="Helvetica,sans-Serif" font-size="10.00" fill="#000000">+ RefinementCase()</text>
<text text-anchor="start" x="42" y="-106.5" font-family="Helvetica,sans-Serif" font-size="10.00" fill="#000000">+ RefinementCase()</text>
<text text-anchor="start" x="42" y="-95.5" font-family="Helvetica,sans-Serif" font-size="10.00" fill="#000000">+ RefinementCase()</text>
<text text-anchor="start" x="42" y="-84.5" font-family="Helvetica,sans-Serif" font-size="10.00" fill="#000000">+ operator std::uint8_t()</text>
<text text-anchor="start" x="42" y="-73.5" font-family="Helvetica,sans-Serif" font-size="10.00" fill="#000000">+ operator|()</text>
<text text-anchor="start" x="42" y="-62.5" font-family="Helvetica,sans-Serif" font-size="10.00" fill="#000000">+ operator &amp;()</text>
<text text-anchor="start" x="42" y="-51.5" font-family="Helvetica,sans-Serif" font-size="10.00" fill="#000000">+ operator~()</text>
<text text-anchor="start" x="42" y="-40.5" font-family="Helvetica,sans-Serif" font-size="10.00" fill="#000000">+ serialize()</text>
<text text-anchor="start" x="42" y="-29.5" font-family="Helvetica,sans-Serif" font-size="10.00" fill="#000000">+ cut_axis()</text>
<text text-anchor="start" x="42" y="-18.5" font-family="Helvetica,sans-Serif" font-size="10.00" fill="#000000">+ memory_consumption()</text>
<text text-anchor="start" x="42" y="-7.5" font-family="Helvetica,sans-Serif" font-size="10.00" fill="#000000">+ ExcInvalidRefinementCase()</text>
</g>
<!-- Node3 -->
<g id="node2" class="node">
<title>Node3</title>
<g id="a_node2"><a xlink:href="structRefinementPossibilities.html" target="_top" xlink:title="{RefinementPossibilities\l\&lt; dim \&gt;\n||}">
<polygon fill="#ffffff" stroke="#000000" points="0,-215.5 0,-283.5 119,-283.5 119,-215.5 0,-215.5"/>
<text text-anchor="start" x="8" y="-271.5" font-family="Helvetica,sans-Serif" font-size="10.00" fill="#000000">RefinementPossibilities</text>
<text text-anchor="middle" x="59.5" y="-260.5" font-family="Helvetica,sans-Serif" font-size="10.00" fill="#000000">&lt; dim &gt;</text>
<polyline fill="none" stroke="#000000" points="0,-253.5 119,-253.5 "/>
<text text-anchor="middle" x="59.5" y="-241.5" font-family="Helvetica,sans-Serif" font-size="10.00" fill="#000000"> </text>
<polyline fill="none" stroke="#000000" points="0,-234.5 119,-234.5 "/>
<text text-anchor="middle" x="59.5" y="-222.5" font-family="Helvetica,sans-Serif" font-size="10.00" fill="#000000"> </text>
</a>
</g>
</g>
<!-- Node3&#45;&gt;Node2 -->
<g id="edge1" class="edge">
<title>Node3&#45;&gt;Node2</title>
<path fill="none" stroke="#191970" d="M72.8396,-205.3458C76.3576,-193.7015 80.2725,-180.7432 84.1973,-167.7519"/>
<polygon fill="none" stroke="#191970" points="69.4017,-204.6234 69.86,-215.2083 76.1026,-206.6479 69.4017,-204.6234"/>
</g>
<!-- Node4 -->
<g id="node3" class="node">
<title>Node4</title>
<polygon fill="#ffffff" stroke="#bfbfbf" points="137.5,-221 137.5,-278 183.5,-278 183.5,-221 137.5,-221"/>
<text text-anchor="middle" x="160.5" y="-266" font-family="Helvetica,sans-Serif" font-size="10.00" fill="#000000">uint8_t</text>
<polyline fill="none" stroke="#bfbfbf" points="137.5,-259 183.5,-259 "/>
<text text-anchor="middle" x="160.5" y="-247" font-family="Helvetica,sans-Serif" font-size="10.00" fill="#000000"> </text>
<polyline fill="none" stroke="#bfbfbf" points="137.5,-240 183.5,-240 "/>
<text text-anchor="middle" x="160.5" y="-228" font-family="Helvetica,sans-Serif" font-size="10.00" fill="#000000"> </text>
</g>
<!-- Node4&#45;&gt;Node2 -->
<g id="edge2" class="edge">
<title>Node4&#45;&gt;Node2</title>
<path fill="none" stroke="#404040" d="M151.6165,-220.6721C147.955,-208.7904 143.4841,-194.2816 138.8392,-179.2085"/>
<polygon fill="none" stroke="#404040" points="138.7978,-179.0739 133.2082,-174.518 135.2638,-167.6061 140.8534,-172.162 138.7978,-179.0739"/>
<text text-anchor="middle" x="158.5" y="-189" font-family="Helvetica,sans-Serif" font-size="10.00" fill="#000000"> &#45;value</text>
</g>
</g>
</svg>
