<?xml version="1.0" encoding="UTF-8" standalone="no"?>
<!DOCTYPE svg PUBLIC "-//W3C//DTD SVG 1.1//EN"
 "http://www.w3.org/Graphics/SVG/1.1/DTD/svg11.dtd">
<!-- Generated by graphviz version 2.40.1 (20161225.0304)
 -->
<!-- Title: internal::MatrixFreeFunctions::MPICommunication Pages: 1 -->
<svg width="273pt" height="336pt"
 viewBox="0.00 0.00 272.50 336.00" xmlns="http://www.w3.org/2000/svg" xmlns:xlink="http://www.w3.org/1999/xlink">
<g id="graph0" class="graph" transform="scale(1 1) rotate(0) translate(4 332)">
<title>internal::MatrixFreeFunctions::MPICommunication</title>
<polygon fill="#ffffff" stroke="transparent" points="-4,4 -4,-332 268.5,-332 268.5,4 -4,4"/>
<!-- Node2 -->
<g id="node1" class="node">
<title>Node2</title>
<polygon fill="#bfbfbf" stroke="#000000" points="19,-.5 19,-79.5 162,-79.5 162,-.5 19,-.5"/>
<text text-anchor="start" x="27" y="-67.5" font-family="Helvetica,sans-Serif" font-size="10.00" fill="#000000">internal::MatrixFreeFunctions</text>
<text text-anchor="middle" x="90.5" y="-56.5" font-family="Helvetica,sans-Serif" font-size="10.00" fill="#000000">::MPICommunication</text>
<polyline fill="none" stroke="#000000" points="19,-49.5 162,-49.5 "/>
<text text-anchor="middle" x="90.5" y="-37.5" font-family="Helvetica,sans-Serif" font-size="10.00" fill="#000000"> </text>
<polyline fill="none" stroke="#000000" points="19,-30.5 162,-30.5 "/>
<text text-anchor="start" x="27" y="-18.5" font-family="Helvetica,sans-Serif" font-size="10.00" fill="#000000">+ MPICommunication()</text>
<text text-anchor="start" x="27" y="-7.5" font-family="Helvetica,sans-Serif" font-size="10.00" fill="#000000">+ execute()</text>
</g>
<!-- Node3 -->
<g id="node2" class="node">
<title>Node3</title>
<polygon fill="#ffffff" stroke="#bfbfbf" points="0,-199 0,-256 55,-256 55,-199 0,-199"/>
<text text-anchor="middle" x="27.5" y="-244" font-family="Helvetica,sans-Serif" font-size="10.00" fill="#000000">tbb::task</text>
<polyline fill="none" stroke="#bfbfbf" points="0,-237 55,-237 "/>
<text text-anchor="middle" x="27.5" y="-225" font-family="Helvetica,sans-Serif" font-size="10.00" fill="#000000"> </text>
<polyline fill="none" stroke="#bfbfbf" points="0,-218 55,-218 "/>
<text text-anchor="middle" x="27.5" y="-206" font-family="Helvetica,sans-Serif" font-size="10.00" fill="#000000"> </text>
</g>
<!-- Node3&#45;&gt;Node2 -->
<g id="edge1" class="edge">
<title>Node3&#45;&gt;Node2</title>
<path fill="none" stroke="#191970" d="M40.5176,-188.7571C51.2299,-156.8752 66.3547,-111.8609 77.1556,-79.7156"/>
<polygon fill="none" stroke="#191970" points="37.073,-188.02 37.2057,-198.614 43.7085,-190.2496 37.073,-188.02"/>
</g>
<!-- Node4 -->
<g id="node3" class="node">
<title>Node4</title>
<g id="a_node3"><a xlink:href="classbool.html" target="_top" xlink:title="{bool\n||}">
<polygon fill="#ffffff" stroke="#000000" points="73,-199 73,-256 108,-256 108,-199 73,-199"/>
<text text-anchor="middle" x="90.5" y="-244" font-family="Helvetica,sans-Serif" font-size="10.00" fill="#000000">bool</text>
<polyline fill="none" stroke="#000000" points="73,-237 108,-237 "/>
<text text-anchor="middle" x="90.5" y="-225" font-family="Helvetica,sans-Serif" font-size="10.00" fill="#000000"> </text>
<polyline fill="none" stroke="#000000" points="73,-218 108,-218 "/>
<text text-anchor="middle" x="90.5" y="-206" font-family="Helvetica,sans-Serif" font-size="10.00" fill="#000000"> </text>
</a>
</g>
</g>
<!-- Node4&#45;&gt;Node2 -->
<g id="edge2" class="edge">
<title>Node4&#45;&gt;Node2</title>
<path fill="none" stroke="#404040" d="M90.5,-198.614C90.5,-170.2523 90.5,-126.3557 90.5,-91.9257"/>
<polygon fill="none" stroke="#404040" points="90.5001,-91.7156 86.5,-85.7156 90.5,-79.7156 94.5,-85.7155 90.5001,-91.7156"/>
<text text-anchor="middle" x="123" y="-101" font-family="Helvetica,sans-Serif" font-size="10.00" fill="#000000"> &#45;do_compress</text>
</g>
<!-- Node5 -->
<g id="node4" class="node">
<title>Node5</title>
<g id="a_node4"><a xlink:href="structinternal_1_1MFWorkerInterface.html" target="_top" xlink:title="{internal::MFWorkerInterface\n||+ ~MFWorkerInterface()\l+ vector_update_ghosts\l_start()\l+ vector_update_ghosts\l_finish()\l+ vector_compress_start()\l+ vector_compress_finish()\l+ zero_dst_vector_range()\l+ cell_loop_pre_range()\l+ cell_loop_post_range()\l+ cell()\l+ cell()\l+ face()\l+ boundary()\l}">
<polygon fill="#ffffff" stroke="#000000" points="126.5,-127.5 126.5,-327.5 264.5,-327.5 264.5,-127.5 126.5,-127.5"/>
<text text-anchor="middle" x="195.5" y="-315.5" font-family="Helvetica,sans-Serif" font-size="10.00" fill="#000000">internal::MFWorkerInterface</text>
<polyline fill="none" stroke="#000000" points="126.5,-308.5 264.5,-308.5 "/>
<text text-anchor="middle" x="195.5" y="-296.5" font-family="Helvetica,sans-Serif" font-size="10.00" fill="#000000"> </text>
<polyline fill="none" stroke="#000000" points="126.5,-289.5 264.5,-289.5 "/>
<text text-anchor="start" x="134.5" y="-277.5" font-family="Helvetica,sans-Serif" font-size="10.00" fill="#000000">+ ~MFWorkerInterface()</text>
<text text-anchor="start" x="134.5" y="-266.5" font-family="Helvetica,sans-Serif" font-size="10.00" fill="#000000">+ vector_update_ghosts</text>
<text text-anchor="start" x="134.5" y="-255.5" font-family="Helvetica,sans-Serif" font-size="10.00" fill="#000000">_start()</text>
<text text-anchor="start" x="134.5" y="-244.5" font-family="Helvetica,sans-Serif" font-size="10.00" fill="#000000">+ vector_update_ghosts</text>
<text text-anchor="start" x="134.5" y="-233.5" font-family="Helvetica,sans-Serif" font-size="10.00" fill="#000000">_finish()</text>
<text text-anchor="start" x="134.5" y="-222.5" font-family="Helvetica,sans-Serif" font-size="10.00" fill="#000000">+ vector_compress_start()</text>
<text text-anchor="start" x="134.5" y="-211.5" font-family="Helvetica,sans-Serif" font-size="10.00" fill="#000000">+ vector_compress_finish()</text>
<text text-anchor="start" x="134.5" y="-200.5" font-family="Helvetica,sans-Serif" font-size="10.00" fill="#000000">+ zero_dst_vector_range()</text>
<text text-anchor="start" x="134.5" y="-189.5" font-family="Helvetica,sans-Serif" font-size="10.00" fill="#000000">+ cell_loop_pre_range()</text>
<text text-anchor="start" x="134.5" y="-178.5" font-family="Helvetica,sans-Serif" font-size="10.00" fill="#000000">+ cell_loop_post_range()</text>
<text text-anchor="start" x="134.5" y="-167.5" font-family="Helvetica,sans-Serif" font-size="10.00" fill="#000000">+ cell()</text>
<text text-anchor="start" x="134.5" y="-156.5" font-family="Helvetica,sans-Serif" font-size="10.00" fill="#000000">+ cell()</text>
<text text-anchor="start" x="134.5" y="-145.5" font-family="Helvetica,sans-Serif" font-size="10.00" fill="#000000">+ face()</text>
<text text-anchor="start" x="134.5" y="-134.5" font-family="Helvetica,sans-Serif" font-size="10.00" fill="#000000">+ boundary()</text>
</a>
</g>
</g>
<!-- Node5&#45;&gt;Node2 -->
<g id="edge3" class="edge">
<title>Node5&#45;&gt;Node2</title>
<path fill="none" stroke="#404040" d="M174.2897,-127.2675C170.1875,-116.9938 165.3058,-107.0286 159.5,-98 157.4911,-94.876 155.2616,-91.8326 152.8697,-88.8819"/>
<polygon fill="none" stroke="#404040" points="152.7417,-88.7387 145.7618,-86.9276 144.7489,-79.7879 151.7289,-81.599 152.7417,-88.7387"/>
<text text-anchor="middle" x="182.5" y="-101" font-family="Helvetica,sans-Serif" font-size="10.00" fill="#000000"> &#45;worker</text>
</g>
</g>
</svg>
