<?xml version="1.0" encoding="UTF-8" standalone="no"?>
<!DOCTYPE svg PUBLIC "-//W3C//DTD SVG 1.1//EN"
 "http://www.w3.org/Graphics/SVG/1.1/DTD/svg11.dtd">
<!-- Generated by graphviz version 2.40.1 (20161225.0304)
 -->
<!-- Title: Rol::VectorAdaptor&lt; VectorType &gt; Pages: 1 -->
<svg width="139pt" height="292pt"
 viewBox="0.00 0.00 139.00 292.00" xmlns="http://www.w3.org/2000/svg" xmlns:xlink="http://www.w3.org/1999/xlink">
<g id="graph0" class="graph" transform="scale(1 1) rotate(0) translate(4 288)">
<title>Rol::VectorAdaptor&lt; VectorType &gt;</title>
<polygon fill="#ffffff" stroke="transparent" points="-4,4 -4,-288 135,-288 135,4 -4,4"/>
<!-- Node0 -->
<g id="node1" class="node">
<title>Node0</title>
<polygon fill="#bfbfbf" stroke="#000000" points="15.5,-.5 15.5,-178.5 115.5,-178.5 115.5,-.5 15.5,-.5"/>
<text text-anchor="start" x="23.5" y="-166.5" font-family="Helvetica,sans-Serif" font-size="10.00" fill="#000000">Rol::VectorAdaptor</text>
<text text-anchor="middle" x="65.5" y="-155.5" font-family="Helvetica,sans-Serif" font-size="10.00" fill="#000000">&lt; VectorType &gt;</text>
<polyline fill="none" stroke="#000000" points="15.5,-148.5 115.5,-148.5 "/>
<text text-anchor="start" x="23.5" y="-136.5" font-family="Helvetica,sans-Serif" font-size="10.00" fill="#000000">&#45; vector_ptr</text>
<polyline fill="none" stroke="#000000" points="15.5,-129.5 115.5,-129.5 "/>
<text text-anchor="start" x="23.5" y="-117.5" font-family="Helvetica,sans-Serif" font-size="10.00" fill="#000000">+ VectorAdaptor()</text>
<text text-anchor="start" x="23.5" y="-106.5" font-family="Helvetica,sans-Serif" font-size="10.00" fill="#000000">+ getVector()</text>
<text text-anchor="start" x="23.5" y="-95.5" font-family="Helvetica,sans-Serif" font-size="10.00" fill="#000000">+ getVector()</text>
<text text-anchor="start" x="23.5" y="-84.5" font-family="Helvetica,sans-Serif" font-size="10.00" fill="#000000">+ dimension()</text>
<text text-anchor="start" x="23.5" y="-73.5" font-family="Helvetica,sans-Serif" font-size="10.00" fill="#000000">+ set()</text>
<text text-anchor="start" x="23.5" y="-62.5" font-family="Helvetica,sans-Serif" font-size="10.00" fill="#000000">+ plus()</text>
<text text-anchor="start" x="23.5" y="-51.5" font-family="Helvetica,sans-Serif" font-size="10.00" fill="#000000">+ axpy()</text>
<text text-anchor="start" x="23.5" y="-40.5" font-family="Helvetica,sans-Serif" font-size="10.00" fill="#000000">+ scale()</text>
<text text-anchor="start" x="23.5" y="-29.5" font-family="Helvetica,sans-Serif" font-size="10.00" fill="#000000">+ dot()</text>
<text text-anchor="start" x="23.5" y="-18.5" font-family="Helvetica,sans-Serif" font-size="10.00" fill="#000000">+ norm()</text>
<text text-anchor="start" x="23.5" y="-7.5" font-family="Helvetica,sans-Serif" font-size="10.00" fill="#000000">and 6 more...</text>
</g>
<!-- Node1 -->
<g id="node2" class="node">
<title>Node1</title>
<polygon fill="#ffffff" stroke="#bfbfbf" points="0,-215.5 0,-283.5 131,-283.5 131,-215.5 0,-215.5"/>
<text text-anchor="start" x="8" y="-271.5" font-family="Helvetica,sans-Serif" font-size="10.00" fill="#000000">ROL::Vector&lt; VectorType</text>
<text text-anchor="middle" x="65.5" y="-260.5" font-family="Helvetica,sans-Serif" font-size="10.00" fill="#000000">::value_type &gt;</text>
<polyline fill="none" stroke="#bfbfbf" points="0,-253.5 131,-253.5 "/>
<text text-anchor="middle" x="65.5" y="-241.5" font-family="Helvetica,sans-Serif" font-size="10.00" fill="#000000"> </text>
<polyline fill="none" stroke="#bfbfbf" points="0,-234.5 131,-234.5 "/>
<text text-anchor="middle" x="65.5" y="-222.5" font-family="Helvetica,sans-Serif" font-size="10.00" fill="#000000"> </text>
</g>
<!-- Node1&#45;&gt;Node0 -->
<g id="edge1" class="edge">
<title>Node1&#45;&gt;Node0</title>
<path fill="none" stroke="#191970" d="M65.5,-205.0284C65.5,-196.7175 65.5,-187.7646 65.5,-178.6512"/>
<polygon fill="none" stroke="#191970" points="62.0001,-205.176 65.5,-215.176 69.0001,-205.176 62.0001,-205.176"/>
</g>
</g>
</svg>
