<?xml version="1.0" encoding="UTF-8" standalone="no"?>
<!DOCTYPE svg PUBLIC "-//W3C//DTD SVG 1.1//EN"
 "http://www.w3.org/Graphics/SVG/1.1/DTD/svg11.dtd">
<!-- Generated by graphviz version 2.40.1 (20161225.0304)
 -->
<!-- Title: ReductionControl Pages: 1 -->
<!--zoomable 1065 -->
<svg id="main" version="1.1" xmlns="http://www.w3.org/2000/svg" xmlns:xlink="http://www.w3.org/1999/xlink" xml:space="preserve" onload="init(evt)">
<style type="text/css"><![CDATA[
.edge:hover path { stroke: red; }
.edge:hover polygon { stroke: red; fill: red; }
]]></style>
<script type="text/javascript"><![CDATA[
var edges = document.getElementsByTagName('g');
if (edges && edges.length) {
  for (var i=0;i<edges.length;i++) {
    if (edges[i].id.substr(0,4)=='edge') {
      edges[i].setAttribute('class','edge');
    }
  }
}
]]></script>
        <defs>
                <circle id="rim" cx="0" cy="0" r="7"/>
                <circle id="rim2" cx="0" cy="0" r="3.5"/>
                <g id="zoomPlus">
                        <use xlink:href="#rim" fill="#404040">
                                <set attributeName="fill" to="#808080" begin="zoomplus.mouseover" end="zoomplus.mouseout"/>
                        </use>
                        <path d="M-4,0h8M0,-4v8" fill="none" stroke="white" stroke-width="1.5" pointer-events="none"/>
                </g>
                <g id="zoomMin">
                        <use xlink:href="#rim" fill="#404040">
                                <set attributeName="fill" to="#808080" begin="zoomminus.mouseover" end="zoomminus.mouseout"/>
                        </use>
                        <path d="M-4,0h8" fill="none" stroke="white" stroke-width="1.5" pointer-events="none"/>
                </g>
                <g id="dirArrow">
                        <path fill="none" stroke="white" stroke-width="1.5" d="M0,-3.0v7 M-2.5,-0.5L0,-3.0L2.5,-0.5"/>
                </g>
               <g id="resetDef">
                       <use xlink:href="#rim2" fill="#404040">
                               <set attributeName="fill" to="#808080" begin="reset.mouseover" end="reset.mouseout"/>
                       </use>
               </g>
        </defs>

<script type="text/javascript">
var viewWidth = 1019;
var viewHeight = 1065;
var sectionId = 'dynsection-1';
</script>
<script xlink:href="svgpan.js"/>
<svg id="graph" class="graph">
<g id="viewport">
<title>ReductionControl</title>
<polygon fill="#ffffff" stroke="transparent" points="-4,4 -4,-1061 1015,-1061 1015,4 -4,4"/>
<!-- Node3 -->
<g id="node1" class="node">
<title>Node3</title>
<polygon fill="#bfbfbf" stroke="#000000" points="793.5,-.5 793.5,-145.5 910.5,-145.5 910.5,-.5 793.5,-.5"/>
<text text-anchor="middle" x="852" y="-133.5" font-family="Helvetica,sans-Serif" font-size="10.00" fill="#000000">ReductionControl</text>
<polyline fill="none" stroke="#000000" points="793.5,-126.5 910.5,-126.5 "/>
<text text-anchor="middle" x="852" y="-114.5" font-family="Helvetica,sans-Serif" font-size="10.00" fill="#000000"> </text>
<polyline fill="none" stroke="#000000" points="793.5,-107.5 910.5,-107.5 "/>
<text text-anchor="start" x="801.5" y="-95.5" font-family="Helvetica,sans-Serif" font-size="10.00" fill="#000000">+ ReductionControl()</text>
<text text-anchor="start" x="801.5" y="-84.5" font-family="Helvetica,sans-Serif" font-size="10.00" fill="#000000">+ ReductionControl()</text>
<text text-anchor="start" x="801.5" y="-73.5" font-family="Helvetica,sans-Serif" font-size="10.00" fill="#000000">+ operator=()</text>
<text text-anchor="start" x="801.5" y="-62.5" font-family="Helvetica,sans-Serif" font-size="10.00" fill="#000000">+ ~ReductionControl()</text>
<text text-anchor="start" x="801.5" y="-51.5" font-family="Helvetica,sans-Serif" font-size="10.00" fill="#000000">+ parse_parameters()</text>
<text text-anchor="start" x="801.5" y="-40.5" font-family="Helvetica,sans-Serif" font-size="10.00" fill="#000000">+ check()</text>
<text text-anchor="start" x="801.5" y="-29.5" font-family="Helvetica,sans-Serif" font-size="10.00" fill="#000000">+ reduction()</text>
<text text-anchor="start" x="801.5" y="-18.5" font-family="Helvetica,sans-Serif" font-size="10.00" fill="#000000">+ set_reduction()</text>
<text text-anchor="start" x="801.5" y="-7.5" font-family="Helvetica,sans-Serif" font-size="10.00" fill="#000000">+ declare_parameters()</text>
</g>
<!-- Node4 -->
<g id="node2" class="node">
<title>Node4</title>
<g id="a_node2"><a xlink:href="classSolverControl.html" target="_top" xlink:title="{SolverControl\n||+ SolverControl()\l+ ~SolverControl()\l+ parse_parameters()\l+ check()\l+ last_check()\l+ initial_value()\l+ last_value()\l+ last_step()\l+ max_steps()\l+ set_max_steps()\land 15 more...\l+ declare_parameters()\l}">
<polygon fill="#ffffff" stroke="#000000" points="666.5,-183.5 666.5,-361.5 783.5,-361.5 783.5,-183.5 666.5,-183.5"/>
<text text-anchor="middle" x="725" y="-349.5" font-family="Helvetica,sans-Serif" font-size="10.00" fill="#000000">SolverControl</text>
<polyline fill="none" stroke="#000000" points="666.5,-342.5 783.5,-342.5 "/>
<text text-anchor="middle" x="725" y="-330.5" font-family="Helvetica,sans-Serif" font-size="10.00" fill="#000000"> </text>
<polyline fill="none" stroke="#000000" points="666.5,-323.5 783.5,-323.5 "/>
<text text-anchor="start" x="674.5" y="-311.5" font-family="Helvetica,sans-Serif" font-size="10.00" fill="#000000">+ SolverControl()</text>
<text text-anchor="start" x="674.5" y="-300.5" font-family="Helvetica,sans-Serif" font-size="10.00" fill="#000000">+ ~SolverControl()</text>
<text text-anchor="start" x="674.5" y="-289.5" font-family="Helvetica,sans-Serif" font-size="10.00" fill="#000000">+ parse_parameters()</text>
<text text-anchor="start" x="674.5" y="-278.5" font-family="Helvetica,sans-Serif" font-size="10.00" fill="#000000">+ check()</text>
<text text-anchor="start" x="674.5" y="-267.5" font-family="Helvetica,sans-Serif" font-size="10.00" fill="#000000">+ last_check()</text>
<text text-anchor="start" x="674.5" y="-256.5" font-family="Helvetica,sans-Serif" font-size="10.00" fill="#000000">+ initial_value()</text>
<text text-anchor="start" x="674.5" y="-245.5" font-family="Helvetica,sans-Serif" font-size="10.00" fill="#000000">+ last_value()</text>
<text text-anchor="start" x="674.5" y="-234.5" font-family="Helvetica,sans-Serif" font-size="10.00" fill="#000000">+ last_step()</text>
<text text-anchor="start" x="674.5" y="-223.5" font-family="Helvetica,sans-Serif" font-size="10.00" fill="#000000">+ max_steps()</text>
<text text-anchor="start" x="674.5" y="-212.5" font-family="Helvetica,sans-Serif" font-size="10.00" fill="#000000">+ set_max_steps()</text>
<text text-anchor="start" x="674.5" y="-201.5" font-family="Helvetica,sans-Serif" font-size="10.00" fill="#000000">and 15 more...</text>
<text text-anchor="start" x="674.5" y="-190.5" font-family="Helvetica,sans-Serif" font-size="10.00" fill="#000000">+ declare_parameters()</text>
</a>
</g>
</g>
<!-- Node4&#45;&gt;Node3 -->
<g id="edge1" class="edge">
<title>Node4&#45;&gt;Node3</title>
<path fill="none" stroke="#191970" d="M787.2614,-174.6957C793.4718,-164.94 799.698,-155.1594 805.7023,-145.7274"/>
<polygon fill="none" stroke="#191970" points="784.2314,-172.9379 781.8138,-183.2532 790.1365,-176.697 784.2314,-172.9379"/>
</g>
<!-- Node5 -->
<g id="node3" class="node">
<title>Node5</title>
<g id="a_node3"><a xlink:href="classSubscriptor.html" target="_top" xlink:title="{Subscriptor\n||+ Subscriptor()\l+ Subscriptor()\l+ Subscriptor()\l+ ~Subscriptor()\l+ operator=()\l+ operator=()\l+ serialize()\l+ subscribe()\l+ unsubscribe()\l+ n_subscriptions()\l+ list_subscribers()\l+ list_subscribers()\l+ ExcInUse()\l+ ExcNoSubscriber()\l&#45; check_no_subscribers()\l* subscribe()\l* unsubscribe()\l* n_subscriptions()\l* list_subscribers()\l* list_subscribers()\l}">
<polygon fill="#ffffff" stroke="#000000" points="271,-442.5 271,-708.5 397,-708.5 397,-442.5 271,-442.5"/>
<text text-anchor="middle" x="334" y="-696.5" font-family="Helvetica,sans-Serif" font-size="10.00" fill="#000000">Subscriptor</text>
<polyline fill="none" stroke="#000000" points="271,-689.5 397,-689.5 "/>
<text text-anchor="middle" x="334" y="-677.5" font-family="Helvetica,sans-Serif" font-size="10.00" fill="#000000"> </text>
<polyline fill="none" stroke="#000000" points="271,-670.5 397,-670.5 "/>
<text text-anchor="start" x="279" y="-658.5" font-family="Helvetica,sans-Serif" font-size="10.00" fill="#000000">+ Subscriptor()</text>
<text text-anchor="start" x="279" y="-647.5" font-family="Helvetica,sans-Serif" font-size="10.00" fill="#000000">+ Subscriptor()</text>
<text text-anchor="start" x="279" y="-636.5" font-family="Helvetica,sans-Serif" font-size="10.00" fill="#000000">+ Subscriptor()</text>
<text text-anchor="start" x="279" y="-625.5" font-family="Helvetica,sans-Serif" font-size="10.00" fill="#000000">+ ~Subscriptor()</text>
<text text-anchor="start" x="279" y="-614.5" font-family="Helvetica,sans-Serif" font-size="10.00" fill="#000000">+ operator=()</text>
<text text-anchor="start" x="279" y="-603.5" font-family="Helvetica,sans-Serif" font-size="10.00" fill="#000000">+ operator=()</text>
<text text-anchor="start" x="279" y="-592.5" font-family="Helvetica,sans-Serif" font-size="10.00" fill="#000000">+ serialize()</text>
<text text-anchor="start" x="279" y="-581.5" font-family="Helvetica,sans-Serif" font-size="10.00" fill="#000000">+ subscribe()</text>
<text text-anchor="start" x="279" y="-570.5" font-family="Helvetica,sans-Serif" font-size="10.00" fill="#000000">+ unsubscribe()</text>
<text text-anchor="start" x="279" y="-559.5" font-family="Helvetica,sans-Serif" font-size="10.00" fill="#000000">+ n_subscriptions()</text>
<text text-anchor="start" x="279" y="-548.5" font-family="Helvetica,sans-Serif" font-size="10.00" fill="#000000">+ list_subscribers()</text>
<text text-anchor="start" x="279" y="-537.5" font-family="Helvetica,sans-Serif" font-size="10.00" fill="#000000">+ list_subscribers()</text>
<text text-anchor="start" x="279" y="-526.5" font-family="Helvetica,sans-Serif" font-size="10.00" fill="#000000">+ ExcInUse()</text>
<text text-anchor="start" x="279" y="-515.5" font-family="Helvetica,sans-Serif" font-size="10.00" fill="#000000">+ ExcNoSubscriber()</text>
<text text-anchor="start" x="279" y="-504.5" font-family="Helvetica,sans-Serif" font-size="10.00" fill="#000000">&#45; check_no_subscribers()</text>
<text text-anchor="start" x="279" y="-493.5" font-family="Helvetica,sans-Serif" font-size="10.00" fill="#000000">* subscribe()</text>
<text text-anchor="start" x="279" y="-482.5" font-family="Helvetica,sans-Serif" font-size="10.00" fill="#000000">* unsubscribe()</text>
<text text-anchor="start" x="279" y="-471.5" font-family="Helvetica,sans-Serif" font-size="10.00" fill="#000000">* n_subscriptions()</text>
<text text-anchor="start" x="279" y="-460.5" font-family="Helvetica,sans-Serif" font-size="10.00" fill="#000000">* list_subscribers()</text>
<text text-anchor="start" x="279" y="-449.5" font-family="Helvetica,sans-Serif" font-size="10.00" fill="#000000">* list_subscribers()</text>
</a>
</g>
</g>
<!-- Node5&#45;&gt;Node4 -->
<g id="edge2" class="edge">
<title>Node5&#45;&gt;Node4</title>
<path fill="none" stroke="#191970" d="M404.2299,-493.8155C419.6957,-476.4603 436.1859,-458.4257 452,-442 479.6896,-413.2396 484.4933,-403.1774 517,-380 564.1638,-346.3721 623.2695,-316.8728 666.4089,-297.3253"/>
<polygon fill="none" stroke="#191970" points="401.2227,-491.9311 397.2022,-501.7334 406.458,-496.5778 401.2227,-491.9311"/>
</g>
<!-- Node6 -->
<g id="node4" class="node">
<title>Node6</title>
<polygon fill="#ffffff" stroke="#bfbfbf" points="0,-756.5 0,-824.5 110,-824.5 110,-756.5 0,-756.5"/>
<text text-anchor="start" x="8" y="-812.5" font-family="Helvetica,sans-Serif" font-size="10.00" fill="#000000">std::map&lt; std::string,</text>
<text text-anchor="middle" x="55" y="-801.5" font-family="Helvetica,sans-Serif" font-size="10.00" fill="#000000"> unsigned int &gt;</text>
<polyline fill="none" stroke="#bfbfbf" points="0,-794.5 110,-794.5 "/>
<text text-anchor="middle" x="55" y="-782.5" font-family="Helvetica,sans-Serif" font-size="10.00" fill="#000000"> </text>
<polyline fill="none" stroke="#bfbfbf" points="0,-775.5 110,-775.5 "/>
<text text-anchor="middle" x="55" y="-763.5" font-family="Helvetica,sans-Serif" font-size="10.00" fill="#000000"> </text>
</g>
<!-- Node6&#45;&gt;Node5 -->
<g id="edge3" class="edge">
<title>Node6&#45;&gt;Node5</title>
<path fill="none" stroke="#404040" d="M99.2084,-756.4326C142.6577,-722.9501 209.7319,-671.2621 261.0818,-631.6915"/>
<polygon fill="none" stroke="#404040" points="261.2985,-631.5245 263.6095,-624.6937 270.8036,-624.1997 268.4926,-631.0305 261.2985,-631.5245"/>
<text text-anchor="middle" x="161.5" y="-730" font-family="Helvetica,sans-Serif" font-size="10.00" fill="#000000"> &#45;counter_map</text>
</g>
<!-- Node7 -->
<g id="node5" class="node">
<title>Node7</title>
<g id="a_node5"><a xlink:href="classint.html" target="_top" xlink:title="{int\n||}">
<polygon fill="#ffffff" stroke="#000000" points="4.5,-883.5 4.5,-940.5 33.5,-940.5 33.5,-883.5 4.5,-883.5"/>
<text text-anchor="middle" x="19" y="-928.5" font-family="Helvetica,sans-Serif" font-size="10.00" fill="#000000">int</text>
<polyline fill="none" stroke="#000000" points="4.5,-921.5 33.5,-921.5 "/>
<text text-anchor="middle" x="19" y="-909.5" font-family="Helvetica,sans-Serif" font-size="10.00" fill="#000000"> </text>
<polyline fill="none" stroke="#000000" points="4.5,-902.5 33.5,-902.5 "/>
<text text-anchor="middle" x="19" y="-890.5" font-family="Helvetica,sans-Serif" font-size="10.00" fill="#000000"> </text>
</a>
</g>
</g>
<!-- Node7&#45;&gt;Node6 -->
<g id="edge4" class="edge">
<title>Node7&#45;&gt;Node6</title>
<path fill="none" stroke="#404040" d="M15.8141,-883.2281C15.3296,-870.6226 16.0187,-855.8138 20,-843 20.7923,-840.4501 21.751,-837.9098 22.8372,-835.4005"/>
<polygon fill="none" stroke="#404040" points="22.858,-835.3595 22.0113,-828.1982 28.2961,-824.6624 29.1427,-831.8236 22.858,-835.3595"/>
<text text-anchor="middle" x="44.5" y="-851.5" font-family="Helvetica,sans-Serif" font-size="10.00" fill="#000000"> +elements</text>
</g>
<!-- Node8 -->
<g id="node6" class="node">
<title>Node8</title>
<g id="a_node6"><a xlink:title="STL class. ">
<polygon fill="#ffffff" stroke="#bfbfbf" points="61,-883.5 61,-940.5 121,-940.5 121,-883.5 61,-883.5"/>
<text text-anchor="middle" x="91" y="-928.5" font-family="Helvetica,sans-Serif" font-size="10.00" fill="#000000">std::string</text>
<polyline fill="none" stroke="#bfbfbf" points="61,-921.5 121,-921.5 "/>
<text text-anchor="middle" x="91" y="-909.5" font-family="Helvetica,sans-Serif" font-size="10.00" fill="#000000"> </text>
<polyline fill="none" stroke="#bfbfbf" points="61,-902.5 121,-902.5 "/>
<text text-anchor="middle" x="91" y="-890.5" font-family="Helvetica,sans-Serif" font-size="10.00" fill="#000000"> </text>
</a>
</g>
</g>
<!-- Node8&#45;&gt;Node6 -->
<g id="edge5" class="edge">
<title>Node8&#45;&gt;Node6</title>
<path fill="none" stroke="#404040" d="M82.4685,-883.2062C78.3263,-869.2262 73.2488,-852.0898 68.5911,-836.37"/>
<polygon fill="none" stroke="#404040" points="68.5427,-836.2063 63.0029,-831.5899 65.1336,-824.7007 70.6733,-829.3172 68.5427,-836.2063"/>
<text text-anchor="middle" x="92.5" y="-851.5" font-family="Helvetica,sans-Serif" font-size="10.00" fill="#000000"> +keys</text>
</g>
<!-- Node9 -->
<g id="node7" class="node">
<title>Node9</title>
<g id="a_node7"><a xlink:title="STL class. ">
<polygon fill="#ffffff" stroke="#bfbfbf" points="43.5,-988.5 43.5,-1056.5 138.5,-1056.5 138.5,-988.5 43.5,-988.5"/>
<text text-anchor="start" x="51.5" y="-1044.5" font-family="Helvetica,sans-Serif" font-size="10.00" fill="#000000">std::basic_string&lt;</text>
<text text-anchor="middle" x="91" y="-1033.5" font-family="Helvetica,sans-Serif" font-size="10.00" fill="#000000"> char &gt;</text>
<polyline fill="none" stroke="#bfbfbf" points="43.5,-1026.5 138.5,-1026.5 "/>
<text text-anchor="middle" x="91" y="-1014.5" font-family="Helvetica,sans-Serif" font-size="10.00" fill="#000000"> </text>
<polyline fill="none" stroke="#bfbfbf" points="43.5,-1007.5 138.5,-1007.5 "/>
<text text-anchor="middle" x="91" y="-995.5" font-family="Helvetica,sans-Serif" font-size="10.00" fill="#000000"> </text>
</a>
</g>
</g>
<!-- Node9&#45;&gt;Node8 -->
<g id="edge6" class="edge">
<title>Node9&#45;&gt;Node8</title>
<path fill="none" stroke="#191970" d="M91,-978.0661C91,-965.4172 91,-951.9812 91,-940.5519"/>
<polygon fill="none" stroke="#191970" points="87.5001,-978.4447 91,-988.4447 94.5001,-978.4447 87.5001,-978.4447"/>
</g>
<!-- Node10 -->
<g id="node8" class="node">
<title>Node10</title>
<g id="a_node8"><a xlink:title="STL class. ">
<polygon fill="#ffffff" stroke="#bfbfbf" points="175,-883.5 175,-940.5 267,-940.5 267,-883.5 175,-883.5"/>
<text text-anchor="middle" x="221" y="-928.5" font-family="Helvetica,sans-Serif" font-size="10.00" fill="#000000">std::map&lt; K, T &gt;</text>
<polyline fill="none" stroke="#bfbfbf" points="175,-921.5 267,-921.5 "/>
<text text-anchor="middle" x="221" y="-909.5" font-family="Helvetica,sans-Serif" font-size="10.00" fill="#000000"> </text>
<polyline fill="none" stroke="#bfbfbf" points="175,-902.5 267,-902.5 "/>
<text text-anchor="middle" x="221" y="-890.5" font-family="Helvetica,sans-Serif" font-size="10.00" fill="#000000"> </text>
</a>
</g>
</g>
<!-- Node10&#45;&gt;Node6 -->
<g id="edge7" class="edge">
<title>Node10&#45;&gt;Node6</title>
<path fill="none" stroke="#ffa500" d="M173.5679,-877.2832C151.0291,-860.7863 124.1747,-841.1309 101.7269,-824.7007"/>
<polygon fill="#ffa500" stroke="#ffa500" points="171.5236,-880.1242 181.6603,-883.2062 175.658,-874.4756 171.5236,-880.1242"/>
<text text-anchor="start" x="153" y="-857" font-family="Helvetica,sans-Serif" font-size="10.00" fill="#000000"> &lt; std::string, unsigned</text>
<text text-anchor="middle" x="203.5" y="-846" font-family="Helvetica,sans-Serif" font-size="10.00" fill="#000000"> int &gt;</text>
</g>
<!-- Node11 -->
<g id="node9" class="node">
<title>Node11</title>
<polygon fill="#ffffff" stroke="#bfbfbf" points="206.5,-994 206.5,-1051 235.5,-1051 235.5,-994 206.5,-994"/>
<text text-anchor="middle" x="221" y="-1039" font-family="Helvetica,sans-Serif" font-size="10.00" fill="#000000">K</text>
<polyline fill="none" stroke="#bfbfbf" points="206.5,-1032 235.5,-1032 "/>
<text text-anchor="middle" x="221" y="-1020" font-family="Helvetica,sans-Serif" font-size="10.00" fill="#000000"> </text>
<polyline fill="none" stroke="#bfbfbf" points="206.5,-1013 235.5,-1013 "/>
<text text-anchor="middle" x="221" y="-1001" font-family="Helvetica,sans-Serif" font-size="10.00" fill="#000000"> </text>
</g>
<!-- Node11&#45;&gt;Node10 -->
<g id="edge8" class="edge">
<title>Node11&#45;&gt;Node10</title>
<path fill="none" stroke="#404040" d="M221,-993.7559C221,-981.2224 221,-966.3039 221,-952.6631"/>
<polygon fill="none" stroke="#404040" points="221.0001,-952.6002 217,-946.6002 221,-940.6002 225,-946.6002 221.0001,-952.6002"/>
<text text-anchor="middle" x="236.5" y="-962" font-family="Helvetica,sans-Serif" font-size="10.00" fill="#000000"> +keys</text>
</g>
<!-- Node12 -->
<g id="node10" class="node">
<title>Node12</title>
<polygon fill="#ffffff" stroke="#bfbfbf" points="345.5,-994 345.5,-1051 374.5,-1051 374.5,-994 345.5,-994"/>
<text text-anchor="middle" x="360" y="-1039" font-family="Helvetica,sans-Serif" font-size="10.00" fill="#000000">T</text>
<polyline fill="none" stroke="#bfbfbf" points="345.5,-1032 374.5,-1032 "/>
<text text-anchor="middle" x="360" y="-1020" font-family="Helvetica,sans-Serif" font-size="10.00" fill="#000000"> </text>
<polyline fill="none" stroke="#bfbfbf" points="345.5,-1013 374.5,-1013 "/>
<text text-anchor="middle" x="360" y="-1001" font-family="Helvetica,sans-Serif" font-size="10.00" fill="#000000"> </text>
</g>
<!-- Node12&#45;&gt;Node10 -->
<g id="edge9" class="edge">
<title>Node12&#45;&gt;Node10</title>
<path fill="none" stroke="#404040" d="M345.3873,-1010.8834C326.8066,-996.1125 293.856,-969.9179 266.5354,-948.199"/>
<polygon fill="none" stroke="#404040" points="266.5328,-948.197 259.3469,-947.5944 257.1394,-940.7295 264.3253,-941.3321 266.5328,-948.197"/>
<text text-anchor="middle" x="315.5" y="-962" font-family="Helvetica,sans-Serif" font-size="10.00" fill="#000000"> +elements</text>
</g>
<!-- Node17 -->
<g id="node15" class="node">
<title>Node17</title>
<g id="a_node15"><a xlink:title="STL class. ">
<polygon fill="#ffffff" stroke="#bfbfbf" points="402.5,-883.5 402.5,-940.5 489.5,-940.5 489.5,-883.5 402.5,-883.5"/>
<text text-anchor="middle" x="446" y="-928.5" font-family="Helvetica,sans-Serif" font-size="10.00" fill="#000000">std::vector&lt; T &gt;</text>
<polyline fill="none" stroke="#bfbfbf" points="402.5,-921.5 489.5,-921.5 "/>
<text text-anchor="middle" x="446" y="-909.5" font-family="Helvetica,sans-Serif" font-size="10.00" fill="#000000"> </text>
<polyline fill="none" stroke="#bfbfbf" points="402.5,-902.5 489.5,-902.5 "/>
<text text-anchor="middle" x="446" y="-890.5" font-family="Helvetica,sans-Serif" font-size="10.00" fill="#000000"> </text>
</a>
</g>
</g>
<!-- Node12&#45;&gt;Node17 -->
<g id="edge15" class="edge">
<title>Node12&#45;&gt;Node17</title>
<path fill="none" stroke="#404040" d="M374.5887,-1003.7552C385.9104,-989.2082 401.9882,-968.55 416.0225,-950.5176"/>
<polygon fill="none" stroke="#404040" points="416.1956,-950.2951 416.7241,-943.1034 423.5659,-940.8252 423.0374,-948.0169 416.1956,-950.2951"/>
<text text-anchor="middle" x="433.5" y="-962" font-family="Helvetica,sans-Serif" font-size="10.00" fill="#000000"> +elements</text>
</g>
<!-- Node13 -->
<g id="node11" class="node">
<title>Node13</title>
<polygon fill="#ffffff" stroke="#bfbfbf" points="128,-762 128,-819 244,-819 244,-762 128,-762"/>
<text text-anchor="middle" x="186" y="-807" font-family="Helvetica,sans-Serif" font-size="10.00" fill="#000000">atomic&lt; unsigned int &gt;</text>
<polyline fill="none" stroke="#bfbfbf" points="128,-800 244,-800 "/>
<text text-anchor="middle" x="186" y="-788" font-family="Helvetica,sans-Serif" font-size="10.00" fill="#000000"> </text>
<polyline fill="none" stroke="#bfbfbf" points="128,-781 244,-781 "/>
<text text-anchor="middle" x="186" y="-769" font-family="Helvetica,sans-Serif" font-size="10.00" fill="#000000"> </text>
</g>
<!-- Node13&#45;&gt;Node5 -->
<g id="edge10" class="edge">
<title>Node13&#45;&gt;Node5</title>
<path fill="none" stroke="#404040" d="M205.6533,-761.9497C220.766,-739.9953 242.6187,-708.2499 264.0214,-677.1581"/>
<polygon fill="none" stroke="#404040" points="264.1412,-676.984 264.2485,-669.7737 270.9454,-667.0995 270.8382,-674.3099 264.1412,-676.984"/>
<text text-anchor="middle" x="245.5" y="-730" font-family="Helvetica,sans-Serif" font-size="10.00" fill="#000000"> &#45;counter</text>
</g>
<!-- Node14 -->
<g id="node12" class="node">
<title>Node14</title>
<polygon fill="#ffffff" stroke="#bfbfbf" points="262,-762 262,-819 306,-819 306,-762 262,-762"/>
<text text-anchor="middle" x="284" y="-807" font-family="Helvetica,sans-Serif" font-size="10.00" fill="#000000">mutex</text>
<polyline fill="none" stroke="#bfbfbf" points="262,-800 306,-800 "/>
<text text-anchor="middle" x="284" y="-788" font-family="Helvetica,sans-Serif" font-size="10.00" fill="#000000"> </text>
<polyline fill="none" stroke="#bfbfbf" points="262,-781 306,-781 "/>
<text text-anchor="middle" x="284" y="-769" font-family="Helvetica,sans-Serif" font-size="10.00" fill="#000000"> </text>
</g>
<!-- Node14&#45;&gt;Node5 -->
<g id="edge11" class="edge">
<title>Node14&#45;&gt;Node5</title>
<path fill="none" stroke="#404040" d="M290.6396,-761.9497C293.328,-750.3895 296.6477,-736.1147 300.2442,-720.6501"/>
<polygon fill="none" stroke="#404040" points="300.3242,-720.3057 297.7873,-713.5555 303.0424,-708.6176 305.5793,-715.3677 300.3242,-720.3057"/>
<text text-anchor="middle" x="315" y="-730" font-family="Helvetica,sans-Serif" font-size="10.00" fill="#000000"> &#45;mutex</text>
</g>
<!-- Node15 -->
<g id="node13" class="node">
<title>Node15</title>
<polygon fill="#ffffff" stroke="#bfbfbf" points="324.5,-756.5 324.5,-824.5 445.5,-824.5 445.5,-756.5 324.5,-756.5"/>
<text text-anchor="start" x="332.5" y="-812.5" font-family="Helvetica,sans-Serif" font-size="10.00" fill="#000000">std::vector&lt; std::atomic</text>
<text text-anchor="middle" x="385" y="-801.5" font-family="Helvetica,sans-Serif" font-size="10.00" fill="#000000">&lt; bool &gt; *&gt;</text>
<polyline fill="none" stroke="#bfbfbf" points="324.5,-794.5 445.5,-794.5 "/>
<text text-anchor="middle" x="385" y="-782.5" font-family="Helvetica,sans-Serif" font-size="10.00" fill="#000000"> </text>
<polyline fill="none" stroke="#bfbfbf" points="324.5,-775.5 445.5,-775.5 "/>
<text text-anchor="middle" x="385" y="-763.5" font-family="Helvetica,sans-Serif" font-size="10.00" fill="#000000"> </text>
</g>
<!-- Node15&#45;&gt;Node5 -->
<g id="edge12" class="edge">
<title>Node15&#45;&gt;Node5</title>
<path fill="none" stroke="#404040" d="M376.9189,-756.4326C374.4207,-745.9009 371.4952,-733.568 368.3663,-720.3775"/>
<polygon fill="none" stroke="#404040" points="368.3396,-720.2648 363.0628,-715.3501 365.5699,-708.5888 370.8468,-713.5036 368.3396,-720.2648"/>
<text text-anchor="middle" x="410.5" y="-730" font-family="Helvetica,sans-Serif" font-size="10.00" fill="#000000"> &#45;validity_pointers</text>
</g>
<!-- Node16 -->
<g id="node14" class="node">
<title>Node16</title>
<polygon fill="#ffffff" stroke="#bfbfbf" points="295.5,-883.5 295.5,-940.5 384.5,-940.5 384.5,-883.5 295.5,-883.5"/>
<text text-anchor="middle" x="340" y="-928.5" font-family="Helvetica,sans-Serif" font-size="10.00" fill="#000000">atomic&lt; bool &gt; *</text>
<polyline fill="none" stroke="#bfbfbf" points="295.5,-921.5 384.5,-921.5 "/>
<text text-anchor="middle" x="340" y="-909.5" font-family="Helvetica,sans-Serif" font-size="10.00" fill="#000000"> </text>
<polyline fill="none" stroke="#bfbfbf" points="295.5,-902.5 384.5,-902.5 "/>
<text text-anchor="middle" x="340" y="-890.5" font-family="Helvetica,sans-Serif" font-size="10.00" fill="#000000"> </text>
</g>
<!-- Node16&#45;&gt;Node15 -->
<g id="edge13" class="edge">
<title>Node16&#45;&gt;Node15</title>
<path fill="none" stroke="#404040" d="M345.9795,-883.359C348.9853,-870.7778 353.0494,-855.9518 358,-843 358.9006,-840.644 359.8775,-838.2557 360.9078,-835.8633"/>
<polygon fill="none" stroke="#404040" points="361.0102,-835.6408 359.888,-828.5175 366.0318,-824.742 367.1539,-831.8652 361.0102,-835.6408"/>
<text text-anchor="middle" x="382.5" y="-851.5" font-family="Helvetica,sans-Serif" font-size="10.00" fill="#000000"> +elements</text>
</g>
<!-- Node17&#45;&gt;Node15 -->
<g id="edge14" class="edge">
<title>Node17&#45;&gt;Node15</title>
<path fill="none" stroke="#ffa500" d="M427.0273,-874.21C419.082,-858.3847 409.9131,-840.122 402.1707,-824.7007"/>
<polygon fill="#ffa500" stroke="#ffa500" points="423.929,-875.8397 431.5439,-883.2062 430.1849,-872.6989 423.929,-875.8397"/>
<text text-anchor="middle" x="476" y="-851.5" font-family="Helvetica,sans-Serif" font-size="10.00" fill="#000000"> &lt; std::atomic&lt; bool &gt; *&gt;</text>
</g>
<!-- Node23 -->
<g id="node21" class="node">
<title>Node23</title>
<polygon fill="#ffffff" stroke="#bfbfbf" points="461,-547 461,-604 571,-604 571,-547 461,-547"/>
<text text-anchor="middle" x="516" y="-592" font-family="Helvetica,sans-Serif" font-size="10.00" fill="#000000">std::vector&lt; double &gt;</text>
<polyline fill="none" stroke="#bfbfbf" points="461,-585 571,-585 "/>
<text text-anchor="middle" x="516" y="-573" font-family="Helvetica,sans-Serif" font-size="10.00" fill="#000000"> </text>
<polyline fill="none" stroke="#bfbfbf" points="461,-566 571,-566 "/>
<text text-anchor="middle" x="516" y="-554" font-family="Helvetica,sans-Serif" font-size="10.00" fill="#000000"> </text>
</g>
<!-- Node17&#45;&gt;Node23 -->
<g id="edge23" class="edge">
<title>Node17&#45;&gt;Node23</title>
<path fill="none" stroke="#ffa500" d="M499.1726,-895.2578C513.1835,-888.194 526.6921,-878.4009 535,-865 586.3544,-782.1641 549.2203,-659.1547 528.0274,-604.0289"/>
<polygon fill="#ffa500" stroke="#ffa500" points="497.5565,-892.1488 489.9425,-899.5161 500.489,-898.505 497.5565,-892.1488"/>
<text text-anchor="middle" x="585" y="-788" font-family="Helvetica,sans-Serif" font-size="10.00" fill="#000000"> &lt; double &gt;</text>
</g>
<!-- Node18 -->
<g id="node16" class="node">
<title>Node18</title>
<polygon fill="#ffffff" stroke="#bfbfbf" points="463.5,-762 463.5,-819 526.5,-819 526.5,-762 463.5,-762"/>
<text text-anchor="middle" x="495" y="-807" font-family="Helvetica,sans-Serif" font-size="10.00" fill="#000000">type_info *</text>
<polyline fill="none" stroke="#bfbfbf" points="463.5,-800 526.5,-800 "/>
<text text-anchor="middle" x="495" y="-788" font-family="Helvetica,sans-Serif" font-size="10.00" fill="#000000"> </text>
<polyline fill="none" stroke="#bfbfbf" points="463.5,-781 526.5,-781 "/>
<text text-anchor="middle" x="495" y="-769" font-family="Helvetica,sans-Serif" font-size="10.00" fill="#000000"> </text>
</g>
<!-- Node18&#45;&gt;Node5 -->
<g id="edge16" class="edge">
<title>Node18&#45;&gt;Node5</title>
<path fill="none" stroke="#404040" d="M476.6703,-761.7142C469.4838,-750.717 461.0439,-738.147 453,-727 437.8783,-706.0449 421.0447,-683.9386 404.9099,-663.2849"/>
<polygon fill="none" stroke="#404040" points="404.7127,-663.0334 397.8622,-660.7813 397.3063,-653.5916 404.1567,-655.8437 404.7127,-663.0334"/>
<text text-anchor="middle" x="488" y="-730" font-family="Helvetica,sans-Serif" font-size="10.00" fill="#000000"> &#45;object_info</text>
</g>
<!-- Node19 -->
<g id="node17" class="node">
<title>Node19</title>
<g id="a_node17"><a xlink:href="classdouble.html" target="_top" xlink:title="{double\n||}">
<polygon fill="#ffffff" stroke="#000000" points="857.5,-762 857.5,-819 902.5,-819 902.5,-762 857.5,-762"/>
<text text-anchor="middle" x="880" y="-807" font-family="Helvetica,sans-Serif" font-size="10.00" fill="#000000">double</text>
<polyline fill="none" stroke="#000000" points="857.5,-800 902.5,-800 "/>
<text text-anchor="middle" x="880" y="-788" font-family="Helvetica,sans-Serif" font-size="10.00" fill="#000000"> </text>
<polyline fill="none" stroke="#000000" points="857.5,-781 902.5,-781 "/>
<text text-anchor="middle" x="880" y="-769" font-family="Helvetica,sans-Serif" font-size="10.00" fill="#000000"> </text>
</a>
</g>
</g>
<!-- Node19&#45;&gt;Node3 -->
<g id="edge24" class="edge">
<title>Node19&#45;&gt;Node3</title>
<path fill="none" stroke="#404040" d="M902.5772,-775.1072C921.6723,-760.5971 947.6795,-736.9436 959,-709 1003.5566,-599.016 975.6903,-559.4871 959,-442 944.7742,-341.8608 909.8592,-230.886 883.7561,-157.047"/>
<polygon fill="none" stroke="#404040" points="883.6772,-156.8255 877.8944,-152.5174 879.6469,-145.5225 885.4297,-149.8306 883.6772,-156.8255"/>
<text text-anchor="middle" x="983" y="-405" font-family="Helvetica,sans-Serif" font-size="10.00" fill="#000000"> #reduce</text>
<text text-anchor="middle" x="983" y="-394" font-family="Helvetica,sans-Serif" font-size="10.00" fill="#000000">#reduced_tol</text>
</g>
<!-- Node19&#45;&gt;Node4 -->
<g id="edge17" class="edge">
<title>Node19&#45;&gt;Node4</title>
<path fill="none" stroke="#404040" d="M881.4265,-761.9651C885.0556,-680.2134 892.0912,-446.7346 858,-380 843.6955,-351.9984 818.4635,-328.7668 793.7939,-311.151"/>
<polygon fill="none" stroke="#404040" points="793.5515,-310.9846 786.3411,-310.8856 783.6591,-304.1918 790.8696,-304.2907 793.5515,-310.9846"/>
<text text-anchor="middle" x="919.5" y="-600.5" font-family="Helvetica,sans-Serif" font-size="10.00" fill="#000000"> #initial_val</text>
<text text-anchor="middle" x="919.5" y="-589.5" font-family="Helvetica,sans-Serif" font-size="10.00" fill="#000000">#lvalue</text>
<text text-anchor="middle" x="919.5" y="-578.5" font-family="Helvetica,sans-Serif" font-size="10.00" fill="#000000">#tol</text>
<text text-anchor="start" x="884" y="-567.5" font-family="Helvetica,sans-Serif" font-size="10.00" fill="#000000">#relative_failure</text>
<text text-anchor="middle" x="919.5" y="-556.5" font-family="Helvetica,sans-Serif" font-size="10.00" fill="#000000">_residual</text>
<text text-anchor="middle" x="919.5" y="-545.5" font-family="Helvetica,sans-Serif" font-size="10.00" fill="#000000">#failure_residual</text>
</g>
<!-- Node19&#45;&gt;Node23 -->
<g id="edge22" class="edge">
<title>Node19&#45;&gt;Node23</title>
<path fill="none" stroke="#404040" d="M857.3993,-786.8197C795.3649,-776.3415 624.1914,-744.7856 581,-709 552.3005,-685.2215 535.2856,-645.7203 525.9111,-615.8401"/>
<polygon fill="none" stroke="#404040" points="525.8455,-615.6167 520.3156,-610.9885 522.4609,-604.1039 527.9908,-608.7321 525.8455,-615.6167"/>
<text text-anchor="middle" x="663.5" y="-730" font-family="Helvetica,sans-Serif" font-size="10.00" fill="#000000"> +elements</text>
</g>
<!-- Node20 -->
<g id="node18" class="node">
<title>Node20</title>
<g id="a_node18"><a xlink:href="classbool.html" target="_top" xlink:title="{bool\n||}">
<polygon fill="#ffffff" stroke="#000000" points="589.5,-547 589.5,-604 624.5,-604 624.5,-547 589.5,-547"/>
<text text-anchor="middle" x="607" y="-592" font-family="Helvetica,sans-Serif" font-size="10.00" fill="#000000">bool</text>
<polyline fill="none" stroke="#000000" points="589.5,-585 624.5,-585 "/>
<text text-anchor="middle" x="607" y="-573" font-family="Helvetica,sans-Serif" font-size="10.00" fill="#000000"> </text>
<polyline fill="none" stroke="#000000" points="589.5,-566 624.5,-566 "/>
<text text-anchor="middle" x="607" y="-554" font-family="Helvetica,sans-Serif" font-size="10.00" fill="#000000"> </text>
</a>
</g>
</g>
<!-- Node20&#45;&gt;Node4 -->
<g id="edge18" class="edge">
<title>Node20&#45;&gt;Node4</title>
<path fill="none" stroke="#404040" d="M602.9358,-546.8439C598.6326,-507.3872 595.4486,-434.975 620,-380 628.7151,-360.4853 642.6049,-342.4518 657.465,-326.9499"/>
<polygon fill="none" stroke="#404040" points="657.8081,-326.607 659.2235,-319.5361 666.2948,-318.1231 664.8794,-325.194 657.8081,-326.607"/>
<text text-anchor="middle" x="670.5" y="-416" font-family="Helvetica,sans-Serif" font-size="10.00" fill="#000000"> #history_data_enabled</text>
<text text-anchor="middle" x="670.5" y="-405" font-family="Helvetica,sans-Serif" font-size="10.00" fill="#000000">#check_failure</text>
<text text-anchor="middle" x="670.5" y="-394" font-family="Helvetica,sans-Serif" font-size="10.00" fill="#000000">#m_log_result</text>
<text text-anchor="middle" x="670.5" y="-383" font-family="Helvetica,sans-Serif" font-size="10.00" fill="#000000">#m_log_history</text>
</g>
<!-- Node21 -->
<g id="node19" class="node">
<title>Node21</title>
<polygon fill="#ffffff" stroke="#bfbfbf" points="697,-547 697,-604 753,-604 753,-547 697,-547"/>
<text text-anchor="middle" x="725" y="-592" font-family="Helvetica,sans-Serif" font-size="10.00" fill="#000000">unsigned</text>
<polyline fill="none" stroke="#bfbfbf" points="697,-585 753,-585 "/>
<text text-anchor="middle" x="725" y="-573" font-family="Helvetica,sans-Serif" font-size="10.00" fill="#000000"> </text>
<polyline fill="none" stroke="#bfbfbf" points="697,-566 753,-566 "/>
<text text-anchor="middle" x="725" y="-554" font-family="Helvetica,sans-Serif" font-size="10.00" fill="#000000"> </text>
</g>
<!-- Node21&#45;&gt;Node4 -->
<g id="edge19" class="edge">
<title>Node21&#45;&gt;Node4</title>
<path fill="none" stroke="#404040" d="M725,-546.9945C725,-507.7145 725,-434.9043 725,-374.139"/>
<polygon fill="none" stroke="#404040" points="725.0001,-373.7664 721,-367.7664 725,-361.7664 729,-367.7663 725.0001,-373.7664"/>
<text text-anchor="middle" x="765" y="-410.5" font-family="Helvetica,sans-Serif" font-size="10.00" fill="#000000"> #lstep</text>
<text text-anchor="middle" x="765" y="-399.5" font-family="Helvetica,sans-Serif" font-size="10.00" fill="#000000">#maxsteps</text>
<text text-anchor="middle" x="765" y="-388.5" font-family="Helvetica,sans-Serif" font-size="10.00" fill="#000000">#m_log_frequency</text>
</g>
<!-- Node22 -->
<g id="node20" class="node">
<title>Node22</title>
<polygon fill="#ffffff" stroke="#bfbfbf" points="804,-547 804,-604 844,-604 844,-547 804,-547"/>
<text text-anchor="middle" x="824" y="-592" font-family="Helvetica,sans-Serif" font-size="10.00" fill="#000000">State</text>
<polyline fill="none" stroke="#bfbfbf" points="804,-585 844,-585 "/>
<text text-anchor="middle" x="824" y="-573" font-family="Helvetica,sans-Serif" font-size="10.00" fill="#000000"> </text>
<polyline fill="none" stroke="#bfbfbf" points="804,-566 844,-566 "/>
<text text-anchor="middle" x="824" y="-554" font-family="Helvetica,sans-Serif" font-size="10.00" fill="#000000"> </text>
</g>
<!-- Node22&#45;&gt;Node4 -->
<g id="edge20" class="edge">
<title>Node22&#45;&gt;Node4</title>
<path fill="none" stroke="#404040" d="M826.1445,-546.8834C828.025,-507.7826 827.6856,-436.1148 806,-380 801.9051,-369.4037 796.4445,-358.9553 790.2845,-348.9808"/>
<polygon fill="none" stroke="#404040" points="790.1857,-348.8289 783.5604,-345.9821 783.64,-338.7714 790.2654,-341.6182 790.1857,-348.8289"/>
<text text-anchor="middle" x="835.5" y="-399.5" font-family="Helvetica,sans-Serif" font-size="10.00" fill="#000000"> #lcheck</text>
</g>
<!-- Node23&#45;&gt;Node4 -->
<g id="edge21" class="edge">
<title>Node23&#45;&gt;Node4</title>
<path fill="none" stroke="#404040" d="M512.2505,-546.9421C508.4432,-506.3073 507.1979,-431.0771 541,-380 567.6312,-339.7586 614.8897,-312.6173 654.8431,-295.6733"/>
<polygon fill="none" stroke="#404040" points="655.0527,-295.5879 659.098,-289.6184 666.1643,-291.0566 662.1189,-297.0261 655.0527,-295.5879"/>
<text text-anchor="middle" x="572" y="-399.5" font-family="Helvetica,sans-Serif" font-size="10.00" fill="#000000"> #history_data</text>
</g>
</g>
</svg>
        <g id="navigator" transform="translate(0 0)" fill="#404254">
                <rect fill="#f2f5e9" fill-opacity="0.5" stroke="#606060" stroke-width=".5" x="0" y="0" width="60" height="60"/>
                <use id="zoomplus" xlink:href="#zoomPlus" x="17" y="9" onmousedown="handleZoom(evt,'in')"/>
                <use id="zoomminus" xlink:href="#zoomMin" x="42" y="9" onmousedown="handleZoom(evt,'out')"/>
                <use id="reset" xlink:href="#resetDef" x="30" y="36" onmousedown="handleReset()"/>
                <g id="arrowUp" xlink:href="#dirArrow" transform="translate(30 24)" onmousedown="handlePan(0,-1)">
                  <use xlink:href="#rim" fill="#404040">
                        <set attributeName="fill" to="#808080" begin="arrowUp.mouseover" end="arrowUp.mouseout"/>
                  </use>
                  <path fill="none" stroke="white" stroke-width="1.5" d="M0,-3.0v7 M-2.5,-0.5L0,-3.0L2.5,-0.5"/>
                </g>
                <g id="arrowRight" xlink:href="#dirArrow" transform="rotate(90) translate(36 -43)" onmousedown="handlePan(1,0)">
                  <use xlink:href="#rim" fill="#404040">
                        <set attributeName="fill" to="#808080" begin="arrowRight.mouseover" end="arrowRight.mouseout"/>
                  </use>
                  <path fill="none" stroke="white" stroke-width="1.5" d="M0,-3.0v7 M-2.5,-0.5L0,-3.0L2.5,-0.5"/>
                </g>
                <g id="arrowDown" xlink:href="#dirArrow" transform="rotate(180) translate(-30 -48)" onmousedown="handlePan(0,1)">
                  <use xlink:href="#rim" fill="#404040">
                        <set attributeName="fill" to="#808080" begin="arrowDown.mouseover" end="arrowDown.mouseout"/>
                  </use>
                  <path fill="none" stroke="white" stroke-width="1.5" d="M0,-3.0v7 M-2.5,-0.5L0,-3.0L2.5,-0.5"/>
                </g>
                <g id="arrowLeft" xlink:href="#dirArrow" transform="rotate(270) translate(-36 17)" onmousedown="handlePan(-1,0)">
                  <use xlink:href="#rim" fill="#404040">
                        <set attributeName="fill" to="#808080" begin="arrowLeft.mouseover" end="arrowLeft.mouseout"/>
                  </use>
                  <path fill="none" stroke="white" stroke-width="1.5" d="M0,-3.0v7 M-2.5,-0.5L0,-3.0L2.5,-0.5"/>
                </g>
        </g>
        <svg viewBox="0 0 15 15" width="100%" height="30px" preserveAspectRatio="xMaxYMin meet">
         <g id="arrow_out" transform="scale(0.3 0.3)">
          <a xlink:href="classReductionControl__coll__graph_org.svg" target="_base">
           <rect id="button" ry="5" rx="5" y="6" x="6" height="38" width="38"
                fill="#f2f5e9" fill-opacity="0.5" stroke="#606060" stroke-width="1.0"/>
           <path id="arrow"
             d="M 11.500037,31.436501 C 11.940474,20.09759 22.043105,11.32322 32.158766,21.979434 L 37.068811,17.246167 C 37.068811,17.246167 37.088388,32 37.088388,32 L 22.160133,31.978069 C 22.160133,31.978069 26.997745,27.140456 26.997745,27.140456 C 18.528582,18.264221 13.291696,25.230495 11.500037,31.436501 z"
             style="fill:#404040;"/>
          </a>
         </g>
        </svg>
</svg>
