<?xml version="1.0" encoding="UTF-8" standalone="no"?>
<!DOCTYPE svg PUBLIC "-//W3C//DTD SVG 1.1//EN"
 "http://www.w3.org/Graphics/SVG/1.1/DTD/svg11.dtd">
<!-- Generated by graphviz version 2.40.1 (20161225.0304)
 -->
<!-- Title: BlockMatrixIterators::AccessorBase&lt; BlockMatrixType &gt; Pages: 1 -->
<svg width="340pt" height="110pt"
 viewBox="0.00 0.00 340.00 110.00" xmlns="http://www.w3.org/2000/svg" xmlns:xlink="http://www.w3.org/1999/xlink">
<g id="graph0" class="graph" transform="scale(1 1) rotate(0) translate(4 106)">
<title>BlockMatrixIterators::AccessorBase&lt; BlockMatrixType &gt;</title>
<polygon fill="#ffffff" stroke="transparent" points="-4,4 -4,-106 336,-106 336,4 -4,4"/>
<!-- Node0 -->
<g id="node1" class="node">
<title>Node0</title>
<polygon fill="#bfbfbf" stroke="#000000" points="0,-30.5 0,-71.5 147,-71.5 147,-30.5 0,-30.5"/>
<text text-anchor="start" x="8" y="-59.5" font-family="Helvetica,sans-Serif" font-size="10.00" fill="#000000">BlockMatrixIterators</text>
<text text-anchor="start" x="8" y="-48.5" font-family="Helvetica,sans-Serif" font-size="10.00" fill="#000000">::AccessorBase&lt; BlockMatrix</text>
<text text-anchor="middle" x="73.5" y="-37.5" font-family="Helvetica,sans-Serif" font-size="10.00" fill="#000000">Type &gt;</text>
</g>
<!-- Node1 -->
<g id="node2" class="node">
<title>Node1</title>
<g id="a_node2"><a xlink:href="classBlockMatrixIterators_1_1Accessor_3_01BlockMatrixType_00_01false_01_4.html" target="_top" xlink:title="BlockMatrixIterators\l::Accessor\&lt; BlockMatrixType,\l false \&gt;">
<polygon fill="#ffffff" stroke="#000000" points="183,-60.5 183,-101.5 332,-101.5 332,-60.5 183,-60.5"/>
<text text-anchor="start" x="191" y="-89.5" font-family="Helvetica,sans-Serif" font-size="10.00" fill="#000000">BlockMatrixIterators</text>
<text text-anchor="start" x="191" y="-78.5" font-family="Helvetica,sans-Serif" font-size="10.00" fill="#000000">::Accessor&lt; BlockMatrixType,</text>
<text text-anchor="middle" x="257.5" y="-67.5" font-family="Helvetica,sans-Serif" font-size="10.00" fill="#000000"> false &gt;</text>
</a>
</g>
</g>
<!-- Node0&#45;&gt;Node1 -->
<g id="edge1" class="edge">
<title>Node0&#45;&gt;Node1</title>
<path fill="none" stroke="#191970" d="M157.0634,-64.6245C165.6778,-66.029 174.3917,-67.4497 182.8995,-68.8369"/>
<polygon fill="#191970" stroke="#191970" points="157.4479,-61.141 147.0149,-62.9861 156.3214,-68.0498 157.4479,-61.141"/>
</g>
<!-- Node2 -->
<g id="node3" class="node">
<title>Node2</title>
<g id="a_node3"><a xlink:href="classBlockMatrixIterators_1_1Accessor_3_01BlockMatrixType_00_01true_01_4.html" target="_top" xlink:title="BlockMatrixIterators\l::Accessor\&lt; BlockMatrixType,\l true \&gt;">
<polygon fill="#ffffff" stroke="#000000" points="183,-.5 183,-41.5 332,-41.5 332,-.5 183,-.5"/>
<text text-anchor="start" x="191" y="-29.5" font-family="Helvetica,sans-Serif" font-size="10.00" fill="#000000">BlockMatrixIterators</text>
<text text-anchor="start" x="191" y="-18.5" font-family="Helvetica,sans-Serif" font-size="10.00" fill="#000000">::Accessor&lt; BlockMatrixType,</text>
<text text-anchor="middle" x="257.5" y="-7.5" font-family="Helvetica,sans-Serif" font-size="10.00" fill="#000000"> true &gt;</text>
</a>
</g>
</g>
<!-- Node0&#45;&gt;Node2 -->
<g id="edge2" class="edge">
<title>Node0&#45;&gt;Node2</title>
<path fill="none" stroke="#191970" d="M157.0634,-37.3755C165.6778,-35.971 174.3917,-34.5503 182.8995,-33.1631"/>
<polygon fill="#191970" stroke="#191970" points="156.3214,-33.9502 147.0149,-39.0139 157.4479,-40.859 156.3214,-33.9502"/>
</g>
</g>
</svg>
