<?xml version="1.0" encoding="UTF-8" standalone="no"?>
<!DOCTYPE svg PUBLIC "-//W3C//DTD SVG 1.1//EN"
 "http://www.w3.org/Graphics/SVG/1.1/DTD/svg11.dtd">
<!-- Generated by graphviz version 2.40.1 (20161225.0304)
 -->
<!-- Title: Vector&lt; Number &gt; Pages: 1 -->
<svg width="504pt" height="154pt"
 viewBox="0.00 0.00 504.00 153.50" xmlns="http://www.w3.org/2000/svg" xmlns:xlink="http://www.w3.org/1999/xlink">
<g id="graph0" class="graph" transform="scale(1 1) rotate(0) translate(4 149.5)">
<title>Vector&lt; Number &gt;</title>
<polygon fill="#ffffff" stroke="transparent" points="-4,4 -4,-149.5 500,-149.5 500,4 -4,4"/>
<!-- Node0 -->
<g id="node1" class="node">
<title>Node0</title>
<polygon fill="#bfbfbf" stroke="#000000" points="103,-69 103,-88 201,-88 201,-69 103,-69"/>
<text text-anchor="middle" x="152" y="-76" font-family="Helvetica,sans-Serif" font-size="10.00" fill="#000000">Vector&lt; Number &gt;</text>
</g>
<!-- Node2 -->
<g id="node3" class="node">
<title>Node2</title>
<g id="a_node3"><a xlink:href="classVector.html" target="_top" xlink:title="Vector\&lt; RangeNumberType \&gt;">
<polygon fill="#ffffff" stroke="#000000" points="347,-126 347,-145 495,-145 495,-126 347,-126"/>
<text text-anchor="middle" x="421" y="-133" font-family="Helvetica,sans-Serif" font-size="10.00" fill="#000000">Vector&lt; RangeNumberType &gt;</text>
</a>
</g>
</g>
<!-- Node0&#45;&gt;Node2 -->
<g id="edge2" class="edge">
<title>Node0&#45;&gt;Node2</title>
<path fill="none" stroke="#ffa500" stroke-dasharray="5,2" d="M180.4448,-92.2636C192.1504,-97.4287 205.9928,-102.9111 219,-106.5 260.4957,-117.9494 308.1042,-125.0632 346.6761,-129.3778"/>
<polygon fill="#ffa500" stroke="#ffa500" points="181.7316,-89.0038 171.1799,-88.048 178.8325,-95.3753 181.7316,-89.0038"/>
<text text-anchor="middle" x="273.5" y="-129.5" font-family="Helvetica,sans-Serif" font-size="10.00" fill="#000000"> &lt; RangeNumberType &gt;</text>
</g>
<!-- Node3 -->
<g id="node4" class="node">
<title>Node3</title>
<g id="a_node4"><a xlink:href="classVector.html" target="_top" xlink:title="Vector\&lt; double \&gt;">
<polygon fill="#ffffff" stroke="#000000" points="375,-88 375,-107 467,-107 467,-88 375,-88"/>
<text text-anchor="middle" x="421" y="-95" font-family="Helvetica,sans-Serif" font-size="10.00" fill="#000000">Vector&lt; double &gt;</text>
</a>
</g>
</g>
<!-- Node0&#45;&gt;Node3 -->
<g id="edge3" class="edge">
<title>Node0&#45;&gt;Node3</title>
<path fill="none" stroke="#ffa500" stroke-dasharray="5,2" d="M211.1997,-82.6814C260.3583,-86.1536 329.3177,-91.0243 374.5599,-94.2198"/>
<polygon fill="#ffa500" stroke="#ffa500" points="211.2477,-79.1762 201.026,-81.9628 210.7545,-86.1588 211.2477,-79.1762"/>
<text text-anchor="middle" x="273.5" y="-94.5" font-family="Helvetica,sans-Serif" font-size="10.00" fill="#000000"> &lt; double &gt;</text>
</g>
<!-- Node4 -->
<g id="node5" class="node">
<title>Node4</title>
<g id="a_node5"><a xlink:href="classVector.html" target="_top" xlink:title="Vector\&lt; number \&gt;">
<polygon fill="#ffffff" stroke="#000000" points="373.5,-50 373.5,-69 468.5,-69 468.5,-50 373.5,-50"/>
<text text-anchor="middle" x="421" y="-57" font-family="Helvetica,sans-Serif" font-size="10.00" fill="#000000">Vector&lt; number &gt;</text>
</a>
</g>
</g>
<!-- Node0&#45;&gt;Node4 -->
<g id="edge4" class="edge">
<title>Node0&#45;&gt;Node4</title>
<path fill="none" stroke="#ffa500" stroke-dasharray="5,2" d="M211.3589,-70.2578C213.9388,-69.9844 216.4945,-69.7299 219,-69.5 271.6231,-64.6717 332.1873,-62.0642 373.1682,-60.7352"/>
<polygon fill="#ffa500" stroke="#ffa500" points="210.8847,-66.789 201.3428,-71.3936 211.6736,-73.7444 210.8847,-66.789"/>
<text text-anchor="middle" x="273.5" y="-72.5" font-family="Helvetica,sans-Serif" font-size="10.00" fill="#000000"> &lt; number &gt;</text>
</g>
<!-- Node5 -->
<g id="node6" class="node">
<title>Node5</title>
<g id="a_node6"><a xlink:href="classVector.html" target="_top" xlink:title="Vector\&lt; typename VectorType\l::value_type \&gt;">
<polygon fill="#ffffff" stroke="#000000" points="346,-.5 346,-30.5 496,-30.5 496,-.5 346,-.5"/>
<text text-anchor="start" x="354" y="-18.5" font-family="Helvetica,sans-Serif" font-size="10.00" fill="#000000">Vector&lt; typename VectorType</text>
<text text-anchor="middle" x="421" y="-7.5" font-family="Helvetica,sans-Serif" font-size="10.00" fill="#000000">::value_type &gt;</text>
</a>
</g>
</g>
<!-- Node0&#45;&gt;Node5 -->
<g id="edge5" class="edge">
<title>Node0&#45;&gt;Node5</title>
<path fill="none" stroke="#ffa500" stroke-dasharray="5,2" d="M172.4162,-62.715C185.1122,-53.7662 202.1753,-43.2407 219,-37.5 259.565,-23.659 307.1263,-18.0006 345.9054,-15.8754"/>
<polygon fill="#ffa500" stroke="#ffa500" points="170.0161,-60.134 164.0092,-68.8614 174.1475,-65.7848 170.0161,-60.134"/>
<text text-anchor="start" x="219" y="-51.5" font-family="Helvetica,sans-Serif" font-size="10.00" fill="#000000"> &lt; typename VectorType</text>
<text text-anchor="middle" x="273.5" y="-40.5" font-family="Helvetica,sans-Serif" font-size="10.00" fill="#000000">::value_type &gt;</text>
</g>
<!-- Node1 -->
<g id="node2" class="node">
<title>Node1</title>
<g id="a_node2"><a xlink:href="classSubscriptor.html" target="_top" xlink:title="Subscriptor">
<polygon fill="#ffffff" stroke="#000000" points="0,-69 0,-88 66,-88 66,-69 0,-69"/>
<text text-anchor="middle" x="33" y="-76" font-family="Helvetica,sans-Serif" font-size="10.00" fill="#000000">Subscriptor</text>
</a>
</g>
</g>
<!-- Node1&#45;&gt;Node0 -->
<g id="edge1" class="edge">
<title>Node1&#45;&gt;Node0</title>
<path fill="none" stroke="#191970" d="M76.2732,-78.5C84.8132,-78.5 93.8361,-78.5 102.5617,-78.5"/>
<polygon fill="#191970" stroke="#191970" points="76.1482,-75.0001 66.1481,-78.5 76.1481,-82.0001 76.1482,-75.0001"/>
</g>
</g>
</svg>
