<?xml version="1.0" encoding="UTF-8" standalone="no"?>
<!DOCTYPE svg PUBLIC "-//W3C//DTD SVG 1.1//EN"
 "http://www.w3.org/Graphics/SVG/1.1/DTD/svg11.dtd">
<!-- Generated by graphviz version 2.40.1 (20161225.0304)
 -->
<!-- Title: MatrixFreeOperators::LaplaceOperator&lt; dim, fe_degree, n_q_points_1d, n_components, VectorType, VectorizedArrayType &gt; Pages: 1 -->
<svg width="1134pt" height="1240pt"
 viewBox="0.00 0.00 1134.00 1240.00" xmlns="http://www.w3.org/2000/svg" xmlns:xlink="http://www.w3.org/1999/xlink">
<g id="graph0" class="graph" transform="scale(1 1) rotate(0) translate(4 1236)">
<title>MatrixFreeOperators::LaplaceOperator&lt; dim, fe_degree, n_q_points_1d, n_components, VectorType, VectorizedArrayType &gt;</title>
<polygon fill="#ffffff" stroke="transparent" points="-4,4 -4,-1236 1130,-1236 1130,4 -4,4"/>
<!-- Node3 -->
<g id="node1" class="node">
<title>Node3</title>
<polygon fill="#bfbfbf" stroke="#000000" points="610.5,-.5 610.5,-189.5 771.5,-189.5 771.5,-.5 610.5,-.5"/>
<text text-anchor="start" x="618.5" y="-177.5" font-family="Helvetica,sans-Serif" font-size="10.00" fill="#000000">MatrixFreeOperators</text>
<text text-anchor="start" x="618.5" y="-166.5" font-family="Helvetica,sans-Serif" font-size="10.00" fill="#000000">::LaplaceOperator&lt; dim,</text>
<text text-anchor="start" x="618.5" y="-155.5" font-family="Helvetica,sans-Serif" font-size="10.00" fill="#000000"> fe_degree, n_q_points</text>
<text text-anchor="start" x="618.5" y="-144.5" font-family="Helvetica,sans-Serif" font-size="10.00" fill="#000000">_1d, n_components, VectorType,</text>
<text text-anchor="middle" x="691" y="-133.5" font-family="Helvetica,sans-Serif" font-size="10.00" fill="#000000"> VectorizedArrayType &gt;</text>
<polyline fill="none" stroke="#000000" points="610.5,-126.5 771.5,-126.5 "/>
<text text-anchor="middle" x="691" y="-114.5" font-family="Helvetica,sans-Serif" font-size="10.00" fill="#000000"> </text>
<polyline fill="none" stroke="#000000" points="610.5,-107.5 771.5,-107.5 "/>
<text text-anchor="start" x="618.5" y="-95.5" font-family="Helvetica,sans-Serif" font-size="10.00" fill="#000000">+ LaplaceOperator()</text>
<text text-anchor="start" x="618.5" y="-84.5" font-family="Helvetica,sans-Serif" font-size="10.00" fill="#000000">+ compute_diagonal()</text>
<text text-anchor="start" x="618.5" y="-73.5" font-family="Helvetica,sans-Serif" font-size="10.00" fill="#000000">+ set_coefficient()</text>
<text text-anchor="start" x="618.5" y="-62.5" font-family="Helvetica,sans-Serif" font-size="10.00" fill="#000000">+ clear()</text>
<text text-anchor="start" x="618.5" y="-51.5" font-family="Helvetica,sans-Serif" font-size="10.00" fill="#000000">+ get_coefficient()</text>
<text text-anchor="start" x="618.5" y="-40.5" font-family="Helvetica,sans-Serif" font-size="10.00" fill="#000000">&#45; apply_add()</text>
<text text-anchor="start" x="618.5" y="-29.5" font-family="Helvetica,sans-Serif" font-size="10.00" fill="#000000">&#45; local_apply_cell()</text>
<text text-anchor="start" x="618.5" y="-18.5" font-family="Helvetica,sans-Serif" font-size="10.00" fill="#000000">&#45; local_diagonal_cell()</text>
<text text-anchor="start" x="618.5" y="-7.5" font-family="Helvetica,sans-Serif" font-size="10.00" fill="#000000">&#45; do_operation_on_cell()</text>
</g>
<!-- Node4 -->
<g id="node2" class="node">
<title>Node4</title>
<g id="a_node2"><a xlink:href="classMatrixFreeOperators_1_1Base.html" target="_top" xlink:title="{MatrixFreeOperators\l::Base\&lt; dim, VectorType,\l VectorizedArrayType \&gt;\n||+ Base()\l+ ~Base()\l+ clear()\l+ initialize()\l+ initialize()\l+ initialize()\l+ m()\l+ n()\l+ vmult_interface_down()\l+ vmult_interface_up()\land 12 more...\l# preprocess_constraints()\l# postprocess_constraints()\l# set_constrained_entries\l_to_one()\l# apply_add()\l# Tapply_add()\l&#45; mult_add()\l&#45; adjust_ghost_range\l_if_necessary()\l}">
<polygon fill="#ffffff" stroke="#000000" points="505.5,-237.5 505.5,-525.5 642.5,-525.5 642.5,-237.5 505.5,-237.5"/>
<text text-anchor="start" x="513.5" y="-513.5" font-family="Helvetica,sans-Serif" font-size="10.00" fill="#000000">MatrixFreeOperators</text>
<text text-anchor="start" x="513.5" y="-502.5" font-family="Helvetica,sans-Serif" font-size="10.00" fill="#000000">::Base&lt; dim, VectorType,</text>
<text text-anchor="middle" x="574" y="-491.5" font-family="Helvetica,sans-Serif" font-size="10.00" fill="#000000"> VectorizedArrayType &gt;</text>
<polyline fill="none" stroke="#000000" points="505.5,-484.5 642.5,-484.5 "/>
<text text-anchor="middle" x="574" y="-472.5" font-family="Helvetica,sans-Serif" font-size="10.00" fill="#000000"> </text>
<polyline fill="none" stroke="#000000" points="505.5,-465.5 642.5,-465.5 "/>
<text text-anchor="start" x="513.5" y="-453.5" font-family="Helvetica,sans-Serif" font-size="10.00" fill="#000000">+ Base()</text>
<text text-anchor="start" x="513.5" y="-442.5" font-family="Helvetica,sans-Serif" font-size="10.00" fill="#000000">+ ~Base()</text>
<text text-anchor="start" x="513.5" y="-431.5" font-family="Helvetica,sans-Serif" font-size="10.00" fill="#000000">+ clear()</text>
<text text-anchor="start" x="513.5" y="-420.5" font-family="Helvetica,sans-Serif" font-size="10.00" fill="#000000">+ initialize()</text>
<text text-anchor="start" x="513.5" y="-409.5" font-family="Helvetica,sans-Serif" font-size="10.00" fill="#000000">+ initialize()</text>
<text text-anchor="start" x="513.5" y="-398.5" font-family="Helvetica,sans-Serif" font-size="10.00" fill="#000000">+ initialize()</text>
<text text-anchor="start" x="513.5" y="-387.5" font-family="Helvetica,sans-Serif" font-size="10.00" fill="#000000">+ m()</text>
<text text-anchor="start" x="513.5" y="-376.5" font-family="Helvetica,sans-Serif" font-size="10.00" fill="#000000">+ n()</text>
<text text-anchor="start" x="513.5" y="-365.5" font-family="Helvetica,sans-Serif" font-size="10.00" fill="#000000">+ vmult_interface_down()</text>
<text text-anchor="start" x="513.5" y="-354.5" font-family="Helvetica,sans-Serif" font-size="10.00" fill="#000000">+ vmult_interface_up()</text>
<text text-anchor="start" x="513.5" y="-343.5" font-family="Helvetica,sans-Serif" font-size="10.00" fill="#000000">and 12 more...</text>
<text text-anchor="start" x="513.5" y="-332.5" font-family="Helvetica,sans-Serif" font-size="10.00" fill="#000000"># preprocess_constraints()</text>
<text text-anchor="start" x="513.5" y="-321.5" font-family="Helvetica,sans-Serif" font-size="10.00" fill="#000000"># postprocess_constraints()</text>
<text text-anchor="start" x="513.5" y="-310.5" font-family="Helvetica,sans-Serif" font-size="10.00" fill="#000000"># set_constrained_entries</text>
<text text-anchor="start" x="513.5" y="-299.5" font-family="Helvetica,sans-Serif" font-size="10.00" fill="#000000">_to_one()</text>
<text text-anchor="start" x="513.5" y="-288.5" font-family="Helvetica,sans-Serif" font-size="10.00" fill="#000000"># apply_add()</text>
<text text-anchor="start" x="513.5" y="-277.5" font-family="Helvetica,sans-Serif" font-size="10.00" fill="#000000"># Tapply_add()</text>
<text text-anchor="start" x="513.5" y="-266.5" font-family="Helvetica,sans-Serif" font-size="10.00" fill="#000000">&#45; mult_add()</text>
<text text-anchor="start" x="513.5" y="-255.5" font-family="Helvetica,sans-Serif" font-size="10.00" fill="#000000">&#45; adjust_ghost_range</text>
<text text-anchor="start" x="513.5" y="-244.5" font-family="Helvetica,sans-Serif" font-size="10.00" fill="#000000">_if_necessary()</text>
</a>
</g>
</g>
<!-- Node4&#45;&gt;Node3 -->
<g id="edge1" class="edge">
<title>Node4&#45;&gt;Node3</title>
<path fill="none" stroke="#191970" d="M636.7074,-227.9474C642.0069,-214.9702 647.2602,-202.1064 652.292,-189.7849"/>
<polygon fill="none" stroke="#191970" points="633.3833,-226.8296 632.8428,-237.4106 639.8637,-229.4761 633.3833,-226.8296"/>
</g>
<!-- Node5 -->
<g id="node3" class="node">
<title>Node5</title>
<g id="a_node3"><a xlink:href="classSubscriptor.html" target="_top" xlink:title="{Subscriptor\n||+ Subscriptor()\l+ Subscriptor()\l+ Subscriptor()\l+ ~Subscriptor()\l+ operator=()\l+ operator=()\l+ serialize()\l+ subscribe()\l+ unsubscribe()\l+ n_subscriptions()\l+ list_subscribers()\l+ list_subscribers()\l+ ExcInUse()\l+ ExcNoSubscriber()\l&#45; check_no_subscribers()\l* subscribe()\l* unsubscribe()\l* n_subscriptions()\l* list_subscribers()\l* list_subscribers()\l}">
<polygon fill="#ffffff" stroke="#000000" points="163,-584.5 163,-850.5 289,-850.5 289,-584.5 163,-584.5"/>
<text text-anchor="middle" x="226" y="-838.5" font-family="Helvetica,sans-Serif" font-size="10.00" fill="#000000">Subscriptor</text>
<polyline fill="none" stroke="#000000" points="163,-831.5 289,-831.5 "/>
<text text-anchor="middle" x="226" y="-819.5" font-family="Helvetica,sans-Serif" font-size="10.00" fill="#000000"> </text>
<polyline fill="none" stroke="#000000" points="163,-812.5 289,-812.5 "/>
<text text-anchor="start" x="171" y="-800.5" font-family="Helvetica,sans-Serif" font-size="10.00" fill="#000000">+ Subscriptor()</text>
<text text-anchor="start" x="171" y="-789.5" font-family="Helvetica,sans-Serif" font-size="10.00" fill="#000000">+ Subscriptor()</text>
<text text-anchor="start" x="171" y="-778.5" font-family="Helvetica,sans-Serif" font-size="10.00" fill="#000000">+ Subscriptor()</text>
<text text-anchor="start" x="171" y="-767.5" font-family="Helvetica,sans-Serif" font-size="10.00" fill="#000000">+ ~Subscriptor()</text>
<text text-anchor="start" x="171" y="-756.5" font-family="Helvetica,sans-Serif" font-size="10.00" fill="#000000">+ operator=()</text>
<text text-anchor="start" x="171" y="-745.5" font-family="Helvetica,sans-Serif" font-size="10.00" fill="#000000">+ operator=()</text>
<text text-anchor="start" x="171" y="-734.5" font-family="Helvetica,sans-Serif" font-size="10.00" fill="#000000">+ serialize()</text>
<text text-anchor="start" x="171" y="-723.5" font-family="Helvetica,sans-Serif" font-size="10.00" fill="#000000">+ subscribe()</text>
<text text-anchor="start" x="171" y="-712.5" font-family="Helvetica,sans-Serif" font-size="10.00" fill="#000000">+ unsubscribe()</text>
<text text-anchor="start" x="171" y="-701.5" font-family="Helvetica,sans-Serif" font-size="10.00" fill="#000000">+ n_subscriptions()</text>
<text text-anchor="start" x="171" y="-690.5" font-family="Helvetica,sans-Serif" font-size="10.00" fill="#000000">+ list_subscribers()</text>
<text text-anchor="start" x="171" y="-679.5" font-family="Helvetica,sans-Serif" font-size="10.00" fill="#000000">+ list_subscribers()</text>
<text text-anchor="start" x="171" y="-668.5" font-family="Helvetica,sans-Serif" font-size="10.00" fill="#000000">+ ExcInUse()</text>
<text text-anchor="start" x="171" y="-657.5" font-family="Helvetica,sans-Serif" font-size="10.00" fill="#000000">+ ExcNoSubscriber()</text>
<text text-anchor="start" x="171" y="-646.5" font-family="Helvetica,sans-Serif" font-size="10.00" fill="#000000">&#45; check_no_subscribers()</text>
<text text-anchor="start" x="171" y="-635.5" font-family="Helvetica,sans-Serif" font-size="10.00" fill="#000000">* subscribe()</text>
<text text-anchor="start" x="171" y="-624.5" font-family="Helvetica,sans-Serif" font-size="10.00" fill="#000000">* unsubscribe()</text>
<text text-anchor="start" x="171" y="-613.5" font-family="Helvetica,sans-Serif" font-size="10.00" fill="#000000">* n_subscriptions()</text>
<text text-anchor="start" x="171" y="-602.5" font-family="Helvetica,sans-Serif" font-size="10.00" fill="#000000">* list_subscribers()</text>
<text text-anchor="start" x="171" y="-591.5" font-family="Helvetica,sans-Serif" font-size="10.00" fill="#000000">* list_subscribers()</text>
</a>
</g>
</g>
<!-- Node5&#45;&gt;Node4 -->
<g id="edge2" class="edge">
<title>Node5&#45;&gt;Node4</title>
<path fill="none" stroke="#191970" d="M295.3691,-603.6858C300.7456,-596.8295 306.3055,-590.2047 312,-584 369.9188,-520.8911 449.1717,-462.646 505.3039,-424.9816"/>
<polygon fill="none" stroke="#191970" points="292.4365,-601.7589 289.1447,-611.8294 297.9981,-606.0097 292.4365,-601.7589"/>
</g>
<!-- Node6 -->
<g id="node4" class="node">
<title>Node6</title>
<polygon fill="#ffffff" stroke="#bfbfbf" points="144,-904 144,-972 254,-972 254,-904 144,-904"/>
<text text-anchor="start" x="152" y="-960" font-family="Helvetica,sans-Serif" font-size="10.00" fill="#000000">std::map&lt; std::string,</text>
<text text-anchor="middle" x="199" y="-949" font-family="Helvetica,sans-Serif" font-size="10.00" fill="#000000"> unsigned int &gt;</text>
<polyline fill="none" stroke="#bfbfbf" points="144,-942 254,-942 "/>
<text text-anchor="middle" x="199" y="-930" font-family="Helvetica,sans-Serif" font-size="10.00" fill="#000000"> </text>
<polyline fill="none" stroke="#bfbfbf" points="144,-923 254,-923 "/>
<text text-anchor="middle" x="199" y="-911" font-family="Helvetica,sans-Serif" font-size="10.00" fill="#000000"> </text>
</g>
<!-- Node6&#45;&gt;Node5 -->
<g id="edge3" class="edge">
<title>Node6&#45;&gt;Node5</title>
<path fill="none" stroke="#404040" d="M203.2188,-903.5469C204.6582,-891.7912 206.3706,-877.8071 208.2006,-862.8619"/>
<polygon fill="none" stroke="#404040" points="208.2319,-862.6053 204.9909,-856.1636 209.6905,-850.6942 212.9316,-857.1359 208.2319,-862.6053"/>
<text text-anchor="middle" x="238.5" y="-872" font-family="Helvetica,sans-Serif" font-size="10.00" fill="#000000"> &#45;counter_map</text>
</g>
<!-- Node7 -->
<g id="node5" class="node">
<title>Node7</title>
<g id="a_node5"><a xlink:href="classint.html" target="_top" xlink:title="{int\n||}">
<polygon fill="#ffffff" stroke="#000000" points="122.5,-1053 122.5,-1110 151.5,-1110 151.5,-1053 122.5,-1053"/>
<text text-anchor="middle" x="137" y="-1098" font-family="Helvetica,sans-Serif" font-size="10.00" fill="#000000">int</text>
<polyline fill="none" stroke="#000000" points="122.5,-1091 151.5,-1091 "/>
<text text-anchor="middle" x="137" y="-1079" font-family="Helvetica,sans-Serif" font-size="10.00" fill="#000000"> </text>
<polyline fill="none" stroke="#000000" points="122.5,-1072 151.5,-1072 "/>
<text text-anchor="middle" x="137" y="-1060" font-family="Helvetica,sans-Serif" font-size="10.00" fill="#000000"> </text>
</a>
</g>
</g>
<!-- Node7&#45;&gt;Node6 -->
<g id="edge4" class="edge">
<title>Node7&#45;&gt;Node6</title>
<path fill="none" stroke="#404040" d="M139.3654,-1052.7602C141.5767,-1035.6679 145.8329,-1013.8994 154,-996 156.1129,-991.3693 158.6617,-986.7719 161.459,-982.31"/>
<polygon fill="none" stroke="#404040" points="161.5942,-982.1114 161.6655,-974.9007 168.349,-972.1931 168.2777,-979.4039 161.5942,-982.1114"/>
<text text-anchor="middle" x="178.5" y="-1010" font-family="Helvetica,sans-Serif" font-size="10.00" fill="#000000"> +elements</text>
</g>
<!-- Node8 -->
<g id="node6" class="node">
<title>Node8</title>
<g id="a_node6"><a xlink:title="STL class. ">
<polygon fill="#ffffff" stroke="#bfbfbf" points="44,-1053 44,-1110 104,-1110 104,-1053 44,-1053"/>
<text text-anchor="middle" x="74" y="-1098" font-family="Helvetica,sans-Serif" font-size="10.00" fill="#000000">std::string</text>
<polyline fill="none" stroke="#bfbfbf" points="44,-1091 104,-1091 "/>
<text text-anchor="middle" x="74" y="-1079" font-family="Helvetica,sans-Serif" font-size="10.00" fill="#000000"> </text>
<polyline fill="none" stroke="#bfbfbf" points="44,-1072 104,-1072 "/>
<text text-anchor="middle" x="74" y="-1060" font-family="Helvetica,sans-Serif" font-size="10.00" fill="#000000"> </text>
</a>
</g>
</g>
<!-- Node8&#45;&gt;Node6 -->
<g id="edge5" class="edge">
<title>Node8&#45;&gt;Node6</title>
<path fill="none" stroke="#404040" d="M81.032,-1052.6153C86.4504,-1034.8423 95.3647,-1012.4056 109,-996 111.3907,-993.1236 121.174,-986.3229 133.4652,-978.3499"/>
<polygon fill="none" stroke="#404040" points="133.6596,-978.2255 136.557,-971.6221 143.7669,-971.7569 140.8694,-978.3603 133.6596,-978.2255"/>
<text text-anchor="middle" x="124.5" y="-1010" font-family="Helvetica,sans-Serif" font-size="10.00" fill="#000000"> +keys</text>
</g>
<!-- Node9 -->
<g id="node7" class="node">
<title>Node9</title>
<g id="a_node7"><a xlink:title="STL class. ">
<polygon fill="#ffffff" stroke="#bfbfbf" points="26.5,-1163.5 26.5,-1231.5 121.5,-1231.5 121.5,-1163.5 26.5,-1163.5"/>
<text text-anchor="start" x="34.5" y="-1219.5" font-family="Helvetica,sans-Serif" font-size="10.00" fill="#000000">std::basic_string&lt;</text>
<text text-anchor="middle" x="74" y="-1208.5" font-family="Helvetica,sans-Serif" font-size="10.00" fill="#000000"> char &gt;</text>
<polyline fill="none" stroke="#bfbfbf" points="26.5,-1201.5 121.5,-1201.5 "/>
<text text-anchor="middle" x="74" y="-1189.5" font-family="Helvetica,sans-Serif" font-size="10.00" fill="#000000"> </text>
<polyline fill="none" stroke="#bfbfbf" points="26.5,-1182.5 121.5,-1182.5 "/>
<text text-anchor="middle" x="74" y="-1170.5" font-family="Helvetica,sans-Serif" font-size="10.00" fill="#000000"> </text>
</a>
</g>
</g>
<!-- Node9&#45;&gt;Node8 -->
<g id="edge6" class="edge">
<title>Node9&#45;&gt;Node8</title>
<path fill="none" stroke="#191970" d="M74,-1153.1387C74,-1138.7904 74,-1123.2617 74,-1110.3418"/>
<polygon fill="none" stroke="#191970" points="70.5001,-1153.3235 74,-1163.3236 77.5001,-1153.3236 70.5001,-1153.3235"/>
</g>
<!-- Node10 -->
<g id="node8" class="node">
<title>Node10</title>
<g id="a_node8"><a xlink:title="STL class. ">
<polygon fill="#ffffff" stroke="#bfbfbf" points="172,-1053 172,-1110 264,-1110 264,-1053 172,-1053"/>
<text text-anchor="middle" x="218" y="-1098" font-family="Helvetica,sans-Serif" font-size="10.00" fill="#000000">std::map&lt; K, T &gt;</text>
<polyline fill="none" stroke="#bfbfbf" points="172,-1091 264,-1091 "/>
<text text-anchor="middle" x="218" y="-1079" font-family="Helvetica,sans-Serif" font-size="10.00" fill="#000000"> </text>
<polyline fill="none" stroke="#bfbfbf" points="172,-1072 264,-1072 "/>
<text text-anchor="middle" x="218" y="-1060" font-family="Helvetica,sans-Serif" font-size="10.00" fill="#000000"> </text>
</a>
</g>
</g>
<!-- Node10&#45;&gt;Node6 -->
<g id="edge7" class="edge">
<title>Node10&#45;&gt;Node6</title>
<path fill="none" stroke="#ffa500" d="M212.8743,-1042.7878C209.9586,-1020.7661 206.3395,-993.4324 203.5287,-972.2037"/>
<polygon fill="#ffa500" stroke="#ffa500" points="209.4183,-1043.3515 214.2007,-1052.8055 216.3578,-1042.4326 209.4183,-1043.3515"/>
<text text-anchor="start" x="211" y="-1015.5" font-family="Helvetica,sans-Serif" font-size="10.00" fill="#000000"> &lt; std::string, unsigned</text>
<text text-anchor="middle" x="261.5" y="-1004.5" font-family="Helvetica,sans-Serif" font-size="10.00" fill="#000000"> int &gt;</text>
</g>
<!-- Node11 -->
<g id="node9" class="node">
<title>Node11</title>
<polygon fill="#ffffff" stroke="#bfbfbf" points="203.5,-1169 203.5,-1226 232.5,-1226 232.5,-1169 203.5,-1169"/>
<text text-anchor="middle" x="218" y="-1214" font-family="Helvetica,sans-Serif" font-size="10.00" fill="#000000">K</text>
<polyline fill="none" stroke="#bfbfbf" points="203.5,-1207 232.5,-1207 "/>
<text text-anchor="middle" x="218" y="-1195" font-family="Helvetica,sans-Serif" font-size="10.00" fill="#000000"> </text>
<polyline fill="none" stroke="#bfbfbf" points="203.5,-1188 232.5,-1188 "/>
<text text-anchor="middle" x="218" y="-1176" font-family="Helvetica,sans-Serif" font-size="10.00" fill="#000000"> </text>
</g>
<!-- Node11&#45;&gt;Node10 -->
<g id="edge8" class="edge">
<title>Node11&#45;&gt;Node10</title>
<path fill="none" stroke="#404040" d="M218,-1168.8258C218,-1154.8834 218,-1137.8727 218,-1122.5815"/>
<polygon fill="none" stroke="#404040" points="218.0001,-1122.2463 214,-1116.2464 218,-1110.2463 222,-1116.2463 218.0001,-1122.2463"/>
<text text-anchor="middle" x="233.5" y="-1137" font-family="Helvetica,sans-Serif" font-size="10.00" fill="#000000"> +keys</text>
</g>
<!-- Node12 -->
<g id="node10" class="node">
<title>Node12</title>
<polygon fill="#ffffff" stroke="#bfbfbf" points="434.5,-1169 434.5,-1226 463.5,-1226 463.5,-1169 434.5,-1169"/>
<text text-anchor="middle" x="449" y="-1214" font-family="Helvetica,sans-Serif" font-size="10.00" fill="#000000">T</text>
<polyline fill="none" stroke="#bfbfbf" points="434.5,-1207 463.5,-1207 "/>
<text text-anchor="middle" x="449" y="-1195" font-family="Helvetica,sans-Serif" font-size="10.00" fill="#000000"> </text>
<polyline fill="none" stroke="#bfbfbf" points="434.5,-1188 463.5,-1188 "/>
<text text-anchor="middle" x="449" y="-1176" font-family="Helvetica,sans-Serif" font-size="10.00" fill="#000000"> </text>
</g>
<!-- Node12&#45;&gt;Node10 -->
<g id="edge9" class="edge">
<title>Node12&#45;&gt;Node10</title>
<path fill="none" stroke="#404040" d="M434.0622,-1190.9478C403.9515,-1177.6257 333.9798,-1146.0866 277,-1116 276.3442,-1115.6537 275.6853,-1115.3038 275.0237,-1114.9506"/>
<polygon fill="none" stroke="#404040" points="274.6897,-1114.7677 267.5058,-1115.3937 264.1649,-1109.0032 271.3488,-1108.3772 274.6897,-1114.7677"/>
<text text-anchor="middle" x="358.5" y="-1137" font-family="Helvetica,sans-Serif" font-size="10.00" fill="#000000"> +elements</text>
</g>
<!-- Node17 -->
<g id="node15" class="node">
<title>Node17</title>
<g id="a_node15"><a xlink:title="STL class. ">
<polygon fill="#ffffff" stroke="#bfbfbf" points="582.5,-1053 582.5,-1110 669.5,-1110 669.5,-1053 582.5,-1053"/>
<text text-anchor="middle" x="626" y="-1098" font-family="Helvetica,sans-Serif" font-size="10.00" fill="#000000">std::vector&lt; T &gt;</text>
<polyline fill="none" stroke="#bfbfbf" points="582.5,-1091 669.5,-1091 "/>
<text text-anchor="middle" x="626" y="-1079" font-family="Helvetica,sans-Serif" font-size="10.00" fill="#000000"> </text>
<polyline fill="none" stroke="#bfbfbf" points="582.5,-1072 669.5,-1072 "/>
<text text-anchor="middle" x="626" y="-1060" font-family="Helvetica,sans-Serif" font-size="10.00" fill="#000000"> </text>
</a>
</g>
</g>
<!-- Node12&#45;&gt;Node17 -->
<g id="edge15" class="edge">
<title>Node12&#45;&gt;Node17</title>
<path fill="none" stroke="#404040" d="M463.7865,-1187.8094C487.3297,-1172.3799 534.4983,-1141.4672 571.9308,-1116.9352"/>
<polygon fill="none" stroke="#404040" points="572.1661,-1116.781 574.9919,-1110.1466 582.2028,-1110.2033 579.377,-1116.8377 572.1661,-1116.781"/>
<text text-anchor="middle" x="567.5" y="-1137" font-family="Helvetica,sans-Serif" font-size="10.00" fill="#000000"> +elements</text>
</g>
<!-- Node13 -->
<g id="node11" class="node">
<title>Node13</title>
<polygon fill="#ffffff" stroke="#bfbfbf" points="412,-909.5 412,-966.5 528,-966.5 528,-909.5 412,-909.5"/>
<text text-anchor="middle" x="470" y="-954.5" font-family="Helvetica,sans-Serif" font-size="10.00" fill="#000000">atomic&lt; unsigned int &gt;</text>
<polyline fill="none" stroke="#bfbfbf" points="412,-947.5 528,-947.5 "/>
<text text-anchor="middle" x="470" y="-935.5" font-family="Helvetica,sans-Serif" font-size="10.00" fill="#000000"> </text>
<polyline fill="none" stroke="#bfbfbf" points="412,-928.5 528,-928.5 "/>
<text text-anchor="middle" x="470" y="-916.5" font-family="Helvetica,sans-Serif" font-size="10.00" fill="#000000"> </text>
</g>
<!-- Node13&#45;&gt;Node5 -->
<g id="edge10" class="edge">
<title>Node13&#45;&gt;Node5</title>
<path fill="none" stroke="#404040" d="M441.6025,-909.1841C426.3134,-895.1749 406.4302,-879.2021 386,-869 355.7179,-853.8781 339.5763,-870.6272 312,-851 307.0041,-847.4442 302.2271,-843.4985 297.6687,-839.2575"/>
<polygon fill="none" stroke="#404040" points="297.6582,-839.2471 290.5869,-837.8337 289.1719,-830.7627 296.2432,-832.1761 297.6582,-839.2471"/>
<text text-anchor="middle" x="423.5" y="-872" font-family="Helvetica,sans-Serif" font-size="10.00" fill="#000000"> &#45;counter</text>
</g>
<!-- Node14 -->
<g id="node12" class="node">
<title>Node14</title>
<polygon fill="#ffffff" stroke="#bfbfbf" points="0,-909.5 0,-966.5 44,-966.5 44,-909.5 0,-909.5"/>
<text text-anchor="middle" x="22" y="-954.5" font-family="Helvetica,sans-Serif" font-size="10.00" fill="#000000">mutex</text>
<polyline fill="none" stroke="#bfbfbf" points="0,-947.5 44,-947.5 "/>
<text text-anchor="middle" x="22" y="-935.5" font-family="Helvetica,sans-Serif" font-size="10.00" fill="#000000"> </text>
<polyline fill="none" stroke="#bfbfbf" points="0,-928.5 44,-928.5 "/>
<text text-anchor="middle" x="22" y="-916.5" font-family="Helvetica,sans-Serif" font-size="10.00" fill="#000000"> </text>
</g>
<!-- Node14&#45;&gt;Node5 -->
<g id="edge11" class="edge">
<title>Node14&#45;&gt;Node5</title>
<path fill="none" stroke="#404040" d="M43.6558,-909.2988C46.7304,-905.4492 49.9012,-901.5925 53,-898 84.8749,-861.0467 122.1201,-821.7371 153.8706,-789.2684"/>
<polygon fill="none" stroke="#404040" points="154.2666,-788.8649 155.6138,-781.7807 162.6712,-780.2996 161.324,-787.3838 154.2666,-788.8649"/>
<text text-anchor="middle" x="93" y="-872" font-family="Helvetica,sans-Serif" font-size="10.00" fill="#000000"> &#45;mutex</text>
</g>
<!-- Node15 -->
<g id="node13" class="node">
<title>Node15</title>
<polygon fill="#ffffff" stroke="#bfbfbf" points="272.5,-904 272.5,-972 393.5,-972 393.5,-904 272.5,-904"/>
<text text-anchor="start" x="280.5" y="-960" font-family="Helvetica,sans-Serif" font-size="10.00" fill="#000000">std::vector&lt; std::atomic</text>
<text text-anchor="middle" x="333" y="-949" font-family="Helvetica,sans-Serif" font-size="10.00" fill="#000000">&lt; bool &gt; *&gt;</text>
<polyline fill="none" stroke="#bfbfbf" points="272.5,-942 393.5,-942 "/>
<text text-anchor="middle" x="333" y="-930" font-family="Helvetica,sans-Serif" font-size="10.00" fill="#000000"> </text>
<polyline fill="none" stroke="#bfbfbf" points="272.5,-923 393.5,-923 "/>
<text text-anchor="middle" x="333" y="-911" font-family="Helvetica,sans-Serif" font-size="10.00" fill="#000000"> </text>
</g>
<!-- Node15&#45;&gt;Node5 -->
<g id="edge12" class="edge">
<title>Node15&#45;&gt;Node5</title>
<path fill="none" stroke="#404040" d="M316.2813,-903.5469C310.0132,-890.6301 302.4397,-875.023 294.3765,-858.4066"/>
<polygon fill="none" stroke="#404040" points="294.2547,-858.1557 288.0366,-854.504 289.0158,-847.3597 295.2339,-851.0114 294.2547,-858.1557"/>
<text text-anchor="middle" x="343.5" y="-872" font-family="Helvetica,sans-Serif" font-size="10.00" fill="#000000"> &#45;validity_pointers</text>
</g>
<!-- Node16 -->
<g id="node14" class="node">
<title>Node16</title>
<polygon fill="#ffffff" stroke="#bfbfbf" points="286.5,-1053 286.5,-1110 375.5,-1110 375.5,-1053 286.5,-1053"/>
<text text-anchor="middle" x="331" y="-1098" font-family="Helvetica,sans-Serif" font-size="10.00" fill="#000000">atomic&lt; bool &gt; *</text>
<polyline fill="none" stroke="#bfbfbf" points="286.5,-1091 375.5,-1091 "/>
<text text-anchor="middle" x="331" y="-1079" font-family="Helvetica,sans-Serif" font-size="10.00" fill="#000000"> </text>
<polyline fill="none" stroke="#bfbfbf" points="286.5,-1072 375.5,-1072 "/>
<text text-anchor="middle" x="331" y="-1060" font-family="Helvetica,sans-Serif" font-size="10.00" fill="#000000"> </text>
</g>
<!-- Node16&#45;&gt;Node15 -->
<g id="edge13" class="edge">
<title>Node16&#45;&gt;Node15</title>
<path fill="none" stroke="#404040" d="M331.3999,-1052.8055C331.6731,-1033.2064 332.041,-1006.8057 332.3552,-984.2629"/>
<polygon fill="none" stroke="#404040" points="332.356,-984.2026 328.44,-978.1474 332.5233,-972.2037 336.4392,-978.2589 332.356,-984.2026"/>
<text text-anchor="middle" x="357.5" y="-1010" font-family="Helvetica,sans-Serif" font-size="10.00" fill="#000000"> +elements</text>
</g>
<!-- Node17&#45;&gt;Node15 -->
<g id="edge14" class="edge">
<title>Node17&#45;&gt;Node15</title>
<path fill="none" stroke="#ffa500" d="M572.8611,-1062.4082C551.5743,-1053.6676 527.3277,-1042.2809 507,-1029 488.8293,-1017.1283 490.0443,-1006.4128 471,-996 443.5694,-981.0018 431.9279,-989.8558 403,-978 398.726,-976.2484 394.3907,-974.2836 390.081,-972.1899"/>
<polygon fill="#ffa500" stroke="#ffa500" points="571.8242,-1065.7632 582.4085,-1066.2352 574.4287,-1059.2657 571.8242,-1065.7632"/>
<text text-anchor="middle" x="562" y="-1010" font-family="Helvetica,sans-Serif" font-size="10.00" fill="#000000"> &lt; std::atomic&lt; bool &gt; *&gt;</text>
</g>
<!-- Node20 -->
<g id="node18" class="node">
<title>Node20</title>
<polygon fill="#ffffff" stroke="#bfbfbf" points="593.5,-683.5 593.5,-751.5 712.5,-751.5 712.5,-683.5 593.5,-683.5"/>
<text text-anchor="start" x="601.5" y="-739.5" font-family="Helvetica,sans-Serif" font-size="10.00" fill="#000000">std::vector&lt; std::vector</text>
<text text-anchor="middle" x="653" y="-728.5" font-family="Helvetica,sans-Serif" font-size="10.00" fill="#000000">&lt; unsigned int &gt; &gt;</text>
<polyline fill="none" stroke="#bfbfbf" points="593.5,-721.5 712.5,-721.5 "/>
<text text-anchor="middle" x="653" y="-709.5" font-family="Helvetica,sans-Serif" font-size="10.00" fill="#000000"> </text>
<polyline fill="none" stroke="#bfbfbf" points="593.5,-702.5 712.5,-702.5 "/>
<text text-anchor="middle" x="653" y="-690.5" font-family="Helvetica,sans-Serif" font-size="10.00" fill="#000000"> </text>
</g>
<!-- Node17&#45;&gt;Node20 -->
<g id="edge22" class="edge">
<title>Node17&#45;&gt;Node20</title>
<path fill="none" stroke="#ffa500" d="M678.0814,-1055.0613C687.3092,-1047.9115 695.6636,-1039.2494 701,-1029 748.6328,-937.5137 700.0943,-811.8665 671.1862,-751.9676"/>
<polygon fill="#ffa500" stroke="#ffa500" points="675.9171,-1052.3057 669.8011,-1060.957 679.9773,-1058.0079 675.9171,-1052.3057"/>
<text text-anchor="start" x="721" y="-941" font-family="Helvetica,sans-Serif" font-size="10.00" fill="#000000"> &lt; std::vector&lt; unsigned</text>
<text text-anchor="middle" x="774.5" y="-930" font-family="Helvetica,sans-Serif" font-size="10.00" fill="#000000"> int &gt; &gt;</text>
</g>
<!-- Node21 -->
<g id="node19" class="node">
<title>Node21</title>
<polygon fill="#ffffff" stroke="#bfbfbf" points="561.5,-904 561.5,-972 672.5,-972 672.5,-904 561.5,-904"/>
<text text-anchor="start" x="569.5" y="-960" font-family="Helvetica,sans-Serif" font-size="10.00" fill="#000000">std::vector&lt; unsigned</text>
<text text-anchor="middle" x="617" y="-949" font-family="Helvetica,sans-Serif" font-size="10.00" fill="#000000"> int &gt;</text>
<polyline fill="none" stroke="#bfbfbf" points="561.5,-942 672.5,-942 "/>
<text text-anchor="middle" x="617" y="-930" font-family="Helvetica,sans-Serif" font-size="10.00" fill="#000000"> </text>
<polyline fill="none" stroke="#bfbfbf" points="561.5,-923 672.5,-923 "/>
<text text-anchor="middle" x="617" y="-911" font-family="Helvetica,sans-Serif" font-size="10.00" fill="#000000"> </text>
</g>
<!-- Node17&#45;&gt;Node21 -->
<g id="edge21" class="edge">
<title>Node17&#45;&gt;Node21</title>
<path fill="none" stroke="#ffa500" d="M623.5721,-1042.7878C622.1909,-1020.7661 620.4766,-993.4324 619.1452,-972.2037"/>
<polygon fill="#ffa500" stroke="#ffa500" points="620.0812,-1043.0442 624.2003,-1052.8055 627.0674,-1042.606 620.0812,-1043.0442"/>
<text text-anchor="middle" x="660" y="-1010" font-family="Helvetica,sans-Serif" font-size="10.00" fill="#000000"> &lt; unsigned int &gt;</text>
</g>
<!-- Node25 -->
<g id="node23" class="node">
<title>Node25</title>
<polygon fill="#ffffff" stroke="#bfbfbf" points="866,-898.5 866,-977.5 986,-977.5 986,-898.5 866,-898.5"/>
<text text-anchor="start" x="874" y="-965.5" font-family="Helvetica,sans-Serif" font-size="10.00" fill="#000000">std::vector&lt; std::vector</text>
<text text-anchor="start" x="874" y="-954.5" font-family="Helvetica,sans-Serif" font-size="10.00" fill="#000000">&lt; std::pair&lt; value_type,</text>
<text text-anchor="middle" x="926" y="-943.5" font-family="Helvetica,sans-Serif" font-size="10.00" fill="#000000"> value_type &gt; &gt; &gt;</text>
<polyline fill="none" stroke="#bfbfbf" points="866,-936.5 986,-936.5 "/>
<text text-anchor="middle" x="926" y="-924.5" font-family="Helvetica,sans-Serif" font-size="10.00" fill="#000000"> </text>
<polyline fill="none" stroke="#bfbfbf" points="866,-917.5 986,-917.5 "/>
<text text-anchor="middle" x="926" y="-905.5" font-family="Helvetica,sans-Serif" font-size="10.00" fill="#000000"> </text>
</g>
<!-- Node17&#45;&gt;Node25 -->
<g id="edge28" class="edge">
<title>Node17&#45;&gt;Node25</title>
<path fill="none" stroke="#ffa500" d="M678.7263,-1056.2792C730.995,-1031.2774 810.9717,-993.0219 865.7274,-966.8304"/>
<polygon fill="#ffa500" stroke="#ffa500" points="677.1334,-1053.1613 669.6226,-1060.6339 680.154,-1059.4761 677.1334,-1053.1613"/>
<text text-anchor="start" x="802" y="-1021" font-family="Helvetica,sans-Serif" font-size="10.00" fill="#000000"> &lt; std::vector&lt; std</text>
<text text-anchor="start" x="802" y="-1010" font-family="Helvetica,sans-Serif" font-size="10.00" fill="#000000">::pair&lt; value_type,</text>
<text text-anchor="middle" x="843" y="-999" font-family="Helvetica,sans-Serif" font-size="10.00" fill="#000000"> value_type &gt; &gt; &gt;</text>
</g>
<!-- Node18 -->
<g id="node16" class="node">
<title>Node18</title>
<polygon fill="#ffffff" stroke="#bfbfbf" points="62.5,-909.5 62.5,-966.5 125.5,-966.5 125.5,-909.5 62.5,-909.5"/>
<text text-anchor="middle" x="94" y="-954.5" font-family="Helvetica,sans-Serif" font-size="10.00" fill="#000000">type_info *</text>
<polyline fill="none" stroke="#bfbfbf" points="62.5,-947.5 125.5,-947.5 "/>
<text text-anchor="middle" x="94" y="-935.5" font-family="Helvetica,sans-Serif" font-size="10.00" fill="#000000"> </text>
<polyline fill="none" stroke="#bfbfbf" points="62.5,-928.5 125.5,-928.5 "/>
<text text-anchor="middle" x="94" y="-916.5" font-family="Helvetica,sans-Serif" font-size="10.00" fill="#000000"> </text>
</g>
<!-- Node18&#45;&gt;Node5 -->
<g id="edge16" class="edge">
<title>Node18&#45;&gt;Node5</title>
<path fill="none" stroke="#404040" d="M111.2567,-909.1735C123.1445,-889.3155 139.7991,-861.4947 156.7407,-833.1944"/>
<polygon fill="none" stroke="#404040" points="156.8234,-833.0563 156.4732,-825.8537 162.9871,-822.7602 163.3373,-829.9628 156.8234,-833.0563"/>
<text text-anchor="middle" x="161" y="-872" font-family="Helvetica,sans-Serif" font-size="10.00" fill="#000000"> &#45;object_info</text>
</g>
<!-- Node19 -->
<g id="node17" class="node">
<title>Node19</title>
<polygon fill="#ffffff" stroke="#bfbfbf" points="321.5,-678 321.5,-757 450.5,-757 450.5,-678 321.5,-678"/>
<text text-anchor="start" x="329.5" y="-745" font-family="Helvetica,sans-Serif" font-size="10.00" fill="#000000">shared_ptr&lt; const Matrix</text>
<text text-anchor="start" x="329.5" y="-734" font-family="Helvetica,sans-Serif" font-size="10.00" fill="#000000">Free&lt; dim, value_type,</text>
<text text-anchor="middle" x="386" y="-723" font-family="Helvetica,sans-Serif" font-size="10.00" fill="#000000"> VectorizedArrayType &gt; &gt;</text>
<polyline fill="none" stroke="#bfbfbf" points="321.5,-716 450.5,-716 "/>
<text text-anchor="middle" x="386" y="-704" font-family="Helvetica,sans-Serif" font-size="10.00" fill="#000000"> </text>
<polyline fill="none" stroke="#bfbfbf" points="321.5,-697 450.5,-697 "/>
<text text-anchor="middle" x="386" y="-685" font-family="Helvetica,sans-Serif" font-size="10.00" fill="#000000"> </text>
</g>
<!-- Node19&#45;&gt;Node4 -->
<g id="edge17" class="edge">
<title>Node19&#45;&gt;Node4</title>
<path fill="none" stroke="#404040" d="M395.3685,-677.6555C404.8442,-641.4123 421.4604,-587.1521 445,-544 459.6191,-517.2007 478.6968,-490.3359 497.6788,-466.3861"/>
<polygon fill="none" stroke="#404040" points="497.7002,-466.3595 498.3446,-459.1772 505.2223,-457.0096 504.5779,-464.1919 497.7002,-466.3595"/>
<text text-anchor="middle" x="459" y="-552.5" font-family="Helvetica,sans-Serif" font-size="10.00" fill="#000000"> #data</text>
</g>
<!-- Node20&#45;&gt;Node4 -->
<g id="edge18" class="edge">
<title>Node20&#45;&gt;Node4</title>
<path fill="none" stroke="#404040" d="M629.3907,-683.2544C610.53,-653.7044 585.567,-609.0986 575,-566 572.7743,-556.9221 571.0429,-547.5166 569.7222,-537.9762"/>
<polygon fill="none" stroke="#404040" points="569.6949,-537.7481 565.0073,-532.2684 568.2626,-525.8339 572.9501,-531.3136 569.6949,-537.7481"/>
<text text-anchor="middle" x="634.5" y="-552.5" font-family="Helvetica,sans-Serif" font-size="10.00" fill="#000000"> &#45;edge_constrained_indices</text>
</g>
<!-- Node21&#45;&gt;Node4 -->
<g id="edge25" class="edge">
<title>Node21&#45;&gt;Node4</title>
<path fill="none" stroke="#404040" d="M561.2505,-912.9149C536.4971,-898.6006 509.8688,-878.0534 496,-851 446.2856,-754.024 468.4988,-632.355 501.722,-537.1757"/>
<polygon fill="none" stroke="#404040" points="501.7838,-537.0027 500.0375,-530.0062 505.8241,-525.7033 507.5704,-532.6997 501.7838,-537.0027"/>
<text text-anchor="middle" x="540" y="-720.5" font-family="Helvetica,sans-Serif" font-size="10.00" fill="#000000"> #selected_columns</text>
<text text-anchor="middle" x="540" y="-709.5" font-family="Helvetica,sans-Serif" font-size="10.00" fill="#000000">#selected_rows</text>
</g>
<!-- Node21&#45;&gt;Node20 -->
<g id="edge19" class="edge">
<title>Node21&#45;&gt;Node20</title>
<path fill="none" stroke="#404040" d="M622.625,-903.5469C628.7673,-865.925 638.636,-805.4798 645.4492,-763.7487"/>
<polygon fill="none" stroke="#404040" points="645.4808,-763.5544 642.4999,-756.9882 647.4145,-751.7112 650.3954,-758.2773 645.4808,-763.5544"/>
<text text-anchor="middle" x="652.5" y="-872" font-family="Helvetica,sans-Serif" font-size="10.00" fill="#000000"> +elements</text>
</g>
<!-- Node22 -->
<g id="node20" class="node">
<title>Node22</title>
<g id="a_node20"><a xlink:href="classunsigned_01int.html" target="_top" xlink:title="{unsigned int\n||}">
<polygon fill="#ffffff" stroke="#000000" points="393.5,-1053 393.5,-1110 462.5,-1110 462.5,-1053 393.5,-1053"/>
<text text-anchor="middle" x="428" y="-1098" font-family="Helvetica,sans-Serif" font-size="10.00" fill="#000000">unsigned int</text>
<polyline fill="none" stroke="#000000" points="393.5,-1091 462.5,-1091 "/>
<text text-anchor="middle" x="428" y="-1079" font-family="Helvetica,sans-Serif" font-size="10.00" fill="#000000"> </text>
<polyline fill="none" stroke="#000000" points="393.5,-1072 462.5,-1072 "/>
<text text-anchor="middle" x="428" y="-1060" font-family="Helvetica,sans-Serif" font-size="10.00" fill="#000000"> </text>
</a>
</g>
</g>
<!-- Node22&#45;&gt;Node21 -->
<g id="edge20" class="edge">
<title>Node22&#45;&gt;Node21</title>
<path fill="none" stroke="#404040" d="M416.6081,-1052.8885C411.3587,-1034.5458 408.843,-1011.3765 422,-996 438.8169,-976.3461 512.362,-985.8774 537,-978 541.2431,-976.6434 545.5398,-975.0885 549.8248,-973.3968"/>
<polygon fill="none" stroke="#404040" points="550.0393,-973.3064 554.0125,-967.2886 561.0955,-968.6417 557.1223,-974.6595 550.0393,-973.3064"/>
<text text-anchor="middle" x="446.5" y="-1010" font-family="Helvetica,sans-Serif" font-size="10.00" fill="#000000"> +elements</text>
</g>
<!-- Node23 -->
<g id="node21" class="node">
<title>Node23</title>
<g id="a_node21"><a xlink:href="classbool.html" target="_top" xlink:title="{bool\n||}">
<polygon fill="#ffffff" stroke="#000000" points="730.5,-689 730.5,-746 765.5,-746 765.5,-689 730.5,-689"/>
<text text-anchor="middle" x="748" y="-734" font-family="Helvetica,sans-Serif" font-size="10.00" fill="#000000">bool</text>
<polyline fill="none" stroke="#000000" points="730.5,-727 765.5,-727 "/>
<text text-anchor="middle" x="748" y="-715" font-family="Helvetica,sans-Serif" font-size="10.00" fill="#000000"> </text>
<polyline fill="none" stroke="#000000" points="730.5,-708 765.5,-708 "/>
<text text-anchor="middle" x="748" y="-696" font-family="Helvetica,sans-Serif" font-size="10.00" fill="#000000"> </text>
</a>
</g>
</g>
<!-- Node23&#45;&gt;Node4 -->
<g id="edge23" class="edge">
<title>Node23&#45;&gt;Node4</title>
<path fill="none" stroke="#404040" d="M745.897,-688.8844C743.0676,-661.1447 736.5812,-618.3404 722,-584 713.5187,-564.0255 710.8398,-557.687 694,-544 678.2402,-531.1909 666.9925,-539.6993 652,-526 651.6942,-525.7206 651.3893,-525.4396 651.0854,-525.1573"/>
<polygon fill="none" stroke="#404040" points="651.0108,-525.0824 643.9421,-523.6564 642.5398,-516.5829 649.6085,-518.009 651.0108,-525.0824"/>
<text text-anchor="middle" x="769.5" y="-552.5" font-family="Helvetica,sans-Serif" font-size="10.00" fill="#000000"> &#45;have_interface_matrices</text>
</g>
<!-- Node24 -->
<g id="node22" class="node">
<title>Node24</title>
<polygon fill="#ffffff" stroke="#bfbfbf" points="783.5,-683.5 783.5,-751.5 920.5,-751.5 920.5,-683.5 783.5,-683.5"/>
<text text-anchor="start" x="791.5" y="-739.5" font-family="Helvetica,sans-Serif" font-size="10.00" fill="#000000">shared_ptr&lt; DiagonalMatrix</text>
<text text-anchor="middle" x="852" y="-728.5" font-family="Helvetica,sans-Serif" font-size="10.00" fill="#000000">&lt; VectorType &gt; &gt;</text>
<polyline fill="none" stroke="#bfbfbf" points="783.5,-721.5 920.5,-721.5 "/>
<text text-anchor="middle" x="852" y="-709.5" font-family="Helvetica,sans-Serif" font-size="10.00" fill="#000000"> </text>
<polyline fill="none" stroke="#bfbfbf" points="783.5,-702.5 920.5,-702.5 "/>
<text text-anchor="middle" x="852" y="-690.5" font-family="Helvetica,sans-Serif" font-size="10.00" fill="#000000"> </text>
</g>
<!-- Node24&#45;&gt;Node4 -->
<g id="edge24" class="edge">
<title>Node24&#45;&gt;Node4</title>
<path fill="none" stroke="#404040" d="M858.8344,-683.4165C864.5599,-643.9595 866.7407,-579.821 830,-544 803.7017,-518.36 702.3048,-543.5618 653.6432,-524.7039"/>
<polygon fill="none" stroke="#404040" points="653.4187,-524.5881 646.2526,-525.3928 642.7536,-519.0874 649.9197,-518.2828 653.4187,-524.5881"/>
<text text-anchor="middle" x="902" y="-558" font-family="Helvetica,sans-Serif" font-size="10.00" fill="#000000"> #inverse_diagonal_entries</text>
<text text-anchor="middle" x="902" y="-547" font-family="Helvetica,sans-Serif" font-size="10.00" fill="#000000">#diagonal_entries</text>
</g>
<!-- Node25&#45;&gt;Node4 -->
<g id="edge26" class="edge">
<title>Node25&#45;&gt;Node4</title>
<path fill="none" stroke="#404040" d="M946.9642,-898.4515C985.6087,-819.4995 1056.1041,-641.5709 964,-544 941.8398,-520.5245 716.537,-541.2541 653.895,-523.9011"/>
<polygon fill="none" stroke="#404040" points="653.7317,-523.8341 646.6619,-525.2544 642.6316,-519.2747 649.7014,-517.8543 653.7317,-523.8341"/>
<text text-anchor="middle" x="1067.5" y="-715" font-family="Helvetica,sans-Serif" font-size="10.00" fill="#000000"> &#45;edge_constrained_values</text>
</g>
<!-- Node26 -->
<g id="node24" class="node">
<title>Node26</title>
<polygon fill="#ffffff" stroke="#bfbfbf" points="857,-1047.5 857,-1115.5 995,-1115.5 995,-1047.5 857,-1047.5"/>
<text text-anchor="start" x="865" y="-1103.5" font-family="Helvetica,sans-Serif" font-size="10.00" fill="#000000">vector&lt; std::pair&lt;</text>
<text text-anchor="middle" x="926" y="-1092.5" font-family="Helvetica,sans-Serif" font-size="10.00" fill="#000000"> value_type, value_type &gt; &gt;</text>
<polyline fill="none" stroke="#bfbfbf" points="857,-1085.5 995,-1085.5 "/>
<text text-anchor="middle" x="926" y="-1073.5" font-family="Helvetica,sans-Serif" font-size="10.00" fill="#000000"> </text>
<polyline fill="none" stroke="#bfbfbf" points="857,-1066.5 995,-1066.5 "/>
<text text-anchor="middle" x="926" y="-1054.5" font-family="Helvetica,sans-Serif" font-size="10.00" fill="#000000"> </text>
</g>
<!-- Node26&#45;&gt;Node25 -->
<g id="edge27" class="edge">
<title>Node26&#45;&gt;Node25</title>
<path fill="none" stroke="#404040" d="M926,-1047.4925C926,-1030.2915 926,-1009.0448 926,-989.8586"/>
<polygon fill="none" stroke="#404040" points="926.0001,-989.6112 922,-983.6112 926,-977.6112 930,-983.6112 926.0001,-989.6112"/>
<text text-anchor="middle" x="950.5" y="-1010" font-family="Helvetica,sans-Serif" font-size="10.00" fill="#000000"> +elements</text>
</g>
<!-- Node27 -->
<g id="node25" class="node">
<title>Node27</title>
<polygon fill="#ffffff" stroke="#bfbfbf" points="661,-347.5 661,-415.5 801,-415.5 801,-347.5 661,-347.5"/>
<text text-anchor="start" x="669" y="-403.5" font-family="Helvetica,sans-Serif" font-size="10.00" fill="#000000">shared_ptr&lt; Table&lt;</text>
<text text-anchor="middle" x="731" y="-392.5" font-family="Helvetica,sans-Serif" font-size="10.00" fill="#000000"> 2, VectorizedArrayType &gt; &gt;</text>
<polyline fill="none" stroke="#bfbfbf" points="661,-385.5 801,-385.5 "/>
<text text-anchor="middle" x="731" y="-373.5" font-family="Helvetica,sans-Serif" font-size="10.00" fill="#000000"> </text>
<polyline fill="none" stroke="#bfbfbf" points="661,-366.5 801,-366.5 "/>
<text text-anchor="middle" x="731" y="-354.5" font-family="Helvetica,sans-Serif" font-size="10.00" fill="#000000"> </text>
</g>
<!-- Node27&#45;&gt;Node3 -->
<g id="edge29" class="edge">
<title>Node27&#45;&gt;Node3</title>
<path fill="none" stroke="#404040" d="M726.2148,-347.226C721.2032,-311.3305 713.0768,-253.125 705.8927,-201.6686"/>
<polygon fill="none" stroke="#404040" points="705.8923,-201.6654 701.101,-196.2762 704.2329,-189.7807 709.0242,-195.1699 705.8923,-201.6654"/>
<text text-anchor="middle" x="748.5" y="-211" font-family="Helvetica,sans-Serif" font-size="10.00" fill="#000000"> &#45;scalar_coefficient</text>
</g>
</g>
</svg>
