<?xml version="1.0" encoding="UTF-8" standalone="no"?>
<!DOCTYPE svg PUBLIC "-//W3C//DTD SVG 1.1//EN"
 "http://www.w3.org/Graphics/SVG/1.1/DTD/svg11.dtd">
<!-- Generated by graphviz version 2.40.1 (20161225.0304)
 -->
<!-- Title: DataOutFaces&lt; dim, spacedim &gt; Pages: 1 -->
<svg width="990pt" height="75pt"
 viewBox="0.00 0.00 990.00 75.00" xmlns="http://www.w3.org/2000/svg" xmlns:xlink="http://www.w3.org/1999/xlink">
<g id="graph0" class="graph" transform="scale(1 1) rotate(0) translate(4 71)">
<title>DataOutFaces&lt; dim, spacedim &gt;</title>
<polygon fill="#ffffff" stroke="transparent" points="-4,4 -4,-71 986,-71 986,4 -4,4"/>
<!-- Node0 -->
<g id="node1" class="node">
<title>Node0</title>
<polygon fill="#bfbfbf" stroke="#000000" points="874,-30 874,-60 982,-60 982,-30 874,-30"/>
<text text-anchor="start" x="882" y="-48" font-family="Helvetica,sans-Serif" font-size="10.00" fill="#000000">DataOutFaces&lt; dim,</text>
<text text-anchor="middle" x="928" y="-37" font-family="Helvetica,sans-Serif" font-size="10.00" fill="#000000"> spacedim &gt;</text>
</g>
<!-- Node1 -->
<g id="node2" class="node">
<title>Node1</title>
<g id="a_node2"><a xlink:href="classDataOut__DoFData.html" target="_top" xlink:title="DataOut_DoFData\&lt; dim,\l dim &#45; 1, spacedim, spacedim \&gt;">
<polygon fill="#ffffff" stroke="#000000" points="682,-30 682,-60 837,-60 837,-30 682,-30"/>
<text text-anchor="start" x="690" y="-48" font-family="Helvetica,sans-Serif" font-size="10.00" fill="#000000">DataOut_DoFData&lt; dim,</text>
<text text-anchor="middle" x="759.5" y="-37" font-family="Helvetica,sans-Serif" font-size="10.00" fill="#000000"> dim &#45; 1, spacedim, spacedim &gt;</text>
</a>
</g>
</g>
<!-- Node1&#45;&gt;Node0 -->
<g id="edge1" class="edge">
<title>Node1&#45;&gt;Node0</title>
<path fill="none" stroke="#191970" d="M847.402,-45C856.3141,-45 865.1716,-45 873.5746,-45"/>
<polygon fill="#191970" stroke="#191970" points="847.3381,-41.5001 837.338,-45 847.338,-48.5001 847.3381,-41.5001"/>
</g>
<!-- Node2 -->
<g id="node3" class="node">
<title>Node2</title>
<g id="a_node3"><a xlink:href="classDataOutInterface.html" target="_top" xlink:title="DataOutInterface\&lt; patch\l_dim, patch_spacedim \&gt;">
<polygon fill="#ffffff" stroke="#000000" points="243,-30 243,-60 368,-60 368,-30 243,-30"/>
<text text-anchor="start" x="251" y="-48" font-family="Helvetica,sans-Serif" font-size="10.00" fill="#000000">DataOutInterface&lt; patch</text>
<text text-anchor="middle" x="305.5" y="-37" font-family="Helvetica,sans-Serif" font-size="10.00" fill="#000000">_dim, patch_spacedim &gt;</text>
</a>
</g>
</g>
<!-- Node2&#45;&gt;Node1 -->
<g id="edge2" class="edge">
<title>Node2&#45;&gt;Node1</title>
<path fill="none" stroke="#191970" d="M378.4224,-50.9912C450.8956,-56.0611 565.1965,-61.6715 664,-56 669.8317,-55.6652 675.8539,-55.2164 681.9055,-54.691"/>
<polygon fill="#191970" stroke="#191970" points="378.2642,-47.471 368.0399,-50.2485 377.7647,-54.4532 378.2642,-47.471"/>
</g>
<!-- Node4 -->
<g id="node5" class="node">
<title>Node4</title>
<g id="a_node5"><a xlink:href="classDataOut__DoFData.html" target="_top" xlink:title="DataOut_DoFData\&lt; dim,\l patch_dim, spacedim,\l patch_spacedim \&gt;">
<polygon fill="#ffffff" stroke="#000000" points="405,-.5 405,-41.5 531,-41.5 531,-.5 405,-.5"/>
<text text-anchor="start" x="413" y="-29.5" font-family="Helvetica,sans-Serif" font-size="10.00" fill="#000000">DataOut_DoFData&lt; dim,</text>
<text text-anchor="start" x="413" y="-18.5" font-family="Helvetica,sans-Serif" font-size="10.00" fill="#000000"> patch_dim, spacedim,</text>
<text text-anchor="middle" x="468" y="-7.5" font-family="Helvetica,sans-Serif" font-size="10.00" fill="#000000"> patch_spacedim &gt;</text>
</a>
</g>
</g>
<!-- Node2&#45;&gt;Node4 -->
<g id="edge5" class="edge">
<title>Node2&#45;&gt;Node4</title>
<path fill="none" stroke="#191970" d="M378.2475,-34.2558C387.106,-32.9474 396.1007,-31.619 404.8043,-30.3335"/>
<polygon fill="#191970" stroke="#191970" points="377.708,-30.7974 368.3267,-35.721 378.7308,-37.7223 377.708,-30.7974"/>
</g>
<!-- Node3 -->
<g id="node4" class="node">
<title>Node3</title>
<g id="a_node4"><a xlink:href="classDataOutInterface.html" target="_top" xlink:title="DataOutInterface\&lt; dim,\l spacedim \&gt;">
<polygon fill="#ffffff" stroke="#000000" points="0,-30 0,-60 119,-60 119,-30 0,-30"/>
<text text-anchor="start" x="8" y="-48" font-family="Helvetica,sans-Serif" font-size="10.00" fill="#000000">DataOutInterface&lt; dim,</text>
<text text-anchor="middle" x="59.5" y="-37" font-family="Helvetica,sans-Serif" font-size="10.00" fill="#000000"> spacedim &gt;</text>
</a>
</g>
</g>
<!-- Node3&#45;&gt;Node2 -->
<g id="edge3" class="edge">
<title>Node3&#45;&gt;Node2</title>
<path fill="none" stroke="#ffa500" stroke-dasharray="5,2" d="M129.3753,-45C165.0215,-45 208.0364,-45 242.6329,-45"/>
<polygon fill="#ffa500" stroke="#ffa500" points="129.0498,-41.5001 119.0497,-45 129.0497,-48.5001 129.0498,-41.5001"/>
<text text-anchor="start" x="137" y="-59" font-family="Helvetica,sans-Serif" font-size="10.00" fill="#000000"> &lt; patch_dim, patch</text>
<text text-anchor="middle" x="181" y="-48" font-family="Helvetica,sans-Serif" font-size="10.00" fill="#000000">_spacedim &gt;</text>
</g>
<!-- Node4&#45;&gt;Node1 -->
<g id="edge4" class="edge">
<title>Node4&#45;&gt;Node1</title>
<path fill="none" stroke="#ffa500" stroke-dasharray="5,2" d="M541.3299,-25.0188C578.1739,-27.2527 623.487,-30.3254 664,-34 669.8174,-34.5276 675.8293,-35.1166 681.8736,-35.7403"/>
<polygon fill="#ffa500" stroke="#ffa500" points="541.3649,-21.5147 531.1737,-24.4112 540.9468,-28.5022 541.3649,-21.5147"/>
<text text-anchor="start" x="549" y="-48" font-family="Helvetica,sans-Serif" font-size="10.00" fill="#000000"> &lt; dim, dim &#45; 1, spacedim,</text>
<text text-anchor="middle" x="606.5" y="-37" font-family="Helvetica,sans-Serif" font-size="10.00" fill="#000000"> spacedim &gt;</text>
</g>
</g>
</svg>
