<?xml version="1.0" encoding="UTF-8" standalone="no"?>
<!DOCTYPE svg PUBLIC "-//W3C//DTD SVG 1.1//EN"
 "http://www.w3.org/Graphics/SVG/1.1/DTD/svg11.dtd">
<!-- Generated by graphviz version 2.40.1 (20161225.0304)
 -->
<!-- Title: Polynomials::Lobatto Pages: 1 -->
<!--zoomable 1324 -->
<svg id="main" version="1.1" xmlns="http://www.w3.org/2000/svg" xmlns:xlink="http://www.w3.org/1999/xlink" xml:space="preserve" onload="init(evt)">
<style type="text/css"><![CDATA[
.edge:hover path { stroke: red; }
.edge:hover polygon { stroke: red; fill: red; }
]]></style>
<script type="text/javascript"><![CDATA[
var edges = document.getElementsByTagName('g');
if (edges && edges.length) {
  for (var i=0;i<edges.length;i++) {
    if (edges[i].id.substr(0,4)=='edge') {
      edges[i].setAttribute('class','edge');
    }
  }
}
]]></script>
        <defs>
                <circle id="rim" cx="0" cy="0" r="7"/>
                <circle id="rim2" cx="0" cy="0" r="3.5"/>
                <g id="zoomPlus">
                        <use xlink:href="#rim" fill="#404040">
                                <set attributeName="fill" to="#808080" begin="zoomplus.mouseover" end="zoomplus.mouseout"/>
                        </use>
                        <path d="M-4,0h8M0,-4v8" fill="none" stroke="white" stroke-width="1.5" pointer-events="none"/>
                </g>
                <g id="zoomMin">
                        <use xlink:href="#rim" fill="#404040">
                                <set attributeName="fill" to="#808080" begin="zoomminus.mouseover" end="zoomminus.mouseout"/>
                        </use>
                        <path d="M-4,0h8" fill="none" stroke="white" stroke-width="1.5" pointer-events="none"/>
                </g>
                <g id="dirArrow">
                        <path fill="none" stroke="white" stroke-width="1.5" d="M0,-3.0v7 M-2.5,-0.5L0,-3.0L2.5,-0.5"/>
                </g>
               <g id="resetDef">
                       <use xlink:href="#rim2" fill="#404040">
                               <set attributeName="fill" to="#808080" begin="reset.mouseover" end="reset.mouseout"/>
                       </use>
               </g>
        </defs>

<script type="text/javascript">
var viewWidth = 985;
var viewHeight = 1324;
var sectionId = 'dynsection-1';
</script>
<script xlink:href="svgpan.js"/>
<svg id="graph" class="graph">
<g id="viewport">
<title>Polynomials::Lobatto</title>
<polygon fill="#ffffff" stroke="transparent" points="-4,4 -4,-1320 980.7452,-1320 980.7452,4 -4,4"/>
<!-- Node4 -->
<g id="node1" class="node">
<title>Node4</title>
<polygon fill="#bfbfbf" stroke="#000000" points="192.2452,-.5 192.2452,-79.5 335.2452,-79.5 335.2452,-.5 192.2452,-.5"/>
<text text-anchor="middle" x="263.7452" y="-67.5" font-family="Helvetica,sans-Serif" font-size="10.00" fill="#000000">Polynomials::Lobatto</text>
<polyline fill="none" stroke="#000000" points="192.2452,-60.5 335.2452,-60.5 "/>
<text text-anchor="middle" x="263.7452" y="-48.5" font-family="Helvetica,sans-Serif" font-size="10.00" fill="#000000"> </text>
<polyline fill="none" stroke="#000000" points="192.2452,-41.5 335.2452,-41.5 "/>
<text text-anchor="start" x="200.2452" y="-29.5" font-family="Helvetica,sans-Serif" font-size="10.00" fill="#000000">+ Lobatto()</text>
<text text-anchor="start" x="200.2452" y="-18.5" font-family="Helvetica,sans-Serif" font-size="10.00" fill="#000000">+ generate_complete_basis()</text>
<text text-anchor="start" x="200.2452" y="-7.5" font-family="Helvetica,sans-Serif" font-size="10.00" fill="#000000">&#45; compute_coefficients()</text>
</g>
<!-- Node5 -->
<g id="node2" class="node">
<title>Node5</title>
<g id="a_node2"><a xlink:href="classPolynomials_1_1Polynomial.html" target="_top" xlink:title="{Polynomials::Polynomial\l\&lt; double \&gt;\n||+ Polynomial()\l+ Polynomial()\l+ Polynomial()\l+ Polynomial()\l+ value()\l+ value()\l+ value()\l+ degree()\l+ scale()\l+ shift()\land 10 more...\l# transform_into_standard_form()\l# scale()\l# shift()\l# multiply()\l}">
<polygon fill="#ffffff" stroke="#000000" points="183.2452,-117.5 183.2452,-339.5 344.2452,-339.5 344.2452,-117.5 183.2452,-117.5"/>
<text text-anchor="start" x="191.2452" y="-327.5" font-family="Helvetica,sans-Serif" font-size="10.00" fill="#000000">Polynomials::Polynomial</text>
<text text-anchor="middle" x="263.7452" y="-316.5" font-family="Helvetica,sans-Serif" font-size="10.00" fill="#000000">&lt; double &gt;</text>
<polyline fill="none" stroke="#000000" points="183.2452,-309.5 344.2452,-309.5 "/>
<text text-anchor="middle" x="263.7452" y="-297.5" font-family="Helvetica,sans-Serif" font-size="10.00" fill="#000000"> </text>
<polyline fill="none" stroke="#000000" points="183.2452,-290.5 344.2452,-290.5 "/>
<text text-anchor="start" x="191.2452" y="-278.5" font-family="Helvetica,sans-Serif" font-size="10.00" fill="#000000">+ Polynomial()</text>
<text text-anchor="start" x="191.2452" y="-267.5" font-family="Helvetica,sans-Serif" font-size="10.00" fill="#000000">+ Polynomial()</text>
<text text-anchor="start" x="191.2452" y="-256.5" font-family="Helvetica,sans-Serif" font-size="10.00" fill="#000000">+ Polynomial()</text>
<text text-anchor="start" x="191.2452" y="-245.5" font-family="Helvetica,sans-Serif" font-size="10.00" fill="#000000">+ Polynomial()</text>
<text text-anchor="start" x="191.2452" y="-234.5" font-family="Helvetica,sans-Serif" font-size="10.00" fill="#000000">+ value()</text>
<text text-anchor="start" x="191.2452" y="-223.5" font-family="Helvetica,sans-Serif" font-size="10.00" fill="#000000">+ value()</text>
<text text-anchor="start" x="191.2452" y="-212.5" font-family="Helvetica,sans-Serif" font-size="10.00" fill="#000000">+ value()</text>
<text text-anchor="start" x="191.2452" y="-201.5" font-family="Helvetica,sans-Serif" font-size="10.00" fill="#000000">+ degree()</text>
<text text-anchor="start" x="191.2452" y="-190.5" font-family="Helvetica,sans-Serif" font-size="10.00" fill="#000000">+ scale()</text>
<text text-anchor="start" x="191.2452" y="-179.5" font-family="Helvetica,sans-Serif" font-size="10.00" fill="#000000">+ shift()</text>
<text text-anchor="start" x="191.2452" y="-168.5" font-family="Helvetica,sans-Serif" font-size="10.00" fill="#000000">and 10 more...</text>
<text text-anchor="start" x="191.2452" y="-157.5" font-family="Helvetica,sans-Serif" font-size="10.00" fill="#000000"># transform_into_standard_form()</text>
<text text-anchor="start" x="191.2452" y="-146.5" font-family="Helvetica,sans-Serif" font-size="10.00" fill="#000000"># scale()</text>
<text text-anchor="start" x="191.2452" y="-135.5" font-family="Helvetica,sans-Serif" font-size="10.00" fill="#000000"># shift()</text>
<text text-anchor="start" x="191.2452" y="-124.5" font-family="Helvetica,sans-Serif" font-size="10.00" fill="#000000"># multiply()</text>
</a>
</g>
</g>
<!-- Node5&#45;&gt;Node4 -->
<g id="edge1" class="edge">
<title>Node5&#45;&gt;Node4</title>
<path fill="none" stroke="#191970" d="M263.7452,-107.214C263.7452,-97.4841 263.7452,-88.1741 263.7452,-79.7493"/>
<polygon fill="none" stroke="#191970" points="260.2453,-107.4862 263.7452,-117.4862 267.2453,-107.4862 260.2453,-107.4862"/>
</g>
<!-- Node6 -->
<g id="node3" class="node">
<title>Node6</title>
<g id="a_node3"><a xlink:href="classSubscriptor.html" target="_top" xlink:title="{Subscriptor\n||+ Subscriptor()\l+ Subscriptor()\l+ Subscriptor()\l+ ~Subscriptor()\l+ operator=()\l+ operator=()\l+ serialize()\l+ subscribe()\l+ unsubscribe()\l+ n_subscriptions()\l+ list_subscribers()\l+ list_subscribers()\l+ ExcInUse()\l+ ExcNoSubscriber()\l&#45; check_no_subscribers()\l* subscribe()\l* unsubscribe()\l* n_subscriptions()\l* list_subscribers()\l* list_subscribers()\l}">
<polygon fill="#ffffff" stroke="#000000" points="562.7452,-701.5 562.7452,-967.5 688.7452,-967.5 688.7452,-701.5 562.7452,-701.5"/>
<text text-anchor="middle" x="625.7452" y="-955.5" font-family="Helvetica,sans-Serif" font-size="10.00" fill="#000000">Subscriptor</text>
<polyline fill="none" stroke="#000000" points="562.7452,-948.5 688.7452,-948.5 "/>
<text text-anchor="middle" x="625.7452" y="-936.5" font-family="Helvetica,sans-Serif" font-size="10.00" fill="#000000"> </text>
<polyline fill="none" stroke="#000000" points="562.7452,-929.5 688.7452,-929.5 "/>
<text text-anchor="start" x="570.7452" y="-917.5" font-family="Helvetica,sans-Serif" font-size="10.00" fill="#000000">+ Subscriptor()</text>
<text text-anchor="start" x="570.7452" y="-906.5" font-family="Helvetica,sans-Serif" font-size="10.00" fill="#000000">+ Subscriptor()</text>
<text text-anchor="start" x="570.7452" y="-895.5" font-family="Helvetica,sans-Serif" font-size="10.00" fill="#000000">+ Subscriptor()</text>
<text text-anchor="start" x="570.7452" y="-884.5" font-family="Helvetica,sans-Serif" font-size="10.00" fill="#000000">+ ~Subscriptor()</text>
<text text-anchor="start" x="570.7452" y="-873.5" font-family="Helvetica,sans-Serif" font-size="10.00" fill="#000000">+ operator=()</text>
<text text-anchor="start" x="570.7452" y="-862.5" font-family="Helvetica,sans-Serif" font-size="10.00" fill="#000000">+ operator=()</text>
<text text-anchor="start" x="570.7452" y="-851.5" font-family="Helvetica,sans-Serif" font-size="10.00" fill="#000000">+ serialize()</text>
<text text-anchor="start" x="570.7452" y="-840.5" font-family="Helvetica,sans-Serif" font-size="10.00" fill="#000000">+ subscribe()</text>
<text text-anchor="start" x="570.7452" y="-829.5" font-family="Helvetica,sans-Serif" font-size="10.00" fill="#000000">+ unsubscribe()</text>
<text text-anchor="start" x="570.7452" y="-818.5" font-family="Helvetica,sans-Serif" font-size="10.00" fill="#000000">+ n_subscriptions()</text>
<text text-anchor="start" x="570.7452" y="-807.5" font-family="Helvetica,sans-Serif" font-size="10.00" fill="#000000">+ list_subscribers()</text>
<text text-anchor="start" x="570.7452" y="-796.5" font-family="Helvetica,sans-Serif" font-size="10.00" fill="#000000">+ list_subscribers()</text>
<text text-anchor="start" x="570.7452" y="-785.5" font-family="Helvetica,sans-Serif" font-size="10.00" fill="#000000">+ ExcInUse()</text>
<text text-anchor="start" x="570.7452" y="-774.5" font-family="Helvetica,sans-Serif" font-size="10.00" fill="#000000">+ ExcNoSubscriber()</text>
<text text-anchor="start" x="570.7452" y="-763.5" font-family="Helvetica,sans-Serif" font-size="10.00" fill="#000000">&#45; check_no_subscribers()</text>
<text text-anchor="start" x="570.7452" y="-752.5" font-family="Helvetica,sans-Serif" font-size="10.00" fill="#000000">* subscribe()</text>
<text text-anchor="start" x="570.7452" y="-741.5" font-family="Helvetica,sans-Serif" font-size="10.00" fill="#000000">* unsubscribe()</text>
<text text-anchor="start" x="570.7452" y="-730.5" font-family="Helvetica,sans-Serif" font-size="10.00" fill="#000000">* n_subscriptions()</text>
<text text-anchor="start" x="570.7452" y="-719.5" font-family="Helvetica,sans-Serif" font-size="10.00" fill="#000000">* list_subscribers()</text>
<text text-anchor="start" x="570.7452" y="-708.5" font-family="Helvetica,sans-Serif" font-size="10.00" fill="#000000">* list_subscribers()</text>
</a>
</g>
</g>
<!-- Node6&#45;&gt;Node5 -->
<g id="edge2" class="edge">
<title>Node6&#45;&gt;Node5</title>
<path fill="none" stroke="#191970" d="M638.5496,-691.2097C639.4079,-603.0686 627.2043,-491.5773 572.7452,-409 519.4719,-328.2209 416.6455,-278.9217 344.281,-252.6981"/>
<polygon fill="none" stroke="#191970" points="635.0488,-691.2405 638.3938,-701.2934 642.048,-691.3487 635.0488,-691.2405"/>
</g>
<!-- Node23 -->
<g id="node20" class="node">
<title>Node23</title>
<g id="a_node20"><a xlink:href="classPolynomials_1_1Polynomial.html" target="_top" xlink:title="{Polynomials::Polynomial\l\&lt; number \&gt;\n||+ Polynomial()\l+ Polynomial()\l+ Polynomial()\l+ Polynomial()\l+ value()\l+ value()\l+ value()\l+ degree()\l+ scale()\l+ shift()\land 10 more...\l# transform_into_standard_form()\l# scale()\l# shift()\l# multiply()\l}">
<polygon fill="#ffffff" stroke="#000000" points="403.2452,-409.5 403.2452,-631.5 564.2452,-631.5 564.2452,-409.5 403.2452,-409.5"/>
<text text-anchor="start" x="411.2452" y="-619.5" font-family="Helvetica,sans-Serif" font-size="10.00" fill="#000000">Polynomials::Polynomial</text>
<text text-anchor="middle" x="483.7452" y="-608.5" font-family="Helvetica,sans-Serif" font-size="10.00" fill="#000000">&lt; number &gt;</text>
<polyline fill="none" stroke="#000000" points="403.2452,-601.5 564.2452,-601.5 "/>
<text text-anchor="middle" x="483.7452" y="-589.5" font-family="Helvetica,sans-Serif" font-size="10.00" fill="#000000"> </text>
<polyline fill="none" stroke="#000000" points="403.2452,-582.5 564.2452,-582.5 "/>
<text text-anchor="start" x="411.2452" y="-570.5" font-family="Helvetica,sans-Serif" font-size="10.00" fill="#000000">+ Polynomial()</text>
<text text-anchor="start" x="411.2452" y="-559.5" font-family="Helvetica,sans-Serif" font-size="10.00" fill="#000000">+ Polynomial()</text>
<text text-anchor="start" x="411.2452" y="-548.5" font-family="Helvetica,sans-Serif" font-size="10.00" fill="#000000">+ Polynomial()</text>
<text text-anchor="start" x="411.2452" y="-537.5" font-family="Helvetica,sans-Serif" font-size="10.00" fill="#000000">+ Polynomial()</text>
<text text-anchor="start" x="411.2452" y="-526.5" font-family="Helvetica,sans-Serif" font-size="10.00" fill="#000000">+ value()</text>
<text text-anchor="start" x="411.2452" y="-515.5" font-family="Helvetica,sans-Serif" font-size="10.00" fill="#000000">+ value()</text>
<text text-anchor="start" x="411.2452" y="-504.5" font-family="Helvetica,sans-Serif" font-size="10.00" fill="#000000">+ value()</text>
<text text-anchor="start" x="411.2452" y="-493.5" font-family="Helvetica,sans-Serif" font-size="10.00" fill="#000000">+ degree()</text>
<text text-anchor="start" x="411.2452" y="-482.5" font-family="Helvetica,sans-Serif" font-size="10.00" fill="#000000">+ scale()</text>
<text text-anchor="start" x="411.2452" y="-471.5" font-family="Helvetica,sans-Serif" font-size="10.00" fill="#000000">+ shift()</text>
<text text-anchor="start" x="411.2452" y="-460.5" font-family="Helvetica,sans-Serif" font-size="10.00" fill="#000000">and 10 more...</text>
<text text-anchor="start" x="411.2452" y="-449.5" font-family="Helvetica,sans-Serif" font-size="10.00" fill="#000000"># transform_into_standard_form()</text>
<text text-anchor="start" x="411.2452" y="-438.5" font-family="Helvetica,sans-Serif" font-size="10.00" fill="#000000"># scale()</text>
<text text-anchor="start" x="411.2452" y="-427.5" font-family="Helvetica,sans-Serif" font-size="10.00" fill="#000000"># shift()</text>
<text text-anchor="start" x="411.2452" y="-416.5" font-family="Helvetica,sans-Serif" font-size="10.00" fill="#000000"># multiply()</text>
</a>
</g>
</g>
<!-- Node6&#45;&gt;Node23 -->
<g id="edge23" class="edge">
<title>Node6&#45;&gt;Node23</title>
<path fill="none" stroke="#191970" d="M587.0181,-691.7767C581.7702,-677.4433 576.0085,-663.2886 569.7452,-650 566.8685,-643.8968 563.7335,-637.7506 560.4182,-631.628"/>
<polygon fill="none" stroke="#191970" points="583.73,-692.9765 590.3927,-701.2142 590.3213,-690.6196 583.73,-692.9765"/>
</g>
<!-- Node7 -->
<g id="node4" class="node">
<title>Node7</title>
<polygon fill="#ffffff" stroke="#bfbfbf" points="732.7452,-1015.5 732.7452,-1083.5 842.7452,-1083.5 842.7452,-1015.5 732.7452,-1015.5"/>
<text text-anchor="start" x="740.7452" y="-1071.5" font-family="Helvetica,sans-Serif" font-size="10.00" fill="#000000">std::map&lt; std::string,</text>
<text text-anchor="middle" x="787.7452" y="-1060.5" font-family="Helvetica,sans-Serif" font-size="10.00" fill="#000000"> unsigned int &gt;</text>
<polyline fill="none" stroke="#bfbfbf" points="732.7452,-1053.5 842.7452,-1053.5 "/>
<text text-anchor="middle" x="787.7452" y="-1041.5" font-family="Helvetica,sans-Serif" font-size="10.00" fill="#000000"> </text>
<polyline fill="none" stroke="#bfbfbf" points="732.7452,-1034.5 842.7452,-1034.5 "/>
<text text-anchor="middle" x="787.7452" y="-1022.5" font-family="Helvetica,sans-Serif" font-size="10.00" fill="#000000"> </text>
</g>
<!-- Node7&#45;&gt;Node6 -->
<g id="edge3" class="edge">
<title>Node7&#45;&gt;Node6</title>
<path fill="none" stroke="#404040" d="M762.0758,-1015.4326C744.3646,-991.9271 719.8928,-959.4491 696.5655,-928.49"/>
<polygon fill="none" stroke="#404040" points="696.2634,-928.089 689.458,-925.7041 689.042,-918.505 695.8473,-920.8898 696.2634,-928.089"/>
<text text-anchor="middle" x="775.2452" y="-989" font-family="Helvetica,sans-Serif" font-size="10.00" fill="#000000"> &#45;counter_map</text>
</g>
<!-- Node8 -->
<g id="node5" class="node">
<title>Node8</title>
<g id="a_node5"><a xlink:href="classint.html" target="_top" xlink:title="{int\n||}">
<polygon fill="#ffffff" stroke="#000000" points="638.2452,-1142.5 638.2452,-1199.5 667.2452,-1199.5 667.2452,-1142.5 638.2452,-1142.5"/>
<text text-anchor="middle" x="652.7452" y="-1187.5" font-family="Helvetica,sans-Serif" font-size="10.00" fill="#000000">int</text>
<polyline fill="none" stroke="#000000" points="638.2452,-1180.5 667.2452,-1180.5 "/>
<text text-anchor="middle" x="652.7452" y="-1168.5" font-family="Helvetica,sans-Serif" font-size="10.00" fill="#000000"> </text>
<polyline fill="none" stroke="#000000" points="638.2452,-1161.5 667.2452,-1161.5 "/>
<text text-anchor="middle" x="652.7452" y="-1149.5" font-family="Helvetica,sans-Serif" font-size="10.00" fill="#000000"> </text>
</a>
</g>
</g>
<!-- Node8&#45;&gt;Node7 -->
<g id="edge4" class="edge">
<title>Node8&#45;&gt;Node7</title>
<path fill="none" stroke="#404040" d="M664.4467,-1142.4039C670.9943,-1128.9513 680.1836,-1113.4007 691.7452,-1102 692.5323,-1101.2239 705.445,-1094.0679 721.5593,-1085.2755"/>
<polygon fill="none" stroke="#404040" points="721.9759,-1085.0488 725.3335,-1078.6671 732.5157,-1079.3119 729.1581,-1085.6936 721.9759,-1085.0488"/>
<text text-anchor="middle" x="716.2452" y="-1110.5" font-family="Helvetica,sans-Serif" font-size="10.00" fill="#000000"> +elements</text>
</g>
<!-- Node9 -->
<g id="node6" class="node">
<title>Node9</title>
<g id="a_node6"><a xlink:title="STL class. ">
<polygon fill="#ffffff" stroke="#bfbfbf" points="685.7452,-1142.5 685.7452,-1199.5 745.7452,-1199.5 745.7452,-1142.5 685.7452,-1142.5"/>
<text text-anchor="middle" x="715.7452" y="-1187.5" font-family="Helvetica,sans-Serif" font-size="10.00" fill="#000000">std::string</text>
<polyline fill="none" stroke="#bfbfbf" points="685.7452,-1180.5 745.7452,-1180.5 "/>
<text text-anchor="middle" x="715.7452" y="-1168.5" font-family="Helvetica,sans-Serif" font-size="10.00" fill="#000000"> </text>
<polyline fill="none" stroke="#bfbfbf" points="685.7452,-1161.5 745.7452,-1161.5 "/>
<text text-anchor="middle" x="715.7452" y="-1149.5" font-family="Helvetica,sans-Serif" font-size="10.00" fill="#000000"> </text>
</a>
</g>
</g>
<!-- Node9&#45;&gt;Node7 -->
<g id="edge5" class="edge">
<title>Node9&#45;&gt;Node7</title>
<path fill="none" stroke="#404040" d="M732.8082,-1142.2062C741.2551,-1127.9521 751.6464,-1110.4166 761.1099,-1094.4469"/>
<polygon fill="none" stroke="#404040" points="761.3604,-1094.0243 760.978,-1086.8233 767.4781,-1083.7007 767.8604,-1090.9017 761.3604,-1094.0243"/>
<text text-anchor="middle" x="771.2452" y="-1110.5" font-family="Helvetica,sans-Serif" font-size="10.00" fill="#000000"> +keys</text>
</g>
<!-- Node10 -->
<g id="node7" class="node">
<title>Node10</title>
<g id="a_node7"><a xlink:title="STL class. ">
<polygon fill="#ffffff" stroke="#bfbfbf" points="639.2452,-1247.5 639.2452,-1315.5 734.2452,-1315.5 734.2452,-1247.5 639.2452,-1247.5"/>
<text text-anchor="start" x="647.2452" y="-1303.5" font-family="Helvetica,sans-Serif" font-size="10.00" fill="#000000">std::basic_string&lt;</text>
<text text-anchor="middle" x="686.7452" y="-1292.5" font-family="Helvetica,sans-Serif" font-size="10.00" fill="#000000"> char &gt;</text>
<polyline fill="none" stroke="#bfbfbf" points="639.2452,-1285.5 734.2452,-1285.5 "/>
<text text-anchor="middle" x="686.7452" y="-1273.5" font-family="Helvetica,sans-Serif" font-size="10.00" fill="#000000"> </text>
<polyline fill="none" stroke="#bfbfbf" points="639.2452,-1266.5 734.2452,-1266.5 "/>
<text text-anchor="middle" x="686.7452" y="-1254.5" font-family="Helvetica,sans-Serif" font-size="10.00" fill="#000000"> </text>
</a>
</g>
</g>
<!-- Node10&#45;&gt;Node9 -->
<g id="edge6" class="edge">
<title>Node10&#45;&gt;Node9</title>
<path fill="none" stroke="#191970" d="M698.307,-1237.4453C701.6556,-1224.6862 705.2224,-1211.0955 708.2519,-1199.5519"/>
<polygon fill="none" stroke="#191970" points="694.8359,-1236.8838 695.6827,-1247.4447 701.6066,-1238.6608 694.8359,-1236.8838"/>
</g>
<!-- Node11 -->
<g id="node8" class="node">
<title>Node11</title>
<g id="a_node8"><a xlink:title="STL class. ">
<polygon fill="#ffffff" stroke="#bfbfbf" points="763.7452,-1142.5 763.7452,-1199.5 855.7452,-1199.5 855.7452,-1142.5 763.7452,-1142.5"/>
<text text-anchor="middle" x="809.7452" y="-1187.5" font-family="Helvetica,sans-Serif" font-size="10.00" fill="#000000">std::map&lt; K, T &gt;</text>
<polyline fill="none" stroke="#bfbfbf" points="763.7452,-1180.5 855.7452,-1180.5 "/>
<text text-anchor="middle" x="809.7452" y="-1168.5" font-family="Helvetica,sans-Serif" font-size="10.00" fill="#000000"> </text>
<polyline fill="none" stroke="#bfbfbf" points="763.7452,-1161.5 855.7452,-1161.5 "/>
<text text-anchor="middle" x="809.7452" y="-1149.5" font-family="Helvetica,sans-Serif" font-size="10.00" fill="#000000"> </text>
</a>
</g>
</g>
<!-- Node11&#45;&gt;Node7 -->
<g id="edge7" class="edge">
<title>Node11&#45;&gt;Node7</title>
<path fill="none" stroke="#ffa500" d="M802.7414,-1132.3201C799.9136,-1116.7029 796.678,-1098.8337 793.9379,-1083.7007"/>
<polygon fill="#ffa500" stroke="#ffa500" points="799.3057,-1132.9898 804.5315,-1142.2062 806.1937,-1131.7426 799.3057,-1132.9898"/>
<text text-anchor="start" x="799.7452" y="-1116" font-family="Helvetica,sans-Serif" font-size="10.00" fill="#000000"> &lt; std::string, unsigned</text>
<text text-anchor="middle" x="850.2452" y="-1105" font-family="Helvetica,sans-Serif" font-size="10.00" fill="#000000"> int &gt;</text>
</g>
<!-- Node12 -->
<g id="node9" class="node">
<title>Node12</title>
<polygon fill="#ffffff" stroke="#bfbfbf" points="824.2452,-1253 824.2452,-1310 853.2452,-1310 853.2452,-1253 824.2452,-1253"/>
<text text-anchor="middle" x="838.7452" y="-1298" font-family="Helvetica,sans-Serif" font-size="10.00" fill="#000000">K</text>
<polyline fill="none" stroke="#bfbfbf" points="824.2452,-1291 853.2452,-1291 "/>
<text text-anchor="middle" x="838.7452" y="-1279" font-family="Helvetica,sans-Serif" font-size="10.00" fill="#000000"> </text>
<polyline fill="none" stroke="#bfbfbf" points="824.2452,-1272 853.2452,-1272 "/>
<text text-anchor="middle" x="838.7452" y="-1260" font-family="Helvetica,sans-Serif" font-size="10.00" fill="#000000"> </text>
</g>
<!-- Node12&#45;&gt;Node11 -->
<g id="edge8" class="edge">
<title>Node12&#45;&gt;Node11</title>
<path fill="none" stroke="#404040" d="M831.2015,-1252.7559C827.8785,-1240.0945 823.9169,-1224.9992 820.3074,-1211.2459"/>
<polygon fill="none" stroke="#404040" points="820.2973,-1211.2071 814.9052,-1206.4191 817.2511,-1199.6002 822.6432,-1204.3883 820.2973,-1211.2071"/>
<text text-anchor="middle" x="839.2452" y="-1221" font-family="Helvetica,sans-Serif" font-size="10.00" fill="#000000"> +keys</text>
</g>
<!-- Node13 -->
<g id="node10" class="node">
<title>Node13</title>
<polygon fill="#ffffff" stroke="#bfbfbf" points="752.2452,-1253 752.2452,-1310 781.2452,-1310 781.2452,-1253 752.2452,-1253"/>
<text text-anchor="middle" x="766.7452" y="-1298" font-family="Helvetica,sans-Serif" font-size="10.00" fill="#000000">T</text>
<polyline fill="none" stroke="#bfbfbf" points="752.2452,-1291 781.2452,-1291 "/>
<text text-anchor="middle" x="766.7452" y="-1279" font-family="Helvetica,sans-Serif" font-size="10.00" fill="#000000"> </text>
<polyline fill="none" stroke="#bfbfbf" points="752.2452,-1272 781.2452,-1272 "/>
<text text-anchor="middle" x="766.7452" y="-1260" font-family="Helvetica,sans-Serif" font-size="10.00" fill="#000000"> </text>
</g>
<!-- Node13&#45;&gt;Node11 -->
<g id="edge9" class="edge">
<title>Node13&#45;&gt;Node11</title>
<path fill="none" stroke="#404040" d="M763.5965,-1252.8528C763.3916,-1241.6388 764.4694,-1228.8816 768.7452,-1218 769.8713,-1215.1341 771.2532,-1212.3249 772.8201,-1209.5952"/>
<polygon fill="none" stroke="#404040" points="772.9154,-1209.4541 772.9582,-1202.2431 779.631,-1199.5092 779.5882,-1206.7202 772.9154,-1209.4541"/>
<text text-anchor="middle" x="793.2452" y="-1221" font-family="Helvetica,sans-Serif" font-size="10.00" fill="#000000"> +elements</text>
</g>
<!-- Node18 -->
<g id="node15" class="node">
<title>Node18</title>
<g id="a_node15"><a xlink:title="STL class. ">
<polygon fill="#ffffff" stroke="#bfbfbf" points="358.2452,-1142.5 358.2452,-1199.5 445.2452,-1199.5 445.2452,-1142.5 358.2452,-1142.5"/>
<text text-anchor="middle" x="401.7452" y="-1187.5" font-family="Helvetica,sans-Serif" font-size="10.00" fill="#000000">std::vector&lt; T &gt;</text>
<polyline fill="none" stroke="#bfbfbf" points="358.2452,-1180.5 445.2452,-1180.5 "/>
<text text-anchor="middle" x="401.7452" y="-1168.5" font-family="Helvetica,sans-Serif" font-size="10.00" fill="#000000"> </text>
<polyline fill="none" stroke="#bfbfbf" points="358.2452,-1161.5 445.2452,-1161.5 "/>
<text text-anchor="middle" x="401.7452" y="-1149.5" font-family="Helvetica,sans-Serif" font-size="10.00" fill="#000000"> </text>
</a>
</g>
</g>
<!-- Node13&#45;&gt;Node18 -->
<g id="edge15" class="edge">
<title>Node13&#45;&gt;Node18</title>
<path fill="none" stroke="#404040" d="M752.1147,-1254.6853C749.6369,-1251.7642 746.8465,-1249.0961 743.7452,-1247 701.4257,-1218.3967 568.5432,-1211.3686 518.7452,-1200 498.5549,-1195.3907 476.4907,-1190.0114 457.0184,-1185.1463"/>
<polygon fill="none" stroke="#404040" points="456.9075,-1185.1185 450.1138,-1187.5362 445.269,-1182.1949 452.0628,-1179.7772 456.9075,-1185.1185"/>
<text text-anchor="middle" x="719.2452" y="-1221" font-family="Helvetica,sans-Serif" font-size="10.00" fill="#000000"> +elements</text>
</g>
<!-- Node14 -->
<g id="node11" class="node">
<title>Node14</title>
<polygon fill="#ffffff" stroke="#bfbfbf" points="860.7452,-1021 860.7452,-1078 976.7452,-1078 976.7452,-1021 860.7452,-1021"/>
<text text-anchor="middle" x="918.7452" y="-1066" font-family="Helvetica,sans-Serif" font-size="10.00" fill="#000000">atomic&lt; unsigned int &gt;</text>
<polyline fill="none" stroke="#bfbfbf" points="860.7452,-1059 976.7452,-1059 "/>
<text text-anchor="middle" x="918.7452" y="-1047" font-family="Helvetica,sans-Serif" font-size="10.00" fill="#000000"> </text>
<polyline fill="none" stroke="#bfbfbf" points="860.7452,-1040 976.7452,-1040 "/>
<text text-anchor="middle" x="918.7452" y="-1028" font-family="Helvetica,sans-Serif" font-size="10.00" fill="#000000"> </text>
</g>
<!-- Node14&#45;&gt;Node6 -->
<g id="edge10" class="edge">
<title>Node14&#45;&gt;Node6</title>
<path fill="none" stroke="#404040" d="M879.837,-1020.9497C833.7777,-987.1519 756.0959,-930.1498 698.7227,-888.0501"/>
<polygon fill="none" stroke="#404040" points="698.6542,-887.9998 691.4503,-887.6751 688.9794,-880.9005 696.1832,-881.2252 698.6542,-887.9998"/>
<text text-anchor="middle" x="859.2452" y="-989" font-family="Helvetica,sans-Serif" font-size="10.00" fill="#000000"> &#45;counter</text>
</g>
<!-- Node15 -->
<g id="node12" class="node">
<title>Node15</title>
<polygon fill="#ffffff" stroke="#bfbfbf" points="449.7452,-1021 449.7452,-1078 493.7452,-1078 493.7452,-1021 449.7452,-1021"/>
<text text-anchor="middle" x="471.7452" y="-1066" font-family="Helvetica,sans-Serif" font-size="10.00" fill="#000000">mutex</text>
<polyline fill="none" stroke="#bfbfbf" points="449.7452,-1059 493.7452,-1059 "/>
<text text-anchor="middle" x="471.7452" y="-1047" font-family="Helvetica,sans-Serif" font-size="10.00" fill="#000000"> </text>
<polyline fill="none" stroke="#bfbfbf" points="449.7452,-1040 493.7452,-1040 "/>
<text text-anchor="middle" x="471.7452" y="-1028" font-family="Helvetica,sans-Serif" font-size="10.00" fill="#000000"> </text>
</g>
<!-- Node15&#45;&gt;Node6 -->
<g id="edge11" class="edge">
<title>Node15&#45;&gt;Node6</title>
<path fill="none" stroke="#404040" d="M493.8509,-1024.3955C496.8006,-1021.195 499.8178,-1017.9939 502.7452,-1015 524.0674,-993.1933 534.0855,-992.1245 552.7452,-968 553.6997,-966.7659 554.6491,-965.5177 555.593,-964.2566"/>
<polygon fill="none" stroke="#404040" points="555.7069,-964.0984 555.9663,-956.8919 562.7182,-954.3597 562.4588,-961.5661 555.7069,-964.0984"/>
<text text-anchor="middle" x="553.7452" y="-989" font-family="Helvetica,sans-Serif" font-size="10.00" fill="#000000"> &#45;mutex</text>
</g>
<!-- Node16 -->
<g id="node13" class="node">
<title>Node16</title>
<polygon fill="#ffffff" stroke="#bfbfbf" points="512.2452,-1015.5 512.2452,-1083.5 633.2452,-1083.5 633.2452,-1015.5 512.2452,-1015.5"/>
<text text-anchor="start" x="520.2452" y="-1071.5" font-family="Helvetica,sans-Serif" font-size="10.00" fill="#000000">std::vector&lt; std::atomic</text>
<text text-anchor="middle" x="572.7452" y="-1060.5" font-family="Helvetica,sans-Serif" font-size="10.00" fill="#000000">&lt; bool &gt; *&gt;</text>
<polyline fill="none" stroke="#bfbfbf" points="512.2452,-1053.5 633.2452,-1053.5 "/>
<text text-anchor="middle" x="572.7452" y="-1041.5" font-family="Helvetica,sans-Serif" font-size="10.00" fill="#000000"> </text>
<polyline fill="none" stroke="#bfbfbf" points="512.2452,-1034.5 633.2452,-1034.5 "/>
<text text-anchor="middle" x="572.7452" y="-1022.5" font-family="Helvetica,sans-Serif" font-size="10.00" fill="#000000"> </text>
</g>
<!-- Node16&#45;&gt;Node6 -->
<g id="edge12" class="edge">
<title>Node16&#45;&gt;Node6</title>
<path fill="none" stroke="#404040" d="M578.0079,-1015.4338C579.6578,-1005.8732 581.6116,-995.4973 583.7452,-986 584.2289,-983.8467 584.724,-981.6783 585.2292,-979.4978"/>
<polygon fill="none" stroke="#404040" points="585.2487,-979.4156 582.743,-972.6538 588.021,-967.7402 590.5266,-974.502 585.2487,-979.4156"/>
<text text-anchor="middle" x="622.2452" y="-989" font-family="Helvetica,sans-Serif" font-size="10.00" fill="#000000"> &#45;validity_pointers</text>
</g>
<!-- Node17 -->
<g id="node14" class="node">
<title>Node17</title>
<polygon fill="#ffffff" stroke="#bfbfbf" points="528.2452,-1142.5 528.2452,-1199.5 617.2452,-1199.5 617.2452,-1142.5 528.2452,-1142.5"/>
<text text-anchor="middle" x="572.7452" y="-1187.5" font-family="Helvetica,sans-Serif" font-size="10.00" fill="#000000">atomic&lt; bool &gt; *</text>
<polyline fill="none" stroke="#bfbfbf" points="528.2452,-1180.5 617.2452,-1180.5 "/>
<text text-anchor="middle" x="572.7452" y="-1168.5" font-family="Helvetica,sans-Serif" font-size="10.00" fill="#000000"> </text>
<polyline fill="none" stroke="#bfbfbf" points="528.2452,-1161.5 617.2452,-1161.5 "/>
<text text-anchor="middle" x="572.7452" y="-1149.5" font-family="Helvetica,sans-Serif" font-size="10.00" fill="#000000"> </text>
</g>
<!-- Node17&#45;&gt;Node16 -->
<g id="edge13" class="edge">
<title>Node17&#45;&gt;Node16</title>
<path fill="none" stroke="#404040" d="M572.7452,-1142.2062C572.7452,-1128.3632 572.7452,-1111.4255 572.7452,-1095.8327"/>
<polygon fill="none" stroke="#404040" points="572.7453,-1095.7007 568.7452,-1089.7008 572.7452,-1083.7007 576.7452,-1089.7007 572.7453,-1095.7007"/>
<text text-anchor="middle" x="597.2452" y="-1110.5" font-family="Helvetica,sans-Serif" font-size="10.00" fill="#000000"> +elements</text>
</g>
<!-- Node18&#45;&gt;Node16 -->
<g id="edge14" class="edge">
<title>Node18&#45;&gt;Node16</title>
<path fill="none" stroke="#ffa500" d="M426.6991,-1134.1049C435.7668,-1122.6932 446.7608,-1110.8178 458.7452,-1102 475.7636,-1089.4783 483.4798,-1092.6755 502.7452,-1084 505.8336,-1082.6092 508.9864,-1081.1611 512.1616,-1079.68"/>
<polygon fill="#ffa500" stroke="#ffa500" points="423.7411,-1132.2114 420.4502,-1142.2822 429.303,-1136.4618 423.7411,-1132.2114"/>
<text text-anchor="middle" x="513.7452" y="-1110.5" font-family="Helvetica,sans-Serif" font-size="10.00" fill="#000000"> &lt; std::atomic&lt; bool &gt; *&gt;</text>
</g>
<!-- Node22 -->
<g id="node19" class="node">
<title>Node22</title>
<polygon fill="#ffffff" stroke="#bfbfbf" points="117.7452,-492 117.7452,-549 227.7452,-549 227.7452,-492 117.7452,-492"/>
<text text-anchor="middle" x="172.7452" y="-537" font-family="Helvetica,sans-Serif" font-size="10.00" fill="#000000">std::vector&lt; double &gt;</text>
<polyline fill="none" stroke="#bfbfbf" points="117.7452,-530 227.7452,-530 "/>
<text text-anchor="middle" x="172.7452" y="-518" font-family="Helvetica,sans-Serif" font-size="10.00" fill="#000000"> </text>
<polyline fill="none" stroke="#bfbfbf" points="117.7452,-511 227.7452,-511 "/>
<text text-anchor="middle" x="172.7452" y="-499" font-family="Helvetica,sans-Serif" font-size="10.00" fill="#000000"> </text>
</g>
<!-- Node18&#45;&gt;Node22 -->
<g id="edge21" class="edge">
<title>Node18&#45;&gt;Node22</title>
<path fill="none" stroke="#ffa500" d="M348.8614,-1147.6982C320.2547,-1132.8909 286.1015,-1111.3482 262.7452,-1084 235.4573,-1052.0484 236.4027,-1037.6442 225.7452,-997 203.2608,-911.2527 181.5012,-638.3248 174.8257,-549.0573"/>
<polygon fill="#ffa500" stroke="#ffa500" points="347.4281,-1150.8952 357.9337,-1152.2679 350.5772,-1144.6435 347.4281,-1150.8952"/>
<text text-anchor="middle" x="250.7452" y="-989" font-family="Helvetica,sans-Serif" font-size="10.00" fill="#000000"> &lt; double &gt;</text>
</g>
<!-- Node24 -->
<g id="node21" class="node">
<title>Node24</title>
<polygon fill="#ffffff" stroke="#bfbfbf" points="431.2452,-806 431.2452,-863 544.2452,-863 544.2452,-806 431.2452,-806"/>
<text text-anchor="middle" x="487.7452" y="-851" font-family="Helvetica,sans-Serif" font-size="10.00" fill="#000000">std::vector&lt; number &gt;</text>
<polyline fill="none" stroke="#bfbfbf" points="431.2452,-844 544.2452,-844 "/>
<text text-anchor="middle" x="487.7452" y="-832" font-family="Helvetica,sans-Serif" font-size="10.00" fill="#000000"> </text>
<polyline fill="none" stroke="#bfbfbf" points="431.2452,-825 544.2452,-825 "/>
<text text-anchor="middle" x="487.7452" y="-813" font-family="Helvetica,sans-Serif" font-size="10.00" fill="#000000"> </text>
</g>
<!-- Node18&#45;&gt;Node24 -->
<g id="edge26" class="edge">
<title>Node18&#45;&gt;Node24</title>
<path fill="none" stroke="#ffa500" d="M389.4458,-1132.4098C381.1974,-1100.226 373.9619,-1053.569 386.7452,-1015 394.939,-990.2779 408.1405,-990.2089 421.7452,-968 443.0163,-933.2759 463.0959,-890.7472 475.3986,-863.1607"/>
<polygon fill="#ffa500" stroke="#ffa500" points="386.1387,-1133.5874 392.1354,-1142.3219 392.8945,-1131.7543 386.1387,-1133.5874"/>
<text text-anchor="middle" x="413.7452" y="-1047" font-family="Helvetica,sans-Serif" font-size="10.00" fill="#000000"> &lt; number &gt;</text>
</g>
<!-- Node19 -->
<g id="node16" class="node">
<title>Node19</title>
<polygon fill="#ffffff" stroke="#bfbfbf" points="651.2452,-1021 651.2452,-1078 714.2452,-1078 714.2452,-1021 651.2452,-1021"/>
<text text-anchor="middle" x="682.7452" y="-1066" font-family="Helvetica,sans-Serif" font-size="10.00" fill="#000000">type_info *</text>
<polyline fill="none" stroke="#bfbfbf" points="651.2452,-1059 714.2452,-1059 "/>
<text text-anchor="middle" x="682.7452" y="-1047" font-family="Helvetica,sans-Serif" font-size="10.00" fill="#000000"> </text>
<polyline fill="none" stroke="#bfbfbf" points="651.2452,-1040 714.2452,-1040 "/>
<text text-anchor="middle" x="682.7452" y="-1028" font-family="Helvetica,sans-Serif" font-size="10.00" fill="#000000"> </text>
</g>
<!-- Node19&#45;&gt;Node6 -->
<g id="edge16" class="edge">
<title>Node19&#45;&gt;Node6</title>
<path fill="none" stroke="#404040" d="M675.176,-1020.9497C672.1112,-1009.3895 668.3267,-995.1147 664.2268,-979.6501"/>
<polygon fill="none" stroke="#404040" points="664.112,-979.2169 658.708,-974.4423 661.0368,-967.6176 666.4408,-972.3921 664.112,-979.2169"/>
<text text-anchor="middle" x="694.7452" y="-989" font-family="Helvetica,sans-Serif" font-size="10.00" fill="#000000"> &#45;object_info</text>
</g>
<!-- Node20 -->
<g id="node17" class="node">
<title>Node20</title>
<g id="a_node17"><a xlink:href="classdouble.html" target="_top" xlink:title="{double\n||}">
<polygon fill="#ffffff" stroke="#000000" points="45.2452,-806 45.2452,-863 90.2452,-863 90.2452,-806 45.2452,-806"/>
<text text-anchor="middle" x="67.7452" y="-851" font-family="Helvetica,sans-Serif" font-size="10.00" fill="#000000">double</text>
<polyline fill="none" stroke="#000000" points="45.2452,-844 90.2452,-844 "/>
<text text-anchor="middle" x="67.7452" y="-832" font-family="Helvetica,sans-Serif" font-size="10.00" fill="#000000"> </text>
<polyline fill="none" stroke="#000000" points="45.2452,-825 90.2452,-825 "/>
<text text-anchor="middle" x="67.7452" y="-813" font-family="Helvetica,sans-Serif" font-size="10.00" fill="#000000"> </text>
</a>
</g>
</g>
<!-- Node20&#45;&gt;Node5 -->
<g id="edge17" class="edge">
<title>Node20&#45;&gt;Node5</title>
<path fill="none" stroke="#404040" d="M55.4168,-805.7707C26.7604,-734.3571 -36.9998,-544.7796 29.7452,-409 59.4433,-348.5849 120.1698,-302.6832 172.3164,-272.2884"/>
<polygon fill="none" stroke="#404040" points="172.5313,-272.1661 175.7656,-265.7209 182.9589,-266.2275 179.7246,-272.6727 172.5313,-272.1661"/>
<text text-anchor="middle" x="69.2452" y="-518" font-family="Helvetica,sans-Serif" font-size="10.00" fill="#000000"> #lagrange_weight</text>
</g>
<!-- Node20&#45;&gt;Node22 -->
<g id="edge20" class="edge">
<title>Node20&#45;&gt;Node22</title>
<path fill="none" stroke="#404040" d="M77.3416,-805.8022C96.128,-749.6217 137.7978,-625.0092 159.312,-560.6715"/>
<polygon fill="none" stroke="#404040" points="159.4034,-560.3981 157.5127,-553.4393 163.209,-549.0176 165.0997,-555.9764 159.4034,-560.3981"/>
<text text-anchor="middle" x="151.2452" y="-664" font-family="Helvetica,sans-Serif" font-size="10.00" fill="#000000"> +elements</text>
</g>
<!-- Node21 -->
<g id="node18" class="node">
<title>Node21</title>
<g id="a_node18"><a xlink:href="classbool.html" target="_top" xlink:title="{bool\n||}">
<polygon fill="#ffffff" stroke="#000000" points="378.2452,-806 378.2452,-863 413.2452,-863 413.2452,-806 378.2452,-806"/>
<text text-anchor="middle" x="395.7452" y="-851" font-family="Helvetica,sans-Serif" font-size="10.00" fill="#000000">bool</text>
<polyline fill="none" stroke="#000000" points="378.2452,-844 413.2452,-844 "/>
<text text-anchor="middle" x="395.7452" y="-832" font-family="Helvetica,sans-Serif" font-size="10.00" fill="#000000"> </text>
<polyline fill="none" stroke="#000000" points="378.2452,-825 413.2452,-825 "/>
<text text-anchor="middle" x="395.7452" y="-813" font-family="Helvetica,sans-Serif" font-size="10.00" fill="#000000"> </text>
</a>
</g>
</g>
<!-- Node21&#45;&gt;Node5 -->
<g id="edge18" class="edge">
<title>Node21&#45;&gt;Node5</title>
<path fill="none" stroke="#404040" d="M394.442,-805.9964C391.932,-777.3688 384.6655,-733.0254 363.7452,-701 335.9868,-658.5068 295.8302,-677.2027 272.7452,-632 248.6286,-584.7775 249.8819,-452.3599 254.9368,-351.9874"/>
<polygon fill="none" stroke="#404040" points="254.9415,-351.8971 251.2616,-345.6956 255.5707,-339.9136 259.2506,-346.1151 254.9415,-351.8971"/>
<text text-anchor="middle" x="333.2452" y="-518" font-family="Helvetica,sans-Serif" font-size="10.00" fill="#000000"> #in_lagrange_product_form</text>
</g>
<!-- Node21&#45;&gt;Node23 -->
<g id="edge28" class="edge">
<title>Node21&#45;&gt;Node23</title>
<path fill="none" stroke="#404040" d="M388.7681,-805.8988C378.9588,-765.4549 362.125,-695.103 360.7452,-683 359.0838,-668.4277 353.7171,-662.8731 360.7452,-650 367.8343,-637.0151 377.6057,-641.7353 388.7452,-632 390.5404,-630.4311 392.3315,-628.8276 394.1164,-627.194"/>
<polygon fill="none" stroke="#404040" points="394.2679,-627.0506 395.873,-620.0204 402.9797,-618.7981 401.3746,-625.8283 394.2679,-627.0506"/>
<text text-anchor="middle" x="421.2452" y="-664" font-family="Helvetica,sans-Serif" font-size="10.00" fill="#000000"> #in_lagrange_product_form</text>
</g>
<!-- Node22&#45;&gt;Node5 -->
<g id="edge19" class="edge">
<title>Node22&#45;&gt;Node5</title>
<path fill="none" stroke="#404040" d="M166.6846,-491.783C160.9383,-458.6476 155.1501,-402.9528 169.7452,-358 171.9435,-351.229 174.6436,-344.516 177.723,-337.9172"/>
<polygon fill="none" stroke="#404040" points="177.8556,-337.6531 176.9743,-330.496 183.2418,-326.9298 184.1232,-334.0868 177.8556,-337.6531"/>
<text text-anchor="middle" x="209.7452" y="-383" font-family="Helvetica,sans-Serif" font-size="10.00" fill="#000000"> #coefficients</text>
<text text-anchor="start" x="169.7452" y="-372" font-family="Helvetica,sans-Serif" font-size="10.00" fill="#000000">#lagrange_support</text>
<text text-anchor="middle" x="209.7452" y="-361" font-family="Helvetica,sans-Serif" font-size="10.00" fill="#000000">_points</text>
</g>
<!-- Node23&#45;&gt;Node5 -->
<g id="edge22" class="edge">
<title>Node23&#45;&gt;Node5</title>
<path fill="none" stroke="#ffa500" d="M396.9818,-405.3414C379.6533,-382.3417 361.5187,-358.2721 344.4061,-335.559"/>
<polygon fill="#ffa500" stroke="#ffa500" points="394.2616,-407.5473 403.0745,-413.428 399.8524,-403.335 394.2616,-407.5473"/>
<text text-anchor="middle" x="405.7452" y="-372" font-family="Helvetica,sans-Serif" font-size="10.00" fill="#000000"> &lt; double &gt;</text>
</g>
<!-- Node24&#45;&gt;Node23 -->
<g id="edge24" class="edge">
<title>Node24&#45;&gt;Node23</title>
<path fill="none" stroke="#404040" d="M487.3796,-805.8022C486.9114,-769.0472 486.07,-703.0022 485.3147,-643.7077"/>
<polygon fill="none" stroke="#404040" points="485.3129,-643.5597 481.2367,-637.6111 485.1599,-631.5606 489.2361,-637.5092 485.3129,-643.5597"/>
<text text-anchor="middle" x="525.7452" y="-675" font-family="Helvetica,sans-Serif" font-size="10.00" fill="#000000"> #coefficients</text>
<text text-anchor="start" x="485.7452" y="-664" font-family="Helvetica,sans-Serif" font-size="10.00" fill="#000000">#lagrange_support</text>
<text text-anchor="middle" x="525.7452" y="-653" font-family="Helvetica,sans-Serif" font-size="10.00" fill="#000000">_points</text>
</g>
<!-- Node25 -->
<g id="node22" class="node">
<title>Node25</title>
<polygon fill="#ffffff" stroke="#bfbfbf" points="272.2452,-1021 272.2452,-1078 321.2452,-1078 321.2452,-1021 272.2452,-1021"/>
<text text-anchor="middle" x="296.7452" y="-1066" font-family="Helvetica,sans-Serif" font-size="10.00" fill="#000000">number</text>
<polyline fill="none" stroke="#bfbfbf" points="272.2452,-1059 321.2452,-1059 "/>
<text text-anchor="middle" x="296.7452" y="-1047" font-family="Helvetica,sans-Serif" font-size="10.00" fill="#000000"> </text>
<polyline fill="none" stroke="#bfbfbf" points="272.2452,-1040 321.2452,-1040 "/>
<text text-anchor="middle" x="296.7452" y="-1028" font-family="Helvetica,sans-Serif" font-size="10.00" fill="#000000"> </text>
</g>
<!-- Node25&#45;&gt;Node23 -->
<g id="edge27" class="edge">
<title>Node25&#45;&gt;Node23</title>
<path fill="none" stroke="#404040" d="M287.8212,-1020.5624C270.3664,-958.3875 237.737,-808.9455 289.7452,-701 305.532,-668.2336 322.3744,-668.4049 353.7452,-650 368.9791,-641.0624 377.7463,-643.4368 393.2345,-634.4275"/>
<polygon fill="none" stroke="#404040" points="393.3044,-634.38 396.0192,-627.6994 403.2301,-627.6359 400.5153,-634.3165 393.3044,-634.38"/>
<text text-anchor="middle" x="329.2452" y="-832" font-family="Helvetica,sans-Serif" font-size="10.00" fill="#000000"> #lagrange_weight</text>
</g>
<!-- Node25&#45;&gt;Node24 -->
<g id="edge25" class="edge">
<title>Node25&#45;&gt;Node24</title>
<path fill="none" stroke="#404040" d="M298.18,-1020.9327C300.302,-1008.501 304.9311,-994.7937 314.7452,-986 350.6603,-953.8187 383.0409,-996.7664 421.7452,-968 451.9294,-945.566 469.1204,-905.5254 478.3387,-875.1292"/>
<polygon fill="none" stroke="#404040" points="478.4498,-874.7352 476.2292,-867.8745 481.7081,-863.1859 483.9287,-870.0466 478.4498,-874.7352"/>
<text text-anchor="middle" x="339.2452" y="-989" font-family="Helvetica,sans-Serif" font-size="10.00" fill="#000000"> +elements</text>
</g>
</g>
</svg>
        <g id="navigator" transform="translate(0 0)" fill="#404254">
                <rect fill="#f2f5e9" fill-opacity="0.5" stroke="#606060" stroke-width=".5" x="0" y="0" width="60" height="60"/>
                <use id="zoomplus" xlink:href="#zoomPlus" x="17" y="9" onmousedown="handleZoom(evt,'in')"/>
                <use id="zoomminus" xlink:href="#zoomMin" x="42" y="9" onmousedown="handleZoom(evt,'out')"/>
                <use id="reset" xlink:href="#resetDef" x="30" y="36" onmousedown="handleReset()"/>
                <g id="arrowUp" xlink:href="#dirArrow" transform="translate(30 24)" onmousedown="handlePan(0,-1)">
                  <use xlink:href="#rim" fill="#404040">
                        <set attributeName="fill" to="#808080" begin="arrowUp.mouseover" end="arrowUp.mouseout"/>
                  </use>
                  <path fill="none" stroke="white" stroke-width="1.5" d="M0,-3.0v7 M-2.5,-0.5L0,-3.0L2.5,-0.5"/>
                </g>
                <g id="arrowRight" xlink:href="#dirArrow" transform="rotate(90) translate(36 -43)" onmousedown="handlePan(1,0)">
                  <use xlink:href="#rim" fill="#404040">
                        <set attributeName="fill" to="#808080" begin="arrowRight.mouseover" end="arrowRight.mouseout"/>
                  </use>
                  <path fill="none" stroke="white" stroke-width="1.5" d="M0,-3.0v7 M-2.5,-0.5L0,-3.0L2.5,-0.5"/>
                </g>
                <g id="arrowDown" xlink:href="#dirArrow" transform="rotate(180) translate(-30 -48)" onmousedown="handlePan(0,1)">
                  <use xlink:href="#rim" fill="#404040">
                        <set attributeName="fill" to="#808080" begin="arrowDown.mouseover" end="arrowDown.mouseout"/>
                  </use>
                  <path fill="none" stroke="white" stroke-width="1.5" d="M0,-3.0v7 M-2.5,-0.5L0,-3.0L2.5,-0.5"/>
                </g>
                <g id="arrowLeft" xlink:href="#dirArrow" transform="rotate(270) translate(-36 17)" onmousedown="handlePan(-1,0)">
                  <use xlink:href="#rim" fill="#404040">
                        <set attributeName="fill" to="#808080" begin="arrowLeft.mouseover" end="arrowLeft.mouseout"/>
                  </use>
                  <path fill="none" stroke="white" stroke-width="1.5" d="M0,-3.0v7 M-2.5,-0.5L0,-3.0L2.5,-0.5"/>
                </g>
        </g>
        <svg viewBox="0 0 15 15" width="100%" height="30px" preserveAspectRatio="xMaxYMin meet">
         <g id="arrow_out" transform="scale(0.3 0.3)">
          <a xlink:href="classPolynomials_1_1Lobatto__coll__graph_org.svg" target="_base">
           <rect id="button" ry="5" rx="5" y="6" x="6" height="38" width="38"
                fill="#f2f5e9" fill-opacity="0.5" stroke="#606060" stroke-width="1.0"/>
           <path id="arrow"
             d="M 11.500037,31.436501 C 11.940474,20.09759 22.043105,11.32322 32.158766,21.979434 L 37.068811,17.246167 C 37.068811,17.246167 37.088388,32 37.088388,32 L 22.160133,31.978069 C 22.160133,31.978069 26.997745,27.140456 26.997745,27.140456 C 18.528582,18.264221 13.291696,25.230495 11.500037,31.436501 z"
             style="fill:#404040;"/>
          </a>
         </g>
        </svg>
</svg>
