<?xml version="1.0" encoding="UTF-8" standalone="no"?>
<!DOCTYPE svg PUBLIC "-//W3C//DTD SVG 1.1//EN"
 "http://www.w3.org/Graphics/SVG/1.1/DTD/svg11.dtd">
<!-- Generated by graphviz version 2.40.1 (20161225.0304)
 -->
<!-- Title: AffineConstraints&lt; number &gt; Pages: 1 -->
<svg width="470pt" height="160pt"
 viewBox="0.00 0.00 470.00 159.50" xmlns="http://www.w3.org/2000/svg" xmlns:xlink="http://www.w3.org/1999/xlink">
<g id="graph0" class="graph" transform="scale(1 1) rotate(0) translate(4 155.5)">
<title>AffineConstraints&lt; number &gt;</title>
<polygon fill="#ffffff" stroke="transparent" points="-4,4 -4,-155.5 466,-155.5 466,4 -4,4"/>
<!-- Node0 -->
<g id="node1" class="node">
<title>Node0</title>
<polygon fill="#bfbfbf" stroke="#000000" points="103,-66 103,-96 201,-96 201,-66 103,-66"/>
<text text-anchor="start" x="111" y="-84" font-family="Helvetica,sans-Serif" font-size="10.00" fill="#000000">AffineConstraints&lt;</text>
<text text-anchor="middle" x="152" y="-73" font-family="Helvetica,sans-Serif" font-size="10.00" fill="#000000"> number &gt;</text>
</g>
<!-- Node2 -->
<g id="node3" class="node">
<title>Node2</title>
<g id="a_node3"><a xlink:href="classAffineConstraints.html" target="_top" xlink:title="AffineConstraints\&lt;\l double \&gt;">
<polygon fill="#ffffff" stroke="#000000" points="355,-121 355,-151 453,-151 453,-121 355,-121"/>
<text text-anchor="start" x="363" y="-139" font-family="Helvetica,sans-Serif" font-size="10.00" fill="#000000">AffineConstraints&lt;</text>
<text text-anchor="middle" x="404" y="-128" font-family="Helvetica,sans-Serif" font-size="10.00" fill="#000000"> double &gt;</text>
</a>
</g>
</g>
<!-- Node0&#45;&gt;Node2 -->
<g id="edge2" class="edge">
<title>Node0&#45;&gt;Node2</title>
<path fill="none" stroke="#ffa500" stroke-dasharray="5,2" d="M196.0342,-99.6246C203.6031,-102.3809 211.4602,-104.9714 219,-107 264.2071,-119.1632 317.0914,-126.8186 354.7122,-131.1889"/>
<polygon fill="#ffa500" stroke="#ffa500" points="197.2384,-96.3381 186.6469,-96.0742 194.7621,-102.8855 197.2384,-96.3381"/>
<text text-anchor="middle" x="273.5" y="-130" font-family="Helvetica,sans-Serif" font-size="10.00" fill="#000000"> &lt; double &gt;</text>
</g>
<!-- Node3 -->
<g id="node4" class="node">
<title>Node3</title>
<g id="a_node4"><a xlink:href="classAffineConstraints.html" target="_top" xlink:title="AffineConstraints\&lt;\l typename MatrixType\l::value_type \&gt;">
<polygon fill="#ffffff" stroke="#000000" points="347,-60.5 347,-101.5 461,-101.5 461,-60.5 347,-60.5"/>
<text text-anchor="start" x="355" y="-89.5" font-family="Helvetica,sans-Serif" font-size="10.00" fill="#000000">AffineConstraints&lt;</text>
<text text-anchor="start" x="355" y="-78.5" font-family="Helvetica,sans-Serif" font-size="10.00" fill="#000000"> typename MatrixType</text>
<text text-anchor="middle" x="404" y="-67.5" font-family="Helvetica,sans-Serif" font-size="10.00" fill="#000000">::value_type &gt;</text>
</a>
</g>
</g>
<!-- Node0&#45;&gt;Node3 -->
<g id="edge3" class="edge">
<title>Node0&#45;&gt;Node3</title>
<path fill="none" stroke="#ffa500" stroke-dasharray="5,2" d="M211.2713,-81C252.117,-81 306.1122,-81 346.5574,-81"/>
<polygon fill="#ffa500" stroke="#ffa500" points="211.1864,-77.5001 201.1864,-81 211.1863,-84.5001 211.1864,-77.5001"/>
<text text-anchor="start" x="220" y="-95" font-family="Helvetica,sans-Serif" font-size="10.00" fill="#000000"> &lt; typename MatrixType</text>
<text text-anchor="middle" x="273.5" y="-84" font-family="Helvetica,sans-Serif" font-size="10.00" fill="#000000">::value_type &gt;</text>
</g>
<!-- Node4 -->
<g id="node5" class="node">
<title>Node4</title>
<g id="a_node5"><a xlink:href="classAffineConstraints.html" target="_top" xlink:title="AffineConstraints\&lt;\l typename VectorType\l::value_type \&gt;">
<polygon fill="#ffffff" stroke="#000000" points="346,-.5 346,-41.5 462,-41.5 462,-.5 346,-.5"/>
<text text-anchor="start" x="354" y="-29.5" font-family="Helvetica,sans-Serif" font-size="10.00" fill="#000000">AffineConstraints&lt;</text>
<text text-anchor="start" x="354" y="-18.5" font-family="Helvetica,sans-Serif" font-size="10.00" fill="#000000"> typename VectorType</text>
<text text-anchor="middle" x="404" y="-7.5" font-family="Helvetica,sans-Serif" font-size="10.00" fill="#000000">::value_type &gt;</text>
</a>
</g>
</g>
<!-- Node0&#45;&gt;Node4 -->
<g id="edge4" class="edge">
<title>Node0&#45;&gt;Node4</title>
<path fill="none" stroke="#ffa500" stroke-dasharray="5,2" d="M196.8354,-62.2686C204.1649,-59.5936 211.737,-57.0568 219,-55 260.7891,-43.1658 309.0906,-34.451 345.8582,-28.8086"/>
<polygon fill="#ffa500" stroke="#ffa500" points="195.1595,-59.1603 187.0429,-65.9699 197.6345,-65.7082 195.1595,-59.1603"/>
<text text-anchor="start" x="219" y="-69" font-family="Helvetica,sans-Serif" font-size="10.00" fill="#000000"> &lt; typename VectorType</text>
<text text-anchor="middle" x="273.5" y="-58" font-family="Helvetica,sans-Serif" font-size="10.00" fill="#000000">::value_type &gt;</text>
</g>
<!-- Node1 -->
<g id="node2" class="node">
<title>Node1</title>
<g id="a_node2"><a xlink:href="classSubscriptor.html" target="_top" xlink:title="Subscriptor">
<polygon fill="#ffffff" stroke="#000000" points="0,-71.5 0,-90.5 66,-90.5 66,-71.5 0,-71.5"/>
<text text-anchor="middle" x="33" y="-78.5" font-family="Helvetica,sans-Serif" font-size="10.00" fill="#000000">Subscriptor</text>
</a>
</g>
</g>
<!-- Node1&#45;&gt;Node0 -->
<g id="edge1" class="edge">
<title>Node1&#45;&gt;Node0</title>
<path fill="none" stroke="#191970" d="M76.2732,-81C84.8132,-81 93.8361,-81 102.5617,-81"/>
<polygon fill="#191970" stroke="#191970" points="76.1482,-77.5001 66.1481,-81 76.1481,-84.5001 76.1482,-77.5001"/>
</g>
</g>
</svg>
