<?xml version="1.0" encoding="UTF-8" standalone="no"?>
<!DOCTYPE svg PUBLIC "-//W3C//DTD SVG 1.1//EN"
 "http://www.w3.org/Graphics/SVG/1.1/DTD/svg11.dtd">
<!-- Generated by graphviz version 2.40.1 (20161225.0304)
 -->
<!-- Title: FE_DGNedelec&lt; dim, spacedim &gt; Pages: 1 -->
<svg width="294pt" height="400pt"
 viewBox="0.00 0.00 293.50 400.00" xmlns="http://www.w3.org/2000/svg" xmlns:xlink="http://www.w3.org/1999/xlink">
<g id="graph0" class="graph" transform="scale(1 1) rotate(0) translate(4 396)">
<title>FE_DGNedelec&lt; dim, spacedim &gt;</title>
<polygon fill="#ffffff" stroke="transparent" points="-4,4 -4,-396 289.5,-396 289.5,4 -4,4"/>
<!-- Node0 -->
<g id="node1" class="node">
<title>Node0</title>
<polygon fill="#bfbfbf" stroke="#000000" points="34,-.5 34,-30.5 155,-30.5 155,-.5 34,-.5"/>
<text text-anchor="start" x="42" y="-18.5" font-family="Helvetica,sans-Serif" font-size="10.00" fill="#000000">FE_DGNedelec&lt; dim,</text>
<text text-anchor="middle" x="94.5" y="-7.5" font-family="Helvetica,sans-Serif" font-size="10.00" fill="#000000"> spacedim &gt;</text>
</g>
<!-- Node1 -->
<g id="node2" class="node">
<title>Node1</title>
<g id="a_node2"><a xlink:href="classFE__DGVector.html" target="_top" xlink:title="FE_DGVector\&lt; Polynomials\lNedelec\&lt; dim \&gt;, dim, spacedim \&gt;">
<polygon fill="#ffffff" stroke="#000000" points="1,-68.5 1,-98.5 188,-98.5 188,-68.5 1,-68.5"/>
<text text-anchor="start" x="9" y="-86.5" font-family="Helvetica,sans-Serif" font-size="10.00" fill="#000000">FE_DGVector&lt; Polynomials</text>
<text text-anchor="middle" x="94.5" y="-75.5" font-family="Helvetica,sans-Serif" font-size="10.00" fill="#000000">Nedelec&lt; dim &gt;, dim, spacedim &gt;</text>
</a>
</g>
</g>
<!-- Node1&#45;&gt;Node0 -->
<g id="edge1" class="edge">
<title>Node1&#45;&gt;Node0</title>
<path fill="none" stroke="#191970" d="M94.5,-58.1174C94.5,-48.8378 94.5,-38.6413 94.5,-30.5492"/>
<polygon fill="#191970" stroke="#191970" points="91.0001,-58.4086 94.5,-68.4086 98.0001,-58.4086 91.0001,-58.4086"/>
</g>
<!-- Node2 -->
<g id="node3" class="node">
<title>Node2</title>
<g id="a_node3"><a xlink:href="classFE__PolyTensor.html" target="_top" xlink:title="FE_PolyTensor\&lt; dim,\l spacedim \&gt;">
<polygon fill="#ffffff" stroke="#000000" points="31,-225.5 31,-255.5 150,-255.5 150,-225.5 31,-225.5"/>
<text text-anchor="start" x="39" y="-243.5" font-family="Helvetica,sans-Serif" font-size="10.00" fill="#000000">FE_PolyTensor&lt; dim,</text>
<text text-anchor="middle" x="90.5" y="-232.5" font-family="Helvetica,sans-Serif" font-size="10.00" fill="#000000"> spacedim &gt;</text>
</a>
</g>
</g>
<!-- Node2&#45;&gt;Node1 -->
<g id="edge2" class="edge">
<title>Node2&#45;&gt;Node1</title>
<path fill="none" stroke="#191970" d="M91.1429,-215.2655C91.9817,-182.3447 93.4231,-125.7668 94.1117,-98.7389"/>
<polygon fill="#191970" stroke="#191970" points="87.6395,-215.3602 90.8835,-225.4462 94.6372,-215.5386 87.6395,-215.3602"/>
</g>
<!-- Node6 -->
<g id="node7" class="node">
<title>Node6</title>
<g id="a_node7"><a xlink:href="classFE__DGVector.html" target="_top" xlink:title="FE_DGVector\&lt; PolynomialType,\l dim, spacedim \&gt;">
<polygon fill="#ffffff" stroke="#000000" points="106.5,-157.5 106.5,-187.5 276.5,-187.5 276.5,-157.5 106.5,-157.5"/>
<text text-anchor="start" x="114.5" y="-175.5" font-family="Helvetica,sans-Serif" font-size="10.00" fill="#000000">FE_DGVector&lt; PolynomialType,</text>
<text text-anchor="middle" x="191.5" y="-164.5" font-family="Helvetica,sans-Serif" font-size="10.00" fill="#000000"> dim, spacedim &gt;</text>
</a>
</g>
</g>
<!-- Node2&#45;&gt;Node6 -->
<g id="edge7" class="edge">
<title>Node2&#45;&gt;Node6</title>
<path fill="none" stroke="#191970" d="M121.5871,-219.5701C136.962,-209.2187 155.1687,-196.9607 169.1475,-187.5492"/>
<polygon fill="#191970" stroke="#191970" points="119.2556,-216.9204 112.9152,-225.4086 123.165,-222.727 119.2556,-216.9204"/>
</g>
<!-- Node3 -->
<g id="node4" class="node">
<title>Node3</title>
<g id="a_node4"><a xlink:href="classFiniteElement.html" target="_top" xlink:title="FiniteElement\&lt; dim,\l spacedim \&gt;">
<polygon fill="#ffffff" stroke="#000000" points="32.5,-293.5 32.5,-323.5 148.5,-323.5 148.5,-293.5 32.5,-293.5"/>
<text text-anchor="start" x="40.5" y="-311.5" font-family="Helvetica,sans-Serif" font-size="10.00" fill="#000000">FiniteElement&lt; dim,</text>
<text text-anchor="middle" x="90.5" y="-300.5" font-family="Helvetica,sans-Serif" font-size="10.00" fill="#000000"> spacedim &gt;</text>
</a>
</g>
</g>
<!-- Node3&#45;&gt;Node2 -->
<g id="edge3" class="edge">
<title>Node3&#45;&gt;Node2</title>
<path fill="none" stroke="#191970" d="M90.5,-283.1174C90.5,-273.8378 90.5,-263.6413 90.5,-255.5492"/>
<polygon fill="#191970" stroke="#191970" points="87.0001,-283.4086 90.5,-293.4086 94.0001,-283.4086 87.0001,-283.4086"/>
</g>
<!-- Node4 -->
<g id="node5" class="node">
<title>Node4</title>
<g id="a_node5"><a xlink:href="classSubscriptor.html" target="_top" xlink:title="Subscriptor">
<polygon fill="#ffffff" stroke="#000000" points="0,-367 0,-386 71,-386 71,-367 0,-367"/>
<text text-anchor="middle" x="35.5" y="-374" font-family="Helvetica,sans-Serif" font-size="10.00" fill="#000000">Subscriptor</text>
</a>
</g>
</g>
<!-- Node4&#45;&gt;Node3 -->
<g id="edge4" class="edge">
<title>Node4&#45;&gt;Node3</title>
<path fill="none" stroke="#191970" d="M49.8309,-358.7818C58.6246,-347.9096 69.7701,-334.1297 78.1687,-323.746"/>
<polygon fill="#191970" stroke="#191970" points="46.9476,-356.7811 43.3802,-366.7573 52.3902,-361.1832 46.9476,-356.7811"/>
</g>
<!-- Node5 -->
<g id="node6" class="node">
<title>Node5</title>
<g id="a_node6"><a xlink:href="classFiniteElementData.html" target="_top" xlink:title="FiniteElementData\&lt;\l dim \&gt;">
<polygon fill="#ffffff" stroke="#000000" points="89,-361.5 89,-391.5 204,-391.5 204,-361.5 89,-361.5"/>
<text text-anchor="start" x="97" y="-379.5" font-family="Helvetica,sans-Serif" font-size="10.00" fill="#000000">FiniteElementData&lt;</text>
<text text-anchor="middle" x="146.5" y="-368.5" font-family="Helvetica,sans-Serif" font-size="10.00" fill="#000000"> dim &gt;</text>
</a>
</g>
</g>
<!-- Node5&#45;&gt;Node3 -->
<g id="edge5" class="edge">
<title>Node5&#45;&gt;Node3</title>
<path fill="none" stroke="#191970" d="M127.5715,-353.5153C119.4281,-343.627 110.1371,-332.345 102.8935,-323.5492"/>
<polygon fill="#191970" stroke="#191970" points="125.0129,-355.9143 134.0718,-361.4086 130.4164,-351.4643 125.0129,-355.9143"/>
</g>
<!-- Node6&#45;&gt;Node1 -->
<g id="edge6" class="edge">
<title>Node6&#45;&gt;Node1</title>
<path fill="none" stroke="#ffa500" stroke-dasharray="5,2" d="M167.4334,-150.4183C149.874,-134.307 126.5309,-112.8892 111.0354,-98.6717"/>
<polygon fill="#ffa500" stroke="#ffa500" points="165.3106,-153.2206 175.0453,-157.4024 170.0431,-148.0627 165.3106,-153.2206"/>
<text text-anchor="start" x="154.5" y="-131" font-family="Helvetica,sans-Serif" font-size="10.00" fill="#000000"> &lt; PolynomialsNedelec</text>
<text text-anchor="middle" x="220" y="-120" font-family="Helvetica,sans-Serif" font-size="10.00" fill="#000000">&lt; dim &gt;, dim, spacedim &gt;</text>
</g>
</g>
</svg>
