<?xml version="1.0" encoding="UTF-8" standalone="no"?>
<!DOCTYPE svg PUBLIC "-//W3C//DTD SVG 1.1//EN"
 "http://www.w3.org/Graphics/SVG/1.1/DTD/svg11.dtd">
<!-- Generated by graphviz version 2.40.1 (20161225.0304)
 -->
<!-- Title: hp::QCollection&lt; dim &gt; Pages: 1 -->
<svg width="848pt" height="1115pt"
 viewBox="0.00 0.00 848.00 1115.00" xmlns="http://www.w3.org/2000/svg" xmlns:xlink="http://www.w3.org/1999/xlink">
<g id="graph0" class="graph" transform="scale(1 1) rotate(0) translate(4 1111)">
<title>hp::QCollection&lt; dim &gt;</title>
<polygon fill="#ffffff" stroke="transparent" points="-4,4 -4,-1111 844,-1111 844,4 -4,4"/>
<!-- Node7 -->
<g id="node1" class="node">
<title>Node7</title>
<polygon fill="#bfbfbf" stroke="#000000" points="506.5,-.5 506.5,-134.5 649.5,-134.5 649.5,-.5 506.5,-.5"/>
<text text-anchor="middle" x="578" y="-122.5" font-family="Helvetica,sans-Serif" font-size="10.00" fill="#000000">hp::QCollection&lt; dim &gt;</text>
<polyline fill="none" stroke="#000000" points="506.5,-115.5 649.5,-115.5 "/>
<text text-anchor="middle" x="578" y="-103.5" font-family="Helvetica,sans-Serif" font-size="10.00" fill="#000000"> </text>
<polyline fill="none" stroke="#000000" points="506.5,-96.5 649.5,-96.5 "/>
<text text-anchor="start" x="514.5" y="-84.5" font-family="Helvetica,sans-Serif" font-size="10.00" fill="#000000">+ QCollection()</text>
<text text-anchor="start" x="514.5" y="-73.5" font-family="Helvetica,sans-Serif" font-size="10.00" fill="#000000">+ QCollection()</text>
<text text-anchor="start" x="514.5" y="-62.5" font-family="Helvetica,sans-Serif" font-size="10.00" fill="#000000">+ QCollection()</text>
<text text-anchor="start" x="514.5" y="-51.5" font-family="Helvetica,sans-Serif" font-size="10.00" fill="#000000">+ QCollection()</text>
<text text-anchor="start" x="514.5" y="-40.5" font-family="Helvetica,sans-Serif" font-size="10.00" fill="#000000">+ push_back()</text>
<text text-anchor="start" x="514.5" y="-29.5" font-family="Helvetica,sans-Serif" font-size="10.00" fill="#000000">+ operator==()</text>
<text text-anchor="start" x="514.5" y="-18.5" font-family="Helvetica,sans-Serif" font-size="10.00" fill="#000000">+ max_n_quadrature_points()</text>
<text text-anchor="start" x="514.5" y="-7.5" font-family="Helvetica,sans-Serif" font-size="10.00" fill="#000000">+ DeclException0()</text>
</g>
<!-- Node8 -->
<g id="node2" class="node">
<title>Node8</title>
<g id="a_node2"><a xlink:href="classhp_1_1Collection.html" target="_top" xlink:title="{hp::Collection\&lt; Quadrature\l\&lt; dim \&gt; \&gt;\n||+ Collection()\l+ push_back()\l+ operator[]()\l+ size()\l+ memory_consumption()\l}">
<polygon fill="#ffffff" stroke="#000000" points="423,-172.5 423,-284.5 557,-284.5 557,-172.5 423,-172.5"/>
<text text-anchor="start" x="431" y="-272.5" font-family="Helvetica,sans-Serif" font-size="10.00" fill="#000000">hp::Collection&lt; Quadrature</text>
<text text-anchor="middle" x="490" y="-261.5" font-family="Helvetica,sans-Serif" font-size="10.00" fill="#000000">&lt; dim &gt; &gt;</text>
<polyline fill="none" stroke="#000000" points="423,-254.5 557,-254.5 "/>
<text text-anchor="middle" x="490" y="-242.5" font-family="Helvetica,sans-Serif" font-size="10.00" fill="#000000"> </text>
<polyline fill="none" stroke="#000000" points="423,-235.5 557,-235.5 "/>
<text text-anchor="start" x="431" y="-223.5" font-family="Helvetica,sans-Serif" font-size="10.00" fill="#000000">+ Collection()</text>
<text text-anchor="start" x="431" y="-212.5" font-family="Helvetica,sans-Serif" font-size="10.00" fill="#000000">+ push_back()</text>
<text text-anchor="start" x="431" y="-201.5" font-family="Helvetica,sans-Serif" font-size="10.00" fill="#000000">+ operator[]()</text>
<text text-anchor="start" x="431" y="-190.5" font-family="Helvetica,sans-Serif" font-size="10.00" fill="#000000">+ size()</text>
<text text-anchor="start" x="431" y="-179.5" font-family="Helvetica,sans-Serif" font-size="10.00" fill="#000000">+ memory_consumption()</text>
</a>
</g>
</g>
<!-- Node8&#45;&gt;Node7 -->
<g id="edge1" class="edge">
<title>Node8&#45;&gt;Node7</title>
<path fill="none" stroke="#191970" d="M525.6718,-163.2368C530.837,-153.7869 536.1611,-144.0462 541.3451,-134.5617"/>
<polygon fill="none" stroke="#191970" points="522.5032,-161.7365 520.7781,-172.19 528.6455,-165.0939 522.5032,-161.7365"/>
</g>
<!-- Node9 -->
<g id="node3" class="node">
<title>Node9</title>
<g id="a_node3"><a xlink:href="classSubscriptor.html" target="_top" xlink:title="{Subscriptor\n||+ Subscriptor()\l+ Subscriptor()\l+ Subscriptor()\l+ ~Subscriptor()\l+ operator=()\l+ operator=()\l+ serialize()\l+ subscribe()\l+ unsubscribe()\l+ n_subscriptions()\l+ list_subscribers()\l+ list_subscribers()\l+ ExcInUse()\l+ ExcNoSubscriber()\l&#45; check_no_subscribers()\l* subscribe()\l* unsubscribe()\l* n_subscriptions()\l* list_subscribers()\l* list_subscribers()\l}">
<polygon fill="#ffffff" stroke="#000000" points="278,-481.5 278,-747.5 404,-747.5 404,-481.5 278,-481.5"/>
<text text-anchor="middle" x="341" y="-735.5" font-family="Helvetica,sans-Serif" font-size="10.00" fill="#000000">Subscriptor</text>
<polyline fill="none" stroke="#000000" points="278,-728.5 404,-728.5 "/>
<text text-anchor="middle" x="341" y="-716.5" font-family="Helvetica,sans-Serif" font-size="10.00" fill="#000000"> </text>
<polyline fill="none" stroke="#000000" points="278,-709.5 404,-709.5 "/>
<text text-anchor="start" x="286" y="-697.5" font-family="Helvetica,sans-Serif" font-size="10.00" fill="#000000">+ Subscriptor()</text>
<text text-anchor="start" x="286" y="-686.5" font-family="Helvetica,sans-Serif" font-size="10.00" fill="#000000">+ Subscriptor()</text>
<text text-anchor="start" x="286" y="-675.5" font-family="Helvetica,sans-Serif" font-size="10.00" fill="#000000">+ Subscriptor()</text>
<text text-anchor="start" x="286" y="-664.5" font-family="Helvetica,sans-Serif" font-size="10.00" fill="#000000">+ ~Subscriptor()</text>
<text text-anchor="start" x="286" y="-653.5" font-family="Helvetica,sans-Serif" font-size="10.00" fill="#000000">+ operator=()</text>
<text text-anchor="start" x="286" y="-642.5" font-family="Helvetica,sans-Serif" font-size="10.00" fill="#000000">+ operator=()</text>
<text text-anchor="start" x="286" y="-631.5" font-family="Helvetica,sans-Serif" font-size="10.00" fill="#000000">+ serialize()</text>
<text text-anchor="start" x="286" y="-620.5" font-family="Helvetica,sans-Serif" font-size="10.00" fill="#000000">+ subscribe()</text>
<text text-anchor="start" x="286" y="-609.5" font-family="Helvetica,sans-Serif" font-size="10.00" fill="#000000">+ unsubscribe()</text>
<text text-anchor="start" x="286" y="-598.5" font-family="Helvetica,sans-Serif" font-size="10.00" fill="#000000">+ n_subscriptions()</text>
<text text-anchor="start" x="286" y="-587.5" font-family="Helvetica,sans-Serif" font-size="10.00" fill="#000000">+ list_subscribers()</text>
<text text-anchor="start" x="286" y="-576.5" font-family="Helvetica,sans-Serif" font-size="10.00" fill="#000000">+ list_subscribers()</text>
<text text-anchor="start" x="286" y="-565.5" font-family="Helvetica,sans-Serif" font-size="10.00" fill="#000000">+ ExcInUse()</text>
<text text-anchor="start" x="286" y="-554.5" font-family="Helvetica,sans-Serif" font-size="10.00" fill="#000000">+ ExcNoSubscriber()</text>
<text text-anchor="start" x="286" y="-543.5" font-family="Helvetica,sans-Serif" font-size="10.00" fill="#000000">&#45; check_no_subscribers()</text>
<text text-anchor="start" x="286" y="-532.5" font-family="Helvetica,sans-Serif" font-size="10.00" fill="#000000">* subscribe()</text>
<text text-anchor="start" x="286" y="-521.5" font-family="Helvetica,sans-Serif" font-size="10.00" fill="#000000">* unsubscribe()</text>
<text text-anchor="start" x="286" y="-510.5" font-family="Helvetica,sans-Serif" font-size="10.00" fill="#000000">* n_subscriptions()</text>
<text text-anchor="start" x="286" y="-499.5" font-family="Helvetica,sans-Serif" font-size="10.00" fill="#000000">* list_subscribers()</text>
<text text-anchor="start" x="286" y="-488.5" font-family="Helvetica,sans-Serif" font-size="10.00" fill="#000000">* list_subscribers()</text>
</a>
</g>
</g>
<!-- Node9&#45;&gt;Node8 -->
<g id="edge2" class="edge">
<title>Node9&#45;&gt;Node8</title>
<path fill="none" stroke="#191970" d="M342.0812,-471.157C347.2207,-424.7215 358.1554,-374.3195 380,-332 390.4037,-311.8449 406.3355,-293.4937 422.8718,-278.0283"/>
<polygon fill="none" stroke="#191970" points="338.5786,-471.0052 341.0415,-481.3098 345.5421,-471.7184 338.5786,-471.0052"/>
</g>
<!-- Node25 -->
<g id="node19" class="node">
<title>Node25</title>
<g id="a_node19"><a xlink:href="classhp_1_1Collection.html" target="_top" xlink:title="{hp::Collection\&lt; T \&gt;\n||+ Collection()\l+ push_back()\l+ operator[]()\l+ size()\l+ memory_consumption()\l}">
<polygon fill="#ffffff" stroke="#000000" points="389,-332.5 389,-433.5 517,-433.5 517,-332.5 389,-332.5"/>
<text text-anchor="middle" x="453" y="-421.5" font-family="Helvetica,sans-Serif" font-size="10.00" fill="#000000">hp::Collection&lt; T &gt;</text>
<polyline fill="none" stroke="#000000" points="389,-414.5 517,-414.5 "/>
<text text-anchor="middle" x="453" y="-402.5" font-family="Helvetica,sans-Serif" font-size="10.00" fill="#000000"> </text>
<polyline fill="none" stroke="#000000" points="389,-395.5 517,-395.5 "/>
<text text-anchor="start" x="397" y="-383.5" font-family="Helvetica,sans-Serif" font-size="10.00" fill="#000000">+ Collection()</text>
<text text-anchor="start" x="397" y="-372.5" font-family="Helvetica,sans-Serif" font-size="10.00" fill="#000000">+ push_back()</text>
<text text-anchor="start" x="397" y="-361.5" font-family="Helvetica,sans-Serif" font-size="10.00" fill="#000000">+ operator[]()</text>
<text text-anchor="start" x="397" y="-350.5" font-family="Helvetica,sans-Serif" font-size="10.00" fill="#000000">+ size()</text>
<text text-anchor="start" x="397" y="-339.5" font-family="Helvetica,sans-Serif" font-size="10.00" fill="#000000">+ memory_consumption()</text>
</a>
</g>
</g>
<!-- Node9&#45;&gt;Node25 -->
<g id="edge21" class="edge">
<title>Node9&#45;&gt;Node25</title>
<path fill="none" stroke="#191970" d="M408.4763,-475.0288C415.5582,-460.3908 422.3842,-446.2817 428.4747,-433.693"/>
<polygon fill="none" stroke="#191970" points="405.2426,-473.6763 404.0381,-484.2025 411.5439,-476.725 405.2426,-473.6763"/>
</g>
<!-- Node10 -->
<g id="node4" class="node">
<title>Node10</title>
<polygon fill="#ffffff" stroke="#bfbfbf" points="0,-806.5 0,-874.5 110,-874.5 110,-806.5 0,-806.5"/>
<text text-anchor="start" x="8" y="-862.5" font-family="Helvetica,sans-Serif" font-size="10.00" fill="#000000">std::map&lt; std::string,</text>
<text text-anchor="middle" x="55" y="-851.5" font-family="Helvetica,sans-Serif" font-size="10.00" fill="#000000"> unsigned int &gt;</text>
<polyline fill="none" stroke="#bfbfbf" points="0,-844.5 110,-844.5 "/>
<text text-anchor="middle" x="55" y="-832.5" font-family="Helvetica,sans-Serif" font-size="10.00" fill="#000000"> </text>
<polyline fill="none" stroke="#bfbfbf" points="0,-825.5 110,-825.5 "/>
<text text-anchor="middle" x="55" y="-813.5" font-family="Helvetica,sans-Serif" font-size="10.00" fill="#000000"> </text>
</g>
<!-- Node10&#45;&gt;Node9 -->
<g id="edge3" class="edge">
<title>Node10&#45;&gt;Node9</title>
<path fill="none" stroke="#404040" d="M98.1267,-806.4208C143.1729,-770.8249 214.6281,-714.3603 268.3942,-671.8739"/>
<polygon fill="none" stroke="#404040" points="268.4626,-671.8198 270.6902,-664.9613 277.8779,-664.3797 275.6503,-671.2382 268.4626,-671.8198"/>
<text text-anchor="middle" x="178.5" y="-774.5" font-family="Helvetica,sans-Serif" font-size="10.00" fill="#000000"> &#45;counter_map</text>
</g>
<!-- Node11 -->
<g id="node5" class="node">
<title>Node11</title>
<g id="a_node5"><a xlink:href="classint.html" target="_top" xlink:title="{int\n||}">
<polygon fill="#ffffff" stroke="#000000" points="4.5,-933.5 4.5,-990.5 33.5,-990.5 33.5,-933.5 4.5,-933.5"/>
<text text-anchor="middle" x="19" y="-978.5" font-family="Helvetica,sans-Serif" font-size="10.00" fill="#000000">int</text>
<polyline fill="none" stroke="#000000" points="4.5,-971.5 33.5,-971.5 "/>
<text text-anchor="middle" x="19" y="-959.5" font-family="Helvetica,sans-Serif" font-size="10.00" fill="#000000"> </text>
<polyline fill="none" stroke="#000000" points="4.5,-952.5 33.5,-952.5 "/>
<text text-anchor="middle" x="19" y="-940.5" font-family="Helvetica,sans-Serif" font-size="10.00" fill="#000000"> </text>
</a>
</g>
</g>
<!-- Node11&#45;&gt;Node10 -->
<g id="edge4" class="edge">
<title>Node11&#45;&gt;Node10</title>
<path fill="none" stroke="#404040" d="M15.8141,-933.2281C15.3296,-920.6226 16.0187,-905.8138 20,-893 20.7923,-890.4501 21.751,-887.9098 22.8372,-885.4005"/>
<polygon fill="none" stroke="#404040" points="22.858,-885.3595 22.0113,-878.1982 28.2961,-874.6624 29.1427,-881.8236 22.858,-885.3595"/>
<text text-anchor="middle" x="44.5" y="-901.5" font-family="Helvetica,sans-Serif" font-size="10.00" fill="#000000"> +elements</text>
</g>
<!-- Node12 -->
<g id="node6" class="node">
<title>Node12</title>
<g id="a_node6"><a xlink:title="STL class. ">
<polygon fill="#ffffff" stroke="#bfbfbf" points="61,-933.5 61,-990.5 121,-990.5 121,-933.5 61,-933.5"/>
<text text-anchor="middle" x="91" y="-978.5" font-family="Helvetica,sans-Serif" font-size="10.00" fill="#000000">std::string</text>
<polyline fill="none" stroke="#bfbfbf" points="61,-971.5 121,-971.5 "/>
<text text-anchor="middle" x="91" y="-959.5" font-family="Helvetica,sans-Serif" font-size="10.00" fill="#000000"> </text>
<polyline fill="none" stroke="#bfbfbf" points="61,-952.5 121,-952.5 "/>
<text text-anchor="middle" x="91" y="-940.5" font-family="Helvetica,sans-Serif" font-size="10.00" fill="#000000"> </text>
</a>
</g>
</g>
<!-- Node12&#45;&gt;Node10 -->
<g id="edge5" class="edge">
<title>Node12&#45;&gt;Node10</title>
<path fill="none" stroke="#404040" d="M82.4685,-933.2062C78.3263,-919.2262 73.2488,-902.0898 68.5911,-886.37"/>
<polygon fill="none" stroke="#404040" points="68.5427,-886.2063 63.0029,-881.5899 65.1336,-874.7007 70.6733,-879.3172 68.5427,-886.2063"/>
<text text-anchor="middle" x="92.5" y="-901.5" font-family="Helvetica,sans-Serif" font-size="10.00" fill="#000000"> +keys</text>
</g>
<!-- Node13 -->
<g id="node7" class="node">
<title>Node13</title>
<g id="a_node7"><a xlink:title="STL class. ">
<polygon fill="#ffffff" stroke="#bfbfbf" points="43.5,-1038.5 43.5,-1106.5 138.5,-1106.5 138.5,-1038.5 43.5,-1038.5"/>
<text text-anchor="start" x="51.5" y="-1094.5" font-family="Helvetica,sans-Serif" font-size="10.00" fill="#000000">std::basic_string&lt;</text>
<text text-anchor="middle" x="91" y="-1083.5" font-family="Helvetica,sans-Serif" font-size="10.00" fill="#000000"> char &gt;</text>
<polyline fill="none" stroke="#bfbfbf" points="43.5,-1076.5 138.5,-1076.5 "/>
<text text-anchor="middle" x="91" y="-1064.5" font-family="Helvetica,sans-Serif" font-size="10.00" fill="#000000"> </text>
<polyline fill="none" stroke="#bfbfbf" points="43.5,-1057.5 138.5,-1057.5 "/>
<text text-anchor="middle" x="91" y="-1045.5" font-family="Helvetica,sans-Serif" font-size="10.00" fill="#000000"> </text>
</a>
</g>
</g>
<!-- Node13&#45;&gt;Node12 -->
<g id="edge6" class="edge">
<title>Node13&#45;&gt;Node12</title>
<path fill="none" stroke="#191970" d="M91,-1028.0661C91,-1015.4172 91,-1001.9812 91,-990.5519"/>
<polygon fill="none" stroke="#191970" points="87.5001,-1028.4447 91,-1038.4447 94.5001,-1028.4447 87.5001,-1028.4447"/>
</g>
<!-- Node14 -->
<g id="node8" class="node">
<title>Node14</title>
<g id="a_node8"><a xlink:title="STL class. ">
<polygon fill="#ffffff" stroke="#bfbfbf" points="168,-933.5 168,-990.5 260,-990.5 260,-933.5 168,-933.5"/>
<text text-anchor="middle" x="214" y="-978.5" font-family="Helvetica,sans-Serif" font-size="10.00" fill="#000000">std::map&lt; K, T &gt;</text>
<polyline fill="none" stroke="#bfbfbf" points="168,-971.5 260,-971.5 "/>
<text text-anchor="middle" x="214" y="-959.5" font-family="Helvetica,sans-Serif" font-size="10.00" fill="#000000"> </text>
<polyline fill="none" stroke="#bfbfbf" points="168,-952.5 260,-952.5 "/>
<text text-anchor="middle" x="214" y="-940.5" font-family="Helvetica,sans-Serif" font-size="10.00" fill="#000000"> </text>
</a>
</g>
</g>
<!-- Node14&#45;&gt;Node10 -->
<g id="edge7" class="edge">
<title>Node14&#45;&gt;Node10</title>
<path fill="none" stroke="#ffa500" d="M168.2838,-927.0659C146.7541,-910.614 121.1634,-891.0588 99.7565,-874.7007"/>
<polygon fill="#ffa500" stroke="#ffa500" points="166.2484,-929.9154 176.3192,-933.2062 170.4986,-924.3534 166.2484,-929.9154"/>
<text text-anchor="start" x="148" y="-907" font-family="Helvetica,sans-Serif" font-size="10.00" fill="#000000"> &lt; std::string, unsigned</text>
<text text-anchor="middle" x="198.5" y="-896" font-family="Helvetica,sans-Serif" font-size="10.00" fill="#000000"> int &gt;</text>
</g>
<!-- Node15 -->
<g id="node9" class="node">
<title>Node15</title>
<polygon fill="#ffffff" stroke="#bfbfbf" points="199.5,-1044 199.5,-1101 228.5,-1101 228.5,-1044 199.5,-1044"/>
<text text-anchor="middle" x="214" y="-1089" font-family="Helvetica,sans-Serif" font-size="10.00" fill="#000000">K</text>
<polyline fill="none" stroke="#bfbfbf" points="199.5,-1082 228.5,-1082 "/>
<text text-anchor="middle" x="214" y="-1070" font-family="Helvetica,sans-Serif" font-size="10.00" fill="#000000"> </text>
<polyline fill="none" stroke="#bfbfbf" points="199.5,-1063 228.5,-1063 "/>
<text text-anchor="middle" x="214" y="-1051" font-family="Helvetica,sans-Serif" font-size="10.00" fill="#000000"> </text>
</g>
<!-- Node15&#45;&gt;Node14 -->
<g id="edge8" class="edge">
<title>Node15&#45;&gt;Node14</title>
<path fill="none" stroke="#404040" d="M214,-1043.7559C214,-1031.2224 214,-1016.3039 214,-1002.6631"/>
<polygon fill="none" stroke="#404040" points="214.0001,-1002.6002 210,-996.6002 214,-990.6002 218,-996.6002 214.0001,-1002.6002"/>
<text text-anchor="middle" x="229.5" y="-1012" font-family="Helvetica,sans-Serif" font-size="10.00" fill="#000000"> +keys</text>
</g>
<!-- Node16 -->
<g id="node10" class="node">
<title>Node16</title>
<polygon fill="#ffffff" stroke="#bfbfbf" points="405.5,-1044 405.5,-1101 434.5,-1101 434.5,-1044 405.5,-1044"/>
<text text-anchor="middle" x="420" y="-1089" font-family="Helvetica,sans-Serif" font-size="10.00" fill="#000000">T</text>
<polyline fill="none" stroke="#bfbfbf" points="405.5,-1082 434.5,-1082 "/>
<text text-anchor="middle" x="420" y="-1070" font-family="Helvetica,sans-Serif" font-size="10.00" fill="#000000"> </text>
<polyline fill="none" stroke="#bfbfbf" points="405.5,-1063 434.5,-1063 "/>
<text text-anchor="middle" x="420" y="-1051" font-family="Helvetica,sans-Serif" font-size="10.00" fill="#000000"> </text>
</g>
<!-- Node16&#45;&gt;Node14 -->
<g id="edge9" class="edge">
<title>Node16&#45;&gt;Node14</title>
<path fill="none" stroke="#404040" d="M405.185,-1064.5531C377.5132,-1049.7097 316.6466,-1017.0604 270.9766,-992.5627"/>
<polygon fill="none" stroke="#404040" points="270.8854,-992.5138 263.7072,-993.2025 260.3106,-986.8414 267.4888,-986.1527 270.8854,-992.5138"/>
<text text-anchor="middle" x="341.5" y="-1012" font-family="Helvetica,sans-Serif" font-size="10.00" fill="#000000"> +elements</text>
</g>
<!-- Node21 -->
<g id="node15" class="node">
<title>Node21</title>
<g id="a_node15"><a xlink:title="STL class. ">
<polygon fill="#ffffff" stroke="#bfbfbf" points="500.5,-933.5 500.5,-990.5 587.5,-990.5 587.5,-933.5 500.5,-933.5"/>
<text text-anchor="middle" x="544" y="-978.5" font-family="Helvetica,sans-Serif" font-size="10.00" fill="#000000">std::vector&lt; T &gt;</text>
<polyline fill="none" stroke="#bfbfbf" points="500.5,-971.5 587.5,-971.5 "/>
<text text-anchor="middle" x="544" y="-959.5" font-family="Helvetica,sans-Serif" font-size="10.00" fill="#000000"> </text>
<polyline fill="none" stroke="#bfbfbf" points="500.5,-952.5 587.5,-952.5 "/>
<text text-anchor="middle" x="544" y="-940.5" font-family="Helvetica,sans-Serif" font-size="10.00" fill="#000000"> </text>
</a>
</g>
</g>
<!-- Node16&#45;&gt;Node21 -->
<g id="edge15" class="edge">
<title>Node16&#45;&gt;Node21</title>
<path fill="none" stroke="#404040" d="M434.7114,-1059.3903C451.4187,-1044.5019 479.4055,-1019.5621 502.8745,-998.6482"/>
<polygon fill="none" stroke="#404040" points="502.9858,-998.549 504.8041,-991.5709 511.9447,-990.5654 510.1265,-997.5435 502.9858,-998.549"/>
<text text-anchor="middle" x="513.5" y="-1012" font-family="Helvetica,sans-Serif" font-size="10.00" fill="#000000"> +elements</text>
</g>
<!-- Node17 -->
<g id="node11" class="node">
<title>Node17</title>
<polygon fill="#ffffff" stroke="#bfbfbf" points="128,-812 128,-869 244,-869 244,-812 128,-812"/>
<text text-anchor="middle" x="186" y="-857" font-family="Helvetica,sans-Serif" font-size="10.00" fill="#000000">atomic&lt; unsigned int &gt;</text>
<polyline fill="none" stroke="#bfbfbf" points="128,-850 244,-850 "/>
<text text-anchor="middle" x="186" y="-838" font-family="Helvetica,sans-Serif" font-size="10.00" fill="#000000"> </text>
<polyline fill="none" stroke="#bfbfbf" points="128,-831 244,-831 "/>
<text text-anchor="middle" x="186" y="-819" font-family="Helvetica,sans-Serif" font-size="10.00" fill="#000000"> </text>
</g>
<!-- Node17&#45;&gt;Node9 -->
<g id="edge10" class="edge">
<title>Node17&#45;&gt;Node9</title>
<path fill="none" stroke="#404040" d="M205.6309,-811.8769C222.2018,-787.7155 246.9734,-751.5968 270.8137,-716.8362"/>
<polygon fill="none" stroke="#404040" points="271.0505,-716.4909 271.1453,-709.2804 277.8377,-706.5947 277.7428,-713.8052 271.0505,-716.4909"/>
<text text-anchor="middle" x="255.5" y="-774.5" font-family="Helvetica,sans-Serif" font-size="10.00" fill="#000000"> &#45;counter</text>
</g>
<!-- Node18 -->
<g id="node12" class="node">
<title>Node18</title>
<polygon fill="#ffffff" stroke="#bfbfbf" points="262,-812 262,-869 306,-869 306,-812 262,-812"/>
<text text-anchor="middle" x="284" y="-857" font-family="Helvetica,sans-Serif" font-size="10.00" fill="#000000">mutex</text>
<polyline fill="none" stroke="#bfbfbf" points="262,-850 306,-850 "/>
<text text-anchor="middle" x="284" y="-838" font-family="Helvetica,sans-Serif" font-size="10.00" fill="#000000"> </text>
<polyline fill="none" stroke="#bfbfbf" points="262,-831 306,-831 "/>
<text text-anchor="middle" x="284" y="-819" font-family="Helvetica,sans-Serif" font-size="10.00" fill="#000000"> </text>
</g>
<!-- Node18&#45;&gt;Node9 -->
<g id="edge11" class="edge">
<title>Node18&#45;&gt;Node9</title>
<path fill="none" stroke="#404040" d="M288.7801,-811.7163C291.2449,-797.8376 294.4724,-780.9882 298,-766 298.5065,-763.848 299.0239,-761.6808 299.551,-759.5016"/>
<polygon fill="none" stroke="#404040" points="299.5763,-759.399 297.1328,-752.6145 302.4556,-747.7495 304.8991,-754.534 299.5763,-759.399"/>
<text text-anchor="middle" x="315" y="-774.5" font-family="Helvetica,sans-Serif" font-size="10.00" fill="#000000"> &#45;mutex</text>
</g>
<!-- Node19 -->
<g id="node13" class="node">
<title>Node19</title>
<polygon fill="#ffffff" stroke="#bfbfbf" points="324.5,-806.5 324.5,-874.5 445.5,-874.5 445.5,-806.5 324.5,-806.5"/>
<text text-anchor="start" x="332.5" y="-862.5" font-family="Helvetica,sans-Serif" font-size="10.00" fill="#000000">std::vector&lt; std::atomic</text>
<text text-anchor="middle" x="385" y="-851.5" font-family="Helvetica,sans-Serif" font-size="10.00" fill="#000000">&lt; bool &gt; *&gt;</text>
<polyline fill="none" stroke="#bfbfbf" points="324.5,-844.5 445.5,-844.5 "/>
<text text-anchor="middle" x="385" y="-832.5" font-family="Helvetica,sans-Serif" font-size="10.00" fill="#000000"> </text>
<polyline fill="none" stroke="#bfbfbf" points="324.5,-825.5 445.5,-825.5 "/>
<text text-anchor="middle" x="385" y="-813.5" font-family="Helvetica,sans-Serif" font-size="10.00" fill="#000000"> </text>
</g>
<!-- Node19&#45;&gt;Node9 -->
<g id="edge12" class="edge">
<title>Node19&#45;&gt;Node9</title>
<path fill="none" stroke="#404040" d="M351.7805,-806.3999C347.7921,-800.6387 344.3175,-794.4283 342,-788 338.7318,-778.9344 336.2648,-769.4251 334.4498,-759.7245"/>
<polygon fill="none" stroke="#404040" points="334.4403,-759.664 329.5448,-754.3693 332.5493,-747.8139 337.4448,-753.1087 334.4403,-759.664"/>
<text text-anchor="middle" x="380.5" y="-774.5" font-family="Helvetica,sans-Serif" font-size="10.00" fill="#000000"> &#45;validity_pointers</text>
</g>
<!-- Node20 -->
<g id="node14" class="node">
<title>Node20</title>
<polygon fill="#ffffff" stroke="#bfbfbf" points="340.5,-933.5 340.5,-990.5 429.5,-990.5 429.5,-933.5 340.5,-933.5"/>
<text text-anchor="middle" x="385" y="-978.5" font-family="Helvetica,sans-Serif" font-size="10.00" fill="#000000">atomic&lt; bool &gt; *</text>
<polyline fill="none" stroke="#bfbfbf" points="340.5,-971.5 429.5,-971.5 "/>
<text text-anchor="middle" x="385" y="-959.5" font-family="Helvetica,sans-Serif" font-size="10.00" fill="#000000"> </text>
<polyline fill="none" stroke="#bfbfbf" points="340.5,-952.5 429.5,-952.5 "/>
<text text-anchor="middle" x="385" y="-940.5" font-family="Helvetica,sans-Serif" font-size="10.00" fill="#000000"> </text>
</g>
<!-- Node20&#45;&gt;Node19 -->
<g id="edge13" class="edge">
<title>Node20&#45;&gt;Node19</title>
<path fill="none" stroke="#404040" d="M385,-933.2062C385,-919.3632 385,-902.4255 385,-886.8327"/>
<polygon fill="none" stroke="#404040" points="385.0001,-886.7007 381,-880.7008 385,-874.7007 389,-880.7007 385.0001,-886.7007"/>
<text text-anchor="middle" x="409.5" y="-901.5" font-family="Helvetica,sans-Serif" font-size="10.00" fill="#000000"> +elements</text>
</g>
<!-- Node21&#45;&gt;Node19 -->
<g id="edge14" class="edge">
<title>Node21&#45;&gt;Node19</title>
<path fill="none" stroke="#ffa500" d="M491.7107,-935.1441C481.2206,-929.0027 470.5086,-922.1588 461,-915 458.5645,-913.1663 438.4345,-893.4164 419.5051,-874.7138"/>
<polygon fill="#ffa500" stroke="#ffa500" points="490.0195,-938.2088 500.4389,-940.1292 493.4912,-932.1304 490.0195,-938.2088"/>
<text text-anchor="middle" x="516" y="-901.5" font-family="Helvetica,sans-Serif" font-size="10.00" fill="#000000"> &lt; std::atomic&lt; bool &gt; *&gt;</text>
</g>
<!-- Node23 -->
<g id="node17" class="node">
<title>Node23</title>
<polygon fill="#ffffff" stroke="#bfbfbf" points="569.5,-343.5 569.5,-422.5 690.5,-422.5 690.5,-343.5 569.5,-343.5"/>
<text text-anchor="start" x="577.5" y="-410.5" font-family="Helvetica,sans-Serif" font-size="10.00" fill="#000000">std::vector&lt; std::shared</text>
<text text-anchor="start" x="577.5" y="-399.5" font-family="Helvetica,sans-Serif" font-size="10.00" fill="#000000">_ptr&lt; const Quadrature</text>
<text text-anchor="middle" x="630" y="-388.5" font-family="Helvetica,sans-Serif" font-size="10.00" fill="#000000">&lt; dim &gt; &gt; &gt;</text>
<polyline fill="none" stroke="#bfbfbf" points="569.5,-381.5 690.5,-381.5 "/>
<text text-anchor="middle" x="630" y="-369.5" font-family="Helvetica,sans-Serif" font-size="10.00" fill="#000000"> </text>
<polyline fill="none" stroke="#bfbfbf" points="569.5,-362.5 690.5,-362.5 "/>
<text text-anchor="middle" x="630" y="-350.5" font-family="Helvetica,sans-Serif" font-size="10.00" fill="#000000"> </text>
</g>
<!-- Node21&#45;&gt;Node23 -->
<g id="edge19" class="edge">
<title>Node21&#45;&gt;Node23</title>
<path fill="none" stroke="#ffa500" d="M597.5104,-954.6528C623.7624,-948.3527 653.7893,-936.6657 673,-915 723.5672,-857.9707 703.276,-823.7184 712,-748 725.5825,-630.1132 752.5089,-592.5384 712,-481 704.1241,-459.3143 689.1142,-439.0744 674.0664,-422.6846"/>
<polygon fill="#ffa500" stroke="#ffa500" points="596.6819,-951.2513 587.6644,-956.8132 598.1822,-958.0886 596.6819,-951.2513"/>
<text text-anchor="start" x="710" y="-780" font-family="Helvetica,sans-Serif" font-size="10.00" fill="#000000"> &lt; std::shared_ptr&lt;</text>
<text text-anchor="middle" x="775" y="-769" font-family="Helvetica,sans-Serif" font-size="10.00" fill="#000000"> const Quadrature&lt; dim &gt; &gt; &gt;</text>
</g>
<!-- Node26 -->
<g id="node20" class="node">
<title>Node26</title>
<polygon fill="#ffffff" stroke="#bfbfbf" points="544.5,-806.5 544.5,-874.5 665.5,-874.5 665.5,-806.5 544.5,-806.5"/>
<text text-anchor="start" x="552.5" y="-862.5" font-family="Helvetica,sans-Serif" font-size="10.00" fill="#000000">std::vector&lt; std::shared</text>
<text text-anchor="middle" x="605" y="-851.5" font-family="Helvetica,sans-Serif" font-size="10.00" fill="#000000">_ptr&lt; const T &gt; &gt;</text>
<polyline fill="none" stroke="#bfbfbf" points="544.5,-844.5 665.5,-844.5 "/>
<text text-anchor="middle" x="605" y="-832.5" font-family="Helvetica,sans-Serif" font-size="10.00" fill="#000000"> </text>
<polyline fill="none" stroke="#bfbfbf" points="544.5,-825.5 665.5,-825.5 "/>
<text text-anchor="middle" x="605" y="-813.5" font-family="Helvetica,sans-Serif" font-size="10.00" fill="#000000"> </text>
</g>
<!-- Node21&#45;&gt;Node26 -->
<g id="edge24" class="edge">
<title>Node21&#45;&gt;Node26</title>
<path fill="none" stroke="#ffa500" d="M569.445,-924.8821C571.4072,-921.5886 573.2878,-918.2653 575,-915 581.7342,-902.1574 587.948,-887.4541 592.9529,-874.5213"/>
<polygon fill="#ffa500" stroke="#ffa500" points="566.4153,-923.1266 564.1198,-933.4698 572.3643,-926.8156 566.4153,-923.1266"/>
<text text-anchor="start" x="585" y="-907" font-family="Helvetica,sans-Serif" font-size="10.00" fill="#000000"> &lt; std::shared_ptr&lt;</text>
<text text-anchor="middle" x="627" y="-896" font-family="Helvetica,sans-Serif" font-size="10.00" fill="#000000"> const T &gt; &gt;</text>
</g>
<!-- Node22 -->
<g id="node16" class="node">
<title>Node22</title>
<polygon fill="#ffffff" stroke="#bfbfbf" points="463.5,-812 463.5,-869 526.5,-869 526.5,-812 463.5,-812"/>
<text text-anchor="middle" x="495" y="-857" font-family="Helvetica,sans-Serif" font-size="10.00" fill="#000000">type_info *</text>
<polyline fill="none" stroke="#bfbfbf" points="463.5,-850 526.5,-850 "/>
<text text-anchor="middle" x="495" y="-838" font-family="Helvetica,sans-Serif" font-size="10.00" fill="#000000"> </text>
<polyline fill="none" stroke="#bfbfbf" points="463.5,-831 526.5,-831 "/>
<text text-anchor="middle" x="495" y="-819" font-family="Helvetica,sans-Serif" font-size="10.00" fill="#000000"> </text>
</g>
<!-- Node22&#45;&gt;Node9 -->
<g id="edge16" class="edge">
<title>Node22&#45;&gt;Node9</title>
<path fill="none" stroke="#404040" d="M463.2847,-811.795C455.8955,-804.3934 448.3416,-796.1938 442,-788 431.063,-773.8687 420.4558,-758.4388 410.4849,-742.7971"/>
<polygon fill="none" stroke="#404040" points="410.4026,-742.6658 403.8261,-739.7076 404.0274,-732.4992 410.6038,-735.4575 410.4026,-742.6658"/>
<text text-anchor="middle" x="469" y="-774.5" font-family="Helvetica,sans-Serif" font-size="10.00" fill="#000000"> &#45;object_info</text>
</g>
<!-- Node23&#45;&gt;Node7 -->
<g id="edge25" class="edge">
<title>Node23&#45;&gt;Node7</title>
<path fill="none" stroke="#404040" d="M623.4668,-343.3612C615.373,-294.2538 601.3902,-209.4157 591.0624,-146.7538"/>
<polygon fill="none" stroke="#404040" points="591,-146.3745 586.0775,-141.1049 589.0484,-134.5342 593.971,-139.8038 591,-146.3745"/>
<text text-anchor="middle" x="642" y="-226" font-family="Helvetica,sans-Serif" font-size="10.00" fill="#000000"> &#45;quadratures</text>
</g>
<!-- Node23&#45;&gt;Node8 -->
<g id="edge17" class="edge">
<title>Node23&#45;&gt;Node8</title>
<path fill="none" stroke="#404040" d="M593.9465,-343.2124C580.3432,-328.2001 564.483,-310.6973 549.3092,-293.952"/>
<polygon fill="none" stroke="#404040" points="549.0264,-293.6399 542.0334,-291.8796 540.9687,-284.7476 547.9617,-286.5078 549.0264,-293.6399"/>
<text text-anchor="middle" x="582" y="-306" font-family="Helvetica,sans-Serif" font-size="10.00" fill="#000000"> &#45;entries</text>
</g>
<!-- Node24 -->
<g id="node18" class="node">
<title>Node24</title>
<g id="a_node18"><a xlink:href="classstd_1_1shared__ptr_3_01const_01Quadrature_3_01dim_01_4_01_4.html" target="_top" xlink:title="{shared_ptr\&lt; const Quadrature\l\&lt; dim \&gt; \&gt;\n||}">
<polygon fill="#ffffff" stroke="#000000" points="557,-580.5 557,-648.5 703,-648.5 703,-580.5 557,-580.5"/>
<text text-anchor="start" x="565" y="-636.5" font-family="Helvetica,sans-Serif" font-size="10.00" fill="#000000">shared_ptr&lt; const Quadrature</text>
<text text-anchor="middle" x="630" y="-625.5" font-family="Helvetica,sans-Serif" font-size="10.00" fill="#000000">&lt; dim &gt; &gt;</text>
<polyline fill="none" stroke="#000000" points="557,-618.5 703,-618.5 "/>
<text text-anchor="middle" x="630" y="-606.5" font-family="Helvetica,sans-Serif" font-size="10.00" fill="#000000"> </text>
<polyline fill="none" stroke="#000000" points="557,-599.5 703,-599.5 "/>
<text text-anchor="middle" x="630" y="-587.5" font-family="Helvetica,sans-Serif" font-size="10.00" fill="#000000"> </text>
</a>
</g>
</g>
<!-- Node24&#45;&gt;Node23 -->
<g id="edge18" class="edge">
<title>Node24&#45;&gt;Node23</title>
<path fill="none" stroke="#404040" d="M630,-580.3414C630,-541.9434 630,-479.1721 630,-434.7469"/>
<polygon fill="none" stroke="#404040" points="630.0001,-434.7387 626,-428.7387 630,-422.7387 634,-428.7386 630.0001,-434.7387"/>
<text text-anchor="middle" x="654.5" y="-455" font-family="Helvetica,sans-Serif" font-size="10.00" fill="#000000"> +elements</text>
</g>
<!-- Node25&#45;&gt;Node8 -->
<g id="edge20" class="edge">
<title>Node25&#45;&gt;Node8</title>
<path fill="none" stroke="#ffa500" d="M450.9863,-322.0668C451.5949,-315.5813 452.5581,-309.122 454,-303 455.4161,-296.9876 457.3722,-290.8931 459.6469,-284.9137"/>
<polygon fill="#ffa500" stroke="#ffa500" points="447.4815,-322.0236 450.304,-332.2355 454.4658,-322.4923 447.4815,-322.0236"/>
<text text-anchor="middle" x="505.5" y="-306" font-family="Helvetica,sans-Serif" font-size="10.00" fill="#000000"> &lt; Quadrature&lt; dim &gt; &gt;</text>
</g>
<!-- Node26&#45;&gt;Node25 -->
<g id="edge22" class="edge">
<title>Node26&#45;&gt;Node25</title>
<path fill="none" stroke="#404040" d="M559.9167,-806.3043C542.2169,-790.4982 523.4378,-770.2859 512,-748 462.094,-650.761 452.4743,-521.4025 451.6281,-445.6684"/>
<polygon fill="none" stroke="#404040" points="451.6274,-445.5332 447.5952,-439.5548 451.5629,-433.5334 455.5951,-439.5118 451.6274,-445.5332"/>
<text text-anchor="middle" x="530" y="-612" font-family="Helvetica,sans-Serif" font-size="10.00" fill="#000000"> &#45;entries</text>
</g>
<!-- Node27 -->
<g id="node21" class="node">
<title>Node27</title>
<polygon fill="#ffffff" stroke="#bfbfbf" points="707.5,-933.5 707.5,-990.5 820.5,-990.5 820.5,-933.5 707.5,-933.5"/>
<text text-anchor="middle" x="764" y="-978.5" font-family="Helvetica,sans-Serif" font-size="10.00" fill="#000000">shared_ptr&lt; const T &gt;</text>
<polyline fill="none" stroke="#bfbfbf" points="707.5,-971.5 820.5,-971.5 "/>
<text text-anchor="middle" x="764" y="-959.5" font-family="Helvetica,sans-Serif" font-size="10.00" fill="#000000"> </text>
<polyline fill="none" stroke="#bfbfbf" points="707.5,-952.5 820.5,-952.5 "/>
<text text-anchor="middle" x="764" y="-940.5" font-family="Helvetica,sans-Serif" font-size="10.00" fill="#000000"> </text>
</g>
<!-- Node27&#45;&gt;Node26 -->
<g id="edge23" class="edge">
<title>Node27&#45;&gt;Node26</title>
<path fill="none" stroke="#404040" d="M726.3192,-933.2062C706.3204,-917.9241 681.386,-898.8704 659.3325,-882.0182"/>
<polygon fill="none" stroke="#404040" points="659.2914,-881.9868 652.0953,-881.5221 649.7565,-874.7007 656.9527,-875.1655 659.2914,-881.9868"/>
<text text-anchor="middle" x="722.5" y="-901.5" font-family="Helvetica,sans-Serif" font-size="10.00" fill="#000000"> +elements</text>
</g>
</g>
</svg>
