<?xml version="1.0" encoding="UTF-8" standalone="no"?>
<!DOCTYPE svg PUBLIC "-//W3C//DTD SVG 1.1//EN"
 "http://www.w3.org/Graphics/SVG/1.1/DTD/svg11.dtd">
<!-- Generated by graphviz version 2.40.1 (20161225.0304)
 -->
<!-- Title: Polynomials::HermiteLikeInterpolation Pages: 1 -->
<svg width="229pt" height="242pt"
 viewBox="0.00 0.00 229.00 242.00" xmlns="http://www.w3.org/2000/svg" xmlns:xlink="http://www.w3.org/1999/xlink">
<g id="graph0" class="graph" transform="scale(1 1) rotate(0) translate(4 238)">
<title>Polynomials::HermiteLikeInterpolation</title>
<polygon fill="#ffffff" stroke="transparent" points="-4,4 -4,-238 225,-238 225,4 -4,4"/>
<!-- Node0 -->
<g id="node1" class="node">
<title>Node0</title>
<polygon fill="#bfbfbf" stroke="#000000" points="0,-.5 0,-30.5 143,-30.5 143,-.5 0,-.5"/>
<text text-anchor="start" x="8" y="-18.5" font-family="Helvetica,sans-Serif" font-size="10.00" fill="#000000">Polynomials::HermiteLike</text>
<text text-anchor="middle" x="71.5" y="-7.5" font-family="Helvetica,sans-Serif" font-size="10.00" fill="#000000">Interpolation</text>
</g>
<!-- Node1 -->
<g id="node2" class="node">
<title>Node1</title>
<g id="a_node2"><a xlink:href="classPolynomials_1_1Polynomial.html" target="_top" xlink:title="Polynomials::Polynomial\l\&lt; double \&gt;">
<polygon fill="#ffffff" stroke="#000000" points="3,-68.5 3,-98.5 140,-98.5 140,-68.5 3,-68.5"/>
<text text-anchor="start" x="11" y="-86.5" font-family="Helvetica,sans-Serif" font-size="10.00" fill="#000000">Polynomials::Polynomial</text>
<text text-anchor="middle" x="71.5" y="-75.5" font-family="Helvetica,sans-Serif" font-size="10.00" fill="#000000">&lt; double &gt;</text>
</a>
</g>
</g>
<!-- Node1&#45;&gt;Node0 -->
<g id="edge1" class="edge">
<title>Node1&#45;&gt;Node0</title>
<path fill="none" stroke="#191970" d="M71.5,-58.1174C71.5,-48.8378 71.5,-38.6413 71.5,-30.5492"/>
<polygon fill="#191970" stroke="#191970" points="68.0001,-58.4086 71.5,-68.4086 75.0001,-58.4086 68.0001,-58.4086"/>
</g>
<!-- Node2 -->
<g id="node3" class="node">
<title>Node2</title>
<g id="a_node3"><a xlink:href="classSubscriptor.html" target="_top" xlink:title="Subscriptor">
<polygon fill="#ffffff" stroke="#000000" points="32,-214.5 32,-233.5 103,-233.5 103,-214.5 32,-214.5"/>
<text text-anchor="middle" x="67.5" y="-221.5" font-family="Helvetica,sans-Serif" font-size="10.00" fill="#000000">Subscriptor</text>
</a>
</g>
</g>
<!-- Node2&#45;&gt;Node1 -->
<g id="edge2" class="edge">
<title>Node2&#45;&gt;Node1</title>
<path fill="none" stroke="#191970" d="M68.0685,-204.031C68.8783,-175.5886 70.3458,-124.0418 71.0709,-98.5735"/>
<polygon fill="#191970" stroke="#191970" points="64.561,-204.2473 67.7749,-214.3429 71.5582,-204.4466 64.561,-204.2473"/>
</g>
<!-- Node3 -->
<g id="node4" class="node">
<title>Node3</title>
<g id="a_node4"><a xlink:href="classPolynomials_1_1Polynomial.html" target="_top" xlink:title="Polynomials::Polynomial\l\&lt; number \&gt;">
<polygon fill="#ffffff" stroke="#000000" points="84,-146.5 84,-176.5 221,-176.5 221,-146.5 84,-146.5"/>
<text text-anchor="start" x="92" y="-164.5" font-family="Helvetica,sans-Serif" font-size="10.00" fill="#000000">Polynomials::Polynomial</text>
<text text-anchor="middle" x="152.5" y="-153.5" font-family="Helvetica,sans-Serif" font-size="10.00" fill="#000000">&lt; number &gt;</text>
</a>
</g>
</g>
<!-- Node2&#45;&gt;Node3 -->
<g id="edge4" class="edge">
<title>Node2&#45;&gt;Node3</title>
<path fill="none" stroke="#191970" d="M88.8659,-208.2898C102.0908,-198.5656 118.9781,-186.1485 132.0322,-176.5498"/>
<polygon fill="#191970" stroke="#191970" points="86.7644,-205.4906 80.7813,-214.2344 90.9112,-211.1302 86.7644,-205.4906"/>
</g>
<!-- Node3&#45;&gt;Node1 -->
<g id="edge3" class="edge">
<title>Node3&#45;&gt;Node1</title>
<path fill="none" stroke="#ffa500" stroke-dasharray="5,2" d="M129.3851,-139.2412C115.9315,-126.2859 99.3187,-110.2884 87.346,-98.7592"/>
<polygon fill="#ffa500" stroke="#ffa500" points="127.2514,-142.0455 136.8824,-146.4608 132.1069,-137.0032 127.2514,-142.0455"/>
<text text-anchor="middle" x="146" y="-120" font-family="Helvetica,sans-Serif" font-size="10.00" fill="#000000"> &lt; double &gt;</text>
</g>
</g>
</svg>
