<?xml version="1.0" encoding="UTF-8" standalone="no"?>
<!DOCTYPE svg PUBLIC "-//W3C//DTD SVG 1.1//EN"
 "http://www.w3.org/Graphics/SVG/1.1/DTD/svg11.dtd">
<!-- Generated by graphviz version 2.40.1 (20161225.0304)
 -->
<!-- Title: ZeroTensorFunction&lt; rank, dim, Number &gt; Pages: 1 -->
<svg width="238pt" height="332pt"
 viewBox="0.00 0.00 238.00 332.00" xmlns="http://www.w3.org/2000/svg" xmlns:xlink="http://www.w3.org/1999/xlink">
<g id="graph0" class="graph" transform="scale(1 1) rotate(0) translate(4 328)">
<title>ZeroTensorFunction&lt; rank, dim, Number &gt;</title>
<polygon fill="#ffffff" stroke="transparent" points="-4,4 -4,-328 234,-328 234,4 -4,4"/>
<!-- Node0 -->
<g id="node1" class="node">
<title>Node0</title>
<polygon fill="#bfbfbf" stroke="#000000" points="67,-.5 67,-30.5 198,-30.5 198,-.5 67,-.5"/>
<text text-anchor="start" x="75" y="-18.5" font-family="Helvetica,sans-Serif" font-size="10.00" fill="#000000">ZeroTensorFunction</text>
<text text-anchor="middle" x="132.5" y="-7.5" font-family="Helvetica,sans-Serif" font-size="10.00" fill="#000000">&lt; rank, dim, Number &gt;</text>
</g>
<!-- Node1 -->
<g id="node2" class="node">
<title>Node1</title>
<g id="a_node2"><a xlink:href="classConstantTensorFunction.html" target="_top" xlink:title="ConstantTensorFunction\l\&lt; rank, dim, Number \&gt;">
<polygon fill="#ffffff" stroke="#000000" points="66.5,-68.5 66.5,-98.5 198.5,-98.5 198.5,-68.5 66.5,-68.5"/>
<text text-anchor="start" x="74.5" y="-86.5" font-family="Helvetica,sans-Serif" font-size="10.00" fill="#000000">ConstantTensorFunction</text>
<text text-anchor="middle" x="132.5" y="-75.5" font-family="Helvetica,sans-Serif" font-size="10.00" fill="#000000">&lt; rank, dim, Number &gt;</text>
</a>
</g>
</g>
<!-- Node1&#45;&gt;Node0 -->
<g id="edge1" class="edge">
<title>Node1&#45;&gt;Node0</title>
<path fill="none" stroke="#191970" d="M132.5,-58.1174C132.5,-48.8378 132.5,-38.6413 132.5,-30.5492"/>
<polygon fill="#191970" stroke="#191970" points="129.0001,-58.4086 132.5,-68.4086 136.0001,-58.4086 129.0001,-58.4086"/>
</g>
<!-- Node2 -->
<g id="node3" class="node">
<title>Node2</title>
<g id="a_node3"><a xlink:href="classTensorFunction.html" target="_top" xlink:title="TensorFunction\&lt; rank,\l dim, Number \&gt;">
<polygon fill="#ffffff" stroke="#000000" points="70,-136.5 70,-166.5 195,-166.5 195,-136.5 70,-136.5"/>
<text text-anchor="start" x="78" y="-154.5" font-family="Helvetica,sans-Serif" font-size="10.00" fill="#000000">TensorFunction&lt; rank,</text>
<text text-anchor="middle" x="132.5" y="-143.5" font-family="Helvetica,sans-Serif" font-size="10.00" fill="#000000"> dim, Number &gt;</text>
</a>
</g>
</g>
<!-- Node2&#45;&gt;Node1 -->
<g id="edge2" class="edge">
<title>Node2&#45;&gt;Node1</title>
<path fill="none" stroke="#191970" d="M132.5,-126.1174C132.5,-116.8378 132.5,-106.6413 132.5,-98.5492"/>
<polygon fill="#191970" stroke="#191970" points="129.0001,-126.4086 132.5,-136.4086 136.0001,-126.4086 129.0001,-126.4086"/>
</g>
<!-- Node3 -->
<g id="node4" class="node">
<title>Node3</title>
<g id="a_node4"><a xlink:href="classFunctionTime.html" target="_top" xlink:title="FunctionTime\&lt; numbers\l::NumberTraits\&lt; Number\l \&gt;::real_type \&gt;">
<polygon fill="#ffffff" stroke="#000000" points="2.5,-204.5 2.5,-245.5 140.5,-245.5 140.5,-204.5 2.5,-204.5"/>
<text text-anchor="start" x="10.5" y="-233.5" font-family="Helvetica,sans-Serif" font-size="10.00" fill="#000000">FunctionTime&lt; numbers</text>
<text text-anchor="start" x="10.5" y="-222.5" font-family="Helvetica,sans-Serif" font-size="10.00" fill="#000000">::NumberTraits&lt; Number</text>
<text text-anchor="middle" x="71.5" y="-211.5" font-family="Helvetica,sans-Serif" font-size="10.00" fill="#000000"> &gt;::real_type &gt;</text>
</a>
</g>
</g>
<!-- Node3&#45;&gt;Node2 -->
<g id="edge3" class="edge">
<title>Node3&#45;&gt;Node2</title>
<path fill="none" stroke="#191970" d="M95.311,-196.3097C103.6602,-186.2496 112.7128,-175.342 119.7959,-166.8074"/>
<polygon fill="#191970" stroke="#191970" points="92.5101,-194.2041 88.817,-204.1345 97.8967,-198.6746 92.5101,-194.2041"/>
</g>
<!-- Node4 -->
<g id="node5" class="node">
<title>Node4</title>
<g id="a_node5"><a xlink:href="classFunctionTime.html" target="_top" xlink:title="FunctionTime\&lt; Number \&gt;">
<polygon fill="#ffffff" stroke="#000000" points="0,-304.5 0,-323.5 143,-323.5 143,-304.5 0,-304.5"/>
<text text-anchor="middle" x="71.5" y="-311.5" font-family="Helvetica,sans-Serif" font-size="10.00" fill="#000000">FunctionTime&lt; Number &gt;</text>
</a>
</g>
</g>
<!-- Node4&#45;&gt;Node3 -->
<g id="edge4" class="edge">
<title>Node4&#45;&gt;Node3</title>
<path fill="none" stroke="#ffa500" stroke-dasharray="5,2" d="M71.5,-294.1498C71.5,-279.6776 71.5,-260.124 71.5,-245.5022"/>
<polygon fill="#ffa500" stroke="#ffa500" points="68.0001,-294.4754 71.5,-304.4754 75.0001,-294.4755 68.0001,-294.4754"/>
<text text-anchor="start" x="71.5" y="-278" font-family="Helvetica,sans-Serif" font-size="10.00" fill="#000000"> &lt; numbers::NumberTraits</text>
<text text-anchor="middle" x="136" y="-267" font-family="Helvetica,sans-Serif" font-size="10.00" fill="#000000">&lt; Number &gt;::real_type &gt;</text>
</g>
<!-- Node5 -->
<g id="node6" class="node">
<title>Node5</title>
<g id="a_node6"><a xlink:href="classSubscriptor.html" target="_top" xlink:title="Subscriptor">
<polygon fill="#ffffff" stroke="#000000" points="159,-215.5 159,-234.5 230,-234.5 230,-215.5 159,-215.5"/>
<text text-anchor="middle" x="194.5" y="-222.5" font-family="Helvetica,sans-Serif" font-size="10.00" fill="#000000">Subscriptor</text>
</a>
</g>
</g>
<!-- Node5&#45;&gt;Node2 -->
<g id="edge5" class="edge">
<title>Node5&#45;&gt;Node2</title>
<path fill="none" stroke="#191970" d="M179.7886,-207.5599C169.3164,-195.1453 155.3804,-178.6243 145.3535,-166.7376"/>
<polygon fill="#191970" stroke="#191970" points="177.2715,-210.0041 186.3946,-215.3912 182.6221,-205.4907 177.2715,-210.0041"/>
</g>
</g>
</svg>
