<?xml version="1.0" encoding="UTF-8" standalone="no"?>
<!DOCTYPE svg PUBLIC "-//W3C//DTD SVG 1.1//EN"
 "http://www.w3.org/Graphics/SVG/1.1/DTD/svg11.dtd">
<!-- Generated by graphviz version 2.40.1 (20161225.0304)
 -->
<!-- Title: hp::FEValues&lt; dim, spacedim &gt; Pages: 1 -->
<svg width="222pt" height="264pt"
 viewBox="0.00 0.00 222.00 264.00" xmlns="http://www.w3.org/2000/svg" xmlns:xlink="http://www.w3.org/1999/xlink">
<g id="graph0" class="graph" transform="scale(1 1) rotate(0) translate(4 260)">
<title>hp::FEValues&lt; dim, spacedim &gt;</title>
<polygon fill="#ffffff" stroke="transparent" points="-4,4 -4,-260 218,-260 218,4 -4,4"/>
<!-- Node0 -->
<g id="node1" class="node">
<title>Node0</title>
<polygon fill="#bfbfbf" stroke="#000000" points="11,-.5 11,-30.5 115,-30.5 115,-.5 11,-.5"/>
<text text-anchor="start" x="19" y="-18.5" font-family="Helvetica,sans-Serif" font-size="10.00" fill="#000000">hp::FEValues&lt; dim,</text>
<text text-anchor="middle" x="63" y="-7.5" font-family="Helvetica,sans-Serif" font-size="10.00" fill="#000000"> spacedim &gt;</text>
</g>
<!-- Node1 -->
<g id="node2" class="node">
<title>Node1</title>
<g id="a_node2"><a xlink:href="classhp_1_1FEValuesBase.html" target="_top" xlink:title="hp::FEValuesBase\&lt; dim,\l dim, ::FEValues\&lt; dim,\l spacedim \&gt; \&gt;">
<polygon fill="#ffffff" stroke="#000000" points="0,-68.5 0,-109.5 126,-109.5 126,-68.5 0,-68.5"/>
<text text-anchor="start" x="8" y="-97.5" font-family="Helvetica,sans-Serif" font-size="10.00" fill="#000000">hp::FEValuesBase&lt; dim,</text>
<text text-anchor="start" x="8" y="-86.5" font-family="Helvetica,sans-Serif" font-size="10.00" fill="#000000"> dim, ::FEValues&lt; dim,</text>
<text text-anchor="middle" x="63" y="-75.5" font-family="Helvetica,sans-Serif" font-size="10.00" fill="#000000"> spacedim &gt; &gt;</text>
</a>
</g>
</g>
<!-- Node1&#45;&gt;Node0 -->
<g id="edge1" class="edge">
<title>Node1&#45;&gt;Node0</title>
<path fill="none" stroke="#191970" d="M63,-57.9048C63,-48.5365 63,-38.666 63,-30.8074"/>
<polygon fill="#191970" stroke="#191970" points="59.5001,-58.1344 63,-68.1345 66.5001,-58.1345 59.5001,-58.1344"/>
</g>
<!-- Node2 -->
<g id="node3" class="node">
<title>Node2</title>
<g id="a_node3"><a xlink:href="classSubscriptor.html" target="_top" xlink:title="Subscriptor">
<polygon fill="#ffffff" stroke="#000000" points="26,-236.5 26,-255.5 92,-255.5 92,-236.5 26,-236.5"/>
<text text-anchor="middle" x="59" y="-243.5" font-family="Helvetica,sans-Serif" font-size="10.00" fill="#000000">Subscriptor</text>
</a>
</g>
</g>
<!-- Node2&#45;&gt;Node1 -->
<g id="edge2" class="edge">
<title>Node2&#45;&gt;Node1</title>
<path fill="none" stroke="#191970" d="M59.5067,-226.113C60.269,-196.1925 61.7037,-139.8811 62.476,-109.5666"/>
<polygon fill="#191970" stroke="#191970" points="56.0061,-226.093 59.2502,-236.1789 63.0039,-226.2714 56.0061,-226.093"/>
</g>
<!-- Node3 -->
<g id="node4" class="node">
<title>Node3</title>
<g id="a_node4"><a xlink:href="classhp_1_1FEValuesBase.html" target="_top" xlink:title="hp::FEValuesBase\&lt; dim,\l q_dim, FEValuesType \&gt;">
<polygon fill="#ffffff" stroke="#000000" points="75,-168.5 75,-198.5 201,-198.5 201,-168.5 75,-168.5"/>
<text text-anchor="start" x="83" y="-186.5" font-family="Helvetica,sans-Serif" font-size="10.00" fill="#000000">hp::FEValuesBase&lt; dim,</text>
<text text-anchor="middle" x="138" y="-175.5" font-family="Helvetica,sans-Serif" font-size="10.00" fill="#000000"> q_dim, FEValuesType &gt;</text>
</a>
</g>
</g>
<!-- Node2&#45;&gt;Node3 -->
<g id="edge4" class="edge">
<title>Node2&#45;&gt;Node3</title>
<path fill="none" stroke="#191970" d="M79.2098,-230.0112C91.4478,-220.3293 106.9599,-208.057 118.977,-198.5498"/>
<polygon fill="#191970" stroke="#191970" points="77.0147,-227.285 71.3438,-236.2344 81.3578,-232.7747 77.0147,-227.285"/>
</g>
<!-- Node3&#45;&gt;Node1 -->
<g id="edge3" class="edge">
<title>Node3&#45;&gt;Node1</title>
<path fill="none" stroke="#ffa500" stroke-dasharray="5,2" d="M119.5685,-160.2763C107.306,-144.8255 91.3368,-124.7044 79.4939,-109.7823"/>
<polygon fill="#ffa500" stroke="#ffa500" points="116.9918,-162.6598 125.95,-168.3169 122.4749,-158.3082 116.9918,-162.6598"/>
<text text-anchor="start" x="109" y="-142" font-family="Helvetica,sans-Serif" font-size="10.00" fill="#000000"> &lt; dim, dim, ::FEValues</text>
<text text-anchor="middle" x="161.5" y="-131" font-family="Helvetica,sans-Serif" font-size="10.00" fill="#000000">&lt; dim, spacedim &gt; &gt;</text>
</g>
</g>
</svg>
