<?xml version="1.0" encoding="UTF-8" standalone="no"?>
<!DOCTYPE svg PUBLIC "-//W3C//DTD SVG 1.1//EN"
 "http://www.w3.org/Graphics/SVG/1.1/DTD/svg11.dtd">
<!-- Generated by graphviz version 2.40.1 (20161225.0304)
 -->
<!-- Title: MappingQEulerian&lt; dim, VectorType, spacedim &gt;::MappingQEulerianGeneric Pages: 1 -->
<svg width="168pt" height="229pt"
 viewBox="0.00 0.00 168.00 229.00" xmlns="http://www.w3.org/2000/svg" xmlns:xlink="http://www.w3.org/1999/xlink">
<g id="graph0" class="graph" transform="scale(1 1) rotate(0) translate(4 225)">
<title>MappingQEulerian&lt; dim, VectorType, spacedim &gt;::MappingQEulerianGeneric</title>
<polygon fill="#ffffff" stroke="transparent" points="-4,4 -4,-225 164,-225 164,4 -4,4"/>
<!-- Node0 -->
<g id="node1" class="node">
<title>Node0</title>
<polygon fill="#bfbfbf" stroke="#000000" points="0,-.5 0,-41.5 160,-41.5 160,-.5 0,-.5"/>
<text text-anchor="start" x="8" y="-29.5" font-family="Helvetica,sans-Serif" font-size="10.00" fill="#000000">MappingQEulerian&lt; dim,</text>
<text text-anchor="start" x="8" y="-18.5" font-family="Helvetica,sans-Serif" font-size="10.00" fill="#000000"> VectorType, spacedim</text>
<text text-anchor="middle" x="80" y="-7.5" font-family="Helvetica,sans-Serif" font-size="10.00" fill="#000000"> &gt;::MappingQEulerianGeneric</text>
</g>
<!-- Node1 -->
<g id="node2" class="node">
<title>Node1</title>
<g id="a_node2"><a xlink:href="classMappingQGeneric.html" target="_top" xlink:title="MappingQGeneric\&lt; dim,\l spacedim \&gt;">
<polygon fill="#ffffff" stroke="#000000" points="12,-78.5 12,-108.5 148,-108.5 148,-78.5 12,-78.5"/>
<text text-anchor="start" x="20" y="-96.5" font-family="Helvetica,sans-Serif" font-size="10.00" fill="#000000">MappingQGeneric&lt; dim,</text>
<text text-anchor="middle" x="80" y="-85.5" font-family="Helvetica,sans-Serif" font-size="10.00" fill="#000000"> spacedim &gt;</text>
</a>
</g>
</g>
<!-- Node1&#45;&gt;Node0 -->
<g id="edge1" class="edge">
<title>Node1&#45;&gt;Node0</title>
<path fill="none" stroke="#191970" d="M80,-68.4016C80,-59.6173 80,-49.8652 80,-41.5015"/>
<polygon fill="#191970" stroke="#191970" points="76.5001,-68.4779 80,-78.478 83.5001,-68.478 76.5001,-68.4779"/>
</g>
<!-- Node2 -->
<g id="node3" class="node">
<title>Node2</title>
<g id="a_node3"><a xlink:href="classMapping.html" target="_top" xlink:title="映射类的抽象基类。 该类声明了用于描述从参考（单位）单元到实空间单元的映射功能的接口，以及用于填写使用...">
<polygon fill="#ffffff" stroke="#000000" points="4,-145.5 4,-164.5 156,-164.5 156,-145.5 4,-145.5"/>
<text text-anchor="middle" x="80" y="-152.5" font-family="Helvetica,sans-Serif" font-size="10.00" fill="#000000">Mapping&lt; dim, spacedim &gt;</text>
</a>
</g>
</g>
<!-- Node2&#45;&gt;Node1 -->
<g id="edge2" class="edge">
<title>Node2&#45;&gt;Node1</title>
<path fill="none" stroke="#191970" d="M80,-135.3693C80,-126.681 80,-116.6241 80,-108.5446"/>
<polygon fill="#191970" stroke="#191970" points="76.5001,-135.3906 80,-145.3906 83.5001,-135.3907 76.5001,-135.3906"/>
</g>
<!-- Node3 -->
<g id="node4" class="node">
<title>Node3</title>
<g id="a_node4"><a xlink:href="classSubscriptor.html" target="_top" xlink:title="Subscriptor">
<polygon fill="#ffffff" stroke="#000000" points="44.5,-201.5 44.5,-220.5 115.5,-220.5 115.5,-201.5 44.5,-201.5"/>
<text text-anchor="middle" x="80" y="-208.5" font-family="Helvetica,sans-Serif" font-size="10.00" fill="#000000">Subscriptor</text>
</a>
</g>
</g>
<!-- Node3&#45;&gt;Node2 -->
<g id="edge3" class="edge">
<title>Node3&#45;&gt;Node2</title>
<path fill="none" stroke="#191970" d="M80,-191.1575C80,-182.155 80,-171.9199 80,-164.6427"/>
<polygon fill="#191970" stroke="#191970" points="76.5001,-191.2455 80,-201.2455 83.5001,-191.2456 76.5001,-191.2455"/>
</g>
</g>
</svg>
