<?xml version="1.0" encoding="UTF-8" standalone="no"?>
<!DOCTYPE svg PUBLIC "-//W3C//DTD SVG 1.1//EN"
 "http://www.w3.org/Graphics/SVG/1.1/DTD/svg11.dtd">
<!-- Generated by graphviz version 2.40.1 (20161225.0304)
 -->
<!-- Title: LinearAlgebra::distributed::BlockVector&lt; Number &gt; Pages: 1 -->
<svg width="316pt" height="231pt"
 viewBox="0.00 0.00 316.00 231.00" xmlns="http://www.w3.org/2000/svg" xmlns:xlink="http://www.w3.org/1999/xlink">
<g id="graph0" class="graph" transform="scale(1 1) rotate(0) translate(4 227)">
<title>LinearAlgebra::distributed::BlockVector&lt; Number &gt;</title>
<polygon fill="#ffffff" stroke="transparent" points="-4,4 -4,-227 312,-227 312,4 -4,4"/>
<!-- Node0 -->
<g id="node1" class="node">
<title>Node0</title>
<polygon fill="#bfbfbf" stroke="#000000" points="120.5,-.5 120.5,-30.5 263.5,-30.5 263.5,-.5 120.5,-.5"/>
<text text-anchor="start" x="128.5" y="-18.5" font-family="Helvetica,sans-Serif" font-size="10.00" fill="#000000">LinearAlgebra::distributed</text>
<text text-anchor="middle" x="192" y="-7.5" font-family="Helvetica,sans-Serif" font-size="10.00" fill="#000000">::BlockVector&lt; Number &gt;</text>
</g>
<!-- Node1 -->
<g id="node2" class="node">
<title>Node1</title>
<g id="a_node2"><a xlink:href="classBlockVectorBase.html" target="_top" xlink:title="BlockVectorBase\&lt; Vector\l\&lt; Number \&gt; \&gt;">
<polygon fill="#ffffff" stroke="#000000" points="0,-68.5 0,-98.5 140,-98.5 140,-68.5 0,-68.5"/>
<text text-anchor="start" x="8" y="-86.5" font-family="Helvetica,sans-Serif" font-size="10.00" fill="#000000">BlockVectorBase&lt; Vector</text>
<text text-anchor="middle" x="70" y="-75.5" font-family="Helvetica,sans-Serif" font-size="10.00" fill="#000000">&lt; Number &gt; &gt;</text>
</a>
</g>
</g>
<!-- Node1&#45;&gt;Node0 -->
<g id="edge1" class="edge">
<title>Node1&#45;&gt;Node0</title>
<path fill="none" stroke="#191970" d="M105.9969,-63.4362C124.8852,-52.9083 147.6412,-40.2246 164.9999,-30.5492"/>
<polygon fill="#191970" stroke="#191970" points="104.1066,-60.4828 97.0758,-68.4086 107.5146,-66.5972 104.1066,-60.4828"/>
</g>
<!-- Node2 -->
<g id="node3" class="node">
<title>Node2</title>
<g id="a_node3"><a xlink:href="classSubscriptor.html" target="_top" xlink:title="Subscriptor">
<polygon fill="#ffffff" stroke="#000000" points="30.5,-203.5 30.5,-222.5 101.5,-222.5 101.5,-203.5 30.5,-203.5"/>
<text text-anchor="middle" x="66" y="-210.5" font-family="Helvetica,sans-Serif" font-size="10.00" fill="#000000">Subscriptor</text>
</a>
</g>
</g>
<!-- Node2&#45;&gt;Node1 -->
<g id="edge2" class="edge">
<title>Node2&#45;&gt;Node1</title>
<path fill="none" stroke="#191970" d="M66.6141,-193.1183C67.4157,-167.1655 68.8017,-122.2948 69.5268,-98.8199"/>
<polygon fill="#191970" stroke="#191970" points="63.1111,-193.1631 66.3007,-203.2665 70.1078,-193.3793 63.1111,-193.1631"/>
</g>
<!-- Node3 -->
<g id="node4" class="node">
<title>Node3</title>
<g id="a_node4"><a xlink:href="classBlockVectorBase.html" target="_top" xlink:title="BlockVectorBase\&lt; VectorType \&gt;">
<polygon fill="#ffffff" stroke="#000000" points="82,-146.5 82,-165.5 256,-165.5 256,-146.5 82,-146.5"/>
<text text-anchor="middle" x="169" y="-153.5" font-family="Helvetica,sans-Serif" font-size="10.00" fill="#000000">BlockVectorBase&lt; VectorType &gt;</text>
</a>
</g>
</g>
<!-- Node2&#45;&gt;Node3 -->
<g id="edge4" class="edge">
<title>Node2&#45;&gt;Node3</title>
<path fill="none" stroke="#191970" d="M92.3715,-198.4061C111.0506,-188.0691 135.5719,-174.4991 151.7855,-165.5265"/>
<polygon fill="#191970" stroke="#191970" points="90.5274,-195.4263 83.4725,-203.3307 93.9168,-201.551 90.5274,-195.4263"/>
</g>
<!-- Node3&#45;&gt;Node1 -->
<g id="edge3" class="edge">
<title>Node3&#45;&gt;Node1</title>
<path fill="none" stroke="#ffa500" stroke-dasharray="5,2" d="M147.4951,-140.2515C130.6473,-127.9134 107.3533,-110.8547 90.7122,-98.668"/>
<polygon fill="#ffa500" stroke="#ffa500" points="145.5125,-143.1377 155.6484,-146.2223 149.6484,-137.4902 145.5125,-143.1377"/>
<text text-anchor="middle" x="188" y="-120" font-family="Helvetica,sans-Serif" font-size="10.00" fill="#000000"> &lt; Vector&lt; Number &gt; &gt;</text>
</g>
<!-- Node4 -->
<g id="node5" class="node">
<title>Node4</title>
<g id="a_node5"><a xlink:href="classLinearAlgebra_1_1VectorSpaceVector.html" target="_top" xlink:title="LinearAlgebra::VectorSpace\lVector\&lt; Number \&gt;">
<polygon fill="#ffffff" stroke="#000000" points="158,-68.5 158,-98.5 308,-98.5 308,-68.5 158,-68.5"/>
<text text-anchor="start" x="166" y="-86.5" font-family="Helvetica,sans-Serif" font-size="10.00" fill="#000000">LinearAlgebra::VectorSpace</text>
<text text-anchor="middle" x="233" y="-75.5" font-family="Helvetica,sans-Serif" font-size="10.00" fill="#000000">Vector&lt; Number &gt;</text>
</a>
</g>
</g>
<!-- Node4&#45;&gt;Node0 -->
<g id="edge5" class="edge">
<title>Node4&#45;&gt;Node0</title>
<path fill="none" stroke="#191970" d="M218.6028,-59.6217C212.7727,-49.9523 206.218,-39.0811 201.0738,-30.5492"/>
<polygon fill="#191970" stroke="#191970" points="215.7399,-61.652 223.9008,-68.4086 221.7346,-58.0376 215.7399,-61.652"/>
</g>
</g>
</svg>
