<?xml version="1.0" encoding="UTF-8" standalone="no"?>
<!DOCTYPE svg PUBLIC "-//W3C//DTD SVG 1.1//EN"
 "http://www.w3.org/Graphics/SVG/1.1/DTD/svg11.dtd">
<!-- Generated by graphviz version 2.40.1 (20161225.0304)
 -->
<!-- Title: MGLevelGlobalTransfer&lt; VectorType &gt; Pages: 1 -->
<svg width="167pt" height="218pt"
 viewBox="0.00 0.00 167.00 218.00" xmlns="http://www.w3.org/2000/svg" xmlns:xlink="http://www.w3.org/1999/xlink">
<g id="graph0" class="graph" transform="scale(1 1) rotate(0) translate(4 214)">
<title>MGLevelGlobalTransfer&lt; VectorType &gt;</title>
<polygon fill="#ffffff" stroke="transparent" points="-4,4 -4,-214 163,-214 163,4 -4,4"/>
<!-- Node0 -->
<g id="node1" class="node">
<title>Node0</title>
<polygon fill="#bfbfbf" stroke="#000000" points="20,-67.5 20,-97.5 139,-97.5 139,-67.5 20,-67.5"/>
<text text-anchor="start" x="28" y="-85.5" font-family="Helvetica,sans-Serif" font-size="10.00" fill="#000000">MGLevelGlobalTransfer</text>
<text text-anchor="middle" x="79.5" y="-74.5" font-family="Helvetica,sans-Serif" font-size="10.00" fill="#000000">&lt; VectorType &gt;</text>
</g>
<!-- Node3 -->
<g id="node4" class="node">
<title>Node3</title>
<g id="a_node4"><a xlink:href="classMGTransferPrebuilt.html" target="_top" xlink:title="MGTransferPrebuilt\l\&lt; VectorType \&gt;">
<polygon fill="#ffffff" stroke="#000000" points="29,-.5 29,-30.5 130,-30.5 130,-.5 29,-.5"/>
<text text-anchor="start" x="37" y="-18.5" font-family="Helvetica,sans-Serif" font-size="10.00" fill="#000000">MGTransferPrebuilt</text>
<text text-anchor="middle" x="79.5" y="-7.5" font-family="Helvetica,sans-Serif" font-size="10.00" fill="#000000">&lt; VectorType &gt;</text>
</a>
</g>
</g>
<!-- Node0&#45;&gt;Node3 -->
<g id="edge3" class="edge">
<title>Node0&#45;&gt;Node3</title>
<path fill="none" stroke="#191970" d="M79.5,-57.0249C79.5,-48.128 79.5,-38.4287 79.5,-30.6432"/>
<polygon fill="#191970" stroke="#191970" points="76.0001,-57.2966 79.5,-67.2967 83.0001,-57.2967 76.0001,-57.2966"/>
</g>
<!-- Node1 -->
<g id="node2" class="node">
<title>Node1</title>
<g id="a_node2"><a xlink:href="classMGTransferBase.html" target="_top" xlink:title="MGTransferBase\&lt; VectorType \&gt;">
<polygon fill="#ffffff" stroke="#000000" points="0,-134.5 0,-153.5 159,-153.5 159,-134.5 0,-134.5"/>
<text text-anchor="middle" x="79.5" y="-141.5" font-family="Helvetica,sans-Serif" font-size="10.00" fill="#000000">MGTransferBase&lt; VectorType &gt;</text>
</a>
</g>
</g>
<!-- Node1&#45;&gt;Node0 -->
<g id="edge1" class="edge">
<title>Node1&#45;&gt;Node0</title>
<path fill="none" stroke="#191970" d="M79.5,-124.3693C79.5,-115.681 79.5,-105.6241 79.5,-97.5446"/>
<polygon fill="#191970" stroke="#191970" points="76.0001,-124.3906 79.5,-134.3906 83.0001,-124.3907 76.0001,-124.3906"/>
</g>
<!-- Node2 -->
<g id="node3" class="node">
<title>Node2</title>
<g id="a_node3"><a xlink:href="classSubscriptor.html" target="_top" xlink:title="Subscriptor">
<polygon fill="#ffffff" stroke="#000000" points="46.5,-190.5 46.5,-209.5 112.5,-209.5 112.5,-190.5 46.5,-190.5"/>
<text text-anchor="middle" x="79.5" y="-197.5" font-family="Helvetica,sans-Serif" font-size="10.00" fill="#000000">Subscriptor</text>
</a>
</g>
</g>
<!-- Node2&#45;&gt;Node1 -->
<g id="edge2" class="edge">
<title>Node2&#45;&gt;Node1</title>
<path fill="none" stroke="#191970" d="M79.5,-180.1575C79.5,-171.155 79.5,-160.9199 79.5,-153.6427"/>
<polygon fill="#191970" stroke="#191970" points="76.0001,-180.2455 79.5,-190.2455 83.0001,-180.2456 76.0001,-180.2455"/>
</g>
</g>
</svg>
