<?xml version="1.0" encoding="UTF-8" standalone="no"?>
<!DOCTYPE svg PUBLIC "-//W3C//DTD SVG 1.1//EN"
 "http://www.w3.org/Graphics/SVG/1.1/DTD/svg11.dtd">
<!-- Generated by graphviz version 2.40.1 (20161225.0304)
 -->
<!-- Title: SparseMatrixIterators::Accessor&lt; number, false &gt;::Reference Pages: 1 -->
<svg width="1317pt" height="1896pt"
 viewBox="0.00 0.00 1317.00 1896.00" xmlns="http://www.w3.org/2000/svg" xmlns:xlink="http://www.w3.org/1999/xlink">
<g id="graph0" class="graph" transform="scale(1 1) rotate(0) translate(4 1892)">
<title>SparseMatrixIterators::Accessor&lt; number, false &gt;::Reference</title>
<polygon fill="#ffffff" stroke="transparent" points="-4,4 -4,-1892 1313,-1892 1313,4 -4,4"/>
<!-- Node1 -->
<g id="node1" class="node">
<title>Node1</title>
<polygon fill="#bfbfbf" stroke="#000000" points="980,-.5 980,-145.5 1112,-145.5 1112,-.5 980,-.5"/>
<text text-anchor="start" x="988" y="-133.5" font-family="Helvetica,sans-Serif" font-size="10.00" fill="#000000">SparseMatrixIterators</text>
<text text-anchor="start" x="988" y="-122.5" font-family="Helvetica,sans-Serif" font-size="10.00" fill="#000000">::Accessor&lt; number, false</text>
<text text-anchor="middle" x="1046" y="-111.5" font-family="Helvetica,sans-Serif" font-size="10.00" fill="#000000"> &gt;::Reference</text>
<polyline fill="none" stroke="#000000" points="980,-104.5 1112,-104.5 "/>
<text text-anchor="middle" x="1046" y="-92.5" font-family="Helvetica,sans-Serif" font-size="10.00" fill="#000000"> </text>
<polyline fill="none" stroke="#000000" points="980,-85.5 1112,-85.5 "/>
<text text-anchor="start" x="988" y="-73.5" font-family="Helvetica,sans-Serif" font-size="10.00" fill="#000000">+ Reference()</text>
<text text-anchor="start" x="988" y="-62.5" font-family="Helvetica,sans-Serif" font-size="10.00" fill="#000000">+ operator number()</text>
<text text-anchor="start" x="988" y="-51.5" font-family="Helvetica,sans-Serif" font-size="10.00" fill="#000000">+ operator=()</text>
<text text-anchor="start" x="988" y="-40.5" font-family="Helvetica,sans-Serif" font-size="10.00" fill="#000000">+ operator+=()</text>
<text text-anchor="start" x="988" y="-29.5" font-family="Helvetica,sans-Serif" font-size="10.00" fill="#000000">+ operator&#45;=()</text>
<text text-anchor="start" x="988" y="-18.5" font-family="Helvetica,sans-Serif" font-size="10.00" fill="#000000">+ operator*=()</text>
<text text-anchor="start" x="988" y="-7.5" font-family="Helvetica,sans-Serif" font-size="10.00" fill="#000000">+ operator/=()</text>
</g>
<!-- Node2 -->
<g id="node2" class="node">
<title>Node2</title>
<g id="a_node2"><a xlink:href="classSparseMatrixIterators_1_1Accessor.html" target="_top" xlink:title="{SparseMatrixIterators\l::Accessor\&lt; number, Constness \&gt;\n||+ value()\l+ value()\l+ get_matrix()\l}">
<polygon fill="#ffffff" stroke="#000000" points="962.5,-193.5 962.5,-283.5 1129.5,-283.5 1129.5,-193.5 962.5,-193.5"/>
<text text-anchor="start" x="970.5" y="-271.5" font-family="Helvetica,sans-Serif" font-size="10.00" fill="#000000">SparseMatrixIterators</text>
<text text-anchor="middle" x="1046" y="-260.5" font-family="Helvetica,sans-Serif" font-size="10.00" fill="#000000">::Accessor&lt; number, Constness &gt;</text>
<polyline fill="none" stroke="#000000" points="962.5,-253.5 1129.5,-253.5 "/>
<text text-anchor="middle" x="1046" y="-241.5" font-family="Helvetica,sans-Serif" font-size="10.00" fill="#000000"> </text>
<polyline fill="none" stroke="#000000" points="962.5,-234.5 1129.5,-234.5 "/>
<text text-anchor="start" x="970.5" y="-222.5" font-family="Helvetica,sans-Serif" font-size="10.00" fill="#000000">+ value()</text>
<text text-anchor="start" x="970.5" y="-211.5" font-family="Helvetica,sans-Serif" font-size="10.00" fill="#000000">+ value()</text>
<text text-anchor="start" x="970.5" y="-200.5" font-family="Helvetica,sans-Serif" font-size="10.00" fill="#000000">+ get_matrix()</text>
</a>
</g>
</g>
<!-- Node2&#45;&gt;Node1 -->
<g id="edge1" class="edge">
<title>Node2&#45;&gt;Node1</title>
<path fill="none" stroke="#404040" d="M1046,-193.2764C1046,-182.2223 1046,-170.0348 1046,-157.7878"/>
<polygon fill="none" stroke="#404040" points="1046.0001,-157.5606 1042,-151.5606 1046,-145.5606 1050,-151.5606 1046.0001,-157.5606"/>
<text text-anchor="middle" x="1069" y="-167" font-family="Helvetica,sans-Serif" font-size="10.00" fill="#000000"> &#45;accessor</text>
</g>
<!-- Node3 -->
<g id="node3" class="node">
<title>Node3</title>
<g id="a_node3"><a xlink:href="classSparsityPatternIterators_1_1Accessor.html" target="_top" xlink:title="{SparsityPatternIterators\l::Accessor\n||+ Accessor()\l+ Accessor()\l+ Accessor()\l+ row()\l+ index()\l+ global_index()\l+ column()\l+ is_valid_entry()\l+ operator==()\l+ operator\&lt;()\l# DeclExceptionMsg()\l# advance()\l}">
<polygon fill="#ffffff" stroke="#000000" points="986,-321.5 986,-510.5 1106,-510.5 1106,-321.5 986,-321.5"/>
<text text-anchor="start" x="994" y="-498.5" font-family="Helvetica,sans-Serif" font-size="10.00" fill="#000000">SparsityPatternIterators</text>
<text text-anchor="middle" x="1046" y="-487.5" font-family="Helvetica,sans-Serif" font-size="10.00" fill="#000000">::Accessor</text>
<polyline fill="none" stroke="#000000" points="986,-480.5 1106,-480.5 "/>
<text text-anchor="middle" x="1046" y="-468.5" font-family="Helvetica,sans-Serif" font-size="10.00" fill="#000000"> </text>
<polyline fill="none" stroke="#000000" points="986,-461.5 1106,-461.5 "/>
<text text-anchor="start" x="994" y="-449.5" font-family="Helvetica,sans-Serif" font-size="10.00" fill="#000000">+ Accessor()</text>
<text text-anchor="start" x="994" y="-438.5" font-family="Helvetica,sans-Serif" font-size="10.00" fill="#000000">+ Accessor()</text>
<text text-anchor="start" x="994" y="-427.5" font-family="Helvetica,sans-Serif" font-size="10.00" fill="#000000">+ Accessor()</text>
<text text-anchor="start" x="994" y="-416.5" font-family="Helvetica,sans-Serif" font-size="10.00" fill="#000000">+ row()</text>
<text text-anchor="start" x="994" y="-405.5" font-family="Helvetica,sans-Serif" font-size="10.00" fill="#000000">+ index()</text>
<text text-anchor="start" x="994" y="-394.5" font-family="Helvetica,sans-Serif" font-size="10.00" fill="#000000">+ global_index()</text>
<text text-anchor="start" x="994" y="-383.5" font-family="Helvetica,sans-Serif" font-size="10.00" fill="#000000">+ column()</text>
<text text-anchor="start" x="994" y="-372.5" font-family="Helvetica,sans-Serif" font-size="10.00" fill="#000000">+ is_valid_entry()</text>
<text text-anchor="start" x="994" y="-361.5" font-family="Helvetica,sans-Serif" font-size="10.00" fill="#000000">+ operator==()</text>
<text text-anchor="start" x="994" y="-350.5" font-family="Helvetica,sans-Serif" font-size="10.00" fill="#000000">+ operator&lt;()</text>
<text text-anchor="start" x="994" y="-339.5" font-family="Helvetica,sans-Serif" font-size="10.00" fill="#000000"># DeclExceptionMsg()</text>
<text text-anchor="start" x="994" y="-328.5" font-family="Helvetica,sans-Serif" font-size="10.00" fill="#000000"># advance()</text>
</a>
</g>
</g>
<!-- Node3&#45;&gt;Node2 -->
<g id="edge2" class="edge">
<title>Node3&#45;&gt;Node2</title>
<path fill="none" stroke="#191970" d="M1046,-311.2327C1046,-301.6677 1046,-292.3595 1046,-283.7725"/>
<polygon fill="none" stroke="#191970" points="1042.5001,-311.2738 1046,-321.2738 1049.5001,-311.2738 1042.5001,-311.2738"/>
</g>
<!-- Node4 -->
<g id="node4" class="node">
<title>Node4</title>
<g id="a_node4"><a xlink:href="classSparsityPatternBase.html" target="_top" xlink:title="{SparsityPatternBase\n||+ DeclExceptionMsg()\l+ DeclException2()\l+ DeclExceptionMsg()\l+ SparsityPatternBase()\l+ ~SparsityPatternBase()\l+ reinit()\l+ reinit()\l+ reinit()\l+ symmetrize()\l+ add()\l+ begin()\l+ end()\l+ begin()\l+ end()\l+ operator==()\l+ empty()\l+ exists()\l+ max_entries_per_row()\l+ bandwidth()\l+ n_nonzero_elements()\l+ is_compressed()\l+ n_rows()\l+ n_cols()\l+ row_length()\l+ memory_consumption()\l+ column_number()\l+ row_position()\l+ matrix_position()\l+ print()\l+ print_gnuplot()\l+ print_svg()\l+ save()\l+ load()\l+ serialize()\l* SparsityPatternBase()\l* ~SparsityPatternBase()\l* reinit()\l* reinit()\l* reinit()\l* symmetrize()\l* add()\l* begin()\l* end()\l* begin()\l* end()\l* operator==()\l* empty()\l* exists()\l* max_entries_per_row()\l* bandwidth()\l* n_nonzero_elements()\l* is_compressed()\l* n_rows()\l* n_cols()\l* row_length()\l* memory_consumption()\l* column_number()\l* row_position()\l* matrix_position()\l* print()\l* print_gnuplot()\l* print_svg()\l* save()\l* load()\l* serialize()\l}">
<polygon fill="#ffffff" stroke="#000000" points="804,-558.5 804,-1319.5 932,-1319.5 932,-558.5 804,-558.5"/>
<text text-anchor="middle" x="868" y="-1307.5" font-family="Helvetica,sans-Serif" font-size="10.00" fill="#000000">SparsityPatternBase</text>
<polyline fill="none" stroke="#000000" points="804,-1300.5 932,-1300.5 "/>
<text text-anchor="middle" x="868" y="-1288.5" font-family="Helvetica,sans-Serif" font-size="10.00" fill="#000000"> </text>
<polyline fill="none" stroke="#000000" points="804,-1281.5 932,-1281.5 "/>
<text text-anchor="start" x="812" y="-1269.5" font-family="Helvetica,sans-Serif" font-size="10.00" fill="#000000">+ DeclExceptionMsg()</text>
<text text-anchor="start" x="812" y="-1258.5" font-family="Helvetica,sans-Serif" font-size="10.00" fill="#000000">+ DeclException2()</text>
<text text-anchor="start" x="812" y="-1247.5" font-family="Helvetica,sans-Serif" font-size="10.00" fill="#000000">+ DeclExceptionMsg()</text>
<text text-anchor="start" x="812" y="-1236.5" font-family="Helvetica,sans-Serif" font-size="10.00" fill="#000000">+ SparsityPatternBase()</text>
<text text-anchor="start" x="812" y="-1225.5" font-family="Helvetica,sans-Serif" font-size="10.00" fill="#000000">+ ~SparsityPatternBase()</text>
<text text-anchor="start" x="812" y="-1214.5" font-family="Helvetica,sans-Serif" font-size="10.00" fill="#000000">+ reinit()</text>
<text text-anchor="start" x="812" y="-1203.5" font-family="Helvetica,sans-Serif" font-size="10.00" fill="#000000">+ reinit()</text>
<text text-anchor="start" x="812" y="-1192.5" font-family="Helvetica,sans-Serif" font-size="10.00" fill="#000000">+ reinit()</text>
<text text-anchor="start" x="812" y="-1181.5" font-family="Helvetica,sans-Serif" font-size="10.00" fill="#000000">+ symmetrize()</text>
<text text-anchor="start" x="812" y="-1170.5" font-family="Helvetica,sans-Serif" font-size="10.00" fill="#000000">+ add()</text>
<text text-anchor="start" x="812" y="-1159.5" font-family="Helvetica,sans-Serif" font-size="10.00" fill="#000000">+ begin()</text>
<text text-anchor="start" x="812" y="-1148.5" font-family="Helvetica,sans-Serif" font-size="10.00" fill="#000000">+ end()</text>
<text text-anchor="start" x="812" y="-1137.5" font-family="Helvetica,sans-Serif" font-size="10.00" fill="#000000">+ begin()</text>
<text text-anchor="start" x="812" y="-1126.5" font-family="Helvetica,sans-Serif" font-size="10.00" fill="#000000">+ end()</text>
<text text-anchor="start" x="812" y="-1115.5" font-family="Helvetica,sans-Serif" font-size="10.00" fill="#000000">+ operator==()</text>
<text text-anchor="start" x="812" y="-1104.5" font-family="Helvetica,sans-Serif" font-size="10.00" fill="#000000">+ empty()</text>
<text text-anchor="start" x="812" y="-1093.5" font-family="Helvetica,sans-Serif" font-size="10.00" fill="#000000">+ exists()</text>
<text text-anchor="start" x="812" y="-1082.5" font-family="Helvetica,sans-Serif" font-size="10.00" fill="#000000">+ max_entries_per_row()</text>
<text text-anchor="start" x="812" y="-1071.5" font-family="Helvetica,sans-Serif" font-size="10.00" fill="#000000">+ bandwidth()</text>
<text text-anchor="start" x="812" y="-1060.5" font-family="Helvetica,sans-Serif" font-size="10.00" fill="#000000">+ n_nonzero_elements()</text>
<text text-anchor="start" x="812" y="-1049.5" font-family="Helvetica,sans-Serif" font-size="10.00" fill="#000000">+ is_compressed()</text>
<text text-anchor="start" x="812" y="-1038.5" font-family="Helvetica,sans-Serif" font-size="10.00" fill="#000000">+ n_rows()</text>
<text text-anchor="start" x="812" y="-1027.5" font-family="Helvetica,sans-Serif" font-size="10.00" fill="#000000">+ n_cols()</text>
<text text-anchor="start" x="812" y="-1016.5" font-family="Helvetica,sans-Serif" font-size="10.00" fill="#000000">+ row_length()</text>
<text text-anchor="start" x="812" y="-1005.5" font-family="Helvetica,sans-Serif" font-size="10.00" fill="#000000">+ memory_consumption()</text>
<text text-anchor="start" x="812" y="-994.5" font-family="Helvetica,sans-Serif" font-size="10.00" fill="#000000">+ column_number()</text>
<text text-anchor="start" x="812" y="-983.5" font-family="Helvetica,sans-Serif" font-size="10.00" fill="#000000">+ row_position()</text>
<text text-anchor="start" x="812" y="-972.5" font-family="Helvetica,sans-Serif" font-size="10.00" fill="#000000">+ matrix_position()</text>
<text text-anchor="start" x="812" y="-961.5" font-family="Helvetica,sans-Serif" font-size="10.00" fill="#000000">+ print()</text>
<text text-anchor="start" x="812" y="-950.5" font-family="Helvetica,sans-Serif" font-size="10.00" fill="#000000">+ print_gnuplot()</text>
<text text-anchor="start" x="812" y="-939.5" font-family="Helvetica,sans-Serif" font-size="10.00" fill="#000000">+ print_svg()</text>
<text text-anchor="start" x="812" y="-928.5" font-family="Helvetica,sans-Serif" font-size="10.00" fill="#000000">+ save()</text>
<text text-anchor="start" x="812" y="-917.5" font-family="Helvetica,sans-Serif" font-size="10.00" fill="#000000">+ load()</text>
<text text-anchor="start" x="812" y="-906.5" font-family="Helvetica,sans-Serif" font-size="10.00" fill="#000000">+ serialize()</text>
<text text-anchor="start" x="812" y="-895.5" font-family="Helvetica,sans-Serif" font-size="10.00" fill="#000000">* SparsityPatternBase()</text>
<text text-anchor="start" x="812" y="-884.5" font-family="Helvetica,sans-Serif" font-size="10.00" fill="#000000">* ~SparsityPatternBase()</text>
<text text-anchor="start" x="812" y="-873.5" font-family="Helvetica,sans-Serif" font-size="10.00" fill="#000000">* reinit()</text>
<text text-anchor="start" x="812" y="-862.5" font-family="Helvetica,sans-Serif" font-size="10.00" fill="#000000">* reinit()</text>
<text text-anchor="start" x="812" y="-851.5" font-family="Helvetica,sans-Serif" font-size="10.00" fill="#000000">* reinit()</text>
<text text-anchor="start" x="812" y="-840.5" font-family="Helvetica,sans-Serif" font-size="10.00" fill="#000000">* symmetrize()</text>
<text text-anchor="start" x="812" y="-829.5" font-family="Helvetica,sans-Serif" font-size="10.00" fill="#000000">* add()</text>
<text text-anchor="start" x="812" y="-818.5" font-family="Helvetica,sans-Serif" font-size="10.00" fill="#000000">* begin()</text>
<text text-anchor="start" x="812" y="-807.5" font-family="Helvetica,sans-Serif" font-size="10.00" fill="#000000">* end()</text>
<text text-anchor="start" x="812" y="-796.5" font-family="Helvetica,sans-Serif" font-size="10.00" fill="#000000">* begin()</text>
<text text-anchor="start" x="812" y="-785.5" font-family="Helvetica,sans-Serif" font-size="10.00" fill="#000000">* end()</text>
<text text-anchor="start" x="812" y="-774.5" font-family="Helvetica,sans-Serif" font-size="10.00" fill="#000000">* operator==()</text>
<text text-anchor="start" x="812" y="-763.5" font-family="Helvetica,sans-Serif" font-size="10.00" fill="#000000">* empty()</text>
<text text-anchor="start" x="812" y="-752.5" font-family="Helvetica,sans-Serif" font-size="10.00" fill="#000000">* exists()</text>
<text text-anchor="start" x="812" y="-741.5" font-family="Helvetica,sans-Serif" font-size="10.00" fill="#000000">* max_entries_per_row()</text>
<text text-anchor="start" x="812" y="-730.5" font-family="Helvetica,sans-Serif" font-size="10.00" fill="#000000">* bandwidth()</text>
<text text-anchor="start" x="812" y="-719.5" font-family="Helvetica,sans-Serif" font-size="10.00" fill="#000000">* n_nonzero_elements()</text>
<text text-anchor="start" x="812" y="-708.5" font-family="Helvetica,sans-Serif" font-size="10.00" fill="#000000">* is_compressed()</text>
<text text-anchor="start" x="812" y="-697.5" font-family="Helvetica,sans-Serif" font-size="10.00" fill="#000000">* n_rows()</text>
<text text-anchor="start" x="812" y="-686.5" font-family="Helvetica,sans-Serif" font-size="10.00" fill="#000000">* n_cols()</text>
<text text-anchor="start" x="812" y="-675.5" font-family="Helvetica,sans-Serif" font-size="10.00" fill="#000000">* row_length()</text>
<text text-anchor="start" x="812" y="-664.5" font-family="Helvetica,sans-Serif" font-size="10.00" fill="#000000">* memory_consumption()</text>
<text text-anchor="start" x="812" y="-653.5" font-family="Helvetica,sans-Serif" font-size="10.00" fill="#000000">* column_number()</text>
<text text-anchor="start" x="812" y="-642.5" font-family="Helvetica,sans-Serif" font-size="10.00" fill="#000000">* row_position()</text>
<text text-anchor="start" x="812" y="-631.5" font-family="Helvetica,sans-Serif" font-size="10.00" fill="#000000">* matrix_position()</text>
<text text-anchor="start" x="812" y="-620.5" font-family="Helvetica,sans-Serif" font-size="10.00" fill="#000000">* print()</text>
<text text-anchor="start" x="812" y="-609.5" font-family="Helvetica,sans-Serif" font-size="10.00" fill="#000000">* print_gnuplot()</text>
<text text-anchor="start" x="812" y="-598.5" font-family="Helvetica,sans-Serif" font-size="10.00" fill="#000000">* print_svg()</text>
<text text-anchor="start" x="812" y="-587.5" font-family="Helvetica,sans-Serif" font-size="10.00" fill="#000000">* save()</text>
<text text-anchor="start" x="812" y="-576.5" font-family="Helvetica,sans-Serif" font-size="10.00" fill="#000000">* load()</text>
<text text-anchor="start" x="812" y="-565.5" font-family="Helvetica,sans-Serif" font-size="10.00" fill="#000000">* serialize()</text>
</a>
</g>
</g>
<!-- Node4&#45;&gt;Node3 -->
<g id="edge3" class="edge">
<title>Node4&#45;&gt;Node3</title>
<path fill="none" stroke="#404040" d="M932.0106,-750.9239C958.1964,-673.9848 987.5228,-587.8179 1009.8718,-522.152"/>
<polygon fill="none" stroke="#404040" points="1009.9533,-521.9123 1008.0998,-514.9434 1013.8197,-510.5522 1015.6732,-517.521 1009.9533,-521.9123"/>
<text text-anchor="middle" x="1029.5" y="-532" font-family="Helvetica,sans-Serif" font-size="10.00" fill="#000000"> #container</text>
</g>
<!-- Node5 -->
<g id="node5" class="node">
<title>Node5</title>
<g id="a_node5"><a xlink:href="classSubscriptor.html" target="_top" xlink:title="{Subscriptor\n||+ Subscriptor()\l+ Subscriptor()\l+ Subscriptor()\l+ ~Subscriptor()\l+ operator=()\l+ operator=()\l+ serialize()\l+ subscribe()\l+ unsubscribe()\l+ n_subscriptions()\l+ list_subscribers()\l+ list_subscribers()\l+ ExcInUse()\l+ ExcNoSubscriber()\l&#45; check_no_subscribers()\l* subscribe()\l* unsubscribe()\l* n_subscriptions()\l* list_subscribers()\l* list_subscribers()\l}">
<polygon fill="#ffffff" stroke="#000000" points="272,-1400.5 272,-1666.5 398,-1666.5 398,-1400.5 272,-1400.5"/>
<text text-anchor="middle" x="335" y="-1654.5" font-family="Helvetica,sans-Serif" font-size="10.00" fill="#000000">Subscriptor</text>
<polyline fill="none" stroke="#000000" points="272,-1647.5 398,-1647.5 "/>
<text text-anchor="middle" x="335" y="-1635.5" font-family="Helvetica,sans-Serif" font-size="10.00" fill="#000000"> </text>
<polyline fill="none" stroke="#000000" points="272,-1628.5 398,-1628.5 "/>
<text text-anchor="start" x="280" y="-1616.5" font-family="Helvetica,sans-Serif" font-size="10.00" fill="#000000">+ Subscriptor()</text>
<text text-anchor="start" x="280" y="-1605.5" font-family="Helvetica,sans-Serif" font-size="10.00" fill="#000000">+ Subscriptor()</text>
<text text-anchor="start" x="280" y="-1594.5" font-family="Helvetica,sans-Serif" font-size="10.00" fill="#000000">+ Subscriptor()</text>
<text text-anchor="start" x="280" y="-1583.5" font-family="Helvetica,sans-Serif" font-size="10.00" fill="#000000">+ ~Subscriptor()</text>
<text text-anchor="start" x="280" y="-1572.5" font-family="Helvetica,sans-Serif" font-size="10.00" fill="#000000">+ operator=()</text>
<text text-anchor="start" x="280" y="-1561.5" font-family="Helvetica,sans-Serif" font-size="10.00" fill="#000000">+ operator=()</text>
<text text-anchor="start" x="280" y="-1550.5" font-family="Helvetica,sans-Serif" font-size="10.00" fill="#000000">+ serialize()</text>
<text text-anchor="start" x="280" y="-1539.5" font-family="Helvetica,sans-Serif" font-size="10.00" fill="#000000">+ subscribe()</text>
<text text-anchor="start" x="280" y="-1528.5" font-family="Helvetica,sans-Serif" font-size="10.00" fill="#000000">+ unsubscribe()</text>
<text text-anchor="start" x="280" y="-1517.5" font-family="Helvetica,sans-Serif" font-size="10.00" fill="#000000">+ n_subscriptions()</text>
<text text-anchor="start" x="280" y="-1506.5" font-family="Helvetica,sans-Serif" font-size="10.00" fill="#000000">+ list_subscribers()</text>
<text text-anchor="start" x="280" y="-1495.5" font-family="Helvetica,sans-Serif" font-size="10.00" fill="#000000">+ list_subscribers()</text>
<text text-anchor="start" x="280" y="-1484.5" font-family="Helvetica,sans-Serif" font-size="10.00" fill="#000000">+ ExcInUse()</text>
<text text-anchor="start" x="280" y="-1473.5" font-family="Helvetica,sans-Serif" font-size="10.00" fill="#000000">+ ExcNoSubscriber()</text>
<text text-anchor="start" x="280" y="-1462.5" font-family="Helvetica,sans-Serif" font-size="10.00" fill="#000000">&#45; check_no_subscribers()</text>
<text text-anchor="start" x="280" y="-1451.5" font-family="Helvetica,sans-Serif" font-size="10.00" fill="#000000">* subscribe()</text>
<text text-anchor="start" x="280" y="-1440.5" font-family="Helvetica,sans-Serif" font-size="10.00" fill="#000000">* unsubscribe()</text>
<text text-anchor="start" x="280" y="-1429.5" font-family="Helvetica,sans-Serif" font-size="10.00" fill="#000000">* n_subscriptions()</text>
<text text-anchor="start" x="280" y="-1418.5" font-family="Helvetica,sans-Serif" font-size="10.00" fill="#000000">* list_subscribers()</text>
<text text-anchor="start" x="280" y="-1407.5" font-family="Helvetica,sans-Serif" font-size="10.00" fill="#000000">* list_subscribers()</text>
</a>
</g>
</g>
<!-- Node5&#45;&gt;Node4 -->
<g id="edge4" class="edge">
<title>Node5&#45;&gt;Node4</title>
<path fill="none" stroke="#191970" d="M404.9541,-1455.4743C508.9635,-1339.4638 702.907,-1123.1422 803.6021,-1010.8285"/>
<polygon fill="none" stroke="#191970" points="402.3046,-1453.1863 398.2352,-1462.9685 407.5166,-1457.8592 402.3046,-1453.1863"/>
</g>
<!-- Node6 -->
<g id="node6" class="node">
<title>Node6</title>
<polygon fill="#ffffff" stroke="#bfbfbf" points="0,-1714.5 0,-1782.5 110,-1782.5 110,-1714.5 0,-1714.5"/>
<text text-anchor="start" x="8" y="-1770.5" font-family="Helvetica,sans-Serif" font-size="10.00" fill="#000000">std::map&lt; std::string,</text>
<text text-anchor="middle" x="55" y="-1759.5" font-family="Helvetica,sans-Serif" font-size="10.00" fill="#000000"> unsigned int &gt;</text>
<polyline fill="none" stroke="#bfbfbf" points="0,-1752.5 110,-1752.5 "/>
<text text-anchor="middle" x="55" y="-1740.5" font-family="Helvetica,sans-Serif" font-size="10.00" fill="#000000"> </text>
<polyline fill="none" stroke="#bfbfbf" points="0,-1733.5 110,-1733.5 "/>
<text text-anchor="middle" x="55" y="-1721.5" font-family="Helvetica,sans-Serif" font-size="10.00" fill="#000000"> </text>
</g>
<!-- Node6&#45;&gt;Node5 -->
<g id="edge5" class="edge">
<title>Node6&#45;&gt;Node5</title>
<path fill="none" stroke="#404040" d="M99.3668,-1714.4326C143.0443,-1680.8945 210.5102,-1629.0904 262.0771,-1589.4944"/>
<polygon fill="none" stroke="#404040" points="262.3208,-1589.3072 264.6436,-1582.4805 271.8387,-1581.9989 269.5159,-1588.8257 262.3208,-1589.3072"/>
<text text-anchor="middle" x="162.5" y="-1688" font-family="Helvetica,sans-Serif" font-size="10.00" fill="#000000"> &#45;counter_map</text>
</g>
<!-- Node7 -->
<g id="node7" class="node">
<title>Node7</title>
<g id="a_node7"><a xlink:href="classint.html" target="_top" xlink:title="{int\n||}">
<polygon fill="#ffffff" stroke="#000000" points="294.5,-1830.5 294.5,-1887.5 323.5,-1887.5 323.5,-1830.5 294.5,-1830.5"/>
<text text-anchor="middle" x="309" y="-1875.5" font-family="Helvetica,sans-Serif" font-size="10.00" fill="#000000">int</text>
<polyline fill="none" stroke="#000000" points="294.5,-1868.5 323.5,-1868.5 "/>
<text text-anchor="middle" x="309" y="-1856.5" font-family="Helvetica,sans-Serif" font-size="10.00" fill="#000000"> </text>
<polyline fill="none" stroke="#000000" points="294.5,-1849.5 323.5,-1849.5 "/>
<text text-anchor="middle" x="309" y="-1837.5" font-family="Helvetica,sans-Serif" font-size="10.00" fill="#000000"> </text>
</a>
</g>
</g>
<!-- Node7&#45;&gt;Node6 -->
<g id="edge6" class="edge">
<title>Node7&#45;&gt;Node6</title>
<path fill="none" stroke="#404040" d="M294.4611,-1853.829C263.9602,-1842.8489 190.9724,-1815.8818 121.4302,-1783.9735"/>
<polygon fill="none" stroke="#404040" points="121.191,-1783.8626 114.0648,-1784.9656 110.3058,-1778.8117 117.432,-1777.7087 121.191,-1783.8626"/>
<text text-anchor="middle" x="205.5" y="-1804" font-family="Helvetica,sans-Serif" font-size="10.00" fill="#000000"> +elements</text>
</g>
<!-- Node19 -->
<g id="node12" class="node">
<title>Node19</title>
<polygon fill="#ffffff" stroke="#bfbfbf" points="531.5,-1499.5 531.5,-1567.5 660.5,-1567.5 660.5,-1499.5 531.5,-1499.5"/>
<text text-anchor="start" x="539.5" y="-1555.5" font-family="Helvetica,sans-Serif" font-size="10.00" fill="#000000">std::unique_ptr&lt; unsigned</text>
<text text-anchor="middle" x="596" y="-1544.5" font-family="Helvetica,sans-Serif" font-size="10.00" fill="#000000"> int[]&gt;</text>
<polyline fill="none" stroke="#bfbfbf" points="531.5,-1537.5 660.5,-1537.5 "/>
<text text-anchor="middle" x="596" y="-1525.5" font-family="Helvetica,sans-Serif" font-size="10.00" fill="#000000"> </text>
<polyline fill="none" stroke="#bfbfbf" points="531.5,-1518.5 660.5,-1518.5 "/>
<text text-anchor="start" x="539.5" y="-1506.5" font-family="Helvetica,sans-Serif" font-size="10.00" fill="#000000">+ operator&#45;&gt;()</text>
</g>
<!-- Node7&#45;&gt;Node19 -->
<g id="edge12" class="edge">
<title>Node7&#45;&gt;Node19</title>
<path fill="none" stroke="#404040" d="M323.781,-1855.9681C369.1666,-1846.3731 505.243,-1815.3879 535,-1783 586.36,-1727.0992 596.387,-1635.212 597.3411,-1579.9206"/>
<polygon fill="none" stroke="#404040" points="597.3424,-1579.7001 593.3784,-1573.6762 597.4142,-1567.7003 601.3782,-1573.7241 597.3424,-1579.7001"/>
<text text-anchor="middle" x="586.5" y="-1746" font-family="Helvetica,sans-Serif" font-size="10.00" fill="#000000"> +ptr</text>
</g>
<!-- Node13 -->
<g id="node8" class="node">
<title>Node13</title>
<polygon fill="#ffffff" stroke="#bfbfbf" points="128,-1720 128,-1777 244,-1777 244,-1720 128,-1720"/>
<text text-anchor="middle" x="186" y="-1765" font-family="Helvetica,sans-Serif" font-size="10.00" fill="#000000">atomic&lt; unsigned int &gt;</text>
<polyline fill="none" stroke="#bfbfbf" points="128,-1758 244,-1758 "/>
<text text-anchor="middle" x="186" y="-1746" font-family="Helvetica,sans-Serif" font-size="10.00" fill="#000000"> </text>
<polyline fill="none" stroke="#bfbfbf" points="128,-1739 244,-1739 "/>
<text text-anchor="middle" x="186" y="-1727" font-family="Helvetica,sans-Serif" font-size="10.00" fill="#000000"> </text>
</g>
<!-- Node13&#45;&gt;Node5 -->
<g id="edge7" class="edge">
<title>Node13&#45;&gt;Node5</title>
<path fill="none" stroke="#404040" d="M205.786,-1719.9497C221.0723,-1697.8923 243.208,-1665.9516 264.852,-1634.7202"/>
<polygon fill="none" stroke="#404040" points="265.0174,-1634.4815 265.1474,-1627.2715 271.8528,-1624.6185 271.7228,-1631.8284 265.0174,-1634.4815"/>
<text text-anchor="middle" x="245.5" y="-1688" font-family="Helvetica,sans-Serif" font-size="10.00" fill="#000000"> &#45;counter</text>
</g>
<!-- Node14 -->
<g id="node9" class="node">
<title>Node14</title>
<polygon fill="#ffffff" stroke="#bfbfbf" points="262,-1720 262,-1777 306,-1777 306,-1720 262,-1720"/>
<text text-anchor="middle" x="284" y="-1765" font-family="Helvetica,sans-Serif" font-size="10.00" fill="#000000">mutex</text>
<polyline fill="none" stroke="#bfbfbf" points="262,-1758 306,-1758 "/>
<text text-anchor="middle" x="284" y="-1746" font-family="Helvetica,sans-Serif" font-size="10.00" fill="#000000"> </text>
<polyline fill="none" stroke="#bfbfbf" points="262,-1739 306,-1739 "/>
<text text-anchor="middle" x="284" y="-1727" font-family="Helvetica,sans-Serif" font-size="10.00" fill="#000000"> </text>
</g>
<!-- Node14&#45;&gt;Node5 -->
<g id="edge8" class="edge">
<title>Node14&#45;&gt;Node5</title>
<path fill="none" stroke="#404040" d="M290.7724,-1719.9497C293.5146,-1708.3895 296.9007,-1694.1147 300.569,-1678.6501"/>
<polygon fill="none" stroke="#404040" points="300.6535,-1678.2936 298.1464,-1671.5323 303.4233,-1666.6176 305.9304,-1673.3788 300.6535,-1678.2936"/>
<text text-anchor="middle" x="315" y="-1688" font-family="Helvetica,sans-Serif" font-size="10.00" fill="#000000"> &#45;mutex</text>
</g>
<!-- Node15 -->
<g id="node10" class="node">
<title>Node15</title>
<polygon fill="#ffffff" stroke="#bfbfbf" points="324.5,-1714.5 324.5,-1782.5 445.5,-1782.5 445.5,-1714.5 324.5,-1714.5"/>
<text text-anchor="start" x="332.5" y="-1770.5" font-family="Helvetica,sans-Serif" font-size="10.00" fill="#000000">std::vector&lt; std::atomic</text>
<text text-anchor="middle" x="385" y="-1759.5" font-family="Helvetica,sans-Serif" font-size="10.00" fill="#000000">&lt; bool &gt; *&gt;</text>
<polyline fill="none" stroke="#bfbfbf" points="324.5,-1752.5 445.5,-1752.5 "/>
<text text-anchor="middle" x="385" y="-1740.5" font-family="Helvetica,sans-Serif" font-size="10.00" fill="#000000"> </text>
<polyline fill="none" stroke="#bfbfbf" points="324.5,-1733.5 445.5,-1733.5 "/>
<text text-anchor="middle" x="385" y="-1721.5" font-family="Helvetica,sans-Serif" font-size="10.00" fill="#000000"> </text>
</g>
<!-- Node15&#45;&gt;Node5 -->
<g id="edge9" class="edge">
<title>Node15&#45;&gt;Node5</title>
<path fill="none" stroke="#404040" d="M377.0774,-1714.4326C374.6281,-1703.9009 371.76,-1691.568 368.6924,-1678.3775"/>
<polygon fill="none" stroke="#404040" points="368.6691,-1678.2769 363.414,-1673.3389 365.9509,-1666.5888 371.206,-1671.5268 368.6691,-1678.2769"/>
<text text-anchor="middle" x="410.5" y="-1688" font-family="Helvetica,sans-Serif" font-size="10.00" fill="#000000"> &#45;validity_pointers</text>
</g>
<!-- Node18 -->
<g id="node11" class="node">
<title>Node18</title>
<polygon fill="#ffffff" stroke="#bfbfbf" points="463.5,-1720 463.5,-1777 526.5,-1777 526.5,-1720 463.5,-1720"/>
<text text-anchor="middle" x="495" y="-1765" font-family="Helvetica,sans-Serif" font-size="10.00" fill="#000000">type_info *</text>
<polyline fill="none" stroke="#bfbfbf" points="463.5,-1758 526.5,-1758 "/>
<text text-anchor="middle" x="495" y="-1746" font-family="Helvetica,sans-Serif" font-size="10.00" fill="#000000"> </text>
<polyline fill="none" stroke="#bfbfbf" points="463.5,-1739 526.5,-1739 "/>
<text text-anchor="middle" x="495" y="-1727" font-family="Helvetica,sans-Serif" font-size="10.00" fill="#000000"> </text>
</g>
<!-- Node18&#45;&gt;Node5 -->
<g id="edge10" class="edge">
<title>Node18&#45;&gt;Node5</title>
<path fill="none" stroke="#404040" d="M476.6462,-1719.7316C469.4567,-1708.7365 461.0211,-1696.1634 453,-1685 438.0534,-1664.198 421.4497,-1642.236 405.5298,-1621.684"/>
<polygon fill="none" stroke="#404040" points="405.3934,-1621.5087 398.5525,-1619.2278 398.0268,-1612.0359 404.8677,-1614.3167 405.3934,-1621.5087"/>
<text text-anchor="middle" x="488" y="-1688" font-family="Helvetica,sans-Serif" font-size="10.00" fill="#000000"> &#45;object_info</text>
</g>
<!-- Node19&#45;&gt;Node4 -->
<g id="edge11" class="edge">
<title>Node19&#45;&gt;Node4</title>
<path fill="none" stroke="#404040" d="M611.6008,-1499.4018C647.1009,-1421.8107 735.7233,-1228.1121 798.8167,-1090.2113"/>
<polygon fill="none" stroke="#404040" points="798.8923,-1090.046 797.7512,-1082.9258 803.8849,-1079.1339 805.0259,-1086.2542 798.8923,-1090.046"/>
<text text-anchor="middle" x="707" y="-1357.5" font-family="Helvetica,sans-Serif" font-size="10.00" fill="#000000"> #colnums</text>
</g>
<!-- Node20 -->
<g id="node13" class="node">
<title>Node20</title>
<g id="a_node13"><a xlink:title="STL class. ">
<polygon fill="#ffffff" stroke="#bfbfbf" points="623.5,-1720 623.5,-1777 728.5,-1777 728.5,-1720 623.5,-1720"/>
<text text-anchor="middle" x="676" y="-1765" font-family="Helvetica,sans-Serif" font-size="10.00" fill="#000000">std::unique_ptr&lt; T &gt;</text>
<polyline fill="none" stroke="#bfbfbf" points="623.5,-1758 728.5,-1758 "/>
<text text-anchor="middle" x="676" y="-1746" font-family="Helvetica,sans-Serif" font-size="10.00" fill="#000000"> </text>
<polyline fill="none" stroke="#bfbfbf" points="623.5,-1739 728.5,-1739 "/>
<text text-anchor="start" x="631.5" y="-1727" font-family="Helvetica,sans-Serif" font-size="10.00" fill="#000000">+ operator&#45;&gt;()</text>
</a>
</g>
</g>
<!-- Node20&#45;&gt;Node19 -->
<g id="edge13" class="edge">
<title>Node20&#45;&gt;Node19</title>
<path fill="none" stroke="#ffa500" d="M624.2582,-1712.797C619.4822,-1707.6613 615.2322,-1702.0457 612,-1696 590.5482,-1655.8756 589.7058,-1602.1895 592.0626,-1567.7185"/>
<polygon fill="#ffa500" stroke="#ffa500" points="621.9846,-1715.4695 631.5749,-1719.9724 626.8859,-1710.4717 621.9846,-1715.4695"/>
<text text-anchor="middle" x="650.5" y="-1688" font-family="Helvetica,sans-Serif" font-size="10.00" fill="#000000"> &lt; unsigned int[]&gt;</text>
</g>
<!-- Node21 -->
<g id="node14" class="node">
<title>Node21</title>
<polygon fill="#ffffff" stroke="#bfbfbf" points="685,-1499.5 685,-1567.5 789,-1567.5 789,-1499.5 685,-1499.5"/>
<text text-anchor="start" x="693" y="-1555.5" font-family="Helvetica,sans-Serif" font-size="10.00" fill="#000000">std::unique_ptr&lt; std</text>
<text text-anchor="middle" x="737" y="-1544.5" font-family="Helvetica,sans-Serif" font-size="10.00" fill="#000000">::size_t[]&gt;</text>
<polyline fill="none" stroke="#bfbfbf" points="685,-1537.5 789,-1537.5 "/>
<text text-anchor="middle" x="737" y="-1525.5" font-family="Helvetica,sans-Serif" font-size="10.00" fill="#000000"> </text>
<polyline fill="none" stroke="#bfbfbf" points="685,-1518.5 789,-1518.5 "/>
<text text-anchor="start" x="693" y="-1506.5" font-family="Helvetica,sans-Serif" font-size="10.00" fill="#000000">+ operator&#45;&gt;()</text>
</g>
<!-- Node20&#45;&gt;Node21 -->
<g id="edge16" class="edge">
<title>Node20&#45;&gt;Node21</title>
<path fill="none" stroke="#ffa500" d="M686.8681,-1710.1944C698.3319,-1669.7892 716.2304,-1606.7044 727.2521,-1567.8572"/>
<polygon fill="#ffa500" stroke="#ffa500" points="683.4628,-1709.374 684.1003,-1719.9497 690.197,-1711.2847 683.4628,-1709.374"/>
<text text-anchor="middle" x="728" y="-1688" font-family="Helvetica,sans-Serif" font-size="10.00" fill="#000000"> &lt; std::size_t[]&gt;</text>
</g>
<!-- Node21&#45;&gt;Node4 -->
<g id="edge14" class="edge">
<title>Node21&#45;&gt;Node4</title>
<path fill="none" stroke="#404040" d="M741.2238,-1499.4204C746.3082,-1460.2726 755.602,-1394.2007 767,-1338 776.8779,-1289.2946 788.8432,-1237.604 801.0327,-1188.1449"/>
<polygon fill="none" stroke="#404040" points="801.0826,-1187.9435 798.6425,-1181.1577 803.9677,-1176.2955 806.4078,-1183.0812 801.0826,-1187.9435"/>
<text text-anchor="middle" x="789" y="-1357.5" font-family="Helvetica,sans-Serif" font-size="10.00" fill="#000000"> #rowstart</text>
</g>
<!-- Node22 -->
<g id="node15" class="node">
<title>Node22</title>
<polygon fill="#ffffff" stroke="#bfbfbf" points="803.5,-1720 803.5,-1777 846.5,-1777 846.5,-1720 803.5,-1720"/>
<text text-anchor="middle" x="825" y="-1765" font-family="Helvetica,sans-Serif" font-size="10.00" fill="#000000">size_t</text>
<polyline fill="none" stroke="#bfbfbf" points="803.5,-1758 846.5,-1758 "/>
<text text-anchor="middle" x="825" y="-1746" font-family="Helvetica,sans-Serif" font-size="10.00" fill="#000000"> </text>
<polyline fill="none" stroke="#bfbfbf" points="803.5,-1739 846.5,-1739 "/>
<text text-anchor="middle" x="825" y="-1727" font-family="Helvetica,sans-Serif" font-size="10.00" fill="#000000"> </text>
</g>
<!-- Node22&#45;&gt;Node3 -->
<g id="edge21" class="edge">
<title>Node22&#45;&gt;Node3</title>
<path fill="none" stroke="#404040" d="M846.8491,-1745.6023C908.3921,-1736.9683 1080.9811,-1709.3549 1116,-1667 1392.8439,-1332.1608 1195.0964,-758.3169 1094.7873,-522.2233"/>
<polygon fill="none" stroke="#404040" points="1094.6618,-521.93 1088.6235,-517.988 1089.9399,-510.898 1095.9782,-514.84 1094.6618,-521.93"/>
<text text-anchor="middle" x="1278.5" y="-1357.5" font-family="Helvetica,sans-Serif" font-size="10.00" fill="#000000"> #linear_index</text>
</g>
<!-- Node22&#45;&gt;Node4 -->
<g id="edge20" class="edge">
<title>Node22&#45;&gt;Node4</title>
<path fill="none" stroke="#404040" d="M825.4119,-1719.5686C826.3547,-1659.825 829.0619,-1518.4869 835,-1400 836.1158,-1377.7356 837.3781,-1354.8742 838.7419,-1331.8077"/>
<polygon fill="none" stroke="#404040" points="838.7478,-1331.7073 835.1131,-1325.4793 839.4641,-1319.7287 843.0988,-1325.9568 838.7478,-1331.7073"/>
<text text-anchor="middle" x="868.5" y="-1531" font-family="Helvetica,sans-Serif" font-size="10.00" fill="#000000"> #max_vec_len</text>
</g>
<!-- Node22&#45;&gt;Node21 -->
<g id="edge15" class="edge">
<title>Node22&#45;&gt;Node21</title>
<path fill="none" stroke="#404040" d="M803.9059,-1719.9097C798.9202,-1712.3729 793.9204,-1704.0819 790,-1696 771.66,-1658.1916 757.3926,-1612.4885 748.304,-1579.1937"/>
<polygon fill="none" stroke="#404040" points="748.2847,-1579.1209 742.8734,-1574.3544 745.192,-1567.5262 750.6032,-1572.2926 748.2847,-1579.1209"/>
<text text-anchor="middle" x="800.5" y="-1688" font-family="Helvetica,sans-Serif" font-size="10.00" fill="#000000"> +ptr</text>
</g>
<!-- Node23 -->
<g id="node16" class="node">
<title>Node23</title>
<g id="a_node16"><a xlink:href="classbool.html" target="_top" xlink:title="{bool\n||}">
<polygon fill="#ffffff" stroke="#000000" points="910.5,-1505 910.5,-1562 945.5,-1562 945.5,-1505 910.5,-1505"/>
<text text-anchor="middle" x="928" y="-1550" font-family="Helvetica,sans-Serif" font-size="10.00" fill="#000000">bool</text>
<polyline fill="none" stroke="#000000" points="910.5,-1543 945.5,-1543 "/>
<text text-anchor="middle" x="928" y="-1531" font-family="Helvetica,sans-Serif" font-size="10.00" fill="#000000"> </text>
<polyline fill="none" stroke="#000000" points="910.5,-1524 945.5,-1524 "/>
<text text-anchor="middle" x="928" y="-1512" font-family="Helvetica,sans-Serif" font-size="10.00" fill="#000000"> </text>
</a>
</g>
</g>
<!-- Node23&#45;&gt;Node4 -->
<g id="edge17" class="edge">
<title>Node23&#45;&gt;Node4</title>
<path fill="none" stroke="#404040" d="M924.6444,-1504.7522C921.1191,-1474.2897 915.4757,-1424.7756 911,-1382 909.2853,-1365.612 907.5579,-1348.8804 905.8318,-1331.9761"/>
<polygon fill="none" stroke="#404040" points="905.7913,-1331.5774 901.2039,-1326.0136 904.5754,-1319.6391 909.1627,-1325.203 905.7913,-1331.5774"/>
<text text-anchor="middle" x="942" y="-1357.5" font-family="Helvetica,sans-Serif" font-size="10.00" fill="#000000"> #compressed</text>
</g>
<!-- Node24 -->
<g id="node17" class="node">
<title>Node24</title>
<g id="a_node17"><a xlink:href="classunsigned_01int.html" target="_top" xlink:title="{unsigned int\n||}">
<polygon fill="#ffffff" stroke="#000000" points="963.5,-1505 963.5,-1562 1032.5,-1562 1032.5,-1505 963.5,-1505"/>
<text text-anchor="middle" x="998" y="-1550" font-family="Helvetica,sans-Serif" font-size="10.00" fill="#000000">unsigned int</text>
<polyline fill="none" stroke="#000000" points="963.5,-1543 1032.5,-1543 "/>
<text text-anchor="middle" x="998" y="-1531" font-family="Helvetica,sans-Serif" font-size="10.00" fill="#000000"> </text>
<polyline fill="none" stroke="#000000" points="963.5,-1524 1032.5,-1524 "/>
<text text-anchor="middle" x="998" y="-1512" font-family="Helvetica,sans-Serif" font-size="10.00" fill="#000000"> </text>
</a>
</g>
</g>
<!-- Node24&#45;&gt;Node4 -->
<g id="edge18" class="edge">
<title>Node24&#45;&gt;Node4</title>
<path fill="none" stroke="#404040" d="M995.5117,-1504.8223C991.9229,-1466.5521 984.4415,-1396.7771 973,-1338 962.5443,-1284.2874 948.9784,-1227.1003 935.0897,-1173.2958"/>
<polygon fill="none" stroke="#404040" points="935.0452,-1173.1239 929.6652,-1168.3222 932.0284,-1161.5093 937.4083,-1166.311 935.0452,-1173.1239"/>
<text text-anchor="middle" x="1010.5" y="-1374" font-family="Helvetica,sans-Serif" font-size="10.00" fill="#000000"> #cols</text>
<text text-anchor="middle" x="1010.5" y="-1363" font-family="Helvetica,sans-Serif" font-size="10.00" fill="#000000">#max_dim</text>
<text text-anchor="middle" x="1010.5" y="-1352" font-family="Helvetica,sans-Serif" font-size="10.00" fill="#000000">+invalid_entry</text>
<text text-anchor="middle" x="1010.5" y="-1341" font-family="Helvetica,sans-Serif" font-size="10.00" fill="#000000">#rows</text>
</g>
<!-- Node25 -->
<g id="node18" class="node">
<title>Node25</title>
<polygon fill="#ffffff" stroke="#bfbfbf" points="1051,-1505 1051,-1562 1107,-1562 1107,-1505 1051,-1505"/>
<text text-anchor="middle" x="1079" y="-1550" font-family="Helvetica,sans-Serif" font-size="10.00" fill="#000000">unsigned</text>
<polyline fill="none" stroke="#bfbfbf" points="1051,-1543 1107,-1543 "/>
<text text-anchor="middle" x="1079" y="-1531" font-family="Helvetica,sans-Serif" font-size="10.00" fill="#000000"> </text>
<polyline fill="none" stroke="#bfbfbf" points="1051,-1524 1107,-1524 "/>
<text text-anchor="middle" x="1079" y="-1512" font-family="Helvetica,sans-Serif" font-size="10.00" fill="#000000"> </text>
</g>
<!-- Node25&#45;&gt;Node4 -->
<g id="edge19" class="edge">
<title>Node25&#45;&gt;Node4</title>
<path fill="none" stroke="#404040" d="M1076.2405,-1504.8251C1072.0291,-1466.263 1062.5701,-1395.8512 1045,-1338 1017.3457,-1246.9457 974.233,-1149.2151 937.4812,-1073.2669"/>
<polygon fill="none" stroke="#404040" points="937.3579,-1073.0133 931.1359,-1069.3682 932.1076,-1062.2228 938.3296,-1065.868 937.3579,-1073.0133"/>
<text text-anchor="middle" x="1096" y="-1357.5" font-family="Helvetica,sans-Serif" font-size="10.00" fill="#000000"> #max_row_length</text>
</g>
</g>
</svg>
