<?xml version="1.0" encoding="UTF-8" standalone="no"?>
<!DOCTYPE svg PUBLIC "-//W3C//DTD SVG 1.1//EN"
 "http://www.w3.org/Graphics/SVG/1.1/DTD/svg11.dtd">
<!-- Generated by graphviz version 2.40.1 (20161225.0304)
 -->
<!-- Title: DesignPattern::ChainofResponsibility::AbstractHandler Pages: 1 -->
<svg width="188pt" height="226pt"
 viewBox="0.00 0.00 188.00 226.00" xmlns="http://www.w3.org/2000/svg" xmlns:xlink="http://www.w3.org/1999/xlink">
<g id="graph0" class="graph" transform="scale(1 1) rotate(0) translate(4 222)">
<title>DesignPattern::ChainofResponsibility::AbstractHandler</title>
<polygon fill="#ffffff" stroke="transparent" points="-4,4 -4,-222 184,-222 184,4 -4,4"/>
<!-- Node5 -->
<g id="node1" class="node">
<title>Node5</title>
<polygon fill="#bfbfbf" stroke="#000000" points="0,-.5 0,-90.5 180,-90.5 180,-.5 0,-.5"/>
<text text-anchor="start" x="8" y="-78.5" font-family="Helvetica,sans-Serif" font-size="10.00" fill="#000000">DesignPattern::ChainofResponsibility</text>
<text text-anchor="middle" x="90" y="-67.5" font-family="Helvetica,sans-Serif" font-size="10.00" fill="#000000">::AbstractHandler</text>
<polyline fill="none" stroke="#000000" points="0,-60.5 180,-60.5 "/>
<text text-anchor="middle" x="90" y="-48.5" font-family="Helvetica,sans-Serif" font-size="10.00" fill="#000000"> </text>
<polyline fill="none" stroke="#000000" points="0,-41.5 180,-41.5 "/>
<text text-anchor="start" x="8" y="-29.5" font-family="Helvetica,sans-Serif" font-size="10.00" fill="#000000">+ AbstractHandler()</text>
<text text-anchor="start" x="8" y="-18.5" font-family="Helvetica,sans-Serif" font-size="10.00" fill="#000000">+ SetNext()</text>
<text text-anchor="start" x="8" y="-7.5" font-family="Helvetica,sans-Serif" font-size="10.00" fill="#000000">+ Handle()</text>
</g>
<!-- Node6 -->
<g id="node2" class="node">
<title>Node6</title>
<g id="a_node2"><a xlink:href="classDesignPattern_1_1ChainofResponsibility_1_1Handler.html" target="_top" xlink:title="{DesignPattern::ChainofResponsibility\l::Handler\n||+ SetNext()\l+ Handle()\l}">
<polygon fill="#ffffff" stroke="#000000" points="0,-138.5 0,-217.5 180,-217.5 180,-138.5 0,-138.5"/>
<text text-anchor="start" x="8" y="-205.5" font-family="Helvetica,sans-Serif" font-size="10.00" fill="#000000">DesignPattern::ChainofResponsibility</text>
<text text-anchor="middle" x="90" y="-194.5" font-family="Helvetica,sans-Serif" font-size="10.00" fill="#000000">::Handler</text>
<polyline fill="none" stroke="#000000" points="0,-187.5 180,-187.5 "/>
<text text-anchor="middle" x="90" y="-175.5" font-family="Helvetica,sans-Serif" font-size="10.00" fill="#000000"> </text>
<polyline fill="none" stroke="#000000" points="0,-168.5 180,-168.5 "/>
<text text-anchor="start" x="8" y="-156.5" font-family="Helvetica,sans-Serif" font-size="10.00" fill="#000000">+ SetNext()</text>
<text text-anchor="start" x="8" y="-145.5" font-family="Helvetica,sans-Serif" font-size="10.00" fill="#000000">+ Handle()</text>
</a>
</g>
</g>
<!-- Node6&#45;&gt;Node5 -->
<g id="edge1" class="edge">
<title>Node6&#45;&gt;Node5</title>
<path fill="none" stroke="#191970" d="M88.1726,-128.2457C88.105,-125.4564 88.0464,-122.6932 88,-120 87.8372,-110.5562 87.9299,-100.4404 88.1456,-90.8037"/>
<polygon fill="none" stroke="#191970" points="84.6776,-128.4814 88.4517,-138.3812 91.675,-128.2886 84.6776,-128.4814"/>
</g>
<!-- Node6&#45;&gt;Node5 -->
<g id="edge2" class="edge">
<title>Node6&#45;&gt;Node5</title>
<path fill="none" stroke="#404040" d="M90,-138.2456C90,-127.1568 90,-114.8824 90,-102.9911"/>
<polygon fill="none" stroke="#404040" points="90.0001,-102.8036 86,-96.8037 90,-90.8036 94,-96.8036 90.0001,-102.8036"/>
<text text-anchor="middle" x="123.5" y="-112" font-family="Helvetica,sans-Serif" font-size="10.00" fill="#000000"> &#45;next_handler_</text>
</g>
</g>
</svg>
