<?xml version="1.0" encoding="UTF-8" standalone="no"?>
<!DOCTYPE svg PUBLIC "-//W3C//DTD SVG 1.1//EN"
 "http://www.w3.org/Graphics/SVG/1.1/DTD/svg11.dtd">
<!-- Generated by graphviz version 2.40.1 (20161225.0304)
 -->
<!-- Title: MGTransferSelect&lt; number &gt; Pages: 1 -->
<svg width="316pt" height="220pt"
 viewBox="0.00 0.00 315.50 220.00" xmlns="http://www.w3.org/2000/svg" xmlns:xlink="http://www.w3.org/1999/xlink">
<g id="graph0" class="graph" transform="scale(1 1) rotate(0) translate(4 216)">
<title>MGTransferSelect&lt; number &gt;</title>
<polygon fill="#ffffff" stroke="transparent" points="-4,4 -4,-216 311.5,-216 311.5,4 -4,4"/>
<!-- Node0 -->
<g id="node1" class="node">
<title>Node0</title>
<polygon fill="#bfbfbf" stroke="#000000" points="69,-.5 69,-19.5 230,-19.5 230,-.5 69,-.5"/>
<text text-anchor="middle" x="149.5" y="-7.5" font-family="Helvetica,sans-Serif" font-size="10.00" fill="#000000">MGTransferSelect&lt; number &gt;</text>
</g>
<!-- Node1 -->
<g id="node2" class="node">
<title>Node1</title>
<g id="a_node2"><a xlink:href="classMGTransferBase.html" target="_top" xlink:title="MGTransferBase\&lt; Vector\l\&lt; number \&gt; \&gt;">
<polygon fill="#ffffff" stroke="#000000" points="0,-57.5 0,-87.5 137,-87.5 137,-57.5 0,-57.5"/>
<text text-anchor="start" x="8" y="-75.5" font-family="Helvetica,sans-Serif" font-size="10.00" fill="#000000">MGTransferBase&lt; Vector</text>
<text text-anchor="middle" x="68.5" y="-64.5" font-family="Helvetica,sans-Serif" font-size="10.00" fill="#000000">&lt; number &gt; &gt;</text>
</a>
</g>
</g>
<!-- Node1&#45;&gt;Node0 -->
<g id="edge1" class="edge">
<title>Node1&#45;&gt;Node0</title>
<path fill="none" stroke="#191970" d="M96.3416,-51.0173C110.1218,-40.3844 126.0758,-28.0743 136.8827,-19.7356"/>
<polygon fill="#191970" stroke="#191970" points="93.8869,-48.4905 88.1078,-57.3705 98.1631,-54.0326 93.8869,-48.4905"/>
</g>
<!-- Node2 -->
<g id="node3" class="node">
<title>Node2</title>
<g id="a_node3"><a xlink:href="classSubscriptor.html" target="_top" xlink:title="Subscriptor">
<polygon fill="#ffffff" stroke="#000000" points="29,-192.5 29,-211.5 100,-211.5 100,-192.5 29,-192.5"/>
<text text-anchor="middle" x="64.5" y="-199.5" font-family="Helvetica,sans-Serif" font-size="10.00" fill="#000000">Subscriptor</text>
</a>
</g>
</g>
<!-- Node2&#45;&gt;Node1 -->
<g id="edge2" class="edge">
<title>Node2&#45;&gt;Node1</title>
<path fill="none" stroke="#191970" d="M65.1141,-182.1183C65.9157,-156.1655 67.3017,-111.2948 68.0268,-87.8199"/>
<polygon fill="#191970" stroke="#191970" points="61.6111,-182.1631 64.8007,-192.2665 68.6078,-182.3793 61.6111,-182.1631"/>
</g>
<!-- Node3 -->
<g id="node4" class="node">
<title>Node3</title>
<g id="a_node4"><a xlink:href="classMGTransferBase.html" target="_top" xlink:title="MGTransferBase\&lt; VectorType \&gt;">
<polygon fill="#ffffff" stroke="#000000" points="81,-135.5 81,-154.5 252,-154.5 252,-135.5 81,-135.5"/>
<text text-anchor="middle" x="166.5" y="-142.5" font-family="Helvetica,sans-Serif" font-size="10.00" fill="#000000">MGTransferBase&lt; VectorType &gt;</text>
</a>
</g>
</g>
<!-- Node2&#45;&gt;Node3 -->
<g id="edge4" class="edge">
<title>Node2&#45;&gt;Node3</title>
<path fill="none" stroke="#191970" d="M90.6155,-187.4061C109.1132,-177.0691 133.3964,-163.4991 149.4526,-154.5265"/>
<polygon fill="#191970" stroke="#191970" points="88.825,-184.3972 81.8029,-192.3307 92.2397,-190.5078 88.825,-184.3972"/>
</g>
<!-- Node3&#45;&gt;Node1 -->
<g id="edge3" class="edge">
<title>Node3&#45;&gt;Node1</title>
<path fill="none" stroke="#ffa500" stroke-dasharray="5,2" d="M145.2123,-129.2515C128.5347,-116.9134 105.476,-99.8547 89.003,-87.668"/>
<polygon fill="#ffa500" stroke="#ffa500" points="143.1625,-132.0886 153.2833,-135.2223 147.3257,-126.4612 143.1625,-132.0886"/>
<text text-anchor="middle" x="185" y="-109" font-family="Helvetica,sans-Serif" font-size="10.00" fill="#000000"> &lt; Vector&lt; number &gt; &gt;</text>
</g>
<!-- Node4 -->
<g id="node5" class="node">
<title>Node4</title>
<g id="a_node5"><a xlink:href="classMGTransferComponentBase.html" target="_top" xlink:title="MGTransferComponentBase">
<polygon fill="#ffffff" stroke="#000000" points="155.5,-63 155.5,-82 307.5,-82 307.5,-63 155.5,-63"/>
<text text-anchor="middle" x="231.5" y="-70" font-family="Helvetica,sans-Serif" font-size="10.00" fill="#000000">MGTransferComponentBase</text>
</a>
</g>
</g>
<!-- Node4&#45;&gt;Node0 -->
<g id="edge5" class="edge">
<title>Node4&#45;&gt;Node0</title>
<path fill="none" stroke="#8b1a1a" d="M210.3655,-56.3914C195.1293,-44.7784 175.0666,-29.4867 162.2225,-19.697"/>
<polygon fill="#8b1a1a" stroke="#8b1a1a" points="208.6126,-59.4561 218.6875,-62.7344 212.856,-53.8888 208.6126,-59.4561"/>
</g>
</g>
</svg>
