<?xml version="1.0" encoding="UTF-8" standalone="no"?>
<!DOCTYPE svg PUBLIC "-//W3C//DTD SVG 1.1//EN"
 "http://www.w3.org/Graphics/SVG/1.1/DTD/svg11.dtd">
<!-- Generated by graphviz version 2.40.1 (20161225.0304)
 -->
<!-- Title: include/deal.II/non_matching Pages: 1 -->
<svg width="282pt" height="439pt"
 viewBox="0.00 0.00 281.82 439.00" xmlns="http://www.w3.org/2000/svg" xmlns:xlink="http://www.w3.org/1999/xlink">
<g id="graph0" class="graph" transform="scale(1 1) rotate(0) translate(4 435)">
<title>include/deal.II/non_matching</title>
<polygon fill="#ffffff" stroke="transparent" points="-4,4 -4,-435 277.8226,-435 277.8226,4 -4,4"/>
<g id="clust1" class="cluster">
<title>clusterdir_ee90d91a514b839c31faec7a1d916f67</title>
<g id="a_clust1"><a xlink:href="dir_ee90d91a514b839c31faec7a1d916f67.html" target="_top" xlink:title="deal.II">
<polygon fill="#ddddee" stroke="#000000" points="101,-352 101,-423 203,-423 203,-352 101,-352"/>
<text text-anchor="middle" x="152" y="-411" font-family="Helvetica,sans-Serif" font-size="10.00" fill="#000000">deal.II</text>
</a>
</g>
</g>
<!-- dir_1a13f2884faccc64ea82a419252cfc11 -->
<g id="node1" class="node">
<title>dir_1a13f2884faccc64ea82a419252cfc11</title>
<g id="a_node1"><a xlink:href="dir_1a13f2884faccc64ea82a419252cfc11.html" target="_top" xlink:title="non_matching">
<polygon fill="#eeeeff" stroke="#000000" points="195,-396 109,-396 109,-360 195,-360 195,-396"/>
<text text-anchor="middle" x="152" y="-375.5" font-family="Helvetica,sans-Serif" font-size="10.00" fill="#000000">non_matching</text>
</a>
</g>
</g>
<!-- dir_b2430326e20a3ae038db3bac19f0573b -->
<g id="node2" class="node">
<title>dir_b2430326e20a3ae038db3bac19f0573b</title>
<g id="a_node2"><a xlink:href="dir_b2430326e20a3ae038db3bac19f0573b.html" target="_top" xlink:title="lac">
<polygon fill="none" stroke="#000000" points="179,-324 125,-324 125,-288 179,-288 179,-324"/>
<text text-anchor="middle" x="152" y="-303.5" font-family="Helvetica,sans-Serif" font-size="10.00" fill="#000000">lac</text>
</a>
</g>
</g>
<!-- dir_1a13f2884faccc64ea82a419252cfc11&#45;&gt;dir_b2430326e20a3ae038db3bac19f0573b -->
<g id="edge6" class="edge">
<title>dir_1a13f2884faccc64ea82a419252cfc11&#45;&gt;dir_b2430326e20a3ae038db3bac19f0573b</title>
<path fill="none" stroke="#000000" d="M152,-359.8314C152,-352.131 152,-342.9743 152,-334.4166"/>
<polygon fill="#000000" stroke="#000000" points="155.5001,-334.4132 152,-324.4133 148.5001,-334.4133 155.5001,-334.4132"/>
<g id="a_edge6&#45;headlabel"><a xlink:href="dir_000032_000007.html" target="_top" xlink:title="1">
<text text-anchor="middle" x="158.3393" y="-335.5079" font-family="Helvetica,sans-Serif" font-size="10.00" fill="#000000">1</text>
</a>
</g>
</g>
<!-- dir_a933ab6cde53f9fa4d29dc295cb0ac5f -->
<g id="node3" class="node">
<title>dir_a933ab6cde53f9fa4d29dc295cb0ac5f</title>
<g id="a_node3"><a xlink:href="dir_a933ab6cde53f9fa4d29dc295cb0ac5f.html" target="_top" xlink:title="grid">
<polygon fill="none" stroke="#000000" points="220,-36 166,-36 166,0 220,0 220,-36"/>
<text text-anchor="middle" x="193" y="-15.5" font-family="Helvetica,sans-Serif" font-size="10.00" fill="#000000">grid</text>
</a>
</g>
</g>
<!-- dir_1a13f2884faccc64ea82a419252cfc11&#45;&gt;dir_a933ab6cde53f9fa4d29dc295cb0ac5f -->
<g id="edge7" class="edge">
<title>dir_1a13f2884faccc64ea82a419252cfc11&#45;&gt;dir_a933ab6cde53f9fa4d29dc295cb0ac5f</title>
<path fill="none" stroke="#000000" d="M109.6595,-359.8995C64.684,-337.489 0,-294.7057 0,-234 0,-234 0,-234 0,-162 0,-85.0588 99.7528,-44.3206 155.8287,-27.4983"/>
<polygon fill="#000000" stroke="#000000" points="157.1202,-30.7684 165.7572,-24.6321 155.1787,-24.0431 157.1202,-30.7684"/>
<g id="a_edge7&#45;headlabel"><a xlink:href="dir_000032_000009.html" target="_top" xlink:title="1">
<text text-anchor="middle" x="154.4541" y="-31.9932" font-family="Helvetica,sans-Serif" font-size="10.00" fill="#000000">1</text>
</a>
</g>
</g>
<!-- dir_90a2ad6518b731f1dc196d14153b8b6b -->
<g id="node4" class="node">
<title>dir_90a2ad6518b731f1dc196d14153b8b6b</title>
<g id="a_node4"><a xlink:href="dir_90a2ad6518b731f1dc196d14153b8b6b.html" target="_top" xlink:title="base">
<polygon fill="#ffffff" stroke="#ff0000" points="234,-252 180,-252 180,-216 234,-216 234,-252"/>
<text text-anchor="middle" x="207" y="-231.5" font-family="Helvetica,sans-Serif" font-size="10.00" fill="#000000">base</text>
</a>
</g>
</g>
<!-- dir_1a13f2884faccc64ea82a419252cfc11&#45;&gt;dir_90a2ad6518b731f1dc196d14153b8b6b -->
<g id="edge8" class="edge">
<title>dir_1a13f2884faccc64ea82a419252cfc11&#45;&gt;dir_90a2ad6518b731f1dc196d14153b8b6b</title>
<path fill="none" stroke="#000000" d="M166.8853,-359.5185C174.2462,-349.5296 182.672,-336.6716 188,-324 196.3306,-304.1876 201.1533,-280.3321 203.8541,-262.1605"/>
<polygon fill="#000000" stroke="#000000" points="207.3302,-262.5721 205.2095,-252.1917 200.3941,-261.6289 207.3302,-262.5721"/>
<g id="a_edge8&#45;headlabel"><a xlink:href="dir_000032_000006.html" target="_top" xlink:title="8">
<text text-anchor="middle" x="209.6594" y="-264.0164" font-family="Helvetica,sans-Serif" font-size="10.00" fill="#000000">8</text>
</a>
</g>
</g>
<!-- dir_1a6d8571b8eba91bded1d6534762df79 -->
<g id="node5" class="node">
<title>dir_1a6d8571b8eba91bded1d6534762df79</title>
<g id="a_node5"><a xlink:href="dir_1a6d8571b8eba91bded1d6534762df79.html" target="_top" xlink:title="dofs">
<polygon fill="none" stroke="#000000" points="188,-108 134,-108 134,-72 188,-72 188,-108"/>
<text text-anchor="middle" x="161" y="-87.5" font-family="Helvetica,sans-Serif" font-size="10.00" fill="#000000">dofs</text>
</a>
</g>
</g>
<!-- dir_1a13f2884faccc64ea82a419252cfc11&#45;&gt;dir_1a6d8571b8eba91bded1d6534762df79 -->
<g id="edge9" class="edge">
<title>dir_1a13f2884faccc64ea82a419252cfc11&#45;&gt;dir_1a6d8571b8eba91bded1d6534762df79</title>
<path fill="none" stroke="#000000" d="M136.0095,-359.9169C128.3462,-350.0371 119.9834,-337.1563 116,-324 93.8766,-250.9315 127.0339,-161.6097 147.2679,-117.438"/>
<polygon fill="#000000" stroke="#000000" points="150.516,-118.7557 151.6076,-108.2172 144.1824,-115.7748 150.516,-118.7557"/>
<g id="a_edge9&#45;headlabel"><a xlink:href="dir_000032_000026.html" target="_top" xlink:title="1">
<text text-anchor="middle" x="151.5544" y="-120.7171" font-family="Helvetica,sans-Serif" font-size="10.00" fill="#000000">1</text>
</a>
</g>
</g>
<!-- dir_9706acb4d69a98d7c15ebe226493116f -->
<g id="node6" class="node">
<title>dir_9706acb4d69a98d7c15ebe226493116f</title>
<g id="a_node6"><a xlink:href="dir_9706acb4d69a98d7c15ebe226493116f.html" target="_top" xlink:title="fe">
<polygon fill="none" stroke="#000000" points="252,-180 198,-180 198,-144 252,-144 252,-180"/>
<text text-anchor="middle" x="225" y="-159.5" font-family="Helvetica,sans-Serif" font-size="10.00" fill="#000000">fe</text>
</a>
</g>
</g>
<!-- dir_1a13f2884faccc64ea82a419252cfc11&#45;&gt;dir_9706acb4d69a98d7c15ebe226493116f -->
<g id="edge10" class="edge">
<title>dir_1a13f2884faccc64ea82a419252cfc11&#45;&gt;dir_9706acb4d69a98d7c15ebe226493116f</title>
<path fill="none" stroke="#000000" d="M174.284,-359.8198C185.3624,-350.011 198.3981,-337.224 208,-324 228.9053,-295.2086 235.0188,-286.6739 243,-252 247.7729,-231.2641 242.6689,-207.6728 236.6934,-189.847"/>
<polygon fill="#000000" stroke="#000000" points="239.9438,-188.5437 233.2422,-180.3377 233.3638,-190.9318 239.9438,-188.5437"/>
<g id="a_edge10&#45;headlabel"><a xlink:href="dir_000032_000008.html" target="_top" xlink:title="4">
<text text-anchor="middle" x="243.839" y="-188.454" font-family="Helvetica,sans-Serif" font-size="10.00" fill="#000000">4</text>
</a>
</g>
</g>
<!-- dir_b2430326e20a3ae038db3bac19f0573b&#45;&gt;dir_90a2ad6518b731f1dc196d14153b8b6b -->
<g id="edge1" class="edge">
<title>dir_b2430326e20a3ae038db3bac19f0573b&#45;&gt;dir_90a2ad6518b731f1dc196d14153b8b6b</title>
<path fill="none" stroke="#000000" d="M159.9264,-287.8314C165.5094,-279.454 173.0357,-269.3531 180.4838,-260.1749"/>
<polygon fill="#000000" stroke="#000000" points="183.2404,-262.3344 186.9583,-252.4133 177.865,-257.8504 183.2404,-262.3344"/>
<g id="a_edge1&#45;headlabel"><a xlink:href="dir_000007_000006.html" target="_top" xlink:title="312">
<text text-anchor="middle" x="183.1181" y="-264.4134" font-family="Helvetica,sans-Serif" font-size="10.00" fill="#000000">312</text>
</a>
</g>
</g>
<!-- dir_a933ab6cde53f9fa4d29dc295cb0ac5f&#45;&gt;dir_b2430326e20a3ae038db3bac19f0573b -->
<g id="edge2" class="edge">
<title>dir_a933ab6cde53f9fa4d29dc295cb0ac5f&#45;&gt;dir_b2430326e20a3ae038db3bac19f0573b</title>
<path fill="none" stroke="#000000" d="M165.9896,-31.5415C150.9235,-40.7024 133.5213,-54.3518 125,-72 91.9379,-140.4742 121.1465,-232.9242 139.6107,-278.3992"/>
<polygon fill="#000000" stroke="#000000" points="136.4909,-280.0102 143.5841,-287.8802 142.9469,-277.3046 136.4909,-280.0102"/>
<g id="a_edge2&#45;headlabel"><a xlink:href="dir_000009_000007.html" target="_top" xlink:title="6">
<text text-anchor="middle" x="132.4829" y="-275.2924" font-family="Helvetica,sans-Serif" font-size="10.00" fill="#000000">6</text>
</a>
</g>
</g>
<!-- dir_a933ab6cde53f9fa4d29dc295cb0ac5f&#45;&gt;dir_90a2ad6518b731f1dc196d14153b8b6b -->
<g id="edge3" class="edge">
<title>dir_a933ab6cde53f9fa4d29dc295cb0ac5f&#45;&gt;dir_90a2ad6518b731f1dc196d14153b8b6b</title>
<path fill="none" stroke="#000000" d="M215.8655,-36.2509C224.7058,-46.3828 234.0724,-59.4445 241,-72 257.6661,-102.2054 263.4356,-110.1321 270,-144 273.0445,-159.7077 276.1229,-165.2179 270,-180 264.4066,-193.5036 253.6166,-205.391 242.4242,-214.5501"/>
<polygon fill="#000000" stroke="#000000" points="240.1326,-211.895 234.2718,-220.7212 244.3575,-217.4763 240.1326,-211.895"/>
<g id="a_edge3&#45;headlabel"><a xlink:href="dir_000009_000006.html" target="_top" xlink:title="89">
<text text-anchor="middle" x="241.285" y="-204.9617" font-family="Helvetica,sans-Serif" font-size="10.00" fill="#000000">89</text>
</a>
</g>
</g>
<!-- dir_a933ab6cde53f9fa4d29dc295cb0ac5f&#45;&gt;dir_1a6d8571b8eba91bded1d6534762df79 -->
<g id="edge4" class="edge">
<title>dir_a933ab6cde53f9fa4d29dc295cb0ac5f&#45;&gt;dir_1a6d8571b8eba91bded1d6534762df79</title>
<path fill="none" stroke="#000000" d="M190.7923,-36.4133C188.0067,-44.3991 183.9757,-53.9155 179.7062,-62.6975"/>
<polygon fill="#000000" stroke="#000000" points="176.4715,-61.3354 175.0273,-71.8314 182.7017,-64.5269 176.4715,-61.3354"/>
<g id="a_edge4&#45;headlabel"><a xlink:href="dir_000009_000026.html" target="_top" xlink:title="2">
<text text-anchor="middle" x="175.5833" y="-54.3417" font-family="Helvetica,sans-Serif" font-size="10.00" fill="#000000">2</text>
</a>
</g>
</g>
<!-- dir_a933ab6cde53f9fa4d29dc295cb0ac5f&#45;&gt;dir_9706acb4d69a98d7c15ebe226493116f -->
<g id="edge5" class="edge">
<title>dir_a933ab6cde53f9fa4d29dc295cb0ac5f&#45;&gt;dir_9706acb4d69a98d7c15ebe226493116f</title>
<path fill="none" stroke="#000000" d="M201.6782,-36.0896C209.6223,-60.6805 219.7251,-104.905 224.2288,-133.8531"/>
<polygon fill="#000000" stroke="#000000" points="220.7636,-134.3462 225.6203,-143.7623 227.6956,-133.3727 220.7636,-134.3462"/>
<g id="a_edge5&#45;headlabel"><a xlink:href="dir_000009_000008.html" target="_top" xlink:title="4">
<text text-anchor="middle" x="217.4521" y="-128.6814" font-family="Helvetica,sans-Serif" font-size="10.00" fill="#000000">4</text>
</a>
</g>
</g>
<!-- dir_90a2ad6518b731f1dc196d14153b8b6b&#45;&gt;dir_b2430326e20a3ae038db3bac19f0573b -->
<g id="edge11" class="edge">
<title>dir_90a2ad6518b731f1dc196d14153b8b6b&#45;&gt;dir_b2430326e20a3ae038db3bac19f0573b</title>
<path fill="none" stroke="#000000" d="M198.9103,-252.4133C193.2898,-260.8239 185.7456,-270.9323 178.2991,-280.0923"/>
<polygon fill="#000000" stroke="#000000" points="175.5584,-277.9138 171.8312,-287.8314 180.9296,-282.4027 175.5584,-277.9138"/>
<g id="a_edge11&#45;headlabel"><a xlink:href="dir_000006_000007.html" target="_top" xlink:title="8">
<text text-anchor="middle" x="175.6849" y="-270.8348" font-family="Helvetica,sans-Serif" font-size="10.00" fill="#000000">8</text>
</a>
</g>
</g>
<!-- dir_90a2ad6518b731f1dc196d14153b8b6b&#45;&gt;dir_a933ab6cde53f9fa4d29dc295cb0ac5f -->
<g id="edge12" class="edge">
<title>dir_90a2ad6518b731f1dc196d14153b8b6b&#45;&gt;dir_a933ab6cde53f9fa4d29dc295cb0ac5f</title>
<path fill="none" stroke="#000000" d="M224.3425,-215.9627C234.4753,-206.6284 246.1145,-194.2089 252,-180 258.1229,-165.2179 255.0445,-159.7077 252,-144 245.4356,-110.1321 239.6661,-102.2054 223,-72 217.8584,-62.6815 211.3733,-53.0841 205.5933,-44.6126"/>
<polygon fill="#000000" stroke="#000000" points="208.4266,-42.5546 199.9111,-36.2509 202.6369,-46.4891 208.4266,-42.5546"/>
<g id="a_edge12&#45;headlabel"><a xlink:href="dir_000006_000009.html" target="_top" xlink:title="8">
<text text-anchor="middle" x="212.7953" y="-41.4319" font-family="Helvetica,sans-Serif" font-size="10.00" fill="#000000">8</text>
</a>
</g>
</g>
<!-- dir_90a2ad6518b731f1dc196d14153b8b6b&#45;&gt;dir_1a6d8571b8eba91bded1d6534762df79 -->
<g id="edge13" class="edge">
<title>dir_90a2ad6518b731f1dc196d14153b8b6b&#45;&gt;dir_1a6d8571b8eba91bded1d6534762df79</title>
<path fill="none" stroke="#000000" d="M192.8162,-215.5358C188.2385,-205.1181 183.8184,-191.8515 180,-180 173.3925,-159.4917 166.1747,-136.2706 161.947,-118.5528"/>
<polygon fill="#000000" stroke="#000000" points="165.266,-117.341 159.7333,-108.3056 158.4239,-118.8192 165.266,-117.341"/>
<g id="a_edge13&#45;headlabel"><a xlink:href="dir_000006_000026.html" target="_top" xlink:title="2">
<text text-anchor="middle" x="168.8003" y="-117.755" font-family="Helvetica,sans-Serif" font-size="10.00" fill="#000000">2</text>
</a>
</g>
</g>
<!-- dir_90a2ad6518b731f1dc196d14153b8b6b&#45;&gt;dir_9706acb4d69a98d7c15ebe226493116f -->
<g id="edge14" class="edge">
<title>dir_90a2ad6518b731f1dc196d14153b8b6b&#45;&gt;dir_9706acb4d69a98d7c15ebe226493116f</title>
<path fill="none" stroke="#000000" d="M205.5898,-215.8314C206.7774,-208.0463 208.8783,-198.7729 211.3616,-190.1347"/>
<polygon fill="#000000" stroke="#000000" points="214.7576,-191.0027 214.4207,-180.4133 208.0804,-188.9016 214.7576,-191.0027"/>
<g id="a_edge14&#45;headlabel"><a xlink:href="dir_000006_000008.html" target="_top" xlink:title="4">
<text text-anchor="middle" x="216.387" y="-192.7838" font-family="Helvetica,sans-Serif" font-size="10.00" fill="#000000">4</text>
</a>
</g>
</g>
<!-- dir_1a6d8571b8eba91bded1d6534762df79&#45;&gt;dir_b2430326e20a3ae038db3bac19f0573b -->
<g id="edge15" class="edge">
<title>dir_1a6d8571b8eba91bded1d6534762df79&#45;&gt;dir_b2430326e20a3ae038db3bac19f0573b</title>
<path fill="none" stroke="#000000" d="M160.0436,-108.3593C158.7846,-132.8877 156.5499,-177.7067 155,-216 154.1675,-236.5683 153.3977,-259.7877 152.8464,-277.4897"/>
<polygon fill="#000000" stroke="#000000" points="149.3408,-277.6231 152.5328,-287.7257 156.3375,-277.8376 149.3408,-277.6231"/>
<g id="a_edge15&#45;headlabel"><a xlink:href="dir_000026_000007.html" target="_top" xlink:title="2">
<text text-anchor="middle" x="146.6128" y="-271.4433" font-family="Helvetica,sans-Serif" font-size="10.00" fill="#000000">2</text>
</a>
</g>
</g>
<!-- dir_1a6d8571b8eba91bded1d6534762df79&#45;&gt;dir_a933ab6cde53f9fa4d29dc295cb0ac5f -->
<g id="edge16" class="edge">
<title>dir_1a6d8571b8eba91bded1d6534762df79&#45;&gt;dir_a933ab6cde53f9fa4d29dc295cb0ac5f</title>
<path fill="none" stroke="#000000" d="M163.1226,-71.8314C165.8826,-63.8771 169.8983,-54.369 174.1628,-45.5723"/>
<polygon fill="#000000" stroke="#000000" points="177.4091,-46.911 178.8403,-36.4133 171.175,-43.7272 177.4091,-46.911"/>
<g id="a_edge16&#45;headlabel"><a xlink:href="dir_000026_000009.html" target="_top" xlink:title="1">
<text text-anchor="middle" x="178.3029" y="-48.9036" font-family="Helvetica,sans-Serif" font-size="10.00" fill="#000000">1</text>
</a>
</g>
</g>
<!-- dir_1a6d8571b8eba91bded1d6534762df79&#45;&gt;dir_90a2ad6518b731f1dc196d14153b8b6b -->
<g id="edge17" class="edge">
<title>dir_1a6d8571b8eba91bded1d6534762df79&#45;&gt;dir_90a2ad6518b731f1dc196d14153b8b6b</title>
<path fill="none" stroke="#000000" d="M173.4206,-108.3056C181.1523,-126.5148 190.0212,-155.2353 198,-180 200.6848,-188.3331 203.6671,-197.3658 206.0464,-205.6159"/>
<polygon fill="#000000" stroke="#000000" points="202.7294,-206.7631 208.67,-215.5358 209.4968,-204.9733 202.7294,-206.7631"/>
<g id="a_edge17&#45;headlabel"><a xlink:href="dir_000026_000006.html" target="_top" xlink:title="31">
<text text-anchor="middle" x="199.0655" y="-201.5139" font-family="Helvetica,sans-Serif" font-size="10.00" fill="#000000">31</text>
</a>
</g>
</g>
<!-- dir_1a6d8571b8eba91bded1d6534762df79&#45;&gt;dir_9706acb4d69a98d7c15ebe226493116f -->
<g id="edge18" class="edge">
<title>dir_1a6d8571b8eba91bded1d6534762df79&#45;&gt;dir_9706acb4d69a98d7c15ebe226493116f</title>
<path fill="none" stroke="#000000" d="M183.3434,-108.4133C191.54,-116.7389 200.6014,-126.7282 208.2458,-135.8144"/>
<polygon fill="#000000" stroke="#000000" points="205.7623,-138.3063 214.8025,-143.8314 211.1809,-133.8747 205.7623,-138.3063"/>
<g id="a_edge18&#45;headlabel"><a xlink:href="dir_000026_000008.html" target="_top" xlink:title="1">
<text text-anchor="middle" x="201.2888" y="-134.8213" font-family="Helvetica,sans-Serif" font-size="10.00" fill="#000000">1</text>
</a>
</g>
</g>
<!-- dir_9706acb4d69a98d7c15ebe226493116f&#45;&gt;dir_b2430326e20a3ae038db3bac19f0573b -->
<g id="edge19" class="edge">
<title>dir_9706acb4d69a98d7c15ebe226493116f&#45;&gt;dir_b2430326e20a3ae038db3bac19f0573b</title>
<path fill="none" stroke="#000000" d="M201.3418,-180.1673C190.511,-189.6984 178.4555,-202.246 171,-216 160.6941,-235.0125 155.9748,-259.095 153.8156,-277.5632"/>
<polygon fill="#000000" stroke="#000000" points="150.3136,-277.4127 152.8172,-287.7075 157.2799,-278.0984 150.3136,-277.4127"/>
<g id="a_edge19&#45;headlabel"><a xlink:href="dir_000008_000007.html" target="_top" xlink:title="7">
<text text-anchor="middle" x="147.84" y="-271.0573" font-family="Helvetica,sans-Serif" font-size="10.00" fill="#000000">7</text>
</a>
</g>
</g>
<!-- dir_9706acb4d69a98d7c15ebe226493116f&#45;&gt;dir_a933ab6cde53f9fa4d29dc295cb0ac5f -->
<g id="edge20" class="edge">
<title>dir_9706acb4d69a98d7c15ebe226493116f&#45;&gt;dir_a933ab6cde53f9fa4d29dc295cb0ac5f</title>
<path fill="none" stroke="#000000" d="M216.274,-143.7623C208.3561,-119.201 198.3139,-75.2474 193.8035,-46.3541"/>
<polygon fill="#000000" stroke="#000000" points="197.2187,-45.5055 192.3616,-36.0896 190.2868,-46.4793 197.2187,-45.5055"/>
<g id="a_edge20&#45;headlabel"><a xlink:href="dir_000008_000009.html" target="_top" xlink:title="9">
<text text-anchor="middle" x="200.5303" y="-46.1702" font-family="Helvetica,sans-Serif" font-size="10.00" fill="#000000">9</text>
</a>
</g>
</g>
<!-- dir_9706acb4d69a98d7c15ebe226493116f&#45;&gt;dir_90a2ad6518b731f1dc196d14153b8b6b -->
<g id="edge21" class="edge">
<title>dir_9706acb4d69a98d7c15ebe226493116f&#45;&gt;dir_90a2ad6518b731f1dc196d14153b8b6b</title>
<path fill="none" stroke="#000000" d="M226.3727,-180.4133C225.1661,-188.2292 223.0517,-197.5113 220.5604,-206.136"/>
<polygon fill="#000000" stroke="#000000" points="217.1725,-205.2414 217.4946,-215.8314 223.8468,-207.352 217.1725,-205.2414"/>
<g id="a_edge21&#45;headlabel"><a xlink:href="dir_000008_000006.html" target="_top" xlink:title="185">
<text text-anchor="middle" x="215.5491" y="-198.4581" font-family="Helvetica,sans-Serif" font-size="10.00" fill="#000000">185</text>
</a>
</g>
</g>
<!-- dir_9706acb4d69a98d7c15ebe226493116f&#45;&gt;dir_1a6d8571b8eba91bded1d6534762df79 -->
<g id="edge22" class="edge">
<title>dir_9706acb4d69a98d7c15ebe226493116f&#45;&gt;dir_1a6d8571b8eba91bded1d6534762df79</title>
<path fill="none" stroke="#000000" d="M202.8977,-143.8314C194.6348,-135.454 185.4665,-125.3531 177.7452,-116.1749"/>
<polygon fill="#000000" stroke="#000000" points="180.4341,-113.9341 171.3913,-108.4133 175.0175,-118.3683 180.4341,-113.9341"/>
<g id="a_edge22&#45;headlabel"><a xlink:href="dir_000008_000026.html" target="_top" xlink:title="6">
<text text-anchor="middle" x="184.908" y="-112.4171" font-family="Helvetica,sans-Serif" font-size="10.00" fill="#000000">6</text>
</a>
</g>
</g>
</g>
</svg>
