<?xml version="1.0" encoding="UTF-8" standalone="no"?>
<!DOCTYPE svg PUBLIC "-//W3C//DTD SVG 1.1//EN"
 "http://www.w3.org/Graphics/SVG/1.1/DTD/svg11.dtd">
<!-- Generated by graphviz version 2.40.1 (20161225.0304)
 -->
<!-- Title: source/meshworker Pages: 1 -->
<svg width="223pt" height="159pt"
 viewBox="0.00 0.00 223.00 159.00" xmlns="http://www.w3.org/2000/svg" xmlns:xlink="http://www.w3.org/1999/xlink">
<g id="graph0" class="graph" transform="scale(1 1) rotate(0) translate(4 155)">
<title>source/meshworker</title>
<polygon fill="#ffffff" stroke="transparent" points="-4,4 -4,-155 219,-155 219,4 -4,4"/>
<g id="clust1" class="cluster">
<title>clusterdir_b2f33c71d4aa5e7af42a1ca61ff5af1b</title>
<g id="a_clust1"><a xlink:href="dir_b2f33c71d4aa5e7af42a1ca61ff5af1b.html" target="_top" xlink:title="source">
<polygon fill="#ddddee" stroke="#000000" points="8,-56 8,-143 207,-143 207,-56 8,-56"/>
<text text-anchor="middle" x="107.5" y="-131" font-family="Helvetica,sans-Serif" font-size="10.00" fill="#000000">source</text>
</a>
</g>
</g>
<g id="clust2" class="cluster">
<title>clusterdir_732aa14689db254b7ac793f9c13dde1e</title>
<g id="a_clust2"><a xlink:href="dir_732aa14689db254b7ac793f9c13dde1e.html" target="_top">
<polygon fill="#eeeeff" stroke="#000000" points="16,-64 16,-116 199,-116 199,-64 16,-64"/>
</a>
</g>
</g>
<!-- dir_732aa14689db254b7ac793f9c13dde1e -->
<g id="node1" class="node">
<title>dir_732aa14689db254b7ac793f9c13dde1e</title>
<text text-anchor="middle" x="152" y="-87.5" font-family="Helvetica,sans-Serif" font-size="10.00" fill="#000000">meshworker</text>
</g>
<!-- dir_d44c64559bbebec7f509842c48db8b23 -->
<g id="node3" class="node">
<title>dir_d44c64559bbebec7f509842c48db8b23</title>
<g id="a_node3"><a xlink:href="dir_d44c64559bbebec7f509842c48db8b23.html" target="_top" xlink:title="include">
<polygon fill="#ffffff" stroke="#ff0000" points="179,-36 125,-36 125,0 179,0 179,-36"/>
<text text-anchor="middle" x="152" y="-15.5" font-family="Helvetica,sans-Serif" font-size="10.00" fill="#000000">include</text>
</a>
</g>
</g>
<!-- dir_732aa14689db254b7ac793f9c13dde1e&#45;&gt;dir_d44c64559bbebec7f509842c48db8b23 -->
<g id="edge1" class="edge">
<title>dir_732aa14689db254b7ac793f9c13dde1e&#45;&gt;dir_d44c64559bbebec7f509842c48db8b23</title>
<path fill="none" stroke="#000000" d="M152,-71.8314C152,-64.131 152,-54.9743 152,-46.4166"/>
<polygon fill="#000000" stroke="#000000" points="155.5001,-46.4132 152,-36.4133 148.5001,-46.4133 155.5001,-46.4132"/>
<g id="a_edge1&#45;headlabel"><a xlink:href="dir_000090_000004.html" target="_top" xlink:title="17">
<text text-anchor="middle" x="158.3393" y="-47.5079" font-family="Helvetica,sans-Serif" font-size="10.00" fill="#000000">17</text>
</a>
</g>
</g>
<!-- dir_5abecbc0f58d1e7842a335f3ea308ff9 -->
<g id="node2" class="node">
<title>dir_5abecbc0f58d1e7842a335f3ea308ff9</title>
<g id="a_node2"><a xlink:href="dir_5abecbc0f58d1e7842a335f3ea308ff9.html" target="_top" xlink:title="CMakeFiles">
<polygon fill="#ffffff" stroke="#ff0000" points="95.5,-108 24.5,-108 24.5,-72 95.5,-72 95.5,-108"/>
<text text-anchor="middle" x="60" y="-87.5" font-family="Helvetica,sans-Serif" font-size="10.00" fill="#000000">CMakeFiles</text>
</a>
</g>
</g>
</g>
</svg>
