<?xml version="1.0" encoding="UTF-8" standalone="no"?>
<!DOCTYPE svg PUBLIC "-//W3C//DTD SVG 1.1//EN"
 "http://www.w3.org/Graphics/SVG/1.1/DTD/svg11.dtd">
<!-- Generated by graphviz version 2.40.1 (20161225.0304)
 -->
<!-- Title: include/deal.II/algorithms Pages: 1 -->
<svg width="158pt" height="151pt"
 viewBox="0.00 0.00 158.00 151.00" xmlns="http://www.w3.org/2000/svg" xmlns:xlink="http://www.w3.org/1999/xlink">
<g id="graph0" class="graph" transform="scale(1 1) rotate(0) translate(4 147)">
<title>include/deal.II/algorithms</title>
<polygon fill="#ffffff" stroke="transparent" points="-4,4 -4,-147 154,-147 154,4 -4,4"/>
<g id="clust1" class="cluster">
<title>clusterdir_ee90d91a514b839c31faec7a1d916f67</title>
<g id="a_clust1"><a xlink:href="dir_ee90d91a514b839c31faec7a1d916f67.html" target="_top" xlink:title="deal.II">
<polygon fill="#ddddee" stroke="#000000" points="8,-64 8,-135 86,-135 86,-64 8,-64"/>
<text text-anchor="middle" x="47" y="-123" font-family="Helvetica,sans-Serif" font-size="10.00" fill="#000000">deal.II</text>
</a>
</g>
</g>
<!-- dir_5c5dfa38b75b645221b847816813e149 -->
<g id="node1" class="node">
<title>dir_5c5dfa38b75b645221b847816813e149</title>
<g id="a_node1"><a xlink:href="dir_5c5dfa38b75b645221b847816813e149.html" target="_top" xlink:title="algorithms">
<polygon fill="#eeeeff" stroke="#000000" points="78,-108 16,-108 16,-72 78,-72 78,-108"/>
<text text-anchor="middle" x="47" y="-87.5" font-family="Helvetica,sans-Serif" font-size="10.00" fill="#000000">algorithms</text>
</a>
</g>
</g>
<!-- dir_b2430326e20a3ae038db3bac19f0573b -->
<g id="node2" class="node">
<title>dir_b2430326e20a3ae038db3bac19f0573b</title>
<g id="a_node2"><a xlink:href="dir_b2430326e20a3ae038db3bac19f0573b.html" target="_top" xlink:title="lac">
<polygon fill="none" stroke="#000000" points="150,-108 96,-108 96,-72 150,-72 150,-108"/>
<text text-anchor="middle" x="123" y="-87.5" font-family="Helvetica,sans-Serif" font-size="10.00" fill="#000000">lac</text>
</a>
</g>
</g>
<!-- dir_5c5dfa38b75b645221b847816813e149&#45;&gt;dir_b2430326e20a3ae038db3bac19f0573b -->
<g id="edge1" class="edge">
<title>dir_5c5dfa38b75b645221b847816813e149&#45;&gt;dir_b2430326e20a3ae038db3bac19f0573b</title>
<path fill="none" stroke="#000000" d="M78.1719,-90C80.6344,-90 83.0968,-90 85.5593,-90"/>
<polygon fill="#000000" stroke="#000000" points="85.6829,-93.5001 95.6829,-90 85.6828,-86.5001 85.6829,-93.5001"/>
<g id="a_edge1&#45;headlabel"><a xlink:href="dir_000017_000007.html" target="_top" xlink:title="2">
<text text-anchor="middle" x="82.0882" y="-93.8393" font-family="Helvetica,sans-Serif" font-size="10.00" fill="#000000">2</text>
</a>
</g>
</g>
<!-- dir_90a2ad6518b731f1dc196d14153b8b6b -->
<g id="node3" class="node">
<title>dir_90a2ad6518b731f1dc196d14153b8b6b</title>
<g id="a_node3"><a xlink:href="dir_90a2ad6518b731f1dc196d14153b8b6b.html" target="_top" xlink:title="base">
<polygon fill="#ffffff" stroke="#ff0000" points="150,-36 96,-36 96,0 150,0 150,-36"/>
<text text-anchor="middle" x="123" y="-15.5" font-family="Helvetica,sans-Serif" font-size="10.00" fill="#000000">base</text>
</a>
</g>
</g>
<!-- dir_5c5dfa38b75b645221b847816813e149&#45;&gt;dir_90a2ad6518b731f1dc196d14153b8b6b -->
<g id="edge2" class="edge">
<title>dir_5c5dfa38b75b645221b847816813e149&#45;&gt;dir_90a2ad6518b731f1dc196d14153b8b6b</title>
<path fill="none" stroke="#000000" d="M66.178,-71.8314C75.3588,-63.1337 86.5006,-52.5783 96.4776,-43.1265"/>
<polygon fill="#000000" stroke="#000000" points="98.9757,-45.5811 103.8281,-36.1628 94.1615,-40.4995 98.9757,-45.5811"/>
<g id="a_edge2&#45;headlabel"><a xlink:href="dir_000017_000006.html" target="_top" xlink:title="16">
<text text-anchor="middle" x="98.3189" y="-47.6145" font-family="Helvetica,sans-Serif" font-size="10.00" fill="#000000">16</text>
</a>
</g>
</g>
<!-- dir_b2430326e20a3ae038db3bac19f0573b&#45;&gt;dir_5c5dfa38b75b645221b847816813e149 -->
<g id="edge3" class="edge">
<title>dir_b2430326e20a3ae038db3bac19f0573b&#45;&gt;dir_5c5dfa38b75b645221b847816813e149</title>
<path fill="none" stroke="#000000" d="M95.6829,-90C93.2204,-90 90.7579,-90 88.2954,-90"/>
<polygon fill="#000000" stroke="#000000" points="88.1719,-86.5001 78.1719,-90 88.1718,-93.5001 88.1719,-86.5001"/>
<g id="a_edge3&#45;headlabel"><a xlink:href="dir_000007_000017.html" target="_top" xlink:title="1">
<text text-anchor="middle" x="91.7665" y="-81.1607" font-family="Helvetica,sans-Serif" font-size="10.00" fill="#000000">1</text>
</a>
</g>
</g>
<!-- dir_b2430326e20a3ae038db3bac19f0573b&#45;&gt;dir_90a2ad6518b731f1dc196d14153b8b6b -->
<g id="edge4" class="edge">
<title>dir_b2430326e20a3ae038db3bac19f0573b&#45;&gt;dir_90a2ad6518b731f1dc196d14153b8b6b</title>
<path fill="none" stroke="#000000" d="M117.0476,-71.8314C116.2972,-64.131 116.0763,-54.9743 116.3849,-46.4166"/>
<polygon fill="#000000" stroke="#000000" points="119.8792,-46.6161 117.024,-36.4133 112.8935,-46.1697 119.8792,-46.6161"/>
<g id="a_edge4&#45;headlabel"><a xlink:href="dir_000007_000006.html" target="_top" xlink:title="312">
<text text-anchor="middle" x="122.4836" y="-47.8844" font-family="Helvetica,sans-Serif" font-size="10.00" fill="#000000">312</text>
</a>
</g>
</g>
<!-- dir_90a2ad6518b731f1dc196d14153b8b6b&#45;&gt;dir_b2430326e20a3ae038db3bac19f0573b -->
<g id="edge5" class="edge">
<title>dir_90a2ad6518b731f1dc196d14153b8b6b&#45;&gt;dir_b2430326e20a3ae038db3bac19f0573b</title>
<path fill="none" stroke="#000000" d="M128.976,-36.4133C129.7071,-44.0593 129.9203,-53.1084 129.6155,-61.5726"/>
<polygon fill="#000000" stroke="#000000" points="126.1048,-61.6264 128.9524,-71.8314 133.0902,-62.078 126.1048,-61.6264"/>
<g id="a_edge5&#45;headlabel"><a xlink:href="dir_000006_000007.html" target="_top" xlink:title="8">
<text text-anchor="middle" x="123.5032" y="-55.3562" font-family="Helvetica,sans-Serif" font-size="10.00" fill="#000000">8</text>
</a>
</g>
</g>
</g>
</svg>
