<?xml version="1.0" encoding="UTF-8" standalone="no"?>
<!DOCTYPE svg PUBLIC "-//W3C//DTD SVG 1.1//EN"
 "http://www.w3.org/Graphics/SVG/1.1/DTD/svg11.dtd">
<!-- Generated by graphviz version 2.40.1 (20161225.0304)
 -->
<!-- Title: include/deal.II/fe Pages: 1 -->
<svg width="718pt" height="548pt"
 viewBox="0.00 0.00 718.20 548.00" xmlns="http://www.w3.org/2000/svg" xmlns:xlink="http://www.w3.org/1999/xlink">
<g id="graph0" class="graph" transform="scale(1 1) rotate(0) translate(4 544)">
<title>include/deal.II/fe</title>
<polygon fill="#ffffff" stroke="transparent" points="-4,4 -4,-544 714.1983,-544 714.1983,4 -4,4"/>
<g id="clust1" class="cluster">
<title>clusterdir_ee90d91a514b839c31faec7a1d916f67</title>
<g id="a_clust1"><a xlink:href="dir_ee90d91a514b839c31faec7a1d916f67.html" target="_top" xlink:title="deal.II">
<polygon fill="#ddddee" stroke="#000000" points="169.1983,-208 169.1983,-279 239.1983,-279 239.1983,-208 169.1983,-208"/>
<text text-anchor="middle" x="204.1983" y="-267" font-family="Helvetica,sans-Serif" font-size="10.00" fill="#000000">deal.II</text>
</a>
</g>
</g>
<!-- dir_9706acb4d69a98d7c15ebe226493116f -->
<g id="node1" class="node">
<title>dir_9706acb4d69a98d7c15ebe226493116f</title>
<g id="a_node1"><a xlink:href="dir_9706acb4d69a98d7c15ebe226493116f.html" target="_top" xlink:title="fe">
<polygon fill="#eeeeff" stroke="#000000" points="231.1983,-252 177.1983,-252 177.1983,-216 231.1983,-216 231.1983,-252"/>
<text text-anchor="middle" x="204.1983" y="-231.5" font-family="Helvetica,sans-Serif" font-size="10.00" fill="#000000">fe</text>
</a>
</g>
</g>
<!-- dir_273e60b3573ce9ad58a4d725e6a36523 -->
<g id="node2" class="node">
<title>dir_273e60b3573ce9ad58a4d725e6a36523</title>
<g id="a_node2"><a xlink:href="dir_273e60b3573ce9ad58a4d725e6a36523.html" target="_top" xlink:title="distributed">
<polygon fill="none" stroke="#000000" points="355.6983,-540 286.6983,-540 286.6983,-504 355.6983,-504 355.6983,-540"/>
<text text-anchor="middle" x="321.1983" y="-519.5" font-family="Helvetica,sans-Serif" font-size="10.00" fill="#000000">distributed</text>
</a>
</g>
</g>
<!-- dir_9706acb4d69a98d7c15ebe226493116f&#45;&gt;dir_273e60b3573ce9ad58a4d725e6a36523 -->
<g id="edge46" class="edge">
<title>dir_9706acb4d69a98d7c15ebe226493116f&#45;&gt;dir_273e60b3573ce9ad58a4d725e6a36523</title>
<path fill="none" stroke="#000000" d="M202.9171,-252.4838C202.2585,-262.9076 201.5266,-276.1738 201.1983,-288 199.8439,-336.7973 199.0509,-352.4971 221.1983,-396 240.7486,-434.4016 273.0608,-472.2859 295.6482,-496.3255"/>
<polygon fill="#000000" stroke="#000000" points="293.1773,-498.8059 302.6116,-503.6271 298.243,-493.9749 293.1773,-498.8059"/>
<g id="a_edge46&#45;headlabel"><a xlink:href="dir_000008_000024.html" target="_top" xlink:title="1">
<text text-anchor="middle" x="288.6418" y="-495.6641" font-family="Helvetica,sans-Serif" font-size="10.00" fill="#000000">1</text>
</a>
</g>
</g>
<!-- dir_b2430326e20a3ae038db3bac19f0573b -->
<g id="node3" class="node">
<title>dir_b2430326e20a3ae038db3bac19f0573b</title>
<g id="a_node3"><a xlink:href="dir_b2430326e20a3ae038db3bac19f0573b.html" target="_top" xlink:title="lac">
<polygon fill="none" stroke="#000000" points="380.1983,-468 326.1983,-468 326.1983,-432 380.1983,-432 380.1983,-468"/>
<text text-anchor="middle" x="353.1983" y="-447.5" font-family="Helvetica,sans-Serif" font-size="10.00" fill="#000000">lac</text>
</a>
</g>
</g>
<!-- dir_9706acb4d69a98d7c15ebe226493116f&#45;&gt;dir_b2430326e20a3ae038db3bac19f0573b -->
<g id="edge47" class="edge">
<title>dir_9706acb4d69a98d7c15ebe226493116f&#45;&gt;dir_b2430326e20a3ae038db3bac19f0573b</title>
<path fill="none" stroke="#000000" d="M203.5709,-252.0252C203.4384,-270.5134 204.6588,-299.8962 212.1983,-324 223.1916,-359.1454 226.8679,-370.2559 253.1983,-396 271.2233,-413.6236 296.1649,-427.1065 316.6293,-436.192"/>
<polygon fill="#000000" stroke="#000000" points="315.3987,-439.4722 325.9701,-440.1768 318.1454,-433.0336 315.3987,-439.4722"/>
<g id="a_edge47&#45;headlabel"><a xlink:href="dir_000008_000007.html" target="_top" xlink:title="7">
<text text-anchor="middle" x="310.9783" y="-438.1733" font-family="Helvetica,sans-Serif" font-size="10.00" fill="#000000">7</text>
</a>
</g>
</g>
<!-- dir_4022f63979af12af4c32ec9a4562b2df -->
<g id="node4" class="node">
<title>dir_4022f63979af12af4c32ec9a4562b2df</title>
<g id="a_node4"><a xlink:href="dir_4022f63979af12af4c32ec9a4562b2df.html" target="_top" xlink:title="hp">
<polygon fill="none" stroke="#000000" points="339.1983,-36 285.1983,-36 285.1983,0 339.1983,0 339.1983,-36"/>
<text text-anchor="middle" x="312.1983" y="-15.5" font-family="Helvetica,sans-Serif" font-size="10.00" fill="#000000">hp</text>
</a>
</g>
</g>
<!-- dir_9706acb4d69a98d7c15ebe226493116f&#45;&gt;dir_4022f63979af12af4c32ec9a4562b2df -->
<g id="edge48" class="edge">
<title>dir_9706acb4d69a98d7c15ebe226493116f&#45;&gt;dir_4022f63979af12af4c32ec9a4562b2df</title>
<path fill="none" stroke="#000000" d="M202.9171,-215.5162C202.2585,-205.0924 201.5266,-191.8262 201.1983,-180 199.8194,-130.3188 198.7284,-110.4678 230.1983,-72 242.5591,-56.8906 260.2711,-44.4928 276.0727,-35.4044"/>
<polygon fill="#000000" stroke="#000000" points="278.0245,-38.3255 285.1008,-30.4402 274.6517,-32.1916 278.0245,-38.3255"/>
<g id="a_edge48&#45;headlabel"><a xlink:href="dir_000008_000027.html" target="_top" xlink:title="7">
<text text-anchor="middle" x="276.2427" y="-40.0453" font-family="Helvetica,sans-Serif" font-size="10.00" fill="#000000">7</text>
</a>
</g>
</g>
<!-- dir_a933ab6cde53f9fa4d29dc295cb0ac5f -->
<g id="node5" class="node">
<title>dir_a933ab6cde53f9fa4d29dc295cb0ac5f</title>
<g id="a_node5"><a xlink:href="dir_a933ab6cde53f9fa4d29dc295cb0ac5f.html" target="_top" xlink:title="grid">
<polygon fill="none" stroke="#000000" points="339.1983,-108 285.1983,-108 285.1983,-72 339.1983,-72 339.1983,-108"/>
<text text-anchor="middle" x="312.1983" y="-87.5" font-family="Helvetica,sans-Serif" font-size="10.00" fill="#000000">grid</text>
</a>
</g>
</g>
<!-- dir_9706acb4d69a98d7c15ebe226493116f&#45;&gt;dir_a933ab6cde53f9fa4d29dc295cb0ac5f -->
<g id="edge49" class="edge">
<title>dir_9706acb4d69a98d7c15ebe226493116f&#45;&gt;dir_a933ab6cde53f9fa4d29dc295cb0ac5f</title>
<path fill="none" stroke="#000000" d="M207.5287,-215.9079C211.7971,-196.5634 220.7002,-165.7424 237.1983,-144 247.6206,-130.2648 262.5084,-118.5457 276.2764,-109.5703"/>
<polygon fill="#000000" stroke="#000000" points="278.4643,-112.3311 285.1039,-104.0748 274.7648,-106.3885 278.4643,-112.3311"/>
<g id="a_edge49&#45;headlabel"><a xlink:href="dir_000008_000009.html" target="_top" xlink:title="9">
<text text-anchor="middle" x="276.9133" y="-114.1411" font-family="Helvetica,sans-Serif" font-size="10.00" fill="#000000">9</text>
</a>
</g>
</g>
<!-- dir_e68e8157741866f444e17edd764ebbae -->
<g id="node6" class="node">
<title>dir_e68e8157741866f444e17edd764ebbae</title>
<g id="a_node6"><a xlink:href="dir_e68e8157741866f444e17edd764ebbae.html" target="_top" xlink:title="doc">
<polygon fill="#ffffff" stroke="#ff0000" points="100.1983,-180 46.1983,-180 46.1983,-144 100.1983,-144 100.1983,-180"/>
<text text-anchor="middle" x="73.1983" y="-159.5" font-family="Helvetica,sans-Serif" font-size="10.00" fill="#000000">doc</text>
</a>
</g>
</g>
<!-- dir_9706acb4d69a98d7c15ebe226493116f&#45;&gt;dir_e68e8157741866f444e17edd764ebbae -->
<g id="edge50" class="edge">
<title>dir_9706acb4d69a98d7c15ebe226493116f&#45;&gt;dir_e68e8157741866f444e17edd764ebbae</title>
<path fill="none" stroke="#000000" d="M177.055,-219.0816C157.3826,-208.2692 130.5826,-193.5395 109.1347,-181.7513"/>
<polygon fill="#000000" stroke="#000000" points="110.7563,-178.6488 100.3068,-176.8993 107.3846,-184.7833 110.7563,-178.6488"/>
<g id="a_edge50&#45;headlabel"><a xlink:href="dir_000008_000000.html" target="_top" xlink:title="1">
<text text-anchor="middle" x="115.274" y="-175.3919" font-family="Helvetica,sans-Serif" font-size="10.00" fill="#000000">1</text>
</a>
</g>
</g>
<!-- dir_90a2ad6518b731f1dc196d14153b8b6b -->
<g id="node7" class="node">
<title>dir_90a2ad6518b731f1dc196d14153b8b6b</title>
<g id="a_node7"><a xlink:href="dir_90a2ad6518b731f1dc196d14153b8b6b.html" target="_top" xlink:title="base">
<polygon fill="#ffffff" stroke="#ff0000" points="316.1983,-396 262.1983,-396 262.1983,-360 316.1983,-360 316.1983,-396"/>
<text text-anchor="middle" x="289.1983" y="-375.5" font-family="Helvetica,sans-Serif" font-size="10.00" fill="#000000">base</text>
</a>
</g>
</g>
<!-- dir_9706acb4d69a98d7c15ebe226493116f&#45;&gt;dir_90a2ad6518b731f1dc196d14153b8b6b -->
<g id="edge51" class="edge">
<title>dir_9706acb4d69a98d7c15ebe226493116f&#45;&gt;dir_90a2ad6518b731f1dc196d14153b8b6b</title>
<path fill="none" stroke="#000000" d="M207.0165,-252.039C210.6017,-271.063 218.0975,-301.3592 232.1983,-324 238.898,-334.7573 248.249,-344.8232 257.4421,-353.2811"/>
<polygon fill="#000000" stroke="#000000" points="255.2454,-356.0102 265.0654,-359.9874 259.8689,-350.7544 255.2454,-356.0102"/>
<g id="a_edge51&#45;headlabel"><a xlink:href="dir_000008_000006.html" target="_top" xlink:title="185">
<text text-anchor="middle" x="250.6711" y="-353.2677" font-family="Helvetica,sans-Serif" font-size="10.00" fill="#000000">185</text>
</a>
</g>
</g>
<!-- dir_1a6d8571b8eba91bded1d6534762df79 -->
<g id="node8" class="node">
<title>dir_1a6d8571b8eba91bded1d6534762df79</title>
<g id="a_node8"><a xlink:href="dir_1a6d8571b8eba91bded1d6534762df79.html" target="_top" xlink:title="dofs">
<polygon fill="none" stroke="#000000" points="550.1983,-180 496.1983,-180 496.1983,-144 550.1983,-144 550.1983,-180"/>
<text text-anchor="middle" x="523.1983" y="-159.5" font-family="Helvetica,sans-Serif" font-size="10.00" fill="#000000">dofs</text>
</a>
</g>
</g>
<!-- dir_9706acb4d69a98d7c15ebe226493116f&#45;&gt;dir_1a6d8571b8eba91bded1d6534762df79 -->
<g id="edge52" class="edge">
<title>dir_9706acb4d69a98d7c15ebe226493116f&#45;&gt;dir_1a6d8571b8eba91bded1d6534762df79</title>
<path fill="none" stroke="#000000" d="M231.4309,-226.8993C288.6709,-213.2269 420.9369,-183.3677 485.947,-169.4355"/>
<polygon fill="#000000" stroke="#000000" points="486.7299,-172.8474 495.7815,-167.3412 485.2718,-166.0009 486.7299,-172.8474"/>
<g id="a_edge52&#45;headlabel"><a xlink:href="dir_000008_000026.html" target="_top" xlink:title="6">
<text text-anchor="middle" x="483.8055" y="-173.873" font-family="Helvetica,sans-Serif" font-size="10.00" fill="#000000">6</text>
</a>
</g>
</g>
<!-- dir_5c2eb6d9a7a6f1e9cd32e0e8abf42ca6 -->
<g id="node9" class="node">
<title>dir_5c2eb6d9a7a6f1e9cd32e0e8abf42ca6</title>
<g id="a_node9"><a xlink:href="dir_5c2eb6d9a7a6f1e9cd32e0e8abf42ca6.html" target="_top" xlink:title="numerics">
<polygon fill="none" stroke="#000000" points="426.1983,-324 364.1983,-324 364.1983,-288 426.1983,-288 426.1983,-324"/>
<text text-anchor="middle" x="395.1983" y="-303.5" font-family="Helvetica,sans-Serif" font-size="10.00" fill="#000000">numerics</text>
</a>
</g>
</g>
<!-- dir_9706acb4d69a98d7c15ebe226493116f&#45;&gt;dir_5c2eb6d9a7a6f1e9cd32e0e8abf42ca6 -->
<g id="edge53" class="edge">
<title>dir_9706acb4d69a98d7c15ebe226493116f&#45;&gt;dir_5c2eb6d9a7a6f1e9cd32e0e8abf42ca6</title>
<path fill="none" stroke="#000000" d="M231.3755,-246.2113C263.5333,-259.0816 317.0984,-279.2957 354.2547,-292.5982"/>
<polygon fill="#000000" stroke="#000000" points="353.2009,-295.9381 363.7956,-295.9887 355.5449,-289.3422 353.2009,-295.9381"/>
<g id="a_edge53&#45;headlabel"><a xlink:href="dir_000008_000025.html" target="_top" xlink:title="1">
<text text-anchor="middle" x="348.8631" y="-294.9099" font-family="Helvetica,sans-Serif" font-size="10.00" fill="#000000">1</text>
</a>
</g>
</g>
<!-- dir_16ec7e00b3eaf1dbf09e67ec3cfcc7e2 -->
<g id="node10" class="node">
<title>dir_16ec7e00b3eaf1dbf09e67ec3cfcc7e2</title>
<g id="a_node10"><a xlink:href="dir_16ec7e00b3eaf1dbf09e67ec3cfcc7e2.html" target="_top" xlink:title="matrix_free">
<polygon fill="none" stroke="#000000" points="626.1983,-252 552.1983,-252 552.1983,-216 626.1983,-216 626.1983,-252"/>
<text text-anchor="middle" x="589.1983" y="-231.5" font-family="Helvetica,sans-Serif" font-size="10.00" fill="#000000">matrix_free</text>
</a>
</g>
</g>
<!-- dir_9706acb4d69a98d7c15ebe226493116f&#45;&gt;dir_16ec7e00b3eaf1dbf09e67ec3cfcc7e2 -->
<g id="edge54" class="edge">
<title>dir_9706acb4d69a98d7c15ebe226493116f&#45;&gt;dir_16ec7e00b3eaf1dbf09e67ec3cfcc7e2</title>
<path fill="none" stroke="#000000" d="M231.2686,-234C334.8856,-234 438.5026,-234 542.1196,-234"/>
<polygon fill="#000000" stroke="#000000" points="542.147,-237.5001 552.147,-234 542.147,-230.5001 542.147,-237.5001"/>
<g id="a_edge54&#45;headlabel"><a xlink:href="dir_000008_000029.html" target="_top" xlink:title="6">
<text text-anchor="middle" x="538.5524" y="-237.8393" font-family="Helvetica,sans-Serif" font-size="10.00" fill="#000000">6</text>
</a>
</g>
</g>
<!-- dir_273e60b3573ce9ad58a4d725e6a36523&#45;&gt;dir_b2430326e20a3ae038db3bac19f0573b -->
<g id="edge1" class="edge">
<title>dir_273e60b3573ce9ad58a4d725e6a36523&#45;&gt;dir_b2430326e20a3ae038db3bac19f0573b</title>
<path fill="none" stroke="#000000" d="M329.2733,-503.8314C332.8085,-495.8771 337.0343,-486.369 340.944,-477.5723"/>
<polygon fill="#000000" stroke="#000000" points="344.1516,-478.9729 345.0147,-468.4133 337.7549,-476.1299 344.1516,-478.9729"/>
<g id="a_edge1&#45;headlabel"><a xlink:href="dir_000024_000007.html" target="_top" xlink:title="1">
<text text-anchor="middle" x="345.2863" y="-480.9108" font-family="Helvetica,sans-Serif" font-size="10.00" fill="#000000">1</text>
</a>
</g>
</g>
<!-- dir_273e60b3573ce9ad58a4d725e6a36523&#45;&gt;dir_a933ab6cde53f9fa4d29dc295cb0ac5f -->
<g id="edge2" class="edge">
<title>dir_273e60b3573ce9ad58a4d725e6a36523&#45;&gt;dir_a933ab6cde53f9fa4d29dc295cb0ac5f</title>
<path fill="none" stroke="#000000" d="M286.4381,-514.8394C203.2071,-495.5169 .1983,-439.5965 .1983,-378 .1983,-378 .1983,-378 .1983,-234 .1983,-192.1089 -2.9749,-171.9838 28.1983,-144 63.67,-112.1575 205.9455,-97.4244 274.7855,-92.264"/>
<polygon fill="#000000" stroke="#000000" points="275.0595,-95.7535 284.7822,-91.544 274.5565,-88.7716 275.0595,-95.7535"/>
<g id="a_edge2&#45;headlabel"><a xlink:href="dir_000024_000009.html" target="_top" xlink:title="5">
<text text-anchor="middle" x="271.6781" y="-96.3436" font-family="Helvetica,sans-Serif" font-size="10.00" fill="#000000">5</text>
</a>
</g>
</g>
<!-- dir_273e60b3573ce9ad58a4d725e6a36523&#45;&gt;dir_90a2ad6518b731f1dc196d14153b8b6b -->
<g id="edge3" class="edge">
<title>dir_273e60b3573ce9ad58a4d725e6a36523&#45;&gt;dir_90a2ad6518b731f1dc196d14153b8b6b</title>
<path fill="none" stroke="#000000" d="M312.4723,-503.7623C304.5545,-479.201 294.5122,-435.2474 290.0018,-406.3541"/>
<polygon fill="#000000" stroke="#000000" points="293.4171,-405.5055 288.5599,-396.0896 286.4851,-406.4793 293.4171,-405.5055"/>
<g id="a_edge3&#45;headlabel"><a xlink:href="dir_000024_000006.html" target="_top" xlink:title="26">
<text text-anchor="middle" x="296.7287" y="-406.1702" font-family="Helvetica,sans-Serif" font-size="10.00" fill="#000000">26</text>
</a>
</g>
</g>
<!-- dir_273e60b3573ce9ad58a4d725e6a36523&#45;&gt;dir_1a6d8571b8eba91bded1d6534762df79 -->
<g id="edge4" class="edge">
<title>dir_273e60b3573ce9ad58a4d725e6a36523&#45;&gt;dir_1a6d8571b8eba91bded1d6534762df79</title>
<path fill="none" stroke="#000000" d="M355.7176,-515.8024C447.9284,-499.2718 692.1983,-450.4022 692.1983,-378 692.1983,-378 692.1983,-378 692.1983,-306 692.1983,-257.6944 681.1734,-240.237 645.1983,-208 621.2681,-186.5563 586.7391,-174.9721 560.4087,-168.7937"/>
<polygon fill="#000000" stroke="#000000" points="560.917,-165.3223 550.4006,-166.6086 559.4238,-172.1612 560.917,-165.3223"/>
<g id="a_edge4&#45;headlabel"><a xlink:href="dir_000024_000026.html" target="_top" xlink:title="2">
<text text-anchor="middle" x="565.0345" y="-160.815" font-family="Helvetica,sans-Serif" font-size="10.00" fill="#000000">2</text>
</a>
</g>
</g>
<!-- dir_273e60b3573ce9ad58a4d725e6a36523&#45;&gt;dir_5c2eb6d9a7a6f1e9cd32e0e8abf42ca6 -->
<g id="edge5" class="edge">
<title>dir_273e60b3573ce9ad58a4d725e6a36523&#45;&gt;dir_5c2eb6d9a7a6f1e9cd32e0e8abf42ca6</title>
<path fill="none" stroke="#000000" d="M355.0188,-503.7808C368.1053,-494.848 381.7128,-482.7971 389.1983,-468 410.7501,-425.3969 406.3737,-368.1196 400.9683,-334.3237"/>
<polygon fill="#000000" stroke="#000000" points="404.3733,-333.4753 399.2088,-324.2245 397.4772,-334.6769 404.3733,-333.4753"/>
<g id="a_edge5&#45;headlabel"><a xlink:href="dir_000024_000025.html" target="_top" xlink:title="2">
<text text-anchor="middle" x="407.7874" y="-334.0293" font-family="Helvetica,sans-Serif" font-size="10.00" fill="#000000">2</text>
</a>
</g>
</g>
<!-- dir_b2430326e20a3ae038db3bac19f0573b&#45;&gt;dir_90a2ad6518b731f1dc196d14153b8b6b -->
<g id="edge6" class="edge">
<title>dir_b2430326e20a3ae038db3bac19f0573b&#45;&gt;dir_90a2ad6518b731f1dc196d14153b8b6b</title>
<path fill="none" stroke="#000000" d="M331.096,-431.8314C322.8331,-423.454 313.6649,-413.3531 305.9435,-404.1749"/>
<polygon fill="#000000" stroke="#000000" points="308.6324,-401.9341 299.5897,-396.4133 303.2158,-406.3683 308.6324,-401.9341"/>
<g id="a_edge6&#45;headlabel"><a xlink:href="dir_000007_000006.html" target="_top" xlink:title="312">
<text text-anchor="middle" x="313.1063" y="-400.4171" font-family="Helvetica,sans-Serif" font-size="10.00" fill="#000000">312</text>
</a>
</g>
</g>
<!-- dir_b2430326e20a3ae038db3bac19f0573b&#45;&gt;dir_16ec7e00b3eaf1dbf09e67ec3cfcc7e2 -->
<g id="edge7" class="edge">
<title>dir_b2430326e20a3ae038db3bac19f0573b&#45;&gt;dir_16ec7e00b3eaf1dbf09e67ec3cfcc7e2</title>
<path fill="none" stroke="#000000" d="M376.826,-431.9743C410.1502,-409.4882 471.082,-368.5393 515.1983,-324 534.3706,-304.6439 552.1877,-279.2242 565.8159,-260.3381"/>
<polygon fill="#000000" stroke="#000000" points="568.7108,-262.3086 571.7726,-252.1658 563.0539,-258.1854 568.7108,-262.3086"/>
<g id="a_edge7&#45;headlabel"><a xlink:href="dir_000007_000029.html" target="_top" xlink:title="1">
<text text-anchor="middle" x="568.8879" y="-264.3858" font-family="Helvetica,sans-Serif" font-size="10.00" fill="#000000">1</text>
</a>
</g>
</g>
<!-- dir_4022f63979af12af4c32ec9a4562b2df&#45;&gt;dir_9706acb4d69a98d7c15ebe226493116f -->
<g id="edge11" class="edge">
<title>dir_4022f63979af12af4c32ec9a4562b2df&#45;&gt;dir_9706acb4d69a98d7c15ebe226493116f</title>
<path fill="none" stroke="#000000" d="M292.4528,-36.3276C269.3268,-59.1108 231.9286,-100.3523 214.1983,-144 206.2354,-163.6029 203.8812,-187.4692 203.4393,-205.6981"/>
<polygon fill="#000000" stroke="#000000" points="199.9395,-205.6815 203.3722,-215.7048 206.9393,-205.7285 199.9395,-205.6815"/>
<g id="a_edge11&#45;headlabel"><a xlink:href="dir_000027_000008.html" target="_top" xlink:title="7">
<text text-anchor="middle" x="197.1243" y="-199.5679" font-family="Helvetica,sans-Serif" font-size="10.00" fill="#000000">7</text>
</a>
</g>
</g>
<!-- dir_4022f63979af12af4c32ec9a4562b2df&#45;&gt;dir_a933ab6cde53f9fa4d29dc295cb0ac5f -->
<g id="edge8" class="edge">
<title>dir_4022f63979af12af4c32ec9a4562b2df&#45;&gt;dir_a933ab6cde53f9fa4d29dc295cb0ac5f</title>
<path fill="none" stroke="#000000" d="M318.1743,-36.4133C318.9054,-44.0593 319.1186,-53.1084 318.8138,-61.5726"/>
<polygon fill="#000000" stroke="#000000" points="315.3031,-61.6264 318.1507,-71.8314 322.2885,-62.078 315.3031,-61.6264"/>
<g id="a_edge8&#45;headlabel"><a xlink:href="dir_000027_000009.html" target="_top" xlink:title="2">
<text text-anchor="middle" x="312.7015" y="-55.3562" font-family="Helvetica,sans-Serif" font-size="10.00" fill="#000000">2</text>
</a>
</g>
</g>
<!-- dir_4022f63979af12af4c32ec9a4562b2df&#45;&gt;dir_90a2ad6518b731f1dc196d14153b8b6b -->
<g id="edge9" class="edge">
<title>dir_4022f63979af12af4c32ec9a4562b2df&#45;&gt;dir_90a2ad6518b731f1dc196d14153b8b6b</title>
<path fill="none" stroke="#000000" d="M285.0842,-21.7074C228.7804,-30.5484 100.8007,-58.9213 46.1983,-144 -17.9451,-243.9451 169.7343,-329.8494 252.4038,-363.1916"/>
<polygon fill="#000000" stroke="#000000" points="251.3557,-366.5416 261.9409,-366.9945 253.9485,-360.0395 251.3557,-366.5416"/>
<g id="a_edge9&#45;headlabel"><a xlink:href="dir_000027_000006.html" target="_top" xlink:title="13">
<text text-anchor="middle" x="246.9652" y="-365.3476" font-family="Helvetica,sans-Serif" font-size="10.00" fill="#000000">13</text>
</a>
</g>
</g>
<!-- dir_4022f63979af12af4c32ec9a4562b2df&#45;&gt;dir_1a6d8571b8eba91bded1d6534762df79 -->
<g id="edge10" class="edge">
<title>dir_4022f63979af12af4c32ec9a4562b2df&#45;&gt;dir_1a6d8571b8eba91bded1d6534762df79</title>
<path fill="none" stroke="#000000" d="M339.2605,-19.3326C377.8887,-22.5949 448.1029,-33.7848 491.1983,-72 509.3838,-88.126 519.9939,-113.937 524.3243,-133.7913"/>
<polygon fill="#000000" stroke="#000000" points="520.9069,-134.5698 526.0581,-143.8281 527.8047,-133.3782 520.9069,-134.5698"/>
<g id="a_edge10&#45;headlabel"><a xlink:href="dir_000027_000026.html" target="_top" xlink:title="2">
<text text-anchor="middle" x="517.4972" y="-129.011" font-family="Helvetica,sans-Serif" font-size="10.00" fill="#000000">2</text>
</a>
</g>
</g>
<!-- dir_a933ab6cde53f9fa4d29dc295cb0ac5f&#45;&gt;dir_9706acb4d69a98d7c15ebe226493116f -->
<g id="edge18" class="edge">
<title>dir_a933ab6cde53f9fa4d29dc295cb0ac5f&#45;&gt;dir_9706acb4d69a98d7c15ebe226493116f</title>
<path fill="none" stroke="#000000" d="M295.9663,-108.1082C286.9345,-118.4145 275.6435,-131.6883 266.1983,-144 250.3185,-164.6993 233.6109,-189.1268 221.5459,-207.3061"/>
<polygon fill="#000000" stroke="#000000" points="218.6038,-205.4099 216.02,-215.6849 224.4474,-209.2639 218.6038,-205.4099"/>
<g id="a_edge18&#45;headlabel"><a xlink:href="dir_000009_000008.html" target="_top" xlink:title="4">
<text text-anchor="middle" x="218.2126" y="-198.346" font-family="Helvetica,sans-Serif" font-size="10.00" fill="#000000">4</text>
</a>
</g>
</g>
<!-- dir_a933ab6cde53f9fa4d29dc295cb0ac5f&#45;&gt;dir_273e60b3573ce9ad58a4d725e6a36523 -->
<g id="edge12" class="edge">
<title>dir_a933ab6cde53f9fa4d29dc295cb0ac5f&#45;&gt;dir_273e60b3573ce9ad58a4d725e6a36523</title>
<path fill="none" stroke="#000000" d="M284.7689,-92.2594C224.0306,-97.4155 81.6806,-112.1479 46.1983,-144 15.0251,-171.9838 18.1983,-192.1089 18.1983,-234 18.1983,-378 18.1983,-378 18.1983,-378 18.1983,-435.0406 192.2872,-487.2137 276.6324,-509.9638"/>
<polygon fill="#000000" stroke="#000000" points="275.8911,-513.3884 286.4558,-512.5907 277.6995,-506.626 275.8911,-513.3884"/>
<g id="a_edge12&#45;headlabel"><a xlink:href="dir_000009_000024.html" target="_top" xlink:title="2">
<text text-anchor="middle" x="271.685" y="-512.7028" font-family="Helvetica,sans-Serif" font-size="10.00" fill="#000000">2</text>
</a>
</g>
</g>
<!-- dir_a933ab6cde53f9fa4d29dc295cb0ac5f&#45;&gt;dir_b2430326e20a3ae038db3bac19f0573b -->
<g id="edge13" class="edge">
<title>dir_a933ab6cde53f9fa4d29dc295cb0ac5f&#45;&gt;dir_b2430326e20a3ae038db3bac19f0573b</title>
<path fill="none" stroke="#000000" d="M315.9999,-108.4326C318.0487,-118.8404 320.4977,-132.1076 322.1983,-144 336.7306,-245.6244 346.9193,-367.1921 351.0924,-421.4329"/>
<polygon fill="#000000" stroke="#000000" points="347.6215,-421.9499 351.8687,-431.6562 354.6014,-421.4199 347.6215,-421.9499"/>
<g id="a_edge13&#45;headlabel"><a xlink:href="dir_000009_000007.html" target="_top" xlink:title="6">
<text text-anchor="middle" x="344.5183" y="-416.0806" font-family="Helvetica,sans-Serif" font-size="10.00" fill="#000000">6</text>
</a>
</g>
</g>
<!-- dir_a933ab6cde53f9fa4d29dc295cb0ac5f&#45;&gt;dir_4022f63979af12af4c32ec9a4562b2df -->
<g id="edge14" class="edge">
<title>dir_a933ab6cde53f9fa4d29dc295cb0ac5f&#45;&gt;dir_4022f63979af12af4c32ec9a4562b2df</title>
<path fill="none" stroke="#000000" d="M306.2459,-71.8314C305.4955,-64.131 305.2746,-54.9743 305.5832,-46.4166"/>
<polygon fill="#000000" stroke="#000000" points="309.0775,-46.6161 306.2223,-36.4133 302.0918,-46.1697 309.0775,-46.6161"/>
<g id="a_edge14&#45;headlabel"><a xlink:href="dir_000009_000027.html" target="_top" xlink:title="1">
<text text-anchor="middle" x="311.6819" y="-47.8844" font-family="Helvetica,sans-Serif" font-size="10.00" fill="#000000">1</text>
</a>
</g>
</g>
<!-- dir_a933ab6cde53f9fa4d29dc295cb0ac5f&#45;&gt;dir_90a2ad6518b731f1dc196d14153b8b6b -->
<g id="edge15" class="edge">
<title>dir_a933ab6cde53f9fa4d29dc295cb0ac5f&#45;&gt;dir_90a2ad6518b731f1dc196d14153b8b6b</title>
<path fill="none" stroke="#000000" d="M314.2462,-108.0089C314.4551,-156.6912 303.9542,-291.1886 295.6464,-349.9345"/>
<polygon fill="#000000" stroke="#000000" points="292.1613,-349.5728 294.1237,-359.9843 299.0823,-350.6215 292.1613,-349.5728"/>
<g id="a_edge15&#45;headlabel"><a xlink:href="dir_000009_000006.html" target="_top" xlink:title="89">
<text text-anchor="middle" x="289.8925" y="-343.0935" font-family="Helvetica,sans-Serif" font-size="10.00" fill="#000000">89</text>
</a>
</g>
</g>
<!-- dir_a933ab6cde53f9fa4d29dc295cb0ac5f&#45;&gt;dir_1a6d8571b8eba91bded1d6534762df79 -->
<g id="edge16" class="edge">
<title>dir_a933ab6cde53f9fa4d29dc295cb0ac5f&#45;&gt;dir_1a6d8571b8eba91bded1d6534762df79</title>
<path fill="none" stroke="#000000" d="M339.4924,-97.8139C377.1242,-109.7327 444.6506,-132.6465 486.5952,-147.6251"/>
<polygon fill="#000000" stroke="#000000" points="485.5669,-150.9746 496.1613,-151.0647 487.9354,-144.3875 485.5669,-150.9746"/>
<g id="a_edge16&#45;headlabel"><a xlink:href="dir_000009_000026.html" target="_top" xlink:title="2">
<text text-anchor="middle" x="481.2236" y="-149.9302" font-family="Helvetica,sans-Serif" font-size="10.00" fill="#000000">2</text>
</a>
</g>
</g>
<!-- dir_a933ab6cde53f9fa4d29dc295cb0ac5f&#45;&gt;dir_5c2eb6d9a7a6f1e9cd32e0e8abf42ca6 -->
<g id="edge17" class="edge">
<title>dir_a933ab6cde53f9fa4d29dc295cb0ac5f&#45;&gt;dir_5c2eb6d9a7a6f1e9cd32e0e8abf42ca6</title>
<path fill="none" stroke="#000000" d="M335.2153,-108.0173C344.0114,-118.0807 353.117,-131.1517 359.1983,-144 380.1791,-188.3267 393.003,-244.246 396.796,-277.4502"/>
<polygon fill="#000000" stroke="#000000" points="393.3448,-278.1478 397.7348,-287.7903 400.3161,-277.5148 393.3448,-278.1478"/>
<g id="a_edge17&#45;headlabel"><a xlink:href="dir_000009_000025.html" target="_top" xlink:title="3">
<text text-anchor="middle" x="390.1922" y="-272.3246" font-family="Helvetica,sans-Serif" font-size="10.00" fill="#000000">3</text>
</a>
</g>
</g>
<!-- dir_90a2ad6518b731f1dc196d14153b8b6b&#45;&gt;dir_9706acb4d69a98d7c15ebe226493116f -->
<g id="edge25" class="edge">
<title>dir_90a2ad6518b731f1dc196d14153b8b6b&#45;&gt;dir_9706acb4d69a98d7c15ebe226493116f</title>
<path fill="none" stroke="#000000" d="M278.433,-359.7623C263.6796,-334.7682 237.0723,-289.6924 220.0419,-260.8409"/>
<polygon fill="#000000" stroke="#000000" points="222.9736,-258.9221 214.8762,-252.0896 216.9455,-262.4804 222.9736,-258.9221"/>
<g id="a_edge25&#45;headlabel"><a xlink:href="dir_000006_000008.html" target="_top" xlink:title="4">
<text text-anchor="middle" x="227.2459" y="-258.0744" font-family="Helvetica,sans-Serif" font-size="10.00" fill="#000000">4</text>
</a>
</g>
</g>
<!-- dir_90a2ad6518b731f1dc196d14153b8b6b&#45;&gt;dir_273e60b3573ce9ad58a4d725e6a36523 -->
<g id="edge19" class="edge">
<title>dir_90a2ad6518b731f1dc196d14153b8b6b&#45;&gt;dir_273e60b3573ce9ad58a4d725e6a36523</title>
<path fill="none" stroke="#000000" d="M297.8765,-396.0896C305.8207,-420.6805 315.9234,-464.905 320.4271,-493.8531"/>
<polygon fill="#000000" stroke="#000000" points="316.9619,-494.3462 321.8187,-503.7623 323.8939,-493.3727 316.9619,-494.3462"/>
<g id="a_edge19&#45;headlabel"><a xlink:href="dir_000006_000024.html" target="_top" xlink:title="1">
<text text-anchor="middle" x="313.6505" y="-488.6814" font-family="Helvetica,sans-Serif" font-size="10.00" fill="#000000">1</text>
</a>
</g>
</g>
<!-- dir_90a2ad6518b731f1dc196d14153b8b6b&#45;&gt;dir_b2430326e20a3ae038db3bac19f0573b -->
<g id="edge20" class="edge">
<title>dir_90a2ad6518b731f1dc196d14153b8b6b&#45;&gt;dir_b2430326e20a3ae038db3bac19f0573b</title>
<path fill="none" stroke="#000000" d="M311.5417,-396.4133C319.7384,-404.7389 328.7997,-414.7282 336.4442,-423.8144"/>
<polygon fill="#000000" stroke="#000000" points="333.9606,-426.3063 343.0008,-431.8314 339.3793,-421.8747 333.9606,-426.3063"/>
<g id="a_edge20&#45;headlabel"><a xlink:href="dir_000006_000007.html" target="_top" xlink:title="8">
<text text-anchor="middle" x="329.4872" y="-422.8213" font-family="Helvetica,sans-Serif" font-size="10.00" fill="#000000">8</text>
</a>
</g>
</g>
<!-- dir_90a2ad6518b731f1dc196d14153b8b6b&#45;&gt;dir_4022f63979af12af4c32ec9a4562b2df -->
<g id="edge21" class="edge">
<title>dir_90a2ad6518b731f1dc196d14153b8b6b&#45;&gt;dir_4022f63979af12af4c32ec9a4562b2df</title>
<path fill="none" stroke="#000000" d="M262.0402,-369.9485C182.1706,-343.0121 -40.8905,-251.6507 28.1983,-144 82.8769,-58.8026 211.1377,-30.4693 275.0048,-21.6705"/>
<polygon fill="#000000" stroke="#000000" points="275.5781,-25.1257 285.0487,-20.3762 274.6834,-18.1831 275.5781,-25.1257"/>
<g id="a_edge21&#45;headlabel"><a xlink:href="dir_000006_000027.html" target="_top" xlink:title="1">
<text text-anchor="middle" x="272.3758" y="-25.901" font-family="Helvetica,sans-Serif" font-size="10.00" fill="#000000">1</text>
</a>
</g>
</g>
<!-- dir_90a2ad6518b731f1dc196d14153b8b6b&#45;&gt;dir_a933ab6cde53f9fa4d29dc295cb0ac5f -->
<g id="edge22" class="edge">
<title>dir_90a2ad6518b731f1dc196d14153b8b6b&#45;&gt;dir_a933ab6cde53f9fa4d29dc295cb0ac5f</title>
<path fill="none" stroke="#000000" d="M287.1504,-359.9843C286.9425,-311.2939 297.4438,-176.7961 305.7514,-118.0573"/>
<polygon fill="#000000" stroke="#000000" points="309.2363,-118.4204 307.274,-108.0089 302.3153,-117.3716 309.2363,-118.4204"/>
<g id="a_edge22&#45;headlabel"><a xlink:href="dir_000006_000009.html" target="_top" xlink:title="8">
<text text-anchor="middle" x="311.5051" y="-119.8998" font-family="Helvetica,sans-Serif" font-size="10.00" fill="#000000">8</text>
</a>
</g>
</g>
<!-- dir_90a2ad6518b731f1dc196d14153b8b6b&#45;&gt;dir_1a6d8571b8eba91bded1d6534762df79 -->
<g id="edge23" class="edge">
<title>dir_90a2ad6518b731f1dc196d14153b8b6b&#45;&gt;dir_1a6d8571b8eba91bded1d6534762df79</title>
<path fill="none" stroke="#000000" d="M316.4733,-369.715C345.3414,-361.2799 391.0325,-346.2601 426.1983,-324 450.364,-308.703 456.7523,-303.0706 472.1983,-279 490.1255,-251.0629 501.672,-214.4614 509.9856,-189.6915"/>
<polygon fill="#000000" stroke="#000000" points="513.3139,-190.7754 513.246,-180.1807 506.6922,-188.5053 513.3139,-190.7754"/>
<g id="a_edge23&#45;headlabel"><a xlink:href="dir_000006_000026.html" target="_top" xlink:title="2">
<text text-anchor="middle" x="514.8341" y="-192.5964" font-family="Helvetica,sans-Serif" font-size="10.00" fill="#000000">2</text>
</a>
</g>
</g>
<!-- dir_90a2ad6518b731f1dc196d14153b8b6b&#45;&gt;dir_5c2eb6d9a7a6f1e9cd32e0e8abf42ca6 -->
<g id="edge24" class="edge">
<title>dir_90a2ad6518b731f1dc196d14153b8b6b&#45;&gt;dir_5c2eb6d9a7a6f1e9cd32e0e8abf42ca6</title>
<path fill="none" stroke="#000000" d="M309.9942,-359.8314C322.9206,-350.4288 339.8328,-338.8551 355.2229,-328.8516"/>
<polygon fill="#000000" stroke="#000000" points="357.5441,-331.5205 364.0667,-323.1715 353.7613,-325.6307 357.5441,-331.5205"/>
<g id="a_edge24&#45;headlabel"><a xlink:href="dir_000006_000025.html" target="_top" xlink:title="2">
<text text-anchor="middle" x="356.054" y="-333.352" font-family="Helvetica,sans-Serif" font-size="10.00" fill="#000000">2</text>
</a>
</g>
</g>
<!-- dir_1a6d8571b8eba91bded1d6534762df79&#45;&gt;dir_9706acb4d69a98d7c15ebe226493116f -->
<g id="edge31" class="edge">
<title>dir_1a6d8571b8eba91bded1d6534762df79&#45;&gt;dir_9706acb4d69a98d7c15ebe226493116f</title>
<path fill="none" stroke="#000000" d="M496.1071,-169.0669C438.8763,-182.74 306.2003,-212.6915 241.2193,-226.6138"/>
<polygon fill="#000000" stroke="#000000" points="240.4454,-223.2 231.3934,-228.7057 241.9031,-230.0466 240.4454,-223.2"/>
<g id="a_edge31&#45;headlabel"><a xlink:href="dir_000026_000008.html" target="_top" xlink:title="1">
<text text-anchor="middle" x="243.37" y="-217.1746" font-family="Helvetica,sans-Serif" font-size="10.00" fill="#000000">1</text>
</a>
</g>
</g>
<!-- dir_1a6d8571b8eba91bded1d6534762df79&#45;&gt;dir_273e60b3573ce9ad58a4d725e6a36523 -->
<g id="edge26" class="edge">
<title>dir_1a6d8571b8eba91bded1d6534762df79&#45;&gt;dir_273e60b3573ce9ad58a4d725e6a36523</title>
<path fill="none" stroke="#000000" d="M550.4008,-164.3745C581.5337,-168.563 631.6036,-179.6882 663.1983,-208 699.1734,-240.237 710.1983,-257.6944 710.1983,-306 710.1983,-378 710.1983,-378 710.1983,-378 710.1983,-450.0444 468.3364,-498.7883 365.9555,-515.555"/>
<polygon fill="#000000" stroke="#000000" points="365.2339,-512.126 355.9162,-517.169 366.345,-519.0373 365.2339,-512.126"/>
<g id="a_edge26&#45;headlabel"><a xlink:href="dir_000026_000024.html" target="_top" xlink:title="1">
<text text-anchor="middle" x="368.3323" y="-506.2522" font-family="Helvetica,sans-Serif" font-size="10.00" fill="#000000">1</text>
</a>
</g>
</g>
<!-- dir_1a6d8571b8eba91bded1d6534762df79&#45;&gt;dir_b2430326e20a3ae038db3bac19f0573b -->
<g id="edge27" class="edge">
<title>dir_1a6d8571b8eba91bded1d6534762df79&#45;&gt;dir_b2430326e20a3ae038db3bac19f0573b</title>
<path fill="none" stroke="#000000" d="M550.2367,-164.6888C576.9137,-168.942 616.354,-179.8886 635.1983,-208 652.7689,-234.2112 649.0883,-250.6659 635.1983,-279 587.3524,-376.6005 455.3872,-423.4836 390.3769,-441.1969"/>
<polygon fill="#000000" stroke="#000000" points="389.3169,-437.8567 380.5411,-443.7926 391.1032,-444.625 389.3169,-437.8567"/>
<g id="a_edge27&#45;headlabel"><a xlink:href="dir_000026_000007.html" target="_top" xlink:title="2">
<text text-anchor="middle" x="392.0681" y="-431.6942" font-family="Helvetica,sans-Serif" font-size="10.00" fill="#000000">2</text>
</a>
</g>
</g>
<!-- dir_1a6d8571b8eba91bded1d6534762df79&#45;&gt;dir_4022f63979af12af4c32ec9a4562b2df -->
<g id="edge28" class="edge">
<title>dir_1a6d8571b8eba91bded1d6534762df79&#45;&gt;dir_4022f63979af12af4c32ec9a4562b2df</title>
<path fill="none" stroke="#000000" d="M513.055,-143.8281C505.5631,-123.5275 494.6521,-91.0243 473.1983,-72 438.0869,-40.8647 384.9741,-27.6686 349.3424,-22.0835"/>
<polygon fill="#000000" stroke="#000000" points="349.7326,-18.6036 339.3357,-20.642 348.7345,-25.5321 349.7326,-18.6036"/>
<g id="a_edge28&#45;headlabel"><a xlink:href="dir_000026_000027.html" target="_top" xlink:title="4">
<text text-anchor="middle" x="353.6953" y="-13.8058" font-family="Helvetica,sans-Serif" font-size="10.00" fill="#000000">4</text>
</a>
</g>
</g>
<!-- dir_1a6d8571b8eba91bded1d6534762df79&#45;&gt;dir_a933ab6cde53f9fa4d29dc295cb0ac5f -->
<g id="edge29" class="edge">
<title>dir_1a6d8571b8eba91bded1d6534762df79&#45;&gt;dir_a933ab6cde53f9fa4d29dc295cb0ac5f</title>
<path fill="none" stroke="#000000" d="M495.8144,-154.1577C458.2154,-142.2468 390.8932,-119.4028 348.9698,-104.435"/>
<polygon fill="#000000" stroke="#000000" points="349.9996,-101.086 339.4051,-100.9968 347.6316,-107.6733 349.9996,-101.086"/>
<g id="a_edge29&#45;headlabel"><a xlink:href="dir_000026_000009.html" target="_top" xlink:title="1">
<text text-anchor="middle" x="354.3427" y="-97.13" font-family="Helvetica,sans-Serif" font-size="10.00" fill="#000000">1</text>
</a>
</g>
</g>
<!-- dir_1a6d8571b8eba91bded1d6534762df79&#45;&gt;dir_90a2ad6518b731f1dc196d14153b8b6b -->
<g id="edge30" class="edge">
<title>dir_1a6d8571b8eba91bded1d6534762df79&#45;&gt;dir_90a2ad6518b731f1dc196d14153b8b6b</title>
<path fill="none" stroke="#000000" d="M525.496,-180.1807C522.7325,-204.2111 510.5955,-247.2138 490.1983,-279 474.7523,-303.0706 468.364,-308.703 444.1983,-324 407.5214,-347.2166 359.3954,-362.5573 326.4018,-370.7659"/>
<polygon fill="#000000" stroke="#000000" points="325.1726,-367.4606 316.2549,-373.1813 326.7937,-374.2703 325.1726,-367.4606"/>
<g id="a_edge30&#45;headlabel"><a xlink:href="dir_000026_000006.html" target="_top" xlink:title="31">
<text text-anchor="middle" x="328.012" y="-361.3662" font-family="Helvetica,sans-Serif" font-size="10.00" fill="#000000">31</text>
</a>
</g>
</g>
<!-- dir_5c2eb6d9a7a6f1e9cd32e0e8abf42ca6&#45;&gt;dir_9706acb4d69a98d7c15ebe226493116f -->
<g id="edge38" class="edge">
<title>dir_5c2eb6d9a7a6f1e9cd32e0e8abf42ca6&#45;&gt;dir_9706acb4d69a98d7c15ebe226493116f</title>
<path fill="none" stroke="#000000" d="M363.8296,-292.1177C330.0711,-278.7082 276.6704,-258.6143 240.9695,-245.9125"/>
<polygon fill="#000000" stroke="#000000" points="241.9952,-242.563 231.4004,-242.5376 239.6669,-249.1645 241.9952,-242.563"/>
<g id="a_edge38&#45;headlabel"><a xlink:href="dir_000025_000008.html" target="_top" xlink:title="14">
<text text-anchor="middle" x="246.3295" y="-238.5809" font-family="Helvetica,sans-Serif" font-size="10.00" fill="#000000">14</text>
</a>
</g>
</g>
<!-- dir_5c2eb6d9a7a6f1e9cd32e0e8abf42ca6&#45;&gt;dir_b2430326e20a3ae038db3bac19f0573b -->
<g id="edge32" class="edge">
<title>dir_5c2eb6d9a7a6f1e9cd32e0e8abf42ca6&#45;&gt;dir_b2430326e20a3ae038db3bac19f0573b</title>
<path fill="none" stroke="#000000" d="M389.9222,-324.0896C382.7498,-348.6805 369.851,-392.905 361.4078,-421.8531"/>
<polygon fill="#000000" stroke="#000000" points="357.9577,-421.1823 358.5177,-431.7623 364.6777,-423.1423 357.9577,-421.1823"/>
<g id="a_edge32&#45;headlabel"><a xlink:href="dir_000025_000007.html" target="_top" xlink:title="10">
<text text-anchor="middle" x="356.2384" y="-414.4365" font-family="Helvetica,sans-Serif" font-size="10.00" fill="#000000">10</text>
</a>
</g>
</g>
<!-- dir_5c2eb6d9a7a6f1e9cd32e0e8abf42ca6&#45;&gt;dir_4022f63979af12af4c32ec9a4562b2df -->
<g id="edge33" class="edge">
<title>dir_5c2eb6d9a7a6f1e9cd32e0e8abf42ca6&#45;&gt;dir_4022f63979af12af4c32ec9a4562b2df</title>
<path fill="none" stroke="#000000" d="M402.1118,-287.9004C402.9768,-284.9641 403.7234,-281.9264 404.1983,-279 409.253,-247.8519 410.0401,-239.0101 404.1983,-208 392.097,-143.7618 379.3816,-129.4508 348.1983,-72 343.2517,-62.8865 337.209,-53.3466 331.4978,-44.8649"/>
<polygon fill="#000000" stroke="#000000" points="334.2759,-42.7278 325.7258,-36.4712 328.508,-46.6942 334.2759,-42.7278"/>
<g id="a_edge33&#45;headlabel"><a xlink:href="dir_000025_000027.html" target="_top" xlink:title="5">
<text text-anchor="middle" x="338.6521" y="-41.5809" font-family="Helvetica,sans-Serif" font-size="10.00" fill="#000000">5</text>
</a>
</g>
</g>
<!-- dir_5c2eb6d9a7a6f1e9cd32e0e8abf42ca6&#45;&gt;dir_a933ab6cde53f9fa4d29dc295cb0ac5f -->
<g id="edge34" class="edge">
<title>dir_5c2eb6d9a7a6f1e9cd32e0e8abf42ca6&#45;&gt;dir_a933ab6cde53f9fa4d29dc295cb0ac5f</title>
<path fill="none" stroke="#000000" d="M386.7506,-287.7903C377.7981,-257.0367 364.5508,-193.3376 341.1983,-144 336.6848,-134.4641 330.5054,-124.8057 324.8594,-116.3451"/>
<polygon fill="#000000" stroke="#000000" points="327.7447,-114.3636 319.2609,-108.0173 321.9354,-118.269 327.7447,-114.3636"/>
<g id="a_edge34&#45;headlabel"><a xlink:href="dir_000025_000009.html" target="_top" xlink:title="7">
<text text-anchor="middle" x="332.1065" y="-113.2627" font-family="Helvetica,sans-Serif" font-size="10.00" fill="#000000">7</text>
</a>
</g>
</g>
<!-- dir_5c2eb6d9a7a6f1e9cd32e0e8abf42ca6&#45;&gt;dir_90a2ad6518b731f1dc196d14153b8b6b -->
<g id="edge35" class="edge">
<title>dir_5c2eb6d9a7a6f1e9cd32e0e8abf42ca6&#45;&gt;dir_90a2ad6518b731f1dc196d14153b8b6b</title>
<path fill="none" stroke="#000000" d="M374.576,-324.0423C360.5413,-334.2582 341.7524,-347.0677 325.3183,-357.642"/>
<polygon fill="#000000" stroke="#000000" points="323.042,-354.9413 316.4756,-363.256 326.7938,-360.8509 323.042,-354.9413"/>
<g id="a_edge35&#45;headlabel"><a xlink:href="dir_000025_000006.html" target="_top" xlink:title="74">
<text text-anchor="middle" x="324.5548" y="-348.1177" font-family="Helvetica,sans-Serif" font-size="10.00" fill="#000000">74</text>
</a>
</g>
</g>
<!-- dir_5c2eb6d9a7a6f1e9cd32e0e8abf42ca6&#45;&gt;dir_1a6d8571b8eba91bded1d6534762df79 -->
<g id="edge36" class="edge">
<title>dir_5c2eb6d9a7a6f1e9cd32e0e8abf42ca6&#45;&gt;dir_1a6d8571b8eba91bded1d6534762df79</title>
<path fill="none" stroke="#000000" d="M426.2362,-291.8147C432.5588,-288.1491 438.8918,-283.8479 444.1983,-279 444.4475,-278.7724 481.7996,-223.4002 505.0475,-188.9228"/>
<polygon fill="#000000" stroke="#000000" points="508.2169,-190.4828 510.9055,-180.2348 502.4129,-186.5694 508.2169,-190.4828"/>
<g id="a_edge36&#45;headlabel"><a xlink:href="dir_000025_000026.html" target="_top" xlink:title="12">
<text text-anchor="middle" x="508.5615" y="-192.5505" font-family="Helvetica,sans-Serif" font-size="10.00" fill="#000000">12</text>
</a>
</g>
</g>
<!-- dir_5c2eb6d9a7a6f1e9cd32e0e8abf42ca6&#45;&gt;dir_16ec7e00b3eaf1dbf09e67ec3cfcc7e2 -->
<g id="edge37" class="edge">
<title>dir_5c2eb6d9a7a6f1e9cd32e0e8abf42ca6&#45;&gt;dir_16ec7e00b3eaf1dbf09e67ec3cfcc7e2</title>
<path fill="none" stroke="#000000" d="M426.447,-297.1032C443.1243,-292.1544 463.9222,-285.6612 482.1983,-279 502.1914,-271.713 523.8957,-262.7813 542.498,-254.8015"/>
<polygon fill="#000000" stroke="#000000" points="544.1277,-257.9101 551.9176,-250.7291 541.3498,-251.4849 544.1277,-257.9101"/>
<g id="a_edge37&#45;headlabel"><a xlink:href="dir_000025_000029.html" target="_top" xlink:title="1">
<text text-anchor="middle" x="541.9549" y="-259.4426" font-family="Helvetica,sans-Serif" font-size="10.00" fill="#000000">1</text>
</a>
</g>
</g>
<!-- dir_16ec7e00b3eaf1dbf09e67ec3cfcc7e2&#45;&gt;dir_9706acb4d69a98d7c15ebe226493116f -->
<g id="edge45" class="edge">
<title>dir_16ec7e00b3eaf1dbf09e67ec3cfcc7e2&#45;&gt;dir_9706acb4d69a98d7c15ebe226493116f</title>
<path fill="none" stroke="#000000" d="M552.147,-234C448.53,-234 344.9131,-234 241.2961,-234"/>
<polygon fill="#000000" stroke="#000000" points="241.2687,-230.5001 231.2686,-234 241.2686,-237.5001 241.2687,-230.5001"/>
<g id="a_edge45&#45;headlabel"><a xlink:href="dir_000029_000008.html" target="_top" xlink:title="16">
<text text-anchor="middle" x="244.8633" y="-225.1607" font-family="Helvetica,sans-Serif" font-size="10.00" fill="#000000">16</text>
</a>
</g>
</g>
<!-- dir_16ec7e00b3eaf1dbf09e67ec3cfcc7e2&#45;&gt;dir_273e60b3573ce9ad58a4d725e6a36523 -->
<g id="edge39" class="edge">
<title>dir_16ec7e00b3eaf1dbf09e67ec3cfcc7e2&#45;&gt;dir_273e60b3573ce9ad58a4d725e6a36523</title>
<path fill="none" stroke="#000000" d="M586.3949,-252.0482C582.8219,-271.0798 575.3362,-301.3823 561.1983,-324 511.2952,-403.835 418.0922,-466.7426 363.6832,-498.765"/>
<polygon fill="#000000" stroke="#000000" points="361.8617,-495.7754 354.9712,-503.8235 365.3766,-501.8289 361.8617,-495.7754"/>
<g id="a_edge39&#45;headlabel"><a xlink:href="dir_000029_000024.html" target="_top" xlink:title="1">
<text text-anchor="middle" x="363.5446" y="-489.0151" font-family="Helvetica,sans-Serif" font-size="10.00" fill="#000000">1</text>
</a>
</g>
</g>
<!-- dir_16ec7e00b3eaf1dbf09e67ec3cfcc7e2&#45;&gt;dir_b2430326e20a3ae038db3bac19f0573b -->
<g id="edge40" class="edge">
<title>dir_16ec7e00b3eaf1dbf09e67ec3cfcc7e2&#45;&gt;dir_b2430326e20a3ae038db3bac19f0573b</title>
<path fill="none" stroke="#000000" d="M585.1262,-252.1658C575.6133,-271.2957 555.3069,-301.6794 533.1983,-324 488.9928,-368.6294 427.9038,-409.6538 389.321,-432.1105"/>
<polygon fill="#000000" stroke="#000000" points="387.4471,-429.15 380.4959,-437.1457 390.9161,-435.23 387.4471,-429.15"/>
<g id="a_edge40&#45;headlabel"><a xlink:href="dir_000029_000007.html" target="_top" xlink:title="16">
<text text-anchor="middle" x="389.1622" y="-422.4026" font-family="Helvetica,sans-Serif" font-size="10.00" fill="#000000">16</text>
</a>
</g>
</g>
<!-- dir_16ec7e00b3eaf1dbf09e67ec3cfcc7e2&#45;&gt;dir_4022f63979af12af4c32ec9a4562b2df -->
<g id="edge41" class="edge">
<title>dir_16ec7e00b3eaf1dbf09e67ec3cfcc7e2&#45;&gt;dir_4022f63979af12af4c32ec9a4562b2df</title>
<path fill="none" stroke="#000000" d="M586.8537,-215.9283C581.3934,-181.7735 564.4813,-107.9554 517.1983,-72 490.9552,-52.044 401.0417,-33.5723 349.428,-24.2812"/>
<polygon fill="#000000" stroke="#000000" points="349.7963,-20.7921 339.3391,-22.4942 348.5753,-27.6848 349.7963,-20.7921"/>
<g id="a_edge41&#45;headlabel"><a xlink:href="dir_000029_000027.html" target="_top" xlink:title="6">
<text text-anchor="middle" x="353.831" y="-16.1232" font-family="Helvetica,sans-Serif" font-size="10.00" fill="#000000">6</text>
</a>
</g>
</g>
<!-- dir_16ec7e00b3eaf1dbf09e67ec3cfcc7e2&#45;&gt;dir_a933ab6cde53f9fa4d29dc295cb0ac5f -->
<g id="edge42" class="edge">
<title>dir_16ec7e00b3eaf1dbf09e67ec3cfcc7e2&#45;&gt;dir_a933ab6cde53f9fa4d29dc295cb0ac5f</title>
<path fill="none" stroke="#000000" d="M554.3966,-215.9081C501.7596,-188.5445 402.3655,-136.8739 348.7266,-108.9894"/>
<polygon fill="#000000" stroke="#000000" points="350.0669,-105.7415 339.5798,-104.2344 346.8381,-111.9524 350.0669,-105.7415"/>
<g id="a_edge42&#45;headlabel"><a xlink:href="dir_000029_000009.html" target="_top" xlink:title="7">
<text text-anchor="middle" x="354.5659" y="-102.3803" font-family="Helvetica,sans-Serif" font-size="10.00" fill="#000000">7</text>
</a>
</g>
</g>
<!-- dir_16ec7e00b3eaf1dbf09e67ec3cfcc7e2&#45;&gt;dir_90a2ad6518b731f1dc196d14153b8b6b -->
<g id="edge43" class="edge">
<title>dir_16ec7e00b3eaf1dbf09e67ec3cfcc7e2&#45;&gt;dir_90a2ad6518b731f1dc196d14153b8b6b</title>
<path fill="none" stroke="#000000" d="M570.8915,-252.3953C547.2889,-275.7623 507.1508,-314.233 489.1983,-324 436.6286,-352.6005 367.9005,-366.8353 326.23,-373.2961"/>
<polygon fill="#000000" stroke="#000000" points="325.6242,-369.8476 316.245,-374.7752 326.65,-376.772 325.6242,-369.8476"/>
<g id="a_edge43&#45;headlabel"><a xlink:href="dir_000029_000006.html" target="_top" xlink:title="97">
<text text-anchor="middle" x="328.764" y="-364.0123" font-family="Helvetica,sans-Serif" font-size="10.00" fill="#000000">97</text>
</a>
</g>
</g>
<!-- dir_16ec7e00b3eaf1dbf09e67ec3cfcc7e2&#45;&gt;dir_1a6d8571b8eba91bded1d6534762df79 -->
<g id="edge44" class="edge">
<title>dir_16ec7e00b3eaf1dbf09e67ec3cfcc7e2&#45;&gt;dir_1a6d8571b8eba91bded1d6534762df79</title>
<path fill="none" stroke="#000000" d="M572.5437,-215.8314C564.7869,-207.3694 555.4182,-197.1489 546.9373,-187.8971"/>
<polygon fill="#000000" stroke="#000000" points="549.4145,-185.4198 540.0772,-180.4133 544.2544,-190.1499 549.4145,-185.4198"/>
<g id="a_edge44&#45;headlabel"><a xlink:href="dir_000029_000026.html" target="_top" xlink:title="5">
<text text-anchor="middle" x="553.9364" y="-183.651" font-family="Helvetica,sans-Serif" font-size="10.00" fill="#000000">5</text>
</a>
</g>
</g>
</g>
</svg>
