<?xml version="1.0" encoding="UTF-8" standalone="no"?>
<!DOCTYPE svg PUBLIC "-//W3C//DTD SVG 1.1//EN"
 "http://www.w3.org/Graphics/SVG/1.1/DTD/svg11.dtd">
<!-- Generated by graphviz version 2.40.1 (20161225.0304)
 -->
<!-- Title: include/deal.II/optimization Pages: 1 -->
<svg width="198pt" height="303pt"
 viewBox="0.00 0.00 198.00 303.00" xmlns="http://www.w3.org/2000/svg" xmlns:xlink="http://www.w3.org/1999/xlink">
<g id="graph0" class="graph" transform="scale(1 1) rotate(0) translate(4 299)">
<title>include/deal.II/optimization</title>
<polygon fill="#ffffff" stroke="transparent" points="-4,4 -4,-299 194,-299 194,4 -4,4"/>
<g id="clust1" class="cluster">
<title>clusterdir_ee90d91a514b839c31faec7a1d916f67</title>
<g id="a_clust1"><a xlink:href="dir_ee90d91a514b839c31faec7a1d916f67.html" target="_top" xlink:title="deal.II">
<polygon fill="#ddddee" stroke="#000000" points="8,-200 8,-287 182,-287 182,-200 8,-200"/>
<text text-anchor="middle" x="95" y="-275" font-family="Helvetica,sans-Serif" font-size="10.00" fill="#000000">deal.II</text>
</a>
</g>
</g>
<g id="clust2" class="cluster">
<title>clusterdir_007d705f3a94fda20fe145aff1772f9d</title>
<g id="a_clust2"><a xlink:href="dir_007d705f3a94fda20fe145aff1772f9d.html" target="_top">
<polygon fill="#eeeeff" stroke="#000000" points="16,-208 16,-260 174,-260 174,-208 16,-208"/>
</a>
</g>
</g>
<!-- dir_007d705f3a94fda20fe145aff1772f9d -->
<g id="node1" class="node">
<title>dir_007d705f3a94fda20fe145aff1772f9d</title>
<text text-anchor="middle" x="131" y="-231.5" font-family="Helvetica,sans-Serif" font-size="10.00" fill="#000000">optimization</text>
</g>
<!-- dir_b2430326e20a3ae038db3bac19f0573b -->
<g id="node3" class="node">
<title>dir_b2430326e20a3ae038db3bac19f0573b</title>
<g id="a_node3"><a xlink:href="dir_b2430326e20a3ae038db3bac19f0573b.html" target="_top" xlink:title="lac">
<polygon fill="none" stroke="#000000" points="103,-180 49,-180 49,-144 103,-144 103,-180"/>
<text text-anchor="middle" x="76" y="-159.5" font-family="Helvetica,sans-Serif" font-size="10.00" fill="#000000">lac</text>
</a>
</g>
</g>
<!-- dir_007d705f3a94fda20fe145aff1772f9d&#45;&gt;dir_b2430326e20a3ae038db3bac19f0573b -->
<g id="edge2" class="edge">
<title>dir_007d705f3a94fda20fe145aff1772f9d&#45;&gt;dir_b2430326e20a3ae038db3bac19f0573b</title>
<path fill="none" stroke="#000000" d="M117.1212,-215.8314C110.7864,-207.5386 103.1616,-197.557 96.2074,-188.4533"/>
<polygon fill="#000000" stroke="#000000" points="98.9175,-186.2353 90.0657,-180.4133 93.3548,-190.4847 98.9175,-186.2353"/>
<g id="a_edge2&#45;headlabel"><a xlink:href="dir_000034_000007.html" target="_top" xlink:title="2">
<text text-anchor="middle" x="103.3558" y="-184.8683" font-family="Helvetica,sans-Serif" font-size="10.00" fill="#000000">2</text>
</a>
</g>
</g>
<!-- dir_90a2ad6518b731f1dc196d14153b8b6b -->
<g id="node4" class="node">
<title>dir_90a2ad6518b731f1dc196d14153b8b6b</title>
<g id="a_node4"><a xlink:href="dir_90a2ad6518b731f1dc196d14153b8b6b.html" target="_top" xlink:title="base">
<polygon fill="#ffffff" stroke="#ff0000" points="122,-108 68,-108 68,-72 122,-72 122,-108"/>
<text text-anchor="middle" x="95" y="-87.5" font-family="Helvetica,sans-Serif" font-size="10.00" fill="#000000">base</text>
</a>
</g>
</g>
<!-- dir_007d705f3a94fda20fe145aff1772f9d&#45;&gt;dir_90a2ad6518b731f1dc196d14153b8b6b -->
<g id="edge3" class="edge">
<title>dir_007d705f3a94fda20fe145aff1772f9d&#45;&gt;dir_90a2ad6518b731f1dc196d14153b8b6b</title>
<path fill="none" stroke="#000000" d="M127.7232,-215.9501C124.284,-197.6925 118.4828,-168.7149 112,-144 109.7662,-135.4838 107.0142,-126.3157 104.3801,-117.9947"/>
<polygon fill="#000000" stroke="#000000" points="107.6739,-116.8049 101.2684,-108.3657 101.0131,-118.9575 107.6739,-116.8049"/>
<g id="a_edge3&#45;headlabel"><a xlink:href="dir_000034_000006.html" target="_top" xlink:title="9">
<text text-anchor="middle" x="111.4809" y="-116.8523" font-family="Helvetica,sans-Serif" font-size="10.00" fill="#000000">9</text>
</a>
</g>
</g>
<!-- dir_5c2eb6d9a7a6f1e9cd32e0e8abf42ca6 -->
<g id="node5" class="node">
<title>dir_5c2eb6d9a7a6f1e9cd32e0e8abf42ca6</title>
<g id="a_node5"><a xlink:href="dir_5c2eb6d9a7a6f1e9cd32e0e8abf42ca6.html" target="_top" xlink:title="numerics">
<polygon fill="none" stroke="#000000" points="123,-36 67,-36 67,0 123,0 123,-36"/>
<text text-anchor="middle" x="95" y="-15.5" font-family="Helvetica,sans-Serif" font-size="10.00" fill="#000000">numerics</text>
</a>
</g>
</g>
<!-- dir_007d705f3a94fda20fe145aff1772f9d&#45;&gt;dir_5c2eb6d9a7a6f1e9cd32e0e8abf42ca6 -->
<g id="edge4" class="edge">
<title>dir_007d705f3a94fda20fe145aff1772f9d&#45;&gt;dir_5c2eb6d9a7a6f1e9cd32e0e8abf42ca6</title>
<path fill="none" stroke="#000000" d="M134.4003,-215.5171C139.2903,-184.8995 146.1593,-122.0679 131,-72 128.0436,-62.2355 122.6748,-52.6229 116.97,-44.2762"/>
<polygon fill="#000000" stroke="#000000" points="119.7129,-42.0973 110.9905,-36.0831 114.0586,-46.2239 119.7129,-42.0973"/>
<g id="a_edge4&#45;headlabel"><a xlink:href="dir_000034_000026.html" target="_top" xlink:title="2">
<text text-anchor="middle" x="124.1253" y="-40.827" font-family="Helvetica,sans-Serif" font-size="10.00" fill="#000000">2</text>
</a>
</g>
</g>
<!-- dir_919e236f65f31c877eb38bcd0ceb585b -->
<g id="node2" class="node">
<title>dir_919e236f65f31c877eb38bcd0ceb585b</title>
<g id="a_node2"><a xlink:href="dir_919e236f65f31c877eb38bcd0ceb585b.html" target="_top" xlink:title="rol">
<polygon fill="#ffffff" stroke="#000000" points="78,-252 24,-252 24,-216 78,-216 78,-252"/>
<text text-anchor="middle" x="51" y="-231.5" font-family="Helvetica,sans-Serif" font-size="10.00" fill="#000000">rol</text>
</a>
</g>
</g>
<!-- dir_919e236f65f31c877eb38bcd0ceb585b&#45;&gt;dir_b2430326e20a3ae038db3bac19f0573b -->
<g id="edge5" class="edge">
<title>dir_919e236f65f31c877eb38bcd0ceb585b&#45;&gt;dir_b2430326e20a3ae038db3bac19f0573b</title>
<path fill="none" stroke="#000000" d="M57.3086,-215.8314C60.0117,-208.0463 63.2316,-198.7729 66.231,-190.1347"/>
<polygon fill="#000000" stroke="#000000" points="69.6327,-191.0081 69.6065,-180.4133 63.02,-188.7119 69.6327,-191.0081"/>
<g id="a_edge5&#45;headlabel"><a xlink:href="dir_000035_000007.html" target="_top" xlink:title="1">
<text text-anchor="middle" x="71.1359" y="-192.8351" font-family="Helvetica,sans-Serif" font-size="10.00" fill="#000000">1</text>
</a>
</g>
</g>
<!-- dir_919e236f65f31c877eb38bcd0ceb585b&#45;&gt;dir_90a2ad6518b731f1dc196d14153b8b6b -->
<g id="edge6" class="edge">
<title>dir_919e236f65f31c877eb38bcd0ceb585b&#45;&gt;dir_90a2ad6518b731f1dc196d14153b8b6b</title>
<path fill="none" stroke="#000000" d="M43.5287,-215.6715C37.073,-196.9417 30.1942,-167.3696 40,-144 44.6052,-133.0247 52.6497,-123.1573 61.1877,-114.9529"/>
<polygon fill="#000000" stroke="#000000" points="63.6301,-117.464 68.7437,-108.1849 58.9597,-112.2497 63.6301,-117.464"/>
<g id="a_edge6&#45;headlabel"><a xlink:href="dir_000035_000006.html" target="_top" xlink:title="2">
<text text-anchor="middle" x="62.8469" y="-119.4771" font-family="Helvetica,sans-Serif" font-size="10.00" fill="#000000">2</text>
</a>
</g>
</g>
<!-- dir_b2430326e20a3ae038db3bac19f0573b&#45;&gt;dir_90a2ad6518b731f1dc196d14153b8b6b -->
<g id="edge1" class="edge">
<title>dir_b2430326e20a3ae038db3bac19f0573b&#45;&gt;dir_90a2ad6518b731f1dc196d14153b8b6b</title>
<path fill="none" stroke="#000000" d="M74.8421,-143.8314C76.1378,-136.0463 78.3675,-126.7729 80.9708,-118.1347"/>
<polygon fill="#000000" stroke="#000000" points="84.3685,-119.0061 84.1649,-108.4133 77.7183,-116.8211 84.3685,-119.0061"/>
<g id="a_edge1&#45;headlabel"><a xlink:href="dir_000007_000006.html" target="_top" xlink:title="312">
<text text-anchor="middle" x="85.944" y="-120.8074" font-family="Helvetica,sans-Serif" font-size="10.00" fill="#000000">312</text>
</a>
</g>
</g>
<!-- dir_90a2ad6518b731f1dc196d14153b8b6b&#45;&gt;dir_b2430326e20a3ae038db3bac19f0573b -->
<g id="edge7" class="edge">
<title>dir_90a2ad6518b731f1dc196d14153b8b6b&#45;&gt;dir_b2430326e20a3ae038db3bac19f0573b</title>
<path fill="none" stroke="#000000" d="M96.117,-108.4133C94.8018,-116.2292 92.5585,-125.5113 89.9474,-134.136"/>
<polygon fill="#000000" stroke="#000000" points="86.558,-133.2382 86.7469,-143.8314 93.2052,-135.4325 86.558,-133.2382"/>
<g id="a_edge7&#45;headlabel"><a xlink:href="dir_000006_000007.html" target="_top" xlink:title="8">
<text text-anchor="middle" x="84.9886" y="-126.4348" font-family="Helvetica,sans-Serif" font-size="10.00" fill="#000000">8</text>
</a>
</g>
</g>
<!-- dir_90a2ad6518b731f1dc196d14153b8b6b&#45;&gt;dir_5c2eb6d9a7a6f1e9cd32e0e8abf42ca6 -->
<g id="edge8" class="edge">
<title>dir_90a2ad6518b731f1dc196d14153b8b6b&#45;&gt;dir_5c2eb6d9a7a6f1e9cd32e0e8abf42ca6</title>
<path fill="none" stroke="#000000" d="M89.0476,-71.8314C88.2972,-64.131 88.0763,-54.9743 88.3849,-46.4166"/>
<polygon fill="#000000" stroke="#000000" points="91.8792,-46.6161 89.024,-36.4133 84.8935,-46.1697 91.8792,-46.6161"/>
<g id="a_edge8&#45;headlabel"><a xlink:href="dir_000006_000026.html" target="_top" xlink:title="2">
<text text-anchor="middle" x="94.4836" y="-47.8844" font-family="Helvetica,sans-Serif" font-size="10.00" fill="#000000">2</text>
</a>
</g>
</g>
<!-- dir_5c2eb6d9a7a6f1e9cd32e0e8abf42ca6&#45;&gt;dir_b2430326e20a3ae038db3bac19f0573b -->
<g id="edge9" class="edge">
<title>dir_5c2eb6d9a7a6f1e9cd32e0e8abf42ca6&#45;&gt;dir_b2430326e20a3ae038db3bac19f0573b</title>
<path fill="none" stroke="#000000" d="M79.0095,-36.0831C71.3462,-45.9629 62.9834,-58.8437 59,-72 52.8081,-92.4505 57.8003,-116.229 63.9416,-134.2072"/>
<polygon fill="#000000" stroke="#000000" points="60.7422,-135.6453 67.5107,-143.7963 67.3025,-133.2035 60.7422,-135.6453"/>
<g id="a_edge9&#45;headlabel"><a xlink:href="dir_000026_000007.html" target="_top" xlink:title="10">
<text text-anchor="middle" x="56.8275" y="-130.7669" font-family="Helvetica,sans-Serif" font-size="10.00" fill="#000000">10</text>
</a>
</g>
</g>
<!-- dir_5c2eb6d9a7a6f1e9cd32e0e8abf42ca6&#45;&gt;dir_90a2ad6518b731f1dc196d14153b8b6b -->
<g id="edge10" class="edge">
<title>dir_5c2eb6d9a7a6f1e9cd32e0e8abf42ca6&#45;&gt;dir_90a2ad6518b731f1dc196d14153b8b6b</title>
<path fill="none" stroke="#000000" d="M100.976,-36.4133C101.7071,-44.0593 101.9203,-53.1084 101.6155,-61.5726"/>
<polygon fill="#000000" stroke="#000000" points="98.1048,-61.6264 100.9524,-71.8314 105.0902,-62.078 98.1048,-61.6264"/>
<g id="a_edge10&#45;headlabel"><a xlink:href="dir_000026_000006.html" target="_top" xlink:title="74">
<text text-anchor="middle" x="95.5032" y="-55.3562" font-family="Helvetica,sans-Serif" font-size="10.00" fill="#000000">74</text>
</a>
</g>
</g>
</g>
</svg>
