<?xml version="1.0" encoding="UTF-8" standalone="no"?>
<!DOCTYPE svg PUBLIC "-//W3C//DTD SVG 1.1//EN"
 "http://www.w3.org/Graphics/SVG/1.1/DTD/svg11.dtd">
<!-- Generated by graphviz version 2.40.1 (20161225.0304)
 -->
<!-- Title: include/deal.II/differentiation/sd Pages: 1 -->
<svg width="99pt" height="151pt"
 viewBox="0.00 0.00 99.00 151.00" xmlns="http://www.w3.org/2000/svg" xmlns:xlink="http://www.w3.org/1999/xlink">
<g id="graph0" class="graph" transform="scale(1 1) rotate(0) translate(4 147)">
<title>include/deal.II/differentiation/sd</title>
<polygon fill="#ffffff" stroke="transparent" points="-4,4 -4,-147 95,-147 95,4 -4,4"/>
<g id="clust1" class="cluster">
<title>clusterdir_f3c5e5ce8027ac46c102eb7f94481274</title>
<g id="a_clust1"><a xlink:href="dir_f3c5e5ce8027ac46c102eb7f94481274.html" target="_top" xlink:title="differentiation">
<polygon fill="#ddddee" stroke="#000000" points="8,-64 8,-135 83,-135 83,-64 8,-64"/>
<text text-anchor="middle" x="45.5" y="-123" font-family="Helvetica,sans-Serif" font-size="10.00" fill="#000000">differentiation</text>
</a>
</g>
</g>
<!-- dir_9f185de39f30f5bd381b96f20bd33dae -->
<g id="node1" class="node">
<title>dir_9f185de39f30f5bd381b96f20bd33dae</title>
<g id="a_node1"><a xlink:href="dir_9f185de39f30f5bd381b96f20bd33dae.html" target="_top" xlink:title="sd">
<polygon fill="#eeeeff" stroke="#000000" points="72,-108 18,-108 18,-72 72,-72 72,-108"/>
<text text-anchor="middle" x="45" y="-87.5" font-family="Helvetica,sans-Serif" font-size="10.00" fill="#000000">sd</text>
</a>
</g>
</g>
<!-- dir_90a2ad6518b731f1dc196d14153b8b6b -->
<g id="node2" class="node">
<title>dir_90a2ad6518b731f1dc196d14153b8b6b</title>
<g id="a_node2"><a xlink:href="dir_90a2ad6518b731f1dc196d14153b8b6b.html" target="_top" xlink:title="base">
<polygon fill="#ffffff" stroke="#ff0000" points="72,-36 18,-36 18,0 72,0 72,-36"/>
<text text-anchor="middle" x="45" y="-15.5" font-family="Helvetica,sans-Serif" font-size="10.00" fill="#000000">base</text>
</a>
</g>
</g>
<!-- dir_9f185de39f30f5bd381b96f20bd33dae&#45;&gt;dir_90a2ad6518b731f1dc196d14153b8b6b -->
<g id="edge1" class="edge">
<title>dir_9f185de39f30f5bd381b96f20bd33dae&#45;&gt;dir_90a2ad6518b731f1dc196d14153b8b6b</title>
<path fill="none" stroke="#000000" d="M45,-71.8314C45,-64.131 45,-54.9743 45,-46.4166"/>
<polygon fill="#000000" stroke="#000000" points="48.5001,-46.4132 45,-36.4133 41.5001,-46.4133 48.5001,-46.4132"/>
<g id="a_edge1&#45;headlabel"><a xlink:href="dir_000024_000006.html" target="_top" xlink:title="23">
<text text-anchor="middle" x="51.3393" y="-47.5079" font-family="Helvetica,sans-Serif" font-size="10.00" fill="#000000">23</text>
</a>
</g>
</g>
</g>
</svg>
