<?xml version="1.0" encoding="UTF-8" standalone="no"?>
<!DOCTYPE svg PUBLIC "-//W3C//DTD SVG 1.1//EN"
 "http://www.w3.org/Graphics/SVG/1.1/DTD/svg11.dtd">
<!-- Generated by graphviz version 2.40.1 (20161225.0304)
 -->
<!-- Title: include/deal.II/differentiation/ad Pages: 1 -->
<svg width="172pt" height="188pt"
 viewBox="0.00 0.00 172.39 188.00" xmlns="http://www.w3.org/2000/svg" xmlns:xlink="http://www.w3.org/1999/xlink">
<g id="graph0" class="graph" transform="scale(1 1) rotate(0) translate(4 184)">
<title>include/deal.II/differentiation/ad</title>
<polygon fill="#ffffff" stroke="transparent" points="-4,4 -4,-184 168.3883,-184 168.3883,4 -4,4"/>
<g id="clust1" class="cluster">
<title>clusterdir_f3c5e5ce8027ac46c102eb7f94481274</title>
<g id="a_clust1"><a xlink:href="dir_f3c5e5ce8027ac46c102eb7f94481274.html" target="_top" xlink:title="differentiation">
<polygon fill="#ddddee" stroke="#000000" points="8,-64 8,-135 83,-135 83,-64 8,-64"/>
<text text-anchor="middle" x="45.5" y="-123" font-family="Helvetica,sans-Serif" font-size="10.00" fill="#000000">differentiation</text>
</a>
</g>
</g>
<!-- dir_3b10fd41257b686e31e3422bb2254cec -->
<g id="node1" class="node">
<title>dir_3b10fd41257b686e31e3422bb2254cec</title>
<g id="a_node1"><a xlink:href="dir_3b10fd41257b686e31e3422bb2254cec.html" target="_top" xlink:title="ad">
<polygon fill="#eeeeff" stroke="#000000" points="74,-108 20,-108 20,-72 74,-72 74,-108"/>
<text text-anchor="middle" x="47" y="-87.5" font-family="Helvetica,sans-Serif" font-size="10.00" fill="#000000">ad</text>
</a>
</g>
</g>
<!-- dir_b2430326e20a3ae038db3bac19f0573b -->
<g id="node2" class="node">
<title>dir_b2430326e20a3ae038db3bac19f0573b</title>
<g id="a_node2"><a xlink:href="dir_b2430326e20a3ae038db3bac19f0573b.html" target="_top" xlink:title="lac">
<polygon fill="none" stroke="#000000" points="146,-180 92,-180 92,-144 146,-144 146,-180"/>
<text text-anchor="middle" x="119" y="-159.5" font-family="Helvetica,sans-Serif" font-size="10.00" fill="#000000">lac</text>
</a>
</g>
</g>
<!-- dir_3b10fd41257b686e31e3422bb2254cec&#45;&gt;dir_b2430326e20a3ae038db3bac19f0573b -->
<g id="edge3" class="edge">
<title>dir_3b10fd41257b686e31e3422bb2254cec&#45;&gt;dir_b2430326e20a3ae038db3bac19f0573b</title>
<path fill="none" stroke="#000000" d="M51.8841,-108.4077C57.4935,-116.926 65.6664,-126.9227 74,-135 76.9662,-137.875 80.2429,-140.7142 83.6546,-143.4097"/>
<polygon fill="#000000" stroke="#000000" points="81.6489,-146.2793 91.7775,-149.3878 85.7981,-140.6415 81.6489,-146.2793"/>
<g id="a_edge3&#45;headlabel"><a xlink:href="dir_000024_000007.html" target="_top" xlink:title="4">
<text text-anchor="middle" x="77.0709" y="-143.9354" font-family="Helvetica,sans-Serif" font-size="10.00" fill="#000000">4</text>
</a>
</g>
</g>
<!-- dir_90a2ad6518b731f1dc196d14153b8b6b -->
<g id="node3" class="node">
<title>dir_90a2ad6518b731f1dc196d14153b8b6b</title>
<g id="a_node3"><a xlink:href="dir_90a2ad6518b731f1dc196d14153b8b6b.html" target="_top" xlink:title="base">
<polygon fill="#ffffff" stroke="#ff0000" points="146,-108 92,-108 92,-72 146,-72 146,-108"/>
<text text-anchor="middle" x="119" y="-87.5" font-family="Helvetica,sans-Serif" font-size="10.00" fill="#000000">base</text>
</a>
</g>
</g>
<!-- dir_3b10fd41257b686e31e3422bb2254cec&#45;&gt;dir_90a2ad6518b731f1dc196d14153b8b6b -->
<g id="edge4" class="edge">
<title>dir_3b10fd41257b686e31e3422bb2254cec&#45;&gt;dir_90a2ad6518b731f1dc196d14153b8b6b</title>
<path fill="none" stroke="#000000" d="M74.2813,-90C76.7377,-90 79.1942,-90 81.6507,-90"/>
<polygon fill="#000000" stroke="#000000" points="81.7495,-93.5001 91.7495,-90 81.7495,-86.5001 81.7495,-93.5001"/>
<g id="a_edge4&#45;headlabel"><a xlink:href="dir_000024_000006.html" target="_top" xlink:title="24">
<text text-anchor="middle" x="78.1549" y="-93.8393" font-family="Helvetica,sans-Serif" font-size="10.00" fill="#000000">24</text>
</a>
</g>
</g>
<!-- dir_9706acb4d69a98d7c15ebe226493116f -->
<g id="node4" class="node">
<title>dir_9706acb4d69a98d7c15ebe226493116f</title>
<g id="a_node4"><a xlink:href="dir_9706acb4d69a98d7c15ebe226493116f.html" target="_top" xlink:title="fe">
<polygon fill="none" stroke="#000000" points="146,-36 92,-36 92,0 146,0 146,-36"/>
<text text-anchor="middle" x="119" y="-15.5" font-family="Helvetica,sans-Serif" font-size="10.00" fill="#000000">fe</text>
</a>
</g>
</g>
<!-- dir_3b10fd41257b686e31e3422bb2254cec&#45;&gt;dir_9706acb4d69a98d7c15ebe226493116f -->
<g id="edge5" class="edge">
<title>dir_3b10fd41257b686e31e3422bb2254cec&#45;&gt;dir_9706acb4d69a98d7c15ebe226493116f</title>
<path fill="none" stroke="#000000" d="M65.1686,-71.8314C73.7152,-63.2848 84.0557,-52.9443 93.3802,-43.6198"/>
<polygon fill="#000000" stroke="#000000" points="95.9905,-45.9592 100.5867,-36.4133 91.0408,-41.0095 95.9905,-45.9592"/>
<g id="a_edge5&#45;headlabel"><a xlink:href="dir_000024_000008.html" target="_top" xlink:title="1">
<text text-anchor="middle" x="95.4564" y="-48.0087" font-family="Helvetica,sans-Serif" font-size="10.00" fill="#000000">1</text>
</a>
</g>
</g>
<!-- dir_b2430326e20a3ae038db3bac19f0573b&#45;&gt;dir_3b10fd41257b686e31e3422bb2254cec -->
<g id="edge1" class="edge">
<title>dir_b2430326e20a3ae038db3bac19f0573b&#45;&gt;dir_3b10fd41257b686e31e3422bb2254cec</title>
<path fill="none" stroke="#000000" d="M102.0724,-143.8861C98.6313,-141.0496 95.1415,-138.0449 92,-135 86.1404,-129.3207 80.3603,-122.6924 74.9128,-116.2963"/>
<polygon fill="#000000" stroke="#000000" points="77.352,-113.7617 68.2094,-108.4077 72.0177,-118.2945 77.352,-113.7617"/>
<g id="a_edge1&#45;headlabel"><a xlink:href="dir_000007_000024.html" target="_top" xlink:title="2">
<text text-anchor="middle" x="81.8432" y="-112.1624" font-family="Helvetica,sans-Serif" font-size="10.00" fill="#000000">2</text>
</a>
</g>
</g>
<!-- dir_b2430326e20a3ae038db3bac19f0573b&#45;&gt;dir_90a2ad6518b731f1dc196d14153b8b6b -->
<g id="edge2" class="edge">
<title>dir_b2430326e20a3ae038db3bac19f0573b&#45;&gt;dir_90a2ad6518b731f1dc196d14153b8b6b</title>
<path fill="none" stroke="#000000" d="M113.0476,-143.8314C112.2972,-136.131 112.0763,-126.9743 112.3849,-118.4166"/>
<polygon fill="#000000" stroke="#000000" points="115.8792,-118.6161 113.024,-108.4133 108.8935,-118.1697 115.8792,-118.6161"/>
<g id="a_edge2&#45;headlabel"><a xlink:href="dir_000007_000006.html" target="_top" xlink:title="312">
<text text-anchor="middle" x="118.4836" y="-119.8844" font-family="Helvetica,sans-Serif" font-size="10.00" fill="#000000">312</text>
</a>
</g>
</g>
<!-- dir_90a2ad6518b731f1dc196d14153b8b6b&#45;&gt;dir_3b10fd41257b686e31e3422bb2254cec -->
<g id="edge7" class="edge">
<title>dir_90a2ad6518b731f1dc196d14153b8b6b&#45;&gt;dir_3b10fd41257b686e31e3422bb2254cec</title>
<path fill="none" stroke="#000000" d="M91.7495,-90C89.293,-90 86.8366,-90 84.3801,-90"/>
<polygon fill="#000000" stroke="#000000" points="84.2813,-86.5001 74.2813,-90 84.2812,-93.5001 84.2813,-86.5001"/>
<g id="a_edge7&#45;headlabel"><a xlink:href="dir_000006_000024.html" target="_top" xlink:title="2">
<text text-anchor="middle" x="87.8759" y="-81.1607" font-family="Helvetica,sans-Serif" font-size="10.00" fill="#000000">2</text>
</a>
</g>
</g>
<!-- dir_90a2ad6518b731f1dc196d14153b8b6b&#45;&gt;dir_b2430326e20a3ae038db3bac19f0573b -->
<g id="edge6" class="edge">
<title>dir_90a2ad6518b731f1dc196d14153b8b6b&#45;&gt;dir_b2430326e20a3ae038db3bac19f0573b</title>
<path fill="none" stroke="#000000" d="M124.976,-108.4133C125.7071,-116.0593 125.9203,-125.1084 125.6155,-133.5726"/>
<polygon fill="#000000" stroke="#000000" points="122.1048,-133.6264 124.9524,-143.8314 129.0902,-134.078 122.1048,-133.6264"/>
<g id="a_edge6&#45;headlabel"><a xlink:href="dir_000006_000007.html" target="_top" xlink:title="8">
<text text-anchor="middle" x="119.5032" y="-127.3562" font-family="Helvetica,sans-Serif" font-size="10.00" fill="#000000">8</text>
</a>
</g>
</g>
<!-- dir_90a2ad6518b731f1dc196d14153b8b6b&#45;&gt;dir_9706acb4d69a98d7c15ebe226493116f -->
<g id="edge8" class="edge">
<title>dir_90a2ad6518b731f1dc196d14153b8b6b&#45;&gt;dir_9706acb4d69a98d7c15ebe226493116f</title>
<path fill="none" stroke="#000000" d="M113.0476,-71.8314C112.2972,-64.131 112.0763,-54.9743 112.3849,-46.4166"/>
<polygon fill="#000000" stroke="#000000" points="115.8792,-46.6161 113.024,-36.4133 108.8935,-46.1697 115.8792,-46.6161"/>
<g id="a_edge8&#45;headlabel"><a xlink:href="dir_000006_000008.html" target="_top" xlink:title="4">
<text text-anchor="middle" x="118.4836" y="-47.8844" font-family="Helvetica,sans-Serif" font-size="10.00" fill="#000000">4</text>
</a>
</g>
</g>
<!-- dir_9706acb4d69a98d7c15ebe226493116f&#45;&gt;dir_b2430326e20a3ae038db3bac19f0573b -->
<g id="edge9" class="edge">
<title>dir_9706acb4d69a98d7c15ebe226493116f&#45;&gt;dir_b2430326e20a3ae038db3bac19f0573b</title>
<path fill="none" stroke="#000000" d="M137.9861,-36.4043C144.7218,-44.2043 151.4961,-53.8376 155,-64 165.2857,-93.8321 169.1121,-106.7759 155,-135 154.4104,-136.1792 153.7421,-137.3202 153.0081,-138.423"/>
<polygon fill="#000000" stroke="#000000" points="150.2293,-136.2847 146.3079,-146.1272 155.5112,-140.8784 150.2293,-136.2847"/>
<g id="a_edge9&#45;headlabel"><a xlink:href="dir_000008_000007.html" target="_top" xlink:title="7">
<text text-anchor="middle" x="150.4457" y="-129.2092" font-family="Helvetica,sans-Serif" font-size="10.00" fill="#000000">7</text>
</a>
</g>
</g>
<!-- dir_9706acb4d69a98d7c15ebe226493116f&#45;&gt;dir_90a2ad6518b731f1dc196d14153b8b6b -->
<g id="edge10" class="edge">
<title>dir_9706acb4d69a98d7c15ebe226493116f&#45;&gt;dir_90a2ad6518b731f1dc196d14153b8b6b</title>
<path fill="none" stroke="#000000" d="M124.976,-36.4133C125.7071,-44.0593 125.9203,-53.1084 125.6155,-61.5726"/>
<polygon fill="#000000" stroke="#000000" points="122.1048,-61.6264 124.9524,-71.8314 129.0902,-62.078 122.1048,-61.6264"/>
<g id="a_edge10&#45;headlabel"><a xlink:href="dir_000008_000006.html" target="_top" xlink:title="185">
<text text-anchor="middle" x="119.5032" y="-55.3562" font-family="Helvetica,sans-Serif" font-size="10.00" fill="#000000">185</text>
</a>
</g>
</g>
</g>
</svg>
