<?xml version="1.0" encoding="UTF-8" standalone="no"?>
<!DOCTYPE svg PUBLIC "-//W3C//DTD SVG 1.1//EN"
 "http://www.w3.org/Graphics/SVG/1.1/DTD/svg11.dtd">
<!-- Generated by graphviz version 2.40.1 (20161225.0304)
 -->
<!-- Title: include/deal.II/opencascade Pages: 1 -->
<svg width="147pt" height="295pt"
 viewBox="0.00 0.00 147.00 295.00" xmlns="http://www.w3.org/2000/svg" xmlns:xlink="http://www.w3.org/1999/xlink">
<g id="graph0" class="graph" transform="scale(1 1) rotate(0) translate(4 291)">
<title>include/deal.II/opencascade</title>
<polygon fill="#ffffff" stroke="transparent" points="-4,4 -4,-291 143,-291 143,4 -4,4"/>
<g id="clust1" class="cluster">
<title>clusterdir_ee90d91a514b839c31faec7a1d916f67</title>
<g id="a_clust1"><a xlink:href="dir_ee90d91a514b839c31faec7a1d916f67.html" target="_top" xlink:title="deal.II">
<polygon fill="#ddddee" stroke="#000000" points="35,-208 35,-279 131,-279 131,-208 35,-208"/>
<text text-anchor="middle" x="83" y="-267" font-family="Helvetica,sans-Serif" font-size="10.00" fill="#000000">deal.II</text>
</a>
</g>
</g>
<!-- dir_24019279a465e3a84b7b5851e180bdb5 -->
<g id="node1" class="node">
<title>dir_24019279a465e3a84b7b5851e180bdb5</title>
<g id="a_node1"><a xlink:href="dir_24019279a465e3a84b7b5851e180bdb5.html" target="_top" xlink:title="opencascade">
<polygon fill="#eeeeff" stroke="#000000" points="123,-252 43,-252 43,-216 123,-216 123,-252"/>
<text text-anchor="middle" x="83" y="-231.5" font-family="Helvetica,sans-Serif" font-size="10.00" fill="#000000">opencascade</text>
</a>
</g>
</g>
<!-- dir_a933ab6cde53f9fa4d29dc295cb0ac5f -->
<g id="node2" class="node">
<title>dir_a933ab6cde53f9fa4d29dc295cb0ac5f</title>
<g id="a_node2"><a xlink:href="dir_a933ab6cde53f9fa4d29dc295cb0ac5f.html" target="_top" xlink:title="grid">
<polygon fill="none" stroke="#000000" points="110,-180 56,-180 56,-144 110,-144 110,-180"/>
<text text-anchor="middle" x="83" y="-159.5" font-family="Helvetica,sans-Serif" font-size="10.00" fill="#000000">grid</text>
</a>
</g>
</g>
<!-- dir_24019279a465e3a84b7b5851e180bdb5&#45;&gt;dir_a933ab6cde53f9fa4d29dc295cb0ac5f -->
<g id="edge5" class="edge">
<title>dir_24019279a465e3a84b7b5851e180bdb5&#45;&gt;dir_a933ab6cde53f9fa4d29dc295cb0ac5f</title>
<path fill="none" stroke="#000000" d="M83,-215.8314C83,-208.131 83,-198.9743 83,-190.4166"/>
<polygon fill="#000000" stroke="#000000" points="86.5001,-190.4132 83,-180.4133 79.5001,-190.4133 86.5001,-190.4132"/>
<g id="a_edge5&#45;headlabel"><a xlink:href="dir_000012_000009.html" target="_top" xlink:title="2">
<text text-anchor="middle" x="89.3393" y="-191.5079" font-family="Helvetica,sans-Serif" font-size="10.00" fill="#000000">2</text>
</a>
</g>
</g>
<!-- dir_90a2ad6518b731f1dc196d14153b8b6b -->
<g id="node3" class="node">
<title>dir_90a2ad6518b731f1dc196d14153b8b6b</title>
<g id="a_node3"><a xlink:href="dir_90a2ad6518b731f1dc196d14153b8b6b.html" target="_top" xlink:title="base">
<polygon fill="#ffffff" stroke="#ff0000" points="54,-108 0,-108 0,-72 54,-72 54,-108"/>
<text text-anchor="middle" x="27" y="-87.5" font-family="Helvetica,sans-Serif" font-size="10.00" fill="#000000">base</text>
</a>
</g>
</g>
<!-- dir_24019279a465e3a84b7b5851e180bdb5&#45;&gt;dir_90a2ad6518b731f1dc196d14153b8b6b -->
<g id="edge6" class="edge">
<title>dir_24019279a465e3a84b7b5851e180bdb5&#45;&gt;dir_90a2ad6518b731f1dc196d14153b8b6b</title>
<path fill="none" stroke="#000000" d="M68.5303,-215.9844C61.1013,-205.9214 52.4837,-192.8504 47,-180 38.545,-160.1866 33.4523,-136.3311 30.5234,-118.1598"/>
<polygon fill="#000000" stroke="#000000" points="33.9738,-117.567 29.0399,-108.1912 27.0501,-118.5974 33.9738,-117.567"/>
<g id="a_edge6&#45;headlabel"><a xlink:href="dir_000012_000006.html" target="_top" xlink:title="4">
<text text-anchor="middle" x="37.3112" y="-118.2046" font-family="Helvetica,sans-Serif" font-size="10.00" fill="#000000">4</text>
</a>
</g>
</g>
<!-- dir_9706acb4d69a98d7c15ebe226493116f -->
<g id="node4" class="node">
<title>dir_9706acb4d69a98d7c15ebe226493116f</title>
<g id="a_node4"><a xlink:href="dir_9706acb4d69a98d7c15ebe226493116f.html" target="_top" xlink:title="fe">
<polygon fill="none" stroke="#000000" points="118,-36 64,-36 64,0 118,0 118,-36"/>
<text text-anchor="middle" x="91" y="-15.5" font-family="Helvetica,sans-Serif" font-size="10.00" fill="#000000">fe</text>
</a>
</g>
</g>
<!-- dir_24019279a465e3a84b7b5851e180bdb5&#45;&gt;dir_9706acb4d69a98d7c15ebe226493116f -->
<g id="edge7" class="edge">
<title>dir_24019279a465e3a84b7b5851e180bdb5&#45;&gt;dir_9706acb4d69a98d7c15ebe226493116f</title>
<path fill="none" stroke="#000000" d="M98.9905,-215.9169C106.6538,-206.0371 115.0166,-193.1563 119,-180 132.9418,-133.9532 116.3843,-78.3096 103.4473,-45.6709"/>
<polygon fill="#000000" stroke="#000000" points="106.6368,-44.2247 99.5863,-36.3164 100.1663,-46.8953 106.6368,-44.2247"/>
<g id="a_edge7&#45;headlabel"><a xlink:href="dir_000012_000008.html" target="_top" xlink:title="1">
<text text-anchor="middle" x="110.6327" y="-43.9642" font-family="Helvetica,sans-Serif" font-size="10.00" fill="#000000">1</text>
</a>
</g>
</g>
<!-- dir_a933ab6cde53f9fa4d29dc295cb0ac5f&#45;&gt;dir_90a2ad6518b731f1dc196d14153b8b6b -->
<g id="edge1" class="edge">
<title>dir_a933ab6cde53f9fa4d29dc295cb0ac5f&#45;&gt;dir_90a2ad6518b731f1dc196d14153b8b6b</title>
<path fill="none" stroke="#000000" d="M62.9164,-143.8314C55.7324,-135.6232 47.8632,-125.7606 41.2447,-116.7323"/>
<polygon fill="#000000" stroke="#000000" points="43.985,-114.5459 35.3454,-108.4133 38.2749,-118.5951 43.985,-114.5459"/>
<g id="a_edge1&#45;headlabel"><a xlink:href="dir_000009_000006.html" target="_top" xlink:title="89">
<text text-anchor="middle" x="48.3803" y="-113.3357" font-family="Helvetica,sans-Serif" font-size="10.00" fill="#000000">89</text>
</a>
</g>
</g>
<!-- dir_a933ab6cde53f9fa4d29dc295cb0ac5f&#45;&gt;dir_9706acb4d69a98d7c15ebe226493116f -->
<g id="edge2" class="edge">
<title>dir_a933ab6cde53f9fa4d29dc295cb0ac5f&#45;&gt;dir_9706acb4d69a98d7c15ebe226493116f</title>
<path fill="none" stroke="#000000" d="M79.34,-143.7623C78.2447,-119.201 80.4119,-75.2474 83.9274,-46.3541"/>
<polygon fill="#000000" stroke="#000000" points="87.4438,-46.4728 85.3367,-36.0896 80.5089,-45.5205 87.4438,-46.4728"/>
<g id="a_edge2&#45;headlabel"><a xlink:href="dir_000009_000008.html" target="_top" xlink:title="4">
<text text-anchor="middle" x="89.7678" y="-47.9202" font-family="Helvetica,sans-Serif" font-size="10.00" fill="#000000">4</text>
</a>
</g>
</g>
<!-- dir_90a2ad6518b731f1dc196d14153b8b6b&#45;&gt;dir_a933ab6cde53f9fa4d29dc295cb0ac5f -->
<g id="edge3" class="edge">
<title>dir_90a2ad6518b731f1dc196d14153b8b6b&#45;&gt;dir_a933ab6cde53f9fa4d29dc295cb0ac5f</title>
<path fill="none" stroke="#000000" d="M47.2974,-108.4133C54.4948,-116.654 62.3583,-126.5245 68.9518,-135.536"/>
<polygon fill="#000000" stroke="#000000" points="66.1881,-137.6897 74.8212,-143.8314 71.9024,-133.6465 66.1881,-137.6897"/>
<g id="a_edge3&#45;headlabel"><a xlink:href="dir_000006_000009.html" target="_top" xlink:title="8">
<text text-anchor="middle" x="61.7942" y="-133.8952" font-family="Helvetica,sans-Serif" font-size="10.00" fill="#000000">8</text>
</a>
</g>
</g>
<!-- dir_90a2ad6518b731f1dc196d14153b8b6b&#45;&gt;dir_9706acb4d69a98d7c15ebe226493116f -->
<g id="edge4" class="edge">
<title>dir_90a2ad6518b731f1dc196d14153b8b6b&#45;&gt;dir_9706acb4d69a98d7c15ebe226493116f</title>
<path fill="none" stroke="#000000" d="M37.1975,-71.8314C43.8946,-63.3694 52.7943,-53.1489 61.4724,-43.8971"/>
<polygon fill="#000000" stroke="#000000" points="64.2563,-46.0511 68.6566,-36.4133 59.2065,-41.2034 64.2563,-46.0511"/>
<g id="a_edge4&#45;headlabel"><a xlink:href="dir_000006_000008.html" target="_top" xlink:title="4">
<text text-anchor="middle" x="63.8152" y="-48.1105" font-family="Helvetica,sans-Serif" font-size="10.00" fill="#000000">4</text>
</a>
</g>
</g>
<!-- dir_9706acb4d69a98d7c15ebe226493116f&#45;&gt;dir_a933ab6cde53f9fa4d29dc295cb0ac5f -->
<g id="edge8" class="edge">
<title>dir_9706acb4d69a98d7c15ebe226493116f&#45;&gt;dir_a933ab6cde53f9fa4d29dc295cb0ac5f</title>
<path fill="none" stroke="#000000" d="M94.6533,-36.0896C95.7666,-60.6805 93.5848,-104.905 90.0474,-133.8531"/>
<polygon fill="#000000" stroke="#000000" points="86.5797,-133.379 88.6864,-143.7623 93.5146,-134.3316 86.5797,-133.379"/>
<g id="a_edge8&#45;headlabel"><a xlink:href="dir_000008_000009.html" target="_top" xlink:title="9">
<text text-anchor="middle" x="84.2559" y="-126.9315" font-family="Helvetica,sans-Serif" font-size="10.00" fill="#000000">9</text>
</a>
</g>
</g>
<!-- dir_9706acb4d69a98d7c15ebe226493116f&#45;&gt;dir_90a2ad6518b731f1dc196d14153b8b6b -->
<g id="edge9" class="edge">
<title>dir_9706acb4d69a98d7c15ebe226493116f&#45;&gt;dir_90a2ad6518b731f1dc196d14153b8b6b</title>
<path fill="none" stroke="#000000" d="M80.6087,-36.4133C73.8694,-44.9088 64.9509,-55.1366 56.2773,-64.3696"/>
<polygon fill="#000000" stroke="#000000" points="53.5106,-62.1972 49.1023,-71.8314 58.5564,-67.049 53.5106,-62.1972"/>
<g id="a_edge9&#45;headlabel"><a xlink:href="dir_000008_000006.html" target="_top" xlink:title="185">
<text text-anchor="middle" x="53.9555" y="-55.1382" font-family="Helvetica,sans-Serif" font-size="10.00" fill="#000000">185</text>
</a>
</g>
</g>
</g>
</svg>
