<?xml version="1.0" encoding="UTF-8" standalone="no"?>
<!DOCTYPE svg PUBLIC "-//W3C//DTD SVG 1.1//EN"
 "http://www.w3.org/Graphics/SVG/1.1/DTD/svg11.dtd">
<!-- Generated by graphviz version 2.40.1 (20161225.0304)
 -->
<!-- Title: G Pages: 1 -->
<svg width="500pt" height="471pt"
 viewBox="0.00 0.00 499.50 471.40" xmlns="http://www.w3.org/2000/svg" xmlns:xlink="http://www.w3.org/1999/xlink">
<g id="graph0" class="graph" transform="scale(1 1) rotate(0) translate(4 467.397)">
<title>G</title>
<!-- tria -->
<g id="node1" class="node">
<title>tria</title>
<g id="a_node1"><a xlink:href="group__grid.html" target="_top" xlink:title="Triangulation">
<polygon fill="#ffffff" stroke="#000000" points="338.5,-314.1985 338.5,-339.1985 441.5,-339.1985 441.5,-314.1985 338.5,-314.1985"/>
<text text-anchor="middle" x="390" y="-323.1985" font-family="FreeSans" font-size="15.00" fill="#000000">Triangulation</text>
</a>
</g>
</g>
<!-- dh -->
<g id="node5" class="node">
<title>dh</title>
<g id="a_node5"><a xlink:href="group__dofs.html" target="_top" xlink:title="DoFHandler">
<polygon fill="#ffffff" stroke="#000000" points="214,-252.1985 214,-277.1985 310,-277.1985 310,-252.1985 214,-252.1985"/>
<text text-anchor="middle" x="262" y="-261.1985" font-family="FreeSans" font-size="15.00" fill="#000000">DoFHandler</text>
</a>
</g>
</g>
<!-- tria&#45;&gt;dh -->
<g id="edge1" class="edge">
<title>tria&#45;&gt;dh</title>
<path fill="none" stroke="#000000" d="M364.0973,-314.1519C344.7525,-304.7817 318.1066,-291.8751 296.8869,-281.5968"/>
<polygon fill="#000000" stroke="#000000" points="298.3898,-278.4359 287.8642,-277.2265 295.3382,-284.7357 298.3898,-278.4359"/>
</g>
<!-- fe -->
<g id="node2" class="node">
<title>fe</title>
<g id="a_node2"><a xlink:href="group__feall.html" target="_top" xlink:title="Finite elements">
<polygon fill="#ffffff" stroke="#000000" points="204,-314.1985 204,-339.1985 320,-339.1985 320,-314.1985 204,-314.1985"/>
<text text-anchor="middle" x="262" y="-323.1985" font-family="FreeSans" font-size="15.00" fill="#000000">Finite elements</text>
</a>
</g>
</g>
<!-- fe&#45;&gt;dh -->
<g id="edge2" class="edge">
<title>fe&#45;&gt;dh</title>
<path fill="none" stroke="#000000" d="M262,-314.1519C262,-306.5045 262,-296.5015 262,-287.4942"/>
<polygon fill="#000000" stroke="#000000" points="265.5001,-287.2264 262,-277.2265 258.5001,-287.2265 265.5001,-287.2264"/>
</g>
<!-- fevalues -->
<g id="node6" class="node">
<title>fevalues</title>
<g id="a_node6"><a xlink:href="group__feaccess.html" target="_top" xlink:title="FEValues">
<polygon fill="#ffffff" stroke="#000000" points="116,-252.1985 116,-277.1985 196,-277.1985 196,-252.1985 116,-252.1985"/>
<text text-anchor="middle" x="156" y="-261.1985" font-family="FreeSans" font-size="15.00" fill="#000000">FEValues</text>
</a>
</g>
</g>
<!-- fe&#45;&gt;fevalues -->
<g id="edge3" class="edge">
<title>fe&#45;&gt;fevalues</title>
<path fill="none" stroke="#000000" d="M240.5493,-314.1519C224.8886,-304.9918 203.4498,-292.4521 186.0794,-282.2921"/>
<polygon fill="#000000" stroke="#000000" points="187.8178,-279.2542 177.4188,-277.2265 184.2836,-285.2965 187.8178,-279.2542"/>
</g>
<!-- mapping -->
<g id="node3" class="node">
<title>mapping</title>
<g id="a_node3"><a xlink:href="group__mapping.html" target="_top" xlink:title="Mapping">
<polygon fill="#ffffff" stroke="#000000" points="0,-314.1985 0,-339.1985 74,-339.1985 74,-314.1985 0,-314.1985"/>
<text text-anchor="middle" x="37" y="-323.1985" font-family="FreeSans" font-size="15.00" fill="#000000">Mapping</text>
</a>
</g>
</g>
<!-- mapping&#45;&gt;fevalues -->
<g id="edge4" class="edge">
<title>mapping&#45;&gt;fevalues</title>
<path fill="none" stroke="#000000" d="M61.0814,-314.1519C78.9047,-304.8658 103.3946,-292.1063 123.0341,-281.874"/>
<polygon fill="#000000" stroke="#000000" points="124.7031,-284.9511 131.9544,-277.2265 121.4687,-278.7431 124.7031,-284.9511"/>
</g>
<!-- quadrature -->
<g id="node4" class="node">
<title>quadrature</title>
<g id="a_node4"><a xlink:href="group__Quadrature.html" target="_top" xlink:title="Quadrature">
<polygon fill="#ffffff" stroke="#000000" points="92.5,-314.1985 92.5,-339.1985 185.5,-339.1985 185.5,-314.1985 92.5,-314.1985"/>
<text text-anchor="middle" x="139" y="-323.1985" font-family="FreeSans" font-size="15.00" fill="#000000">Quadrature</text>
</a>
</g>
</g>
<!-- quadrature&#45;&gt;fevalues -->
<g id="edge5" class="edge">
<title>quadrature&#45;&gt;fevalues</title>
<path fill="none" stroke="#000000" d="M142.4402,-314.1519C144.5831,-306.3364 147.4007,-296.0607 149.912,-286.9018"/>
<polygon fill="#000000" stroke="#000000" points="153.2959,-287.796 152.5649,-277.2265 146.5451,-285.945 153.2959,-287.796"/>
</g>
<!-- systems -->
<g id="node7" class="node">
<title>systems</title>
<g id="a_node7"><a xlink:href="group__LAC.html" target="_top" xlink:title="Linear systems">
<polygon fill="#ffffff" stroke="#000000" points="204,-190.1985 204,-215.1985 320,-215.1985 320,-190.1985 204,-190.1985"/>
<text text-anchor="middle" x="262" y="-199.1985" font-family="FreeSans" font-size="15.00" fill="#000000">Linear systems</text>
</a>
</g>
</g>
<!-- dh&#45;&gt;systems -->
<g id="edge6" class="edge">
<title>dh&#45;&gt;systems</title>
<path fill="none" stroke="#000000" d="M262,-252.1519C262,-244.5045 262,-234.5015 262,-225.4942"/>
<polygon fill="#000000" stroke="#000000" points="265.5001,-225.2264 262,-215.2265 258.5001,-225.2265 265.5001,-225.2264"/>
</g>
<!-- fevalues&#45;&gt;systems -->
<g id="edge7" class="edge">
<title>fevalues&#45;&gt;systems</title>
<path fill="none" stroke="#000000" d="M177.4507,-252.1519C193.1114,-242.9918 214.5502,-230.4521 231.9206,-220.2921"/>
<polygon fill="#000000" stroke="#000000" points="233.7164,-223.2965 240.5812,-215.2265 230.1822,-217.2542 233.7164,-223.2965"/>
</g>
<!-- solvers -->
<g id="node8" class="node">
<title>solvers</title>
<g id="a_node8"><a xlink:href="group__Solvers.html" target="_top" xlink:title="Linear solvers">
<polygon fill="#ffffff" stroke="#000000" points="207.5,-128.1985 207.5,-153.1985 316.5,-153.1985 316.5,-128.1985 207.5,-128.1985"/>
<text text-anchor="middle" x="262" y="-137.1985" font-family="FreeSans" font-size="15.00" fill="#000000">Linear solvers</text>
</a>
</g>
</g>
<!-- systems&#45;&gt;solvers -->
<g id="edge8" class="edge">
<title>systems&#45;&gt;solvers</title>
<path fill="none" stroke="#000000" d="M262,-190.1519C262,-182.5045 262,-172.5015 262,-163.4942"/>
<polygon fill="#000000" stroke="#000000" points="265.5001,-163.2264 262,-153.2265 258.5001,-163.2265 265.5001,-163.2264"/>
</g>
<!-- output -->
<g id="node9" class="node">
<title>output</title>
<g id="a_node9"><a xlink:href="group__output.html" target="_top" xlink:title="Graphical output">
<polygon fill="#ffffff" stroke="#000000" points="199.5,-66.1985 199.5,-91.1985 324.5,-91.1985 324.5,-66.1985 199.5,-66.1985"/>
<text text-anchor="middle" x="262" y="-75.1985" font-family="FreeSans" font-size="15.00" fill="#000000">Graphical output</text>
</a>
</g>
</g>
<!-- solvers&#45;&gt;output -->
<g id="edge9" class="edge">
<title>solvers&#45;&gt;output</title>
<path fill="none" stroke="#000000" d="M262,-128.1519C262,-120.5045 262,-110.5015 262,-101.4942"/>
<polygon fill="#000000" stroke="#000000" points="265.5001,-101.2264 262,-91.2265 258.5001,-101.2265 265.5001,-101.2264"/>
</g>
<!-- visit -->
<g id="node17" class="node">
<title>visit</title>
<ellipse fill="#ffffff" stroke="#8c8c8c" cx="215" cy="-14.8492" rx="27.6545" ry="14.7"/>
<text text-anchor="middle" x="215" y="-11.7492" font-family="FreeSans" font-size="12.00" fill="#8c8c8c">VisIt</text>
</g>
<!-- output&#45;&gt;visit -->
<g id="edge21" class="edge">
<title>output&#45;&gt;visit</title>
<path fill="none" stroke="#8c8c8c" d="M252.7143,-66.0839C244.7956,-55.3264 233.4277,-39.8832 225.2454,-28.7676"/>
</g>
<!-- paraview -->
<g id="node18" class="node">
<title>paraview</title>
<ellipse fill="#ffffff" stroke="#8c8c8c" cx="309" cy="-14.8492" rx="48.1667" ry="14.7"/>
<text text-anchor="middle" x="309" y="-11.7492" font-family="FreeSans" font-size="12.00" fill="#8c8c8c">ParaView</text>
</g>
<!-- output&#45;&gt;paraview -->
<g id="edge22" class="edge">
<title>output&#45;&gt;paraview</title>
<path fill="none" stroke="#8c8c8c" d="M271.2857,-66.0839C278.9904,-55.6171 289.9603,-40.7145 298.0843,-29.6781"/>
</g>
<!-- manifold -->
<g id="node10" class="node">
<title>manifold</title>
<g id="a_node10"><a xlink:href="group__manifold.html" target="_top" xlink:title="Manifold">
<polygon fill="#ffffff" stroke="#000000" points="133.5,-378.0477 133.5,-403.0477 206.5,-403.0477 206.5,-378.0477 133.5,-378.0477"/>
<text text-anchor="middle" x="170" y="-387.0477" font-family="FreeSans" font-size="15.00" fill="#000000">Manifold</text>
</a>
</g>
</g>
<!-- manifold&#45;&gt;tria -->
<g id="edge10" class="edge">
<title>manifold&#45;&gt;tria</title>
<path fill="none" stroke="#000000" d="M206.8231,-379.8608C242.4193,-369.5299 296.7263,-353.7687 336.9755,-342.0874"/>
<polygon fill="#000000" stroke="#000000" points="337.9982,-345.4351 346.6264,-339.2865 336.0471,-338.7125 337.9982,-345.4351"/>
</g>
<!-- manifold&#45;&gt;mapping -->
<g id="edge11" class="edge">
<title>manifold&#45;&gt;mapping</title>
<path fill="none" stroke="#000000" d="M143.7235,-377.9332C123.3213,-368.1387 94.8282,-354.46 72.4143,-343.6998"/>
<polygon fill="#000000" stroke="#000000" points="73.7517,-340.4595 63.2219,-339.2868 70.7222,-346.77 73.7517,-340.4595"/>
</g>
<!-- opencascade -->
<g id="node11" class="node">
<title>opencascade</title>
<polygon fill="#ffffff" stroke="#8c8c8c" points="118,-441.897 118,-462.897 222,-462.897 222,-441.897 118,-441.897"/>
<text text-anchor="middle" x="170" y="-449.297" font-family="FreeSans" font-size="12.00" fill="#8c8c8c">OpenCASCADE</text>
</g>
<!-- opencascade&#45;&gt;manifold -->
<g id="edge19" class="edge">
<title>opencascade&#45;&gt;manifold</title>
<path fill="none" stroke="#8c8c8c" d="M170,-441.6237C170,-430.9638 170,-414.6459 170,-403.3348"/>
</g>
<!-- petsc -->
<g id="node12" class="node">
<title>petsc</title>
<g id="a_node12"><a xlink:href="group__PETScWrappers.html" target="_top" xlink:title="PETSc">
<polygon fill="#ffffff" stroke="#8c8c8c" points="44,-254.1985 44,-275.1985 98,-275.1985 98,-254.1985 44,-254.1985"/>
<text text-anchor="middle" x="71" y="-261.5985" font-family="FreeSans" font-size="12.00" fill="#8c8c8c">PETSc</text>
</a>
</g>
</g>
<!-- petsc&#45;&gt;systems -->
<g id="edge12" class="edge">
<title>petsc&#45;&gt;systems</title>
<path fill="none" stroke="#8c8c8c" d="M98.0857,-254.7852C101.0874,-253.726 104.1046,-252.6785 107,-251.6985 145.3613,-238.7145 189.419,-224.8903 220.7332,-215.2477"/>
</g>
<!-- petsc&#45;&gt;solvers -->
<g id="edge13" class="edge">
<title>petsc&#45;&gt;solvers</title>
<path fill="none" stroke="#8c8c8c" d="M87.2846,-254.1263C122.3775,-231.3435 204.999,-177.7044 242.6708,-153.2473"/>
</g>
<!-- trilinos -->
<g id="node13" class="node">
<title>trilinos</title>
<g id="a_node13"><a xlink:href="group__TrilinosWrappers.html" target="_top" xlink:title="Trilinos">
<polygon fill="#ffffff" stroke="#8c8c8c" points="328,-254.1985 328,-275.1985 384,-275.1985 384,-254.1985 328,-254.1985"/>
<text text-anchor="middle" x="356" y="-261.5985" font-family="FreeSans" font-size="12.00" fill="#8c8c8c">Trilinos</text>
</a>
</g>
</g>
<!-- trilinos&#45;&gt;systems -->
<g id="edge14" class="edge">
<title>trilinos&#45;&gt;systems</title>
<path fill="none" stroke="#8c8c8c" d="M340.0542,-254.181C323.8163,-243.471 298.6274,-226.857 281.2793,-215.4146"/>
</g>
<!-- trilinos&#45;&gt;solvers -->
<g id="edge15" class="edge">
<title>trilinos&#45;&gt;solvers</title>
<path fill="none" stroke="#8c8c8c" d="M354.2202,-254.0661C351.2101,-238.6189 343.925,-209.6422 329,-189.6985 317.6027,-174.4687 300.1456,-161.9171 285.9081,-153.3308"/>
</g>
<!-- cuda -->
<g id="node14" class="node">
<title>cuda</title>
<g id="a_node14"><a xlink:href="group__CUDAWrappers.html" target="_top" xlink:title="CUDA">
<polygon fill="#ffffff" stroke="#8c8c8c" points="402,-254.1985 402,-275.1985 452,-275.1985 452,-254.1985 402,-254.1985"/>
<text text-anchor="middle" x="427" y="-261.5985" font-family="FreeSans" font-size="12.00" fill="#8c8c8c">CUDA</text>
</a>
</g>
</g>
<!-- cuda&#45;&gt;systems -->
<g id="edge16" class="edge">
<title>cuda&#45;&gt;systems</title>
<path fill="none" stroke="#8c8c8c" d="M401.7568,-255.0233C398.8058,-253.8992 395.8373,-252.7715 393,-251.6985 359.9541,-239.2007 322.1548,-225.0808 295.6803,-215.2199"/>
</g>
<!-- cuda&#45;&gt;solvers -->
<g id="edge17" class="edge">
<title>cuda&#45;&gt;solvers</title>
<path fill="none" stroke="#8c8c8c" d="M417.633,-254.1278C403.6739,-238.7574 376.1357,-209.8754 349,-189.6985 329.8029,-175.4244 306.0215,-162.3007 288.1767,-153.235"/>
</g>
<!-- umfpack -->
<g id="node15" class="node">
<title>umfpack</title>
<polygon fill="#ffffff" stroke="#8c8c8c" points="414.5,-192.1985 414.5,-213.1985 491.5,-213.1985 491.5,-192.1985 414.5,-192.1985"/>
<text text-anchor="middle" x="453" y="-199.5985" font-family="FreeSans" font-size="12.00" fill="#8c8c8c">UMFPACK</text>
</g>
<!-- umfpack&#45;&gt;solvers -->
<g id="edge18" class="edge">
<title>umfpack&#45;&gt;solvers</title>
<path fill="none" stroke="#8c8c8c" d="M420.5995,-192.181C387.4991,-181.4364 336.0935,-164.7498 300.8333,-153.3041"/>
</g>
<!-- gmsh -->
<g id="node16" class="node">
<title>gmsh</title>
<g id="a_node16"><a xlink:href="namespaceGmsh.html" target="_top" xlink:title="gmsh">
<ellipse fill="#ffffff" stroke="#8c8c8c" cx="390" cy="-390.5477" rx="32.5538" ry="14.7"/>
<text text-anchor="middle" x="390" y="-387.4477" font-family="FreeSans" font-size="12.00" fill="#8c8c8c">gmsh</text>
</a>
</g>
</g>
<!-- gmsh&#45;&gt;tria -->
<g id="edge20" class="edge">
<title>gmsh&#45;&gt;tria</title>
<path fill="none" stroke="#8c8c8c" d="M390,-375.4163C390,-364.5007 390,-349.9234 390,-339.5665"/>
</g>
</g>
</svg>
