<?xml version="1.0" encoding="UTF-8" standalone="no"?>
<!DOCTYPE svg PUBLIC "-//W3C//DTD SVG 1.1//EN"
 "http://www.w3.org/Graphics/SVG/1.1/DTD/svg11.dtd">
<!-- Generated by graphviz version 2.40.1 (20161225.0304)
 -->
<!-- Title: StepsDescription Pages: 1 -->
<svg width="766pt" height="121pt"
 viewBox="0.00 0.00 766.00 121.00" xmlns="http://www.w3.org/2000/svg" xmlns:xlink="http://www.w3.org/1999/xlink">
<g id="graph0" class="graph" transform="scale(1 1) rotate(0) translate(4 117)">
<title>StepsDescription</title>
<polygon fill="#ffffff" stroke="transparent" points="-4,4 -4,-117 762,-117 762,4 -4,4"/>
<!-- basic -->
<g id="node1" class="node">
<title>basic</title>
<polygon fill="#00ff00" stroke="#000000" points="102.5,-71.9878 102.5,-96.0122 85.5122,-113 61.4878,-113 44.5,-96.0122 44.5,-71.9878 61.4878,-55 85.5122,-55 102.5,-71.9878"/>
</g>
<!-- fake_basic -->
<g id="node2" class="node">
<title>fake_basic</title>
<polygon fill="#ffffff" stroke="transparent" points="89,-19 0,-19 0,0 89,0 89,-19"/>
<text text-anchor="middle" x="44.5" y="-7" font-family="FreeSans" font-size="10.00" fill="#000000">Basic techniques</text>
</g>
<!-- basic&#45;&#45;fake_basic -->
<g id="edge1" class="edge">
<title>basic&#45;&#45;fake_basic</title>
<path fill="none" stroke="#000000" stroke-dasharray="1,5" d="M62.2048,-54.983C57.2428,-42.2359 51.7538,-28.1348 48.2226,-19.0633"/>
</g>
<!-- techniques -->
<g id="node13" class="node">
<title>techniques</title>
<polygon fill="#ffa500" stroke="#000000" points="174,-96.5 149,-96.5 149,-71.5 174,-71.5 174,-96.5"/>
</g>
<!-- basic&#45;&#45;techniques -->
<!-- code_gallery -->
<g id="node3" class="node">
<title>code_gallery</title>
<ellipse fill="#ffffff" stroke="#000000" cx="690.5" cy="-84" rx="4.5" ry="4.5"/>
</g>
<!-- fake_code_gallery -->
<g id="node4" class="node">
<title>fake_code_gallery</title>
<polygon fill="#ffffff" stroke="transparent" points="758,-19 689,-19 689,0 758,0 758,-19"/>
<text text-anchor="middle" x="723.5" y="-7" font-family="FreeSans" font-size="10.00" fill="#000000">Code gallery</text>
</g>
<!-- code_gallery&#45;&#45;fake_code_gallery -->
<g id="edge2" class="edge">
<title>code_gallery&#45;&#45;fake_code_gallery</title>
<path fill="none" stroke="#000000" stroke-dasharray="1,5" d="M692.4655,-79.5628C697.6827,-67.7845 711.9742,-35.5203 719.1985,-19.2109"/>
</g>
<!-- time_dependent -->
<g id="node5" class="node">
<title>time_dependent</title>
<polygon fill="#1e90ff" stroke="#000000" points="509.5,-93 491.5,-93 491.5,-75 509.5,-75 509.5,-93"/>
</g>
<!-- fake_time_dependent -->
<g id="node6" class="node">
<title>fake_time_dependent</title>
<polygon fill="#ffffff" stroke="transparent" points="564,-19 437,-19 437,0 564,0 564,-19"/>
<text text-anchor="middle" x="500.5" y="-7" font-family="FreeSans" font-size="10.00" fill="#000000">Time dependent problems</text>
</g>
<!-- time_dependent&#45;&#45;fake_time_dependent -->
<g id="edge3" class="edge">
<title>time_dependent&#45;&#45;fake_time_dependent</title>
<path fill="none" stroke="#000000" stroke-dasharray="1,5" d="M500.5,-74.8648C500.5,-60.7217 500.5,-33.6508 500.5,-19.1823"/>
</g>
<!-- unfinished -->
<g id="node7" class="node">
<title>unfinished</title>
<polygon fill="none" stroke="#000000" stroke-dasharray="5,2" points="635.5,-93 617.5,-93 617.5,-75 635.5,-75 635.5,-93"/>
</g>
<!-- time_dependent&#45;&#45;unfinished -->
<!-- unfinished&#45;&#45;code_gallery -->
<!-- fake_unfinished -->
<g id="node8" class="node">
<title>fake_unfinished</title>
<polygon fill="#ffffff" stroke="transparent" points="671,-19 582,-19 582,0 671,0 671,-19"/>
<text text-anchor="middle" x="626.5" y="-7" font-family="FreeSans" font-size="10.00" fill="#000000">Unfinished codes</text>
</g>
<!-- unfinished&#45;&#45;fake_unfinished -->
<g id="edge4" class="edge">
<title>unfinished&#45;&#45;fake_unfinished</title>
<path fill="none" stroke="#000000" stroke-dasharray="1,5" d="M626.5,-74.8648C626.5,-60.7217 626.5,-33.6508 626.5,-19.1823"/>
</g>
<!-- fluids -->
<g id="node9" class="node">
<title>fluids</title>
<polygon fill="#eeee00" stroke="#000000" points="282.5,-93 264.5,-93 264.5,-75 282.5,-75 282.5,-93"/>
</g>
<!-- fake_fluids -->
<g id="node10" class="node">
<title>fake_fluids</title>
<polygon fill="#ffffff" stroke="transparent" points="313.5,-19 233.5,-19 233.5,0 313.5,0 313.5,-19"/>
<text text-anchor="middle" x="273.5" y="-7" font-family="FreeSans" font-size="10.00" fill="#000000">Fluid dynamics</text>
</g>
<!-- fluids&#45;&#45;fake_fluids -->
<g id="edge5" class="edge">
<title>fluids&#45;&#45;fake_fluids</title>
<path fill="none" stroke="#000000" stroke-dasharray="1,5" d="M273.5,-74.8648C273.5,-60.7217 273.5,-33.6508 273.5,-19.1823"/>
</g>
<!-- solids -->
<g id="node11" class="node">
<title>solids</title>
<polygon fill="#add8e6" stroke="#000000" points="384.5,-93 366.5,-93 366.5,-75 384.5,-75 384.5,-93"/>
</g>
<!-- fluids&#45;&#45;solids -->
<!-- solids&#45;&#45;time_dependent -->
<!-- fake_solids -->
<g id="node12" class="node">
<title>fake_solids</title>
<polygon fill="#ffffff" stroke="transparent" points="419,-19 332,-19 332,0 419,0 419,-19"/>
<text text-anchor="middle" x="375.5" y="-7" font-family="FreeSans" font-size="10.00" fill="#000000">Solid mechanics</text>
</g>
<!-- solids&#45;&#45;fake_solids -->
<g id="edge6" class="edge">
<title>solids&#45;&#45;fake_solids</title>
<path fill="none" stroke="#000000" stroke-dasharray="1,5" d="M375.5,-74.8648C375.5,-60.7217 375.5,-33.6508 375.5,-19.1823"/>
</g>
<!-- techniques&#45;&#45;fluids -->
<!-- fake_techniques -->
<g id="node14" class="node">
<title>fake_techniques</title>
<polygon fill="#ffffff" stroke="transparent" points="215.5,-19 107.5,-19 107.5,0 215.5,0 215.5,-19"/>
<text text-anchor="middle" x="161.5" y="-7" font-family="FreeSans" font-size="10.00" fill="#000000">Advanced techniques</text>
</g>
<!-- techniques&#45;&#45;fake_techniques -->
<g id="edge7" class="edge">
<title>techniques&#45;&#45;fake_techniques</title>
<path fill="none" stroke="#000000" stroke-dasharray="1,5" d="M161.5,-71.3621C161.5,-56.5831 161.5,-32.4483 161.5,-19.1132"/>
</g>
</g>
</svg>
