<?xml version="1.0" encoding="UTF-8" standalone="no"?>
<!DOCTYPE svg PUBLIC "-//W3C//DTD SVG 1.1//EN"
 "http://www.w3.org/Graphics/SVG/1.1/DTD/svg11.dtd">
<!-- Generated by graphviz version 2.40.1 (20161225.0304)
 -->
<!-- Title: The MeshWorker interface Pages: 1 -->
<svg width="319pt" height="29pt"
 viewBox="0.00 0.00 319.00 29.00" xmlns="http://www.w3.org/2000/svg" xmlns:xlink="http://www.w3.org/1999/xlink">
<g id="graph0" class="graph" transform="scale(1 1) rotate(0) translate(4 25)">
<title>The MeshWorker interface</title>
<polygon fill="#ffffff" stroke="transparent" points="-4,4 -4,-25 315,-25 315,4 -4,4"/>
<!-- Node0 -->
<g id="node1" class="node">
<title>Node0</title>
<polygon fill="#bfbfbf" stroke="#000000" points="0,-.5 0,-19.5 144,-19.5 144,-.5 0,-.5"/>
<text text-anchor="middle" x="72" y="-7.5" font-family="Helvetica,sans-Serif" font-size="10.00" fill="#000000">The MeshWorker interface</text>
</g>
<!-- Node1 -->
<g id="node2" class="node">
<title>Node1</title>
<g id="a_node2"><a xlink:href="group__Integrators.html" target="_top" xlink:title="Integrators">
<polygon fill="#ffffff" stroke="#000000" points="241,-.5 241,-19.5 311,-19.5 311,-.5 241,-.5"/>
<text text-anchor="middle" x="276" y="-7.5" font-family="Helvetica,sans-Serif" font-size="10.00" fill="#000000">Integrators</text>
</a>
</g>
</g>
<!-- Node0&#45;&gt;Node1 -->
<g id="edge2" class="edge">
<title>Node0&#45;&gt;Node1</title>
<path fill="none" stroke="#8a2be2" stroke-dasharray="5,2" d="M144.2099,-10C176.9906,-10 214.2712,-10 240.796,-10"/>
<text text-anchor="middle" x="192.5" y="-13" font-family="Helvetica,sans-Serif" font-size="10.00" fill="#000000">MeshWorker</text>
</g>
<!-- Node1&#45;&gt;Node0 -->
<g id="edge1" class="edge">
<title>Node1&#45;&gt;Node0</title>
<path fill="none" stroke="#000000" d="M230.7723,-8.1789C228.1429,-8.1086 225.5375,-8.0479 223,-8 197.3113,-7.5155 169.1622,-7.695 144.201,-8.1012"/>
<polygon fill="#000000" stroke="#000000" points="230.8367,-11.6824 240.9392,-8.4903 231.0511,-4.6857 230.8367,-11.6824"/>
</g>
</g>
</svg>
