<?xml version="1.0" encoding="UTF-8" standalone="no"?>
<!DOCTYPE svg PUBLIC "-//W3C//DTD SVG 1.1//EN"
 "http://www.w3.org/Graphics/SVG/1.1/DTD/svg11.dtd">
<!-- Generated by graphviz version 2.40.1 (20161225.0304)
 -->
<!-- Title: Matrix classes Pages: 1 -->
<svg width="413pt" height="116pt"
 viewBox="0.00 0.00 413.00 115.50" xmlns="http://www.w3.org/2000/svg" xmlns:xlink="http://www.w3.org/1999/xlink">
<g id="graph0" class="graph" transform="scale(1 1) rotate(0) translate(4 111.5)">
<title>Matrix classes</title>
<polygon fill="#ffffff" stroke="transparent" points="-4,4 -4,-111.5 409,-111.5 409,4 -4,4"/>
<!-- Node1 -->
<g id="node1" class="node">
<title>Node1</title>
<g id="a_node1"><a xlink:href="group__LAC.html" target="_top" xlink:title="Linear algebra classes">
<polygon fill="#ffffff" stroke="#000000" points="0,-38.5 0,-57.5 125,-57.5 125,-38.5 0,-38.5"/>
<text text-anchor="middle" x="62.5" y="-45.5" font-family="Helvetica,sans-Serif" font-size="10.00" fill="#000000">Linear algebra classes</text>
</a>
</g>
</g>
<!-- Node0 -->
<g id="node5" class="node">
<title>Node0</title>
<polygon fill="#bfbfbf" stroke="#000000" points="161,-38.5 161,-57.5 247,-57.5 247,-38.5 161,-38.5"/>
<text text-anchor="middle" x="204" y="-45.5" font-family="Helvetica,sans-Serif" font-size="10.00" fill="#000000">Matrix classes</text>
</g>
<!-- Node1&#45;&gt;Node0 -->
<g id="edge1" class="edge">
<title>Node1&#45;&gt;Node0</title>
<path fill="none" stroke="#000000" d="M135.5181,-48C144.1561,-48 152.749,-48 160.781,-48"/>
<polygon fill="#000000" stroke="#000000" points="135.388,-44.5001 125.388,-48 135.388,-51.5001 135.388,-44.5001"/>
</g>
<!-- Node4 -->
<g id="node2" class="node">
<title>Node4</title>
<g id="a_node2"><a xlink:href="group__Preconditioners.html" target="_top" xlink:title="Preconditioners and\l Relaxation Operators">
<polygon fill="#ffffff" stroke="#000000" points="283,-77 283,-107 405,-107 405,-77 283,-77"/>
<text text-anchor="start" x="291" y="-95" font-family="Helvetica,sans-Serif" font-size="10.00" fill="#000000">Preconditioners and</text>
<text text-anchor="middle" x="344" y="-84" font-family="Helvetica,sans-Serif" font-size="10.00" fill="#000000"> Relaxation Operators</text>
</a>
</g>
</g>
<!-- Node2 -->
<g id="node3" class="node">
<title>Node2</title>
<g id="a_node3"><a xlink:href="group__Matrix1.html" target="_top" xlink:title="Basic matrices">
<polygon fill="#ffffff" stroke="#000000" points="299.5,-38.5 299.5,-57.5 388.5,-57.5 388.5,-38.5 299.5,-38.5"/>
<text text-anchor="middle" x="344" y="-45.5" font-family="Helvetica,sans-Serif" font-size="10.00" fill="#000000">Basic matrices</text>
</a>
</g>
</g>
<!-- Node3 -->
<g id="node4" class="node">
<title>Node3</title>
<g id="a_node4"><a xlink:href="group__Matrix2.html" target="_top" xlink:title="Derived matrices">
<polygon fill="#ffffff" stroke="#000000" points="293.5,-.5 293.5,-19.5 394.5,-19.5 394.5,-.5 293.5,-.5"/>
<text text-anchor="middle" x="344" y="-7.5" font-family="Helvetica,sans-Serif" font-size="10.00" fill="#000000">Derived matrices</text>
</a>
</g>
</g>
<!-- Node0&#45;&gt;Node4 -->
<g id="edge4" class="edge">
<title>Node0&#45;&gt;Node4</title>
<path fill="none" stroke="#000000" d="M244.0884,-60.5992C260.2962,-65.6931 279.139,-71.6151 296.0648,-76.9346"/>
<polygon fill="#000000" stroke="#000000" points="244.9673,-57.2067 234.3779,-57.5473 242.8684,-63.8847 244.9673,-57.2067"/>
</g>
<!-- Node0&#45;&gt;Node2 -->
<g id="edge2" class="edge">
<title>Node0&#45;&gt;Node2</title>
<path fill="none" stroke="#000000" d="M257.4863,-48C271.2886,-48 285.9994,-48 299.3016,-48"/>
<polygon fill="#000000" stroke="#000000" points="257.147,-44.5001 247.147,-48 257.1469,-51.5001 257.147,-44.5001"/>
</g>
<!-- Node0&#45;&gt;Node3 -->
<g id="edge3" class="edge">
<title>Node0&#45;&gt;Node3</title>
<path fill="none" stroke="#000000" d="M249.1176,-35.7538C268.4149,-30.516 290.6124,-24.4909 308.6834,-19.5859"/>
<polygon fill="#000000" stroke="#000000" points="248.0619,-32.4136 239.3279,-38.411 249.8956,-39.1692 248.0619,-32.4136"/>
</g>
</g>
</svg>
