<?xml version="1.0" encoding="UTF-8" standalone="no"?>
<!DOCTYPE svg PUBLIC "-//W3C//DTD SVG 1.1//EN"
 "http://www.w3.org/Graphics/SVG/1.1/DTD/svg11.dtd">
<!-- Generated by graphviz version 2.40.1 (20161225.0304)
 -->
<!-- Title: Finite element space descriptions Pages: 1 -->
<svg width="503pt" height="93pt"
 viewBox="0.00 0.00 503.00 92.50" xmlns="http://www.w3.org/2000/svg" xmlns:xlink="http://www.w3.org/1999/xlink">
<g id="graph0" class="graph" transform="scale(1 1) rotate(0) translate(4 88.5)">
<title>Finite element space descriptions</title>
<polygon fill="#ffffff" stroke="transparent" points="-4,4 -4,-88.5 499,-88.5 499,4 -4,4"/>
<!-- Node3 -->
<g id="node1" class="node">
<title>Node3</title>
<g id="a_node1"><a xlink:href="group__febase.html" target="_top" xlink:title="Base classes">
<polygon fill="#ffffff" stroke="#000000" points="390,-62 390,-81 470,-81 470,-62 390,-62"/>
<text text-anchor="middle" x="430" y="-69" font-family="Helvetica,sans-Serif" font-size="10.00" fill="#000000">Base classes</text>
</a>
</g>
</g>
<!-- Node1 -->
<g id="node2" class="node">
<title>Node1</title>
<g id="a_node2"><a xlink:href="group__feall.html" target="_top" xlink:title="Finite elements">
<polygon fill="#ffffff" stroke="#000000" points="0,-34 0,-53 92,-53 92,-34 0,-34"/>
<text text-anchor="middle" x="46" y="-41" font-family="Helvetica,sans-Serif" font-size="10.00" fill="#000000">Finite elements</text>
</a>
</g>
</g>
<!-- Node0 -->
<g id="node4" class="node">
<title>Node0</title>
<polygon fill="#bfbfbf" stroke="#000000" points="129,-28.5 129,-58.5 247,-58.5 247,-28.5 129,-28.5"/>
<text text-anchor="start" x="137" y="-46.5" font-family="Helvetica,sans-Serif" font-size="10.00" fill="#000000">Finite element space</text>
<text text-anchor="middle" x="188" y="-35.5" font-family="Helvetica,sans-Serif" font-size="10.00" fill="#000000"> descriptions</text>
</g>
<!-- Node1&#45;&gt;Node0 -->
<g id="edge1" class="edge">
<title>Node1&#45;&gt;Node0</title>
<path fill="none" stroke="#000000" d="M102.2238,-43.5C110.9973,-43.5 120.0857,-43.5 128.9206,-43.5"/>
<polygon fill="#000000" stroke="#000000" points="102.1034,-40.0001 92.1033,-43.5 102.1033,-47.0001 102.1034,-40.0001"/>
</g>
<!-- Node2 -->
<g id="node3" class="node">
<title>Node2</title>
<g id="a_node3"><a xlink:href="group__vector__valued.html" target="_top" xlink:title="Handling vector valued\l problems">
<polygon fill="#ffffff" stroke="#000000" points="365,-.5 365,-30.5 495,-30.5 495,-.5 365,-.5"/>
<text text-anchor="start" x="373" y="-18.5" font-family="Helvetica,sans-Serif" font-size="10.00" fill="#000000">Handling vector valued</text>
<text text-anchor="middle" x="430" y="-7.5" font-family="Helvetica,sans-Serif" font-size="10.00" fill="#000000"> problems</text>
</a>
</g>
</g>
<!-- Node0&#45;&gt;Node3 -->
<g id="edge3" class="edge">
<title>Node0&#45;&gt;Node3</title>
<path fill="none" stroke="#ffa500" stroke-dasharray="5,2" d="M247.1999,-50.3496C291.5574,-55.4819 351.0616,-62.3666 389.9527,-66.8664"/>
<text text-anchor="middle" x="306" y="-76.5" font-family="Helvetica,sans-Serif" font-size="10.00" fill="#000000">FiniteElement</text>
<text text-anchor="middle" x="306" y="-65.5" font-family="Helvetica,sans-Serif" font-size="10.00" fill="#000000">FESystem</text>
</g>
<!-- Node0&#45;&gt;Node2 -->
<g id="edge2" class="edge">
<title>Node0&#45;&gt;Node2</title>
<path fill="none" stroke="#ffa500" stroke-dasharray="5,2" d="M222.9969,-28.4797C235.9434,-23.6622 250.9025,-18.944 265,-16.5 297.6003,-10.8483 334.3706,-10.0928 364.9123,-10.9659"/>
<text text-anchor="middle" x="306" y="-41.5" font-family="Helvetica,sans-Serif" font-size="10.00" fill="#000000">BlockMask</text>
<text text-anchor="middle" x="306" y="-30.5" font-family="Helvetica,sans-Serif" font-size="10.00" fill="#000000">ComponentMask</text>
<text text-anchor="middle" x="306" y="-19.5" font-family="Helvetica,sans-Serif" font-size="10.00" fill="#000000">FESystem</text>
</g>
</g>
</svg>
