<?xml version="1.0" encoding="UTF-8" standalone="no"?>
<!DOCTYPE svg PUBLIC "-//W3C//DTD SVG 1.1//EN"
 "http://www.w3.org/Graphics/SVG/1.1/DTD/svg11.dtd">
<!-- Generated by graphviz version 2.40.1 (20161225.0304)
 -->
<!-- Title: Utility functions and classes Pages: 1 -->
<svg width="292pt" height="66pt"
 viewBox="0.00 0.00 292.00 66.00" xmlns="http://www.w3.org/2000/svg" xmlns:xlink="http://www.w3.org/1999/xlink">
<g id="graph0" class="graph" transform="scale(1 1) rotate(0) translate(4 62)">
<title>Utility functions and classes</title>
<polygon fill="#ffffff" stroke="transparent" points="-4,4 -4,-62 288,-62 288,4 -4,4"/>
<!-- Node0 -->
<g id="node1" class="node">
<title>Node0</title>
<polygon fill="#bfbfbf" stroke="#000000" points="0,-14 0,-44 116,-44 116,-14 0,-14"/>
<text text-anchor="start" x="8" y="-32" font-family="Helvetica,sans-Serif" font-size="10.00" fill="#000000">Utility functions and</text>
<text text-anchor="middle" x="58" y="-21" font-family="Helvetica,sans-Serif" font-size="10.00" fill="#000000"> classes</text>
</g>
<!-- Node2 -->
<g id="node2" class="node">
<title>Node2</title>
<g id="a_node2"><a xlink:href="group__data.html" target="_top" xlink:title="Data storage primitives">
<polygon fill="#ffffff" stroke="#000000" points="152,-38.5 152,-57.5 284,-57.5 284,-38.5 152,-38.5"/>
<text text-anchor="middle" x="218" y="-45.5" font-family="Helvetica,sans-Serif" font-size="10.00" fill="#000000">Data storage primitives</text>
</a>
</g>
</g>
<!-- Node0&#45;&gt;Node2 -->
<g id="edge2" class="edge">
<title>Node0&#45;&gt;Node2</title>
<path fill="none" stroke="#000000" d="M126.1503,-37.0928C134.7055,-38.1088 143.4456,-39.1467 151.9674,-40.1586"/>
<polygon fill="#000000" stroke="#000000" points="126.5593,-33.6169 116.2163,-35.9132 125.7338,-40.5681 126.5593,-33.6169"/>
</g>
<!-- Node1 -->
<g id="node3" class="node">
<title>Node1</title>
<g id="a_node3"><a xlink:href="group__memory.html" target="_top" xlink:title="Memory handling">
<polygon fill="#ffffff" stroke="#000000" points="167.5,-.5 167.5,-19.5 268.5,-19.5 268.5,-.5 167.5,-.5"/>
<text text-anchor="middle" x="218" y="-7.5" font-family="Helvetica,sans-Serif" font-size="10.00" fill="#000000">Memory handling</text>
</a>
</g>
</g>
<!-- Node0&#45;&gt;Node1 -->
<g id="edge1" class="edge">
<title>Node0&#45;&gt;Node1</title>
<path fill="none" stroke="#000000" d="M126.1932,-20.9021C140.0456,-19.2571 154.3809,-17.5548 167.4883,-15.9983"/>
<polygon fill="#000000" stroke="#000000" points="125.7338,-17.4319 116.2163,-22.0868 126.5593,-24.3831 125.7338,-17.4319"/>
</g>
</g>
</svg>
