<?xml version="1.0" encoding="UTF-8" standalone="no"?>
<!DOCTYPE svg PUBLIC "-//W3C//DTD SVG 1.1//EN"
 "http://www.w3.org/Graphics/SVG/1.1/DTD/svg11.dtd">
<!-- Generated by graphviz version 2.40.1 (20161225.0304)
 -->
<!-- Title: Finite element access/FEValues classes Pages: 1 -->
<svg width="544pt" height="396pt"
 viewBox="0.00 0.00 544.00 396.00" xmlns="http://www.w3.org/2000/svg" xmlns:xlink="http://www.w3.org/1999/xlink">
<g id="graph0" class="graph" transform="scale(1 1) rotate(0) translate(4 392)">
<title>Finite element access/FEValues classes</title>
<polygon fill="#ffffff" stroke="transparent" points="-4,4 -4,-392 540,-392 540,4 -4,4"/>
<!-- Node3 -->
<g id="node1" class="node">
<title>Node3</title>
<g id="a_node1"><a xlink:href="group__Vectors.html" target="_top" xlink:title="Vector classes">
<polygon fill="#ffffff" stroke="#000000" points="423.5,-357.5 423.5,-376.5 505.5,-376.5 505.5,-357.5 423.5,-357.5"/>
<text text-anchor="middle" x="464.5" y="-364.5" font-family="Helvetica,sans-Serif" font-size="10.00" fill="#000000">Vector classes</text>
</a>
</g>
</g>
<!-- Node6 -->
<g id="node2" class="node">
<title>Node6</title>
<g id="a_node2"><a xlink:href="group__VMemory.html" target="_top" xlink:title="Vector memory management">
<polygon fill="#ffffff" stroke="#000000" points="393,-319.5 393,-338.5 536,-338.5 536,-319.5 393,-319.5"/>
<text text-anchor="middle" x="464.5" y="-326.5" font-family="Helvetica,sans-Serif" font-size="10.00" fill="#000000">Vector memory management</text>
</a>
</g>
</g>
<!-- Node1 -->
<g id="node3" class="node">
<title>Node1</title>
<g id="a_node3"><a xlink:href="group__feall.html" target="_top" xlink:title="Finite elements">
<polygon fill="#ffffff" stroke="#000000" points="0,-117.5 0,-136.5 83,-136.5 83,-117.5 0,-117.5"/>
<text text-anchor="middle" x="41.5" y="-124.5" font-family="Helvetica,sans-Serif" font-size="10.00" fill="#000000">Finite elements</text>
</a>
</g>
</g>
<!-- Node0 -->
<g id="node6" class="node">
<title>Node0</title>
<polygon fill="#bfbfbf" stroke="#000000" points="120,-112 120,-142 233,-142 233,-112 120,-112"/>
<text text-anchor="start" x="128" y="-130" font-family="Helvetica,sans-Serif" font-size="10.00" fill="#000000">Finite element access</text>
<text text-anchor="middle" x="176.5" y="-119" font-family="Helvetica,sans-Serif" font-size="10.00" fill="#000000">/FEValues classes</text>
</g>
<!-- Node1&#45;&gt;Node0 -->
<g id="edge1" class="edge">
<title>Node1&#45;&gt;Node0</title>
<path fill="none" stroke="#000000" d="M93.1597,-127C101.9033,-127 111.0227,-127 119.885,-127"/>
<polygon fill="#000000" stroke="#000000" points="93.106,-123.5001 83.106,-127 93.106,-130.5001 93.106,-123.5001"/>
</g>
<!-- Node2 -->
<g id="node4" class="node">
<title>Node2</title>
<g id="a_node4"><a xlink:href="group__vector__valued.html" target="_top" xlink:title="Handling vector valued\l problems">
<polygon fill="#ffffff" stroke="#000000" points="406.5,-112 406.5,-142 522.5,-142 522.5,-112 406.5,-112"/>
<text text-anchor="start" x="414.5" y="-130" font-family="Helvetica,sans-Serif" font-size="10.00" fill="#000000">Handling vector valued</text>
<text text-anchor="middle" x="464.5" y="-119" font-family="Helvetica,sans-Serif" font-size="10.00" fill="#000000"> problems</text>
</a>
</g>
</g>
<!-- Node4 -->
<g id="node5" class="node">
<title>Node4</title>
<g id="a_node5"><a xlink:href="group__PETScWrappers.html" target="_top" xlink:title="PETScWrappers">
<polygon fill="#ffffff" stroke="#000000" points="419.5,-38.5 419.5,-57.5 509.5,-57.5 509.5,-38.5 419.5,-38.5"/>
<text text-anchor="middle" x="464.5" y="-45.5" font-family="Helvetica,sans-Serif" font-size="10.00" fill="#000000">PETScWrappers</text>
</a>
</g>
</g>
<!-- Node0&#45;&gt;Node3 -->
<g id="edge4" class="edge">
<title>Node0&#45;&gt;Node3</title>
<path fill="none" stroke="#8a2be2" stroke-dasharray="5,2" d="M179.5688,-142.2511C188.9059,-187.0659 218.3357,-316.8384 251,-343 299.9096,-382.1728 376.5721,-380.2673 423.4982,-374.3284"/>
<text text-anchor="middle" x="313" y="-380" font-family="Helvetica,sans-Serif" font-size="10.00" fill="#000000">internal</text>
</g>
<!-- Node0&#45;&gt;Node6 -->
<g id="edge7" class="edge">
<title>Node0&#45;&gt;Node6</title>
<path fill="none" stroke="#8a2be2" stroke-dasharray="5,2" d="M177.7762,-142.0998C181.6385,-177.3778 196.5376,-265.2929 251,-306 272.8732,-322.3488 339.6305,-327.5181 392.7375,-328.9492"/>
<text text-anchor="middle" x="313" y="-331" font-family="Helvetica,sans-Serif" font-size="10.00" fill="#000000">internal</text>
</g>
<!-- Node0&#45;&gt;Node2 -->
<g id="edge2" class="edge">
<title>Node0&#45;&gt;Node2</title>
<path fill="none" stroke="#000000" d="M180.3356,-152.6461C187.2713,-188.7893 205.6483,-253.4797 251,-282 297.6528,-311.3385 327.2717,-309.5543 375,-282 428.5528,-251.0832 452.9293,-174.5715 461.1295,-142.0327"/>
<polygon fill="#000000" stroke="#000000" points="183.7156,-151.6582 178.5333,-142.4173 176.8218,-152.873 183.7156,-151.6582"/>
</g>
<!-- Node0&#45;&gt;Node2 -->
<g id="edge3" class="edge">
<title>Node0&#45;&gt;Node2</title>
<path fill="none" stroke="#ffa500" stroke-dasharray="5,2" d="M233.0343,-124.4844C239.0978,-124.2859 245.1761,-124.1172 251,-124 306.1,-122.8911 319.8966,-123.0767 375,-124 385.1041,-124.1693 395.8471,-124.446 406.2532,-124.7647"/>
<text text-anchor="middle" x="313" y="-270" font-family="Helvetica,sans-Serif" font-size="10.00" fill="#000000">FEValuesViews::Scalar</text>
<text text-anchor="middle" x="313" y="-259" font-family="Helvetica,sans-Serif" font-size="10.00" fill="#000000">FEValuesViews::Vector</text>
<text text-anchor="start" x="251" y="-248" font-family="Helvetica,sans-Serif" font-size="10.00" fill="#000000">FEValuesViews::Symmetric</text>
<text text-anchor="middle" x="313" y="-237" font-family="Helvetica,sans-Serif" font-size="10.00" fill="#000000">Tensor&lt; 2, dim, spacedim &gt;</text>
<text text-anchor="start" x="251" y="-226" font-family="Helvetica,sans-Serif" font-size="10.00" fill="#000000">FEValuesViews::Tensor</text>
<text text-anchor="middle" x="313" y="-215" font-family="Helvetica,sans-Serif" font-size="10.00" fill="#000000">&lt; 2, dim, spacedim &gt;</text>
<text text-anchor="start" x="251" y="-204" font-family="Helvetica,sans-Serif" font-size="10.00" fill="#000000">FEValuesExtractors</text>
<text text-anchor="middle" x="313" y="-193" font-family="Helvetica,sans-Serif" font-size="10.00" fill="#000000">::Scalar</text>
<text text-anchor="start" x="251" y="-182" font-family="Helvetica,sans-Serif" font-size="10.00" fill="#000000">FEValuesExtractors</text>
<text text-anchor="middle" x="313" y="-171" font-family="Helvetica,sans-Serif" font-size="10.00" fill="#000000">::Vector</text>
<text text-anchor="start" x="251" y="-160" font-family="Helvetica,sans-Serif" font-size="10.00" fill="#000000">FEValuesExtractors</text>
<text text-anchor="middle" x="313" y="-149" font-family="Helvetica,sans-Serif" font-size="10.00" fill="#000000">::SymmetricTensor</text>
<text text-anchor="start" x="251" y="-138" font-family="Helvetica,sans-Serif" font-size="10.00" fill="#000000">FEValuesExtractors</text>
<text text-anchor="middle" x="313" y="-127" font-family="Helvetica,sans-Serif" font-size="10.00" fill="#000000">::Tensor</text>
</g>
<!-- Node0&#45;&gt;Node2 -->
<g id="edge8" class="edge">
<title>Node0&#45;&gt;Node2</title>
<path fill="none" stroke="#8a2be2" stroke-dasharray="5,2" d="M207.6376,-111.9029C220.7064,-106.3599 236.2677,-100.7663 251,-98 305.1645,-87.8296 320.5639,-89.4008 375,-98 392.4241,-100.7525 411.0757,-106.3439 426.818,-111.8891"/>
<text text-anchor="middle" x="313" y="-112" font-family="Helvetica,sans-Serif" font-size="10.00" fill="#000000">FEValuesViews</text>
<text text-anchor="middle" x="313" y="-101" font-family="Helvetica,sans-Serif" font-size="10.00" fill="#000000">FEValuesExtractors</text>
</g>
<!-- Node0&#45;&gt;Node4 -->
<g id="edge5" class="edge">
<title>Node0&#45;&gt;Node4</title>
<path fill="none" stroke="#8a2be2" stroke-dasharray="5,2" d="M193.5218,-111.8532C207.8185,-100.0387 229.333,-84.288 251,-76 306.342,-54.8306 374.9971,-49.1415 419.2654,-47.8787"/>
<text text-anchor="middle" x="313" y="-79" font-family="Helvetica,sans-Serif" font-size="10.00" fill="#000000">internal</text>
</g>
<!-- Node5 -->
<g id="node7" class="node">
<title>Node5</title>
<g id="a_node7"><a xlink:href="group__Solvers.html" target="_top" xlink:title="Linear solver classes">
<polygon fill="#ffffff" stroke="#000000" points="410,-.5 410,-19.5 519,-19.5 519,-.5 410,-.5"/>
<text text-anchor="middle" x="464.5" y="-7.5" font-family="Helvetica,sans-Serif" font-size="10.00" fill="#000000">Linear solver classes</text>
</a>
</g>
</g>
<!-- Node0&#45;&gt;Node5 -->
<g id="edge6" class="edge">
<title>Node0&#45;&gt;Node5</title>
<path fill="none" stroke="#8a2be2" stroke-dasharray="5,2" d="M184.1657,-111.6832C195.5782,-90.6704 219.1575,-53.5189 251,-36 299.9095,-9.0914 364.5058,-4.7442 409.7872,-5.7843"/>
<text text-anchor="middle" x="313" y="-39" font-family="Helvetica,sans-Serif" font-size="10.00" fill="#000000">internal</text>
</g>
</g>
</svg>
