<?xml version="1.0" encoding="UTF-8" standalone="no"?>
<!DOCTYPE svg PUBLIC "-//W3C//DTD SVG 1.1//EN"
 "http://www.w3.org/Graphics/SVG/1.1/DTD/svg11.dtd">
<!-- Generated by graphviz version 2.40.1 (20161225.0304)
 -->
<!-- Title: Derived matrices Pages: 1 -->
<svg width="456pt" height="39pt"
 viewBox="0.00 0.00 456.00 39.00" xmlns="http://www.w3.org/2000/svg" xmlns:xlink="http://www.w3.org/1999/xlink">
<g id="graph0" class="graph" transform="scale(1 1) rotate(0) translate(4 35)">
<title>Derived matrices</title>
<polygon fill="#ffffff" stroke="transparent" points="-4,4 -4,-35 452,-35 452,4 -4,4"/>
<!-- Node2 -->
<g id="node1" class="node">
<title>Node2</title>
<g id="a_node1"><a xlink:href="group__vector__valued.html" target="_top" xlink:title="Handling vector valued\l problems">
<polygon fill="#ffffff" stroke="#000000" points="318,-.5 318,-30.5 448,-30.5 448,-.5 318,-.5"/>
<text text-anchor="start" x="326" y="-18.5" font-family="Helvetica,sans-Serif" font-size="10.00" fill="#000000">Handling vector valued</text>
<text text-anchor="middle" x="383" y="-7.5" font-family="Helvetica,sans-Serif" font-size="10.00" fill="#000000"> problems</text>
</a>
</g>
</g>
<!-- Node0 -->
<g id="node2" class="node">
<title>Node0</title>
<polygon fill="#bfbfbf" stroke="#000000" points="123,-6 123,-25 224,-25 224,-6 123,-6"/>
<text text-anchor="middle" x="173.5" y="-13" font-family="Helvetica,sans-Serif" font-size="10.00" fill="#000000">Derived matrices</text>
</g>
<!-- Node0&#45;&gt;Node2 -->
<g id="edge2" class="edge">
<title>Node0&#45;&gt;Node2</title>
<path fill="none" stroke="#ffa500" stroke-dasharray="5,2" d="M224.2141,-15.5C252.3088,-15.5 287.545,-15.5 317.6822,-15.5"/>
<text text-anchor="middle" x="271" y="-18.5" font-family="Helvetica,sans-Serif" font-size="10.00" fill="#000000">MatrixBlock</text>
</g>
<!-- Node1 -->
<g id="node3" class="node">
<title>Node1</title>
<g id="a_node3"><a xlink:href="group__Matrices.html" target="_top" xlink:title="Matrix classes">
<polygon fill="#ffffff" stroke="#000000" points="0,-6 0,-25 86,-25 86,-6 0,-6"/>
<text text-anchor="middle" x="43" y="-13" font-family="Helvetica,sans-Serif" font-size="10.00" fill="#000000">Matrix classes</text>
</a>
</g>
</g>
<!-- Node1&#45;&gt;Node0 -->
<g id="edge1" class="edge">
<title>Node1&#45;&gt;Node0</title>
<path fill="none" stroke="#000000" d="M96.2071,-15.5C104.975,-15.5 114.0433,-15.5 122.749,-15.5"/>
<polygon fill="#000000" stroke="#000000" points="96.0923,-12.0001 86.0923,-15.5 96.0922,-19.0001 96.0923,-12.0001"/>
</g>
</g>
</svg>
