<?xml version="1.0" encoding="UTF-8" standalone="no"?>
<!DOCTYPE svg PUBLIC "-//W3C//DTD SVG 1.1//EN"
 "http://www.w3.org/Graphics/SVG/1.1/DTD/svg11.dtd">
<!-- Generated by graphviz version 2.40.1 (20161225.0304)
 -->
<!-- Title: Sparsity patterns Pages: 1 -->
<svg width="492pt" height="40pt"
 viewBox="0.00 0.00 492.00 40.00" xmlns="http://www.w3.org/2000/svg" xmlns:xlink="http://www.w3.org/1999/xlink">
<g id="graph0" class="graph" transform="scale(1 1) rotate(0) translate(4 36)">
<title>Sparsity patterns</title>
<polygon fill="#ffffff" stroke="transparent" points="-4,4 -4,-36 488,-36 488,4 -4,4"/>
<!-- Node1 -->
<g id="node1" class="node">
<title>Node1</title>
<g id="a_node1"><a xlink:href="group__LAC.html" target="_top" xlink:title="Linear algebra classes">
<polygon fill="#ffffff" stroke="#000000" points="0,-.5 0,-19.5 114,-19.5 114,-.5 0,-.5"/>
<text text-anchor="middle" x="57" y="-7.5" font-family="Helvetica,sans-Serif" font-size="10.00" fill="#000000">Linear algebra classes</text>
</a>
</g>
</g>
<!-- Node0 -->
<g id="node2" class="node">
<title>Node0</title>
<polygon fill="#bfbfbf" stroke="#000000" points="151,-.5 151,-19.5 242,-19.5 242,-.5 151,-.5"/>
<text text-anchor="middle" x="196.5" y="-7.5" font-family="Helvetica,sans-Serif" font-size="10.00" fill="#000000">Sparsity patterns</text>
</g>
<!-- Node1&#45;&gt;Node0 -->
<g id="edge1" class="edge">
<title>Node1&#45;&gt;Node0</title>
<path fill="none" stroke="#000000" d="M124.2291,-10C133.2121,-10 142.2509,-10 150.7485,-10"/>
<polygon fill="#000000" stroke="#000000" points="124.1425,-6.5001 114.1425,-10 124.1425,-13.5001 124.1425,-6.5001"/>
</g>
<!-- Node2 -->
<g id="node3" class="node">
<title>Node2</title>
<g id="a_node3"><a xlink:href="group__TrilinosWrappers.html" target="_top" xlink:title="TrilinosWrappers">
<polygon fill="#ffffff" stroke="#000000" points="394,-.5 394,-19.5 484,-19.5 484,-.5 394,-.5"/>
<text text-anchor="middle" x="439" y="-7.5" font-family="Helvetica,sans-Serif" font-size="10.00" fill="#000000">TrilinosWrappers</text>
</a>
</g>
</g>
<!-- Node0&#45;&gt;Node2 -->
<g id="edge2" class="edge">
<title>Node0&#45;&gt;Node2</title>
<path fill="none" stroke="#ffa500" stroke-dasharray="5,2" d="M242.1124,-10C285.4676,-10 350.3047,-10 393.5921,-10"/>
<text text-anchor="start" x="260" y="-24" font-family="Helvetica,sans-Serif" font-size="10.00" fill="#000000">TrilinosWrappers::Sparsity</text>
<text text-anchor="middle" x="318" y="-13" font-family="Helvetica,sans-Serif" font-size="10.00" fill="#000000">Pattern</text>
</g>
</g>
</svg>
