<?xml version="1.0" encoding="UTF-8" standalone="no"?>
<!DOCTYPE svg PUBLIC "-//W3C//DTD SVG 1.1//EN"
 "http://www.w3.org/Graphics/SVG/1.1/DTD/svg11.dtd">
<!-- Generated by graphviz version 2.40.1 (20161225.0304)
 -->
<!-- Title: PETScWrappers Pages: 1 -->
<!--zoomable 358 -->
<svg id="main" version="1.1" xmlns="http://www.w3.org/2000/svg" xmlns:xlink="http://www.w3.org/1999/xlink" xml:space="preserve" onload="init(evt)">
<style type="text/css"><![CDATA[
.edge:hover path { stroke: red; }
.edge:hover polygon { stroke: red; fill: red; }
]]></style>
<script type="text/javascript"><![CDATA[
var edges = document.getElementsByTagName('g');
if (edges && edges.length) {
  for (var i=0;i<edges.length;i++) {
    if (edges[i].id.substr(0,4)=='edge') {
      edges[i].setAttribute('class','edge');
    }
  }
}
]]></script>
        <defs>
                <circle id="rim" cx="0" cy="0" r="7"/>
                <circle id="rim2" cx="0" cy="0" r="3.5"/>
                <g id="zoomPlus">
                        <use xlink:href="#rim" fill="#404040">
                                <set attributeName="fill" to="#808080" begin="zoomplus.mouseover" end="zoomplus.mouseout"/>
                        </use>
                        <path d="M-4,0h8M0,-4v8" fill="none" stroke="white" stroke-width="1.5" pointer-events="none"/>
                </g>
                <g id="zoomMin">
                        <use xlink:href="#rim" fill="#404040">
                                <set attributeName="fill" to="#808080" begin="zoomminus.mouseover" end="zoomminus.mouseout"/>
                        </use>
                        <path d="M-4,0h8" fill="none" stroke="white" stroke-width="1.5" pointer-events="none"/>
                </g>
                <g id="dirArrow">
                        <path fill="none" stroke="white" stroke-width="1.5" d="M0,-3.0v7 M-2.5,-0.5L0,-3.0L2.5,-0.5"/>
                </g>
               <g id="resetDef">
                       <use xlink:href="#rim2" fill="#404040">
                               <set attributeName="fill" to="#808080" begin="reset.mouseover" end="reset.mouseout"/>
                       </use>
               </g>
        </defs>

<script type="text/javascript">
var viewWidth = 566;
var viewHeight = 358;
var sectionId = 'dynsection-0';
</script>
<script xlink:href="svgpan.js"/>
<svg id="graph" class="graph">
<g id="viewport">
<title>PETScWrappers</title>
<polygon fill="#ffffff" stroke="transparent" points="-4,4 -4,-354.2795 562,-354.2795 562,4 -4,4"/>
<!-- Node4 -->
<g id="node1" class="node">
<title>Node4</title>
<g id="a_node1"><a xlink:href="group__Vectors.html" target="_top" xlink:title="Vector classes">
<polygon fill="#ffffff" stroke="#000000" points="445.5,-282.7795 445.5,-301.7795 527.5,-301.7795 527.5,-282.7795 445.5,-282.7795"/>
<text text-anchor="middle" x="486.5" y="-289.7795" font-family="Helvetica,sans-Serif" font-size="10.00" fill="#000000">Vector classes</text>
</a>
</g>
</g>
<!-- Node2 -->
<g id="node2" class="node">
<title>Node2</title>
<g id="a_node2"><a xlink:href="group__SLEPcWrappers.html" target="_top" xlink:title="SLEPcWrappers">
<polygon fill="#ffffff" stroke="#000000" points="442,-230.7795 442,-249.7795 531,-249.7795 531,-230.7795 442,-230.7795"/>
<text text-anchor="middle" x="486.5" y="-237.7795" font-family="Helvetica,sans-Serif" font-size="10.00" fill="#000000">SLEPcWrappers</text>
</a>
</g>
</g>
<!-- Node7 -->
<g id="node3" class="node">
<title>Node7</title>
<g id="a_node3"><a xlink:href="group__VMemory.html" target="_top" xlink:title="Vector memory management">
<polygon fill="#ffffff" stroke="#000000" points="415,-192.7795 415,-211.7795 558,-211.7795 558,-192.7795 415,-192.7795"/>
<text text-anchor="middle" x="486.5" y="-199.7795" font-family="Helvetica,sans-Serif" font-size="10.00" fill="#000000">Vector memory management</text>
</a>
</g>
</g>
<!-- Node1 -->
<g id="node4" class="node">
<title>Node1</title>
<g id="a_node4"><a xlink:href="group__LAC.html" target="_top" xlink:title="Linear algebra classes">
<polygon fill="#ffffff" stroke="#000000" points="0,-192.7795 0,-211.7795 114,-211.7795 114,-192.7795 0,-192.7795"/>
<text text-anchor="middle" x="57" y="-199.7795" font-family="Helvetica,sans-Serif" font-size="10.00" fill="#000000">Linear algebra classes</text>
</a>
</g>
</g>
<!-- Node0 -->
<g id="node5" class="node">
<title>Node0</title>
<polygon fill="#bfbfbf" stroke="#000000" points="151,-192.7795 151,-211.7795 241,-211.7795 241,-192.7795 151,-192.7795"/>
<text text-anchor="middle" x="196" y="-199.7795" font-family="Helvetica,sans-Serif" font-size="10.00" fill="#000000">PETScWrappers</text>
</g>
<!-- Node1&#45;&gt;Node0 -->
<g id="edge1" class="edge">
<title>Node1&#45;&gt;Node0</title>
<path fill="none" stroke="#000000" d="M124.3599,-202.2795C133.2809,-202.2795 142.2491,-202.2795 150.6755,-202.2795"/>
<polygon fill="#000000" stroke="#000000" points="124.3392,-198.7796 114.3391,-202.2795 124.3391,-205.7796 124.3392,-198.7796"/>
</g>
<!-- Node0&#45;&gt;Node4 -->
<g id="edge4" class="edge">
<title>Node0&#45;&gt;Node4</title>
<path fill="none" stroke="#ffa500" stroke-dasharray="5,2" d="M199.9713,-211.8522C208.0301,-229.8672 228.194,-268.4205 259,-284.2795 318.032,-314.6694 397.5606,-308.6179 445.261,-300.8665"/>
<text text-anchor="start" x="279" y="-342.2795" font-family="Helvetica,sans-Serif" font-size="10.00" fill="#000000">PETScWrappers::MPI</text>
<text text-anchor="middle" x="328" y="-331.2795" font-family="Helvetica,sans-Serif" font-size="10.00" fill="#000000">::BlockVector</text>
<text text-anchor="start" x="279" y="-320.2795" font-family="Helvetica,sans-Serif" font-size="10.00" fill="#000000">PETScWrappers::MPI</text>
<text text-anchor="middle" x="328" y="-309.2795" font-family="Helvetica,sans-Serif" font-size="10.00" fill="#000000">::Vector</text>
</g>
<!-- Node0&#45;&gt;Node4 -->
<g id="edge5" class="edge">
<title>Node0&#45;&gt;Node4</title>
<path fill="none" stroke="#8a2be2" stroke-dasharray="5,2" d="M209.8334,-211.8724C222.1667,-219.9472 241.0021,-231.1337 259,-237.2795 317.7108,-257.3276 336.9987,-242.5084 397,-258.2795 420.9526,-264.5754 447.3419,-275.0603 465.2173,-282.7252"/>
<text text-anchor="middle" x="328" y="-272.2795" font-family="Helvetica,sans-Serif" font-size="10.00" fill="#000000">PETScWrappers</text>
<text text-anchor="middle" x="328" y="-261.2795" font-family="Helvetica,sans-Serif" font-size="10.00" fill="#000000">internal</text>
</g>
<!-- Node0&#45;&gt;Node2 -->
<g id="edge2" class="edge">
<title>Node0&#45;&gt;Node2</title>
<path fill="none" stroke="#000000" d="M250.9284,-212.9916C253.6545,-213.4449 256.3565,-213.8773 259,-214.2795 322.275,-223.9078 395.9434,-231.7091 441.9055,-236.1732"/>
<polygon fill="#000000" stroke="#000000" points="251.4625,-209.5321 241.012,-211.2749 250.2684,-216.4295 251.4625,-209.5321"/>
</g>
<!-- Node0&#45;&gt;Node7 -->
<g id="edge8" class="edge">
<title>Node0&#45;&gt;Node7</title>
<path fill="none" stroke="#8a2be2" stroke-dasharray="5,2" d="M241.0719,-202.2795C287.5275,-202.2795 360.6393,-202.2795 414.9964,-202.2795"/>
<text text-anchor="middle" x="328" y="-205.2795" font-family="Helvetica,sans-Serif" font-size="10.00" fill="#000000">internal</text>
</g>
<!-- Node5 -->
<g id="node6" class="node">
<title>Node5</title>
<g id="a_node6"><a xlink:href="group__feaccess.html" target="_top" xlink:title="Finite element access\l/FEValues classes">
<polygon fill="#ffffff" stroke="#000000" points="430,-143.2795 430,-173.2795 543,-173.2795 543,-143.2795 430,-143.2795"/>
<text text-anchor="start" x="438" y="-161.2795" font-family="Helvetica,sans-Serif" font-size="10.00" fill="#000000">Finite element access</text>
<text text-anchor="middle" x="486.5" y="-150.2795" font-family="Helvetica,sans-Serif" font-size="10.00" fill="#000000">/FEValues classes</text>
</a>
</g>
</g>
<!-- Node0&#45;&gt;Node5 -->
<g id="edge6" class="edge">
<title>Node0&#45;&gt;Node5</title>
<path fill="none" stroke="#8a2be2" stroke-dasharray="5,2" d="M233.1713,-192.7329C241.626,-190.7559 250.5936,-188.8115 259,-187.2795 316.7772,-176.75 383.4993,-168.7268 429.6781,-163.8174"/>
<text text-anchor="middle" x="328" y="-190.2795" font-family="Helvetica,sans-Serif" font-size="10.00" fill="#000000">internal</text>
</g>
<!-- Node3 -->
<g id="node7" class="node">
<title>Node3</title>
<g id="a_node7"><a xlink:href="group__Matrix1.html" target="_top" xlink:title="Basic matrices">
<polygon fill="#ffffff" stroke="#000000" points="445.5,-47.7795 445.5,-66.7795 527.5,-66.7795 527.5,-47.7795 445.5,-47.7795"/>
<text text-anchor="middle" x="486.5" y="-54.7795" font-family="Helvetica,sans-Serif" font-size="10.00" fill="#000000">Basic matrices</text>
</a>
</g>
</g>
<!-- Node0&#45;&gt;Node3 -->
<g id="edge3" class="edge">
<title>Node0&#45;&gt;Node3</title>
<path fill="none" stroke="#ffa500" stroke-dasharray="5,2" d="M197.562,-192.617C202.0604,-168.2779 217.4859,-104.3915 259,-76.2795 314.6259,-38.6116 396.3244,-42.4949 445.1839,-49.4196"/>
<text text-anchor="start" x="259" y="-156.2795" font-family="Helvetica,sans-Serif" font-size="10.00" fill="#000000">PETScWrappers::MPI</text>
<text text-anchor="middle" x="328" y="-145.2795" font-family="Helvetica,sans-Serif" font-size="10.00" fill="#000000">::BlockSparseMatrix</text>
<text text-anchor="middle" x="328" y="-134.2795" font-family="Helvetica,sans-Serif" font-size="10.00" fill="#000000">PETScWrappers::FullMatrix</text>
<text text-anchor="middle" x="328" y="-123.2795" font-family="Helvetica,sans-Serif" font-size="10.00" fill="#000000">PETScWrappers::MatrixBase</text>
<text text-anchor="middle" x="328" y="-112.2795" font-family="Helvetica,sans-Serif" font-size="10.00" fill="#000000">PETScWrappers::MatrixFree</text>
<text text-anchor="middle" x="328" y="-101.2795" font-family="Helvetica,sans-Serif" font-size="10.00" fill="#000000">PETScWrappers::SparseMatrix</text>
<text text-anchor="start" x="259" y="-90.2795" font-family="Helvetica,sans-Serif" font-size="10.00" fill="#000000">PETScWrappers::MPI</text>
<text text-anchor="middle" x="328" y="-79.2795" font-family="Helvetica,sans-Serif" font-size="10.00" fill="#000000">::SparseMatrix</text>
</g>
<!-- Node6 -->
<g id="node8" class="node">
<title>Node6</title>
<g id="a_node8"><a xlink:href="group__Solvers.html" target="_top" xlink:title="Linear solver classes">
<polygon fill="#ffffff" stroke="#000000" points="432,-9.7795 432,-28.7795 541,-28.7795 541,-9.7795 432,-9.7795"/>
<text text-anchor="middle" x="486.5" y="-16.7795" font-family="Helvetica,sans-Serif" font-size="10.00" fill="#000000">Linear solver classes</text>
</a>
</g>
</g>
<!-- Node0&#45;&gt;Node6 -->
<g id="edge7" class="edge">
<title>Node0&#45;&gt;Node6</title>
<path fill="none" stroke="#8a2be2" stroke-dasharray="5,2" d="M198.1069,-192.4843C205.5023,-159.0866 231.3293,-50.6248 259,-30.2795 315.0701,10.9469 401.5731,.6862 450.1619,-9.7527"/>
<text text-anchor="middle" x="328" y="-33.2795" font-family="Helvetica,sans-Serif" font-size="10.00" fill="#000000">internal</text>
</g>
</g>
</svg>
        <g id="navigator" transform="translate(0 0)" fill="#404254">
                <rect fill="#f2f5e9" fill-opacity="0.5" stroke="#606060" stroke-width=".5" x="0" y="0" width="60" height="60"/>
                <use id="zoomplus" xlink:href="#zoomPlus" x="17" y="9" onmousedown="handleZoom(evt,'in')"/>
                <use id="zoomminus" xlink:href="#zoomMin" x="42" y="9" onmousedown="handleZoom(evt,'out')"/>
                <use id="reset" xlink:href="#resetDef" x="30" y="36" onmousedown="handleReset()"/>
                <g id="arrowUp" xlink:href="#dirArrow" transform="translate(30 24)" onmousedown="handlePan(0,-1)">
                  <use xlink:href="#rim" fill="#404040">
                        <set attributeName="fill" to="#808080" begin="arrowUp.mouseover" end="arrowUp.mouseout"/>
                  </use>
                  <path fill="none" stroke="white" stroke-width="1.5" d="M0,-3.0v7 M-2.5,-0.5L0,-3.0L2.5,-0.5"/>
                </g>
                <g id="arrowRight" xlink:href="#dirArrow" transform="rotate(90) translate(36 -43)" onmousedown="handlePan(1,0)">
                  <use xlink:href="#rim" fill="#404040">
                        <set attributeName="fill" to="#808080" begin="arrowRight.mouseover" end="arrowRight.mouseout"/>
                  </use>
                  <path fill="none" stroke="white" stroke-width="1.5" d="M0,-3.0v7 M-2.5,-0.5L0,-3.0L2.5,-0.5"/>
                </g>
                <g id="arrowDown" xlink:href="#dirArrow" transform="rotate(180) translate(-30 -48)" onmousedown="handlePan(0,1)">
                  <use xlink:href="#rim" fill="#404040">
                        <set attributeName="fill" to="#808080" begin="arrowDown.mouseover" end="arrowDown.mouseout"/>
                  </use>
                  <path fill="none" stroke="white" stroke-width="1.5" d="M0,-3.0v7 M-2.5,-0.5L0,-3.0L2.5,-0.5"/>
                </g>
                <g id="arrowLeft" xlink:href="#dirArrow" transform="rotate(270) translate(-36 17)" onmousedown="handlePan(-1,0)">
                  <use xlink:href="#rim" fill="#404040">
                        <set attributeName="fill" to="#808080" begin="arrowLeft.mouseover" end="arrowLeft.mouseout"/>
                  </use>
                  <path fill="none" stroke="white" stroke-width="1.5" d="M0,-3.0v7 M-2.5,-0.5L0,-3.0L2.5,-0.5"/>
                </g>
        </g>
        <svg viewBox="0 0 15 15" width="100%" height="30px" preserveAspectRatio="xMaxYMin meet">
         <g id="arrow_out" transform="scale(0.3 0.3)">
          <a xlink:href="group__PETScWrappers_org.svg" target="_base">
           <rect id="button" ry="5" rx="5" y="6" x="6" height="38" width="38"
                fill="#f2f5e9" fill-opacity="0.5" stroke="#606060" stroke-width="1.0"/>
           <path id="arrow"
             d="M 11.500037,31.436501 C 11.940474,20.09759 22.043105,11.32322 32.158766,21.979434 L 37.068811,17.246167 C 37.068811,17.246167 37.088388,32 37.088388,32 L 22.160133,31.978069 C 22.160133,31.978069 26.997745,27.140456 26.997745,27.140456 C 18.528582,18.264221 13.291696,25.230495 11.500037,31.436501 z"
             style="fill:#404040;"/>
          </a>
         </g>
        </svg>
</svg>
