<?xml version="1.0" encoding="UTF-8" standalone="no"?>
<!DOCTYPE svg PUBLIC "-//W3C//DTD SVG 1.1//EN"
 "http://www.w3.org/Graphics/SVG/1.1/DTD/svg11.dtd">
<!-- Generated by graphviz version 2.40.1 (20161225.0304)
 -->
<!-- Title: Constraints on degrees of freedom Pages: 1 -->
<svg width="344pt" height="39pt"
 viewBox="0.00 0.00 344.00 39.00" xmlns="http://www.w3.org/2000/svg" xmlns:xlink="http://www.w3.org/1999/xlink">
<g id="graph0" class="graph" transform="scale(1 1) rotate(0) translate(4 35)">
<title>Constraints on degrees of freedom</title>
<polygon fill="#ffffff" stroke="transparent" points="-4,4 -4,-35 340,-35 340,4 -4,4"/>
<!-- Node0 -->
<g id="node1" class="node">
<title>Node0</title>
<polygon fill="#bfbfbf" stroke="#000000" points="0,-.5 0,-30.5 118,-30.5 118,-.5 0,-.5"/>
<text text-anchor="start" x="8" y="-18.5" font-family="Helvetica,sans-Serif" font-size="10.00" fill="#000000">Constraints on degrees</text>
<text text-anchor="middle" x="59" y="-7.5" font-family="Helvetica,sans-Serif" font-size="10.00" fill="#000000"> of freedom</text>
</g>
<!-- Node1 -->
<g id="node2" class="node">
<title>Node1</title>
<g id="a_node2"><a xlink:href="group__dofs.html" target="_top" xlink:title="Degrees of Freedom">
<polygon fill="#ffffff" stroke="#000000" points="230,-6 230,-25 336,-25 336,-6 230,-6"/>
<text text-anchor="middle" x="283" y="-13" font-family="Helvetica,sans-Serif" font-size="10.00" fill="#000000">Degrees of Freedom</text>
</a>
</g>
</g>
<!-- Node0&#45;&gt;Node1 -->
<g id="edge2" class="edge">
<title>Node0&#45;&gt;Node1</title>
<path fill="none" stroke="#ffa500" stroke-dasharray="5,2" d="M118.1464,-15.5C152.7545,-15.5 196.0987,-15.5 229.656,-15.5"/>
<text text-anchor="middle" x="174" y="-18.5" font-family="Helvetica,sans-Serif" font-size="10.00" fill="#000000">AffineConstraints</text>
</g>
<!-- Node1&#45;&gt;Node0 -->
<g id="edge1" class="edge">
<title>Node1&#45;&gt;Node0</title>
<path fill="none" stroke="#000000" d="M219.7339,-13.6272C217.1215,-13.5786 214.5354,-13.5357 212,-13.5 178.2256,-13.0244 169.7749,-13.0614 136,-13.5 130.2503,-13.5747 124.2597,-13.6807 118.2713,-13.8054"/>
<polygon fill="#000000" stroke="#000000" points="219.8171,-17.1297 229.8885,-13.8407 219.9643,-10.1312 219.8171,-17.1297"/>
</g>
</g>
</svg>
