<?xml version="1.0" encoding="UTF-8" standalone="no"?>
<!DOCTYPE svg PUBLIC "-//W3C//DTD SVG 1.1//EN"
 "http://www.w3.org/Graphics/SVG/1.1/DTD/svg11.dtd">
<!-- Generated by graphviz version 2.40.1 (20161225.0304)
 -->
<!-- Title: Parallel computing Pages: 1 -->
<svg width="293pt" height="100pt"
 viewBox="0.00 0.00 293.00 99.50" xmlns="http://www.w3.org/2000/svg" xmlns:xlink="http://www.w3.org/1999/xlink">
<g id="graph0" class="graph" transform="scale(1 1) rotate(0) translate(4 95.5)">
<title>Parallel computing</title>
<polygon fill="#ffffff" stroke="transparent" points="-4,4 -4,-95.5 289,-95.5 289,4 -4,4"/>
<!-- Node0 -->
<g id="node1" class="node">
<title>Node0</title>
<polygon fill="#bfbfbf" stroke="#000000" points="0,-38.5 0,-57.5 97,-57.5 97,-38.5 0,-38.5"/>
<text text-anchor="middle" x="48.5" y="-45.5" font-family="Helvetica,sans-Serif" font-size="10.00" fill="#000000">Parallel computing</text>
</g>
<!-- Node1 -->
<g id="node2" class="node">
<title>Node1</title>
<g id="a_node2"><a xlink:href="group__distributed.html" target="_top" xlink:title="A module discussing the use of parallelism on distributed memory é›†ç¾¤ã€‚ ">
<polygon fill="#ffffff" stroke="#000000" points="133,-61 133,-91 285,-91 285,-61 133,-61"/>
<text text-anchor="start" x="141" y="-79" font-family="Helvetica,sans-Serif" font-size="10.00" fill="#000000">Parallel computing</text>
<text text-anchor="middle" x="209" y="-68" font-family="Helvetica,sans-Serif" font-size="10.00" fill="#000000"> with multiple processors using</text>
</a>
</g>
</g>
<!-- Node0&#45;&gt;Node1 -->
<g id="edge1" class="edge">
<title>Node0&#45;&gt;Node1</title>
<path fill="none" stroke="#000000" d="M107.0734,-58.2184C115.4166,-59.6739 124.0978,-61.1884 132.7178,-62.6922"/>
<polygon fill="#000000" stroke="#000000" points="107.5436,-54.7477 97.0908,-56.4769 106.3405,-61.6435 107.5436,-54.7477"/>
</g>
<!-- Node2 -->
<g id="node3" class="node">
<title>Node2</title>
<g id="a_node3"><a xlink:href="group__threads.html" target="_top" xlink:title="A module discussing the use of parallelism on shared memory æœºå™¨ã€‚å‚è§è¯¦ç»†çš„æ–‡æ¡£å’Œ ç›®å½• ï¼Œä¸‹é¢æ˜¯è¯¥æ¨¡åÂ...">
<polygon fill="#ffffff" stroke="#000000" points="146.5,-.5 146.5,-41.5 271.5,-41.5 271.5,-.5 146.5,-.5"/>
<text text-anchor="start" x="154.5" y="-29.5" font-family="Helvetica,sans-Serif" font-size="10.00" fill="#000000">Parallel computing</text>
<text text-anchor="start" x="154.5" y="-18.5" font-family="Helvetica,sans-Serif" font-size="10.00" fill="#000000"> with multiple processors</text>
<text text-anchor="middle" x="209" y="-7.5" font-family="Helvetica,sans-Serif" font-size="10.00" fill="#000000"> accessing</text>
</a>
</g>
</g>
<!-- Node0&#45;&gt;Node2 -->
<g id="edge2" class="edge">
<title>Node0&#45;&gt;Node2</title>
<path fill="none" stroke="#000000" d="M107.123,-38.1382C119.8766,-35.9927 133.4178,-33.7148 146.3216,-31.544"/>
<polygon fill="#000000" stroke="#000000" points="106.3716,-34.7153 97.0908,-39.8258 107.5329,-41.6183 106.3716,-34.7153"/>
</g>
</g>
</svg>
