<?xml version="1.0" encoding="UTF-8" standalone="no"?>
<!DOCTYPE svg PUBLIC "-//W3C//DTD SVG 1.1//EN"
 "http://www.w3.org/Graphics/SVG/1.1/DTD/svg11.dtd">
<!-- Generated by graphviz version 2.40.1 (20161225.0304)
 -->
<!-- Title: Linear algebra classes Pages: 1 -->
<svg width="301pt" height="394pt"
 viewBox="0.00 0.00 301.00 394.00" xmlns="http://www.w3.org/2000/svg" xmlns:xlink="http://www.w3.org/1999/xlink">
<g id="graph0" class="graph" transform="scale(1 1) rotate(0) translate(4 390)">
<title>Linear algebra classes</title>
<polygon fill="#ffffff" stroke="transparent" points="-4,4 -4,-390 297,-390 297,4 -4,4"/>
<!-- Node10 -->
<g id="node1" class="node">
<title>Node10</title>
<g id="a_node1"><a xlink:href="group__Vectors.html" target="_top" xlink:title="Vector classes">
<polygon fill="#ffffff" stroke="#000000" points="180.5,-366.5 180.5,-385.5 262.5,-385.5 262.5,-366.5 180.5,-366.5"/>
<text text-anchor="middle" x="221.5" y="-373.5" font-family="Helvetica,sans-Serif" font-size="10.00" fill="#000000">Vector classes</text>
</a>
</g>
</g>
<!-- Node5 -->
<g id="node2" class="node">
<title>Node5</title>
<g id="a_node2"><a xlink:href="group__SLEPcWrappers.html" target="_top" xlink:title="SLEPcWrappers">
<polygon fill="#ffffff" stroke="#000000" points="177,-328.5 177,-347.5 266,-347.5 266,-328.5 177,-328.5"/>
<text text-anchor="middle" x="221.5" y="-335.5" font-family="Helvetica,sans-Serif" font-size="10.00" fill="#000000">SLEPcWrappers</text>
</a>
</g>
</g>
<!-- Node9 -->
<g id="node3" class="node">
<title>Node9</title>
<g id="a_node3"><a xlink:href="group__VMemory.html" target="_top" xlink:title="Vector memory management">
<polygon fill="#ffffff" stroke="#000000" points="150,-290.5 150,-309.5 293,-309.5 293,-290.5 150,-290.5"/>
<text text-anchor="middle" x="221.5" y="-297.5" font-family="Helvetica,sans-Serif" font-size="10.00" fill="#000000">Vector memory management</text>
</a>
</g>
</g>
<!-- Node1 -->
<g id="node4" class="node">
<title>Node1</title>
<g id="a_node4"><a xlink:href="group__LAOperators.html" target="_top" xlink:title="Linear Operators \&lt;h3\&gt;\lLinear Operator\&lt;/h3\&gt;">
<polygon fill="#ffffff" stroke="#000000" points="164.5,-241 164.5,-271 278.5,-271 278.5,-241 164.5,-241"/>
<text text-anchor="start" x="172.5" y="-259" font-family="Helvetica,sans-Serif" font-size="10.00" fill="#000000">Linear Operators &lt;h3&gt;</text>
<text text-anchor="middle" x="221.5" y="-248" font-family="Helvetica,sans-Serif" font-size="10.00" fill="#000000">Linear Operator&lt;/h3&gt;</text>
</a>
</g>
</g>
<!-- Node0 -->
<g id="node5" class="node">
<title>Node0</title>
<polygon fill="#bfbfbf" stroke="#000000" points="0,-180.5 0,-199.5 114,-199.5 114,-180.5 0,-180.5"/>
<text text-anchor="middle" x="57" y="-187.5" font-family="Helvetica,sans-Serif" font-size="10.00" fill="#000000">Linear algebra classes</text>
</g>
<!-- Node0&#45;&gt;Node10 -->
<g id="edge10" class="edge">
<title>Node0&#45;&gt;Node10</title>
<path fill="none" stroke="#000000" d="M62.3676,-209.6374C72.9993,-244.7407 100.1322,-318.2009 150,-357 158.7179,-363.7829 169.6476,-368.1528 180.3191,-370.9654"/>
<polygon fill="#000000" stroke="#000000" points="65.6285,-208.3142 59.4877,-199.6805 58.9041,-210.2593 65.6285,-208.3142"/>
</g>
<!-- Node0&#45;&gt;Node5 -->
<g id="edge5" class="edge">
<title>Node0&#45;&gt;Node5</title>
<path fill="none" stroke="#000000" d="M65.5154,-209.1086C79.1688,-237.5084 108.6829,-290.5544 150,-319 157.9344,-324.4626 167.3566,-328.3552 176.7139,-331.129"/>
<polygon fill="#000000" stroke="#000000" points="68.601,-207.4433 61.2104,-199.8519 62.2538,-210.3952 68.601,-207.4433"/>
</g>
<!-- Node0&#45;&gt;Node9 -->
<g id="edge9" class="edge">
<title>Node0&#45;&gt;Node9</title>
<path fill="none" stroke="#000000" d="M70.2058,-207.5725C86.6497,-228.2147 116.6684,-262.0424 150,-281 156.8104,-284.8734 164.4348,-287.9797 172.0986,-290.4645"/>
<polygon fill="#000000" stroke="#000000" points="72.9203,-205.3617 64.0194,-199.6149 67.3939,-209.6581 72.9203,-205.3617"/>
</g>
<!-- Node0&#45;&gt;Node1 -->
<g id="edge1" class="edge">
<title>Node0&#45;&gt;Node1</title>
<path fill="none" stroke="#000000" d="M86.929,-203.9131C105.0359,-212.1499 128.6722,-222.5852 150,-231 158.5627,-234.3784 167.7886,-237.7784 176.6748,-240.9357"/>
<polygon fill="#000000" stroke="#000000" points="88.0377,-200.5713 77.4883,-199.5901 85.1232,-206.9358 88.0377,-200.5713"/>
</g>
<!-- Node3 -->
<g id="node6" class="node">
<title>Node3</title>
<g id="a_node6"><a xlink:href="group__PETScWrappers.html" target="_top" xlink:title="PETScWrappers">
<polygon fill="#ffffff" stroke="#000000" points="176.5,-202.5 176.5,-221.5 266.5,-221.5 266.5,-202.5 176.5,-202.5"/>
<text text-anchor="middle" x="221.5" y="-209.5" font-family="Helvetica,sans-Serif" font-size="10.00" fill="#000000">PETScWrappers</text>
</a>
</g>
</g>
<!-- Node0&#45;&gt;Node3 -->
<g id="edge3" class="edge">
<title>Node0&#45;&gt;Node3</title>
<path fill="none" stroke="#000000" d="M124.2801,-198.9979C141.845,-201.347 160.3525,-203.8222 176.4511,-205.9752"/>
<polygon fill="#000000" stroke="#000000" points="124.4482,-195.4893 114.0725,-197.6328 123.5202,-202.4276 124.4482,-195.4893"/>
</g>
<!-- Node4 -->
<g id="node7" class="node">
<title>Node4</title>
<g id="a_node7"><a xlink:href="group__Preconditioners.html" target="_top" xlink:title="Preconditioners and\l Relaxation Operators">
<polygon fill="#ffffff" stroke="#000000" points="165.5,-153 165.5,-183 277.5,-183 277.5,-153 165.5,-153"/>
<text text-anchor="start" x="173.5" y="-171" font-family="Helvetica,sans-Serif" font-size="10.00" fill="#000000">Preconditioners and</text>
<text text-anchor="middle" x="221.5" y="-160" font-family="Helvetica,sans-Serif" font-size="10.00" fill="#000000"> Relaxation Operators</text>
</a>
</g>
</g>
<!-- Node0&#45;&gt;Node4 -->
<g id="edge4" class="edge">
<title>Node0&#45;&gt;Node4</title>
<path fill="none" stroke="#000000" d="M124.3562,-180.9919C137.9819,-179.1696 152.1718,-177.2719 165.362,-175.5078"/>
<polygon fill="#000000" stroke="#000000" points="123.5202,-177.5724 114.0725,-182.3672 124.4482,-184.5107 123.5202,-177.5724"/>
</g>
<!-- Node7 -->
<g id="node8" class="node">
<title>Node7</title>
<g id="a_node8"><a xlink:href="group__Sparsity.html" target="_top" xlink:title="Sparsity patterns">
<polygon fill="#ffffff" stroke="#000000" points="176,-114.5 176,-133.5 267,-133.5 267,-114.5 176,-114.5"/>
<text text-anchor="middle" x="221.5" y="-121.5" font-family="Helvetica,sans-Serif" font-size="10.00" fill="#000000">Sparsity patterns</text>
</a>
</g>
</g>
<!-- Node0&#45;&gt;Node7 -->
<g id="edge7" class="edge">
<title>Node0&#45;&gt;Node7</title>
<path fill="none" stroke="#000000" d="M82.9478,-175.5318C101.2835,-165.7171 126.6536,-152.9491 150,-144 160.2304,-140.0785 171.5497,-136.5562 182.1069,-133.6004"/>
<polygon fill="#000000" stroke="#000000" points="81.1697,-172.5145 74.0486,-180.3592 84.5075,-178.6675 81.1697,-172.5145"/>
</g>
<!-- Node2 -->
<g id="node9" class="node">
<title>Node2</title>
<g id="a_node9"><a xlink:href="group__Matrices.html" target="_top" xlink:title="Matrix classes">
<polygon fill="#ffffff" stroke="#000000" points="181.5,-76.5 181.5,-95.5 261.5,-95.5 261.5,-76.5 181.5,-76.5"/>
<text text-anchor="middle" x="221.5" y="-83.5" font-family="Helvetica,sans-Serif" font-size="10.00" fill="#000000">Matrix classes</text>
</a>
</g>
</g>
<!-- Node0&#45;&gt;Node2 -->
<g id="edge2" class="edge">
<title>Node0&#45;&gt;Node2</title>
<path fill="none" stroke="#000000" d="M71.207,-172.7608C88.046,-153.4437 117.8967,-122.5426 150,-105 159.5804,-99.7649 170.6812,-95.9116 181.2368,-93.0996"/>
<polygon fill="#000000" stroke="#000000" points="68.4398,-170.612 64.6211,-180.4947 73.7693,-175.1504 68.4398,-170.612"/>
</g>
<!-- Node6 -->
<g id="node10" class="node">
<title>Node6</title>
<g id="a_node10"><a xlink:href="group__Solvers.html" target="_top" xlink:title="Linear solver classes">
<polygon fill="#ffffff" stroke="#000000" points="167,-38.5 167,-57.5 276,-57.5 276,-38.5 167,-38.5"/>
<text text-anchor="middle" x="221.5" y="-45.5" font-family="Helvetica,sans-Serif" font-size="10.00" fill="#000000">Linear solver classes</text>
</a>
</g>
</g>
<!-- Node0&#45;&gt;Node6 -->
<g id="edge6" class="edge">
<title>Node0&#45;&gt;Node6</title>
<path fill="none" stroke="#000000" d="M66.146,-171.0219C80.2714,-143.7671 110,-93.8732 150,-67 155.7571,-63.1322 162.2669,-60.0507 168.9555,-57.5959"/>
<polygon fill="#000000" stroke="#000000" points="62.8651,-169.7564 61.5074,-180.2639 69.1214,-172.8964 62.8651,-169.7564"/>
</g>
<!-- Node8 -->
<g id="node11" class="node">
<title>Node8</title>
<g id="a_node11"><a xlink:href="group__TrilinosWrappers.html" target="_top" xlink:title="TrilinosWrappers">
<polygon fill="#ffffff" stroke="#000000" points="176.5,-.5 176.5,-19.5 266.5,-19.5 266.5,-.5 176.5,-.5"/>
<text text-anchor="middle" x="221.5" y="-7.5" font-family="Helvetica,sans-Serif" font-size="10.00" fill="#000000">TrilinosWrappers</text>
</a>
</g>
</g>
<!-- Node0&#45;&gt;Node8 -->
<g id="edge8" class="edge">
<title>Node0&#45;&gt;Node8</title>
<path fill="none" stroke="#000000" d="M62.7349,-170.575C73.8087,-136.531 101.4303,-66.1808 150,-29 157.6491,-23.1445 166.9531,-19.0892 176.286,-16.2819"/>
<polygon fill="#000000" stroke="#000000" points="59.3491,-169.6759 59.7154,-180.2644 66.0321,-171.7586 59.3491,-169.6759"/>
</g>
</g>
</svg>
