<?xml version="1.0" encoding="UTF-8" standalone="no"?>
<!DOCTYPE svg PUBLIC "-//W3C//DTD SVG 1.1//EN"
 "http://www.w3.org/Graphics/SVG/1.1/DTD/svg11.dtd">
<!-- Generated by graphviz version 2.40.1 (20161225.0304)
 -->
<!-- Title: Degrees of Freedom Pages: 1 -->
<svg width="433pt" height="119pt"
 viewBox="0.00 0.00 433.00 119.00" xmlns="http://www.w3.org/2000/svg" xmlns:xlink="http://www.w3.org/1999/xlink">
<g id="graph0" class="graph" transform="scale(1 1) rotate(0) translate(4 115)">
<title>Degrees of Freedom</title>
<polygon fill="#ffffff" stroke="transparent" points="-4,4 -4,-115 429,-115 429,4 -4,4"/>
<!-- Node1 -->
<g id="node1" class="node">
<title>Node1</title>
<g id="a_node1"><a xlink:href="group__constraints.html" target="_top" xlink:title="Constraints on degrees\l of freedom">
<polygon fill="#ffffff" stroke="#000000" points="307,-80.5 307,-110.5 425,-110.5 425,-80.5 307,-80.5"/>
<text text-anchor="start" x="315" y="-98.5" font-family="Helvetica,sans-Serif" font-size="10.00" fill="#000000">Constraints on degrees</text>
<text text-anchor="middle" x="366" y="-87.5" font-family="Helvetica,sans-Serif" font-size="10.00" fill="#000000"> of freedom</text>
</a>
</g>
</g>
<!-- Node2 -->
<g id="node2" class="node">
<title>Node2</title>
<g id="a_node2"><a xlink:href="group__Accessors.html" target="_top" xlink:title="Accessor classes of\l the mesh iterators">
<polygon fill="#ffffff" stroke="#000000" points="313,-.5 313,-30.5 419,-30.5 419,-.5 313,-.5"/>
<text text-anchor="start" x="321" y="-18.5" font-family="Helvetica,sans-Serif" font-size="10.00" fill="#000000">Accessor classes of</text>
<text text-anchor="middle" x="366" y="-7.5" font-family="Helvetica,sans-Serif" font-size="10.00" fill="#000000"> the mesh iterators</text>
</a>
</g>
</g>
<!-- Node0 -->
<g id="node3" class="node">
<title>Node0</title>
<polygon fill="#bfbfbf" stroke="#000000" points="0,-73 0,-92 106,-92 106,-73 0,-73"/>
<text text-anchor="middle" x="53" y="-80" font-family="Helvetica,sans-Serif" font-size="10.00" fill="#000000">Degrees of Freedom</text>
</g>
<!-- Node0&#45;&gt;Node1 -->
<g id="edge1" class="edge">
<title>Node0&#45;&gt;Node1</title>
<path fill="none" stroke="#000000" d="M113.3991,-93.3944C116.9785,-93.8265 120.532,-94.2018 124,-94.5 186.1617,-99.8455 257.6369,-99.3259 306.7036,-97.9469"/>
<polygon fill="#000000" stroke="#000000" points="113.6682,-89.8993 103.2925,-92.0431 112.7404,-96.8375 113.6682,-89.8993"/>
</g>
<!-- Node0&#45;&gt;Node1 -->
<g id="edge3" class="edge">
<title>Node0&#45;&gt;Node1</title>
<path fill="none" stroke="#ffa500" stroke-dasharray="5,2" d="M106.0794,-79.431C153.9906,-77.3366 226.3612,-75.8519 289,-81.5 294.8189,-82.0247 300.8554,-82.7681 306.8724,-83.642"/>
<text text-anchor="middle" x="206.5" y="-84.5" font-family="Helvetica,sans-Serif" font-size="10.00" fill="#000000">AffineConstraints</text>
</g>
<!-- Node0&#45;&gt;Node2 -->
<g id="edge2" class="edge">
<title>Node0&#45;&gt;Node2</title>
<path fill="none" stroke="#ffa500" stroke-dasharray="5,2" d="M62.0155,-72.9235C74.5442,-60.345 98.5645,-38.7707 124,-29.5 185.8796,-6.9462 262.5425,-6.7358 312.788,-9.9794"/>
<text text-anchor="start" x="124" y="-65.5" font-family="Helvetica,sans-Serif" font-size="10.00" fill="#000000">internal::DoFAccessorImplementation</text>
<text text-anchor="middle" x="206.5" y="-54.5" font-family="Helvetica,sans-Serif" font-size="10.00" fill="#000000">::Inheritance</text>
<text text-anchor="middle" x="206.5" y="-43.5" font-family="Helvetica,sans-Serif" font-size="10.00" fill="#000000">DoFAccessor</text>
<text text-anchor="middle" x="206.5" y="-32.5" font-family="Helvetica,sans-Serif" font-size="10.00" fill="#000000">DoFCellAccessor</text>
</g>
</g>
</svg>
