<?xml version="1.0" encoding="UTF-8" standalone="no"?>
<!DOCTYPE svg PUBLIC "-//W3C//DTD SVG 1.1//EN"
 "http://www.w3.org/Graphics/SVG/1.1/DTD/svg11.dtd">
<!-- Generated by graphviz version 2.40.1 (20161225.0304)
 -->
<!-- Title: Utility functions and classes Pages: 1 -->
<svg width="266pt" height="66pt"
 viewBox="0.00 0.00 266.00 66.00" xmlns="http://www.w3.org/2000/svg" xmlns:xlink="http://www.w3.org/1999/xlink">
<g id="graph0" class="graph" transform="scale(1 1) rotate(0) translate(4 62)">
<title>Utility functions and classes</title>
<polygon fill="#ffffff" stroke="transparent" points="-4,4 -4,-62 262,-62 262,4 -4,4"/>
<!-- Node0 -->
<g id="node1" class="node">
<title>Node0</title>
<polygon fill="#bfbfbf" stroke="#000000" points="0,-14 0,-44 104,-44 104,-14 0,-14"/>
<text text-anchor="start" x="8" y="-32" font-family="Helvetica,sans-Serif" font-size="10.00" fill="#000000">Utility functions and</text>
<text text-anchor="middle" x="52" y="-21" font-family="Helvetica,sans-Serif" font-size="10.00" fill="#000000"> classes</text>
</g>
<!-- Node2 -->
<g id="node2" class="node">
<title>Node2</title>
<g id="a_node2"><a xlink:href="group__data.html" target="_top" xlink:title="Data storage primitives">
<polygon fill="#ffffff" stroke="#000000" points="140,-38.5 140,-57.5 258,-57.5 258,-38.5 140,-38.5"/>
<text text-anchor="middle" x="199" y="-45.5" font-family="Helvetica,sans-Serif" font-size="10.00" fill="#000000">Data storage primitives</text>
</a>
</g>
</g>
<!-- Node0&#45;&gt;Node2 -->
<g id="edge2" class="edge">
<title>Node0&#45;&gt;Node2</title>
<path fill="none" stroke="#000000" d="M114.4207,-37.068C122.8733,-38.1605 131.526,-39.2789 139.9176,-40.3635"/>
<polygon fill="#000000" stroke="#000000" points="114.6068,-33.563 104.2406,-35.7522 113.7094,-40.5053 114.6068,-33.563"/>
</g>
<!-- Node1 -->
<g id="node3" class="node">
<title>Node1</title>
<g id="a_node3"><a xlink:href="group__memory.html" target="_top" xlink:title="Memory handling">
<polygon fill="#ffffff" stroke="#000000" points="153.5,-.5 153.5,-19.5 244.5,-19.5 244.5,-.5 153.5,-.5"/>
<text text-anchor="middle" x="199" y="-7.5" font-family="Helvetica,sans-Serif" font-size="10.00" fill="#000000">Memory handling</text>
</a>
</g>
</g>
<!-- Node0&#45;&gt;Node1 -->
<g id="edge1" class="edge">
<title>Node0&#45;&gt;Node1</title>
<path fill="none" stroke="#000000" d="M114.5361,-20.9171C127.5389,-19.2365 141.01,-17.4953 153.2721,-15.9104"/>
<polygon fill="#000000" stroke="#000000" points="113.7094,-17.4947 104.2406,-22.2478 114.6068,-24.437 113.7094,-17.4947"/>
</g>
</g>
</svg>
