<?xml version="1.0" encoding="UTF-8" standalone="no"?>
<!DOCTYPE svg PUBLIC "-//W3C//DTD SVG 1.1//EN"
 "http://www.w3.org/Graphics/SVG/1.1/DTD/svg11.dtd">
<!-- Generated by graphviz version 2.40.1 (20161225.0304)
 -->
<!-- Title: Base classes Pages: 1 -->
<svg width="450pt" height="88pt"
 viewBox="0.00 0.00 450.00 88.00" xmlns="http://www.w3.org/2000/svg" xmlns:xlink="http://www.w3.org/1999/xlink">
<g id="graph0" class="graph" transform="scale(1 1) rotate(0) translate(4 84)">
<title>Base classes</title>
<polygon fill="#ffffff" stroke="transparent" points="-4,4 -4,-84 446,-84 446,4 -4,4"/>
<!-- Node0 -->
<g id="node1" class="node">
<title>Node0</title>
<polygon fill="#bfbfbf" stroke="#000000" points="129,-30 129,-49 209,-49 209,-30 129,-30"/>
<text text-anchor="middle" x="169" y="-37" font-family="Helvetica,sans-Serif" font-size="10.00" fill="#000000">Base classes</text>
</g>
<!-- Node3 -->
<g id="node3" class="node">
<title>Node3</title>
<g id="a_node3"><a xlink:href="group__vector__valued.html" target="_top" xlink:title="Handling vector valued\l problems">
<polygon fill="#ffffff" stroke="#000000" points="312,-49.5 312,-79.5 442,-79.5 442,-49.5 312,-49.5"/>
<text text-anchor="start" x="320" y="-67.5" font-family="Helvetica,sans-Serif" font-size="10.00" fill="#000000">Handling vector valued</text>
<text text-anchor="middle" x="377" y="-56.5" font-family="Helvetica,sans-Serif" font-size="10.00" fill="#000000"> problems</text>
</a>
</g>
</g>
<!-- Node0&#45;&gt;Node3 -->
<g id="edge3" class="edge">
<title>Node0&#45;&gt;Node3</title>
<path fill="none" stroke="#ffa500" stroke-dasharray="5,2" d="M209.1045,-44.3203C238.1452,-47.8107 278.0383,-52.6056 311.6513,-56.6456"/>
<text text-anchor="middle" x="260.5" y="-56.5" font-family="Helvetica,sans-Serif" font-size="10.00" fill="#000000">FESystem</text>
</g>
<!-- Node2 -->
<g id="node4" class="node">
<title>Node2</title>
<g id="a_node4"><a xlink:href="group__fe.html" target="_top" xlink:title="Finite element space\l descriptions">
<polygon fill="#ffffff" stroke="#000000" points="318,-.5 318,-30.5 436,-30.5 436,-.5 318,-.5"/>
<text text-anchor="start" x="326" y="-18.5" font-family="Helvetica,sans-Serif" font-size="10.00" fill="#000000">Finite element space</text>
<text text-anchor="middle" x="377" y="-7.5" font-family="Helvetica,sans-Serif" font-size="10.00" fill="#000000"> descriptions</text>
</a>
</g>
</g>
<!-- Node0&#45;&gt;Node2 -->
<g id="edge2" class="edge">
<title>Node0&#45;&gt;Node2</title>
<path fill="none" stroke="#ffa500" stroke-dasharray="5,2" d="M192.8773,-29.9888C203.1997,-26.322 215.5223,-22.5287 227,-20.5 256.6355,-15.2619 290.063,-13.7326 317.8283,-13.6317"/>
<text text-anchor="middle" x="260.5" y="-34.5" font-family="Helvetica,sans-Serif" font-size="10.00" fill="#000000">FiniteElement</text>
<text text-anchor="middle" x="260.5" y="-23.5" font-family="Helvetica,sans-Serif" font-size="10.00" fill="#000000">FESystem</text>
</g>
<!-- Node1 -->
<g id="node2" class="node">
<title>Node1</title>
<g id="a_node2"><a xlink:href="group__feall.html" target="_top" xlink:title="Finite elements">
<polygon fill="#ffffff" stroke="#000000" points="0,-30 0,-49 92,-49 92,-30 0,-30"/>
<text text-anchor="middle" x="46" y="-37" font-family="Helvetica,sans-Serif" font-size="10.00" fill="#000000">Finite elements</text>
</a>
</g>
</g>
<!-- Node1&#45;&gt;Node0 -->
<g id="edge1" class="edge">
<title>Node1&#45;&gt;Node0</title>
<path fill="none" stroke="#000000" d="M102.4268,-39.5C111.2734,-39.5 120.261,-39.5 128.6507,-39.5"/>
<polygon fill="#000000" stroke="#000000" points="102.1506,-36.0001 92.1506,-39.5 102.1506,-43.0001 102.1506,-36.0001"/>
</g>
</g>
</svg>
