<?xml version="1.0" encoding="UTF-8" standalone="no"?>
<!DOCTYPE svg PUBLIC "-//W3C//DTD SVG 1.1//EN"
 "http://www.w3.org/Graphics/SVG/1.1/DTD/svg11.dtd">
<!-- Generated by graphviz version 2.40.1 (20161225.0304)
 -->
<!-- Title: DataOutBase::Deal_II_IntermediateFlags Pages: 1 -->
<svg width="258pt" height="185pt"
 viewBox="0.00 0.00 257.50 185.00" xmlns="http://www.w3.org/2000/svg" xmlns:xlink="http://www.w3.org/1999/xlink">
<g id="graph0" class="graph" transform="scale(1 1) rotate(0) translate(4 181)">
<title>DataOutBase::Deal_II_IntermediateFlags</title>
<polygon fill="#ffffff" stroke="transparent" points="-4,4 -4,-181 253.5,-181 253.5,4 -4,4"/>
<!-- Node0 -->
<g id="node1" class="node">
<title>Node0</title>
<polygon fill="#bfbfbf" stroke="#000000" points="35,-.5 35,-30.5 156,-30.5 156,-.5 35,-.5"/>
<text text-anchor="start" x="43" y="-18.5" font-family="Helvetica,sans-Serif" font-size="10.00" fill="#000000">DataOutBase::Deal_II</text>
<text text-anchor="middle" x="95.5" y="-7.5" font-family="Helvetica,sans-Serif" font-size="10.00" fill="#000000">_IntermediateFlags</text>
</g>
<!-- Node1 -->
<g id="node2" class="node">
<title>Node1</title>
<g id="a_node2"><a xlink:href="structDataOutBase_1_1OutputFlagsBase.html" target="_top" xlink:title="DataOutBase::OutputFlags\lBase\&lt; Deal_II_IntermediateFlags \&gt;">
<polygon fill="#ffffff" stroke="#000000" points="0,-68.5 0,-98.5 191,-98.5 191,-68.5 0,-68.5"/>
<text text-anchor="start" x="8" y="-86.5" font-family="Helvetica,sans-Serif" font-size="10.00" fill="#000000">DataOutBase::OutputFlags</text>
<text text-anchor="middle" x="95.5" y="-75.5" font-family="Helvetica,sans-Serif" font-size="10.00" fill="#000000">Base&lt; Deal_II_IntermediateFlags &gt;</text>
</a>
</g>
</g>
<!-- Node1&#45;&gt;Node0 -->
<g id="edge1" class="edge">
<title>Node1&#45;&gt;Node0</title>
<path fill="none" stroke="#191970" d="M95.5,-58.1174C95.5,-48.8378 95.5,-38.6413 95.5,-30.5492"/>
<polygon fill="#191970" stroke="#191970" points="92.0001,-58.4086 95.5,-68.4086 99.0001,-58.4086 92.0001,-58.4086"/>
</g>
<!-- Node2 -->
<g id="node3" class="node">
<title>Node2</title>
<g id="a_node3"><a xlink:href="structDataOutBase_1_1OutputFlagsBase.html" target="_top" xlink:title="DataOutBase::OutputFlags\lBase\&lt; FlagsType \&gt;">
<polygon fill="#ffffff" stroke="#000000" points="22.5,-146.5 22.5,-176.5 168.5,-176.5 168.5,-146.5 22.5,-146.5"/>
<text text-anchor="start" x="30.5" y="-164.5" font-family="Helvetica,sans-Serif" font-size="10.00" fill="#000000">DataOutBase::OutputFlags</text>
<text text-anchor="middle" x="95.5" y="-153.5" font-family="Helvetica,sans-Serif" font-size="10.00" fill="#000000">Base&lt; FlagsType &gt;</text>
</a>
</g>
</g>
<!-- Node2&#45;&gt;Node1 -->
<g id="edge2" class="edge">
<title>Node2&#45;&gt;Node1</title>
<path fill="none" stroke="#ffa500" stroke-dasharray="5,2" d="M95.5,-136.2875C95.5,-123.9187 95.5,-109.4264 95.5,-98.7592"/>
<polygon fill="#ffa500" stroke="#ffa500" points="92.0001,-136.4608 95.5,-146.4608 99.0001,-136.4608 92.0001,-136.4608"/>
<text text-anchor="middle" x="172.5" y="-120" font-family="Helvetica,sans-Serif" font-size="10.00" fill="#000000"> &lt; Deal_II_IntermediateFlags &gt;</text>
</g>
</g>
</svg>
