<?xml version="1.0" encoding="UTF-8" standalone="no"?>
<!DOCTYPE svg PUBLIC "-//W3C//DTD SVG 1.1//EN"
 "http://www.w3.org/Graphics/SVG/1.1/DTD/svg11.dtd">
<!-- Generated by graphviz version 2.40.1 (20161225.0304)
 -->
<!-- Title: internal::DataOutImplementation::ParallelData&lt; dim, spacedim &gt; Pages: 1 -->
<svg width="208pt" height="106pt"
 viewBox="0.00 0.00 208.00 106.00" xmlns="http://www.w3.org/2000/svg" xmlns:xlink="http://www.w3.org/1999/xlink">
<g id="graph0" class="graph" transform="scale(1 1) rotate(0) translate(4 102)">
<title>internal::DataOutImplementation::ParallelData&lt; dim, spacedim &gt;</title>
<polygon fill="#ffffff" stroke="transparent" points="-4,4 -4,-102 204,-102 204,4 -4,4"/>
<!-- Node0 -->
<g id="node1" class="node">
<title>Node0</title>
<polygon fill="#bfbfbf" stroke="#000000" points="10.5,-.5 10.5,-30.5 189.5,-30.5 189.5,-.5 10.5,-.5"/>
<text text-anchor="start" x="18.5" y="-18.5" font-family="Helvetica,sans-Serif" font-size="10.00" fill="#000000">internal::DataOutImplementation</text>
<text text-anchor="middle" x="100" y="-7.5" font-family="Helvetica,sans-Serif" font-size="10.00" fill="#000000">::ParallelData&lt; dim, spacedim &gt;</text>
</g>
<!-- Node1 -->
<g id="node2" class="node">
<title>Node1</title>
<g id="a_node2"><a xlink:href="structinternal_1_1DataOutImplementation_1_1ParallelDataBase.html" target="_top" xlink:title="internal::DataOutImplementation\l::ParallelDataBase\&lt; dim, spacedim \&gt;">
<polygon fill="#ffffff" stroke="#000000" points="0,-67.5 0,-97.5 200,-97.5 200,-67.5 0,-67.5"/>
<text text-anchor="start" x="8" y="-85.5" font-family="Helvetica,sans-Serif" font-size="10.00" fill="#000000">internal::DataOutImplementation</text>
<text text-anchor="middle" x="100" y="-74.5" font-family="Helvetica,sans-Serif" font-size="10.00" fill="#000000">::ParallelDataBase&lt; dim, spacedim &gt;</text>
</a>
</g>
</g>
<!-- Node1&#45;&gt;Node0 -->
<g id="edge1" class="edge">
<title>Node1&#45;&gt;Node0</title>
<path fill="none" stroke="#191970" d="M100,-57.0249C100,-48.128 100,-38.4287 100,-30.6432"/>
<polygon fill="#191970" stroke="#191970" points="96.5001,-57.2966 100,-67.2967 103.5001,-57.2967 96.5001,-57.2966"/>
</g>
</g>
</svg>
