<?xml version="1.0" encoding="UTF-8" standalone="no"?>
<!DOCTYPE svg PUBLIC "-//W3C//DTD SVG 1.1//EN"
 "http://www.w3.org/Graphics/SVG/1.1/DTD/svg11.dtd">
<!-- Generated by graphviz version 2.40.1 (20161225.0304)
 -->
<!-- Title: internal::TriangulationImplementation::CRS&lt; T &gt; Pages: 1 -->
<svg width="222pt" height="403pt"
 viewBox="0.00 0.00 221.50 403.00" xmlns="http://www.w3.org/2000/svg" xmlns:xlink="http://www.w3.org/1999/xlink">
<g id="graph0" class="graph" transform="scale(1 1) rotate(0) translate(4 399)">
<title>internal::TriangulationImplementation::CRS&lt; T &gt;</title>
<polygon fill="#ffffff" stroke="transparent" points="-4,4 -4,-399 217.5,-399 217.5,4 -4,4"/>
<!-- Node1 -->
<g id="node1" class="node">
<title>Node1</title>
<polygon fill="#bfbfbf" stroke="#000000" points="33.5,-.5 33.5,-79.5 209.5,-79.5 209.5,-.5 33.5,-.5"/>
<text text-anchor="start" x="41.5" y="-67.5" font-family="Helvetica,sans-Serif" font-size="10.00" fill="#000000">internal::TriangulationImplementation</text>
<text text-anchor="middle" x="121.5" y="-56.5" font-family="Helvetica,sans-Serif" font-size="10.00" fill="#000000">::CRS&lt; T &gt;</text>
<polyline fill="none" stroke="#000000" points="33.5,-49.5 209.5,-49.5 "/>
<text text-anchor="middle" x="121.5" y="-37.5" font-family="Helvetica,sans-Serif" font-size="10.00" fill="#000000"> </text>
<polyline fill="none" stroke="#000000" points="33.5,-30.5 209.5,-30.5 "/>
<text text-anchor="start" x="41.5" y="-18.5" font-family="Helvetica,sans-Serif" font-size="10.00" fill="#000000">+ CRS()</text>
<text text-anchor="start" x="41.5" y="-7.5" font-family="Helvetica,sans-Serif" font-size="10.00" fill="#000000">+ CRS()</text>
</g>
<!-- Node2 -->
<g id="node2" class="node">
<title>Node2</title>
<polygon fill="#ffffff" stroke="#bfbfbf" points="0,-127.5 0,-184.5 127,-184.5 127,-127.5 0,-127.5"/>
<text text-anchor="middle" x="63.5" y="-172.5" font-family="Helvetica,sans-Serif" font-size="10.00" fill="#000000">std::vector&lt; std::size_t &gt;</text>
<polyline fill="none" stroke="#bfbfbf" points="0,-165.5 127,-165.5 "/>
<text text-anchor="middle" x="63.5" y="-153.5" font-family="Helvetica,sans-Serif" font-size="10.00" fill="#000000"> </text>
<polyline fill="none" stroke="#bfbfbf" points="0,-146.5 127,-146.5 "/>
<text text-anchor="middle" x="63.5" y="-134.5" font-family="Helvetica,sans-Serif" font-size="10.00" fill="#000000"> </text>
</g>
<!-- Node2&#45;&gt;Node1 -->
<g id="edge1" class="edge">
<title>Node2&#45;&gt;Node1</title>
<path fill="none" stroke="#404040" d="M77.8371,-127.3258C83.3894,-116.2211 89.9149,-103.1701 96.2042,-90.5917"/>
<polygon fill="none" stroke="#404040" points="96.2732,-90.4534 95.3788,-83.298 101.6398,-79.7203 102.5342,-86.8758 96.2732,-90.4534"/>
<text text-anchor="middle" x="103" y="-101" font-family="Helvetica,sans-Serif" font-size="10.00" fill="#000000"> +ptr</text>
</g>
<!-- Node3 -->
<g id="node3" class="node">
<title>Node3</title>
<polygon fill="#ffffff" stroke="#bfbfbf" points="6,-232.5 6,-289.5 49,-289.5 49,-232.5 6,-232.5"/>
<text text-anchor="middle" x="27.5" y="-277.5" font-family="Helvetica,sans-Serif" font-size="10.00" fill="#000000">size_t</text>
<polyline fill="none" stroke="#bfbfbf" points="6,-270.5 49,-270.5 "/>
<text text-anchor="middle" x="27.5" y="-258.5" font-family="Helvetica,sans-Serif" font-size="10.00" fill="#000000"> </text>
<polyline fill="none" stroke="#bfbfbf" points="6,-251.5 49,-251.5 "/>
<text text-anchor="middle" x="27.5" y="-239.5" font-family="Helvetica,sans-Serif" font-size="10.00" fill="#000000"> </text>
</g>
<!-- Node3&#45;&gt;Node2 -->
<g id="edge2" class="edge">
<title>Node3&#45;&gt;Node2</title>
<path fill="none" stroke="#404040" d="M27.8261,-232.4007C28.6215,-222.8443 30.2662,-212.2717 33.5,-203 34.3936,-200.4379 35.4513,-197.8733 36.6262,-195.3376"/>
<polygon fill="none" stroke="#404040" points="36.7533,-195.0984 36.0367,-187.923 42.3846,-184.5017 43.1012,-191.6772 36.7533,-195.0984"/>
<text text-anchor="middle" x="58" y="-206" font-family="Helvetica,sans-Serif" font-size="10.00" fill="#000000"> +elements</text>
</g>
<!-- Node4 -->
<g id="node4" class="node">
<title>Node4</title>
<g id="a_node4"><a xlink:title="STL class. ">
<polygon fill="#ffffff" stroke="#bfbfbf" points="67,-232.5 67,-289.5 154,-289.5 154,-232.5 67,-232.5"/>
<text text-anchor="middle" x="110.5" y="-277.5" font-family="Helvetica,sans-Serif" font-size="10.00" fill="#000000">std::vector&lt; T &gt;</text>
<polyline fill="none" stroke="#bfbfbf" points="67,-270.5 154,-270.5 "/>
<text text-anchor="middle" x="110.5" y="-258.5" font-family="Helvetica,sans-Serif" font-size="10.00" fill="#000000"> </text>
<polyline fill="none" stroke="#bfbfbf" points="67,-251.5 154,-251.5 "/>
<text text-anchor="middle" x="110.5" y="-239.5" font-family="Helvetica,sans-Serif" font-size="10.00" fill="#000000"> </text>
</a>
</g>
</g>
<!-- Node4&#45;&gt;Node2 -->
<g id="edge3" class="edge">
<title>Node4&#45;&gt;Node2</title>
<path fill="none" stroke="#ffa500" d="M93.4621,-222.9366C87.8069,-210.3026 81.6103,-196.4592 76.3274,-184.657"/>
<polygon fill="#ffa500" stroke="#ffa500" points="90.3769,-224.6109 97.657,-232.3083 96.766,-221.751 90.3769,-224.6109"/>
<text text-anchor="middle" x="122" y="-206" font-family="Helvetica,sans-Serif" font-size="10.00" fill="#000000"> &lt; std::size_t &gt;</text>
</g>
<!-- Node5 -->
<g id="node5" class="node">
<title>Node5</title>
<polygon fill="#ffffff" stroke="#bfbfbf" points="96,-337.5 96,-394.5 125,-394.5 125,-337.5 96,-337.5"/>
<text text-anchor="middle" x="110.5" y="-382.5" font-family="Helvetica,sans-Serif" font-size="10.00" fill="#000000">T</text>
<polyline fill="none" stroke="#bfbfbf" points="96,-375.5 125,-375.5 "/>
<text text-anchor="middle" x="110.5" y="-363.5" font-family="Helvetica,sans-Serif" font-size="10.00" fill="#000000"> </text>
<polyline fill="none" stroke="#bfbfbf" points="96,-356.5 125,-356.5 "/>
<text text-anchor="middle" x="110.5" y="-344.5" font-family="Helvetica,sans-Serif" font-size="10.00" fill="#000000"> </text>
</g>
<!-- Node5&#45;&gt;Node4 -->
<g id="edge4" class="edge">
<title>Node5&#45;&gt;Node4</title>
<path fill="none" stroke="#404040" d="M110.5,-337.3083C110.5,-326.4281 110.5,-313.817 110.5,-302.0192"/>
<polygon fill="none" stroke="#404040" points="110.5001,-301.657 106.5,-295.6571 110.5,-289.657 114.5,-295.657 110.5001,-301.657"/>
<text text-anchor="middle" x="135" y="-311" font-family="Helvetica,sans-Serif" font-size="10.00" fill="#000000"> +elements</text>
</g>
<!-- Node6 -->
<g id="node6" class="node">
<title>Node6</title>
<polygon fill="#ffffff" stroke="#bfbfbf" points="145.5,-127.5 145.5,-184.5 213.5,-184.5 213.5,-127.5 145.5,-127.5"/>
<text text-anchor="middle" x="179.5" y="-172.5" font-family="Helvetica,sans-Serif" font-size="10.00" fill="#000000">vector&lt; T &gt;</text>
<polyline fill="none" stroke="#bfbfbf" points="145.5,-165.5 213.5,-165.5 "/>
<text text-anchor="middle" x="179.5" y="-153.5" font-family="Helvetica,sans-Serif" font-size="10.00" fill="#000000"> </text>
<polyline fill="none" stroke="#bfbfbf" points="145.5,-146.5 213.5,-146.5 "/>
<text text-anchor="middle" x="179.5" y="-134.5" font-family="Helvetica,sans-Serif" font-size="10.00" fill="#000000"> </text>
</g>
<!-- Node6&#45;&gt;Node1 -->
<g id="edge5" class="edge">
<title>Node6&#45;&gt;Node1</title>
<path fill="none" stroke="#404040" d="M165.1629,-127.3258C159.6106,-116.2211 153.0851,-103.1701 146.7958,-90.5917"/>
<polygon fill="none" stroke="#404040" points="146.7268,-90.4534 140.4658,-86.8758 141.3602,-79.7203 147.6212,-83.298 146.7268,-90.4534"/>
<text text-anchor="middle" x="166.5" y="-101" font-family="Helvetica,sans-Serif" font-size="10.00" fill="#000000"> +col</text>
</g>
</g>
</svg>
