<?xml version="1.0" encoding="UTF-8" standalone="no"?>
<!DOCTYPE svg PUBLIC "-//W3C//DTD SVG 1.1//EN"
 "http://www.w3.org/Graphics/SVG/1.1/DTD/svg11.dtd">
<!-- Generated by graphviz version 2.40.1 (20161225.0304)
 -->
<!-- Title: DataPostprocessorInputs::CommonInputs&lt; spacedim &gt; Pages: 1 -->
<svg width="404pt" height="398pt"
 viewBox="0.00 0.00 404.00 398.00" xmlns="http://www.w3.org/2000/svg" xmlns:xlink="http://www.w3.org/1999/xlink">
<g id="graph0" class="graph" transform="scale(1 1) rotate(0) translate(4 394)">
<title>DataPostprocessorInputs::CommonInputs&lt; spacedim &gt;</title>
<polygon fill="#ffffff" stroke="transparent" points="-4,4 -4,-394 400,-394 400,4 -4,4"/>
<!-- Node0 -->
<g id="node1" class="node">
<title>Node0</title>
<polygon fill="#bfbfbf" stroke="#000000" points="135.5,-266.5 135.5,-389.5 284.5,-389.5 284.5,-266.5 135.5,-266.5"/>
<text text-anchor="start" x="143.5" y="-377.5" font-family="Helvetica,sans-Serif" font-size="10.00" fill="#000000">DataPostprocessorInputs</text>
<text text-anchor="middle" x="210" y="-366.5" font-family="Helvetica,sans-Serif" font-size="10.00" fill="#000000">::CommonInputs&lt; spacedim &gt;</text>
<polyline fill="none" stroke="#000000" points="135.5,-359.5 284.5,-359.5 "/>
<text text-anchor="start" x="143.5" y="-347.5" font-family="Helvetica,sans-Serif" font-size="10.00" fill="#000000">+ normals</text>
<text text-anchor="start" x="143.5" y="-336.5" font-family="Helvetica,sans-Serif" font-size="10.00" fill="#000000">+ evaluation_points</text>
<text text-anchor="start" x="143.5" y="-325.5" font-family="Helvetica,sans-Serif" font-size="10.00" fill="#000000">&#45; cell</text>
<polyline fill="none" stroke="#000000" points="135.5,-318.5 284.5,-318.5 "/>
<text text-anchor="start" x="143.5" y="-306.5" font-family="Helvetica,sans-Serif" font-size="10.00" fill="#000000">+ set_cell()</text>
<text text-anchor="start" x="143.5" y="-295.5" font-family="Helvetica,sans-Serif" font-size="10.00" fill="#000000">+ set_cell()</text>
<text text-anchor="start" x="143.5" y="-284.5" font-family="Helvetica,sans-Serif" font-size="10.00" fill="#000000">+ get_cell()</text>
<text text-anchor="start" x="143.5" y="-273.5" font-family="Helvetica,sans-Serif" font-size="10.00" fill="#000000">+ get_cell()</text>
</g>
<!-- Node1 -->
<g id="node2" class="node">
<title>Node1</title>
<g id="a_node2"><a xlink:href="structDataPostprocessorInputs_1_1Scalar.html" target="_top" xlink:title="{DataPostprocessorInputs\l::Scalar\&lt; spacedim \&gt;\n|+ solution_values\l+ solution_gradients\l+ solution_hessians\l|}">
<polygon fill="#ffffff" stroke="#000000" points="0,-138.5 0,-228.5 128,-228.5 128,-138.5 0,-138.5"/>
<text text-anchor="start" x="8" y="-216.5" font-family="Helvetica,sans-Serif" font-size="10.00" fill="#000000">DataPostprocessorInputs</text>
<text text-anchor="middle" x="64" y="-205.5" font-family="Helvetica,sans-Serif" font-size="10.00" fill="#000000">::Scalar&lt; spacedim &gt;</text>
<polyline fill="none" stroke="#000000" points="0,-198.5 128,-198.5 "/>
<text text-anchor="start" x="8" y="-186.5" font-family="Helvetica,sans-Serif" font-size="10.00" fill="#000000">+ solution_values</text>
<text text-anchor="start" x="8" y="-175.5" font-family="Helvetica,sans-Serif" font-size="10.00" fill="#000000">+ solution_gradients</text>
<text text-anchor="start" x="8" y="-164.5" font-family="Helvetica,sans-Serif" font-size="10.00" fill="#000000">+ solution_hessians</text>
<polyline fill="none" stroke="#000000" points="0,-157.5 128,-157.5 "/>
<text text-anchor="middle" x="64" y="-145.5" font-family="Helvetica,sans-Serif" font-size="10.00" fill="#000000"> </text>
</a>
</g>
</g>
<!-- Node0&#45;&gt;Node1 -->
<g id="edge1" class="edge">
<title>Node0&#45;&gt;Node1</title>
<path fill="none" stroke="#191970" d="M140.4735,-259.1879C130.0571,-248.8784 119.5462,-238.4755 109.7916,-228.8211"/>
<polygon fill="none" stroke="#191970" points="138.0898,-261.753 147.6594,-266.2999 143.0139,-256.7777 138.0898,-261.753"/>
</g>
<!-- Node2 -->
<g id="node3" class="node">
<title>Node2</title>
<g id="a_node3"><a xlink:href="structDataPostprocessorInputs_1_1Vector.html" target="_top" xlink:title="{DataPostprocessorInputs\l::Vector\&lt; spacedim \&gt;\n|+ solution_values\l+ solution_gradients\l+ solution_hessians\l|}">
<polygon fill="#ffffff" stroke="#000000" points="146,-138.5 146,-228.5 274,-228.5 274,-138.5 146,-138.5"/>
<text text-anchor="start" x="154" y="-216.5" font-family="Helvetica,sans-Serif" font-size="10.00" fill="#000000">DataPostprocessorInputs</text>
<text text-anchor="middle" x="210" y="-205.5" font-family="Helvetica,sans-Serif" font-size="10.00" fill="#000000">::Vector&lt; spacedim &gt;</text>
<polyline fill="none" stroke="#000000" points="146,-198.5 274,-198.5 "/>
<text text-anchor="start" x="154" y="-186.5" font-family="Helvetica,sans-Serif" font-size="10.00" fill="#000000">+ solution_values</text>
<text text-anchor="start" x="154" y="-175.5" font-family="Helvetica,sans-Serif" font-size="10.00" fill="#000000">+ solution_gradients</text>
<text text-anchor="start" x="154" y="-164.5" font-family="Helvetica,sans-Serif" font-size="10.00" fill="#000000">+ solution_hessians</text>
<polyline fill="none" stroke="#000000" points="146,-157.5 274,-157.5 "/>
<text text-anchor="middle" x="210" y="-145.5" font-family="Helvetica,sans-Serif" font-size="10.00" fill="#000000"> </text>
</a>
</g>
</g>
<!-- Node0&#45;&gt;Node2 -->
<g id="edge2" class="edge">
<title>Node0&#45;&gt;Node2</title>
<path fill="none" stroke="#191970" d="M210,-256.2121C210,-246.8848 210,-237.5472 210,-228.8211"/>
<polygon fill="none" stroke="#191970" points="206.5001,-256.2998 210,-266.2999 213.5001,-256.2999 206.5001,-256.2998"/>
</g>
<!-- Node4 -->
<g id="node5" class="node">
<title>Node4</title>
<g id="a_node5"><a xlink:href="structDataPostprocessorInputs_1_1Vector.html" target="_top" xlink:title="{Vector\&lt; double \&gt;\n|+ solution_values\l+ solution_gradients\l+ solution_hessians\l|}">
<polygon fill="#ffffff" stroke="#000000" points="292,-144 292,-223 396,-223 396,-144 292,-144"/>
<text text-anchor="middle" x="344" y="-211" font-family="Helvetica,sans-Serif" font-size="10.00" fill="#000000">Vector&lt; double &gt;</text>
<polyline fill="none" stroke="#000000" points="292,-204 396,-204 "/>
<text text-anchor="start" x="300" y="-192" font-family="Helvetica,sans-Serif" font-size="10.00" fill="#000000">+ solution_values</text>
<text text-anchor="start" x="300" y="-181" font-family="Helvetica,sans-Serif" font-size="10.00" fill="#000000">+ solution_gradients</text>
<text text-anchor="start" x="300" y="-170" font-family="Helvetica,sans-Serif" font-size="10.00" fill="#000000">+ solution_hessians</text>
<polyline fill="none" stroke="#000000" points="292,-163 396,-163 "/>
<text text-anchor="middle" x="344" y="-151" font-family="Helvetica,sans-Serif" font-size="10.00" fill="#000000"> </text>
</a>
</g>
</g>
<!-- Node0&#45;&gt;Node4 -->
<g id="edge4" class="edge">
<title>Node0&#45;&gt;Node4</title>
<path fill="none" stroke="#191970" d="M274.2223,-258.7454C285.514,-246.5689 296.911,-234.2788 307.1277,-223.2616"/>
<polygon fill="none" stroke="#191970" points="271.4501,-256.5875 267.2167,-266.2999 276.5828,-261.3473 271.4501,-256.5875"/>
</g>
<!-- Node3 -->
<g id="node4" class="node">
<title>Node3</title>
<g id="a_node4"><a xlink:href="structDataPostprocessorInputs_1_1Vector.html" target="_top" xlink:title="{DataPostprocessorInputs\l::Vector\&lt; double \&gt;\n|+ solution_values\l+ solution_gradients\l+ solution_hessians\l|}">
<polygon fill="#ffffff" stroke="#000000" points="146,-.5 146,-90.5 274,-90.5 274,-.5 146,-.5"/>
<text text-anchor="start" x="154" y="-78.5" font-family="Helvetica,sans-Serif" font-size="10.00" fill="#000000">DataPostprocessorInputs</text>
<text text-anchor="middle" x="210" y="-67.5" font-family="Helvetica,sans-Serif" font-size="10.00" fill="#000000">::Vector&lt; double &gt;</text>
<polyline fill="none" stroke="#000000" points="146,-60.5 274,-60.5 "/>
<text text-anchor="start" x="154" y="-48.5" font-family="Helvetica,sans-Serif" font-size="10.00" fill="#000000">+ solution_values</text>
<text text-anchor="start" x="154" y="-37.5" font-family="Helvetica,sans-Serif" font-size="10.00" fill="#000000">+ solution_gradients</text>
<text text-anchor="start" x="154" y="-26.5" font-family="Helvetica,sans-Serif" font-size="10.00" fill="#000000">+ solution_hessians</text>
<polyline fill="none" stroke="#000000" points="146,-19.5 274,-19.5 "/>
<text text-anchor="middle" x="210" y="-7.5" font-family="Helvetica,sans-Serif" font-size="10.00" fill="#000000"> </text>
</a>
</g>
</g>
<!-- Node2&#45;&gt;Node3 -->
<g id="edge3" class="edge">
<title>Node2&#45;&gt;Node3</title>
<path fill="none" stroke="#ffa500" d="M210,-128.089C210,-115.7026 210,-102.7078 210,-90.7879"/>
<polygon fill="#ffa500" stroke="#ffa500" points="206.5001,-128.3136 210,-138.3136 213.5001,-128.3137 206.5001,-128.3136"/>
<text text-anchor="middle" x="235" y="-112" font-family="Helvetica,sans-Serif" font-size="10.00" fill="#000000"> &lt; double &gt;</text>
</g>
</g>
</svg>
