<?xml version="1.0" encoding="UTF-8" standalone="no"?>
<!DOCTYPE svg PUBLIC "-//W3C//DTD SVG 1.1//EN"
 "http://www.w3.org/Graphics/SVG/1.1/DTD/svg11.dtd">
<!-- Generated by graphviz version 2.40.1 (20161225.0304)
 -->
<!-- Title: DataOutBase::UcdFlags Pages: 1 -->
<svg width="242pt" height="364pt"
 viewBox="0.00 0.00 241.50 364.00" xmlns="http://www.w3.org/2000/svg" xmlns:xlink="http://www.w3.org/1999/xlink">
<g id="graph0" class="graph" transform="scale(1 1) rotate(0) translate(4 360)">
<title>DataOutBase::UcdFlags</title>
<polygon fill="#ffffff" stroke="transparent" points="-4,4 -4,-360 237.5,-360 237.5,4 -4,4"/>
<!-- Node3 -->
<g id="node1" class="node">
<title>Node3</title>
<polygon fill="#bfbfbf" stroke="#000000" points="82.5,-.5 82.5,-79.5 206.5,-79.5 206.5,-.5 82.5,-.5"/>
<text text-anchor="middle" x="144.5" y="-67.5" font-family="Helvetica,sans-Serif" font-size="10.00" fill="#000000">DataOutBase::UcdFlags</text>
<polyline fill="none" stroke="#000000" points="82.5,-60.5 206.5,-60.5 "/>
<text text-anchor="middle" x="144.5" y="-48.5" font-family="Helvetica,sans-Serif" font-size="10.00" fill="#000000"> </text>
<polyline fill="none" stroke="#000000" points="82.5,-41.5 206.5,-41.5 "/>
<text text-anchor="start" x="90.5" y="-29.5" font-family="Helvetica,sans-Serif" font-size="10.00" fill="#000000">+ UcdFlags()</text>
<text text-anchor="start" x="90.5" y="-18.5" font-family="Helvetica,sans-Serif" font-size="10.00" fill="#000000">+ parse_parameters()</text>
<text text-anchor="start" x="90.5" y="-7.5" font-family="Helvetica,sans-Serif" font-size="10.00" fill="#000000">+ declare_parameters()</text>
</g>
<!-- Node4 -->
<g id="node2" class="node">
<title>Node4</title>
<g id="a_node2"><a xlink:href="structDataOutBase_1_1OutputFlagsBase.html" target="_top" xlink:title="{DataOutBase::OutputFlags\lBase\&lt; UcdFlags \&gt;\n||+ parse_parameters()\l+ memory_consumption()\l+ declare_parameters()\l}">
<polygon fill="#ffffff" stroke="#000000" points="0,-127.5 0,-217.5 135,-217.5 135,-127.5 0,-127.5"/>
<text text-anchor="start" x="8" y="-205.5" font-family="Helvetica,sans-Serif" font-size="10.00" fill="#000000">DataOutBase::OutputFlags</text>
<text text-anchor="middle" x="67.5" y="-194.5" font-family="Helvetica,sans-Serif" font-size="10.00" fill="#000000">Base&lt; UcdFlags &gt;</text>
<polyline fill="none" stroke="#000000" points="0,-187.5 135,-187.5 "/>
<text text-anchor="middle" x="67.5" y="-175.5" font-family="Helvetica,sans-Serif" font-size="10.00" fill="#000000"> </text>
<polyline fill="none" stroke="#000000" points="0,-168.5 135,-168.5 "/>
<text text-anchor="start" x="8" y="-156.5" font-family="Helvetica,sans-Serif" font-size="10.00" fill="#000000">+ parse_parameters()</text>
<text text-anchor="start" x="8" y="-145.5" font-family="Helvetica,sans-Serif" font-size="10.00" fill="#000000">+ memory_consumption()</text>
<text text-anchor="start" x="8" y="-134.5" font-family="Helvetica,sans-Serif" font-size="10.00" fill="#000000">+ declare_parameters()</text>
</a>
</g>
</g>
<!-- Node4&#45;&gt;Node3 -->
<g id="edge1" class="edge">
<title>Node4&#45;&gt;Node3</title>
<path fill="none" stroke="#191970" d="M98.9214,-118.4307C106.4503,-105.4752 114.3532,-91.876 121.4244,-79.7081"/>
<polygon fill="none" stroke="#191970" points="95.7821,-116.8669 93.7837,-127.2716 101.8343,-120.3841 95.7821,-116.8669"/>
</g>
<!-- Node5 -->
<g id="node3" class="node">
<title>Node5</title>
<g id="a_node3"><a xlink:href="structDataOutBase_1_1OutputFlagsBase.html" target="_top" xlink:title="{DataOutBase::OutputFlags\lBase\&lt; FlagsType \&gt;\n||+ parse_parameters()\l+ memory_consumption()\l+ declare_parameters()\l}">
<polygon fill="#ffffff" stroke="#000000" points="0,-265.5 0,-355.5 135,-355.5 135,-265.5 0,-265.5"/>
<text text-anchor="start" x="8" y="-343.5" font-family="Helvetica,sans-Serif" font-size="10.00" fill="#000000">DataOutBase::OutputFlags</text>
<text text-anchor="middle" x="67.5" y="-332.5" font-family="Helvetica,sans-Serif" font-size="10.00" fill="#000000">Base&lt; FlagsType &gt;</text>
<polyline fill="none" stroke="#000000" points="0,-325.5 135,-325.5 "/>
<text text-anchor="middle" x="67.5" y="-313.5" font-family="Helvetica,sans-Serif" font-size="10.00" fill="#000000"> </text>
<polyline fill="none" stroke="#000000" points="0,-306.5 135,-306.5 "/>
<text text-anchor="start" x="8" y="-294.5" font-family="Helvetica,sans-Serif" font-size="10.00" fill="#000000">+ parse_parameters()</text>
<text text-anchor="start" x="8" y="-283.5" font-family="Helvetica,sans-Serif" font-size="10.00" fill="#000000">+ memory_consumption()</text>
<text text-anchor="start" x="8" y="-272.5" font-family="Helvetica,sans-Serif" font-size="10.00" fill="#000000">+ declare_parameters()</text>
</a>
</g>
</g>
<!-- Node5&#45;&gt;Node4 -->
<g id="edge2" class="edge">
<title>Node5&#45;&gt;Node4</title>
<path fill="none" stroke="#ffa500" d="M67.5,-255.089C67.5,-242.7026 67.5,-229.7078 67.5,-217.7879"/>
<polygon fill="#ffa500" stroke="#ffa500" points="64.0001,-255.3136 67.5,-265.3136 71.0001,-255.3137 64.0001,-255.3136"/>
<text text-anchor="middle" x="99.5" y="-239" font-family="Helvetica,sans-Serif" font-size="10.00" fill="#000000"> &lt; UcdFlags &gt;</text>
</g>
<!-- Node6 -->
<g id="node4" class="node">
<title>Node6</title>
<g id="a_node4"><a xlink:href="classbool.html" target="_top" xlink:title="{bool\n||}">
<polygon fill="#ffffff" stroke="#000000" points="153,-144 153,-201 188,-201 188,-144 153,-144"/>
<text text-anchor="middle" x="170.5" y="-189" font-family="Helvetica,sans-Serif" font-size="10.00" fill="#000000">bool</text>
<polyline fill="none" stroke="#000000" points="153,-182 188,-182 "/>
<text text-anchor="middle" x="170.5" y="-170" font-family="Helvetica,sans-Serif" font-size="10.00" fill="#000000"> </text>
<polyline fill="none" stroke="#000000" points="153,-163 188,-163 "/>
<text text-anchor="middle" x="170.5" y="-151" font-family="Helvetica,sans-Serif" font-size="10.00" fill="#000000"> </text>
</a>
</g>
</g>
<!-- Node6&#45;&gt;Node3 -->
<g id="edge3" class="edge">
<title>Node6&#45;&gt;Node3</title>
<path fill="none" stroke="#404040" d="M164.8584,-143.7495C161.8611,-128.4748 158.0856,-109.2345 154.6026,-91.4842"/>
<polygon fill="none" stroke="#404040" points="154.5618,-91.2761 149.4813,-86.1586 152.2511,-79.5006 157.3316,-84.6181 154.5618,-91.2761"/>
<text text-anchor="middle" x="195.5" y="-101" font-family="Helvetica,sans-Serif" font-size="10.00" fill="#000000"> +write_preamble</text>
</g>
</g>
</svg>
