<?xml version="1.0" encoding="UTF-8" standalone="no"?>
<!DOCTYPE svg PUBLIC "-//W3C//DTD SVG 1.1//EN"
 "http://www.w3.org/Graphics/SVG/1.1/DTD/svg11.dtd">
<!-- Generated by graphviz version 2.40.1 (20161225.0304)
 -->
<!-- Title: mystl::rb_tree_iterator_base&lt; T &gt; Pages: 1 -->
<svg width="313pt" height="408pt"
 viewBox="0.00 0.00 312.50 408.00" xmlns="http://www.w3.org/2000/svg" xmlns:xlink="http://www.w3.org/1999/xlink">
<g id="graph0" class="graph" transform="scale(1 1) rotate(0) translate(4 404)">
<title>mystl::rb_tree_iterator_base&lt; T &gt;</title>
<polygon fill="#ffffff" stroke="transparent" points="-4,4 -4,-404 308.5,-404 308.5,4 -4,4"/>
<!-- Node5 -->
<g id="node1" class="node">
<title>Node5</title>
<polygon fill="#bfbfbf" stroke="#000000" points="69.5,-.5 69.5,-112.5 192.5,-112.5 192.5,-.5 69.5,-.5"/>
<text text-anchor="start" x="77.5" y="-100.5" font-family="Helvetica,sans-Serif" font-size="10.00" fill="#000000">mystl::rb_tree_iterator</text>
<text text-anchor="middle" x="131" y="-89.5" font-family="Helvetica,sans-Serif" font-size="10.00" fill="#000000">_base&lt; T &gt;</text>
<polyline fill="none" stroke="#000000" points="69.5,-82.5 192.5,-82.5 "/>
<text text-anchor="middle" x="131" y="-70.5" font-family="Helvetica,sans-Serif" font-size="10.00" fill="#000000"> </text>
<polyline fill="none" stroke="#000000" points="69.5,-63.5 192.5,-63.5 "/>
<text text-anchor="start" x="77.5" y="-51.5" font-family="Helvetica,sans-Serif" font-size="10.00" fill="#000000">+ rb_tree_iterator_base()</text>
<text text-anchor="start" x="77.5" y="-40.5" font-family="Helvetica,sans-Serif" font-size="10.00" fill="#000000">+ inc()</text>
<text text-anchor="start" x="77.5" y="-29.5" font-family="Helvetica,sans-Serif" font-size="10.00" fill="#000000">+ dec()</text>
<text text-anchor="start" x="77.5" y="-18.5" font-family="Helvetica,sans-Serif" font-size="10.00" fill="#000000">+ operator==()</text>
<text text-anchor="start" x="77.5" y="-7.5" font-family="Helvetica,sans-Serif" font-size="10.00" fill="#000000">+ operator!=()</text>
</g>
<!-- Node6 -->
<g id="node2" class="node">
<title>Node6</title>
<g id="a_node2"><a xlink:href="structmystl_1_1iterator.html" target="_top" xlink:title="{mystl::iterator\&lt; mystl\l::bidirectional_iterator\l_tag, T \&gt;\n||}">
<polygon fill="#ffffff" stroke="#000000" points="14,-166 14,-245 124,-245 124,-166 14,-166"/>
<text text-anchor="start" x="22" y="-233" font-family="Helvetica,sans-Serif" font-size="10.00" fill="#000000">mystl::iterator&lt; mystl</text>
<text text-anchor="start" x="22" y="-222" font-family="Helvetica,sans-Serif" font-size="10.00" fill="#000000">::bidirectional_iterator</text>
<text text-anchor="middle" x="69" y="-211" font-family="Helvetica,sans-Serif" font-size="10.00" fill="#000000">_tag, T &gt;</text>
<polyline fill="none" stroke="#000000" points="14,-204 124,-204 "/>
<text text-anchor="middle" x="69" y="-192" font-family="Helvetica,sans-Serif" font-size="10.00" fill="#000000"> </text>
<polyline fill="none" stroke="#000000" points="14,-185 124,-185 "/>
<text text-anchor="middle" x="69" y="-173" font-family="Helvetica,sans-Serif" font-size="10.00" fill="#000000"> </text>
</a>
</g>
</g>
<!-- Node6&#45;&gt;Node5 -->
<g id="edge1" class="edge">
<title>Node6&#45;&gt;Node5</title>
<path fill="none" stroke="#191970" d="M89.3807,-156.5205C95.2039,-142.5262 101.5956,-127.1653 107.585,-112.7716"/>
<polygon fill="none" stroke="#191970" points="86.0625,-155.3847 85.4521,-165.9619 92.5253,-158.0739 86.0625,-155.3847"/>
</g>
<!-- Node7 -->
<g id="node3" class="node">
<title>Node7</title>
<g id="a_node3"><a xlink:href="structmystl_1_1iterator.html" target="_top" xlink:title="{mystl::iterator\&lt; Category,\l T, Distance, Pointer,\l Reference \&gt;\n||}">
<polygon fill="#ffffff" stroke="#000000" points="0,-320.5 0,-399.5 128,-399.5 128,-320.5 0,-320.5"/>
<text text-anchor="start" x="8" y="-387.5" font-family="Helvetica,sans-Serif" font-size="10.00" fill="#000000">mystl::iterator&lt; Category,</text>
<text text-anchor="start" x="8" y="-376.5" font-family="Helvetica,sans-Serif" font-size="10.00" fill="#000000"> T, Distance, Pointer,</text>
<text text-anchor="middle" x="64" y="-365.5" font-family="Helvetica,sans-Serif" font-size="10.00" fill="#000000"> Reference &gt;</text>
<polyline fill="none" stroke="#000000" points="0,-358.5 128,-358.5 "/>
<text text-anchor="middle" x="64" y="-346.5" font-family="Helvetica,sans-Serif" font-size="10.00" fill="#000000"> </text>
<polyline fill="none" stroke="#000000" points="0,-339.5 128,-339.5 "/>
<text text-anchor="middle" x="64" y="-327.5" font-family="Helvetica,sans-Serif" font-size="10.00" fill="#000000"> </text>
</a>
</g>
</g>
<!-- Node7&#45;&gt;Node6 -->
<g id="edge2" class="edge">
<title>Node7&#45;&gt;Node6</title>
<path fill="none" stroke="#ffa500" d="M65.6128,-310.1647C66.2938,-289.1202 67.0758,-264.9566 67.7167,-245.1528"/>
<polygon fill="#ffa500" stroke="#ffa500" points="62.113,-310.1044 65.2876,-320.2124 69.1093,-310.3309 62.113,-310.1044"/>
<text text-anchor="start" x="67" y="-288.5" font-family="Helvetica,sans-Serif" font-size="10.00" fill="#000000"> &lt; mystl::bidirectional</text>
<text text-anchor="middle" x="114" y="-277.5" font-family="Helvetica,sans-Serif" font-size="10.00" fill="#000000">_iterator_tag, T &gt;</text>
</g>
<!-- Node8 -->
<g id="node4" class="node">
<title>Node8</title>
<g id="a_node4"><a xlink:href="structmystl_1_1rb__tree__node__base.html" target="_top" xlink:title="{mystl::rb_tree_node\l_base\&lt; T \&gt;\n||+ get_base_ptr()\l+ get_node_ptr()\l+ get_node_ref()\l}">
<polygon fill="#ffffff" stroke="#000000" points="147.5,-160.5 147.5,-250.5 250.5,-250.5 250.5,-160.5 147.5,-160.5"/>
<text text-anchor="start" x="155.5" y="-238.5" font-family="Helvetica,sans-Serif" font-size="10.00" fill="#000000">mystl::rb_tree_node</text>
<text text-anchor="middle" x="199" y="-227.5" font-family="Helvetica,sans-Serif" font-size="10.00" fill="#000000">_base&lt; T &gt;</text>
<polyline fill="none" stroke="#000000" points="147.5,-220.5 250.5,-220.5 "/>
<text text-anchor="middle" x="199" y="-208.5" font-family="Helvetica,sans-Serif" font-size="10.00" fill="#000000"> </text>
<polyline fill="none" stroke="#000000" points="147.5,-201.5 250.5,-201.5 "/>
<text text-anchor="start" x="155.5" y="-189.5" font-family="Helvetica,sans-Serif" font-size="10.00" fill="#000000">+ get_base_ptr()</text>
<text text-anchor="start" x="155.5" y="-178.5" font-family="Helvetica,sans-Serif" font-size="10.00" fill="#000000">+ get_node_ptr()</text>
<text text-anchor="start" x="155.5" y="-167.5" font-family="Helvetica,sans-Serif" font-size="10.00" fill="#000000">+ get_node_ref()</text>
</a>
</g>
</g>
<!-- Node8&#45;&gt;Node5 -->
<g id="edge3" class="edge">
<title>Node8&#45;&gt;Node5</title>
<path fill="none" stroke="#404040" d="M178.4132,-160.3907C173.1458,-148.8489 167.3669,-136.1863 161.7106,-123.7923"/>
<polygon fill="none" stroke="#404040" points="161.5509,-123.4422 155.4208,-119.6445 156.5686,-112.5254 162.6987,-116.323 161.5509,-123.4422"/>
<text text-anchor="middle" x="185.5" y="-134" font-family="Helvetica,sans-Serif" font-size="10.00" fill="#000000"> +node</text>
</g>
<!-- Node9 -->
<g id="node5" class="node">
<title>Node9</title>
<polygon fill="#ffffff" stroke="#bfbfbf" points="146.5,-326 146.5,-394 251.5,-394 251.5,-326 146.5,-326"/>
<text text-anchor="start" x="154.5" y="-382" font-family="Helvetica,sans-Serif" font-size="10.00" fill="#000000">rb_tree_node_base&lt;</text>
<text text-anchor="middle" x="199" y="-371" font-family="Helvetica,sans-Serif" font-size="10.00" fill="#000000"> T &gt; *</text>
<polyline fill="none" stroke="#bfbfbf" points="146.5,-364 251.5,-364 "/>
<text text-anchor="middle" x="199" y="-352" font-family="Helvetica,sans-Serif" font-size="10.00" fill="#000000"> </text>
<polyline fill="none" stroke="#bfbfbf" points="146.5,-345 251.5,-345 "/>
<text text-anchor="middle" x="199" y="-333" font-family="Helvetica,sans-Serif" font-size="10.00" fill="#000000"> </text>
</g>
<!-- Node9&#45;&gt;Node8 -->
<g id="edge4" class="edge">
<title>Node9&#45;&gt;Node8</title>
<path fill="none" stroke="#404040" d="M199,-325.7114C199,-307.207 199,-283.8802 199,-262.7104"/>
<polygon fill="none" stroke="#404040" points="199.0001,-262.5479 195,-256.5479 199,-250.5479 203,-256.5479 199.0001,-262.5479"/>
<text text-anchor="middle" x="217.5" y="-294" font-family="Helvetica,sans-Serif" font-size="10.00" fill="#000000"> +parent</text>
<text text-anchor="middle" x="217.5" y="-283" font-family="Helvetica,sans-Serif" font-size="10.00" fill="#000000">+right</text>
<text text-anchor="middle" x="217.5" y="-272" font-family="Helvetica,sans-Serif" font-size="10.00" fill="#000000">+left</text>
</g>
<!-- Node10 -->
<g id="node6" class="node">
<title>Node10</title>
<g id="a_node6"><a xlink:href="classbool.html" target="_top" xlink:title="{bool\n||}">
<polygon fill="#ffffff" stroke="#000000" points="269.5,-331.5 269.5,-388.5 304.5,-388.5 304.5,-331.5 269.5,-331.5"/>
<text text-anchor="middle" x="287" y="-376.5" font-family="Helvetica,sans-Serif" font-size="10.00" fill="#000000">bool</text>
<polyline fill="none" stroke="#000000" points="269.5,-369.5 304.5,-369.5 "/>
<text text-anchor="middle" x="287" y="-357.5" font-family="Helvetica,sans-Serif" font-size="10.00" fill="#000000"> </text>
<polyline fill="none" stroke="#000000" points="269.5,-350.5 304.5,-350.5 "/>
<text text-anchor="middle" x="287" y="-338.5" font-family="Helvetica,sans-Serif" font-size="10.00" fill="#000000"> </text>
</a>
</g>
</g>
<!-- Node10&#45;&gt;Node8 -->
<g id="edge5" class="edge">
<title>Node10&#45;&gt;Node8</title>
<path fill="none" stroke="#404040" d="M273.0858,-331.3369C264.0769,-313.2265 251.854,-289.4638 240,-269 238.4748,-266.367 236.8896,-263.6901 235.2676,-260.9987"/>
<polygon fill="none" stroke="#404040" points="235.1648,-260.8314 228.6146,-257.8154 228.8794,-250.6091 235.4295,-253.6251 235.1648,-260.8314"/>
<text text-anchor="middle" x="272.5" y="-283" font-family="Helvetica,sans-Serif" font-size="10.00" fill="#000000"> +color</text>
</g>
</g>
</svg>
