<?xml version="1.0" encoding="UTF-8" standalone="no"?>
<!DOCTYPE svg PUBLIC "-//W3C//DTD SVG 1.1//EN"
 "http://www.w3.org/Graphics/SVG/1.1/DTD/svg11.dtd">
<!-- Generated by graphviz version 2.40.1 (20161225.0304)
 -->
<!-- Title: mystl::list_const_iterator&lt; T &gt; Pages: 1 -->
<!--zoomable 474 -->
<svg id="main" version="1.1" xmlns="http://www.w3.org/2000/svg" xmlns:xlink="http://www.w3.org/1999/xlink" xml:space="preserve" onload="init(evt)">
<style type="text/css"><![CDATA[
.edge:hover path { stroke: red; }
.edge:hover polygon { stroke: red; fill: red; }
]]></style>
<script type="text/javascript"><![CDATA[
var edges = document.getElementsByTagName('g');
if (edges && edges.length) {
  for (var i=0;i<edges.length;i++) {
    if (edges[i].id.substr(0,4)=='edge') {
      edges[i].setAttribute('class','edge');
    }
  }
}
]]></script>
        <defs>
                <circle id="rim" cx="0" cy="0" r="7"/>
                <circle id="rim2" cx="0" cy="0" r="3.5"/>
                <g id="zoomPlus">
                        <use xlink:href="#rim" fill="#404040">
                                <set attributeName="fill" to="#808080" begin="zoomplus.mouseover" end="zoomplus.mouseout"/>
                        </use>
                        <path d="M-4,0h8M0,-4v8" fill="none" stroke="white" stroke-width="1.5" pointer-events="none"/>
                </g>
                <g id="zoomMin">
                        <use xlink:href="#rim" fill="#404040">
                                <set attributeName="fill" to="#808080" begin="zoomminus.mouseover" end="zoomminus.mouseout"/>
                        </use>
                        <path d="M-4,0h8" fill="none" stroke="white" stroke-width="1.5" pointer-events="none"/>
                </g>
                <g id="dirArrow">
                        <path fill="none" stroke="white" stroke-width="1.5" d="M0,-3.0v7 M-2.5,-0.5L0,-3.0L2.5,-0.5"/>
                </g>
               <g id="resetDef">
                       <use xlink:href="#rim2" fill="#404040">
                               <set attributeName="fill" to="#808080" begin="reset.mouseover" end="reset.mouseout"/>
                       </use>
               </g>
        </defs>

<script type="text/javascript">
var viewWidth = 346;
var viewHeight = 474;
var sectionId = 'dynsection-1';
</script>
<script xlink:href="svgpan.js"/>
<svg id="graph" class="graph">
<g id="viewport">
<title>mystl::list_const_iterator&lt; T &gt;</title>
<polygon fill="#ffffff" stroke="transparent" points="-4,4 -4,-470 341.5,-470 341.5,4 -4,4"/>
<!-- Node3 -->
<g id="node1" class="node">
<title>Node3</title>
<polygon fill="#bfbfbf" stroke="#000000" points="71.5,-.5 71.5,-189.5 219.5,-189.5 219.5,-.5 71.5,-.5"/>
<text text-anchor="middle" x="145.5" y="-177.5" font-family="Helvetica,sans-Serif" font-size="10.00" fill="#000000">mystl::list_const_iterator&lt; T &gt;</text>
<polyline fill="none" stroke="#000000" points="71.5,-170.5 219.5,-170.5 "/>
<text text-anchor="middle" x="145.5" y="-158.5" font-family="Helvetica,sans-Serif" font-size="10.00" fill="#000000"> </text>
<polyline fill="none" stroke="#000000" points="71.5,-151.5 219.5,-151.5 "/>
<text text-anchor="start" x="79.5" y="-139.5" font-family="Helvetica,sans-Serif" font-size="10.00" fill="#000000">+ list_const_iterator()</text>
<text text-anchor="start" x="79.5" y="-128.5" font-family="Helvetica,sans-Serif" font-size="10.00" fill="#000000">+ list_const_iterator()</text>
<text text-anchor="start" x="79.5" y="-117.5" font-family="Helvetica,sans-Serif" font-size="10.00" fill="#000000">+ list_const_iterator()</text>
<text text-anchor="start" x="79.5" y="-106.5" font-family="Helvetica,sans-Serif" font-size="10.00" fill="#000000">+ list_const_iterator()</text>
<text text-anchor="start" x="79.5" y="-95.5" font-family="Helvetica,sans-Serif" font-size="10.00" fill="#000000">+ list_const_iterator()</text>
<text text-anchor="start" x="79.5" y="-84.5" font-family="Helvetica,sans-Serif" font-size="10.00" fill="#000000">+ operator*()</text>
<text text-anchor="start" x="79.5" y="-73.5" font-family="Helvetica,sans-Serif" font-size="10.00" fill="#000000">+ operator&#45;&gt;()</text>
<text text-anchor="start" x="79.5" y="-62.5" font-family="Helvetica,sans-Serif" font-size="10.00" fill="#000000">+ operator++()</text>
<text text-anchor="start" x="79.5" y="-51.5" font-family="Helvetica,sans-Serif" font-size="10.00" fill="#000000">+ operator++()</text>
<text text-anchor="start" x="79.5" y="-40.5" font-family="Helvetica,sans-Serif" font-size="10.00" fill="#000000">+ operator&#45;&#45;()</text>
<text text-anchor="start" x="79.5" y="-29.5" font-family="Helvetica,sans-Serif" font-size="10.00" fill="#000000">+ operator&#45;&#45;()</text>
<text text-anchor="start" x="79.5" y="-18.5" font-family="Helvetica,sans-Serif" font-size="10.00" fill="#000000">+ operator==()</text>
<text text-anchor="start" x="79.5" y="-7.5" font-family="Helvetica,sans-Serif" font-size="10.00" fill="#000000">+ operator!=()</text>
</g>
<!-- Node4 -->
<g id="node2" class="node">
<title>Node4</title>
<g id="a_node2"><a xlink:href="structmystl_1_1iterator.html" target="_top" xlink:title="{mystl::iterator\&lt; bidirectional\l_iterator_tag, T \&gt;\n||}">
<polygon fill="#ffffff" stroke="#000000" points="0,-248.5 0,-316.5 137,-316.5 137,-248.5 0,-248.5"/>
<text text-anchor="start" x="8" y="-304.5" font-family="Helvetica,sans-Serif" font-size="10.00" fill="#000000">mystl::iterator&lt; bidirectional</text>
<text text-anchor="middle" x="68.5" y="-293.5" font-family="Helvetica,sans-Serif" font-size="10.00" fill="#000000">_iterator_tag, T &gt;</text>
<polyline fill="none" stroke="#000000" points="0,-286.5 137,-286.5 "/>
<text text-anchor="middle" x="68.5" y="-274.5" font-family="Helvetica,sans-Serif" font-size="10.00" fill="#000000"> </text>
<polyline fill="none" stroke="#000000" points="0,-267.5 137,-267.5 "/>
<text text-anchor="middle" x="68.5" y="-255.5" font-family="Helvetica,sans-Serif" font-size="10.00" fill="#000000"> </text>
</a>
</g>
</g>
<!-- Node4&#45;&gt;Node3 -->
<g id="edge1" class="edge">
<title>Node4&#45;&gt;Node3</title>
<path fill="none" stroke="#191970" d="M86.4553,-238.7776C92.5123,-224.0284 99.5288,-206.9428 106.5647,-189.81"/>
<polygon fill="none" stroke="#191970" points="83.1842,-237.5296 82.623,-248.1096 89.6595,-240.1889 83.1842,-237.5296"/>
</g>
<!-- Node5 -->
<g id="node3" class="node">
<title>Node5</title>
<g id="a_node3"><a xlink:href="structmystl_1_1iterator.html" target="_top" xlink:title="{mystl::iterator\&lt; Category,\l T, Distance, Pointer,\l Reference \&gt;\n||}">
<polygon fill="#ffffff" stroke="#000000" points="4.5,-386.5 4.5,-465.5 132.5,-465.5 132.5,-386.5 4.5,-386.5"/>
<text text-anchor="start" x="12.5" y="-453.5" font-family="Helvetica,sans-Serif" font-size="10.00" fill="#000000">mystl::iterator&lt; Category,</text>
<text text-anchor="start" x="12.5" y="-442.5" font-family="Helvetica,sans-Serif" font-size="10.00" fill="#000000"> T, Distance, Pointer,</text>
<text text-anchor="middle" x="68.5" y="-431.5" font-family="Helvetica,sans-Serif" font-size="10.00" fill="#000000"> Reference &gt;</text>
<polyline fill="none" stroke="#000000" points="4.5,-424.5 132.5,-424.5 "/>
<text text-anchor="middle" x="68.5" y="-412.5" font-family="Helvetica,sans-Serif" font-size="10.00" fill="#000000"> </text>
<polyline fill="none" stroke="#000000" points="4.5,-405.5 132.5,-405.5 "/>
<text text-anchor="middle" x="68.5" y="-393.5" font-family="Helvetica,sans-Serif" font-size="10.00" fill="#000000"> </text>
</a>
</g>
</g>
<!-- Node5&#45;&gt;Node4 -->
<g id="edge2" class="edge">
<title>Node5&#45;&gt;Node4</title>
<path fill="none" stroke="#ffa500" d="M68.5,-376.3581C68.5,-356.6404 68.5,-334.4539 68.5,-316.6042"/>
<polygon fill="#ffa500" stroke="#ffa500" points="65.0001,-376.4081 68.5,-386.4081 72.0001,-376.4082 65.0001,-376.4081"/>
<text text-anchor="start" x="68.5" y="-360" font-family="Helvetica,sans-Serif" font-size="10.00" fill="#000000"> &lt; bidirectional_iterator</text>
<text text-anchor="middle" x="118.5" y="-349" font-family="Helvetica,sans-Serif" font-size="10.00" fill="#000000">_tag, T &gt;</text>
</g>
<!-- Node6 -->
<g id="node4" class="node">
<title>Node6</title>
<g id="a_node4"><a xlink:href="structmystl_1_1list__node__base.html" target="_top" xlink:title="{mystl::list_node_base\&lt; T \&gt;\n||+ list_node_base()\l+ as_node()\l+ unlink()\l+ self()\l}">
<polygon fill="#ffffff" stroke="#000000" points="155.5,-237.5 155.5,-327.5 291.5,-327.5 291.5,-237.5 155.5,-237.5"/>
<text text-anchor="middle" x="223.5" y="-315.5" font-family="Helvetica,sans-Serif" font-size="10.00" fill="#000000">mystl::list_node_base&lt; T &gt;</text>
<polyline fill="none" stroke="#000000" points="155.5,-308.5 291.5,-308.5 "/>
<text text-anchor="middle" x="223.5" y="-296.5" font-family="Helvetica,sans-Serif" font-size="10.00" fill="#000000"> </text>
<polyline fill="none" stroke="#000000" points="155.5,-289.5 291.5,-289.5 "/>
<text text-anchor="start" x="163.5" y="-277.5" font-family="Helvetica,sans-Serif" font-size="10.00" fill="#000000">+ list_node_base()</text>
<text text-anchor="start" x="163.5" y="-266.5" font-family="Helvetica,sans-Serif" font-size="10.00" fill="#000000">+ as_node()</text>
<text text-anchor="start" x="163.5" y="-255.5" font-family="Helvetica,sans-Serif" font-size="10.00" fill="#000000">+ unlink()</text>
<text text-anchor="start" x="163.5" y="-244.5" font-family="Helvetica,sans-Serif" font-size="10.00" fill="#000000">+ self()</text>
</a>
</g>
</g>
<!-- Node6&#45;&gt;Node3 -->
<g id="edge3" class="edge">
<title>Node6&#45;&gt;Node3</title>
<path fill="none" stroke="#404040" d="M204.6184,-237.1115C199.9804,-225.9626 194.8198,-213.5572 189.5337,-200.8502"/>
<polygon fill="none" stroke="#404040" points="189.4751,-200.7093 183.4774,-196.7059 184.866,-189.6298 190.8637,-193.6331 189.4751,-200.7093"/>
<text text-anchor="middle" x="213.5" y="-211" font-family="Helvetica,sans-Serif" font-size="10.00" fill="#000000"> +node_</text>
</g>
<!-- Node6&#45;&gt;Node6 -->
<g id="edge4" class="edge">
<title>Node6&#45;&gt;Node6</title>
<path fill="none" stroke="#404040" d="M291.6292,-294.1846C302.2555,-292.4379 309.5,-288.543 309.5,-282.5 309.5,-279.1008 307.2078,-276.3813 303.3109,-274.3415"/>
<polygon fill="none" stroke="#404040" points="303.1173,-274.2831 296.2173,-276.3786 291.6292,-270.8154 298.5292,-268.7199 303.1173,-274.2831"/>
<text text-anchor="middle" x="323.5" y="-285.5" font-family="Helvetica,sans-Serif" font-size="10.00" fill="#000000"> +prev</text>
<text text-anchor="middle" x="323.5" y="-274.5" font-family="Helvetica,sans-Serif" font-size="10.00" fill="#000000">+next</text>
</g>
</g>
</svg>
        <g id="navigator" transform="translate(0 0)" fill="#404254">
                <rect fill="#f2f5e9" fill-opacity="0.5" stroke="#606060" stroke-width=".5" x="0" y="0" width="60" height="60"/>
                <use id="zoomplus" xlink:href="#zoomPlus" x="17" y="9" onmousedown="handleZoom(evt,'in')"/>
                <use id="zoomminus" xlink:href="#zoomMin" x="42" y="9" onmousedown="handleZoom(evt,'out')"/>
                <use id="reset" xlink:href="#resetDef" x="30" y="36" onmousedown="handleReset()"/>
                <g id="arrowUp" xlink:href="#dirArrow" transform="translate(30 24)" onmousedown="handlePan(0,-1)">
                  <use xlink:href="#rim" fill="#404040">
                        <set attributeName="fill" to="#808080" begin="arrowUp.mouseover" end="arrowUp.mouseout"/>
                  </use>
                  <path fill="none" stroke="white" stroke-width="1.5" d="M0,-3.0v7 M-2.5,-0.5L0,-3.0L2.5,-0.5"/>
                </g>
                <g id="arrowRight" xlink:href="#dirArrow" transform="rotate(90) translate(36 -43)" onmousedown="handlePan(1,0)">
                  <use xlink:href="#rim" fill="#404040">
                        <set attributeName="fill" to="#808080" begin="arrowRight.mouseover" end="arrowRight.mouseout"/>
                  </use>
                  <path fill="none" stroke="white" stroke-width="1.5" d="M0,-3.0v7 M-2.5,-0.5L0,-3.0L2.5,-0.5"/>
                </g>
                <g id="arrowDown" xlink:href="#dirArrow" transform="rotate(180) translate(-30 -48)" onmousedown="handlePan(0,1)">
                  <use xlink:href="#rim" fill="#404040">
                        <set attributeName="fill" to="#808080" begin="arrowDown.mouseover" end="arrowDown.mouseout"/>
                  </use>
                  <path fill="none" stroke="white" stroke-width="1.5" d="M0,-3.0v7 M-2.5,-0.5L0,-3.0L2.5,-0.5"/>
                </g>
                <g id="arrowLeft" xlink:href="#dirArrow" transform="rotate(270) translate(-36 17)" onmousedown="handlePan(-1,0)">
                  <use xlink:href="#rim" fill="#404040">
                        <set attributeName="fill" to="#808080" begin="arrowLeft.mouseover" end="arrowLeft.mouseout"/>
                  </use>
                  <path fill="none" stroke="white" stroke-width="1.5" d="M0,-3.0v7 M-2.5,-0.5L0,-3.0L2.5,-0.5"/>
                </g>
        </g>
        <svg viewBox="0 0 15 15" width="100%" height="30px" preserveAspectRatio="xMaxYMin meet">
         <g id="arrow_out" transform="scale(0.3 0.3)">
          <a xlink:href="structmystl_1_1list__const__iterator__coll__graph_org.svg" target="_base">
           <rect id="button" ry="5" rx="5" y="6" x="6" height="38" width="38"
                fill="#f2f5e9" fill-opacity="0.5" stroke="#606060" stroke-width="1.0"/>
           <path id="arrow"
             d="M 11.500037,31.436501 C 11.940474,20.09759 22.043105,11.32322 32.158766,21.979434 L 37.068811,17.246167 C 37.068811,17.246167 37.088388,32 37.088388,32 L 22.160133,31.978069 C 22.160133,31.978069 26.997745,27.140456 26.997745,27.140456 C 18.528582,18.264221 13.291696,25.230495 11.500037,31.436501 z"
             style="fill:#404040;"/>
          </a>
         </g>
        </svg>
</svg>
