<?xml version="1.0" encoding="UTF-8" standalone="no"?>
<!DOCTYPE svg PUBLIC "-//W3C//DTD SVG 1.1//EN"
 "http://www.w3.org/Graphics/SVG/1.1/DTD/svg11.dtd">
<!-- Generated by graphviz version 2.40.1 (20161225.0304)
 -->
<!-- Title: TrilinosWrappers::SolverBase::AdditionalData Pages: 1 -->
<svg width="252pt" height="182pt"
 viewBox="0.00 0.00 251.50 182.00" xmlns="http://www.w3.org/2000/svg" xmlns:xlink="http://www.w3.org/1999/xlink">
<g id="graph0" class="graph" transform="scale(1 1) rotate(0) translate(4 178)">
<title>TrilinosWrappers::SolverBase::AdditionalData</title>
<polygon fill="#ffffff" stroke="transparent" points="-4,4 -4,-178 247.5,-178 247.5,4 -4,4"/>
<!-- Node6 -->
<g id="node1" class="node">
<title>Node6</title>
<polygon fill="#bfbfbf" stroke="#000000" points="17.5,-.5 17.5,-68.5 141.5,-68.5 141.5,-.5 17.5,-.5"/>
<text text-anchor="start" x="25.5" y="-56.5" font-family="Helvetica,sans-Serif" font-size="10.00" fill="#000000">TrilinosWrappers::Solver</text>
<text text-anchor="middle" x="79.5" y="-45.5" font-family="Helvetica,sans-Serif" font-size="10.00" fill="#000000">Base::AdditionalData</text>
<polyline fill="none" stroke="#000000" points="17.5,-38.5 141.5,-38.5 "/>
<text text-anchor="middle" x="79.5" y="-26.5" font-family="Helvetica,sans-Serif" font-size="10.00" fill="#000000"> </text>
<polyline fill="none" stroke="#000000" points="17.5,-19.5 141.5,-19.5 "/>
<text text-anchor="start" x="25.5" y="-7.5" font-family="Helvetica,sans-Serif" font-size="10.00" fill="#000000">+ AdditionalData()</text>
</g>
<!-- Node7 -->
<g id="node2" class="node">
<title>Node7</title>
<g id="a_node2"><a xlink:href="classbool.html" target="_top" xlink:title="{bool\n||}">
<polygon fill="#ffffff" stroke="#000000" points="0,-116.5 0,-173.5 35,-173.5 35,-116.5 0,-116.5"/>
<text text-anchor="middle" x="17.5" y="-161.5" font-family="Helvetica,sans-Serif" font-size="10.00" fill="#000000">bool</text>
<polyline fill="none" stroke="#000000" points="0,-154.5 35,-154.5 "/>
<text text-anchor="middle" x="17.5" y="-142.5" font-family="Helvetica,sans-Serif" font-size="10.00" fill="#000000"> </text>
<polyline fill="none" stroke="#000000" points="0,-135.5 35,-135.5 "/>
<text text-anchor="middle" x="17.5" y="-123.5" font-family="Helvetica,sans-Serif" font-size="10.00" fill="#000000"> </text>
</a>
</g>
</g>
<!-- Node7&#45;&gt;Node6 -->
<g id="edge1" class="edge">
<title>Node7&#45;&gt;Node6</title>
<path fill="none" stroke="#404040" d="M13.3886,-116.4977C13.156,-106.7451 14.2651,-96.0261 18.5,-87 19.9745,-83.8574 21.7372,-80.8304 23.7185,-77.926"/>
<polygon fill="none" stroke="#404040" points="23.721,-77.9227 24.3284,-70.7372 31.1948,-68.5343 30.5874,-75.7198 23.721,-77.9227"/>
<text text-anchor="middle" x="69.5" y="-90" font-family="Helvetica,sans-Serif" font-size="10.00" fill="#000000"> +output_solver_details</text>
</g>
<!-- Node8 -->
<g id="node3" class="node">
<title>Node8</title>
<polygon fill="#ffffff" stroke="#bfbfbf" points="114.5,-116.5 114.5,-173.5 170.5,-173.5 170.5,-116.5 114.5,-116.5"/>
<text text-anchor="middle" x="142.5" y="-161.5" font-family="Helvetica,sans-Serif" font-size="10.00" fill="#000000">unsigned</text>
<polyline fill="none" stroke="#bfbfbf" points="114.5,-154.5 170.5,-154.5 "/>
<text text-anchor="middle" x="142.5" y="-142.5" font-family="Helvetica,sans-Serif" font-size="10.00" fill="#000000"> </text>
<polyline fill="none" stroke="#bfbfbf" points="114.5,-135.5 170.5,-135.5 "/>
<text text-anchor="middle" x="142.5" y="-123.5" font-family="Helvetica,sans-Serif" font-size="10.00" fill="#000000"> </text>
</g>
<!-- Node8&#45;&gt;Node6 -->
<g id="edge2" class="edge">
<title>Node8&#45;&gt;Node6</title>
<path fill="none" stroke="#404040" d="M133.5131,-116.2053C130.0248,-106.6345 125.625,-96.1028 120.5,-87 118.9858,-84.3106 117.3418,-81.6114 115.6114,-78.9337"/>
<polygon fill="none" stroke="#404040" points="115.4183,-78.6538 108.7179,-75.9882 108.6014,-68.778 115.3018,-71.4436 115.4183,-78.6538"/>
<text text-anchor="middle" x="184.5" y="-90" font-family="Helvetica,sans-Serif" font-size="10.00" fill="#000000"> +gmres_restart_parameter</text>
</g>
</g>
</svg>
