<?xml version="1.0" encoding="UTF-8" standalone="no"?>
<!DOCTYPE svg PUBLIC "-//W3C//DTD SVG 1.1//EN"
 "http://www.w3.org/Graphics/SVG/1.1/DTD/svg11.dtd">
<!-- Generated by graphviz version 2.40.1 (20161225.0304)
 -->
<!-- Title: internal::DoFHandlerImplementation::NumberCache Pages: 1 -->
<!--zoomable 1119 -->
<svg id="main" version="1.1" xmlns="http://www.w3.org/2000/svg" xmlns:xlink="http://www.w3.org/1999/xlink" xml:space="preserve" onload="init(evt)">
<style type="text/css"><![CDATA[
.edge:hover path { stroke: red; }
.edge:hover polygon { stroke: red; fill: red; }
]]></style>
<script type="text/javascript"><![CDATA[
var edges = document.getElementsByTagName('g');
if (edges && edges.length) {
  for (var i=0;i<edges.length;i++) {
    if (edges[i].id.substr(0,4)=='edge') {
      edges[i].setAttribute('class','edge');
    }
  }
}
]]></script>
        <defs>
                <circle id="rim" cx="0" cy="0" r="7"/>
                <circle id="rim2" cx="0" cy="0" r="3.5"/>
                <g id="zoomPlus">
                        <use xlink:href="#rim" fill="#404040">
                                <set attributeName="fill" to="#808080" begin="zoomplus.mouseover" end="zoomplus.mouseout"/>
                        </use>
                        <path d="M-4,0h8M0,-4v8" fill="none" stroke="white" stroke-width="1.5" pointer-events="none"/>
                </g>
                <g id="zoomMin">
                        <use xlink:href="#rim" fill="#404040">
                                <set attributeName="fill" to="#808080" begin="zoomminus.mouseover" end="zoomminus.mouseout"/>
                        </use>
                        <path d="M-4,0h8" fill="none" stroke="white" stroke-width="1.5" pointer-events="none"/>
                </g>
                <g id="dirArrow">
                        <path fill="none" stroke="white" stroke-width="1.5" d="M0,-3.0v7 M-2.5,-0.5L0,-3.0L2.5,-0.5"/>
                </g>
               <g id="resetDef">
                       <use xlink:href="#rim2" fill="#404040">
                               <set attributeName="fill" to="#808080" begin="reset.mouseover" end="reset.mouseout"/>
                       </use>
               </g>
        </defs>

<script type="text/javascript">
var viewWidth = 609;
var viewHeight = 1119;
var sectionId = 'dynsection-0';
</script>
<script xlink:href="svgpan.js"/>
<svg id="graph" class="graph">
<g id="viewport">
<title>internal::DoFHandlerImplementation::NumberCache</title>
<polygon fill="#ffffff" stroke="transparent" points="-4,4 -4,-1115 605.4431,-1115 605.4431,4 -4,4"/>
<!-- Node1 -->
<g id="node1" class="node">
<title>Node1</title>
<polygon fill="#bfbfbf" stroke="#000000" points="213.9431,-.5 213.9431,-211.5 386.9431,-211.5 386.9431,-.5 213.9431,-.5"/>
<text text-anchor="start" x="221.9431" y="-199.5" font-family="Helvetica,sans-Serif" font-size="10.00" fill="#000000">internal::DoFHandlerImplementation</text>
<text text-anchor="middle" x="300.4431" y="-188.5" font-family="Helvetica,sans-Serif" font-size="10.00" fill="#000000">::NumberCache</text>
<polyline fill="none" stroke="#000000" points="213.9431,-181.5 386.9431,-181.5 "/>
<text text-anchor="middle" x="300.4431" y="-169.5" font-family="Helvetica,sans-Serif" font-size="10.00" fill="#000000"> </text>
<polyline fill="none" stroke="#000000" points="213.9431,-162.5 386.9431,-162.5 "/>
<text text-anchor="start" x="221.9431" y="-150.5" font-family="Helvetica,sans-Serif" font-size="10.00" fill="#000000">+ NumberCache()</text>
<text text-anchor="start" x="221.9431" y="-139.5" font-family="Helvetica,sans-Serif" font-size="10.00" fill="#000000">+ NumberCache()</text>
<text text-anchor="start" x="221.9431" y="-128.5" font-family="Helvetica,sans-Serif" font-size="10.00" fill="#000000">+ NumberCache()</text>
<text text-anchor="start" x="221.9431" y="-117.5" font-family="Helvetica,sans-Serif" font-size="10.00" fill="#000000">+ NumberCache()</text>
<text text-anchor="start" x="221.9431" y="-106.5" font-family="Helvetica,sans-Serif" font-size="10.00" fill="#000000">+ NumberCache()</text>
<text text-anchor="start" x="221.9431" y="-95.5" font-family="Helvetica,sans-Serif" font-size="10.00" fill="#000000">+ operator=()</text>
<text text-anchor="start" x="221.9431" y="-84.5" font-family="Helvetica,sans-Serif" font-size="10.00" fill="#000000">+ operator=()</text>
<text text-anchor="start" x="221.9431" y="-73.5" font-family="Helvetica,sans-Serif" font-size="10.00" fill="#000000">+ memory_consumption()</text>
<text text-anchor="start" x="221.9431" y="-62.5" font-family="Helvetica,sans-Serif" font-size="10.00" fill="#000000">+ clear()</text>
<text text-anchor="start" x="221.9431" y="-51.5" font-family="Helvetica,sans-Serif" font-size="10.00" fill="#000000">+ get_n_locally_owned</text>
<text text-anchor="start" x="221.9431" y="-40.5" font-family="Helvetica,sans-Serif" font-size="10.00" fill="#000000">_dofs_per_processor()</text>
<text text-anchor="start" x="221.9431" y="-29.5" font-family="Helvetica,sans-Serif" font-size="10.00" fill="#000000">+ get_locally_owned_dofs</text>
<text text-anchor="start" x="221.9431" y="-18.5" font-family="Helvetica,sans-Serif" font-size="10.00" fill="#000000">_per_processor()</text>
<text text-anchor="start" x="221.9431" y="-7.5" font-family="Helvetica,sans-Serif" font-size="10.00" fill="#000000">+ serialize()</text>
</g>
<!-- Node2 -->
<g id="node2" class="node">
<title>Node2</title>
<polygon fill="#ffffff" stroke="#bfbfbf" points="206.4431,-270.5 206.4431,-327.5 326.4431,-327.5 326.4431,-270.5 206.4431,-270.5"/>
<text text-anchor="middle" x="266.4431" y="-315.5" font-family="Helvetica,sans-Serif" font-size="10.00" fill="#000000">std::vector&lt; IndexSet &gt;</text>
<polyline fill="none" stroke="#bfbfbf" points="206.4431,-308.5 326.4431,-308.5 "/>
<text text-anchor="middle" x="266.4431" y="-296.5" font-family="Helvetica,sans-Serif" font-size="10.00" fill="#000000"> </text>
<polyline fill="none" stroke="#bfbfbf" points="206.4431,-289.5 326.4431,-289.5 "/>
<text text-anchor="middle" x="266.4431" y="-277.5" font-family="Helvetica,sans-Serif" font-size="10.00" fill="#000000"> </text>
</g>
<!-- Node2&#45;&gt;Node1 -->
<g id="edge1" class="edge">
<title>Node2&#45;&gt;Node1</title>
<path fill="none" stroke="#404040" d="M249.2204,-270.4956C246.4171,-264.5751 243.943,-258.2355 242.4431,-252 240.1563,-242.4934 240.3211,-239.5448 242.4431,-230 242.925,-227.8323 243.449,-225.6576 244.0114,-223.4793"/>
<polygon fill="none" stroke="#404040" points="244.0488,-223.3489 241.8618,-216.4774 247.3636,-211.8158 249.5506,-218.6873 244.0488,-223.3489"/>
<text text-anchor="start" x="242.4431" y="-244" font-family="Helvetica,sans-Serif" font-size="10.00" fill="#000000"> +locally_owned_dofs</text>
<text text-anchor="middle" x="289.9431" y="-233" font-family="Helvetica,sans-Serif" font-size="10.00" fill="#000000">_per_processor</text>
</g>
<!-- Node3 -->
<g id="node3" class="node">
<title>Node3</title>
<g id="a_node3"><a xlink:href="classIndexSet.html" target="_top" xlink:title="{IndexSet\n||+ IndexSet()\l+ IndexSet()\l+ IndexSet()\l+ operator=()\l+ IndexSet()\l+ operator=()\l+ IndexSet()\l+ clear()\l+ set_size()\l+ size()\land 35 more...\l+ begin()\l+ at()\l+ end()\l+ begin_intervals()\l+ end_intervals()\l+ ExcIndexNotPresent()\l&#45; do_compress()\l* begin()\l* at()\l* end()\l* begin_intervals()\l* end_intervals()\l}">
<polygon fill="#ffffff" stroke="#000000" points="40.4431,-386.5 40.4431,-685.5 162.4431,-685.5 162.4431,-386.5 40.4431,-386.5"/>
<text text-anchor="middle" x="101.4431" y="-673.5" font-family="Helvetica,sans-Serif" font-size="10.00" fill="#000000">IndexSet</text>
<polyline fill="none" stroke="#000000" points="40.4431,-666.5 162.4431,-666.5 "/>
<text text-anchor="middle" x="101.4431" y="-654.5" font-family="Helvetica,sans-Serif" font-size="10.00" fill="#000000"> </text>
<polyline fill="none" stroke="#000000" points="40.4431,-647.5 162.4431,-647.5 "/>
<text text-anchor="start" x="48.4431" y="-635.5" font-family="Helvetica,sans-Serif" font-size="10.00" fill="#000000">+ IndexSet()</text>
<text text-anchor="start" x="48.4431" y="-624.5" font-family="Helvetica,sans-Serif" font-size="10.00" fill="#000000">+ IndexSet()</text>
<text text-anchor="start" x="48.4431" y="-613.5" font-family="Helvetica,sans-Serif" font-size="10.00" fill="#000000">+ IndexSet()</text>
<text text-anchor="start" x="48.4431" y="-602.5" font-family="Helvetica,sans-Serif" font-size="10.00" fill="#000000">+ operator=()</text>
<text text-anchor="start" x="48.4431" y="-591.5" font-family="Helvetica,sans-Serif" font-size="10.00" fill="#000000">+ IndexSet()</text>
<text text-anchor="start" x="48.4431" y="-580.5" font-family="Helvetica,sans-Serif" font-size="10.00" fill="#000000">+ operator=()</text>
<text text-anchor="start" x="48.4431" y="-569.5" font-family="Helvetica,sans-Serif" font-size="10.00" fill="#000000">+ IndexSet()</text>
<text text-anchor="start" x="48.4431" y="-558.5" font-family="Helvetica,sans-Serif" font-size="10.00" fill="#000000">+ clear()</text>
<text text-anchor="start" x="48.4431" y="-547.5" font-family="Helvetica,sans-Serif" font-size="10.00" fill="#000000">+ set_size()</text>
<text text-anchor="start" x="48.4431" y="-536.5" font-family="Helvetica,sans-Serif" font-size="10.00" fill="#000000">+ size()</text>
<text text-anchor="start" x="48.4431" y="-525.5" font-family="Helvetica,sans-Serif" font-size="10.00" fill="#000000">and 35 more...</text>
<text text-anchor="start" x="48.4431" y="-514.5" font-family="Helvetica,sans-Serif" font-size="10.00" fill="#000000">+ begin()</text>
<text text-anchor="start" x="48.4431" y="-503.5" font-family="Helvetica,sans-Serif" font-size="10.00" fill="#000000">+ at()</text>
<text text-anchor="start" x="48.4431" y="-492.5" font-family="Helvetica,sans-Serif" font-size="10.00" fill="#000000">+ end()</text>
<text text-anchor="start" x="48.4431" y="-481.5" font-family="Helvetica,sans-Serif" font-size="10.00" fill="#000000">+ begin_intervals()</text>
<text text-anchor="start" x="48.4431" y="-470.5" font-family="Helvetica,sans-Serif" font-size="10.00" fill="#000000">+ end_intervals()</text>
<text text-anchor="start" x="48.4431" y="-459.5" font-family="Helvetica,sans-Serif" font-size="10.00" fill="#000000">+ ExcIndexNotPresent()</text>
<text text-anchor="start" x="48.4431" y="-448.5" font-family="Helvetica,sans-Serif" font-size="10.00" fill="#000000">&#45; do_compress()</text>
<text text-anchor="start" x="48.4431" y="-437.5" font-family="Helvetica,sans-Serif" font-size="10.00" fill="#000000">* begin()</text>
<text text-anchor="start" x="48.4431" y="-426.5" font-family="Helvetica,sans-Serif" font-size="10.00" fill="#000000">* at()</text>
<text text-anchor="start" x="48.4431" y="-415.5" font-family="Helvetica,sans-Serif" font-size="10.00" fill="#000000">* end()</text>
<text text-anchor="start" x="48.4431" y="-404.5" font-family="Helvetica,sans-Serif" font-size="10.00" fill="#000000">* begin_intervals()</text>
<text text-anchor="start" x="48.4431" y="-393.5" font-family="Helvetica,sans-Serif" font-size="10.00" fill="#000000">* end_intervals()</text>
</a>
</g>
</g>
<!-- Node3&#45;&gt;Node1 -->
<g id="edge17" class="edge">
<title>Node3&#45;&gt;Node1</title>
<path fill="none" stroke="#404040" d="M79.7372,-386.355C79.8961,-346.9821 85.6242,-305.5958 102.4431,-270 123.8421,-224.7105 164.5285,-187.6128 203.4803,-160.2278"/>
<polygon fill="none" stroke="#404040" points="203.9632,-159.8974 206.6556,-153.2078 213.8662,-153.1201 211.1738,-159.8098 203.9632,-159.8974"/>
<text text-anchor="middle" x="149.9431" y="-296.5" font-family="Helvetica,sans-Serif" font-size="10.00" fill="#000000"> +locally_owned_dofs</text>
</g>
<!-- Node3&#45;&gt;Node2 -->
<g id="edge2" class="edge">
<title>Node3&#45;&gt;Node2</title>
<path fill="none" stroke="#404040" d="M162.6485,-448.0867C189.1476,-410.0244 218.7931,-367.4427 239.5949,-337.5637"/>
<polygon fill="none" stroke="#404040" points="239.7078,-337.4015 239.8532,-330.1919 246.5642,-327.5532 246.4188,-334.7629 239.7078,-337.4015"/>
<text text-anchor="middle" x="254.9431" y="-354.5" font-family="Helvetica,sans-Serif" font-size="10.00" fill="#000000"> +elements</text>
</g>
<!-- Node4 -->
<g id="node4" class="node">
<title>Node4</title>
<g id="a_node4"><a xlink:href="classbool.html" target="_top" xlink:title="{bool\n||}">
<polygon fill="#ffffff" stroke="#000000" points="14.9431,-744.5 14.9431,-801.5 49.9431,-801.5 49.9431,-744.5 14.9431,-744.5"/>
<text text-anchor="middle" x="32.4431" y="-789.5" font-family="Helvetica,sans-Serif" font-size="10.00" fill="#000000">bool</text>
<polyline fill="none" stroke="#000000" points="14.9431,-782.5 49.9431,-782.5 "/>
<text text-anchor="middle" x="32.4431" y="-770.5" font-family="Helvetica,sans-Serif" font-size="10.00" fill="#000000"> </text>
<polyline fill="none" stroke="#000000" points="14.9431,-763.5 49.9431,-763.5 "/>
<text text-anchor="middle" x="32.4431" y="-751.5" font-family="Helvetica,sans-Serif" font-size="10.00" fill="#000000"> </text>
</a>
</g>
</g>
<!-- Node4&#45;&gt;Node3 -->
<g id="edge3" class="edge">
<title>Node4&#45;&gt;Node3</title>
<path fill="none" stroke="#404040" d="M30.505,-744.2123C30.2689,-731.7378 30.807,-717.0344 33.4431,-704 34.5248,-698.651 35.7721,-693.2557 37.1576,-687.8449"/>
<polygon fill="none" stroke="#404040" points="37.235,-687.5618 34.9595,-680.7191 40.4007,-675.9868 42.6761,-682.8295 37.235,-687.5618"/>
<text text-anchor="middle" x="69.9431" y="-707" font-family="Helvetica,sans-Serif" font-size="10.00" fill="#000000"> &#45;is_compressed</text>
</g>
<!-- Node5 -->
<g id="node5" class="node">
<title>Node5</title>
<g id="a_node5"><a xlink:href="classThreads_1_1Mutex.html" target="_top" xlink:title="{Threads::Mutex\n||+ Mutex()\l+ Mutex()\l+ operator=()\l}">
<polygon fill="#ffffff" stroke="#000000" points="70.9431,-733.5 70.9431,-812.5 155.9431,-812.5 155.9431,-733.5 70.9431,-733.5"/>
<text text-anchor="middle" x="113.4431" y="-800.5" font-family="Helvetica,sans-Serif" font-size="10.00" fill="#000000">Threads::Mutex</text>
<polyline fill="none" stroke="#000000" points="70.9431,-793.5 155.9431,-793.5 "/>
<text text-anchor="middle" x="113.4431" y="-781.5" font-family="Helvetica,sans-Serif" font-size="10.00" fill="#000000"> </text>
<polyline fill="none" stroke="#000000" points="70.9431,-774.5 155.9431,-774.5 "/>
<text text-anchor="start" x="78.9431" y="-762.5" font-family="Helvetica,sans-Serif" font-size="10.00" fill="#000000">+ Mutex()</text>
<text text-anchor="start" x="78.9431" y="-751.5" font-family="Helvetica,sans-Serif" font-size="10.00" fill="#000000">+ Mutex()</text>
<text text-anchor="start" x="78.9431" y="-740.5" font-family="Helvetica,sans-Serif" font-size="10.00" fill="#000000">+ operator=()</text>
</a>
</g>
</g>
<!-- Node5&#45;&gt;Node3 -->
<g id="edge4" class="edge">
<title>Node5&#45;&gt;Node3</title>
<path fill="none" stroke="#404040" d="M111.4345,-733.3315C110.8982,-722.7382 110.2839,-710.6066 109.6294,-697.6809"/>
<polygon fill="none" stroke="#404040" points="109.6251,-697.5932 105.3267,-691.8032 109.0182,-685.6086 113.3165,-691.3986 109.6251,-697.5932"/>
<text text-anchor="middle" x="151.4431" y="-707" font-family="Helvetica,sans-Serif" font-size="10.00" fill="#000000"> &#45;compress_mutex</text>
</g>
<!-- Node6 -->
<g id="node6" class="node">
<title>Node6</title>
<polygon fill="#ffffff" stroke="#bfbfbf" points="72.9431,-899 72.9431,-956 135.9431,-956 135.9431,-899 72.9431,-899"/>
<text text-anchor="middle" x="104.4431" y="-944" font-family="Helvetica,sans-Serif" font-size="10.00" fill="#000000">std::mutex</text>
<polyline fill="none" stroke="#bfbfbf" points="72.9431,-937 135.9431,-937 "/>
<text text-anchor="middle" x="104.4431" y="-925" font-family="Helvetica,sans-Serif" font-size="10.00" fill="#000000"> </text>
<polyline fill="none" stroke="#bfbfbf" points="72.9431,-918 135.9431,-918 "/>
<text text-anchor="middle" x="104.4431" y="-906" font-family="Helvetica,sans-Serif" font-size="10.00" fill="#000000"> </text>
</g>
<!-- Node6&#45;&gt;Node5 -->
<g id="edge5" class="edge">
<title>Node6&#45;&gt;Node5</title>
<path fill="none" stroke="#191970" d="M106.7084,-888.6113C108.0613,-865.3865 109.7754,-835.962 111.1357,-812.6105"/>
<polygon fill="none" stroke="#191970" points="103.2023,-888.6152 106.1148,-898.8018 110.1905,-889.0223 103.2023,-888.6152"/>
</g>
<!-- Node7 -->
<g id="node7" class="node">
<title>Node7</title>
<g id="a_node7"><a xlink:href="classunsigned_01int.html" target="_top" xlink:title="{unsigned int\n||}">
<polygon fill="#ffffff" stroke="#000000" points="183.9431,-1053.5 183.9431,-1110.5 252.9431,-1110.5 252.9431,-1053.5 183.9431,-1053.5"/>
<text text-anchor="middle" x="218.4431" y="-1098.5" font-family="Helvetica,sans-Serif" font-size="10.00" fill="#000000">unsigned int</text>
<polyline fill="none" stroke="#000000" points="183.9431,-1091.5 252.9431,-1091.5 "/>
<text text-anchor="middle" x="218.4431" y="-1079.5" font-family="Helvetica,sans-Serif" font-size="10.00" fill="#000000"> </text>
<polyline fill="none" stroke="#000000" points="183.9431,-1072.5 252.9431,-1072.5 "/>
<text text-anchor="middle" x="218.4431" y="-1060.5" font-family="Helvetica,sans-Serif" font-size="10.00" fill="#000000"> </text>
</a>
</g>
</g>
<!-- Node7&#45;&gt;Node3 -->
<g id="edge6" class="edge">
<title>Node7&#45;&gt;Node3</title>
<path fill="none" stroke="#404040" d="M183.6762,-1068.3114C148.6139,-1052.827 95.2512,-1024.3974 63.4431,-984 13.7962,-920.947 18.5062,-892.1824 5.4431,-813 -.3445,-777.9186 -2.5493,-767.6456 5.4431,-733 11.8786,-705.1029 22.8255,-676.5847 35.0755,-650.2209"/>
<polygon fill="none" stroke="#404040" points="35.2314,-649.894 34.2031,-642.7566 40.396,-639.0622 41.4243,-646.1996 35.2314,-649.894"/>
<text text-anchor="middle" x="52.4431" y="-845" font-family="Helvetica,sans-Serif" font-size="10.00" fill="#000000"> &#45;largest_range</text>
<text text-anchor="middle" x="52.4431" y="-834" font-family="Helvetica,sans-Serif" font-size="10.00" fill="#000000">&#45;index_space_size</text>
</g>
<!-- Node9 -->
<g id="node9" class="node">
<title>Node9</title>
<g id="a_node9"><a xlink:href="structIndexSet_1_1Range.html" target="_top" xlink:title="{IndexSet::Range\n||+ Range()\l+ Range()\l+ serialize()\l+ end_compare()\l+ nth_index_compare()\l+ memory_consumption()\l}">
<polygon fill="#ffffff" stroke="#000000" points="154.4431,-871.5 154.4431,-983.5 282.4431,-983.5 282.4431,-871.5 154.4431,-871.5"/>
<text text-anchor="middle" x="218.4431" y="-971.5" font-family="Helvetica,sans-Serif" font-size="10.00" fill="#000000">IndexSet::Range</text>
<polyline fill="none" stroke="#000000" points="154.4431,-964.5 282.4431,-964.5 "/>
<text text-anchor="middle" x="218.4431" y="-952.5" font-family="Helvetica,sans-Serif" font-size="10.00" fill="#000000"> </text>
<polyline fill="none" stroke="#000000" points="154.4431,-945.5 282.4431,-945.5 "/>
<text text-anchor="start" x="162.4431" y="-933.5" font-family="Helvetica,sans-Serif" font-size="10.00" fill="#000000">+ Range()</text>
<text text-anchor="start" x="162.4431" y="-922.5" font-family="Helvetica,sans-Serif" font-size="10.00" fill="#000000">+ Range()</text>
<text text-anchor="start" x="162.4431" y="-911.5" font-family="Helvetica,sans-Serif" font-size="10.00" fill="#000000">+ serialize()</text>
<text text-anchor="start" x="162.4431" y="-900.5" font-family="Helvetica,sans-Serif" font-size="10.00" fill="#000000">+ end_compare()</text>
<text text-anchor="start" x="162.4431" y="-889.5" font-family="Helvetica,sans-Serif" font-size="10.00" fill="#000000">+ nth_index_compare()</text>
<text text-anchor="start" x="162.4431" y="-878.5" font-family="Helvetica,sans-Serif" font-size="10.00" fill="#000000">+ memory_consumption()</text>
</a>
</g>
</g>
<!-- Node7&#45;&gt;Node9 -->
<g id="edge9" class="edge">
<title>Node7&#45;&gt;Node9</title>
<path fill="none" stroke="#404040" d="M218.4431,-1053.3018C218.4431,-1037.0376 218.4431,-1015.9447 218.4431,-995.6936"/>
<polygon fill="none" stroke="#404040" points="218.4432,-995.5784 214.4431,-989.5785 218.4431,-983.5784 222.4431,-989.5784 218.4432,-995.5784"/>
<text text-anchor="middle" x="259.9431" y="-1027" font-family="Helvetica,sans-Serif" font-size="10.00" fill="#000000"> +nth_index_in_set</text>
<text text-anchor="middle" x="259.9431" y="-1016" font-family="Helvetica,sans-Serif" font-size="10.00" fill="#000000">+begin</text>
<text text-anchor="middle" x="259.9431" y="-1005" font-family="Helvetica,sans-Serif" font-size="10.00" fill="#000000">+end</text>
</g>
<!-- Node13 -->
<g id="node13" class="node">
<title>Node13</title>
<polygon fill="#ffffff" stroke="#bfbfbf" points="416.9431,-739 416.9431,-807 527.9431,-807 527.9431,-739 416.9431,-739"/>
<text text-anchor="start" x="424.9431" y="-795" font-family="Helvetica,sans-Serif" font-size="10.00" fill="#000000">std::vector&lt; unsigned</text>
<text text-anchor="middle" x="472.4431" y="-784" font-family="Helvetica,sans-Serif" font-size="10.00" fill="#000000"> int &gt;</text>
<polyline fill="none" stroke="#bfbfbf" points="416.9431,-777 527.9431,-777 "/>
<text text-anchor="middle" x="472.4431" y="-765" font-family="Helvetica,sans-Serif" font-size="10.00" fill="#000000"> </text>
<polyline fill="none" stroke="#bfbfbf" points="416.9431,-758 527.9431,-758 "/>
<text text-anchor="middle" x="472.4431" y="-746" font-family="Helvetica,sans-Serif" font-size="10.00" fill="#000000"> </text>
</g>
<!-- Node7&#45;&gt;Node13 -->
<g id="edge15" class="edge">
<title>Node7&#45;&gt;Node13</title>
<path fill="none" stroke="#404040" d="M253.2331,-1072.4831C274.6056,-1066.7016 302.5649,-1059.2543 327.4431,-1053 361.1078,-1044.5368 378.1617,-1058.7864 403.4431,-1035 462.9661,-978.9967 473.4759,-878.3226 474.085,-819.4134"/>
<polygon fill="none" stroke="#404040" points="474.0849,-819.1546 470.0797,-813.1581 474.0746,-807.1547 478.0797,-813.1512 474.0849,-819.1546"/>
<text text-anchor="middle" x="494.9431" y="-925" font-family="Helvetica,sans-Serif" font-size="10.00" fill="#000000"> +elements</text>
</g>
<!-- Node8 -->
<g id="node8" class="node">
<title>Node8</title>
<polygon fill="#ffffff" stroke="#bfbfbf" points="175.9431,-739 175.9431,-807 286.9431,-807 286.9431,-739 175.9431,-739"/>
<text text-anchor="start" x="183.9431" y="-795" font-family="Helvetica,sans-Serif" font-size="10.00" fill="#000000">std::vector&lt; IndexSet</text>
<text text-anchor="middle" x="231.4431" y="-784" font-family="Helvetica,sans-Serif" font-size="10.00" fill="#000000">::Range &gt;</text>
<polyline fill="none" stroke="#bfbfbf" points="175.9431,-777 286.9431,-777 "/>
<text text-anchor="middle" x="231.4431" y="-765" font-family="Helvetica,sans-Serif" font-size="10.00" fill="#000000"> </text>
<polyline fill="none" stroke="#bfbfbf" points="175.9431,-758 286.9431,-758 "/>
<text text-anchor="middle" x="231.4431" y="-746" font-family="Helvetica,sans-Serif" font-size="10.00" fill="#000000"> </text>
</g>
<!-- Node8&#45;&gt;Node3 -->
<g id="edge7" class="edge">
<title>Node8&#45;&gt;Node3</title>
<path fill="none" stroke="#404040" d="M214.4785,-738.7989C208.8455,-727.6484 202.4714,-715.2468 196.4431,-704 187.5291,-687.3697 177.94,-669.9268 168.4041,-652.8334"/>
<polygon fill="none" stroke="#404040" points="168.3396,-652.718 161.9191,-649.4351 162.48,-642.2459 168.9005,-645.5288 168.3396,-652.718"/>
<text text-anchor="middle" x="219.4431" y="-707" font-family="Helvetica,sans-Serif" font-size="10.00" fill="#000000"> &#45;ranges</text>
</g>
<!-- Node9&#45;&gt;Node8 -->
<g id="edge8" class="edge">
<title>Node9&#45;&gt;Node8</title>
<path fill="none" stroke="#404040" d="M171.6291,-871.4062C165.8231,-858.2911 163.6845,-844.2725 169.4431,-831 171.6476,-825.9188 174.5409,-821.0796 177.8732,-816.5208"/>
<polygon fill="none" stroke="#404040" points="178.1084,-816.2375 178.8626,-809.0659 185.7726,-807.0037 185.0184,-814.1753 178.1084,-816.2375"/>
<text text-anchor="middle" x="193.9431" y="-839.5" font-family="Helvetica,sans-Serif" font-size="10.00" fill="#000000"> +elements</text>
</g>
<!-- Node10 -->
<g id="node10" class="node">
<title>Node10</title>
<g id="a_node10"><a xlink:title="STL class. ">
<polygon fill="#ffffff" stroke="#bfbfbf" points="306.9431,-899 306.9431,-956 393.9431,-956 393.9431,-899 306.9431,-899"/>
<text text-anchor="middle" x="350.4431" y="-944" font-family="Helvetica,sans-Serif" font-size="10.00" fill="#000000">std::vector&lt; T &gt;</text>
<polyline fill="none" stroke="#bfbfbf" points="306.9431,-937 393.9431,-937 "/>
<text text-anchor="middle" x="350.4431" y="-925" font-family="Helvetica,sans-Serif" font-size="10.00" fill="#000000"> </text>
<polyline fill="none" stroke="#bfbfbf" points="306.9431,-918 393.9431,-918 "/>
<text text-anchor="middle" x="350.4431" y="-906" font-family="Helvetica,sans-Serif" font-size="10.00" fill="#000000"> </text>
</a>
</g>
</g>
<!-- Node10&#45;&gt;Node2 -->
<g id="edge12" class="edge">
<title>Node10&#45;&gt;Node2</title>
<path fill="none" stroke="#ffa500" d="M349.0831,-888.7716C345.1099,-794.6259 330.6353,-546.7499 283.4431,-346 282.0134,-339.9183 280.0432,-333.5398 277.9495,-327.5125"/>
<polygon fill="#ffa500" stroke="#ffa500" points="345.5939,-889.1105 349.497,-898.9601 352.5881,-888.8263 345.5939,-889.1105"/>
<text text-anchor="middle" x="367.9431" y="-707" font-family="Helvetica,sans-Serif" font-size="10.00" fill="#000000"> &lt; IndexSet &gt;</text>
</g>
<!-- Node10&#45;&gt;Node8 -->
<g id="edge10" class="edge">
<title>Node10&#45;&gt;Node8</title>
<path fill="none" stroke="#ffa500" d="M317.4659,-891.328C309.4693,-883.9143 300.5756,-876.6579 291.4431,-871 271.3655,-858.5614 256.1984,-871.442 241.4431,-853 231.2995,-840.322 228.2953,-822.7077 228.0431,-807.2336"/>
<polygon fill="#ffa500" stroke="#ffa500" points="315.5152,-894.3099 325.1391,-898.7406 320.3787,-889.2754 315.5152,-894.3099"/>
<text text-anchor="middle" x="288.9431" y="-839.5" font-family="Helvetica,sans-Serif" font-size="10.00" fill="#000000"> &lt; IndexSet::Range &gt;</text>
</g>
<!-- Node10&#45;&gt;Node13 -->
<g id="edge16" class="edge">
<title>Node10&#45;&gt;Node13</title>
<path fill="none" stroke="#ffa500" d="M357.8743,-889.1255C362.9751,-870.184 371.2768,-847.8459 384.4431,-831 393.2319,-819.7549 404.8345,-809.9779 416.7202,-801.8183"/>
<polygon fill="#ffa500" stroke="#ffa500" points="354.4462,-888.4078 355.4246,-898.9574 361.2385,-890.1003 354.4462,-888.4078"/>
<text text-anchor="middle" x="421.4431" y="-839.5" font-family="Helvetica,sans-Serif" font-size="10.00" fill="#000000"> &lt; unsigned int &gt;</text>
</g>
<!-- Node11 -->
<g id="node11" class="node">
<title>Node11</title>
<polygon fill="#ffffff" stroke="#bfbfbf" points="335.9431,-1053.5 335.9431,-1110.5 364.9431,-1110.5 364.9431,-1053.5 335.9431,-1053.5"/>
<text text-anchor="middle" x="350.4431" y="-1098.5" font-family="Helvetica,sans-Serif" font-size="10.00" fill="#000000">T</text>
<polyline fill="none" stroke="#bfbfbf" points="335.9431,-1091.5 364.9431,-1091.5 "/>
<text text-anchor="middle" x="350.4431" y="-1079.5" font-family="Helvetica,sans-Serif" font-size="10.00" fill="#000000"> </text>
<polyline fill="none" stroke="#bfbfbf" points="335.9431,-1072.5 364.9431,-1072.5 "/>
<text text-anchor="middle" x="350.4431" y="-1060.5" font-family="Helvetica,sans-Serif" font-size="10.00" fill="#000000"> </text>
</g>
<!-- Node11&#45;&gt;Node10 -->
<g id="edge11" class="edge">
<title>Node11&#45;&gt;Node10</title>
<path fill="none" stroke="#404040" d="M350.4431,-1053.3018C350.4431,-1029.3452 350.4431,-994.9122 350.4431,-968.1245"/>
<polygon fill="none" stroke="#404040" points="350.4432,-968.0445 346.4431,-962.0445 350.4431,-956.0445 354.4431,-962.0445 350.4432,-968.0445"/>
<text text-anchor="middle" x="374.9431" y="-1016" font-family="Helvetica,sans-Serif" font-size="10.00" fill="#000000"> +elements</text>
</g>
<!-- Node12 -->
<g id="node12" class="node">
<title>Node12</title>
<g id="a_node12"><a xlink:href="classint.html" target="_top" xlink:title="{int\n||}">
<polygon fill="#ffffff" stroke="#000000" points="344.9431,-270.5 344.9431,-327.5 373.9431,-327.5 373.9431,-270.5 344.9431,-270.5"/>
<text text-anchor="middle" x="359.4431" y="-315.5" font-family="Helvetica,sans-Serif" font-size="10.00" fill="#000000">int</text>
<polyline fill="none" stroke="#000000" points="344.9431,-308.5 373.9431,-308.5 "/>
<text text-anchor="middle" x="359.4431" y="-296.5" font-family="Helvetica,sans-Serif" font-size="10.00" fill="#000000"> </text>
<polyline fill="none" stroke="#000000" points="344.9431,-289.5 373.9431,-289.5 "/>
<text text-anchor="middle" x="359.4431" y="-277.5" font-family="Helvetica,sans-Serif" font-size="10.00" fill="#000000"> </text>
</a>
</g>
</g>
<!-- Node12&#45;&gt;Node1 -->
<g id="edge13" class="edge">
<title>Node12&#45;&gt;Node1</title>
<path fill="none" stroke="#404040" d="M350.6102,-270.1059C346.6019,-256.9941 341.5706,-240.536 336.2524,-223.1389"/>
<polygon fill="none" stroke="#404040" points="336.2321,-223.0725 330.6528,-218.504 332.7239,-211.5967 338.3033,-216.1652 336.2321,-223.0725"/>
<text text-anchor="middle" x="396.4431" y="-244" font-family="Helvetica,sans-Serif" font-size="10.00" fill="#000000"> +n_locally_owned_dofs</text>
<text text-anchor="middle" x="396.4431" y="-233" font-family="Helvetica,sans-Serif" font-size="10.00" fill="#000000">+n_global_dofs</text>
</g>
<!-- Node13&#45;&gt;Node1 -->
<g id="edge14" class="edge">
<title>Node13&#45;&gt;Node1</title>
<path fill="none" stroke="#404040" d="M480.4709,-738.8529C499.6032,-649.5401 540.1175,-403.9153 453.4431,-230 440.499,-204.0273 419.3201,-181.6466 396.7896,-163.331"/>
<polygon fill="none" stroke="#404040" points="396.5242,-163.1234 389.3336,-162.5786 387.071,-155.7317 394.2615,-156.2765 396.5242,-163.1234"/>
<text text-anchor="start" x="495.4431" y="-360" font-family="Helvetica,sans-Serif" font-size="10.00" fill="#000000"> +n_locally_owned_dofs</text>
<text text-anchor="middle" x="548.4431" y="-349" font-family="Helvetica,sans-Serif" font-size="10.00" fill="#000000">_per_processor</text>
</g>
</g>
</svg>
        <g id="navigator" transform="translate(0 0)" fill="#404254">
                <rect fill="#f2f5e9" fill-opacity="0.5" stroke="#606060" stroke-width=".5" x="0" y="0" width="60" height="60"/>
                <use id="zoomplus" xlink:href="#zoomPlus" x="17" y="9" onmousedown="handleZoom(evt,'in')"/>
                <use id="zoomminus" xlink:href="#zoomMin" x="42" y="9" onmousedown="handleZoom(evt,'out')"/>
                <use id="reset" xlink:href="#resetDef" x="30" y="36" onmousedown="handleReset()"/>
                <g id="arrowUp" xlink:href="#dirArrow" transform="translate(30 24)" onmousedown="handlePan(0,-1)">
                  <use xlink:href="#rim" fill="#404040">
                        <set attributeName="fill" to="#808080" begin="arrowUp.mouseover" end="arrowUp.mouseout"/>
                  </use>
                  <path fill="none" stroke="white" stroke-width="1.5" d="M0,-3.0v7 M-2.5,-0.5L0,-3.0L2.5,-0.5"/>
                </g>
                <g id="arrowRight" xlink:href="#dirArrow" transform="rotate(90) translate(36 -43)" onmousedown="handlePan(1,0)">
                  <use xlink:href="#rim" fill="#404040">
                        <set attributeName="fill" to="#808080" begin="arrowRight.mouseover" end="arrowRight.mouseout"/>
                  </use>
                  <path fill="none" stroke="white" stroke-width="1.5" d="M0,-3.0v7 M-2.5,-0.5L0,-3.0L2.5,-0.5"/>
                </g>
                <g id="arrowDown" xlink:href="#dirArrow" transform="rotate(180) translate(-30 -48)" onmousedown="handlePan(0,1)">
                  <use xlink:href="#rim" fill="#404040">
                        <set attributeName="fill" to="#808080" begin="arrowDown.mouseover" end="arrowDown.mouseout"/>
                  </use>
                  <path fill="none" stroke="white" stroke-width="1.5" d="M0,-3.0v7 M-2.5,-0.5L0,-3.0L2.5,-0.5"/>
                </g>
                <g id="arrowLeft" xlink:href="#dirArrow" transform="rotate(270) translate(-36 17)" onmousedown="handlePan(-1,0)">
                  <use xlink:href="#rim" fill="#404040">
                        <set attributeName="fill" to="#808080" begin="arrowLeft.mouseover" end="arrowLeft.mouseout"/>
                  </use>
                  <path fill="none" stroke="white" stroke-width="1.5" d="M0,-3.0v7 M-2.5,-0.5L0,-3.0L2.5,-0.5"/>
                </g>
        </g>
        <svg viewBox="0 0 15 15" width="100%" height="30px" preserveAspectRatio="xMaxYMin meet">
         <g id="arrow_out" transform="scale(0.3 0.3)">
          <a xlink:href="structinternal_1_1DoFHandlerImplementation_1_1NumberCache__coll__graph_org.svg" target="_base">
           <rect id="button" ry="5" rx="5" y="6" x="6" height="38" width="38"
                fill="#f2f5e9" fill-opacity="0.5" stroke="#606060" stroke-width="1.0"/>
           <path id="arrow"
             d="M 11.500037,31.436501 C 11.940474,20.09759 22.043105,11.32322 32.158766,21.979434 L 37.068811,17.246167 C 37.068811,17.246167 37.088388,32 37.088388,32 L 22.160133,31.978069 C 22.160133,31.978069 26.997745,27.140456 26.997745,27.140456 C 18.528582,18.264221 13.291696,25.230495 11.500037,31.436501 z"
             style="fill:#404040;"/>
          </a>
         </g>
        </svg>
</svg>
