<?xml version="1.0" encoding="UTF-8" standalone="no"?>
<!DOCTYPE svg PUBLIC "-//W3C//DTD SVG 1.1//EN"
 "http://www.w3.org/Graphics/SVG/1.1/DTD/svg11.dtd">
<!-- Generated by graphviz version 2.40.1 (20161225.0304)
 -->
<!-- Title: internal::MatrixFreeFunctions::FaceInfo&lt; vectorization_width &gt; Pages: 1 -->
<svg width="435pt" height="502pt"
 viewBox="0.00 0.00 435.00 502.00" xmlns="http://www.w3.org/2000/svg" xmlns:xlink="http://www.w3.org/1999/xlink">
<g id="graph0" class="graph" transform="scale(1 1) rotate(0) translate(4 498)">
<title>internal::MatrixFreeFunctions::FaceInfo&lt; vectorization_width &gt;</title>
<polygon fill="#ffffff" stroke="transparent" points="-4,4 -4,-498 431,-498 431,4 -4,4"/>
<!-- Node2 -->
<g id="node1" class="node">
<title>Node2</title>
<polygon fill="#bfbfbf" stroke="#000000" points="51.5,-.5 51.5,-90.5 194.5,-90.5 194.5,-.5 51.5,-.5"/>
<text text-anchor="start" x="59.5" y="-78.5" font-family="Helvetica,sans-Serif" font-size="10.00" fill="#000000">internal::MatrixFreeFunctions</text>
<text text-anchor="start" x="59.5" y="-67.5" font-family="Helvetica,sans-Serif" font-size="10.00" fill="#000000">::FaceInfo&lt; vectorization</text>
<text text-anchor="middle" x="123" y="-56.5" font-family="Helvetica,sans-Serif" font-size="10.00" fill="#000000">_width &gt;</text>
<polyline fill="none" stroke="#000000" points="51.5,-49.5 194.5,-49.5 "/>
<text text-anchor="middle" x="123" y="-37.5" font-family="Helvetica,sans-Serif" font-size="10.00" fill="#000000"> </text>
<polyline fill="none" stroke="#000000" points="51.5,-30.5 194.5,-30.5 "/>
<text text-anchor="start" x="59.5" y="-18.5" font-family="Helvetica,sans-Serif" font-size="10.00" fill="#000000">+ clear()</text>
<text text-anchor="start" x="59.5" y="-7.5" font-family="Helvetica,sans-Serif" font-size="10.00" fill="#000000">+ memory_consumption()</text>
</g>
<!-- Node3 -->
<g id="node2" class="node">
<title>Node3</title>
<g id="a_node2"><a xlink:href="classTable.html" target="_top" xlink:title="{Table\&lt; 3, unsigned\l int \&gt;\n||}">
<polygon fill="#ffffff" stroke="#000000" points="0,-171.5 0,-239.5 100,-239.5 100,-171.5 0,-171.5"/>
<text text-anchor="start" x="8" y="-227.5" font-family="Helvetica,sans-Serif" font-size="10.00" fill="#000000">Table&lt; 3, unsigned</text>
<text text-anchor="middle" x="50" y="-216.5" font-family="Helvetica,sans-Serif" font-size="10.00" fill="#000000"> int &gt;</text>
<polyline fill="none" stroke="#000000" points="0,-209.5 100,-209.5 "/>
<text text-anchor="middle" x="50" y="-197.5" font-family="Helvetica,sans-Serif" font-size="10.00" fill="#000000"> </text>
<polyline fill="none" stroke="#000000" points="0,-190.5 100,-190.5 "/>
<text text-anchor="middle" x="50" y="-178.5" font-family="Helvetica,sans-Serif" font-size="10.00" fill="#000000"> </text>
</a>
</g>
</g>
<!-- Node3&#45;&gt;Node2 -->
<g id="edge1" class="edge">
<title>Node3&#45;&gt;Node2</title>
<path fill="none" stroke="#404040" d="M43.7606,-171.4233C41.8299,-152.2487 42.1452,-128.3481 51,-109 52.3048,-106.1489 53.8067,-103.374 55.4696,-100.6794"/>
<polygon fill="none" stroke="#404040" points="55.6288,-100.4565 55.8628,-93.2491 62.6057,-90.6931 62.3717,-97.9004 55.6288,-100.4565"/>
<text text-anchor="start" x="51" y="-134" font-family="Helvetica,sans-Serif" font-size="10.00" fill="#000000"> +cell_and_face_to_plain</text>
<text text-anchor="middle" x="113" y="-123" font-family="Helvetica,sans-Serif" font-size="10.00" fill="#000000">_faces</text>
<text text-anchor="middle" x="113" y="-112" font-family="Helvetica,sans-Serif" font-size="10.00" fill="#000000">+cell_and_face_boundary_id</text>
</g>
<!-- Node4 -->
<g id="node3" class="node">
<title>Node4</title>
<g id="a_node3"><a xlink:href="classTable.html" target="_top" xlink:title="{Table\&lt; N, T \&gt;\n||}">
<polygon fill="#ffffff" stroke="#000000" points="11,-326 11,-383 89,-383 89,-326 11,-326"/>
<text text-anchor="middle" x="50" y="-371" font-family="Helvetica,sans-Serif" font-size="10.00" fill="#000000">Table&lt; N, T &gt;</text>
<polyline fill="none" stroke="#000000" points="11,-364 89,-364 "/>
<text text-anchor="middle" x="50" y="-352" font-family="Helvetica,sans-Serif" font-size="10.00" fill="#000000"> </text>
<polyline fill="none" stroke="#000000" points="11,-345 89,-345 "/>
<text text-anchor="middle" x="50" y="-333" font-family="Helvetica,sans-Serif" font-size="10.00" fill="#000000"> </text>
</a>
</g>
</g>
<!-- Node4&#45;&gt;Node3 -->
<g id="edge2" class="edge">
<title>Node4&#45;&gt;Node3</title>
<path fill="none" stroke="#ffa500" d="M50,-315.7559C50,-292.1705 50,-262.3175 50,-239.6252"/>
<polygon fill="#ffa500" stroke="#ffa500" points="46.5001,-315.7713 50,-325.7713 53.5001,-315.7713 46.5001,-315.7713"/>
<text text-anchor="middle" x="92.5" y="-283" font-family="Helvetica,sans-Serif" font-size="10.00" fill="#000000"> &lt; 3, unsigned int &gt;</text>
</g>
<!-- Node5 -->
<g id="node4" class="node">
<title>Node5</title>
<polygon fill="#ffffff" stroke="#bfbfbf" points="136,-160.5 136,-250.5 258,-250.5 258,-160.5 136,-160.5"/>
<text text-anchor="start" x="144" y="-238.5" font-family="Helvetica,sans-Serif" font-size="10.00" fill="#000000">std::vector&lt; internal</text>
<text text-anchor="start" x="144" y="-227.5" font-family="Helvetica,sans-Serif" font-size="10.00" fill="#000000">::MatrixFreeFunctions</text>
<text text-anchor="start" x="144" y="-216.5" font-family="Helvetica,sans-Serif" font-size="10.00" fill="#000000">::FaceToCellTopology&lt;</text>
<text text-anchor="middle" x="197" y="-205.5" font-family="Helvetica,sans-Serif" font-size="10.00" fill="#000000"> vectorization_width &gt; &gt;</text>
<polyline fill="none" stroke="#bfbfbf" points="136,-198.5 258,-198.5 "/>
<text text-anchor="middle" x="197" y="-186.5" font-family="Helvetica,sans-Serif" font-size="10.00" fill="#000000"> </text>
<polyline fill="none" stroke="#bfbfbf" points="136,-179.5 258,-179.5 "/>
<text text-anchor="middle" x="197" y="-167.5" font-family="Helvetica,sans-Serif" font-size="10.00" fill="#000000"> </text>
</g>
<!-- Node5&#45;&gt;Node2 -->
<g id="edge3" class="edge">
<title>Node5&#45;&gt;Node2</title>
<path fill="none" stroke="#404040" d="M191.1556,-160.3289C187.8614,-143.6233 182.7804,-124.897 175,-109 173.6572,-106.2563 172.1746,-103.5269 170.5851,-100.8285"/>
<polygon fill="none" stroke="#404040" points="170.4987,-100.6945 163.8848,-97.8208 163.9937,-90.6105 170.6075,-93.4842 170.4987,-100.6945"/>
<text text-anchor="middle" x="204" y="-123" font-family="Helvetica,sans-Serif" font-size="10.00" fill="#000000"> +faces</text>
</g>
<!-- Node6 -->
<g id="node5" class="node">
<title>Node6</title>
<polygon fill="#ffffff" stroke="#bfbfbf" points="122.5,-320.5 122.5,-388.5 241.5,-388.5 241.5,-320.5 122.5,-320.5"/>
<text text-anchor="start" x="130.5" y="-376.5" font-family="Helvetica,sans-Serif" font-size="10.00" fill="#000000">FaceToCellTopology</text>
<text text-anchor="middle" x="182" y="-365.5" font-family="Helvetica,sans-Serif" font-size="10.00" fill="#000000">&lt; vectorization_width &gt;</text>
<polyline fill="none" stroke="#bfbfbf" points="122.5,-358.5 241.5,-358.5 "/>
<text text-anchor="middle" x="182" y="-346.5" font-family="Helvetica,sans-Serif" font-size="10.00" fill="#000000"> </text>
<polyline fill="none" stroke="#bfbfbf" points="122.5,-339.5 241.5,-339.5 "/>
<text text-anchor="middle" x="182" y="-327.5" font-family="Helvetica,sans-Serif" font-size="10.00" fill="#000000"> </text>
</g>
<!-- Node6&#45;&gt;Node5 -->
<g id="edge4" class="edge">
<title>Node6&#45;&gt;Node5</title>
<path fill="none" stroke="#404040" d="M185.4413,-320.3164C187.1594,-303.25 189.2841,-282.1442 191.2414,-262.7022"/>
<polygon fill="none" stroke="#404040" points="191.2632,-262.4849 187.8843,-256.1144 192.4652,-250.5452 195.8441,-256.9157 191.2632,-262.4849"/>
<text text-anchor="middle" x="215.5" y="-283" font-family="Helvetica,sans-Serif" font-size="10.00" fill="#000000"> +elements</text>
</g>
<!-- Node7 -->
<g id="node6" class="node">
<title>Node7</title>
<g id="a_node6"><a xlink:title="STL class. ">
<polygon fill="#ffffff" stroke="#bfbfbf" points="259.5,-326 259.5,-383 346.5,-383 346.5,-326 259.5,-326"/>
<text text-anchor="middle" x="303" y="-371" font-family="Helvetica,sans-Serif" font-size="10.00" fill="#000000">std::vector&lt; T &gt;</text>
<polyline fill="none" stroke="#bfbfbf" points="259.5,-364 346.5,-364 "/>
<text text-anchor="middle" x="303" y="-352" font-family="Helvetica,sans-Serif" font-size="10.00" fill="#000000"> </text>
<polyline fill="none" stroke="#bfbfbf" points="259.5,-345 346.5,-345 "/>
<text text-anchor="middle" x="303" y="-333" font-family="Helvetica,sans-Serif" font-size="10.00" fill="#000000"> </text>
</a>
</g>
</g>
<!-- Node7&#45;&gt;Node5 -->
<g id="edge5" class="edge">
<title>Node7&#45;&gt;Node5</title>
<path fill="none" stroke="#ffa500" d="M277.7099,-317.2785C267.3701,-302.2113 255.2218,-284.699 244,-269 239.7728,-263.0862 235.2814,-256.8994 230.8164,-250.8061"/>
<polygon fill="#ffa500" stroke="#ffa500" points="275.0308,-319.5609 283.5682,-325.8351 280.8068,-315.6064 275.0308,-319.5609"/>
<text text-anchor="start" x="266" y="-294" font-family="Helvetica,sans-Serif" font-size="10.00" fill="#000000"> &lt; internal::MatrixFreeFunctions</text>
<text text-anchor="start" x="266" y="-283" font-family="Helvetica,sans-Serif" font-size="10.00" fill="#000000">::FaceToCellTopology&lt; vectorization</text>
<text text-anchor="middle" x="346.5" y="-272" font-family="Helvetica,sans-Serif" font-size="10.00" fill="#000000">_width &gt; &gt;</text>
</g>
<!-- Node8 -->
<g id="node7" class="node">
<title>Node8</title>
<polygon fill="#ffffff" stroke="#bfbfbf" points="288.5,-436.5 288.5,-493.5 317.5,-493.5 317.5,-436.5 288.5,-436.5"/>
<text text-anchor="middle" x="303" y="-481.5" font-family="Helvetica,sans-Serif" font-size="10.00" fill="#000000">T</text>
<polyline fill="none" stroke="#bfbfbf" points="288.5,-474.5 317.5,-474.5 "/>
<text text-anchor="middle" x="303" y="-462.5" font-family="Helvetica,sans-Serif" font-size="10.00" fill="#000000"> </text>
<polyline fill="none" stroke="#bfbfbf" points="288.5,-455.5 317.5,-455.5 "/>
<text text-anchor="middle" x="303" y="-443.5" font-family="Helvetica,sans-Serif" font-size="10.00" fill="#000000"> </text>
</g>
<!-- Node8&#45;&gt;Node7 -->
<g id="edge6" class="edge">
<title>Node8&#45;&gt;Node7</title>
<path fill="none" stroke="#404040" d="M303,-436.2559C303,-423.7224 303,-408.8039 303,-395.1631"/>
<polygon fill="none" stroke="#404040" points="303.0001,-395.1002 299,-389.1002 303,-383.1002 307,-389.1002 303.0001,-395.1002"/>
<text text-anchor="middle" x="327.5" y="-410" font-family="Helvetica,sans-Serif" font-size="10.00" fill="#000000"> +elements</text>
</g>
</g>
</svg>
