<?xml version="1.0" encoding="UTF-8" standalone="no"?>
<!DOCTYPE svg PUBLIC "-//W3C//DTD SVG 1.1//EN"
 "http://www.w3.org/Graphics/SVG/1.1/DTD/svg11.dtd">
<!-- Generated by graphviz version 2.40.1 (20161225.0304)
 -->
<!-- Title: GridOutFlags::Vtu Pages: 1 -->
<svg width="143pt" height="482pt"
 viewBox="0.00 0.00 143.00 482.00" xmlns="http://www.w3.org/2000/svg" xmlns:xlink="http://www.w3.org/1999/xlink">
<g id="graph0" class="graph" transform="scale(1 1) rotate(0) translate(4 478)">
<title>GridOutFlags::Vtu</title>
<polygon fill="#ffffff" stroke="transparent" points="-4,4 -4,-478 139,-478 139,4 -4,4"/>
<!-- Node0 -->
<g id="node1" class="node">
<title>Node0</title>
<polygon fill="#bfbfbf" stroke="#000000" points="8,-.5 8,-57.5 127,-57.5 127,-.5 8,-.5"/>
<text text-anchor="middle" x="67.5" y="-45.5" font-family="Helvetica,sans-Serif" font-size="10.00" fill="#000000">GridOutFlags::Vtu</text>
<polyline fill="none" stroke="#000000" points="8,-38.5 127,-38.5 "/>
<text text-anchor="start" x="16" y="-26.5" font-family="Helvetica,sans-Serif" font-size="10.00" fill="#000000">+ serialize_triangulation</text>
<polyline fill="none" stroke="#000000" points="8,-19.5 127,-19.5 "/>
<text text-anchor="start" x="16" y="-7.5" font-family="Helvetica,sans-Serif" font-size="10.00" fill="#000000">+ Vtu()</text>
</g>
<!-- Node1 -->
<g id="node2" class="node">
<title>Node1</title>
<g id="a_node2"><a xlink:href="structDataOutBase_1_1VtkFlags.html" target="_top" xlink:title="{DataOutBase::VtkFlags\n|+ time\l+ cycle\l+ print_date_and_time\l+ compression_level\l+ write_higher_order\l_cells\l|+ VtkFlags()\l}">
<polygon fill="#ffffff" stroke="#000000" points="7,-95.5 7,-207.5 128,-207.5 128,-95.5 7,-95.5"/>
<text text-anchor="middle" x="67.5" y="-195.5" font-family="Helvetica,sans-Serif" font-size="10.00" fill="#000000">DataOutBase::VtkFlags</text>
<polyline fill="none" stroke="#000000" points="7,-188.5 128,-188.5 "/>
<text text-anchor="start" x="15" y="-176.5" font-family="Helvetica,sans-Serif" font-size="10.00" fill="#000000">+ time</text>
<text text-anchor="start" x="15" y="-165.5" font-family="Helvetica,sans-Serif" font-size="10.00" fill="#000000">+ cycle</text>
<text text-anchor="start" x="15" y="-154.5" font-family="Helvetica,sans-Serif" font-size="10.00" fill="#000000">+ print_date_and_time</text>
<text text-anchor="start" x="15" y="-143.5" font-family="Helvetica,sans-Serif" font-size="10.00" fill="#000000">+ compression_level</text>
<text text-anchor="start" x="15" y="-132.5" font-family="Helvetica,sans-Serif" font-size="10.00" fill="#000000">+ write_higher_order</text>
<text text-anchor="start" x="15" y="-121.5" font-family="Helvetica,sans-Serif" font-size="10.00" fill="#000000">_cells</text>
<polyline fill="none" stroke="#000000" points="7,-114.5 128,-114.5 "/>
<text text-anchor="start" x="15" y="-102.5" font-family="Helvetica,sans-Serif" font-size="10.00" fill="#000000">+ VtkFlags()</text>
</a>
</g>
</g>
<!-- Node1&#45;&gt;Node0 -->
<g id="edge1" class="edge">
<title>Node1&#45;&gt;Node0</title>
<path fill="none" stroke="#191970" d="M67.5,-85.1308C67.5,-75.4223 67.5,-65.8865 67.5,-57.5083"/>
<polygon fill="none" stroke="#191970" points="64.0001,-85.2694 67.5,-95.2694 71.0001,-85.2694 64.0001,-85.2694"/>
</g>
<!-- Node2 -->
<g id="node3" class="node">
<title>Node2</title>
<g id="a_node3"><a xlink:href="structDataOutBase_1_1OutputFlagsBase.html" target="_top" xlink:title="{DataOutBase::OutputFlags\lBase\&lt; VtkFlags \&gt;\n||+ parse_parameters()\l+ memory_consumption()\l+ declare_parameters()\l}">
<polygon fill="#ffffff" stroke="#000000" points="0,-245.5 0,-335.5 135,-335.5 135,-245.5 0,-245.5"/>
<text text-anchor="start" x="8" y="-323.5" font-family="Helvetica,sans-Serif" font-size="10.00" fill="#000000">DataOutBase::OutputFlags</text>
<text text-anchor="middle" x="67.5" y="-312.5" font-family="Helvetica,sans-Serif" font-size="10.00" fill="#000000">Base&lt; VtkFlags &gt;</text>
<polyline fill="none" stroke="#000000" points="0,-305.5 135,-305.5 "/>
<text text-anchor="middle" x="67.5" y="-293.5" font-family="Helvetica,sans-Serif" font-size="10.00" fill="#000000"> </text>
<polyline fill="none" stroke="#000000" points="0,-286.5 135,-286.5 "/>
<text text-anchor="start" x="8" y="-274.5" font-family="Helvetica,sans-Serif" font-size="10.00" fill="#000000">+ parse_parameters()</text>
<text text-anchor="start" x="8" y="-263.5" font-family="Helvetica,sans-Serif" font-size="10.00" fill="#000000">+ memory_consumption()</text>
<text text-anchor="start" x="8" y="-252.5" font-family="Helvetica,sans-Serif" font-size="10.00" fill="#000000">+ declare_parameters()</text>
</a>
</g>
</g>
<!-- Node2&#45;&gt;Node1 -->
<g id="edge2" class="edge">
<title>Node2&#45;&gt;Node1</title>
<path fill="none" stroke="#191970" d="M67.5,-235.2708C67.5,-226.1654 67.5,-216.7185 67.5,-207.5922"/>
<polygon fill="none" stroke="#191970" points="64.0001,-235.3706 67.5,-245.3707 71.0001,-235.3707 64.0001,-235.3706"/>
</g>
<!-- Node3 -->
<g id="node4" class="node">
<title>Node3</title>
<g id="a_node4"><a xlink:href="structDataOutBase_1_1OutputFlagsBase.html" target="_top" xlink:title="{DataOutBase::OutputFlags\lBase\&lt; FlagsType \&gt;\n||+ parse_parameters()\l+ memory_consumption()\l+ declare_parameters()\l}">
<polygon fill="#ffffff" stroke="#000000" points="0,-383.5 0,-473.5 135,-473.5 135,-383.5 0,-383.5"/>
<text text-anchor="start" x="8" y="-461.5" font-family="Helvetica,sans-Serif" font-size="10.00" fill="#000000">DataOutBase::OutputFlags</text>
<text text-anchor="middle" x="67.5" y="-450.5" font-family="Helvetica,sans-Serif" font-size="10.00" fill="#000000">Base&lt; FlagsType &gt;</text>
<polyline fill="none" stroke="#000000" points="0,-443.5 135,-443.5 "/>
<text text-anchor="middle" x="67.5" y="-431.5" font-family="Helvetica,sans-Serif" font-size="10.00" fill="#000000"> </text>
<polyline fill="none" stroke="#000000" points="0,-424.5 135,-424.5 "/>
<text text-anchor="start" x="8" y="-412.5" font-family="Helvetica,sans-Serif" font-size="10.00" fill="#000000">+ parse_parameters()</text>
<text text-anchor="start" x="8" y="-401.5" font-family="Helvetica,sans-Serif" font-size="10.00" fill="#000000">+ memory_consumption()</text>
<text text-anchor="start" x="8" y="-390.5" font-family="Helvetica,sans-Serif" font-size="10.00" fill="#000000">+ declare_parameters()</text>
</a>
</g>
</g>
<!-- Node3&#45;&gt;Node2 -->
<g id="edge3" class="edge">
<title>Node3&#45;&gt;Node2</title>
<path fill="none" stroke="#ffa500" d="M67.5,-373.089C67.5,-360.7026 67.5,-347.7078 67.5,-335.7879"/>
<polygon fill="#ffa500" stroke="#ffa500" points="64.0001,-373.3136 67.5,-383.3136 71.0001,-373.3137 64.0001,-373.3136"/>
<text text-anchor="middle" x="98" y="-357" font-family="Helvetica,sans-Serif" font-size="10.00" fill="#000000"> &lt; VtkFlags &gt;</text>
</g>
</g>
</svg>
