<?xml version="1.0" encoding="UTF-8" standalone="no"?>
<!DOCTYPE svg PUBLIC "-//W3C//DTD SVG 1.1//EN"
 "http://www.w3.org/Graphics/SVG/1.1/DTD/svg11.dtd">
<!-- Generated by graphviz version 2.40.1 (20161225.0304)
 -->
<!-- Title: Timer::ClockMeasurements&lt; clock_type_ &gt; Pages: 1 -->
<svg width="300pt" height="259pt"
 viewBox="0.00 0.00 300.00 259.00" xmlns="http://www.w3.org/2000/svg" xmlns:xlink="http://www.w3.org/1999/xlink">
<g id="graph0" class="graph" transform="scale(1 1) rotate(0) translate(4 255)">
<title>Timer::ClockMeasurements&lt; clock_type_ &gt;</title>
<polygon fill="#ffffff" stroke="transparent" points="-4,4 -4,-255 296,-255 296,4 -4,4"/>
<!-- Node0 -->
<g id="node1" class="node">
<title>Node0</title>
<polygon fill="#bfbfbf" stroke="#000000" points="77,-149.5 77,-250.5 214,-250.5 214,-149.5 77,-149.5"/>
<text text-anchor="start" x="85" y="-238.5" font-family="Helvetica,sans-Serif" font-size="10.00" fill="#000000">Timer::ClockMeasurements</text>
<text text-anchor="middle" x="145.5" y="-227.5" font-family="Helvetica,sans-Serif" font-size="10.00" fill="#000000">&lt; clock_type_ &gt;</text>
<polyline fill="none" stroke="#000000" points="77,-220.5 214,-220.5 "/>
<text text-anchor="start" x="85" y="-208.5" font-family="Helvetica,sans-Serif" font-size="10.00" fill="#000000">+ current_lap_start_time</text>
<text text-anchor="start" x="85" y="-197.5" font-family="Helvetica,sans-Serif" font-size="10.00" fill="#000000">+ accumulated_time</text>
<text text-anchor="start" x="85" y="-186.5" font-family="Helvetica,sans-Serif" font-size="10.00" fill="#000000">+ last_lap_time</text>
<polyline fill="none" stroke="#000000" points="77,-179.5 214,-179.5 "/>
<text text-anchor="start" x="85" y="-167.5" font-family="Helvetica,sans-Serif" font-size="10.00" fill="#000000">+ ClockMeasurements()</text>
<text text-anchor="start" x="85" y="-156.5" font-family="Helvetica,sans-Serif" font-size="10.00" fill="#000000">+ reset()</text>
</g>
<!-- Node1 -->
<g id="node2" class="node">
<title>Node1</title>
<g id="a_node2"><a xlink:href="structTimer_1_1ClockMeasurements.html" target="_top" xlink:title="{Timer::ClockMeasurements\l\&lt; wall_clock_type \&gt;\n|+ current_lap_start_time\l+ accumulated_time\l+ last_lap_time\l|+ ClockMeasurements()\l+ reset()\l}">
<polygon fill="#ffffff" stroke="#000000" points="0,-.5 0,-101.5 137,-101.5 137,-.5 0,-.5"/>
<text text-anchor="start" x="8" y="-89.5" font-family="Helvetica,sans-Serif" font-size="10.00" fill="#000000">Timer::ClockMeasurements</text>
<text text-anchor="middle" x="68.5" y="-78.5" font-family="Helvetica,sans-Serif" font-size="10.00" fill="#000000">&lt; wall_clock_type &gt;</text>
<polyline fill="none" stroke="#000000" points="0,-71.5 137,-71.5 "/>
<text text-anchor="start" x="8" y="-59.5" font-family="Helvetica,sans-Serif" font-size="10.00" fill="#000000">+ current_lap_start_time</text>
<text text-anchor="start" x="8" y="-48.5" font-family="Helvetica,sans-Serif" font-size="10.00" fill="#000000">+ accumulated_time</text>
<text text-anchor="start" x="8" y="-37.5" font-family="Helvetica,sans-Serif" font-size="10.00" fill="#000000">+ last_lap_time</text>
<polyline fill="none" stroke="#000000" points="0,-30.5 137,-30.5 "/>
<text text-anchor="start" x="8" y="-18.5" font-family="Helvetica,sans-Serif" font-size="10.00" fill="#000000">+ ClockMeasurements()</text>
<text text-anchor="start" x="8" y="-7.5" font-family="Helvetica,sans-Serif" font-size="10.00" fill="#000000">+ reset()</text>
</a>
</g>
</g>
<!-- Node0&#45;&gt;Node1 -->
<g id="edge1" class="edge">
<title>Node0&#45;&gt;Node1</title>
<path fill="none" stroke="#ffa500" d="M114.4936,-140.0006C107.9182,-127.2768 101.0395,-113.9661 94.6652,-101.6314"/>
<polygon fill="#ffa500" stroke="#ffa500" points="111.5159,-141.8624 119.2163,-149.1394 117.7346,-138.6487 111.5159,-141.8624"/>
<text text-anchor="middle" x="155" y="-123" font-family="Helvetica,sans-Serif" font-size="10.00" fill="#000000"> &lt; wall_clock_type &gt;</text>
</g>
<!-- Node2 -->
<g id="node3" class="node">
<title>Node2</title>
<g id="a_node3"><a xlink:href="structTimer_1_1ClockMeasurements.html" target="_top" xlink:title="{Timer::ClockMeasurements\l\&lt; CPUClock \&gt;\n|+ current_lap_start_time\l+ accumulated_time\l+ last_lap_time\l|+ ClockMeasurements()\l+ reset()\l}">
<polygon fill="#ffffff" stroke="#000000" points="155,-.5 155,-101.5 292,-101.5 292,-.5 155,-.5"/>
<text text-anchor="start" x="163" y="-89.5" font-family="Helvetica,sans-Serif" font-size="10.00" fill="#000000">Timer::ClockMeasurements</text>
<text text-anchor="middle" x="223.5" y="-78.5" font-family="Helvetica,sans-Serif" font-size="10.00" fill="#000000">&lt; CPUClock &gt;</text>
<polyline fill="none" stroke="#000000" points="155,-71.5 292,-71.5 "/>
<text text-anchor="start" x="163" y="-59.5" font-family="Helvetica,sans-Serif" font-size="10.00" fill="#000000">+ current_lap_start_time</text>
<text text-anchor="start" x="163" y="-48.5" font-family="Helvetica,sans-Serif" font-size="10.00" fill="#000000">+ accumulated_time</text>
<text text-anchor="start" x="163" y="-37.5" font-family="Helvetica,sans-Serif" font-size="10.00" fill="#000000">+ last_lap_time</text>
<polyline fill="none" stroke="#000000" points="155,-30.5 292,-30.5 "/>
<text text-anchor="start" x="163" y="-18.5" font-family="Helvetica,sans-Serif" font-size="10.00" fill="#000000">+ ClockMeasurements()</text>
<text text-anchor="start" x="163" y="-7.5" font-family="Helvetica,sans-Serif" font-size="10.00" fill="#000000">+ reset()</text>
</a>
</g>
</g>
<!-- Node0&#45;&gt;Node2 -->
<g id="edge2" class="edge">
<title>Node0&#45;&gt;Node2</title>
<path fill="none" stroke="#ffa500" d="M195.9663,-140.7803C197.9527,-137.5488 199.813,-134.2798 201.5,-131 206.1779,-121.9054 209.9533,-111.7018 212.9669,-101.7041"/>
<polygon fill="#ffa500" stroke="#ffa500" points="192.9859,-138.943 190.4455,-149.2288 198.8457,-142.7722 192.9859,-138.943"/>
<text text-anchor="middle" x="240" y="-123" font-family="Helvetica,sans-Serif" font-size="10.00" fill="#000000"> &lt; CPUClock &gt;</text>
</g>
</g>
</svg>
