<?xml version="1.0" encoding="UTF-8" standalone="no"?>
<!DOCTYPE svg PUBLIC "-//W3C//DTD SVG 1.1//EN"
 "http://www.w3.org/Graphics/SVG/1.1/DTD/svg11.dtd">
<!-- Generated by graphviz version 2.40.1 (20161225.0304)
 -->
<!-- Title: SLEPcWrappers::SolverArnoldi::AdditionalData Pages: 1 -->
<svg width="215pt" height="182pt"
 viewBox="0.00 0.00 214.50 182.00" xmlns="http://www.w3.org/2000/svg" xmlns:xlink="http://www.w3.org/1999/xlink">
<g id="graph0" class="graph" transform="scale(1 1) rotate(0) translate(4 178)">
<title>SLEPcWrappers::SolverArnoldi::AdditionalData</title>
<polygon fill="#ffffff" stroke="transparent" points="-4,4 -4,-178 210.5,-178 210.5,4 -4,4"/>
<!-- Node1 -->
<g id="node1" class="node">
<title>Node1</title>
<polygon fill="#bfbfbf" stroke="#000000" points="0,-.5 0,-68.5 153,-68.5 153,-.5 0,-.5"/>
<text text-anchor="start" x="8" y="-56.5" font-family="Helvetica,sans-Serif" font-size="10.00" fill="#000000">SLEPcWrappers::SolverArnoldi</text>
<text text-anchor="middle" x="76.5" y="-45.5" font-family="Helvetica,sans-Serif" font-size="10.00" fill="#000000">::AdditionalData</text>
<polyline fill="none" stroke="#000000" points="0,-38.5 153,-38.5 "/>
<text text-anchor="middle" x="76.5" y="-26.5" font-family="Helvetica,sans-Serif" font-size="10.00" fill="#000000"> </text>
<polyline fill="none" stroke="#000000" points="0,-19.5 153,-19.5 "/>
<text text-anchor="start" x="8" y="-7.5" font-family="Helvetica,sans-Serif" font-size="10.00" fill="#000000">+ AdditionalData()</text>
</g>
<!-- Node2 -->
<g id="node2" class="node">
<title>Node2</title>
<g id="a_node2"><a xlink:href="classbool.html" target="_top" xlink:title="{bool\n||}">
<polygon fill="#ffffff" stroke="#000000" points="59,-116.5 59,-173.5 94,-173.5 94,-116.5 59,-116.5"/>
<text text-anchor="middle" x="76.5" y="-161.5" font-family="Helvetica,sans-Serif" font-size="10.00" fill="#000000">bool</text>
<polyline fill="none" stroke="#000000" points="59,-154.5 94,-154.5 "/>
<text text-anchor="middle" x="76.5" y="-142.5" font-family="Helvetica,sans-Serif" font-size="10.00" fill="#000000"> </text>
<polyline fill="none" stroke="#000000" points="59,-135.5 94,-135.5 "/>
<text text-anchor="middle" x="76.5" y="-123.5" font-family="Helvetica,sans-Serif" font-size="10.00" fill="#000000"> </text>
</a>
</g>
</g>
<!-- Node2&#45;&gt;Node1 -->
<g id="edge1" class="edge">
<title>Node2&#45;&gt;Node1</title>
<path fill="none" stroke="#404040" d="M76.5,-116.2559C76.5,-105.4349 76.5,-92.8362 76.5,-80.8169"/>
<polygon fill="none" stroke="#404040" points="76.5001,-80.6001 72.5,-74.6001 76.5,-68.6001 80.5,-74.6 76.5001,-80.6001"/>
<text text-anchor="middle" x="141.5" y="-90" font-family="Helvetica,sans-Serif" font-size="10.00" fill="#000000"> +delayed_reorthogonalization</text>
</g>
</g>
</svg>
