<?xml version="1.0" encoding="UTF-8" standalone="no"?>
<!DOCTYPE svg PUBLIC "-//W3C//DTD SVG 1.1//EN"
 "http://www.w3.org/Graphics/SVG/1.1/DTD/svg11.dtd">
<!-- Generated by graphviz version 2.40.1 (20161225.0304)
 -->
<!-- Title: parallel::ParallelForInteger Pages: 1 -->
<svg width="325pt" height="198pt"
 viewBox="0.00 0.00 325.00 198.00" xmlns="http://www.w3.org/2000/svg" xmlns:xlink="http://www.w3.org/1999/xlink">
<g id="graph0" class="graph" transform="scale(1 1) rotate(0) translate(4 194)">
<title>parallel::ParallelForInteger</title>
<polygon fill="#ffffff" stroke="transparent" points="-4,4 -4,-194 321,-194 321,4 -4,4"/>
<!-- Node0 -->
<g id="node1" class="node">
<title>Node0</title>
<polygon fill="#bfbfbf" stroke="#000000" points="0,-82 0,-101 130,-101 130,-82 0,-82"/>
<text text-anchor="middle" x="65" y="-89" font-family="Helvetica,sans-Serif" font-size="10.00" fill="#000000">parallel::ParallelForInteger</text>
</g>
<!-- Node1 -->
<g id="node2" class="node">
<title>Node1</title>
<g id="a_node2"><a xlink:href="classinternal_1_1AlignedVectorCopyConstruct.html" target="_top" xlink:title="internal::AlignedVectorCopy\lConstruct\&lt; T \&gt;">
<polygon fill="#ffffff" stroke="#000000" points="172.5,-159.5 172.5,-189.5 310.5,-189.5 310.5,-159.5 172.5,-159.5"/>
<text text-anchor="start" x="180.5" y="-177.5" font-family="Helvetica,sans-Serif" font-size="10.00" fill="#000000">internal::AlignedVectorCopy</text>
<text text-anchor="middle" x="241.5" y="-166.5" font-family="Helvetica,sans-Serif" font-size="10.00" fill="#000000">Construct&lt; T &gt;</text>
</a>
</g>
</g>
<!-- Node0&#45;&gt;Node1 -->
<g id="edge1" class="edge">
<title>Node0&#45;&gt;Node1</title>
<path fill="none" stroke="#8b1a1a" d="M88.0119,-106.5045C108.04,-119.1221 138.1476,-137.0446 166,-149.5 174.0669,-153.1075 182.8192,-156.4737 191.4098,-159.4939"/>
<polygon fill="#8b1a1a" stroke="#8b1a1a" points="89.8772,-103.543 79.5633,-101.1192 86.1146,-109.4458 89.8772,-103.543"/>
</g>
<!-- Node2 -->
<g id="node3" class="node">
<title>Node2</title>
<g id="a_node3"><a xlink:href="classinternal_1_1AlignedVectorDefaultInitialize.html" target="_top" xlink:title="internal::AlignedVectorDefault\lInitialize\&lt; T, initialize\l_memory \&gt;">
<polygon fill="#ffffff" stroke="#000000" points="168.5,-99 168.5,-140 314.5,-140 314.5,-99 168.5,-99"/>
<text text-anchor="start" x="176.5" y="-128" font-family="Helvetica,sans-Serif" font-size="10.00" fill="#000000">internal::AlignedVectorDefault</text>
<text text-anchor="start" x="176.5" y="-117" font-family="Helvetica,sans-Serif" font-size="10.00" fill="#000000">Initialize&lt; T, initialize</text>
<text text-anchor="middle" x="241.5" y="-106" font-family="Helvetica,sans-Serif" font-size="10.00" fill="#000000">_memory &gt;</text>
</a>
</g>
</g>
<!-- Node0&#45;&gt;Node2 -->
<g id="edge2" class="edge">
<title>Node0&#45;&gt;Node2</title>
<path fill="none" stroke="#8b1a1a" d="M135.1574,-102.6298C146.0887,-104.3639 157.4069,-106.1595 168.4018,-107.9037"/>
<polygon fill="#8b1a1a" stroke="#8b1a1a" points="135.6725,-99.1678 125.2476,-101.0577 134.5757,-106.0814 135.6725,-99.1678"/>
</g>
<!-- Node3 -->
<g id="node4" class="node">
<title>Node3</title>
<g id="a_node4"><a xlink:href="classinternal_1_1AlignedVectorInitialize.html" target="_top" xlink:title="internal::AlignedVectorInitialize\l\&lt; T, initialize_memory \&gt;">
<polygon fill="#ffffff" stroke="#000000" points="166,-49.5 166,-79.5 317,-79.5 317,-49.5 166,-49.5"/>
<text text-anchor="start" x="174" y="-67.5" font-family="Helvetica,sans-Serif" font-size="10.00" fill="#000000">internal::AlignedVectorInitialize</text>
<text text-anchor="middle" x="241.5" y="-56.5" font-family="Helvetica,sans-Serif" font-size="10.00" fill="#000000">&lt; T, initialize_memory &gt;</text>
</a>
</g>
</g>
<!-- Node0&#45;&gt;Node3 -->
<g id="edge3" class="edge">
<title>Node0&#45;&gt;Node3</title>
<path fill="none" stroke="#8b1a1a" d="M137.3333,-80.4348C146.7569,-78.9933 156.4308,-77.5134 165.906,-76.0639"/>
<polygon fill="#8b1a1a" stroke="#8b1a1a" points="136.583,-77.0088 127.2273,-81.9808 137.6416,-83.9283 136.583,-77.0088"/>
</g>
<!-- Node4 -->
<g id="node5" class="node">
<title>Node4</title>
<g id="a_node5"><a xlink:href="classinternal_1_1AlignedVectorMoveConstruct.html" target="_top" xlink:title="internal::AlignedVectorMove\lConstruct\&lt; T \&gt;">
<polygon fill="#ffffff" stroke="#000000" points="172,-.5 172,-30.5 311,-30.5 311,-.5 172,-.5"/>
<text text-anchor="start" x="180" y="-18.5" font-family="Helvetica,sans-Serif" font-size="10.00" fill="#000000">internal::AlignedVectorMove</text>
<text text-anchor="middle" x="241.5" y="-7.5" font-family="Helvetica,sans-Serif" font-size="10.00" fill="#000000">Construct&lt; T &gt;</text>
</a>
</g>
</g>
<!-- Node0&#45;&gt;Node4 -->
<g id="edge4" class="edge">
<title>Node0&#45;&gt;Node4</title>
<path fill="none" stroke="#8b1a1a" d="M91.0101,-77.0248C111.1187,-66.1653 139.8469,-51.3631 166,-40.5 174.4159,-37.0043 183.5106,-33.6495 192.3747,-30.5951"/>
<polygon fill="#8b1a1a" stroke="#8b1a1a" points="89.2534,-73.9962 82.1493,-81.8564 92.6045,-80.1419 89.2534,-73.9962"/>
</g>
</g>
</svg>
