<?xml version="1.0" encoding="UTF-8" standalone="no"?>
<!DOCTYPE svg PUBLIC "-//W3C//DTD SVG 1.1//EN"
 "http://www.w3.org/Graphics/SVG/1.1/DTD/svg11.dtd">
<!-- Generated by graphviz version 2.40.1 (20161225.0304)
 -->
<!-- Title: PreconditionChebyshev&lt; MatrixType, VectorType, PreconditionerType &gt;::EigenvalueInformation Pages: 1 -->
<svg width="229pt" height="215pt"
 viewBox="0.00 0.00 228.50 215.00" xmlns="http://www.w3.org/2000/svg" xmlns:xlink="http://www.w3.org/1999/xlink">
<g id="graph0" class="graph" transform="scale(1 1) rotate(0) translate(4 211)">
<title>PreconditionChebyshev&lt; MatrixType, VectorType, PreconditionerType &gt;::EigenvalueInformation</title>
<polygon fill="#ffffff" stroke="transparent" points="-4,4 -4,-211 224.5,-211 224.5,4 -4,4"/>
<!-- Node1 -->
<g id="node1" class="node">
<title>Node1</title>
<polygon fill="#bfbfbf" stroke="#000000" points="12,-.5 12,-90.5 179,-90.5 179,-.5 12,-.5"/>
<text text-anchor="start" x="20" y="-78.5" font-family="Helvetica,sans-Serif" font-size="10.00" fill="#000000">PreconditionChebyshev</text>
<text text-anchor="start" x="20" y="-67.5" font-family="Helvetica,sans-Serif" font-size="10.00" fill="#000000">&lt; MatrixType, VectorType,</text>
<text text-anchor="start" x="20" y="-56.5" font-family="Helvetica,sans-Serif" font-size="10.00" fill="#000000"> PreconditionerType &gt;::Eigenvalue</text>
<text text-anchor="middle" x="95.5" y="-45.5" font-family="Helvetica,sans-Serif" font-size="10.00" fill="#000000">Information</text>
<polyline fill="none" stroke="#000000" points="12,-38.5 179,-38.5 "/>
<text text-anchor="middle" x="95.5" y="-26.5" font-family="Helvetica,sans-Serif" font-size="10.00" fill="#000000"> </text>
<polyline fill="none" stroke="#000000" points="12,-19.5 179,-19.5 "/>
<text text-anchor="start" x="20" y="-7.5" font-family="Helvetica,sans-Serif" font-size="10.00" fill="#000000">+ EigenvalueInformation()</text>
</g>
<!-- Node2 -->
<g id="node2" class="node">
<title>Node2</title>
<g id="a_node2"><a xlink:href="classdouble.html" target="_top" xlink:title="{double\n||}">
<polygon fill="#ffffff" stroke="#000000" points="0,-149.5 0,-206.5 45,-206.5 45,-149.5 0,-149.5"/>
<text text-anchor="middle" x="22.5" y="-194.5" font-family="Helvetica,sans-Serif" font-size="10.00" fill="#000000">double</text>
<polyline fill="none" stroke="#000000" points="0,-187.5 45,-187.5 "/>
<text text-anchor="middle" x="22.5" y="-175.5" font-family="Helvetica,sans-Serif" font-size="10.00" fill="#000000"> </text>
<polyline fill="none" stroke="#000000" points="0,-168.5 45,-168.5 "/>
<text text-anchor="middle" x="22.5" y="-156.5" font-family="Helvetica,sans-Serif" font-size="10.00" fill="#000000"> </text>
</a>
</g>
</g>
<!-- Node2&#45;&gt;Node1 -->
<g id="edge1" class="edge">
<title>Node2&#45;&gt;Node1</title>
<path fill="none" stroke="#404040" d="M17.8119,-149.3146C16.968,-136.4471 17.7908,-121.4071 23.5,-109 24.8107,-106.1516 26.3176,-103.379 27.9847,-100.6863"/>
<polygon fill="none" stroke="#404040" points="28.1458,-100.4614 28.3878,-93.2544 35.1336,-90.7059 34.8915,-97.913 28.1458,-100.4614"/>
<text text-anchor="middle" x="85" y="-123" font-family="Helvetica,sans-Serif" font-size="10.00" fill="#000000"> +max_eigenvalue_estimate</text>
<text text-anchor="middle" x="85" y="-112" font-family="Helvetica,sans-Serif" font-size="10.00" fill="#000000">+min_eigenvalue_estimate</text>
</g>
<!-- Node3 -->
<g id="node3" class="node">
<title>Node3</title>
<polygon fill="#ffffff" stroke="#bfbfbf" points="140.5,-149.5 140.5,-206.5 196.5,-206.5 196.5,-149.5 140.5,-149.5"/>
<text text-anchor="middle" x="168.5" y="-194.5" font-family="Helvetica,sans-Serif" font-size="10.00" fill="#000000">unsigned</text>
<polyline fill="none" stroke="#bfbfbf" points="140.5,-187.5 196.5,-187.5 "/>
<text text-anchor="middle" x="168.5" y="-175.5" font-family="Helvetica,sans-Serif" font-size="10.00" fill="#000000"> </text>
<polyline fill="none" stroke="#bfbfbf" points="140.5,-168.5 196.5,-168.5 "/>
<text text-anchor="middle" x="168.5" y="-156.5" font-family="Helvetica,sans-Serif" font-size="10.00" fill="#000000"> </text>
</g>
<!-- Node3&#45;&gt;Node1 -->
<g id="edge2" class="edge">
<title>Node3&#45;&gt;Node1</title>
<path fill="none" stroke="#404040" d="M161.8656,-149.1814C158.2938,-136.4292 153.2198,-121.5183 146.5,-109 144.9848,-106.1774 143.3384,-103.3571 141.5958,-100.5607"/>
<polygon fill="none" stroke="#404040" points="141.5935,-100.5573 134.9346,-97.7899 134.9279,-90.5788 141.5869,-93.3461 141.5935,-100.5573"/>
<text text-anchor="middle" x="188" y="-123" font-family="Helvetica,sans-Serif" font-size="10.00" fill="#000000"> +cg_iterations</text>
<text text-anchor="middle" x="188" y="-112" font-family="Helvetica,sans-Serif" font-size="10.00" fill="#000000">+degree</text>
</g>
</g>
</svg>
