<?xml version="1.0" encoding="UTF-8" standalone="no"?>
<!DOCTYPE svg PUBLIC "-//W3C//DTD SVG 1.1//EN"
 "http://www.w3.org/Graphics/SVG/1.1/DTD/svg11.dtd">
<!-- Generated by graphviz version 2.40.1 (20161225.0304)
 -->
<!-- Title: internal::SymmetricTensorAccessors::StorageType&lt; 4, dim, Number &gt; Pages: 1 -->
<svg width="202pt" height="204pt"
 viewBox="0.00 0.00 201.50 204.00" xmlns="http://www.w3.org/2000/svg" xmlns:xlink="http://www.w3.org/1999/xlink">
<g id="graph0" class="graph" transform="scale(1 1) rotate(0) translate(4 200)">
<title>internal::SymmetricTensorAccessors::StorageType&lt; 4, dim, Number &gt;</title>
<polygon fill="#ffffff" stroke="transparent" points="-4,4 -4,-200 197.5,-200 197.5,4 -4,4"/>
<!-- Node1 -->
<g id="node1" class="node">
<title>Node1</title>
<polygon fill="#bfbfbf" stroke="#000000" points="0,-.5 0,-79.5 131,-79.5 131,-.5 0,-.5"/>
<text text-anchor="start" x="8" y="-67.5" font-family="Helvetica,sans-Serif" font-size="10.00" fill="#000000">internal::SymmetricTensor</text>
<text text-anchor="start" x="8" y="-56.5" font-family="Helvetica,sans-Serif" font-size="10.00" fill="#000000">Accessors::StorageType</text>
<text text-anchor="middle" x="65.5" y="-45.5" font-family="Helvetica,sans-Serif" font-size="10.00" fill="#000000">&lt; 4, dim, Number &gt;</text>
<polyline fill="none" stroke="#000000" points="0,-38.5 131,-38.5 "/>
<text text-anchor="middle" x="65.5" y="-26.5" font-family="Helvetica,sans-Serif" font-size="10.00" fill="#000000"> </text>
<polyline fill="none" stroke="#000000" points="0,-19.5 131,-19.5 "/>
<text text-anchor="middle" x="65.5" y="-7.5" font-family="Helvetica,sans-Serif" font-size="10.00" fill="#000000"> </text>
</g>
<!-- Node2 -->
<g id="node2" class="node">
<title>Node2</title>
<polygon fill="#ffffff" stroke="#bfbfbf" points="37.5,-138.5 37.5,-195.5 93.5,-195.5 93.5,-138.5 37.5,-138.5"/>
<text text-anchor="middle" x="65.5" y="-183.5" font-family="Helvetica,sans-Serif" font-size="10.00" fill="#000000">unsigned</text>
<polyline fill="none" stroke="#bfbfbf" points="37.5,-176.5 93.5,-176.5 "/>
<text text-anchor="middle" x="65.5" y="-164.5" font-family="Helvetica,sans-Serif" font-size="10.00" fill="#000000"> </text>
<polyline fill="none" stroke="#bfbfbf" points="37.5,-157.5 93.5,-157.5 "/>
<text text-anchor="middle" x="65.5" y="-145.5" font-family="Helvetica,sans-Serif" font-size="10.00" fill="#000000"> </text>
</g>
<!-- Node2&#45;&gt;Node1 -->
<g id="edge1" class="edge">
<title>Node2&#45;&gt;Node1</title>
<path fill="none" stroke="#404040" d="M65.5,-138.4987C65.5,-124.8801 65.5,-108.1381 65.5,-92.3462"/>
<polygon fill="none" stroke="#404040" points="65.5001,-91.963 61.5,-85.963 65.5,-79.963 69.5,-85.963 65.5001,-91.963"/>
<text text-anchor="middle" x="129.5" y="-112" font-family="Helvetica,sans-Serif" font-size="10.00" fill="#000000"> +n_rank2_components</text>
<text text-anchor="middle" x="129.5" y="-101" font-family="Helvetica,sans-Serif" font-size="10.00" fill="#000000">+n_independent_components</text>
</g>
</g>
</svg>
