<?xml version="1.0" encoding="UTF-8" standalone="no"?>
<!DOCTYPE svg PUBLIC "-//W3C//DTD SVG 1.1//EN"
 "http://www.w3.org/Graphics/SVG/1.1/DTD/svg11.dtd">
<!-- Generated by graphviz version 2.40.1 (20161225.0304)
 -->
<!-- Title: GridOutFlags::Vtk Pages: 1 -->
<!--zoomable 459 -->
<svg id="main" version="1.1" xmlns="http://www.w3.org/2000/svg" xmlns:xlink="http://www.w3.org/1999/xlink" xml:space="preserve" onload="init(evt)">
<style type="text/css"><![CDATA[
.edge:hover path { stroke: red; }
.edge:hover polygon { stroke: red; fill: red; }
]]></style>
<script type="text/javascript"><![CDATA[
var edges = document.getElementsByTagName('g');
if (edges && edges.length) {
  for (var i=0;i<edges.length;i++) {
    if (edges[i].id.substr(0,4)=='edge') {
      edges[i].setAttribute('class','edge');
    }
  }
}
]]></script>
        <defs>
                <circle id="rim" cx="0" cy="0" r="7"/>
                <circle id="rim2" cx="0" cy="0" r="3.5"/>
                <g id="zoomPlus">
                        <use xlink:href="#rim" fill="#404040">
                                <set attributeName="fill" to="#808080" begin="zoomplus.mouseover" end="zoomplus.mouseout"/>
                        </use>
                        <path d="M-4,0h8M0,-4v8" fill="none" stroke="white" stroke-width="1.5" pointer-events="none"/>
                </g>
                <g id="zoomMin">
                        <use xlink:href="#rim" fill="#404040">
                                <set attributeName="fill" to="#808080" begin="zoomminus.mouseover" end="zoomminus.mouseout"/>
                        </use>
                        <path d="M-4,0h8" fill="none" stroke="white" stroke-width="1.5" pointer-events="none"/>
                </g>
                <g id="dirArrow">
                        <path fill="none" stroke="white" stroke-width="1.5" d="M0,-3.0v7 M-2.5,-0.5L0,-3.0L2.5,-0.5"/>
                </g>
               <g id="resetDef">
                       <use xlink:href="#rim2" fill="#404040">
                               <set attributeName="fill" to="#808080" begin="reset.mouseover" end="reset.mouseout"/>
                       </use>
               </g>
        </defs>

<script type="text/javascript">
var viewWidth = 548;
var viewHeight = 459;
var sectionId = 'dynsection-1';
</script>
<script xlink:href="svgpan.js"/>
<svg id="graph" class="graph">
<g id="viewport">
<title>GridOutFlags::Vtk</title>
<polygon fill="#ffffff" stroke="transparent" points="-4,4 -4,-455 543.5,-455 543.5,4 -4,4"/>
<!-- Node4 -->
<g id="node1" class="node">
<title>Node4</title>
<polygon fill="#bfbfbf" stroke="#000000" points="329,-.5 329,-57.5 424,-57.5 424,-.5 329,-.5"/>
<text text-anchor="middle" x="376.5" y="-45.5" font-family="Helvetica,sans-Serif" font-size="10.00" fill="#000000">GridOutFlags::Vtk</text>
<polyline fill="none" stroke="#000000" points="329,-38.5 424,-38.5 "/>
<text text-anchor="middle" x="376.5" y="-26.5" font-family="Helvetica,sans-Serif" font-size="10.00" fill="#000000"> </text>
<polyline fill="none" stroke="#000000" points="329,-19.5 424,-19.5 "/>
<text text-anchor="start" x="337" y="-7.5" font-family="Helvetica,sans-Serif" font-size="10.00" fill="#000000">+ Vtk()</text>
</g>
<!-- Node5 -->
<g id="node2" class="node">
<title>Node5</title>
<g id="a_node2"><a xlink:href="structDataOutBase_1_1VtkFlags.html" target="_top" xlink:title="{DataOutBase::VtkFlags\n||+ VtkFlags()\l}">
<polygon fill="#ffffff" stroke="#000000" points="218,-95.5 218,-152.5 339,-152.5 339,-95.5 218,-95.5"/>
<text text-anchor="middle" x="278.5" y="-140.5" font-family="Helvetica,sans-Serif" font-size="10.00" fill="#000000">DataOutBase::VtkFlags</text>
<polyline fill="none" stroke="#000000" points="218,-133.5 339,-133.5 "/>
<text text-anchor="middle" x="278.5" y="-121.5" font-family="Helvetica,sans-Serif" font-size="10.00" fill="#000000"> </text>
<polyline fill="none" stroke="#000000" points="218,-114.5 339,-114.5 "/>
<text text-anchor="start" x="226" y="-102.5" font-family="Helvetica,sans-Serif" font-size="10.00" fill="#000000">+ VtkFlags()</text>
</a>
</g>
</g>
<!-- Node5&#45;&gt;Node4 -->
<g id="edge1" class="edge">
<title>Node5&#45;&gt;Node4</title>
<path fill="none" stroke="#191970" d="M315.3012,-88.3254C325.6906,-78.254 336.8615,-67.4251 346.7788,-57.8114"/>
<polygon fill="none" stroke="#191970" points="312.6473,-86.0235 307.9032,-95.4969 317.5195,-91.0496 312.6473,-86.0235"/>
</g>
<!-- Node6 -->
<g id="node3" class="node">
<title>Node6</title>
<g id="a_node3"><a xlink:href="structDataOutBase_1_1OutputFlagsBase.html" target="_top" xlink:title="{DataOutBase::OutputFlags\lBase\&lt; VtkFlags \&gt;\n||+ parse_parameters()\l+ memory_consumption()\l+ declare_parameters()\l}">
<polygon fill="#ffffff" stroke="#000000" points="194,-222.5 194,-312.5 329,-312.5 329,-222.5 194,-222.5"/>
<text text-anchor="start" x="202" y="-300.5" font-family="Helvetica,sans-Serif" font-size="10.00" fill="#000000">DataOutBase::OutputFlags</text>
<text text-anchor="middle" x="261.5" y="-289.5" font-family="Helvetica,sans-Serif" font-size="10.00" fill="#000000">Base&lt; VtkFlags &gt;</text>
<polyline fill="none" stroke="#000000" points="194,-282.5 329,-282.5 "/>
<text text-anchor="middle" x="261.5" y="-270.5" font-family="Helvetica,sans-Serif" font-size="10.00" fill="#000000"> </text>
<polyline fill="none" stroke="#000000" points="194,-263.5 329,-263.5 "/>
<text text-anchor="start" x="202" y="-251.5" font-family="Helvetica,sans-Serif" font-size="10.00" fill="#000000">+ parse_parameters()</text>
<text text-anchor="start" x="202" y="-240.5" font-family="Helvetica,sans-Serif" font-size="10.00" fill="#000000">+ memory_consumption()</text>
<text text-anchor="start" x="202" y="-229.5" font-family="Helvetica,sans-Serif" font-size="10.00" fill="#000000">+ declare_parameters()</text>
</a>
</g>
</g>
<!-- Node6&#45;&gt;Node5 -->
<g id="edge2" class="edge">
<title>Node6&#45;&gt;Node5</title>
<path fill="none" stroke="#191970" d="M268.0333,-212.3513C270.4488,-191.9619 273.0884,-169.68 275.1126,-152.5937"/>
<polygon fill="none" stroke="#191970" points="264.5331,-212.1471 266.8323,-222.4894 271.4845,-212.9707 264.5331,-212.1471"/>
</g>
<!-- Node7 -->
<g id="node4" class="node">
<title>Node7</title>
<g id="a_node4"><a xlink:href="structDataOutBase_1_1OutputFlagsBase.html" target="_top" xlink:title="{DataOutBase::OutputFlags\lBase\&lt; FlagsType \&gt;\n||+ parse_parameters()\l+ memory_consumption()\l+ declare_parameters()\l}">
<polygon fill="#ffffff" stroke="#000000" points="194,-360.5 194,-450.5 329,-450.5 329,-360.5 194,-360.5"/>
<text text-anchor="start" x="202" y="-438.5" font-family="Helvetica,sans-Serif" font-size="10.00" fill="#000000">DataOutBase::OutputFlags</text>
<text text-anchor="middle" x="261.5" y="-427.5" font-family="Helvetica,sans-Serif" font-size="10.00" fill="#000000">Base&lt; FlagsType &gt;</text>
<polyline fill="none" stroke="#000000" points="194,-420.5 329,-420.5 "/>
<text text-anchor="middle" x="261.5" y="-408.5" font-family="Helvetica,sans-Serif" font-size="10.00" fill="#000000"> </text>
<polyline fill="none" stroke="#000000" points="194,-401.5 329,-401.5 "/>
<text text-anchor="start" x="202" y="-389.5" font-family="Helvetica,sans-Serif" font-size="10.00" fill="#000000">+ parse_parameters()</text>
<text text-anchor="start" x="202" y="-378.5" font-family="Helvetica,sans-Serif" font-size="10.00" fill="#000000">+ memory_consumption()</text>
<text text-anchor="start" x="202" y="-367.5" font-family="Helvetica,sans-Serif" font-size="10.00" fill="#000000">+ declare_parameters()</text>
</a>
</g>
</g>
<!-- Node7&#45;&gt;Node6 -->
<g id="edge3" class="edge">
<title>Node7&#45;&gt;Node6</title>
<path fill="none" stroke="#ffa500" d="M261.5,-350.089C261.5,-337.7026 261.5,-324.7078 261.5,-312.7879"/>
<polygon fill="#ffa500" stroke="#ffa500" points="258.0001,-350.3136 261.5,-360.3136 265.0001,-350.3137 258.0001,-350.3136"/>
<text text-anchor="middle" x="292" y="-334" font-family="Helvetica,sans-Serif" font-size="10.00" fill="#000000"> &lt; VtkFlags &gt;</text>
</g>
<!-- Node8 -->
<g id="node5" class="node">
<title>Node8</title>
<g id="a_node5"><a xlink:href="classdouble.html" target="_top" xlink:title="{double\n||}">
<polygon fill="#ffffff" stroke="#000000" points="0,-239 0,-296 45,-296 45,-239 0,-239"/>
<text text-anchor="middle" x="22.5" y="-284" font-family="Helvetica,sans-Serif" font-size="10.00" fill="#000000">double</text>
<polyline fill="none" stroke="#000000" points="0,-277 45,-277 "/>
<text text-anchor="middle" x="22.5" y="-265" font-family="Helvetica,sans-Serif" font-size="10.00" fill="#000000"> </text>
<polyline fill="none" stroke="#000000" points="0,-258 45,-258 "/>
<text text-anchor="middle" x="22.5" y="-246" font-family="Helvetica,sans-Serif" font-size="10.00" fill="#000000"> </text>
</a>
</g>
</g>
<!-- Node8&#45;&gt;Node5 -->
<g id="edge4" class="edge">
<title>Node8&#45;&gt;Node5</title>
<path fill="none" stroke="#404040" d="M40.3605,-238.6761C44.4045,-232.9297 48.8785,-227.0995 53.5,-222 77.2304,-195.815 83.2822,-187.5602 114.5,-171 142.7857,-155.9953 176.4275,-145.2818 205.8578,-137.911"/>
<polygon fill="none" stroke="#404040" points="206.0894,-137.8555 210.989,-132.5646 217.7574,-135.0523 212.8578,-140.3433 206.0894,-137.8555"/>
<text text-anchor="middle" x="128.5" y="-185" font-family="Helvetica,sans-Serif" font-size="10.00" fill="#000000"> +time</text>
</g>
<!-- Node9 -->
<g id="node6" class="node">
<title>Node9</title>
<polygon fill="#ffffff" stroke="#bfbfbf" points="63,-239 63,-296 176,-296 176,-239 63,-239"/>
<text text-anchor="middle" x="119.5" y="-284" font-family="Helvetica,sans-Serif" font-size="10.00" fill="#000000">ZlibCompressionLevel</text>
<polyline fill="none" stroke="#bfbfbf" points="63,-277 176,-277 "/>
<text text-anchor="middle" x="119.5" y="-265" font-family="Helvetica,sans-Serif" font-size="10.00" fill="#000000"> </text>
<polyline fill="none" stroke="#bfbfbf" points="63,-258 176,-258 "/>
<text text-anchor="middle" x="119.5" y="-246" font-family="Helvetica,sans-Serif" font-size="10.00" fill="#000000"> </text>
</g>
<!-- Node9&#45;&gt;Node5 -->
<g id="edge5" class="edge">
<title>Node9&#45;&gt;Node5</title>
<path fill="none" stroke="#404040" d="M129.7491,-238.9625C138.5629,-217.8574 153.0987,-189.6562 173.5,-171 183.2045,-162.1256 194.863,-154.7071 206.8284,-148.5825"/>
<polygon fill="none" stroke="#404040" points="207.0271,-148.4877 210.7181,-142.2927 217.8561,-143.3171 214.1651,-149.512 207.0271,-148.4877"/>
<text text-anchor="middle" x="219" y="-185" font-family="Helvetica,sans-Serif" font-size="10.00" fill="#000000"> +compression_level</text>
</g>
<!-- Node10 -->
<g id="node7" class="node">
<title>Node10</title>
<g id="a_node7"><a xlink:href="classbool.html" target="_top" xlink:title="{bool\n||}">
<polygon fill="#ffffff" stroke="#000000" points="432,-239 432,-296 467,-296 467,-239 432,-239"/>
<text text-anchor="middle" x="449.5" y="-284" font-family="Helvetica,sans-Serif" font-size="10.00" fill="#000000">bool</text>
<polyline fill="none" stroke="#000000" points="432,-277 467,-277 "/>
<text text-anchor="middle" x="449.5" y="-265" font-family="Helvetica,sans-Serif" font-size="10.00" fill="#000000"> </text>
<polyline fill="none" stroke="#000000" points="432,-258 467,-258 "/>
<text text-anchor="middle" x="449.5" y="-246" font-family="Helvetica,sans-Serif" font-size="10.00" fill="#000000"> </text>
</a>
</g>
</g>
<!-- Node10&#45;&gt;Node4 -->
<g id="edge8" class="edge">
<title>Node10&#45;&gt;Node4</title>
<path fill="none" stroke="#404040" d="M451.3496,-238.7703C451.8646,-219.3461 451.1137,-193.2755 445.5,-171 436.2164,-134.1623 416.7596,-95.5893 400.8666,-67.9582"/>
<polygon fill="none" stroke="#404040" points="400.8375,-67.9087 394.3491,-64.7622 394.758,-57.5627 401.2464,-60.7092 400.8375,-67.9087"/>
<text text-anchor="middle" x="489.5" y="-138" font-family="Helvetica,sans-Serif" font-size="10.00" fill="#000000"> +output_only_relevant</text>
<text text-anchor="middle" x="489.5" y="-127" font-family="Helvetica,sans-Serif" font-size="10.00" fill="#000000">+output_edges</text>
<text text-anchor="middle" x="489.5" y="-116" font-family="Helvetica,sans-Serif" font-size="10.00" fill="#000000">+output_cells</text>
<text text-anchor="middle" x="489.5" y="-105" font-family="Helvetica,sans-Serif" font-size="10.00" fill="#000000">+output_faces</text>
</g>
<!-- Node10&#45;&gt;Node5 -->
<g id="edge6" class="edge">
<title>Node10&#45;&gt;Node5</title>
<path fill="none" stroke="#404040" d="M431.8627,-240.3752C426.3548,-233.5807 419.7879,-226.8533 412.5,-222 388.9728,-206.3322 374.4312,-220.5279 351.5,-204 336.997,-193.5468 340.1871,-184.5284 328.5,-171 325.7291,-167.7925 322.7626,-164.5688 319.7085,-161.3953"/>
<polygon fill="none" stroke="#404040" points="319.4412,-161.1278 312.3706,-159.7113 310.9587,-152.6397 318.0293,-154.0563 319.4412,-161.1278"/>
<text text-anchor="start" x="351.5" y="-196" font-family="Helvetica,sans-Serif" font-size="10.00" fill="#000000"> +write_higher_order</text>
<text text-anchor="middle" x="398.5" y="-185" font-family="Helvetica,sans-Serif" font-size="10.00" fill="#000000">_cells</text>
<text text-anchor="middle" x="398.5" y="-174" font-family="Helvetica,sans-Serif" font-size="10.00" fill="#000000">+print_date_and_time</text>
</g>
<!-- Node11 -->
<g id="node8" class="node">
<title>Node11</title>
<polygon fill="#ffffff" stroke="#bfbfbf" points="347.5,-239 347.5,-296 403.5,-296 403.5,-239 347.5,-239"/>
<text text-anchor="middle" x="375.5" y="-284" font-family="Helvetica,sans-Serif" font-size="10.00" fill="#000000">unsigned</text>
<polyline fill="none" stroke="#bfbfbf" points="347.5,-277 403.5,-277 "/>
<text text-anchor="middle" x="375.5" y="-265" font-family="Helvetica,sans-Serif" font-size="10.00" fill="#000000"> </text>
<polyline fill="none" stroke="#bfbfbf" points="347.5,-258 403.5,-258 "/>
<text text-anchor="middle" x="375.5" y="-246" font-family="Helvetica,sans-Serif" font-size="10.00" fill="#000000"> </text>
</g>
<!-- Node11&#45;&gt;Node5 -->
<g id="edge7" class="edge">
<title>Node11&#45;&gt;Node5</title>
<path fill="none" stroke="#404040" d="M355.9347,-238.9974C350.7781,-232.8392 344.8592,-226.757 338.5,-222 321.9101,-209.5899 308.7176,-219.954 295.5,-204 286.4838,-193.1172 281.9088,-178.6039 279.6844,-164.9282"/>
<polygon fill="none" stroke="#404040" points="279.6515,-164.6495 274.9746,-159.1606 278.2425,-152.7325 282.9193,-158.2213 279.6515,-164.6495"/>
<text text-anchor="middle" x="312" y="-185" font-family="Helvetica,sans-Serif" font-size="10.00" fill="#000000"> +cycle</text>
</g>
</g>
</svg>
        <g id="navigator" transform="translate(0 0)" fill="#404254">
                <rect fill="#f2f5e9" fill-opacity="0.5" stroke="#606060" stroke-width=".5" x="0" y="0" width="60" height="60"/>
                <use id="zoomplus" xlink:href="#zoomPlus" x="17" y="9" onmousedown="handleZoom(evt,'in')"/>
                <use id="zoomminus" xlink:href="#zoomMin" x="42" y="9" onmousedown="handleZoom(evt,'out')"/>
                <use id="reset" xlink:href="#resetDef" x="30" y="36" onmousedown="handleReset()"/>
                <g id="arrowUp" xlink:href="#dirArrow" transform="translate(30 24)" onmousedown="handlePan(0,-1)">
                  <use xlink:href="#rim" fill="#404040">
                        <set attributeName="fill" to="#808080" begin="arrowUp.mouseover" end="arrowUp.mouseout"/>
                  </use>
                  <path fill="none" stroke="white" stroke-width="1.5" d="M0,-3.0v7 M-2.5,-0.5L0,-3.0L2.5,-0.5"/>
                </g>
                <g id="arrowRight" xlink:href="#dirArrow" transform="rotate(90) translate(36 -43)" onmousedown="handlePan(1,0)">
                  <use xlink:href="#rim" fill="#404040">
                        <set attributeName="fill" to="#808080" begin="arrowRight.mouseover" end="arrowRight.mouseout"/>
                  </use>
                  <path fill="none" stroke="white" stroke-width="1.5" d="M0,-3.0v7 M-2.5,-0.5L0,-3.0L2.5,-0.5"/>
                </g>
                <g id="arrowDown" xlink:href="#dirArrow" transform="rotate(180) translate(-30 -48)" onmousedown="handlePan(0,1)">
                  <use xlink:href="#rim" fill="#404040">
                        <set attributeName="fill" to="#808080" begin="arrowDown.mouseover" end="arrowDown.mouseout"/>
                  </use>
                  <path fill="none" stroke="white" stroke-width="1.5" d="M0,-3.0v7 M-2.5,-0.5L0,-3.0L2.5,-0.5"/>
                </g>
                <g id="arrowLeft" xlink:href="#dirArrow" transform="rotate(270) translate(-36 17)" onmousedown="handlePan(-1,0)">
                  <use xlink:href="#rim" fill="#404040">
                        <set attributeName="fill" to="#808080" begin="arrowLeft.mouseover" end="arrowLeft.mouseout"/>
                  </use>
                  <path fill="none" stroke="white" stroke-width="1.5" d="M0,-3.0v7 M-2.5,-0.5L0,-3.0L2.5,-0.5"/>
                </g>
        </g>
        <svg viewBox="0 0 15 15" width="100%" height="30px" preserveAspectRatio="xMaxYMin meet">
         <g id="arrow_out" transform="scale(0.3 0.3)">
          <a xlink:href="structGridOutFlags_1_1Vtk__coll__graph_org.svg" target="_base">
           <rect id="button" ry="5" rx="5" y="6" x="6" height="38" width="38"
                fill="#f2f5e9" fill-opacity="0.5" stroke="#606060" stroke-width="1.0"/>
           <path id="arrow"
             d="M 11.500037,31.436501 C 11.940474,20.09759 22.043105,11.32322 32.158766,21.979434 L 37.068811,17.246167 C 37.068811,17.246167 37.088388,32 37.088388,32 L 22.160133,31.978069 C 22.160133,31.978069 26.997745,27.140456 26.997745,27.140456 C 18.528582,18.264221 13.291696,25.230495 11.500037,31.436501 z"
             style="fill:#404040;"/>
          </a>
         </g>
        </svg>
</svg>
