<?xml version="1.0" encoding="UTF-8" standalone="no"?>
<!DOCTYPE svg PUBLIC "-//W3C//DTD SVG 1.1//EN"
 "http://www.w3.org/Graphics/SVG/1.1/DTD/svg11.dtd">
<!-- Generated by graphviz version 2.40.1 (20161225.0304)
 -->
<!-- Title: internal::AffineConstraints::IsBlockSparsityPattern&lt; MatrixType &gt; Pages: 1 -->
<svg width="138pt" height="204pt"
 viewBox="0.00 0.00 138.00 204.00" xmlns="http://www.w3.org/2000/svg" xmlns:xlink="http://www.w3.org/1999/xlink">
<g id="graph0" class="graph" transform="scale(1 1) rotate(0) translate(4 200)">
<title>internal::AffineConstraints::IsBlockSparsityPattern&lt; MatrixType &gt;</title>
<polygon fill="#ffffff" stroke="transparent" points="-4,4 -4,-200 134,-200 134,4 -4,4"/>
<!-- Node1 -->
<g id="node1" class="node">
<title>Node1</title>
<polygon fill="#bfbfbf" stroke="#000000" points="0,-.5 0,-90.5 130,-90.5 130,-.5 0,-.5"/>
<text text-anchor="start" x="8" y="-78.5" font-family="Helvetica,sans-Serif" font-size="10.00" fill="#000000">internal::AffineConstraints</text>
<text text-anchor="start" x="8" y="-67.5" font-family="Helvetica,sans-Serif" font-size="10.00" fill="#000000">::IsBlockSparsityPattern</text>
<text text-anchor="middle" x="65" y="-56.5" font-family="Helvetica,sans-Serif" font-size="10.00" fill="#000000">&lt; MatrixType &gt;</text>
<polyline fill="none" stroke="#000000" points="0,-49.5 130,-49.5 "/>
<text text-anchor="middle" x="65" y="-37.5" font-family="Helvetica,sans-Serif" font-size="10.00" fill="#000000"> </text>
<polyline fill="none" stroke="#000000" points="0,-30.5 130,-30.5 "/>
<text text-anchor="start" x="8" y="-18.5" font-family="Helvetica,sans-Serif" font-size="10.00" fill="#000000">&#45; check()</text>
<text text-anchor="start" x="8" y="-7.5" font-family="Helvetica,sans-Serif" font-size="10.00" fill="#000000">&#45; check()</text>
</g>
<!-- Node2 -->
<g id="node2" class="node">
<title>Node2</title>
<g id="a_node2"><a xlink:href="classbool.html" target="_top" xlink:title="{bool\n||}">
<polygon fill="#ffffff" stroke="#000000" points="47.5,-138.5 47.5,-195.5 82.5,-195.5 82.5,-138.5 47.5,-138.5"/>
<text text-anchor="middle" x="65" y="-183.5" font-family="Helvetica,sans-Serif" font-size="10.00" fill="#000000">bool</text>
<polyline fill="none" stroke="#000000" points="47.5,-176.5 82.5,-176.5 "/>
<text text-anchor="middle" x="65" y="-164.5" font-family="Helvetica,sans-Serif" font-size="10.00" fill="#000000"> </text>
<polyline fill="none" stroke="#000000" points="47.5,-157.5 82.5,-157.5 "/>
<text text-anchor="middle" x="65" y="-145.5" font-family="Helvetica,sans-Serif" font-size="10.00" fill="#000000"> </text>
</a>
</g>
</g>
<!-- Node2&#45;&gt;Node1 -->
<g id="edge1" class="edge">
<title>Node2&#45;&gt;Node1</title>
<path fill="none" stroke="#404040" d="M65,-138.2062C65,-127.5748 65,-115.1181 65,-102.847"/>
<polygon fill="none" stroke="#404040" points="65.0001,-102.7124 61,-96.7125 65,-90.7124 69,-96.7124 65.0001,-102.7124"/>
<text text-anchor="middle" x="81.5" y="-112" font-family="Helvetica,sans-Serif" font-size="10.00" fill="#000000"> +value</text>
</g>
</g>
</svg>
