<?xml version="1.0" encoding="UTF-8" standalone="no"?>
<!DOCTYPE svg PUBLIC "-//W3C//DTD SVG 1.1//EN"
 "http://www.w3.org/Graphics/SVG/1.1/DTD/svg11.dtd">
<!-- Generated by graphviz version 2.40.1 (20161225.0304)
 -->
<!-- Title: mystl::is_input_iterator&lt; Iter &gt; Pages: 1 -->
<svg width="711pt" height="133pt"
 viewBox="0.00 0.00 711.00 132.50" xmlns="http://www.w3.org/2000/svg" xmlns:xlink="http://www.w3.org/1999/xlink">
<g id="graph0" class="graph" transform="scale(1 1) rotate(0) translate(4 128.5)">
<title>mystl::is_input_iterator&lt; Iter &gt;</title>
<polygon fill="#ffffff" stroke="transparent" points="-4,4 -4,-128.5 707,-128.5 707,4 -4,4"/>
<!-- Node0 -->
<g id="node1" class="node">
<title>Node0</title>
<polygon fill="#bfbfbf" stroke="#000000" points="587,-44.5 587,-74.5 703,-74.5 703,-44.5 587,-44.5"/>
<text text-anchor="start" x="595" y="-62.5" font-family="Helvetica,sans-Serif" font-size="10.00" fill="#000000">mystl::is_input_iterator</text>
<text text-anchor="middle" x="645" y="-51.5" font-family="Helvetica,sans-Serif" font-size="10.00" fill="#000000">&lt; Iter &gt;</text>
</g>
<!-- Node1 -->
<g id="node2" class="node">
<title>Node1</title>
<g id="a_node2"><a xlink:href="structmystl_1_1has__iterator__cat__of.html" target="_top" xlink:title="mystl::has_iterator\l_cat_of\&lt; Iter, input\l_iterator_tag \&gt;">
<polygon fill="#ffffff" stroke="#000000" points="451,-39 451,-80 550,-80 550,-39 451,-39"/>
<text text-anchor="start" x="459" y="-68" font-family="Helvetica,sans-Serif" font-size="10.00" fill="#000000">mystl::has_iterator</text>
<text text-anchor="start" x="459" y="-57" font-family="Helvetica,sans-Serif" font-size="10.00" fill="#000000">_cat_of&lt; Iter, input</text>
<text text-anchor="middle" x="500.5" y="-46" font-family="Helvetica,sans-Serif" font-size="10.00" fill="#000000">_iterator_tag &gt;</text>
</a>
</g>
</g>
<!-- Node1&#45;&gt;Node0 -->
<g id="edge1" class="edge">
<title>Node1&#45;&gt;Node0</title>
<path fill="none" stroke="#191970" d="M560.3969,-59.5C569.1846,-59.5 578.2236,-59.5 586.9728,-59.5"/>
<polygon fill="#191970" stroke="#191970" points="560.2287,-56.0001 550.2287,-59.5 560.2287,-63.0001 560.2287,-56.0001"/>
</g>
<!-- Node2 -->
<g id="node3" class="node">
<title>Node2</title>
<g id="a_node3"><a xlink:href="structmystl_1_1m__integral__constant.html" target="_top" xlink:title="m_bool_constant\&lt; std\l::is_convertible\&lt; iterator\l_traits\&lt; Iter &#160;\&gt;::iterator\l_category, input_iterator_tag\l &#160;\&gt;::value \&gt;">
<polygon fill="#ffffff" stroke="#000000" points="186,-61 186,-124 326,-124 326,-61 186,-61"/>
<text text-anchor="start" x="194" y="-112" font-family="Helvetica,sans-Serif" font-size="10.00" fill="#000000">m_bool_constant&lt; std</text>
<text text-anchor="start" x="194" y="-101" font-family="Helvetica,sans-Serif" font-size="10.00" fill="#000000">::is_convertible&lt; iterator</text>
<text text-anchor="start" x="194" y="-90" font-family="Helvetica,sans-Serif" font-size="10.00" fill="#000000">_traits&lt; Iter &gt;::iterator</text>
<text text-anchor="start" x="194" y="-79" font-family="Helvetica,sans-Serif" font-size="10.00" fill="#000000">_category, input_iterator_tag</text>
<text text-anchor="middle" x="256" y="-68" font-family="Helvetica,sans-Serif" font-size="10.00" fill="#000000"> &gt;::value &gt;</text>
</a>
</g>
</g>
<!-- Node2&#45;&gt;Node1 -->
<g id="edge2" class="edge">
<title>Node2&#45;&gt;Node1</title>
<path fill="none" stroke="#191970" d="M336.0639,-81.6938C373.9623,-76.5787 418.0258,-70.6315 450.9953,-66.1816"/>
<polygon fill="#191970" stroke="#191970" points="335.5059,-78.2373 326.0639,-83.0435 336.4422,-85.1744 335.5059,-78.2373"/>
</g>
<!-- Node3 -->
<g id="node4" class="node">
<title>Node3</title>
<g id="a_node4"><a xlink:href="structmystl_1_1has__iterator__cat__of.html" target="_top" xlink:title="mystl::has_iterator\l_cat_of\&lt; T, U, bool \&gt;">
<polygon fill="#ffffff" stroke="#000000" points="201,-11.5 201,-41.5 311,-41.5 311,-11.5 201,-11.5"/>
<text text-anchor="start" x="209" y="-29.5" font-family="Helvetica,sans-Serif" font-size="10.00" fill="#000000">mystl::has_iterator</text>
<text text-anchor="middle" x="256" y="-18.5" font-family="Helvetica,sans-Serif" font-size="10.00" fill="#000000">_cat_of&lt; T, U, bool &gt;</text>
</a>
</g>
</g>
<!-- Node3&#45;&gt;Node1 -->
<g id="edge3" class="edge">
<title>Node3&#45;&gt;Node1</title>
<path fill="none" stroke="#ffa500" stroke-dasharray="5,2" d="M321.4374,-29.962C354.961,-32.355 396.337,-36.2656 433,-42.5 438.8377,-43.4927 444.9136,-44.7282 450.9227,-46.0771"/>
<polygon fill="#ffa500" stroke="#ffa500" points="321.5154,-26.4592 311.2995,-29.2672 321.0367,-33.4428 321.5154,-26.4592"/>
<text text-anchor="start" x="344" y="-56.5" font-family="Helvetica,sans-Serif" font-size="10.00" fill="#000000"> &lt; Iter, input_iterator</text>
<text text-anchor="middle" x="388.5" y="-45.5" font-family="Helvetica,sans-Serif" font-size="10.00" fill="#000000">_tag &gt;</text>
</g>
<!-- Node4 -->
<g id="node5" class="node">
<title>Node4</title>
<g id="a_node5"><a xlink:href="structmystl_1_1m__integral__constant.html" target="_top" xlink:title="m_bool_constant\&lt; std\l::is_convertible\&lt; iterator\l_traits\&lt; T \&gt;::iterator_category,\l U \&gt;::value \&gt;">
<polygon fill="#ffffff" stroke="#000000" points="0,-.5 0,-52.5 149,-52.5 149,-.5 0,-.5"/>
<text text-anchor="start" x="8" y="-40.5" font-family="Helvetica,sans-Serif" font-size="10.00" fill="#000000">m_bool_constant&lt; std</text>
<text text-anchor="start" x="8" y="-29.5" font-family="Helvetica,sans-Serif" font-size="10.00" fill="#000000">::is_convertible&lt; iterator</text>
<text text-anchor="start" x="8" y="-18.5" font-family="Helvetica,sans-Serif" font-size="10.00" fill="#000000">_traits&lt; T &gt;::iterator_category,</text>
<text text-anchor="middle" x="74.5" y="-7.5" font-family="Helvetica,sans-Serif" font-size="10.00" fill="#000000"> U &gt;::value &gt;</text>
</a>
</g>
</g>
<!-- Node4&#45;&gt;Node3 -->
<g id="edge4" class="edge">
<title>Node4&#45;&gt;Node3</title>
<path fill="none" stroke="#191970" d="M159.322,-26.5C173.4215,-26.5 187.7128,-26.5 200.8265,-26.5"/>
<polygon fill="#191970" stroke="#191970" points="159.1088,-23.0001 149.1087,-26.5 159.1087,-30.0001 159.1088,-23.0001"/>
</g>
</g>
</svg>
