<?xml version="1.0" encoding="UTF-8" standalone="no"?>
<!DOCTYPE svg PUBLIC "-//W3C//DTD SVG 1.1//EN"
 "http://www.w3.org/Graphics/SVG/1.1/DTD/svg11.dtd">
<!-- Generated by graphviz version 2.40.1 (20161225.0304)
 -->
<!-- Title: internal::TriangulationImplementation::NumberCache&lt; 2 &gt; Pages: 1 -->
<svg width="184pt" height="173pt"
 viewBox="0.00 0.00 184.00 173.00" xmlns="http://www.w3.org/2000/svg" xmlns:xlink="http://www.w3.org/1999/xlink">
<g id="graph0" class="graph" transform="scale(1 1) rotate(0) translate(4 169)">
<title>internal::TriangulationImplementation::NumberCache&lt; 2 &gt;</title>
<polygon fill="#ffffff" stroke="transparent" points="-4,4 -4,-169 180,-169 180,4 -4,4"/>
<!-- Node0 -->
<g id="node1" class="node">
<title>Node0</title>
<polygon fill="#bfbfbf" stroke="#000000" points="0,-67.5 0,-97.5 176,-97.5 176,-67.5 0,-67.5"/>
<text text-anchor="start" x="8" y="-85.5" font-family="Helvetica,sans-Serif" font-size="10.00" fill="#000000">internal::TriangulationImplementation</text>
<text text-anchor="middle" x="88" y="-74.5" font-family="Helvetica,sans-Serif" font-size="10.00" fill="#000000">::NumberCache&lt; 2 &gt;</text>
</g>
<!-- Node2 -->
<g id="node3" class="node">
<title>Node2</title>
<g id="a_node3"><a xlink:href="structinternal_1_1TriangulationImplementation_1_1NumberCache_3_013_01_4.html" target="_top" xlink:title="internal::TriangulationImplementation\l::NumberCache\&lt; 3 \&gt;">
<polygon fill="#ffffff" stroke="#000000" points="0,-.5 0,-30.5 176,-30.5 176,-.5 0,-.5"/>
<text text-anchor="start" x="8" y="-18.5" font-family="Helvetica,sans-Serif" font-size="10.00" fill="#000000">internal::TriangulationImplementation</text>
<text text-anchor="middle" x="88" y="-7.5" font-family="Helvetica,sans-Serif" font-size="10.00" fill="#000000">::NumberCache&lt; 3 &gt;</text>
</a>
</g>
</g>
<!-- Node0&#45;&gt;Node2 -->
<g id="edge2" class="edge">
<title>Node0&#45;&gt;Node2</title>
<path fill="none" stroke="#191970" d="M88,-57.0249C88,-48.128 88,-38.4287 88,-30.6432"/>
<polygon fill="#191970" stroke="#191970" points="84.5001,-57.2966 88,-67.2967 91.5001,-57.2967 84.5001,-57.2966"/>
</g>
<!-- Node1 -->
<g id="node2" class="node">
<title>Node1</title>
<g id="a_node2"><a xlink:href="structinternal_1_1TriangulationImplementation_1_1NumberCache_3_011_01_4.html" target="_top" xlink:title="internal::TriangulationImplementation\l::NumberCache\&lt; 1 \&gt;">
<polygon fill="#ffffff" stroke="#000000" points="0,-134.5 0,-164.5 176,-164.5 176,-134.5 0,-134.5"/>
<text text-anchor="start" x="8" y="-152.5" font-family="Helvetica,sans-Serif" font-size="10.00" fill="#000000">internal::TriangulationImplementation</text>
<text text-anchor="middle" x="88" y="-141.5" font-family="Helvetica,sans-Serif" font-size="10.00" fill="#000000">::NumberCache&lt; 1 &gt;</text>
</a>
</g>
</g>
<!-- Node1&#45;&gt;Node0 -->
<g id="edge1" class="edge">
<title>Node1&#45;&gt;Node0</title>
<path fill="none" stroke="#191970" d="M88,-124.0249C88,-115.128 88,-105.4287 88,-97.6432"/>
<polygon fill="#191970" stroke="#191970" points="84.5001,-124.2966 88,-134.2967 91.5001,-124.2967 84.5001,-124.2966"/>
</g>
</g>
</svg>
