<?xml version="1.0" encoding="UTF-8" standalone="no"?>
<!DOCTYPE svg PUBLIC "-//W3C//DTD SVG 1.1//EN"
 "http://www.w3.org/Graphics/SVG/1.1/DTD/svg11.dtd">
<!-- Generated by graphviz version 2.40.1 (20161225.0304)
 -->
<!-- Title: mystl::list_const_iterator&lt; T &gt; Pages: 1 -->
<svg width="182pt" height="196pt"
 viewBox="0.00 0.00 182.00 196.00" xmlns="http://www.w3.org/2000/svg" xmlns:xlink="http://www.w3.org/1999/xlink">
<g id="graph0" class="graph" transform="scale(1 1) rotate(0) translate(4 192)">
<title>mystl::list_const_iterator&lt; T &gt;</title>
<polygon fill="#ffffff" stroke="transparent" points="-4,4 -4,-192 178,-192 178,4 -4,4"/>
<!-- Node0 -->
<g id="node1" class="node">
<title>Node0</title>
<polygon fill="#bfbfbf" stroke="#000000" points="0,-.5 0,-19.5 148,-19.5 148,-.5 0,-.5"/>
<text text-anchor="middle" x="74" y="-7.5" font-family="Helvetica,sans-Serif" font-size="10.00" fill="#000000">mystl::list_const_iterator&lt; T &gt;</text>
</g>
<!-- Node1 -->
<g id="node2" class="node">
<title>Node1</title>
<g id="a_node2"><a xlink:href="structmystl_1_1iterator.html" target="_top" xlink:title="mystl::iterator\&lt; bidirectional\l_iterator_tag, T \&gt;">
<polygon fill="#ffffff" stroke="#000000" points="5.5,-57.5 5.5,-87.5 142.5,-87.5 142.5,-57.5 5.5,-57.5"/>
<text text-anchor="start" x="13.5" y="-75.5" font-family="Helvetica,sans-Serif" font-size="10.00" fill="#000000">mystl::iterator&lt; bidirectional</text>
<text text-anchor="middle" x="74" y="-64.5" font-family="Helvetica,sans-Serif" font-size="10.00" fill="#000000">_iterator_tag, T &gt;</text>
</a>
</g>
</g>
<!-- Node1&#45;&gt;Node0 -->
<g id="edge1" class="edge">
<title>Node1&#45;&gt;Node0</title>
<path fill="none" stroke="#191970" d="M74,-47.3498C74,-37.6481 74,-27.1303 74,-19.7356"/>
<polygon fill="#191970" stroke="#191970" points="70.5001,-47.3705 74,-57.3705 77.5001,-47.3705 70.5001,-47.3705"/>
</g>
<!-- Node2 -->
<g id="node3" class="node">
<title>Node2</title>
<g id="a_node3"><a xlink:href="structmystl_1_1iterator.html" target="_top" xlink:title="mystl::iterator\&lt; Category,\l T, Distance, Pointer,\l Reference \&gt;">
<polygon fill="#ffffff" stroke="#000000" points="10,-146.5 10,-187.5 138,-187.5 138,-146.5 10,-146.5"/>
<text text-anchor="start" x="18" y="-175.5" font-family="Helvetica,sans-Serif" font-size="10.00" fill="#000000">mystl::iterator&lt; Category,</text>
<text text-anchor="start" x="18" y="-164.5" font-family="Helvetica,sans-Serif" font-size="10.00" fill="#000000"> T, Distance, Pointer,</text>
<text text-anchor="middle" x="74" y="-153.5" font-family="Helvetica,sans-Serif" font-size="10.00" fill="#000000"> Reference &gt;</text>
</a>
</g>
</g>
<!-- Node2&#45;&gt;Node1 -->
<g id="edge2" class="edge">
<title>Node2&#45;&gt;Node1</title>
<path fill="none" stroke="#ffa500" stroke-dasharray="5,2" d="M74,-136.3293C74,-120.0543 74,-100.774 74,-87.6945"/>
<polygon fill="#ffa500" stroke="#ffa500" points="70.5001,-136.4949 74,-146.4949 77.5001,-136.4949 70.5001,-136.4949"/>
<text text-anchor="start" x="74" y="-120" font-family="Helvetica,sans-Serif" font-size="10.00" fill="#000000"> &lt; bidirectional_iterator</text>
<text text-anchor="middle" x="124" y="-109" font-family="Helvetica,sans-Serif" font-size="10.00" fill="#000000">_tag, T &gt;</text>
</g>
</g>
</svg>
