<?xml version="1.0" encoding="UTF-8" standalone="no"?>
<!DOCTYPE svg PUBLIC "-//W3C//DTD SVG 1.1//EN"
 "http://www.w3.org/Graphics/SVG/1.1/DTD/svg11.dtd">
<!-- Generated by graphviz version 2.40.1 (20161225.0304)
 -->
<!-- Title: internal::TriangulationImplementation::NumberCache&lt; 2 &gt; Pages: 1 -->
<!--zoomable 575 -->
<svg id="main" version="1.1" xmlns="http://www.w3.org/2000/svg" xmlns:xlink="http://www.w3.org/1999/xlink" xml:space="preserve" onload="init(evt)">
<style type="text/css"><![CDATA[
.edge:hover path { stroke: red; }
.edge:hover polygon { stroke: red; fill: red; }
]]></style>
<script type="text/javascript"><![CDATA[
var edges = document.getElementsByTagName('g');
if (edges && edges.length) {
  for (var i=0;i<edges.length;i++) {
    if (edges[i].id.substr(0,4)=='edge') {
      edges[i].setAttribute('class','edge');
    }
  }
}
]]></script>
        <defs>
                <circle id="rim" cx="0" cy="0" r="7"/>
                <circle id="rim2" cx="0" cy="0" r="3.5"/>
                <g id="zoomPlus">
                        <use xlink:href="#rim" fill="#404040">
                                <set attributeName="fill" to="#808080" begin="zoomplus.mouseover" end="zoomplus.mouseout"/>
                        </use>
                        <path d="M-4,0h8M0,-4v8" fill="none" stroke="white" stroke-width="1.5" pointer-events="none"/>
                </g>
                <g id="zoomMin">
                        <use xlink:href="#rim" fill="#404040">
                                <set attributeName="fill" to="#808080" begin="zoomminus.mouseover" end="zoomminus.mouseout"/>
                        </use>
                        <path d="M-4,0h8" fill="none" stroke="white" stroke-width="1.5" pointer-events="none"/>
                </g>
                <g id="dirArrow">
                        <path fill="none" stroke="white" stroke-width="1.5" d="M0,-3.0v7 M-2.5,-0.5L0,-3.0L2.5,-0.5"/>
                </g>
               <g id="resetDef">
                       <use xlink:href="#rim2" fill="#404040">
                               <set attributeName="fill" to="#808080" begin="reset.mouseover" end="reset.mouseout"/>
                       </use>
               </g>
        </defs>

<script type="text/javascript">
var viewWidth = 440;
var viewHeight = 575;
var sectionId = 'dynsection-1';
</script>
<script xlink:href="svgpan.js"/>
<svg id="graph" class="graph">
<g id="viewport">
<title>internal::TriangulationImplementation::NumberCache&lt; 2 &gt;</title>
<polygon fill="#ffffff" stroke="transparent" points="-4,4 -4,-571 435.5,-571 435.5,4 -4,4"/>
<!-- Node3 -->
<g id="node1" class="node">
<title>Node3</title>
<polygon fill="#bfbfbf" stroke="#000000" points="150.5,-.5 150.5,-90.5 326.5,-90.5 326.5,-.5 150.5,-.5"/>
<text text-anchor="start" x="158.5" y="-78.5" font-family="Helvetica,sans-Serif" font-size="10.00" fill="#000000">internal::TriangulationImplementation</text>
<text text-anchor="middle" x="238.5" y="-67.5" font-family="Helvetica,sans-Serif" font-size="10.00" fill="#000000">::NumberCache&lt; 2 &gt;</text>
<polyline fill="none" stroke="#000000" points="150.5,-60.5 326.5,-60.5 "/>
<text text-anchor="middle" x="238.5" y="-48.5" font-family="Helvetica,sans-Serif" font-size="10.00" fill="#000000"> </text>
<polyline fill="none" stroke="#000000" points="150.5,-41.5 326.5,-41.5 "/>
<text text-anchor="start" x="158.5" y="-29.5" font-family="Helvetica,sans-Serif" font-size="10.00" fill="#000000">+ NumberCache()</text>
<text text-anchor="start" x="158.5" y="-18.5" font-family="Helvetica,sans-Serif" font-size="10.00" fill="#000000">+ memory_consumption()</text>
<text text-anchor="start" x="158.5" y="-7.5" font-family="Helvetica,sans-Serif" font-size="10.00" fill="#000000">+ serialize()</text>
</g>
<!-- Node4 -->
<g id="node2" class="node">
<title>Node4</title>
<g id="a_node2"><a xlink:href="structinternal_1_1TriangulationImplementation_1_1NumberCache_3_011_01_4.html" target="_top" xlink:title="{internal::TriangulationImplementation\l::NumberCache\&lt; 1 \&gt;\n||+ NumberCache()\l+ memory_consumption()\l+ serialize()\l}">
<polygon fill="#ffffff" stroke="#000000" points="150.5,-128.5 150.5,-218.5 326.5,-218.5 326.5,-128.5 150.5,-128.5"/>
<text text-anchor="start" x="158.5" y="-206.5" font-family="Helvetica,sans-Serif" font-size="10.00" fill="#000000">internal::TriangulationImplementation</text>
<text text-anchor="middle" x="238.5" y="-195.5" font-family="Helvetica,sans-Serif" font-size="10.00" fill="#000000">::NumberCache&lt; 1 &gt;</text>
<polyline fill="none" stroke="#000000" points="150.5,-188.5 326.5,-188.5 "/>
<text text-anchor="middle" x="238.5" y="-176.5" font-family="Helvetica,sans-Serif" font-size="10.00" fill="#000000"> </text>
<polyline fill="none" stroke="#000000" points="150.5,-169.5 326.5,-169.5 "/>
<text text-anchor="start" x="158.5" y="-157.5" font-family="Helvetica,sans-Serif" font-size="10.00" fill="#000000">+ NumberCache()</text>
<text text-anchor="start" x="158.5" y="-146.5" font-family="Helvetica,sans-Serif" font-size="10.00" fill="#000000">+ memory_consumption()</text>
<text text-anchor="start" x="158.5" y="-135.5" font-family="Helvetica,sans-Serif" font-size="10.00" fill="#000000">+ serialize()</text>
</a>
</g>
</g>
<!-- Node4&#45;&gt;Node3 -->
<g id="edge1" class="edge">
<title>Node4&#45;&gt;Node3</title>
<path fill="none" stroke="#191970" d="M238.5,-118.1492C238.5,-108.9671 238.5,-99.5431 238.5,-90.6519"/>
<polygon fill="none" stroke="#191970" points="235.0001,-118.372 238.5,-128.372 242.0001,-118.372 235.0001,-118.372"/>
</g>
<!-- Node5 -->
<g id="node3" class="node">
<title>Node5</title>
<polygon fill="#ffffff" stroke="#bfbfbf" points="15,-288.5 15,-356.5 126,-356.5 126,-288.5 15,-288.5"/>
<text text-anchor="start" x="23" y="-344.5" font-family="Helvetica,sans-Serif" font-size="10.00" fill="#000000">std::vector&lt; unsigned</text>
<text text-anchor="middle" x="70.5" y="-333.5" font-family="Helvetica,sans-Serif" font-size="10.00" fill="#000000"> int &gt;</text>
<polyline fill="none" stroke="#bfbfbf" points="15,-326.5 126,-326.5 "/>
<text text-anchor="middle" x="70.5" y="-314.5" font-family="Helvetica,sans-Serif" font-size="10.00" fill="#000000"> </text>
<polyline fill="none" stroke="#bfbfbf" points="15,-307.5 126,-307.5 "/>
<text text-anchor="middle" x="70.5" y="-295.5" font-family="Helvetica,sans-Serif" font-size="10.00" fill="#000000"> </text>
</g>
<!-- Node5&#45;&gt;Node3 -->
<g id="edge7" class="edge">
<title>Node5&#45;&gt;Node3</title>
<path fill="none" stroke="#404040" d="M51.4949,-288.4959C31.1648,-247.0775 5.9533,-176.6325 38.5,-128 61.2181,-94.0537 100.7265,-74.0606 138.6604,-62.2919"/>
<polygon fill="none" stroke="#404040" points="138.8372,-62.2407 143.4851,-56.7273 150.362,-58.8972 145.7141,-64.4106 138.8372,-62.2407"/>
<text text-anchor="middle" x="90" y="-176.5" font-family="Helvetica,sans-Serif" font-size="10.00" fill="#000000"> +n_active_quads_level</text>
<text text-anchor="middle" x="90" y="-165.5" font-family="Helvetica,sans-Serif" font-size="10.00" fill="#000000">+n_quads_level</text>
</g>
<!-- Node5&#45;&gt;Node4 -->
<g id="edge2" class="edge">
<title>Node5&#45;&gt;Node4</title>
<path fill="none" stroke="#404040" d="M105.8797,-288.2526C122.5256,-272.4012 142.7895,-253.4743 161.5,-237 165.4848,-233.4915 169.6187,-229.9132 173.8091,-226.332"/>
<polygon fill="none" stroke="#404040" points="173.8811,-226.271 175.8731,-219.3405 183.0367,-218.5136 181.0447,-225.4442 173.8811,-226.271"/>
<text text-anchor="middle" x="210" y="-256.5" font-family="Helvetica,sans-Serif" font-size="10.00" fill="#000000"> +n_active_lines_level</text>
<text text-anchor="middle" x="210" y="-245.5" font-family="Helvetica,sans-Serif" font-size="10.00" fill="#000000">+n_lines_level</text>
</g>
<!-- Node6 -->
<g id="node4" class="node">
<title>Node6</title>
<g id="a_node4"><a xlink:href="classunsigned_01int.html" target="_top" xlink:title="{unsigned int\n||}">
<polygon fill="#ffffff" stroke="#000000" points="0,-404.5 0,-461.5 69,-461.5 69,-404.5 0,-404.5"/>
<text text-anchor="middle" x="34.5" y="-449.5" font-family="Helvetica,sans-Serif" font-size="10.00" fill="#000000">unsigned int</text>
<polyline fill="none" stroke="#000000" points="0,-442.5 69,-442.5 "/>
<text text-anchor="middle" x="34.5" y="-430.5" font-family="Helvetica,sans-Serif" font-size="10.00" fill="#000000"> </text>
<polyline fill="none" stroke="#000000" points="0,-423.5 69,-423.5 "/>
<text text-anchor="middle" x="34.5" y="-411.5" font-family="Helvetica,sans-Serif" font-size="10.00" fill="#000000"> </text>
</a>
</g>
</g>
<!-- Node6&#45;&gt;Node5 -->
<g id="edge3" class="edge">
<title>Node6&#45;&gt;Node5</title>
<path fill="none" stroke="#404040" d="M39.7712,-404.3834C41.8153,-394.9235 44.4148,-384.4138 47.5,-375 48.2748,-372.636 49.1175,-370.233 50.0077,-367.8213"/>
<polygon fill="none" stroke="#404040" points="50.0369,-367.7471 48.5179,-360.6978 54.4407,-356.5844 55.9597,-363.6337 50.0369,-367.7471"/>
<text text-anchor="middle" x="72" y="-378" font-family="Helvetica,sans-Serif" font-size="10.00" fill="#000000"> +elements</text>
</g>
<!-- Node7 -->
<g id="node5" class="node">
<title>Node7</title>
<g id="a_node5"><a xlink:title="STL class. ">
<polygon fill="#ffffff" stroke="#bfbfbf" points="87,-404.5 87,-461.5 174,-461.5 174,-404.5 87,-404.5"/>
<text text-anchor="middle" x="130.5" y="-449.5" font-family="Helvetica,sans-Serif" font-size="10.00" fill="#000000">std::vector&lt; T &gt;</text>
<polyline fill="none" stroke="#bfbfbf" points="87,-442.5 174,-442.5 "/>
<text text-anchor="middle" x="130.5" y="-430.5" font-family="Helvetica,sans-Serif" font-size="10.00" fill="#000000"> </text>
<polyline fill="none" stroke="#bfbfbf" points="87,-423.5 174,-423.5 "/>
<text text-anchor="middle" x="130.5" y="-411.5" font-family="Helvetica,sans-Serif" font-size="10.00" fill="#000000"> </text>
</a>
</g>
</g>
<!-- Node7&#45;&gt;Node5 -->
<g id="edge4" class="edge">
<title>Node7&#45;&gt;Node5</title>
<path fill="none" stroke="#ffa500" d="M110.0765,-395.3866C103.2513,-382.817 95.6874,-368.8867 89.0159,-356.6001"/>
<polygon fill="#ffa500" stroke="#ffa500" points="107.0447,-397.138 114.8923,-404.2559 113.1963,-393.7977 107.0447,-397.138"/>
<text text-anchor="middle" x="141.5" y="-378" font-family="Helvetica,sans-Serif" font-size="10.00" fill="#000000"> &lt; unsigned int &gt;</text>
</g>
<!-- Node8 -->
<g id="node6" class="node">
<title>Node8</title>
<polygon fill="#ffffff" stroke="#bfbfbf" points="116,-509.5 116,-566.5 145,-566.5 145,-509.5 116,-509.5"/>
<text text-anchor="middle" x="130.5" y="-554.5" font-family="Helvetica,sans-Serif" font-size="10.00" fill="#000000">T</text>
<polyline fill="none" stroke="#bfbfbf" points="116,-547.5 145,-547.5 "/>
<text text-anchor="middle" x="130.5" y="-535.5" font-family="Helvetica,sans-Serif" font-size="10.00" fill="#000000"> </text>
<polyline fill="none" stroke="#bfbfbf" points="116,-528.5 145,-528.5 "/>
<text text-anchor="middle" x="130.5" y="-516.5" font-family="Helvetica,sans-Serif" font-size="10.00" fill="#000000"> </text>
</g>
<!-- Node8&#45;&gt;Node7 -->
<g id="edge5" class="edge">
<title>Node8&#45;&gt;Node7</title>
<path fill="none" stroke="#404040" d="M130.5,-509.3083C130.5,-498.4281 130.5,-485.817 130.5,-474.0192"/>
<polygon fill="none" stroke="#404040" points="130.5001,-473.657 126.5,-467.6571 130.5,-461.657 134.5,-467.657 130.5001,-473.657"/>
<text text-anchor="middle" x="155" y="-483" font-family="Helvetica,sans-Serif" font-size="10.00" fill="#000000"> +elements</text>
</g>
<!-- Node9 -->
<g id="node7" class="node">
<title>Node9</title>
<polygon fill="#ffffff" stroke="#bfbfbf" points="281.5,-294 281.5,-351 337.5,-351 337.5,-294 281.5,-294"/>
<text text-anchor="middle" x="309.5" y="-339" font-family="Helvetica,sans-Serif" font-size="10.00" fill="#000000">unsigned</text>
<polyline fill="none" stroke="#bfbfbf" points="281.5,-332 337.5,-332 "/>
<text text-anchor="middle" x="309.5" y="-320" font-family="Helvetica,sans-Serif" font-size="10.00" fill="#000000"> </text>
<polyline fill="none" stroke="#bfbfbf" points="281.5,-313 337.5,-313 "/>
<text text-anchor="middle" x="309.5" y="-301" font-family="Helvetica,sans-Serif" font-size="10.00" fill="#000000"> </text>
</g>
<!-- Node9&#45;&gt;Node3 -->
<g id="edge8" class="edge">
<title>Node9&#45;&gt;Node3</title>
<path fill="none" stroke="#404040" d="M335.8106,-293.8466C341.0116,-286.5666 345.7187,-278.4083 348.5,-270 359.8368,-235.7276 354.1411,-162.7512 335.5,-128 329.9352,-117.626 322.4886,-107.9983 314.1837,-99.2551"/>
<polygon fill="none" stroke="#404040" points="314.1706,-99.2422 307.0906,-97.8737 305.6307,-90.8119 312.7108,-92.1804 314.1706,-99.2422"/>
<text text-anchor="middle" x="392.5" y="-176.5" font-family="Helvetica,sans-Serif" font-size="10.00" fill="#000000"> +n_active_quads</text>
<text text-anchor="middle" x="392.5" y="-165.5" font-family="Helvetica,sans-Serif" font-size="10.00" fill="#000000">+n_quads</text>
</g>
<!-- Node9&#45;&gt;Node4 -->
<g id="edge6" class="edge">
<title>Node9&#45;&gt;Node4</title>
<path fill="none" stroke="#404040" d="M290.1813,-293.9023C285.4184,-286.2961 280.532,-277.9741 276.5,-270 270.1532,-257.4479 264.1414,-243.5708 258.8512,-230.346"/>
<polygon fill="none" stroke="#404040" points="258.763,-230.1198 252.8544,-225.9859 254.3978,-218.9419 260.3063,-223.0758 258.763,-230.1198"/>
<text text-anchor="middle" x="312.5" y="-262" font-family="Helvetica,sans-Serif" font-size="10.00" fill="#000000"> +n_active_lines</text>
<text text-anchor="middle" x="312.5" y="-251" font-family="Helvetica,sans-Serif" font-size="10.00" fill="#000000">+n_levels</text>
<text text-anchor="middle" x="312.5" y="-240" font-family="Helvetica,sans-Serif" font-size="10.00" fill="#000000">+n_lines</text>
</g>
</g>
</svg>
        <g id="navigator" transform="translate(0 0)" fill="#404254">
                <rect fill="#f2f5e9" fill-opacity="0.5" stroke="#606060" stroke-width=".5" x="0" y="0" width="60" height="60"/>
                <use id="zoomplus" xlink:href="#zoomPlus" x="17" y="9" onmousedown="handleZoom(evt,'in')"/>
                <use id="zoomminus" xlink:href="#zoomMin" x="42" y="9" onmousedown="handleZoom(evt,'out')"/>
                <use id="reset" xlink:href="#resetDef" x="30" y="36" onmousedown="handleReset()"/>
                <g id="arrowUp" xlink:href="#dirArrow" transform="translate(30 24)" onmousedown="handlePan(0,-1)">
                  <use xlink:href="#rim" fill="#404040">
                        <set attributeName="fill" to="#808080" begin="arrowUp.mouseover" end="arrowUp.mouseout"/>
                  </use>
                  <path fill="none" stroke="white" stroke-width="1.5" d="M0,-3.0v7 M-2.5,-0.5L0,-3.0L2.5,-0.5"/>
                </g>
                <g id="arrowRight" xlink:href="#dirArrow" transform="rotate(90) translate(36 -43)" onmousedown="handlePan(1,0)">
                  <use xlink:href="#rim" fill="#404040">
                        <set attributeName="fill" to="#808080" begin="arrowRight.mouseover" end="arrowRight.mouseout"/>
                  </use>
                  <path fill="none" stroke="white" stroke-width="1.5" d="M0,-3.0v7 M-2.5,-0.5L0,-3.0L2.5,-0.5"/>
                </g>
                <g id="arrowDown" xlink:href="#dirArrow" transform="rotate(180) translate(-30 -48)" onmousedown="handlePan(0,1)">
                  <use xlink:href="#rim" fill="#404040">
                        <set attributeName="fill" to="#808080" begin="arrowDown.mouseover" end="arrowDown.mouseout"/>
                  </use>
                  <path fill="none" stroke="white" stroke-width="1.5" d="M0,-3.0v7 M-2.5,-0.5L0,-3.0L2.5,-0.5"/>
                </g>
                <g id="arrowLeft" xlink:href="#dirArrow" transform="rotate(270) translate(-36 17)" onmousedown="handlePan(-1,0)">
                  <use xlink:href="#rim" fill="#404040">
                        <set attributeName="fill" to="#808080" begin="arrowLeft.mouseover" end="arrowLeft.mouseout"/>
                  </use>
                  <path fill="none" stroke="white" stroke-width="1.5" d="M0,-3.0v7 M-2.5,-0.5L0,-3.0L2.5,-0.5"/>
                </g>
        </g>
        <svg viewBox="0 0 15 15" width="100%" height="30px" preserveAspectRatio="xMaxYMin meet">
         <g id="arrow_out" transform="scale(0.3 0.3)">
          <a xlink:href="structinternal_1_1TriangulationImplementation_1_1NumberCache_3_012_01_4__coll__graph_org.svg" target="_base">
           <rect id="button" ry="5" rx="5" y="6" x="6" height="38" width="38"
                fill="#f2f5e9" fill-opacity="0.5" stroke="#606060" stroke-width="1.0"/>
           <path id="arrow"
             d="M 11.500037,31.436501 C 11.940474,20.09759 22.043105,11.32322 32.158766,21.979434 L 37.068811,17.246167 C 37.068811,17.246167 37.088388,32 37.088388,32 L 22.160133,31.978069 C 22.160133,31.978069 26.997745,27.140456 26.997745,27.140456 C 18.528582,18.264221 13.291696,25.230495 11.500037,31.436501 z"
             style="fill:#404040;"/>
          </a>
         </g>
        </svg>
</svg>
