<?xml version="1.0" encoding="UTF-8" standalone="no"?>
<!DOCTYPE svg PUBLIC "-//W3C//DTD SVG 1.1//EN"
 "http://www.w3.org/Graphics/SVG/1.1/DTD/svg11.dtd">
<!-- Generated by graphviz version 2.40.1 (20161225.0304)
 -->
<!-- Title: TrilinosWrappers::SolverBase::AdditionalData Pages: 1 -->
<svg width="315pt" height="235pt"
 viewBox="0.00 0.00 315.00 235.00" xmlns="http://www.w3.org/2000/svg" xmlns:xlink="http://www.w3.org/1999/xlink">
<g id="graph0" class="graph" transform="scale(1 1) rotate(0) translate(4 231)">
<title>TrilinosWrappers::SolverBase::AdditionalData</title>
<polygon fill="#ffffff" stroke="transparent" points="-4,4 -4,-231 311,-231 311,4 -4,4"/>
<!-- Node0 -->
<g id="node1" class="node">
<title>Node0</title>
<polygon fill="#bfbfbf" stroke="#000000" points="0,-98.5 0,-128.5 134,-128.5 134,-98.5 0,-98.5"/>
<text text-anchor="start" x="8" y="-116.5" font-family="Helvetica,sans-Serif" font-size="10.00" fill="#000000">TrilinosWrappers::Solver</text>
<text text-anchor="middle" x="67" y="-105.5" font-family="Helvetica,sans-Serif" font-size="10.00" fill="#000000">Base::AdditionalData</text>
</g>
<!-- Node1 -->
<g id="node2" class="node">
<title>Node1</title>
<g id="a_node2"><a xlink:href="structTrilinosWrappers_1_1SolverBicgstab_1_1AdditionalData.html" target="_top" xlink:title="TrilinosWrappers::Solver\lBicgstab::AdditionalData">
<polygon fill="#ffffff" stroke="#000000" points="170,-196.5 170,-226.5 307,-226.5 307,-196.5 170,-196.5"/>
<text text-anchor="start" x="178" y="-214.5" font-family="Helvetica,sans-Serif" font-size="10.00" fill="#000000">TrilinosWrappers::Solver</text>
<text text-anchor="middle" x="238.5" y="-203.5" font-family="Helvetica,sans-Serif" font-size="10.00" fill="#000000">Bicgstab::AdditionalData</text>
</a>
</g>
</g>
<!-- Node0&#45;&gt;Node1 -->
<g id="edge1" class="edge">
<title>Node0&#45;&gt;Node1</title>
<path fill="none" stroke="#191970" d="M92.5884,-135.0657C112.6505,-151.1622 141.8031,-172.8204 170,-187.5 176.2592,-190.7586 183.0579,-193.74 189.8604,-196.4096"/>
<polygon fill="#191970" stroke="#191970" points="94.5413,-132.1424 84.5762,-128.5443 90.1225,-137.5714 94.5413,-132.1424"/>
</g>
<!-- Node2 -->
<g id="node3" class="node">
<title>Node2</title>
<g id="a_node3"><a xlink:href="structTrilinosWrappers_1_1SolverCG_1_1AdditionalData.html" target="_top" xlink:title="TrilinosWrappers::Solver\lCG::AdditionalData">
<polygon fill="#ffffff" stroke="#000000" points="171.5,-147.5 171.5,-177.5 305.5,-177.5 305.5,-147.5 171.5,-147.5"/>
<text text-anchor="start" x="179.5" y="-165.5" font-family="Helvetica,sans-Serif" font-size="10.00" fill="#000000">TrilinosWrappers::Solver</text>
<text text-anchor="middle" x="238.5" y="-154.5" font-family="Helvetica,sans-Serif" font-size="10.00" fill="#000000">CG::AdditionalData</text>
</a>
</g>
</g>
<!-- Node0&#45;&gt;Node2 -->
<g id="edge2" class="edge">
<title>Node0&#45;&gt;Node2</title>
<path fill="none" stroke="#191970" d="M129.6293,-131.3941C148.0755,-136.6644 168.0644,-142.3755 185.8195,-147.4484"/>
<polygon fill="#191970" stroke="#191970" points="130.4318,-127.9834 119.855,-128.6014 128.5087,-134.7141 130.4318,-127.9834"/>
</g>
<!-- Node3 -->
<g id="node4" class="node">
<title>Node3</title>
<g id="a_node4"><a xlink:href="structTrilinosWrappers_1_1SolverCGS_1_1AdditionalData.html" target="_top" xlink:title="TrilinosWrappers::Solver\lCGS::AdditionalData">
<polygon fill="#ffffff" stroke="#000000" points="171.5,-98.5 171.5,-128.5 305.5,-128.5 305.5,-98.5 171.5,-98.5"/>
<text text-anchor="start" x="179.5" y="-116.5" font-family="Helvetica,sans-Serif" font-size="10.00" fill="#000000">TrilinosWrappers::Solver</text>
<text text-anchor="middle" x="238.5" y="-105.5" font-family="Helvetica,sans-Serif" font-size="10.00" fill="#000000">CGS::AdditionalData</text>
</a>
</g>
</g>
<!-- Node0&#45;&gt;Node3 -->
<g id="edge3" class="edge">
<title>Node0&#45;&gt;Node3</title>
<path fill="none" stroke="#191970" d="M144.3923,-113.5C153.4066,-113.5 162.5454,-113.5 171.4049,-113.5"/>
<polygon fill="#191970" stroke="#191970" points="144.2891,-110.0001 134.2891,-113.5 144.2891,-117.0001 144.2891,-110.0001"/>
</g>
<!-- Node4 -->
<g id="node5" class="node">
<title>Node4</title>
<g id="a_node5"><a xlink:href="structTrilinosWrappers_1_1SolverGMRES_1_1AdditionalData.html" target="_top" xlink:title="TrilinosWrappers::Solver\lGMRES::AdditionalData">
<polygon fill="#ffffff" stroke="#000000" points="171.5,-49.5 171.5,-79.5 305.5,-79.5 305.5,-49.5 171.5,-49.5"/>
<text text-anchor="start" x="179.5" y="-67.5" font-family="Helvetica,sans-Serif" font-size="10.00" fill="#000000">TrilinosWrappers::Solver</text>
<text text-anchor="middle" x="238.5" y="-56.5" font-family="Helvetica,sans-Serif" font-size="10.00" fill="#000000">GMRES::AdditionalData</text>
</a>
</g>
</g>
<!-- Node0&#45;&gt;Node4 -->
<g id="edge4" class="edge">
<title>Node0&#45;&gt;Node4</title>
<path fill="none" stroke="#191970" d="M129.6293,-95.6059C148.0755,-90.3356 168.0644,-84.6245 185.8195,-79.5516"/>
<polygon fill="#191970" stroke="#191970" points="128.5087,-92.2859 119.855,-98.3986 130.4318,-99.0166 128.5087,-92.2859"/>
</g>
<!-- Node5 -->
<g id="node6" class="node">
<title>Node5</title>
<g id="a_node6"><a xlink:href="structTrilinosWrappers_1_1SolverTFQMR_1_1AdditionalData.html" target="_top" xlink:title="TrilinosWrappers::Solver\lTFQMR::AdditionalData">
<polygon fill="#ffffff" stroke="#000000" points="171.5,-.5 171.5,-30.5 305.5,-30.5 305.5,-.5 171.5,-.5"/>
<text text-anchor="start" x="179.5" y="-18.5" font-family="Helvetica,sans-Serif" font-size="10.00" fill="#000000">TrilinosWrappers::Solver</text>
<text text-anchor="middle" x="238.5" y="-7.5" font-family="Helvetica,sans-Serif" font-size="10.00" fill="#000000">TFQMR::AdditionalData</text>
</a>
</g>
</g>
<!-- Node0&#45;&gt;Node5 -->
<g id="edge5" class="edge">
<title>Node0&#45;&gt;Node5</title>
<path fill="none" stroke="#191970" d="M93.056,-92.0645C113.1583,-76.2823 142.1498,-55.1145 170,-40.5 176.9502,-36.8529 184.5517,-33.5059 192.0814,-30.5277"/>
<polygon fill="#191970" stroke="#191970" points="90.6598,-89.4984 85.0142,-98.4638 95.0184,-94.9758 90.6598,-89.4984"/>
</g>
</g>
</svg>
