<?xml version="1.0" encoding="UTF-8" standalone="no"?>
<!DOCTYPE svg PUBLIC "-//W3C//DTD SVG 1.1//EN"
 "http://www.w3.org/Graphics/SVG/1.1/DTD/svg11.dtd">
<!-- Generated by graphviz version 2.40.1 (20161225.0304)
 -->
<!-- Title: mystl::is_random_access_iterator&lt; Iter &gt; Pages: 1 -->
<svg width="326pt" height="482pt"
 viewBox="0.00 0.00 325.50 482.00" xmlns="http://www.w3.org/2000/svg" xmlns:xlink="http://www.w3.org/1999/xlink">
<g id="graph0" class="graph" transform="scale(1 1) rotate(0) translate(4 478)">
<title>mystl::is_random_access_iterator&lt; Iter &gt;</title>
<polygon fill="#ffffff" stroke="transparent" points="-4,4 -4,-478 321.5,-478 321.5,4 -4,4"/>
<!-- Node0 -->
<g id="node1" class="node">
<title>Node0</title>
<polygon fill="#bfbfbf" stroke="#000000" points="68,-.5 68,-68.5 196,-68.5 196,-.5 68,-.5"/>
<text text-anchor="start" x="76" y="-56.5" font-family="Helvetica,sans-Serif" font-size="10.00" fill="#000000">mystl::is_random_access</text>
<text text-anchor="middle" x="132" y="-45.5" font-family="Helvetica,sans-Serif" font-size="10.00" fill="#000000">_iterator&lt; Iter &gt;</text>
<polyline fill="none" stroke="#000000" points="68,-38.5 196,-38.5 "/>
<text text-anchor="middle" x="132" y="-26.5" font-family="Helvetica,sans-Serif" font-size="10.00" fill="#000000"> </text>
<polyline fill="none" stroke="#000000" points="68,-19.5 196,-19.5 "/>
<text text-anchor="middle" x="132" y="-7.5" font-family="Helvetica,sans-Serif" font-size="10.00" fill="#000000"> </text>
</g>
<!-- Node1 -->
<g id="node2" class="node">
<title>Node1</title>
<g id="a_node2"><a xlink:href="structmystl_1_1has__iterator__cat__of.html" target="_top" xlink:title="{mystl::has_iterator\l_cat_of\&lt; Iter, random\l_access_iterator_tag \&gt;\n||}">
<polygon fill="#ffffff" stroke="#000000" points="74,-106.5 74,-185.5 190,-185.5 190,-106.5 74,-106.5"/>
<text text-anchor="start" x="82" y="-173.5" font-family="Helvetica,sans-Serif" font-size="10.00" fill="#000000">mystl::has_iterator</text>
<text text-anchor="start" x="82" y="-162.5" font-family="Helvetica,sans-Serif" font-size="10.00" fill="#000000">_cat_of&lt; Iter, random</text>
<text text-anchor="middle" x="132" y="-151.5" font-family="Helvetica,sans-Serif" font-size="10.00" fill="#000000">_access_iterator_tag &gt;</text>
<polyline fill="none" stroke="#000000" points="74,-144.5 190,-144.5 "/>
<text text-anchor="middle" x="132" y="-132.5" font-family="Helvetica,sans-Serif" font-size="10.00" fill="#000000"> </text>
<polyline fill="none" stroke="#000000" points="74,-125.5 190,-125.5 "/>
<text text-anchor="middle" x="132" y="-113.5" font-family="Helvetica,sans-Serif" font-size="10.00" fill="#000000"> </text>
</a>
</g>
</g>
<!-- Node1&#45;&gt;Node0 -->
<g id="edge1" class="edge">
<title>Node1&#45;&gt;Node0</title>
<path fill="none" stroke="#191970" d="M132,-96.1102C132,-86.8885 132,-77.4506 132,-68.8207"/>
<polygon fill="none" stroke="#191970" points="128.5001,-96.3753 132,-106.3753 135.5001,-96.3754 128.5001,-96.3753"/>
</g>
<!-- Node2 -->
<g id="node3" class="node">
<title>Node2</title>
<g id="a_node3"><a xlink:href="structmystl_1_1m__integral__constant.html" target="_top" xlink:title="{m_bool_constant\&lt; std\l::is_convertible\&lt; iterator\l_traits\&lt; Iter &#160;\&gt;::iterator\l_category, random_access_iterator\l_tag &#160;\&gt;::value \&gt;\n|+ value\l|}">
<polygon fill="#ffffff" stroke="#000000" points="0,-244.5 0,-345.5 170,-345.5 170,-244.5 0,-244.5"/>
<text text-anchor="start" x="8" y="-333.5" font-family="Helvetica,sans-Serif" font-size="10.00" fill="#000000">m_bool_constant&lt; std</text>
<text text-anchor="start" x="8" y="-322.5" font-family="Helvetica,sans-Serif" font-size="10.00" fill="#000000">::is_convertible&lt; iterator</text>
<text text-anchor="start" x="8" y="-311.5" font-family="Helvetica,sans-Serif" font-size="10.00" fill="#000000">_traits&lt; Iter &gt;::iterator</text>
<text text-anchor="start" x="8" y="-300.5" font-family="Helvetica,sans-Serif" font-size="10.00" fill="#000000">_category, random_access_iterator</text>
<text text-anchor="middle" x="85" y="-289.5" font-family="Helvetica,sans-Serif" font-size="10.00" fill="#000000">_tag &gt;::value &gt;</text>
<polyline fill="none" stroke="#000000" points="0,-282.5 170,-282.5 "/>
<text text-anchor="start" x="8" y="-270.5" font-family="Helvetica,sans-Serif" font-size="10.00" fill="#000000">+ value</text>
<polyline fill="none" stroke="#000000" points="0,-263.5 170,-263.5 "/>
<text text-anchor="middle" x="85" y="-251.5" font-family="Helvetica,sans-Serif" font-size="10.00" fill="#000000"> </text>
</a>
</g>
</g>
<!-- Node2&#45;&gt;Node1 -->
<g id="edge2" class="edge">
<title>Node2&#45;&gt;Node1</title>
<path fill="none" stroke="#191970" d="M104.0519,-234.6013C109.2342,-218.1723 114.7161,-200.7936 119.4391,-185.8207"/>
<polygon fill="none" stroke="#191970" points="100.7137,-233.5497 101.0433,-244.1394 107.3895,-235.6555 100.7137,-233.5497"/>
</g>
<!-- Node3 -->
<g id="node4" class="node">
<title>Node3</title>
<g id="a_node4"><a xlink:href="structmystl_1_1has__iterator__cat__of.html" target="_top" xlink:title="{mystl::has_iterator\l_cat_of\&lt; T, U, bool \&gt;\n||}">
<polygon fill="#ffffff" stroke="#000000" points="188,-261 188,-329 298,-329 298,-261 188,-261"/>
<text text-anchor="start" x="196" y="-317" font-family="Helvetica,sans-Serif" font-size="10.00" fill="#000000">mystl::has_iterator</text>
<text text-anchor="middle" x="243" y="-306" font-family="Helvetica,sans-Serif" font-size="10.00" fill="#000000">_cat_of&lt; T, U, bool &gt;</text>
<polyline fill="none" stroke="#000000" points="188,-299 298,-299 "/>
<text text-anchor="middle" x="243" y="-287" font-family="Helvetica,sans-Serif" font-size="10.00" fill="#000000"> </text>
<polyline fill="none" stroke="#000000" points="188,-280 298,-280 "/>
<text text-anchor="middle" x="243" y="-268" font-family="Helvetica,sans-Serif" font-size="10.00" fill="#000000"> </text>
</a>
</g>
</g>
<!-- Node3&#45;&gt;Node1 -->
<g id="edge3" class="edge">
<title>Node3&#45;&gt;Node1</title>
<path fill="none" stroke="#ffa500" d="M211.4628,-252.6663C195.7568,-231.5835 176.8822,-206.2473 161.4699,-185.5587"/>
<polygon fill="#ffa500" stroke="#ffa500" points="208.7534,-254.888 217.5344,-260.8164 214.367,-250.7061 208.7534,-254.888"/>
<text text-anchor="start" x="190" y="-218" font-family="Helvetica,sans-Serif" font-size="10.00" fill="#000000"> &lt; Iter, random_access</text>
<text text-anchor="middle" x="241" y="-207" font-family="Helvetica,sans-Serif" font-size="10.00" fill="#000000">_iterator_tag &gt;</text>
</g>
<!-- Node4 -->
<g id="node5" class="node">
<title>Node4</title>
<g id="a_node5"><a xlink:href="structmystl_1_1m__integral__constant.html" target="_top" xlink:title="{m_bool_constant\&lt; std\l::is_convertible\&lt; iterator\l_traits\&lt; T \&gt;::iterator_category,\l U \&gt;::value \&gt;\n|+ value\l|}">
<polygon fill="#ffffff" stroke="#000000" points="168.5,-383.5 168.5,-473.5 317.5,-473.5 317.5,-383.5 168.5,-383.5"/>
<text text-anchor="start" x="176.5" y="-461.5" font-family="Helvetica,sans-Serif" font-size="10.00" fill="#000000">m_bool_constant&lt; std</text>
<text text-anchor="start" x="176.5" y="-450.5" font-family="Helvetica,sans-Serif" font-size="10.00" fill="#000000">::is_convertible&lt; iterator</text>
<text text-anchor="start" x="176.5" y="-439.5" font-family="Helvetica,sans-Serif" font-size="10.00" fill="#000000">_traits&lt; T &gt;::iterator_category,</text>
<text text-anchor="middle" x="243" y="-428.5" font-family="Helvetica,sans-Serif" font-size="10.00" fill="#000000"> U &gt;::value &gt;</text>
<polyline fill="none" stroke="#000000" points="168.5,-421.5 317.5,-421.5 "/>
<text text-anchor="start" x="176.5" y="-409.5" font-family="Helvetica,sans-Serif" font-size="10.00" fill="#000000">+ value</text>
<polyline fill="none" stroke="#000000" points="168.5,-402.5 317.5,-402.5 "/>
<text text-anchor="middle" x="243" y="-390.5" font-family="Helvetica,sans-Serif" font-size="10.00" fill="#000000"> </text>
</a>
</g>
</g>
<!-- Node4&#45;&gt;Node3 -->
<g id="edge4" class="edge">
<title>Node4&#45;&gt;Node3</title>
<path fill="none" stroke="#191970" d="M243,-373.1456C243,-358.2385 243,-342.55 243,-329.1737"/>
<polygon fill="none" stroke="#191970" points="239.5001,-373.303 243,-383.303 246.5001,-373.303 239.5001,-373.303"/>
</g>
</g>
</svg>
