<?xml version="1.0" encoding="UTF-8" standalone="no"?>
<!DOCTYPE svg PUBLIC "-//W3C//DTD SVG 1.1//EN"
 "http://www.w3.org/Graphics/SVG/1.1/DTD/svg11.dtd">
<!-- Generated by graphviz version 2.40.1 (20161225.0304)
 -->
<!-- Title: internal::VectorOperations::Vectorization_equ_aubvcw&lt; Number &gt; Pages: 1 -->
<svg width="314pt" height="226pt"
 viewBox="0.00 0.00 313.50 226.00" xmlns="http://www.w3.org/2000/svg" xmlns:xlink="http://www.w3.org/1999/xlink">
<g id="graph0" class="graph" transform="scale(1 1) rotate(0) translate(4 222)">
<title>internal::VectorOperations::Vectorization_equ_aubvcw&lt; Number &gt;</title>
<polygon fill="#ffffff" stroke="transparent" points="-4,4 -4,-222 309.5,-222 309.5,4 -4,4"/>
<!-- Node1 -->
<g id="node1" class="node">
<title>Node1</title>
<polygon fill="#bfbfbf" stroke="#000000" points="62.5,-.5 62.5,-90.5 211.5,-90.5 211.5,-.5 62.5,-.5"/>
<text text-anchor="start" x="70.5" y="-78.5" font-family="Helvetica,sans-Serif" font-size="10.00" fill="#000000">internal::VectorOperations</text>
<text text-anchor="start" x="70.5" y="-67.5" font-family="Helvetica,sans-Serif" font-size="10.00" fill="#000000">::Vectorization_equ_aubvcw</text>
<text text-anchor="middle" x="137" y="-56.5" font-family="Helvetica,sans-Serif" font-size="10.00" fill="#000000">&lt; Number &gt;</text>
<polyline fill="none" stroke="#000000" points="62.5,-49.5 211.5,-49.5 "/>
<text text-anchor="middle" x="137" y="-37.5" font-family="Helvetica,sans-Serif" font-size="10.00" fill="#000000"> </text>
<polyline fill="none" stroke="#000000" points="62.5,-30.5 211.5,-30.5 "/>
<text text-anchor="start" x="70.5" y="-18.5" font-family="Helvetica,sans-Serif" font-size="10.00" fill="#000000">+ Vectorization_equ_aubvcw()</text>
<text text-anchor="start" x="70.5" y="-7.5" font-family="Helvetica,sans-Serif" font-size="10.00" fill="#000000">+ operator()()</text>
</g>
<!-- Node2 -->
<g id="node2" class="node">
<title>Node2</title>
<polygon fill="#ffffff" stroke="#bfbfbf" points="0,-160.5 0,-217.5 78,-217.5 78,-160.5 0,-160.5"/>
<text text-anchor="middle" x="39" y="-205.5" font-family="Helvetica,sans-Serif" font-size="10.00" fill="#000000">const Number</text>
<polyline fill="none" stroke="#bfbfbf" points="0,-198.5 78,-198.5 "/>
<text text-anchor="middle" x="39" y="-186.5" font-family="Helvetica,sans-Serif" font-size="10.00" fill="#000000"> </text>
<polyline fill="none" stroke="#bfbfbf" points="0,-179.5 78,-179.5 "/>
<text text-anchor="middle" x="39" y="-167.5" font-family="Helvetica,sans-Serif" font-size="10.00" fill="#000000"> </text>
</g>
<!-- Node2&#45;&gt;Node1 -->
<g id="edge1" class="edge">
<title>Node2&#45;&gt;Node1</title>
<path fill="none" stroke="#404040" d="M58.5962,-160.3055C70.2555,-143.2329 85.4394,-120.9994 99.3362,-100.6505"/>
<polygon fill="none" stroke="#404040" points="99.4788,-100.4417 99.5594,-93.231 106.2464,-90.5321 106.1658,-97.7428 99.4788,-100.4417"/>
<text text-anchor="middle" x="98.5" y="-134" font-family="Helvetica,sans-Serif" font-size="10.00" fill="#000000"> +a</text>
<text text-anchor="middle" x="98.5" y="-123" font-family="Helvetica,sans-Serif" font-size="10.00" fill="#000000">+b</text>
<text text-anchor="middle" x="98.5" y="-112" font-family="Helvetica,sans-Serif" font-size="10.00" fill="#000000">+c</text>
</g>
<!-- Node3 -->
<g id="node3" class="node">
<title>Node3</title>
<polygon fill="#ffffff" stroke="#bfbfbf" points="96,-160.5 96,-217.5 178,-217.5 178,-160.5 96,-160.5"/>
<text text-anchor="middle" x="137" y="-205.5" font-family="Helvetica,sans-Serif" font-size="10.00" fill="#000000">Number *const</text>
<polyline fill="none" stroke="#bfbfbf" points="96,-198.5 178,-198.5 "/>
<text text-anchor="middle" x="137" y="-186.5" font-family="Helvetica,sans-Serif" font-size="10.00" fill="#000000"> </text>
<polyline fill="none" stroke="#bfbfbf" points="96,-179.5 178,-179.5 "/>
<text text-anchor="middle" x="137" y="-167.5" font-family="Helvetica,sans-Serif" font-size="10.00" fill="#000000"> </text>
</g>
<!-- Node3&#45;&gt;Node1 -->
<g id="edge2" class="edge">
<title>Node3&#45;&gt;Node1</title>
<path fill="none" stroke="#404040" d="M137,-160.3055C137,-143.7786 137,-122.4154 137,-102.6073"/>
<polygon fill="none" stroke="#404040" points="137.0001,-102.5321 133,-96.5321 137,-90.5321 141,-96.5321 137.0001,-102.5321"/>
<text text-anchor="middle" x="148" y="-123" font-family="Helvetica,sans-Serif" font-size="10.00" fill="#000000"> +val</text>
</g>
<!-- Node4 -->
<g id="node4" class="node">
<title>Node4</title>
<polygon fill="#ffffff" stroke="#bfbfbf" points="196.5,-160.5 196.5,-217.5 305.5,-217.5 305.5,-160.5 196.5,-160.5"/>
<text text-anchor="middle" x="251" y="-205.5" font-family="Helvetica,sans-Serif" font-size="10.00" fill="#000000">const Number *const</text>
<polyline fill="none" stroke="#bfbfbf" points="196.5,-198.5 305.5,-198.5 "/>
<text text-anchor="middle" x="251" y="-186.5" font-family="Helvetica,sans-Serif" font-size="10.00" fill="#000000"> </text>
<polyline fill="none" stroke="#bfbfbf" points="196.5,-179.5 305.5,-179.5 "/>
<text text-anchor="middle" x="251" y="-167.5" font-family="Helvetica,sans-Serif" font-size="10.00" fill="#000000"> </text>
</g>
<!-- Node4&#45;&gt;Node1 -->
<g id="edge3" class="edge">
<title>Node4&#45;&gt;Node1</title>
<path fill="none" stroke="#404040" d="M228.2044,-160.3055C214.5176,-143.077 196.6557,-120.5929 180.3704,-100.0935"/>
<polygon fill="none" stroke="#404040" points="180.239,-99.928 173.3748,-97.7182 172.7746,-90.5321 179.6388,-92.7419 180.239,-99.928"/>
<text text-anchor="middle" x="226.5" y="-134" font-family="Helvetica,sans-Serif" font-size="10.00" fill="#000000"> +u_val</text>
<text text-anchor="middle" x="226.5" y="-123" font-family="Helvetica,sans-Serif" font-size="10.00" fill="#000000">+v_val</text>
<text text-anchor="middle" x="226.5" y="-112" font-family="Helvetica,sans-Serif" font-size="10.00" fill="#000000">+w_val</text>
</g>
</g>
</svg>
