<?xml version="1.0" encoding="UTF-8" standalone="no"?>
<!DOCTYPE svg PUBLIC "-//W3C//DTD SVG 1.1//EN"
 "http://www.w3.org/Graphics/SVG/1.1/DTD/svg11.dtd">
<!-- Generated by graphviz version 2.40.1 (20161225.0304)
 -->
<!-- Title: GridOutFlags::EpsFlagsBase Pages: 1 -->
<svg width="389pt" height="215pt"
 viewBox="0.00 0.00 388.50 215.00" xmlns="http://www.w3.org/2000/svg" xmlns:xlink="http://www.w3.org/1999/xlink">
<g id="graph0" class="graph" transform="scale(1 1) rotate(0) translate(4 211)">
<title>GridOutFlags::EpsFlagsBase</title>
<polygon fill="#ffffff" stroke="transparent" points="-4,4 -4,-211 384.5,-211 384.5,4 -4,4"/>
<!-- Node4 -->
<g id="node1" class="node">
<title>Node4</title>
<polygon fill="#bfbfbf" stroke="#000000" points="94.5,-.5 94.5,-79.5 238.5,-79.5 238.5,-.5 94.5,-.5"/>
<text text-anchor="middle" x="166.5" y="-67.5" font-family="Helvetica,sans-Serif" font-size="10.00" fill="#000000">GridOutFlags::EpsFlagsBase</text>
<polyline fill="none" stroke="#000000" points="94.5,-60.5 238.5,-60.5 "/>
<text text-anchor="middle" x="166.5" y="-48.5" font-family="Helvetica,sans-Serif" font-size="10.00" fill="#000000"> </text>
<polyline fill="none" stroke="#000000" points="94.5,-41.5 238.5,-41.5 "/>
<text text-anchor="start" x="102.5" y="-29.5" font-family="Helvetica,sans-Serif" font-size="10.00" fill="#000000">+ EpsFlagsBase()</text>
<text text-anchor="start" x="102.5" y="-18.5" font-family="Helvetica,sans-Serif" font-size="10.00" fill="#000000">+ parse_parameters()</text>
<text text-anchor="start" x="102.5" y="-7.5" font-family="Helvetica,sans-Serif" font-size="10.00" fill="#000000">+ declare_parameters()</text>
</g>
<!-- Node5 -->
<g id="node2" class="node">
<title>Node5</title>
<g id="a_node2"><a xlink:href="classdouble.html" target="_top" xlink:title="{double\n||}">
<polygon fill="#ffffff" stroke="#000000" points="0,-149.5 0,-206.5 45,-206.5 45,-149.5 0,-149.5"/>
<text text-anchor="middle" x="22.5" y="-194.5" font-family="Helvetica,sans-Serif" font-size="10.00" fill="#000000">double</text>
<polyline fill="none" stroke="#000000" points="0,-187.5 45,-187.5 "/>
<text text-anchor="middle" x="22.5" y="-175.5" font-family="Helvetica,sans-Serif" font-size="10.00" fill="#000000"> </text>
<polyline fill="none" stroke="#000000" points="0,-168.5 45,-168.5 "/>
<text text-anchor="middle" x="22.5" y="-156.5" font-family="Helvetica,sans-Serif" font-size="10.00" fill="#000000"> </text>
</a>
</g>
</g>
<!-- Node5&#45;&gt;Node4 -->
<g id="edge1" class="edge">
<title>Node5&#45;&gt;Node4</title>
<path fill="none" stroke="#404040" d="M21.1454,-149.4431C21.7957,-132.8598 25.2298,-112.4558 36.5,-98 48.5173,-82.5858 65.5165,-71.1601 83.2726,-62.7295"/>
<polygon fill="none" stroke="#404040" points="83.3972,-62.675 87.2873,-56.6031 94.3883,-57.8585 90.4982,-63.9304 83.3972,-62.675"/>
<text text-anchor="middle" x="63" y="-112" font-family="Helvetica,sans-Serif" font-size="10.00" fill="#000000"> +line_width</text>
</g>
<!-- Node6 -->
<g id="node3" class="node">
<title>Node6</title>
<g id="a_node3"><a xlink:href="classbool.html" target="_top" xlink:title="{bool\n||}">
<polygon fill="#ffffff" stroke="#000000" points="81,-149.5 81,-206.5 116,-206.5 116,-149.5 81,-149.5"/>
<text text-anchor="middle" x="98.5" y="-194.5" font-family="Helvetica,sans-Serif" font-size="10.00" fill="#000000">bool</text>
<polyline fill="none" stroke="#000000" points="81,-187.5 116,-187.5 "/>
<text text-anchor="middle" x="98.5" y="-175.5" font-family="Helvetica,sans-Serif" font-size="10.00" fill="#000000"> </text>
<polyline fill="none" stroke="#000000" points="81,-168.5 116,-168.5 "/>
<text text-anchor="middle" x="98.5" y="-156.5" font-family="Helvetica,sans-Serif" font-size="10.00" fill="#000000"> </text>
</a>
</g>
</g>
<!-- Node6&#45;&gt;Node4 -->
<g id="edge2" class="edge">
<title>Node6&#45;&gt;Node4</title>
<path fill="none" stroke="#404040" d="M93.3075,-149.3417C91.7691,-133.5002 92.1265,-113.8723 99.5,-98 100.8804,-95.0285 102.4948,-92.15 104.2948,-89.3695"/>
<polygon fill="none" stroke="#404040" points="104.3243,-89.3303 104.7341,-82.1309 111.5373,-79.7401 111.1275,-86.9396 104.3243,-89.3303"/>
<text text-anchor="middle" x="156.5" y="-117.5" font-family="Helvetica,sans-Serif" font-size="10.00" fill="#000000"> +color_lines_level</text>
<text text-anchor="middle" x="156.5" y="-106.5" font-family="Helvetica,sans-Serif" font-size="10.00" fill="#000000">+color_lines_on_user_flag</text>
</g>
<!-- Node7 -->
<g id="node4" class="node">
<title>Node7</title>
<polygon fill="#ffffff" stroke="#bfbfbf" points="207.5,-149.5 207.5,-206.5 263.5,-206.5 263.5,-149.5 207.5,-149.5"/>
<text text-anchor="middle" x="235.5" y="-194.5" font-family="Helvetica,sans-Serif" font-size="10.00" fill="#000000">unsigned</text>
<polyline fill="none" stroke="#bfbfbf" points="207.5,-187.5 263.5,-187.5 "/>
<text text-anchor="middle" x="235.5" y="-175.5" font-family="Helvetica,sans-Serif" font-size="10.00" fill="#000000"> </text>
<polyline fill="none" stroke="#bfbfbf" points="207.5,-168.5 263.5,-168.5 "/>
<text text-anchor="middle" x="235.5" y="-156.5" font-family="Helvetica,sans-Serif" font-size="10.00" fill="#000000"> </text>
</g>
<!-- Node7&#45;&gt;Node4 -->
<g id="edge3" class="edge">
<title>Node7&#45;&gt;Node4</title>
<path fill="none" stroke="#404040" d="M230.5784,-149.1747C227.1678,-133.4636 221.7297,-114.0148 213.5,-98 212.1005,-95.2766 210.559,-92.5619 208.9137,-89.8775"/>
<polygon fill="none" stroke="#404040" points="208.7955,-89.7004 202.1376,-86.9306 202.1335,-79.7195 208.7915,-82.4893 208.7955,-89.7004"/>
<text text-anchor="middle" x="266" y="-123" font-family="Helvetica,sans-Serif" font-size="10.00" fill="#000000"> +size</text>
<text text-anchor="start" x="225.5" y="-112" font-family="Helvetica,sans-Serif" font-size="10.00" fill="#000000">+n_boundary_face</text>
<text text-anchor="middle" x="266" y="-101" font-family="Helvetica,sans-Serif" font-size="10.00" fill="#000000">_points</text>
</g>
<!-- Node8 -->
<g id="node5" class="node">
<title>Node8</title>
<polygon fill="#ffffff" stroke="#bfbfbf" points="310.5,-149.5 310.5,-206.5 368.5,-206.5 368.5,-149.5 310.5,-149.5"/>
<text text-anchor="middle" x="339.5" y="-194.5" font-family="Helvetica,sans-Serif" font-size="10.00" fill="#000000">SizeType</text>
<polyline fill="none" stroke="#bfbfbf" points="310.5,-187.5 368.5,-187.5 "/>
<text text-anchor="middle" x="339.5" y="-175.5" font-family="Helvetica,sans-Serif" font-size="10.00" fill="#000000"> </text>
<polyline fill="none" stroke="#bfbfbf" points="310.5,-168.5 368.5,-168.5 "/>
<text text-anchor="middle" x="339.5" y="-156.5" font-family="Helvetica,sans-Serif" font-size="10.00" fill="#000000"> </text>
</g>
<!-- Node8&#45;&gt;Node4 -->
<g id="edge4" class="edge">
<title>Node8&#45;&gt;Node4</title>
<path fill="none" stroke="#404040" d="M335.1242,-149.3644C331.2209,-132.5451 323.9421,-111.9229 310.5,-98 294.0805,-80.9933 272.0083,-68.8317 250.0843,-60.1916"/>
<polygon fill="none" stroke="#404040" points="249.9249,-60.1329 242.9125,-61.8139 238.6637,-55.9873 245.6762,-54.3064 249.9249,-60.1329"/>
<text text-anchor="middle" x="354.5" y="-112" font-family="Helvetica,sans-Serif" font-size="10.00" fill="#000000"> +size_type</text>
</g>
</g>
</svg>
