<?xml version="1.0" encoding="UTF-8" standalone="no"?>
<!DOCTYPE svg PUBLIC "-//W3C//DTD SVG 1.1//EN"
 "http://www.w3.org/Graphics/SVG/1.1/DTD/svg11.dtd">
<!-- Generated by graphviz version 2.40.1 (20161225.0304)
 -->
<!-- Title: mystl::iterator_traits_helper&lt; Iterator, bool &gt; Pages: 1 -->
<svg width="175pt" height="218pt"
 viewBox="0.00 0.00 174.50 218.00" xmlns="http://www.w3.org/2000/svg" xmlns:xlink="http://www.w3.org/1999/xlink">
<g id="graph0" class="graph" transform="scale(1 1) rotate(0) translate(4 214)">
<title>mystl::iterator_traits_helper&lt; Iterator, bool &gt;</title>
<polygon fill="#ffffff" stroke="transparent" points="-4,4 -4,-214 170.5,-214 170.5,4 -4,4"/>
<!-- Node0 -->
<g id="node1" class="node">
<title>Node0</title>
<polygon fill="#bfbfbf" stroke="#000000" points="0,-179.5 0,-209.5 121,-209.5 121,-179.5 0,-179.5"/>
<text text-anchor="start" x="8" y="-197.5" font-family="Helvetica,sans-Serif" font-size="10.00" fill="#000000">mystl::iterator_traits</text>
<text text-anchor="middle" x="60.5" y="-186.5" font-family="Helvetica,sans-Serif" font-size="10.00" fill="#000000">_helper&lt; Iterator, bool &gt;</text>
</g>
<!-- Node1 -->
<g id="node2" class="node">
<title>Node1</title>
<g id="a_node2"><a xlink:href="structmystl_1_1iterator__traits__helper.html" target="_top" xlink:title="mystl::iterator_traits\l_helper\&lt; Iterator, has\l_iterator_cat\&lt; Iterator\l \&gt;::value \&gt;">
<polygon fill="#ffffff" stroke="#000000" points="5.5,-68.5 5.5,-120.5 115.5,-120.5 115.5,-68.5 5.5,-68.5"/>
<text text-anchor="start" x="13.5" y="-108.5" font-family="Helvetica,sans-Serif" font-size="10.00" fill="#000000">mystl::iterator_traits</text>
<text text-anchor="start" x="13.5" y="-97.5" font-family="Helvetica,sans-Serif" font-size="10.00" fill="#000000">_helper&lt; Iterator, has</text>
<text text-anchor="start" x="13.5" y="-86.5" font-family="Helvetica,sans-Serif" font-size="10.00" fill="#000000">_iterator_cat&lt; Iterator</text>
<text text-anchor="middle" x="60.5" y="-75.5" font-family="Helvetica,sans-Serif" font-size="10.00" fill="#000000"> &gt;::value &gt;</text>
</a>
</g>
</g>
<!-- Node0&#45;&gt;Node1 -->
<g id="edge1" class="edge">
<title>Node0&#45;&gt;Node1</title>
<path fill="none" stroke="#ffa500" stroke-dasharray="5,2" d="M60.5,-168.8797C60.5,-154.1205 60.5,-135.6086 60.5,-120.7452"/>
<polygon fill="#ffa500" stroke="#ffa500" points="57.0001,-169.3121 60.5,-179.3122 64.0001,-169.3122 57.0001,-169.3121"/>
<text text-anchor="start" x="60.5" y="-153" font-family="Helvetica,sans-Serif" font-size="10.00" fill="#000000"> &lt; Iterator, has_iterator</text>
<text text-anchor="middle" x="113.5" y="-142" font-family="Helvetica,sans-Serif" font-size="10.00" fill="#000000">_cat&lt; Iterator &gt;::value &gt;</text>
</g>
<!-- Node2 -->
<g id="node3" class="node">
<title>Node2</title>
<g id="a_node3"><a xlink:href="structmystl_1_1iterator__traits.html" target="_top" xlink:title="mystl::iterator_traits\l\&lt; Iterator \&gt;">
<polygon fill="#ffffff" stroke="#000000" points="8.5,-.5 8.5,-30.5 112.5,-30.5 112.5,-.5 8.5,-.5"/>
<text text-anchor="start" x="16.5" y="-18.5" font-family="Helvetica,sans-Serif" font-size="10.00" fill="#000000">mystl::iterator_traits</text>
<text text-anchor="middle" x="60.5" y="-7.5" font-family="Helvetica,sans-Serif" font-size="10.00" fill="#000000">&lt; Iterator &gt;</text>
</a>
</g>
</g>
<!-- Node1&#45;&gt;Node2 -->
<g id="edge2" class="edge">
<title>Node1&#45;&gt;Node2</title>
<path fill="none" stroke="#191970" d="M60.5,-58.0152C60.5,-48.4501 60.5,-38.648 60.5,-30.8696"/>
<polygon fill="#191970" stroke="#191970" points="57.0001,-58.1941 60.5,-68.1941 64.0001,-58.1942 57.0001,-58.1941"/>
</g>
</g>
</svg>
