<?xml version="1.0" encoding="UTF-8" standalone="no"?>
<!DOCTYPE svg PUBLIC "-//W3C//DTD SVG 1.1//EN"
 "http://www.w3.org/Graphics/SVG/1.1/DTD/svg11.dtd">
<!-- Generated by graphviz version 2.40.1 (20161225.0304)
 -->
<!-- Title: internal::MatrixFreeFunctions::ShapeInfo&lt; Number &gt; Pages: 1 -->
<!--zoomable 612 -->
<svg id="main" version="1.1" xmlns="http://www.w3.org/2000/svg" xmlns:xlink="http://www.w3.org/1999/xlink" xml:space="preserve" onload="init(evt)">
<style type="text/css"><![CDATA[
.edge:hover path { stroke: red; }
.edge:hover polygon { stroke: red; fill: red; }
]]></style>
<script type="text/javascript"><![CDATA[
var edges = document.getElementsByTagName('g');
if (edges && edges.length) {
  for (var i=0;i<edges.length;i++) {
    if (edges[i].id.substr(0,4)=='edge') {
      edges[i].setAttribute('class','edge');
    }
  }
}
]]></script>
        <defs>
                <circle id="rim" cx="0" cy="0" r="7"/>
                <circle id="rim2" cx="0" cy="0" r="3.5"/>
                <g id="zoomPlus">
                        <use xlink:href="#rim" fill="#404040">
                                <set attributeName="fill" to="#808080" begin="zoomplus.mouseover" end="zoomplus.mouseout"/>
                        </use>
                        <path d="M-4,0h8M0,-4v8" fill="none" stroke="white" stroke-width="1.5" pointer-events="none"/>
                </g>
                <g id="zoomMin">
                        <use xlink:href="#rim" fill="#404040">
                                <set attributeName="fill" to="#808080" begin="zoomminus.mouseover" end="zoomminus.mouseout"/>
                        </use>
                        <path d="M-4,0h8" fill="none" stroke="white" stroke-width="1.5" pointer-events="none"/>
                </g>
                <g id="dirArrow">
                        <path fill="none" stroke="white" stroke-width="1.5" d="M0,-3.0v7 M-2.5,-0.5L0,-3.0L2.5,-0.5"/>
                </g>
               <g id="resetDef">
                       <use xlink:href="#rim2" fill="#404040">
                               <set attributeName="fill" to="#808080" begin="reset.mouseover" end="reset.mouseout"/>
                       </use>
               </g>
        </defs>

<script type="text/javascript">
var viewWidth = 861;
var viewHeight = 612;
var sectionId = 'dynsection-1';
</script>
<script xlink:href="svgpan.js"/>
<svg id="graph" class="graph">
<g id="viewport">
<title>internal::MatrixFreeFunctions::ShapeInfo&lt; Number &gt;</title>
<polygon fill="#ffffff" stroke="transparent" points="-4,4 -4,-608 857,-608 857,4 -4,4"/>
<!-- Node3 -->
<g id="node1" class="node">
<title>Node3</title>
<polygon fill="#bfbfbf" stroke="#000000" points="250.5,-.5 250.5,-145.5 409.5,-145.5 409.5,-.5 250.5,-.5"/>
<text text-anchor="start" x="258.5" y="-133.5" font-family="Helvetica,sans-Serif" font-size="10.00" fill="#000000">internal::MatrixFreeFunctions</text>
<text text-anchor="middle" x="330" y="-122.5" font-family="Helvetica,sans-Serif" font-size="10.00" fill="#000000">::ShapeInfo&lt; Number &gt;</text>
<polyline fill="none" stroke="#000000" points="250.5,-115.5 409.5,-115.5 "/>
<text text-anchor="middle" x="330" y="-103.5" font-family="Helvetica,sans-Serif" font-size="10.00" fill="#000000"> </text>
<polyline fill="none" stroke="#000000" points="250.5,-96.5 409.5,-96.5 "/>
<text text-anchor="start" x="258.5" y="-84.5" font-family="Helvetica,sans-Serif" font-size="10.00" fill="#000000">+ ShapeInfo()</text>
<text text-anchor="start" x="258.5" y="-73.5" font-family="Helvetica,sans-Serif" font-size="10.00" fill="#000000">+ ShapeInfo()</text>
<text text-anchor="start" x="258.5" y="-62.5" font-family="Helvetica,sans-Serif" font-size="10.00" fill="#000000">+ reinit()</text>
<text text-anchor="start" x="258.5" y="-51.5" font-family="Helvetica,sans-Serif" font-size="10.00" fill="#000000">+ get_shape_data()</text>
<text text-anchor="start" x="258.5" y="-40.5" font-family="Helvetica,sans-Serif" font-size="10.00" fill="#000000">+ memory_consumption()</text>
<text text-anchor="start" x="258.5" y="-29.5" font-family="Helvetica,sans-Serif" font-size="10.00" fill="#000000">+ is_supported()</text>
<text text-anchor="start" x="258.5" y="-18.5" font-family="Helvetica,sans-Serif" font-size="10.00" fill="#000000">&#45; check_1d_shapes_symmetric()</text>
<text text-anchor="start" x="258.5" y="-7.5" font-family="Helvetica,sans-Serif" font-size="10.00" fill="#000000">&#45; check_1d_shapes_collocation()</text>
</g>
<!-- Node4 -->
<g id="node2" class="node">
<title>Node4</title>
<g id="a_node2"><a xlink:href="classTable.html" target="_top" xlink:title="{Table\&lt; 2, unsigned\l int \&gt;\n||}">
<polygon fill="#ffffff" stroke="#000000" points="0,-281.5 0,-349.5 100,-349.5 100,-281.5 0,-281.5"/>
<text text-anchor="start" x="8" y="-337.5" font-family="Helvetica,sans-Serif" font-size="10.00" fill="#000000">Table&lt; 2, unsigned</text>
<text text-anchor="middle" x="50" y="-326.5" font-family="Helvetica,sans-Serif" font-size="10.00" fill="#000000"> int &gt;</text>
<polyline fill="none" stroke="#000000" points="0,-319.5 100,-319.5 "/>
<text text-anchor="middle" x="50" y="-307.5" font-family="Helvetica,sans-Serif" font-size="10.00" fill="#000000"> </text>
<polyline fill="none" stroke="#000000" points="0,-300.5 100,-300.5 "/>
<text text-anchor="middle" x="50" y="-288.5" font-family="Helvetica,sans-Serif" font-size="10.00" fill="#000000"> </text>
</a>
</g>
</g>
<!-- Node4&#45;&gt;Node3 -->
<g id="edge1" class="edge">
<title>Node4&#45;&gt;Node3</title>
<path fill="none" stroke="#404040" d="M50.3665,-281.2076C52.5265,-247.4342 60.8687,-196.3393 90,-164 128.1032,-121.7007 187.9484,-98.9567 238.3451,-86.7845"/>
<polygon fill="none" stroke="#404040" points="238.5699,-86.7331 243.5264,-81.4955 250.2675,-84.0562 245.311,-89.2939 238.5699,-86.7331"/>
<text text-anchor="middle" x="134" y="-227.5" font-family="Helvetica,sans-Serif" font-size="10.00" fill="#000000"> +face_orientations</text>
<text text-anchor="start" x="90" y="-216.5" font-family="Helvetica,sans-Serif" font-size="10.00" fill="#000000">+face_to_cell_index</text>
<text text-anchor="middle" x="134" y="-205.5" font-family="Helvetica,sans-Serif" font-size="10.00" fill="#000000">_hermite</text>
<text text-anchor="start" x="90" y="-194.5" font-family="Helvetica,sans-Serif" font-size="10.00" fill="#000000">+face_to_cell_index</text>
<text text-anchor="middle" x="134" y="-183.5" font-family="Helvetica,sans-Serif" font-size="10.00" fill="#000000">_nodal</text>
</g>
<!-- Node5 -->
<g id="node3" class="node">
<title>Node5</title>
<g id="a_node3"><a xlink:href="classTable.html" target="_top" xlink:title="{Table\&lt; N, T \&gt;\n||}">
<polygon fill="#ffffff" stroke="#000000" points="74,-436 74,-493 152,-493 152,-436 74,-436"/>
<text text-anchor="middle" x="113" y="-481" font-family="Helvetica,sans-Serif" font-size="10.00" fill="#000000">Table&lt; N, T &gt;</text>
<polyline fill="none" stroke="#000000" points="74,-474 152,-474 "/>
<text text-anchor="middle" x="113" y="-462" font-family="Helvetica,sans-Serif" font-size="10.00" fill="#000000"> </text>
<polyline fill="none" stroke="#000000" points="74,-455 152,-455 "/>
<text text-anchor="middle" x="113" y="-443" font-family="Helvetica,sans-Serif" font-size="10.00" fill="#000000"> </text>
</a>
</g>
</g>
<!-- Node5&#45;&gt;Node4 -->
<g id="edge2" class="edge">
<title>Node5&#45;&gt;Node4</title>
<path fill="none" stroke="#ffa500" d="M70.35,-428.1243C66.3104,-423.082 62.717,-417.6724 60,-412 50.7594,-392.7081 48.2261,-368.8078 48.0194,-349.6195"/>
<polygon fill="#ffa500" stroke="#ffa500" points="67.785,-430.508 77.0032,-435.7306 73.0538,-425.8993 67.785,-430.508"/>
<text text-anchor="middle" x="102.5" y="-393" font-family="Helvetica,sans-Serif" font-size="10.00" fill="#000000"> &lt; 2, unsigned int &gt;</text>
</g>
<!-- Node7 -->
<g id="node5" class="node">
<title>Node7</title>
<g id="a_node5"><a xlink:href="classTable.html" target="_top" xlink:title="{Table\&lt; 2, internal\l::MatrixFreeFunctions\l::UnivariateShapeData\l\&lt; Number \&gt; *\&gt;\n||}">
<polygon fill="#ffffff" stroke="#000000" points="118,-270.5 118,-360.5 234,-360.5 234,-270.5 118,-270.5"/>
<text text-anchor="start" x="126" y="-348.5" font-family="Helvetica,sans-Serif" font-size="10.00" fill="#000000">Table&lt; 2, internal</text>
<text text-anchor="start" x="126" y="-337.5" font-family="Helvetica,sans-Serif" font-size="10.00" fill="#000000">::MatrixFreeFunctions</text>
<text text-anchor="start" x="126" y="-326.5" font-family="Helvetica,sans-Serif" font-size="10.00" fill="#000000">::UnivariateShapeData</text>
<text text-anchor="middle" x="176" y="-315.5" font-family="Helvetica,sans-Serif" font-size="10.00" fill="#000000">&lt; Number &gt; *&gt;</text>
<polyline fill="none" stroke="#000000" points="118,-308.5 234,-308.5 "/>
<text text-anchor="middle" x="176" y="-296.5" font-family="Helvetica,sans-Serif" font-size="10.00" fill="#000000"> </text>
<polyline fill="none" stroke="#000000" points="118,-289.5 234,-289.5 "/>
<text text-anchor="middle" x="176" y="-277.5" font-family="Helvetica,sans-Serif" font-size="10.00" fill="#000000"> </text>
</a>
</g>
</g>
<!-- Node5&#45;&gt;Node7 -->
<g id="edge5" class="edge">
<title>Node5&#45;&gt;Node7</title>
<path fill="none" stroke="#ffa500" d="M137.298,-427.0164C140.0766,-422.0615 142.7239,-416.9746 145,-412 152.4678,-395.6787 158.906,-377.0438 163.9495,-360.53"/>
<polygon fill="#ffa500" stroke="#ffa500" points="134.2246,-425.3389 132.2065,-435.7398 140.2702,-428.8675 134.2246,-425.3389"/>
<text text-anchor="start" x="158" y="-404" font-family="Helvetica,sans-Serif" font-size="10.00" fill="#000000"> &lt; 2, internal::MatrixFree</text>
<text text-anchor="start" x="158" y="-393" font-family="Helvetica,sans-Serif" font-size="10.00" fill="#000000">Functions::UnivariateShapeData</text>
<text text-anchor="middle" x="229" y="-382" font-family="Helvetica,sans-Serif" font-size="10.00" fill="#000000">&lt; Number &gt; *&gt;</text>
</g>
<!-- Node6 -->
<g id="node4" class="node">
<title>Node6</title>
<polygon fill="#ffffff" stroke="#bfbfbf" points="252,-287 252,-344 326,-344 326,-287 252,-287"/>
<text text-anchor="middle" x="289" y="-332" font-family="Helvetica,sans-Serif" font-size="10.00" fill="#000000">ElementType</text>
<polyline fill="none" stroke="#bfbfbf" points="252,-325 326,-325 "/>
<text text-anchor="middle" x="289" y="-313" font-family="Helvetica,sans-Serif" font-size="10.00" fill="#000000"> </text>
<polyline fill="none" stroke="#bfbfbf" points="252,-306 326,-306 "/>
<text text-anchor="middle" x="289" y="-294" font-family="Helvetica,sans-Serif" font-size="10.00" fill="#000000"> </text>
</g>
<!-- Node6&#45;&gt;Node3 -->
<g id="edge3" class="edge">
<title>Node6&#45;&gt;Node3</title>
<path fill="none" stroke="#404040" d="M284.3463,-286.8767C280.2832,-256.0955 276.3958,-205.9264 286,-164 286.4999,-161.8177 287.0592,-159.627 287.6709,-157.434"/>
<polygon fill="none" stroke="#404040" points="287.7596,-157.1551 285.7681,-150.2244 291.3996,-145.7204 293.3912,-152.6511 287.7596,-157.1551"/>
<text text-anchor="middle" x="320" y="-205.5" font-family="Helvetica,sans-Serif" font-size="10.00" fill="#000000"> +element_type</text>
</g>
<!-- Node7&#45;&gt;Node3 -->
<g id="edge4" class="edge">
<title>Node7&#45;&gt;Node3</title>
<path fill="none" stroke="#404040" d="M178.7848,-270.294C182.5576,-238.4226 191.3884,-195.9046 212,-164 219.9756,-151.6546 230.2228,-140.3069 241.3405,-130.1221"/>
<polygon fill="none" stroke="#404040" points="241.3728,-130.0939 243.2655,-123.1356 250.4166,-122.2065 248.5238,-129.1648 241.3728,-130.0939"/>
<text text-anchor="middle" x="244.5" y="-205.5" font-family="Helvetica,sans-Serif" font-size="10.00" fill="#000000"> +data_access</text>
</g>
<!-- Node8 -->
<g id="node6" class="node">
<title>Node8</title>
<polygon fill="#ffffff" stroke="#bfbfbf" points="348,-287 348,-344 404,-344 404,-287 348,-287"/>
<text text-anchor="middle" x="376" y="-332" font-family="Helvetica,sans-Serif" font-size="10.00" fill="#000000">unsigned</text>
<polyline fill="none" stroke="#bfbfbf" points="348,-325 404,-325 "/>
<text text-anchor="middle" x="376" y="-313" font-family="Helvetica,sans-Serif" font-size="10.00" fill="#000000"> </text>
<polyline fill="none" stroke="#bfbfbf" points="348,-306 404,-306 "/>
<text text-anchor="middle" x="376" y="-294" font-family="Helvetica,sans-Serif" font-size="10.00" fill="#000000"> </text>
</g>
<!-- Node8&#45;&gt;Node3 -->
<g id="edge6" class="edge">
<title>Node8&#45;&gt;Node3</title>
<path fill="none" stroke="#404040" d="M372.8243,-286.8516C369.2043,-256.262 362.6507,-206.4496 354,-164 353.5662,-161.8712 353.1127,-159.718 352.6427,-157.5488"/>
<polygon fill="none" stroke="#404040" points="352.6419,-157.545 347.4151,-152.577 349.9906,-145.8415 355.2174,-150.8095 352.6419,-157.545"/>
<text text-anchor="middle" x="417.5" y="-244" font-family="Helvetica,sans-Serif" font-size="10.00" fill="#000000"> +n_dimensions</text>
<text text-anchor="middle" x="417.5" y="-233" font-family="Helvetica,sans-Serif" font-size="10.00" fill="#000000">+n_q_points</text>
<text text-anchor="start" x="369" y="-222" font-family="Helvetica,sans-Serif" font-size="10.00" fill="#000000">+dofs_per_component</text>
<text text-anchor="middle" x="417.5" y="-211" font-family="Helvetica,sans-Serif" font-size="10.00" fill="#000000">_on_cell</text>
<text text-anchor="start" x="369" y="-200" font-family="Helvetica,sans-Serif" font-size="10.00" fill="#000000">+dofs_per_component</text>
<text text-anchor="middle" x="417.5" y="-189" font-family="Helvetica,sans-Serif" font-size="10.00" fill="#000000">_on_face</text>
<text text-anchor="middle" x="417.5" y="-178" font-family="Helvetica,sans-Serif" font-size="10.00" fill="#000000">+n_q_points_face</text>
<text text-anchor="middle" x="417.5" y="-167" font-family="Helvetica,sans-Serif" font-size="10.00" fill="#000000">+n_components</text>
</g>
<!-- Node9 -->
<g id="node7" class="node">
<title>Node9</title>
<polygon fill="#ffffff" stroke="#bfbfbf" points="440.5,-281.5 440.5,-349.5 551.5,-349.5 551.5,-281.5 440.5,-281.5"/>
<text text-anchor="start" x="448.5" y="-337.5" font-family="Helvetica,sans-Serif" font-size="10.00" fill="#000000">std::vector&lt; unsigned</text>
<text text-anchor="middle" x="496" y="-326.5" font-family="Helvetica,sans-Serif" font-size="10.00" fill="#000000"> int &gt;</text>
<polyline fill="none" stroke="#bfbfbf" points="440.5,-319.5 551.5,-319.5 "/>
<text text-anchor="middle" x="496" y="-307.5" font-family="Helvetica,sans-Serif" font-size="10.00" fill="#000000"> </text>
<polyline fill="none" stroke="#bfbfbf" points="440.5,-300.5 551.5,-300.5 "/>
<text text-anchor="middle" x="496" y="-288.5" font-family="Helvetica,sans-Serif" font-size="10.00" fill="#000000"> </text>
</g>
<!-- Node9&#45;&gt;Node3 -->
<g id="edge7" class="edge">
<title>Node9&#45;&gt;Node3</title>
<path fill="none" stroke="#404040" d="M497.6794,-281.3766C497.6546,-248.6737 493.1846,-199.2186 470,-164 457.3086,-144.7211 438.9691,-128.6318 419.7225,-115.6128"/>
<polygon fill="none" stroke="#404040" points="419.6846,-115.5883 412.4743,-115.6976 409.6002,-109.0839 416.8105,-108.9747 419.6846,-115.5883"/>
<text text-anchor="middle" x="555.5" y="-211" font-family="Helvetica,sans-Serif" font-size="10.00" fill="#000000"> +lexicographic_numbering</text>
<text text-anchor="middle" x="555.5" y="-200" font-family="Helvetica,sans-Serif" font-size="10.00" fill="#000000">+n_q_points_faces</text>
</g>
<!-- Node10 -->
<g id="node8" class="node">
<title>Node10</title>
<g id="a_node8"><a xlink:href="classunsigned_01int.html" target="_top" xlink:title="{unsigned int\n||}">
<polygon fill="#ffffff" stroke="#000000" points="410.5,-436 410.5,-493 479.5,-493 479.5,-436 410.5,-436"/>
<text text-anchor="middle" x="445" y="-481" font-family="Helvetica,sans-Serif" font-size="10.00" fill="#000000">unsigned int</text>
<polyline fill="none" stroke="#000000" points="410.5,-474 479.5,-474 "/>
<text text-anchor="middle" x="445" y="-462" font-family="Helvetica,sans-Serif" font-size="10.00" fill="#000000"> </text>
<polyline fill="none" stroke="#000000" points="410.5,-455 479.5,-455 "/>
<text text-anchor="middle" x="445" y="-443" font-family="Helvetica,sans-Serif" font-size="10.00" fill="#000000"> </text>
</a>
</g>
</g>
<!-- Node10&#45;&gt;Node9 -->
<g id="edge8" class="edge">
<title>Node10&#45;&gt;Node9</title>
<path fill="none" stroke="#404040" d="M440.8197,-435.9769C439.4186,-418.9615 439.5761,-397.1976 446,-379 448.3639,-372.3037 451.7472,-365.7732 455.6546,-359.6048"/>
<polygon fill="none" stroke="#404040" points="455.7694,-359.4403 455.9235,-352.2308 462.6376,-349.6002 462.4835,-356.8097 455.7694,-359.4403"/>
<text text-anchor="middle" x="470.5" y="-393" font-family="Helvetica,sans-Serif" font-size="10.00" fill="#000000"> +elements</text>
</g>
<!-- Node11 -->
<g id="node9" class="node">
<title>Node11</title>
<g id="a_node9"><a xlink:title="STL class. ">
<polygon fill="#ffffff" stroke="#bfbfbf" points="534.5,-436 534.5,-493 621.5,-493 621.5,-436 534.5,-436"/>
<text text-anchor="middle" x="578" y="-481" font-family="Helvetica,sans-Serif" font-size="10.00" fill="#000000">std::vector&lt; T &gt;</text>
<polyline fill="none" stroke="#bfbfbf" points="534.5,-474 621.5,-474 "/>
<text text-anchor="middle" x="578" y="-462" font-family="Helvetica,sans-Serif" font-size="10.00" fill="#000000"> </text>
<polyline fill="none" stroke="#bfbfbf" points="534.5,-455 621.5,-455 "/>
<text text-anchor="middle" x="578" y="-443" font-family="Helvetica,sans-Serif" font-size="10.00" fill="#000000"> </text>
</a>
</g>
</g>
<!-- Node11&#45;&gt;Node9 -->
<g id="edge9" class="edge">
<title>Node11&#45;&gt;Node9</title>
<path fill="none" stroke="#ffa500" d="M535.3626,-428.5432C530.7435,-423.3411 526.4698,-417.7788 523,-412 511.6268,-393.0581 504.893,-369.1606 500.9945,-349.8861"/>
<polygon fill="#ffa500" stroke="#ffa500" points="532.9051,-431.0383 542.3235,-435.8906 537.9867,-426.224 532.9051,-431.0383"/>
<text text-anchor="middle" x="560" y="-393" font-family="Helvetica,sans-Serif" font-size="10.00" fill="#000000"> &lt; unsigned int &gt;</text>
</g>
<!-- Node13 -->
<g id="node11" class="node">
<title>Node13</title>
<polygon fill="#ffffff" stroke="#bfbfbf" points="578,-270.5 578,-360.5 694,-360.5 694,-270.5 578,-270.5"/>
<text text-anchor="start" x="586" y="-348.5" font-family="Helvetica,sans-Serif" font-size="10.00" fill="#000000">std::vector&lt; internal</text>
<text text-anchor="start" x="586" y="-337.5" font-family="Helvetica,sans-Serif" font-size="10.00" fill="#000000">::MatrixFreeFunctions</text>
<text text-anchor="start" x="586" y="-326.5" font-family="Helvetica,sans-Serif" font-size="10.00" fill="#000000">::UnivariateShapeData</text>
<text text-anchor="middle" x="636" y="-315.5" font-family="Helvetica,sans-Serif" font-size="10.00" fill="#000000">&lt; Number &gt; &gt;</text>
<polyline fill="none" stroke="#bfbfbf" points="578,-308.5 694,-308.5 "/>
<text text-anchor="middle" x="636" y="-296.5" font-family="Helvetica,sans-Serif" font-size="10.00" fill="#000000"> </text>
<polyline fill="none" stroke="#bfbfbf" points="578,-289.5 694,-289.5 "/>
<text text-anchor="middle" x="636" y="-277.5" font-family="Helvetica,sans-Serif" font-size="10.00" fill="#000000"> </text>
</g>
<!-- Node11&#45;&gt;Node13 -->
<g id="edge13" class="edge">
<title>Node11&#45;&gt;Node13</title>
<path fill="none" stroke="#ffa500" d="M592.8567,-426.3336C600.6658,-406.2723 610.2868,-381.5562 618.4604,-360.5587"/>
<polygon fill="#ffa500" stroke="#ffa500" points="589.5489,-425.1828 589.183,-435.7713 596.0721,-427.7221 589.5489,-425.1828"/>
<text text-anchor="start" x="611" y="-398.5" font-family="Helvetica,sans-Serif" font-size="10.00" fill="#000000"> &lt; internal::MatrixFreeFunctions</text>
<text text-anchor="middle" x="691.5" y="-387.5" font-family="Helvetica,sans-Serif" font-size="10.00" fill="#000000">::UnivariateShapeData&lt; Number &gt; &gt;</text>
</g>
<!-- Node12 -->
<g id="node10" class="node">
<title>Node12</title>
<polygon fill="#ffffff" stroke="#bfbfbf" points="563.5,-546.5 563.5,-603.5 592.5,-603.5 592.5,-546.5 563.5,-546.5"/>
<text text-anchor="middle" x="578" y="-591.5" font-family="Helvetica,sans-Serif" font-size="10.00" fill="#000000">T</text>
<polyline fill="none" stroke="#bfbfbf" points="563.5,-584.5 592.5,-584.5 "/>
<text text-anchor="middle" x="578" y="-572.5" font-family="Helvetica,sans-Serif" font-size="10.00" fill="#000000"> </text>
<polyline fill="none" stroke="#bfbfbf" points="563.5,-565.5 592.5,-565.5 "/>
<text text-anchor="middle" x="578" y="-553.5" font-family="Helvetica,sans-Serif" font-size="10.00" fill="#000000"> </text>
</g>
<!-- Node12&#45;&gt;Node11 -->
<g id="edge10" class="edge">
<title>Node12&#45;&gt;Node11</title>
<path fill="none" stroke="#404040" d="M578,-546.2559C578,-533.7224 578,-518.8039 578,-505.1631"/>
<polygon fill="none" stroke="#404040" points="578.0001,-505.1002 574,-499.1002 578,-493.1002 582,-499.1002 578.0001,-505.1002"/>
<text text-anchor="middle" x="602.5" y="-520" font-family="Helvetica,sans-Serif" font-size="10.00" fill="#000000"> +elements</text>
</g>
<!-- Node13&#45;&gt;Node3 -->
<g id="edge11" class="edge">
<title>Node13&#45;&gt;Node3</title>
<path fill="none" stroke="#404040" d="M641.2646,-270.3072C642.5704,-237.1883 638.6417,-193.1101 614,-164 588.7689,-134.1935 494.6589,-107.9166 421.6071,-91.3594"/>
<polygon fill="none" stroke="#404040" points="421.3303,-91.2977 414.6034,-93.8958 409.618,-88.6856 416.3448,-86.0876 421.3303,-91.2977"/>
<text text-anchor="middle" x="656" y="-205.5" font-family="Helvetica,sans-Serif" font-size="10.00" fill="#000000"> +data</text>
</g>
<!-- Node14 -->
<g id="node12" class="node">
<title>Node14</title>
<polygon fill="#ffffff" stroke="#bfbfbf" points="743,-430.5 743,-498.5 853,-498.5 853,-430.5 743,-430.5"/>
<text text-anchor="start" x="751" y="-486.5" font-family="Helvetica,sans-Serif" font-size="10.00" fill="#000000">UnivariateShapeData</text>
<text text-anchor="middle" x="798" y="-475.5" font-family="Helvetica,sans-Serif" font-size="10.00" fill="#000000">&lt; Number &gt;</text>
<polyline fill="none" stroke="#bfbfbf" points="743,-468.5 853,-468.5 "/>
<text text-anchor="middle" x="798" y="-456.5" font-family="Helvetica,sans-Serif" font-size="10.00" fill="#000000"> </text>
<polyline fill="none" stroke="#bfbfbf" points="743,-449.5 853,-449.5 "/>
<text text-anchor="middle" x="798" y="-437.5" font-family="Helvetica,sans-Serif" font-size="10.00" fill="#000000"> </text>
</g>
<!-- Node14&#45;&gt;Node13 -->
<g id="edge12" class="edge">
<title>Node14&#45;&gt;Node13</title>
<path fill="none" stroke="#404040" d="M796.0474,-430.0965C793.4921,-413.0815 787.9251,-393.2037 776,-379 757.9186,-357.4637 731.0057,-342.8985 705.5939,-333.2142"/>
<polygon fill="none" stroke="#404040" points="705.3635,-333.1321 698.3684,-334.8839 694.0609,-329.1006 701.056,-327.3489 705.3635,-333.1321"/>
<text text-anchor="middle" x="815.5" y="-393" font-family="Helvetica,sans-Serif" font-size="10.00" fill="#000000"> +elements</text>
</g>
</g>
</svg>
        <g id="navigator" transform="translate(0 0)" fill="#404254">
                <rect fill="#f2f5e9" fill-opacity="0.5" stroke="#606060" stroke-width=".5" x="0" y="0" width="60" height="60"/>
                <use id="zoomplus" xlink:href="#zoomPlus" x="17" y="9" onmousedown="handleZoom(evt,'in')"/>
                <use id="zoomminus" xlink:href="#zoomMin" x="42" y="9" onmousedown="handleZoom(evt,'out')"/>
                <use id="reset" xlink:href="#resetDef" x="30" y="36" onmousedown="handleReset()"/>
                <g id="arrowUp" xlink:href="#dirArrow" transform="translate(30 24)" onmousedown="handlePan(0,-1)">
                  <use xlink:href="#rim" fill="#404040">
                        <set attributeName="fill" to="#808080" begin="arrowUp.mouseover" end="arrowUp.mouseout"/>
                  </use>
                  <path fill="none" stroke="white" stroke-width="1.5" d="M0,-3.0v7 M-2.5,-0.5L0,-3.0L2.5,-0.5"/>
                </g>
                <g id="arrowRight" xlink:href="#dirArrow" transform="rotate(90) translate(36 -43)" onmousedown="handlePan(1,0)">
                  <use xlink:href="#rim" fill="#404040">
                        <set attributeName="fill" to="#808080" begin="arrowRight.mouseover" end="arrowRight.mouseout"/>
                  </use>
                  <path fill="none" stroke="white" stroke-width="1.5" d="M0,-3.0v7 M-2.5,-0.5L0,-3.0L2.5,-0.5"/>
                </g>
                <g id="arrowDown" xlink:href="#dirArrow" transform="rotate(180) translate(-30 -48)" onmousedown="handlePan(0,1)">
                  <use xlink:href="#rim" fill="#404040">
                        <set attributeName="fill" to="#808080" begin="arrowDown.mouseover" end="arrowDown.mouseout"/>
                  </use>
                  <path fill="none" stroke="white" stroke-width="1.5" d="M0,-3.0v7 M-2.5,-0.5L0,-3.0L2.5,-0.5"/>
                </g>
                <g id="arrowLeft" xlink:href="#dirArrow" transform="rotate(270) translate(-36 17)" onmousedown="handlePan(-1,0)">
                  <use xlink:href="#rim" fill="#404040">
                        <set attributeName="fill" to="#808080" begin="arrowLeft.mouseover" end="arrowLeft.mouseout"/>
                  </use>
                  <path fill="none" stroke="white" stroke-width="1.5" d="M0,-3.0v7 M-2.5,-0.5L0,-3.0L2.5,-0.5"/>
                </g>
        </g>
        <svg viewBox="0 0 15 15" width="100%" height="30px" preserveAspectRatio="xMaxYMin meet">
         <g id="arrow_out" transform="scale(0.3 0.3)">
          <a xlink:href="structinternal_1_1MatrixFreeFunctions_1_1ShapeInfo__coll__graph_org.svg" target="_base">
           <rect id="button" ry="5" rx="5" y="6" x="6" height="38" width="38"
                fill="#f2f5e9" fill-opacity="0.5" stroke="#606060" stroke-width="1.0"/>
           <path id="arrow"
             d="M 11.500037,31.436501 C 11.940474,20.09759 22.043105,11.32322 32.158766,21.979434 L 37.068811,17.246167 C 37.068811,17.246167 37.088388,32 37.088388,32 L 22.160133,31.978069 C 22.160133,31.978069 26.997745,27.140456 26.997745,27.140456 C 18.528582,18.264221 13.291696,25.230495 11.500037,31.436501 z"
             style="fill:#404040;"/>
          </a>
         </g>
        </svg>
</svg>
