<?xml version="1.0" encoding="UTF-8" standalone="no"?>
<!DOCTYPE svg PUBLIC "-//W3C//DTD SVG 1.1//EN"
 "http://www.w3.org/Graphics/SVG/1.1/DTD/svg11.dtd">
<!-- Generated by graphviz version 2.40.1 (20161225.0304)
 -->
<!-- Title: internal::EvaluatorTensorProduct&lt; evaluate_symmetric, dim, n_rows, n_columns, Number, Number2 &gt; Pages: 1 -->
<svg width="249pt" height="259pt"
 viewBox="0.00 0.00 249.00 259.00" xmlns="http://www.w3.org/2000/svg" xmlns:xlink="http://www.w3.org/1999/xlink">
<g id="graph0" class="graph" transform="scale(1 1) rotate(0) translate(4 255)">
<title>internal::EvaluatorTensorProduct&lt; evaluate_symmetric, dim, n_rows, n_columns, Number, Number2 &gt;</title>
<polygon fill="#ffffff" stroke="transparent" points="-4,4 -4,-255 245,-255 245,4 -4,4"/>
<!-- Node1 -->
<g id="node1" class="node">
<title>Node1</title>
<polygon fill="#bfbfbf" stroke="#000000" points="12,-.5 12,-123.5 182,-123.5 182,-.5 12,-.5"/>
<text text-anchor="start" x="20" y="-111.5" font-family="Helvetica,sans-Serif" font-size="10.00" fill="#000000">internal::EvaluatorTensor</text>
<text text-anchor="start" x="20" y="-100.5" font-family="Helvetica,sans-Serif" font-size="10.00" fill="#000000">Product&lt; evaluate_symmetric,</text>
<text text-anchor="start" x="20" y="-89.5" font-family="Helvetica,sans-Serif" font-size="10.00" fill="#000000"> dim, n_rows, n_columns, Number,</text>
<text text-anchor="middle" x="97" y="-78.5" font-family="Helvetica,sans-Serif" font-size="10.00" fill="#000000"> Number2 &gt;</text>
<polyline fill="none" stroke="#000000" points="12,-71.5 182,-71.5 "/>
<text text-anchor="middle" x="97" y="-59.5" font-family="Helvetica,sans-Serif" font-size="10.00" fill="#000000"> </text>
<polyline fill="none" stroke="#000000" points="12,-52.5 182,-52.5 "/>
<text text-anchor="start" x="20" y="-40.5" font-family="Helvetica,sans-Serif" font-size="10.00" fill="#000000">+ EvaluatorTensorProduct()</text>
<text text-anchor="start" x="20" y="-29.5" font-family="Helvetica,sans-Serif" font-size="10.00" fill="#000000">+ values()</text>
<text text-anchor="start" x="20" y="-18.5" font-family="Helvetica,sans-Serif" font-size="10.00" fill="#000000">+ gradients()</text>
<text text-anchor="start" x="20" y="-7.5" font-family="Helvetica,sans-Serif" font-size="10.00" fill="#000000">+ hessians()</text>
</g>
<!-- Node2 -->
<g id="node2" class="node">
<title>Node2</title>
<polygon fill="#ffffff" stroke="#bfbfbf" points="0,-193.5 0,-250.5 90,-250.5 90,-193.5 0,-193.5"/>
<text text-anchor="middle" x="45" y="-238.5" font-family="Helvetica,sans-Serif" font-size="10.00" fill="#000000">const Number2 *</text>
<polyline fill="none" stroke="#bfbfbf" points="0,-231.5 90,-231.5 "/>
<text text-anchor="middle" x="45" y="-219.5" font-family="Helvetica,sans-Serif" font-size="10.00" fill="#000000"> </text>
<polyline fill="none" stroke="#bfbfbf" points="0,-212.5 90,-212.5 "/>
<text text-anchor="middle" x="45" y="-200.5" font-family="Helvetica,sans-Serif" font-size="10.00" fill="#000000"> </text>
</g>
<!-- Node2&#45;&gt;Node1 -->
<g id="edge1" class="edge">
<title>Node2&#45;&gt;Node1</title>
<path fill="none" stroke="#404040" d="M41.5949,-193.2896C40.686,-177.7896 41.0746,-158.5043 46,-142 46.7176,-139.5955 47.5304,-137.1939 48.4245,-134.8033"/>
<polygon fill="none" stroke="#404040" points="48.4409,-134.7646 47.1163,-127.6762 53.15,-123.7271 54.4746,-130.8156 48.4409,-134.7646"/>
<text text-anchor="middle" x="86.5" y="-167" font-family="Helvetica,sans-Serif" font-size="10.00" fill="#000000"> +shape_gradients</text>
<text text-anchor="middle" x="86.5" y="-156" font-family="Helvetica,sans-Serif" font-size="10.00" fill="#000000">+shape_values</text>
<text text-anchor="middle" x="86.5" y="-145" font-family="Helvetica,sans-Serif" font-size="10.00" fill="#000000">+shape_hessians</text>
</g>
<!-- Node3 -->
<g id="node3" class="node">
<title>Node3</title>
<polygon fill="#ffffff" stroke="#bfbfbf" points="121,-193.5 121,-250.5 177,-250.5 177,-193.5 121,-193.5"/>
<text text-anchor="middle" x="149" y="-238.5" font-family="Helvetica,sans-Serif" font-size="10.00" fill="#000000">unsigned</text>
<polyline fill="none" stroke="#bfbfbf" points="121,-231.5 177,-231.5 "/>
<text text-anchor="middle" x="149" y="-219.5" font-family="Helvetica,sans-Serif" font-size="10.00" fill="#000000"> </text>
<polyline fill="none" stroke="#bfbfbf" points="121,-212.5 177,-212.5 "/>
<text text-anchor="middle" x="149" y="-200.5" font-family="Helvetica,sans-Serif" font-size="10.00" fill="#000000"> </text>
</g>
<!-- Node3&#45;&gt;Node1 -->
<g id="edge2" class="edge">
<title>Node3&#45;&gt;Node1</title>
<path fill="none" stroke="#404040" d="M141.7811,-193.3044C137.7572,-177.98 132.4651,-158.8536 127,-142 126.2794,-139.7777 125.5339,-137.526 124.7693,-135.2569"/>
<polygon fill="none" stroke="#404040" points="124.737,-135.1636 118.9953,-130.801 120.8139,-123.823 126.5557,-128.1856 124.737,-135.1636"/>
<text text-anchor="middle" x="188.5" y="-161.5" font-family="Helvetica,sans-Serif" font-size="10.00" fill="#000000"> +n_rows_of_product</text>
<text text-anchor="middle" x="188.5" y="-150.5" font-family="Helvetica,sans-Serif" font-size="10.00" fill="#000000">+n_columns_of_product</text>
</g>
</g>
</svg>
