<?xml version="1.0" encoding="UTF-8" standalone="no"?>
<!DOCTYPE svg PUBLIC "-//W3C//DTD SVG 1.1//EN"
 "http://www.w3.org/Graphics/SVG/1.1/DTD/svg11.dtd">
<!-- Generated by graphviz version 2.40.1 (20161225.0304)
 -->
<!-- Title: mystl::not_equal_to&lt; T &gt; Pages: 1 -->
<svg width="135pt" height="288pt"
 viewBox="0.00 0.00 135.00 288.00" xmlns="http://www.w3.org/2000/svg" xmlns:xlink="http://www.w3.org/1999/xlink">
<g id="graph0" class="graph" transform="scale(1 1) rotate(0) translate(4 284)">
<title>mystl::not_equal_to&lt; T &gt;</title>
<polygon fill="#ffffff" stroke="transparent" points="-4,4 -4,-284 131,-284 131,4 -4,4"/>
<!-- Node3 -->
<g id="node1" class="node">
<title>Node3</title>
<polygon fill="#bfbfbf" stroke="#000000" points="0,-.5 0,-57.5 126,-57.5 126,-.5 0,-.5"/>
<text text-anchor="middle" x="63" y="-45.5" font-family="Helvetica,sans-Serif" font-size="10.00" fill="#000000">mystl::not_equal_to&lt; T &gt;</text>
<polyline fill="none" stroke="#000000" points="0,-38.5 126,-38.5 "/>
<text text-anchor="middle" x="63" y="-26.5" font-family="Helvetica,sans-Serif" font-size="10.00" fill="#000000"> </text>
<polyline fill="none" stroke="#000000" points="0,-19.5 126,-19.5 "/>
<text text-anchor="start" x="8" y="-7.5" font-family="Helvetica,sans-Serif" font-size="10.00" fill="#000000">+ operator()()</text>
</g>
<!-- Node4 -->
<g id="node2" class="node">
<title>Node4</title>
<g id="a_node2"><a xlink:href="structmystl_1_1binary__function.html" target="_top" xlink:title="{mystl::binary_function\l\&lt; T, T, bool \&gt;\n||}">
<polygon fill="#ffffff" stroke="#000000" points="6.5,-95.5 6.5,-163.5 119.5,-163.5 119.5,-95.5 6.5,-95.5"/>
<text text-anchor="start" x="14.5" y="-151.5" font-family="Helvetica,sans-Serif" font-size="10.00" fill="#000000">mystl::binary_function</text>
<text text-anchor="middle" x="63" y="-140.5" font-family="Helvetica,sans-Serif" font-size="10.00" fill="#000000">&lt; T, T, bool &gt;</text>
<polyline fill="none" stroke="#000000" points="6.5,-133.5 119.5,-133.5 "/>
<text text-anchor="middle" x="63" y="-121.5" font-family="Helvetica,sans-Serif" font-size="10.00" fill="#000000"> </text>
<polyline fill="none" stroke="#000000" points="6.5,-114.5 119.5,-114.5 "/>
<text text-anchor="middle" x="63" y="-102.5" font-family="Helvetica,sans-Serif" font-size="10.00" fill="#000000"> </text>
</a>
</g>
</g>
<!-- Node4&#45;&gt;Node3 -->
<g id="edge1" class="edge">
<title>Node4&#45;&gt;Node3</title>
<path fill="none" stroke="#191970" d="M63,-85.4301C63,-76.0073 63,-66.2901 63,-57.6312"/>
<polygon fill="none" stroke="#191970" points="59.5001,-85.4752 63,-95.4753 66.5001,-85.4753 59.5001,-85.4752"/>
</g>
<!-- Node5 -->
<g id="node3" class="node">
<title>Node5</title>
<g id="a_node3"><a xlink:href="structmystl_1_1binary__function.html" target="_top" xlink:title="{mystl::binary_function\l\&lt; Arg1, Arg2, Result \&gt;\n||}">
<polygon fill="#ffffff" stroke="#000000" points="5,-211.5 5,-279.5 121,-279.5 121,-211.5 5,-211.5"/>
<text text-anchor="start" x="13" y="-267.5" font-family="Helvetica,sans-Serif" font-size="10.00" fill="#000000">mystl::binary_function</text>
<text text-anchor="middle" x="63" y="-256.5" font-family="Helvetica,sans-Serif" font-size="10.00" fill="#000000">&lt; Arg1, Arg2, Result &gt;</text>
<polyline fill="none" stroke="#000000" points="5,-249.5 121,-249.5 "/>
<text text-anchor="middle" x="63" y="-237.5" font-family="Helvetica,sans-Serif" font-size="10.00" fill="#000000"> </text>
<polyline fill="none" stroke="#000000" points="5,-230.5 121,-230.5 "/>
<text text-anchor="middle" x="63" y="-218.5" font-family="Helvetica,sans-Serif" font-size="10.00" fill="#000000"> </text>
</a>
</g>
</g>
<!-- Node5&#45;&gt;Node4 -->
<g id="edge2" class="edge">
<title>Node5&#45;&gt;Node4</title>
<path fill="none" stroke="#ffa500" d="M63,-201.1851C63,-188.8048 63,-175.5422 63,-163.833"/>
<polygon fill="#ffa500" stroke="#ffa500" points="59.5001,-201.3235 63,-211.3236 66.5001,-201.3236 59.5001,-201.3235"/>
<text text-anchor="middle" x="95" y="-185" font-family="Helvetica,sans-Serif" font-size="10.00" fill="#000000"> &lt; T, T, bool &gt;</text>
</g>
</g>
</svg>
