<?xml version="1.0" encoding="UTF-8" standalone="no"?>
<!DOCTYPE svg PUBLIC "-//W3C//DTD SVG 1.1//EN"
 "http://www.w3.org/Graphics/SVG/1.1/DTD/svg11.dtd">
<!-- Generated by graphviz version 2.40.1 (20161225.0304)
 -->
<!-- Title: GrowingVectorMemory&lt; VectorType &gt;::Pool Pages: 1 -->
<svg width="181pt" height="425pt"
 viewBox="0.00 0.00 181.00 425.00" xmlns="http://www.w3.org/2000/svg" xmlns:xlink="http://www.w3.org/1999/xlink">
<g id="graph0" class="graph" transform="scale(1 1) rotate(0) translate(4 421)">
<title>GrowingVectorMemory&lt; VectorType &gt;::Pool</title>
<polygon fill="#ffffff" stroke="transparent" points="-4,4 -4,-421 177,-421 177,4 -4,4"/>
<!-- Node1 -->
<g id="node1" class="node">
<title>Node1</title>
<polygon fill="#bfbfbf" stroke="#000000" points="9,-.5 9,-90.5 125,-90.5 125,-.5 9,-.5"/>
<text text-anchor="start" x="17" y="-78.5" font-family="Helvetica,sans-Serif" font-size="10.00" fill="#000000">GrowingVectorMemory</text>
<text text-anchor="middle" x="67" y="-67.5" font-family="Helvetica,sans-Serif" font-size="10.00" fill="#000000">&lt; VectorType &gt;::Pool</text>
<polyline fill="none" stroke="#000000" points="9,-60.5 125,-60.5 "/>
<text text-anchor="middle" x="67" y="-48.5" font-family="Helvetica,sans-Serif" font-size="10.00" fill="#000000"> </text>
<polyline fill="none" stroke="#000000" points="9,-41.5 125,-41.5 "/>
<text text-anchor="start" x="17" y="-29.5" font-family="Helvetica,sans-Serif" font-size="10.00" fill="#000000">+ Pool()</text>
<text text-anchor="start" x="17" y="-18.5" font-family="Helvetica,sans-Serif" font-size="10.00" fill="#000000">+ ~Pool()</text>
<text text-anchor="start" x="17" y="-7.5" font-family="Helvetica,sans-Serif" font-size="10.00" fill="#000000">+ initialize()</text>
</g>
<!-- Node2 -->
<g id="node2" class="node">
<title>Node2</title>
<polygon fill="#ffffff" stroke="#bfbfbf" points="20,-138.5 20,-206.5 114,-206.5 114,-138.5 20,-138.5"/>
<text text-anchor="start" x="28" y="-194.5" font-family="Helvetica,sans-Serif" font-size="10.00" fill="#000000">std::vector&lt; entry</text>
<text text-anchor="middle" x="67" y="-183.5" font-family="Helvetica,sans-Serif" font-size="10.00" fill="#000000">_type &gt;</text>
<polyline fill="none" stroke="#bfbfbf" points="20,-176.5 114,-176.5 "/>
<text text-anchor="middle" x="67" y="-164.5" font-family="Helvetica,sans-Serif" font-size="10.00" fill="#000000"> </text>
<polyline fill="none" stroke="#bfbfbf" points="20,-157.5 114,-157.5 "/>
<text text-anchor="middle" x="67" y="-145.5" font-family="Helvetica,sans-Serif" font-size="10.00" fill="#000000"> </text>
</g>
<!-- Node2&#45;&gt;Node1 -->
<g id="edge1" class="edge">
<title>Node2&#45;&gt;Node1</title>
<path fill="none" stroke="#404040" d="M67,-138.4663C67,-127.4452 67,-114.9023 67,-102.6754"/>
<polygon fill="none" stroke="#404040" points="67.0001,-102.6219 63,-96.6219 67,-90.6219 71,-96.6218 67.0001,-102.6219"/>
<text text-anchor="middle" x="81" y="-112" font-family="Helvetica,sans-Serif" font-size="10.00" fill="#000000"> +data</text>
</g>
<!-- Node3 -->
<g id="node3" class="node">
<title>Node3</title>
<polygon fill="#ffffff" stroke="#bfbfbf" points="0,-254.5 0,-311.5 62,-311.5 62,-254.5 0,-254.5"/>
<text text-anchor="middle" x="31" y="-299.5" font-family="Helvetica,sans-Serif" font-size="10.00" fill="#000000">entry_type</text>
<polyline fill="none" stroke="#bfbfbf" points="0,-292.5 62,-292.5 "/>
<text text-anchor="middle" x="31" y="-280.5" font-family="Helvetica,sans-Serif" font-size="10.00" fill="#000000"> </text>
<polyline fill="none" stroke="#bfbfbf" points="0,-273.5 62,-273.5 "/>
<text text-anchor="middle" x="31" y="-261.5" font-family="Helvetica,sans-Serif" font-size="10.00" fill="#000000"> </text>
</g>
<!-- Node3&#45;&gt;Node2 -->
<g id="edge2" class="edge">
<title>Node3&#45;&gt;Node2</title>
<path fill="none" stroke="#404040" d="M34.9372,-254.311C36.632,-244.8463 38.9431,-234.352 42,-225 42.7719,-222.6386 43.6264,-220.246 44.5405,-217.8501"/>
<polygon fill="none" stroke="#404040" points="44.5613,-217.7998 43.1701,-210.7242 49.1663,-206.7185 50.5576,-213.7941 44.5613,-217.7998"/>
<text text-anchor="middle" x="66.5" y="-228" font-family="Helvetica,sans-Serif" font-size="10.00" fill="#000000"> +elements</text>
</g>
<!-- Node4 -->
<g id="node4" class="node">
<title>Node4</title>
<g id="a_node4"><a xlink:title="STL class. ">
<polygon fill="#ffffff" stroke="#bfbfbf" points="80.5,-254.5 80.5,-311.5 167.5,-311.5 167.5,-254.5 80.5,-254.5"/>
<text text-anchor="middle" x="124" y="-299.5" font-family="Helvetica,sans-Serif" font-size="10.00" fill="#000000">std::vector&lt; T &gt;</text>
<polyline fill="none" stroke="#bfbfbf" points="80.5,-292.5 167.5,-292.5 "/>
<text text-anchor="middle" x="124" y="-280.5" font-family="Helvetica,sans-Serif" font-size="10.00" fill="#000000"> </text>
<polyline fill="none" stroke="#bfbfbf" points="80.5,-273.5 167.5,-273.5 "/>
<text text-anchor="middle" x="124" y="-261.5" font-family="Helvetica,sans-Serif" font-size="10.00" fill="#000000"> </text>
</a>
</g>
</g>
<!-- Node4&#45;&gt;Node2 -->
<g id="edge3" class="edge">
<title>Node4&#45;&gt;Node2</title>
<path fill="none" stroke="#ffa500" d="M104.4086,-245.0202C97.9743,-232.5466 90.8665,-218.7675 84.5901,-206.6001"/>
<polygon fill="#ffa500" stroke="#ffa500" points="101.4777,-246.9732 109.1727,-254.2559 107.6988,-243.7641 101.4777,-246.9732"/>
<text text-anchor="middle" x="132.5" y="-228" font-family="Helvetica,sans-Serif" font-size="10.00" fill="#000000"> &lt; entry_type &gt;</text>
</g>
<!-- Node5 -->
<g id="node5" class="node">
<title>Node5</title>
<polygon fill="#ffffff" stroke="#bfbfbf" points="109.5,-359.5 109.5,-416.5 138.5,-416.5 138.5,-359.5 109.5,-359.5"/>
<text text-anchor="middle" x="124" y="-404.5" font-family="Helvetica,sans-Serif" font-size="10.00" fill="#000000">T</text>
<polyline fill="none" stroke="#bfbfbf" points="109.5,-397.5 138.5,-397.5 "/>
<text text-anchor="middle" x="124" y="-385.5" font-family="Helvetica,sans-Serif" font-size="10.00" fill="#000000"> </text>
<polyline fill="none" stroke="#bfbfbf" points="109.5,-378.5 138.5,-378.5 "/>
<text text-anchor="middle" x="124" y="-366.5" font-family="Helvetica,sans-Serif" font-size="10.00" fill="#000000"> </text>
</g>
<!-- Node5&#45;&gt;Node4 -->
<g id="edge4" class="edge">
<title>Node5&#45;&gt;Node4</title>
<path fill="none" stroke="#404040" d="M124,-359.3083C124,-348.4281 124,-335.817 124,-324.0192"/>
<polygon fill="none" stroke="#404040" points="124.0001,-323.657 120,-317.6571 124,-311.657 128,-317.657 124.0001,-323.657"/>
<text text-anchor="middle" x="148.5" y="-333" font-family="Helvetica,sans-Serif" font-size="10.00" fill="#000000"> +elements</text>
</g>
</g>
</svg>
