<?xml version="1.0" encoding="UTF-8" standalone="no"?>
<!DOCTYPE svg PUBLIC "-//W3C//DTD SVG 1.1//EN"
 "http://www.w3.org/Graphics/SVG/1.1/DTD/svg11.dtd">
<!-- Generated by graphviz version 2.40.1 (20161225.0304)
 -->
<!-- Title: mystl::ht_local_iterator&lt; T &gt; Pages: 1 -->
<svg width="272pt" height="408pt"
 viewBox="0.00 0.00 272.00 408.00" xmlns="http://www.w3.org/2000/svg" xmlns:xlink="http://www.w3.org/1999/xlink">
<g id="graph0" class="graph" transform="scale(1 1) rotate(0) translate(4 404)">
<title>mystl::ht_local_iterator&lt; T &gt;</title>
<polygon fill="#ffffff" stroke="transparent" points="-4,4 -4,-404 268,-404 268,4 -4,4"/>
<!-- Node3 -->
<g id="node1" class="node">
<title>Node3</title>
<polygon fill="#bfbfbf" stroke="#000000" points="100,-.5 100,-145.5 240,-145.5 240,-.5 100,-.5"/>
<text text-anchor="middle" x="170" y="-133.5" font-family="Helvetica,sans-Serif" font-size="10.00" fill="#000000">mystl::ht_local_iterator&lt; T &gt;</text>
<polyline fill="none" stroke="#000000" points="100,-126.5 240,-126.5 "/>
<text text-anchor="middle" x="170" y="-114.5" font-family="Helvetica,sans-Serif" font-size="10.00" fill="#000000"> </text>
<polyline fill="none" stroke="#000000" points="100,-107.5 240,-107.5 "/>
<text text-anchor="start" x="108" y="-95.5" font-family="Helvetica,sans-Serif" font-size="10.00" fill="#000000">+ ht_local_iterator()</text>
<text text-anchor="start" x="108" y="-84.5" font-family="Helvetica,sans-Serif" font-size="10.00" fill="#000000">+ ht_local_iterator()</text>
<text text-anchor="start" x="108" y="-73.5" font-family="Helvetica,sans-Serif" font-size="10.00" fill="#000000">+ ht_local_iterator()</text>
<text text-anchor="start" x="108" y="-62.5" font-family="Helvetica,sans-Serif" font-size="10.00" fill="#000000">+ operator*()</text>
<text text-anchor="start" x="108" y="-51.5" font-family="Helvetica,sans-Serif" font-size="10.00" fill="#000000">+ operator&#45;&gt;()</text>
<text text-anchor="start" x="108" y="-40.5" font-family="Helvetica,sans-Serif" font-size="10.00" fill="#000000">+ operator++()</text>
<text text-anchor="start" x="108" y="-29.5" font-family="Helvetica,sans-Serif" font-size="10.00" fill="#000000">+ operator++()</text>
<text text-anchor="start" x="108" y="-18.5" font-family="Helvetica,sans-Serif" font-size="10.00" fill="#000000">+ operator==()</text>
<text text-anchor="start" x="108" y="-7.5" font-family="Helvetica,sans-Serif" font-size="10.00" fill="#000000">+ operator!=()</text>
</g>
<!-- Node4 -->
<g id="node2" class="node">
<title>Node4</title>
<g id="a_node2"><a xlink:href="structmystl_1_1iterator.html" target="_top" xlink:title="{mystl::iterator\&lt; mystl\l::forward_iterator_tag, T \&gt;\n||}">
<polygon fill="#ffffff" stroke="#000000" points="0,-193.5 0,-261.5 130,-261.5 130,-193.5 0,-193.5"/>
<text text-anchor="start" x="8" y="-249.5" font-family="Helvetica,sans-Serif" font-size="10.00" fill="#000000">mystl::iterator&lt; mystl</text>
<text text-anchor="middle" x="65" y="-238.5" font-family="Helvetica,sans-Serif" font-size="10.00" fill="#000000">::forward_iterator_tag, T &gt;</text>
<polyline fill="none" stroke="#000000" points="0,-231.5 130,-231.5 "/>
<text text-anchor="middle" x="65" y="-219.5" font-family="Helvetica,sans-Serif" font-size="10.00" fill="#000000"> </text>
<polyline fill="none" stroke="#000000" points="0,-212.5 130,-212.5 "/>
<text text-anchor="middle" x="65" y="-200.5" font-family="Helvetica,sans-Serif" font-size="10.00" fill="#000000"> </text>
</a>
</g>
</g>
<!-- Node4&#45;&gt;Node3 -->
<g id="edge1" class="edge">
<title>Node4&#45;&gt;Node3</title>
<path fill="none" stroke="#191970" d="M94.0969,-184.686C102.3083,-172.6034 111.4802,-159.1078 120.5314,-145.7895"/>
<polygon fill="none" stroke="#191970" points="91.0291,-182.9733 88.3029,-193.2114 96.8186,-186.908 91.0291,-182.9733"/>
</g>
<!-- Node5 -->
<g id="node3" class="node">
<title>Node5</title>
<g id="a_node3"><a xlink:href="structmystl_1_1iterator.html" target="_top" xlink:title="{mystl::iterator\&lt; Category,\l T, Distance, Pointer,\l Reference \&gt;\n||}">
<polygon fill="#ffffff" stroke="#000000" points="1,-320.5 1,-399.5 129,-399.5 129,-320.5 1,-320.5"/>
<text text-anchor="start" x="9" y="-387.5" font-family="Helvetica,sans-Serif" font-size="10.00" fill="#000000">mystl::iterator&lt; Category,</text>
<text text-anchor="start" x="9" y="-376.5" font-family="Helvetica,sans-Serif" font-size="10.00" fill="#000000"> T, Distance, Pointer,</text>
<text text-anchor="middle" x="65" y="-365.5" font-family="Helvetica,sans-Serif" font-size="10.00" fill="#000000"> Reference &gt;</text>
<polyline fill="none" stroke="#000000" points="1,-358.5 129,-358.5 "/>
<text text-anchor="middle" x="65" y="-346.5" font-family="Helvetica,sans-Serif" font-size="10.00" fill="#000000"> </text>
<polyline fill="none" stroke="#000000" points="1,-339.5 129,-339.5 "/>
<text text-anchor="middle" x="65" y="-327.5" font-family="Helvetica,sans-Serif" font-size="10.00" fill="#000000"> </text>
</a>
</g>
</g>
<!-- Node5&#45;&gt;Node4 -->
<g id="edge2" class="edge">
<title>Node5&#45;&gt;Node4</title>
<path fill="none" stroke="#ffa500" d="M65,-309.9391C65,-293.8943 65,-276.4999 65,-261.8429"/>
<polygon fill="#ffa500" stroke="#ffa500" points="61.5001,-310.2456 65,-320.2456 68.5001,-310.2457 61.5001,-310.2456"/>
<text text-anchor="start" x="65" y="-294" font-family="Helvetica,sans-Serif" font-size="10.00" fill="#000000"> &lt; mystl::forward_iterator</text>
<text text-anchor="middle" x="120" y="-283" font-family="Helvetica,sans-Serif" font-size="10.00" fill="#000000">_tag, T &gt;</text>
</g>
<!-- Node6 -->
<g id="node4" class="node">
<title>Node6</title>
<polygon fill="#ffffff" stroke="#bfbfbf" points="148,-199 148,-256 264,-256 264,-199 148,-199"/>
<text text-anchor="middle" x="206" y="-244" font-family="Helvetica,sans-Serif" font-size="10.00" fill="#000000">hashtable_node&lt; T &gt; *</text>
<polyline fill="none" stroke="#bfbfbf" points="148,-237 264,-237 "/>
<text text-anchor="middle" x="206" y="-225" font-family="Helvetica,sans-Serif" font-size="10.00" fill="#000000"> </text>
<polyline fill="none" stroke="#bfbfbf" points="148,-218 264,-218 "/>
<text text-anchor="middle" x="206" y="-206" font-family="Helvetica,sans-Serif" font-size="10.00" fill="#000000"> </text>
</g>
<!-- Node6&#45;&gt;Node3 -->
<g id="edge3" class="edge">
<title>Node6&#45;&gt;Node3</title>
<path fill="none" stroke="#404040" d="M199.313,-198.8018C196.5373,-186.8893 193.158,-172.3864 189.6942,-157.5212"/>
<polygon fill="none" stroke="#404040" points="189.6315,-157.2513 184.3742,-152.3156 186.9082,-145.5644 192.1655,-150.5001 189.6315,-157.2513"/>
<text text-anchor="middle" x="208.5" y="-167" font-family="Helvetica,sans-Serif" font-size="10.00" fill="#000000"> +node</text>
</g>
</g>
</svg>
