<?xml version="1.0" encoding="UTF-8" standalone="no"?>
<!DOCTYPE svg PUBLIC "-//W3C//DTD SVG 1.1//EN"
 "http://www.w3.org/Graphics/SVG/1.1/DTD/svg11.dtd">
<!-- Generated by graphviz version 2.40.1 (20161225.0304)
 -->
<!-- Title: internal::MatrixFreeFunctions::FaceSetup&lt; dim &gt; Pages: 1 -->
<svg width="840pt" height="905pt"
 viewBox="0.00 0.00 840.00 905.00" xmlns="http://www.w3.org/2000/svg" xmlns:xlink="http://www.w3.org/1999/xlink">
<g id="graph0" class="graph" transform="scale(1 1) rotate(0) translate(4 901)">
<title>internal::MatrixFreeFunctions::FaceSetup&lt; dim &gt;</title>
<polygon fill="#ffffff" stroke="transparent" points="-4,4 -4,-901 836,-901 836,4 -4,4"/>
<!-- Node1 -->
<g id="node1" class="node">
<title>Node1</title>
<polygon fill="#bfbfbf" stroke="#000000" points="495.5,-.5 495.5,-101.5 638.5,-101.5 638.5,-.5 495.5,-.5"/>
<text text-anchor="start" x="503.5" y="-89.5" font-family="Helvetica,sans-Serif" font-size="10.00" fill="#000000">internal::MatrixFreeFunctions</text>
<text text-anchor="middle" x="567" y="-78.5" font-family="Helvetica,sans-Serif" font-size="10.00" fill="#000000">::FaceSetup&lt; dim &gt;</text>
<polyline fill="none" stroke="#000000" points="495.5,-71.5 638.5,-71.5 "/>
<text text-anchor="middle" x="567" y="-59.5" font-family="Helvetica,sans-Serif" font-size="10.00" fill="#000000"> </text>
<polyline fill="none" stroke="#000000" points="495.5,-52.5 638.5,-52.5 "/>
<text text-anchor="start" x="503.5" y="-40.5" font-family="Helvetica,sans-Serif" font-size="10.00" fill="#000000">+ FaceSetup()</text>
<text text-anchor="start" x="503.5" y="-29.5" font-family="Helvetica,sans-Serif" font-size="10.00" fill="#000000">+ initialize()</text>
<text text-anchor="start" x="503.5" y="-18.5" font-family="Helvetica,sans-Serif" font-size="10.00" fill="#000000">+ generate_faces()</text>
<text text-anchor="start" x="503.5" y="-7.5" font-family="Helvetica,sans-Serif" font-size="10.00" fill="#000000">+ create_face()</text>
</g>
<!-- Node2 -->
<g id="node2" class="node">
<title>Node2</title>
<polygon fill="#ffffff" stroke="#bfbfbf" points="416.5,-193.5 416.5,-250.5 559.5,-250.5 559.5,-193.5 416.5,-193.5"/>
<text text-anchor="middle" x="488" y="-238.5" font-family="Helvetica,sans-Serif" font-size="10.00" fill="#000000">std::vector&lt; FaceCategory &gt;</text>
<polyline fill="none" stroke="#bfbfbf" points="416.5,-231.5 559.5,-231.5 "/>
<text text-anchor="middle" x="488" y="-219.5" font-family="Helvetica,sans-Serif" font-size="10.00" fill="#000000"> </text>
<polyline fill="none" stroke="#bfbfbf" points="416.5,-212.5 559.5,-212.5 "/>
<text text-anchor="middle" x="488" y="-200.5" font-family="Helvetica,sans-Serif" font-size="10.00" fill="#000000"> </text>
</g>
<!-- Node2&#45;&gt;Node1 -->
<g id="edge1" class="edge">
<title>Node2&#45;&gt;Node1</title>
<path fill="none" stroke="#404040" d="M491.7274,-193.188C495.2327,-172.1239 501.6874,-143.2878 513,-120 514.2618,-117.4024 515.6335,-114.8107 517.0917,-112.2382"/>
<polygon fill="none" stroke="#404040" points="517.2236,-112.0238 516.9629,-104.8174 523.5147,-101.8051 523.7754,-109.0115 517.2236,-112.0238"/>
<text text-anchor="middle" x="550.5" y="-139.5" font-family="Helvetica,sans-Serif" font-size="10.00" fill="#000000"> +face_is_owned</text>
</g>
<!-- Node3 -->
<g id="node3" class="node">
<title>Node3</title>
<polygon fill="#ffffff" stroke="#bfbfbf" points="588,-326 588,-383 666,-383 666,-326 588,-326"/>
<text text-anchor="middle" x="627" y="-371" font-family="Helvetica,sans-Serif" font-size="10.00" fill="#000000">FaceCategory</text>
<polyline fill="none" stroke="#bfbfbf" points="588,-364 666,-364 "/>
<text text-anchor="middle" x="627" y="-352" font-family="Helvetica,sans-Serif" font-size="10.00" fill="#000000"> </text>
<polyline fill="none" stroke="#bfbfbf" points="588,-345 666,-345 "/>
<text text-anchor="middle" x="627" y="-333" font-family="Helvetica,sans-Serif" font-size="10.00" fill="#000000"> </text>
</g>
<!-- Node3&#45;&gt;Node2 -->
<g id="edge2" class="edge">
<title>Node3&#45;&gt;Node2</title>
<path fill="none" stroke="#404040" d="M624.1036,-325.684C621.3054,-310.6405 615.8061,-292.7625 605,-280 593.1831,-266.0437 584.4007,-270.0892 568,-262 564.0788,-260.066 560.0525,-258.0735 555.9915,-256.0589"/>
<polygon fill="none" stroke="#404040" points="555.955,-256.0408 548.8016,-256.9518 545.2094,-250.699 552.3628,-249.7881 555.955,-256.0408"/>
<text text-anchor="middle" x="642.5" y="-288.5" font-family="Helvetica,sans-Serif" font-size="10.00" fill="#000000"> +elements</text>
</g>
<!-- Node4 -->
<g id="node4" class="node">
<title>Node4</title>
<g id="a_node4"><a xlink:title="STL class. ">
<polygon fill="#ffffff" stroke="#bfbfbf" points="418.5,-326 418.5,-383 505.5,-383 505.5,-326 418.5,-326"/>
<text text-anchor="middle" x="462" y="-371" font-family="Helvetica,sans-Serif" font-size="10.00" fill="#000000">std::vector&lt; T &gt;</text>
<polyline fill="none" stroke="#bfbfbf" points="418.5,-364 505.5,-364 "/>
<text text-anchor="middle" x="462" y="-352" font-family="Helvetica,sans-Serif" font-size="10.00" fill="#000000"> </text>
<polyline fill="none" stroke="#bfbfbf" points="418.5,-345 505.5,-345 "/>
<text text-anchor="middle" x="462" y="-333" font-family="Helvetica,sans-Serif" font-size="10.00" fill="#000000"> </text>
</a>
</g>
</g>
<!-- Node4&#45;&gt;Node2 -->
<g id="edge3" class="edge">
<title>Node4&#45;&gt;Node2</title>
<path fill="none" stroke="#ffa500" d="M456.482,-315.584C455.8963,-304.0085 456.3131,-291.3817 459,-280 461.3796,-269.9197 465.7943,-259.5939 470.4739,-250.5009"/>
<polygon fill="#ffa500" stroke="#ffa500" points="453.0147,-316.1484 457.2652,-325.8532 459.9945,-315.616 453.0147,-316.1484"/>
<text text-anchor="middle" x="500.5" y="-288.5" font-family="Helvetica,sans-Serif" font-size="10.00" fill="#000000"> &lt; FaceCategory &gt;</text>
</g>
<!-- Node7 -->
<g id="node7" class="node">
<title>Node7</title>
<polygon fill="#ffffff" stroke="#bfbfbf" points="223.5,-182.5 223.5,-261.5 368.5,-261.5 368.5,-182.5 223.5,-182.5"/>
<text text-anchor="start" x="231.5" y="-249.5" font-family="Helvetica,sans-Serif" font-size="10.00" fill="#000000">std::vector&lt; internal</text>
<text text-anchor="start" x="231.5" y="-238.5" font-family="Helvetica,sans-Serif" font-size="10.00" fill="#000000">::MatrixFreeFunctions</text>
<text text-anchor="middle" x="296" y="-227.5" font-family="Helvetica,sans-Serif" font-size="10.00" fill="#000000">::FaceToCellTopology&lt; 1 &gt; &gt;</text>
<polyline fill="none" stroke="#bfbfbf" points="223.5,-220.5 368.5,-220.5 "/>
<text text-anchor="middle" x="296" y="-208.5" font-family="Helvetica,sans-Serif" font-size="10.00" fill="#000000"> </text>
<polyline fill="none" stroke="#bfbfbf" points="223.5,-201.5 368.5,-201.5 "/>
<text text-anchor="middle" x="296" y="-189.5" font-family="Helvetica,sans-Serif" font-size="10.00" fill="#000000"> </text>
</g>
<!-- Node4&#45;&gt;Node7 -->
<g id="edge16" class="edge">
<title>Node4&#45;&gt;Node7</title>
<path fill="none" stroke="#ffa500" d="M408.4161,-348.4573C376.5965,-342.0771 337.916,-328.9613 314,-302 304.2696,-291.0306 299.4553,-275.9377 297.1763,-261.8151"/>
<polygon fill="#ffa500" stroke="#ffa500" points="408.0116,-351.9413 418.4787,-350.3011 409.2733,-345.056 408.0116,-351.9413"/>
<text text-anchor="start" x="314" y="-294" font-family="Helvetica,sans-Serif" font-size="10.00" fill="#000000"> &lt; internal::MatrixFreeFunctions</text>
<text text-anchor="middle" x="383.5" y="-283" font-family="Helvetica,sans-Serif" font-size="10.00" fill="#000000">::FaceToCellTopology&lt; 1 &gt; &gt;</text>
</g>
<!-- Node13 -->
<g id="node13" class="node">
<title>Node13</title>
<polygon fill="#ffffff" stroke="#bfbfbf" points="577.5,-193.5 577.5,-250.5 676.5,-250.5 676.5,-193.5 577.5,-193.5"/>
<text text-anchor="middle" x="627" y="-238.5" font-family="Helvetica,sans-Serif" font-size="10.00" fill="#000000">std::vector&lt; bool &gt;</text>
<polyline fill="none" stroke="#bfbfbf" points="577.5,-231.5 676.5,-231.5 "/>
<text text-anchor="middle" x="627" y="-219.5" font-family="Helvetica,sans-Serif" font-size="10.00" fill="#000000"> </text>
<polyline fill="none" stroke="#bfbfbf" points="577.5,-212.5 676.5,-212.5 "/>
<text text-anchor="middle" x="627" y="-200.5" font-family="Helvetica,sans-Serif" font-size="10.00" fill="#000000"> </text>
</g>
<!-- Node4&#45;&gt;Node13 -->
<g id="edge19" class="edge">
<title>Node4&#45;&gt;Node13</title>
<path fill="none" stroke="#ffa500" d="M513.9671,-323.4321C523.6404,-316.8164 533.3998,-309.5369 542,-302 551.7164,-293.485 551.904,-289.1747 561,-280 570.8805,-270.034 582.1834,-259.7403 592.6101,-250.6416"/>
<polygon fill="#ffa500" stroke="#ffa500" points="511.898,-320.6049 505.5198,-329.0647 515.7815,-326.429 511.898,-320.6049"/>
<text text-anchor="middle" x="581" y="-288.5" font-family="Helvetica,sans-Serif" font-size="10.00" fill="#000000"> &lt; bool &gt;</text>
</g>
<!-- Node5 -->
<g id="node5" class="node">
<title>Node5</title>
<polygon fill="#ffffff" stroke="#bfbfbf" points="238.5,-839.5 238.5,-896.5 267.5,-896.5 267.5,-839.5 238.5,-839.5"/>
<text text-anchor="middle" x="253" y="-884.5" font-family="Helvetica,sans-Serif" font-size="10.00" fill="#000000">T</text>
<polyline fill="none" stroke="#bfbfbf" points="238.5,-877.5 267.5,-877.5 "/>
<text text-anchor="middle" x="253" y="-865.5" font-family="Helvetica,sans-Serif" font-size="10.00" fill="#000000"> </text>
<polyline fill="none" stroke="#bfbfbf" points="238.5,-858.5 267.5,-858.5 "/>
<text text-anchor="middle" x="253" y="-846.5" font-family="Helvetica,sans-Serif" font-size="10.00" fill="#000000"> </text>
</g>
<!-- Node5&#45;&gt;Node4 -->
<g id="edge4" class="edge">
<title>Node5&#45;&gt;Node4</title>
<path fill="none" stroke="#404040" d="M267.5716,-864.1805C315.4684,-851.2032 465,-807.153 465,-763 465,-763 465,-763 465,-476 465,-449.1715 464.2599,-419.0208 463.515,-395.4662"/>
<polygon fill="none" stroke="#404040" points="463.5147,-395.4564 459.3181,-389.5923 463.1171,-383.463 467.3137,-389.3272 463.5147,-395.4564"/>
<text text-anchor="middle" x="489.5" y="-639" font-family="Helvetica,sans-Serif" font-size="10.00" fill="#000000"> +elements</text>
</g>
<!-- Node11 -->
<g id="node11" class="node">
<title>Node11</title>
<g id="a_node11"><a xlink:title="STL class. ">
<polygon fill="#ffffff" stroke="#bfbfbf" points="0,-734.5 0,-791.5 82,-791.5 82,-734.5 0,-734.5"/>
<text text-anchor="middle" x="41" y="-779.5" font-family="Helvetica,sans-Serif" font-size="10.00" fill="#000000">std::array&lt; T &gt;</text>
<polyline fill="none" stroke="#bfbfbf" points="0,-772.5 82,-772.5 "/>
<text text-anchor="middle" x="41" y="-760.5" font-family="Helvetica,sans-Serif" font-size="10.00" fill="#000000"> </text>
<polyline fill="none" stroke="#bfbfbf" points="0,-753.5 82,-753.5 "/>
<text text-anchor="middle" x="41" y="-741.5" font-family="Helvetica,sans-Serif" font-size="10.00" fill="#000000"> </text>
</a>
</g>
</g>
<!-- Node5&#45;&gt;Node11 -->
<g id="edge11" class="edge">
<title>Node5&#45;&gt;Node11</title>
<path fill="none" stroke="#404040" d="M238.4284,-860.7829C208.9204,-846.1681 140.8373,-812.4477 92.909,-788.7096"/>
<polygon fill="none" stroke="#404040" points="92.8569,-788.6839 85.7049,-789.6053 82.1035,-783.3579 89.2555,-782.4364 92.8569,-788.6839"/>
<text text-anchor="middle" x="178.5" y="-813" font-family="Helvetica,sans-Serif" font-size="10.00" fill="#000000"> +elements</text>
</g>
<!-- Node6 -->
<g id="node6" class="node">
<title>Node6</title>
<g id="a_node6"><a xlink:href="classbool.html" target="_top" xlink:title="{bool\n||}">
<polygon fill="#ffffff" stroke="#000000" points="714.5,-326 714.5,-383 749.5,-383 749.5,-326 714.5,-326"/>
<text text-anchor="middle" x="732" y="-371" font-family="Helvetica,sans-Serif" font-size="10.00" fill="#000000">bool</text>
<polyline fill="none" stroke="#000000" points="714.5,-364 749.5,-364 "/>
<text text-anchor="middle" x="732" y="-352" font-family="Helvetica,sans-Serif" font-size="10.00" fill="#000000"> </text>
<polyline fill="none" stroke="#000000" points="714.5,-345 749.5,-345 "/>
<text text-anchor="middle" x="732" y="-333" font-family="Helvetica,sans-Serif" font-size="10.00" fill="#000000"> </text>
</a>
</g>
</g>
<!-- Node6&#45;&gt;Node1 -->
<g id="edge5" class="edge">
<title>Node6&#45;&gt;Node1</title>
<path fill="none" stroke="#404040" d="M741.0729,-325.8878C743.1092,-318.2098 744.9704,-309.8566 746,-302 754.6362,-236.0965 749.7283,-157.6119 721,-120 703.4167,-96.9795 676.443,-81.4484 649.9557,-71.0555"/>
<polygon fill="none" stroke="#404040" points="649.9272,-71.0452 642.9162,-72.7321 638.6625,-66.9092 645.6735,-65.2222 649.9272,-71.0452"/>
<text text-anchor="middle" x="791" y="-219.5" font-family="Helvetica,sans-Serif" font-size="10.00" fill="#000000"> +use_active_cells</text>
</g>
<!-- Node6&#45;&gt;Node13 -->
<g id="edge18" class="edge">
<title>Node6&#45;&gt;Node13</title>
<path fill="none" stroke="#404040" d="M714.3753,-329.6533C703.8034,-314.9985 689.9388,-296.208 677,-280 671.7617,-273.4381 666.0648,-266.5838 660.4545,-259.9809"/>
<polygon fill="none" stroke="#404040" points="660.1756,-259.6559 653.2326,-257.708 652.3602,-250.5498 659.3033,-252.4977 660.1756,-259.6559"/>
<text text-anchor="middle" x="717.5" y="-288.5" font-family="Helvetica,sans-Serif" font-size="10.00" fill="#000000"> +elements</text>
</g>
<!-- Node7&#45;&gt;Node1 -->
<g id="edge6" class="edge">
<title>Node7&#45;&gt;Node1</title>
<path fill="none" stroke="#404040" d="M323.5211,-182.4164C339.7102,-161.5274 361.7365,-136.8146 386,-120 415.2951,-99.6985 451.3567,-84.3803 483.5609,-73.3988"/>
<polygon fill="none" stroke="#404040" points="483.8358,-73.3082 488.2802,-67.6295 495.2315,-69.548 490.787,-75.2267 483.8358,-73.3082"/>
<text text-anchor="middle" x="440" y="-156" font-family="Helvetica,sans-Serif" font-size="10.00" fill="#000000"> +boundary_faces</text>
<text text-anchor="middle" x="440" y="-145" font-family="Helvetica,sans-Serif" font-size="10.00" fill="#000000">+inner_ghost_faces</text>
<text text-anchor="middle" x="440" y="-134" font-family="Helvetica,sans-Serif" font-size="10.00" fill="#000000">+refinement_edge_faces</text>
<text text-anchor="middle" x="440" y="-123" font-family="Helvetica,sans-Serif" font-size="10.00" fill="#000000">+inner_faces</text>
</g>
<!-- Node8 -->
<g id="node8" class="node">
<title>Node8</title>
<g id="a_node8"><a xlink:href="structinternal_1_1MatrixFreeFunctions_1_1FaceToCellTopology.html" target="_top" xlink:title="{internal::MatrixFreeFunctions\l::FaceToCellTopology\&lt; 1 \&gt;\n||+ memory_consumption()\l}">
<polygon fill="#ffffff" stroke="#000000" points="119.5,-320.5 119.5,-388.5 262.5,-388.5 262.5,-320.5 119.5,-320.5"/>
<text text-anchor="start" x="127.5" y="-376.5" font-family="Helvetica,sans-Serif" font-size="10.00" fill="#000000">internal::MatrixFreeFunctions</text>
<text text-anchor="middle" x="191" y="-365.5" font-family="Helvetica,sans-Serif" font-size="10.00" fill="#000000">::FaceToCellTopology&lt; 1 &gt;</text>
<polyline fill="none" stroke="#000000" points="119.5,-358.5 262.5,-358.5 "/>
<text text-anchor="middle" x="191" y="-346.5" font-family="Helvetica,sans-Serif" font-size="10.00" fill="#000000"> </text>
<polyline fill="none" stroke="#000000" points="119.5,-339.5 262.5,-339.5 "/>
<text text-anchor="start" x="127.5" y="-327.5" font-family="Helvetica,sans-Serif" font-size="10.00" fill="#000000">+ memory_consumption()</text>
</a>
</g>
</g>
<!-- Node8&#45;&gt;Node7 -->
<g id="edge7" class="edge">
<title>Node8&#45;&gt;Node7</title>
<path fill="none" stroke="#404040" d="M202.704,-320.4072C208.2452,-307.0371 215.7092,-292.0458 225,-280 227.5563,-276.6858 230.3365,-273.4404 233.2678,-270.2847"/>
<polygon fill="none" stroke="#404040" points="233.4015,-270.1504 234.8,-263.0762 241.868,-261.6463 240.4695,-268.7205 233.4015,-270.1504"/>
<text text-anchor="middle" x="249.5" y="-288.5" font-family="Helvetica,sans-Serif" font-size="10.00" fill="#000000"> +elements</text>
</g>
<!-- Node9 -->
<g id="node9" class="node">
<title>Node9</title>
<polygon fill="#ffffff" stroke="#bfbfbf" points="137.5,-607.5 137.5,-675.5 266.5,-675.5 266.5,-607.5 137.5,-607.5"/>
<text text-anchor="start" x="145.5" y="-663.5" font-family="Helvetica,sans-Serif" font-size="10.00" fill="#000000">std::array&lt; unsigned</text>
<text text-anchor="middle" x="202" y="-652.5" font-family="Helvetica,sans-Serif" font-size="10.00" fill="#000000"> int, vectorization_width &gt;</text>
<polyline fill="none" stroke="#bfbfbf" points="137.5,-645.5 266.5,-645.5 "/>
<text text-anchor="middle" x="202" y="-633.5" font-family="Helvetica,sans-Serif" font-size="10.00" fill="#000000"> </text>
<polyline fill="none" stroke="#bfbfbf" points="137.5,-626.5 266.5,-626.5 "/>
<text text-anchor="middle" x="202" y="-614.5" font-family="Helvetica,sans-Serif" font-size="10.00" fill="#000000"> </text>
</g>
<!-- Node9&#45;&gt;Node8 -->
<g id="edge8" class="edge">
<title>Node9&#45;&gt;Node8</title>
<path fill="none" stroke="#404040" d="M196.7898,-607.2417C193.2338,-582.068 188.8457,-546.9948 187,-516 184.8864,-480.5073 186.1283,-471.5449 187,-436 187.2806,-424.5597 187.7824,-412.2242 188.3378,-400.6977"/>
<polygon fill="none" stroke="#404040" points="188.3441,-400.5727 184.6541,-394.3773 188.9537,-388.5882 192.6437,-394.7837 188.3441,-400.5727"/>
<text text-anchor="middle" x="219" y="-479" font-family="Helvetica,sans-Serif" font-size="10.00" fill="#000000"> +cells_interior</text>
<text text-anchor="middle" x="219" y="-468" font-family="Helvetica,sans-Serif" font-size="10.00" fill="#000000">+cells_exterior</text>
</g>
<!-- Node12 -->
<g id="node12" class="node">
<title>Node12</title>
<g id="a_node12"><a xlink:href="structinternal_1_1MatrixFreeFunctions_1_1FaceToCellTopology.html" target="_top" xlink:title="{internal::MatrixFreeFunctions\l::FaceToCellTopology\&lt; vectorization\l_width \&gt;\n||+ memory_consumption()\l}">
<polygon fill="#ffffff" stroke="#000000" points="260.5,-436.5 260.5,-515.5 437.5,-515.5 437.5,-436.5 260.5,-436.5"/>
<text text-anchor="start" x="268.5" y="-503.5" font-family="Helvetica,sans-Serif" font-size="10.00" fill="#000000">internal::MatrixFreeFunctions</text>
<text text-anchor="start" x="268.5" y="-492.5" font-family="Helvetica,sans-Serif" font-size="10.00" fill="#000000">::FaceToCellTopology&lt; vectorization</text>
<text text-anchor="middle" x="349" y="-481.5" font-family="Helvetica,sans-Serif" font-size="10.00" fill="#000000">_width &gt;</text>
<polyline fill="none" stroke="#000000" points="260.5,-474.5 437.5,-474.5 "/>
<text text-anchor="middle" x="349" y="-462.5" font-family="Helvetica,sans-Serif" font-size="10.00" fill="#000000"> </text>
<polyline fill="none" stroke="#000000" points="260.5,-455.5 437.5,-455.5 "/>
<text text-anchor="start" x="268.5" y="-443.5" font-family="Helvetica,sans-Serif" font-size="10.00" fill="#000000">+ memory_consumption()</text>
</a>
</g>
</g>
<!-- Node9&#45;&gt;Node12 -->
<g id="edge14" class="edge">
<title>Node9&#45;&gt;Node12</title>
<path fill="none" stroke="#404040" d="M212.5467,-607.2856C221.3811,-580.2691 234.0989,-545.305 244,-534 247.3187,-530.2107 250.9477,-526.6197 254.7986,-523.2233"/>
<polygon fill="none" stroke="#404040" points="254.8217,-523.2046 256.9653,-516.3194 264.1453,-515.65 262.0017,-522.5351 254.8217,-523.2046"/>
<text text-anchor="middle" x="276" y="-564.5" font-family="Helvetica,sans-Serif" font-size="10.00" fill="#000000"> +cells_interior</text>
<text text-anchor="middle" x="276" y="-553.5" font-family="Helvetica,sans-Serif" font-size="10.00" fill="#000000">+cells_exterior</text>
</g>
<!-- Node10 -->
<g id="node10" class="node">
<title>Node10</title>
<polygon fill="#ffffff" stroke="#bfbfbf" points="174,-734.5 174,-791.5 230,-791.5 230,-734.5 174,-734.5"/>
<text text-anchor="middle" x="202" y="-779.5" font-family="Helvetica,sans-Serif" font-size="10.00" fill="#000000">unsigned</text>
<polyline fill="none" stroke="#bfbfbf" points="174,-772.5 230,-772.5 "/>
<text text-anchor="middle" x="202" y="-760.5" font-family="Helvetica,sans-Serif" font-size="10.00" fill="#000000"> </text>
<polyline fill="none" stroke="#bfbfbf" points="174,-753.5 230,-753.5 "/>
<text text-anchor="middle" x="202" y="-741.5" font-family="Helvetica,sans-Serif" font-size="10.00" fill="#000000"> </text>
</g>
<!-- Node10&#45;&gt;Node8 -->
<g id="edge12" class="edge">
<title>Node10&#45;&gt;Node8</title>
<path fill="none" stroke="#404040" d="M173.727,-736.4175C158.136,-720.3066 139.636,-698.5566 128,-676 109.7151,-640.5546 110.9266,-628.5783 106,-589 102.9805,-564.7428 100.6386,-557.8492 106,-534 116.9658,-485.2205 142.7788,-434.1126 163.1018,-398.9631"/>
<polygon fill="none" stroke="#404040" points="163.1223,-398.9283 162.7192,-391.7284 169.2102,-388.5872 169.6133,-395.7871 163.1223,-398.9283"/>
<text text-anchor="middle" x="145.5" y="-581" font-family="Helvetica,sans-Serif" font-size="10.00" fill="#000000"> +face_orientation</text>
<text text-anchor="middle" x="145.5" y="-570" font-family="Helvetica,sans-Serif" font-size="10.00" fill="#000000">+subface_index</text>
<text text-anchor="middle" x="145.5" y="-559" font-family="Helvetica,sans-Serif" font-size="10.00" fill="#000000">+face_type</text>
<text text-anchor="middle" x="145.5" y="-548" font-family="Helvetica,sans-Serif" font-size="10.00" fill="#000000">+interior_face_no</text>
<text text-anchor="middle" x="145.5" y="-537" font-family="Helvetica,sans-Serif" font-size="10.00" fill="#000000">+exterior_face_no</text>
</g>
<!-- Node10&#45;&gt;Node9 -->
<g id="edge9" class="edge">
<title>Node10&#45;&gt;Node9</title>
<path fill="none" stroke="#404040" d="M202,-734.2062C202,-720.3632 202,-703.4255 202,-687.8327"/>
<polygon fill="none" stroke="#404040" points="202.0001,-687.7007 198,-681.7008 202,-675.7007 206,-681.7007 202.0001,-687.7007"/>
<text text-anchor="middle" x="226.5" y="-702.5" font-family="Helvetica,sans-Serif" font-size="10.00" fill="#000000"> +elements</text>
</g>
<!-- Node10&#45;&gt;Node12 -->
<g id="edge15" class="edge">
<title>Node10&#45;&gt;Node12</title>
<path fill="none" stroke="#404040" d="M230.0818,-741.6119C238.7555,-734.1312 247.8877,-725.2691 255,-716 298.755,-658.976 324.6085,-579.028 337.7994,-527.3714"/>
<polygon fill="none" stroke="#404040" points="337.8495,-527.1686 335.407,-520.3838 340.7305,-515.5196 343.173,-522.3044 337.8495,-527.1686"/>
<text text-anchor="middle" x="351.5" y="-661" font-family="Helvetica,sans-Serif" font-size="10.00" fill="#000000"> +face_orientation</text>
<text text-anchor="middle" x="351.5" y="-650" font-family="Helvetica,sans-Serif" font-size="10.00" fill="#000000">+subface_index</text>
<text text-anchor="middle" x="351.5" y="-639" font-family="Helvetica,sans-Serif" font-size="10.00" fill="#000000">+face_type</text>
<text text-anchor="middle" x="351.5" y="-628" font-family="Helvetica,sans-Serif" font-size="10.00" fill="#000000">+interior_face_no</text>
<text text-anchor="middle" x="351.5" y="-617" font-family="Helvetica,sans-Serif" font-size="10.00" fill="#000000">+exterior_face_no</text>
</g>
<!-- Node11&#45;&gt;Node9 -->
<g id="edge10" class="edge">
<title>Node11&#45;&gt;Node9</title>
<path fill="none" stroke="#ffa500" d="M51.5428,-724.6528C56.0761,-713.6497 62.3766,-702.3772 71,-694 89.1893,-676.33 114.0836,-664.3664 137.2881,-656.3833"/>
<polygon fill="#ffa500" stroke="#ffa500" points="48.2074,-723.5804 48,-734.1732 54.7679,-726.0217 48.2074,-723.5804"/>
<text text-anchor="start" x="71" y="-708" font-family="Helvetica,sans-Serif" font-size="10.00" fill="#000000"> &lt; unsigned int, vectorization</text>
<text text-anchor="middle" x="134.5" y="-697" font-family="Helvetica,sans-Serif" font-size="10.00" fill="#000000">_width &gt;</text>
</g>
<!-- Node12&#45;&gt;Node8 -->
<g id="edge13" class="edge">
<title>Node12&#45;&gt;Node8</title>
<path fill="none" stroke="#ffa500" d="M289.1781,-429.9977C271.3336,-416.2755 252.0997,-401.4849 235.4257,-388.6628"/>
<polygon fill="#ffa500" stroke="#ffa500" points="287.2041,-432.8949 297.2649,-436.2164 291.4713,-427.3459 287.2041,-432.8949"/>
<text text-anchor="middle" x="283.5" y="-410" font-family="Helvetica,sans-Serif" font-size="10.00" fill="#000000"> &lt; 1 &gt;</text>
</g>
<!-- Node13&#45;&gt;Node1 -->
<g id="edge17" class="edge">
<title>Node13&#45;&gt;Node1</title>
<path fill="none" stroke="#404040" d="M616.9573,-193.3784C609.2803,-171.4988 598.4121,-140.5245 588.7723,-113.051"/>
<polygon fill="none" stroke="#404040" points="588.7021,-112.8509 582.9412,-108.5137 584.729,-101.5277 590.49,-105.8649 588.7021,-112.8509"/>
<text text-anchor="middle" x="661.5" y="-139.5" font-family="Helvetica,sans-Serif" font-size="10.00" fill="#000000"> +at_processor_boundary</text>
</g>
</g>
</svg>
