<?xml version="1.0" encoding="UTF-8" standalone="no"?>
<!DOCTYPE svg PUBLIC "-//W3C//DTD SVG 1.1//EN"
 "http://www.w3.org/Graphics/SVG/1.1/DTD/svg11.dtd">
<!-- Generated by graphviz version 2.40.1 (20161225.0304)
 -->
<!-- Title: internal::EvaluatorSelector&lt; MatrixFreeFunctions::truncated_tensor, is_long &gt; Pages: 1 -->
<svg width="169pt" height="193pt"
 viewBox="0.00 0.00 169.00 193.00" xmlns="http://www.w3.org/2000/svg" xmlns:xlink="http://www.w3.org/1999/xlink">
<g id="graph0" class="graph" transform="scale(1 1) rotate(0) translate(4 189)">
<title>internal::EvaluatorSelector&lt; MatrixFreeFunctions::truncated_tensor, is_long &gt;</title>
<polygon fill="#ffffff" stroke="transparent" points="-4,4 -4,-189 165,-189 165,4 -4,4"/>
<!-- Node1 -->
<g id="node1" class="node">
<title>Node1</title>
<polygon fill="#bfbfbf" stroke="#000000" points="0,-.5 0,-79.5 161,-79.5 161,-.5 0,-.5"/>
<text text-anchor="start" x="8" y="-67.5" font-family="Helvetica,sans-Serif" font-size="10.00" fill="#000000">internal::EvaluatorSelector</text>
<text text-anchor="start" x="8" y="-56.5" font-family="Helvetica,sans-Serif" font-size="10.00" fill="#000000">&lt; MatrixFreeFunctions::truncated</text>
<text text-anchor="middle" x="80.5" y="-45.5" font-family="Helvetica,sans-Serif" font-size="10.00" fill="#000000">_tensor, is_long &gt;</text>
<polyline fill="none" stroke="#000000" points="0,-38.5 161,-38.5 "/>
<text text-anchor="middle" x="80.5" y="-26.5" font-family="Helvetica,sans-Serif" font-size="10.00" fill="#000000"> </text>
<polyline fill="none" stroke="#000000" points="0,-19.5 161,-19.5 "/>
<text text-anchor="middle" x="80.5" y="-7.5" font-family="Helvetica,sans-Serif" font-size="10.00" fill="#000000"> </text>
</g>
<!-- Node2 -->
<g id="node2" class="node">
<title>Node2</title>
<polygon fill="#ffffff" stroke="#bfbfbf" points="9,-127.5 9,-184.5 152,-184.5 152,-127.5 9,-127.5"/>
<text text-anchor="middle" x="80.5" y="-172.5" font-family="Helvetica,sans-Serif" font-size="10.00" fill="#000000">static const EvaluatorVariant</text>
<polyline fill="none" stroke="#bfbfbf" points="9,-165.5 152,-165.5 "/>
<text text-anchor="middle" x="80.5" y="-153.5" font-family="Helvetica,sans-Serif" font-size="10.00" fill="#000000"> </text>
<polyline fill="none" stroke="#bfbfbf" points="9,-146.5 152,-146.5 "/>
<text text-anchor="middle" x="80.5" y="-134.5" font-family="Helvetica,sans-Serif" font-size="10.00" fill="#000000"> </text>
</g>
<!-- Node2&#45;&gt;Node1 -->
<g id="edge1" class="edge">
<title>Node2&#45;&gt;Node1</title>
<path fill="none" stroke="#404040" d="M80.5,-127.3258C80.5,-116.5576 80.5,-103.9593 80.5,-91.7364"/>
<polygon fill="none" stroke="#404040" points="80.5001,-91.7203 76.5,-85.7203 80.5,-79.7203 84.5,-85.7203 80.5001,-91.7203"/>
<text text-anchor="middle" x="100" y="-101" font-family="Helvetica,sans-Serif" font-size="10.00" fill="#000000"> +variant</text>
</g>
</g>
</svg>
