<?xml version="1.0" encoding="UTF-8" standalone="no"?>
<!DOCTYPE svg PUBLIC "-//W3C//DTD SVG 1.1//EN"
 "http://www.w3.org/Graphics/SVG/1.1/DTD/svg11.dtd">
<!-- Generated by graphviz version 2.40.1 (20161225.0304)
 -->
<!-- Title: mystl::deque_iterator&lt; T, Ref, Ptr &gt; Pages: 1 -->
<!--zoomable 463 -->
<svg id="main" version="1.1" xmlns="http://www.w3.org/2000/svg" xmlns:xlink="http://www.w3.org/1999/xlink" xml:space="preserve" onload="init(evt)">
<style type="text/css"><![CDATA[
.edge:hover path { stroke: red; }
.edge:hover polygon { stroke: red; fill: red; }
]]></style>
<script type="text/javascript"><![CDATA[
var edges = document.getElementsByTagName('g');
if (edges && edges.length) {
  for (var i=0;i<edges.length;i++) {
    if (edges[i].id.substr(0,4)=='edge') {
      edges[i].setAttribute('class','edge');
    }
  }
}
]]></script>
        <defs>
                <circle id="rim" cx="0" cy="0" r="7"/>
                <circle id="rim2" cx="0" cy="0" r="3.5"/>
                <g id="zoomPlus">
                        <use xlink:href="#rim" fill="#404040">
                                <set attributeName="fill" to="#808080" begin="zoomplus.mouseover" end="zoomplus.mouseout"/>
                        </use>
                        <path d="M-4,0h8M0,-4v8" fill="none" stroke="white" stroke-width="1.5" pointer-events="none"/>
                </g>
                <g id="zoomMin">
                        <use xlink:href="#rim" fill="#404040">
                                <set attributeName="fill" to="#808080" begin="zoomminus.mouseover" end="zoomminus.mouseout"/>
                        </use>
                        <path d="M-4,0h8" fill="none" stroke="white" stroke-width="1.5" pointer-events="none"/>
                </g>
                <g id="dirArrow">
                        <path fill="none" stroke="white" stroke-width="1.5" d="M0,-3.0v7 M-2.5,-0.5L0,-3.0L2.5,-0.5"/>
                </g>
               <g id="resetDef">
                       <use xlink:href="#rim2" fill="#404040">
                               <set attributeName="fill" to="#808080" begin="reset.mouseover" end="reset.mouseout"/>
                       </use>
               </g>
        </defs>

<script type="text/javascript">
var viewWidth = 323;
var viewHeight = 463;
var sectionId = 'dynsection-1';
</script>
<script xlink:href="svgpan.js"/>
<svg id="graph" class="graph">
<g id="viewport">
<title>mystl::deque_iterator&lt; T, Ref, Ptr &gt;</title>
<polygon fill="#ffffff" stroke="transparent" points="-4,4 -4,-459 318.5,-459 318.5,4 -4,4"/>
<!-- Node4 -->
<g id="node1" class="node">
<title>Node4</title>
<polygon fill="#bfbfbf" stroke="#000000" points="154,-.5 154,-178.5 262,-178.5 262,-.5 154,-.5"/>
<text text-anchor="start" x="162" y="-166.5" font-family="Helvetica,sans-Serif" font-size="10.00" fill="#000000">mystl::deque_iterator</text>
<text text-anchor="middle" x="208" y="-155.5" font-family="Helvetica,sans-Serif" font-size="10.00" fill="#000000">&lt; T, Ref, Ptr &gt;</text>
<polyline fill="none" stroke="#000000" points="154,-148.5 262,-148.5 "/>
<text text-anchor="middle" x="208" y="-136.5" font-family="Helvetica,sans-Serif" font-size="10.00" fill="#000000"> </text>
<polyline fill="none" stroke="#000000" points="154,-129.5 262,-129.5 "/>
<text text-anchor="start" x="162" y="-117.5" font-family="Helvetica,sans-Serif" font-size="10.00" fill="#000000">+ deque_iterator()</text>
<text text-anchor="start" x="162" y="-106.5" font-family="Helvetica,sans-Serif" font-size="10.00" fill="#000000">+ deque_iterator()</text>
<text text-anchor="start" x="162" y="-95.5" font-family="Helvetica,sans-Serif" font-size="10.00" fill="#000000">+ deque_iterator()</text>
<text text-anchor="start" x="162" y="-84.5" font-family="Helvetica,sans-Serif" font-size="10.00" fill="#000000">+ deque_iterator()</text>
<text text-anchor="start" x="162" y="-73.5" font-family="Helvetica,sans-Serif" font-size="10.00" fill="#000000">+ deque_iterator()</text>
<text text-anchor="start" x="162" y="-62.5" font-family="Helvetica,sans-Serif" font-size="10.00" fill="#000000">+ operator=()</text>
<text text-anchor="start" x="162" y="-51.5" font-family="Helvetica,sans-Serif" font-size="10.00" fill="#000000">+ set_node()</text>
<text text-anchor="start" x="162" y="-40.5" font-family="Helvetica,sans-Serif" font-size="10.00" fill="#000000">+ operator*()</text>
<text text-anchor="start" x="162" y="-29.5" font-family="Helvetica,sans-Serif" font-size="10.00" fill="#000000">+ operator&#45;&gt;()</text>
<text text-anchor="start" x="162" y="-18.5" font-family="Helvetica,sans-Serif" font-size="10.00" fill="#000000">+ operator&#45;()</text>
<text text-anchor="start" x="162" y="-7.5" font-family="Helvetica,sans-Serif" font-size="10.00" fill="#000000">and 15 more...</text>
</g>
<!-- Node5 -->
<g id="node2" class="node">
<title>Node5</title>
<g id="a_node2"><a xlink:href="structmystl_1_1iterator.html" target="_top" xlink:title="{mystl::iterator\&lt; random\l_access_iterator_tag, T \&gt;\n||}">
<polygon fill="#ffffff" stroke="#000000" points="0,-248.5 0,-316.5 128,-316.5 128,-248.5 0,-248.5"/>
<text text-anchor="start" x="8" y="-304.5" font-family="Helvetica,sans-Serif" font-size="10.00" fill="#000000">mystl::iterator&lt; random</text>
<text text-anchor="middle" x="64" y="-293.5" font-family="Helvetica,sans-Serif" font-size="10.00" fill="#000000">_access_iterator_tag, T &gt;</text>
<polyline fill="none" stroke="#000000" points="0,-286.5 128,-286.5 "/>
<text text-anchor="middle" x="64" y="-274.5" font-family="Helvetica,sans-Serif" font-size="10.00" fill="#000000"> </text>
<polyline fill="none" stroke="#000000" points="0,-267.5 128,-267.5 "/>
<text text-anchor="middle" x="64" y="-255.5" font-family="Helvetica,sans-Serif" font-size="10.00" fill="#000000"> </text>
</a>
</g>
</g>
<!-- Node5&#45;&gt;Node4 -->
<g id="edge1" class="edge">
<title>Node5&#45;&gt;Node4</title>
<path fill="none" stroke="#191970" d="M95.496,-240.2866C112.5946,-217.3697 134.2105,-188.3985 153.9148,-161.9892"/>
<polygon fill="none" stroke="#191970" points="92.5877,-238.3318 89.4128,-248.4397 98.1982,-242.5178 92.5877,-238.3318"/>
</g>
<!-- Node6 -->
<g id="node3" class="node">
<title>Node6</title>
<g id="a_node3"><a xlink:href="structmystl_1_1iterator.html" target="_top" xlink:title="{mystl::iterator\&lt; Category,\l T, Distance, Pointer,\l Reference \&gt;\n||}">
<polygon fill="#ffffff" stroke="#000000" points="0,-375.5 0,-454.5 128,-454.5 128,-375.5 0,-375.5"/>
<text text-anchor="start" x="8" y="-442.5" font-family="Helvetica,sans-Serif" font-size="10.00" fill="#000000">mystl::iterator&lt; Category,</text>
<text text-anchor="start" x="8" y="-431.5" font-family="Helvetica,sans-Serif" font-size="10.00" fill="#000000"> T, Distance, Pointer,</text>
<text text-anchor="middle" x="64" y="-420.5" font-family="Helvetica,sans-Serif" font-size="10.00" fill="#000000"> Reference &gt;</text>
<polyline fill="none" stroke="#000000" points="0,-413.5 128,-413.5 "/>
<text text-anchor="middle" x="64" y="-401.5" font-family="Helvetica,sans-Serif" font-size="10.00" fill="#000000"> </text>
<polyline fill="none" stroke="#000000" points="0,-394.5 128,-394.5 "/>
<text text-anchor="middle" x="64" y="-382.5" font-family="Helvetica,sans-Serif" font-size="10.00" fill="#000000"> </text>
</a>
</g>
</g>
<!-- Node6&#45;&gt;Node5 -->
<g id="edge2" class="edge">
<title>Node6&#45;&gt;Node5</title>
<path fill="none" stroke="#ffa500" d="M64,-364.9391C64,-348.8943 64,-331.4999 64,-316.8429"/>
<polygon fill="#ffa500" stroke="#ffa500" points="60.5001,-365.2456 64,-375.2456 67.5001,-365.2457 60.5001,-365.2456"/>
<text text-anchor="start" x="64" y="-349" font-family="Helvetica,sans-Serif" font-size="10.00" fill="#000000"> &lt; random_access_iterator</text>
<text text-anchor="middle" x="122.5" y="-338" font-family="Helvetica,sans-Serif" font-size="10.00" fill="#000000">_tag, T &gt;</text>
</g>
<!-- Node7 -->
<g id="node4" class="node">
<title>Node7</title>
<polygon fill="#ffffff" stroke="#bfbfbf" points="146.5,-254 146.5,-311 189.5,-311 189.5,-254 146.5,-254"/>
<text text-anchor="middle" x="168" y="-299" font-family="Helvetica,sans-Serif" font-size="10.00" fill="#000000">size_t</text>
<polyline fill="none" stroke="#bfbfbf" points="146.5,-292 189.5,-292 "/>
<text text-anchor="middle" x="168" y="-280" font-family="Helvetica,sans-Serif" font-size="10.00" fill="#000000"> </text>
<polyline fill="none" stroke="#bfbfbf" points="146.5,-273 189.5,-273 "/>
<text text-anchor="middle" x="168" y="-261" font-family="Helvetica,sans-Serif" font-size="10.00" fill="#000000"> </text>
</g>
<!-- Node7&#45;&gt;Node4 -->
<g id="edge3" class="edge">
<title>Node7&#45;&gt;Node4</title>
<path fill="none" stroke="#404040" d="M165.9506,-253.7711C165.3508,-237.0698 165.6008,-215.6948 169,-197 169.3957,-194.8239 169.8308,-192.6336 170.3011,-190.4344"/>
<polygon fill="none" stroke="#404040" points="170.3355,-190.2905 167.8419,-183.5242 173.1286,-178.62 175.6222,-185.3863 170.3355,-190.2905"/>
<text text-anchor="middle" x="198" y="-211" font-family="Helvetica,sans-Serif" font-size="10.00" fill="#000000"> +buffer_size</text>
</g>
<!-- Node8 -->
<g id="node5" class="node">
<title>Node8</title>
<polygon fill="#ffffff" stroke="#bfbfbf" points="234.5,-254 234.5,-311 263.5,-311 263.5,-254 234.5,-254"/>
<text text-anchor="middle" x="249" y="-299" font-family="Helvetica,sans-Serif" font-size="10.00" fill="#000000">T *</text>
<polyline fill="none" stroke="#bfbfbf" points="234.5,-292 263.5,-292 "/>
<text text-anchor="middle" x="249" y="-280" font-family="Helvetica,sans-Serif" font-size="10.00" fill="#000000"> </text>
<polyline fill="none" stroke="#bfbfbf" points="234.5,-273 263.5,-273 "/>
<text text-anchor="middle" x="249" y="-261" font-family="Helvetica,sans-Serif" font-size="10.00" fill="#000000"> </text>
</g>
<!-- Node8&#45;&gt;Node4 -->
<g id="edge4" class="edge">
<title>Node8&#45;&gt;Node4</title>
<path fill="none" stroke="#404040" d="M242.8619,-253.6059C239.2475,-236.5918 234.4361,-213.943 229.5451,-190.9198"/>
<polygon fill="none" stroke="#404040" points="229.4798,-190.6119 224.3203,-185.5741 226.9862,-178.8738 232.1457,-183.9117 229.4798,-190.6119"/>
<text text-anchor="middle" x="249" y="-222" font-family="Helvetica,sans-Serif" font-size="10.00" fill="#000000"> +first</text>
<text text-anchor="middle" x="249" y="-211" font-family="Helvetica,sans-Serif" font-size="10.00" fill="#000000">+cur</text>
<text text-anchor="middle" x="249" y="-200" font-family="Helvetica,sans-Serif" font-size="10.00" fill="#000000">+last</text>
</g>
<!-- Node9 -->
<g id="node6" class="node">
<title>Node9</title>
<polygon fill="#ffffff" stroke="#bfbfbf" points="281.5,-254 281.5,-311 314.5,-311 314.5,-254 281.5,-254"/>
<text text-anchor="middle" x="298" y="-299" font-family="Helvetica,sans-Serif" font-size="10.00" fill="#000000">T **</text>
<polyline fill="none" stroke="#bfbfbf" points="281.5,-292 314.5,-292 "/>
<text text-anchor="middle" x="298" y="-280" font-family="Helvetica,sans-Serif" font-size="10.00" fill="#000000"> </text>
<polyline fill="none" stroke="#bfbfbf" points="281.5,-273 314.5,-273 "/>
<text text-anchor="middle" x="298" y="-261" font-family="Helvetica,sans-Serif" font-size="10.00" fill="#000000"> </text>
</g>
<!-- Node9&#45;&gt;Node4 -->
<g id="edge5" class="edge">
<title>Node9&#45;&gt;Node4</title>
<path fill="none" stroke="#404040" d="M288.4317,-253.9946C282.5166,-237.1794 274.4572,-215.6145 266,-197 264.8953,-194.5685 263.7589,-192.1161 262.5967,-189.6507"/>
<polygon fill="none" stroke="#404040" points="262.5675,-189.5902 256.3576,-185.9246 257.3528,-178.7825 263.5627,-182.4481 262.5675,-189.5902"/>
<text text-anchor="middle" x="294.5" y="-211" font-family="Helvetica,sans-Serif" font-size="10.00" fill="#000000"> +node</text>
</g>
</g>
</svg>
        <g id="navigator" transform="translate(0 0)" fill="#404254">
                <rect fill="#f2f5e9" fill-opacity="0.5" stroke="#606060" stroke-width=".5" x="0" y="0" width="60" height="60"/>
                <use id="zoomplus" xlink:href="#zoomPlus" x="17" y="9" onmousedown="handleZoom(evt,'in')"/>
                <use id="zoomminus" xlink:href="#zoomMin" x="42" y="9" onmousedown="handleZoom(evt,'out')"/>
                <use id="reset" xlink:href="#resetDef" x="30" y="36" onmousedown="handleReset()"/>
                <g id="arrowUp" xlink:href="#dirArrow" transform="translate(30 24)" onmousedown="handlePan(0,-1)">
                  <use xlink:href="#rim" fill="#404040">
                        <set attributeName="fill" to="#808080" begin="arrowUp.mouseover" end="arrowUp.mouseout"/>
                  </use>
                  <path fill="none" stroke="white" stroke-width="1.5" d="M0,-3.0v7 M-2.5,-0.5L0,-3.0L2.5,-0.5"/>
                </g>
                <g id="arrowRight" xlink:href="#dirArrow" transform="rotate(90) translate(36 -43)" onmousedown="handlePan(1,0)">
                  <use xlink:href="#rim" fill="#404040">
                        <set attributeName="fill" to="#808080" begin="arrowRight.mouseover" end="arrowRight.mouseout"/>
                  </use>
                  <path fill="none" stroke="white" stroke-width="1.5" d="M0,-3.0v7 M-2.5,-0.5L0,-3.0L2.5,-0.5"/>
                </g>
                <g id="arrowDown" xlink:href="#dirArrow" transform="rotate(180) translate(-30 -48)" onmousedown="handlePan(0,1)">
                  <use xlink:href="#rim" fill="#404040">
                        <set attributeName="fill" to="#808080" begin="arrowDown.mouseover" end="arrowDown.mouseout"/>
                  </use>
                  <path fill="none" stroke="white" stroke-width="1.5" d="M0,-3.0v7 M-2.5,-0.5L0,-3.0L2.5,-0.5"/>
                </g>
                <g id="arrowLeft" xlink:href="#dirArrow" transform="rotate(270) translate(-36 17)" onmousedown="handlePan(-1,0)">
                  <use xlink:href="#rim" fill="#404040">
                        <set attributeName="fill" to="#808080" begin="arrowLeft.mouseover" end="arrowLeft.mouseout"/>
                  </use>
                  <path fill="none" stroke="white" stroke-width="1.5" d="M0,-3.0v7 M-2.5,-0.5L0,-3.0L2.5,-0.5"/>
                </g>
        </g>
        <svg viewBox="0 0 15 15" width="100%" height="30px" preserveAspectRatio="xMaxYMin meet">
         <g id="arrow_out" transform="scale(0.3 0.3)">
          <a xlink:href="structmystl_1_1deque__iterator__coll__graph_org.svg" target="_base">
           <rect id="button" ry="5" rx="5" y="6" x="6" height="38" width="38"
                fill="#f2f5e9" fill-opacity="0.5" stroke="#606060" stroke-width="1.0"/>
           <path id="arrow"
             d="M 11.500037,31.436501 C 11.940474,20.09759 22.043105,11.32322 32.158766,21.979434 L 37.068811,17.246167 C 37.068811,17.246167 37.088388,32 37.088388,32 L 22.160133,31.978069 C 22.160133,31.978069 26.997745,27.140456 26.997745,27.140456 C 18.528582,18.264221 13.291696,25.230495 11.500037,31.436501 z"
             style="fill:#404040;"/>
          </a>
         </g>
        </svg>
</svg>
