<?xml version="1.0" encoding="UTF-8" standalone="no"?>
<!DOCTYPE svg PUBLIC "-//W3C//DTD SVG 1.1//EN"
 "http://www.w3.org/Graphics/SVG/1.1/DTD/svg11.dtd">
<!-- Generated by graphviz version 2.40.1 (20161225.0304)
 -->
<!-- Title: parallel::internal::ParallelForWrapper Pages: 1 -->
<svg width="138pt" height="215pt"
 viewBox="0.00 0.00 138.00 215.00" xmlns="http://www.w3.org/2000/svg" xmlns:xlink="http://www.w3.org/1999/xlink">
<g id="graph0" class="graph" transform="scale(1 1) rotate(0) translate(4 211)">
<title>parallel::internal::ParallelForWrapper</title>
<polygon fill="#ffffff" stroke="transparent" points="-4,4 -4,-211 134,-211 134,4 -4,4"/>
<!-- Node1 -->
<g id="node1" class="node">
<title>Node1</title>
<polygon fill="#bfbfbf" stroke="#000000" points="7.5,-.5 7.5,-79.5 122.5,-79.5 122.5,-.5 7.5,-.5"/>
<text text-anchor="start" x="15.5" y="-67.5" font-family="Helvetica,sans-Serif" font-size="10.00" fill="#000000">parallel::internal</text>
<text text-anchor="middle" x="65" y="-56.5" font-family="Helvetica,sans-Serif" font-size="10.00" fill="#000000">::ParallelForWrapper</text>
<polyline fill="none" stroke="#000000" points="7.5,-49.5 122.5,-49.5 "/>
<text text-anchor="middle" x="65" y="-37.5" font-family="Helvetica,sans-Serif" font-size="10.00" fill="#000000"> </text>
<polyline fill="none" stroke="#000000" points="7.5,-30.5 122.5,-30.5 "/>
<text text-anchor="start" x="15.5" y="-18.5" font-family="Helvetica,sans-Serif" font-size="10.00" fill="#000000">+ ParallelForWrapper()</text>
<text text-anchor="start" x="15.5" y="-7.5" font-family="Helvetica,sans-Serif" font-size="10.00" fill="#000000">+ operator()()</text>
</g>
<!-- Node2 -->
<g id="node2" class="node">
<title>Node2</title>
<g id="a_node2"><a xlink:href="structparallel_1_1ParallelForInteger.html" target="_top" xlink:title="{parallel::ParallelForInteger\n||+ ~ParallelForInteger()\l+ apply_parallel()\l+ apply_to_subrange()\l}">
<polygon fill="#ffffff" stroke="#000000" points="0,-127.5 0,-206.5 130,-206.5 130,-127.5 0,-127.5"/>
<text text-anchor="middle" x="65" y="-194.5" font-family="Helvetica,sans-Serif" font-size="10.00" fill="#000000">parallel::ParallelForInteger</text>
<polyline fill="none" stroke="#000000" points="0,-187.5 130,-187.5 "/>
<text text-anchor="middle" x="65" y="-175.5" font-family="Helvetica,sans-Serif" font-size="10.00" fill="#000000"> </text>
<polyline fill="none" stroke="#000000" points="0,-168.5 130,-168.5 "/>
<text text-anchor="start" x="8" y="-156.5" font-family="Helvetica,sans-Serif" font-size="10.00" fill="#000000">+ ~ParallelForInteger()</text>
<text text-anchor="start" x="8" y="-145.5" font-family="Helvetica,sans-Serif" font-size="10.00" fill="#000000">+ apply_parallel()</text>
<text text-anchor="start" x="8" y="-134.5" font-family="Helvetica,sans-Serif" font-size="10.00" fill="#000000">+ apply_to_subrange()</text>
</a>
</g>
</g>
<!-- Node2&#45;&gt;Node1 -->
<g id="edge1" class="edge">
<title>Node2&#45;&gt;Node1</title>
<path fill="none" stroke="#404040" d="M65,-127.1649C65,-115.935 65,-103.5529 65,-91.7342"/>
<polygon fill="none" stroke="#404040" points="65.0001,-91.6938 61,-85.6938 65,-79.6938 69,-85.6938 65.0001,-91.6938"/>
<text text-anchor="middle" x="87" y="-101" font-family="Helvetica,sans-Serif" font-size="10.00" fill="#000000"> +worker_</text>
</g>
</g>
</svg>
