<?xml version="1.0" encoding="UTF-8" standalone="no"?>
<!DOCTYPE svg PUBLIC "-//W3C//DTD SVG 1.1//EN"
 "http://www.w3.org/Graphics/SVG/1.1/DTD/svg11.dtd">
<!-- Generated by graphviz version 2.40.1 (20161225.0304)
 -->
<!-- Title: internal::MatrixSelector&lt; VectorType &gt; Pages: 1 -->
<svg width="161pt" height="193pt"
 viewBox="0.00 0.00 160.50 193.00" xmlns="http://www.w3.org/2000/svg" xmlns:xlink="http://www.w3.org/1999/xlink">
<g id="graph0" class="graph" transform="scale(1 1) rotate(0) translate(4 189)">
<title>internal::MatrixSelector&lt; VectorType &gt;</title>
<polygon fill="#ffffff" stroke="transparent" points="-4,4 -4,-189 156.5,-189 156.5,4 -4,4"/>
<!-- Node1 -->
<g id="node1" class="node">
<title>Node1</title>
<polygon fill="#bfbfbf" stroke="#000000" points="0,-.5 0,-68.5 117,-68.5 117,-.5 0,-.5"/>
<text text-anchor="start" x="8" y="-56.5" font-family="Helvetica,sans-Serif" font-size="10.00" fill="#000000">internal::MatrixSelector</text>
<text text-anchor="middle" x="58.5" y="-45.5" font-family="Helvetica,sans-Serif" font-size="10.00" fill="#000000">&lt; VectorType &gt;</text>
<polyline fill="none" stroke="#000000" points="0,-38.5 117,-38.5 "/>
<text text-anchor="middle" x="58.5" y="-26.5" font-family="Helvetica,sans-Serif" font-size="10.00" fill="#000000"> </text>
<polyline fill="none" stroke="#000000" points="0,-19.5 117,-19.5 "/>
<text text-anchor="start" x="8" y="-7.5" font-family="Helvetica,sans-Serif" font-size="10.00" fill="#000000">+ reinit()</text>
</g>
<!-- Node2 -->
<g id="node2" class="node">
<title>Node2</title>
<g id="a_node2"><a xlink:href="classbool.html" target="_top" xlink:title="{bool\n||}">
<polygon fill="#ffffff" stroke="#000000" points="41,-127.5 41,-184.5 76,-184.5 76,-127.5 41,-127.5"/>
<text text-anchor="middle" x="58.5" y="-172.5" font-family="Helvetica,sans-Serif" font-size="10.00" fill="#000000">bool</text>
<polyline fill="none" stroke="#000000" points="41,-165.5 76,-165.5 "/>
<text text-anchor="middle" x="58.5" y="-153.5" font-family="Helvetica,sans-Serif" font-size="10.00" fill="#000000"> </text>
<polyline fill="none" stroke="#000000" points="41,-146.5 76,-146.5 "/>
<text text-anchor="middle" x="58.5" y="-134.5" font-family="Helvetica,sans-Serif" font-size="10.00" fill="#000000"> </text>
</a>
</g>
</g>
<!-- Node2&#45;&gt;Node1 -->
<g id="edge1" class="edge">
<title>Node2&#45;&gt;Node1</title>
<path fill="none" stroke="#404040" d="M58.5,-127.2062C58.5,-113.3632 58.5,-96.4255 58.5,-80.8327"/>
<polygon fill="none" stroke="#404040" points="58.5001,-80.7007 54.5,-74.7008 58.5,-68.7007 62.5,-74.7007 58.5001,-80.7007"/>
<text text-anchor="start" x="58.5" y="-101" font-family="Helvetica,sans-Serif" font-size="10.00" fill="#000000"> +requires_distributed</text>
<text text-anchor="middle" x="105.5" y="-90" font-family="Helvetica,sans-Serif" font-size="10.00" fill="#000000">_sparsity_pattern</text>
</g>
</g>
</svg>
