<?xml version="1.0" encoding="UTF-8" standalone="no"?>
<!DOCTYPE svg PUBLIC "-//W3C//DTD SVG 1.1//EN"
 "http://www.w3.org/Graphics/SVG/1.1/DTD/svg11.dtd">
<!-- Generated by graphviz version 2.40.1 (20161225.0304)
 -->
<!-- Title: DataOutBase::UcdFlags Pages: 1 -->
<svg width="143pt" height="354pt"
 viewBox="0.00 0.00 143.00 354.00" xmlns="http://www.w3.org/2000/svg" xmlns:xlink="http://www.w3.org/1999/xlink">
<g id="graph0" class="graph" transform="scale(1 1) rotate(0) translate(4 350)">
<title>DataOutBase::UcdFlags</title>
<polygon fill="#ffffff" stroke="transparent" points="-4,4 -4,-350 139,-350 139,4 -4,4"/>
<!-- Node0 -->
<g id="node1" class="node">
<title>Node0</title>
<polygon fill="#bfbfbf" stroke="#000000" points="5.5,-.5 5.5,-79.5 129.5,-79.5 129.5,-.5 5.5,-.5"/>
<text text-anchor="middle" x="67.5" y="-67.5" font-family="Helvetica,sans-Serif" font-size="10.00" fill="#000000">DataOutBase::UcdFlags</text>
<polyline fill="none" stroke="#000000" points="5.5,-60.5 129.5,-60.5 "/>
<text text-anchor="start" x="13.5" y="-48.5" font-family="Helvetica,sans-Serif" font-size="10.00" fill="#000000">+ write_preamble</text>
<polyline fill="none" stroke="#000000" points="5.5,-41.5 129.5,-41.5 "/>
<text text-anchor="start" x="13.5" y="-29.5" font-family="Helvetica,sans-Serif" font-size="10.00" fill="#000000">+ UcdFlags()</text>
<text text-anchor="start" x="13.5" y="-18.5" font-family="Helvetica,sans-Serif" font-size="10.00" fill="#000000">+ parse_parameters()</text>
<text text-anchor="start" x="13.5" y="-7.5" font-family="Helvetica,sans-Serif" font-size="10.00" fill="#000000">+ declare_parameters()</text>
</g>
<!-- Node1 -->
<g id="node2" class="node">
<title>Node1</title>
<g id="a_node2"><a xlink:href="structDataOutBase_1_1OutputFlagsBase.html" target="_top" xlink:title="{DataOutBase::OutputFlags\lBase\&lt; UcdFlags \&gt;\n||+ parse_parameters()\l+ memory_consumption()\l+ declare_parameters()\l}">
<polygon fill="#ffffff" stroke="#000000" points="0,-117.5 0,-207.5 135,-207.5 135,-117.5 0,-117.5"/>
<text text-anchor="start" x="8" y="-195.5" font-family="Helvetica,sans-Serif" font-size="10.00" fill="#000000">DataOutBase::OutputFlags</text>
<text text-anchor="middle" x="67.5" y="-184.5" font-family="Helvetica,sans-Serif" font-size="10.00" fill="#000000">Base&lt; UcdFlags &gt;</text>
<polyline fill="none" stroke="#000000" points="0,-177.5 135,-177.5 "/>
<text text-anchor="middle" x="67.5" y="-165.5" font-family="Helvetica,sans-Serif" font-size="10.00" fill="#000000"> </text>
<polyline fill="none" stroke="#000000" points="0,-158.5 135,-158.5 "/>
<text text-anchor="start" x="8" y="-146.5" font-family="Helvetica,sans-Serif" font-size="10.00" fill="#000000">+ parse_parameters()</text>
<text text-anchor="start" x="8" y="-135.5" font-family="Helvetica,sans-Serif" font-size="10.00" fill="#000000">+ memory_consumption()</text>
<text text-anchor="start" x="8" y="-124.5" font-family="Helvetica,sans-Serif" font-size="10.00" fill="#000000">+ declare_parameters()</text>
</a>
</g>
</g>
<!-- Node1&#45;&gt;Node0 -->
<g id="edge1" class="edge">
<title>Node1&#45;&gt;Node0</title>
<path fill="none" stroke="#191970" d="M67.5,-107.0079C67.5,-97.8464 67.5,-88.5116 67.5,-79.8331"/>
<polygon fill="none" stroke="#191970" points="64.0001,-107.2335 67.5,-117.2336 71.0001,-107.2336 64.0001,-107.2335"/>
</g>
<!-- Node2 -->
<g id="node3" class="node">
<title>Node2</title>
<g id="a_node3"><a xlink:href="structDataOutBase_1_1OutputFlagsBase.html" target="_top" xlink:title="{DataOutBase::OutputFlags\lBase\&lt; FlagsType \&gt;\n||+ parse_parameters()\l+ memory_consumption()\l+ declare_parameters()\l}">
<polygon fill="#ffffff" stroke="#000000" points="0,-255.5 0,-345.5 135,-345.5 135,-255.5 0,-255.5"/>
<text text-anchor="start" x="8" y="-333.5" font-family="Helvetica,sans-Serif" font-size="10.00" fill="#000000">DataOutBase::OutputFlags</text>
<text text-anchor="middle" x="67.5" y="-322.5" font-family="Helvetica,sans-Serif" font-size="10.00" fill="#000000">Base&lt; FlagsType &gt;</text>
<polyline fill="none" stroke="#000000" points="0,-315.5 135,-315.5 "/>
<text text-anchor="middle" x="67.5" y="-303.5" font-family="Helvetica,sans-Serif" font-size="10.00" fill="#000000"> </text>
<polyline fill="none" stroke="#000000" points="0,-296.5 135,-296.5 "/>
<text text-anchor="start" x="8" y="-284.5" font-family="Helvetica,sans-Serif" font-size="10.00" fill="#000000">+ parse_parameters()</text>
<text text-anchor="start" x="8" y="-273.5" font-family="Helvetica,sans-Serif" font-size="10.00" fill="#000000">+ memory_consumption()</text>
<text text-anchor="start" x="8" y="-262.5" font-family="Helvetica,sans-Serif" font-size="10.00" fill="#000000">+ declare_parameters()</text>
</a>
</g>
</g>
<!-- Node2&#45;&gt;Node1 -->
<g id="edge2" class="edge">
<title>Node2&#45;&gt;Node1</title>
<path fill="none" stroke="#ffa500" d="M67.5,-245.089C67.5,-232.7026 67.5,-219.7078 67.5,-207.7879"/>
<polygon fill="#ffa500" stroke="#ffa500" points="64.0001,-245.3136 67.5,-255.3136 71.0001,-245.3137 64.0001,-245.3136"/>
<text text-anchor="middle" x="99.5" y="-229" font-family="Helvetica,sans-Serif" font-size="10.00" fill="#000000"> &lt; UcdFlags &gt;</text>
</g>
</g>
</svg>
