<?xml version="1.0" encoding="UTF-8" standalone="no"?>
<!DOCTYPE svg PUBLIC "-//W3C//DTD SVG 1.1//EN"
 "http://www.w3.org/Graphics/SVG/1.1/DTD/svg11.dtd">
<!-- Generated by graphviz version 2.40.1 (20161225.0304)
 -->
<!-- Title: mystl::rb_tree_iterator&lt; T &gt; Pages: 1 -->
<svg width="170pt" height="275pt"
 viewBox="0.00 0.00 170.00 275.00" xmlns="http://www.w3.org/2000/svg" xmlns:xlink="http://www.w3.org/1999/xlink">
<g id="graph0" class="graph" transform="scale(1 1) rotate(0) translate(4 271)">
<title>mystl::rb_tree_iterator&lt; T &gt;</title>
<polygon fill="#ffffff" stroke="transparent" points="-4,4 -4,-271 166,-271 166,4 -4,4"/>
<!-- Node0 -->
<g id="node1" class="node">
<title>Node0</title>
<polygon fill="#bfbfbf" stroke="#000000" points="0,-.5 0,-19.5 136,-19.5 136,-.5 0,-.5"/>
<text text-anchor="middle" x="68" y="-7.5" font-family="Helvetica,sans-Serif" font-size="10.00" fill="#000000">mystl::rb_tree_iterator&lt; T &gt;</text>
</g>
<!-- Node1 -->
<g id="node2" class="node">
<title>Node1</title>
<g id="a_node2"><a xlink:href="structmystl_1_1rb__tree__iterator__base.html" target="_top" xlink:title="mystl::rb_tree_iterator\l_base\&lt; T \&gt;">
<polygon fill="#ffffff" stroke="#000000" points="12,-57.5 12,-87.5 124,-87.5 124,-57.5 12,-57.5"/>
<text text-anchor="start" x="20" y="-75.5" font-family="Helvetica,sans-Serif" font-size="10.00" fill="#000000">mystl::rb_tree_iterator</text>
<text text-anchor="middle" x="68" y="-64.5" font-family="Helvetica,sans-Serif" font-size="10.00" fill="#000000">_base&lt; T &gt;</text>
</a>
</g>
</g>
<!-- Node1&#45;&gt;Node0 -->
<g id="edge1" class="edge">
<title>Node1&#45;&gt;Node0</title>
<path fill="none" stroke="#191970" d="M68,-47.3498C68,-37.6481 68,-27.1303 68,-19.7356"/>
<polygon fill="#191970" stroke="#191970" points="64.5001,-47.3705 68,-57.3705 71.5001,-47.3705 64.5001,-47.3705"/>
</g>
<!-- Node2 -->
<g id="node3" class="node">
<title>Node2</title>
<g id="a_node3"><a xlink:href="structmystl_1_1iterator.html" target="_top" xlink:title="mystl::iterator\&lt; mystl\l::bidirectional_iterator\l_tag, T \&gt;">
<polygon fill="#ffffff" stroke="#000000" points="13,-125.5 13,-166.5 123,-166.5 123,-125.5 13,-125.5"/>
<text text-anchor="start" x="21" y="-154.5" font-family="Helvetica,sans-Serif" font-size="10.00" fill="#000000">mystl::iterator&lt; mystl</text>
<text text-anchor="start" x="21" y="-143.5" font-family="Helvetica,sans-Serif" font-size="10.00" fill="#000000">::bidirectional_iterator</text>
<text text-anchor="middle" x="68" y="-132.5" font-family="Helvetica,sans-Serif" font-size="10.00" fill="#000000">_tag, T &gt;</text>
</a>
</g>
</g>
<!-- Node2&#45;&gt;Node1 -->
<g id="edge2" class="edge">
<title>Node2&#45;&gt;Node1</title>
<path fill="none" stroke="#191970" d="M68,-114.9048C68,-105.5365 68,-95.666 68,-87.8074"/>
<polygon fill="#191970" stroke="#191970" points="64.5001,-115.1344 68,-125.1345 71.5001,-115.1345 64.5001,-115.1344"/>
</g>
<!-- Node3 -->
<g id="node4" class="node">
<title>Node3</title>
<g id="a_node4"><a xlink:href="structmystl_1_1iterator.html" target="_top" xlink:title="mystl::iterator\&lt; Category,\l T, Distance, Pointer,\l Reference \&gt;">
<polygon fill="#ffffff" stroke="#000000" points="4,-225.5 4,-266.5 132,-266.5 132,-225.5 4,-225.5"/>
<text text-anchor="start" x="12" y="-254.5" font-family="Helvetica,sans-Serif" font-size="10.00" fill="#000000">mystl::iterator&lt; Category,</text>
<text text-anchor="start" x="12" y="-243.5" font-family="Helvetica,sans-Serif" font-size="10.00" fill="#000000"> T, Distance, Pointer,</text>
<text text-anchor="middle" x="68" y="-232.5" font-family="Helvetica,sans-Serif" font-size="10.00" fill="#000000"> Reference &gt;</text>
</a>
</g>
</g>
<!-- Node3&#45;&gt;Node2 -->
<g id="edge3" class="edge">
<title>Node3&#45;&gt;Node2</title>
<path fill="none" stroke="#ffa500" stroke-dasharray="5,2" d="M68,-214.9703C68,-199.2668 68,-180.6321 68,-166.6935"/>
<polygon fill="#ffa500" stroke="#ffa500" points="64.5001,-215.2799 68,-225.2799 71.5001,-215.28 64.5001,-215.2799"/>
<text text-anchor="start" x="68" y="-199" font-family="Helvetica,sans-Serif" font-size="10.00" fill="#000000"> &lt; mystl::bidirectional</text>
<text text-anchor="middle" x="115" y="-188" font-family="Helvetica,sans-Serif" font-size="10.00" fill="#000000">_iterator_tag, T &gt;</text>
</g>
</g>
</svg>
