<?xml version="1.0" encoding="UTF-8" standalone="no"?>
<!DOCTYPE svg PUBLIC "-//W3C//DTD SVG 1.1//EN"
 "http://www.w3.org/Graphics/SVG/1.1/DTD/svg11.dtd">
<!-- Generated by graphviz version 2.40.1 (20161225.0304)
 -->
<!-- Title: Timer::ClockMeasurements&lt; clock_type_ &gt; Pages: 1 -->
<svg width="234pt" height="204pt"
 viewBox="0.00 0.00 233.50 204.00" xmlns="http://www.w3.org/2000/svg" xmlns:xlink="http://www.w3.org/1999/xlink">
<g id="graph0" class="graph" transform="scale(1 1) rotate(0) translate(4 200)">
<title>Timer::ClockMeasurements&lt; clock_type_ &gt;</title>
<polygon fill="#ffffff" stroke="transparent" points="-4,4 -4,-200 229.5,-200 229.5,4 -4,4"/>
<!-- Node3 -->
<g id="node1" class="node">
<title>Node3</title>
<polygon fill="#bfbfbf" stroke="#000000" points="11,-.5 11,-79.5 148,-79.5 148,-.5 11,-.5"/>
<text text-anchor="start" x="19" y="-67.5" font-family="Helvetica,sans-Serif" font-size="10.00" fill="#000000">Timer::ClockMeasurements</text>
<text text-anchor="middle" x="79.5" y="-56.5" font-family="Helvetica,sans-Serif" font-size="10.00" fill="#000000">&lt; clock_type_ &gt;</text>
<polyline fill="none" stroke="#000000" points="11,-49.5 148,-49.5 "/>
<text text-anchor="middle" x="79.5" y="-37.5" font-family="Helvetica,sans-Serif" font-size="10.00" fill="#000000"> </text>
<polyline fill="none" stroke="#000000" points="11,-30.5 148,-30.5 "/>
<text text-anchor="start" x="19" y="-18.5" font-family="Helvetica,sans-Serif" font-size="10.00" fill="#000000">+ ClockMeasurements()</text>
<text text-anchor="start" x="19" y="-7.5" font-family="Helvetica,sans-Serif" font-size="10.00" fill="#000000">+ reset()</text>
</g>
<!-- Node4 -->
<g id="node2" class="node">
<title>Node4</title>
<polygon fill="#ffffff" stroke="#bfbfbf" points="0,-138.5 0,-195.5 51,-195.5 51,-138.5 0,-138.5"/>
<text text-anchor="middle" x="25.5" y="-183.5" font-family="Helvetica,sans-Serif" font-size="10.00" fill="#000000">duration</text>
<polyline fill="none" stroke="#bfbfbf" points="0,-176.5 51,-176.5 "/>
<text text-anchor="middle" x="25.5" y="-164.5" font-family="Helvetica,sans-Serif" font-size="10.00" fill="#000000"> </text>
<polyline fill="none" stroke="#bfbfbf" points="0,-157.5 51,-157.5 "/>
<text text-anchor="middle" x="25.5" y="-145.5" font-family="Helvetica,sans-Serif" font-size="10.00" fill="#000000"> </text>
</g>
<!-- Node4&#45;&gt;Node3 -->
<g id="edge1" class="edge">
<title>Node4&#45;&gt;Node3</title>
<path fill="none" stroke="#404040" d="M21.4172,-138.2439C20.7312,-125.5037 21.5108,-110.585 26.5,-98 27.6217,-95.1707 28.9504,-92.394 30.4416,-89.6823"/>
<polygon fill="none" stroke="#404040" points="30.4418,-89.6819 30.3027,-82.4721 36.9044,-79.5707 37.0435,-86.7805 30.4418,-89.6819"/>
<text text-anchor="middle" x="69.5" y="-112" font-family="Helvetica,sans-Serif" font-size="10.00" fill="#000000"> +last_lap_time</text>
<text text-anchor="middle" x="69.5" y="-101" font-family="Helvetica,sans-Serif" font-size="10.00" fill="#000000">+accumulated_time</text>
</g>
<!-- Node5 -->
<g id="node3" class="node">
<title>Node5</title>
<polygon fill="#ffffff" stroke="#bfbfbf" points="103.5,-138.5 103.5,-195.5 165.5,-195.5 165.5,-138.5 103.5,-138.5"/>
<text text-anchor="middle" x="134.5" y="-183.5" font-family="Helvetica,sans-Serif" font-size="10.00" fill="#000000">time_point</text>
<polyline fill="none" stroke="#bfbfbf" points="103.5,-176.5 165.5,-176.5 "/>
<text text-anchor="middle" x="134.5" y="-164.5" font-family="Helvetica,sans-Serif" font-size="10.00" fill="#000000"> </text>
<polyline fill="none" stroke="#bfbfbf" points="103.5,-157.5 165.5,-157.5 "/>
<text text-anchor="middle" x="134.5" y="-145.5" font-family="Helvetica,sans-Serif" font-size="10.00" fill="#000000"> </text>
</g>
<!-- Node5&#45;&gt;Node3 -->
<g id="edge2" class="edge">
<title>Node5&#45;&gt;Node3</title>
<path fill="none" stroke="#404040" d="M126.8128,-138.3082C123.069,-125.7176 118.1516,-110.8983 112.5,-98 111.4234,-95.5428 110.2715,-93.0556 109.0668,-90.5639"/>
<polygon fill="none" stroke="#404040" points="108.9719,-90.3779 102.6813,-86.8524 103.5162,-79.6897 109.8068,-83.2153 108.9719,-90.3779"/>
<text text-anchor="middle" x="172.5" y="-106.5" font-family="Helvetica,sans-Serif" font-size="10.00" fill="#000000"> +current_lap_start_time</text>
</g>
</g>
</svg>
