<?xml version="1.0" encoding="UTF-8" standalone="no"?>
<!DOCTYPE svg PUBLIC "-//W3C//DTD SVG 1.1//EN"
 "http://www.w3.org/Graphics/SVG/1.1/DTD/svg11.dtd">
<!-- Generated by graphviz version 2.40.1 (20161225.0304)
 -->
<!-- Title: always_return&lt; ArgType, ValueType &gt; Pages: 1 -->
<svg width="134pt" height="182pt"
 viewBox="0.00 0.00 134.00 182.00" xmlns="http://www.w3.org/2000/svg" xmlns:xlink="http://www.w3.org/1999/xlink">
<g id="graph0" class="graph" transform="scale(1 1) rotate(0) translate(4 178)">
<title>always_return&lt; ArgType, ValueType &gt;</title>
<polygon fill="#ffffff" stroke="transparent" points="-4,4 -4,-178 130,-178 130,4 -4,4"/>
<!-- Node1 -->
<g id="node1" class="node">
<title>Node1</title>
<polygon fill="#bfbfbf" stroke="#000000" points="0,-.5 0,-68.5 126,-68.5 126,-.5 0,-.5"/>
<text text-anchor="start" x="8" y="-56.5" font-family="Helvetica,sans-Serif" font-size="10.00" fill="#000000">always_return&lt; ArgType,</text>
<text text-anchor="middle" x="63" y="-45.5" font-family="Helvetica,sans-Serif" font-size="10.00" fill="#000000"> ValueType &gt;</text>
<polyline fill="none" stroke="#000000" points="0,-38.5 126,-38.5 "/>
<text text-anchor="middle" x="63" y="-26.5" font-family="Helvetica,sans-Serif" font-size="10.00" fill="#000000"> </text>
<polyline fill="none" stroke="#000000" points="0,-19.5 126,-19.5 "/>
<text text-anchor="start" x="8" y="-7.5" font-family="Helvetica,sans-Serif" font-size="10.00" fill="#000000">+ operator()()</text>
</g>
<!-- Node2 -->
<g id="node2" class="node">
<title>Node2</title>
<polygon fill="#ffffff" stroke="#bfbfbf" points="31.5,-116.5 31.5,-173.5 94.5,-173.5 94.5,-116.5 31.5,-116.5"/>
<text text-anchor="middle" x="63" y="-161.5" font-family="Helvetica,sans-Serif" font-size="10.00" fill="#000000">ValueType</text>
<polyline fill="none" stroke="#bfbfbf" points="31.5,-154.5 94.5,-154.5 "/>
<text text-anchor="middle" x="63" y="-142.5" font-family="Helvetica,sans-Serif" font-size="10.00" fill="#000000"> </text>
<polyline fill="none" stroke="#bfbfbf" points="31.5,-135.5 94.5,-135.5 "/>
<text text-anchor="middle" x="63" y="-123.5" font-family="Helvetica,sans-Serif" font-size="10.00" fill="#000000"> </text>
</g>
<!-- Node2&#45;&gt;Node1 -->
<g id="edge1" class="edge">
<title>Node2&#45;&gt;Node1</title>
<path fill="none" stroke="#404040" d="M63,-116.2559C63,-105.4349 63,-92.8362 63,-80.8169"/>
<polygon fill="none" stroke="#404040" points="63.0001,-80.6001 59,-74.6001 63,-68.6001 67,-74.6 63.0001,-80.6001"/>
<text text-anchor="middle" x="79.5" y="-90" font-family="Helvetica,sans-Serif" font-size="10.00" fill="#000000"> +value</text>
</g>
</g>
</svg>
