<?xml version="1.0" encoding="UTF-8" standalone="no"?>
<!DOCTYPE svg PUBLIC "-//W3C//DTD SVG 1.1//EN"
 "http://www.w3.org/Graphics/SVG/1.1/DTD/svg11.dtd">
<!-- Generated by graphviz version 2.40.1 (20161225.0304)
 -->
<!-- Title: mystl::is_pair&lt; mystl::pair&lt; T1, T2 &gt; &gt; Pages: 1 -->
<svg width="116pt" height="277pt"
 viewBox="0.00 0.00 116.00 277.00" xmlns="http://www.w3.org/2000/svg" xmlns:xlink="http://www.w3.org/1999/xlink">
<g id="graph0" class="graph" transform="scale(1 1) rotate(0) translate(4 273)">
<title>mystl::is_pair&lt; mystl::pair&lt; T1, T2 &gt; &gt;</title>
<polygon fill="#ffffff" stroke="transparent" points="-4,4 -4,-273 112,-273 112,4 -4,4"/>
<!-- Node2 -->
<g id="node1" class="node">
<title>Node2</title>
<polygon fill="#bfbfbf" stroke="#000000" points="0,-.5 0,-68.5 108,-68.5 108,-.5 0,-.5"/>
<text text-anchor="start" x="8" y="-56.5" font-family="Helvetica,sans-Serif" font-size="10.00" fill="#000000">mystl::is_pair&lt; mystl</text>
<text text-anchor="middle" x="54" y="-45.5" font-family="Helvetica,sans-Serif" font-size="10.00" fill="#000000">::pair&lt; T1, T2 &gt; &gt;</text>
<polyline fill="none" stroke="#000000" points="0,-38.5 108,-38.5 "/>
<text text-anchor="middle" x="54" y="-26.5" font-family="Helvetica,sans-Serif" font-size="10.00" fill="#000000"> </text>
<polyline fill="none" stroke="#000000" points="0,-19.5 108,-19.5 "/>
<text text-anchor="middle" x="54" y="-7.5" font-family="Helvetica,sans-Serif" font-size="10.00" fill="#000000"> </text>
</g>
<!-- Node3 -->
<g id="node2" class="node">
<title>Node3</title>
<g id="a_node2"><a xlink:href="structmystl_1_1m__integral__constant.html" target="_top" xlink:title="{mystl::m_true_type\n||}">
<polygon fill="#ffffff" stroke="#000000" points="3.5,-106.5 3.5,-163.5 104.5,-163.5 104.5,-106.5 3.5,-106.5"/>
<text text-anchor="middle" x="54" y="-151.5" font-family="Helvetica,sans-Serif" font-size="10.00" fill="#000000">mystl::m_true_type</text>
<polyline fill="none" stroke="#000000" points="3.5,-144.5 104.5,-144.5 "/>
<text text-anchor="middle" x="54" y="-132.5" font-family="Helvetica,sans-Serif" font-size="10.00" fill="#000000"> </text>
<polyline fill="none" stroke="#000000" points="3.5,-125.5 104.5,-125.5 "/>
<text text-anchor="middle" x="54" y="-113.5" font-family="Helvetica,sans-Serif" font-size="10.00" fill="#000000"> </text>
</a>
</g>
</g>
<!-- Node3&#45;&gt;Node2 -->
<g id="edge1" class="edge">
<title>Node3&#45;&gt;Node2</title>
<path fill="none" stroke="#191970" d="M54,-96.1903C54,-87.1667 54,-77.6233 54,-68.8097"/>
<polygon fill="none" stroke="#191970" points="50.5001,-96.4695 54,-106.4696 57.5001,-96.4696 50.5001,-96.4695"/>
</g>
<!-- Node4 -->
<g id="node3" class="node">
<title>Node4</title>
<polygon fill="#ffffff" stroke="#bfbfbf" points="6.5,-211.5 6.5,-268.5 101.5,-268.5 101.5,-211.5 6.5,-211.5"/>
<text text-anchor="middle" x="54" y="-256.5" font-family="Helvetica,sans-Serif" font-size="10.00" fill="#000000">static constexpr T</text>
<polyline fill="none" stroke="#bfbfbf" points="6.5,-249.5 101.5,-249.5 "/>
<text text-anchor="middle" x="54" y="-237.5" font-family="Helvetica,sans-Serif" font-size="10.00" fill="#000000"> </text>
<polyline fill="none" stroke="#bfbfbf" points="6.5,-230.5 101.5,-230.5 "/>
<text text-anchor="middle" x="54" y="-218.5" font-family="Helvetica,sans-Serif" font-size="10.00" fill="#000000"> </text>
</g>
<!-- Node4&#45;&gt;Node3 -->
<g id="edge2" class="edge">
<title>Node4&#45;&gt;Node3</title>
<path fill="none" stroke="#404040" d="M54,-211.3083C54,-200.4281 54,-187.817 54,-176.0192"/>
<polygon fill="none" stroke="#404040" points="54.0001,-175.657 50,-169.6571 54,-163.657 58,-169.657 54.0001,-175.657"/>
<text text-anchor="middle" x="70.5" y="-185" font-family="Helvetica,sans-Serif" font-size="10.00" fill="#000000"> +value</text>
</g>
</g>
</svg>
