<?xml version="1.0" encoding="UTF-8" standalone="no"?>
<!DOCTYPE svg PUBLIC "-//W3C//DTD SVG 1.1//EN"
 "http://www.w3.org/Graphics/SVG/1.1/DTD/svg11.dtd">
<!-- Generated by graphviz version 2.40.1 (20161225.0304)
 -->
<!-- Title: Patterns::Tools::internal::RankInfo&lt; Point&lt; dim, Number &gt; &gt; Pages: 1 -->
<svg width="206pt" height="343pt"
 viewBox="0.00 0.00 206.00 343.00" xmlns="http://www.w3.org/2000/svg" xmlns:xlink="http://www.w3.org/1999/xlink">
<g id="graph0" class="graph" transform="scale(1 1) rotate(0) translate(4 339)">
<title>Patterns::Tools::internal::RankInfo&lt; Point&lt; dim, Number &gt; &gt;</title>
<polygon fill="#ffffff" stroke="transparent" points="-4,4 -4,-339 202,-339 202,4 -4,4"/>
<!-- Node0 -->
<g id="node1" class="node">
<title>Node0</title>
<polygon fill="#bfbfbf" stroke="#000000" points="0,-.5 0,-79.5 122,-79.5 122,-.5 0,-.5"/>
<text text-anchor="start" x="8" y="-67.5" font-family="Helvetica,sans-Serif" font-size="10.00" fill="#000000">Patterns::Tools::internal</text>
<text text-anchor="start" x="8" y="-56.5" font-family="Helvetica,sans-Serif" font-size="10.00" fill="#000000">::RankInfo&lt; Point&lt; dim,</text>
<text text-anchor="middle" x="61" y="-45.5" font-family="Helvetica,sans-Serif" font-size="10.00" fill="#000000"> Number &gt; &gt;</text>
<polyline fill="none" stroke="#000000" points="0,-38.5 122,-38.5 "/>
<text text-anchor="middle" x="61" y="-26.5" font-family="Helvetica,sans-Serif" font-size="10.00" fill="#000000"> </text>
<polyline fill="none" stroke="#000000" points="0,-19.5 122,-19.5 "/>
<text text-anchor="middle" x="61" y="-7.5" font-family="Helvetica,sans-Serif" font-size="10.00" fill="#000000"> </text>
</g>
<!-- Node1 -->
<g id="node2" class="node">
<title>Node1</title>
<g id="a_node2"><a xlink:href="structPatterns_1_1Tools_1_1internal_1_1RankInfo.html" target="_top" xlink:title="{Patterns::Tools::internal\l::RankInfo\&lt; Tensor\&lt; 1,\l dim, Number \&gt; \&gt;\n|+ list_rank\l+ map_rank\l|}">
<polygon fill="#ffffff" stroke="#000000" points=".5,-117.5 .5,-207.5 121.5,-207.5 121.5,-117.5 .5,-117.5"/>
<text text-anchor="start" x="8.5" y="-195.5" font-family="Helvetica,sans-Serif" font-size="10.00" fill="#000000">Patterns::Tools::internal</text>
<text text-anchor="start" x="8.5" y="-184.5" font-family="Helvetica,sans-Serif" font-size="10.00" fill="#000000">::RankInfo&lt; Tensor&lt; 1,</text>
<text text-anchor="middle" x="61" y="-173.5" font-family="Helvetica,sans-Serif" font-size="10.00" fill="#000000"> dim, Number &gt; &gt;</text>
<polyline fill="none" stroke="#000000" points=".5,-166.5 121.5,-166.5 "/>
<text text-anchor="start" x="8.5" y="-154.5" font-family="Helvetica,sans-Serif" font-size="10.00" fill="#000000">+ list_rank</text>
<text text-anchor="start" x="8.5" y="-143.5" font-family="Helvetica,sans-Serif" font-size="10.00" fill="#000000">+ map_rank</text>
<polyline fill="none" stroke="#000000" points=".5,-136.5 121.5,-136.5 "/>
<text text-anchor="middle" x="61" y="-124.5" font-family="Helvetica,sans-Serif" font-size="10.00" fill="#000000"> </text>
</a>
</g>
</g>
<!-- Node1&#45;&gt;Node0 -->
<g id="edge1" class="edge">
<title>Node1&#45;&gt;Node0</title>
<path fill="none" stroke="#191970" d="M61,-107.0079C61,-97.8464 61,-88.5116 61,-79.8331"/>
<polygon fill="none" stroke="#191970" points="57.5001,-107.2335 61,-117.2336 64.5001,-107.2336 57.5001,-107.2335"/>
</g>
<!-- Node2 -->
<g id="node3" class="node">
<title>Node2</title>
<g id="a_node3"><a xlink:href="structPatterns_1_1Tools_1_1internal_1_1RankInfo.html" target="_top" xlink:title="{Patterns::Tools::internal\l::RankInfo\&lt; T, Enable \&gt;\n|+ list_rank\l+ map_rank\l|}">
<polygon fill="#ffffff" stroke="#000000" points="0,-255.5 0,-334.5 122,-334.5 122,-255.5 0,-255.5"/>
<text text-anchor="start" x="8" y="-322.5" font-family="Helvetica,sans-Serif" font-size="10.00" fill="#000000">Patterns::Tools::internal</text>
<text text-anchor="middle" x="61" y="-311.5" font-family="Helvetica,sans-Serif" font-size="10.00" fill="#000000">::RankInfo&lt; T, Enable &gt;</text>
<polyline fill="none" stroke="#000000" points="0,-304.5 122,-304.5 "/>
<text text-anchor="start" x="8" y="-292.5" font-family="Helvetica,sans-Serif" font-size="10.00" fill="#000000">+ list_rank</text>
<text text-anchor="start" x="8" y="-281.5" font-family="Helvetica,sans-Serif" font-size="10.00" fill="#000000">+ map_rank</text>
<polyline fill="none" stroke="#000000" points="0,-274.5 122,-274.5 "/>
<text text-anchor="middle" x="61" y="-262.5" font-family="Helvetica,sans-Serif" font-size="10.00" fill="#000000"> </text>
</a>
</g>
</g>
<!-- Node2&#45;&gt;Node1 -->
<g id="edge2" class="edge">
<title>Node2&#45;&gt;Node1</title>
<path fill="none" stroke="#ffa500" d="M61,-245.172C61,-232.9073 61,-219.8413 61,-207.8036"/>
<polygon fill="#ffa500" stroke="#ffa500" points="57.5001,-245.2456 61,-255.2456 64.5001,-245.2457 57.5001,-245.2456"/>
<text text-anchor="middle" x="129.5" y="-229" font-family="Helvetica,sans-Serif" font-size="10.00" fill="#000000"> &lt; Tensor&lt; 1, dim, Number &gt; &gt;</text>
</g>
</g>
</svg>
