<?xml version="1.0" encoding="UTF-8" standalone="no"?>
<!DOCTYPE svg PUBLIC "-//W3C//DTD SVG 1.1//EN"
 "http://www.w3.org/Graphics/SVG/1.1/DTD/svg11.dtd">
<!-- Generated by graphviz version 2.40.1 (20161225.0304)
 -->
<!-- Title: mystl::ht_const_local_iterator&lt; T &gt; Pages: 1 -->
<svg width="183pt" height="207pt"
 viewBox="0.00 0.00 183.00 207.00" xmlns="http://www.w3.org/2000/svg" xmlns:xlink="http://www.w3.org/1999/xlink">
<g id="graph0" class="graph" transform="scale(1 1) rotate(0) translate(4 203)">
<title>mystl::ht_const_local_iterator&lt; T &gt;</title>
<polygon fill="#ffffff" stroke="transparent" points="-4,4 -4,-203 179,-203 179,4 -4,4"/>
<!-- Node0 -->
<g id="node1" class="node">
<title>Node0</title>
<polygon fill="#bfbfbf" stroke="#000000" points="10,-.5 10,-30.5 120,-30.5 120,-.5 10,-.5"/>
<text text-anchor="start" x="18" y="-18.5" font-family="Helvetica,sans-Serif" font-size="10.00" fill="#000000">mystl::ht_const_local</text>
<text text-anchor="middle" x="65" y="-7.5" font-family="Helvetica,sans-Serif" font-size="10.00" fill="#000000">_iterator&lt; T &gt;</text>
</g>
<!-- Node1 -->
<g id="node2" class="node">
<title>Node1</title>
<g id="a_node2"><a xlink:href="structmystl_1_1iterator.html" target="_top" xlink:title="mystl::iterator\&lt; mystl\l::forward_iterator_tag, T \&gt;">
<polygon fill="#ffffff" stroke="#000000" points="0,-68.5 0,-98.5 130,-98.5 130,-68.5 0,-68.5"/>
<text text-anchor="start" x="8" y="-86.5" font-family="Helvetica,sans-Serif" font-size="10.00" fill="#000000">mystl::iterator&lt; mystl</text>
<text text-anchor="middle" x="65" y="-75.5" font-family="Helvetica,sans-Serif" font-size="10.00" fill="#000000">::forward_iterator_tag, T &gt;</text>
</a>
</g>
</g>
<!-- Node1&#45;&gt;Node0 -->
<g id="edge1" class="edge">
<title>Node1&#45;&gt;Node0</title>
<path fill="none" stroke="#191970" d="M65,-58.1174C65,-48.8378 65,-38.6413 65,-30.5492"/>
<polygon fill="#191970" stroke="#191970" points="61.5001,-58.4086 65,-68.4086 68.5001,-58.4086 61.5001,-58.4086"/>
</g>
<!-- Node2 -->
<g id="node3" class="node">
<title>Node2</title>
<g id="a_node3"><a xlink:href="structmystl_1_1iterator.html" target="_top" xlink:title="mystl::iterator\&lt; Category,\l T, Distance, Pointer,\l Reference \&gt;">
<polygon fill="#ffffff" stroke="#000000" points="1,-157.5 1,-198.5 129,-198.5 129,-157.5 1,-157.5"/>
<text text-anchor="start" x="9" y="-186.5" font-family="Helvetica,sans-Serif" font-size="10.00" fill="#000000">mystl::iterator&lt; Category,</text>
<text text-anchor="start" x="9" y="-175.5" font-family="Helvetica,sans-Serif" font-size="10.00" fill="#000000"> T, Distance, Pointer,</text>
<text text-anchor="middle" x="65" y="-164.5" font-family="Helvetica,sans-Serif" font-size="10.00" fill="#000000"> Reference &gt;</text>
</a>
</g>
</g>
<!-- Node2&#45;&gt;Node1 -->
<g id="edge2" class="edge">
<title>Node2&#45;&gt;Node1</title>
<path fill="none" stroke="#ffa500" stroke-dasharray="5,2" d="M65,-147.3293C65,-131.0543 65,-111.774 65,-98.6945"/>
<polygon fill="#ffa500" stroke="#ffa500" points="61.5001,-147.4949 65,-157.4949 68.5001,-147.4949 61.5001,-147.4949"/>
<text text-anchor="start" x="65" y="-131" font-family="Helvetica,sans-Serif" font-size="10.00" fill="#000000"> &lt; mystl::forward_iterator</text>
<text text-anchor="middle" x="120" y="-120" font-family="Helvetica,sans-Serif" font-size="10.00" fill="#000000">_tag, T &gt;</text>
</g>
</g>
</svg>
