<?xml version="1.0" encoding="UTF-8" standalone="no"?>
<!DOCTYPE svg PUBLIC "-//W3C//DTD SVG 1.1//EN"
 "http://www.w3.org/Graphics/SVG/1.1/DTD/svg11.dtd">
<!-- Generated by graphviz version 2.40.1 (20161225.0304)
 -->
<!-- Title: ExtractLevelVisitor&lt; Value, Options, Translator, Box, Allocators &gt; Pages: 1 -->
<svg width="366pt" height="72pt"
 viewBox="0.00 0.00 366.00 72.00" xmlns="http://www.w3.org/2000/svg" xmlns:xlink="http://www.w3.org/1999/xlink">
<g id="graph0" class="graph" transform="scale(1 1) rotate(0) translate(4 68)">
<title>ExtractLevelVisitor&lt; Value, Options, Translator, Box, Allocators &gt;</title>
<polygon fill="#ffffff" stroke="transparent" points="-4,4 -4,-68 362,-68 362,4 -4,4"/>
<!-- Node0 -->
<g id="node1" class="node">
<title>Node0</title>
<polygon fill="#bfbfbf" stroke="#000000" points="203,-11.5 203,-52.5 358,-52.5 358,-11.5 203,-11.5"/>
<text text-anchor="start" x="211" y="-40.5" font-family="Helvetica,sans-Serif" font-size="10.00" fill="#000000">ExtractLevelVisitor</text>
<text text-anchor="start" x="211" y="-29.5" font-family="Helvetica,sans-Serif" font-size="10.00" fill="#000000">&lt; Value, Options, Translator,</text>
<text text-anchor="middle" x="280.5" y="-18.5" font-family="Helvetica,sans-Serif" font-size="10.00" fill="#000000"> Box, Allocators &gt;</text>
</g>
<!-- Node1 -->
<g id="node2" class="node">
<title>Node1</title>
<polygon fill="#ffffff" stroke="#bfbfbf" points="0,-.5 0,-63.5 167,-63.5 167,-.5 0,-.5"/>
<text text-anchor="start" x="8" y="-51.5" font-family="Helvetica,sans-Serif" font-size="10.00" fill="#000000">boost::geometry::index</text>
<text text-anchor="start" x="8" y="-40.5" font-family="Helvetica,sans-Serif" font-size="10.00" fill="#000000">::detail::rtree::visitor</text>
<text text-anchor="start" x="8" y="-29.5" font-family="Helvetica,sans-Serif" font-size="10.00" fill="#000000">&lt; Value, Options::parameters</text>
<text text-anchor="start" x="8" y="-18.5" font-family="Helvetica,sans-Serif" font-size="10.00" fill="#000000">_type, Box, Allocators, Options</text>
<text text-anchor="middle" x="83.5" y="-7.5" font-family="Helvetica,sans-Serif" font-size="10.00" fill="#000000">::node_tag, true &gt;::type</text>
</g>
<!-- Node1&#45;&gt;Node0 -->
<g id="edge1" class="edge">
<title>Node1&#45;&gt;Node0</title>
<path fill="none" stroke="#191970" d="M177.0986,-32C185.6952,-32 194.3416,-32 202.7752,-32"/>
<polygon fill="#191970" stroke="#191970" points="177.0458,-28.5001 167.0457,-32 177.0457,-35.5001 177.0458,-28.5001"/>
</g>
</g>
</svg>
