<?xml version="1.0" encoding="UTF-8" standalone="no"?>
<!DOCTYPE svg PUBLIC "-//W3C//DTD SVG 1.1//EN"
 "http://www.w3.org/Graphics/SVG/1.1/DTD/svg11.dtd">
<!-- Generated by graphviz version 2.40.1 (20161225.0304)
 -->
<!-- Title: mystl::ht_const_iterator&lt; T, Hash, KeyEqual &gt; Pages: 1 -->
<!--zoomable 1538 -->
<svg id="main" version="1.1" xmlns="http://www.w3.org/2000/svg" xmlns:xlink="http://www.w3.org/1999/xlink" xml:space="preserve" onload="init(evt)">
<style type="text/css"><![CDATA[
.edge:hover path { stroke: red; }
.edge:hover polygon { stroke: red; fill: red; }
]]></style>
<script type="text/javascript"><![CDATA[
var edges = document.getElementsByTagName('g');
if (edges && edges.length) {
  for (var i=0;i<edges.length;i++) {
    if (edges[i].id.substr(0,4)=='edge') {
      edges[i].setAttribute('class','edge');
    }
  }
}
]]></script>
        <defs>
                <circle id="rim" cx="0" cy="0" r="7"/>
                <circle id="rim2" cx="0" cy="0" r="3.5"/>
                <g id="zoomPlus">
                        <use xlink:href="#rim" fill="#404040">
                                <set attributeName="fill" to="#808080" begin="zoomplus.mouseover" end="zoomplus.mouseout"/>
                        </use>
                        <path d="M-4,0h8M0,-4v8" fill="none" stroke="white" stroke-width="1.5" pointer-events="none"/>
                </g>
                <g id="zoomMin">
                        <use xlink:href="#rim" fill="#404040">
                                <set attributeName="fill" to="#808080" begin="zoomminus.mouseover" end="zoomminus.mouseout"/>
                        </use>
                        <path d="M-4,0h8" fill="none" stroke="white" stroke-width="1.5" pointer-events="none"/>
                </g>
                <g id="dirArrow">
                        <path fill="none" stroke="white" stroke-width="1.5" d="M0,-3.0v7 M-2.5,-0.5L0,-3.0L2.5,-0.5"/>
                </g>
               <g id="resetDef">
                       <use xlink:href="#rim2" fill="#404040">
                               <set attributeName="fill" to="#808080" begin="reset.mouseover" end="reset.mouseout"/>
                       </use>
               </g>
        </defs>

<script type="text/javascript">
var viewWidth = 524;
var viewHeight = 1538;
var sectionId = 'dynsection-1';
</script>
<script xlink:href="svgpan.js"/>
<svg id="graph" class="graph">
<g id="viewport">
<title>mystl::ht_const_iterator&lt; T, Hash, KeyEqual &gt;</title>
<polygon fill="#ffffff" stroke="transparent" points="-4,4 -4,-1534 519.5,-1534 519.5,4 -4,4"/>
<!-- Node4 -->
<g id="node1" class="node">
<title>Node4</title>
<polygon fill="#bfbfbf" stroke="#000000" points="164.5,-.5 164.5,-167.5 283.5,-167.5 283.5,-.5 164.5,-.5"/>
<text text-anchor="start" x="172.5" y="-155.5" font-family="Helvetica,sans-Serif" font-size="10.00" fill="#000000">mystl::ht_const_iterator</text>
<text text-anchor="middle" x="224" y="-144.5" font-family="Helvetica,sans-Serif" font-size="10.00" fill="#000000">&lt; T, Hash, KeyEqual &gt;</text>
<polyline fill="none" stroke="#000000" points="164.5,-137.5 283.5,-137.5 "/>
<text text-anchor="middle" x="224" y="-125.5" font-family="Helvetica,sans-Serif" font-size="10.00" fill="#000000"> </text>
<polyline fill="none" stroke="#000000" points="164.5,-118.5 283.5,-118.5 "/>
<text text-anchor="start" x="172.5" y="-106.5" font-family="Helvetica,sans-Serif" font-size="10.00" fill="#000000">+ ht_const_iterator()</text>
<text text-anchor="start" x="172.5" y="-95.5" font-family="Helvetica,sans-Serif" font-size="10.00" fill="#000000">+ ht_const_iterator()</text>
<text text-anchor="start" x="172.5" y="-84.5" font-family="Helvetica,sans-Serif" font-size="10.00" fill="#000000">+ ht_const_iterator()</text>
<text text-anchor="start" x="172.5" y="-73.5" font-family="Helvetica,sans-Serif" font-size="10.00" fill="#000000">+ ht_const_iterator()</text>
<text text-anchor="start" x="172.5" y="-62.5" font-family="Helvetica,sans-Serif" font-size="10.00" fill="#000000">+ operator=()</text>
<text text-anchor="start" x="172.5" y="-51.5" font-family="Helvetica,sans-Serif" font-size="10.00" fill="#000000">+ operator=()</text>
<text text-anchor="start" x="172.5" y="-40.5" font-family="Helvetica,sans-Serif" font-size="10.00" fill="#000000">+ operator*()</text>
<text text-anchor="start" x="172.5" y="-29.5" font-family="Helvetica,sans-Serif" font-size="10.00" fill="#000000">+ operator&#45;&gt;()</text>
<text text-anchor="start" x="172.5" y="-18.5" font-family="Helvetica,sans-Serif" font-size="10.00" fill="#000000">+ operator++()</text>
<text text-anchor="start" x="172.5" y="-7.5" font-family="Helvetica,sans-Serif" font-size="10.00" fill="#000000">+ operator++()</text>
</g>
<!-- Node5 -->
<g id="node2" class="node">
<title>Node5</title>
<g id="a_node2"><a xlink:href="structmystl_1_1ht__iterator__base.html" target="_top" xlink:title="{mystl::ht_iterator\l_base\&lt; T, Hash, KeyEqual \&gt;\n||+ ht_iterator_base()\l+ operator==()\l+ operator!=()\l}">
<polygon fill="#ffffff" stroke="#000000" points="152,-205.5 152,-295.5 296,-295.5 296,-205.5 152,-205.5"/>
<text text-anchor="start" x="160" y="-283.5" font-family="Helvetica,sans-Serif" font-size="10.00" fill="#000000">mystl::ht_iterator</text>
<text text-anchor="middle" x="224" y="-272.5" font-family="Helvetica,sans-Serif" font-size="10.00" fill="#000000">_base&lt; T, Hash, KeyEqual &gt;</text>
<polyline fill="none" stroke="#000000" points="152,-265.5 296,-265.5 "/>
<text text-anchor="middle" x="224" y="-253.5" font-family="Helvetica,sans-Serif" font-size="10.00" fill="#000000"> </text>
<polyline fill="none" stroke="#000000" points="152,-246.5 296,-246.5 "/>
<text text-anchor="start" x="160" y="-234.5" font-family="Helvetica,sans-Serif" font-size="10.00" fill="#000000">+ ht_iterator_base()</text>
<text text-anchor="start" x="160" y="-223.5" font-family="Helvetica,sans-Serif" font-size="10.00" fill="#000000">+ operator==()</text>
<text text-anchor="start" x="160" y="-212.5" font-family="Helvetica,sans-Serif" font-size="10.00" fill="#000000">+ operator!=()</text>
</a>
</g>
</g>
<!-- Node5&#45;&gt;Node4 -->
<g id="edge1" class="edge">
<title>Node5&#45;&gt;Node4</title>
<path fill="none" stroke="#191970" d="M224,-195.2501C224,-186.3542 224,-176.9755 224,-167.5911"/>
<polygon fill="none" stroke="#191970" points="220.5001,-195.4427 224,-205.4427 227.5001,-195.4427 220.5001,-195.4427"/>
</g>
<!-- Node6 -->
<g id="node3" class="node">
<title>Node6</title>
<g id="a_node3"><a xlink:href="structmystl_1_1iterator.html" target="_top" xlink:title="{mystl::iterator\&lt; mystl\l::forward_iterator_tag, T \&gt;\n||}">
<polygon fill="#ffffff" stroke="#000000" points="3,-459 3,-527 133,-527 133,-459 3,-459"/>
<text text-anchor="start" x="11" y="-515" font-family="Helvetica,sans-Serif" font-size="10.00" fill="#000000">mystl::iterator&lt; mystl</text>
<text text-anchor="middle" x="68" y="-504" font-family="Helvetica,sans-Serif" font-size="10.00" fill="#000000">::forward_iterator_tag, T &gt;</text>
<polyline fill="none" stroke="#000000" points="3,-497 133,-497 "/>
<text text-anchor="middle" x="68" y="-485" font-family="Helvetica,sans-Serif" font-size="10.00" fill="#000000"> </text>
<polyline fill="none" stroke="#000000" points="3,-478 133,-478 "/>
<text text-anchor="middle" x="68" y="-466" font-family="Helvetica,sans-Serif" font-size="10.00" fill="#000000"> </text>
</a>
</g>
</g>
<!-- Node6&#45;&gt;Node5 -->
<g id="edge2" class="edge">
<title>Node6&#45;&gt;Node5</title>
<path fill="none" stroke="#191970" d="M92.2566,-449.7603C109.6011,-419.4433 133.8738,-378.2071 157,-343 167.3421,-327.2552 179.2351,-310.4578 190.1036,-295.5572"/>
<polygon fill="none" stroke="#191970" points="89.0157,-448.3785 87.1052,-458.7997 95.0974,-451.8444 89.0157,-448.3785"/>
</g>
<!-- Node7 -->
<g id="node4" class="node">
<title>Node7</title>
<g id="a_node4"><a xlink:href="structmystl_1_1iterator.html" target="_top" xlink:title="{mystl::iterator\&lt; Category,\l T, Distance, Pointer,\l Reference \&gt;\n||}">
<polygon fill="#ffffff" stroke="#000000" points="0,-828 0,-907 128,-907 128,-828 0,-828"/>
<text text-anchor="start" x="8" y="-895" font-family="Helvetica,sans-Serif" font-size="10.00" fill="#000000">mystl::iterator&lt; Category,</text>
<text text-anchor="start" x="8" y="-884" font-family="Helvetica,sans-Serif" font-size="10.00" fill="#000000"> T, Distance, Pointer,</text>
<text text-anchor="middle" x="64" y="-873" font-family="Helvetica,sans-Serif" font-size="10.00" fill="#000000"> Reference &gt;</text>
<polyline fill="none" stroke="#000000" points="0,-866 128,-866 "/>
<text text-anchor="middle" x="64" y="-854" font-family="Helvetica,sans-Serif" font-size="10.00" fill="#000000"> </text>
<polyline fill="none" stroke="#000000" points="0,-847 128,-847 "/>
<text text-anchor="middle" x="64" y="-835" font-family="Helvetica,sans-Serif" font-size="10.00" fill="#000000"> </text>
</a>
</g>
</g>
<!-- Node7&#45;&gt;Node6 -->
<g id="edge3" class="edge">
<title>Node7&#45;&gt;Node6</title>
<path fill="none" stroke="#ffa500" d="M64.5359,-817.3294C65.3626,-739.9309 66.9273,-593.4271 67.6355,-527.1229"/>
<polygon fill="#ffa500" stroke="#ffa500" points="61.0314,-817.7396 64.4243,-827.7765 68.031,-817.8145 61.0314,-817.7396"/>
<text text-anchor="start" x="67" y="-675" font-family="Helvetica,sans-Serif" font-size="10.00" fill="#000000"> &lt; mystl::forward_iterator</text>
<text text-anchor="middle" x="122" y="-664" font-family="Helvetica,sans-Serif" font-size="10.00" fill="#000000">_tag, T &gt;</text>
</g>
<!-- Node8 -->
<g id="node5" class="node">
<title>Node8</title>
<polygon fill="#ffffff" stroke="#bfbfbf" points="166,-464.5 166,-521.5 282,-521.5 282,-464.5 166,-464.5"/>
<text text-anchor="middle" x="224" y="-509.5" font-family="Helvetica,sans-Serif" font-size="10.00" fill="#000000">hashtable_node&lt; T &gt; *</text>
<polyline fill="none" stroke="#bfbfbf" points="166,-502.5 282,-502.5 "/>
<text text-anchor="middle" x="224" y="-490.5" font-family="Helvetica,sans-Serif" font-size="10.00" fill="#000000"> </text>
<polyline fill="none" stroke="#bfbfbf" points="166,-483.5 282,-483.5 "/>
<text text-anchor="middle" x="224" y="-471.5" font-family="Helvetica,sans-Serif" font-size="10.00" fill="#000000"> </text>
</g>
<!-- Node8&#45;&gt;Node5 -->
<g id="edge4" class="edge">
<title>Node8&#45;&gt;Node5</title>
<path fill="none" stroke="#404040" d="M224,-464.2298C224,-425.8311 224,-356.9662 224,-307.7806"/>
<polygon fill="none" stroke="#404040" points="224.0001,-307.7303 220,-301.7303 224,-295.7303 228,-301.7302 224.0001,-307.7303"/>
<text text-anchor="middle" x="239.5" y="-317" font-family="Helvetica,sans-Serif" font-size="10.00" fill="#000000"> +node</text>
</g>
<!-- Node9 -->
<g id="node6" class="node">
<title>Node9</title>
<g id="a_node6"><a xlink:href="classmystl_1_1hashtable.html" target="_top" xlink:title="{mystl::hashtable\&lt; T,\l Hash, KeyEqual \&gt;\n||+ get_allocator()\l+ hashtable()\l+ hashtable()\l+ hashtable()\l+ hashtable()\l+ operator=()\l+ operator=()\l+ ~hashtable()\l+ begin()\l+ begin()\land 54 more...\l&#45; is_equal()\l&#45; is_equal()\l&#45; M_cit()\l&#45; M_begin()\l&#45; M_begin()\l&#45; init()\l&#45; copy_init()\l&#45; create_node()\l&#45; destroy_node()\l&#45; next_size()\land 14 more...\l}">
<polygon fill="#ffffff" stroke="#000000" points="308.5,-343.5 308.5,-642.5 415.5,-642.5 415.5,-343.5 308.5,-343.5"/>
<text text-anchor="start" x="316.5" y="-630.5" font-family="Helvetica,sans-Serif" font-size="10.00" fill="#000000">mystl::hashtable&lt; T,</text>
<text text-anchor="middle" x="362" y="-619.5" font-family="Helvetica,sans-Serif" font-size="10.00" fill="#000000"> Hash, KeyEqual &gt;</text>
<polyline fill="none" stroke="#000000" points="308.5,-612.5 415.5,-612.5 "/>
<text text-anchor="middle" x="362" y="-600.5" font-family="Helvetica,sans-Serif" font-size="10.00" fill="#000000"> </text>
<polyline fill="none" stroke="#000000" points="308.5,-593.5 415.5,-593.5 "/>
<text text-anchor="start" x="316.5" y="-581.5" font-family="Helvetica,sans-Serif" font-size="10.00" fill="#000000">+ get_allocator()</text>
<text text-anchor="start" x="316.5" y="-570.5" font-family="Helvetica,sans-Serif" font-size="10.00" fill="#000000">+ hashtable()</text>
<text text-anchor="start" x="316.5" y="-559.5" font-family="Helvetica,sans-Serif" font-size="10.00" fill="#000000">+ hashtable()</text>
<text text-anchor="start" x="316.5" y="-548.5" font-family="Helvetica,sans-Serif" font-size="10.00" fill="#000000">+ hashtable()</text>
<text text-anchor="start" x="316.5" y="-537.5" font-family="Helvetica,sans-Serif" font-size="10.00" fill="#000000">+ hashtable()</text>
<text text-anchor="start" x="316.5" y="-526.5" font-family="Helvetica,sans-Serif" font-size="10.00" fill="#000000">+ operator=()</text>
<text text-anchor="start" x="316.5" y="-515.5" font-family="Helvetica,sans-Serif" font-size="10.00" fill="#000000">+ operator=()</text>
<text text-anchor="start" x="316.5" y="-504.5" font-family="Helvetica,sans-Serif" font-size="10.00" fill="#000000">+ ~hashtable()</text>
<text text-anchor="start" x="316.5" y="-493.5" font-family="Helvetica,sans-Serif" font-size="10.00" fill="#000000">+ begin()</text>
<text text-anchor="start" x="316.5" y="-482.5" font-family="Helvetica,sans-Serif" font-size="10.00" fill="#000000">+ begin()</text>
<text text-anchor="start" x="316.5" y="-471.5" font-family="Helvetica,sans-Serif" font-size="10.00" fill="#000000">and 54 more...</text>
<text text-anchor="start" x="316.5" y="-460.5" font-family="Helvetica,sans-Serif" font-size="10.00" fill="#000000">&#45; is_equal()</text>
<text text-anchor="start" x="316.5" y="-449.5" font-family="Helvetica,sans-Serif" font-size="10.00" fill="#000000">&#45; is_equal()</text>
<text text-anchor="start" x="316.5" y="-438.5" font-family="Helvetica,sans-Serif" font-size="10.00" fill="#000000">&#45; M_cit()</text>
<text text-anchor="start" x="316.5" y="-427.5" font-family="Helvetica,sans-Serif" font-size="10.00" fill="#000000">&#45; M_begin()</text>
<text text-anchor="start" x="316.5" y="-416.5" font-family="Helvetica,sans-Serif" font-size="10.00" fill="#000000">&#45; M_begin()</text>
<text text-anchor="start" x="316.5" y="-405.5" font-family="Helvetica,sans-Serif" font-size="10.00" fill="#000000">&#45; init()</text>
<text text-anchor="start" x="316.5" y="-394.5" font-family="Helvetica,sans-Serif" font-size="10.00" fill="#000000">&#45; copy_init()</text>
<text text-anchor="start" x="316.5" y="-383.5" font-family="Helvetica,sans-Serif" font-size="10.00" fill="#000000">&#45; create_node()</text>
<text text-anchor="start" x="316.5" y="-372.5" font-family="Helvetica,sans-Serif" font-size="10.00" fill="#000000">&#45; destroy_node()</text>
<text text-anchor="start" x="316.5" y="-361.5" font-family="Helvetica,sans-Serif" font-size="10.00" fill="#000000">&#45; next_size()</text>
<text text-anchor="start" x="316.5" y="-350.5" font-family="Helvetica,sans-Serif" font-size="10.00" fill="#000000">and 14 more...</text>
</a>
</g>
</g>
<!-- Node9&#45;&gt;Node5 -->
<g id="edge5" class="edge">
<title>Node9&#45;&gt;Node5</title>
<path fill="none" stroke="#404040" d="M308.4047,-374.4214C302.7842,-363.6598 296.9439,-353.0413 291,-343 283.6612,-330.6022 275.0912,-317.7908 266.58,-305.7993"/>
<polygon fill="none" stroke="#404040" points="266.493,-305.6786 259.7388,-303.1525 259.4728,-295.9463 266.227,-298.4724 266.493,-305.6786"/>
<text text-anchor="middle" x="289" y="-317" font-family="Helvetica,sans-Serif" font-size="10.00" fill="#000000"> +ht</text>
</g>
<!-- Node10 -->
<g id="node7" class="node">
<title>Node10</title>
<g id="a_node7"><a xlink:href="classmystl_1_1vector.html" target="_top" xlink:title="{mystl::vector\&lt; node\l_ptr \&gt;\n||+ get_allocator()\l+ vector()\l+ vector()\l+ vector()\l+ vector()\l+ vector()\l+ vector()\l+ vector()\l+ operator=()\l+ operator=()\land 49 more...\l&#45; try_init()\l&#45; init_space()\l&#45; fill_init()\l&#45; range_init()\l&#45; destroy_and_recover()\l&#45; get_new_cap()\l&#45; fill_assign()\l&#45; copy_assign()\l&#45; copy_assign()\l&#45; reallocate_emplace()\l&#45; reallocate_insert()\l&#45; fill_insert()\l&#45; copy_insert()\l&#45; reinsert()\l}">
<polygon fill="#ffffff" stroke="#000000" points="146.5,-701.5 146.5,-1033.5 265.5,-1033.5 265.5,-701.5 146.5,-701.5"/>
<text text-anchor="start" x="154.5" y="-1021.5" font-family="Helvetica,sans-Serif" font-size="10.00" fill="#000000">mystl::vector&lt; node</text>
<text text-anchor="middle" x="206" y="-1010.5" font-family="Helvetica,sans-Serif" font-size="10.00" fill="#000000">_ptr &gt;</text>
<polyline fill="none" stroke="#000000" points="146.5,-1003.5 265.5,-1003.5 "/>
<text text-anchor="middle" x="206" y="-991.5" font-family="Helvetica,sans-Serif" font-size="10.00" fill="#000000"> </text>
<polyline fill="none" stroke="#000000" points="146.5,-984.5 265.5,-984.5 "/>
<text text-anchor="start" x="154.5" y="-972.5" font-family="Helvetica,sans-Serif" font-size="10.00" fill="#000000">+ get_allocator()</text>
<text text-anchor="start" x="154.5" y="-961.5" font-family="Helvetica,sans-Serif" font-size="10.00" fill="#000000">+ vector()</text>
<text text-anchor="start" x="154.5" y="-950.5" font-family="Helvetica,sans-Serif" font-size="10.00" fill="#000000">+ vector()</text>
<text text-anchor="start" x="154.5" y="-939.5" font-family="Helvetica,sans-Serif" font-size="10.00" fill="#000000">+ vector()</text>
<text text-anchor="start" x="154.5" y="-928.5" font-family="Helvetica,sans-Serif" font-size="10.00" fill="#000000">+ vector()</text>
<text text-anchor="start" x="154.5" y="-917.5" font-family="Helvetica,sans-Serif" font-size="10.00" fill="#000000">+ vector()</text>
<text text-anchor="start" x="154.5" y="-906.5" font-family="Helvetica,sans-Serif" font-size="10.00" fill="#000000">+ vector()</text>
<text text-anchor="start" x="154.5" y="-895.5" font-family="Helvetica,sans-Serif" font-size="10.00" fill="#000000">+ vector()</text>
<text text-anchor="start" x="154.5" y="-884.5" font-family="Helvetica,sans-Serif" font-size="10.00" fill="#000000">+ operator=()</text>
<text text-anchor="start" x="154.5" y="-873.5" font-family="Helvetica,sans-Serif" font-size="10.00" fill="#000000">+ operator=()</text>
<text text-anchor="start" x="154.5" y="-862.5" font-family="Helvetica,sans-Serif" font-size="10.00" fill="#000000">and 49 more...</text>
<text text-anchor="start" x="154.5" y="-851.5" font-family="Helvetica,sans-Serif" font-size="10.00" fill="#000000">&#45; try_init()</text>
<text text-anchor="start" x="154.5" y="-840.5" font-family="Helvetica,sans-Serif" font-size="10.00" fill="#000000">&#45; init_space()</text>
<text text-anchor="start" x="154.5" y="-829.5" font-family="Helvetica,sans-Serif" font-size="10.00" fill="#000000">&#45; fill_init()</text>
<text text-anchor="start" x="154.5" y="-818.5" font-family="Helvetica,sans-Serif" font-size="10.00" fill="#000000">&#45; range_init()</text>
<text text-anchor="start" x="154.5" y="-807.5" font-family="Helvetica,sans-Serif" font-size="10.00" fill="#000000">&#45; destroy_and_recover()</text>
<text text-anchor="start" x="154.5" y="-796.5" font-family="Helvetica,sans-Serif" font-size="10.00" fill="#000000">&#45; get_new_cap()</text>
<text text-anchor="start" x="154.5" y="-785.5" font-family="Helvetica,sans-Serif" font-size="10.00" fill="#000000">&#45; fill_assign()</text>
<text text-anchor="start" x="154.5" y="-774.5" font-family="Helvetica,sans-Serif" font-size="10.00" fill="#000000">&#45; copy_assign()</text>
<text text-anchor="start" x="154.5" y="-763.5" font-family="Helvetica,sans-Serif" font-size="10.00" fill="#000000">&#45; copy_assign()</text>
<text text-anchor="start" x="154.5" y="-752.5" font-family="Helvetica,sans-Serif" font-size="10.00" fill="#000000">&#45; reallocate_emplace()</text>
<text text-anchor="start" x="154.5" y="-741.5" font-family="Helvetica,sans-Serif" font-size="10.00" fill="#000000">&#45; reallocate_insert()</text>
<text text-anchor="start" x="154.5" y="-730.5" font-family="Helvetica,sans-Serif" font-size="10.00" fill="#000000">&#45; fill_insert()</text>
<text text-anchor="start" x="154.5" y="-719.5" font-family="Helvetica,sans-Serif" font-size="10.00" fill="#000000">&#45; copy_insert()</text>
<text text-anchor="start" x="154.5" y="-708.5" font-family="Helvetica,sans-Serif" font-size="10.00" fill="#000000">&#45; reinsert()</text>
</a>
</g>
</g>
<!-- Node10&#45;&gt;Node9 -->
<g id="edge6" class="edge">
<title>Node10&#45;&gt;Node9</title>
<path fill="none" stroke="#404040" d="M263.6767,-701.4379C269.2625,-687.6474 275.0668,-674.0146 281,-661 284.7963,-652.6728 286.8179,-651.1402 291,-643 295.028,-635.1596 299.1073,-627.051 303.1681,-618.8501"/>
<polygon fill="none" stroke="#404040" points="303.1933,-618.7987 302.2523,-611.6492 308.4899,-608.0308 309.4309,-615.1802 303.1933,-618.7987"/>
<text text-anchor="middle" x="304" y="-669.5" font-family="Helvetica,sans-Serif" font-size="10.00" fill="#000000"> &#45;buckets_</text>
</g>
<!-- Node11 -->
<g id="node8" class="node">
<title>Node11</title>
<polygon fill="#ffffff" stroke="#bfbfbf" points="150.5,-1472.5 150.5,-1529.5 221.5,-1529.5 221.5,-1472.5 150.5,-1472.5"/>
<text text-anchor="middle" x="186" y="-1517.5" font-family="Helvetica,sans-Serif" font-size="10.00" fill="#000000">value_type *</text>
<polyline fill="none" stroke="#bfbfbf" points="150.5,-1510.5 221.5,-1510.5 "/>
<text text-anchor="middle" x="186" y="-1498.5" font-family="Helvetica,sans-Serif" font-size="10.00" fill="#000000"> </text>
<polyline fill="none" stroke="#bfbfbf" points="150.5,-1491.5 221.5,-1491.5 "/>
<text text-anchor="middle" x="186" y="-1479.5" font-family="Helvetica,sans-Serif" font-size="10.00" fill="#000000"> </text>
</g>
<!-- Node11&#45;&gt;Node10 -->
<g id="edge7" class="edge">
<title>Node11&#45;&gt;Node10</title>
<path fill="none" stroke="#404040" d="M183.4085,-1472.2981C181.7792,-1452.778 179.833,-1426.3536 179,-1403 173.8986,-1259.9798 170.0045,-1223.8281 179,-1081 179.7265,-1069.4642 180.6718,-1057.5986 181.7723,-1045.6512"/>
<polygon fill="none" stroke="#404040" points="181.7742,-1045.6308 178.3665,-1039.2756 182.9222,-1033.6858 186.3298,-1040.041 181.7742,-1045.6308"/>
<text text-anchor="middle" x="196.5" y="-1250.5" font-family="Helvetica,sans-Serif" font-size="10.00" fill="#000000"> &#45;begin_</text>
<text text-anchor="middle" x="196.5" y="-1239.5" font-family="Helvetica,sans-Serif" font-size="10.00" fill="#000000">&#45;cap_</text>
<text text-anchor="middle" x="196.5" y="-1228.5" font-family="Helvetica,sans-Serif" font-size="10.00" fill="#000000">&#45;end_</text>
</g>
<!-- Node12 -->
<g id="node9" class="node">
<title>Node12</title>
<g id="a_node9"><a xlink:href="classmystl_1_1vector.html" target="_top" xlink:title="{mystl::vector\&lt; T \&gt;\n||+ get_allocator()\l+ vector()\l+ vector()\l+ vector()\l+ vector()\l+ vector()\l+ vector()\l+ vector()\l+ operator=()\l+ operator=()\land 49 more...\l&#45; try_init()\l&#45; init_space()\l&#45; fill_init()\l&#45; range_init()\l&#45; destroy_and_recover()\l&#45; get_new_cap()\l&#45; fill_assign()\l&#45; copy_assign()\l&#45; copy_assign()\l&#45; reallocate_emplace()\l&#45; reallocate_insert()\l&#45; fill_insert()\l&#45; copy_insert()\l&#45; reinsert()\l}">
<polygon fill="#ffffff" stroke="#000000" points="223.5,-1081.5 223.5,-1402.5 342.5,-1402.5 342.5,-1081.5 223.5,-1081.5"/>
<text text-anchor="middle" x="283" y="-1390.5" font-family="Helvetica,sans-Serif" font-size="10.00" fill="#000000">mystl::vector&lt; T &gt;</text>
<polyline fill="none" stroke="#000000" points="223.5,-1383.5 342.5,-1383.5 "/>
<text text-anchor="middle" x="283" y="-1371.5" font-family="Helvetica,sans-Serif" font-size="10.00" fill="#000000"> </text>
<polyline fill="none" stroke="#000000" points="223.5,-1364.5 342.5,-1364.5 "/>
<text text-anchor="start" x="231.5" y="-1352.5" font-family="Helvetica,sans-Serif" font-size="10.00" fill="#000000">+ get_allocator()</text>
<text text-anchor="start" x="231.5" y="-1341.5" font-family="Helvetica,sans-Serif" font-size="10.00" fill="#000000">+ vector()</text>
<text text-anchor="start" x="231.5" y="-1330.5" font-family="Helvetica,sans-Serif" font-size="10.00" fill="#000000">+ vector()</text>
<text text-anchor="start" x="231.5" y="-1319.5" font-family="Helvetica,sans-Serif" font-size="10.00" fill="#000000">+ vector()</text>
<text text-anchor="start" x="231.5" y="-1308.5" font-family="Helvetica,sans-Serif" font-size="10.00" fill="#000000">+ vector()</text>
<text text-anchor="start" x="231.5" y="-1297.5" font-family="Helvetica,sans-Serif" font-size="10.00" fill="#000000">+ vector()</text>
<text text-anchor="start" x="231.5" y="-1286.5" font-family="Helvetica,sans-Serif" font-size="10.00" fill="#000000">+ vector()</text>
<text text-anchor="start" x="231.5" y="-1275.5" font-family="Helvetica,sans-Serif" font-size="10.00" fill="#000000">+ vector()</text>
<text text-anchor="start" x="231.5" y="-1264.5" font-family="Helvetica,sans-Serif" font-size="10.00" fill="#000000">+ operator=()</text>
<text text-anchor="start" x="231.5" y="-1253.5" font-family="Helvetica,sans-Serif" font-size="10.00" fill="#000000">+ operator=()</text>
<text text-anchor="start" x="231.5" y="-1242.5" font-family="Helvetica,sans-Serif" font-size="10.00" fill="#000000">and 49 more...</text>
<text text-anchor="start" x="231.5" y="-1231.5" font-family="Helvetica,sans-Serif" font-size="10.00" fill="#000000">&#45; try_init()</text>
<text text-anchor="start" x="231.5" y="-1220.5" font-family="Helvetica,sans-Serif" font-size="10.00" fill="#000000">&#45; init_space()</text>
<text text-anchor="start" x="231.5" y="-1209.5" font-family="Helvetica,sans-Serif" font-size="10.00" fill="#000000">&#45; fill_init()</text>
<text text-anchor="start" x="231.5" y="-1198.5" font-family="Helvetica,sans-Serif" font-size="10.00" fill="#000000">&#45; range_init()</text>
<text text-anchor="start" x="231.5" y="-1187.5" font-family="Helvetica,sans-Serif" font-size="10.00" fill="#000000">&#45; destroy_and_recover()</text>
<text text-anchor="start" x="231.5" y="-1176.5" font-family="Helvetica,sans-Serif" font-size="10.00" fill="#000000">&#45; get_new_cap()</text>
<text text-anchor="start" x="231.5" y="-1165.5" font-family="Helvetica,sans-Serif" font-size="10.00" fill="#000000">&#45; fill_assign()</text>
<text text-anchor="start" x="231.5" y="-1154.5" font-family="Helvetica,sans-Serif" font-size="10.00" fill="#000000">&#45; copy_assign()</text>
<text text-anchor="start" x="231.5" y="-1143.5" font-family="Helvetica,sans-Serif" font-size="10.00" fill="#000000">&#45; copy_assign()</text>
<text text-anchor="start" x="231.5" y="-1132.5" font-family="Helvetica,sans-Serif" font-size="10.00" fill="#000000">&#45; reallocate_emplace()</text>
<text text-anchor="start" x="231.5" y="-1121.5" font-family="Helvetica,sans-Serif" font-size="10.00" fill="#000000">&#45; reallocate_insert()</text>
<text text-anchor="start" x="231.5" y="-1110.5" font-family="Helvetica,sans-Serif" font-size="10.00" fill="#000000">&#45; fill_insert()</text>
<text text-anchor="start" x="231.5" y="-1099.5" font-family="Helvetica,sans-Serif" font-size="10.00" fill="#000000">&#45; copy_insert()</text>
<text text-anchor="start" x="231.5" y="-1088.5" font-family="Helvetica,sans-Serif" font-size="10.00" fill="#000000">&#45; reinsert()</text>
</a>
</g>
</g>
<!-- Node11&#45;&gt;Node12 -->
<g id="edge9" class="edge">
<title>Node11&#45;&gt;Node12</title>
<path fill="none" stroke="#404040" d="M196.7513,-1472.2929C202.6647,-1456.5035 210.5374,-1435.4825 219.1278,-1412.5455"/>
<polygon fill="none" stroke="#404040" points="219.1882,-1412.3838 217.5467,-1405.362 223.397,-1401.1461 225.0386,-1408.1679 219.1882,-1412.3838"/>
<text text-anchor="middle" x="232.5" y="-1446" font-family="Helvetica,sans-Serif" font-size="10.00" fill="#000000"> &#45;begin_</text>
<text text-anchor="middle" x="232.5" y="-1435" font-family="Helvetica,sans-Serif" font-size="10.00" fill="#000000">&#45;cap_</text>
<text text-anchor="middle" x="232.5" y="-1424" font-family="Helvetica,sans-Serif" font-size="10.00" fill="#000000">&#45;end_</text>
</g>
<!-- Node12&#45;&gt;Node10 -->
<g id="edge8" class="edge">
<title>Node12&#45;&gt;Node10</title>
<path fill="none" stroke="#ffa500" d="M247.8959,-1071.2663C245.3229,-1058.7522 242.7295,-1046.139 240.1622,-1033.6525"/>
<polygon fill="#ffa500" stroke="#ffa500" points="244.5118,-1072.1865 249.9541,-1081.2767 251.3684,-1070.7767 244.5118,-1072.1865"/>
<text text-anchor="middle" x="274.5" y="-1055" font-family="Helvetica,sans-Serif" font-size="10.00" fill="#000000"> &lt; node_ptr &gt;</text>
</g>
<!-- Node13 -->
<g id="node10" class="node">
<title>Node13</title>
<polygon fill="#ffffff" stroke="#bfbfbf" points="283.5,-839 283.5,-896 318.5,-896 318.5,-839 283.5,-839"/>
<text text-anchor="middle" x="301" y="-884" font-family="Helvetica,sans-Serif" font-size="10.00" fill="#000000">float</text>
<polyline fill="none" stroke="#bfbfbf" points="283.5,-877 318.5,-877 "/>
<text text-anchor="middle" x="301" y="-865" font-family="Helvetica,sans-Serif" font-size="10.00" fill="#000000"> </text>
<polyline fill="none" stroke="#bfbfbf" points="283.5,-858 318.5,-858 "/>
<text text-anchor="middle" x="301" y="-846" font-family="Helvetica,sans-Serif" font-size="10.00" fill="#000000"> </text>
</g>
<!-- Node13&#45;&gt;Node9 -->
<g id="edge10" class="edge">
<title>Node13&#45;&gt;Node9</title>
<path fill="none" stroke="#404040" d="M305.3603,-838.9055C310.4443,-805.7244 319.1536,-749.3725 327,-701 329.4412,-685.9499 332.0142,-670.2931 334.6115,-654.6252"/>
<polygon fill="none" stroke="#404040" points="334.634,-654.4894 331.6714,-647.9149 336.6007,-642.6516 339.5633,-649.226 334.634,-654.4894"/>
<text text-anchor="middle" x="346.5" y="-669.5" font-family="Helvetica,sans-Serif" font-size="10.00" fill="#000000"> &#45;mlf_</text>
</g>
<!-- Node14 -->
<g id="node11" class="node">
<title>Node14</title>
<polygon fill="#ffffff" stroke="#bfbfbf" points="336.5,-839 336.5,-896 395.5,-896 395.5,-839 336.5,-839"/>
<text text-anchor="middle" x="366" y="-884" font-family="Helvetica,sans-Serif" font-size="10.00" fill="#000000">KeyEqual</text>
<polyline fill="none" stroke="#bfbfbf" points="336.5,-877 395.5,-877 "/>
<text text-anchor="middle" x="366" y="-865" font-family="Helvetica,sans-Serif" font-size="10.00" fill="#000000"> </text>
<polyline fill="none" stroke="#bfbfbf" points="336.5,-858 395.5,-858 "/>
<text text-anchor="middle" x="366" y="-846" font-family="Helvetica,sans-Serif" font-size="10.00" fill="#000000"> </text>
</g>
<!-- Node14&#45;&gt;Node9 -->
<g id="edge11" class="edge">
<title>Node14&#45;&gt;Node9</title>
<path fill="none" stroke="#404040" d="M365.6928,-838.7355C365.2691,-799.0674 364.4731,-724.5432 363.7283,-654.8138"/>
<polygon fill="none" stroke="#404040" points="363.7279,-654.7672 359.664,-648.8102 363.5997,-642.7678 367.6636,-648.7247 363.7279,-654.7672"/>
<text text-anchor="middle" x="381.5" y="-669.5" font-family="Helvetica,sans-Serif" font-size="10.00" fill="#000000"> &#45;equal_</text>
</g>
<!-- Node15 -->
<g id="node12" class="node">
<title>Node15</title>
<polygon fill="#ffffff" stroke="#bfbfbf" points="414,-839 414,-896 454,-896 454,-839 414,-839"/>
<text text-anchor="middle" x="434" y="-884" font-family="Helvetica,sans-Serif" font-size="10.00" fill="#000000">Hash</text>
<polyline fill="none" stroke="#bfbfbf" points="414,-877 454,-877 "/>
<text text-anchor="middle" x="434" y="-865" font-family="Helvetica,sans-Serif" font-size="10.00" fill="#000000"> </text>
<polyline fill="none" stroke="#bfbfbf" points="414,-858 454,-858 "/>
<text text-anchor="middle" x="434" y="-846" font-family="Helvetica,sans-Serif" font-size="10.00" fill="#000000"> </text>
</g>
<!-- Node15&#45;&gt;Node9 -->
<g id="edge12" class="edge">
<title>Node15&#45;&gt;Node9</title>
<path fill="none" stroke="#404040" d="M430.5457,-838.9678C425.5184,-798.996 415.4173,-724.1386 403,-661 402.5732,-658.8297 402.137,-656.6453 401.6923,-654.4492"/>
<polygon fill="none" stroke="#404040" points="401.6737,-654.3593 396.5392,-649.2961 399.2382,-642.6091 404.3727,-647.6724 401.6737,-654.3593"/>
<text text-anchor="middle" x="422.5" y="-669.5" font-family="Helvetica,sans-Serif" font-size="10.00" fill="#000000"> &#45;hash_</text>
</g>
<!-- Node16 -->
<g id="node13" class="node">
<title>Node16</title>
<polygon fill="#ffffff" stroke="#bfbfbf" points="472.5,-839 472.5,-896 515.5,-896 515.5,-839 472.5,-839"/>
<text text-anchor="middle" x="494" y="-884" font-family="Helvetica,sans-Serif" font-size="10.00" fill="#000000">size_t</text>
<polyline fill="none" stroke="#bfbfbf" points="472.5,-877 515.5,-877 "/>
<text text-anchor="middle" x="494" y="-865" font-family="Helvetica,sans-Serif" font-size="10.00" fill="#000000"> </text>
<polyline fill="none" stroke="#bfbfbf" points="472.5,-858 515.5,-858 "/>
<text text-anchor="middle" x="494" y="-846" font-family="Helvetica,sans-Serif" font-size="10.00" fill="#000000"> </text>
</g>
<!-- Node16&#45;&gt;Node9 -->
<g id="edge13" class="edge">
<title>Node16&#45;&gt;Node9</title>
<path fill="none" stroke="#404040" d="M491.0411,-838.9358C487.0215,-805.3023 478.4937,-748.0591 463,-701 451.9387,-667.4033 436.5269,-632.2932 421.0696,-600.6915"/>
<polygon fill="none" stroke="#404040" points="420.9354,-600.4205 414.6873,-596.8203 415.6074,-589.6681 421.8555,-593.2683 420.9354,-600.4205"/>
<text text-anchor="middle" x="484.5" y="-675" font-family="Helvetica,sans-Serif" font-size="10.00" fill="#000000"> &#45;size_</text>
<text text-anchor="middle" x="484.5" y="-664" font-family="Helvetica,sans-Serif" font-size="10.00" fill="#000000">&#45;bucket_size_</text>
</g>
</g>
</svg>
        <g id="navigator" transform="translate(0 0)" fill="#404254">
                <rect fill="#f2f5e9" fill-opacity="0.5" stroke="#606060" stroke-width=".5" x="0" y="0" width="60" height="60"/>
                <use id="zoomplus" xlink:href="#zoomPlus" x="17" y="9" onmousedown="handleZoom(evt,'in')"/>
                <use id="zoomminus" xlink:href="#zoomMin" x="42" y="9" onmousedown="handleZoom(evt,'out')"/>
                <use id="reset" xlink:href="#resetDef" x="30" y="36" onmousedown="handleReset()"/>
                <g id="arrowUp" xlink:href="#dirArrow" transform="translate(30 24)" onmousedown="handlePan(0,-1)">
                  <use xlink:href="#rim" fill="#404040">
                        <set attributeName="fill" to="#808080" begin="arrowUp.mouseover" end="arrowUp.mouseout"/>
                  </use>
                  <path fill="none" stroke="white" stroke-width="1.5" d="M0,-3.0v7 M-2.5,-0.5L0,-3.0L2.5,-0.5"/>
                </g>
                <g id="arrowRight" xlink:href="#dirArrow" transform="rotate(90) translate(36 -43)" onmousedown="handlePan(1,0)">
                  <use xlink:href="#rim" fill="#404040">
                        <set attributeName="fill" to="#808080" begin="arrowRight.mouseover" end="arrowRight.mouseout"/>
                  </use>
                  <path fill="none" stroke="white" stroke-width="1.5" d="M0,-3.0v7 M-2.5,-0.5L0,-3.0L2.5,-0.5"/>
                </g>
                <g id="arrowDown" xlink:href="#dirArrow" transform="rotate(180) translate(-30 -48)" onmousedown="handlePan(0,1)">
                  <use xlink:href="#rim" fill="#404040">
                        <set attributeName="fill" to="#808080" begin="arrowDown.mouseover" end="arrowDown.mouseout"/>
                  </use>
                  <path fill="none" stroke="white" stroke-width="1.5" d="M0,-3.0v7 M-2.5,-0.5L0,-3.0L2.5,-0.5"/>
                </g>
                <g id="arrowLeft" xlink:href="#dirArrow" transform="rotate(270) translate(-36 17)" onmousedown="handlePan(-1,0)">
                  <use xlink:href="#rim" fill="#404040">
                        <set attributeName="fill" to="#808080" begin="arrowLeft.mouseover" end="arrowLeft.mouseout"/>
                  </use>
                  <path fill="none" stroke="white" stroke-width="1.5" d="M0,-3.0v7 M-2.5,-0.5L0,-3.0L2.5,-0.5"/>
                </g>
        </g>
        <svg viewBox="0 0 15 15" width="100%" height="30px" preserveAspectRatio="xMaxYMin meet">
         <g id="arrow_out" transform="scale(0.3 0.3)">
          <a xlink:href="structmystl_1_1ht__const__iterator__coll__graph_org.svg" target="_base">
           <rect id="button" ry="5" rx="5" y="6" x="6" height="38" width="38"
                fill="#f2f5e9" fill-opacity="0.5" stroke="#606060" stroke-width="1.0"/>
           <path id="arrow"
             d="M 11.500037,31.436501 C 11.940474,20.09759 22.043105,11.32322 32.158766,21.979434 L 37.068811,17.246167 C 37.068811,17.246167 37.088388,32 37.088388,32 L 22.160133,31.978069 C 22.160133,31.978069 26.997745,27.140456 26.997745,27.140456 C 18.528582,18.264221 13.291696,25.230495 11.500037,31.436501 z"
             style="fill:#404040;"/>
          </a>
         </g>
        </svg>
</svg>
