<?xml version="1.0" encoding="UTF-8" standalone="no"?>
<!DOCTYPE svg PUBLIC "-//W3C//DTD SVG 1.1//EN"
 "http://www.w3.org/Graphics/SVG/1.1/DTD/svg11.dtd">
<!-- Generated by graphviz version 2.40.1 (20161225.0304)
 -->
<!-- Title: is_serial_vector&lt; PETScWrappers::MPI::BlockVector &gt; Pages: 1 -->
<svg width="175pt" height="171pt"
 viewBox="0.00 0.00 175.00 171.00" xmlns="http://www.w3.org/2000/svg" xmlns:xlink="http://www.w3.org/1999/xlink">
<g id="graph0" class="graph" transform="scale(1 1) rotate(0) translate(4 167)">
<title>is_serial_vector&lt; PETScWrappers::MPI::BlockVector &gt;</title>
<polygon fill="#ffffff" stroke="transparent" points="-4,4 -4,-167 171,-167 171,4 -4,4"/>
<!-- Node2 -->
<g id="node1" class="node">
<title>Node2</title>
<polygon fill="#bfbfbf" stroke="#000000" points="0,-.5 0,-68.5 167,-68.5 167,-.5 0,-.5"/>
<text text-anchor="start" x="8" y="-56.5" font-family="Helvetica,sans-Serif" font-size="10.00" fill="#000000">is_serial_vector&lt; PETScWrappers</text>
<text text-anchor="middle" x="83.5" y="-45.5" font-family="Helvetica,sans-Serif" font-size="10.00" fill="#000000">::MPI::BlockVector &gt;</text>
<polyline fill="none" stroke="#000000" points="0,-38.5 167,-38.5 "/>
<text text-anchor="middle" x="83.5" y="-26.5" font-family="Helvetica,sans-Serif" font-size="10.00" fill="#000000"> </text>
<polyline fill="none" stroke="#000000" points="0,-19.5 167,-19.5 "/>
<text text-anchor="middle" x="83.5" y="-7.5" font-family="Helvetica,sans-Serif" font-size="10.00" fill="#000000"> </text>
</g>
<!-- Node3 -->
<g id="node2" class="node">
<title>Node3</title>
<polygon fill="#ffffff" stroke="#bfbfbf" points="43,-105.5 43,-162.5 124,-162.5 124,-105.5 43,-105.5"/>
<text text-anchor="middle" x="83.5" y="-150.5" font-family="Helvetica,sans-Serif" font-size="10.00" fill="#000000">std::false_type</text>
<polyline fill="none" stroke="#bfbfbf" points="43,-143.5 124,-143.5 "/>
<text text-anchor="middle" x="83.5" y="-131.5" font-family="Helvetica,sans-Serif" font-size="10.00" fill="#000000"> </text>
<polyline fill="none" stroke="#bfbfbf" points="43,-124.5 124,-124.5 "/>
<text text-anchor="middle" x="83.5" y="-112.5" font-family="Helvetica,sans-Serif" font-size="10.00" fill="#000000"> </text>
</g>
<!-- Node3&#45;&gt;Node2 -->
<g id="edge1" class="edge">
<title>Node3&#45;&gt;Node2</title>
<path fill="none" stroke="#191970" d="M83.5,-95.4268C83.5,-86.6025 83.5,-77.2834 83.5,-68.6596"/>
<polygon fill="none" stroke="#191970" points="80.0001,-95.4873 83.5,-105.4873 87.0001,-95.4873 80.0001,-95.4873"/>
</g>
</g>
</svg>
