<?xml version="1.0" encoding="UTF-8" standalone="no"?>
<!DOCTYPE svg PUBLIC "-//W3C//DTD SVG 1.1//EN"
 "http://www.w3.org/Graphics/SVG/1.1/DTD/svg11.dtd">
<!-- Generated by graphviz version 2.40.1 (20161225.0304)
 -->
<!-- Title: Differentiation::AD::Numbers&lt; ADNumberType, T &gt; Pages: 1 -->
<svg width="182pt" height="320pt"
 viewBox="0.00 0.00 181.50 320.00" xmlns="http://www.w3.org/2000/svg" xmlns:xlink="http://www.w3.org/1999/xlink">
<g id="graph0" class="graph" transform="scale(1 1) rotate(0) translate(4 316)">
<title>Differentiation::AD::Numbers&lt; ADNumberType, T &gt;</title>
<polygon fill="#ffffff" stroke="transparent" points="-4,4 -4,-316 177.5,-316 177.5,4 -4,4"/>
<!-- Node1 -->
<g id="node1" class="node">
<title>Node1</title>
<polygon fill="#bfbfbf" stroke="#000000" points="0,-.5 0,-68.5 163,-68.5 163,-.5 0,-.5"/>
<text text-anchor="start" x="8" y="-56.5" font-family="Helvetica,sans-Serif" font-size="10.00" fill="#000000">Differentiation::AD</text>
<text text-anchor="middle" x="81.5" y="-45.5" font-family="Helvetica,sans-Serif" font-size="10.00" fill="#000000">::Numbers&lt; ADNumberType, T &gt;</text>
<polyline fill="none" stroke="#000000" points="0,-38.5 163,-38.5 "/>
<text text-anchor="middle" x="81.5" y="-26.5" font-family="Helvetica,sans-Serif" font-size="10.00" fill="#000000"> </text>
<polyline fill="none" stroke="#000000" points="0,-19.5 163,-19.5 "/>
<text text-anchor="middle" x="81.5" y="-7.5" font-family="Helvetica,sans-Serif" font-size="10.00" fill="#000000"> </text>
</g>
<!-- Node2 -->
<g id="node2" class="node">
<title>Node2</title>
<g id="a_node2"><a xlink:href="structDifferentiation_1_1AD_1_1Types.html" target="_top" xlink:title="{Differentiation::AD\l::Types\&lt; ADNumberType \&gt;\n||}">
<polygon fill="#ffffff" stroke="#000000" points="12.5,-127.5 12.5,-195.5 150.5,-195.5 150.5,-127.5 12.5,-127.5"/>
<text text-anchor="start" x="20.5" y="-183.5" font-family="Helvetica,sans-Serif" font-size="10.00" fill="#000000">Differentiation::AD</text>
<text text-anchor="middle" x="81.5" y="-172.5" font-family="Helvetica,sans-Serif" font-size="10.00" fill="#000000">::Types&lt; ADNumberType &gt;</text>
<polyline fill="none" stroke="#000000" points="12.5,-165.5 150.5,-165.5 "/>
<text text-anchor="middle" x="81.5" y="-153.5" font-family="Helvetica,sans-Serif" font-size="10.00" fill="#000000"> </text>
<polyline fill="none" stroke="#000000" points="12.5,-146.5 150.5,-146.5 "/>
<text text-anchor="middle" x="81.5" y="-134.5" font-family="Helvetica,sans-Serif" font-size="10.00" fill="#000000"> </text>
</a>
</g>
</g>
<!-- Node2&#45;&gt;Node1 -->
<g id="edge1" class="edge">
<title>Node2&#45;&gt;Node1</title>
<path fill="none" stroke="#404040" d="M81.5,-127.4663C81.5,-113.0883 81.5,-96.1205 81.5,-80.6429"/>
<polygon fill="none" stroke="#404040" points="81.5001,-80.6276 77.5,-74.6276 81.5,-68.6276 85.5,-74.6276 81.5001,-80.6276"/>
<text text-anchor="middle" x="125" y="-101" font-family="Helvetica,sans-Serif" font-size="10.00" fill="#000000"> +max_tape_index</text>
<text text-anchor="middle" x="125" y="-90" font-family="Helvetica,sans-Serif" font-size="10.00" fill="#000000">+invalid_tape_index</text>
</g>
<!-- Node3 -->
<g id="node3" class="node">
<title>Node3</title>
<g id="a_node3"><a xlink:href="structDifferentiation_1_1AD_1_1Types.html" target="_top" xlink:title="{Differentiation::AD\l::Types\&lt; ADNumberType, T \&gt;\n||}">
<polygon fill="#ffffff" stroke="#000000" points="6.5,-243.5 6.5,-311.5 156.5,-311.5 156.5,-243.5 6.5,-243.5"/>
<text text-anchor="start" x="14.5" y="-299.5" font-family="Helvetica,sans-Serif" font-size="10.00" fill="#000000">Differentiation::AD</text>
<text text-anchor="middle" x="81.5" y="-288.5" font-family="Helvetica,sans-Serif" font-size="10.00" fill="#000000">::Types&lt; ADNumberType, T &gt;</text>
<polyline fill="none" stroke="#000000" points="6.5,-281.5 156.5,-281.5 "/>
<text text-anchor="middle" x="81.5" y="-269.5" font-family="Helvetica,sans-Serif" font-size="10.00" fill="#000000"> </text>
<polyline fill="none" stroke="#000000" points="6.5,-262.5 156.5,-262.5 "/>
<text text-anchor="middle" x="81.5" y="-250.5" font-family="Helvetica,sans-Serif" font-size="10.00" fill="#000000"> </text>
</a>
</g>
</g>
<!-- Node3&#45;&gt;Node2 -->
<g id="edge2" class="edge">
<title>Node3&#45;&gt;Node2</title>
<path fill="none" stroke="#ffa500" d="M81.5,-233.1851C81.5,-220.8048 81.5,-207.5422 81.5,-195.833"/>
<polygon fill="#ffa500" stroke="#ffa500" points="78.0001,-233.3235 81.5,-243.3236 85.0001,-233.3236 78.0001,-233.3235"/>
<text text-anchor="middle" x="127.5" y="-217" font-family="Helvetica,sans-Serif" font-size="10.00" fill="#000000"> &lt; ADNumberType &gt;</text>
</g>
</g>
</svg>
