<?xml version="1.0" encoding="UTF-8" standalone="no"?>
<!DOCTYPE svg PUBLIC "-//W3C//DTD SVG 1.1//EN"
 "http://www.w3.org/Graphics/SVG/1.1/DTD/svg11.dtd">
<!-- Generated by graphviz version 2.40.1 (20161225.0304)
 -->
<!-- Title: mystl::ht_iterator_base&lt; T, Hash, KeyEqual &gt; Pages: 1 -->
<svg width="524pt" height="1333pt"
 viewBox="0.00 0.00 523.50 1333.00" xmlns="http://www.w3.org/2000/svg" xmlns:xlink="http://www.w3.org/1999/xlink">
<g id="graph0" class="graph" transform="scale(1 1) rotate(0) translate(4 1329)">
<title>mystl::ht_iterator_base&lt; T, Hash, KeyEqual &gt;</title>
<polygon fill="#ffffff" stroke="transparent" points="-4,4 -4,-1329 519.5,-1329 519.5,4 -4,4"/>
<!-- Node5 -->
<g id="node1" class="node">
<title>Node5</title>
<polygon fill="#bfbfbf" stroke="#000000" points="152,-.5 152,-90.5 296,-90.5 296,-.5 152,-.5"/>
<text text-anchor="start" x="160" y="-78.5" font-family="Helvetica,sans-Serif" font-size="10.00" fill="#000000">mystl::ht_iterator</text>
<text text-anchor="middle" x="224" y="-67.5" font-family="Helvetica,sans-Serif" font-size="10.00" fill="#000000">_base&lt; T, Hash, KeyEqual &gt;</text>
<polyline fill="none" stroke="#000000" points="152,-60.5 296,-60.5 "/>
<text text-anchor="middle" x="224" y="-48.5" font-family="Helvetica,sans-Serif" font-size="10.00" fill="#000000"> </text>
<polyline fill="none" stroke="#000000" points="152,-41.5 296,-41.5 "/>
<text text-anchor="start" x="160" y="-29.5" font-family="Helvetica,sans-Serif" font-size="10.00" fill="#000000">+ ht_iterator_base()</text>
<text text-anchor="start" x="160" y="-18.5" font-family="Helvetica,sans-Serif" font-size="10.00" fill="#000000">+ operator==()</text>
<text text-anchor="start" x="160" y="-7.5" font-family="Helvetica,sans-Serif" font-size="10.00" fill="#000000">+ operator!=()</text>
</g>
<!-- Node6 -->
<g id="node2" class="node">
<title>Node6</title>
<g id="a_node2"><a xlink:href="structmystl_1_1iterator.html" target="_top" xlink:title="{mystl::iterator\&lt; mystl\l::forward_iterator_tag, T \&gt;\n||}">
<polygon fill="#ffffff" stroke="#000000" points="3,-254 3,-322 133,-322 133,-254 3,-254"/>
<text text-anchor="start" x="11" y="-310" font-family="Helvetica,sans-Serif" font-size="10.00" fill="#000000">mystl::iterator&lt; mystl</text>
<text text-anchor="middle" x="68" y="-299" font-family="Helvetica,sans-Serif" font-size="10.00" fill="#000000">::forward_iterator_tag, T &gt;</text>
<polyline fill="none" stroke="#000000" points="3,-292 133,-292 "/>
<text text-anchor="middle" x="68" y="-280" font-family="Helvetica,sans-Serif" font-size="10.00" fill="#000000"> </text>
<polyline fill="none" stroke="#000000" points="3,-273 133,-273 "/>
<text text-anchor="middle" x="68" y="-261" font-family="Helvetica,sans-Serif" font-size="10.00" fill="#000000"> </text>
</a>
</g>
</g>
<!-- Node6&#45;&gt;Node5 -->
<g id="edge1" class="edge">
<title>Node6&#45;&gt;Node5</title>
<path fill="none" stroke="#191970" d="M92.2566,-244.7603C109.6011,-214.4433 133.8738,-173.2071 157,-138 167.3421,-122.2552 179.2351,-105.4578 190.1036,-90.5572"/>
<polygon fill="none" stroke="#191970" points="89.0157,-243.3785 87.1052,-253.7997 95.0974,-246.8444 89.0157,-243.3785"/>
</g>
<!-- Node7 -->
<g id="node3" class="node">
<title>Node7</title>
<g id="a_node3"><a xlink:href="structmystl_1_1iterator.html" target="_top" xlink:title="{mystl::iterator\&lt; Category,\l T, Distance, Pointer,\l Reference \&gt;\n||}">
<polygon fill="#ffffff" stroke="#000000" points="0,-623 0,-702 128,-702 128,-623 0,-623"/>
<text text-anchor="start" x="8" y="-690" font-family="Helvetica,sans-Serif" font-size="10.00" fill="#000000">mystl::iterator&lt; Category,</text>
<text text-anchor="start" x="8" y="-679" font-family="Helvetica,sans-Serif" font-size="10.00" fill="#000000"> T, Distance, Pointer,</text>
<text text-anchor="middle" x="64" y="-668" font-family="Helvetica,sans-Serif" font-size="10.00" fill="#000000"> Reference &gt;</text>
<polyline fill="none" stroke="#000000" points="0,-661 128,-661 "/>
<text text-anchor="middle" x="64" y="-649" font-family="Helvetica,sans-Serif" font-size="10.00" fill="#000000"> </text>
<polyline fill="none" stroke="#000000" points="0,-642 128,-642 "/>
<text text-anchor="middle" x="64" y="-630" font-family="Helvetica,sans-Serif" font-size="10.00" fill="#000000"> </text>
</a>
</g>
</g>
<!-- Node7&#45;&gt;Node6 -->
<g id="edge2" class="edge">
<title>Node7&#45;&gt;Node6</title>
<path fill="none" stroke="#ffa500" d="M64.5359,-612.3294C65.3626,-534.9309 66.9273,-388.4271 67.6355,-322.1229"/>
<polygon fill="#ffa500" stroke="#ffa500" points="61.0314,-612.7396 64.4243,-622.7765 68.031,-612.8145 61.0314,-612.7396"/>
<text text-anchor="start" x="67" y="-470" font-family="Helvetica,sans-Serif" font-size="10.00" fill="#000000"> &lt; mystl::forward_iterator</text>
<text text-anchor="middle" x="122" y="-459" font-family="Helvetica,sans-Serif" font-size="10.00" fill="#000000">_tag, T &gt;</text>
</g>
<!-- Node8 -->
<g id="node4" class="node">
<title>Node8</title>
<polygon fill="#ffffff" stroke="#bfbfbf" points="166,-259.5 166,-316.5 282,-316.5 282,-259.5 166,-259.5"/>
<text text-anchor="middle" x="224" y="-304.5" font-family="Helvetica,sans-Serif" font-size="10.00" fill="#000000">hashtable_node&lt; T &gt; *</text>
<polyline fill="none" stroke="#bfbfbf" points="166,-297.5 282,-297.5 "/>
<text text-anchor="middle" x="224" y="-285.5" font-family="Helvetica,sans-Serif" font-size="10.00" fill="#000000"> </text>
<polyline fill="none" stroke="#bfbfbf" points="166,-278.5 282,-278.5 "/>
<text text-anchor="middle" x="224" y="-266.5" font-family="Helvetica,sans-Serif" font-size="10.00" fill="#000000"> </text>
</g>
<!-- Node8&#45;&gt;Node5 -->
<g id="edge3" class="edge">
<title>Node8&#45;&gt;Node5</title>
<path fill="none" stroke="#404040" d="M224,-259.2298C224,-220.8311 224,-151.9662 224,-102.7806"/>
<polygon fill="none" stroke="#404040" points="224.0001,-102.7303 220,-96.7303 224,-90.7303 228,-96.7302 224.0001,-102.7303"/>
<text text-anchor="middle" x="239.5" y="-112" font-family="Helvetica,sans-Serif" font-size="10.00" fill="#000000"> +node</text>
</g>
<!-- Node9 -->
<g id="node5" class="node">
<title>Node9</title>
<g id="a_node5"><a xlink:href="classmystl_1_1hashtable.html" target="_top" xlink:title="{mystl::hashtable\&lt; T,\l Hash, KeyEqual \&gt;\n||+ get_allocator()\l+ hashtable()\l+ hashtable()\l+ hashtable()\l+ hashtable()\l+ operator=()\l+ operator=()\l+ ~hashtable()\l+ begin()\l+ begin()\land 54 more...\l&#45; is_equal()\l&#45; is_equal()\l&#45; M_cit()\l&#45; M_begin()\l&#45; M_begin()\l&#45; init()\l&#45; copy_init()\l&#45; create_node()\l&#45; destroy_node()\l&#45; next_size()\land 14 more...\l}">
<polygon fill="#ffffff" stroke="#000000" points="308.5,-138.5 308.5,-437.5 415.5,-437.5 415.5,-138.5 308.5,-138.5"/>
<text text-anchor="start" x="316.5" y="-425.5" font-family="Helvetica,sans-Serif" font-size="10.00" fill="#000000">mystl::hashtable&lt; T,</text>
<text text-anchor="middle" x="362" y="-414.5" font-family="Helvetica,sans-Serif" font-size="10.00" fill="#000000"> Hash, KeyEqual &gt;</text>
<polyline fill="none" stroke="#000000" points="308.5,-407.5 415.5,-407.5 "/>
<text text-anchor="middle" x="362" y="-395.5" font-family="Helvetica,sans-Serif" font-size="10.00" fill="#000000"> </text>
<polyline fill="none" stroke="#000000" points="308.5,-388.5 415.5,-388.5 "/>
<text text-anchor="start" x="316.5" y="-376.5" font-family="Helvetica,sans-Serif" font-size="10.00" fill="#000000">+ get_allocator()</text>
<text text-anchor="start" x="316.5" y="-365.5" font-family="Helvetica,sans-Serif" font-size="10.00" fill="#000000">+ hashtable()</text>
<text text-anchor="start" x="316.5" y="-354.5" font-family="Helvetica,sans-Serif" font-size="10.00" fill="#000000">+ hashtable()</text>
<text text-anchor="start" x="316.5" y="-343.5" font-family="Helvetica,sans-Serif" font-size="10.00" fill="#000000">+ hashtable()</text>
<text text-anchor="start" x="316.5" y="-332.5" font-family="Helvetica,sans-Serif" font-size="10.00" fill="#000000">+ hashtable()</text>
<text text-anchor="start" x="316.5" y="-321.5" font-family="Helvetica,sans-Serif" font-size="10.00" fill="#000000">+ operator=()</text>
<text text-anchor="start" x="316.5" y="-310.5" font-family="Helvetica,sans-Serif" font-size="10.00" fill="#000000">+ operator=()</text>
<text text-anchor="start" x="316.5" y="-299.5" font-family="Helvetica,sans-Serif" font-size="10.00" fill="#000000">+ ~hashtable()</text>
<text text-anchor="start" x="316.5" y="-288.5" font-family="Helvetica,sans-Serif" font-size="10.00" fill="#000000">+ begin()</text>
<text text-anchor="start" x="316.5" y="-277.5" font-family="Helvetica,sans-Serif" font-size="10.00" fill="#000000">+ begin()</text>
<text text-anchor="start" x="316.5" y="-266.5" font-family="Helvetica,sans-Serif" font-size="10.00" fill="#000000">and 54 more...</text>
<text text-anchor="start" x="316.5" y="-255.5" font-family="Helvetica,sans-Serif" font-size="10.00" fill="#000000">&#45; is_equal()</text>
<text text-anchor="start" x="316.5" y="-244.5" font-family="Helvetica,sans-Serif" font-size="10.00" fill="#000000">&#45; is_equal()</text>
<text text-anchor="start" x="316.5" y="-233.5" font-family="Helvetica,sans-Serif" font-size="10.00" fill="#000000">&#45; M_cit()</text>
<text text-anchor="start" x="316.5" y="-222.5" font-family="Helvetica,sans-Serif" font-size="10.00" fill="#000000">&#45; M_begin()</text>
<text text-anchor="start" x="316.5" y="-211.5" font-family="Helvetica,sans-Serif" font-size="10.00" fill="#000000">&#45; M_begin()</text>
<text text-anchor="start" x="316.5" y="-200.5" font-family="Helvetica,sans-Serif" font-size="10.00" fill="#000000">&#45; init()</text>
<text text-anchor="start" x="316.5" y="-189.5" font-family="Helvetica,sans-Serif" font-size="10.00" fill="#000000">&#45; copy_init()</text>
<text text-anchor="start" x="316.5" y="-178.5" font-family="Helvetica,sans-Serif" font-size="10.00" fill="#000000">&#45; create_node()</text>
<text text-anchor="start" x="316.5" y="-167.5" font-family="Helvetica,sans-Serif" font-size="10.00" fill="#000000">&#45; destroy_node()</text>
<text text-anchor="start" x="316.5" y="-156.5" font-family="Helvetica,sans-Serif" font-size="10.00" fill="#000000">&#45; next_size()</text>
<text text-anchor="start" x="316.5" y="-145.5" font-family="Helvetica,sans-Serif" font-size="10.00" fill="#000000">and 14 more...</text>
</a>
</g>
</g>
<!-- Node9&#45;&gt;Node5 -->
<g id="edge4" class="edge">
<title>Node9&#45;&gt;Node5</title>
<path fill="none" stroke="#404040" d="M308.4047,-169.4214C302.7842,-158.6598 296.9439,-148.0413 291,-138 283.6612,-125.6022 275.0912,-112.7908 266.58,-100.7993"/>
<polygon fill="none" stroke="#404040" points="266.493,-100.6786 259.7388,-98.1525 259.4728,-90.9463 266.227,-93.4724 266.493,-100.6786"/>
<text text-anchor="middle" x="289" y="-112" font-family="Helvetica,sans-Serif" font-size="10.00" fill="#000000"> +ht</text>
</g>
<!-- Node10 -->
<g id="node6" class="node">
<title>Node10</title>
<g id="a_node6"><a xlink:href="classmystl_1_1vector.html" target="_top" xlink:title="{mystl::vector\&lt; node\l_ptr \&gt;\n||+ get_allocator()\l+ vector()\l+ vector()\l+ vector()\l+ vector()\l+ vector()\l+ vector()\l+ vector()\l+ operator=()\l+ operator=()\land 49 more...\l&#45; try_init()\l&#45; init_space()\l&#45; fill_init()\l&#45; range_init()\l&#45; destroy_and_recover()\l&#45; get_new_cap()\l&#45; fill_assign()\l&#45; copy_assign()\l&#45; copy_assign()\l&#45; reallocate_emplace()\l&#45; reallocate_insert()\l&#45; fill_insert()\l&#45; copy_insert()\l&#45; reinsert()\l}">
<polygon fill="#ffffff" stroke="#000000" points="146.5,-496.5 146.5,-828.5 265.5,-828.5 265.5,-496.5 146.5,-496.5"/>
<text text-anchor="start" x="154.5" y="-816.5" font-family="Helvetica,sans-Serif" font-size="10.00" fill="#000000">mystl::vector&lt; node</text>
<text text-anchor="middle" x="206" y="-805.5" font-family="Helvetica,sans-Serif" font-size="10.00" fill="#000000">_ptr &gt;</text>
<polyline fill="none" stroke="#000000" points="146.5,-798.5 265.5,-798.5 "/>
<text text-anchor="middle" x="206" y="-786.5" font-family="Helvetica,sans-Serif" font-size="10.00" fill="#000000"> </text>
<polyline fill="none" stroke="#000000" points="146.5,-779.5 265.5,-779.5 "/>
<text text-anchor="start" x="154.5" y="-767.5" font-family="Helvetica,sans-Serif" font-size="10.00" fill="#000000">+ get_allocator()</text>
<text text-anchor="start" x="154.5" y="-756.5" font-family="Helvetica,sans-Serif" font-size="10.00" fill="#000000">+ vector()</text>
<text text-anchor="start" x="154.5" y="-745.5" font-family="Helvetica,sans-Serif" font-size="10.00" fill="#000000">+ vector()</text>
<text text-anchor="start" x="154.5" y="-734.5" font-family="Helvetica,sans-Serif" font-size="10.00" fill="#000000">+ vector()</text>
<text text-anchor="start" x="154.5" y="-723.5" font-family="Helvetica,sans-Serif" font-size="10.00" fill="#000000">+ vector()</text>
<text text-anchor="start" x="154.5" y="-712.5" font-family="Helvetica,sans-Serif" font-size="10.00" fill="#000000">+ vector()</text>
<text text-anchor="start" x="154.5" y="-701.5" font-family="Helvetica,sans-Serif" font-size="10.00" fill="#000000">+ vector()</text>
<text text-anchor="start" x="154.5" y="-690.5" font-family="Helvetica,sans-Serif" font-size="10.00" fill="#000000">+ vector()</text>
<text text-anchor="start" x="154.5" y="-679.5" font-family="Helvetica,sans-Serif" font-size="10.00" fill="#000000">+ operator=()</text>
<text text-anchor="start" x="154.5" y="-668.5" font-family="Helvetica,sans-Serif" font-size="10.00" fill="#000000">+ operator=()</text>
<text text-anchor="start" x="154.5" y="-657.5" font-family="Helvetica,sans-Serif" font-size="10.00" fill="#000000">and 49 more...</text>
<text text-anchor="start" x="154.5" y="-646.5" font-family="Helvetica,sans-Serif" font-size="10.00" fill="#000000">&#45; try_init()</text>
<text text-anchor="start" x="154.5" y="-635.5" font-family="Helvetica,sans-Serif" font-size="10.00" fill="#000000">&#45; init_space()</text>
<text text-anchor="start" x="154.5" y="-624.5" font-family="Helvetica,sans-Serif" font-size="10.00" fill="#000000">&#45; fill_init()</text>
<text text-anchor="start" x="154.5" y="-613.5" font-family="Helvetica,sans-Serif" font-size="10.00" fill="#000000">&#45; range_init()</text>
<text text-anchor="start" x="154.5" y="-602.5" font-family="Helvetica,sans-Serif" font-size="10.00" fill="#000000">&#45; destroy_and_recover()</text>
<text text-anchor="start" x="154.5" y="-591.5" font-family="Helvetica,sans-Serif" font-size="10.00" fill="#000000">&#45; get_new_cap()</text>
<text text-anchor="start" x="154.5" y="-580.5" font-family="Helvetica,sans-Serif" font-size="10.00" fill="#000000">&#45; fill_assign()</text>
<text text-anchor="start" x="154.5" y="-569.5" font-family="Helvetica,sans-Serif" font-size="10.00" fill="#000000">&#45; copy_assign()</text>
<text text-anchor="start" x="154.5" y="-558.5" font-family="Helvetica,sans-Serif" font-size="10.00" fill="#000000">&#45; copy_assign()</text>
<text text-anchor="start" x="154.5" y="-547.5" font-family="Helvetica,sans-Serif" font-size="10.00" fill="#000000">&#45; reallocate_emplace()</text>
<text text-anchor="start" x="154.5" y="-536.5" font-family="Helvetica,sans-Serif" font-size="10.00" fill="#000000">&#45; reallocate_insert()</text>
<text text-anchor="start" x="154.5" y="-525.5" font-family="Helvetica,sans-Serif" font-size="10.00" fill="#000000">&#45; fill_insert()</text>
<text text-anchor="start" x="154.5" y="-514.5" font-family="Helvetica,sans-Serif" font-size="10.00" fill="#000000">&#45; copy_insert()</text>
<text text-anchor="start" x="154.5" y="-503.5" font-family="Helvetica,sans-Serif" font-size="10.00" fill="#000000">&#45; reinsert()</text>
</a>
</g>
</g>
<!-- Node10&#45;&gt;Node9 -->
<g id="edge5" class="edge">
<title>Node10&#45;&gt;Node9</title>
<path fill="none" stroke="#404040" d="M263.6767,-496.4379C269.2625,-482.6474 275.0668,-469.0146 281,-456 284.7963,-447.6728 286.8179,-446.1402 291,-438 295.028,-430.1596 299.1073,-422.051 303.1681,-413.8501"/>
<polygon fill="none" stroke="#404040" points="303.1933,-413.7987 302.2523,-406.6492 308.4899,-403.0308 309.4309,-410.1802 303.1933,-413.7987"/>
<text text-anchor="middle" x="304" y="-464.5" font-family="Helvetica,sans-Serif" font-size="10.00" fill="#000000"> &#45;buckets_</text>
</g>
<!-- Node11 -->
<g id="node7" class="node">
<title>Node11</title>
<polygon fill="#ffffff" stroke="#bfbfbf" points="150.5,-1267.5 150.5,-1324.5 221.5,-1324.5 221.5,-1267.5 150.5,-1267.5"/>
<text text-anchor="middle" x="186" y="-1312.5" font-family="Helvetica,sans-Serif" font-size="10.00" fill="#000000">value_type *</text>
<polyline fill="none" stroke="#bfbfbf" points="150.5,-1305.5 221.5,-1305.5 "/>
<text text-anchor="middle" x="186" y="-1293.5" font-family="Helvetica,sans-Serif" font-size="10.00" fill="#000000"> </text>
<polyline fill="none" stroke="#bfbfbf" points="150.5,-1286.5 221.5,-1286.5 "/>
<text text-anchor="middle" x="186" y="-1274.5" font-family="Helvetica,sans-Serif" font-size="10.00" fill="#000000"> </text>
</g>
<!-- Node11&#45;&gt;Node10 -->
<g id="edge6" class="edge">
<title>Node11&#45;&gt;Node10</title>
<path fill="none" stroke="#404040" d="M183.4085,-1267.2981C181.7792,-1247.778 179.833,-1221.3536 179,-1198 173.8986,-1054.9798 170.0045,-1018.8281 179,-876 179.7265,-864.4642 180.6718,-852.5986 181.7723,-840.6512"/>
<polygon fill="none" stroke="#404040" points="181.7742,-840.6308 178.3665,-834.2756 182.9222,-828.6858 186.3298,-835.041 181.7742,-840.6308"/>
<text text-anchor="middle" x="196.5" y="-1045.5" font-family="Helvetica,sans-Serif" font-size="10.00" fill="#000000"> &#45;begin_</text>
<text text-anchor="middle" x="196.5" y="-1034.5" font-family="Helvetica,sans-Serif" font-size="10.00" fill="#000000">&#45;cap_</text>
<text text-anchor="middle" x="196.5" y="-1023.5" font-family="Helvetica,sans-Serif" font-size="10.00" fill="#000000">&#45;end_</text>
</g>
<!-- Node12 -->
<g id="node8" class="node">
<title>Node12</title>
<g id="a_node8"><a xlink:href="classmystl_1_1vector.html" target="_top" xlink:title="{mystl::vector\&lt; T \&gt;\n||+ get_allocator()\l+ vector()\l+ vector()\l+ vector()\l+ vector()\l+ vector()\l+ vector()\l+ vector()\l+ operator=()\l+ operator=()\land 49 more...\l&#45; try_init()\l&#45; init_space()\l&#45; fill_init()\l&#45; range_init()\l&#45; destroy_and_recover()\l&#45; get_new_cap()\l&#45; fill_assign()\l&#45; copy_assign()\l&#45; copy_assign()\l&#45; reallocate_emplace()\l&#45; reallocate_insert()\l&#45; fill_insert()\l&#45; copy_insert()\l&#45; reinsert()\l}">
<polygon fill="#ffffff" stroke="#000000" points="223.5,-876.5 223.5,-1197.5 342.5,-1197.5 342.5,-876.5 223.5,-876.5"/>
<text text-anchor="middle" x="283" y="-1185.5" font-family="Helvetica,sans-Serif" font-size="10.00" fill="#000000">mystl::vector&lt; T &gt;</text>
<polyline fill="none" stroke="#000000" points="223.5,-1178.5 342.5,-1178.5 "/>
<text text-anchor="middle" x="283" y="-1166.5" font-family="Helvetica,sans-Serif" font-size="10.00" fill="#000000"> </text>
<polyline fill="none" stroke="#000000" points="223.5,-1159.5 342.5,-1159.5 "/>
<text text-anchor="start" x="231.5" y="-1147.5" font-family="Helvetica,sans-Serif" font-size="10.00" fill="#000000">+ get_allocator()</text>
<text text-anchor="start" x="231.5" y="-1136.5" font-family="Helvetica,sans-Serif" font-size="10.00" fill="#000000">+ vector()</text>
<text text-anchor="start" x="231.5" y="-1125.5" font-family="Helvetica,sans-Serif" font-size="10.00" fill="#000000">+ vector()</text>
<text text-anchor="start" x="231.5" y="-1114.5" font-family="Helvetica,sans-Serif" font-size="10.00" fill="#000000">+ vector()</text>
<text text-anchor="start" x="231.5" y="-1103.5" font-family="Helvetica,sans-Serif" font-size="10.00" fill="#000000">+ vector()</text>
<text text-anchor="start" x="231.5" y="-1092.5" font-family="Helvetica,sans-Serif" font-size="10.00" fill="#000000">+ vector()</text>
<text text-anchor="start" x="231.5" y="-1081.5" font-family="Helvetica,sans-Serif" font-size="10.00" fill="#000000">+ vector()</text>
<text text-anchor="start" x="231.5" y="-1070.5" font-family="Helvetica,sans-Serif" font-size="10.00" fill="#000000">+ vector()</text>
<text text-anchor="start" x="231.5" y="-1059.5" font-family="Helvetica,sans-Serif" font-size="10.00" fill="#000000">+ operator=()</text>
<text text-anchor="start" x="231.5" y="-1048.5" font-family="Helvetica,sans-Serif" font-size="10.00" fill="#000000">+ operator=()</text>
<text text-anchor="start" x="231.5" y="-1037.5" font-family="Helvetica,sans-Serif" font-size="10.00" fill="#000000">and 49 more...</text>
<text text-anchor="start" x="231.5" y="-1026.5" font-family="Helvetica,sans-Serif" font-size="10.00" fill="#000000">&#45; try_init()</text>
<text text-anchor="start" x="231.5" y="-1015.5" font-family="Helvetica,sans-Serif" font-size="10.00" fill="#000000">&#45; init_space()</text>
<text text-anchor="start" x="231.5" y="-1004.5" font-family="Helvetica,sans-Serif" font-size="10.00" fill="#000000">&#45; fill_init()</text>
<text text-anchor="start" x="231.5" y="-993.5" font-family="Helvetica,sans-Serif" font-size="10.00" fill="#000000">&#45; range_init()</text>
<text text-anchor="start" x="231.5" y="-982.5" font-family="Helvetica,sans-Serif" font-size="10.00" fill="#000000">&#45; destroy_and_recover()</text>
<text text-anchor="start" x="231.5" y="-971.5" font-family="Helvetica,sans-Serif" font-size="10.00" fill="#000000">&#45; get_new_cap()</text>
<text text-anchor="start" x="231.5" y="-960.5" font-family="Helvetica,sans-Serif" font-size="10.00" fill="#000000">&#45; fill_assign()</text>
<text text-anchor="start" x="231.5" y="-949.5" font-family="Helvetica,sans-Serif" font-size="10.00" fill="#000000">&#45; copy_assign()</text>
<text text-anchor="start" x="231.5" y="-938.5" font-family="Helvetica,sans-Serif" font-size="10.00" fill="#000000">&#45; copy_assign()</text>
<text text-anchor="start" x="231.5" y="-927.5" font-family="Helvetica,sans-Serif" font-size="10.00" fill="#000000">&#45; reallocate_emplace()</text>
<text text-anchor="start" x="231.5" y="-916.5" font-family="Helvetica,sans-Serif" font-size="10.00" fill="#000000">&#45; reallocate_insert()</text>
<text text-anchor="start" x="231.5" y="-905.5" font-family="Helvetica,sans-Serif" font-size="10.00" fill="#000000">&#45; fill_insert()</text>
<text text-anchor="start" x="231.5" y="-894.5" font-family="Helvetica,sans-Serif" font-size="10.00" fill="#000000">&#45; copy_insert()</text>
<text text-anchor="start" x="231.5" y="-883.5" font-family="Helvetica,sans-Serif" font-size="10.00" fill="#000000">&#45; reinsert()</text>
</a>
</g>
</g>
<!-- Node11&#45;&gt;Node12 -->
<g id="edge8" class="edge">
<title>Node11&#45;&gt;Node12</title>
<path fill="none" stroke="#404040" d="M196.7513,-1267.2929C202.6647,-1251.5035 210.5374,-1230.4825 219.1278,-1207.5455"/>
<polygon fill="none" stroke="#404040" points="219.1882,-1207.3838 217.5467,-1200.362 223.397,-1196.1461 225.0386,-1203.1679 219.1882,-1207.3838"/>
<text text-anchor="middle" x="232.5" y="-1241" font-family="Helvetica,sans-Serif" font-size="10.00" fill="#000000"> &#45;begin_</text>
<text text-anchor="middle" x="232.5" y="-1230" font-family="Helvetica,sans-Serif" font-size="10.00" fill="#000000">&#45;cap_</text>
<text text-anchor="middle" x="232.5" y="-1219" font-family="Helvetica,sans-Serif" font-size="10.00" fill="#000000">&#45;end_</text>
</g>
<!-- Node12&#45;&gt;Node10 -->
<g id="edge7" class="edge">
<title>Node12&#45;&gt;Node10</title>
<path fill="none" stroke="#ffa500" d="M247.8959,-866.2663C245.3229,-853.7522 242.7295,-841.139 240.1622,-828.6525"/>
<polygon fill="#ffa500" stroke="#ffa500" points="244.5118,-867.1865 249.9541,-876.2767 251.3684,-865.7767 244.5118,-867.1865"/>
<text text-anchor="middle" x="274.5" y="-850" font-family="Helvetica,sans-Serif" font-size="10.00" fill="#000000"> &lt; node_ptr &gt;</text>
</g>
<!-- Node13 -->
<g id="node9" class="node">
<title>Node13</title>
<polygon fill="#ffffff" stroke="#bfbfbf" points="283.5,-634 283.5,-691 318.5,-691 318.5,-634 283.5,-634"/>
<text text-anchor="middle" x="301" y="-679" font-family="Helvetica,sans-Serif" font-size="10.00" fill="#000000">float</text>
<polyline fill="none" stroke="#bfbfbf" points="283.5,-672 318.5,-672 "/>
<text text-anchor="middle" x="301" y="-660" font-family="Helvetica,sans-Serif" font-size="10.00" fill="#000000"> </text>
<polyline fill="none" stroke="#bfbfbf" points="283.5,-653 318.5,-653 "/>
<text text-anchor="middle" x="301" y="-641" font-family="Helvetica,sans-Serif" font-size="10.00" fill="#000000"> </text>
</g>
<!-- Node13&#45;&gt;Node9 -->
<g id="edge9" class="edge">
<title>Node13&#45;&gt;Node9</title>
<path fill="none" stroke="#404040" d="M305.3603,-633.9055C310.4443,-600.7244 319.1536,-544.3725 327,-496 329.4412,-480.9499 332.0142,-465.2931 334.6115,-449.6252"/>
<polygon fill="none" stroke="#404040" points="334.634,-449.4894 331.6714,-442.9149 336.6007,-437.6516 339.5633,-444.226 334.634,-449.4894"/>
<text text-anchor="middle" x="346.5" y="-464.5" font-family="Helvetica,sans-Serif" font-size="10.00" fill="#000000"> &#45;mlf_</text>
</g>
<!-- Node14 -->
<g id="node10" class="node">
<title>Node14</title>
<polygon fill="#ffffff" stroke="#bfbfbf" points="336.5,-634 336.5,-691 395.5,-691 395.5,-634 336.5,-634"/>
<text text-anchor="middle" x="366" y="-679" font-family="Helvetica,sans-Serif" font-size="10.00" fill="#000000">KeyEqual</text>
<polyline fill="none" stroke="#bfbfbf" points="336.5,-672 395.5,-672 "/>
<text text-anchor="middle" x="366" y="-660" font-family="Helvetica,sans-Serif" font-size="10.00" fill="#000000"> </text>
<polyline fill="none" stroke="#bfbfbf" points="336.5,-653 395.5,-653 "/>
<text text-anchor="middle" x="366" y="-641" font-family="Helvetica,sans-Serif" font-size="10.00" fill="#000000"> </text>
</g>
<!-- Node14&#45;&gt;Node9 -->
<g id="edge10" class="edge">
<title>Node14&#45;&gt;Node9</title>
<path fill="none" stroke="#404040" d="M365.6928,-633.7355C365.2691,-594.0674 364.4731,-519.5432 363.7283,-449.8138"/>
<polygon fill="none" stroke="#404040" points="363.7279,-449.7672 359.664,-443.8102 363.5997,-437.7678 367.6636,-443.7247 363.7279,-449.7672"/>
<text text-anchor="middle" x="381.5" y="-464.5" font-family="Helvetica,sans-Serif" font-size="10.00" fill="#000000"> &#45;equal_</text>
</g>
<!-- Node15 -->
<g id="node11" class="node">
<title>Node15</title>
<polygon fill="#ffffff" stroke="#bfbfbf" points="414,-634 414,-691 454,-691 454,-634 414,-634"/>
<text text-anchor="middle" x="434" y="-679" font-family="Helvetica,sans-Serif" font-size="10.00" fill="#000000">Hash</text>
<polyline fill="none" stroke="#bfbfbf" points="414,-672 454,-672 "/>
<text text-anchor="middle" x="434" y="-660" font-family="Helvetica,sans-Serif" font-size="10.00" fill="#000000"> </text>
<polyline fill="none" stroke="#bfbfbf" points="414,-653 454,-653 "/>
<text text-anchor="middle" x="434" y="-641" font-family="Helvetica,sans-Serif" font-size="10.00" fill="#000000"> </text>
</g>
<!-- Node15&#45;&gt;Node9 -->
<g id="edge11" class="edge">
<title>Node15&#45;&gt;Node9</title>
<path fill="none" stroke="#404040" d="M430.5457,-633.9678C425.5184,-593.996 415.4173,-519.1386 403,-456 402.5732,-453.8297 402.137,-451.6453 401.6923,-449.4492"/>
<polygon fill="none" stroke="#404040" points="401.6737,-449.3593 396.5392,-444.2961 399.2382,-437.6091 404.3727,-442.6724 401.6737,-449.3593"/>
<text text-anchor="middle" x="422.5" y="-464.5" font-family="Helvetica,sans-Serif" font-size="10.00" fill="#000000"> &#45;hash_</text>
</g>
<!-- Node16 -->
<g id="node12" class="node">
<title>Node16</title>
<polygon fill="#ffffff" stroke="#bfbfbf" points="472.5,-634 472.5,-691 515.5,-691 515.5,-634 472.5,-634"/>
<text text-anchor="middle" x="494" y="-679" font-family="Helvetica,sans-Serif" font-size="10.00" fill="#000000">size_t</text>
<polyline fill="none" stroke="#bfbfbf" points="472.5,-672 515.5,-672 "/>
<text text-anchor="middle" x="494" y="-660" font-family="Helvetica,sans-Serif" font-size="10.00" fill="#000000"> </text>
<polyline fill="none" stroke="#bfbfbf" points="472.5,-653 515.5,-653 "/>
<text text-anchor="middle" x="494" y="-641" font-family="Helvetica,sans-Serif" font-size="10.00" fill="#000000"> </text>
</g>
<!-- Node16&#45;&gt;Node9 -->
<g id="edge12" class="edge">
<title>Node16&#45;&gt;Node9</title>
<path fill="none" stroke="#404040" d="M491.0411,-633.9358C487.0215,-600.3023 478.4937,-543.0591 463,-496 451.9387,-462.4033 436.5269,-427.2932 421.0696,-395.6915"/>
<polygon fill="none" stroke="#404040" points="420.9354,-395.4205 414.6873,-391.8203 415.6074,-384.6681 421.8555,-388.2683 420.9354,-395.4205"/>
<text text-anchor="middle" x="484.5" y="-470" font-family="Helvetica,sans-Serif" font-size="10.00" fill="#000000"> &#45;size_</text>
<text text-anchor="middle" x="484.5" y="-459" font-family="Helvetica,sans-Serif" font-size="10.00" fill="#000000">&#45;bucket_size_</text>
</g>
</g>
</svg>
