<?xml version="1.0" encoding="UTF-8" standalone="no"?>
<!DOCTYPE svg PUBLIC "-//W3C//DTD SVG 1.1//EN"
 "http://www.w3.org/Graphics/SVG/1.1/DTD/svg11.dtd">
<!-- Generated by graphviz version 2.40.1 (20161225.0304)
 -->
<!-- Title: Utilities::MPI::internal::ComputeIndexOwner::Dictionary Pages: 1 -->
<svg width="412pt" height="513pt"
 viewBox="0.00 0.00 411.50 513.00" xmlns="http://www.w3.org/2000/svg" xmlns:xlink="http://www.w3.org/1999/xlink">
<g id="graph0" class="graph" transform="scale(1 1) rotate(0) translate(4 509)">
<title>Utilities::MPI::internal::ComputeIndexOwner::Dictionary</title>
<polygon fill="#ffffff" stroke="transparent" points="-4,4 -4,-509 407.5,-509 407.5,4 -4,4"/>
<!-- Node1 -->
<g id="node1" class="node">
<title>Node1</title>
<polygon fill="#bfbfbf" stroke="#000000" points="114,-.5 114,-112.5 279,-112.5 279,-.5 114,-.5"/>
<text text-anchor="start" x="122" y="-100.5" font-family="Helvetica,sans-Serif" font-size="10.00" fill="#000000">Utilities::MPI::internal</text>
<text text-anchor="middle" x="196.5" y="-89.5" font-family="Helvetica,sans-Serif" font-size="10.00" fill="#000000">::ComputeIndexOwner::Dictionary</text>
<polyline fill="none" stroke="#000000" points="114,-82.5 279,-82.5 "/>
<text text-anchor="middle" x="196.5" y="-70.5" font-family="Helvetica,sans-Serif" font-size="10.00" fill="#000000"> </text>
<polyline fill="none" stroke="#000000" points="114,-63.5 279,-63.5 "/>
<text text-anchor="start" x="122" y="-51.5" font-family="Helvetica,sans-Serif" font-size="10.00" fill="#000000">+ reinit()</text>
<text text-anchor="start" x="122" y="-40.5" font-family="Helvetica,sans-Serif" font-size="10.00" fill="#000000">+ dof_to_dict_rank()</text>
<text text-anchor="start" x="122" y="-29.5" font-family="Helvetica,sans-Serif" font-size="10.00" fill="#000000">+ get_index_offset()</text>
<text text-anchor="start" x="122" y="-18.5" font-family="Helvetica,sans-Serif" font-size="10.00" fill="#000000">+ get_owning_rank_index()</text>
<text text-anchor="start" x="122" y="-7.5" font-family="Helvetica,sans-Serif" font-size="10.00" fill="#000000">&#45; partition()</text>
</g>
<!-- Node2 -->
<g id="node2" class="node">
<title>Node2</title>
<polygon fill="#ffffff" stroke="#bfbfbf" points="15,-226.5 15,-294.5 126,-294.5 126,-226.5 15,-226.5"/>
<text text-anchor="start" x="23" y="-282.5" font-family="Helvetica,sans-Serif" font-size="10.00" fill="#000000">std::vector&lt; unsigned</text>
<text text-anchor="middle" x="70.5" y="-271.5" font-family="Helvetica,sans-Serif" font-size="10.00" fill="#000000"> int &gt;</text>
<polyline fill="none" stroke="#bfbfbf" points="15,-264.5 126,-264.5 "/>
<text text-anchor="middle" x="70.5" y="-252.5" font-family="Helvetica,sans-Serif" font-size="10.00" fill="#000000"> </text>
<polyline fill="none" stroke="#bfbfbf" points="15,-245.5 126,-245.5 "/>
<text text-anchor="middle" x="70.5" y="-233.5" font-family="Helvetica,sans-Serif" font-size="10.00" fill="#000000"> </text>
</g>
<!-- Node2&#45;&gt;Node1 -->
<g id="edge1" class="edge">
<title>Node2&#45;&gt;Node1</title>
<path fill="none" stroke="#404040" d="M68.3441,-226.3517C68.1941,-198.6745 71.7437,-159.6946 89.5,-131 93.8214,-124.0164 99.0672,-117.516 104.8883,-111.502"/>
<polygon fill="none" stroke="#404040" points="105.092,-111.3083 106.6837,-104.275 113.7882,-103.0391 112.1965,-110.0724 105.092,-111.3083"/>
<text text-anchor="start" x="89.5" y="-183.5" font-family="Helvetica,sans-Serif" font-size="10.00" fill="#000000"> +actually_owning_rank</text>
<text text-anchor="middle" x="141" y="-172.5" font-family="Helvetica,sans-Serif" font-size="10.00" fill="#000000">_list</text>
<text text-anchor="start" x="89.5" y="-161.5" font-family="Helvetica,sans-Serif" font-size="10.00" fill="#000000">+actually_owning</text>
<text text-anchor="middle" x="141" y="-150.5" font-family="Helvetica,sans-Serif" font-size="10.00" fill="#000000">_ranks</text>
</g>
<!-- Node3 -->
<g id="node3" class="node">
<title>Node3</title>
<g id="a_node3"><a xlink:href="classunsigned_01int.html" target="_top" xlink:title="{unsigned int\n||}">
<polygon fill="#ffffff" stroke="#000000" points="0,-342.5 0,-399.5 69,-399.5 69,-342.5 0,-342.5"/>
<text text-anchor="middle" x="34.5" y="-387.5" font-family="Helvetica,sans-Serif" font-size="10.00" fill="#000000">unsigned int</text>
<polyline fill="none" stroke="#000000" points="0,-380.5 69,-380.5 "/>
<text text-anchor="middle" x="34.5" y="-368.5" font-family="Helvetica,sans-Serif" font-size="10.00" fill="#000000"> </text>
<polyline fill="none" stroke="#000000" points="0,-361.5 69,-361.5 "/>
<text text-anchor="middle" x="34.5" y="-349.5" font-family="Helvetica,sans-Serif" font-size="10.00" fill="#000000"> </text>
</a>
</g>
</g>
<!-- Node3&#45;&gt;Node2 -->
<g id="edge2" class="edge">
<title>Node3&#45;&gt;Node2</title>
<path fill="none" stroke="#404040" d="M39.7712,-342.3834C41.8153,-332.9235 44.4148,-322.4138 47.5,-313 48.2748,-310.636 49.1175,-308.233 50.0077,-305.8213"/>
<polygon fill="none" stroke="#404040" points="50.0369,-305.7471 48.5179,-298.6978 54.4407,-294.5844 55.9597,-301.6337 50.0369,-305.7471"/>
<text text-anchor="middle" x="72" y="-316" font-family="Helvetica,sans-Serif" font-size="10.00" fill="#000000"> +elements</text>
</g>
<!-- Node4 -->
<g id="node4" class="node">
<title>Node4</title>
<g id="a_node4"><a xlink:title="STL class. ">
<polygon fill="#ffffff" stroke="#bfbfbf" points="87,-342.5 87,-399.5 174,-399.5 174,-342.5 87,-342.5"/>
<text text-anchor="middle" x="130.5" y="-387.5" font-family="Helvetica,sans-Serif" font-size="10.00" fill="#000000">std::vector&lt; T &gt;</text>
<polyline fill="none" stroke="#bfbfbf" points="87,-380.5 174,-380.5 "/>
<text text-anchor="middle" x="130.5" y="-368.5" font-family="Helvetica,sans-Serif" font-size="10.00" fill="#000000"> </text>
<polyline fill="none" stroke="#bfbfbf" points="87,-361.5 174,-361.5 "/>
<text text-anchor="middle" x="130.5" y="-349.5" font-family="Helvetica,sans-Serif" font-size="10.00" fill="#000000"> </text>
</a>
</g>
</g>
<!-- Node4&#45;&gt;Node2 -->
<g id="edge3" class="edge">
<title>Node4&#45;&gt;Node2</title>
<path fill="none" stroke="#ffa500" d="M110.0765,-333.3866C103.2513,-320.817 95.6874,-306.8867 89.0159,-294.6001"/>
<polygon fill="#ffa500" stroke="#ffa500" points="107.0447,-335.138 114.8923,-342.2559 113.1963,-331.7977 107.0447,-335.138"/>
<text text-anchor="middle" x="141.5" y="-316" font-family="Helvetica,sans-Serif" font-size="10.00" fill="#000000"> &lt; unsigned int &gt;</text>
</g>
<!-- Node5 -->
<g id="node5" class="node">
<title>Node5</title>
<polygon fill="#ffffff" stroke="#bfbfbf" points="116,-447.5 116,-504.5 145,-504.5 145,-447.5 116,-447.5"/>
<text text-anchor="middle" x="130.5" y="-492.5" font-family="Helvetica,sans-Serif" font-size="10.00" fill="#000000">T</text>
<polyline fill="none" stroke="#bfbfbf" points="116,-485.5 145,-485.5 "/>
<text text-anchor="middle" x="130.5" y="-473.5" font-family="Helvetica,sans-Serif" font-size="10.00" fill="#000000"> </text>
<polyline fill="none" stroke="#bfbfbf" points="116,-466.5 145,-466.5 "/>
<text text-anchor="middle" x="130.5" y="-454.5" font-family="Helvetica,sans-Serif" font-size="10.00" fill="#000000"> </text>
</g>
<!-- Node5&#45;&gt;Node4 -->
<g id="edge4" class="edge">
<title>Node5&#45;&gt;Node4</title>
<path fill="none" stroke="#404040" d="M130.5,-447.3083C130.5,-436.4281 130.5,-423.817 130.5,-412.0192"/>
<polygon fill="none" stroke="#404040" points="130.5001,-411.657 126.5,-405.6571 130.5,-399.657 134.5,-405.657 130.5001,-411.657"/>
<text text-anchor="middle" x="155" y="-421" font-family="Helvetica,sans-Serif" font-size="10.00" fill="#000000"> +elements</text>
</g>
<!-- Node6 -->
<g id="node6" class="node">
<title>Node6</title>
<polygon fill="#ffffff" stroke="#bfbfbf" points="168.5,-232 168.5,-289 224.5,-289 224.5,-232 168.5,-232"/>
<text text-anchor="middle" x="196.5" y="-277" font-family="Helvetica,sans-Serif" font-size="10.00" fill="#000000">unsigned</text>
<polyline fill="none" stroke="#bfbfbf" points="168.5,-270 224.5,-270 "/>
<text text-anchor="middle" x="196.5" y="-258" font-family="Helvetica,sans-Serif" font-size="10.00" fill="#000000"> </text>
<polyline fill="none" stroke="#bfbfbf" points="168.5,-251 224.5,-251 "/>
<text text-anchor="middle" x="196.5" y="-239" font-family="Helvetica,sans-Serif" font-size="10.00" fill="#000000"> </text>
</g>
<!-- Node6&#45;&gt;Node1 -->
<g id="edge5" class="edge">
<title>Node6&#45;&gt;Node1</title>
<path fill="none" stroke="#404040" d="M196.5,-231.7045C196.5,-204.0755 196.5,-161.3008 196.5,-124.9334"/>
<polygon fill="none" stroke="#404040" points="196.5001,-124.8769 192.5,-118.8769 196.5,-112.8769 200.5,-118.8768 196.5001,-124.8769"/>
<text text-anchor="middle" x="259" y="-200" font-family="Helvetica,sans-Serif" font-size="10.00" fill="#000000"> +dofs_per_process</text>
<text text-anchor="middle" x="259" y="-189" font-family="Helvetica,sans-Serif" font-size="10.00" fill="#000000">+locally_owned_size</text>
<text text-anchor="middle" x="259" y="-178" font-family="Helvetica,sans-Serif" font-size="10.00" fill="#000000">+stride_small_size</text>
<text text-anchor="middle" x="259" y="-167" font-family="Helvetica,sans-Serif" font-size="10.00" fill="#000000">+size</text>
<text text-anchor="start" x="196.5" y="-156" font-family="Helvetica,sans-Serif" font-size="10.00" fill="#000000">+n_dict_procs_in</text>
<text text-anchor="middle" x="259" y="-145" font-family="Helvetica,sans-Serif" font-size="10.00" fill="#000000">_owned_indices</text>
<text text-anchor="middle" x="259" y="-134" font-family="Helvetica,sans-Serif" font-size="10.00" fill="#000000">+range_minimum_grain_size</text>
</g>
<!-- Node7 -->
<g id="node7" class="node">
<title>Node7</title>
<polygon fill="#ffffff" stroke="#bfbfbf" points="296,-226.5 296,-294.5 393,-294.5 393,-226.5 296,-226.5"/>
<text text-anchor="start" x="304" y="-282.5" font-family="Helvetica,sans-Serif" font-size="10.00" fill="#000000">pair&lt; unsigned int,</text>
<text text-anchor="middle" x="344.5" y="-271.5" font-family="Helvetica,sans-Serif" font-size="10.00" fill="#000000"> unsigned int &gt;</text>
<polyline fill="none" stroke="#bfbfbf" points="296,-264.5 393,-264.5 "/>
<text text-anchor="middle" x="344.5" y="-252.5" font-family="Helvetica,sans-Serif" font-size="10.00" fill="#000000"> </text>
<polyline fill="none" stroke="#bfbfbf" points="296,-245.5 393,-245.5 "/>
<text text-anchor="middle" x="344.5" y="-233.5" font-family="Helvetica,sans-Serif" font-size="10.00" fill="#000000"> </text>
</g>
<!-- Node7&#45;&gt;Node1 -->
<g id="edge6" class="edge">
<title>Node7&#45;&gt;Node1</title>
<path fill="none" stroke="#404040" d="M346.2776,-226.4946C346.0794,-198.5354 341.8221,-159.0891 322.5,-131 313.7201,-118.2364 301.9768,-107.327 289.1794,-98.1125"/>
<polygon fill="none" stroke="#404040" points="289.1675,-98.1045 281.9565,-98.0653 279.2192,-91.3939 286.4302,-91.4331 289.1675,-98.1045"/>
<text text-anchor="middle" x="374" y="-167" font-family="Helvetica,sans-Serif" font-size="10.00" fill="#000000"> +local_range</text>
</g>
</g>
</svg>
