<?xml version="1.0" encoding="UTF-8" standalone="no"?>
<!DOCTYPE svg PUBLIC "-//W3C//DTD SVG 1.1//EN"
 "http://www.w3.org/Graphics/SVG/1.1/DTD/svg11.dtd">
<!-- Generated by graphviz version 2.40.1 (20161225.0304)
 -->
<!-- Title: TrilinosWrappers::PreconditionSOR::AdditionalData Pages: 1 -->
<svg width="163pt" height="193pt"
 viewBox="0.00 0.00 163.00 193.00" xmlns="http://www.w3.org/2000/svg" xmlns:xlink="http://www.w3.org/1999/xlink">
<g id="graph0" class="graph" transform="scale(1 1) rotate(0) translate(4 189)">
<title>TrilinosWrappers::PreconditionSOR::AdditionalData</title>
<polygon fill="#ffffff" stroke="transparent" points="-4,4 -4,-189 159,-189 159,4 -4,4"/>
<!-- Node1 -->
<g id="node1" class="node">
<title>Node1</title>
<polygon fill="#bfbfbf" stroke="#000000" points="0,-.5 0,-68.5 150,-68.5 150,-.5 0,-.5"/>
<text text-anchor="start" x="8" y="-56.5" font-family="Helvetica,sans-Serif" font-size="10.00" fill="#000000">TrilinosWrappers::Precondition</text>
<text text-anchor="middle" x="75" y="-45.5" font-family="Helvetica,sans-Serif" font-size="10.00" fill="#000000">SOR::AdditionalData</text>
<polyline fill="none" stroke="#000000" points="0,-38.5 150,-38.5 "/>
<text text-anchor="middle" x="75" y="-26.5" font-family="Helvetica,sans-Serif" font-size="10.00" fill="#000000"> </text>
<polyline fill="none" stroke="#000000" points="0,-19.5 150,-19.5 "/>
<text text-anchor="start" x="8" y="-7.5" font-family="Helvetica,sans-Serif" font-size="10.00" fill="#000000">+ AdditionalData()</text>
</g>
<!-- Node2 -->
<g id="node2" class="node">
<title>Node2</title>
<g id="a_node2"><a xlink:href="classdouble.html" target="_top" xlink:title="{double\n||}">
<polygon fill="#ffffff" stroke="#000000" points="9.5,-127.5 9.5,-184.5 54.5,-184.5 54.5,-127.5 9.5,-127.5"/>
<text text-anchor="middle" x="32" y="-172.5" font-family="Helvetica,sans-Serif" font-size="10.00" fill="#000000">double</text>
<polyline fill="none" stroke="#000000" points="9.5,-165.5 54.5,-165.5 "/>
<text text-anchor="middle" x="32" y="-153.5" font-family="Helvetica,sans-Serif" font-size="10.00" fill="#000000"> </text>
<polyline fill="none" stroke="#000000" points="9.5,-146.5 54.5,-146.5 "/>
<text text-anchor="middle" x="32" y="-134.5" font-family="Helvetica,sans-Serif" font-size="10.00" fill="#000000"> </text>
</a>
</g>
</g>
<!-- Node2&#45;&gt;Node1 -->
<g id="edge1" class="edge">
<title>Node2&#45;&gt;Node1</title>
<path fill="none" stroke="#404040" d="M28.3062,-127.3908C27.6956,-114.679 28.4264,-99.7419 33,-87 33.9649,-84.3118 35.129,-81.6579 36.4455,-79.0563"/>
<polygon fill="none" stroke="#404040" points="36.4676,-79.019 36.0923,-71.8176 42.5953,-68.7014 42.9707,-75.9027 36.4676,-79.019"/>
<text text-anchor="middle" x="65" y="-101" font-family="Helvetica,sans-Serif" font-size="10.00" fill="#000000"> +omega</text>
<text text-anchor="middle" x="65" y="-90" font-family="Helvetica,sans-Serif" font-size="10.00" fill="#000000">+min_diagonal</text>
</g>
<!-- Node3 -->
<g id="node3" class="node">
<title>Node3</title>
<g id="a_node3"><a xlink:href="classint.html" target="_top" xlink:title="{int\n||}">
<polygon fill="#ffffff" stroke="#000000" points="104.5,-127.5 104.5,-184.5 133.5,-184.5 133.5,-127.5 104.5,-127.5"/>
<text text-anchor="middle" x="119" y="-172.5" font-family="Helvetica,sans-Serif" font-size="10.00" fill="#000000">int</text>
<polyline fill="none" stroke="#000000" points="104.5,-165.5 133.5,-165.5 "/>
<text text-anchor="middle" x="119" y="-153.5" font-family="Helvetica,sans-Serif" font-size="10.00" fill="#000000"> </text>
<polyline fill="none" stroke="#000000" points="104.5,-146.5 133.5,-146.5 "/>
<text text-anchor="middle" x="119" y="-134.5" font-family="Helvetica,sans-Serif" font-size="10.00" fill="#000000"> </text>
</a>
</g>
</g>
<!-- Node3&#45;&gt;Node1 -->
<g id="edge2" class="edge">
<title>Node3&#45;&gt;Node1</title>
<path fill="none" stroke="#404040" d="M110.4619,-127.2727C106.5979,-114.8088 101.8214,-100.0971 97,-87 96.1465,-84.6815 95.2499,-82.3151 94.3267,-79.9324"/>
<polygon fill="none" stroke="#404040" points="94.3241,-79.9258 88.3848,-75.8363 89.8753,-68.7809 95.8147,-72.8704 94.3241,-79.9258"/>
<text text-anchor="middle" x="129.5" y="-101" font-family="Helvetica,sans-Serif" font-size="10.00" fill="#000000"> +overlap</text>
<text text-anchor="middle" x="129.5" y="-90" font-family="Helvetica,sans-Serif" font-size="10.00" fill="#000000">+n_sweeps</text>
</g>
</g>
</svg>
