<?xml version="1.0" encoding="UTF-8" standalone="no"?>
<!DOCTYPE svg PUBLIC "-//W3C//DTD SVG 1.1//EN"
 "http://www.w3.org/Graphics/SVG/1.1/DTD/svg11.dtd">
<!-- Generated by graphviz version 2.40.1 (20161225.0304)
 -->
<!-- Title: mystl::has_iterator_cat&lt; T &gt; Pages: 1 -->
<svg width="106pt" height="193pt"
 viewBox="0.00 0.00 106.00 193.00" xmlns="http://www.w3.org/2000/svg" xmlns:xlink="http://www.w3.org/1999/xlink">
<g id="graph0" class="graph" transform="scale(1 1) rotate(0) translate(4 189)">
<title>mystl::has_iterator_cat&lt; T &gt;</title>
<polygon fill="#ffffff" stroke="transparent" points="-4,4 -4,-189 102,-189 102,4 -4,4"/>
<!-- Node1 -->
<g id="node1" class="node">
<title>Node1</title>
<polygon fill="#bfbfbf" stroke="#000000" points="0,-.5 0,-79.5 98,-79.5 98,-.5 0,-.5"/>
<text text-anchor="start" x="8" y="-67.5" font-family="Helvetica,sans-Serif" font-size="10.00" fill="#000000">mystl::has_iterator</text>
<text text-anchor="middle" x="49" y="-56.5" font-family="Helvetica,sans-Serif" font-size="10.00" fill="#000000">_cat&lt; T &gt;</text>
<polyline fill="none" stroke="#000000" points="0,-49.5 98,-49.5 "/>
<text text-anchor="middle" x="49" y="-37.5" font-family="Helvetica,sans-Serif" font-size="10.00" fill="#000000"> </text>
<polyline fill="none" stroke="#000000" points="0,-30.5 98,-30.5 "/>
<text text-anchor="start" x="8" y="-18.5" font-family="Helvetica,sans-Serif" font-size="10.00" fill="#000000">&#45; test()</text>
<text text-anchor="start" x="8" y="-7.5" font-family="Helvetica,sans-Serif" font-size="10.00" fill="#000000">&#45; test()</text>
</g>
<!-- Node2 -->
<g id="node2" class="node">
<title>Node2</title>
<g id="a_node2"><a xlink:href="classbool.html" target="_top" xlink:title="{bool\n||}">
<polygon fill="#ffffff" stroke="#000000" points="31.5,-127.5 31.5,-184.5 66.5,-184.5 66.5,-127.5 31.5,-127.5"/>
<text text-anchor="middle" x="49" y="-172.5" font-family="Helvetica,sans-Serif" font-size="10.00" fill="#000000">bool</text>
<polyline fill="none" stroke="#000000" points="31.5,-165.5 66.5,-165.5 "/>
<text text-anchor="middle" x="49" y="-153.5" font-family="Helvetica,sans-Serif" font-size="10.00" fill="#000000"> </text>
<polyline fill="none" stroke="#000000" points="31.5,-146.5 66.5,-146.5 "/>
<text text-anchor="middle" x="49" y="-134.5" font-family="Helvetica,sans-Serif" font-size="10.00" fill="#000000"> </text>
</a>
</g>
</g>
<!-- Node2&#45;&gt;Node1 -->
<g id="edge1" class="edge">
<title>Node2&#45;&gt;Node1</title>
<path fill="none" stroke="#404040" d="M49,-127.3258C49,-116.5576 49,-103.9593 49,-91.7364"/>
<polygon fill="none" stroke="#404040" points="49.0001,-91.7203 45,-85.7203 49,-79.7203 53,-85.7203 49.0001,-91.7203"/>
<text text-anchor="middle" x="65.5" y="-101" font-family="Helvetica,sans-Serif" font-size="10.00" fill="#000000"> +value</text>
</g>
</g>
</svg>
