<?xml version="1.0" encoding="UTF-8" standalone="no"?>
<!DOCTYPE svg PUBLIC "-//W3C//DTD SVG 1.1//EN"
 "http://www.w3.org/Graphics/SVG/1.1/DTD/svg11.dtd">
<!-- Generated by graphviz version 2.40.1 (20161225.0304)
 -->
<!-- Title: mystl::is_bidirectional_iterator&lt; Iter &gt; Pages: 1 -->
<svg width="745pt" height="133pt"
 viewBox="0.00 0.00 745.00 132.50" xmlns="http://www.w3.org/2000/svg" xmlns:xlink="http://www.w3.org/1999/xlink">
<g id="graph0" class="graph" transform="scale(1 1) rotate(0) translate(4 128.5)">
<title>mystl::is_bidirectional_iterator&lt; Iter &gt;</title>
<polygon fill="#ffffff" stroke="transparent" points="-4,4 -4,-128.5 741,-128.5 741,4 -4,4"/>
<!-- Node0 -->
<g id="node1" class="node">
<title>Node0</title>
<polygon fill="#bfbfbf" stroke="#000000" points="626,-44.5 626,-74.5 737,-74.5 737,-44.5 626,-44.5"/>
<text text-anchor="start" x="634" y="-62.5" font-family="Helvetica,sans-Serif" font-size="10.00" fill="#000000">mystl::is_bidirectional</text>
<text text-anchor="middle" x="681.5" y="-51.5" font-family="Helvetica,sans-Serif" font-size="10.00" fill="#000000">_iterator&lt; Iter &gt;</text>
</g>
<!-- Node1 -->
<g id="node2" class="node">
<title>Node1</title>
<g id="a_node2"><a xlink:href="structmystl_1_1has__iterator__cat__of.html" target="_top" xlink:title="mystl::has_iterator\l_cat_of\&lt; Iter, bidirectional\l_iterator_tag \&gt;">
<polygon fill="#ffffff" stroke="#000000" points="459,-39 459,-80 589,-80 589,-39 459,-39"/>
<text text-anchor="start" x="467" y="-68" font-family="Helvetica,sans-Serif" font-size="10.00" fill="#000000">mystl::has_iterator</text>
<text text-anchor="start" x="467" y="-57" font-family="Helvetica,sans-Serif" font-size="10.00" fill="#000000">_cat_of&lt; Iter, bidirectional</text>
<text text-anchor="middle" x="524" y="-46" font-family="Helvetica,sans-Serif" font-size="10.00" fill="#000000">_iterator_tag &gt;</text>
</a>
</g>
</g>
<!-- Node1&#45;&gt;Node0 -->
<g id="edge1" class="edge">
<title>Node1&#45;&gt;Node0</title>
<path fill="none" stroke="#191970" d="M599.6273,-59.5C608.3593,-59.5 617.1427,-59.5 625.547,-59.5"/>
<polygon fill="#191970" stroke="#191970" points="599.4259,-56.0001 589.4259,-59.5 599.4259,-63.0001 599.4259,-56.0001"/>
</g>
<!-- Node2 -->
<g id="node3" class="node">
<title>Node2</title>
<g id="a_node3"><a xlink:href="structmystl_1_1m__integral__constant.html" target="_top" xlink:title="m_bool_constant\&lt; std\l::is_convertible\&lt; iterator\l_traits\&lt; Iter &#160;\&gt;::iterator\l_category, bidirectional_iterator\l_tag &#160;\&gt;::value \&gt;">
<polygon fill="#ffffff" stroke="#000000" points="186,-61 186,-124 338,-124 338,-61 186,-61"/>
<text text-anchor="start" x="194" y="-112" font-family="Helvetica,sans-Serif" font-size="10.00" fill="#000000">m_bool_constant&lt; std</text>
<text text-anchor="start" x="194" y="-101" font-family="Helvetica,sans-Serif" font-size="10.00" fill="#000000">::is_convertible&lt; iterator</text>
<text text-anchor="start" x="194" y="-90" font-family="Helvetica,sans-Serif" font-size="10.00" fill="#000000">_traits&lt; Iter &gt;::iterator</text>
<text text-anchor="start" x="194" y="-79" font-family="Helvetica,sans-Serif" font-size="10.00" fill="#000000">_category, bidirectional_iterator</text>
<text text-anchor="middle" x="262" y="-68" font-family="Helvetica,sans-Serif" font-size="10.00" fill="#000000">_tag &gt;::value &gt;</text>
</a>
</g>
</g>
<!-- Node2&#45;&gt;Node1 -->
<g id="edge2" class="edge">
<title>Node2&#45;&gt;Node1</title>
<path fill="none" stroke="#191970" d="M348.1459,-81.6496C384.1671,-77.1125 425.3342,-71.9274 458.7776,-67.715"/>
<polygon fill="#191970" stroke="#191970" points="347.6174,-78.1884 338.1332,-82.9107 348.4922,-85.1335 347.6174,-78.1884"/>
</g>
<!-- Node3 -->
<g id="node4" class="node">
<title>Node3</title>
<g id="a_node4"><a xlink:href="structmystl_1_1has__iterator__cat__of.html" target="_top" xlink:title="mystl::has_iterator\l_cat_of\&lt; T, U, bool \&gt;">
<polygon fill="#ffffff" stroke="#000000" points="207,-11.5 207,-41.5 317,-41.5 317,-11.5 207,-11.5"/>
<text text-anchor="start" x="215" y="-29.5" font-family="Helvetica,sans-Serif" font-size="10.00" fill="#000000">mystl::has_iterator</text>
<text text-anchor="middle" x="262" y="-18.5" font-family="Helvetica,sans-Serif" font-size="10.00" fill="#000000">_cat_of&lt; T, U, bool &gt;</text>
</a>
</g>
</g>
<!-- Node3&#45;&gt;Node1 -->
<g id="edge3" class="edge">
<title>Node3&#45;&gt;Node1</title>
<path fill="none" stroke="#ffa500" stroke-dasharray="5,2" d="M327.2745,-31.1888C361.2735,-34.0125 403.4764,-38.114 441,-43.5 446.8105,-44.334 452.8315,-45.298 458.8555,-46.331"/>
<polygon fill="#ffa500" stroke="#ffa500" points="327.2515,-27.6755 317.0007,-30.3535 326.6841,-34.6525 327.2515,-27.6755"/>
<text text-anchor="start" x="356" y="-57.5" font-family="Helvetica,sans-Serif" font-size="10.00" fill="#000000"> &lt; Iter, bidirectional</text>
<text text-anchor="middle" x="398.5" y="-46.5" font-family="Helvetica,sans-Serif" font-size="10.00" fill="#000000">_iterator_tag &gt;</text>
</g>
<!-- Node4 -->
<g id="node5" class="node">
<title>Node4</title>
<g id="a_node5"><a xlink:href="structmystl_1_1m__integral__constant.html" target="_top" xlink:title="m_bool_constant\&lt; std\l::is_convertible\&lt; iterator\l_traits\&lt; T \&gt;::iterator_category,\l U \&gt;::value \&gt;">
<polygon fill="#ffffff" stroke="#000000" points="0,-.5 0,-52.5 149,-52.5 149,-.5 0,-.5"/>
<text text-anchor="start" x="8" y="-40.5" font-family="Helvetica,sans-Serif" font-size="10.00" fill="#000000">m_bool_constant&lt; std</text>
<text text-anchor="start" x="8" y="-29.5" font-family="Helvetica,sans-Serif" font-size="10.00" fill="#000000">::is_convertible&lt; iterator</text>
<text text-anchor="start" x="8" y="-18.5" font-family="Helvetica,sans-Serif" font-size="10.00" fill="#000000">_traits&lt; T &gt;::iterator_category,</text>
<text text-anchor="middle" x="74.5" y="-7.5" font-family="Helvetica,sans-Serif" font-size="10.00" fill="#000000"> U &gt;::value &gt;</text>
</a>
</g>
</g>
<!-- Node4&#45;&gt;Node3 -->
<g id="edge4" class="edge">
<title>Node4&#45;&gt;Node3</title>
<path fill="none" stroke="#191970" d="M159.1785,-26.5C175.399,-26.5 191.9852,-26.5 206.9703,-26.5"/>
<polygon fill="#191970" stroke="#191970" points="159.1438,-23.0001 149.1437,-26.5 159.1437,-30.0001 159.1438,-23.0001"/>
</g>
</g>
</svg>
