<?xml version="1.0" encoding="UTF-8" standalone="no"?>
<!DOCTYPE svg PUBLIC "-//W3C//DTD SVG 1.1//EN"
 "http://www.w3.org/Graphics/SVG/1.1/DTD/svg11.dtd">
<!-- Generated by graphviz version 2.40.1 (20161225.0304)
 -->
<!-- Title: internal::VectorOperations::Vectorization_add_v&lt; Number &gt; Pages: 1 -->
<svg width="218pt" height="193pt"
 viewBox="0.00 0.00 217.50 193.00" xmlns="http://www.w3.org/2000/svg" xmlns:xlink="http://www.w3.org/1999/xlink">
<g id="graph0" class="graph" transform="scale(1 1) rotate(0) translate(4 189)">
<title>internal::VectorOperations::Vectorization_add_v&lt; Number &gt;</title>
<polygon fill="#ffffff" stroke="transparent" points="-4,4 -4,-189 213.5,-189 213.5,4 -4,4"/>
<!-- Node1 -->
<g id="node1" class="node">
<title>Node1</title>
<polygon fill="#bfbfbf" stroke="#000000" points="16,-.5 16,-79.5 180,-79.5 180,-.5 16,-.5"/>
<text text-anchor="start" x="24" y="-67.5" font-family="Helvetica,sans-Serif" font-size="10.00" fill="#000000">internal::VectorOperations</text>
<text text-anchor="middle" x="98" y="-56.5" font-family="Helvetica,sans-Serif" font-size="10.00" fill="#000000">::Vectorization_add_v&lt; Number &gt;</text>
<polyline fill="none" stroke="#000000" points="16,-49.5 180,-49.5 "/>
<text text-anchor="middle" x="98" y="-37.5" font-family="Helvetica,sans-Serif" font-size="10.00" fill="#000000"> </text>
<polyline fill="none" stroke="#000000" points="16,-30.5 180,-30.5 "/>
<text text-anchor="start" x="24" y="-18.5" font-family="Helvetica,sans-Serif" font-size="10.00" fill="#000000">+ Vectorization_add_v()</text>
<text text-anchor="start" x="24" y="-7.5" font-family="Helvetica,sans-Serif" font-size="10.00" fill="#000000">+ operator()()</text>
</g>
<!-- Node2 -->
<g id="node2" class="node">
<title>Node2</title>
<polygon fill="#ffffff" stroke="#bfbfbf" points="0,-127.5 0,-184.5 82,-184.5 82,-127.5 0,-127.5"/>
<text text-anchor="middle" x="41" y="-172.5" font-family="Helvetica,sans-Serif" font-size="10.00" fill="#000000">Number *const</text>
<polyline fill="none" stroke="#bfbfbf" points="0,-165.5 82,-165.5 "/>
<text text-anchor="middle" x="41" y="-153.5" font-family="Helvetica,sans-Serif" font-size="10.00" fill="#000000"> </text>
<polyline fill="none" stroke="#bfbfbf" points="0,-146.5 82,-146.5 "/>
<text text-anchor="middle" x="41" y="-134.5" font-family="Helvetica,sans-Serif" font-size="10.00" fill="#000000"> </text>
</g>
<!-- Node2&#45;&gt;Node1 -->
<g id="edge1" class="edge">
<title>Node2&#45;&gt;Node1</title>
<path fill="none" stroke="#404040" d="M55.0899,-127.3258C60.5465,-116.2211 66.9595,-103.1701 73.1403,-90.5917"/>
<polygon fill="none" stroke="#404040" points="73.19,-90.4903 72.2461,-83.3412 78.4823,-79.7203 79.4262,-86.8694 73.19,-90.4903"/>
<text text-anchor="middle" x="81" y="-101" font-family="Helvetica,sans-Serif" font-size="10.00" fill="#000000"> +val</text>
</g>
<!-- Node3 -->
<g id="node3" class="node">
<title>Node3</title>
<polygon fill="#ffffff" stroke="#bfbfbf" points="100.5,-127.5 100.5,-184.5 209.5,-184.5 209.5,-127.5 100.5,-127.5"/>
<text text-anchor="middle" x="155" y="-172.5" font-family="Helvetica,sans-Serif" font-size="10.00" fill="#000000">const Number *const</text>
<polyline fill="none" stroke="#bfbfbf" points="100.5,-165.5 209.5,-165.5 "/>
<text text-anchor="middle" x="155" y="-153.5" font-family="Helvetica,sans-Serif" font-size="10.00" fill="#000000"> </text>
<polyline fill="none" stroke="#bfbfbf" points="100.5,-146.5 209.5,-146.5 "/>
<text text-anchor="middle" x="155" y="-134.5" font-family="Helvetica,sans-Serif" font-size="10.00" fill="#000000"> </text>
</g>
<!-- Node3&#45;&gt;Node1 -->
<g id="edge2" class="edge">
<title>Node3&#45;&gt;Node1</title>
<path fill="none" stroke="#404040" d="M140.9101,-127.3258C135.4535,-116.2211 129.0405,-103.1701 122.8597,-90.5917"/>
<polygon fill="none" stroke="#404040" points="122.81,-90.4903 116.5738,-86.8694 117.5177,-79.7203 123.7539,-83.3412 122.81,-90.4903"/>
<text text-anchor="middle" x="147.5" y="-101" font-family="Helvetica,sans-Serif" font-size="10.00" fill="#000000"> +v_val</text>
</g>
</g>
</svg>
