<?xml version="1.0" encoding="UTF-8" standalone="no"?>
<!DOCTYPE svg PUBLIC "-//W3C//DTD SVG 1.1//EN"
 "http://www.w3.org/Graphics/SVG/1.1/DTD/svg11.dtd">
<!-- Generated by graphviz version 2.40.1 (20161225.0304)
 -->
<!-- Title: WorkStream::internal::tbb_no_coloring::IteratorRangeToItemStream&lt; Iterator, ScratchData, CopyData &gt;::ItemType::ScratchDataObject Pages: 1 -->
<svg width="230pt" height="469pt"
 viewBox="0.00 0.00 230.00 469.00" xmlns="http://www.w3.org/2000/svg" xmlns:xlink="http://www.w3.org/1999/xlink">
<g id="graph0" class="graph" transform="scale(1 1) rotate(0) translate(4 465)">
<title>WorkStream::internal::tbb_no_coloring::IteratorRangeToItemStream&lt; Iterator, ScratchData, CopyData &gt;::ItemType::ScratchDataObject</title>
<polygon fill="#ffffff" stroke="transparent" points="-4,4 -4,-465 226,-465 226,4 -4,4"/>
<!-- Node1 -->
<g id="node1" class="node">
<title>Node1</title>
<polygon fill="#bfbfbf" stroke="#000000" points="20.5,-.5 20.5,-134.5 201.5,-134.5 201.5,-.5 20.5,-.5"/>
<text text-anchor="start" x="28.5" y="-122.5" font-family="Helvetica,sans-Serif" font-size="10.00" fill="#000000">WorkStream::internal</text>
<text text-anchor="start" x="28.5" y="-111.5" font-family="Helvetica,sans-Serif" font-size="10.00" fill="#000000">::tbb_no_coloring::Iterator</text>
<text text-anchor="start" x="28.5" y="-100.5" font-family="Helvetica,sans-Serif" font-size="10.00" fill="#000000">RangeToItemStream&lt; Iterator,</text>
<text text-anchor="start" x="28.5" y="-89.5" font-family="Helvetica,sans-Serif" font-size="10.00" fill="#000000"> ScratchData, CopyData &gt;::ItemType</text>
<text text-anchor="middle" x="111" y="-78.5" font-family="Helvetica,sans-Serif" font-size="10.00" fill="#000000">::ScratchDataObject</text>
<polyline fill="none" stroke="#000000" points="20.5,-71.5 201.5,-71.5 "/>
<text text-anchor="middle" x="111" y="-59.5" font-family="Helvetica,sans-Serif" font-size="10.00" fill="#000000"> </text>
<polyline fill="none" stroke="#000000" points="20.5,-52.5 201.5,-52.5 "/>
<text text-anchor="start" x="28.5" y="-40.5" font-family="Helvetica,sans-Serif" font-size="10.00" fill="#000000">+ ScratchDataObject()</text>
<text text-anchor="start" x="28.5" y="-29.5" font-family="Helvetica,sans-Serif" font-size="10.00" fill="#000000">+ ScratchDataObject()</text>
<text text-anchor="start" x="28.5" y="-18.5" font-family="Helvetica,sans-Serif" font-size="10.00" fill="#000000">+ ScratchDataObject()</text>
<text text-anchor="start" x="28.5" y="-7.5" font-family="Helvetica,sans-Serif" font-size="10.00" fill="#000000">+ ScratchDataObject()</text>
</g>
<!-- Node2 -->
<g id="node2" class="node">
<title>Node2</title>
<polygon fill="#ffffff" stroke="#bfbfbf" points="0,-182.5 0,-250.5 124,-250.5 124,-182.5 0,-182.5"/>
<text text-anchor="start" x="8" y="-238.5" font-family="Helvetica,sans-Serif" font-size="10.00" fill="#000000">std::unique_ptr&lt; Scratch</text>
<text text-anchor="middle" x="62" y="-227.5" font-family="Helvetica,sans-Serif" font-size="10.00" fill="#000000">Data &gt;</text>
<polyline fill="none" stroke="#bfbfbf" points="0,-220.5 124,-220.5 "/>
<text text-anchor="middle" x="62" y="-208.5" font-family="Helvetica,sans-Serif" font-size="10.00" fill="#000000"> </text>
<polyline fill="none" stroke="#bfbfbf" points="0,-201.5 124,-201.5 "/>
<text text-anchor="start" x="8" y="-189.5" font-family="Helvetica,sans-Serif" font-size="10.00" fill="#000000">+ operator&#45;&gt;()</text>
</g>
<!-- Node2&#45;&gt;Node1 -->
<g id="edge1" class="edge">
<title>Node2&#45;&gt;Node1</title>
<path fill="none" stroke="#404040" d="M65.665,-182.1734C67.1539,-172.6103 69.2043,-162.2981 72,-153 72.7157,-150.6198 73.4843,-148.22 74.297,-145.8116"/>
<polygon fill="none" stroke="#404040" points="74.3014,-145.7993 72.5843,-138.7956 78.3889,-134.5169 80.1059,-141.5206 74.3014,-145.7993"/>
<text text-anchor="middle" x="105" y="-156" font-family="Helvetica,sans-Serif" font-size="10.00" fill="#000000"> +scratch_data</text>
</g>
<!-- Node3 -->
<g id="node3" class="node">
<title>Node3</title>
<polygon fill="#ffffff" stroke="#bfbfbf" points="4.5,-298.5 4.5,-355.5 75.5,-355.5 75.5,-298.5 4.5,-298.5"/>
<text text-anchor="middle" x="40" y="-343.5" font-family="Helvetica,sans-Serif" font-size="10.00" fill="#000000">ScratchData</text>
<polyline fill="none" stroke="#bfbfbf" points="4.5,-336.5 75.5,-336.5 "/>
<text text-anchor="middle" x="40" y="-324.5" font-family="Helvetica,sans-Serif" font-size="10.00" fill="#000000"> </text>
<polyline fill="none" stroke="#bfbfbf" points="4.5,-317.5 75.5,-317.5 "/>
<text text-anchor="middle" x="40" y="-305.5" font-family="Helvetica,sans-Serif" font-size="10.00" fill="#000000"> </text>
</g>
<!-- Node3&#45;&gt;Node2 -->
<g id="edge2" class="edge">
<title>Node3&#45;&gt;Node2</title>
<path fill="none" stroke="#404040" d="M45.7228,-298.2559C47.8999,-287.321 50.4384,-274.5708 52.8541,-262.4376"/>
<polygon fill="none" stroke="#404040" points="52.8676,-262.3691 50.1162,-255.7035 55.2108,-250.6001 57.9622,-257.2656 52.8676,-262.3691"/>
<text text-anchor="middle" x="61.5" y="-272" font-family="Helvetica,sans-Serif" font-size="10.00" fill="#000000"> +ptr</text>
</g>
<!-- Node4 -->
<g id="node4" class="node">
<title>Node4</title>
<g id="a_node4"><a xlink:title="STL class. ">
<polygon fill="#ffffff" stroke="#bfbfbf" points="93.5,-298.5 93.5,-355.5 198.5,-355.5 198.5,-298.5 93.5,-298.5"/>
<text text-anchor="middle" x="146" y="-343.5" font-family="Helvetica,sans-Serif" font-size="10.00" fill="#000000">std::unique_ptr&lt; T &gt;</text>
<polyline fill="none" stroke="#bfbfbf" points="93.5,-336.5 198.5,-336.5 "/>
<text text-anchor="middle" x="146" y="-324.5" font-family="Helvetica,sans-Serif" font-size="10.00" fill="#000000"> </text>
<polyline fill="none" stroke="#bfbfbf" points="93.5,-317.5 198.5,-317.5 "/>
<text text-anchor="start" x="101.5" y="-305.5" font-family="Helvetica,sans-Serif" font-size="10.00" fill="#000000">+ operator&#45;&gt;()</text>
</a>
</g>
</g>
<!-- Node4&#45;&gt;Node2 -->
<g id="edge3" class="edge">
<title>Node4&#45;&gt;Node2</title>
<path fill="none" stroke="#ffa500" d="M117.9625,-290.1173C108.2635,-277.3586 97.4437,-263.1253 87.9222,-250.6001"/>
<polygon fill="#ffa500" stroke="#ffa500" points="115.3112,-292.4131 124.1493,-298.2559 120.8838,-288.1768 115.3112,-292.4131"/>
<text text-anchor="middle" x="147" y="-272" font-family="Helvetica,sans-Serif" font-size="10.00" fill="#000000"> &lt; ScratchData &gt;</text>
</g>
<!-- Node5 -->
<g id="node5" class="node">
<title>Node5</title>
<polygon fill="#ffffff" stroke="#bfbfbf" points="131.5,-403.5 131.5,-460.5 160.5,-460.5 160.5,-403.5 131.5,-403.5"/>
<text text-anchor="middle" x="146" y="-448.5" font-family="Helvetica,sans-Serif" font-size="10.00" fill="#000000">T</text>
<polyline fill="none" stroke="#bfbfbf" points="131.5,-441.5 160.5,-441.5 "/>
<text text-anchor="middle" x="146" y="-429.5" font-family="Helvetica,sans-Serif" font-size="10.00" fill="#000000"> </text>
<polyline fill="none" stroke="#bfbfbf" points="131.5,-422.5 160.5,-422.5 "/>
<text text-anchor="middle" x="146" y="-410.5" font-family="Helvetica,sans-Serif" font-size="10.00" fill="#000000"> </text>
</g>
<!-- Node5&#45;&gt;Node4 -->
<g id="edge4" class="edge">
<title>Node5&#45;&gt;Node4</title>
<path fill="none" stroke="#404040" d="M146,-403.3083C146,-392.4281 146,-379.817 146,-368.0192"/>
<polygon fill="none" stroke="#404040" points="146.0001,-367.657 142,-361.6571 146,-355.657 150,-361.657 146.0001,-367.657"/>
<text text-anchor="middle" x="156.5" y="-377" font-family="Helvetica,sans-Serif" font-size="10.00" fill="#000000"> +ptr</text>
</g>
<!-- Node6 -->
<g id="node6" class="node">
<title>Node6</title>
<g id="a_node6"><a xlink:href="classbool.html" target="_top" xlink:title="{bool\n||}">
<polygon fill="#ffffff" stroke="#000000" points="142.5,-188 142.5,-245 177.5,-245 177.5,-188 142.5,-188"/>
<text text-anchor="middle" x="160" y="-233" font-family="Helvetica,sans-Serif" font-size="10.00" fill="#000000">bool</text>
<polyline fill="none" stroke="#000000" points="142.5,-226 177.5,-226 "/>
<text text-anchor="middle" x="160" y="-214" font-family="Helvetica,sans-Serif" font-size="10.00" fill="#000000"> </text>
<polyline fill="none" stroke="#000000" points="142.5,-207 177.5,-207 "/>
<text text-anchor="middle" x="160" y="-195" font-family="Helvetica,sans-Serif" font-size="10.00" fill="#000000"> </text>
</a>
</g>
</g>
<!-- Node6&#45;&gt;Node1 -->
<g id="edge5" class="edge">
<title>Node6&#45;&gt;Node1</title>
<path fill="none" stroke="#404040" d="M150.5523,-187.7713C146.6243,-175.827 141.8536,-161.32 137.0039,-146.5732"/>
<polygon fill="none" stroke="#404040" points="136.8612,-146.1388 131.1869,-141.6887 133.1123,-134.7394 138.7865,-139.1895 136.8612,-146.1388"/>
<text text-anchor="middle" x="181.5" y="-156" font-family="Helvetica,sans-Serif" font-size="10.00" fill="#000000"> +currently_in_use</text>
</g>
</g>
</svg>
