<?xml version="1.0" encoding="UTF-8" standalone="no"?>
<!DOCTYPE svg PUBLIC "-//W3C//DTD SVG 1.1//EN"
 "http://www.w3.org/Graphics/SVG/1.1/DTD/svg11.dtd">
<!-- Generated by graphviz version 2.40.1 (20161225.0304)
 -->
<!-- Title: mystl::is_iterator&lt; Iterator &gt; Pages: 1 -->
<svg width="142pt" height="310pt"
 viewBox="0.00 0.00 142.00 310.00" xmlns="http://www.w3.org/2000/svg" xmlns:xlink="http://www.w3.org/1999/xlink">
<g id="graph0" class="graph" transform="scale(1 1) rotate(0) translate(4 306)">
<title>mystl::is_iterator&lt; Iterator &gt;</title>
<polygon fill="#ffffff" stroke="transparent" points="-4,4 -4,-306 138,-306 138,4 -4,4"/>
<!-- Node2 -->
<g id="node1" class="node">
<title>Node2</title>
<polygon fill="#bfbfbf" stroke="#000000" points="22.5,-.5 22.5,-68.5 111.5,-68.5 111.5,-.5 22.5,-.5"/>
<text text-anchor="start" x="30.5" y="-56.5" font-family="Helvetica,sans-Serif" font-size="10.00" fill="#000000">mystl::is_iterator</text>
<text text-anchor="middle" x="67" y="-45.5" font-family="Helvetica,sans-Serif" font-size="10.00" fill="#000000">&lt; Iterator &gt;</text>
<polyline fill="none" stroke="#000000" points="22.5,-38.5 111.5,-38.5 "/>
<text text-anchor="middle" x="67" y="-26.5" font-family="Helvetica,sans-Serif" font-size="10.00" fill="#000000"> </text>
<polyline fill="none" stroke="#000000" points="22.5,-19.5 111.5,-19.5 "/>
<text text-anchor="middle" x="67" y="-7.5" font-family="Helvetica,sans-Serif" font-size="10.00" fill="#000000"> </text>
</g>
<!-- Node3 -->
<g id="node2" class="node">
<title>Node3</title>
<g id="a_node2"><a xlink:href="structmystl_1_1m__integral__constant.html" target="_top" xlink:title="{m_bool_constant\&lt; is\l_input_iterator\&lt; Iterator\l \&gt;::value\|\|is_output_iterator\l\&lt; Iterator \&gt;::value \&gt;\n||}">
<polygon fill="#ffffff" stroke="#000000" points="0,-106.5 0,-196.5 134,-196.5 134,-106.5 0,-106.5"/>
<text text-anchor="start" x="8" y="-184.5" font-family="Helvetica,sans-Serif" font-size="10.00" fill="#000000">m_bool_constant&lt; is</text>
<text text-anchor="start" x="8" y="-173.5" font-family="Helvetica,sans-Serif" font-size="10.00" fill="#000000">_input_iterator&lt; Iterator</text>
<text text-anchor="start" x="8" y="-162.5" font-family="Helvetica,sans-Serif" font-size="10.00" fill="#000000"> &gt;::value||is_output_iterator</text>
<text text-anchor="middle" x="67" y="-151.5" font-family="Helvetica,sans-Serif" font-size="10.00" fill="#000000">&lt; Iterator &gt;::value &gt;</text>
<polyline fill="none" stroke="#000000" points="0,-144.5 134,-144.5 "/>
<text text-anchor="middle" x="67" y="-132.5" font-family="Helvetica,sans-Serif" font-size="10.00" fill="#000000"> </text>
<polyline fill="none" stroke="#000000" points="0,-125.5 134,-125.5 "/>
<text text-anchor="middle" x="67" y="-113.5" font-family="Helvetica,sans-Serif" font-size="10.00" fill="#000000"> </text>
</a>
</g>
</g>
<!-- Node3&#45;&gt;Node2 -->
<g id="edge1" class="edge">
<title>Node3&#45;&gt;Node2</title>
<path fill="none" stroke="#191970" d="M67,-96.1895C67,-86.8229 67,-77.3469 67,-68.7259"/>
<polygon fill="none" stroke="#191970" points="63.5001,-96.2647 67,-106.2647 70.5001,-96.2648 63.5001,-96.2647"/>
</g>
<!-- Node4 -->
<g id="node3" class="node">
<title>Node4</title>
<polygon fill="#ffffff" stroke="#bfbfbf" points="19.5,-244.5 19.5,-301.5 114.5,-301.5 114.5,-244.5 19.5,-244.5"/>
<text text-anchor="middle" x="67" y="-289.5" font-family="Helvetica,sans-Serif" font-size="10.00" fill="#000000">static constexpr T</text>
<polyline fill="none" stroke="#bfbfbf" points="19.5,-282.5 114.5,-282.5 "/>
<text text-anchor="middle" x="67" y="-270.5" font-family="Helvetica,sans-Serif" font-size="10.00" fill="#000000"> </text>
<polyline fill="none" stroke="#bfbfbf" points="19.5,-263.5 114.5,-263.5 "/>
<text text-anchor="middle" x="67" y="-251.5" font-family="Helvetica,sans-Serif" font-size="10.00" fill="#000000"> </text>
</g>
<!-- Node4&#45;&gt;Node3 -->
<g id="edge2" class="edge">
<title>Node4&#45;&gt;Node3</title>
<path fill="none" stroke="#404040" d="M67,-244.2062C67,-233.5748 67,-221.1181 67,-208.847"/>
<polygon fill="none" stroke="#404040" points="67.0001,-208.7124 63,-202.7125 67,-196.7124 71,-202.7124 67.0001,-208.7124"/>
<text text-anchor="middle" x="83.5" y="-218" font-family="Helvetica,sans-Serif" font-size="10.00" fill="#000000"> +value</text>
</g>
</g>
</svg>
