<?xml version="1.0" encoding="UTF-8" standalone="no"?>
<!DOCTYPE svg PUBLIC "-//W3C//DTD SVG 1.1//EN"
 "http://www.w3.org/Graphics/SVG/1.1/DTD/svg11.dtd">
<!-- Generated by graphviz version 2.40.1 (20161225.0304)
 -->
<!-- Title: mystl::unarg_function&lt; Arg, Result &gt; Pages: 1 -->
<svg width="521pt" height="225pt"
 viewBox="0.00 0.00 521.00 224.50" xmlns="http://www.w3.org/2000/svg" xmlns:xlink="http://www.w3.org/1999/xlink">
<g id="graph0" class="graph" transform="scale(1 1) rotate(0) translate(4 220.5)">
<title>mystl::unarg_function&lt; Arg, Result &gt;</title>
<polygon fill="#ffffff" stroke="transparent" points="-4,4 -4,-220.5 517,-220.5 517,4 -4,4"/>
<!-- Node0 -->
<g id="node1" class="node">
<title>Node0</title>
<polygon fill="#bfbfbf" stroke="#000000" points="0,-98 0,-128 110,-128 110,-98 0,-98"/>
<text text-anchor="start" x="8" y="-116" font-family="Helvetica,sans-Serif" font-size="10.00" fill="#000000">mystl::unarg_function</text>
<text text-anchor="middle" x="55" y="-105" font-family="Helvetica,sans-Serif" font-size="10.00" fill="#000000">&lt; Arg, Result &gt;</text>
</g>
<!-- Node1 -->
<g id="node2" class="node">
<title>Node1</title>
<g id="a_node2"><a xlink:href="structmystl_1_1unarg__function.html" target="_top" xlink:title="mystl::unarg_function\l\&lt; Pair, Pair::first_type \&gt;">
<polygon fill="#ffffff" stroke="#000000" points="237,-186 237,-216 359,-216 359,-186 237,-186"/>
<text text-anchor="start" x="245" y="-204" font-family="Helvetica,sans-Serif" font-size="10.00" fill="#000000">mystl::unarg_function</text>
<text text-anchor="middle" x="298" y="-193" font-family="Helvetica,sans-Serif" font-size="10.00" fill="#000000">&lt; Pair, Pair::first_type &gt;</text>
</a>
</g>
</g>
<!-- Node0&#45;&gt;Node1 -->
<g id="edge1" class="edge">
<title>Node0&#45;&gt;Node1</title>
<path fill="none" stroke="#ffa500" stroke-dasharray="5,2" d="M82.5918,-133.8987C95.7583,-143.031 112.0853,-153.1897 128,-160 162.6108,-174.8107 203.5776,-184.8929 236.6227,-191.3525"/>
<polygon fill="#ffa500" stroke="#ffa500" points="84.6087,-131.0383 74.432,-128.0912 80.5497,-136.7413 84.6087,-131.0383"/>
<text text-anchor="start" x="135.5" y="-201" font-family="Helvetica,sans-Serif" font-size="10.00" fill="#000000"> &lt; Pair, Pair::first</text>
<text text-anchor="middle" x="173.5" y="-190" font-family="Helvetica,sans-Serif" font-size="10.00" fill="#000000">_type &gt;</text>
</g>
<!-- Node3 -->
<g id="node4" class="node">
<title>Node3</title>
<g id="a_node4"><a xlink:href="structmystl_1_1unarg__function.html" target="_top" xlink:title="mystl::unarg_function\l\&lt; Pair, Pair::second\l_type \&gt;">
<polygon fill="#ffffff" stroke="#000000" points="243,-125.5 243,-166.5 353,-166.5 353,-125.5 243,-125.5"/>
<text text-anchor="start" x="251" y="-154.5" font-family="Helvetica,sans-Serif" font-size="10.00" fill="#000000">mystl::unarg_function</text>
<text text-anchor="start" x="251" y="-143.5" font-family="Helvetica,sans-Serif" font-size="10.00" fill="#000000">&lt; Pair, Pair::second</text>
<text text-anchor="middle" x="298" y="-132.5" font-family="Helvetica,sans-Serif" font-size="10.00" fill="#000000">_type &gt;</text>
</a>
</g>
</g>
<!-- Node0&#45;&gt;Node3 -->
<g id="edge3" class="edge">
<title>Node0&#45;&gt;Node3</title>
<path fill="none" stroke="#ffa500" stroke-dasharray="5,2" d="M120.1521,-121.8478C158.4082,-127.0431 206.2378,-133.5385 242.6577,-138.4844"/>
<polygon fill="#ffa500" stroke="#ffa500" points="120.5205,-118.3658 110.1405,-120.4882 119.5785,-125.3021 120.5205,-118.3658"/>
<text text-anchor="start" x="128" y="-148" font-family="Helvetica,sans-Serif" font-size="10.00" fill="#000000"> &lt; Pair, Pair::second</text>
<text text-anchor="middle" x="173.5" y="-137" font-family="Helvetica,sans-Serif" font-size="10.00" fill="#000000">_type &gt;</text>
</g>
<!-- Node5 -->
<g id="node6" class="node">
<title>Node5</title>
<g id="a_node6"><a xlink:href="structmystl_1_1unarg__function.html" target="_top" xlink:title="mystl::unarg_function\l\&lt; T, T \&gt;">
<polygon fill="#ffffff" stroke="#000000" points="243,-76 243,-106 353,-106 353,-76 243,-76"/>
<text text-anchor="start" x="251" y="-94" font-family="Helvetica,sans-Serif" font-size="10.00" fill="#000000">mystl::unarg_function</text>
<text text-anchor="middle" x="298" y="-83" font-family="Helvetica,sans-Serif" font-size="10.00" fill="#000000">&lt; T, T &gt;</text>
</a>
</g>
</g>
<!-- Node0&#45;&gt;Node5 -->
<g id="edge5" class="edge">
<title>Node0&#45;&gt;Node5</title>
<path fill="none" stroke="#ffa500" stroke-dasharray="5,2" d="M120.1521,-107.1015C158.4082,-103.6379 206.2378,-99.3077 242.6577,-96.0104"/>
<polygon fill="#ffa500" stroke="#ffa500" points="119.7841,-103.6204 110.1405,-108.0079 120.4153,-110.5919 119.7841,-103.6204"/>
<text text-anchor="middle" x="173.5" y="-108" font-family="Helvetica,sans-Serif" font-size="10.00" fill="#000000"> &lt; T, T &gt;</text>
</g>
<!-- Node7 -->
<g id="node8" class="node">
<title>Node7</title>
<g id="a_node8"><a xlink:href="structmystl_1_1unarg__function.html" target="_top" xlink:title="mystl::unarg_function\l\&lt; T, bool \&gt;">
<polygon fill="#ffffff" stroke="#000000" points="243,-27 243,-57 353,-57 353,-27 243,-27"/>
<text text-anchor="start" x="251" y="-45" font-family="Helvetica,sans-Serif" font-size="10.00" fill="#000000">mystl::unarg_function</text>
<text text-anchor="middle" x="298" y="-34" font-family="Helvetica,sans-Serif" font-size="10.00" fill="#000000">&lt; T, bool &gt;</text>
</a>
</g>
</g>
<!-- Node0&#45;&gt;Node7 -->
<g id="edge7" class="edge">
<title>Node0&#45;&gt;Node7</title>
<path fill="none" stroke="#ffa500" stroke-dasharray="5,2" d="M98.2129,-93.9657C107.91,-90.0534 118.2236,-86.1671 128,-83 165.6915,-70.7896 209.1317,-60.3738 242.6651,-53.0959"/>
<polygon fill="#ffa500" stroke="#ffa500" points="96.6754,-90.8137 88.7642,-97.8609 99.3434,-97.2853 96.6754,-90.8137"/>
<text text-anchor="middle" x="173.5" y="-86" font-family="Helvetica,sans-Serif" font-size="10.00" fill="#000000"> &lt; T, bool &gt;</text>
</g>
<!-- Node2 -->
<g id="node3" class="node">
<title>Node2</title>
<g id="a_node3"><a xlink:href="structmystl_1_1selectfirst.html" target="_top" xlink:title="mystl::selectfirst\l\&lt; Pair \&gt;">
<polygon fill="#ffffff" stroke="#000000" points="410,-186 410,-216 499,-216 499,-186 410,-186"/>
<text text-anchor="start" x="418" y="-204" font-family="Helvetica,sans-Serif" font-size="10.00" fill="#000000">mystl::selectfirst</text>
<text text-anchor="middle" x="454.5" y="-193" font-family="Helvetica,sans-Serif" font-size="10.00" fill="#000000">&lt; Pair &gt;</text>
</a>
</g>
</g>
<!-- Node1&#45;&gt;Node2 -->
<g id="edge2" class="edge">
<title>Node1&#45;&gt;Node2</title>
<path fill="none" stroke="#191970" d="M369.7384,-201C383.3565,-201 397.2395,-201 409.7221,-201"/>
<polygon fill="#191970" stroke="#191970" points="369.4038,-197.5001 359.4038,-201 369.4037,-204.5001 369.4038,-197.5001"/>
</g>
<!-- Node4 -->
<g id="node5" class="node">
<title>Node4</title>
<g id="a_node5"><a xlink:href="structmystl_1_1selectsecond.html" target="_top" xlink:title="mystl::selectsecond\l\&lt; Pair \&gt;">
<polygon fill="#ffffff" stroke="#000000" points="402.5,-131 402.5,-161 506.5,-161 506.5,-131 402.5,-131"/>
<text text-anchor="start" x="410.5" y="-149" font-family="Helvetica,sans-Serif" font-size="10.00" fill="#000000">mystl::selectsecond</text>
<text text-anchor="middle" x="454.5" y="-138" font-family="Helvetica,sans-Serif" font-size="10.00" fill="#000000">&lt; Pair &gt;</text>
</a>
</g>
</g>
<!-- Node3&#45;&gt;Node4 -->
<g id="edge4" class="edge">
<title>Node3&#45;&gt;Node4</title>
<path fill="none" stroke="#191970" d="M363.4721,-146C376.4752,-146 389.9621,-146 402.4438,-146"/>
<polygon fill="#191970" stroke="#191970" points="363.1761,-142.5001 353.176,-146 363.176,-149.5001 363.1761,-142.5001"/>
</g>
<!-- Node6 -->
<g id="node7" class="node">
<title>Node6</title>
<g id="a_node7"><a xlink:href="structmystl_1_1negate.html" target="_top" xlink:title="mystl::negate\&lt; T \&gt;">
<polygon fill="#ffffff" stroke="#000000" points="404.5,-81.5 404.5,-100.5 504.5,-100.5 504.5,-81.5 404.5,-81.5"/>
<text text-anchor="middle" x="454.5" y="-88.5" font-family="Helvetica,sans-Serif" font-size="10.00" fill="#000000">mystl::negate&lt; T &gt;</text>
</a>
</g>
</g>
<!-- Node5&#45;&gt;Node6 -->
<g id="edge6" class="edge">
<title>Node5&#45;&gt;Node6</title>
<path fill="none" stroke="#191970" d="M363.4721,-91C377.109,-91 391.278,-91 404.2617,-91"/>
<polygon fill="#191970" stroke="#191970" points="363.1761,-87.5001 353.176,-91 363.176,-94.5001 363.1761,-87.5001"/>
</g>
<!-- Node8 -->
<g id="node9" class="node">
<title>Node8</title>
<g id="a_node9"><a xlink:href="structmystl_1_1identity.html" target="_top" xlink:title="mystl::identity\&lt; T \&gt;">
<polygon fill="#ffffff" stroke="#000000" points="403.5,-38.5 403.5,-57.5 505.5,-57.5 505.5,-38.5 403.5,-38.5"/>
<text text-anchor="middle" x="454.5" y="-45.5" font-family="Helvetica,sans-Serif" font-size="10.00" fill="#000000">mystl::identity&lt; T &gt;</text>
</a>
</g>
</g>
<!-- Node7&#45;&gt;Node8 -->
<g id="edge8" class="edge">
<title>Node7&#45;&gt;Node8</title>
<path fill="none" stroke="#191970" d="M363.3066,-44.5038C376.7227,-45.0181 390.661,-45.5525 403.4844,-46.0441"/>
<polygon fill="#191970" stroke="#191970" points="363.3028,-41.0011 353.176,-44.1154 363.0346,-47.996 363.3028,-41.0011"/>
</g>
<!-- Node9 -->
<g id="node10" class="node">
<title>Node9</title>
<g id="a_node10"><a xlink:href="structmystl_1_1logical__not.html" target="_top" xlink:title="mystl::logical_not\&lt; T \&gt;">
<polygon fill="#ffffff" stroke="#000000" points="396,-.5 396,-19.5 513,-19.5 513,-.5 396,-.5"/>
<text text-anchor="middle" x="454.5" y="-7.5" font-family="Helvetica,sans-Serif" font-size="10.00" fill="#000000">mystl::logical_not&lt; T &gt;</text>
</a>
</g>
</g>
<!-- Node7&#45;&gt;Node9 -->
<g id="edge9" class="edge">
<title>Node7&#45;&gt;Node9</title>
<path fill="none" stroke="#191970" d="M363.383,-28.631C378.3146,-25.5778 393.889,-22.3933 407.8503,-19.5386"/>
<polygon fill="#191970" stroke="#191970" points="362.2722,-25.2856 353.176,-30.718 363.6745,-32.1437 362.2722,-25.2856"/>
</g>
</g>
</svg>
