<?xml version="1.0" encoding="UTF-8" standalone="no"?>
<!DOCTYPE svg PUBLIC "-//W3C//DTD SVG 1.1//EN"
 "http://www.w3.org/Graphics/SVG/1.1/DTD/svg11.dtd">
<!-- Generated by graphviz version 2.40.1 (20161225.0304)
 -->
<!-- Title: internal::VectorizedArrayWidthSpecifier&lt; double &gt; Pages: 1 -->
<svg width="135pt" height="182pt"
 viewBox="0.00 0.00 135.00 182.00" xmlns="http://www.w3.org/2000/svg" xmlns:xlink="http://www.w3.org/1999/xlink">
<g id="graph0" class="graph" transform="scale(1 1) rotate(0) translate(4 178)">
<title>internal::VectorizedArrayWidthSpecifier&lt; double &gt;</title>
<polygon fill="#ffffff" stroke="transparent" points="-4,4 -4,-178 131,-178 131,4 -4,4"/>
<!-- Node1 -->
<g id="node1" class="node">
<title>Node1</title>
<polygon fill="#bfbfbf" stroke="#000000" points="0,-.5 0,-68.5 127,-68.5 127,-.5 0,-.5"/>
<text text-anchor="start" x="8" y="-56.5" font-family="Helvetica,sans-Serif" font-size="10.00" fill="#000000">internal::VectorizedArray</text>
<text text-anchor="middle" x="63.5" y="-45.5" font-family="Helvetica,sans-Serif" font-size="10.00" fill="#000000">WidthSpecifier&lt; double &gt;</text>
<polyline fill="none" stroke="#000000" points="0,-38.5 127,-38.5 "/>
<text text-anchor="middle" x="63.5" y="-26.5" font-family="Helvetica,sans-Serif" font-size="10.00" fill="#000000"> </text>
<polyline fill="none" stroke="#000000" points="0,-19.5 127,-19.5 "/>
<text text-anchor="middle" x="63.5" y="-7.5" font-family="Helvetica,sans-Serif" font-size="10.00" fill="#000000"> </text>
</g>
<!-- Node2 -->
<g id="node2" class="node">
<title>Node2</title>
<polygon fill="#ffffff" stroke="#bfbfbf" points="35.5,-116.5 35.5,-173.5 91.5,-173.5 91.5,-116.5 35.5,-116.5"/>
<text text-anchor="middle" x="63.5" y="-161.5" font-family="Helvetica,sans-Serif" font-size="10.00" fill="#000000">unsigned</text>
<polyline fill="none" stroke="#bfbfbf" points="35.5,-154.5 91.5,-154.5 "/>
<text text-anchor="middle" x="63.5" y="-142.5" font-family="Helvetica,sans-Serif" font-size="10.00" fill="#000000"> </text>
<polyline fill="none" stroke="#bfbfbf" points="35.5,-135.5 91.5,-135.5 "/>
<text text-anchor="middle" x="63.5" y="-123.5" font-family="Helvetica,sans-Serif" font-size="10.00" fill="#000000"> </text>
</g>
<!-- Node2&#45;&gt;Node1 -->
<g id="edge1" class="edge">
<title>Node2&#45;&gt;Node1</title>
<path fill="none" stroke="#404040" d="M63.5,-116.2559C63.5,-105.4349 63.5,-92.8362 63.5,-80.8169"/>
<polygon fill="none" stroke="#404040" points="63.5001,-80.6001 59.5,-74.6001 63.5,-68.6001 67.5,-74.6 63.5001,-80.6001"/>
<text text-anchor="middle" x="92" y="-90" font-family="Helvetica,sans-Serif" font-size="10.00" fill="#000000"> +max_width</text>
</g>
</g>
</svg>
