<?xml version="1.0" encoding="UTF-8" standalone="no"?>
<!DOCTYPE svg PUBLIC "-//W3C//DTD SVG 1.1//EN"
 "http://www.w3.org/Graphics/SVG/1.1/DTD/svg11.dtd">
<!-- Generated by graphviz version 2.40.1 (20161225.0304)
 -->
<!-- Title: GridOutFlags::DX Pages: 1 -->
<svg width="139pt" height="237pt"
 viewBox="0.00 0.00 138.50 237.00" xmlns="http://www.w3.org/2000/svg" xmlns:xlink="http://www.w3.org/1999/xlink">
<g id="graph0" class="graph" transform="scale(1 1) rotate(0) translate(4 233)">
<title>GridOutFlags::DX</title>
<polygon fill="#ffffff" stroke="transparent" points="-4,4 -4,-233 134.5,-233 134.5,4 -4,4"/>
<!-- Node1 -->
<g id="node1" class="node">
<title>Node1</title>
<polygon fill="#bfbfbf" stroke="#000000" points="0,-.5 0,-79.5 117,-79.5 117,-.5 0,-.5"/>
<text text-anchor="middle" x="58.5" y="-67.5" font-family="Helvetica,sans-Serif" font-size="10.00" fill="#000000">GridOutFlags::DX</text>
<polyline fill="none" stroke="#000000" points="0,-60.5 117,-60.5 "/>
<text text-anchor="middle" x="58.5" y="-48.5" font-family="Helvetica,sans-Serif" font-size="10.00" fill="#000000"> </text>
<polyline fill="none" stroke="#000000" points="0,-41.5 117,-41.5 "/>
<text text-anchor="start" x="8" y="-29.5" font-family="Helvetica,sans-Serif" font-size="10.00" fill="#000000">+ DX()</text>
<text text-anchor="start" x="8" y="-18.5" font-family="Helvetica,sans-Serif" font-size="10.00" fill="#000000">+ parse_parameters()</text>
<text text-anchor="start" x="8" y="-7.5" font-family="Helvetica,sans-Serif" font-size="10.00" fill="#000000">+ declare_parameters()</text>
</g>
<!-- Node2 -->
<g id="node2" class="node">
<title>Node2</title>
<g id="a_node2"><a xlink:href="classbool.html" target="_top" xlink:title="{bool\n||}">
<polygon fill="#ffffff" stroke="#000000" points="41,-171.5 41,-228.5 76,-228.5 76,-171.5 41,-171.5"/>
<text text-anchor="middle" x="58.5" y="-216.5" font-family="Helvetica,sans-Serif" font-size="10.00" fill="#000000">bool</text>
<polyline fill="none" stroke="#000000" points="41,-209.5 76,-209.5 "/>
<text text-anchor="middle" x="58.5" y="-197.5" font-family="Helvetica,sans-Serif" font-size="10.00" fill="#000000"> </text>
<polyline fill="none" stroke="#000000" points="41,-190.5 76,-190.5 "/>
<text text-anchor="middle" x="58.5" y="-178.5" font-family="Helvetica,sans-Serif" font-size="10.00" fill="#000000"> </text>
</a>
</g>
</g>
<!-- Node2&#45;&gt;Node1 -->
<g id="edge1" class="edge">
<title>Node2&#45;&gt;Node1</title>
<path fill="none" stroke="#404040" d="M58.5,-171.3952C58.5,-149.3577 58.5,-118.2968 58.5,-91.9075"/>
<polygon fill="none" stroke="#404040" points="58.5001,-91.7754 54.5,-85.7755 58.5,-79.7754 62.5,-85.7754 58.5001,-91.7754"/>
<text text-anchor="middle" x="94.5" y="-145" font-family="Helvetica,sans-Serif" font-size="10.00" fill="#000000"> +write_cells</text>
<text text-anchor="middle" x="94.5" y="-134" font-family="Helvetica,sans-Serif" font-size="10.00" fill="#000000">+write_diameter</text>
<text text-anchor="middle" x="94.5" y="-123" font-family="Helvetica,sans-Serif" font-size="10.00" fill="#000000">+write_measure</text>
<text text-anchor="middle" x="94.5" y="-112" font-family="Helvetica,sans-Serif" font-size="10.00" fill="#000000">+write_faces</text>
<text text-anchor="middle" x="94.5" y="-101" font-family="Helvetica,sans-Serif" font-size="10.00" fill="#000000">+write_all_faces</text>
</g>
</g>
</svg>
