<?xml version="1.0" encoding="UTF-8" standalone="no"?>
<!DOCTYPE svg PUBLIC "-//W3C//DTD SVG 1.1//EN"
 "http://www.w3.org/Graphics/SVG/1.1/DTD/svg11.dtd">
<!-- Generated by graphviz version 2.40.1 (20161225.0304)
 -->
<!-- Title: mystl::has_iterator_cat_of&lt; T, U, bool &gt; Pages: 1 -->
<!--zoomable 449 -->
<svg id="main" version="1.1" xmlns="http://www.w3.org/2000/svg" xmlns:xlink="http://www.w3.org/1999/xlink" xml:space="preserve" onload="init(evt)">
<style type="text/css"><![CDATA[
.edge:hover path { stroke: red; }
.edge:hover polygon { stroke: red; fill: red; }
]]></style>
<script type="text/javascript"><![CDATA[
var edges = document.getElementsByTagName('g');
if (edges && edges.length) {
  for (var i=0;i<edges.length;i++) {
    if (edges[i].id.substr(0,4)=='edge') {
      edges[i].setAttribute('class','edge');
    }
  }
}
]]></script>
        <defs>
                <circle id="rim" cx="0" cy="0" r="7"/>
                <circle id="rim2" cx="0" cy="0" r="3.5"/>
                <g id="zoomPlus">
                        <use xlink:href="#rim" fill="#404040">
                                <set attributeName="fill" to="#808080" begin="zoomplus.mouseover" end="zoomplus.mouseout"/>
                        </use>
                        <path d="M-4,0h8M0,-4v8" fill="none" stroke="white" stroke-width="1.5" pointer-events="none"/>
                </g>
                <g id="zoomMin">
                        <use xlink:href="#rim" fill="#404040">
                                <set attributeName="fill" to="#808080" begin="zoomminus.mouseover" end="zoomminus.mouseout"/>
                        </use>
                        <path d="M-4,0h8" fill="none" stroke="white" stroke-width="1.5" pointer-events="none"/>
                </g>
                <g id="dirArrow">
                        <path fill="none" stroke="white" stroke-width="1.5" d="M0,-3.0v7 M-2.5,-0.5L0,-3.0L2.5,-0.5"/>
                </g>
               <g id="resetDef">
                       <use xlink:href="#rim2" fill="#404040">
                               <set attributeName="fill" to="#808080" begin="reset.mouseover" end="reset.mouseout"/>
                       </use>
               </g>
        </defs>

<script type="text/javascript">
var viewWidth = 685;
var viewHeight = 449;
var sectionId = 'dynsection-0';
</script>
<script xlink:href="svgpan.js"/>
<svg id="graph" class="graph">
<g id="viewport">
<title>mystl::has_iterator_cat_of&lt; T, U, bool &gt;</title>
<polygon fill="#ffffff" stroke="transparent" points="-4,4 -4,-445 681,-445 681,4 -4,4"/>
<!-- Node0 -->
<g id="node1" class="node">
<title>Node0</title>
<polygon fill="#bfbfbf" stroke="#000000" points="292,-244.5 292,-312.5 402,-312.5 402,-244.5 292,-244.5"/>
<text text-anchor="start" x="300" y="-300.5" font-family="Helvetica,sans-Serif" font-size="10.00" fill="#000000">mystl::has_iterator</text>
<text text-anchor="middle" x="347" y="-289.5" font-family="Helvetica,sans-Serif" font-size="10.00" fill="#000000">_cat_of&lt; T, U, bool &gt;</text>
<polyline fill="none" stroke="#000000" points="292,-282.5 402,-282.5 "/>
<text text-anchor="middle" x="347" y="-270.5" font-family="Helvetica,sans-Serif" font-size="10.00" fill="#000000"> </text>
<polyline fill="none" stroke="#000000" points="292,-263.5 402,-263.5 "/>
<text text-anchor="middle" x="347" y="-251.5" font-family="Helvetica,sans-Serif" font-size="10.00" fill="#000000"> </text>
</g>
<!-- Node2 -->
<g id="node3" class="node">
<title>Node2</title>
<g id="a_node3"><a xlink:href="structmystl_1_1has__iterator__cat__of.html" target="_top" xlink:title="{mystl::has_iterator\l_cat_of\&lt; Iter, random\l_access_iterator_tag \&gt;\n||}">
<polygon fill="#ffffff" stroke="#000000" points="13,-106.5 13,-185.5 129,-185.5 129,-106.5 13,-106.5"/>
<text text-anchor="start" x="21" y="-173.5" font-family="Helvetica,sans-Serif" font-size="10.00" fill="#000000">mystl::has_iterator</text>
<text text-anchor="start" x="21" y="-162.5" font-family="Helvetica,sans-Serif" font-size="10.00" fill="#000000">_cat_of&lt; Iter, random</text>
<text text-anchor="middle" x="71" y="-151.5" font-family="Helvetica,sans-Serif" font-size="10.00" fill="#000000">_access_iterator_tag &gt;</text>
<polyline fill="none" stroke="#000000" points="13,-144.5 129,-144.5 "/>
<text text-anchor="middle" x="71" y="-132.5" font-family="Helvetica,sans-Serif" font-size="10.00" fill="#000000"> </text>
<polyline fill="none" stroke="#000000" points="13,-125.5 129,-125.5 "/>
<text text-anchor="middle" x="71" y="-113.5" font-family="Helvetica,sans-Serif" font-size="10.00" fill="#000000"> </text>
</a>
</g>
</g>
<!-- Node0&#45;&gt;Node2 -->
<g id="edge2" class="edge">
<title>Node0&#45;&gt;Node2</title>
<path fill="none" stroke="#ffa500" d="M281.9409,-268.7742C225.2858,-259.3218 148.3613,-243.8133 123,-226 108.6312,-215.9077 97.2463,-200.4572 88.8377,-185.8162"/>
<polygon fill="#ffa500" stroke="#ffa500" points="281.4763,-272.2447 291.9111,-270.4105 282.61,-265.3371 281.4763,-272.2447"/>
<text text-anchor="start" x="123" y="-218" font-family="Helvetica,sans-Serif" font-size="10.00" fill="#000000"> &lt; Iter, random_access</text>
<text text-anchor="middle" x="174" y="-207" font-family="Helvetica,sans-Serif" font-size="10.00" fill="#000000">_iterator_tag &gt;</text>
</g>
<!-- Node4 -->
<g id="node5" class="node">
<title>Node4</title>
<g id="a_node5"><a xlink:href="structmystl_1_1has__iterator__cat__of.html" target="_top" xlink:title="{mystl::has_iterator\l_cat_of\&lt; Iter, forward\l_iterator_tag \&gt;\n||}">
<polygon fill="#ffffff" stroke="#000000" points="154,-106.5 154,-185.5 264,-185.5 264,-106.5 154,-106.5"/>
<text text-anchor="start" x="162" y="-173.5" font-family="Helvetica,sans-Serif" font-size="10.00" fill="#000000">mystl::has_iterator</text>
<text text-anchor="start" x="162" y="-162.5" font-family="Helvetica,sans-Serif" font-size="10.00" fill="#000000">_cat_of&lt; Iter, forward</text>
<text text-anchor="middle" x="209" y="-151.5" font-family="Helvetica,sans-Serif" font-size="10.00" fill="#000000">_iterator_tag &gt;</text>
<polyline fill="none" stroke="#000000" points="154,-144.5 264,-144.5 "/>
<text text-anchor="middle" x="209" y="-132.5" font-family="Helvetica,sans-Serif" font-size="10.00" fill="#000000"> </text>
<polyline fill="none" stroke="#000000" points="154,-125.5 264,-125.5 "/>
<text text-anchor="middle" x="209" y="-113.5" font-family="Helvetica,sans-Serif" font-size="10.00" fill="#000000"> </text>
</a>
</g>
</g>
<!-- Node0&#45;&gt;Node4 -->
<g id="edge4" class="edge">
<title>Node0&#45;&gt;Node4</title>
<path fill="none" stroke="#ffa500" d="M282.9814,-255.0164C268.481,-247.4448 254.1053,-237.859 243,-226 232.4784,-214.7643 224.9436,-199.7819 219.6858,-185.8221"/>
<polygon fill="#ffa500" stroke="#ffa500" points="281.4823,-258.1795 291.9979,-259.4728 284.5839,-251.9042 281.4823,-258.1795"/>
<text text-anchor="start" x="243" y="-218" font-family="Helvetica,sans-Serif" font-size="10.00" fill="#000000"> &lt; Iter, forward_iterator</text>
<text text-anchor="middle" x="293" y="-207" font-family="Helvetica,sans-Serif" font-size="10.00" fill="#000000">_tag &gt;</text>
</g>
<!-- Node6 -->
<g id="node7" class="node">
<title>Node6</title>
<g id="a_node7"><a xlink:href="structmystl_1_1has__iterator__cat__of.html" target="_top" xlink:title="{mystl::has_iterator\l_cat_of\&lt; Iter, bidirectional\l_iterator_tag \&gt;\n||}">
<polygon fill="#ffffff" stroke="#000000" points="282,-106.5 282,-185.5 412,-185.5 412,-106.5 282,-106.5"/>
<text text-anchor="start" x="290" y="-173.5" font-family="Helvetica,sans-Serif" font-size="10.00" fill="#000000">mystl::has_iterator</text>
<text text-anchor="start" x="290" y="-162.5" font-family="Helvetica,sans-Serif" font-size="10.00" fill="#000000">_cat_of&lt; Iter, bidirectional</text>
<text text-anchor="middle" x="347" y="-151.5" font-family="Helvetica,sans-Serif" font-size="10.00" fill="#000000">_iterator_tag &gt;</text>
<polyline fill="none" stroke="#000000" points="282,-144.5 412,-144.5 "/>
<text text-anchor="middle" x="347" y="-132.5" font-family="Helvetica,sans-Serif" font-size="10.00" fill="#000000"> </text>
<polyline fill="none" stroke="#000000" points="282,-125.5 412,-125.5 "/>
<text text-anchor="middle" x="347" y="-113.5" font-family="Helvetica,sans-Serif" font-size="10.00" fill="#000000"> </text>
</a>
</g>
</g>
<!-- Node0&#45;&gt;Node6 -->
<g id="edge6" class="edge">
<title>Node0&#45;&gt;Node6</title>
<path fill="none" stroke="#ffa500" d="M347,-234.3477C347,-218.606 347,-200.9845 347,-185.645"/>
<polygon fill="#ffa500" stroke="#ffa500" points="343.5001,-234.3779 347,-244.378 350.5001,-234.378 343.5001,-234.3779"/>
<text text-anchor="start" x="347" y="-218" font-family="Helvetica,sans-Serif" font-size="10.00" fill="#000000"> &lt; Iter, bidirectional</text>
<text text-anchor="middle" x="389.5" y="-207" font-family="Helvetica,sans-Serif" font-size="10.00" fill="#000000">_iterator_tag &gt;</text>
</g>
<!-- Node8 -->
<g id="node9" class="node">
<title>Node8</title>
<g id="a_node9"><a xlink:href="structmystl_1_1has__iterator__cat__of.html" target="_top" xlink:title="{mystl::has_iterator\l_cat_of\&lt; Iter, output\l_iterator_tag \&gt;\n||}">
<polygon fill="#ffffff" stroke="#000000" points="430.5,-106.5 430.5,-185.5 535.5,-185.5 535.5,-106.5 430.5,-106.5"/>
<text text-anchor="start" x="438.5" y="-173.5" font-family="Helvetica,sans-Serif" font-size="10.00" fill="#000000">mystl::has_iterator</text>
<text text-anchor="start" x="438.5" y="-162.5" font-family="Helvetica,sans-Serif" font-size="10.00" fill="#000000">_cat_of&lt; Iter, output</text>
<text text-anchor="middle" x="483" y="-151.5" font-family="Helvetica,sans-Serif" font-size="10.00" fill="#000000">_iterator_tag &gt;</text>
<polyline fill="none" stroke="#000000" points="430.5,-144.5 535.5,-144.5 "/>
<text text-anchor="middle" x="483" y="-132.5" font-family="Helvetica,sans-Serif" font-size="10.00" fill="#000000"> </text>
<polyline fill="none" stroke="#000000" points="430.5,-125.5 535.5,-125.5 "/>
<text text-anchor="middle" x="483" y="-113.5" font-family="Helvetica,sans-Serif" font-size="10.00" fill="#000000"> </text>
</a>
</g>
</g>
<!-- Node0&#45;&gt;Node8 -->
<g id="edge8" class="edge">
<title>Node0&#45;&gt;Node8</title>
<path fill="none" stroke="#ffa500" d="M411.0113,-246.1876C419.9566,-240.1673 428.6046,-233.4085 436,-226 447.4941,-214.4855 457.2344,-199.6043 464.8157,-185.8052"/>
<polygon fill="#ffa500" stroke="#ffa500" points="408.9002,-243.3837 402.3749,-251.7306 412.6811,-249.2747 408.9002,-243.3837"/>
<text text-anchor="start" x="453" y="-218" font-family="Helvetica,sans-Serif" font-size="10.00" fill="#000000"> &lt; Iter, output_iterator</text>
<text text-anchor="middle" x="500.5" y="-207" font-family="Helvetica,sans-Serif" font-size="10.00" fill="#000000">_tag &gt;</text>
</g>
<!-- Node10 -->
<g id="node11" class="node">
<title>Node10</title>
<g id="a_node11"><a xlink:href="structmystl_1_1has__iterator__cat__of.html" target="_top" xlink:title="{mystl::has_iterator\l_cat_of\&lt; Iter, input\l_iterator_tag \&gt;\n||}">
<polygon fill="#ffffff" stroke="#000000" points="561.5,-106.5 561.5,-185.5 660.5,-185.5 660.5,-106.5 561.5,-106.5"/>
<text text-anchor="start" x="569.5" y="-173.5" font-family="Helvetica,sans-Serif" font-size="10.00" fill="#000000">mystl::has_iterator</text>
<text text-anchor="start" x="569.5" y="-162.5" font-family="Helvetica,sans-Serif" font-size="10.00" fill="#000000">_cat_of&lt; Iter, input</text>
<text text-anchor="middle" x="611" y="-151.5" font-family="Helvetica,sans-Serif" font-size="10.00" fill="#000000">_iterator_tag &gt;</text>
<polyline fill="none" stroke="#000000" points="561.5,-144.5 660.5,-144.5 "/>
<text text-anchor="middle" x="611" y="-132.5" font-family="Helvetica,sans-Serif" font-size="10.00" fill="#000000"> </text>
<polyline fill="none" stroke="#000000" points="561.5,-125.5 660.5,-125.5 "/>
<text text-anchor="middle" x="611" y="-113.5" font-family="Helvetica,sans-Serif" font-size="10.00" fill="#000000"> </text>
</a>
</g>
</g>
<!-- Node0&#45;&gt;Node10 -->
<g id="edge10" class="edge">
<title>Node0&#45;&gt;Node10</title>
<path fill="none" stroke="#ffa500" d="M412.0617,-266.7767C463.1116,-256.6809 529.222,-241.3511 552,-226 567.1695,-215.7766 579.8922,-200.3036 589.5935,-185.6811"/>
<polygon fill="#ffa500" stroke="#ffa500" points="411.2153,-263.3757 402.0698,-268.7245 412.5547,-270.2463 411.2153,-263.3757"/>
<text text-anchor="start" x="575" y="-218" font-family="Helvetica,sans-Serif" font-size="10.00" fill="#000000"> &lt; Iter, input_iterator</text>
<text text-anchor="middle" x="619.5" y="-207" font-family="Helvetica,sans-Serif" font-size="10.00" fill="#000000">_tag &gt;</text>
</g>
<!-- Node1 -->
<g id="node2" class="node">
<title>Node1</title>
<g id="a_node2"><a xlink:href="structmystl_1_1m__integral__constant.html" target="_top" xlink:title="{m_bool_constant\&lt; std\l::is_convertible\&lt; iterator\l_traits\&lt; T \&gt;::iterator_category,\l U \&gt;::value \&gt;\n|+ value\l|}">
<polygon fill="#ffffff" stroke="#000000" points="272.5,-350.5 272.5,-440.5 421.5,-440.5 421.5,-350.5 272.5,-350.5"/>
<text text-anchor="start" x="280.5" y="-428.5" font-family="Helvetica,sans-Serif" font-size="10.00" fill="#000000">m_bool_constant&lt; std</text>
<text text-anchor="start" x="280.5" y="-417.5" font-family="Helvetica,sans-Serif" font-size="10.00" fill="#000000">::is_convertible&lt; iterator</text>
<text text-anchor="start" x="280.5" y="-406.5" font-family="Helvetica,sans-Serif" font-size="10.00" fill="#000000">_traits&lt; T &gt;::iterator_category,</text>
<text text-anchor="middle" x="347" y="-395.5" font-family="Helvetica,sans-Serif" font-size="10.00" fill="#000000"> U &gt;::value &gt;</text>
<polyline fill="none" stroke="#000000" points="272.5,-388.5 421.5,-388.5 "/>
<text text-anchor="start" x="280.5" y="-376.5" font-family="Helvetica,sans-Serif" font-size="10.00" fill="#000000">+ value</text>
<polyline fill="none" stroke="#000000" points="272.5,-369.5 421.5,-369.5 "/>
<text text-anchor="middle" x="347" y="-357.5" font-family="Helvetica,sans-Serif" font-size="10.00" fill="#000000"> </text>
</a>
</g>
</g>
<!-- Node1&#45;&gt;Node0 -->
<g id="edge1" class="edge">
<title>Node1&#45;&gt;Node0</title>
<path fill="none" stroke="#191970" d="M347,-340.1895C347,-330.8229 347,-321.3469 347,-312.7259"/>
<polygon fill="none" stroke="#191970" points="343.5001,-340.2647 347,-350.2647 350.5001,-340.2648 343.5001,-340.2647"/>
</g>
<!-- Node3 -->
<g id="node4" class="node">
<title>Node3</title>
<g id="a_node4"><a xlink:href="structmystl_1_1is__random__access__iterator.html" target="_top" xlink:title="{mystl::is_random_access\l_iterator\&lt; Iter \&gt;\n||}">
<polygon fill="#ffffff" stroke="#000000" points="0,-.5 0,-68.5 128,-68.5 128,-.5 0,-.5"/>
<text text-anchor="start" x="8" y="-56.5" font-family="Helvetica,sans-Serif" font-size="10.00" fill="#000000">mystl::is_random_access</text>
<text text-anchor="middle" x="64" y="-45.5" font-family="Helvetica,sans-Serif" font-size="10.00" fill="#000000">_iterator&lt; Iter &gt;</text>
<polyline fill="none" stroke="#000000" points="0,-38.5 128,-38.5 "/>
<text text-anchor="middle" x="64" y="-26.5" font-family="Helvetica,sans-Serif" font-size="10.00" fill="#000000"> </text>
<polyline fill="none" stroke="#000000" points="0,-19.5 128,-19.5 "/>
<text text-anchor="middle" x="64" y="-7.5" font-family="Helvetica,sans-Serif" font-size="10.00" fill="#000000"> </text>
</a>
</g>
</g>
<!-- Node2&#45;&gt;Node3 -->
<g id="edge3" class="edge">
<title>Node2&#45;&gt;Node3</title>
<path fill="none" stroke="#191970" d="M67.8679,-96.1102C67.289,-86.8885 66.6964,-77.4506 66.1547,-68.8207"/>
<polygon fill="none" stroke="#191970" points="64.3926,-96.6143 68.5124,-106.3753 71.3788,-96.1756 64.3926,-96.6143"/>
</g>
<!-- Node5 -->
<g id="node6" class="node">
<title>Node5</title>
<g id="a_node6"><a xlink:href="structmystl_1_1is__forward__iterator.html" target="_top" xlink:title="{mystl::is_forward_iterator\l\&lt; Iter \&gt;\n||}">
<polygon fill="#ffffff" stroke="#000000" points="146.5,-.5 146.5,-68.5 273.5,-68.5 273.5,-.5 146.5,-.5"/>
<text text-anchor="start" x="154.5" y="-56.5" font-family="Helvetica,sans-Serif" font-size="10.00" fill="#000000">mystl::is_forward_iterator</text>
<text text-anchor="middle" x="210" y="-45.5" font-family="Helvetica,sans-Serif" font-size="10.00" fill="#000000">&lt; Iter &gt;</text>
<polyline fill="none" stroke="#000000" points="146.5,-38.5 273.5,-38.5 "/>
<text text-anchor="middle" x="210" y="-26.5" font-family="Helvetica,sans-Serif" font-size="10.00" fill="#000000"> </text>
<polyline fill="none" stroke="#000000" points="146.5,-19.5 273.5,-19.5 "/>
<text text-anchor="middle" x="210" y="-7.5" font-family="Helvetica,sans-Serif" font-size="10.00" fill="#000000"> </text>
</a>
</g>
</g>
<!-- Node4&#45;&gt;Node5 -->
<g id="edge5" class="edge">
<title>Node4&#45;&gt;Node5</title>
<path fill="none" stroke="#191970" d="M209.4474,-96.1102C209.5301,-86.8885 209.6148,-77.4506 209.6922,-68.8207"/>
<polygon fill="none" stroke="#191970" points="205.9453,-96.3443 209.3554,-106.3753 212.945,-96.4071 205.9453,-96.3443"/>
</g>
<!-- Node7 -->
<g id="node8" class="node">
<title>Node7</title>
<g id="a_node8"><a xlink:href="structmystl_1_1is__bidirectional__iterator.html" target="_top" xlink:title="{mystl::is_bidirectional\l_iterator\&lt; Iter \&gt;\n||}">
<polygon fill="#ffffff" stroke="#000000" points="291.5,-.5 291.5,-68.5 402.5,-68.5 402.5,-.5 291.5,-.5"/>
<text text-anchor="start" x="299.5" y="-56.5" font-family="Helvetica,sans-Serif" font-size="10.00" fill="#000000">mystl::is_bidirectional</text>
<text text-anchor="middle" x="347" y="-45.5" font-family="Helvetica,sans-Serif" font-size="10.00" fill="#000000">_iterator&lt; Iter &gt;</text>
<polyline fill="none" stroke="#000000" points="291.5,-38.5 402.5,-38.5 "/>
<text text-anchor="middle" x="347" y="-26.5" font-family="Helvetica,sans-Serif" font-size="10.00" fill="#000000"> </text>
<polyline fill="none" stroke="#000000" points="291.5,-19.5 402.5,-19.5 "/>
<text text-anchor="middle" x="347" y="-7.5" font-family="Helvetica,sans-Serif" font-size="10.00" fill="#000000"> </text>
</a>
</g>
</g>
<!-- Node6&#45;&gt;Node7 -->
<g id="edge7" class="edge">
<title>Node6&#45;&gt;Node7</title>
<path fill="none" stroke="#191970" d="M347,-96.1102C347,-86.8885 347,-77.4506 347,-68.8207"/>
<polygon fill="none" stroke="#191970" points="343.5001,-96.3753 347,-106.3753 350.5001,-96.3754 343.5001,-96.3753"/>
</g>
<!-- Node9 -->
<g id="node10" class="node">
<title>Node9</title>
<g id="a_node10"><a xlink:href="structmystl_1_1is__output__iterator.html" target="_top" xlink:title="{mystl::is_output_iterator\l\&lt; Iter \&gt;\n||}">
<polygon fill="#ffffff" stroke="#000000" points="421,-.5 421,-68.5 543,-68.5 543,-.5 421,-.5"/>
<text text-anchor="start" x="429" y="-56.5" font-family="Helvetica,sans-Serif" font-size="10.00" fill="#000000">mystl::is_output_iterator</text>
<text text-anchor="middle" x="482" y="-45.5" font-family="Helvetica,sans-Serif" font-size="10.00" fill="#000000">&lt; Iter &gt;</text>
<polyline fill="none" stroke="#000000" points="421,-38.5 543,-38.5 "/>
<text text-anchor="middle" x="482" y="-26.5" font-family="Helvetica,sans-Serif" font-size="10.00" fill="#000000"> </text>
<polyline fill="none" stroke="#000000" points="421,-19.5 543,-19.5 "/>
<text text-anchor="middle" x="482" y="-7.5" font-family="Helvetica,sans-Serif" font-size="10.00" fill="#000000"> </text>
</a>
</g>
</g>
<!-- Node8&#45;&gt;Node9 -->
<g id="edge9" class="edge">
<title>Node8&#45;&gt;Node9</title>
<path fill="none" stroke="#191970" d="M482.5526,-96.1102C482.4699,-86.8885 482.3852,-77.4506 482.3078,-68.8207"/>
<polygon fill="none" stroke="#191970" points="479.055,-96.4071 482.6446,-106.3753 486.0547,-96.3443 479.055,-96.4071"/>
</g>
<!-- Node11 -->
<g id="node12" class="node">
<title>Node11</title>
<g id="a_node12"><a xlink:href="structmystl_1_1is__input__iterator.html" target="_top" xlink:title="{mystl::is_input_iterator\l\&lt; Iter \&gt;\n||}">
<polygon fill="#ffffff" stroke="#000000" points="561,-.5 561,-68.5 677,-68.5 677,-.5 561,-.5"/>
<text text-anchor="start" x="569" y="-56.5" font-family="Helvetica,sans-Serif" font-size="10.00" fill="#000000">mystl::is_input_iterator</text>
<text text-anchor="middle" x="619" y="-45.5" font-family="Helvetica,sans-Serif" font-size="10.00" fill="#000000">&lt; Iter &gt;</text>
<polyline fill="none" stroke="#000000" points="561,-38.5 677,-38.5 "/>
<text text-anchor="middle" x="619" y="-26.5" font-family="Helvetica,sans-Serif" font-size="10.00" fill="#000000"> </text>
<polyline fill="none" stroke="#000000" points="561,-19.5 677,-19.5 "/>
<text text-anchor="middle" x="619" y="-7.5" font-family="Helvetica,sans-Serif" font-size="10.00" fill="#000000"> </text>
</a>
</g>
</g>
<!-- Node10&#45;&gt;Node11 -->
<g id="edge11" class="edge">
<title>Node10&#45;&gt;Node11</title>
<path fill="none" stroke="#191970" d="M614.5795,-96.1102C615.2412,-86.8885 615.9183,-77.4506 616.5375,-68.8207"/>
<polygon fill="none" stroke="#191970" points="611.0677,-96.1505 613.843,-106.3753 618.0498,-96.6515 611.0677,-96.1505"/>
</g>
</g>
</svg>
        <g id="navigator" transform="translate(0 0)" fill="#404254">
                <rect fill="#f2f5e9" fill-opacity="0.5" stroke="#606060" stroke-width=".5" x="0" y="0" width="60" height="60"/>
                <use id="zoomplus" xlink:href="#zoomPlus" x="17" y="9" onmousedown="handleZoom(evt,'in')"/>
                <use id="zoomminus" xlink:href="#zoomMin" x="42" y="9" onmousedown="handleZoom(evt,'out')"/>
                <use id="reset" xlink:href="#resetDef" x="30" y="36" onmousedown="handleReset()"/>
                <g id="arrowUp" xlink:href="#dirArrow" transform="translate(30 24)" onmousedown="handlePan(0,-1)">
                  <use xlink:href="#rim" fill="#404040">
                        <set attributeName="fill" to="#808080" begin="arrowUp.mouseover" end="arrowUp.mouseout"/>
                  </use>
                  <path fill="none" stroke="white" stroke-width="1.5" d="M0,-3.0v7 M-2.5,-0.5L0,-3.0L2.5,-0.5"/>
                </g>
                <g id="arrowRight" xlink:href="#dirArrow" transform="rotate(90) translate(36 -43)" onmousedown="handlePan(1,0)">
                  <use xlink:href="#rim" fill="#404040">
                        <set attributeName="fill" to="#808080" begin="arrowRight.mouseover" end="arrowRight.mouseout"/>
                  </use>
                  <path fill="none" stroke="white" stroke-width="1.5" d="M0,-3.0v7 M-2.5,-0.5L0,-3.0L2.5,-0.5"/>
                </g>
                <g id="arrowDown" xlink:href="#dirArrow" transform="rotate(180) translate(-30 -48)" onmousedown="handlePan(0,1)">
                  <use xlink:href="#rim" fill="#404040">
                        <set attributeName="fill" to="#808080" begin="arrowDown.mouseover" end="arrowDown.mouseout"/>
                  </use>
                  <path fill="none" stroke="white" stroke-width="1.5" d="M0,-3.0v7 M-2.5,-0.5L0,-3.0L2.5,-0.5"/>
                </g>
                <g id="arrowLeft" xlink:href="#dirArrow" transform="rotate(270) translate(-36 17)" onmousedown="handlePan(-1,0)">
                  <use xlink:href="#rim" fill="#404040">
                        <set attributeName="fill" to="#808080" begin="arrowLeft.mouseover" end="arrowLeft.mouseout"/>
                  </use>
                  <path fill="none" stroke="white" stroke-width="1.5" d="M0,-3.0v7 M-2.5,-0.5L0,-3.0L2.5,-0.5"/>
                </g>
        </g>
        <svg viewBox="0 0 15 15" width="100%" height="30px" preserveAspectRatio="xMaxYMin meet">
         <g id="arrow_out" transform="scale(0.3 0.3)">
          <a xlink:href="structmystl_1_1has__iterator__cat__of__inherit__graph_org.svg" target="_base">
           <rect id="button" ry="5" rx="5" y="6" x="6" height="38" width="38"
                fill="#f2f5e9" fill-opacity="0.5" stroke="#606060" stroke-width="1.0"/>
           <path id="arrow"
             d="M 11.500037,31.436501 C 11.940474,20.09759 22.043105,11.32322 32.158766,21.979434 L 37.068811,17.246167 C 37.068811,17.246167 37.088388,32 37.088388,32 L 22.160133,31.978069 C 22.160133,31.978069 26.997745,27.140456 26.997745,27.140456 C 18.528582,18.264221 13.291696,25.230495 11.500037,31.436501 z"
             style="fill:#404040;"/>
          </a>
         </g>
        </svg>
</svg>
