<?xml version="1.0" encoding="UTF-8" standalone="no"?>
<!DOCTYPE svg PUBLIC "-//W3C//DTD SVG 1.1//EN"
 "http://www.w3.org/Graphics/SVG/1.1/DTD/svg11.dtd">
<!-- Generated by graphviz version 2.40.1 (20161225.0304)
 -->
<!-- Title: mystl::is_iterator&lt; Iterator &gt; Pages: 1 -->
<svg width="142pt" height="204pt"
 viewBox="0.00 0.00 142.00 204.00" xmlns="http://www.w3.org/2000/svg" xmlns:xlink="http://www.w3.org/1999/xlink">
<g id="graph0" class="graph" transform="scale(1 1) rotate(0) translate(4 200)">
<title>mystl::is_iterator&lt; Iterator &gt;</title>
<polygon fill="#ffffff" stroke="transparent" points="-4,4 -4,-200 138,-200 138,4 -4,4"/>
<!-- Node0 -->
<g id="node1" class="node">
<title>Node0</title>
<polygon fill="#bfbfbf" stroke="#000000" points="22.5,-.5 22.5,-68.5 111.5,-68.5 111.5,-.5 22.5,-.5"/>
<text text-anchor="start" x="30.5" y="-56.5" font-family="Helvetica,sans-Serif" font-size="10.00" fill="#000000">mystl::is_iterator</text>
<text text-anchor="middle" x="67" y="-45.5" font-family="Helvetica,sans-Serif" font-size="10.00" fill="#000000">&lt; Iterator &gt;</text>
<polyline fill="none" stroke="#000000" points="22.5,-38.5 111.5,-38.5 "/>
<text text-anchor="middle" x="67" y="-26.5" font-family="Helvetica,sans-Serif" font-size="10.00" fill="#000000"> </text>
<polyline fill="none" stroke="#000000" points="22.5,-19.5 111.5,-19.5 "/>
<text text-anchor="middle" x="67" y="-7.5" font-family="Helvetica,sans-Serif" font-size="10.00" fill="#000000"> </text>
</g>
<!-- Node1 -->
<g id="node2" class="node">
<title>Node1</title>
<g id="a_node2"><a xlink:href="structmystl_1_1m__integral__constant.html" target="_top" xlink:title="{m_bool_constant\&lt; is\l_input_iterator\&lt; Iterator\l \&gt;::value\|\|is_output_iterator\l\&lt; Iterator \&gt;::value \&gt;\n|+ value\l|}">
<polygon fill="#ffffff" stroke="#000000" points="0,-105.5 0,-195.5 134,-195.5 134,-105.5 0,-105.5"/>
<text text-anchor="start" x="8" y="-183.5" font-family="Helvetica,sans-Serif" font-size="10.00" fill="#000000">m_bool_constant&lt; is</text>
<text text-anchor="start" x="8" y="-172.5" font-family="Helvetica,sans-Serif" font-size="10.00" fill="#000000">_input_iterator&lt; Iterator</text>
<text text-anchor="start" x="8" y="-161.5" font-family="Helvetica,sans-Serif" font-size="10.00" fill="#000000"> &gt;::value||is_output_iterator</text>
<text text-anchor="middle" x="67" y="-150.5" font-family="Helvetica,sans-Serif" font-size="10.00" fill="#000000">&lt; Iterator &gt;::value &gt;</text>
<polyline fill="none" stroke="#000000" points="0,-143.5 134,-143.5 "/>
<text text-anchor="start" x="8" y="-131.5" font-family="Helvetica,sans-Serif" font-size="10.00" fill="#000000">+ value</text>
<polyline fill="none" stroke="#000000" points="0,-124.5 134,-124.5 "/>
<text text-anchor="middle" x="67" y="-112.5" font-family="Helvetica,sans-Serif" font-size="10.00" fill="#000000"> </text>
</a>
</g>
</g>
<!-- Node1&#45;&gt;Node0 -->
<g id="edge1" class="edge">
<title>Node1&#45;&gt;Node0</title>
<path fill="none" stroke="#191970" d="M67,-95.1681C67,-86.1024 67,-76.9497 67,-68.5982"/>
<polygon fill="none" stroke="#191970" points="63.5001,-95.3192 67,-105.3192 70.5001,-95.3192 63.5001,-95.3192"/>
</g>
</g>
</svg>
