<?xml version="1.0" encoding="UTF-8" standalone="no"?>
<!DOCTYPE svg PUBLIC "-//W3C//DTD SVG 1.1//EN"
 "http://www.w3.org/Graphics/SVG/1.1/DTD/svg11.dtd">
<!-- Generated by graphviz version 2.40.1 (20161225.0304)
 -->
<!-- Title: DataOutBase::VtkFlags Pages: 1 -->
<svg width="230pt" height="231pt"
 viewBox="0.00 0.00 230.00 231.00" xmlns="http://www.w3.org/2000/svg" xmlns:xlink="http://www.w3.org/1999/xlink">
<g id="graph0" class="graph" transform="scale(1 1) rotate(0) translate(4 227)">
<title>DataOutBase::VtkFlags</title>
<polygon fill="#ffffff" stroke="transparent" points="-4,4 -4,-227 226,-227 226,4 -4,4"/>
<!-- Node0 -->
<g id="node1" class="node">
<title>Node0</title>
<polygon fill="#bfbfbf" stroke="#000000" points="46.5,-57.5 46.5,-76.5 175.5,-76.5 175.5,-57.5 46.5,-57.5"/>
<text text-anchor="middle" x="111" y="-64.5" font-family="Helvetica,sans-Serif" font-size="10.00" fill="#000000">DataOutBase::VtkFlags</text>
</g>
<!-- Node3 -->
<g id="node4" class="node">
<title>Node3</title>
<g id="a_node4"><a xlink:href="structGridOutFlags_1_1Vtk.html" target="_top" xlink:title="GridOutFlags::Vtk">
<polygon fill="#ffffff" stroke="#000000" points="0,-.5 0,-19.5 102,-19.5 102,-.5 0,-.5"/>
<text text-anchor="middle" x="51" y="-7.5" font-family="Helvetica,sans-Serif" font-size="10.00" fill="#000000">GridOutFlags::Vtk</text>
</a>
</g>
</g>
<!-- Node0&#45;&gt;Node3 -->
<g id="edge3" class="edge">
<title>Node0&#45;&gt;Node3</title>
<path fill="none" stroke="#191970" d="M93.3569,-50.239C82.8229,-40.2317 69.8258,-27.8845 61.0279,-19.5265"/>
<polygon fill="#191970" stroke="#191970" points="91.1612,-52.9807 100.8218,-57.3307 95.9824,-47.9057 91.1612,-52.9807"/>
</g>
<!-- Node4 -->
<g id="node5" class="node">
<title>Node4</title>
<g id="a_node5"><a xlink:href="structGridOutFlags_1_1Vtu.html" target="_top" xlink:title="GridOutFlags::Vtu">
<polygon fill="#ffffff" stroke="#000000" points="120,-.5 120,-19.5 222,-19.5 222,-.5 120,-.5"/>
<text text-anchor="middle" x="171" y="-7.5" font-family="Helvetica,sans-Serif" font-size="10.00" fill="#000000">GridOutFlags::Vtu</text>
</a>
</g>
</g>
<!-- Node0&#45;&gt;Node4 -->
<g id="edge4" class="edge">
<title>Node0&#45;&gt;Node4</title>
<path fill="none" stroke="#191970" d="M128.6431,-50.239C139.1771,-40.2317 152.1742,-27.8845 160.9721,-19.5265"/>
<polygon fill="#191970" stroke="#191970" points="126.0176,-47.9057 121.1782,-57.3307 130.8388,-52.9807 126.0176,-47.9057"/>
</g>
<!-- Node1 -->
<g id="node2" class="node">
<title>Node1</title>
<g id="a_node2"><a xlink:href="structDataOutBase_1_1OutputFlagsBase.html" target="_top" xlink:title="DataOutBase::OutputFlags\lBase\&lt; VtkFlags \&gt;">
<polygon fill="#ffffff" stroke="#000000" points="38,-114.5 38,-144.5 184,-144.5 184,-114.5 38,-114.5"/>
<text text-anchor="start" x="46" y="-132.5" font-family="Helvetica,sans-Serif" font-size="10.00" fill="#000000">DataOutBase::OutputFlags</text>
<text text-anchor="middle" x="111" y="-121.5" font-family="Helvetica,sans-Serif" font-size="10.00" fill="#000000">Base&lt; VtkFlags &gt;</text>
</a>
</g>
</g>
<!-- Node1&#45;&gt;Node0 -->
<g id="edge1" class="edge">
<title>Node1&#45;&gt;Node0</title>
<path fill="none" stroke="#191970" d="M111,-104.3498C111,-94.6481 111,-84.1303 111,-76.7356"/>
<polygon fill="#191970" stroke="#191970" points="107.5001,-104.3705 111,-114.3705 114.5001,-104.3705 107.5001,-104.3705"/>
</g>
<!-- Node2 -->
<g id="node3" class="node">
<title>Node2</title>
<g id="a_node3"><a xlink:href="structDataOutBase_1_1OutputFlagsBase.html" target="_top" xlink:title="DataOutBase::OutputFlags\lBase\&lt; FlagsType \&gt;">
<polygon fill="#ffffff" stroke="#000000" points="38,-192.5 38,-222.5 184,-222.5 184,-192.5 38,-192.5"/>
<text text-anchor="start" x="46" y="-210.5" font-family="Helvetica,sans-Serif" font-size="10.00" fill="#000000">DataOutBase::OutputFlags</text>
<text text-anchor="middle" x="111" y="-199.5" font-family="Helvetica,sans-Serif" font-size="10.00" fill="#000000">Base&lt; FlagsType &gt;</text>
</a>
</g>
</g>
<!-- Node2&#45;&gt;Node1 -->
<g id="edge2" class="edge">
<title>Node2&#45;&gt;Node1</title>
<path fill="none" stroke="#ffa500" stroke-dasharray="5,2" d="M111,-182.2875C111,-169.9187 111,-155.4264 111,-144.7592"/>
<polygon fill="#ffa500" stroke="#ffa500" points="107.5001,-182.4608 111,-192.4608 114.5001,-182.4608 107.5001,-182.4608"/>
<text text-anchor="middle" x="145" y="-166" font-family="Helvetica,sans-Serif" font-size="10.00" fill="#000000"> &lt; VtkFlags &gt;</text>
</g>
</g>
</svg>
