<?xml version="1.0" encoding="UTF-8" standalone="no"?>
<!DOCTYPE svg PUBLIC "-//W3C//DTD SVG 1.1//EN"
 "http://www.w3.org/Graphics/SVG/1.1/DTD/svg11.dtd">
<!-- Generated by graphviz version 2.40.1 (20161225.0304)
 -->
<!-- Title: TrilinosWrappers::PreconditionBlockSSOR::AdditionalData Pages: 1 -->
<svg width="284pt" height="310pt"
 viewBox="0.00 0.00 283.50 310.00" xmlns="http://www.w3.org/2000/svg" xmlns:xlink="http://www.w3.org/1999/xlink">
<g id="graph0" class="graph" transform="scale(1 1) rotate(0) translate(4 306)">
<title>TrilinosWrappers::PreconditionBlockSSOR::AdditionalData</title>
<polygon fill="#ffffff" stroke="transparent" points="-4,4 -4,-306 279.5,-306 279.5,4 -4,4"/>
<!-- Node1 -->
<g id="node1" class="node">
<title>Node1</title>
<polygon fill="#bfbfbf" stroke="#000000" points="34.5,-.5 34.5,-68.5 184.5,-68.5 184.5,-.5 34.5,-.5"/>
<text text-anchor="start" x="42.5" y="-56.5" font-family="Helvetica,sans-Serif" font-size="10.00" fill="#000000">TrilinosWrappers::Precondition</text>
<text text-anchor="middle" x="109.5" y="-45.5" font-family="Helvetica,sans-Serif" font-size="10.00" fill="#000000">BlockSSOR::AdditionalData</text>
<polyline fill="none" stroke="#000000" points="34.5,-38.5 184.5,-38.5 "/>
<text text-anchor="middle" x="109.5" y="-26.5" font-family="Helvetica,sans-Serif" font-size="10.00" fill="#000000"> </text>
<polyline fill="none" stroke="#000000" points="34.5,-19.5 184.5,-19.5 "/>
<text text-anchor="start" x="42.5" y="-7.5" font-family="Helvetica,sans-Serif" font-size="10.00" fill="#000000">+ AdditionalData()</text>
</g>
<!-- Node2 -->
<g id="node2" class="node">
<title>Node2</title>
<g id="a_node2"><a xlink:href="classdouble.html" target="_top" xlink:title="{double\n||}">
<polygon fill="#ffffff" stroke="#000000" points="0,-138.5 0,-195.5 45,-195.5 45,-138.5 0,-138.5"/>
<text text-anchor="middle" x="22.5" y="-183.5" font-family="Helvetica,sans-Serif" font-size="10.00" fill="#000000">double</text>
<polyline fill="none" stroke="#000000" points="0,-176.5 45,-176.5 "/>
<text text-anchor="middle" x="22.5" y="-164.5" font-family="Helvetica,sans-Serif" font-size="10.00" fill="#000000"> </text>
<polyline fill="none" stroke="#000000" points="0,-157.5 45,-157.5 "/>
<text text-anchor="middle" x="22.5" y="-145.5" font-family="Helvetica,sans-Serif" font-size="10.00" fill="#000000"> </text>
</a>
</g>
</g>
<!-- Node2&#45;&gt;Node1 -->
<g id="edge1" class="edge">
<title>Node2&#45;&gt;Node1</title>
<path fill="none" stroke="#404040" d="M24.621,-138.134C26.9142,-122.0391 31.6671,-102.2314 41.5,-87 43.6436,-83.6794 46.0721,-80.4838 48.7035,-77.4227"/>
<polygon fill="none" stroke="#404040" points="48.813,-77.3088 50.0836,-70.2105 57.1245,-68.6532 55.854,-75.7515 48.813,-77.3088"/>
<text text-anchor="middle" x="73.5" y="-106.5" font-family="Helvetica,sans-Serif" font-size="10.00" fill="#000000"> +omega</text>
<text text-anchor="middle" x="73.5" y="-95.5" font-family="Helvetica,sans-Serif" font-size="10.00" fill="#000000">+min_diagonal</text>
</g>
<!-- Node3 -->
<g id="node3" class="node">
<title>Node3</title>
<g id="a_node3"><a xlink:title="STL class. ">
<polygon fill="#ffffff" stroke="#bfbfbf" points="79.5,-138.5 79.5,-195.5 139.5,-195.5 139.5,-138.5 79.5,-138.5"/>
<text text-anchor="middle" x="109.5" y="-183.5" font-family="Helvetica,sans-Serif" font-size="10.00" fill="#000000">std::string</text>
<polyline fill="none" stroke="#bfbfbf" points="79.5,-176.5 139.5,-176.5 "/>
<text text-anchor="middle" x="109.5" y="-164.5" font-family="Helvetica,sans-Serif" font-size="10.00" fill="#000000"> </text>
<polyline fill="none" stroke="#bfbfbf" points="79.5,-157.5 139.5,-157.5 "/>
<text text-anchor="middle" x="109.5" y="-145.5" font-family="Helvetica,sans-Serif" font-size="10.00" fill="#000000"> </text>
</a>
</g>
</g>
<!-- Node3&#45;&gt;Node1 -->
<g id="edge2" class="edge">
<title>Node3&#45;&gt;Node1</title>
<path fill="none" stroke="#404040" d="M109.5,-138.2495C109.5,-121.5167 109.5,-100.0253 109.5,-80.9467"/>
<polygon fill="none" stroke="#404040" points="109.5001,-80.8321 105.5,-74.8321 109.5,-68.8321 113.5,-74.8321 109.5001,-80.8321"/>
<text text-anchor="middle" x="158" y="-101" font-family="Helvetica,sans-Serif" font-size="10.00" fill="#000000"> +block_creation_type</text>
</g>
<!-- Node4 -->
<g id="node4" class="node">
<title>Node4</title>
<g id="a_node4"><a xlink:title="STL class. ">
<polygon fill="#ffffff" stroke="#bfbfbf" points="62,-233.5 62,-301.5 157,-301.5 157,-233.5 62,-233.5"/>
<text text-anchor="start" x="70" y="-289.5" font-family="Helvetica,sans-Serif" font-size="10.00" fill="#000000">std::basic_string&lt;</text>
<text text-anchor="middle" x="109.5" y="-278.5" font-family="Helvetica,sans-Serif" font-size="10.00" fill="#000000"> char &gt;</text>
<polyline fill="none" stroke="#bfbfbf" points="62,-271.5 157,-271.5 "/>
<text text-anchor="middle" x="109.5" y="-259.5" font-family="Helvetica,sans-Serif" font-size="10.00" fill="#000000"> </text>
<polyline fill="none" stroke="#bfbfbf" points="62,-252.5 157,-252.5 "/>
<text text-anchor="middle" x="109.5" y="-240.5" font-family="Helvetica,sans-Serif" font-size="10.00" fill="#000000"> </text>
</a>
</g>
</g>
<!-- Node4&#45;&gt;Node3 -->
<g id="edge3" class="edge">
<title>Node4&#45;&gt;Node3</title>
<path fill="none" stroke="#191970" d="M109.5,-223.4301C109.5,-214.0073 109.5,-204.2901 109.5,-195.6312"/>
<polygon fill="none" stroke="#191970" points="106.0001,-223.4752 109.5,-233.4753 113.0001,-223.4753 106.0001,-223.4752"/>
</g>
<!-- Node5 -->
<g id="node5" class="node">
<title>Node5</title>
<polygon fill="#ffffff" stroke="#bfbfbf" points="201.5,-138.5 201.5,-195.5 257.5,-195.5 257.5,-138.5 201.5,-138.5"/>
<text text-anchor="middle" x="229.5" y="-183.5" font-family="Helvetica,sans-Serif" font-size="10.00" fill="#000000">unsigned</text>
<polyline fill="none" stroke="#bfbfbf" points="201.5,-176.5 257.5,-176.5 "/>
<text text-anchor="middle" x="229.5" y="-164.5" font-family="Helvetica,sans-Serif" font-size="10.00" fill="#000000"> </text>
<polyline fill="none" stroke="#bfbfbf" points="201.5,-157.5 257.5,-157.5 "/>
<text text-anchor="middle" x="229.5" y="-145.5" font-family="Helvetica,sans-Serif" font-size="10.00" fill="#000000"> </text>
</g>
<!-- Node5&#45;&gt;Node1 -->
<g id="edge4" class="edge">
<title>Node5&#45;&gt;Node1</title>
<path fill="none" stroke="#404040" d="M227.188,-138.1909C224.5882,-121.7226 219.0925,-101.5223 207.5,-87 203.611,-82.1281 199.1434,-77.6499 194.3052,-73.5435"/>
<polygon fill="none" stroke="#404040" points="194.1209,-73.4022 186.9256,-72.9248 184.5989,-66.0994 191.7942,-66.5768 194.1209,-73.4022"/>
<text text-anchor="middle" x="249" y="-112" font-family="Helvetica,sans-Serif" font-size="10.00" fill="#000000"> +overlap</text>
<text text-anchor="middle" x="249" y="-101" font-family="Helvetica,sans-Serif" font-size="10.00" fill="#000000">+n_sweeps</text>
<text text-anchor="middle" x="249" y="-90" font-family="Helvetica,sans-Serif" font-size="10.00" fill="#000000">+block_size</text>
</g>
</g>
</svg>
