<?xml version="1.0" encoding="UTF-8" standalone="no"?>
<!DOCTYPE svg PUBLIC "-//W3C//DTD SVG 1.1//EN"
 "http://www.w3.org/Graphics/SVG/1.1/DTD/svg11.dtd">
<!-- Generated by graphviz version 2.40.1 (20161225.0304)
 -->
<!-- Title: SolverBicgstab&lt; VectorType &gt;::IterationResult Pages: 1 -->
<svg width="290pt" height="182pt"
 viewBox="0.00 0.00 289.50 182.00" xmlns="http://www.w3.org/2000/svg" xmlns:xlink="http://www.w3.org/1999/xlink">
<g id="graph0" class="graph" transform="scale(1 1) rotate(0) translate(4 178)">
<title>SolverBicgstab&lt; VectorType &gt;::IterationResult</title>
<polygon fill="#ffffff" stroke="transparent" points="-4,4 -4,-178 285.5,-178 285.5,4 -4,4"/>
<!-- Node1 -->
<g id="node1" class="node">
<title>Node1</title>
<polygon fill="#bfbfbf" stroke="#000000" points="78.5,-.5 78.5,-68.5 220.5,-68.5 220.5,-.5 78.5,-.5"/>
<text text-anchor="start" x="86.5" y="-56.5" font-family="Helvetica,sans-Serif" font-size="10.00" fill="#000000">SolverBicgstab&lt; VectorType</text>
<text text-anchor="middle" x="149.5" y="-45.5" font-family="Helvetica,sans-Serif" font-size="10.00" fill="#000000"> &gt;::IterationResult</text>
<polyline fill="none" stroke="#000000" points="78.5,-38.5 220.5,-38.5 "/>
<text text-anchor="middle" x="149.5" y="-26.5" font-family="Helvetica,sans-Serif" font-size="10.00" fill="#000000"> </text>
<polyline fill="none" stroke="#000000" points="78.5,-19.5 220.5,-19.5 "/>
<text text-anchor="start" x="86.5" y="-7.5" font-family="Helvetica,sans-Serif" font-size="10.00" fill="#000000">+ IterationResult()</text>
</g>
<!-- Node2 -->
<g id="node2" class="node">
<title>Node2</title>
<g id="a_node2"><a xlink:href="classdouble.html" target="_top" xlink:title="{double\n||}">
<polygon fill="#ffffff" stroke="#000000" points="0,-116.5 0,-173.5 45,-173.5 45,-116.5 0,-116.5"/>
<text text-anchor="middle" x="22.5" y="-161.5" font-family="Helvetica,sans-Serif" font-size="10.00" fill="#000000">double</text>
<polyline fill="none" stroke="#000000" points="0,-154.5 45,-154.5 "/>
<text text-anchor="middle" x="22.5" y="-142.5" font-family="Helvetica,sans-Serif" font-size="10.00" fill="#000000"> </text>
<polyline fill="none" stroke="#000000" points="0,-135.5 45,-135.5 "/>
<text text-anchor="middle" x="22.5" y="-123.5" font-family="Helvetica,sans-Serif" font-size="10.00" fill="#000000"> </text>
</a>
</g>
</g>
<!-- Node2&#45;&gt;Node1 -->
<g id="edge1" class="edge">
<title>Node2&#45;&gt;Node1</title>
<path fill="none" stroke="#404040" d="M25.9507,-116.4302C28.3732,-106.2256 32.4936,-95.2292 39.5,-87 47.3192,-77.8161 57.1097,-70.1192 67.6061,-63.7024"/>
<polygon fill="none" stroke="#404040" points="67.8268,-63.5785 71.1009,-57.1535 78.2909,-57.7046 75.0168,-64.1296 67.8268,-63.5785"/>
<text text-anchor="middle" x="71.5" y="-90" font-family="Helvetica,sans-Serif" font-size="10.00" fill="#000000"> +last_residual</text>
</g>
<!-- Node3 -->
<g id="node3" class="node">
<title>Node3</title>
<g id="a_node3"><a xlink:href="classbool.html" target="_top" xlink:title="{bool\n||}">
<polygon fill="#ffffff" stroke="#000000" points="92,-116.5 92,-173.5 127,-173.5 127,-116.5 92,-116.5"/>
<text text-anchor="middle" x="109.5" y="-161.5" font-family="Helvetica,sans-Serif" font-size="10.00" fill="#000000">bool</text>
<polyline fill="none" stroke="#000000" points="92,-154.5 127,-154.5 "/>
<text text-anchor="middle" x="109.5" y="-142.5" font-family="Helvetica,sans-Serif" font-size="10.00" fill="#000000"> </text>
<polyline fill="none" stroke="#000000" points="92,-135.5 127,-135.5 "/>
<text text-anchor="middle" x="109.5" y="-123.5" font-family="Helvetica,sans-Serif" font-size="10.00" fill="#000000"> </text>
</a>
</g>
</g>
<!-- Node3&#45;&gt;Node1 -->
<g id="edge2" class="edge">
<title>Node3&#45;&gt;Node1</title>
<path fill="none" stroke="#404040" d="M106.5353,-116.373C106.4464,-106.8145 107.3523,-96.2478 110.5,-87 111.3769,-84.4237 112.4315,-81.8696 113.6228,-79.3561"/>
<polygon fill="none" stroke="#404040" points="113.7475,-79.1325 113.1779,-71.9439 119.5945,-68.6533 120.1641,-75.8419 113.7475,-79.1325"/>
<text text-anchor="middle" x="139" y="-90" font-family="Helvetica,sans-Serif" font-size="10.00" fill="#000000"> +breakdown</text>
</g>
<!-- Node4 -->
<g id="node4" class="node">
<title>Node4</title>
<polygon fill="#ffffff" stroke="#bfbfbf" points="161.5,-116.5 161.5,-173.5 217.5,-173.5 217.5,-116.5 161.5,-116.5"/>
<text text-anchor="middle" x="189.5" y="-161.5" font-family="Helvetica,sans-Serif" font-size="10.00" fill="#000000">unsigned</text>
<polyline fill="none" stroke="#bfbfbf" points="161.5,-154.5 217.5,-154.5 "/>
<text text-anchor="middle" x="189.5" y="-142.5" font-family="Helvetica,sans-Serif" font-size="10.00" fill="#000000"> </text>
<polyline fill="none" stroke="#bfbfbf" points="161.5,-135.5 217.5,-135.5 "/>
<text text-anchor="middle" x="189.5" y="-123.5" font-family="Helvetica,sans-Serif" font-size="10.00" fill="#000000"> </text>
</g>
<!-- Node4&#45;&gt;Node1 -->
<g id="edge3" class="edge">
<title>Node4&#45;&gt;Node1</title>
<path fill="none" stroke="#404040" d="M179.0949,-116.2559C175.0953,-105.2071 170.4249,-92.305 165.9918,-80.0586"/>
<polygon fill="none" stroke="#404040" points="165.9285,-79.8835 160.125,-75.6033 161.8439,-68.6001 167.6474,-72.8803 165.9285,-79.8835"/>
<text text-anchor="middle" x="196" y="-90" font-family="Helvetica,sans-Serif" font-size="10.00" fill="#000000"> +last_step</text>
</g>
<!-- Node5 -->
<g id="node5" class="node">
<title>Node5</title>
<polygon fill="#ffffff" stroke="#bfbfbf" points="241.5,-116.5 241.5,-173.5 281.5,-173.5 281.5,-116.5 241.5,-116.5"/>
<text text-anchor="middle" x="261.5" y="-161.5" font-family="Helvetica,sans-Serif" font-size="10.00" fill="#000000">State</text>
<polyline fill="none" stroke="#bfbfbf" points="241.5,-154.5 281.5,-154.5 "/>
<text text-anchor="middle" x="261.5" y="-142.5" font-family="Helvetica,sans-Serif" font-size="10.00" fill="#000000"> </text>
<polyline fill="none" stroke="#bfbfbf" points="241.5,-135.5 281.5,-135.5 "/>
<text text-anchor="middle" x="261.5" y="-123.5" font-family="Helvetica,sans-Serif" font-size="10.00" fill="#000000"> </text>
</g>
<!-- Node5&#45;&gt;Node1 -->
<g id="edge4" class="edge">
<title>Node5&#45;&gt;Node1</title>
<path fill="none" stroke="#404040" d="M246.2312,-116.2442C240.2158,-106.3615 232.7626,-95.6247 224.5,-87 221.0365,-83.3847 217.2898,-79.8643 213.3821,-76.47"/>
<polygon fill="none" stroke="#404040" points="213.3052,-76.4069 206.1295,-75.6924 204.0292,-68.794 211.2048,-69.5084 213.3052,-76.4069"/>
<text text-anchor="middle" x="248" y="-90" font-family="Helvetica,sans-Serif" font-size="10.00" fill="#000000"> +state</text>
</g>
</g>
</svg>
