<?xml version="1.0" encoding="UTF-8" standalone="no"?>
<!DOCTYPE svg PUBLIC "-//W3C//DTD SVG 1.1//EN"
 "http://www.w3.org/Graphics/SVG/1.1/DTD/svg11.dtd">
<!-- Generated by graphviz version 2.40.1 (20161225.0304)
 -->
<!-- Title: boost::geometry::index::indexable&lt; T &gt; Pages: 1 -->
<svg width="170pt" height="215pt"
 viewBox="0.00 0.00 170.00 215.00" xmlns="http://www.w3.org/2000/svg" xmlns:xlink="http://www.w3.org/1999/xlink">
<g id="graph0" class="graph" transform="scale(1 1) rotate(0) translate(4 211)">
<title>boost::geometry::index::indexable&lt; T &gt;</title>
<polygon fill="#ffffff" stroke="transparent" points="-4,4 -4,-211 166,-211 166,4 -4,4"/>
<!-- Node0 -->
<g id="node1" class="node">
<title>Node0</title>
<polygon fill="#bfbfbf" stroke="#000000" points="4,-138.5 4,-206.5 120,-206.5 120,-138.5 4,-138.5"/>
<text text-anchor="start" x="12" y="-194.5" font-family="Helvetica,sans-Serif" font-size="10.00" fill="#000000">boost::geometry::index</text>
<text text-anchor="middle" x="62" y="-183.5" font-family="Helvetica,sans-Serif" font-size="10.00" fill="#000000">::indexable&lt; T &gt;</text>
<polyline fill="none" stroke="#000000" points="4,-176.5 120,-176.5 "/>
<text text-anchor="middle" x="62" y="-164.5" font-family="Helvetica,sans-Serif" font-size="10.00" fill="#000000"> </text>
<polyline fill="none" stroke="#000000" points="4,-157.5 120,-157.5 "/>
<text text-anchor="middle" x="62" y="-145.5" font-family="Helvetica,sans-Serif" font-size="10.00" fill="#000000"> </text>
</g>
<!-- Node1 -->
<g id="node2" class="node">
<title>Node1</title>
<g id="a_node2"><a xlink:href="structboost_1_1geometry_1_1index_1_1indexable.html" target="_top" xlink:title="{boost::geometry::index\l::indexable\&lt; typename\l Container::value_type \&gt;\n||}">
<polygon fill="#ffffff" stroke="#000000" points="0,-.5 0,-79.5 124,-79.5 124,-.5 0,-.5"/>
<text text-anchor="start" x="8" y="-67.5" font-family="Helvetica,sans-Serif" font-size="10.00" fill="#000000">boost::geometry::index</text>
<text text-anchor="start" x="8" y="-56.5" font-family="Helvetica,sans-Serif" font-size="10.00" fill="#000000">::indexable&lt; typename</text>
<text text-anchor="middle" x="62" y="-45.5" font-family="Helvetica,sans-Serif" font-size="10.00" fill="#000000"> Container::value_type &gt;</text>
<polyline fill="none" stroke="#000000" points="0,-38.5 124,-38.5 "/>
<text text-anchor="middle" x="62" y="-26.5" font-family="Helvetica,sans-Serif" font-size="10.00" fill="#000000"> </text>
<polyline fill="none" stroke="#000000" points="0,-19.5 124,-19.5 "/>
<text text-anchor="middle" x="62" y="-7.5" font-family="Helvetica,sans-Serif" font-size="10.00" fill="#000000"> </text>
</a>
</g>
</g>
<!-- Node0&#45;&gt;Node1 -->
<g id="edge1" class="edge">
<title>Node0&#45;&gt;Node1</title>
<path fill="none" stroke="#ffa500" d="M62,-128.3477C62,-112.606 62,-94.9845 62,-79.645"/>
<polygon fill="#ffa500" stroke="#ffa500" points="58.5001,-128.3779 62,-138.378 65.5001,-128.378 58.5001,-128.3779"/>
<text text-anchor="start" x="62" y="-112" font-family="Helvetica,sans-Serif" font-size="10.00" fill="#000000"> &lt; typename Container</text>
<text text-anchor="middle" x="112" y="-101" font-family="Helvetica,sans-Serif" font-size="10.00" fill="#000000">::value_type &gt;</text>
</g>
</g>
</svg>
