<?xml version="1.0" encoding="UTF-8" standalone="no"?>
<!DOCTYPE svg PUBLIC "-//W3C//DTD SVG 1.1//EN"
 "http://www.w3.org/Graphics/SVG/1.1/DTD/svg11.dtd">
<!-- Generated by graphviz version 2.40.1 (20161225.0304)
 -->
<!-- Title: internal::VectorOperations::Vectorization_add_avpbw&lt; Number &gt; Pages: 1 -->
<svg width="314pt" height="215pt"
 viewBox="0.00 0.00 313.50 215.00" xmlns="http://www.w3.org/2000/svg" xmlns:xlink="http://www.w3.org/1999/xlink">
<g id="graph0" class="graph" transform="scale(1 1) rotate(0) translate(4 211)">
<title>internal::VectorOperations::Vectorization_add_avpbw&lt; Number &gt;</title>
<polygon fill="#ffffff" stroke="transparent" points="-4,4 -4,-211 309.5,-211 309.5,4 -4,4"/>
<!-- Node1 -->
<g id="node1" class="node">
<title>Node1</title>
<polygon fill="#bfbfbf" stroke="#000000" points="65.5,-.5 65.5,-90.5 208.5,-90.5 208.5,-.5 65.5,-.5"/>
<text text-anchor="start" x="73.5" y="-78.5" font-family="Helvetica,sans-Serif" font-size="10.00" fill="#000000">internal::VectorOperations</text>
<text text-anchor="start" x="73.5" y="-67.5" font-family="Helvetica,sans-Serif" font-size="10.00" fill="#000000">::Vectorization_add_avpbw</text>
<text text-anchor="middle" x="137" y="-56.5" font-family="Helvetica,sans-Serif" font-size="10.00" fill="#000000">&lt; Number &gt;</text>
<polyline fill="none" stroke="#000000" points="65.5,-49.5 208.5,-49.5 "/>
<text text-anchor="middle" x="137" y="-37.5" font-family="Helvetica,sans-Serif" font-size="10.00" fill="#000000"> </text>
<polyline fill="none" stroke="#000000" points="65.5,-30.5 208.5,-30.5 "/>
<text text-anchor="start" x="73.5" y="-18.5" font-family="Helvetica,sans-Serif" font-size="10.00" fill="#000000">+ Vectorization_add_avpbw()</text>
<text text-anchor="start" x="73.5" y="-7.5" font-family="Helvetica,sans-Serif" font-size="10.00" fill="#000000">+ operator()()</text>
</g>
<!-- Node2 -->
<g id="node2" class="node">
<title>Node2</title>
<polygon fill="#ffffff" stroke="#bfbfbf" points="0,-149.5 0,-206.5 78,-206.5 78,-149.5 0,-149.5"/>
<text text-anchor="middle" x="39" y="-194.5" font-family="Helvetica,sans-Serif" font-size="10.00" fill="#000000">const Number</text>
<polyline fill="none" stroke="#bfbfbf" points="0,-187.5 78,-187.5 "/>
<text text-anchor="middle" x="39" y="-175.5" font-family="Helvetica,sans-Serif" font-size="10.00" fill="#000000"> </text>
<polyline fill="none" stroke="#bfbfbf" points="0,-168.5 78,-168.5 "/>
<text text-anchor="middle" x="39" y="-156.5" font-family="Helvetica,sans-Serif" font-size="10.00" fill="#000000"> </text>
</g>
<!-- Node2&#45;&gt;Node1 -->
<g id="edge1" class="edge">
<title>Node2&#45;&gt;Node1</title>
<path fill="none" stroke="#404040" d="M60.2645,-149.2495C70.8527,-134.9339 84.017,-117.1351 96.436,-100.3442"/>
<polygon fill="none" stroke="#404040" points="96.501,-100.2562 96.853,-93.0537 103.6368,-90.6084 103.2849,-97.8109 96.501,-100.2562"/>
<text text-anchor="middle" x="95.5" y="-123" font-family="Helvetica,sans-Serif" font-size="10.00" fill="#000000"> +a</text>
<text text-anchor="middle" x="95.5" y="-112" font-family="Helvetica,sans-Serif" font-size="10.00" fill="#000000">+b</text>
</g>
<!-- Node3 -->
<g id="node3" class="node">
<title>Node3</title>
<polygon fill="#ffffff" stroke="#bfbfbf" points="96,-149.5 96,-206.5 178,-206.5 178,-149.5 96,-149.5"/>
<text text-anchor="middle" x="137" y="-194.5" font-family="Helvetica,sans-Serif" font-size="10.00" fill="#000000">Number *const</text>
<polyline fill="none" stroke="#bfbfbf" points="96,-187.5 178,-187.5 "/>
<text text-anchor="middle" x="137" y="-175.5" font-family="Helvetica,sans-Serif" font-size="10.00" fill="#000000"> </text>
<polyline fill="none" stroke="#bfbfbf" points="96,-168.5 178,-168.5 "/>
<text text-anchor="middle" x="137" y="-156.5" font-family="Helvetica,sans-Serif" font-size="10.00" fill="#000000"> </text>
</g>
<!-- Node3&#45;&gt;Node1 -->
<g id="edge2" class="edge">
<title>Node3&#45;&gt;Node1</title>
<path fill="none" stroke="#404040" d="M137,-149.2495C137,-135.6028 137,-118.791 137,-102.7042"/>
<polygon fill="none" stroke="#404040" points="137.0001,-102.6084 133,-96.6084 137,-90.6084 141,-96.6083 137.0001,-102.6084"/>
<text text-anchor="middle" x="148" y="-117.5" font-family="Helvetica,sans-Serif" font-size="10.00" fill="#000000"> +val</text>
</g>
<!-- Node4 -->
<g id="node4" class="node">
<title>Node4</title>
<polygon fill="#ffffff" stroke="#bfbfbf" points="196.5,-149.5 196.5,-206.5 305.5,-206.5 305.5,-149.5 196.5,-149.5"/>
<text text-anchor="middle" x="251" y="-194.5" font-family="Helvetica,sans-Serif" font-size="10.00" fill="#000000">const Number *const</text>
<polyline fill="none" stroke="#bfbfbf" points="196.5,-187.5 305.5,-187.5 "/>
<text text-anchor="middle" x="251" y="-175.5" font-family="Helvetica,sans-Serif" font-size="10.00" fill="#000000"> </text>
<polyline fill="none" stroke="#bfbfbf" points="196.5,-168.5 305.5,-168.5 "/>
<text text-anchor="middle" x="251" y="-156.5" font-family="Helvetica,sans-Serif" font-size="10.00" fill="#000000"> </text>
</g>
<!-- Node4&#45;&gt;Node1 -->
<g id="edge3" class="edge">
<title>Node4&#45;&gt;Node1</title>
<path fill="none" stroke="#404040" d="M226.2637,-149.2495C213.8318,-134.8001 198.3467,-116.8021 183.7819,-99.8737"/>
<polygon fill="none" stroke="#404040" points="183.6367,-99.7049 176.6913,-97.7655 175.8102,-90.6084 182.7557,-92.5478 183.6367,-99.7049"/>
<text text-anchor="middle" x="223.5" y="-123" font-family="Helvetica,sans-Serif" font-size="10.00" fill="#000000"> +v_val</text>
<text text-anchor="middle" x="223.5" y="-112" font-family="Helvetica,sans-Serif" font-size="10.00" fill="#000000">+w_val</text>
</g>
</g>
</svg>
