<?xml version="1.0" encoding="UTF-8" standalone="no"?>
<!DOCTYPE svg PUBLIC "-//W3C//DTD SVG 1.1//EN"
 "http://www.w3.org/Graphics/SVG/1.1/DTD/svg11.dtd">
<!-- Generated by graphviz version 2.40.1 (20161225.0304)
 -->
<!-- Title: mystl::ht_const_local_iterator&lt; T &gt; Pages: 1 -->
<svg width="268pt" height="419pt"
 viewBox="0.00 0.00 268.00 419.00" xmlns="http://www.w3.org/2000/svg" xmlns:xlink="http://www.w3.org/1999/xlink">
<g id="graph0" class="graph" transform="scale(1 1) rotate(0) translate(4 415)">
<title>mystl::ht_const_local_iterator&lt; T &gt;</title>
<polygon fill="#ffffff" stroke="transparent" points="-4,4 -4,-415 264,-415 264,4 -4,4"/>
<!-- Node3 -->
<g id="node1" class="node">
<title>Node3</title>
<polygon fill="#bfbfbf" stroke="#000000" points="104,-.5 104,-156.5 234,-156.5 234,-.5 104,-.5"/>
<text text-anchor="start" x="112" y="-144.5" font-family="Helvetica,sans-Serif" font-size="10.00" fill="#000000">mystl::ht_const_local</text>
<text text-anchor="middle" x="169" y="-133.5" font-family="Helvetica,sans-Serif" font-size="10.00" fill="#000000">_iterator&lt; T &gt;</text>
<polyline fill="none" stroke="#000000" points="104,-126.5 234,-126.5 "/>
<text text-anchor="middle" x="169" y="-114.5" font-family="Helvetica,sans-Serif" font-size="10.00" fill="#000000"> </text>
<polyline fill="none" stroke="#000000" points="104,-107.5 234,-107.5 "/>
<text text-anchor="start" x="112" y="-95.5" font-family="Helvetica,sans-Serif" font-size="10.00" fill="#000000">+ ht_const_local_iterator()</text>
<text text-anchor="start" x="112" y="-84.5" font-family="Helvetica,sans-Serif" font-size="10.00" fill="#000000">+ ht_const_local_iterator()</text>
<text text-anchor="start" x="112" y="-73.5" font-family="Helvetica,sans-Serif" font-size="10.00" fill="#000000">+ ht_const_local_iterator()</text>
<text text-anchor="start" x="112" y="-62.5" font-family="Helvetica,sans-Serif" font-size="10.00" fill="#000000">+ operator*()</text>
<text text-anchor="start" x="112" y="-51.5" font-family="Helvetica,sans-Serif" font-size="10.00" fill="#000000">+ operator&#45;&gt;()</text>
<text text-anchor="start" x="112" y="-40.5" font-family="Helvetica,sans-Serif" font-size="10.00" fill="#000000">+ operator++()</text>
<text text-anchor="start" x="112" y="-29.5" font-family="Helvetica,sans-Serif" font-size="10.00" fill="#000000">+ operator++()</text>
<text text-anchor="start" x="112" y="-18.5" font-family="Helvetica,sans-Serif" font-size="10.00" fill="#000000">+ operator==()</text>
<text text-anchor="start" x="112" y="-7.5" font-family="Helvetica,sans-Serif" font-size="10.00" fill="#000000">+ operator!=()</text>
</g>
<!-- Node4 -->
<g id="node2" class="node">
<title>Node4</title>
<g id="a_node2"><a xlink:href="structmystl_1_1iterator.html" target="_top" xlink:title="{mystl::iterator\&lt; mystl\l::forward_iterator_tag, T \&gt;\n||}">
<polygon fill="#ffffff" stroke="#000000" points="0,-204.5 0,-272.5 130,-272.5 130,-204.5 0,-204.5"/>
<text text-anchor="start" x="8" y="-260.5" font-family="Helvetica,sans-Serif" font-size="10.00" fill="#000000">mystl::iterator&lt; mystl</text>
<text text-anchor="middle" x="65" y="-249.5" font-family="Helvetica,sans-Serif" font-size="10.00" fill="#000000">::forward_iterator_tag, T &gt;</text>
<polyline fill="none" stroke="#000000" points="0,-242.5 130,-242.5 "/>
<text text-anchor="middle" x="65" y="-230.5" font-family="Helvetica,sans-Serif" font-size="10.00" fill="#000000"> </text>
<polyline fill="none" stroke="#000000" points="0,-223.5 130,-223.5 "/>
<text text-anchor="middle" x="65" y="-211.5" font-family="Helvetica,sans-Serif" font-size="10.00" fill="#000000"> </text>
</a>
</g>
</g>
<!-- Node4&#45;&gt;Node3 -->
<g id="edge1" class="edge">
<title>Node4&#45;&gt;Node3</title>
<path fill="none" stroke="#191970" d="M92.8198,-195.7003C100.6323,-183.681 109.3816,-170.2206 118.0901,-156.8229"/>
<polygon fill="none" stroke="#191970" points="89.826,-193.8841 87.3106,-204.176 95.6951,-197.699 89.826,-193.8841"/>
</g>
<!-- Node5 -->
<g id="node3" class="node">
<title>Node5</title>
<g id="a_node3"><a xlink:href="structmystl_1_1iterator.html" target="_top" xlink:title="{mystl::iterator\&lt; Category,\l T, Distance, Pointer,\l Reference \&gt;\n||}">
<polygon fill="#ffffff" stroke="#000000" points="1,-331.5 1,-410.5 129,-410.5 129,-331.5 1,-331.5"/>
<text text-anchor="start" x="9" y="-398.5" font-family="Helvetica,sans-Serif" font-size="10.00" fill="#000000">mystl::iterator&lt; Category,</text>
<text text-anchor="start" x="9" y="-387.5" font-family="Helvetica,sans-Serif" font-size="10.00" fill="#000000"> T, Distance, Pointer,</text>
<text text-anchor="middle" x="65" y="-376.5" font-family="Helvetica,sans-Serif" font-size="10.00" fill="#000000"> Reference &gt;</text>
<polyline fill="none" stroke="#000000" points="1,-369.5 129,-369.5 "/>
<text text-anchor="middle" x="65" y="-357.5" font-family="Helvetica,sans-Serif" font-size="10.00" fill="#000000"> </text>
<polyline fill="none" stroke="#000000" points="1,-350.5 129,-350.5 "/>
<text text-anchor="middle" x="65" y="-338.5" font-family="Helvetica,sans-Serif" font-size="10.00" fill="#000000"> </text>
</a>
</g>
</g>
<!-- Node5&#45;&gt;Node4 -->
<g id="edge2" class="edge">
<title>Node5&#45;&gt;Node4</title>
<path fill="none" stroke="#ffa500" d="M65,-320.9391C65,-304.8943 65,-287.4999 65,-272.8429"/>
<polygon fill="#ffa500" stroke="#ffa500" points="61.5001,-321.2456 65,-331.2456 68.5001,-321.2457 61.5001,-321.2456"/>
<text text-anchor="start" x="65" y="-305" font-family="Helvetica,sans-Serif" font-size="10.00" fill="#000000"> &lt; mystl::forward_iterator</text>
<text text-anchor="middle" x="120" y="-294" font-family="Helvetica,sans-Serif" font-size="10.00" fill="#000000">_tag, T &gt;</text>
</g>
<!-- Node6 -->
<g id="node4" class="node">
<title>Node6</title>
<polygon fill="#ffffff" stroke="#bfbfbf" points="148,-204.5 148,-272.5 260,-272.5 260,-204.5 148,-204.5"/>
<text text-anchor="start" x="156" y="-260.5" font-family="Helvetica,sans-Serif" font-size="10.00" fill="#000000">const hashtable_node</text>
<text text-anchor="middle" x="204" y="-249.5" font-family="Helvetica,sans-Serif" font-size="10.00" fill="#000000">&lt; T &gt; *</text>
<polyline fill="none" stroke="#bfbfbf" points="148,-242.5 260,-242.5 "/>
<text text-anchor="middle" x="204" y="-230.5" font-family="Helvetica,sans-Serif" font-size="10.00" fill="#000000"> </text>
<polyline fill="none" stroke="#bfbfbf" points="148,-223.5 260,-223.5 "/>
<text text-anchor="middle" x="204" y="-211.5" font-family="Helvetica,sans-Serif" font-size="10.00" fill="#000000"> </text>
</g>
<!-- Node6&#45;&gt;Node3 -->
<g id="edge3" class="edge">
<title>Node6&#45;&gt;Node3</title>
<path fill="none" stroke="#404040" d="M196.4916,-204.176C194.1779,-193.5991 191.5138,-181.4204 188.7741,-168.8959"/>
<polygon fill="none" stroke="#404040" points="188.6976,-168.5457 183.5077,-163.5391 186.1331,-156.8229 191.3229,-161.8295 188.6976,-168.5457"/>
<text text-anchor="middle" x="206.5" y="-178" font-family="Helvetica,sans-Serif" font-size="10.00" fill="#000000"> +node</text>
</g>
</g>
</svg>
