<?xml version="1.0" encoding="UTF-8" standalone="no"?>
<!DOCTYPE svg PUBLIC "-//W3C//DTD SVG 1.1//EN"
 "http://www.w3.org/Graphics/SVG/1.1/DTD/svg11.dtd">
<!-- Generated by graphviz version 2.40.1 (20161225.0304)
 -->
<!-- Title: mystl::is_output_iterator&lt; Iter &gt; Pages: 1 -->
<!--zoomable 655 -->
<svg id="main" version="1.1" xmlns="http://www.w3.org/2000/svg" xmlns:xlink="http://www.w3.org/1999/xlink" xml:space="preserve" onload="init(evt)">
<style type="text/css"><![CDATA[
.edge:hover path { stroke: red; }
.edge:hover polygon { stroke: red; fill: red; }
]]></style>
<script type="text/javascript"><![CDATA[
var edges = document.getElementsByTagName('g');
if (edges && edges.length) {
  for (var i=0;i<edges.length;i++) {
    if (edges[i].id.substr(0,4)=='edge') {
      edges[i].setAttribute('class','edge');
    }
  }
}
]]></script>
        <defs>
                <circle id="rim" cx="0" cy="0" r="7"/>
                <circle id="rim2" cx="0" cy="0" r="3.5"/>
                <g id="zoomPlus">
                        <use xlink:href="#rim" fill="#404040">
                                <set attributeName="fill" to="#808080" begin="zoomplus.mouseover" end="zoomplus.mouseout"/>
                        </use>
                        <path d="M-4,0h8M0,-4v8" fill="none" stroke="white" stroke-width="1.5" pointer-events="none"/>
                </g>
                <g id="zoomMin">
                        <use xlink:href="#rim" fill="#404040">
                                <set attributeName="fill" to="#808080" begin="zoomminus.mouseover" end="zoomminus.mouseout"/>
                        </use>
                        <path d="M-4,0h8" fill="none" stroke="white" stroke-width="1.5" pointer-events="none"/>
                </g>
                <g id="dirArrow">
                        <path fill="none" stroke="white" stroke-width="1.5" d="M0,-3.0v7 M-2.5,-0.5L0,-3.0L2.5,-0.5"/>
                </g>
               <g id="resetDef">
                       <use xlink:href="#rim2" fill="#404040">
                               <set attributeName="fill" to="#808080" begin="reset.mouseover" end="reset.mouseout"/>
                       </use>
               </g>
        </defs>

<script type="text/javascript">
var viewWidth = 244;
var viewHeight = 655;
var sectionId = 'dynsection-1';
</script>
<script xlink:href="svgpan.js"/>
<svg id="graph" class="graph">
<g id="viewport">
<title>mystl::is_output_iterator&lt; Iter &gt;</title>
<polygon fill="#ffffff" stroke="transparent" points="-4,4 -4,-651 239.5,-651 239.5,4 -4,4"/>
<!-- Node5 -->
<g id="node1" class="node">
<title>Node5</title>
<polygon fill="#bfbfbf" stroke="#000000" points="28,-.5 28,-68.5 150,-68.5 150,-.5 28,-.5"/>
<text text-anchor="start" x="36" y="-56.5" font-family="Helvetica,sans-Serif" font-size="10.00" fill="#000000">mystl::is_output_iterator</text>
<text text-anchor="middle" x="89" y="-45.5" font-family="Helvetica,sans-Serif" font-size="10.00" fill="#000000">&lt; Iter &gt;</text>
<polyline fill="none" stroke="#000000" points="28,-38.5 150,-38.5 "/>
<text text-anchor="middle" x="89" y="-26.5" font-family="Helvetica,sans-Serif" font-size="10.00" fill="#000000"> </text>
<polyline fill="none" stroke="#000000" points="28,-19.5 150,-19.5 "/>
<text text-anchor="middle" x="89" y="-7.5" font-family="Helvetica,sans-Serif" font-size="10.00" fill="#000000"> </text>
</g>
<!-- Node6 -->
<g id="node2" class="node">
<title>Node6</title>
<g id="a_node2"><a xlink:href="structmystl_1_1has__iterator__cat__of.html" target="_top" xlink:title="{mystl::has_iterator\l_cat_of\&lt; Iter, output\l_iterator_tag \&gt;\n||}">
<polygon fill="#ffffff" stroke="#000000" points="36.5,-106.5 36.5,-185.5 141.5,-185.5 141.5,-106.5 36.5,-106.5"/>
<text text-anchor="start" x="44.5" y="-173.5" font-family="Helvetica,sans-Serif" font-size="10.00" fill="#000000">mystl::has_iterator</text>
<text text-anchor="start" x="44.5" y="-162.5" font-family="Helvetica,sans-Serif" font-size="10.00" fill="#000000">_cat_of&lt; Iter, output</text>
<text text-anchor="middle" x="89" y="-151.5" font-family="Helvetica,sans-Serif" font-size="10.00" fill="#000000">_iterator_tag &gt;</text>
<polyline fill="none" stroke="#000000" points="36.5,-144.5 141.5,-144.5 "/>
<text text-anchor="middle" x="89" y="-132.5" font-family="Helvetica,sans-Serif" font-size="10.00" fill="#000000"> </text>
<polyline fill="none" stroke="#000000" points="36.5,-125.5 141.5,-125.5 "/>
<text text-anchor="middle" x="89" y="-113.5" font-family="Helvetica,sans-Serif" font-size="10.00" fill="#000000"> </text>
</a>
</g>
</g>
<!-- Node6&#45;&gt;Node5 -->
<g id="edge1" class="edge">
<title>Node6&#45;&gt;Node5</title>
<path fill="none" stroke="#191970" d="M89,-96.1102C89,-86.8885 89,-77.4506 89,-68.8207"/>
<polygon fill="none" stroke="#191970" points="85.5001,-96.3753 89,-106.3753 92.5001,-96.3754 85.5001,-96.3753"/>
</g>
<!-- Node7 -->
<g id="node3" class="node">
<title>Node7</title>
<g id="a_node3"><a xlink:href="structmystl_1_1m__integral__constant.html" target="_top" xlink:title="{m_bool_constant\&lt; std\l::is_convertible\&lt; iterator\l_traits\&lt; Iter &#160;\&gt;::iterator\l_category, output_iterator\l_tag &#160;\&gt;::value \&gt;\n||}">
<polygon fill="#ffffff" stroke="#000000" points="0,-331.5 0,-432.5 128,-432.5 128,-331.5 0,-331.5"/>
<text text-anchor="start" x="8" y="-420.5" font-family="Helvetica,sans-Serif" font-size="10.00" fill="#000000">m_bool_constant&lt; std</text>
<text text-anchor="start" x="8" y="-409.5" font-family="Helvetica,sans-Serif" font-size="10.00" fill="#000000">::is_convertible&lt; iterator</text>
<text text-anchor="start" x="8" y="-398.5" font-family="Helvetica,sans-Serif" font-size="10.00" fill="#000000">_traits&lt; Iter &gt;::iterator</text>
<text text-anchor="start" x="8" y="-387.5" font-family="Helvetica,sans-Serif" font-size="10.00" fill="#000000">_category, output_iterator</text>
<text text-anchor="middle" x="64" y="-376.5" font-family="Helvetica,sans-Serif" font-size="10.00" fill="#000000">_tag &gt;::value &gt;</text>
<polyline fill="none" stroke="#000000" points="0,-369.5 128,-369.5 "/>
<text text-anchor="middle" x="64" y="-357.5" font-family="Helvetica,sans-Serif" font-size="10.00" fill="#000000"> </text>
<polyline fill="none" stroke="#000000" points="0,-350.5 128,-350.5 "/>
<text text-anchor="middle" x="64" y="-338.5" font-family="Helvetica,sans-Serif" font-size="10.00" fill="#000000"> </text>
</a>
</g>
</g>
<!-- Node7&#45;&gt;Node6 -->
<g id="edge2" class="edge">
<title>Node7&#45;&gt;Node6</title>
<path fill="none" stroke="#191970" d="M70.4223,-321.3732C74.9462,-278.6678 80.8738,-222.7118 84.803,-185.6196"/>
<polygon fill="none" stroke="#191970" points="66.9361,-321.059 69.3631,-331.3721 73.8972,-321.7964 66.9361,-321.059"/>
</g>
<!-- Node8 -->
<g id="node4" class="node">
<title>Node8</title>
<polygon fill="#ffffff" stroke="#bfbfbf" points="39.5,-589.5 39.5,-646.5 134.5,-646.5 134.5,-589.5 39.5,-589.5"/>
<text text-anchor="middle" x="87" y="-634.5" font-family="Helvetica,sans-Serif" font-size="10.00" fill="#000000">static constexpr T</text>
<polyline fill="none" stroke="#bfbfbf" points="39.5,-627.5 134.5,-627.5 "/>
<text text-anchor="middle" x="87" y="-615.5" font-family="Helvetica,sans-Serif" font-size="10.00" fill="#000000"> </text>
<polyline fill="none" stroke="#bfbfbf" points="39.5,-608.5 134.5,-608.5 "/>
<text text-anchor="middle" x="87" y="-596.5" font-family="Helvetica,sans-Serif" font-size="10.00" fill="#000000"> </text>
</g>
<!-- Node8&#45;&gt;Node7 -->
<g id="edge3" class="edge">
<title>Node8&#45;&gt;Node7</title>
<path fill="none" stroke="#404040" d="M82.4165,-589.2056C81.5432,-583.1987 80.6884,-576.8998 80,-571 75.097,-528.9779 71.0854,-481.5319 68.3054,-444.6899"/>
<polygon fill="none" stroke="#404040" points="68.2983,-444.5925 63.8652,-438.9049 67.4103,-432.6254 71.8433,-438.3129 68.2983,-444.5925"/>
<text text-anchor="middle" x="96.5" y="-563" font-family="Helvetica,sans-Serif" font-size="10.00" fill="#000000"> +value</text>
</g>
<!-- Node10 -->
<g id="node6" class="node">
<title>Node10</title>
<g id="a_node6"><a xlink:href="structmystl_1_1m__integral__constant.html" target="_top" xlink:title="{m_bool_constant\&lt; std\l::is_convertible\&lt; iterator\l_traits\&lt; T \&gt;::iterator_category,\l U \&gt;::value \&gt;\n||}">
<polygon fill="#ffffff" stroke="#000000" points="86.5,-451.5 86.5,-541.5 235.5,-541.5 235.5,-451.5 86.5,-451.5"/>
<text text-anchor="start" x="94.5" y="-529.5" font-family="Helvetica,sans-Serif" font-size="10.00" fill="#000000">m_bool_constant&lt; std</text>
<text text-anchor="start" x="94.5" y="-518.5" font-family="Helvetica,sans-Serif" font-size="10.00" fill="#000000">::is_convertible&lt; iterator</text>
<text text-anchor="start" x="94.5" y="-507.5" font-family="Helvetica,sans-Serif" font-size="10.00" fill="#000000">_traits&lt; T &gt;::iterator_category,</text>
<text text-anchor="middle" x="161" y="-496.5" font-family="Helvetica,sans-Serif" font-size="10.00" fill="#000000"> U &gt;::value &gt;</text>
<polyline fill="none" stroke="#000000" points="86.5,-489.5 235.5,-489.5 "/>
<text text-anchor="middle" x="161" y="-477.5" font-family="Helvetica,sans-Serif" font-size="10.00" fill="#000000"> </text>
<polyline fill="none" stroke="#000000" points="86.5,-470.5 235.5,-470.5 "/>
<text text-anchor="middle" x="161" y="-458.5" font-family="Helvetica,sans-Serif" font-size="10.00" fill="#000000"> </text>
</a>
</g>
</g>
<!-- Node8&#45;&gt;Node10 -->
<g id="edge6" class="edge">
<title>Node8&#45;&gt;Node10</title>
<path fill="none" stroke="#404040" d="M104.537,-589.2062C111.2818,-578.1318 119.233,-565.0768 127.0061,-552.3143"/>
<polygon fill="none" stroke="#404040" points="127.2211,-551.9612 126.9259,-544.7561 133.4632,-541.7124 133.7584,-548.9175 127.2211,-551.9612"/>
<text text-anchor="middle" x="137.5" y="-563" font-family="Helvetica,sans-Serif" font-size="10.00" fill="#000000"> +value</text>
</g>
<!-- Node9 -->
<g id="node5" class="node">
<title>Node9</title>
<g id="a_node5"><a xlink:href="structmystl_1_1has__iterator__cat__of.html" target="_top" xlink:title="{mystl::has_iterator\l_cat_of\&lt; T, U, bool \&gt;\n||}">
<polygon fill="#ffffff" stroke="#000000" points="102,-244.5 102,-312.5 212,-312.5 212,-244.5 102,-244.5"/>
<text text-anchor="start" x="110" y="-300.5" font-family="Helvetica,sans-Serif" font-size="10.00" fill="#000000">mystl::has_iterator</text>
<text text-anchor="middle" x="157" y="-289.5" font-family="Helvetica,sans-Serif" font-size="10.00" fill="#000000">_cat_of&lt; T, U, bool &gt;</text>
<polyline fill="none" stroke="#000000" points="102,-282.5 212,-282.5 "/>
<text text-anchor="middle" x="157" y="-270.5" font-family="Helvetica,sans-Serif" font-size="10.00" fill="#000000"> </text>
<polyline fill="none" stroke="#000000" points="102,-263.5 212,-263.5 "/>
<text text-anchor="middle" x="157" y="-251.5" font-family="Helvetica,sans-Serif" font-size="10.00" fill="#000000"> </text>
</a>
</g>
</g>
<!-- Node9&#45;&gt;Node6 -->
<g id="edge4" class="edge">
<title>Node9&#45;&gt;Node6</title>
<path fill="none" stroke="#ffa500" d="M134.8013,-235.2452C126.6069,-219.2782 117.3684,-201.2767 109.3461,-185.645"/>
<polygon fill="#ffa500" stroke="#ffa500" points="131.8085,-237.0793 139.4883,-244.378 138.0362,-233.8831 131.8085,-237.0793"/>
<text text-anchor="start" x="129" y="-218" font-family="Helvetica,sans-Serif" font-size="10.00" fill="#000000"> &lt; Iter, output_iterator</text>
<text text-anchor="middle" x="176.5" y="-207" font-family="Helvetica,sans-Serif" font-size="10.00" fill="#000000">_tag &gt;</text>
</g>
<!-- Node10&#45;&gt;Node9 -->
<g id="edge5" class="edge">
<title>Node10&#45;&gt;Node9</title>
<path fill="none" stroke="#191970" d="M159.9877,-441.3297C159.2439,-400.7922 158.2567,-346.9919 157.6248,-312.5494"/>
<polygon fill="none" stroke="#191970" points="156.4882,-441.3962 160.1712,-451.3303 163.4871,-441.2677 156.4882,-441.3962"/>
</g>
</g>
</svg>
        <g id="navigator" transform="translate(0 0)" fill="#404254">
                <rect fill="#f2f5e9" fill-opacity="0.5" stroke="#606060" stroke-width=".5" x="0" y="0" width="60" height="60"/>
                <use id="zoomplus" xlink:href="#zoomPlus" x="17" y="9" onmousedown="handleZoom(evt,'in')"/>
                <use id="zoomminus" xlink:href="#zoomMin" x="42" y="9" onmousedown="handleZoom(evt,'out')"/>
                <use id="reset" xlink:href="#resetDef" x="30" y="36" onmousedown="handleReset()"/>
                <g id="arrowUp" xlink:href="#dirArrow" transform="translate(30 24)" onmousedown="handlePan(0,-1)">
                  <use xlink:href="#rim" fill="#404040">
                        <set attributeName="fill" to="#808080" begin="arrowUp.mouseover" end="arrowUp.mouseout"/>
                  </use>
                  <path fill="none" stroke="white" stroke-width="1.5" d="M0,-3.0v7 M-2.5,-0.5L0,-3.0L2.5,-0.5"/>
                </g>
                <g id="arrowRight" xlink:href="#dirArrow" transform="rotate(90) translate(36 -43)" onmousedown="handlePan(1,0)">
                  <use xlink:href="#rim" fill="#404040">
                        <set attributeName="fill" to="#808080" begin="arrowRight.mouseover" end="arrowRight.mouseout"/>
                  </use>
                  <path fill="none" stroke="white" stroke-width="1.5" d="M0,-3.0v7 M-2.5,-0.5L0,-3.0L2.5,-0.5"/>
                </g>
                <g id="arrowDown" xlink:href="#dirArrow" transform="rotate(180) translate(-30 -48)" onmousedown="handlePan(0,1)">
                  <use xlink:href="#rim" fill="#404040">
                        <set attributeName="fill" to="#808080" begin="arrowDown.mouseover" end="arrowDown.mouseout"/>
                  </use>
                  <path fill="none" stroke="white" stroke-width="1.5" d="M0,-3.0v7 M-2.5,-0.5L0,-3.0L2.5,-0.5"/>
                </g>
                <g id="arrowLeft" xlink:href="#dirArrow" transform="rotate(270) translate(-36 17)" onmousedown="handlePan(-1,0)">
                  <use xlink:href="#rim" fill="#404040">
                        <set attributeName="fill" to="#808080" begin="arrowLeft.mouseover" end="arrowLeft.mouseout"/>
                  </use>
                  <path fill="none" stroke="white" stroke-width="1.5" d="M0,-3.0v7 M-2.5,-0.5L0,-3.0L2.5,-0.5"/>
                </g>
        </g>
        <svg viewBox="0 0 15 15" width="100%" height="30px" preserveAspectRatio="xMaxYMin meet">
         <g id="arrow_out" transform="scale(0.3 0.3)">
          <a xlink:href="structmystl_1_1is__output__iterator__coll__graph_org.svg" target="_base">
           <rect id="button" ry="5" rx="5" y="6" x="6" height="38" width="38"
                fill="#f2f5e9" fill-opacity="0.5" stroke="#606060" stroke-width="1.0"/>
           <path id="arrow"
             d="M 11.500037,31.436501 C 11.940474,20.09759 22.043105,11.32322 32.158766,21.979434 L 37.068811,17.246167 C 37.068811,17.246167 37.088388,32 37.088388,32 L 22.160133,31.978069 C 22.160133,31.978069 26.997745,27.140456 26.997745,27.140456 C 18.528582,18.264221 13.291696,25.230495 11.500037,31.436501 z"
             style="fill:#404040;"/>
          </a>
         </g>
        </svg>
</svg>
