<?xml version="1.0" encoding="UTF-8" standalone="no"?>
<!DOCTYPE svg PUBLIC "-//W3C//DTD SVG 1.1//EN"
 "http://www.w3.org/Graphics/SVG/1.1/DTD/svg11.dtd">
<!-- Generated by graphviz version 2.40.1 (20161225.0304)
 -->
<!-- Title: TrilinosWrappers::PreconditionILUT::AdditionalData Pages: 1 -->
<svg width="158pt" height="204pt"
 viewBox="0.00 0.00 158.00 204.00" xmlns="http://www.w3.org/2000/svg" xmlns:xlink="http://www.w3.org/1999/xlink">
<g id="graph0" class="graph" transform="scale(1 1) rotate(0) translate(4 200)">
<title>TrilinosWrappers::PreconditionILUT::AdditionalData</title>
<polygon fill="#ffffff" stroke="transparent" points="-4,4 -4,-200 154,-200 154,4 -4,4"/>
<!-- Node1 -->
<g id="node1" class="node">
<title>Node1</title>
<polygon fill="#bfbfbf" stroke="#000000" points="0,-.5 0,-68.5 150,-68.5 150,-.5 0,-.5"/>
<text text-anchor="start" x="8" y="-56.5" font-family="Helvetica,sans-Serif" font-size="10.00" fill="#000000">TrilinosWrappers::Precondition</text>
<text text-anchor="middle" x="75" y="-45.5" font-family="Helvetica,sans-Serif" font-size="10.00" fill="#000000">ILUT::AdditionalData</text>
<polyline fill="none" stroke="#000000" points="0,-38.5 150,-38.5 "/>
<text text-anchor="middle" x="75" y="-26.5" font-family="Helvetica,sans-Serif" font-size="10.00" fill="#000000"> </text>
<polyline fill="none" stroke="#000000" points="0,-19.5 150,-19.5 "/>
<text text-anchor="start" x="8" y="-7.5" font-family="Helvetica,sans-Serif" font-size="10.00" fill="#000000">+ AdditionalData()</text>
</g>
<!-- Node2 -->
<g id="node2" class="node">
<title>Node2</title>
<g id="a_node2"><a xlink:href="classdouble.html" target="_top" xlink:title="{double\n||}">
<polygon fill="#ffffff" stroke="#000000" points="18.5,-138.5 18.5,-195.5 63.5,-195.5 63.5,-138.5 18.5,-138.5"/>
<text text-anchor="middle" x="41" y="-183.5" font-family="Helvetica,sans-Serif" font-size="10.00" fill="#000000">double</text>
<polyline fill="none" stroke="#000000" points="18.5,-176.5 63.5,-176.5 "/>
<text text-anchor="middle" x="41" y="-164.5" font-family="Helvetica,sans-Serif" font-size="10.00" fill="#000000"> </text>
<polyline fill="none" stroke="#000000" points="18.5,-157.5 63.5,-157.5 "/>
<text text-anchor="middle" x="41" y="-145.5" font-family="Helvetica,sans-Serif" font-size="10.00" fill="#000000"> </text>
</a>
</g>
</g>
<!-- Node2&#45;&gt;Node1 -->
<g id="edge1" class="edge">
<title>Node2&#45;&gt;Node1</title>
<path fill="none" stroke="#404040" d="M37.6369,-138.302C36.7403,-122.8057 37.1272,-103.5199 42,-87 42.7548,-84.4411 43.6727,-81.8857 44.715,-79.3571"/>
<polygon fill="none" stroke="#404040" points="44.7349,-79.3159 43.7479,-72.1726 49.9621,-68.5141 50.949,-75.6574 44.7349,-79.3159"/>
<text text-anchor="middle" x="65" y="-112" font-family="Helvetica,sans-Serif" font-size="10.00" fill="#000000"> +ilut_drop</text>
<text text-anchor="middle" x="65" y="-101" font-family="Helvetica,sans-Serif" font-size="10.00" fill="#000000">+ilut_rtol</text>
<text text-anchor="middle" x="65" y="-90" font-family="Helvetica,sans-Serif" font-size="10.00" fill="#000000">+ilut_atol</text>
</g>
<!-- Node3 -->
<g id="node3" class="node">
<title>Node3</title>
<polygon fill="#ffffff" stroke="#bfbfbf" points="82,-138.5 82,-195.5 138,-195.5 138,-138.5 82,-138.5"/>
<text text-anchor="middle" x="110" y="-183.5" font-family="Helvetica,sans-Serif" font-size="10.00" fill="#000000">unsigned</text>
<polyline fill="none" stroke="#bfbfbf" points="82,-176.5 138,-176.5 "/>
<text text-anchor="middle" x="110" y="-164.5" font-family="Helvetica,sans-Serif" font-size="10.00" fill="#000000"> </text>
<polyline fill="none" stroke="#bfbfbf" points="82,-157.5 138,-157.5 "/>
<text text-anchor="middle" x="110" y="-145.5" font-family="Helvetica,sans-Serif" font-size="10.00" fill="#000000"> </text>
</g>
<!-- Node3&#45;&gt;Node1 -->
<g id="edge2" class="edge">
<title>Node3&#45;&gt;Node1</title>
<path fill="none" stroke="#404040" d="M102.4055,-138.2495C97.9645,-121.4371 92.2545,-99.8205 87.197,-80.6743"/>
<polygon fill="none" stroke="#404040" points="87.1336,-80.4341 81.7339,-75.6547 84.0689,-68.8321 89.4686,-73.6115 87.1336,-80.4341"/>
<text text-anchor="middle" x="115" y="-106.5" font-family="Helvetica,sans-Serif" font-size="10.00" fill="#000000"> +ilut_fill</text>
<text text-anchor="middle" x="115" y="-95.5" font-family="Helvetica,sans-Serif" font-size="10.00" fill="#000000">+overlap</text>
</g>
</g>
</svg>
