<?xml version="1.0" encoding="UTF-8" standalone="no"?>
<!DOCTYPE svg PUBLIC "-//W3C//DTD SVG 1.1//EN"
 "http://www.w3.org/Graphics/SVG/1.1/DTD/svg11.dtd">
<!-- Generated by graphviz version 2.40.1 (20161225.0304)
 -->
<!-- Title: Patterns::Tools::internal::RankInfo&lt; Point&lt; dim, Number &gt; &gt; Pages: 1 -->
<svg width="270pt" height="437pt"
 viewBox="0.00 0.00 270.00 437.00" xmlns="http://www.w3.org/2000/svg" xmlns:xlink="http://www.w3.org/1999/xlink">
<g id="graph0" class="graph" transform="scale(1 1) rotate(0) translate(4 433)">
<title>Patterns::Tools::internal::RankInfo&lt; Point&lt; dim, Number &gt; &gt;</title>
<polygon fill="#ffffff" stroke="transparent" points="-4,4 -4,-433 266,-433 266,4 -4,4"/>
<!-- Node3 -->
<g id="node1" class="node">
<title>Node3</title>
<polygon fill="#bfbfbf" stroke="#000000" points="0,-.5 0,-79.5 122,-79.5 122,-.5 0,-.5"/>
<text text-anchor="start" x="8" y="-67.5" font-family="Helvetica,sans-Serif" font-size="10.00" fill="#000000">Patterns::Tools::internal</text>
<text text-anchor="start" x="8" y="-56.5" font-family="Helvetica,sans-Serif" font-size="10.00" fill="#000000">::RankInfo&lt; Point&lt; dim,</text>
<text text-anchor="middle" x="61" y="-45.5" font-family="Helvetica,sans-Serif" font-size="10.00" fill="#000000"> Number &gt; &gt;</text>
<polyline fill="none" stroke="#000000" points="0,-38.5 122,-38.5 "/>
<text text-anchor="middle" x="61" y="-26.5" font-family="Helvetica,sans-Serif" font-size="10.00" fill="#000000"> </text>
<polyline fill="none" stroke="#000000" points="0,-19.5 122,-19.5 "/>
<text text-anchor="middle" x="61" y="-7.5" font-family="Helvetica,sans-Serif" font-size="10.00" fill="#000000"> </text>
</g>
<!-- Node4 -->
<g id="node2" class="node">
<title>Node4</title>
<g id="a_node2"><a xlink:href="structPatterns_1_1Tools_1_1internal_1_1RankInfo.html" target="_top" xlink:title="{Patterns::Tools::internal\l::RankInfo\&lt; Tensor\&lt; 1,\l dim, Number \&gt; \&gt;\n||}">
<polygon fill="#ffffff" stroke="#000000" points=".5,-117.5 .5,-196.5 121.5,-196.5 121.5,-117.5 .5,-117.5"/>
<text text-anchor="start" x="8.5" y="-184.5" font-family="Helvetica,sans-Serif" font-size="10.00" fill="#000000">Patterns::Tools::internal</text>
<text text-anchor="start" x="8.5" y="-173.5" font-family="Helvetica,sans-Serif" font-size="10.00" fill="#000000">::RankInfo&lt; Tensor&lt; 1,</text>
<text text-anchor="middle" x="61" y="-162.5" font-family="Helvetica,sans-Serif" font-size="10.00" fill="#000000"> dim, Number &gt; &gt;</text>
<polyline fill="none" stroke="#000000" points=".5,-155.5 121.5,-155.5 "/>
<text text-anchor="middle" x="61" y="-143.5" font-family="Helvetica,sans-Serif" font-size="10.00" fill="#000000"> </text>
<polyline fill="none" stroke="#000000" points=".5,-136.5 121.5,-136.5 "/>
<text text-anchor="middle" x="61" y="-124.5" font-family="Helvetica,sans-Serif" font-size="10.00" fill="#000000"> </text>
</a>
</g>
</g>
<!-- Node4&#45;&gt;Node3 -->
<g id="edge1" class="edge">
<title>Node4&#45;&gt;Node3</title>
<path fill="none" stroke="#191970" d="M61,-107.1578C61,-97.9409 61,-88.4308 61,-79.5701"/>
<polygon fill="none" stroke="#191970" points="57.5001,-107.3891 61,-117.3891 64.5001,-107.3892 57.5001,-107.3891"/>
</g>
<!-- Node5 -->
<g id="node3" class="node">
<title>Node5</title>
<g id="a_node3"><a xlink:href="classint.html" target="_top" xlink:title="{int\n||}">
<polygon fill="#ffffff" stroke="#000000" points="46.5,-371.5 46.5,-428.5 75.5,-428.5 75.5,-371.5 46.5,-371.5"/>
<text text-anchor="middle" x="61" y="-416.5" font-family="Helvetica,sans-Serif" font-size="10.00" fill="#000000">int</text>
<polyline fill="none" stroke="#000000" points="46.5,-409.5 75.5,-409.5 "/>
<text text-anchor="middle" x="61" y="-397.5" font-family="Helvetica,sans-Serif" font-size="10.00" fill="#000000"> </text>
<polyline fill="none" stroke="#000000" points="46.5,-390.5 75.5,-390.5 "/>
<text text-anchor="middle" x="61" y="-378.5" font-family="Helvetica,sans-Serif" font-size="10.00" fill="#000000"> </text>
</a>
</g>
</g>
<!-- Node5&#45;&gt;Node4 -->
<g id="edge2" class="edge">
<title>Node5&#45;&gt;Node4</title>
<path fill="none" stroke="#404040" d="M58.1202,-371.4305C56.5558,-354.4702 54.7845,-332.5316 54,-313 52.7693,-282.358 52.7693,-274.642 54,-244 54.4555,-232.6586 55.2438,-220.5057 56.1311,-208.9871"/>
<polygon fill="none" stroke="#404040" points="56.149,-208.7661 52.6485,-202.4616 57.1217,-196.8056 60.6221,-203.1101 56.149,-208.7661"/>
<text text-anchor="middle" x="80" y="-281.5" font-family="Helvetica,sans-Serif" font-size="10.00" fill="#000000"> +map_rank</text>
<text text-anchor="middle" x="80" y="-270.5" font-family="Helvetica,sans-Serif" font-size="10.00" fill="#000000">+list_rank</text>
</g>
<!-- Node6 -->
<g id="node4" class="node">
<title>Node6</title>
<g id="a_node4"><a xlink:href="structPatterns_1_1Tools_1_1internal_1_1RankInfo.html" target="_top" xlink:title="{Patterns::Tools::internal\l::RankInfo\&lt; T, Enable \&gt;\n||}">
<polygon fill="#ffffff" stroke="#000000" points="115,-244.5 115,-312.5 237,-312.5 237,-244.5 115,-244.5"/>
<text text-anchor="start" x="123" y="-300.5" font-family="Helvetica,sans-Serif" font-size="10.00" fill="#000000">Patterns::Tools::internal</text>
<text text-anchor="middle" x="176" y="-289.5" font-family="Helvetica,sans-Serif" font-size="10.00" fill="#000000">::RankInfo&lt; T, Enable &gt;</text>
<polyline fill="none" stroke="#000000" points="115,-282.5 237,-282.5 "/>
<text text-anchor="middle" x="176" y="-270.5" font-family="Helvetica,sans-Serif" font-size="10.00" fill="#000000"> </text>
<polyline fill="none" stroke="#000000" points="115,-263.5 237,-263.5 "/>
<text text-anchor="middle" x="176" y="-251.5" font-family="Helvetica,sans-Serif" font-size="10.00" fill="#000000"> </text>
</a>
</g>
</g>
<!-- Node5&#45;&gt;Node6 -->
<g id="edge4" class="edge">
<title>Node5&#45;&gt;Node6</title>
<path fill="none" stroke="#404040" d="M75.5648,-384.6119C90.5448,-368.7853 114.5574,-343.4154 135.3472,-321.4506"/>
<polygon fill="none" stroke="#404040" points="135.4757,-321.3148 136.6951,-314.2075 143.7247,-312.5996 142.5053,-319.7069 135.4757,-321.3148"/>
<text text-anchor="middle" x="151" y="-345" font-family="Helvetica,sans-Serif" font-size="10.00" fill="#000000"> +map_rank</text>
<text text-anchor="middle" x="151" y="-334" font-family="Helvetica,sans-Serif" font-size="10.00" fill="#000000">+list_rank</text>
</g>
<!-- Node6&#45;&gt;Node4 -->
<g id="edge3" class="edge">
<title>Node6&#45;&gt;Node4</title>
<path fill="none" stroke="#ffa500" d="M136.614,-236.8878C124.3748,-223.9569 110.9161,-209.7375 98.7884,-196.9243"/>
<polygon fill="#ffa500" stroke="#ffa500" points="134.2439,-239.4754 143.6601,-244.3321 139.3278,-234.6635 134.2439,-239.4754"/>
<text text-anchor="middle" x="193.5" y="-218" font-family="Helvetica,sans-Serif" font-size="10.00" fill="#000000"> &lt; Tensor&lt; 1, dim, Number &gt; &gt;</text>
</g>
</g>
</svg>
