<?xml version="1.0" encoding="UTF-8" standalone="no"?>
<!DOCTYPE svg PUBLIC "-//W3C//DTD SVG 1.1//EN"
 "http://www.w3.org/Graphics/SVG/1.1/DTD/svg11.dtd">
<!-- Generated by graphviz version 2.40.1 (20161225.0304)
 -->
<!-- Title: mystl::rb_tree_const_iterator&lt; T &gt; Pages: 1 -->
<svg width="166pt" height="592pt"
 viewBox="0.00 0.00 166.00 592.00" xmlns="http://www.w3.org/2000/svg" xmlns:xlink="http://www.w3.org/1999/xlink">
<g id="graph0" class="graph" transform="scale(1 1) rotate(0) translate(4 588)">
<title>mystl::rb_tree_const_iterator&lt; T &gt;</title>
<polygon fill="#ffffff" stroke="transparent" points="-4,4 -4,-588 162,-588 162,4 -4,4"/>
<!-- Node0 -->
<g id="node1" class="node">
<title>Node0</title>
<polygon fill="#bfbfbf" stroke="#000000" points="1,-.5 1,-178.5 127,-178.5 127,-.5 1,-.5"/>
<text text-anchor="start" x="9" y="-166.5" font-family="Helvetica,sans-Serif" font-size="10.00" fill="#000000">mystl::rb_tree_const</text>
<text text-anchor="middle" x="64" y="-155.5" font-family="Helvetica,sans-Serif" font-size="10.00" fill="#000000">_iterator&lt; T &gt;</text>
<polyline fill="none" stroke="#000000" points="1,-148.5 127,-148.5 "/>
<text text-anchor="middle" x="64" y="-136.5" font-family="Helvetica,sans-Serif" font-size="10.00" fill="#000000"> </text>
<polyline fill="none" stroke="#000000" points="1,-129.5 127,-129.5 "/>
<text text-anchor="start" x="9" y="-117.5" font-family="Helvetica,sans-Serif" font-size="10.00" fill="#000000">+ rb_tree_const_iterator()</text>
<text text-anchor="start" x="9" y="-106.5" font-family="Helvetica,sans-Serif" font-size="10.00" fill="#000000">+ rb_tree_const_iterator()</text>
<text text-anchor="start" x="9" y="-95.5" font-family="Helvetica,sans-Serif" font-size="10.00" fill="#000000">+ rb_tree_const_iterator()</text>
<text text-anchor="start" x="9" y="-84.5" font-family="Helvetica,sans-Serif" font-size="10.00" fill="#000000">+ rb_tree_const_iterator()</text>
<text text-anchor="start" x="9" y="-73.5" font-family="Helvetica,sans-Serif" font-size="10.00" fill="#000000">+ rb_tree_const_iterator()</text>
<text text-anchor="start" x="9" y="-62.5" font-family="Helvetica,sans-Serif" font-size="10.00" fill="#000000">+ operator*()</text>
<text text-anchor="start" x="9" y="-51.5" font-family="Helvetica,sans-Serif" font-size="10.00" fill="#000000">+ operator&#45;&gt;()</text>
<text text-anchor="start" x="9" y="-40.5" font-family="Helvetica,sans-Serif" font-size="10.00" fill="#000000">+ operator++()</text>
<text text-anchor="start" x="9" y="-29.5" font-family="Helvetica,sans-Serif" font-size="10.00" fill="#000000">+ operator++()</text>
<text text-anchor="start" x="9" y="-18.5" font-family="Helvetica,sans-Serif" font-size="10.00" fill="#000000">+ operator&#45;&#45;()</text>
<text text-anchor="start" x="9" y="-7.5" font-family="Helvetica,sans-Serif" font-size="10.00" fill="#000000">+ operator&#45;&#45;()</text>
</g>
<!-- Node1 -->
<g id="node2" class="node">
<title>Node1</title>
<g id="a_node2"><a xlink:href="structmystl_1_1rb__tree__iterator__base.html" target="_top" xlink:title="{mystl::rb_tree_iterator\l_base\&lt; T \&gt;\n|+ node\l|+ rb_tree_iterator_base()\l+ inc()\l+ dec()\l+ operator==()\l+ operator!=()\l}">
<polygon fill="#ffffff" stroke="#000000" points="2.5,-216.5 2.5,-328.5 125.5,-328.5 125.5,-216.5 2.5,-216.5"/>
<text text-anchor="start" x="10.5" y="-316.5" font-family="Helvetica,sans-Serif" font-size="10.00" fill="#000000">mystl::rb_tree_iterator</text>
<text text-anchor="middle" x="64" y="-305.5" font-family="Helvetica,sans-Serif" font-size="10.00" fill="#000000">_base&lt; T &gt;</text>
<polyline fill="none" stroke="#000000" points="2.5,-298.5 125.5,-298.5 "/>
<text text-anchor="start" x="10.5" y="-286.5" font-family="Helvetica,sans-Serif" font-size="10.00" fill="#000000">+ node</text>
<polyline fill="none" stroke="#000000" points="2.5,-279.5 125.5,-279.5 "/>
<text text-anchor="start" x="10.5" y="-267.5" font-family="Helvetica,sans-Serif" font-size="10.00" fill="#000000">+ rb_tree_iterator_base()</text>
<text text-anchor="start" x="10.5" y="-256.5" font-family="Helvetica,sans-Serif" font-size="10.00" fill="#000000">+ inc()</text>
<text text-anchor="start" x="10.5" y="-245.5" font-family="Helvetica,sans-Serif" font-size="10.00" fill="#000000">+ dec()</text>
<text text-anchor="start" x="10.5" y="-234.5" font-family="Helvetica,sans-Serif" font-size="10.00" fill="#000000">+ operator==()</text>
<text text-anchor="start" x="10.5" y="-223.5" font-family="Helvetica,sans-Serif" font-size="10.00" fill="#000000">+ operator!=()</text>
</a>
</g>
</g>
<!-- Node1&#45;&gt;Node0 -->
<g id="edge1" class="edge">
<title>Node1&#45;&gt;Node0</title>
<path fill="none" stroke="#191970" d="M64,-205.8895C64,-197.0408 64,-187.8559 64,-178.7018"/>
<polygon fill="none" stroke="#191970" points="60.5001,-206.1007 64,-216.1007 67.5001,-206.1008 60.5001,-206.1007"/>
</g>
<!-- Node2 -->
<g id="node3" class="node">
<title>Node2</title>
<g id="a_node3"><a xlink:href="structmystl_1_1iterator.html" target="_top" xlink:title="{mystl::iterator\&lt; mystl\l::bidirectional_iterator\l_tag, T \&gt;\n||}">
<polygon fill="#ffffff" stroke="#000000" points="9,-366.5 9,-445.5 119,-445.5 119,-366.5 9,-366.5"/>
<text text-anchor="start" x="17" y="-433.5" font-family="Helvetica,sans-Serif" font-size="10.00" fill="#000000">mystl::iterator&lt; mystl</text>
<text text-anchor="start" x="17" y="-422.5" font-family="Helvetica,sans-Serif" font-size="10.00" fill="#000000">::bidirectional_iterator</text>
<text text-anchor="middle" x="64" y="-411.5" font-family="Helvetica,sans-Serif" font-size="10.00" fill="#000000">_tag, T &gt;</text>
<polyline fill="none" stroke="#000000" points="9,-404.5 119,-404.5 "/>
<text text-anchor="middle" x="64" y="-392.5" font-family="Helvetica,sans-Serif" font-size="10.00" fill="#000000"> </text>
<polyline fill="none" stroke="#000000" points="9,-385.5 119,-385.5 "/>
<text text-anchor="middle" x="64" y="-373.5" font-family="Helvetica,sans-Serif" font-size="10.00" fill="#000000"> </text>
</a>
</g>
</g>
<!-- Node2&#45;&gt;Node1 -->
<g id="edge2" class="edge">
<title>Node2&#45;&gt;Node1</title>
<path fill="none" stroke="#191970" d="M64,-356.038C64,-347.0858 64,-337.7027 64,-328.5916"/>
<polygon fill="none" stroke="#191970" points="60.5001,-356.307 64,-366.307 67.5001,-356.3071 60.5001,-356.307"/>
</g>
<!-- Node3 -->
<g id="node4" class="node">
<title>Node3</title>
<g id="a_node4"><a xlink:href="structmystl_1_1iterator.html" target="_top" xlink:title="{mystl::iterator\&lt; Category,\l T, Distance, Pointer,\l Reference \&gt;\n||}">
<polygon fill="#ffffff" stroke="#000000" points="0,-504.5 0,-583.5 128,-583.5 128,-504.5 0,-504.5"/>
<text text-anchor="start" x="8" y="-571.5" font-family="Helvetica,sans-Serif" font-size="10.00" fill="#000000">mystl::iterator&lt; Category,</text>
<text text-anchor="start" x="8" y="-560.5" font-family="Helvetica,sans-Serif" font-size="10.00" fill="#000000"> T, Distance, Pointer,</text>
<text text-anchor="middle" x="64" y="-549.5" font-family="Helvetica,sans-Serif" font-size="10.00" fill="#000000"> Reference &gt;</text>
<polyline fill="none" stroke="#000000" points="0,-542.5 128,-542.5 "/>
<text text-anchor="middle" x="64" y="-530.5" font-family="Helvetica,sans-Serif" font-size="10.00" fill="#000000"> </text>
<polyline fill="none" stroke="#000000" points="0,-523.5 128,-523.5 "/>
<text text-anchor="middle" x="64" y="-511.5" font-family="Helvetica,sans-Serif" font-size="10.00" fill="#000000"> </text>
</a>
</g>
</g>
<!-- Node3&#45;&gt;Node2 -->
<g id="edge3" class="edge">
<title>Node3&#45;&gt;Node2</title>
<path fill="none" stroke="#ffa500" d="M64,-494.1982C64,-478.2016 64,-460.7093 64,-445.551"/>
<polygon fill="#ffa500" stroke="#ffa500" points="60.5001,-494.4547 64,-504.4547 67.5001,-494.4548 60.5001,-494.4547"/>
<text text-anchor="start" x="64" y="-478" font-family="Helvetica,sans-Serif" font-size="10.00" fill="#000000"> &lt; mystl::bidirectional</text>
<text text-anchor="middle" x="111" y="-467" font-family="Helvetica,sans-Serif" font-size="10.00" fill="#000000">_iterator_tag, T &gt;</text>
</g>
</g>
</svg>
