<?xml version="1.0" encoding="UTF-8" standalone="no"?>
<!DOCTYPE svg PUBLIC "-//W3C//DTD SVG 1.1//EN"
 "http://www.w3.org/Graphics/SVG/1.1/DTD/svg11.dtd">
<!-- Generated by graphviz version 2.40.1 (20161225.0304)
 -->
<!-- Title: internal::EvaluatorSelector&lt; MatrixFreeFunctions::tensor_symmetric, false &gt; Pages: 1 -->
<svg width="156pt" height="193pt"
 viewBox="0.00 0.00 156.00 193.00" xmlns="http://www.w3.org/2000/svg" xmlns:xlink="http://www.w3.org/1999/xlink">
<g id="graph0" class="graph" transform="scale(1 1) rotate(0) translate(4 189)">
<title>internal::EvaluatorSelector&lt; MatrixFreeFunctions::tensor_symmetric, false &gt;</title>
<polygon fill="#ffffff" stroke="transparent" points="-4,4 -4,-189 152,-189 152,4 -4,4"/>
<!-- Node1 -->
<g id="node1" class="node">
<title>Node1</title>
<polygon fill="#bfbfbf" stroke="#000000" points="0,-.5 0,-79.5 148,-79.5 148,-.5 0,-.5"/>
<text text-anchor="start" x="8" y="-67.5" font-family="Helvetica,sans-Serif" font-size="10.00" fill="#000000">internal::EvaluatorSelector</text>
<text text-anchor="start" x="8" y="-56.5" font-family="Helvetica,sans-Serif" font-size="10.00" fill="#000000">&lt; MatrixFreeFunctions::tensor</text>
<text text-anchor="middle" x="74" y="-45.5" font-family="Helvetica,sans-Serif" font-size="10.00" fill="#000000">_symmetric, false &gt;</text>
<polyline fill="none" stroke="#000000" points="0,-38.5 148,-38.5 "/>
<text text-anchor="middle" x="74" y="-26.5" font-family="Helvetica,sans-Serif" font-size="10.00" fill="#000000"> </text>
<polyline fill="none" stroke="#000000" points="0,-19.5 148,-19.5 "/>
<text text-anchor="middle" x="74" y="-7.5" font-family="Helvetica,sans-Serif" font-size="10.00" fill="#000000"> </text>
</g>
<!-- Node2 -->
<g id="node2" class="node">
<title>Node2</title>
<polygon fill="#ffffff" stroke="#bfbfbf" points="2.5,-127.5 2.5,-184.5 145.5,-184.5 145.5,-127.5 2.5,-127.5"/>
<text text-anchor="middle" x="74" y="-172.5" font-family="Helvetica,sans-Serif" font-size="10.00" fill="#000000">static const EvaluatorVariant</text>
<polyline fill="none" stroke="#bfbfbf" points="2.5,-165.5 145.5,-165.5 "/>
<text text-anchor="middle" x="74" y="-153.5" font-family="Helvetica,sans-Serif" font-size="10.00" fill="#000000"> </text>
<polyline fill="none" stroke="#bfbfbf" points="2.5,-146.5 145.5,-146.5 "/>
<text text-anchor="middle" x="74" y="-134.5" font-family="Helvetica,sans-Serif" font-size="10.00" fill="#000000"> </text>
</g>
<!-- Node2&#45;&gt;Node1 -->
<g id="edge1" class="edge">
<title>Node2&#45;&gt;Node1</title>
<path fill="none" stroke="#404040" d="M74,-127.3258C74,-116.5576 74,-103.9593 74,-91.7364"/>
<polygon fill="none" stroke="#404040" points="74.0001,-91.7203 70,-85.7203 74,-79.7203 78,-85.7203 74.0001,-91.7203"/>
<text text-anchor="middle" x="93.5" y="-101" font-family="Helvetica,sans-Serif" font-size="10.00" fill="#000000"> +variant</text>
</g>
</g>
</svg>
