<?xml version="1.0" encoding="UTF-8" standalone="no"?>
<!DOCTYPE svg PUBLIC "-//W3C//DTD SVG 1.1//EN"
 "http://www.w3.org/Graphics/SVG/1.1/DTD/svg11.dtd">
<!-- Generated by graphviz version 2.40.1 (20161225.0304)
 -->
<!-- Title: parallel::TriangulationBase&lt; dim, spacedim &gt;::NumberCache Pages: 1 -->
<!--zoomable 480 -->
<svg id="main" version="1.1" xmlns="http://www.w3.org/2000/svg" xmlns:xlink="http://www.w3.org/1999/xlink" xml:space="preserve" onload="init(evt)">
<style type="text/css"><![CDATA[
.edge:hover path { stroke: red; }
.edge:hover polygon { stroke: red; fill: red; }
]]></style>
<script type="text/javascript"><![CDATA[
var edges = document.getElementsByTagName('g');
if (edges && edges.length) {
  for (var i=0;i<edges.length;i++) {
    if (edges[i].id.substr(0,4)=='edge') {
      edges[i].setAttribute('class','edge');
    }
  }
}
]]></script>
        <defs>
                <circle id="rim" cx="0" cy="0" r="7"/>
                <circle id="rim2" cx="0" cy="0" r="3.5"/>
                <g id="zoomPlus">
                        <use xlink:href="#rim" fill="#404040">
                                <set attributeName="fill" to="#808080" begin="zoomplus.mouseover" end="zoomplus.mouseout"/>
                        </use>
                        <path d="M-4,0h8M0,-4v8" fill="none" stroke="white" stroke-width="1.5" pointer-events="none"/>
                </g>
                <g id="zoomMin">
                        <use xlink:href="#rim" fill="#404040">
                                <set attributeName="fill" to="#808080" begin="zoomminus.mouseover" end="zoomminus.mouseout"/>
                        </use>
                        <path d="M-4,0h8" fill="none" stroke="white" stroke-width="1.5" pointer-events="none"/>
                </g>
                <g id="dirArrow">
                        <path fill="none" stroke="white" stroke-width="1.5" d="M0,-3.0v7 M-2.5,-0.5L0,-3.0L2.5,-0.5"/>
                </g>
               <g id="resetDef">
                       <use xlink:href="#rim2" fill="#404040">
                               <set attributeName="fill" to="#808080" begin="reset.mouseover" end="reset.mouseout"/>
                       </use>
               </g>
        </defs>

<script type="text/javascript">
var viewWidth = 587;
var viewHeight = 480;
var sectionId = 'dynsection-0';
</script>
<script xlink:href="svgpan.js"/>
<svg id="graph" class="graph">
<g id="viewport">
<title>parallel::TriangulationBase&lt; dim, spacedim &gt;::NumberCache</title>
<polygon fill="#ffffff" stroke="transparent" points="-4,4 -4,-476 582.5,-476 582.5,4 -4,4"/>
<!-- Node1 -->
<g id="node1" class="node">
<title>Node1</title>
<polygon fill="#bfbfbf" stroke="#000000" points="193,-.5 193,-68.5 360,-68.5 360,-.5 193,-.5"/>
<text text-anchor="start" x="201" y="-56.5" font-family="Helvetica,sans-Serif" font-size="10.00" fill="#000000">parallel::TriangulationBase</text>
<text text-anchor="middle" x="276.5" y="-45.5" font-family="Helvetica,sans-Serif" font-size="10.00" fill="#000000">&lt; dim, spacedim &gt;::NumberCache</text>
<polyline fill="none" stroke="#000000" points="193,-38.5 360,-38.5 "/>
<text text-anchor="middle" x="276.5" y="-26.5" font-family="Helvetica,sans-Serif" font-size="10.00" fill="#000000"> </text>
<polyline fill="none" stroke="#000000" points="193,-19.5 360,-19.5 "/>
<text text-anchor="start" x="201" y="-7.5" font-family="Helvetica,sans-Serif" font-size="10.00" fill="#000000">+ NumberCache()</text>
</g>
<!-- Node2 -->
<g id="node2" class="node">
<title>Node2</title>
<polygon fill="#ffffff" stroke="#bfbfbf" points="0,-298.5 0,-366.5 131,-366.5 131,-298.5 0,-298.5"/>
<text text-anchor="start" x="8" y="-354.5" font-family="Helvetica,sans-Serif" font-size="10.00" fill="#000000">shared_ptr&lt; const Utilities</text>
<text text-anchor="middle" x="65.5" y="-343.5" font-family="Helvetica,sans-Serif" font-size="10.00" fill="#000000">::MPI::Partitioner &gt;</text>
<polyline fill="none" stroke="#bfbfbf" points="0,-336.5 131,-336.5 "/>
<text text-anchor="middle" x="65.5" y="-324.5" font-family="Helvetica,sans-Serif" font-size="10.00" fill="#000000"> </text>
<polyline fill="none" stroke="#bfbfbf" points="0,-317.5 131,-317.5 "/>
<text text-anchor="middle" x="65.5" y="-305.5" font-family="Helvetica,sans-Serif" font-size="10.00" fill="#000000"> </text>
</g>
<!-- Node2&#45;&gt;Node1 -->
<g id="edge1" class="edge">
<title>Node2&#45;&gt;Node1</title>
<path fill="none" stroke="#404040" d="M53.0792,-298.2473C41.1887,-259.1358 28.7822,-194.673 56.5,-149 83.8443,-103.9424 135.3378,-75.7955 181.6347,-58.689"/>
<polygon fill="none" stroke="#404040" points="181.6517,-58.6831 185.9734,-52.9104 192.9642,-54.6795 188.6425,-60.4521 181.6517,-58.6831"/>
<text text-anchor="start" x="56.5" y="-192" font-family="Helvetica,sans-Serif" font-size="10.00" fill="#000000"> +active_cell_index</text>
<text text-anchor="middle" x="99" y="-181" font-family="Helvetica,sans-Serif" font-size="10.00" fill="#000000">_partitioner</text>
</g>
<!-- Node3 -->
<g id="node3" class="node">
<title>Node3</title>
<polygon fill="#ffffff" stroke="#bfbfbf" points="150,-149.5 150,-228.5 271,-228.5 271,-149.5 150,-149.5"/>
<text text-anchor="start" x="158" y="-216.5" font-family="Helvetica,sans-Serif" font-size="10.00" fill="#000000">std::vector&lt; std::shared</text>
<text text-anchor="start" x="158" y="-205.5" font-family="Helvetica,sans-Serif" font-size="10.00" fill="#000000">_ptr&lt; const Utilities::</text>
<text text-anchor="middle" x="210.5" y="-194.5" font-family="Helvetica,sans-Serif" font-size="10.00" fill="#000000">MPI::Partitioner &gt; &gt;</text>
<polyline fill="none" stroke="#bfbfbf" points="150,-187.5 271,-187.5 "/>
<text text-anchor="middle" x="210.5" y="-175.5" font-family="Helvetica,sans-Serif" font-size="10.00" fill="#000000"> </text>
<polyline fill="none" stroke="#bfbfbf" points="150,-168.5 271,-168.5 "/>
<text text-anchor="middle" x="210.5" y="-156.5" font-family="Helvetica,sans-Serif" font-size="10.00" fill="#000000"> </text>
</g>
<!-- Node2&#45;&gt;Node3 -->
<g id="edge3" class="edge">
<title>Node2&#45;&gt;Node3</title>
<path fill="none" stroke="#404040" d="M99.863,-298.4925C118.3197,-280.2267 141.3862,-257.3988 161.6744,-237.3205"/>
<polygon fill="none" stroke="#404040" points="161.9454,-237.0523 163.3964,-229.9886 170.4748,-228.6112 169.0238,-235.6748 161.9454,-237.0523"/>
<text text-anchor="middle" x="176" y="-261" font-family="Helvetica,sans-Serif" font-size="10.00" fill="#000000"> +elements</text>
</g>
<!-- Node3&#45;&gt;Node1 -->
<g id="edge2" class="edge">
<title>Node3&#45;&gt;Node1</title>
<path fill="none" stroke="#404040" d="M196.6334,-149.234C192.1581,-129.5018 190.5807,-105.908 200.5,-87 202.2321,-83.6983 204.2765,-80.5632 206.5621,-77.5919"/>
<polygon fill="none" stroke="#404040" points="206.5733,-77.5794 207.6098,-70.4431 214.5958,-68.6552 213.5592,-75.7915 206.5733,-77.5794"/>
<text text-anchor="middle" x="266.5" y="-106.5" font-family="Helvetica,sans-Serif" font-size="10.00" fill="#000000"> +level_cell_index_partitioners</text>
</g>
<!-- Node4 -->
<g id="node4" class="node">
<title>Node4</title>
<g id="a_node4"><a xlink:title="STL class. ">
<polygon fill="#ffffff" stroke="#bfbfbf" points="167,-304 167,-361 254,-361 254,-304 167,-304"/>
<text text-anchor="middle" x="210.5" y="-349" font-family="Helvetica,sans-Serif" font-size="10.00" fill="#000000">std::vector&lt; T &gt;</text>
<polyline fill="none" stroke="#bfbfbf" points="167,-342 254,-342 "/>
<text text-anchor="middle" x="210.5" y="-330" font-family="Helvetica,sans-Serif" font-size="10.00" fill="#000000"> </text>
<polyline fill="none" stroke="#bfbfbf" points="167,-323 254,-323 "/>
<text text-anchor="middle" x="210.5" y="-311" font-family="Helvetica,sans-Serif" font-size="10.00" fill="#000000"> </text>
</a>
</g>
</g>
<!-- Node4&#45;&gt;Node3 -->
<g id="edge4" class="edge">
<title>Node4&#45;&gt;Node3</title>
<path fill="none" stroke="#ffa500" d="M210.5,-293.6909C210.5,-273.4836 210.5,-248.8241 210.5,-228.5146"/>
<polygon fill="#ffa500" stroke="#ffa500" points="207.0001,-293.8055 210.5,-303.8055 214.0001,-293.8056 207.0001,-293.8055"/>
<text text-anchor="start" x="210.5" y="-272" font-family="Helvetica,sans-Serif" font-size="10.00" fill="#000000"> &lt; std::shared_ptr&lt;</text>
<text text-anchor="start" x="210.5" y="-261" font-family="Helvetica,sans-Serif" font-size="10.00" fill="#000000"> const Utilities::MPI</text>
<text text-anchor="middle" x="254.5" y="-250" font-family="Helvetica,sans-Serif" font-size="10.00" fill="#000000">::Partitioner &gt; &gt;</text>
</g>
<!-- Node5 -->
<g id="node5" class="node">
<title>Node5</title>
<polygon fill="#ffffff" stroke="#bfbfbf" points="196,-414.5 196,-471.5 225,-471.5 225,-414.5 196,-414.5"/>
<text text-anchor="middle" x="210.5" y="-459.5" font-family="Helvetica,sans-Serif" font-size="10.00" fill="#000000">T</text>
<polyline fill="none" stroke="#bfbfbf" points="196,-452.5 225,-452.5 "/>
<text text-anchor="middle" x="210.5" y="-440.5" font-family="Helvetica,sans-Serif" font-size="10.00" fill="#000000"> </text>
<polyline fill="none" stroke="#bfbfbf" points="196,-433.5 225,-433.5 "/>
<text text-anchor="middle" x="210.5" y="-421.5" font-family="Helvetica,sans-Serif" font-size="10.00" fill="#000000"> </text>
</g>
<!-- Node5&#45;&gt;Node4 -->
<g id="edge5" class="edge">
<title>Node5&#45;&gt;Node4</title>
<path fill="none" stroke="#404040" d="M210.5,-414.2559C210.5,-401.7224 210.5,-386.8039 210.5,-373.1631"/>
<polygon fill="none" stroke="#404040" points="210.5001,-373.1002 206.5,-367.1002 210.5,-361.1002 214.5,-367.1002 210.5001,-373.1002"/>
<text text-anchor="middle" x="235" y="-388" font-family="Helvetica,sans-Serif" font-size="10.00" fill="#000000"> +elements</text>
</g>
<!-- Node6 -->
<g id="node6" class="node">
<title>Node6</title>
<polygon fill="#ffffff" stroke="#bfbfbf" points="305.5,-155 305.5,-223 403.5,-223 403.5,-155 305.5,-155"/>
<text text-anchor="start" x="313.5" y="-211" font-family="Helvetica,sans-Serif" font-size="10.00" fill="#000000">std::set&lt; unsigned</text>
<text text-anchor="middle" x="354.5" y="-200" font-family="Helvetica,sans-Serif" font-size="10.00" fill="#000000"> int &gt;</text>
<polyline fill="none" stroke="#bfbfbf" points="305.5,-193 403.5,-193 "/>
<text text-anchor="middle" x="354.5" y="-181" font-family="Helvetica,sans-Serif" font-size="10.00" fill="#000000"> </text>
<polyline fill="none" stroke="#bfbfbf" points="305.5,-174 403.5,-174 "/>
<text text-anchor="middle" x="354.5" y="-162" font-family="Helvetica,sans-Serif" font-size="10.00" fill="#000000"> </text>
</g>
<!-- Node6&#45;&gt;Node1 -->
<g id="edge6" class="edge">
<title>Node6&#45;&gt;Node1</title>
<path fill="none" stroke="#404040" d="M352.2475,-154.5647C349.6762,-133.8781 344.1893,-107.6528 332.5,-87 330.7769,-83.9556 328.8183,-80.9835 326.6908,-78.101"/>
<polygon fill="none" stroke="#404040" points="326.5437,-77.9229 319.6388,-75.8437 318.9024,-68.6702 325.8073,-70.7494 326.5437,-77.9229"/>
<text text-anchor="middle" x="394" y="-112" font-family="Helvetica,sans-Serif" font-size="10.00" fill="#000000"> +ghost_owners</text>
<text text-anchor="middle" x="394" y="-101" font-family="Helvetica,sans-Serif" font-size="10.00" fill="#000000">+level_ghost_owners</text>
</g>
<!-- Node7 -->
<g id="node7" class="node">
<title>Node7</title>
<g id="a_node7"><a xlink:href="classint.html" target="_top" xlink:title="{int\n||}">
<polygon fill="#ffffff" stroke="#000000" points="329,-304 329,-361 358,-361 358,-304 329,-304"/>
<text text-anchor="middle" x="343.5" y="-349" font-family="Helvetica,sans-Serif" font-size="10.00" fill="#000000">int</text>
<polyline fill="none" stroke="#000000" points="329,-342 358,-342 "/>
<text text-anchor="middle" x="343.5" y="-330" font-family="Helvetica,sans-Serif" font-size="10.00" fill="#000000"> </text>
<polyline fill="none" stroke="#000000" points="329,-323 358,-323 "/>
<text text-anchor="middle" x="343.5" y="-311" font-family="Helvetica,sans-Serif" font-size="10.00" fill="#000000"> </text>
</a>
</g>
</g>
<!-- Node7&#45;&gt;Node6 -->
<g id="edge7" class="edge">
<title>Node7&#45;&gt;Node6</title>
<path fill="none" stroke="#404040" d="M345.6996,-303.8055C347.202,-284.2064 349.2257,-257.8057 350.9537,-235.2629"/>
<polygon fill="none" stroke="#404040" points="350.9608,-235.1686 347.4312,-228.8804 351.8781,-223.2037 355.4078,-229.4919 350.9608,-235.1686"/>
<text text-anchor="middle" x="365" y="-261" font-family="Helvetica,sans-Serif" font-size="10.00" fill="#000000"> +keys</text>
</g>
<!-- Node8 -->
<g id="node8" class="node">
<title>Node8</title>
<g id="a_node8"><a xlink:title="STL class. ">
<polygon fill="#ffffff" stroke="#bfbfbf" points="376.5,-304 376.5,-361 450.5,-361 450.5,-304 376.5,-304"/>
<text text-anchor="middle" x="413.5" y="-349" font-family="Helvetica,sans-Serif" font-size="10.00" fill="#000000">std::set&lt; K &gt;</text>
<polyline fill="none" stroke="#bfbfbf" points="376.5,-342 450.5,-342 "/>
<text text-anchor="middle" x="413.5" y="-330" font-family="Helvetica,sans-Serif" font-size="10.00" fill="#000000"> </text>
<polyline fill="none" stroke="#bfbfbf" points="376.5,-323 450.5,-323 "/>
<text text-anchor="middle" x="413.5" y="-311" font-family="Helvetica,sans-Serif" font-size="10.00" fill="#000000"> </text>
</a>
</g>
</g>
<!-- Node8&#45;&gt;Node6 -->
<g id="edge8" class="edge">
<title>Node8&#45;&gt;Node6</title>
<path fill="none" stroke="#ffa500" d="M401.0775,-293.8007C396.0266,-279.0008 389.8793,-262.0652 383.5,-247 380.1638,-239.1212 376.2525,-230.8086 372.4017,-223.0142"/>
<polygon fill="#ffa500" stroke="#ffa500" points="397.8861,-295.2917 404.3886,-303.6564 404.5217,-293.0624 397.8861,-295.2917"/>
<text text-anchor="middle" x="432.5" y="-261" font-family="Helvetica,sans-Serif" font-size="10.00" fill="#000000"> &lt; unsigned int &gt;</text>
</g>
<!-- Node9 -->
<g id="node9" class="node">
<title>Node9</title>
<polygon fill="#ffffff" stroke="#bfbfbf" points="399,-414.5 399,-471.5 428,-471.5 428,-414.5 399,-414.5"/>
<text text-anchor="middle" x="413.5" y="-459.5" font-family="Helvetica,sans-Serif" font-size="10.00" fill="#000000">K</text>
<polyline fill="none" stroke="#bfbfbf" points="399,-452.5 428,-452.5 "/>
<text text-anchor="middle" x="413.5" y="-440.5" font-family="Helvetica,sans-Serif" font-size="10.00" fill="#000000"> </text>
<polyline fill="none" stroke="#bfbfbf" points="399,-433.5 428,-433.5 "/>
<text text-anchor="middle" x="413.5" y="-421.5" font-family="Helvetica,sans-Serif" font-size="10.00" fill="#000000"> </text>
</g>
<!-- Node9&#45;&gt;Node8 -->
<g id="edge9" class="edge">
<title>Node9&#45;&gt;Node8</title>
<path fill="none" stroke="#404040" d="M413.5,-414.2559C413.5,-401.7224 413.5,-386.8039 413.5,-373.1631"/>
<polygon fill="none" stroke="#404040" points="413.5001,-373.1002 409.5,-367.1002 413.5,-361.1002 417.5,-367.1002 413.5001,-373.1002"/>
<text text-anchor="middle" x="429" y="-388" font-family="Helvetica,sans-Serif" font-size="10.00" fill="#000000"> +keys</text>
</g>
<!-- Node10 -->
<g id="node10" class="node">
<title>Node10</title>
<polygon fill="#ffffff" stroke="#bfbfbf" points="442.5,-160.5 442.5,-217.5 498.5,-217.5 498.5,-160.5 442.5,-160.5"/>
<text text-anchor="middle" x="470.5" y="-205.5" font-family="Helvetica,sans-Serif" font-size="10.00" fill="#000000">unsigned</text>
<polyline fill="none" stroke="#bfbfbf" points="442.5,-198.5 498.5,-198.5 "/>
<text text-anchor="middle" x="470.5" y="-186.5" font-family="Helvetica,sans-Serif" font-size="10.00" fill="#000000"> </text>
<polyline fill="none" stroke="#bfbfbf" points="442.5,-179.5 498.5,-179.5 "/>
<text text-anchor="middle" x="470.5" y="-167.5" font-family="Helvetica,sans-Serif" font-size="10.00" fill="#000000"> </text>
</g>
<!-- Node10&#45;&gt;Node1 -->
<g id="edge10" class="edge">
<title>Node10&#45;&gt;Node1</title>
<path fill="none" stroke="#404040" d="M470.4577,-160.3357C468.8907,-137.652 463.1083,-106.6275 444.5,-87 433.5461,-75.4462 403.6747,-64.5997 372.1011,-55.7991"/>
<polygon fill="none" stroke="#404040" points="372.0101,-55.7747 365.1759,-58.0754 360.4236,-52.6518 367.2578,-50.351 372.0101,-55.7747"/>
<text text-anchor="start" x="465.5" y="-123" font-family="Helvetica,sans-Serif" font-size="10.00" fill="#000000"> +n_locally_owned_active</text>
<text text-anchor="middle" x="522" y="-112" font-family="Helvetica,sans-Serif" font-size="10.00" fill="#000000">_cells</text>
<text text-anchor="middle" x="522" y="-101" font-family="Helvetica,sans-Serif" font-size="10.00" fill="#000000">+n_global_levels</text>
<text text-anchor="middle" x="522" y="-90" font-family="Helvetica,sans-Serif" font-size="10.00" fill="#000000">+n_global_active_cells</text>
</g>
</g>
</svg>
        <g id="navigator" transform="translate(0 0)" fill="#404254">
                <rect fill="#f2f5e9" fill-opacity="0.5" stroke="#606060" stroke-width=".5" x="0" y="0" width="60" height="60"/>
                <use id="zoomplus" xlink:href="#zoomPlus" x="17" y="9" onmousedown="handleZoom(evt,'in')"/>
                <use id="zoomminus" xlink:href="#zoomMin" x="42" y="9" onmousedown="handleZoom(evt,'out')"/>
                <use id="reset" xlink:href="#resetDef" x="30" y="36" onmousedown="handleReset()"/>
                <g id="arrowUp" xlink:href="#dirArrow" transform="translate(30 24)" onmousedown="handlePan(0,-1)">
                  <use xlink:href="#rim" fill="#404040">
                        <set attributeName="fill" to="#808080" begin="arrowUp.mouseover" end="arrowUp.mouseout"/>
                  </use>
                  <path fill="none" stroke="white" stroke-width="1.5" d="M0,-3.0v7 M-2.5,-0.5L0,-3.0L2.5,-0.5"/>
                </g>
                <g id="arrowRight" xlink:href="#dirArrow" transform="rotate(90) translate(36 -43)" onmousedown="handlePan(1,0)">
                  <use xlink:href="#rim" fill="#404040">
                        <set attributeName="fill" to="#808080" begin="arrowRight.mouseover" end="arrowRight.mouseout"/>
                  </use>
                  <path fill="none" stroke="white" stroke-width="1.5" d="M0,-3.0v7 M-2.5,-0.5L0,-3.0L2.5,-0.5"/>
                </g>
                <g id="arrowDown" xlink:href="#dirArrow" transform="rotate(180) translate(-30 -48)" onmousedown="handlePan(0,1)">
                  <use xlink:href="#rim" fill="#404040">
                        <set attributeName="fill" to="#808080" begin="arrowDown.mouseover" end="arrowDown.mouseout"/>
                  </use>
                  <path fill="none" stroke="white" stroke-width="1.5" d="M0,-3.0v7 M-2.5,-0.5L0,-3.0L2.5,-0.5"/>
                </g>
                <g id="arrowLeft" xlink:href="#dirArrow" transform="rotate(270) translate(-36 17)" onmousedown="handlePan(-1,0)">
                  <use xlink:href="#rim" fill="#404040">
                        <set attributeName="fill" to="#808080" begin="arrowLeft.mouseover" end="arrowLeft.mouseout"/>
                  </use>
                  <path fill="none" stroke="white" stroke-width="1.5" d="M0,-3.0v7 M-2.5,-0.5L0,-3.0L2.5,-0.5"/>
                </g>
        </g>
        <svg viewBox="0 0 15 15" width="100%" height="30px" preserveAspectRatio="xMaxYMin meet">
         <g id="arrow_out" transform="scale(0.3 0.3)">
          <a xlink:href="structparallel_1_1TriangulationBase_1_1NumberCache__coll__graph_org.svg" target="_base">
           <rect id="button" ry="5" rx="5" y="6" x="6" height="38" width="38"
                fill="#f2f5e9" fill-opacity="0.5" stroke="#606060" stroke-width="1.0"/>
           <path id="arrow"
             d="M 11.500037,31.436501 C 11.940474,20.09759 22.043105,11.32322 32.158766,21.979434 L 37.068811,17.246167 C 37.068811,17.246167 37.088388,32 37.088388,32 L 22.160133,31.978069 C 22.160133,31.978069 26.997745,27.140456 26.997745,27.140456 C 18.528582,18.264221 13.291696,25.230495 11.500037,31.436501 z"
             style="fill:#404040;"/>
          </a>
         </g>
        </svg>
</svg>
