<?xml version="1.0" encoding="UTF-8" standalone="no"?>
<!DOCTYPE svg PUBLIC "-//W3C//DTD SVG 1.1//EN"
 "http://www.w3.org/Graphics/SVG/1.1/DTD/svg11.dtd">
<!-- Generated by graphviz version 2.40.1 (20161225.0304)
 -->
<!-- Title: internal::VectorOperations::Vectorization_ratio&lt; Number &gt; Pages: 1 -->
<svg width="218pt" height="204pt"
 viewBox="0.00 0.00 217.50 204.00" xmlns="http://www.w3.org/2000/svg" xmlns:xlink="http://www.w3.org/1999/xlink">
<g id="graph0" class="graph" transform="scale(1 1) rotate(0) translate(4 200)">
<title>internal::VectorOperations::Vectorization_ratio&lt; Number &gt;</title>
<polygon fill="#ffffff" stroke="transparent" points="-4,4 -4,-200 213.5,-200 213.5,4 -4,4"/>
<!-- Node1 -->
<g id="node1" class="node">
<title>Node1</title>
<polygon fill="#bfbfbf" stroke="#000000" points="20,-.5 20,-79.5 176,-79.5 176,-.5 20,-.5"/>
<text text-anchor="start" x="28" y="-67.5" font-family="Helvetica,sans-Serif" font-size="10.00" fill="#000000">internal::VectorOperations</text>
<text text-anchor="middle" x="98" y="-56.5" font-family="Helvetica,sans-Serif" font-size="10.00" fill="#000000">::Vectorization_ratio&lt; Number &gt;</text>
<polyline fill="none" stroke="#000000" points="20,-49.5 176,-49.5 "/>
<text text-anchor="middle" x="98" y="-37.5" font-family="Helvetica,sans-Serif" font-size="10.00" fill="#000000"> </text>
<polyline fill="none" stroke="#000000" points="20,-30.5 176,-30.5 "/>
<text text-anchor="start" x="28" y="-18.5" font-family="Helvetica,sans-Serif" font-size="10.00" fill="#000000">+ Vectorization_ratio()</text>
<text text-anchor="start" x="28" y="-7.5" font-family="Helvetica,sans-Serif" font-size="10.00" fill="#000000">+ operator()()</text>
</g>
<!-- Node2 -->
<g id="node2" class="node">
<title>Node2</title>
<polygon fill="#ffffff" stroke="#bfbfbf" points="0,-138.5 0,-195.5 82,-195.5 82,-138.5 0,-138.5"/>
<text text-anchor="middle" x="41" y="-183.5" font-family="Helvetica,sans-Serif" font-size="10.00" fill="#000000">Number *const</text>
<polyline fill="none" stroke="#bfbfbf" points="0,-176.5 82,-176.5 "/>
<text text-anchor="middle" x="41" y="-164.5" font-family="Helvetica,sans-Serif" font-size="10.00" fill="#000000"> </text>
<polyline fill="none" stroke="#bfbfbf" points="0,-157.5 82,-157.5 "/>
<text text-anchor="middle" x="41" y="-145.5" font-family="Helvetica,sans-Serif" font-size="10.00" fill="#000000"> </text>
</g>
<!-- Node2&#45;&gt;Node1 -->
<g id="edge1" class="edge">
<title>Node2&#45;&gt;Node1</title>
<path fill="none" stroke="#404040" d="M53.7919,-138.4987C60.0858,-124.4756 67.866,-107.1408 75.1364,-90.9417"/>
<polygon fill="none" stroke="#404040" points="75.1502,-90.9109 73.9577,-83.7991 80.0638,-79.963 81.2563,-87.0748 75.1502,-90.9109"/>
<text text-anchor="middle" x="83" y="-106.5" font-family="Helvetica,sans-Serif" font-size="10.00" fill="#000000"> +val</text>
</g>
<!-- Node3 -->
<g id="node3" class="node">
<title>Node3</title>
<polygon fill="#ffffff" stroke="#bfbfbf" points="100.5,-138.5 100.5,-195.5 209.5,-195.5 209.5,-138.5 100.5,-138.5"/>
<text text-anchor="middle" x="155" y="-183.5" font-family="Helvetica,sans-Serif" font-size="10.00" fill="#000000">const Number *const</text>
<polyline fill="none" stroke="#bfbfbf" points="100.5,-176.5 209.5,-176.5 "/>
<text text-anchor="middle" x="155" y="-164.5" font-family="Helvetica,sans-Serif" font-size="10.00" fill="#000000"> </text>
<polyline fill="none" stroke="#bfbfbf" points="100.5,-157.5 209.5,-157.5 "/>
<text text-anchor="middle" x="155" y="-145.5" font-family="Helvetica,sans-Serif" font-size="10.00" fill="#000000"> </text>
</g>
<!-- Node3&#45;&gt;Node1 -->
<g id="edge2" class="edge">
<title>Node3&#45;&gt;Node1</title>
<path fill="none" stroke="#404040" d="M142.2081,-138.4987C135.9142,-124.4756 128.134,-107.1408 120.8636,-90.9417"/>
<polygon fill="none" stroke="#404040" points="120.8498,-90.9109 114.7437,-87.0748 115.9362,-79.963 122.0423,-83.7991 120.8498,-90.9109"/>
<text text-anchor="middle" x="149.5" y="-112" font-family="Helvetica,sans-Serif" font-size="10.00" fill="#000000"> +a_val</text>
<text text-anchor="middle" x="149.5" y="-101" font-family="Helvetica,sans-Serif" font-size="10.00" fill="#000000">+b_val</text>
</g>
</g>
</svg>
