<?xml version="1.0" encoding="UTF-8" standalone="no"?>
<!DOCTYPE svg PUBLIC "-//W3C//DTD SVG 1.1//EN"
 "http://www.w3.org/Graphics/SVG/1.1/DTD/svg11.dtd">
<!-- Generated by graphviz version 2.40.1 (20161225.0304)
 -->
<!-- Title: internal::VectorOperations::Vector_set&lt; Number &gt; Pages: 1 -->
<svg width="186pt" height="193pt"
 viewBox="0.00 0.00 186.00 193.00" xmlns="http://www.w3.org/2000/svg" xmlns:xlink="http://www.w3.org/1999/xlink">
<g id="graph0" class="graph" transform="scale(1 1) rotate(0) translate(4 189)">
<title>internal::VectorOperations::Vector_set&lt; Number &gt;</title>
<polygon fill="#ffffff" stroke="transparent" points="-4,4 -4,-189 182,-189 182,4 -4,4"/>
<!-- Node1 -->
<g id="node1" class="node">
<title>Node1</title>
<polygon fill="#bfbfbf" stroke="#000000" points="23,-.5 23,-79.5 153,-79.5 153,-.5 23,-.5"/>
<text text-anchor="start" x="31" y="-67.5" font-family="Helvetica,sans-Serif" font-size="10.00" fill="#000000">internal::VectorOperations</text>
<text text-anchor="middle" x="88" y="-56.5" font-family="Helvetica,sans-Serif" font-size="10.00" fill="#000000">::Vector_set&lt; Number &gt;</text>
<polyline fill="none" stroke="#000000" points="23,-49.5 153,-49.5 "/>
<text text-anchor="middle" x="88" y="-37.5" font-family="Helvetica,sans-Serif" font-size="10.00" fill="#000000"> </text>
<polyline fill="none" stroke="#000000" points="23,-30.5 153,-30.5 "/>
<text text-anchor="start" x="31" y="-18.5" font-family="Helvetica,sans-Serif" font-size="10.00" fill="#000000">+ Vector_set()</text>
<text text-anchor="start" x="31" y="-7.5" font-family="Helvetica,sans-Serif" font-size="10.00" fill="#000000">+ operator()()</text>
</g>
<!-- Node2 -->
<g id="node2" class="node">
<title>Node2</title>
<polygon fill="#ffffff" stroke="#bfbfbf" points="0,-127.5 0,-184.5 78,-184.5 78,-127.5 0,-127.5"/>
<text text-anchor="middle" x="39" y="-172.5" font-family="Helvetica,sans-Serif" font-size="10.00" fill="#000000">const Number</text>
<polyline fill="none" stroke="#bfbfbf" points="0,-165.5 78,-165.5 "/>
<text text-anchor="middle" x="39" y="-153.5" font-family="Helvetica,sans-Serif" font-size="10.00" fill="#000000"> </text>
<polyline fill="none" stroke="#bfbfbf" points="0,-146.5 78,-146.5 "/>
<text text-anchor="middle" x="39" y="-134.5" font-family="Helvetica,sans-Serif" font-size="10.00" fill="#000000"> </text>
</g>
<!-- Node2&#45;&gt;Node1 -->
<g id="edge1" class="edge">
<title>Node2&#45;&gt;Node1</title>
<path fill="none" stroke="#404040" d="M51.1124,-127.3258C55.7558,-116.3333 61.2048,-103.4336 66.4683,-90.973"/>
<polygon fill="none" stroke="#404040" points="66.5521,-90.7746 65.2021,-83.6909 71.2216,-79.7203 72.5716,-86.8039 66.5521,-90.7746"/>
<text text-anchor="middle" x="80.5" y="-101" font-family="Helvetica,sans-Serif" font-size="10.00" fill="#000000"> +value</text>
</g>
<!-- Node3 -->
<g id="node3" class="node">
<title>Node3</title>
<polygon fill="#ffffff" stroke="#bfbfbf" points="96,-127.5 96,-184.5 178,-184.5 178,-127.5 96,-127.5"/>
<text text-anchor="middle" x="137" y="-172.5" font-family="Helvetica,sans-Serif" font-size="10.00" fill="#000000">Number *const</text>
<polyline fill="none" stroke="#bfbfbf" points="96,-165.5 178,-165.5 "/>
<text text-anchor="middle" x="137" y="-153.5" font-family="Helvetica,sans-Serif" font-size="10.00" fill="#000000"> </text>
<polyline fill="none" stroke="#bfbfbf" points="96,-146.5 178,-146.5 "/>
<text text-anchor="middle" x="137" y="-134.5" font-family="Helvetica,sans-Serif" font-size="10.00" fill="#000000"> </text>
</g>
<!-- Node3&#45;&gt;Node1 -->
<g id="edge2" class="edge">
<title>Node3&#45;&gt;Node1</title>
<path fill="none" stroke="#404040" d="M124.8876,-127.3258C120.2442,-116.3333 114.7952,-103.4336 109.5317,-90.973"/>
<polygon fill="none" stroke="#404040" points="109.4479,-90.7746 103.4284,-86.8039 104.7784,-79.7203 110.7979,-83.6909 109.4479,-90.7746"/>
<text text-anchor="middle" x="127.5" y="-101" font-family="Helvetica,sans-Serif" font-size="10.00" fill="#000000"> +dst</text>
</g>
</g>
</svg>
