<?xml version="1.0" encoding="UTF-8" standalone="no"?>
<!DOCTYPE svg PUBLIC "-//W3C//DTD SVG 1.1//EN"
 "http://www.w3.org/Graphics/SVG/1.1/DTD/svg11.dtd">
<!-- Generated by graphviz version 2.40.1 (20161225.0304)
 -->
<!-- Title: mystl::is_forward_iterator&lt; Iter &gt; Pages: 1 -->
<!--zoomable 482 -->
<svg id="main" version="1.1" xmlns="http://www.w3.org/2000/svg" xmlns:xlink="http://www.w3.org/1999/xlink" xml:space="preserve" onload="init(evt)">
<style type="text/css"><![CDATA[
.edge:hover path { stroke: red; }
.edge:hover polygon { stroke: red; fill: red; }
]]></style>
<script type="text/javascript"><![CDATA[
var edges = document.getElementsByTagName('g');
if (edges && edges.length) {
  for (var i=0;i<edges.length;i++) {
    if (edges[i].id.substr(0,4)=='edge') {
      edges[i].setAttribute('class','edge');
    }
  }
}
]]></script>
        <defs>
                <circle id="rim" cx="0" cy="0" r="7"/>
                <circle id="rim2" cx="0" cy="0" r="3.5"/>
                <g id="zoomPlus">
                        <use xlink:href="#rim" fill="#404040">
                                <set attributeName="fill" to="#808080" begin="zoomplus.mouseover" end="zoomplus.mouseout"/>
                        </use>
                        <path d="M-4,0h8M0,-4v8" fill="none" stroke="white" stroke-width="1.5" pointer-events="none"/>
                </g>
                <g id="zoomMin">
                        <use xlink:href="#rim" fill="#404040">
                                <set attributeName="fill" to="#808080" begin="zoomminus.mouseover" end="zoomminus.mouseout"/>
                        </use>
                        <path d="M-4,0h8" fill="none" stroke="white" stroke-width="1.5" pointer-events="none"/>
                </g>
                <g id="dirArrow">
                        <path fill="none" stroke="white" stroke-width="1.5" d="M0,-3.0v7 M-2.5,-0.5L0,-3.0L2.5,-0.5"/>
                </g>
               <g id="resetDef">
                       <use xlink:href="#rim2" fill="#404040">
                               <set attributeName="fill" to="#808080" begin="reset.mouseover" end="reset.mouseout"/>
                       </use>
               </g>
        </defs>

<script type="text/javascript">
var viewWidth = 289;
var viewHeight = 482;
var sectionId = 'dynsection-0';
</script>
<script xlink:href="svgpan.js"/>
<svg id="graph" class="graph">
<g id="viewport">
<title>mystl::is_forward_iterator&lt; Iter &gt;</title>
<polygon fill="#ffffff" stroke="transparent" points="-4,4 -4,-478 285,-478 285,4 -4,4"/>
<!-- Node0 -->
<g id="node1" class="node">
<title>Node0</title>
<polygon fill="#bfbfbf" stroke="#000000" points="19,-.5 19,-68.5 146,-68.5 146,-.5 19,-.5"/>
<text text-anchor="start" x="27" y="-56.5" font-family="Helvetica,sans-Serif" font-size="10.00" fill="#000000">mystl::is_forward_iterator</text>
<text text-anchor="middle" x="82.5" y="-45.5" font-family="Helvetica,sans-Serif" font-size="10.00" fill="#000000">&lt; Iter &gt;</text>
<polyline fill="none" stroke="#000000" points="19,-38.5 146,-38.5 "/>
<text text-anchor="middle" x="82.5" y="-26.5" font-family="Helvetica,sans-Serif" font-size="10.00" fill="#000000"> </text>
<polyline fill="none" stroke="#000000" points="19,-19.5 146,-19.5 "/>
<text text-anchor="middle" x="82.5" y="-7.5" font-family="Helvetica,sans-Serif" font-size="10.00" fill="#000000"> </text>
</g>
<!-- Node1 -->
<g id="node2" class="node">
<title>Node1</title>
<g id="a_node2"><a xlink:href="structmystl_1_1has__iterator__cat__of.html" target="_top" xlink:title="{mystl::has_iterator\l_cat_of\&lt; Iter, forward\l_iterator_tag \&gt;\n||}">
<polygon fill="#ffffff" stroke="#000000" points="27.5,-106.5 27.5,-185.5 137.5,-185.5 137.5,-106.5 27.5,-106.5"/>
<text text-anchor="start" x="35.5" y="-173.5" font-family="Helvetica,sans-Serif" font-size="10.00" fill="#000000">mystl::has_iterator</text>
<text text-anchor="start" x="35.5" y="-162.5" font-family="Helvetica,sans-Serif" font-size="10.00" fill="#000000">_cat_of&lt; Iter, forward</text>
<text text-anchor="middle" x="82.5" y="-151.5" font-family="Helvetica,sans-Serif" font-size="10.00" fill="#000000">_iterator_tag &gt;</text>
<polyline fill="none" stroke="#000000" points="27.5,-144.5 137.5,-144.5 "/>
<text text-anchor="middle" x="82.5" y="-132.5" font-family="Helvetica,sans-Serif" font-size="10.00" fill="#000000"> </text>
<polyline fill="none" stroke="#000000" points="27.5,-125.5 137.5,-125.5 "/>
<text text-anchor="middle" x="82.5" y="-113.5" font-family="Helvetica,sans-Serif" font-size="10.00" fill="#000000"> </text>
</a>
</g>
</g>
<!-- Node1&#45;&gt;Node0 -->
<g id="edge1" class="edge">
<title>Node1&#45;&gt;Node0</title>
<path fill="none" stroke="#191970" d="M82.5,-96.1102C82.5,-86.8885 82.5,-77.4506 82.5,-68.8207"/>
<polygon fill="none" stroke="#191970" points="79.0001,-96.3753 82.5,-106.3753 86.0001,-96.3754 79.0001,-96.3753"/>
</g>
<!-- Node2 -->
<g id="node3" class="node">
<title>Node2</title>
<g id="a_node3"><a xlink:href="structmystl_1_1m__integral__constant.html" target="_top" xlink:title="{m_bool_constant\&lt; std\l::is_convertible\&lt; iterator\l_traits\&lt; Iter &#160;\&gt;::iterator\l_category, forward_iterator\l_tag &#160;\&gt;::value \&gt;\n|+ value\l|}">
<polygon fill="#ffffff" stroke="#000000" points="0,-244.5 0,-345.5 133,-345.5 133,-244.5 0,-244.5"/>
<text text-anchor="start" x="8" y="-333.5" font-family="Helvetica,sans-Serif" font-size="10.00" fill="#000000">m_bool_constant&lt; std</text>
<text text-anchor="start" x="8" y="-322.5" font-family="Helvetica,sans-Serif" font-size="10.00" fill="#000000">::is_convertible&lt; iterator</text>
<text text-anchor="start" x="8" y="-311.5" font-family="Helvetica,sans-Serif" font-size="10.00" fill="#000000">_traits&lt; Iter &gt;::iterator</text>
<text text-anchor="start" x="8" y="-300.5" font-family="Helvetica,sans-Serif" font-size="10.00" fill="#000000">_category, forward_iterator</text>
<text text-anchor="middle" x="66.5" y="-289.5" font-family="Helvetica,sans-Serif" font-size="10.00" fill="#000000">_tag &gt;::value &gt;</text>
<polyline fill="none" stroke="#000000" points="0,-282.5 133,-282.5 "/>
<text text-anchor="start" x="8" y="-270.5" font-family="Helvetica,sans-Serif" font-size="10.00" fill="#000000">+ value</text>
<polyline fill="none" stroke="#000000" points="0,-263.5 133,-263.5 "/>
<text text-anchor="middle" x="66.5" y="-251.5" font-family="Helvetica,sans-Serif" font-size="10.00" fill="#000000"> </text>
</a>
</g>
</g>
<!-- Node2&#45;&gt;Node1 -->
<g id="edge2" class="edge">
<title>Node2&#45;&gt;Node1</title>
<path fill="none" stroke="#191970" d="M73.0353,-234.1404C74.7848,-217.8477 76.6311,-200.6537 78.224,-185.8207"/>
<polygon fill="none" stroke="#191970" points="69.5493,-233.8228 71.9615,-244.1394 76.5093,-234.5703 69.5493,-233.8228"/>
</g>
<!-- Node3 -->
<g id="node4" class="node">
<title>Node3</title>
<g id="a_node4"><a xlink:href="structmystl_1_1has__iterator__cat__of.html" target="_top" xlink:title="{mystl::has_iterator\l_cat_of\&lt; T, U, bool \&gt;\n||}">
<polygon fill="#ffffff" stroke="#000000" points="151.5,-261 151.5,-329 261.5,-329 261.5,-261 151.5,-261"/>
<text text-anchor="start" x="159.5" y="-317" font-family="Helvetica,sans-Serif" font-size="10.00" fill="#000000">mystl::has_iterator</text>
<text text-anchor="middle" x="206.5" y="-306" font-family="Helvetica,sans-Serif" font-size="10.00" fill="#000000">_cat_of&lt; T, U, bool &gt;</text>
<polyline fill="none" stroke="#000000" points="151.5,-299 261.5,-299 "/>
<text text-anchor="middle" x="206.5" y="-287" font-family="Helvetica,sans-Serif" font-size="10.00" fill="#000000"> </text>
<polyline fill="none" stroke="#000000" points="151.5,-280 261.5,-280 "/>
<text text-anchor="middle" x="206.5" y="-268" font-family="Helvetica,sans-Serif" font-size="10.00" fill="#000000"> </text>
</a>
</g>
</g>
<!-- Node3&#45;&gt;Node1 -->
<g id="edge3" class="edge">
<title>Node3&#45;&gt;Node1</title>
<path fill="none" stroke="#ffa500" d="M171.5019,-252.9459C153.9105,-231.8078 132.7148,-206.3388 115.4213,-185.5587"/>
<polygon fill="#ffa500" stroke="#ffa500" points="168.9648,-255.3688 178.0519,-260.8164 174.3454,-250.891 168.9648,-255.3688"/>
<text text-anchor="start" x="147.5" y="-218" font-family="Helvetica,sans-Serif" font-size="10.00" fill="#000000"> &lt; Iter, forward_iterator</text>
<text text-anchor="middle" x="197.5" y="-207" font-family="Helvetica,sans-Serif" font-size="10.00" fill="#000000">_tag &gt;</text>
</g>
<!-- Node4 -->
<g id="node5" class="node">
<title>Node4</title>
<g id="a_node5"><a xlink:href="structmystl_1_1m__integral__constant.html" target="_top" xlink:title="{m_bool_constant\&lt; std\l::is_convertible\&lt; iterator\l_traits\&lt; T \&gt;::iterator_category,\l U \&gt;::value \&gt;\n|+ value\l|}">
<polygon fill="#ffffff" stroke="#000000" points="132,-383.5 132,-473.5 281,-473.5 281,-383.5 132,-383.5"/>
<text text-anchor="start" x="140" y="-461.5" font-family="Helvetica,sans-Serif" font-size="10.00" fill="#000000">m_bool_constant&lt; std</text>
<text text-anchor="start" x="140" y="-450.5" font-family="Helvetica,sans-Serif" font-size="10.00" fill="#000000">::is_convertible&lt; iterator</text>
<text text-anchor="start" x="140" y="-439.5" font-family="Helvetica,sans-Serif" font-size="10.00" fill="#000000">_traits&lt; T &gt;::iterator_category,</text>
<text text-anchor="middle" x="206.5" y="-428.5" font-family="Helvetica,sans-Serif" font-size="10.00" fill="#000000"> U &gt;::value &gt;</text>
<polyline fill="none" stroke="#000000" points="132,-421.5 281,-421.5 "/>
<text text-anchor="start" x="140" y="-409.5" font-family="Helvetica,sans-Serif" font-size="10.00" fill="#000000">+ value</text>
<polyline fill="none" stroke="#000000" points="132,-402.5 281,-402.5 "/>
<text text-anchor="middle" x="206.5" y="-390.5" font-family="Helvetica,sans-Serif" font-size="10.00" fill="#000000"> </text>
</a>
</g>
</g>
<!-- Node4&#45;&gt;Node3 -->
<g id="edge4" class="edge">
<title>Node4&#45;&gt;Node3</title>
<path fill="none" stroke="#191970" d="M206.5,-373.1456C206.5,-358.2385 206.5,-342.55 206.5,-329.1737"/>
<polygon fill="none" stroke="#191970" points="203.0001,-373.303 206.5,-383.303 210.0001,-373.303 203.0001,-373.303"/>
</g>
</g>
</svg>
        <g id="navigator" transform="translate(0 0)" fill="#404254">
                <rect fill="#f2f5e9" fill-opacity="0.5" stroke="#606060" stroke-width=".5" x="0" y="0" width="60" height="60"/>
                <use id="zoomplus" xlink:href="#zoomPlus" x="17" y="9" onmousedown="handleZoom(evt,'in')"/>
                <use id="zoomminus" xlink:href="#zoomMin" x="42" y="9" onmousedown="handleZoom(evt,'out')"/>
                <use id="reset" xlink:href="#resetDef" x="30" y="36" onmousedown="handleReset()"/>
                <g id="arrowUp" xlink:href="#dirArrow" transform="translate(30 24)" onmousedown="handlePan(0,-1)">
                  <use xlink:href="#rim" fill="#404040">
                        <set attributeName="fill" to="#808080" begin="arrowUp.mouseover" end="arrowUp.mouseout"/>
                  </use>
                  <path fill="none" stroke="white" stroke-width="1.5" d="M0,-3.0v7 M-2.5,-0.5L0,-3.0L2.5,-0.5"/>
                </g>
                <g id="arrowRight" xlink:href="#dirArrow" transform="rotate(90) translate(36 -43)" onmousedown="handlePan(1,0)">
                  <use xlink:href="#rim" fill="#404040">
                        <set attributeName="fill" to="#808080" begin="arrowRight.mouseover" end="arrowRight.mouseout"/>
                  </use>
                  <path fill="none" stroke="white" stroke-width="1.5" d="M0,-3.0v7 M-2.5,-0.5L0,-3.0L2.5,-0.5"/>
                </g>
                <g id="arrowDown" xlink:href="#dirArrow" transform="rotate(180) translate(-30 -48)" onmousedown="handlePan(0,1)">
                  <use xlink:href="#rim" fill="#404040">
                        <set attributeName="fill" to="#808080" begin="arrowDown.mouseover" end="arrowDown.mouseout"/>
                  </use>
                  <path fill="none" stroke="white" stroke-width="1.5" d="M0,-3.0v7 M-2.5,-0.5L0,-3.0L2.5,-0.5"/>
                </g>
                <g id="arrowLeft" xlink:href="#dirArrow" transform="rotate(270) translate(-36 17)" onmousedown="handlePan(-1,0)">
                  <use xlink:href="#rim" fill="#404040">
                        <set attributeName="fill" to="#808080" begin="arrowLeft.mouseover" end="arrowLeft.mouseout"/>
                  </use>
                  <path fill="none" stroke="white" stroke-width="1.5" d="M0,-3.0v7 M-2.5,-0.5L0,-3.0L2.5,-0.5"/>
                </g>
        </g>
        <svg viewBox="0 0 15 15" width="100%" height="30px" preserveAspectRatio="xMaxYMin meet">
         <g id="arrow_out" transform="scale(0.3 0.3)">
          <a xlink:href="structmystl_1_1is__forward__iterator__inherit__graph_org.svg" target="_base">
           <rect id="button" ry="5" rx="5" y="6" x="6" height="38" width="38"
                fill="#f2f5e9" fill-opacity="0.5" stroke="#606060" stroke-width="1.0"/>
           <path id="arrow"
             d="M 11.500037,31.436501 C 11.940474,20.09759 22.043105,11.32322 32.158766,21.979434 L 37.068811,17.246167 C 37.068811,17.246167 37.088388,32 37.088388,32 L 22.160133,31.978069 C 22.160133,31.978069 26.997745,27.140456 26.997745,27.140456 C 18.528582,18.264221 13.291696,25.230495 11.500037,31.436501 z"
             style="fill:#404040;"/>
          </a>
         </g>
        </svg>
</svg>
