<?xml version="1.0" encoding="UTF-8" standalone="no"?>
<!DOCTYPE svg PUBLIC "-//W3C//DTD SVG 1.1//EN"
 "http://www.w3.org/Graphics/SVG/1.1/DTD/svg11.dtd">
<!-- Generated by graphviz version 2.40.1 (20161225.0304)
 -->
<!-- Title: GridOutFlags::Msh Pages: 1 -->
<svg width="125pt" height="204pt"
 viewBox="0.00 0.00 125.00 204.00" xmlns="http://www.w3.org/2000/svg" xmlns:xlink="http://www.w3.org/1999/xlink">
<g id="graph0" class="graph" transform="scale(1 1) rotate(0) translate(4 200)">
<title>GridOutFlags::Msh</title>
<polygon fill="#ffffff" stroke="transparent" points="-4,4 -4,-200 121,-200 121,4 -4,4"/>
<!-- Node1 -->
<g id="node1" class="node">
<title>Node1</title>
<polygon fill="#bfbfbf" stroke="#000000" points="0,-.5 0,-79.5 117,-79.5 117,-.5 0,-.5"/>
<text text-anchor="middle" x="58.5" y="-67.5" font-family="Helvetica,sans-Serif" font-size="10.00" fill="#000000">GridOutFlags::Msh</text>
<polyline fill="none" stroke="#000000" points="0,-60.5 117,-60.5 "/>
<text text-anchor="middle" x="58.5" y="-48.5" font-family="Helvetica,sans-Serif" font-size="10.00" fill="#000000"> </text>
<polyline fill="none" stroke="#000000" points="0,-41.5 117,-41.5 "/>
<text text-anchor="start" x="8" y="-29.5" font-family="Helvetica,sans-Serif" font-size="10.00" fill="#000000">+ Msh()</text>
<text text-anchor="start" x="8" y="-18.5" font-family="Helvetica,sans-Serif" font-size="10.00" fill="#000000">+ parse_parameters()</text>
<text text-anchor="start" x="8" y="-7.5" font-family="Helvetica,sans-Serif" font-size="10.00" fill="#000000">+ declare_parameters()</text>
</g>
<!-- Node2 -->
<g id="node2" class="node">
<title>Node2</title>
<g id="a_node2"><a xlink:href="classbool.html" target="_top" xlink:title="{bool\n||}">
<polygon fill="#ffffff" stroke="#000000" points="41,-138.5 41,-195.5 76,-195.5 76,-138.5 41,-138.5"/>
<text text-anchor="middle" x="58.5" y="-183.5" font-family="Helvetica,sans-Serif" font-size="10.00" fill="#000000">bool</text>
<polyline fill="none" stroke="#000000" points="41,-176.5 76,-176.5 "/>
<text text-anchor="middle" x="58.5" y="-164.5" font-family="Helvetica,sans-Serif" font-size="10.00" fill="#000000"> </text>
<polyline fill="none" stroke="#000000" points="41,-157.5 76,-157.5 "/>
<text text-anchor="middle" x="58.5" y="-145.5" font-family="Helvetica,sans-Serif" font-size="10.00" fill="#000000"> </text>
</a>
</g>
</g>
<!-- Node2&#45;&gt;Node1 -->
<g id="edge1" class="edge">
<title>Node2&#45;&gt;Node1</title>
<path fill="none" stroke="#404040" d="M58.5,-138.4987C58.5,-124.8801 58.5,-108.1381 58.5,-92.3462"/>
<polygon fill="none" stroke="#404040" points="58.5001,-91.963 54.5,-85.963 58.5,-79.963 62.5,-85.963 58.5001,-91.963"/>
<text text-anchor="middle" x="87" y="-112" font-family="Helvetica,sans-Serif" font-size="10.00" fill="#000000"> +write_lines</text>
<text text-anchor="middle" x="87" y="-101" font-family="Helvetica,sans-Serif" font-size="10.00" fill="#000000">+write_faces</text>
</g>
</g>
</svg>
