<?xml version="1.0" encoding="UTF-8" standalone="no"?>
<!DOCTYPE svg PUBLIC "-//W3C//DTD SVG 1.1//EN"
 "http://www.w3.org/Graphics/SVG/1.1/DTD/svg11.dtd">
<!-- Generated by graphviz version 2.40.1 (20161225.0304)
 -->
<!-- Title: internal::EvaluatorTensorProduct&lt; evaluate_general, dim, 0, 0, Number, Number2 &gt; Pages: 1 -->
<svg width="250pt" height="336pt"
 viewBox="0.00 0.00 250.00 336.00" xmlns="http://www.w3.org/2000/svg" xmlns:xlink="http://www.w3.org/1999/xlink">
<g id="graph0" class="graph" transform="scale(1 1) rotate(0) translate(4 332)">
<title>internal::EvaluatorTensorProduct&lt; evaluate_general, dim, 0, 0, Number, Number2 &gt;</title>
<polygon fill="#ffffff" stroke="transparent" points="-4,4 -4,-332 246,-332 246,4 -4,4"/>
<!-- Node1 -->
<g id="node1" class="node">
<title>Node1</title>
<polygon fill="#bfbfbf" stroke="#000000" points="20.5,-.5 20.5,-189.5 173.5,-189.5 173.5,-.5 20.5,-.5"/>
<text text-anchor="start" x="28.5" y="-177.5" font-family="Helvetica,sans-Serif" font-size="10.00" fill="#000000">internal::EvaluatorTensor</text>
<text text-anchor="start" x="28.5" y="-166.5" font-family="Helvetica,sans-Serif" font-size="10.00" fill="#000000">Product&lt; evaluate_general,</text>
<text text-anchor="middle" x="97" y="-155.5" font-family="Helvetica,sans-Serif" font-size="10.00" fill="#000000"> dim, 0, 0, Number, Number2 &gt;</text>
<polyline fill="none" stroke="#000000" points="20.5,-148.5 173.5,-148.5 "/>
<text text-anchor="middle" x="97" y="-136.5" font-family="Helvetica,sans-Serif" font-size="10.00" fill="#000000"> </text>
<polyline fill="none" stroke="#000000" points="20.5,-129.5 173.5,-129.5 "/>
<text text-anchor="start" x="28.5" y="-117.5" font-family="Helvetica,sans-Serif" font-size="10.00" fill="#000000">+ EvaluatorTensorProduct()</text>
<text text-anchor="start" x="28.5" y="-106.5" font-family="Helvetica,sans-Serif" font-size="10.00" fill="#000000">+ EvaluatorTensorProduct()</text>
<text text-anchor="start" x="28.5" y="-95.5" font-family="Helvetica,sans-Serif" font-size="10.00" fill="#000000">+ EvaluatorTensorProduct()</text>
<text text-anchor="start" x="28.5" y="-84.5" font-family="Helvetica,sans-Serif" font-size="10.00" fill="#000000">+ values()</text>
<text text-anchor="start" x="28.5" y="-73.5" font-family="Helvetica,sans-Serif" font-size="10.00" fill="#000000">+ gradients()</text>
<text text-anchor="start" x="28.5" y="-62.5" font-family="Helvetica,sans-Serif" font-size="10.00" fill="#000000">+ hessians()</text>
<text text-anchor="start" x="28.5" y="-51.5" font-family="Helvetica,sans-Serif" font-size="10.00" fill="#000000">+ values_one_line()</text>
<text text-anchor="start" x="28.5" y="-40.5" font-family="Helvetica,sans-Serif" font-size="10.00" fill="#000000">+ gradients_one_line()</text>
<text text-anchor="start" x="28.5" y="-29.5" font-family="Helvetica,sans-Serif" font-size="10.00" fill="#000000">+ hessians_one_line()</text>
<text text-anchor="start" x="28.5" y="-18.5" font-family="Helvetica,sans-Serif" font-size="10.00" fill="#000000">+ apply()</text>
<text text-anchor="start" x="28.5" y="-7.5" font-family="Helvetica,sans-Serif" font-size="10.00" fill="#000000">+ apply_face()</text>
</g>
<!-- Node2 -->
<g id="node2" class="node">
<title>Node2</title>
<polygon fill="#ffffff" stroke="#bfbfbf" points="0,-270.5 0,-327.5 90,-327.5 90,-270.5 0,-270.5"/>
<text text-anchor="middle" x="45" y="-315.5" font-family="Helvetica,sans-Serif" font-size="10.00" fill="#000000">const Number2 *</text>
<polyline fill="none" stroke="#bfbfbf" points="0,-308.5 90,-308.5 "/>
<text text-anchor="middle" x="45" y="-296.5" font-family="Helvetica,sans-Serif" font-size="10.00" fill="#000000"> </text>
<polyline fill="none" stroke="#bfbfbf" points="0,-289.5 90,-289.5 "/>
<text text-anchor="middle" x="45" y="-277.5" font-family="Helvetica,sans-Serif" font-size="10.00" fill="#000000"> </text>
</g>
<!-- Node2&#45;&gt;Node1 -->
<g id="edge1" class="edge">
<title>Node2&#45;&gt;Node1</title>
<path fill="none" stroke="#404040" d="M42.3308,-270.3747C41.3733,-252.279 41.4661,-228.5185 46,-208 46.484,-205.8097 47.0131,-203.6104 47.5828,-201.4066"/>
<polygon fill="none" stroke="#404040" points="47.6625,-201.1307 45.4842,-194.2564 50.9919,-189.6018 53.1701,-196.476 47.6625,-201.1307"/>
<text text-anchor="middle" x="86.5" y="-238.5" font-family="Helvetica,sans-Serif" font-size="10.00" fill="#000000"> +shape_gradients</text>
<text text-anchor="middle" x="86.5" y="-227.5" font-family="Helvetica,sans-Serif" font-size="10.00" fill="#000000">+shape_values</text>
<text text-anchor="middle" x="86.5" y="-216.5" font-family="Helvetica,sans-Serif" font-size="10.00" fill="#000000">+shape_hessians</text>
</g>
<!-- Node3 -->
<g id="node3" class="node">
<title>Node3</title>
<polygon fill="#ffffff" stroke="#bfbfbf" points="121,-270.5 121,-327.5 177,-327.5 177,-270.5 121,-270.5"/>
<text text-anchor="middle" x="149" y="-315.5" font-family="Helvetica,sans-Serif" font-size="10.00" fill="#000000">unsigned</text>
<polyline fill="none" stroke="#bfbfbf" points="121,-308.5 177,-308.5 "/>
<text text-anchor="middle" x="149" y="-296.5" font-family="Helvetica,sans-Serif" font-size="10.00" fill="#000000"> </text>
<polyline fill="none" stroke="#bfbfbf" points="121,-289.5 177,-289.5 "/>
<text text-anchor="middle" x="149" y="-277.5" font-family="Helvetica,sans-Serif" font-size="10.00" fill="#000000"> </text>
</g>
<!-- Node3&#45;&gt;Node1 -->
<g id="edge2" class="edge">
<title>Node3&#45;&gt;Node1</title>
<path fill="none" stroke="#404040" d="M142.2275,-270.27C137.9581,-252.3409 132.2738,-228.7967 127,-208 126.4531,-205.8434 125.8981,-203.6644 125.3366,-201.4688"/>
<polygon fill="none" stroke="#404040" points="125.2734,-201.223 119.9038,-196.4096 122.2817,-189.6019 127.6513,-194.4152 125.2734,-201.223"/>
<text text-anchor="middle" x="189.5" y="-244" font-family="Helvetica,sans-Serif" font-size="10.00" fill="#000000"> +n_columns</text>
<text text-anchor="middle" x="189.5" y="-233" font-family="Helvetica,sans-Serif" font-size="10.00" fill="#000000">+n_rows_of_product</text>
<text text-anchor="middle" x="189.5" y="-222" font-family="Helvetica,sans-Serif" font-size="10.00" fill="#000000">+n_rows</text>
<text text-anchor="middle" x="189.5" y="-211" font-family="Helvetica,sans-Serif" font-size="10.00" fill="#000000">+n_columns_of_product</text>
</g>
</g>
</svg>
