<?xml version="1.0" encoding="UTF-8" standalone="no"?>
<!DOCTYPE svg PUBLIC "-//W3C//DTD SVG 1.1//EN"
 "http://www.w3.org/Graphics/SVG/1.1/DTD/svg11.dtd">
<!-- Generated by graphviz version 2.40.1 (20161225.0304)
 -->
<!-- Title: TrilinosWrappers::SolverDirect::AdditionalData Pages: 1 -->
<svg width="222pt" height="288pt"
 viewBox="0.00 0.00 221.50 288.00" xmlns="http://www.w3.org/2000/svg" xmlns:xlink="http://www.w3.org/1999/xlink">
<g id="graph0" class="graph" transform="scale(1 1) rotate(0) translate(4 284)">
<title>TrilinosWrappers::SolverDirect::AdditionalData</title>
<polygon fill="#ffffff" stroke="transparent" points="-4,4 -4,-284 217.5,-284 217.5,4 -4,4"/>
<!-- Node1 -->
<g id="node1" class="node">
<title>Node1</title>
<polygon fill="#bfbfbf" stroke="#000000" points="26.5,-.5 26.5,-68.5 150.5,-68.5 150.5,-.5 26.5,-.5"/>
<text text-anchor="start" x="34.5" y="-56.5" font-family="Helvetica,sans-Serif" font-size="10.00" fill="#000000">TrilinosWrappers::Solver</text>
<text text-anchor="middle" x="88.5" y="-45.5" font-family="Helvetica,sans-Serif" font-size="10.00" fill="#000000">Direct::AdditionalData</text>
<polyline fill="none" stroke="#000000" points="26.5,-38.5 150.5,-38.5 "/>
<text text-anchor="middle" x="88.5" y="-26.5" font-family="Helvetica,sans-Serif" font-size="10.00" fill="#000000"> </text>
<polyline fill="none" stroke="#000000" points="26.5,-19.5 150.5,-19.5 "/>
<text text-anchor="start" x="34.5" y="-7.5" font-family="Helvetica,sans-Serif" font-size="10.00" fill="#000000">+ AdditionalData()</text>
</g>
<!-- Node2 -->
<g id="node2" class="node">
<title>Node2</title>
<g id="a_node2"><a xlink:title="STL class. ">
<polygon fill="#ffffff" stroke="#bfbfbf" points="17.5,-116.5 17.5,-173.5 77.5,-173.5 77.5,-116.5 17.5,-116.5"/>
<text text-anchor="middle" x="47.5" y="-161.5" font-family="Helvetica,sans-Serif" font-size="10.00" fill="#000000">std::string</text>
<polyline fill="none" stroke="#bfbfbf" points="17.5,-154.5 77.5,-154.5 "/>
<text text-anchor="middle" x="47.5" y="-142.5" font-family="Helvetica,sans-Serif" font-size="10.00" fill="#000000"> </text>
<polyline fill="none" stroke="#bfbfbf" points="17.5,-135.5 77.5,-135.5 "/>
<text text-anchor="middle" x="47.5" y="-123.5" font-family="Helvetica,sans-Serif" font-size="10.00" fill="#000000"> </text>
</a>
</g>
</g>
<!-- Node2&#45;&gt;Node1 -->
<g id="edge1" class="edge">
<title>Node2&#45;&gt;Node1</title>
<path fill="none" stroke="#404040" d="M44.4703,-116.3507C44.3766,-106.7905 45.2961,-96.2285 48.5,-87 49.4354,-84.3056 50.5671,-81.6389 51.848,-79.0199"/>
<polygon fill="none" stroke="#404040" points="51.8677,-78.9854 51.3801,-71.7908 57.8337,-68.5735 58.3213,-75.7681 51.8677,-78.9854"/>
<text text-anchor="middle" x="78.5" y="-90" font-family="Helvetica,sans-Serif" font-size="10.00" fill="#000000"> +solver_type</text>
</g>
<!-- Node3 -->
<g id="node3" class="node">
<title>Node3</title>
<g id="a_node3"><a xlink:title="STL class. ">
<polygon fill="#ffffff" stroke="#bfbfbf" points="0,-211.5 0,-279.5 95,-279.5 95,-211.5 0,-211.5"/>
<text text-anchor="start" x="8" y="-267.5" font-family="Helvetica,sans-Serif" font-size="10.00" fill="#000000">std::basic_string&lt;</text>
<text text-anchor="middle" x="47.5" y="-256.5" font-family="Helvetica,sans-Serif" font-size="10.00" fill="#000000"> char &gt;</text>
<polyline fill="none" stroke="#bfbfbf" points="0,-249.5 95,-249.5 "/>
<text text-anchor="middle" x="47.5" y="-237.5" font-family="Helvetica,sans-Serif" font-size="10.00" fill="#000000"> </text>
<polyline fill="none" stroke="#bfbfbf" points="0,-230.5 95,-230.5 "/>
<text text-anchor="middle" x="47.5" y="-218.5" font-family="Helvetica,sans-Serif" font-size="10.00" fill="#000000"> </text>
</a>
</g>
</g>
<!-- Node3&#45;&gt;Node2 -->
<g id="edge2" class="edge">
<title>Node3&#45;&gt;Node2</title>
<path fill="none" stroke="#191970" d="M47.5,-201.4301C47.5,-192.0073 47.5,-182.2901 47.5,-173.6312"/>
<polygon fill="none" stroke="#191970" points="44.0001,-201.4752 47.5,-211.4753 51.0001,-201.4753 44.0001,-201.4752"/>
</g>
<!-- Node4 -->
<g id="node4" class="node">
<title>Node4</title>
<g id="a_node4"><a xlink:href="classbool.html" target="_top" xlink:title="{bool\n||}">
<polygon fill="#ffffff" stroke="#000000" points="113,-116.5 113,-173.5 148,-173.5 148,-116.5 113,-116.5"/>
<text text-anchor="middle" x="130.5" y="-161.5" font-family="Helvetica,sans-Serif" font-size="10.00" fill="#000000">bool</text>
<polyline fill="none" stroke="#000000" points="113,-154.5 148,-154.5 "/>
<text text-anchor="middle" x="130.5" y="-142.5" font-family="Helvetica,sans-Serif" font-size="10.00" fill="#000000"> </text>
<polyline fill="none" stroke="#000000" points="113,-135.5 148,-135.5 "/>
<text text-anchor="middle" x="130.5" y="-123.5" font-family="Helvetica,sans-Serif" font-size="10.00" fill="#000000"> </text>
</a>
</g>
</g>
<!-- Node4&#45;&gt;Node1 -->
<g id="edge3" class="edge">
<title>Node4&#45;&gt;Node1</title>
<path fill="none" stroke="#404040" d="M119.6539,-116.3812C116.1022,-107.0161 112.1353,-96.5634 108.5,-87 107.62,-84.6851 106.7179,-82.313 105.8066,-79.9177"/>
<polygon fill="none" stroke="#404040" points="105.7937,-79.8836 99.9209,-75.6991 101.5247,-68.6686 107.3975,-72.8531 105.7937,-79.8836"/>
<text text-anchor="middle" x="162.5" y="-90" font-family="Helvetica,sans-Serif" font-size="10.00" fill="#000000"> +output_solver_details</text>
</g>
</g>
</svg>
