<?xml version="1.0" encoding="UTF-8" standalone="no"?>
<!DOCTYPE svg PUBLIC "-//W3C//DTD SVG 1.1//EN"
 "http://www.w3.org/Graphics/SVG/1.1/DTD/svg11.dtd">
<!-- Generated by graphviz version 2.40.1 (20161225.0304)
 -->
<!-- Title: mystl::list_const_iterator&lt; T &gt; Pages: 1 -->
<svg width="182pt" height="442pt"
 viewBox="0.00 0.00 182.00 442.00" xmlns="http://www.w3.org/2000/svg" xmlns:xlink="http://www.w3.org/1999/xlink">
<g id="graph0" class="graph" transform="scale(1 1) rotate(0) translate(4 438)">
<title>mystl::list_const_iterator&lt; T &gt;</title>
<polygon fill="#ffffff" stroke="transparent" points="-4,4 -4,-438 178,-438 178,4 -4,4"/>
<!-- Node0 -->
<g id="node1" class="node">
<title>Node0</title>
<polygon fill="#bfbfbf" stroke="#000000" points="0,-.5 0,-189.5 148,-189.5 148,-.5 0,-.5"/>
<text text-anchor="middle" x="74" y="-177.5" font-family="Helvetica,sans-Serif" font-size="10.00" fill="#000000">mystl::list_const_iterator&lt; T &gt;</text>
<polyline fill="none" stroke="#000000" points="0,-170.5 148,-170.5 "/>
<text text-anchor="start" x="8" y="-158.5" font-family="Helvetica,sans-Serif" font-size="10.00" fill="#000000">+ node_</text>
<polyline fill="none" stroke="#000000" points="0,-151.5 148,-151.5 "/>
<text text-anchor="start" x="8" y="-139.5" font-family="Helvetica,sans-Serif" font-size="10.00" fill="#000000">+ list_const_iterator()</text>
<text text-anchor="start" x="8" y="-128.5" font-family="Helvetica,sans-Serif" font-size="10.00" fill="#000000">+ list_const_iterator()</text>
<text text-anchor="start" x="8" y="-117.5" font-family="Helvetica,sans-Serif" font-size="10.00" fill="#000000">+ list_const_iterator()</text>
<text text-anchor="start" x="8" y="-106.5" font-family="Helvetica,sans-Serif" font-size="10.00" fill="#000000">+ list_const_iterator()</text>
<text text-anchor="start" x="8" y="-95.5" font-family="Helvetica,sans-Serif" font-size="10.00" fill="#000000">+ list_const_iterator()</text>
<text text-anchor="start" x="8" y="-84.5" font-family="Helvetica,sans-Serif" font-size="10.00" fill="#000000">+ operator*()</text>
<text text-anchor="start" x="8" y="-73.5" font-family="Helvetica,sans-Serif" font-size="10.00" fill="#000000">+ operator&#45;&gt;()</text>
<text text-anchor="start" x="8" y="-62.5" font-family="Helvetica,sans-Serif" font-size="10.00" fill="#000000">+ operator++()</text>
<text text-anchor="start" x="8" y="-51.5" font-family="Helvetica,sans-Serif" font-size="10.00" fill="#000000">+ operator++()</text>
<text text-anchor="start" x="8" y="-40.5" font-family="Helvetica,sans-Serif" font-size="10.00" fill="#000000">+ operator&#45;&#45;()</text>
<text text-anchor="start" x="8" y="-29.5" font-family="Helvetica,sans-Serif" font-size="10.00" fill="#000000">+ operator&#45;&#45;()</text>
<text text-anchor="start" x="8" y="-18.5" font-family="Helvetica,sans-Serif" font-size="10.00" fill="#000000">+ operator==()</text>
<text text-anchor="start" x="8" y="-7.5" font-family="Helvetica,sans-Serif" font-size="10.00" fill="#000000">+ operator!=()</text>
</g>
<!-- Node1 -->
<g id="node2" class="node">
<title>Node1</title>
<g id="a_node2"><a xlink:href="structmystl_1_1iterator.html" target="_top" xlink:title="{mystl::iterator\&lt; bidirectional\l_iterator_tag, T \&gt;\n||}">
<polygon fill="#ffffff" stroke="#000000" points="5.5,-227.5 5.5,-295.5 142.5,-295.5 142.5,-227.5 5.5,-227.5"/>
<text text-anchor="start" x="13.5" y="-283.5" font-family="Helvetica,sans-Serif" font-size="10.00" fill="#000000">mystl::iterator&lt; bidirectional</text>
<text text-anchor="middle" x="74" y="-272.5" font-family="Helvetica,sans-Serif" font-size="10.00" fill="#000000">_iterator_tag, T &gt;</text>
<polyline fill="none" stroke="#000000" points="5.5,-265.5 142.5,-265.5 "/>
<text text-anchor="middle" x="74" y="-253.5" font-family="Helvetica,sans-Serif" font-size="10.00" fill="#000000"> </text>
<polyline fill="none" stroke="#000000" points="5.5,-246.5 142.5,-246.5 "/>
<text text-anchor="middle" x="74" y="-234.5" font-family="Helvetica,sans-Serif" font-size="10.00" fill="#000000"> </text>
</a>
</g>
</g>
<!-- Node1&#45;&gt;Node0 -->
<g id="edge1" class="edge">
<title>Node1&#45;&gt;Node0</title>
<path fill="none" stroke="#191970" d="M74,-217.2383C74,-208.5795 74,-199.1939 74,-189.6035"/>
<polygon fill="none" stroke="#191970" points="70.5001,-217.4044 74,-227.4045 77.5001,-217.4045 70.5001,-217.4044"/>
</g>
<!-- Node2 -->
<g id="node3" class="node">
<title>Node2</title>
<g id="a_node3"><a xlink:href="structmystl_1_1iterator.html" target="_top" xlink:title="{mystl::iterator\&lt; Category,\l T, Distance, Pointer,\l Reference \&gt;\n||}">
<polygon fill="#ffffff" stroke="#000000" points="10,-354.5 10,-433.5 138,-433.5 138,-354.5 10,-354.5"/>
<text text-anchor="start" x="18" y="-421.5" font-family="Helvetica,sans-Serif" font-size="10.00" fill="#000000">mystl::iterator&lt; Category,</text>
<text text-anchor="start" x="18" y="-410.5" font-family="Helvetica,sans-Serif" font-size="10.00" fill="#000000"> T, Distance, Pointer,</text>
<text text-anchor="middle" x="74" y="-399.5" font-family="Helvetica,sans-Serif" font-size="10.00" fill="#000000"> Reference &gt;</text>
<polyline fill="none" stroke="#000000" points="10,-392.5 138,-392.5 "/>
<text text-anchor="middle" x="74" y="-380.5" font-family="Helvetica,sans-Serif" font-size="10.00" fill="#000000"> </text>
<polyline fill="none" stroke="#000000" points="10,-373.5 138,-373.5 "/>
<text text-anchor="middle" x="74" y="-361.5" font-family="Helvetica,sans-Serif" font-size="10.00" fill="#000000"> </text>
</a>
</g>
</g>
<!-- Node2&#45;&gt;Node1 -->
<g id="edge2" class="edge">
<title>Node2&#45;&gt;Node1</title>
<path fill="none" stroke="#ffa500" d="M74,-343.9391C74,-327.8943 74,-310.4999 74,-295.8429"/>
<polygon fill="#ffa500" stroke="#ffa500" points="70.5001,-344.2456 74,-354.2456 77.5001,-344.2457 70.5001,-344.2456"/>
<text text-anchor="start" x="74" y="-328" font-family="Helvetica,sans-Serif" font-size="10.00" fill="#000000"> &lt; bidirectional_iterator</text>
<text text-anchor="middle" x="124" y="-317" font-family="Helvetica,sans-Serif" font-size="10.00" fill="#000000">_tag, T &gt;</text>
</g>
</g>
</svg>
