<?xml version="1.0" encoding="UTF-8" standalone="no"?>
<!DOCTYPE svg PUBLIC "-//W3C//DTD SVG 1.1//EN"
 "http://www.w3.org/Graphics/SVG/1.1/DTD/svg11.dtd">
<!-- Generated by graphviz version 2.40.1 (20161225.0304)
 -->
<!-- Title: PETScWrappers::SolverGMRES::AdditionalData Pages: 1 -->
<svg width="225pt" height="182pt"
 viewBox="0.00 0.00 224.50 182.00" xmlns="http://www.w3.org/2000/svg" xmlns:xlink="http://www.w3.org/1999/xlink">
<g id="graph0" class="graph" transform="scale(1 1) rotate(0) translate(4 178)">
<title>PETScWrappers::SolverGMRES::AdditionalData</title>
<polygon fill="#ffffff" stroke="transparent" points="-4,4 -4,-178 220.5,-178 220.5,4 -4,4"/>
<!-- Node1 -->
<g id="node1" class="node">
<title>Node1</title>
<polygon fill="#bfbfbf" stroke="#000000" points="0,-.5 0,-68.5 161,-68.5 161,-.5 0,-.5"/>
<text text-anchor="start" x="8" y="-56.5" font-family="Helvetica,sans-Serif" font-size="10.00" fill="#000000">PETScWrappers::SolverGMRES</text>
<text text-anchor="middle" x="80.5" y="-45.5" font-family="Helvetica,sans-Serif" font-size="10.00" fill="#000000">::AdditionalData</text>
<polyline fill="none" stroke="#000000" points="0,-38.5 161,-38.5 "/>
<text text-anchor="middle" x="80.5" y="-26.5" font-family="Helvetica,sans-Serif" font-size="10.00" fill="#000000"> </text>
<polyline fill="none" stroke="#000000" points="0,-19.5 161,-19.5 "/>
<text text-anchor="start" x="8" y="-7.5" font-family="Helvetica,sans-Serif" font-size="10.00" fill="#000000">+ AdditionalData()</text>
</g>
<!-- Node2 -->
<g id="node2" class="node">
<title>Node2</title>
<g id="a_node2"><a xlink:href="classint.html" target="_top" xlink:title="{int\n||}">
<polygon fill="#ffffff" stroke="#000000" points="12,-116.5 12,-173.5 41,-173.5 41,-116.5 12,-116.5"/>
<text text-anchor="middle" x="26.5" y="-161.5" font-family="Helvetica,sans-Serif" font-size="10.00" fill="#000000">int</text>
<polyline fill="none" stroke="#000000" points="12,-154.5 41,-154.5 "/>
<text text-anchor="middle" x="26.5" y="-142.5" font-family="Helvetica,sans-Serif" font-size="10.00" fill="#000000"> </text>
<polyline fill="none" stroke="#000000" points="12,-135.5 41,-135.5 "/>
<text text-anchor="middle" x="26.5" y="-123.5" font-family="Helvetica,sans-Serif" font-size="10.00" fill="#000000"> </text>
</a>
</g>
</g>
<!-- Node2&#45;&gt;Node1 -->
<g id="edge1" class="edge">
<title>Node2&#45;&gt;Node1</title>
<path fill="none" stroke="#404040" d="M22.7422,-116.3633C22.5679,-106.7031 23.6231,-96.0762 27.5,-87 28.7242,-84.1341 30.1865,-81.343 31.8313,-78.6382"/>
<polygon fill="none" stroke="#404040" points="31.9869,-78.4205 32.2202,-71.2131 38.9628,-68.6564 38.7295,-75.8637 31.9869,-78.4205"/>
<text text-anchor="middle" x="70.5" y="-90" font-family="Helvetica,sans-Serif" font-size="10.00" fill="#000000"> +restart_parameter</text>
</g>
<!-- Node3 -->
<g id="node3" class="node">
<title>Node3</title>
<g id="a_node3"><a xlink:href="classbool.html" target="_top" xlink:title="{bool\n||}">
<polygon fill="#ffffff" stroke="#000000" points="118,-116.5 118,-173.5 153,-173.5 153,-116.5 118,-116.5"/>
<text text-anchor="middle" x="135.5" y="-161.5" font-family="Helvetica,sans-Serif" font-size="10.00" fill="#000000">bool</text>
<polyline fill="none" stroke="#000000" points="118,-154.5 153,-154.5 "/>
<text text-anchor="middle" x="135.5" y="-142.5" font-family="Helvetica,sans-Serif" font-size="10.00" fill="#000000"> </text>
<polyline fill="none" stroke="#000000" points="118,-135.5 153,-135.5 "/>
<text text-anchor="middle" x="135.5" y="-123.5" font-family="Helvetica,sans-Serif" font-size="10.00" fill="#000000"> </text>
</a>
</g>
</g>
<!-- Node3&#45;&gt;Node1 -->
<g id="edge2" class="edge">
<title>Node3&#45;&gt;Node1</title>
<path fill="none" stroke="#404040" d="M125.9691,-116.4935C122.4409,-106.9439 118.155,-96.3519 113.5,-87 112.225,-84.4385 110.859,-81.843 109.4347,-79.2481"/>
<polygon fill="none" stroke="#404040" points="109.3308,-79.0679 102.8679,-75.8693 103.3347,-68.6733 109.7976,-71.8719 109.3308,-79.0679"/>
<text text-anchor="middle" x="167" y="-90" font-family="Helvetica,sans-Serif" font-size="10.00" fill="#000000"> +right_preconditioning</text>
</g>
</g>
</svg>
