<?xml version="1.0" encoding="UTF-8" standalone="no"?>
<!DOCTYPE svg PUBLIC "-//W3C//DTD SVG 1.1//EN"
 "http://www.w3.org/Graphics/SVG/1.1/DTD/svg11.dtd">
<!-- Generated by graphviz version 2.40.1 (20161225.0304)
 -->
<!-- Title: FEValuesViews::Tensor&lt; 2, dim, spacedim &gt;::ShapeFunctionData Pages: 1 -->
<svg width="446pt" height="215pt"
 viewBox="0.00 0.00 445.50 215.00" xmlns="http://www.w3.org/2000/svg" xmlns:xlink="http://www.w3.org/1999/xlink">
<g id="graph0" class="graph" transform="scale(1 1) rotate(0) translate(4 211)">
<title>FEValuesViews::Tensor&lt; 2, dim, spacedim &gt;::ShapeFunctionData</title>
<polygon fill="#ffffff" stroke="transparent" points="-4,4 -4,-211 441.5,-211 441.5,4 -4,4"/>
<!-- Node1 -->
<g id="node1" class="node">
<title>Node1</title>
<polygon fill="#bfbfbf" stroke="#000000" points="104.5,-.5 104.5,-79.5 226.5,-79.5 226.5,-.5 104.5,-.5"/>
<text text-anchor="start" x="112.5" y="-67.5" font-family="Helvetica,sans-Serif" font-size="10.00" fill="#000000">FEValuesViews::Tensor</text>
<text text-anchor="start" x="112.5" y="-56.5" font-family="Helvetica,sans-Serif" font-size="10.00" fill="#000000">&lt; 2, dim, spacedim &gt;</text>
<text text-anchor="middle" x="165.5" y="-45.5" font-family="Helvetica,sans-Serif" font-size="10.00" fill="#000000">::ShapeFunctionData</text>
<polyline fill="none" stroke="#000000" points="104.5,-38.5 226.5,-38.5 "/>
<text text-anchor="middle" x="165.5" y="-26.5" font-family="Helvetica,sans-Serif" font-size="10.00" fill="#000000"> </text>
<polyline fill="none" stroke="#000000" points="104.5,-19.5 226.5,-19.5 "/>
<text text-anchor="middle" x="165.5" y="-7.5" font-family="Helvetica,sans-Serif" font-size="10.00" fill="#000000"> </text>
</g>
<!-- Node2 -->
<g id="node2" class="node">
<title>Node2</title>
<g id="a_node2"><a xlink:href="classint.html" target="_top" xlink:title="{int\n||}">
<polygon fill="#ffffff" stroke="#000000" points="0,-149.5 0,-206.5 29,-206.5 29,-149.5 0,-149.5"/>
<text text-anchor="middle" x="14.5" y="-194.5" font-family="Helvetica,sans-Serif" font-size="10.00" fill="#000000">int</text>
<polyline fill="none" stroke="#000000" points="0,-187.5 29,-187.5 "/>
<text text-anchor="middle" x="14.5" y="-175.5" font-family="Helvetica,sans-Serif" font-size="10.00" fill="#000000"> </text>
<polyline fill="none" stroke="#000000" points="0,-168.5 29,-168.5 "/>
<text text-anchor="middle" x="14.5" y="-156.5" font-family="Helvetica,sans-Serif" font-size="10.00" fill="#000000"> </text>
</a>
</g>
</g>
<!-- Node2&#45;&gt;Node1 -->
<g id="edge1" class="edge">
<title>Node2&#45;&gt;Node1</title>
<path fill="none" stroke="#404040" d="M15.1407,-149.2961C16.9021,-132.6607 21.616,-112.2535 33.5,-98 48.7881,-79.6636 71.0064,-66.9396 92.869,-58.1911"/>
<polygon fill="none" stroke="#404040" points="92.982,-58.1492 97.2133,-52.31 104.2308,-53.97 99.9995,-59.8092 92.982,-58.1492"/>
<text text-anchor="middle" x="97.5" y="-112" font-family="Helvetica,sans-Serif" font-size="10.00" fill="#000000"> +single_nonzero_component</text>
</g>
<!-- Node3 -->
<g id="node3" class="node">
<title>Node3</title>
<g id="a_node3"><a xlink:href="classbool.html" target="_top" xlink:title="{bool\n||}">
<polygon fill="#ffffff" stroke="#000000" points="148,-149.5 148,-206.5 183,-206.5 183,-149.5 148,-149.5"/>
<text text-anchor="middle" x="165.5" y="-194.5" font-family="Helvetica,sans-Serif" font-size="10.00" fill="#000000">bool</text>
<polyline fill="none" stroke="#000000" points="148,-187.5 183,-187.5 "/>
<text text-anchor="middle" x="165.5" y="-175.5" font-family="Helvetica,sans-Serif" font-size="10.00" fill="#000000"> </text>
<polyline fill="none" stroke="#000000" points="148,-168.5 183,-168.5 "/>
<text text-anchor="middle" x="165.5" y="-156.5" font-family="Helvetica,sans-Serif" font-size="10.00" fill="#000000"> </text>
</a>
</g>
</g>
<!-- Node3&#45;&gt;Node1 -->
<g id="edge2" class="edge">
<title>Node3&#45;&gt;Node1</title>
<path fill="none" stroke="#404040" d="M165.5,-149.4063C165.5,-132.7484 165.5,-111.2393 165.5,-91.7066"/>
<polygon fill="none" stroke="#404040" points="165.5001,-91.5453 161.5,-85.5453 165.5,-79.5453 169.5,-85.5452 165.5001,-91.5453"/>
<text text-anchor="start" x="165.5" y="-117.5" font-family="Helvetica,sans-Serif" font-size="10.00" fill="#000000"> +is_nonzero_shape_function</text>
<text text-anchor="middle" x="229.5" y="-106.5" font-family="Helvetica,sans-Serif" font-size="10.00" fill="#000000">_component</text>
</g>
<!-- Node4 -->
<g id="node4" class="node">
<title>Node4</title>
<polygon fill="#ffffff" stroke="#bfbfbf" points="288.5,-149.5 288.5,-206.5 344.5,-206.5 344.5,-149.5 288.5,-149.5"/>
<text text-anchor="middle" x="316.5" y="-194.5" font-family="Helvetica,sans-Serif" font-size="10.00" fill="#000000">unsigned</text>
<polyline fill="none" stroke="#bfbfbf" points="288.5,-187.5 344.5,-187.5 "/>
<text text-anchor="middle" x="316.5" y="-175.5" font-family="Helvetica,sans-Serif" font-size="10.00" fill="#000000"> </text>
<polyline fill="none" stroke="#bfbfbf" points="288.5,-168.5 344.5,-168.5 "/>
<text text-anchor="middle" x="316.5" y="-156.5" font-family="Helvetica,sans-Serif" font-size="10.00" fill="#000000"> </text>
</g>
<!-- Node4&#45;&gt;Node1 -->
<g id="edge3" class="edge">
<title>Node4&#45;&gt;Node1</title>
<path fill="none" stroke="#404040" d="M314.6111,-149.2728C312.1651,-132.6292 306.6822,-112.2215 294.5,-98 279.7409,-80.7703 258.8328,-68.4225 238.1364,-59.6771"/>
<polygon fill="none" stroke="#404040" points="237.8684,-59.5718 230.8209,-61.099 226.7005,-55.181 233.7481,-53.6538 237.8684,-59.5718"/>
<text text-anchor="start" x="309.5" y="-123" font-family="Helvetica,sans-Serif" font-size="10.00" fill="#000000"> +single_nonzero_component</text>
<text text-anchor="middle" x="373.5" y="-112" font-family="Helvetica,sans-Serif" font-size="10.00" fill="#000000">_index</text>
<text text-anchor="middle" x="373.5" y="-101" font-family="Helvetica,sans-Serif" font-size="10.00" fill="#000000">+row_index</text>
</g>
</g>
</svg>
