<?xml version="1.0" encoding="UTF-8" standalone="no"?>
<!DOCTYPE svg PUBLIC "-//W3C//DTD SVG 1.1//EN"
 "http://www.w3.org/Graphics/SVG/1.1/DTD/svg11.dtd">
<!-- Generated by graphviz version 2.40.1 (20161225.0304)
 -->
<!-- Title: internal::DataOutImplementation::ParallelDataBase&lt; dim, spacedim &gt; Pages: 1 -->
<svg width="409pt" height="149pt"
 viewBox="0.00 0.00 409.00 148.50" xmlns="http://www.w3.org/2000/svg" xmlns:xlink="http://www.w3.org/1999/xlink">
<g id="graph0" class="graph" transform="scale(1 1) rotate(0) translate(4 144.5)">
<title>internal::DataOutImplementation::ParallelDataBase&lt; dim, spacedim &gt;</title>
<polygon fill="#ffffff" stroke="transparent" points="-4,4 -4,-144.5 405,-144.5 405,4 -4,4"/>
<!-- Node0 -->
<g id="node1" class="node">
<title>Node0</title>
<polygon fill="#bfbfbf" stroke="#000000" points="0,-61 0,-91 180,-91 180,-61 0,-61"/>
<text text-anchor="start" x="8" y="-79" font-family="Helvetica,sans-Serif" font-size="10.00" fill="#000000">internal::DataOutImplementation</text>
<text text-anchor="middle" x="90" y="-68" font-family="Helvetica,sans-Serif" font-size="10.00" fill="#000000">::ParallelDataBase&lt; dim, spacedim &gt;</text>
</g>
<!-- Node1 -->
<g id="node2" class="node">
<title>Node1</title>
<g id="a_node2"><a xlink:href="structinternal_1_1DataOutFacesImplementation_1_1ParallelData.html" target="_top" xlink:title="internal::DataOutFacesImplementation\l::ParallelData\&lt; dim, spacedim \&gt;">
<polygon fill="#ffffff" stroke="#000000" points="216,-110 216,-140 401,-140 401,-110 216,-110"/>
<text text-anchor="start" x="224" y="-128" font-family="Helvetica,sans-Serif" font-size="10.00" fill="#000000">internal::DataOutFacesImplementation</text>
<text text-anchor="middle" x="308.5" y="-117" font-family="Helvetica,sans-Serif" font-size="10.00" fill="#000000">::ParallelData&lt; dim, spacedim &gt;</text>
</a>
</g>
</g>
<!-- Node0&#45;&gt;Node1 -->
<g id="edge1" class="edge">
<title>Node0&#45;&gt;Node1</title>
<path fill="none" stroke="#191970" d="M166.9571,-93.2581C191.3036,-98.718 218.0009,-104.705 241.5847,-109.9938"/>
<polygon fill="#191970" stroke="#191970" points="167.5657,-89.8077 157.0421,-91.0346 166.0339,-96.6381 167.5657,-89.8077"/>
</g>
<!-- Node2 -->
<g id="node3" class="node">
<title>Node2</title>
<g id="a_node3"><a xlink:href="structinternal_1_1DataOutImplementation_1_1ParallelData.html" target="_top" xlink:title="internal::DataOutImplementation\l::ParallelData\&lt; dim, spacedim \&gt;">
<polygon fill="#ffffff" stroke="#000000" points="229.5,-61 229.5,-91 387.5,-91 387.5,-61 229.5,-61"/>
<text text-anchor="start" x="237.5" y="-79" font-family="Helvetica,sans-Serif" font-size="10.00" fill="#000000">internal::DataOutImplementation</text>
<text text-anchor="middle" x="308.5" y="-68" font-family="Helvetica,sans-Serif" font-size="10.00" fill="#000000">::ParallelData&lt; dim, spacedim &gt;</text>
</a>
</g>
</g>
<!-- Node0&#45;&gt;Node2 -->
<g id="edge2" class="edge">
<title>Node0&#45;&gt;Node2</title>
<path fill="none" stroke="#191970" d="M190.1512,-76C203.3128,-76 216.6518,-76 229.3969,-76"/>
<polygon fill="#191970" stroke="#191970" points="190.1338,-72.5001 180.1338,-76 190.1338,-79.5001 190.1338,-72.5001"/>
</g>
<!-- Node3 -->
<g id="node4" class="node">
<title>Node3</title>
<g id="a_node4"><a xlink:href="structinternal_1_1DataOutRotationImplementation_1_1ParallelData.html" target="_top" xlink:title="internal::DataOutRotation\lImplementation::ParallelData\l\&lt; dim, spacedim \&gt;">
<polygon fill="#ffffff" stroke="#000000" points="237,-.5 237,-41.5 380,-41.5 380,-.5 237,-.5"/>
<text text-anchor="start" x="245" y="-29.5" font-family="Helvetica,sans-Serif" font-size="10.00" fill="#000000">internal::DataOutRotation</text>
<text text-anchor="start" x="245" y="-18.5" font-family="Helvetica,sans-Serif" font-size="10.00" fill="#000000">Implementation::ParallelData</text>
<text text-anchor="middle" x="308.5" y="-7.5" font-family="Helvetica,sans-Serif" font-size="10.00" fill="#000000">&lt; dim, spacedim &gt;</text>
</a>
</g>
</g>
<!-- Node0&#45;&gt;Node3 -->
<g id="edge3" class="edge">
<title>Node0&#45;&gt;Node3</title>
<path fill="none" stroke="#191970" d="M159.6914,-58.4575C184.3147,-52.2595 212.0375,-45.2812 236.8226,-39.0424"/>
<polygon fill="#191970" stroke="#191970" points="158.5492,-55.1358 149.7061,-60.971 160.258,-61.924 158.5492,-55.1358"/>
</g>
</g>
</svg>
