<?xml version="1.0" encoding="UTF-8" standalone="no"?>
<!DOCTYPE svg PUBLIC "-//W3C//DTD SVG 1.1//EN"
 "http://www.w3.org/Graphics/SVG/1.1/DTD/svg11.dtd">
<!-- Generated by graphviz version 2.40.1 (20161225.0304)
 -->
<!-- Title: internal::EvaluatorTensorProduct&lt; evaluate_evenodd, dim, n_rows, n_columns, Number, Number2 &gt; Pages: 1 -->
<svg width="248pt" height="325pt"
 viewBox="0.00 0.00 248.00 325.00" xmlns="http://www.w3.org/2000/svg" xmlns:xlink="http://www.w3.org/1999/xlink">
<g id="graph0" class="graph" transform="scale(1 1) rotate(0) translate(4 321)">
<title>internal::EvaluatorTensorProduct&lt; evaluate_evenodd, dim, n_rows, n_columns, Number, Number2 &gt;</title>
<polygon fill="#ffffff" stroke="transparent" points="-4,4 -4,-321 244,-321 244,4 -4,4"/>
<!-- Node1 -->
<g id="node1" class="node">
<title>Node1</title>
<polygon fill="#bfbfbf" stroke="#000000" points="26.5,-.5 26.5,-189.5 167.5,-189.5 167.5,-.5 26.5,-.5"/>
<text text-anchor="start" x="34.5" y="-177.5" font-family="Helvetica,sans-Serif" font-size="10.00" fill="#000000">internal::EvaluatorTensor</text>
<text text-anchor="start" x="34.5" y="-166.5" font-family="Helvetica,sans-Serif" font-size="10.00" fill="#000000">Product&lt; evaluate_evenodd,</text>
<text text-anchor="start" x="34.5" y="-155.5" font-family="Helvetica,sans-Serif" font-size="10.00" fill="#000000"> dim, n_rows, n_columns,</text>
<text text-anchor="middle" x="97" y="-144.5" font-family="Helvetica,sans-Serif" font-size="10.00" fill="#000000"> Number, Number2 &gt;</text>
<polyline fill="none" stroke="#000000" points="26.5,-137.5 167.5,-137.5 "/>
<text text-anchor="middle" x="97" y="-125.5" font-family="Helvetica,sans-Serif" font-size="10.00" fill="#000000"> </text>
<polyline fill="none" stroke="#000000" points="26.5,-118.5 167.5,-118.5 "/>
<text text-anchor="start" x="34.5" y="-106.5" font-family="Helvetica,sans-Serif" font-size="10.00" fill="#000000">+ EvaluatorTensorProduct()</text>
<text text-anchor="start" x="34.5" y="-95.5" font-family="Helvetica,sans-Serif" font-size="10.00" fill="#000000">+ EvaluatorTensorProduct()</text>
<text text-anchor="start" x="34.5" y="-84.5" font-family="Helvetica,sans-Serif" font-size="10.00" fill="#000000">+ EvaluatorTensorProduct()</text>
<text text-anchor="start" x="34.5" y="-73.5" font-family="Helvetica,sans-Serif" font-size="10.00" fill="#000000">+ values()</text>
<text text-anchor="start" x="34.5" y="-62.5" font-family="Helvetica,sans-Serif" font-size="10.00" fill="#000000">+ gradients()</text>
<text text-anchor="start" x="34.5" y="-51.5" font-family="Helvetica,sans-Serif" font-size="10.00" fill="#000000">+ hessians()</text>
<text text-anchor="start" x="34.5" y="-40.5" font-family="Helvetica,sans-Serif" font-size="10.00" fill="#000000">+ values_one_line()</text>
<text text-anchor="start" x="34.5" y="-29.5" font-family="Helvetica,sans-Serif" font-size="10.00" fill="#000000">+ gradients_one_line()</text>
<text text-anchor="start" x="34.5" y="-18.5" font-family="Helvetica,sans-Serif" font-size="10.00" fill="#000000">+ hessians_one_line()</text>
<text text-anchor="start" x="34.5" y="-7.5" font-family="Helvetica,sans-Serif" font-size="10.00" fill="#000000">+ apply()</text>
</g>
<!-- Node2 -->
<g id="node2" class="node">
<title>Node2</title>
<polygon fill="#ffffff" stroke="#bfbfbf" points="0,-259.5 0,-316.5 90,-316.5 90,-259.5 0,-259.5"/>
<text text-anchor="middle" x="45" y="-304.5" font-family="Helvetica,sans-Serif" font-size="10.00" fill="#000000">const Number2 *</text>
<polyline fill="none" stroke="#bfbfbf" points="0,-297.5 90,-297.5 "/>
<text text-anchor="middle" x="45" y="-285.5" font-family="Helvetica,sans-Serif" font-size="10.00" fill="#000000"> </text>
<polyline fill="none" stroke="#bfbfbf" points="0,-278.5 90,-278.5 "/>
<text text-anchor="middle" x="45" y="-266.5" font-family="Helvetica,sans-Serif" font-size="10.00" fill="#000000"> </text>
</g>
<!-- Node2&#45;&gt;Node1 -->
<g id="edge1" class="edge">
<title>Node2&#45;&gt;Node1</title>
<path fill="none" stroke="#404040" d="M42.5342,-259.1634C41.9258,-243.799 42.3012,-224.6795 46,-208 46.4856,-205.81 47.0163,-203.6111 47.5874,-201.4076"/>
<polygon fill="none" stroke="#404040" points="47.6673,-201.1313 45.4926,-194.2559 51.0027,-189.6042 53.1774,-196.4796 47.6673,-201.1313"/>
<text text-anchor="middle" x="86.5" y="-233" font-family="Helvetica,sans-Serif" font-size="10.00" fill="#000000"> +shape_gradients</text>
<text text-anchor="middle" x="86.5" y="-222" font-family="Helvetica,sans-Serif" font-size="10.00" fill="#000000">+shape_values</text>
<text text-anchor="middle" x="86.5" y="-211" font-family="Helvetica,sans-Serif" font-size="10.00" fill="#000000">+shape_hessians</text>
</g>
<!-- Node3 -->
<g id="node3" class="node">
<title>Node3</title>
<polygon fill="#ffffff" stroke="#bfbfbf" points="121,-259.5 121,-316.5 177,-316.5 177,-259.5 121,-259.5"/>
<text text-anchor="middle" x="149" y="-304.5" font-family="Helvetica,sans-Serif" font-size="10.00" fill="#000000">unsigned</text>
<polyline fill="none" stroke="#bfbfbf" points="121,-297.5 177,-297.5 "/>
<text text-anchor="middle" x="149" y="-285.5" font-family="Helvetica,sans-Serif" font-size="10.00" fill="#000000"> </text>
<polyline fill="none" stroke="#bfbfbf" points="121,-278.5 177,-278.5 "/>
<text text-anchor="middle" x="149" y="-266.5" font-family="Helvetica,sans-Serif" font-size="10.00" fill="#000000"> </text>
</g>
<!-- Node3&#45;&gt;Node1 -->
<g id="edge2" class="edge">
<title>Node3&#45;&gt;Node1</title>
<path fill="none" stroke="#404040" d="M141.2151,-259.1059C136.9838,-243.4014 131.459,-222.8961 125.7554,-201.7269"/>
<polygon fill="none" stroke="#404040" points="125.6973,-201.511 120.2741,-196.7582 122.5754,-189.9241 127.9986,-194.6769 125.6973,-201.511"/>
<text text-anchor="middle" x="187.5" y="-227.5" font-family="Helvetica,sans-Serif" font-size="10.00" fill="#000000"> +n_rows_of_product</text>
<text text-anchor="middle" x="187.5" y="-216.5" font-family="Helvetica,sans-Serif" font-size="10.00" fill="#000000">+n_columns_of_product</text>
</g>
</g>
</svg>
