<?xml version="1.0" encoding="UTF-8" standalone="no"?>
<!DOCTYPE svg PUBLIC "-//W3C//DTD SVG 1.1//EN"
 "http://www.w3.org/Graphics/SVG/1.1/DTD/svg11.dtd">
<!-- Generated by graphviz version 2.40.1 (20161225.0304)
 -->
<!-- Title: SolverQMRS&lt; VectorType &gt;::IterationResult Pages: 1 -->
<svg width="142pt" height="182pt"
 viewBox="0.00 0.00 142.00 182.00" xmlns="http://www.w3.org/2000/svg" xmlns:xlink="http://www.w3.org/1999/xlink">
<g id="graph0" class="graph" transform="scale(1 1) rotate(0) translate(4 178)">
<title>SolverQMRS&lt; VectorType &gt;::IterationResult</title>
<polygon fill="#ffffff" stroke="transparent" points="-4,4 -4,-178 138,-178 138,4 -4,4"/>
<!-- Node1 -->
<g id="node1" class="node">
<title>Node1</title>
<polygon fill="#bfbfbf" stroke="#000000" points="0,-.5 0,-68.5 134,-68.5 134,-.5 0,-.5"/>
<text text-anchor="start" x="8" y="-56.5" font-family="Helvetica,sans-Serif" font-size="10.00" fill="#000000">SolverQMRS&lt; VectorType</text>
<text text-anchor="middle" x="67" y="-45.5" font-family="Helvetica,sans-Serif" font-size="10.00" fill="#000000"> &gt;::IterationResult</text>
<polyline fill="none" stroke="#000000" points="0,-38.5 134,-38.5 "/>
<text text-anchor="middle" x="67" y="-26.5" font-family="Helvetica,sans-Serif" font-size="10.00" fill="#000000"> </text>
<polyline fill="none" stroke="#000000" points="0,-19.5 134,-19.5 "/>
<text text-anchor="start" x="8" y="-7.5" font-family="Helvetica,sans-Serif" font-size="10.00" fill="#000000">+ IterationResult()</text>
</g>
<!-- Node2 -->
<g id="node2" class="node">
<title>Node2</title>
<g id="a_node2"><a xlink:href="classdouble.html" target="_top" xlink:title="{double\n||}">
<polygon fill="#ffffff" stroke="#000000" points="1.5,-116.5 1.5,-173.5 46.5,-173.5 46.5,-116.5 1.5,-116.5"/>
<text text-anchor="middle" x="24" y="-161.5" font-family="Helvetica,sans-Serif" font-size="10.00" fill="#000000">double</text>
<polyline fill="none" stroke="#000000" points="1.5,-154.5 46.5,-154.5 "/>
<text text-anchor="middle" x="24" y="-142.5" font-family="Helvetica,sans-Serif" font-size="10.00" fill="#000000"> </text>
<polyline fill="none" stroke="#000000" points="1.5,-135.5 46.5,-135.5 "/>
<text text-anchor="middle" x="24" y="-123.5" font-family="Helvetica,sans-Serif" font-size="10.00" fill="#000000"> </text>
</a>
</g>
</g>
<!-- Node2&#45;&gt;Node1 -->
<g id="edge1" class="edge">
<title>Node2&#45;&gt;Node1</title>
<path fill="none" stroke="#404040" d="M20.8442,-116.3061C20.7412,-106.7427 21.6871,-96.1899 25,-87 25.9686,-84.3132 27.1357,-81.6603 28.4546,-79.0595"/>
<polygon fill="none" stroke="#404040" points="28.4774,-79.0211 28.1062,-71.8195 34.611,-68.707 34.9822,-75.9086 28.4774,-79.0211"/>
<text text-anchor="middle" x="57" y="-90" font-family="Helvetica,sans-Serif" font-size="10.00" fill="#000000"> +last_residual</text>
</g>
<!-- Node3 -->
<g id="node3" class="node">
<title>Node3</title>
<polygon fill="#ffffff" stroke="#bfbfbf" points="91,-116.5 91,-173.5 131,-173.5 131,-116.5 91,-116.5"/>
<text text-anchor="middle" x="111" y="-161.5" font-family="Helvetica,sans-Serif" font-size="10.00" fill="#000000">State</text>
<polyline fill="none" stroke="#bfbfbf" points="91,-154.5 131,-154.5 "/>
<text text-anchor="middle" x="111" y="-142.5" font-family="Helvetica,sans-Serif" font-size="10.00" fill="#000000"> </text>
<polyline fill="none" stroke="#bfbfbf" points="91,-135.5 131,-135.5 "/>
<text text-anchor="middle" x="111" y="-123.5" font-family="Helvetica,sans-Serif" font-size="10.00" fill="#000000"> </text>
</g>
<!-- Node3&#45;&gt;Node1 -->
<g id="edge2" class="edge">
<title>Node3&#45;&gt;Node1</title>
<path fill="none" stroke="#404040" d="M100.3397,-116.3089C96.7991,-106.9394 92.7919,-96.5024 89,-87 88.07,-84.6695 87.1081,-82.2848 86.1297,-79.8796"/>
<polygon fill="none" stroke="#404040" points="86.0555,-79.6991 80.0734,-75.6724 81.4895,-68.6017 87.4717,-72.6284 86.0555,-79.6991"/>
<text text-anchor="middle" x="107.5" y="-90" font-family="Helvetica,sans-Serif" font-size="10.00" fill="#000000"> +state</text>
</g>
</g>
</svg>
