<?xml version="1.0" encoding="UTF-8" standalone="no"?>
<!DOCTYPE svg PUBLIC "-//W3C//DTD SVG 1.1//EN"
 "http://www.w3.org/Graphics/SVG/1.1/DTD/svg11.dtd">
<!-- Generated by graphviz version 2.40.1 (20161225.0304)
 -->
<!-- Title: MatrixFree&lt; dim, Number, VectorizedArrayType &gt;::AdditionalData Pages: 1 -->
<!--zoomable 524 -->
<svg id="main" version="1.1" xmlns="http://www.w3.org/2000/svg" xmlns:xlink="http://www.w3.org/1999/xlink" xml:space="preserve" onload="init(evt)">
<style type="text/css"><![CDATA[
.edge:hover path { stroke: red; }
.edge:hover polygon { stroke: red; fill: red; }
]]></style>
<script type="text/javascript"><![CDATA[
var edges = document.getElementsByTagName('g');
if (edges && edges.length) {
  for (var i=0;i<edges.length;i++) {
    if (edges[i].id.substr(0,4)=='edge') {
      edges[i].setAttribute('class','edge');
    }
  }
}
]]></script>
        <defs>
                <circle id="rim" cx="0" cy="0" r="7"/>
                <circle id="rim2" cx="0" cy="0" r="3.5"/>
                <g id="zoomPlus">
                        <use xlink:href="#rim" fill="#404040">
                                <set attributeName="fill" to="#808080" begin="zoomplus.mouseover" end="zoomplus.mouseout"/>
                        </use>
                        <path d="M-4,0h8M0,-4v8" fill="none" stroke="white" stroke-width="1.5" pointer-events="none"/>
                </g>
                <g id="zoomMin">
                        <use xlink:href="#rim" fill="#404040">
                                <set attributeName="fill" to="#808080" begin="zoomminus.mouseover" end="zoomminus.mouseout"/>
                        </use>
                        <path d="M-4,0h8" fill="none" stroke="white" stroke-width="1.5" pointer-events="none"/>
                </g>
                <g id="dirArrow">
                        <path fill="none" stroke="white" stroke-width="1.5" d="M0,-3.0v7 M-2.5,-0.5L0,-3.0L2.5,-0.5"/>
                </g>
               <g id="resetDef">
                       <use xlink:href="#rim2" fill="#404040">
                               <set attributeName="fill" to="#808080" begin="reset.mouseover" end="reset.mouseout"/>
                       </use>
               </g>
        </defs>

<script type="text/javascript">
var viewWidth = 770;
var viewHeight = 524;
var sectionId = 'dynsection-0';
</script>
<script xlink:href="svgpan.js"/>
<svg id="graph" class="graph">
<g id="viewport">
<title>MatrixFree&lt; dim, Number, VectorizedArrayType &gt;::AdditionalData</title>
<polygon fill="#ffffff" stroke="transparent" points="-4,4 -4,-520 766,-520 766,4 -4,4"/>
<!-- Node1 -->
<g id="node1" class="node">
<title>Node1</title>
<polygon fill="#bfbfbf" stroke="#000000" points="318.5,-.5 318.5,-101.5 449.5,-101.5 449.5,-.5 318.5,-.5"/>
<text text-anchor="start" x="326.5" y="-89.5" font-family="Helvetica,sans-Serif" font-size="10.00" fill="#000000">MatrixFree&lt; dim, Number,</text>
<text text-anchor="start" x="326.5" y="-78.5" font-family="Helvetica,sans-Serif" font-size="10.00" fill="#000000"> VectorizedArrayType &gt;</text>
<text text-anchor="middle" x="384" y="-67.5" font-family="Helvetica,sans-Serif" font-size="10.00" fill="#000000">::AdditionalData</text>
<polyline fill="none" stroke="#000000" points="318.5,-60.5 449.5,-60.5 "/>
<text text-anchor="middle" x="384" y="-48.5" font-family="Helvetica,sans-Serif" font-size="10.00" fill="#000000"> </text>
<polyline fill="none" stroke="#000000" points="318.5,-41.5 449.5,-41.5 "/>
<text text-anchor="start" x="326.5" y="-29.5" font-family="Helvetica,sans-Serif" font-size="10.00" fill="#000000">+ AdditionalData()</text>
<text text-anchor="start" x="326.5" y="-18.5" font-family="Helvetica,sans-Serif" font-size="10.00" fill="#000000">+ AdditionalData()</text>
<text text-anchor="start" x="326.5" y="-7.5" font-family="Helvetica,sans-Serif" font-size="10.00" fill="#000000">+ operator=()</text>
</g>
<!-- Node2 -->
<g id="node2" class="node">
<title>Node2</title>
<polygon fill="#ffffff" stroke="#bfbfbf" points="0,-243 0,-300 112,-300 112,-243 0,-243"/>
<text text-anchor="middle" x="56" y="-288" font-family="Helvetica,sans-Serif" font-size="10.00" fill="#000000">TasksParallelScheme</text>
<polyline fill="none" stroke="#bfbfbf" points="0,-281 112,-281 "/>
<text text-anchor="middle" x="56" y="-269" font-family="Helvetica,sans-Serif" font-size="10.00" fill="#000000"> </text>
<polyline fill="none" stroke="#bfbfbf" points="0,-262 112,-262 "/>
<text text-anchor="middle" x="56" y="-250" font-family="Helvetica,sans-Serif" font-size="10.00" fill="#000000"> </text>
</g>
<!-- Node2&#45;&gt;Node1 -->
<g id="edge1" class="edge">
<title>Node2&#45;&gt;Node1</title>
<path fill="none" stroke="#404040" d="M47.9793,-242.9642C40.4414,-209.4325 34.1595,-154.0592 63,-120 93.8082,-83.6169 221.4056,-65.3208 306.1522,-57.0088"/>
<polygon fill="none" stroke="#404040" points="306.3819,-56.9871 311.9773,-52.4383 318.3283,-55.8539 312.7328,-60.4026 306.3819,-56.9871"/>
<text text-anchor="middle" x="117.5" y="-167" font-family="Helvetica,sans-Serif" font-size="10.00" fill="#000000"> +tasks_parallel_scheme</text>
</g>
<!-- Node3 -->
<g id="node3" class="node">
<title>Node3</title>
<polygon fill="#ffffff" stroke="#bfbfbf" points="152,-243 152,-300 224,-300 224,-243 152,-243"/>
<text text-anchor="middle" x="188" y="-288" font-family="Helvetica,sans-Serif" font-size="10.00" fill="#000000">UpdateFlags</text>
<polyline fill="none" stroke="#bfbfbf" points="152,-281 224,-281 "/>
<text text-anchor="middle" x="188" y="-269" font-family="Helvetica,sans-Serif" font-size="10.00" fill="#000000"> </text>
<polyline fill="none" stroke="#bfbfbf" points="152,-262 224,-262 "/>
<text text-anchor="middle" x="188" y="-250" font-family="Helvetica,sans-Serif" font-size="10.00" fill="#000000"> </text>
</g>
<!-- Node3&#45;&gt;Node1 -->
<g id="edge2" class="edge">
<title>Node3&#45;&gt;Node1</title>
<path fill="none" stroke="#404040" d="M180.8702,-242.7219C174.4875,-209.7207 169.7205,-155.6001 196,-120 209.8664,-101.2156 260.93,-83.1491 306.3436,-70.2177"/>
<polygon fill="none" stroke="#404040" points="306.486,-70.1781 311.1936,-64.7157 318.0465,-66.9603 313.3388,-72.4228 306.486,-70.1781"/>
<text text-anchor="start" x="196" y="-200" font-family="Helvetica,sans-Serif" font-size="10.00" fill="#000000"> +mapping_update_flags</text>
<text text-anchor="middle" x="249.5" y="-189" font-family="Helvetica,sans-Serif" font-size="10.00" fill="#000000">_faces_by_cells</text>
<text text-anchor="middle" x="249.5" y="-178" font-family="Helvetica,sans-Serif" font-size="10.00" fill="#000000">+mapping_update_flags</text>
<text text-anchor="start" x="196" y="-167" font-family="Helvetica,sans-Serif" font-size="10.00" fill="#000000">+mapping_update_flags</text>
<text text-anchor="middle" x="249.5" y="-156" font-family="Helvetica,sans-Serif" font-size="10.00" fill="#000000">_inner_faces</text>
<text text-anchor="start" x="196" y="-145" font-family="Helvetica,sans-Serif" font-size="10.00" fill="#000000">+mapping_update_flags</text>
<text text-anchor="middle" x="249.5" y="-134" font-family="Helvetica,sans-Serif" font-size="10.00" fill="#000000">_boundary_faces</text>
</g>
<!-- Node4 -->
<g id="node4" class="node">
<title>Node4</title>
<g id="a_node4"><a xlink:href="classbool.html" target="_top" xlink:title="{bool\n||}">
<polygon fill="#ffffff" stroke="#000000" points="300.5,-243 300.5,-300 335.5,-300 335.5,-243 300.5,-243"/>
<text text-anchor="middle" x="318" y="-288" font-family="Helvetica,sans-Serif" font-size="10.00" fill="#000000">bool</text>
<polyline fill="none" stroke="#000000" points="300.5,-281 335.5,-281 "/>
<text text-anchor="middle" x="318" y="-269" font-family="Helvetica,sans-Serif" font-size="10.00" fill="#000000"> </text>
<polyline fill="none" stroke="#000000" points="300.5,-262 335.5,-262 "/>
<text text-anchor="middle" x="318" y="-250" font-family="Helvetica,sans-Serif" font-size="10.00" fill="#000000"> </text>
</a>
</g>
</g>
<!-- Node4&#45;&gt;Node1 -->
<g id="edge3" class="edge">
<title>Node4&#45;&gt;Node1</title>
<path fill="none" stroke="#404040" d="M312.1705,-242.9513C307.1092,-211.5771 302.8588,-160.2861 319,-120 320.0845,-117.2931 321.3303,-114.6304 322.7099,-112.0187"/>
<polygon fill="none" stroke="#404040" points="322.8215,-111.8354 322.5265,-104.6303 329.0639,-101.5868 329.3589,-108.7919 322.8215,-111.8354"/>
<text text-anchor="start" x="319" y="-211" font-family="Helvetica,sans-Serif" font-size="10.00" fill="#000000"> +hold_all_faces_to</text>
<text text-anchor="middle" x="373.5" y="-200" font-family="Helvetica,sans-Serif" font-size="10.00" fill="#000000">_owned_cells</text>
<text text-anchor="middle" x="373.5" y="-189" font-family="Helvetica,sans-Serif" font-size="10.00" fill="#000000">+store_plain_indices</text>
<text text-anchor="middle" x="373.5" y="-178" font-family="Helvetica,sans-Serif" font-size="10.00" fill="#000000">+initialize_indices</text>
<text text-anchor="start" x="319" y="-167" font-family="Helvetica,sans-Serif" font-size="10.00" fill="#000000">+overlap_communication</text>
<text text-anchor="middle" x="373.5" y="-156" font-family="Helvetica,sans-Serif" font-size="10.00" fill="#000000">_computation</text>
<text text-anchor="start" x="319" y="-145" font-family="Helvetica,sans-Serif" font-size="10.00" fill="#000000">+cell_vectorization</text>
<text text-anchor="middle" x="373.5" y="-134" font-family="Helvetica,sans-Serif" font-size="10.00" fill="#000000">_categories_strict</text>
<text text-anchor="middle" x="373.5" y="-123" font-family="Helvetica,sans-Serif" font-size="10.00" fill="#000000">+initialize_mapping</text>
</g>
<!-- Node5 -->
<g id="node5" class="node">
<title>Node5</title>
<g id="a_node5"><a xlink:href="classMPI__Comm.html" target="_top" xlink:title="{MPI_Comm\n||}">
<polygon fill="#ffffff" stroke="#000000" points="415.5,-243 415.5,-300 484.5,-300 484.5,-243 415.5,-243"/>
<text text-anchor="middle" x="450" y="-288" font-family="Helvetica,sans-Serif" font-size="10.00" fill="#000000">MPI_Comm</text>
<polyline fill="none" stroke="#000000" points="415.5,-281 484.5,-281 "/>
<text text-anchor="middle" x="450" y="-269" font-family="Helvetica,sans-Serif" font-size="10.00" fill="#000000"> </text>
<polyline fill="none" stroke="#000000" points="415.5,-262 484.5,-262 "/>
<text text-anchor="middle" x="450" y="-250" font-family="Helvetica,sans-Serif" font-size="10.00" fill="#000000"> </text>
</a>
</g>
</g>
<!-- Node5&#45;&gt;Node1 -->
<g id="edge4" class="edge">
<title>Node5&#45;&gt;Node1</title>
<path fill="none" stroke="#404040" d="M449.4165,-242.9784C447.9748,-211.8499 443.2353,-160.9803 428,-120 427.0748,-117.5114 426.0502,-115.0184 424.9457,-112.535"/>
<polygon fill="none" stroke="#404040" points="424.9396,-112.5225 418.7048,-108.8994 419.6511,-101.7507 425.886,-105.3738 424.9396,-112.5225"/>
<text text-anchor="middle" x="492" y="-167" font-family="Helvetica,sans-Serif" font-size="10.00" fill="#000000"> +communicator_sm</text>
</g>
<!-- Node6 -->
<g id="node6" class="node">
<title>Node6</title>
<polygon fill="#ffffff" stroke="#bfbfbf" points="507.5,-237.5 507.5,-305.5 618.5,-305.5 618.5,-237.5 507.5,-237.5"/>
<text text-anchor="start" x="515.5" y="-293.5" font-family="Helvetica,sans-Serif" font-size="10.00" fill="#000000">std::vector&lt; unsigned</text>
<text text-anchor="middle" x="563" y="-282.5" font-family="Helvetica,sans-Serif" font-size="10.00" fill="#000000"> int &gt;</text>
<polyline fill="none" stroke="#bfbfbf" points="507.5,-275.5 618.5,-275.5 "/>
<text text-anchor="middle" x="563" y="-263.5" font-family="Helvetica,sans-Serif" font-size="10.00" fill="#000000"> </text>
<polyline fill="none" stroke="#bfbfbf" points="507.5,-256.5 618.5,-256.5 "/>
<text text-anchor="middle" x="563" y="-244.5" font-family="Helvetica,sans-Serif" font-size="10.00" fill="#000000"> </text>
</g>
<!-- Node6&#45;&gt;Node1 -->
<g id="edge5" class="edge">
<title>Node6&#45;&gt;Node1</title>
<path fill="none" stroke="#404040" d="M561.834,-237.4381C559.8622,-198.5295 554.64,-137.9253 541,-120 521.5024,-94.3766 490.4604,-78.0885 461.1071,-67.8211"/>
<polygon fill="none" stroke="#404040" points="460.9451,-67.7683 453.9997,-69.7079 449.538,-64.0428 456.4834,-62.1032 460.9451,-67.7683"/>
<text text-anchor="start" x="560" y="-172.5" font-family="Helvetica,sans-Serif" font-size="10.00" fill="#000000"> +cell_vectorization</text>
<text text-anchor="middle" x="602.5" y="-161.5" font-family="Helvetica,sans-Serif" font-size="10.00" fill="#000000">_category</text>
</g>
<!-- Node7 -->
<g id="node7" class="node">
<title>Node7</title>
<g id="a_node7"><a xlink:href="classunsigned_01int.html" target="_top" xlink:title="{unsigned int\n||}">
<polygon fill="#ffffff" stroke="#000000" points="486.5,-353.5 486.5,-410.5 555.5,-410.5 555.5,-353.5 486.5,-353.5"/>
<text text-anchor="middle" x="521" y="-398.5" font-family="Helvetica,sans-Serif" font-size="10.00" fill="#000000">unsigned int</text>
<polyline fill="none" stroke="#000000" points="486.5,-391.5 555.5,-391.5 "/>
<text text-anchor="middle" x="521" y="-379.5" font-family="Helvetica,sans-Serif" font-size="10.00" fill="#000000"> </text>
<polyline fill="none" stroke="#000000" points="486.5,-372.5 555.5,-372.5 "/>
<text text-anchor="middle" x="521" y="-360.5" font-family="Helvetica,sans-Serif" font-size="10.00" fill="#000000"> </text>
</a>
</g>
</g>
<!-- Node7&#45;&gt;Node6 -->
<g id="edge6" class="edge">
<title>Node7&#45;&gt;Node6</title>
<path fill="none" stroke="#404040" d="M525.7691,-353.206C527.7797,-343.7343 530.4863,-333.2624 534,-324 534.9452,-321.5083 535.9913,-318.99 537.1087,-316.4755"/>
<polygon fill="none" stroke="#404040" points="537.1568,-316.3756 536.1618,-309.2335 542.3719,-305.568 543.3669,-312.7102 537.1568,-316.3756"/>
<text text-anchor="middle" x="558.5" y="-327" font-family="Helvetica,sans-Serif" font-size="10.00" fill="#000000"> +elements</text>
</g>
<!-- Node8 -->
<g id="node8" class="node">
<title>Node8</title>
<g id="a_node8"><a xlink:title="STL class. ">
<polygon fill="#ffffff" stroke="#bfbfbf" points="573.5,-353.5 573.5,-410.5 660.5,-410.5 660.5,-353.5 573.5,-353.5"/>
<text text-anchor="middle" x="617" y="-398.5" font-family="Helvetica,sans-Serif" font-size="10.00" fill="#000000">std::vector&lt; T &gt;</text>
<polyline fill="none" stroke="#bfbfbf" points="573.5,-391.5 660.5,-391.5 "/>
<text text-anchor="middle" x="617" y="-379.5" font-family="Helvetica,sans-Serif" font-size="10.00" fill="#000000"> </text>
<polyline fill="none" stroke="#bfbfbf" points="573.5,-372.5 660.5,-372.5 "/>
<text text-anchor="middle" x="617" y="-360.5" font-family="Helvetica,sans-Serif" font-size="10.00" fill="#000000"> </text>
</a>
</g>
</g>
<!-- Node8&#45;&gt;Node6 -->
<g id="edge7" class="edge">
<title>Node8&#45;&gt;Node6</title>
<path fill="none" stroke="#ffa500" d="M598.4397,-344.0202C592.3441,-331.5466 585.6103,-317.7675 579.6643,-305.6001"/>
<polygon fill="#ffa500" stroke="#ffa500" points="595.4178,-345.8081 602.9531,-353.2559 601.707,-342.7346 595.4178,-345.8081"/>
<text text-anchor="middle" x="630" y="-327" font-family="Helvetica,sans-Serif" font-size="10.00" fill="#000000"> &lt; unsigned int &gt;</text>
</g>
<!-- Node9 -->
<g id="node9" class="node">
<title>Node9</title>
<polygon fill="#ffffff" stroke="#bfbfbf" points="602.5,-458.5 602.5,-515.5 631.5,-515.5 631.5,-458.5 602.5,-458.5"/>
<text text-anchor="middle" x="617" y="-503.5" font-family="Helvetica,sans-Serif" font-size="10.00" fill="#000000">T</text>
<polyline fill="none" stroke="#bfbfbf" points="602.5,-496.5 631.5,-496.5 "/>
<text text-anchor="middle" x="617" y="-484.5" font-family="Helvetica,sans-Serif" font-size="10.00" fill="#000000"> </text>
<polyline fill="none" stroke="#bfbfbf" points="602.5,-477.5 631.5,-477.5 "/>
<text text-anchor="middle" x="617" y="-465.5" font-family="Helvetica,sans-Serif" font-size="10.00" fill="#000000"> </text>
</g>
<!-- Node9&#45;&gt;Node8 -->
<g id="edge8" class="edge">
<title>Node9&#45;&gt;Node8</title>
<path fill="none" stroke="#404040" d="M617,-458.3083C617,-447.4281 617,-434.817 617,-423.0192"/>
<polygon fill="none" stroke="#404040" points="617.0001,-422.657 613,-416.6571 617,-410.657 621,-416.657 617.0001,-422.657"/>
<text text-anchor="middle" x="641.5" y="-432" font-family="Helvetica,sans-Serif" font-size="10.00" fill="#000000"> +elements</text>
</g>
<!-- Node10 -->
<g id="node10" class="node">
<title>Node10</title>
<polygon fill="#ffffff" stroke="#bfbfbf" points="643,-243 643,-300 699,-300 699,-243 643,-243"/>
<text text-anchor="middle" x="671" y="-288" font-family="Helvetica,sans-Serif" font-size="10.00" fill="#000000">unsigned</text>
<polyline fill="none" stroke="#bfbfbf" points="643,-281 699,-281 "/>
<text text-anchor="middle" x="671" y="-269" font-family="Helvetica,sans-Serif" font-size="10.00" fill="#000000"> </text>
<polyline fill="none" stroke="#bfbfbf" points="643,-262 699,-262 "/>
<text text-anchor="middle" x="671" y="-250" font-family="Helvetica,sans-Serif" font-size="10.00" fill="#000000"> </text>
</g>
<!-- Node10&#45;&gt;Node1 -->
<g id="edge9" class="edge">
<title>Node10&#45;&gt;Node1</title>
<path fill="none" stroke="#404040" d="M675.4536,-242.7951C678.9497,-209.0989 679.047,-153.5656 649,-120 624.2099,-92.3069 530.8413,-72.7017 461.9163,-61.6357"/>
<polygon fill="none" stroke="#404040" points="461.6411,-61.5927 455.0942,-64.6156 449.7858,-59.7349 456.3327,-56.712 461.6411,-61.5927"/>
<text text-anchor="middle" x="719.5" y="-172.5" font-family="Helvetica,sans-Serif" font-size="10.00" fill="#000000"> +tasks_block_size</text>
<text text-anchor="middle" x="719.5" y="-161.5" font-family="Helvetica,sans-Serif" font-size="10.00" fill="#000000">+mg_level</text>
</g>
</g>
</svg>
        <g id="navigator" transform="translate(0 0)" fill="#404254">
                <rect fill="#f2f5e9" fill-opacity="0.5" stroke="#606060" stroke-width=".5" x="0" y="0" width="60" height="60"/>
                <use id="zoomplus" xlink:href="#zoomPlus" x="17" y="9" onmousedown="handleZoom(evt,'in')"/>
                <use id="zoomminus" xlink:href="#zoomMin" x="42" y="9" onmousedown="handleZoom(evt,'out')"/>
                <use id="reset" xlink:href="#resetDef" x="30" y="36" onmousedown="handleReset()"/>
                <g id="arrowUp" xlink:href="#dirArrow" transform="translate(30 24)" onmousedown="handlePan(0,-1)">
                  <use xlink:href="#rim" fill="#404040">
                        <set attributeName="fill" to="#808080" begin="arrowUp.mouseover" end="arrowUp.mouseout"/>
                  </use>
                  <path fill="none" stroke="white" stroke-width="1.5" d="M0,-3.0v7 M-2.5,-0.5L0,-3.0L2.5,-0.5"/>
                </g>
                <g id="arrowRight" xlink:href="#dirArrow" transform="rotate(90) translate(36 -43)" onmousedown="handlePan(1,0)">
                  <use xlink:href="#rim" fill="#404040">
                        <set attributeName="fill" to="#808080" begin="arrowRight.mouseover" end="arrowRight.mouseout"/>
                  </use>
                  <path fill="none" stroke="white" stroke-width="1.5" d="M0,-3.0v7 M-2.5,-0.5L0,-3.0L2.5,-0.5"/>
                </g>
                <g id="arrowDown" xlink:href="#dirArrow" transform="rotate(180) translate(-30 -48)" onmousedown="handlePan(0,1)">
                  <use xlink:href="#rim" fill="#404040">
                        <set attributeName="fill" to="#808080" begin="arrowDown.mouseover" end="arrowDown.mouseout"/>
                  </use>
                  <path fill="none" stroke="white" stroke-width="1.5" d="M0,-3.0v7 M-2.5,-0.5L0,-3.0L2.5,-0.5"/>
                </g>
                <g id="arrowLeft" xlink:href="#dirArrow" transform="rotate(270) translate(-36 17)" onmousedown="handlePan(-1,0)">
                  <use xlink:href="#rim" fill="#404040">
                        <set attributeName="fill" to="#808080" begin="arrowLeft.mouseover" end="arrowLeft.mouseout"/>
                  </use>
                  <path fill="none" stroke="white" stroke-width="1.5" d="M0,-3.0v7 M-2.5,-0.5L0,-3.0L2.5,-0.5"/>
                </g>
        </g>
        <svg viewBox="0 0 15 15" width="100%" height="30px" preserveAspectRatio="xMaxYMin meet">
         <g id="arrow_out" transform="scale(0.3 0.3)">
          <a xlink:href="structMatrixFree_1_1AdditionalData__coll__graph_org.svg" target="_base">
           <rect id="button" ry="5" rx="5" y="6" x="6" height="38" width="38"
                fill="#f2f5e9" fill-opacity="0.5" stroke="#606060" stroke-width="1.0"/>
           <path id="arrow"
             d="M 11.500037,31.436501 C 11.940474,20.09759 22.043105,11.32322 32.158766,21.979434 L 37.068811,17.246167 C 37.068811,17.246167 37.088388,32 37.088388,32 L 22.160133,31.978069 C 22.160133,31.978069 26.997745,27.140456 26.997745,27.140456 C 18.528582,18.264221 13.291696,25.230495 11.500037,31.436501 z"
             style="fill:#404040;"/>
          </a>
         </g>
        </svg>
</svg>
