<?xml version="1.0" encoding="UTF-8" standalone="no"?>
<!DOCTYPE svg PUBLIC "-//W3C//DTD SVG 1.1//EN"
 "http://www.w3.org/Graphics/SVG/1.1/DTD/svg11.dtd">
<!-- Generated by graphviz version 2.40.1 (20161225.0304)
 -->
<!-- Title: GridIn&lt; dim, spacedim &gt;::ExodusIIData Pages: 1 -->
<svg width="230pt" height="508pt"
 viewBox="0.00 0.00 229.50 508.00" xmlns="http://www.w3.org/2000/svg" xmlns:xlink="http://www.w3.org/1999/xlink">
<g id="graph0" class="graph" transform="scale(1 1) rotate(0) translate(4 504)">
<title>GridIn&lt; dim, spacedim &gt;::ExodusIIData</title>
<polygon fill="#ffffff" stroke="transparent" points="-4,4 -4,-504 225.5,-504 225.5,4 -4,4"/>
<!-- Node1 -->
<g id="node1" class="node">
<title>Node1</title>
<polygon fill="#bfbfbf" stroke="#000000" points="34.5,-.5 34.5,-68.5 150.5,-68.5 150.5,-.5 34.5,-.5"/>
<text text-anchor="start" x="42.5" y="-56.5" font-family="Helvetica,sans-Serif" font-size="10.00" fill="#000000">GridIn&lt; dim, spacedim</text>
<text text-anchor="middle" x="92.5" y="-45.5" font-family="Helvetica,sans-Serif" font-size="10.00" fill="#000000"> &gt;::ExodusIIData</text>
<polyline fill="none" stroke="#000000" points="34.5,-38.5 150.5,-38.5 "/>
<text text-anchor="middle" x="92.5" y="-26.5" font-family="Helvetica,sans-Serif" font-size="10.00" fill="#000000"> </text>
<polyline fill="none" stroke="#000000" points="34.5,-19.5 150.5,-19.5 "/>
<text text-anchor="middle" x="92.5" y="-7.5" font-family="Helvetica,sans-Serif" font-size="10.00" fill="#000000"> </text>
</g>
<!-- Node2 -->
<g id="node2" class="node">
<title>Node2</title>
<polygon fill="#ffffff" stroke="#bfbfbf" points="33,-116.5 33,-184.5 152,-184.5 152,-116.5 33,-116.5"/>
<text text-anchor="start" x="41" y="-172.5" font-family="Helvetica,sans-Serif" font-size="10.00" fill="#000000">std::vector&lt; std::vector</text>
<text text-anchor="middle" x="92.5" y="-161.5" font-family="Helvetica,sans-Serif" font-size="10.00" fill="#000000">&lt; int &gt; &gt;</text>
<polyline fill="none" stroke="#bfbfbf" points="33,-154.5 152,-154.5 "/>
<text text-anchor="middle" x="92.5" y="-142.5" font-family="Helvetica,sans-Serif" font-size="10.00" fill="#000000"> </text>
<polyline fill="none" stroke="#bfbfbf" points="33,-135.5 152,-135.5 "/>
<text text-anchor="middle" x="92.5" y="-123.5" font-family="Helvetica,sans-Serif" font-size="10.00" fill="#000000"> </text>
</g>
<!-- Node2&#45;&gt;Node1 -->
<g id="edge1" class="edge">
<title>Node2&#45;&gt;Node1</title>
<path fill="none" stroke="#404040" d="M92.5,-116.3236C92.5,-105.213 92.5,-92.6908 92.5,-80.8451"/>
<polygon fill="none" stroke="#404040" points="92.5001,-80.833 88.5,-74.833 92.5,-68.833 96.5,-74.833 92.5001,-80.833"/>
<text text-anchor="middle" x="135" y="-90" font-family="Helvetica,sans-Serif" font-size="10.00" fill="#000000"> +id_to_sideset_ids</text>
</g>
<!-- Node3 -->
<g id="node3" class="node">
<title>Node3</title>
<polygon fill="#ffffff" stroke="#bfbfbf" points="5.5,-232.5 5.5,-289.5 97.5,-289.5 97.5,-232.5 5.5,-232.5"/>
<text text-anchor="middle" x="51.5" y="-277.5" font-family="Helvetica,sans-Serif" font-size="10.00" fill="#000000">std::vector&lt; int &gt;</text>
<polyline fill="none" stroke="#bfbfbf" points="5.5,-270.5 97.5,-270.5 "/>
<text text-anchor="middle" x="51.5" y="-258.5" font-family="Helvetica,sans-Serif" font-size="10.00" fill="#000000"> </text>
<polyline fill="none" stroke="#bfbfbf" points="5.5,-251.5 97.5,-251.5 "/>
<text text-anchor="middle" x="51.5" y="-239.5" font-family="Helvetica,sans-Serif" font-size="10.00" fill="#000000"> </text>
</g>
<!-- Node3&#45;&gt;Node2 -->
<g id="edge2" class="edge">
<title>Node3&#45;&gt;Node2</title>
<path fill="none" stroke="#404040" d="M60.4218,-232.226C63.4624,-222.8516 66.9851,-212.4326 70.5,-203 71.3762,-200.6487 72.295,-198.2474 73.2393,-195.8291"/>
<polygon fill="none" stroke="#404040" points="73.3112,-195.6497 71.8336,-188.5916 77.7804,-184.5129 79.2581,-191.571 73.3112,-195.6497"/>
<text text-anchor="middle" x="95" y="-206" font-family="Helvetica,sans-Serif" font-size="10.00" fill="#000000"> +elements</text>
</g>
<!-- Node4 -->
<g id="node4" class="node">
<title>Node4</title>
<g id="a_node4"><a xlink:href="classint.html" target="_top" xlink:title="{int\n||}">
<polygon fill="#ffffff" stroke="#000000" points="0,-337.5 0,-394.5 29,-394.5 29,-337.5 0,-337.5"/>
<text text-anchor="middle" x="14.5" y="-382.5" font-family="Helvetica,sans-Serif" font-size="10.00" fill="#000000">int</text>
<polyline fill="none" stroke="#000000" points="0,-375.5 29,-375.5 "/>
<text text-anchor="middle" x="14.5" y="-363.5" font-family="Helvetica,sans-Serif" font-size="10.00" fill="#000000"> </text>
<polyline fill="none" stroke="#000000" points="0,-356.5 29,-356.5 "/>
<text text-anchor="middle" x="14.5" y="-344.5" font-family="Helvetica,sans-Serif" font-size="10.00" fill="#000000"> </text>
</a>
</g>
</g>
<!-- Node4&#45;&gt;Node3 -->
<g id="edge3" class="edge">
<title>Node4&#45;&gt;Node3</title>
<path fill="none" stroke="#404040" d="M11.4566,-337.3459C11.3619,-327.7854 12.2843,-317.2244 15.5,-308 16.4421,-305.2976 17.6051,-302.6271 18.9298,-300.0135"/>
<polygon fill="none" stroke="#404040" points="18.9689,-299.9482 18.6203,-292.7455 25.1349,-289.6535 25.4835,-296.8562 18.9689,-299.9482"/>
<text text-anchor="middle" x="40" y="-311" font-family="Helvetica,sans-Serif" font-size="10.00" fill="#000000"> +elements</text>
</g>
<!-- Node5 -->
<g id="node5" class="node">
<title>Node5</title>
<g id="a_node5"><a xlink:title="STL class. ">
<polygon fill="#ffffff" stroke="#bfbfbf" points="68,-337.5 68,-394.5 155,-394.5 155,-337.5 68,-337.5"/>
<text text-anchor="middle" x="111.5" y="-382.5" font-family="Helvetica,sans-Serif" font-size="10.00" fill="#000000">std::vector&lt; T &gt;</text>
<polyline fill="none" stroke="#bfbfbf" points="68,-375.5 155,-375.5 "/>
<text text-anchor="middle" x="111.5" y="-363.5" font-family="Helvetica,sans-Serif" font-size="10.00" fill="#000000"> </text>
<polyline fill="none" stroke="#bfbfbf" points="68,-356.5 155,-356.5 "/>
<text text-anchor="middle" x="111.5" y="-344.5" font-family="Helvetica,sans-Serif" font-size="10.00" fill="#000000"> </text>
</a>
</g>
</g>
<!-- Node5&#45;&gt;Node2 -->
<g id="edge6" class="edge">
<title>Node5&#45;&gt;Node2</title>
<path fill="none" stroke="#ffa500" d="M119.547,-327.0109C124.9925,-293.6187 129.5452,-244.4964 119.5,-203 118.0049,-196.8238 115.6503,-190.5598 112.9402,-184.6129"/>
<polygon fill="#ffa500" stroke="#ffa500" points="116.028,-326.8187 117.765,-337.2702 122.9248,-328.0167 116.028,-326.8187"/>
<text text-anchor="middle" x="173" y="-258.5" font-family="Helvetica,sans-Serif" font-size="10.00" fill="#000000"> &lt; std::vector&lt; int &gt; &gt;</text>
</g>
<!-- Node5&#45;&gt;Node3 -->
<g id="edge4" class="edge">
<title>Node5&#45;&gt;Node3</title>
<path fill="none" stroke="#ffa500" d="M89.9616,-328.3078C82.6853,-315.5742 74.6857,-301.5749 67.8754,-289.657"/>
<polygon fill="#ffa500" stroke="#ffa500" points="87.1044,-330.3623 95.1047,-337.3083 93.1822,-326.8893 87.1044,-330.3623"/>
<text text-anchor="middle" x="98.5" y="-311" font-family="Helvetica,sans-Serif" font-size="10.00" fill="#000000"> &lt; int &gt;</text>
</g>
<!-- Node6 -->
<g id="node6" class="node">
<title>Node6</title>
<polygon fill="#ffffff" stroke="#bfbfbf" points="97,-442.5 97,-499.5 126,-499.5 126,-442.5 97,-442.5"/>
<text text-anchor="middle" x="111.5" y="-487.5" font-family="Helvetica,sans-Serif" font-size="10.00" fill="#000000">T</text>
<polyline fill="none" stroke="#bfbfbf" points="97,-480.5 126,-480.5 "/>
<text text-anchor="middle" x="111.5" y="-468.5" font-family="Helvetica,sans-Serif" font-size="10.00" fill="#000000"> </text>
<polyline fill="none" stroke="#bfbfbf" points="97,-461.5 126,-461.5 "/>
<text text-anchor="middle" x="111.5" y="-449.5" font-family="Helvetica,sans-Serif" font-size="10.00" fill="#000000"> </text>
</g>
<!-- Node6&#45;&gt;Node5 -->
<g id="edge5" class="edge">
<title>Node6&#45;&gt;Node5</title>
<path fill="none" stroke="#404040" d="M111.5,-442.3083C111.5,-431.4281 111.5,-418.817 111.5,-407.0192"/>
<polygon fill="none" stroke="#404040" points="111.5001,-406.657 107.5,-400.6571 111.5,-394.657 115.5,-400.657 111.5001,-406.657"/>
<text text-anchor="middle" x="136" y="-416" font-family="Helvetica,sans-Serif" font-size="10.00" fill="#000000"> +elements</text>
</g>
</g>
</svg>
