<?xml version="1.0" encoding="UTF-8" standalone="no"?>
<!DOCTYPE svg PUBLIC "-//W3C//DTD SVG 1.1//EN"
 "http://www.w3.org/Graphics/SVG/1.1/DTD/svg11.dtd">
<!-- Generated by graphviz version 2.40.1 (20161225.0304)
 -->
<!-- Title: PETScWrappers::SolverBase::SolverData Pages: 1 -->
<svg width="154pt" height="182pt"
 viewBox="0.00 0.00 154.00 182.00" xmlns="http://www.w3.org/2000/svg" xmlns:xlink="http://www.w3.org/1999/xlink">
<g id="graph0" class="graph" transform="scale(1 1) rotate(0) translate(4 178)">
<title>PETScWrappers::SolverBase::SolverData</title>
<polygon fill="#ffffff" stroke="transparent" points="-4,4 -4,-178 150,-178 150,4 -4,4"/>
<!-- Node1 -->
<g id="node1" class="node">
<title>Node1</title>
<polygon fill="#bfbfbf" stroke="#000000" points="0,-.5 0,-68.5 146,-68.5 146,-.5 0,-.5"/>
<text text-anchor="start" x="8" y="-56.5" font-family="Helvetica,sans-Serif" font-size="10.00" fill="#000000">PETScWrappers::SolverBase</text>
<text text-anchor="middle" x="73" y="-45.5" font-family="Helvetica,sans-Serif" font-size="10.00" fill="#000000">::SolverData</text>
<polyline fill="none" stroke="#000000" points="0,-38.5 146,-38.5 "/>
<text text-anchor="middle" x="73" y="-26.5" font-family="Helvetica,sans-Serif" font-size="10.00" fill="#000000"> </text>
<polyline fill="none" stroke="#000000" points="0,-19.5 146,-19.5 "/>
<text text-anchor="start" x="8" y="-7.5" font-family="Helvetica,sans-Serif" font-size="10.00" fill="#000000">+ ~SolverData()</text>
</g>
<!-- Node2 -->
<g id="node2" class="node">
<title>Node2</title>
<polygon fill="#ffffff" stroke="#bfbfbf" points="54.5,-116.5 54.5,-173.5 91.5,-173.5 91.5,-116.5 54.5,-116.5"/>
<text text-anchor="middle" x="73" y="-161.5" font-family="Helvetica,sans-Serif" font-size="10.00" fill="#000000">KSP</text>
<polyline fill="none" stroke="#bfbfbf" points="54.5,-154.5 91.5,-154.5 "/>
<text text-anchor="middle" x="73" y="-142.5" font-family="Helvetica,sans-Serif" font-size="10.00" fill="#000000"> </text>
<polyline fill="none" stroke="#bfbfbf" points="54.5,-135.5 91.5,-135.5 "/>
<text text-anchor="middle" x="73" y="-123.5" font-family="Helvetica,sans-Serif" font-size="10.00" fill="#000000"> </text>
</g>
<!-- Node2&#45;&gt;Node1 -->
<g id="edge1" class="edge">
<title>Node2&#45;&gt;Node1</title>
<path fill="none" stroke="#404040" d="M73,-116.2559C73,-105.4349 73,-92.8362 73,-80.8169"/>
<polygon fill="none" stroke="#404040" points="73.0001,-80.6001 69,-74.6001 73,-68.6001 77,-74.6 73.0001,-80.6001"/>
<text text-anchor="middle" x="85.5" y="-90" font-family="Helvetica,sans-Serif" font-size="10.00" fill="#000000"> +ksp</text>
</g>
</g>
</svg>
