<?xml version="1.0" encoding="UTF-8" standalone="no"?>
<!DOCTYPE svg PUBLIC "-//W3C//DTD SVG 1.1//EN"
 "http://www.w3.org/Graphics/SVG/1.1/DTD/svg11.dtd">
<!-- Generated by graphviz version 2.40.1 (20161225.0304)
 -->
<!-- Title: Histogram::Interval Pages: 1 -->
<svg width="138pt" height="193pt"
 viewBox="0.00 0.00 138.00 193.00" xmlns="http://www.w3.org/2000/svg" xmlns:xlink="http://www.w3.org/1999/xlink">
<g id="graph0" class="graph" transform="scale(1 1) rotate(0) translate(4 189)">
<title>Histogram::Interval</title>
<polygon fill="#ffffff" stroke="transparent" points="-4,4 -4,-189 134,-189 134,4 -4,4"/>
<!-- Node1 -->
<g id="node1" class="node">
<title>Node1</title>
<polygon fill="#bfbfbf" stroke="#000000" points="0,-.5 0,-68.5 128,-68.5 128,-.5 0,-.5"/>
<text text-anchor="middle" x="64" y="-56.5" font-family="Helvetica,sans-Serif" font-size="10.00" fill="#000000">Histogram::Interval</text>
<polyline fill="none" stroke="#000000" points="0,-49.5 128,-49.5 "/>
<text text-anchor="middle" x="64" y="-37.5" font-family="Helvetica,sans-Serif" font-size="10.00" fill="#000000"> </text>
<polyline fill="none" stroke="#000000" points="0,-30.5 128,-30.5 "/>
<text text-anchor="start" x="8" y="-18.5" font-family="Helvetica,sans-Serif" font-size="10.00" fill="#000000">+ Interval()</text>
<text text-anchor="start" x="8" y="-7.5" font-family="Helvetica,sans-Serif" font-size="10.00" fill="#000000">+ memory_consumption()</text>
</g>
<!-- Node2 -->
<g id="node2" class="node">
<title>Node2</title>
<g id="a_node2"><a xlink:href="classdouble.html" target="_top" xlink:title="{double\n||}">
<polygon fill="#ffffff" stroke="#000000" points="4.5,-127.5 4.5,-184.5 49.5,-184.5 49.5,-127.5 4.5,-127.5"/>
<text text-anchor="middle" x="27" y="-172.5" font-family="Helvetica,sans-Serif" font-size="10.00" fill="#000000">double</text>
<polyline fill="none" stroke="#000000" points="4.5,-165.5 49.5,-165.5 "/>
<text text-anchor="middle" x="27" y="-153.5" font-family="Helvetica,sans-Serif" font-size="10.00" fill="#000000"> </text>
<polyline fill="none" stroke="#000000" points="4.5,-146.5 49.5,-146.5 "/>
<text text-anchor="middle" x="27" y="-134.5" font-family="Helvetica,sans-Serif" font-size="10.00" fill="#000000"> </text>
</a>
</g>
</g>
<!-- Node2&#45;&gt;Node1 -->
<g id="edge1" class="edge">
<title>Node2&#45;&gt;Node1</title>
<path fill="none" stroke="#404040" d="M23.7347,-127.2031C23.2355,-114.593 23.935,-99.7875 28,-87 28.8161,-84.4328 29.8031,-81.8784 30.9212,-79.3579"/>
<polygon fill="none" stroke="#404040" points="30.9893,-79.2272 30.2171,-72.0576 36.5383,-68.5872 37.3104,-75.7569 30.9893,-79.2272"/>
<text text-anchor="middle" x="54" y="-101" font-family="Helvetica,sans-Serif" font-size="10.00" fill="#000000"> +left_point</text>
<text text-anchor="middle" x="54" y="-90" font-family="Helvetica,sans-Serif" font-size="10.00" fill="#000000">+right_point</text>
</g>
<!-- Node3 -->
<g id="node3" class="node">
<title>Node3</title>
<polygon fill="#ffffff" stroke="#bfbfbf" points="74,-127.5 74,-184.5 130,-184.5 130,-127.5 74,-127.5"/>
<text text-anchor="middle" x="102" y="-172.5" font-family="Helvetica,sans-Serif" font-size="10.00" fill="#000000">unsigned</text>
<polyline fill="none" stroke="#bfbfbf" points="74,-165.5 130,-165.5 "/>
<text text-anchor="middle" x="102" y="-153.5" font-family="Helvetica,sans-Serif" font-size="10.00" fill="#000000"> </text>
<polyline fill="none" stroke="#bfbfbf" points="74,-146.5 130,-146.5 "/>
<text text-anchor="middle" x="102" y="-134.5" font-family="Helvetica,sans-Serif" font-size="10.00" fill="#000000"> </text>
</g>
<!-- Node3&#45;&gt;Node1 -->
<g id="edge2" class="edge">
<title>Node3&#45;&gt;Node1</title>
<path fill="none" stroke="#404040" d="M92.9945,-127.2062C88.6222,-113.2262 83.2627,-96.0898 78.3462,-80.37"/>
<polygon fill="none" stroke="#404040" points="78.2786,-80.1537 72.6699,-75.6212 74.6965,-68.7007 80.3052,-73.2332 78.2786,-80.1537"/>
<text text-anchor="middle" x="107" y="-95.5" font-family="Helvetica,sans-Serif" font-size="10.00" fill="#000000"> +content</text>
</g>
</g>
</svg>
